G04 Layer_Physical_Order=1*
G04 Layer_Color=3162822*
%FSLAX44Y44*%
%MOMM*%
G71*
G01*
G75*
%ADD10C,0.2500*%
%ADD11C,0.8000*%
%ADD12C,0.3500*%
%ADD13C,0.4500*%
%ADD14C,0.2000*%
%ADD15C,6.0000*%
%ADD16C,0.6000*%
G36*
X1139887Y836593D02*
X1139629Y836372D01*
X1135540Y831584D01*
X1132250Y826216D01*
X1129840Y820399D01*
X1128371Y814277D01*
X1127877Y808000D01*
X1128371Y801723D01*
X1129840Y795601D01*
X1132250Y789784D01*
X1135540Y784416D01*
X1139629Y779628D01*
X1144416Y775539D01*
X1149784Y772250D01*
X1155601Y769840D01*
X1161724Y768370D01*
X1168000Y767876D01*
X1174277Y768370D01*
X1180399Y769840D01*
X1186216Y772250D01*
X1191584Y775539D01*
X1196372Y779628D01*
X1196593Y779887D01*
X1198000Y779368D01*
Y60633D01*
X1196593Y60113D01*
X1196372Y60372D01*
X1191584Y64461D01*
X1186216Y67751D01*
X1180399Y70160D01*
X1174277Y71630D01*
X1168000Y72124D01*
X1161724Y71630D01*
X1155601Y70160D01*
X1149784Y67751D01*
X1144416Y64461D01*
X1139629Y60372D01*
X1135540Y55584D01*
X1132250Y50216D01*
X1129840Y44399D01*
X1128371Y38277D01*
X1127877Y32000D01*
X1128371Y25723D01*
X1129840Y19601D01*
X1132250Y13784D01*
X1135540Y8416D01*
X1139629Y3628D01*
X1139887Y3407D01*
X1139368Y2000D01*
X60632D01*
X60113Y3407D01*
X60372Y3628D01*
X64461Y8416D01*
X67751Y13784D01*
X70160Y19601D01*
X71630Y25723D01*
X72124Y32000D01*
X71630Y38277D01*
X70160Y44399D01*
X67751Y50216D01*
X64461Y55584D01*
X60372Y60372D01*
X55584Y64461D01*
X50216Y67751D01*
X44399Y70160D01*
X38277Y71630D01*
X32000Y72124D01*
X25723Y71630D01*
X19601Y70160D01*
X13784Y67751D01*
X8416Y64461D01*
X3628Y60372D01*
X3407Y60113D01*
X2000Y60632D01*
Y779368D01*
X3407Y779887D01*
X3628Y779628D01*
X8416Y775539D01*
X13784Y772250D01*
X19601Y769840D01*
X25723Y768370D01*
X32000Y767876D01*
X38277Y768370D01*
X44399Y769840D01*
X50216Y772250D01*
X55584Y775539D01*
X60372Y779628D01*
X64461Y784416D01*
X67751Y789784D01*
X70160Y795601D01*
X71630Y801723D01*
X72124Y808000D01*
X71630Y814277D01*
X70160Y820399D01*
X67751Y826216D01*
X64461Y831584D01*
X60372Y836372D01*
X60113Y836593D01*
X60632Y838000D01*
X1139368D01*
X1139887Y836593D01*
D02*
G37*
%LPC*%
G36*
X354602Y720321D02*
X338000D01*
X335846Y720038D01*
X333839Y719206D01*
X332116Y717884D01*
X330794Y716161D01*
X329962Y714154D01*
X329679Y712000D01*
X329962Y709846D01*
X330794Y707839D01*
X332116Y706116D01*
X333839Y704794D01*
X335846Y703962D01*
X338000Y703679D01*
X351155D01*
X381929Y672905D01*
Y656403D01*
X380543Y655828D01*
X343686Y692686D01*
X341962Y694008D01*
X339955Y694839D01*
X337802Y695123D01*
X335648Y694839D01*
X333641Y694008D01*
X331918Y692686D01*
X330595Y690962D01*
X329764Y688955D01*
X329481Y686802D01*
X329764Y684648D01*
X330595Y682641D01*
X331918Y680918D01*
X374929Y637907D01*
Y542808D01*
X372977Y542551D01*
X371092Y541770D01*
X369473Y540527D01*
X368459Y539206D01*
X367196Y539468D01*
X366959Y539597D01*
Y559858D01*
X366693Y561881D01*
X365912Y563766D01*
X364669Y565385D01*
X364527Y565527D01*
X362908Y566770D01*
X361023Y567551D01*
X359000Y567817D01*
X356977Y567551D01*
X355092Y566770D01*
X354317Y566175D01*
X352817Y566915D01*
Y586000D01*
X352551Y588023D01*
X351770Y589908D01*
X350527Y591527D01*
X348908Y592770D01*
X347023Y593550D01*
X345000Y593817D01*
X342977Y593550D01*
X341092Y592770D01*
X339473Y591527D01*
X339317Y591324D01*
X337817Y591834D01*
Y610000D01*
X337551Y612023D01*
X336770Y613908D01*
X335527Y615527D01*
X333908Y616770D01*
X332023Y617551D01*
X330000Y617817D01*
X327977Y617551D01*
X326092Y616770D01*
X324473Y615527D01*
X323230Y613908D01*
X322449Y612023D01*
X322183Y610000D01*
Y606709D01*
X320977Y606550D01*
X319092Y605770D01*
X317473Y604527D01*
X316230Y602908D01*
X315450Y601023D01*
X315183Y599000D01*
Y498546D01*
X315450Y496523D01*
X315773Y495742D01*
X316230Y494637D01*
X317473Y493019D01*
X319564Y490927D01*
X319473Y489527D01*
X318230Y487908D01*
X317449Y486023D01*
X317183Y484000D01*
Y464929D01*
X317285Y464151D01*
X316473Y463527D01*
X315230Y461908D01*
X314450Y460023D01*
X314183Y458000D01*
Y437000D01*
X314450Y434977D01*
X314773Y434196D01*
X315230Y433092D01*
X316473Y431473D01*
X319769Y428176D01*
X319671Y426679D01*
X319473Y426527D01*
X319472Y426527D01*
X318230Y424908D01*
X317449Y423022D01*
X317183Y420999D01*
Y244000D01*
X317449Y241976D01*
X318230Y240091D01*
X319472Y238472D01*
X321091Y237230D01*
X322976Y236449D01*
X324278Y236278D01*
X324450Y234977D01*
X325230Y233092D01*
X326473Y231473D01*
X328092Y230230D01*
X329977Y229450D01*
X331278Y229278D01*
X331450Y227977D01*
X332230Y226092D01*
X333473Y224473D01*
X335092Y223230D01*
X336977Y222449D01*
X338057Y222307D01*
X338200Y221227D01*
X338523Y220446D01*
X338980Y219342D01*
X340223Y217723D01*
X340473Y217473D01*
X342092Y216230D01*
X343977Y215450D01*
X345277Y215278D01*
X345449Y213976D01*
X346230Y212091D01*
X347472Y210472D01*
X349091Y209230D01*
X350976Y208449D01*
X352999Y208183D01*
X355023Y208449D01*
X356908Y209230D01*
X358527Y210472D01*
X359769Y212091D01*
X360550Y213976D01*
X360816Y216000D01*
Y239202D01*
X361944Y240191D01*
X362000Y240183D01*
X364023Y240450D01*
X365909Y241230D01*
X367527Y242473D01*
X368770Y244092D01*
X369262Y245280D01*
X370000Y245183D01*
X372023Y245450D01*
X373908Y246230D01*
X375527Y247473D01*
X376770Y249092D01*
X376869Y249332D01*
X378000Y249183D01*
X380023Y249450D01*
X381908Y250230D01*
X383527Y251473D01*
X384770Y253092D01*
X385235Y254214D01*
X387023Y254450D01*
X388908Y255230D01*
X390527Y256473D01*
X391732Y258043D01*
X392130Y258125D01*
X392972Y258202D01*
X394183Y257110D01*
Y204000D01*
X394450Y201977D01*
X395230Y200091D01*
X396473Y198473D01*
X398092Y197230D01*
X399977Y196450D01*
X402000Y196183D01*
X404023Y196450D01*
X404554Y196669D01*
X405473Y195473D01*
X405473Y195472D01*
X407092Y194230D01*
X408977Y193449D01*
X410183Y193290D01*
Y193000D01*
X410450Y190977D01*
X411231Y189091D01*
X412473Y187472D01*
X414092Y186230D01*
X415977Y185449D01*
X417411Y185260D01*
X417449Y184976D01*
X418230Y183091D01*
X419472Y181472D01*
X421091Y180230D01*
X422976Y179449D01*
X424278Y179277D01*
X424450Y177976D01*
X425231Y176091D01*
X426473Y174472D01*
X428092Y173230D01*
X429977Y172449D01*
X431278Y172278D01*
X431450Y170977D01*
X432231Y169091D01*
X433473Y167472D01*
X435092Y166230D01*
X436977Y165449D01*
X438278Y165278D01*
X438450Y163976D01*
X439231Y162091D01*
X440473Y160472D01*
X442092Y159230D01*
X443977Y158449D01*
X445655Y158228D01*
X446230Y156841D01*
X447472Y155222D01*
X449091Y153980D01*
X450976Y153199D01*
X452999Y152933D01*
X455023Y153199D01*
X456908Y153980D01*
X458527Y155222D01*
X459769Y156841D01*
X460550Y158727D01*
X460816Y160750D01*
Y259291D01*
X462023Y259450D01*
X463908Y260230D01*
X465527Y261473D01*
X466770Y263092D01*
X467551Y264977D01*
X467588Y265260D01*
X469022Y265449D01*
X470908Y266230D01*
X472526Y267472D01*
X473769Y269091D01*
X474550Y270976D01*
X474721Y272278D01*
X476022Y272449D01*
X477907Y273230D01*
X479526Y274472D01*
X480769Y276091D01*
X481550Y277976D01*
X481587Y278260D01*
X483022Y278449D01*
X484907Y279230D01*
X486526Y280472D01*
X487769Y282091D01*
X488550Y283976D01*
X488721Y285278D01*
X490022Y285449D01*
X491908Y286230D01*
X493526Y287472D01*
X494769Y289091D01*
X495550Y290976D01*
X495721Y292278D01*
X497022Y292449D01*
X498908Y293230D01*
X500526Y294472D01*
X501769Y296091D01*
X502550Y297976D01*
X502816Y299999D01*
Y361001D01*
X502550Y363024D01*
X501769Y364909D01*
X500526Y366528D01*
X480762Y386293D01*
X481336Y387679D01*
X567052D01*
X589114Y365616D01*
X590838Y364294D01*
X592845Y363462D01*
X594998Y363179D01*
X597152Y363462D01*
X599159Y364294D01*
X600882Y365616D01*
X602205Y367340D01*
X603036Y369347D01*
X603310Y371429D01*
X641301D01*
X647114Y365616D01*
X648838Y364294D01*
X650844Y363462D01*
X652998Y363179D01*
X655152Y363462D01*
X657159Y364294D01*
X658882Y365616D01*
X660205Y367340D01*
X661036Y369347D01*
X661319Y371500D01*
X661036Y373654D01*
X660205Y375661D01*
X658882Y377384D01*
X650632Y385634D01*
X648909Y386956D01*
X646902Y387788D01*
X644748Y388071D01*
X600094D01*
X579282Y408884D01*
X577558Y410206D01*
X575551Y411038D01*
X573398Y411321D01*
X438346D01*
X414820Y434847D01*
Y443225D01*
X415000Y443373D01*
X990000D01*
X992536Y443877D01*
X994686Y445314D01*
X996123Y447464D01*
X996627Y450000D01*
Y630000D01*
X996123Y632536D01*
X994686Y634686D01*
X992536Y636123D01*
X990000Y636627D01*
X415000D01*
X412464Y636123D01*
X410314Y634686D01*
X408877Y632536D01*
X408373Y630000D01*
Y462568D01*
X406987Y461994D01*
X405534Y463447D01*
Y481186D01*
X405251Y483340D01*
X404419Y485347D01*
X403097Y487070D01*
X398571Y491596D01*
Y676352D01*
X398288Y678505D01*
X397456Y680512D01*
X396134Y682236D01*
X360486Y717884D01*
X358762Y719206D01*
X356755Y720038D01*
X354602Y720321D01*
D02*
G37*
G36*
X925000Y336591D02*
X881000D01*
X878259Y336230D01*
X875705Y335172D01*
X873511Y333489D01*
X857509Y317486D01*
X855826Y315293D01*
X854768Y312739D01*
X854407Y309998D01*
Y169996D01*
Y168384D01*
X842613Y156591D01*
X806000D01*
X803259Y156230D01*
X800705Y155172D01*
X798511Y153489D01*
X791511Y146489D01*
X789828Y144295D01*
X788770Y141741D01*
X788409Y139000D01*
Y118387D01*
X783215Y113192D01*
X552323D01*
X551911Y113855D01*
X551696Y114692D01*
X552770Y116092D01*
X553550Y117977D01*
X553817Y120000D01*
Y326998D01*
X553550Y329021D01*
X552770Y330907D01*
X551527Y332526D01*
X551526Y332527D01*
X549907Y333769D01*
X548022Y334550D01*
X545999Y334816D01*
X543976Y334550D01*
X542090Y333769D01*
X540471Y332527D01*
X539229Y330908D01*
X538448Y329022D01*
X538277Y327721D01*
X536976Y327550D01*
X535090Y326769D01*
X533472Y325527D01*
X532229Y323908D01*
X531448Y322023D01*
X531414Y321762D01*
X530999Y321816D01*
X528976Y321550D01*
X527090Y320769D01*
X525472Y319527D01*
X524229Y317908D01*
X523448Y316022D01*
X523411Y315739D01*
X521977Y315550D01*
X520092Y314770D01*
X518473Y313527D01*
X517230Y311908D01*
X516450Y310023D01*
X516412Y309739D01*
X514977Y309550D01*
X513092Y308770D01*
X511473Y307527D01*
X510230Y305908D01*
X509450Y304023D01*
X509183Y302000D01*
Y152000D01*
X509450Y149977D01*
X510230Y148091D01*
X511473Y146472D01*
X513092Y145230D01*
X514977Y144449D01*
X516656Y144228D01*
X517230Y142841D01*
X518473Y141222D01*
X520092Y139980D01*
X521977Y139199D01*
X523182Y139040D01*
Y122000D01*
X523448Y119977D01*
X524229Y118091D01*
X525472Y116472D01*
X527090Y115230D01*
X528389Y114692D01*
X528090Y113192D01*
X269000D01*
X266259Y112831D01*
X263705Y111774D01*
X261511Y110090D01*
X259828Y107897D01*
X258770Y105343D01*
X258409Y102602D01*
X258770Y99861D01*
X259828Y97306D01*
X261511Y95113D01*
X263705Y93430D01*
X266259Y92372D01*
X269000Y92011D01*
X787602D01*
X790343Y92372D01*
X792897Y93430D01*
X795090Y95113D01*
X806489Y106511D01*
X808172Y108705D01*
X809230Y111259D01*
X809591Y114000D01*
Y123083D01*
X811091Y123690D01*
X812846Y122962D01*
X815000Y122679D01*
X855953D01*
X883116Y95516D01*
X884839Y94194D01*
X886846Y93362D01*
X889000Y93079D01*
X1048400D01*
X1050554Y93362D01*
X1052561Y94194D01*
X1054284Y95516D01*
X1067884Y109116D01*
X1069206Y110839D01*
X1070038Y112846D01*
X1070321Y115000D01*
Y217000D01*
X1070038Y219154D01*
X1069206Y221161D01*
X1067884Y222884D01*
X1066161Y224206D01*
X1064154Y225038D01*
X1062000Y225321D01*
X1049000D01*
X1046846Y225038D01*
X1044839Y224206D01*
X1043116Y222884D01*
X1041794Y221161D01*
X1040962Y219154D01*
X1040679Y217000D01*
X1040962Y214846D01*
X1041794Y212839D01*
X1043116Y211116D01*
X1044839Y209794D01*
X1046846Y208962D01*
X1049000Y208679D01*
X1053679D01*
Y118447D01*
X1044953Y109721D01*
X946564D01*
X946319Y110000D01*
Y153001D01*
X946036Y155155D01*
X945204Y157162D01*
X943882Y158885D01*
X930884Y171883D01*
X926887Y175880D01*
X925164Y177202D01*
X923157Y178034D01*
X921003Y178317D01*
X875588D01*
Y305611D01*
X885387Y315409D01*
X925000D01*
X927741Y315770D01*
X930295Y316828D01*
X932489Y318511D01*
X934172Y320705D01*
X935230Y323259D01*
X935591Y326000D01*
X935230Y328741D01*
X934172Y331295D01*
X932489Y333489D01*
X930295Y335172D01*
X927741Y336230D01*
X925000Y336591D01*
D02*
G37*
%LPD*%
G36*
X413425Y358973D02*
X415044Y357730D01*
X416929Y356950D01*
X418952Y356683D01*
X437584D01*
X438183Y356000D01*
Y337915D01*
X436683Y337175D01*
X435909Y337769D01*
X434023Y338550D01*
X432000Y338817D01*
X429977Y338550D01*
X428092Y337769D01*
X426473Y336527D01*
X425231Y334908D01*
X424450Y333023D01*
X424183Y331000D01*
Y312915D01*
X422683Y312175D01*
X421909Y312769D01*
X420023Y313550D01*
X418000Y313817D01*
X415977Y313550D01*
X414092Y312769D01*
X412473Y311527D01*
X411231Y309908D01*
X410450Y308023D01*
X410183Y306000D01*
Y286833D01*
X408683Y286324D01*
X408527Y286527D01*
X406909Y287769D01*
X405023Y288550D01*
X403000Y288817D01*
X402067Y288694D01*
X400567Y289914D01*
Y369871D01*
X401953Y370445D01*
X413425Y358973D01*
D02*
G37*
G36*
X929677Y149554D02*
Y110000D01*
X929433Y109721D01*
X892447D01*
X865284Y136884D01*
X863561Y138206D01*
X861554Y139038D01*
X859400Y139321D01*
X857258D01*
X856684Y140707D01*
X872486Y156509D01*
X874169Y158702D01*
X875227Y161257D01*
X875282Y161675D01*
X917557D01*
X929677Y149554D01*
D02*
G37*
D10*
X517000Y152000D02*
Y302000D01*
X324999Y420999D02*
X325000Y421000D01*
X324999Y244000D02*
Y420999D01*
X439000Y173000D02*
Y319000D01*
X418000Y193000D02*
Y306000D01*
X446000Y166000D02*
Y356000D01*
X432000Y180000D02*
Y331000D01*
X424999Y186999D02*
Y294000D01*
X411000Y201000D02*
X411000Y201000D01*
X411000Y201000D02*
Y273000D01*
X359000Y560000D02*
X359142Y559858D01*
X494999Y299999D02*
Y361001D01*
X487999Y292999D02*
Y360930D01*
X480999Y285999D02*
Y360859D01*
X473999Y279999D02*
Y360788D01*
X402000Y280000D02*
X403000Y281000D01*
X402000Y204000D02*
Y280000D01*
X466500Y389500D02*
X494999Y361001D01*
X464429Y384500D02*
X487999Y360930D01*
X462358Y379500D02*
X480999Y360859D01*
X460287Y374500D02*
X473999Y360788D01*
X455500Y364500D02*
X460000Y360000D01*
Y267000D02*
Y360000D01*
X457571Y369500D02*
X466999Y360072D01*
Y272999D02*
Y360072D01*
X429308Y389500D02*
X466500D01*
X427237Y384500D02*
X464429D01*
X425165Y379500D02*
X462358D01*
X423094Y374500D02*
X460287D01*
X421023Y369500D02*
X457571D01*
X418952Y364500D02*
X455500D01*
X345750Y223250D02*
X346000Y223000D01*
X323000Y498546D02*
Y599000D01*
X345000Y499858D02*
Y586000D01*
X330000Y498617D02*
Y610000D01*
X322000Y437000D02*
Y458000D01*
Y437000D02*
X332000Y427000D01*
Y237000D02*
Y427000D01*
X329000Y437071D02*
X339000Y427071D01*
Y230000D02*
Y427071D01*
X329000Y437071D02*
Y447000D01*
X352999Y216000D02*
Y427214D01*
X332000Y465000D02*
Y472000D01*
X325000Y464929D02*
Y484000D01*
X345750Y223250D02*
Y427392D01*
X341000Y439213D02*
X352999Y427214D01*
X341000Y439213D02*
Y456000D01*
X332000Y465000D02*
X341000Y456000D01*
X336000Y437142D02*
Y453929D01*
Y437142D02*
X345750Y427392D01*
X325000Y464929D02*
X336000Y453929D01*
X347142Y440142D02*
X357999Y429285D01*
X347142Y440142D02*
Y456929D01*
X323000Y498546D02*
X338750Y482796D01*
Y465321D02*
X347142Y456929D01*
X338750Y465321D02*
Y482796D01*
X330000Y498617D02*
X343750Y484867D01*
Y467392D02*
Y484867D01*
Y467392D02*
X352678Y458465D01*
Y441678D02*
Y458465D01*
Y441678D02*
X362999Y431356D01*
X337000Y498688D02*
Y573000D01*
Y498688D02*
X348750Y486938D01*
Y469463D02*
Y486938D01*
X358713Y442713D02*
X367999Y433427D01*
X348750Y469463D02*
X358713Y459500D01*
Y442713D02*
Y459500D01*
X345000Y499858D02*
X353750Y491108D01*
Y471534D02*
Y491108D01*
Y471534D02*
X363713Y461571D01*
Y444784D02*
Y461571D01*
Y444784D02*
X372999Y435498D01*
X352000Y499929D02*
Y548000D01*
Y499929D02*
X358750Y493179D01*
Y473605D02*
Y493179D01*
Y473605D02*
X368713Y463642D01*
Y446855D02*
Y463642D01*
Y446855D02*
X377999Y437569D01*
X359142Y499858D02*
X363750Y495250D01*
Y480000D02*
Y495250D01*
Y480000D02*
X373713Y470037D01*
Y448926D02*
Y470037D01*
Y448926D02*
X382999Y439640D01*
X359142Y499858D02*
Y559858D01*
X378713Y450997D02*
Y472108D01*
Y450997D02*
X387999Y441711D01*
X375000Y482892D02*
X383713Y474179D01*
Y453068D02*
Y474179D01*
Y453068D02*
X392999Y443782D01*
X375000Y482892D02*
Y535000D01*
X368750Y482071D02*
X378713Y472108D01*
X368750Y482071D02*
Y511250D01*
X366000Y514000D02*
X368750Y511250D01*
X366000Y514000D02*
Y523000D01*
X530999Y122000D02*
Y313999D01*
X524000Y146750D02*
Y308000D01*
X452999Y160750D02*
Y345000D01*
X538999Y140000D02*
Y319999D01*
X545999Y326999D02*
X546000Y326998D01*
Y120000D02*
Y326998D01*
X378000Y257000D02*
Y380000D01*
X392750Y266271D02*
Y383632D01*
X362000Y248000D02*
Y393546D01*
X370000Y253000D02*
Y373000D01*
X392999Y425808D02*
Y443782D01*
Y425808D02*
X429308Y389500D01*
X387999Y423737D02*
Y441711D01*
Y423737D02*
X427237Y384500D01*
X382999Y421666D02*
Y439640D01*
Y421666D02*
X425165Y379500D01*
X377999Y419595D02*
Y437569D01*
Y419595D02*
X423094Y374500D01*
X372999Y417524D02*
Y435498D01*
Y417524D02*
X421023Y369500D01*
X367999Y415453D02*
Y433427D01*
Y415453D02*
X418952Y364500D01*
X362999Y413382D02*
Y431356D01*
Y413382D02*
X392750Y383632D01*
X385000Y262000D02*
Y384310D01*
X357999Y411311D02*
Y429285D01*
Y411311D02*
X385000Y384310D01*
D11*
X269000Y102602D02*
X787602D01*
X864997Y169996D02*
Y309998D01*
X881000Y326000D02*
X925000D01*
X864997Y309998D02*
X881000Y326000D01*
X799000Y139000D02*
X806000Y146000D01*
X847000D01*
X864997Y163997D01*
Y169996D01*
X787602Y102602D02*
X799000Y114000D01*
Y139000D01*
D12*
X937998Y110000D02*
Y153001D01*
X925000Y165999D02*
X937998Y153001D01*
X921003Y169996D02*
X925000Y165999D01*
X864997Y169996D02*
X921003D01*
X1049000Y217000D02*
X1062000D01*
Y115000D02*
Y217000D01*
X1048400Y101400D02*
X1062000Y115000D01*
X889000Y101400D02*
X1048400D01*
X644748Y379750D02*
X652998Y371500D01*
X596648Y379750D02*
X644748D01*
X338000Y712000D02*
X354602D01*
X573398Y403000D02*
X596648Y379750D01*
X570498Y396000D02*
X594998Y371500D01*
X432000Y396000D02*
X570498D01*
X390213Y457000D02*
X399499Y447714D01*
X390213Y457000D02*
Y478287D01*
X397213Y460000D02*
X406499Y450714D01*
X397213Y460000D02*
Y481186D01*
X859400Y131000D02*
X889000Y101400D01*
X815000Y131000D02*
X859400D01*
X406499Y431400D02*
Y450714D01*
Y431400D02*
X434899Y403000D01*
X573398D01*
X399499Y428501D02*
X432000Y396000D01*
X399499Y428501D02*
Y447714D01*
X390250Y488149D02*
X397213Y481186D01*
X390250Y488149D02*
Y676352D01*
X354602Y712000D02*
X390250Y676352D01*
X383250Y485250D02*
X390213Y478287D01*
X383250Y485250D02*
Y641354D01*
X337802Y686802D02*
X383250Y641354D01*
D13*
X320598Y153402D02*
X330402D01*
X374000Y197000D01*
X401000Y170000D01*
X404000D01*
X387402Y153402D02*
X404000Y170000D01*
X330402Y153402D02*
X387402D01*
D14*
X704000Y372000D02*
X766000D01*
X697000Y379000D02*
X704000Y372000D01*
X697000Y394000D02*
X744000D01*
X766000Y372000D01*
D15*
X32000Y32000D02*
D03*
Y808000D02*
D03*
X1168000D02*
D03*
Y32000D02*
D03*
D16*
X924998Y110000D02*
D03*
X937998D02*
D03*
X925000Y165999D02*
D03*
X938000Y166001D02*
D03*
X370000Y373000D02*
D03*
X362000Y393546D02*
D03*
X935000Y304000D02*
D03*
X980000Y205000D02*
D03*
X930000Y247000D02*
D03*
Y229000D02*
D03*
Y238000D02*
D03*
X947000Y216000D02*
D03*
X1049000Y208000D02*
D03*
X1062000Y217000D02*
D03*
X1049000D02*
D03*
X1036000D02*
D03*
X1023000D02*
D03*
X1010000Y205000D02*
D03*
X950000Y350000D02*
D03*
X925000Y326000D02*
D03*
X869643Y143350D02*
D03*
X834997Y169996D02*
D03*
X864997Y169996D02*
D03*
X352999Y216000D02*
D03*
X346000Y223000D02*
D03*
X339000Y230000D02*
D03*
X332000Y237000D02*
D03*
X324999Y244000D02*
D03*
X418000Y306000D02*
D03*
X425000Y294000D02*
D03*
X403000Y281000D02*
D03*
X439000Y319000D02*
D03*
X432000Y331000D02*
D03*
X446000Y356000D02*
D03*
X325000Y421000D02*
D03*
X378000Y257000D02*
D03*
X411000Y201000D02*
D03*
X439000Y173000D02*
D03*
X418000Y193000D02*
D03*
X453000Y345000D02*
D03*
X446000Y166000D02*
D03*
X432000Y180000D02*
D03*
X424999Y186999D02*
D03*
X411000Y273000D02*
D03*
X460000Y267000D02*
D03*
X466999Y272999D02*
D03*
X473999Y279999D02*
D03*
X480999Y285999D02*
D03*
X487999Y292999D02*
D03*
X494999Y299999D02*
D03*
X501999Y305999D02*
D03*
X375000Y535000D02*
D03*
X359000Y560000D02*
D03*
X352000Y548000D02*
D03*
X345000Y586000D02*
D03*
X337000Y573000D02*
D03*
X330000Y610000D02*
D03*
X323000Y599000D02*
D03*
X530999Y313999D02*
D03*
X538999Y319999D02*
D03*
X545999Y326999D02*
D03*
X517000Y302000D02*
D03*
X524000Y308000D02*
D03*
X402000Y204000D02*
D03*
X652998Y371500D02*
D03*
X594998Y371500D02*
D03*
X337802Y686802D02*
D03*
X338000Y712000D02*
D03*
X325000Y484000D02*
D03*
X322000Y458000D02*
D03*
X329000Y447000D02*
D03*
X332000Y472000D02*
D03*
X366000Y523000D02*
D03*
X290000Y255000D02*
D03*
X280000D02*
D03*
X270000D02*
D03*
X268801Y102604D02*
D03*
X278801D02*
D03*
X901702Y110000D02*
D03*
X825502Y105205D02*
D03*
X815000Y131000D02*
D03*
X538999Y140000D02*
D03*
X524000Y146750D02*
D03*
X516999Y154000D02*
D03*
X452999Y160750D02*
D03*
X530999Y122000D02*
D03*
X546000Y120000D02*
D03*
X1016597Y802200D02*
D03*
X320598Y153402D02*
D03*
X270000Y509000D02*
D03*
X280000D02*
D03*
X290000D02*
D03*
X270000Y382000D02*
D03*
X280000D02*
D03*
X290000D02*
D03*
X355000Y801000D02*
D03*
X927501Y365499D02*
D03*
X797501Y372501D02*
D03*
X766000Y372000D02*
D03*
X290000Y636000D02*
D03*
X280000D02*
D03*
X270000D02*
D03*
X378000Y380000D02*
D03*
X392750Y266271D02*
D03*
X385000Y262000D02*
D03*
X362000Y248000D02*
D03*
X370000Y253000D02*
D03*
X402000Y365000D02*
D03*
X368302Y76302D02*
D03*
X374000Y197000D02*
D03*
X404000Y170000D02*
D03*
X697000Y379000D02*
D03*
Y394000D02*
D03*
X1075000Y250000D02*
D03*
M02*
