G04*
G04 #@! TF.GenerationSoftware,Altium Limited,Altium Designer,20.0.11 (256)*
G04*
G04 Layer_Physical_Order=1*
G04 Layer_Color=3162822*
%FSLAX44Y44*%
%MOMM*%
G71*
G01*
G75*
%ADD10C,0.2500*%
%ADD11C,0.3500*%
%ADD14R,1.2000X2.4000*%
%ADD15R,0.8000X0.9000*%
%ADD24C,1.0000*%
%ADD25C,6.0000*%
%ADD26C,1.5000*%
%ADD27R,1.5000X1.5000*%
%ADD28R,1.5000X1.5000*%
%ADD29C,0.3500*%
%ADD30C,0.6000*%
G36*
X-568000Y413183D02*
X806730Y413183D01*
X807000Y413183D01*
X808000Y413183D01*
X809245Y413122D01*
X812925Y412760D01*
X817661Y411323D01*
X822025Y408990D01*
X825851Y405851D01*
X828990Y402025D01*
X831323Y397661D01*
X832759Y392925D01*
X833218Y388267D01*
X833183Y388000D01*
X833183Y260710D01*
X832000Y260500D01*
X831913Y260500D01*
X825000D01*
Y245000D01*
Y229500D01*
X831913D01*
X833183Y229290D01*
X833183Y170710D01*
X832000Y170500D01*
X831913Y170500D01*
X825000D01*
Y155000D01*
Y139500D01*
X831913D01*
X833183Y139290D01*
X833183Y-139290D01*
X832000Y-139500D01*
X831913Y-139500D01*
X825000D01*
Y-155000D01*
Y-170500D01*
X831913D01*
X833183Y-170710D01*
X833183Y-229290D01*
X832000Y-229500D01*
X831913Y-229500D01*
X825000D01*
Y-245000D01*
Y-260500D01*
X831913D01*
X833183Y-260710D01*
X833183Y-388000D01*
X833218Y-388268D01*
X832759Y-392925D01*
X831323Y-397661D01*
X828990Y-402025D01*
X825851Y-405851D01*
X822025Y-408990D01*
X817661Y-411323D01*
X812925Y-412760D01*
X808267Y-413218D01*
X808000Y-413183D01*
X-568000Y-413183D01*
X-568267Y-413218D01*
X-572925Y-412760D01*
X-577661Y-411323D01*
X-582025Y-408990D01*
X-585851Y-405851D01*
X-588990Y-402025D01*
X-591323Y-397661D01*
X-592760Y-392925D01*
X-593218Y-388268D01*
X-593183Y-388000D01*
X-593183Y-260710D01*
X-591913Y-260500D01*
X-585000D01*
Y-245000D01*
Y-229500D01*
X-591913D01*
X-592000Y-229500D01*
X-593183Y-229290D01*
X-593183Y-170710D01*
X-591913Y-170500D01*
X-585000D01*
Y-155000D01*
Y-139500D01*
X-591913D01*
X-592000Y-139500D01*
X-593183Y-139290D01*
X-593183Y139290D01*
X-591913Y139500D01*
X-585000D01*
Y155000D01*
Y170500D01*
X-591913D01*
X-592000Y170500D01*
X-593183Y170710D01*
X-593183Y229290D01*
X-591913Y229500D01*
X-585000D01*
Y245000D01*
Y260500D01*
X-591913D01*
X-592000Y260500D01*
X-593183Y260710D01*
X-593183Y388000D01*
X-593218Y388267D01*
X-592760Y392925D01*
X-591323Y397661D01*
X-588990Y402025D01*
X-585851Y405851D01*
X-582025Y408990D01*
X-577661Y411323D01*
X-572925Y412760D01*
X-568267Y413218D01*
X-568000Y413183D01*
D02*
G37*
%LPC*%
G36*
X405799Y379066D02*
Y370800D01*
X414064D01*
X414015Y371172D01*
X412907Y373848D01*
X411144Y376145D01*
X408846Y377909D01*
X406170Y379017D01*
X405799Y379066D01*
D02*
G37*
G36*
X400799D02*
X400427Y379017D01*
X397751Y377909D01*
X395453Y376145D01*
X393690Y373848D01*
X392582Y371172D01*
X392533Y370800D01*
X400799D01*
Y379066D01*
D02*
G37*
G36*
X-220701Y379300D02*
X-229201D01*
Y370800D01*
X-220701D01*
Y379300D01*
D02*
G37*
G36*
X-234201D02*
X-242701D01*
Y370800D01*
X-234201D01*
Y379300D01*
D02*
G37*
G36*
X98499Y378386D02*
X95888Y378043D01*
X93455Y377035D01*
X91367Y375432D01*
X89764Y373343D01*
X88756Y370910D01*
X88559Y369415D01*
X83779Y364635D01*
X82703Y365355D01*
X82841Y365690D01*
X83185Y368300D01*
X82841Y370910D01*
X81833Y373343D01*
X80231Y375432D01*
X78142Y377035D01*
X75709Y378043D01*
X73099Y378386D01*
X70488Y378043D01*
X68055Y377035D01*
X65967Y375432D01*
X64364Y373343D01*
X63356Y370910D01*
X63012Y368300D01*
X63356Y365690D01*
X64364Y363257D01*
X65967Y361168D01*
X68055Y359565D01*
X70488Y358557D01*
X73099Y358214D01*
X75709Y358557D01*
X78142Y359565D01*
X78324Y359705D01*
X79368Y358905D01*
X79253Y358628D01*
X78987Y356605D01*
Y352449D01*
X77716Y351811D01*
X75709Y352643D01*
X73099Y352986D01*
X70488Y352643D01*
X68055Y351635D01*
X65967Y350032D01*
X64364Y347943D01*
X63356Y345510D01*
X63012Y342900D01*
X63356Y340289D01*
X64364Y337857D01*
X65967Y335768D01*
X68055Y334165D01*
X70488Y333157D01*
X73099Y332814D01*
X75709Y333157D01*
X77716Y333989D01*
X78987Y333350D01*
Y320000D01*
X79253Y317977D01*
X80034Y316092D01*
X81276Y314473D01*
X82895Y313230D01*
X84780Y312449D01*
X86803Y312183D01*
X88827Y312449D01*
X90712Y313230D01*
X92331Y314473D01*
X93573Y316092D01*
X94354Y317977D01*
X94620Y320000D01*
Y332540D01*
X95676Y333245D01*
X95888Y333157D01*
X98499Y332814D01*
X101109Y333157D01*
X103542Y334165D01*
X105631Y335768D01*
X107233Y337857D01*
X108241Y340289D01*
X108585Y342900D01*
X108241Y345510D01*
X107233Y347943D01*
X105631Y350032D01*
X103542Y351635D01*
X101109Y352643D01*
X98499Y352986D01*
X95888Y352643D01*
X95281Y353766D01*
X95227Y353974D01*
X99614Y358361D01*
X101109Y358557D01*
X103542Y359565D01*
X105631Y361168D01*
X107233Y363257D01*
X108241Y365690D01*
X108585Y368300D01*
X108241Y370910D01*
X107233Y373343D01*
X105631Y375432D01*
X103542Y377035D01*
X101109Y378043D01*
X98499Y378386D01*
D02*
G37*
G36*
X377899D02*
X375288Y378043D01*
X372855Y377035D01*
X370766Y375432D01*
X369164Y373343D01*
X368156Y370910D01*
X367812Y368300D01*
X368156Y365690D01*
X369164Y363257D01*
X370766Y361168D01*
X372855Y359565D01*
X375288Y358557D01*
X377899Y358214D01*
X380509Y358557D01*
X382942Y359565D01*
X385031Y361168D01*
X386633Y363257D01*
X387641Y365690D01*
X387985Y368300D01*
X387641Y370910D01*
X386633Y373343D01*
X385031Y375432D01*
X382942Y377035D01*
X380509Y378043D01*
X377899Y378386D01*
D02*
G37*
G36*
X352499D02*
X349888Y378043D01*
X347455Y377035D01*
X345367Y375432D01*
X343764Y373343D01*
X342756Y370910D01*
X342412Y368300D01*
X342756Y365690D01*
X343764Y363257D01*
X345367Y361168D01*
X347455Y359565D01*
X349888Y358557D01*
X352499Y358214D01*
X355109Y358557D01*
X357542Y359565D01*
X359631Y361168D01*
X361233Y363257D01*
X362241Y365690D01*
X362585Y368300D01*
X362241Y370910D01*
X361233Y373343D01*
X359631Y375432D01*
X357542Y377035D01*
X355109Y378043D01*
X352499Y378386D01*
D02*
G37*
G36*
X327099D02*
X324488Y378043D01*
X322055Y377035D01*
X319967Y375432D01*
X318364Y373343D01*
X317356Y370910D01*
X317012Y368300D01*
X317356Y365690D01*
X318364Y363257D01*
X319967Y361168D01*
X322055Y359565D01*
X324488Y358557D01*
X327099Y358214D01*
X329709Y358557D01*
X332142Y359565D01*
X334231Y361168D01*
X335834Y363257D01*
X336841Y365690D01*
X337185Y368300D01*
X336841Y370910D01*
X335834Y373343D01*
X334231Y375432D01*
X332142Y377035D01*
X329709Y378043D01*
X327099Y378386D01*
D02*
G37*
G36*
X301699D02*
X299088Y378043D01*
X296655Y377035D01*
X294566Y375432D01*
X292964Y373343D01*
X291956Y370910D01*
X291612Y368300D01*
X291956Y365690D01*
X292964Y363257D01*
X294566Y361168D01*
X296655Y359565D01*
X299088Y358557D01*
X301699Y358214D01*
X304309Y358557D01*
X306742Y359565D01*
X308831Y361168D01*
X310434Y363257D01*
X311441Y365690D01*
X311785Y368300D01*
X311441Y370910D01*
X310434Y373343D01*
X308831Y375432D01*
X306742Y377035D01*
X304309Y378043D01*
X301699Y378386D01*
D02*
G37*
G36*
X276299D02*
X273688Y378043D01*
X271255Y377035D01*
X269167Y375432D01*
X267564Y373343D01*
X266556Y370910D01*
X266212Y368300D01*
X266556Y365690D01*
X267564Y363257D01*
X269167Y361168D01*
X271255Y359565D01*
X273688Y358557D01*
X276299Y358214D01*
X278909Y358557D01*
X281342Y359565D01*
X283431Y361168D01*
X285033Y363257D01*
X286041Y365690D01*
X286385Y368300D01*
X286041Y370910D01*
X285033Y373343D01*
X283431Y375432D01*
X281342Y377035D01*
X278909Y378043D01*
X276299Y378386D01*
D02*
G37*
G36*
X250899D02*
X248288Y378043D01*
X245855Y377035D01*
X243766Y375432D01*
X242164Y373343D01*
X241156Y370910D01*
X240812Y368300D01*
X241156Y365690D01*
X242164Y363257D01*
X243766Y361168D01*
X245855Y359565D01*
X248288Y358557D01*
X250899Y358214D01*
X253509Y358557D01*
X255942Y359565D01*
X258031Y361168D01*
X259634Y363257D01*
X260641Y365690D01*
X260985Y368300D01*
X260641Y370910D01*
X259634Y373343D01*
X258031Y375432D01*
X255942Y377035D01*
X253509Y378043D01*
X250899Y378386D01*
D02*
G37*
G36*
X225499D02*
X222888Y378043D01*
X220455Y377035D01*
X218367Y375432D01*
X216764Y373343D01*
X215756Y370910D01*
X215412Y368300D01*
X215756Y365690D01*
X216764Y363257D01*
X218367Y361168D01*
X220455Y359565D01*
X222888Y358557D01*
X225499Y358214D01*
X228109Y358557D01*
X230542Y359565D01*
X232631Y361168D01*
X234233Y363257D01*
X235241Y365690D01*
X235585Y368300D01*
X235241Y370910D01*
X234233Y373343D01*
X232631Y375432D01*
X230542Y377035D01*
X228109Y378043D01*
X225499Y378386D01*
D02*
G37*
G36*
X200099D02*
X197488Y378043D01*
X195055Y377035D01*
X192966Y375432D01*
X191364Y373343D01*
X190356Y370910D01*
X190012Y368300D01*
X190356Y365690D01*
X191364Y363257D01*
X192966Y361168D01*
X195055Y359565D01*
X197488Y358557D01*
X200099Y358214D01*
X202709Y358557D01*
X205142Y359565D01*
X207231Y361168D01*
X208834Y363257D01*
X209841Y365690D01*
X210185Y368300D01*
X209841Y370910D01*
X208834Y373343D01*
X207231Y375432D01*
X205142Y377035D01*
X202709Y378043D01*
X200099Y378386D01*
D02*
G37*
G36*
X174699D02*
X172088Y378043D01*
X169655Y377035D01*
X167567Y375432D01*
X165964Y373343D01*
X164956Y370910D01*
X164612Y368300D01*
X164956Y365690D01*
X165964Y363257D01*
X167567Y361168D01*
X169655Y359565D01*
X172088Y358557D01*
X174699Y358214D01*
X177309Y358557D01*
X179742Y359565D01*
X181831Y361168D01*
X183433Y363257D01*
X184441Y365690D01*
X184785Y368300D01*
X184441Y370910D01*
X183433Y373343D01*
X181831Y375432D01*
X179742Y377035D01*
X177309Y378043D01*
X174699Y378386D01*
D02*
G37*
G36*
X149299D02*
X146688Y378043D01*
X144255Y377035D01*
X142167Y375432D01*
X140564Y373343D01*
X139556Y370910D01*
X139212Y368300D01*
X139556Y365690D01*
X140564Y363257D01*
X142167Y361168D01*
X144255Y359565D01*
X146688Y358557D01*
X149299Y358214D01*
X151909Y358557D01*
X154342Y359565D01*
X156431Y361168D01*
X158034Y363257D01*
X159041Y365690D01*
X159385Y368300D01*
X159041Y370910D01*
X158034Y373343D01*
X156431Y375432D01*
X154342Y377035D01*
X151909Y378043D01*
X149299Y378386D01*
D02*
G37*
G36*
X123899D02*
X121288Y378043D01*
X118855Y377035D01*
X116767Y375432D01*
X115164Y373343D01*
X114156Y370910D01*
X113812Y368300D01*
X114156Y365690D01*
X115164Y363257D01*
X116767Y361168D01*
X118855Y359565D01*
X121288Y358557D01*
X123899Y358214D01*
X126509Y358557D01*
X128942Y359565D01*
X131031Y361168D01*
X132633Y363257D01*
X133641Y365690D01*
X133985Y368300D01*
X133641Y370910D01*
X132633Y373343D01*
X131031Y375432D01*
X128942Y377035D01*
X126509Y378043D01*
X123899Y378386D01*
D02*
G37*
G36*
X47699D02*
X45088Y378043D01*
X42655Y377035D01*
X40567Y375432D01*
X38964Y373343D01*
X37956Y370910D01*
X37612Y368300D01*
X37956Y365690D01*
X38964Y363257D01*
X40567Y361168D01*
X42655Y359565D01*
X45088Y358557D01*
X47699Y358214D01*
X50309Y358557D01*
X52742Y359565D01*
X54831Y361168D01*
X56434Y363257D01*
X57441Y365690D01*
X57785Y368300D01*
X57441Y370910D01*
X56434Y373343D01*
X54831Y375432D01*
X52742Y377035D01*
X50309Y378043D01*
X47699Y378386D01*
D02*
G37*
G36*
X22299D02*
X19688Y378043D01*
X17255Y377035D01*
X15166Y375432D01*
X13564Y373343D01*
X12556Y370910D01*
X12212Y368300D01*
X12556Y365690D01*
X13564Y363257D01*
X15166Y361168D01*
X17255Y359565D01*
X19688Y358557D01*
X22299Y358214D01*
X24909Y358557D01*
X27342Y359565D01*
X29431Y361168D01*
X31033Y363257D01*
X32041Y365690D01*
X32385Y368300D01*
X32041Y370910D01*
X31033Y373343D01*
X29431Y375432D01*
X27342Y377035D01*
X24909Y378043D01*
X22299Y378386D01*
D02*
G37*
G36*
X-3101D02*
X-5712Y378043D01*
X-8145Y377035D01*
X-10234Y375432D01*
X-11836Y373343D01*
X-12844Y370910D01*
X-13188Y368300D01*
X-12844Y365690D01*
X-11836Y363257D01*
X-10234Y361168D01*
X-8145Y359565D01*
X-5712Y358557D01*
X-3101Y358214D01*
X-491Y358557D01*
X1942Y359565D01*
X4031Y361168D01*
X5634Y363257D01*
X6641Y365690D01*
X6985Y368300D01*
X6641Y370910D01*
X5634Y373343D01*
X4031Y375432D01*
X1942Y377035D01*
X-491Y378043D01*
X-3101Y378386D01*
D02*
G37*
G36*
X-28501D02*
X-31112Y378043D01*
X-33545Y377035D01*
X-35633Y375432D01*
X-37236Y373343D01*
X-38244Y370910D01*
X-38588Y368300D01*
X-38244Y365690D01*
X-37236Y363257D01*
X-35633Y361168D01*
X-33545Y359565D01*
X-31112Y358557D01*
X-28501Y358214D01*
X-25891Y358557D01*
X-23458Y359565D01*
X-21369Y361168D01*
X-19766Y363257D01*
X-18759Y365690D01*
X-18415Y368300D01*
X-18759Y370910D01*
X-19766Y373343D01*
X-21369Y375432D01*
X-23458Y377035D01*
X-25891Y378043D01*
X-28501Y378386D01*
D02*
G37*
G36*
X-53901D02*
X-56512Y378043D01*
X-58945Y377035D01*
X-61034Y375432D01*
X-62636Y373343D01*
X-63644Y370910D01*
X-63988Y368300D01*
X-63644Y365690D01*
X-62636Y363257D01*
X-61034Y361168D01*
X-58945Y359565D01*
X-56512Y358557D01*
X-53901Y358214D01*
X-51291Y358557D01*
X-48858Y359565D01*
X-46769Y361168D01*
X-45167Y363257D01*
X-44159Y365690D01*
X-43815Y368300D01*
X-44159Y370910D01*
X-45167Y373343D01*
X-46769Y375432D01*
X-48858Y377035D01*
X-51291Y378043D01*
X-53901Y378386D01*
D02*
G37*
G36*
X-79301D02*
X-81912Y378043D01*
X-84345Y377035D01*
X-86433Y375432D01*
X-88036Y373343D01*
X-89044Y370910D01*
X-89388Y368300D01*
X-89044Y365690D01*
X-88036Y363257D01*
X-86433Y361168D01*
X-84345Y359565D01*
X-81912Y358557D01*
X-79301Y358214D01*
X-76691Y358557D01*
X-74258Y359565D01*
X-72169Y361168D01*
X-70567Y363257D01*
X-69559Y365690D01*
X-69215Y368300D01*
X-69559Y370910D01*
X-70567Y373343D01*
X-72169Y375432D01*
X-74258Y377035D01*
X-76691Y378043D01*
X-79301Y378386D01*
D02*
G37*
G36*
X-104701D02*
X-107312Y378043D01*
X-109745Y377035D01*
X-111833Y375432D01*
X-113436Y373343D01*
X-114444Y370910D01*
X-114788Y368300D01*
X-114444Y365690D01*
X-113436Y363257D01*
X-111833Y361168D01*
X-109745Y359565D01*
X-107312Y358557D01*
X-104701Y358214D01*
X-102091Y358557D01*
X-99658Y359565D01*
X-97569Y361168D01*
X-95967Y363257D01*
X-94959Y365690D01*
X-94615Y368300D01*
X-94959Y370910D01*
X-95967Y373343D01*
X-97569Y375432D01*
X-99658Y377035D01*
X-102091Y378043D01*
X-104701Y378386D01*
D02*
G37*
G36*
X-130101D02*
X-132712Y378043D01*
X-135145Y377035D01*
X-137233Y375432D01*
X-138836Y373343D01*
X-139844Y370910D01*
X-140188Y368300D01*
X-139844Y365690D01*
X-138836Y363257D01*
X-137233Y361168D01*
X-135145Y359565D01*
X-132712Y358557D01*
X-130101Y358214D01*
X-127491Y358557D01*
X-125058Y359565D01*
X-122969Y361168D01*
X-121367Y363257D01*
X-120359Y365690D01*
X-120015Y368300D01*
X-120359Y370910D01*
X-121367Y373343D01*
X-122969Y375432D01*
X-125058Y377035D01*
X-127491Y378043D01*
X-130101Y378386D01*
D02*
G37*
G36*
X-155501D02*
X-158112Y378043D01*
X-160545Y377035D01*
X-162633Y375432D01*
X-164236Y373343D01*
X-165244Y370910D01*
X-165588Y368300D01*
X-165244Y365690D01*
X-164236Y363257D01*
X-162633Y361168D01*
X-160545Y359565D01*
X-158112Y358557D01*
X-155501Y358214D01*
X-152891Y358557D01*
X-150458Y359565D01*
X-148369Y361168D01*
X-146767Y363257D01*
X-145759Y365690D01*
X-145415Y368300D01*
X-145759Y370910D01*
X-146767Y373343D01*
X-148369Y375432D01*
X-150458Y377035D01*
X-152891Y378043D01*
X-155501Y378386D01*
D02*
G37*
G36*
X-180901D02*
X-183512Y378043D01*
X-185945Y377035D01*
X-188034Y375432D01*
X-189636Y373343D01*
X-190644Y370910D01*
X-190988Y368300D01*
X-190644Y365690D01*
X-189636Y363257D01*
X-188034Y361168D01*
X-185945Y359565D01*
X-183512Y358557D01*
X-180901Y358214D01*
X-178291Y358557D01*
X-175858Y359565D01*
X-173769Y361168D01*
X-172167Y363257D01*
X-171159Y365690D01*
X-170815Y368300D01*
X-171159Y370910D01*
X-172167Y373343D01*
X-173769Y375432D01*
X-175858Y377035D01*
X-178291Y378043D01*
X-180901Y378386D01*
D02*
G37*
G36*
X-206301D02*
X-208912Y378043D01*
X-211345Y377035D01*
X-213433Y375432D01*
X-215036Y373343D01*
X-216044Y370910D01*
X-216388Y368300D01*
X-216044Y365690D01*
X-215036Y363257D01*
X-213433Y361168D01*
X-211345Y359565D01*
X-208912Y358557D01*
X-206301Y358214D01*
X-203691Y358557D01*
X-201258Y359565D01*
X-199169Y361168D01*
X-197567Y363257D01*
X-196559Y365690D01*
X-196215Y368300D01*
X-196559Y370910D01*
X-197567Y373343D01*
X-199169Y375432D01*
X-201258Y377035D01*
X-203691Y378043D01*
X-206301Y378386D01*
D02*
G37*
G36*
X414064Y365800D02*
X405799D01*
Y357534D01*
X406170Y357583D01*
X408846Y358692D01*
X411144Y360455D01*
X412907Y362753D01*
X414015Y365429D01*
X414064Y365800D01*
D02*
G37*
G36*
X400799D02*
X392533D01*
X392582Y365429D01*
X393690Y362753D01*
X395453Y360455D01*
X397751Y358692D01*
X400427Y357583D01*
X400799Y357534D01*
Y365800D01*
D02*
G37*
G36*
X-220701D02*
X-229201D01*
Y357300D01*
X-220701D01*
Y365800D01*
D02*
G37*
G36*
X-234201D02*
X-242701D01*
Y357300D01*
X-234201D01*
Y365800D01*
D02*
G37*
G36*
X-297525Y340317D02*
X-338750D01*
X-340773Y340051D01*
X-342658Y339270D01*
X-344277Y338027D01*
X-348682Y333623D01*
X-349885Y334031D01*
X-349949Y334523D01*
X-350730Y336408D01*
X-351973Y338027D01*
X-353591Y339270D01*
X-355477Y340051D01*
X-357500Y340317D01*
X-359523Y340051D01*
X-361408Y339270D01*
X-363027Y338027D01*
X-364270Y336408D01*
X-365051Y334523D01*
X-365317Y332500D01*
Y324059D01*
X-379717Y309659D01*
X-381396Y309776D01*
X-381973Y310527D01*
X-383592Y311770D01*
X-385477Y312551D01*
X-387500Y312817D01*
X-389523Y312551D01*
X-391409Y311770D01*
X-393027Y310527D01*
X-434777Y268777D01*
X-436020Y267159D01*
X-436800Y265273D01*
X-437067Y263250D01*
Y-172392D01*
X-436800Y-174415D01*
X-436020Y-176301D01*
X-434777Y-177920D01*
X-354669Y-258027D01*
X-353050Y-259270D01*
X-351165Y-260051D01*
X-349142Y-260317D01*
X-342520D01*
X-341958Y-261456D01*
X-342034Y-261555D01*
X-343042Y-263988D01*
X-343386Y-266598D01*
X-343042Y-269209D01*
X-342034Y-271642D01*
X-340432Y-273730D01*
X-338343Y-275333D01*
X-335910Y-276341D01*
X-333299Y-276685D01*
X-330689Y-276341D01*
X-328256Y-275333D01*
X-326167Y-273730D01*
X-324565Y-271642D01*
X-323557Y-269209D01*
X-323213Y-266598D01*
X-323557Y-263988D01*
X-324565Y-261555D01*
X-324641Y-261456D01*
X-324079Y-260317D01*
X-319201D01*
X-318472Y-260221D01*
X-318151Y-260497D01*
X-317650Y-261394D01*
X-318616Y-263727D01*
X-318665Y-264098D01*
X-307899D01*
X-297134D01*
X-297183Y-263727D01*
X-298291Y-261051D01*
X-300054Y-258753D01*
X-302352Y-256990D01*
X-305028Y-255882D01*
X-307899Y-255504D01*
X-309574Y-255724D01*
X-310167Y-254521D01*
X-306784Y-251138D01*
X-305289Y-250941D01*
X-302856Y-249933D01*
X-300767Y-248330D01*
X-299165Y-246241D01*
X-298157Y-243809D01*
X-297813Y-241198D01*
X-298157Y-238588D01*
X-299165Y-236155D01*
X-300767Y-234066D01*
X-302856Y-232463D01*
X-305289Y-231456D01*
X-307899Y-231112D01*
X-310510Y-231456D01*
X-310845Y-231595D01*
X-311564Y-230518D01*
X-306784Y-225738D01*
X-305289Y-225541D01*
X-302856Y-224533D01*
X-300767Y-222930D01*
X-299165Y-220842D01*
X-298157Y-218409D01*
X-297813Y-215798D01*
X-298157Y-213188D01*
X-299165Y-210755D01*
X-300767Y-208666D01*
X-302856Y-207063D01*
X-305289Y-206056D01*
X-307899Y-205712D01*
X-310510Y-206056D01*
X-310845Y-206194D01*
X-311564Y-205118D01*
X-306784Y-200338D01*
X-305289Y-200141D01*
X-302856Y-199133D01*
X-300767Y-197530D01*
X-299165Y-195441D01*
X-298157Y-193009D01*
X-297813Y-190398D01*
X-298157Y-187788D01*
X-299165Y-185355D01*
X-300767Y-183266D01*
X-302856Y-181663D01*
X-305289Y-180656D01*
X-307899Y-180312D01*
X-310510Y-180656D01*
X-312943Y-181663D01*
X-315032Y-183266D01*
X-316634Y-185355D01*
X-317642Y-187788D01*
X-317839Y-189283D01*
X-322619Y-194063D01*
X-323695Y-193344D01*
X-323557Y-193009D01*
X-323213Y-190398D01*
X-323557Y-187788D01*
X-324565Y-185355D01*
X-326167Y-183266D01*
X-328256Y-181663D01*
X-330689Y-180656D01*
X-332184Y-180459D01*
X-335567Y-177076D01*
X-334974Y-175873D01*
X-333299Y-176093D01*
X-330428Y-175715D01*
X-327752Y-174607D01*
X-325454Y-172844D01*
X-323691Y-170546D01*
X-322583Y-167870D01*
X-322534Y-167498D01*
X-333299D01*
Y-164998D01*
X-335799D01*
Y-154233D01*
X-336171Y-154282D01*
X-338847Y-155390D01*
X-341145Y-157153D01*
X-342908Y-159451D01*
X-344016Y-162127D01*
X-344394Y-164998D01*
X-344174Y-166673D01*
X-345377Y-167266D01*
X-401433Y-111210D01*
Y-84179D01*
X-400260Y-83693D01*
X-343239Y-140714D01*
X-343042Y-142209D01*
X-342034Y-144642D01*
X-340432Y-146730D01*
X-338343Y-148333D01*
X-335910Y-149341D01*
X-333299Y-149685D01*
X-330689Y-149341D01*
X-328256Y-148333D01*
X-326167Y-146730D01*
X-324565Y-144642D01*
X-323557Y-142209D01*
X-323213Y-139598D01*
X-323557Y-136988D01*
X-324565Y-134555D01*
X-326167Y-132466D01*
X-328256Y-130863D01*
X-330689Y-129856D01*
X-332184Y-129659D01*
X-336964Y-124879D01*
X-336245Y-123802D01*
X-335910Y-123941D01*
X-333299Y-124285D01*
X-330689Y-123941D01*
X-328256Y-122933D01*
X-326167Y-121330D01*
X-324565Y-119242D01*
X-323557Y-116809D01*
X-323213Y-114198D01*
X-323557Y-111588D01*
X-324565Y-109155D01*
X-326167Y-107066D01*
X-328256Y-105463D01*
X-330689Y-104456D01*
X-332184Y-104259D01*
X-336964Y-99479D01*
X-336245Y-98402D01*
X-335910Y-98541D01*
X-333299Y-98885D01*
X-330689Y-98541D01*
X-328256Y-97533D01*
X-326167Y-95930D01*
X-324565Y-93841D01*
X-323557Y-91409D01*
X-323213Y-88798D01*
X-323557Y-86188D01*
X-324565Y-83755D01*
X-326167Y-81666D01*
X-328256Y-80063D01*
X-330689Y-79056D01*
X-332184Y-78859D01*
X-336964Y-74079D01*
X-336245Y-73002D01*
X-335910Y-73141D01*
X-333299Y-73485D01*
X-330689Y-73141D01*
X-328256Y-72133D01*
X-326167Y-70530D01*
X-324565Y-68442D01*
X-323557Y-66009D01*
X-323213Y-63398D01*
X-323557Y-60788D01*
X-324565Y-58355D01*
X-326167Y-56266D01*
X-328256Y-54663D01*
X-330689Y-53656D01*
X-332184Y-53459D01*
X-335567Y-50076D01*
X-334974Y-48873D01*
X-333299Y-49093D01*
X-330428Y-48715D01*
X-327752Y-47607D01*
X-325454Y-45844D01*
X-323691Y-43546D01*
X-322583Y-40870D01*
X-322534Y-40498D01*
X-333299D01*
Y-35498D01*
X-322534D01*
X-322583Y-35127D01*
X-323180Y-33685D01*
X-322331Y-32415D01*
X-319899D01*
X-318808Y-32271D01*
X-317915Y-33435D01*
X-318616Y-35127D01*
X-318665Y-35498D01*
X-307899D01*
Y-40498D01*
X-318665D01*
X-318616Y-40870D01*
X-317508Y-43546D01*
X-315745Y-45844D01*
X-313447Y-47607D01*
X-310771Y-48715D01*
X-307899Y-49093D01*
X-306225Y-48873D01*
X-305631Y-50076D01*
X-309015Y-53459D01*
X-310510Y-53656D01*
X-312943Y-54663D01*
X-315032Y-56266D01*
X-316634Y-58355D01*
X-317642Y-60788D01*
X-317986Y-63398D01*
X-317642Y-66009D01*
X-316634Y-68442D01*
X-315032Y-70530D01*
X-312943Y-72133D01*
X-310510Y-73141D01*
X-307899Y-73485D01*
X-305289Y-73141D01*
X-304954Y-73002D01*
X-304235Y-74079D01*
X-309015Y-78859D01*
X-310510Y-79056D01*
X-312943Y-80063D01*
X-315032Y-81666D01*
X-316634Y-83755D01*
X-317642Y-86188D01*
X-317986Y-88798D01*
X-317642Y-91409D01*
X-316634Y-93841D01*
X-315032Y-95930D01*
X-312943Y-97533D01*
X-310510Y-98541D01*
X-307899Y-98885D01*
X-305289Y-98541D01*
X-304954Y-98402D01*
X-304235Y-99479D01*
X-309015Y-104259D01*
X-310510Y-104456D01*
X-312943Y-105463D01*
X-315032Y-107066D01*
X-316634Y-109155D01*
X-317642Y-111588D01*
X-317986Y-114198D01*
X-317642Y-116809D01*
X-316634Y-119242D01*
X-315032Y-121330D01*
X-312943Y-122933D01*
X-310510Y-123941D01*
X-307899Y-124285D01*
X-305289Y-123941D01*
X-304954Y-123802D01*
X-304235Y-124879D01*
X-309015Y-129659D01*
X-310510Y-129856D01*
X-312943Y-130863D01*
X-315032Y-132466D01*
X-316634Y-134555D01*
X-317642Y-136988D01*
X-317986Y-139598D01*
X-317642Y-142209D01*
X-316634Y-144642D01*
X-315032Y-146730D01*
X-312943Y-148333D01*
X-310510Y-149341D01*
X-307899Y-149685D01*
X-305289Y-149341D01*
X-302856Y-148333D01*
X-300767Y-146730D01*
X-299165Y-144642D01*
X-298157Y-142209D01*
X-297960Y-140714D01*
X-276223Y-118976D01*
X-276223Y-118976D01*
X-267453Y-110206D01*
X-266279Y-110692D01*
Y-130978D01*
X-266056Y-132674D01*
X-265401Y-134256D01*
X-264359Y-135613D01*
X-263001Y-136655D01*
X-261420Y-137310D01*
X-259723Y-137534D01*
X40000Y-137534D01*
X41697Y-137310D01*
X42131Y-137130D01*
X43401Y-137979D01*
Y-300097D01*
X-256696D01*
X-256696Y-300097D01*
X-259699Y-300492D01*
X-262496Y-301651D01*
X-264898Y-303495D01*
X-264898Y-303495D01*
X-275702Y-314298D01*
X-277545Y-316700D01*
X-278704Y-319498D01*
X-279099Y-322500D01*
X-279099Y-322500D01*
Y-331301D01*
X-321700D01*
Y-317398D01*
X-322095Y-314396D01*
X-323254Y-311599D01*
X-323299Y-311540D01*
Y-307398D01*
X-327441D01*
X-327500Y-307353D01*
X-330297Y-306194D01*
X-333299Y-305799D01*
X-336301Y-306194D01*
X-339099Y-307353D01*
X-339158Y-307398D01*
X-343299D01*
Y-311540D01*
X-343345Y-311599D01*
X-344504Y-314396D01*
X-344899Y-317398D01*
Y-336700D01*
X-344899Y-336701D01*
X-344504Y-339703D01*
X-343345Y-342500D01*
X-341501Y-344902D01*
X-335302Y-351102D01*
X-335302Y-351102D01*
X-332900Y-352945D01*
X-330102Y-354104D01*
X-327100Y-354499D01*
X-273358D01*
X-273358Y-354499D01*
X-270356Y-354104D01*
X-267558Y-352945D01*
X-265156Y-351102D01*
X-259298Y-345244D01*
X-257455Y-342842D01*
X-256296Y-340044D01*
X-255901Y-337042D01*
X-255901Y-337042D01*
Y-327305D01*
X-251892Y-323296D01*
X79435D01*
Y-333719D01*
X78296Y-334281D01*
X78145Y-334165D01*
X75712Y-333157D01*
X73102Y-332814D01*
X70491Y-333157D01*
X68059Y-334165D01*
X65970Y-335768D01*
X64367Y-337857D01*
X63359Y-340289D01*
X63016Y-342900D01*
X63359Y-345510D01*
X64367Y-347943D01*
X65970Y-350032D01*
X68059Y-351635D01*
X70491Y-352643D01*
X73102Y-352986D01*
X75712Y-352643D01*
X78145Y-351635D01*
X78296Y-351519D01*
X79435Y-352081D01*
Y-357050D01*
X79701Y-359073D01*
X79753Y-359198D01*
X78710Y-359999D01*
X78145Y-359565D01*
X75712Y-358557D01*
X73102Y-358214D01*
X70491Y-358557D01*
X68059Y-359565D01*
X65970Y-361168D01*
X64367Y-363257D01*
X63359Y-365690D01*
X63016Y-368300D01*
X63359Y-370910D01*
X64367Y-373343D01*
X65970Y-375432D01*
X68059Y-377035D01*
X70491Y-378043D01*
X73102Y-378386D01*
X75712Y-378043D01*
X78145Y-377035D01*
X80234Y-375432D01*
X81837Y-373343D01*
X82844Y-370910D01*
X83188Y-368300D01*
X82844Y-365690D01*
X82706Y-365355D01*
X83782Y-364635D01*
X88562Y-369415D01*
X88759Y-370910D01*
X89767Y-373343D01*
X91370Y-375432D01*
X93459Y-377035D01*
X95891Y-378043D01*
X98502Y-378386D01*
X101112Y-378043D01*
X103545Y-377035D01*
X105634Y-375432D01*
X107237Y-373343D01*
X108244Y-370910D01*
X108588Y-368300D01*
X108244Y-365690D01*
X108106Y-365355D01*
X109182Y-364635D01*
X113962Y-369415D01*
X114159Y-370910D01*
X115167Y-373343D01*
X116770Y-375432D01*
X118859Y-377035D01*
X121291Y-378043D01*
X123902Y-378386D01*
X126512Y-378043D01*
X128945Y-377035D01*
X131034Y-375432D01*
X132637Y-373343D01*
X133644Y-370910D01*
X133988Y-368300D01*
X133644Y-365690D01*
X132637Y-363257D01*
X131034Y-361168D01*
X128945Y-359565D01*
X126512Y-358557D01*
X125017Y-358361D01*
X121102Y-354446D01*
X121183Y-353803D01*
X122506Y-352803D01*
X123902Y-352986D01*
X126512Y-352643D01*
X128945Y-351635D01*
X131034Y-350032D01*
X132637Y-347943D01*
X133644Y-345510D01*
X133988Y-342900D01*
X133644Y-340289D01*
X132637Y-337857D01*
X131034Y-335768D01*
X128945Y-334165D01*
X126512Y-333157D01*
X123902Y-332814D01*
X121587Y-333119D01*
X120317Y-332365D01*
Y-323296D01*
X262750D01*
X262750Y-323296D01*
X265752Y-322901D01*
X268550Y-321742D01*
X270952Y-319898D01*
X279280Y-311570D01*
X443868D01*
X443868Y-311570D01*
X446870Y-311175D01*
X449668Y-310016D01*
X452070Y-308173D01*
X457928Y-302315D01*
X459771Y-299912D01*
X460930Y-297115D01*
X461325Y-294113D01*
X461325Y-294113D01*
Y24347D01*
X514998D01*
X518000Y24742D01*
X520798Y25901D01*
X523200Y27745D01*
X525044Y30147D01*
X526202Y32944D01*
X526528Y35416D01*
X527856Y35772D01*
X527901Y35713D01*
X527901Y35713D01*
X538383Y25231D01*
Y20000D01*
X538649Y17977D01*
X539431Y16092D01*
X540673Y14473D01*
X542292Y13230D01*
X544177Y12450D01*
X546200Y12183D01*
X548223Y12450D01*
X550108Y13230D01*
X551727Y14473D01*
X552970Y16092D01*
X553751Y17977D01*
X554017Y20000D01*
Y28469D01*
X553751Y30492D01*
X552970Y32377D01*
X551727Y33996D01*
X546035Y39688D01*
X546286Y41116D01*
X547024Y41426D01*
X547292Y41221D01*
X549177Y40440D01*
X551200Y40174D01*
X553223Y40440D01*
X555108Y41221D01*
X556200Y42058D01*
X557292Y41221D01*
X559177Y40440D01*
X561200Y40174D01*
X563223Y40440D01*
X565108Y41221D01*
X566727Y42463D01*
X567970Y44082D01*
X568751Y45967D01*
X569017Y47990D01*
X568751Y50014D01*
X567970Y51899D01*
X566727Y53518D01*
X534718Y85527D01*
X533099Y86770D01*
X531214Y87550D01*
X529190Y87817D01*
X516000D01*
X513977Y87550D01*
X512092Y86770D01*
X510473Y85527D01*
X510262Y85317D01*
X404337D01*
X404272Y85415D01*
X404950Y86685D01*
X456906D01*
X458929Y86951D01*
X459710Y87275D01*
X460814Y87732D01*
X462433Y88974D01*
X475689Y102230D01*
X476931Y103849D01*
X477712Y105734D01*
X477978Y107758D01*
X477712Y109781D01*
X476931Y111666D01*
X475689Y113285D01*
X474070Y114527D01*
X472184Y115308D01*
X470161Y115574D01*
X468138Y115308D01*
X466253Y114527D01*
X464732Y113360D01*
X464292Y113162D01*
X463230Y113231D01*
X463189Y113285D01*
X461570Y114527D01*
X459684Y115308D01*
X457661Y115575D01*
X455638Y115308D01*
X453753Y114527D01*
X452134Y113285D01*
X450618Y111769D01*
X449122Y112069D01*
X448189Y113285D01*
X446570Y114527D01*
X446438Y114582D01*
X440492Y120527D01*
X438873Y121770D01*
X436988Y122550D01*
X434965Y122817D01*
X377238D01*
X372817Y127238D01*
Y320000D01*
X372551Y322023D01*
X371770Y323908D01*
X370527Y325527D01*
X368908Y326770D01*
X367023Y327551D01*
X365000Y327817D01*
X362977Y327551D01*
X361092Y326770D01*
X359473Y325527D01*
X358230Y323908D01*
X357449Y322023D01*
X357183Y320000D01*
Y319709D01*
X355977Y319550D01*
X354092Y318770D01*
X352473Y317527D01*
X351230Y315909D01*
X350449Y314023D01*
X350183Y312000D01*
Y120758D01*
X350449Y118735D01*
X351230Y116849D01*
X352473Y115230D01*
X359211Y108492D01*
X358725Y107319D01*
X274502D01*
X272479Y107052D01*
X271698Y106729D01*
X270593Y106271D01*
X268974Y105029D01*
X260473Y96527D01*
X259230Y94909D01*
X258449Y93023D01*
X258183Y91000D01*
Y-263398D01*
X257341Y-264070D01*
X256182Y-263565D01*
Y101420D01*
X256182Y101420D01*
X255787Y104423D01*
X254628Y107220D01*
X252785Y109622D01*
X252785Y109622D01*
X228390Y134017D01*
X225987Y135861D01*
X223190Y137020D01*
X220188Y137415D01*
X220188Y137415D01*
X120167D01*
X117165Y137020D01*
X114367Y135861D01*
X111965Y134017D01*
X110122Y131615D01*
X108963Y128818D01*
X108568Y125815D01*
X108963Y122813D01*
X110122Y120016D01*
X111965Y117613D01*
X114367Y115770D01*
X117165Y114611D01*
X120167Y114216D01*
X215383D01*
X232984Y96616D01*
Y-280000D01*
Y-280901D01*
X224583D01*
X221581Y-281296D01*
X218783Y-282455D01*
X216381Y-284298D01*
X214538Y-286700D01*
X213379Y-289498D01*
X212984Y-292500D01*
X213379Y-295502D01*
X214538Y-298300D01*
X215043Y-298958D01*
X214481Y-300097D01*
X66599D01*
Y-159668D01*
X67869Y-159236D01*
X68366Y-159884D01*
X70089Y-161206D01*
X72096Y-162038D01*
X74250Y-162321D01*
X76404Y-162038D01*
X78411Y-161206D01*
X80134Y-159884D01*
X81456Y-158161D01*
X82288Y-156154D01*
X82571Y-154000D01*
Y98639D01*
X101551Y117619D01*
X102873Y119343D01*
X103705Y121350D01*
X103988Y123503D01*
Y136503D01*
X103705Y138657D01*
X102873Y140664D01*
X101551Y142387D01*
X99828Y143710D01*
X97821Y144541D01*
X95667Y144824D01*
X93513Y144541D01*
X91506Y143710D01*
X89783Y142387D01*
X88461Y140664D01*
X87629Y138657D01*
X87346Y136503D01*
Y126950D01*
X68366Y107970D01*
X67044Y106247D01*
X66212Y104240D01*
X65929Y102086D01*
Y51906D01*
X64659Y51475D01*
X63202Y53373D01*
X63202Y53373D01*
X56771Y59804D01*
X54369Y61647D01*
X51571Y62806D01*
X48569Y63201D01*
X48569Y63201D01*
X-175662D01*
Y90793D01*
X-175662Y90793D01*
X-176057Y93795D01*
X-177216Y96593D01*
X-179060Y98995D01*
X-184918Y104853D01*
X-187320Y106696D01*
X-190117Y107855D01*
X-193119Y108250D01*
X-193120Y108250D01*
X-205082D01*
X-208084Y107855D01*
X-210882Y106696D01*
X-213284Y104853D01*
X-215128Y102451D01*
X-216286Y99653D01*
X-216681Y96651D01*
X-216286Y93649D01*
X-215128Y90851D01*
X-213284Y88449D01*
X-210882Y86606D01*
X-208084Y85447D01*
X-205082Y85052D01*
X-198861D01*
Y57460D01*
X-198861Y57460D01*
X-198466Y54458D01*
X-197307Y51660D01*
X-195464Y49258D01*
X-193935Y47729D01*
X-194421Y46556D01*
X-259723Y46556D01*
X-261420Y46333D01*
X-262563Y45859D01*
X-263833Y46506D01*
Y58803D01*
X-258773Y63863D01*
X-257531Y65482D01*
X-257074Y66586D01*
X-256750Y67367D01*
X-256484Y69390D01*
Y99569D01*
X-242233Y113820D01*
X-240990Y115439D01*
X-240533Y116544D01*
X-240210Y117325D01*
X-239943Y119348D01*
Y144539D01*
X-232510Y151972D01*
X-231268Y153591D01*
X-230487Y155477D01*
X-230221Y157500D01*
X-230364Y158588D01*
X-228948Y159674D01*
X-211973Y176649D01*
X-210730Y178268D01*
X-209949Y180154D01*
X-209683Y182177D01*
Y197500D01*
X-209949Y199523D01*
X-210730Y201408D01*
X-211973Y203027D01*
X-212073Y203104D01*
X-212156Y204371D01*
X-209473Y207054D01*
X-208230Y208673D01*
X-207773Y209778D01*
X-207449Y210558D01*
X-207183Y212582D01*
Y270000D01*
X-207449Y272023D01*
X-208230Y273908D01*
X-209473Y275527D01*
X-211092Y276770D01*
X-212977Y277551D01*
X-215000Y277817D01*
X-217023Y277551D01*
X-218909Y276770D01*
X-220527Y275527D01*
X-221770Y273908D01*
X-222551Y272023D01*
X-222565Y271917D01*
X-223975Y270932D01*
X-225000Y271067D01*
X-227023Y270800D01*
X-228909Y270020D01*
X-230527Y268777D01*
X-231770Y267158D01*
X-232551Y265273D01*
X-232560Y265204D01*
X-233725Y265051D01*
X-235610Y264270D01*
X-237229Y263027D01*
X-238471Y261408D01*
X-239252Y259523D01*
X-239502Y257624D01*
X-240061Y257551D01*
X-241946Y256770D01*
X-243565Y255527D01*
X-244807Y253909D01*
X-245588Y252023D01*
X-245827Y250208D01*
X-247023Y250051D01*
X-248908Y249270D01*
X-250527Y248027D01*
X-251769Y246408D01*
X-252550Y244523D01*
X-252816Y242500D01*
Y242427D01*
X-254523Y242202D01*
X-256408Y241421D01*
X-258027Y240179D01*
X-259270Y238560D01*
X-260051Y236675D01*
X-260181Y235687D01*
X-261513Y234581D01*
X-261672Y234602D01*
X-263696Y234336D01*
X-265581Y233555D01*
X-267200Y232313D01*
X-268442Y230694D01*
X-269223Y228809D01*
X-269374Y227660D01*
X-270205Y227551D01*
X-272090Y226770D01*
X-273709Y225527D01*
X-288919Y210317D01*
X-296973D01*
X-297822Y211587D01*
X-297183Y213130D01*
X-297134Y213502D01*
X-307899D01*
X-318665D01*
X-318616Y213130D01*
X-317977Y211587D01*
X-318826Y210317D01*
X-321401D01*
X-322429Y210182D01*
X-323322Y211345D01*
X-322583Y213130D01*
X-322534Y213502D01*
X-333299D01*
X-344065D01*
X-344016Y213130D01*
X-342908Y210454D01*
X-341145Y208156D01*
X-338847Y206393D01*
X-336171Y205285D01*
X-333299Y204907D01*
X-331625Y205127D01*
X-331031Y203924D01*
X-334415Y200541D01*
X-335910Y200344D01*
X-338343Y199337D01*
X-340432Y197734D01*
X-342034Y195645D01*
X-343042Y193212D01*
X-343386Y190602D01*
X-343042Y187991D01*
X-342034Y185558D01*
X-340432Y183470D01*
X-338343Y181867D01*
X-335910Y180859D01*
X-333299Y180515D01*
X-330689Y180859D01*
X-330354Y180998D01*
X-329635Y179921D01*
X-334415Y175141D01*
X-335910Y174944D01*
X-338343Y173937D01*
X-340432Y172334D01*
X-342034Y170245D01*
X-342219Y169799D01*
X-343489Y170051D01*
Y177500D01*
X-343755Y179523D01*
X-344536Y181408D01*
X-345779Y183027D01*
X-347398Y184270D01*
X-349283Y185051D01*
X-350239Y185176D01*
Y202500D01*
X-350505Y204523D01*
X-351286Y206409D01*
X-351950Y207273D01*
X-351286Y208137D01*
X-350505Y210023D01*
X-350239Y212046D01*
Y227541D01*
X-350505Y229564D01*
X-351286Y231450D01*
X-352529Y233069D01*
X-354148Y234311D01*
X-356033Y235092D01*
X-356989Y235218D01*
Y242500D01*
X-357129Y243565D01*
X-356081Y244835D01*
X-343922D01*
X-343101Y243565D01*
X-343386Y241402D01*
X-343042Y238791D01*
X-342034Y236359D01*
X-340432Y234270D01*
X-338343Y232667D01*
X-335910Y231659D01*
X-333299Y231315D01*
X-330689Y231659D01*
X-328256Y232667D01*
X-326167Y234270D01*
X-324565Y236359D01*
X-323557Y238791D01*
X-323213Y241402D01*
X-323498Y243565D01*
X-322677Y244835D01*
X-318522D01*
X-317701Y243565D01*
X-317986Y241402D01*
X-317642Y238791D01*
X-316634Y236359D01*
X-315032Y234270D01*
X-312943Y232667D01*
X-310510Y231659D01*
X-307899Y231315D01*
X-305289Y231659D01*
X-302856Y232667D01*
X-300767Y234270D01*
X-299165Y236359D01*
X-298157Y238791D01*
X-297813Y241402D01*
X-298098Y243565D01*
X-297277Y244835D01*
X-280000D01*
X-277977Y245101D01*
X-276091Y245882D01*
X-274473Y247124D01*
X-273230Y248743D01*
X-272449Y250629D01*
X-272183Y252652D01*
X-272449Y254675D01*
X-273230Y256560D01*
X-274473Y258179D01*
X-276091Y259421D01*
X-277977Y260202D01*
X-280000Y260469D01*
X-298719D01*
X-299280Y261607D01*
X-299165Y261758D01*
X-298157Y264191D01*
X-297813Y266802D01*
X-298157Y269412D01*
X-299165Y271845D01*
X-299280Y271996D01*
X-298719Y273135D01*
X-281051D01*
X-279028Y273401D01*
X-278247Y273724D01*
X-277142Y274182D01*
X-275523Y275424D01*
X-268023Y282924D01*
X-268023Y282924D01*
X-266781Y284543D01*
X-266000Y286429D01*
X-265734Y288452D01*
X-266000Y290475D01*
X-266781Y292360D01*
X-268023Y293979D01*
X-269642Y295221D01*
X-270423Y295545D01*
X-271528Y296002D01*
X-273551Y296269D01*
X-275574Y296002D01*
X-277459Y295221D01*
X-277773Y295306D01*
X-278230Y296408D01*
X-279473Y298027D01*
X-279473Y298027D01*
X-291973Y310527D01*
X-293592Y311770D01*
X-294696Y312227D01*
X-295477Y312551D01*
X-297500Y312817D01*
X-297915D01*
X-298620Y313873D01*
X-298157Y314991D01*
X-297813Y317602D01*
X-298157Y320212D01*
X-298206Y320330D01*
X-297129Y321049D01*
X-294677Y318598D01*
X-293058Y317355D01*
X-291173Y316574D01*
X-289150Y316308D01*
X-287127Y316574D01*
X-285242Y317355D01*
X-283623Y318598D01*
X-282380Y320216D01*
X-281600Y322102D01*
X-281333Y324125D01*
X-281600Y326148D01*
X-282380Y328033D01*
X-283623Y329652D01*
X-291998Y338027D01*
X-293617Y339270D01*
X-294721Y339727D01*
X-295502Y340051D01*
X-297525Y340317D01*
D02*
G37*
G36*
X403299Y352986D02*
X400688Y352643D01*
X398255Y351635D01*
X396166Y350032D01*
X394564Y347943D01*
X393556Y345510D01*
X393212Y342900D01*
X393556Y340289D01*
X394564Y337857D01*
X396166Y335768D01*
X398255Y334165D01*
X400688Y333157D01*
X403299Y332814D01*
X405909Y333157D01*
X408342Y334165D01*
X410431Y335768D01*
X412034Y337857D01*
X413041Y340289D01*
X413385Y342900D01*
X413041Y345510D01*
X412034Y347943D01*
X410431Y350032D01*
X408342Y351635D01*
X405909Y352643D01*
X403299Y352986D01*
D02*
G37*
G36*
X377899D02*
X375288Y352643D01*
X372855Y351635D01*
X370766Y350032D01*
X369164Y347943D01*
X368156Y345510D01*
X367812Y342900D01*
X368156Y340289D01*
X369164Y337857D01*
X370766Y335768D01*
X372855Y334165D01*
X375288Y333157D01*
X377899Y332814D01*
X380509Y333157D01*
X382942Y334165D01*
X385031Y335768D01*
X386633Y337857D01*
X387641Y340289D01*
X387985Y342900D01*
X387641Y345510D01*
X386633Y347943D01*
X385031Y350032D01*
X382942Y351635D01*
X380509Y352643D01*
X377899Y352986D01*
D02*
G37*
G36*
X352499D02*
X349888Y352643D01*
X347455Y351635D01*
X345367Y350032D01*
X343764Y347943D01*
X342756Y345510D01*
X342412Y342900D01*
X342756Y340289D01*
X343764Y337857D01*
X345367Y335768D01*
X347455Y334165D01*
X349888Y333157D01*
X352499Y332814D01*
X355109Y333157D01*
X357542Y334165D01*
X359631Y335768D01*
X361233Y337857D01*
X362241Y340289D01*
X362585Y342900D01*
X362241Y345510D01*
X361233Y347943D01*
X359631Y350032D01*
X357542Y351635D01*
X355109Y352643D01*
X352499Y352986D01*
D02*
G37*
G36*
X327099D02*
X324488Y352643D01*
X322055Y351635D01*
X319967Y350032D01*
X318364Y347943D01*
X317356Y345510D01*
X317012Y342900D01*
X317356Y340289D01*
X318364Y337857D01*
X319967Y335768D01*
X322055Y334165D01*
X324488Y333157D01*
X327099Y332814D01*
X329709Y333157D01*
X332142Y334165D01*
X334231Y335768D01*
X335834Y337857D01*
X336841Y340289D01*
X337185Y342900D01*
X336841Y345510D01*
X335834Y347943D01*
X334231Y350032D01*
X332142Y351635D01*
X329709Y352643D01*
X327099Y352986D01*
D02*
G37*
G36*
X301699D02*
X299088Y352643D01*
X296655Y351635D01*
X294566Y350032D01*
X292964Y347943D01*
X291956Y345510D01*
X291612Y342900D01*
X291956Y340289D01*
X292964Y337857D01*
X294566Y335768D01*
X296655Y334165D01*
X299088Y333157D01*
X301699Y332814D01*
X304309Y333157D01*
X306742Y334165D01*
X308831Y335768D01*
X310434Y337857D01*
X311441Y340289D01*
X311785Y342900D01*
X311441Y345510D01*
X310434Y347943D01*
X308831Y350032D01*
X306742Y351635D01*
X304309Y352643D01*
X301699Y352986D01*
D02*
G37*
G36*
X276299D02*
X273688Y352643D01*
X271255Y351635D01*
X269167Y350032D01*
X267564Y347943D01*
X266556Y345510D01*
X266212Y342900D01*
X266556Y340289D01*
X267564Y337857D01*
X269167Y335768D01*
X271255Y334165D01*
X273688Y333157D01*
X276299Y332814D01*
X278909Y333157D01*
X281342Y334165D01*
X283431Y335768D01*
X285033Y337857D01*
X286041Y340289D01*
X286385Y342900D01*
X286041Y345510D01*
X285033Y347943D01*
X283431Y350032D01*
X281342Y351635D01*
X278909Y352643D01*
X276299Y352986D01*
D02*
G37*
G36*
X250899D02*
X248288Y352643D01*
X245855Y351635D01*
X243766Y350032D01*
X242164Y347943D01*
X241156Y345510D01*
X240812Y342900D01*
X241156Y340289D01*
X242164Y337857D01*
X243766Y335768D01*
X245855Y334165D01*
X248288Y333157D01*
X250899Y332814D01*
X253509Y333157D01*
X255942Y334165D01*
X258031Y335768D01*
X259634Y337857D01*
X260641Y340289D01*
X260985Y342900D01*
X260641Y345510D01*
X259634Y347943D01*
X258031Y350032D01*
X255942Y351635D01*
X253509Y352643D01*
X250899Y352986D01*
D02*
G37*
G36*
X225499D02*
X222888Y352643D01*
X220455Y351635D01*
X218367Y350032D01*
X216764Y347943D01*
X215756Y345510D01*
X215412Y342900D01*
X215756Y340289D01*
X216764Y337857D01*
X218367Y335768D01*
X220455Y334165D01*
X222888Y333157D01*
X225499Y332814D01*
X228109Y333157D01*
X230542Y334165D01*
X232631Y335768D01*
X234233Y337857D01*
X235241Y340289D01*
X235585Y342900D01*
X235241Y345510D01*
X234233Y347943D01*
X232631Y350032D01*
X230542Y351635D01*
X228109Y352643D01*
X225499Y352986D01*
D02*
G37*
G36*
X200099D02*
X197488Y352643D01*
X195055Y351635D01*
X192966Y350032D01*
X191364Y347943D01*
X190356Y345510D01*
X190012Y342900D01*
X190356Y340289D01*
X191364Y337857D01*
X192966Y335768D01*
X195055Y334165D01*
X197488Y333157D01*
X200099Y332814D01*
X202709Y333157D01*
X205142Y334165D01*
X207231Y335768D01*
X208834Y337857D01*
X209841Y340289D01*
X210185Y342900D01*
X209841Y345510D01*
X208834Y347943D01*
X207231Y350032D01*
X205142Y351635D01*
X202709Y352643D01*
X200099Y352986D01*
D02*
G37*
G36*
X174699D02*
X172088Y352643D01*
X169655Y351635D01*
X167567Y350032D01*
X165964Y347943D01*
X164956Y345510D01*
X164612Y342900D01*
X164956Y340289D01*
X165964Y337857D01*
X167567Y335768D01*
X169655Y334165D01*
X172088Y333157D01*
X174699Y332814D01*
X177309Y333157D01*
X179742Y334165D01*
X181831Y335768D01*
X183433Y337857D01*
X184441Y340289D01*
X184785Y342900D01*
X184441Y345510D01*
X183433Y347943D01*
X181831Y350032D01*
X179742Y351635D01*
X177309Y352643D01*
X174699Y352986D01*
D02*
G37*
G36*
X123899D02*
X121288Y352643D01*
X118855Y351635D01*
X116767Y350032D01*
X115164Y347943D01*
X114156Y345510D01*
X113812Y342900D01*
X114156Y340289D01*
X115164Y337857D01*
X116767Y335768D01*
X118855Y334165D01*
X121288Y333157D01*
X123899Y332814D01*
X126509Y333157D01*
X128942Y334165D01*
X131031Y335768D01*
X132633Y337857D01*
X133641Y340289D01*
X133985Y342900D01*
X133641Y345510D01*
X132633Y347943D01*
X131031Y350032D01*
X128942Y351635D01*
X126509Y352643D01*
X123899Y352986D01*
D02*
G37*
G36*
X47699D02*
X45088Y352643D01*
X42655Y351635D01*
X40567Y350032D01*
X38964Y347943D01*
X37956Y345510D01*
X37612Y342900D01*
X37956Y340289D01*
X38964Y337857D01*
X40567Y335768D01*
X42655Y334165D01*
X45088Y333157D01*
X47699Y332814D01*
X50309Y333157D01*
X52742Y334165D01*
X54831Y335768D01*
X56434Y337857D01*
X57441Y340289D01*
X57785Y342900D01*
X57441Y345510D01*
X56434Y347943D01*
X54831Y350032D01*
X52742Y351635D01*
X50309Y352643D01*
X47699Y352986D01*
D02*
G37*
G36*
X22299D02*
X19688Y352643D01*
X17255Y351635D01*
X15166Y350032D01*
X13564Y347943D01*
X12556Y345510D01*
X12212Y342900D01*
X12556Y340289D01*
X13564Y337857D01*
X15166Y335768D01*
X17255Y334165D01*
X19688Y333157D01*
X22299Y332814D01*
X24909Y333157D01*
X27342Y334165D01*
X29431Y335768D01*
X31033Y337857D01*
X32041Y340289D01*
X32385Y342900D01*
X32041Y345510D01*
X31033Y347943D01*
X29431Y350032D01*
X27342Y351635D01*
X24909Y352643D01*
X22299Y352986D01*
D02*
G37*
G36*
X-3101D02*
X-5712Y352643D01*
X-8145Y351635D01*
X-10234Y350032D01*
X-11836Y347943D01*
X-12844Y345510D01*
X-13188Y342900D01*
X-12844Y340289D01*
X-11836Y337857D01*
X-10234Y335768D01*
X-8145Y334165D01*
X-5712Y333157D01*
X-3101Y332814D01*
X-491Y333157D01*
X1942Y334165D01*
X4031Y335768D01*
X5634Y337857D01*
X6641Y340289D01*
X6985Y342900D01*
X6641Y345510D01*
X5634Y347943D01*
X4031Y350032D01*
X1942Y351635D01*
X-491Y352643D01*
X-3101Y352986D01*
D02*
G37*
G36*
X-28501D02*
X-31112Y352643D01*
X-33545Y351635D01*
X-35633Y350032D01*
X-37236Y347943D01*
X-38244Y345510D01*
X-38588Y342900D01*
X-38244Y340289D01*
X-37236Y337857D01*
X-35633Y335768D01*
X-33545Y334165D01*
X-31112Y333157D01*
X-28501Y332814D01*
X-25891Y333157D01*
X-23458Y334165D01*
X-21369Y335768D01*
X-19766Y337857D01*
X-18759Y340289D01*
X-18415Y342900D01*
X-18759Y345510D01*
X-19766Y347943D01*
X-21369Y350032D01*
X-23458Y351635D01*
X-25891Y352643D01*
X-28501Y352986D01*
D02*
G37*
G36*
X-53901D02*
X-56512Y352643D01*
X-58945Y351635D01*
X-61034Y350032D01*
X-62636Y347943D01*
X-63644Y345510D01*
X-63988Y342900D01*
X-63644Y340289D01*
X-62636Y337857D01*
X-61034Y335768D01*
X-58945Y334165D01*
X-56512Y333157D01*
X-53901Y332814D01*
X-51291Y333157D01*
X-48858Y334165D01*
X-46769Y335768D01*
X-45167Y337857D01*
X-44159Y340289D01*
X-43815Y342900D01*
X-44159Y345510D01*
X-45167Y347943D01*
X-46769Y350032D01*
X-48858Y351635D01*
X-51291Y352643D01*
X-53901Y352986D01*
D02*
G37*
G36*
X-79301D02*
X-81912Y352643D01*
X-84345Y351635D01*
X-86433Y350032D01*
X-88036Y347943D01*
X-89044Y345510D01*
X-89388Y342900D01*
X-89044Y340289D01*
X-88036Y337857D01*
X-86433Y335768D01*
X-84345Y334165D01*
X-81912Y333157D01*
X-79301Y332814D01*
X-76691Y333157D01*
X-74258Y334165D01*
X-72169Y335768D01*
X-70567Y337857D01*
X-69559Y340289D01*
X-69215Y342900D01*
X-69559Y345510D01*
X-70567Y347943D01*
X-72169Y350032D01*
X-74258Y351635D01*
X-76691Y352643D01*
X-79301Y352986D01*
D02*
G37*
G36*
X-104701D02*
X-107312Y352643D01*
X-109745Y351635D01*
X-111833Y350032D01*
X-113436Y347943D01*
X-114444Y345510D01*
X-114788Y342900D01*
X-114444Y340289D01*
X-113436Y337857D01*
X-111833Y335768D01*
X-109745Y334165D01*
X-107312Y333157D01*
X-104701Y332814D01*
X-102091Y333157D01*
X-99658Y334165D01*
X-97569Y335768D01*
X-95967Y337857D01*
X-94959Y340289D01*
X-94615Y342900D01*
X-94959Y345510D01*
X-95967Y347943D01*
X-97569Y350032D01*
X-99658Y351635D01*
X-102091Y352643D01*
X-104701Y352986D01*
D02*
G37*
G36*
X-130101D02*
X-132712Y352643D01*
X-135145Y351635D01*
X-137233Y350032D01*
X-138836Y347943D01*
X-139844Y345510D01*
X-140188Y342900D01*
X-139844Y340289D01*
X-138836Y337857D01*
X-137233Y335768D01*
X-135145Y334165D01*
X-132712Y333157D01*
X-130101Y332814D01*
X-127491Y333157D01*
X-125058Y334165D01*
X-122969Y335768D01*
X-121367Y337857D01*
X-120359Y340289D01*
X-120015Y342900D01*
X-120359Y345510D01*
X-121367Y347943D01*
X-122969Y350032D01*
X-125058Y351635D01*
X-127491Y352643D01*
X-130101Y352986D01*
D02*
G37*
G36*
X-155501D02*
X-158112Y352643D01*
X-160545Y351635D01*
X-162633Y350032D01*
X-164236Y347943D01*
X-165244Y345510D01*
X-165588Y342900D01*
X-165244Y340289D01*
X-164236Y337857D01*
X-162633Y335768D01*
X-160545Y334165D01*
X-158112Y333157D01*
X-155501Y332814D01*
X-152891Y333157D01*
X-150458Y334165D01*
X-148369Y335768D01*
X-146767Y337857D01*
X-145759Y340289D01*
X-145415Y342900D01*
X-145759Y345510D01*
X-146767Y347943D01*
X-148369Y350032D01*
X-150458Y351635D01*
X-152891Y352643D01*
X-155501Y352986D01*
D02*
G37*
G36*
X-180901D02*
X-183512Y352643D01*
X-185945Y351635D01*
X-188034Y350032D01*
X-189636Y347943D01*
X-190644Y345510D01*
X-190988Y342900D01*
X-190644Y340289D01*
X-189636Y337857D01*
X-188034Y335768D01*
X-185945Y334165D01*
X-183512Y333157D01*
X-180901Y332814D01*
X-178291Y333157D01*
X-175858Y334165D01*
X-173769Y335768D01*
X-172167Y337857D01*
X-171159Y340289D01*
X-170815Y342900D01*
X-171159Y345510D01*
X-172167Y347943D01*
X-173769Y350032D01*
X-175858Y351635D01*
X-178291Y352643D01*
X-180901Y352986D01*
D02*
G37*
G36*
X-206301D02*
X-208912Y352643D01*
X-211345Y351635D01*
X-213433Y350032D01*
X-215036Y347943D01*
X-216044Y345510D01*
X-216388Y342900D01*
X-216044Y340289D01*
X-215036Y337857D01*
X-213433Y335768D01*
X-211345Y334165D01*
X-208912Y333157D01*
X-206301Y332814D01*
X-203691Y333157D01*
X-201258Y334165D01*
X-199169Y335768D01*
X-197567Y337857D01*
X-196559Y340289D01*
X-196215Y342900D01*
X-196559Y345510D01*
X-197567Y347943D01*
X-199169Y350032D01*
X-201258Y351635D01*
X-203691Y352643D01*
X-206301Y352986D01*
D02*
G37*
G36*
X-231701D02*
X-234312Y352643D01*
X-236745Y351635D01*
X-238834Y350032D01*
X-240436Y347943D01*
X-241444Y345510D01*
X-241788Y342900D01*
X-241444Y340289D01*
X-240436Y337857D01*
X-238834Y335768D01*
X-236745Y334165D01*
X-234312Y333157D01*
X-231701Y332814D01*
X-229091Y333157D01*
X-226658Y334165D01*
X-224569Y335768D01*
X-222966Y337857D01*
X-221959Y340289D01*
X-221615Y342900D01*
X-221959Y345510D01*
X-222966Y347943D01*
X-224569Y350032D01*
X-226658Y351635D01*
X-229091Y352643D01*
X-231701Y352986D01*
D02*
G37*
G36*
X149299D02*
X146688Y352643D01*
X144255Y351635D01*
X142167Y350032D01*
X140564Y347943D01*
X139556Y345510D01*
X139212Y342900D01*
X139556Y340289D01*
X140564Y337857D01*
X141482Y336660D01*
Y320000D01*
X141748Y317977D01*
X142529Y316092D01*
X143771Y314473D01*
X145390Y313230D01*
X147275Y312449D01*
X149299Y312183D01*
X151322Y312449D01*
X153207Y313230D01*
X154826Y314473D01*
X156068Y316092D01*
X156849Y317977D01*
X157115Y320000D01*
Y336660D01*
X158034Y337857D01*
X159041Y340289D01*
X159385Y342900D01*
X159041Y345510D01*
X158034Y347943D01*
X156431Y350032D01*
X154342Y351635D01*
X151909Y352643D01*
X149299Y352986D01*
D02*
G37*
G36*
X-580000Y260500D02*
Y247500D01*
X-573000D01*
Y260500D01*
X-580000D01*
D02*
G37*
G36*
X820000D02*
X813000D01*
Y247500D01*
X820000D01*
Y260500D01*
D02*
G37*
G36*
Y242500D02*
X813000D01*
Y229500D01*
X820000D01*
Y242500D01*
D02*
G37*
G36*
X-573000Y242500D02*
X-580000D01*
Y229500D01*
X-573000D01*
Y242500D01*
D02*
G37*
G36*
X-305399Y226767D02*
Y218502D01*
X-297134D01*
X-297183Y218873D01*
X-298291Y221549D01*
X-300054Y223847D01*
X-302352Y225610D01*
X-305028Y226719D01*
X-305399Y226767D01*
D02*
G37*
G36*
X-330799D02*
Y218502D01*
X-322534D01*
X-322583Y218873D01*
X-323691Y221549D01*
X-325454Y223847D01*
X-327752Y225610D01*
X-330428Y226719D01*
X-330799Y226767D01*
D02*
G37*
G36*
X-310399D02*
X-310771Y226719D01*
X-313447Y225610D01*
X-315745Y223847D01*
X-317508Y221549D01*
X-318616Y218873D01*
X-318665Y218502D01*
X-310399D01*
Y226767D01*
D02*
G37*
G36*
X-335799D02*
X-336171Y226719D01*
X-338847Y225610D01*
X-341145Y223847D01*
X-342908Y221549D01*
X-344016Y218873D01*
X-344065Y218502D01*
X-335799D01*
Y226767D01*
D02*
G37*
G36*
X-580000Y170500D02*
Y157500D01*
X-573000D01*
Y170500D01*
X-580000D01*
D02*
G37*
G36*
X820000D02*
X813000D01*
Y157500D01*
X820000D01*
Y170500D01*
D02*
G37*
G36*
Y152500D02*
X813000D01*
Y139500D01*
X820000D01*
Y152500D01*
D02*
G37*
G36*
X-573000Y152500D02*
X-580000D01*
Y139500D01*
X-573000D01*
Y152500D01*
D02*
G37*
G36*
X786000Y259500D02*
X769000D01*
Y230500D01*
X769685D01*
Y169500D01*
X769000D01*
Y140500D01*
X783683D01*
Y137000D01*
X780852D01*
X779523Y137550D01*
X777500Y137817D01*
X775477Y137550D01*
X774148Y137000D01*
X771000D01*
Y134260D01*
X770730Y133908D01*
X769949Y132023D01*
X769683Y130000D01*
Y118238D01*
X751973Y100527D01*
X750730Y98908D01*
X749949Y97023D01*
X749683Y95000D01*
Y-322500D01*
X749949Y-324523D01*
X750730Y-326408D01*
X751973Y-328027D01*
X753592Y-329270D01*
X755477Y-330051D01*
X757220Y-330280D01*
X757449Y-332023D01*
X758230Y-333909D01*
X759473Y-335527D01*
X761092Y-336770D01*
X762977Y-337551D01*
X765000Y-337817D01*
X767023Y-337551D01*
X768908Y-336770D01*
X770527Y-335527D01*
X771770Y-333909D01*
X772551Y-332023D01*
X772817Y-330000D01*
Y-259500D01*
X786000D01*
Y-230500D01*
X785818D01*
Y-169500D01*
X786000D01*
Y-162817D01*
X787000D01*
X789023Y-162551D01*
X790909Y-161770D01*
X792527Y-160527D01*
X797527Y-155527D01*
X798770Y-153909D01*
X799550Y-152023D01*
X799817Y-150000D01*
Y-137817D01*
X809002D01*
X811025Y-137551D01*
X812354Y-137000D01*
X815000D01*
X815000Y-138000D01*
X820000D01*
Y-130000D01*
X822500D01*
D01*
X820000D01*
Y-122000D01*
X815000D01*
X815000Y-123000D01*
X812354D01*
X811025Y-122450D01*
X809002Y-122183D01*
X792000D01*
X792000Y-122183D01*
X789977Y-122450D01*
X788648Y-123000D01*
X785497D01*
X785497Y-123000D01*
X784497D01*
Y-123000D01*
X784227Y-123000D01*
X781349D01*
X780020Y-122450D01*
X777997Y-122183D01*
X770000D01*
X767977Y-122450D01*
X766587Y-123025D01*
X765317Y-122346D01*
Y91762D01*
X783027Y109473D01*
X784270Y111091D01*
X785050Y112977D01*
X785317Y115000D01*
Y123000D01*
X788148D01*
X789477Y122450D01*
X791500Y122183D01*
X791500Y122183D01*
X808502D01*
X810525Y122450D01*
X811854Y123000D01*
X814998D01*
X814998Y122000D01*
X819998D01*
Y130000D01*
Y138000D01*
X814998D01*
X814998Y137000D01*
X811854D01*
X810525Y137551D01*
X808502Y137817D01*
X799317D01*
Y150000D01*
X799050Y152023D01*
X798270Y153909D01*
X797027Y155527D01*
X792027Y160527D01*
X790408Y161770D01*
X789304Y162227D01*
X788523Y162551D01*
X786500Y162817D01*
X786000D01*
Y169500D01*
X785318D01*
Y230500D01*
X786000D01*
Y259500D01*
D02*
G37*
G36*
X-529000D02*
X-546000D01*
Y230500D01*
X-545318D01*
Y169500D01*
X-546000D01*
Y162817D01*
X-546500D01*
X-548523Y162551D01*
X-550408Y161770D01*
X-552027Y160527D01*
X-557027Y155527D01*
X-558270Y153909D01*
X-558727Y152804D01*
X-559050Y152023D01*
X-559317Y150000D01*
Y137817D01*
X-568502D01*
X-570525Y137551D01*
X-571854Y137000D01*
X-574998D01*
X-574998Y138000D01*
X-579998D01*
Y130000D01*
Y122000D01*
X-574998D01*
X-574998Y123000D01*
X-571854D01*
X-570525Y122450D01*
X-568502Y122183D01*
X-551500D01*
X-551500Y122183D01*
X-549477Y122450D01*
X-548148Y123000D01*
X-545317D01*
Y115000D01*
X-545051Y112977D01*
X-544270Y111091D01*
X-543027Y109473D01*
X-525317Y91762D01*
Y-122346D01*
X-526587Y-123025D01*
X-527977Y-122450D01*
X-530000Y-122183D01*
X-537997D01*
X-540020Y-122450D01*
X-541349Y-123000D01*
X-543728D01*
X-543998Y-123000D01*
Y-123000D01*
X-544998D01*
Y-123000D01*
X-548146D01*
X-549475Y-122449D01*
X-551498Y-122183D01*
X-551498Y-122183D01*
X-568500D01*
X-570523Y-122450D01*
X-571852Y-123000D01*
X-575000D01*
X-575000Y-122000D01*
X-580000D01*
Y-130000D01*
Y-138000D01*
X-575000D01*
X-575000Y-137000D01*
X-571852D01*
X-570523Y-137550D01*
X-568500Y-137817D01*
X-559315D01*
Y-150000D01*
X-559049Y-152023D01*
X-558268Y-153908D01*
X-557026Y-155527D01*
X-552026Y-160527D01*
X-550407Y-161770D01*
X-548521Y-162551D01*
X-546498Y-162817D01*
X-546000D01*
Y-169500D01*
X-545317D01*
Y-230500D01*
X-546000D01*
Y-259500D01*
X-532817D01*
Y-330000D01*
X-532551Y-332023D01*
X-531770Y-333908D01*
X-530527Y-335527D01*
X-528908Y-336770D01*
X-527023Y-337551D01*
X-525000Y-337817D01*
X-522977Y-337551D01*
X-521091Y-336770D01*
X-519473Y-335527D01*
X-518230Y-333908D01*
X-517449Y-332023D01*
X-517220Y-330280D01*
X-515477Y-330051D01*
X-513592Y-329270D01*
X-511973Y-328027D01*
X-510730Y-326408D01*
X-509949Y-324523D01*
X-509683Y-322500D01*
Y95000D01*
X-509949Y97023D01*
X-510730Y98908D01*
X-511973Y100527D01*
X-529683Y118238D01*
Y130000D01*
X-529949Y132023D01*
X-530730Y133908D01*
X-531000Y134260D01*
Y137000D01*
X-534148D01*
X-535477Y137550D01*
X-537500Y137817D01*
X-539523Y137550D01*
X-540852Y137000D01*
X-543683D01*
Y140500D01*
X-529000D01*
Y169500D01*
X-529685D01*
Y230500D01*
X-529000D01*
Y259500D01*
D02*
G37*
G36*
X829998Y138000D02*
X824998D01*
Y132500D01*
X829998D01*
Y138000D01*
D02*
G37*
G36*
X-584998D02*
X-589998D01*
Y132500D01*
X-584998D01*
Y138000D01*
D02*
G37*
G36*
X829998Y127500D02*
X824998D01*
Y122000D01*
X829998D01*
Y127500D01*
D02*
G37*
G36*
X-584998Y127500D02*
X-589998D01*
Y122000D01*
X-584998D01*
Y127500D01*
D02*
G37*
G36*
X830000Y-122000D02*
X825000D01*
Y-127500D01*
X830000D01*
Y-122000D01*
D02*
G37*
G36*
X-585000Y-122000D02*
X-590000D01*
Y-127500D01*
X-585000D01*
Y-122000D01*
D02*
G37*
G36*
Y-132500D02*
X-590000D01*
Y-138000D01*
X-585000D01*
Y-132500D01*
D02*
G37*
G36*
X830000Y-132500D02*
X825000D01*
Y-138000D01*
X830000D01*
Y-132500D01*
D02*
G37*
G36*
X-580000Y-139500D02*
Y-152500D01*
X-573000D01*
Y-139500D01*
X-580000D01*
D02*
G37*
G36*
X820000D02*
X813000D01*
Y-152500D01*
X820000D01*
Y-139500D01*
D02*
G37*
G36*
X618700Y-3006D02*
X478700D01*
X477003Y-3230D01*
X475422Y-3884D01*
X474064Y-4926D01*
X473022Y-6284D01*
X472367Y-7865D01*
X472144Y-9562D01*
Y-155000D01*
X472367Y-156697D01*
X473022Y-158278D01*
X474064Y-159636D01*
X475422Y-160678D01*
X477003Y-161333D01*
X478700Y-161556D01*
X618700D01*
X620397Y-161333D01*
X621978Y-160678D01*
X623336Y-159636D01*
X624378Y-158278D01*
X625033Y-156697D01*
X625256Y-155000D01*
Y-9562D01*
X625033Y-7865D01*
X624378Y-6284D01*
X623336Y-4926D01*
X621978Y-3884D01*
X620397Y-3230D01*
X618700Y-3006D01*
D02*
G37*
G36*
X-305399Y-154233D02*
Y-162498D01*
X-297134D01*
X-297183Y-162127D01*
X-298291Y-159451D01*
X-300054Y-157153D01*
X-302352Y-155390D01*
X-305028Y-154282D01*
X-305399Y-154233D01*
D02*
G37*
G36*
X-330799D02*
Y-162498D01*
X-322534D01*
X-322583Y-162127D01*
X-323691Y-159451D01*
X-325454Y-157153D01*
X-327752Y-155390D01*
X-330428Y-154282D01*
X-330799Y-154233D01*
D02*
G37*
G36*
X-310399D02*
X-310771Y-154282D01*
X-313447Y-155390D01*
X-315745Y-157153D01*
X-317508Y-159451D01*
X-318616Y-162127D01*
X-318665Y-162498D01*
X-310399D01*
Y-154233D01*
D02*
G37*
G36*
X820000Y-157500D02*
X813000D01*
Y-170500D01*
X820000D01*
Y-157500D01*
D02*
G37*
G36*
X-573000Y-157500D02*
X-580000D01*
Y-170500D01*
X-573000D01*
Y-157500D01*
D02*
G37*
G36*
X-310399Y-167498D02*
X-318665D01*
X-318616Y-167870D01*
X-317508Y-170546D01*
X-315745Y-172844D01*
X-313447Y-174607D01*
X-310771Y-175715D01*
X-310399Y-175764D01*
Y-167498D01*
D02*
G37*
G36*
X-297134D02*
X-305399D01*
Y-175764D01*
X-305028Y-175715D01*
X-302352Y-174607D01*
X-300054Y-172844D01*
X-298291Y-170546D01*
X-297183Y-167870D01*
X-297134Y-167498D01*
D02*
G37*
G36*
X-273358Y-146183D02*
X-275381Y-146449D01*
X-277266Y-147230D01*
X-278885Y-148473D01*
X-280128Y-150092D01*
X-280908Y-151977D01*
X-281175Y-154000D01*
Y-204494D01*
X-280908Y-206517D01*
X-280585Y-207298D01*
X-280128Y-208402D01*
X-278885Y-210021D01*
X-278831Y-210076D01*
X-277212Y-211318D01*
X-275326Y-212099D01*
X-273303Y-212365D01*
X-271280Y-212099D01*
X-269395Y-211318D01*
X-267776Y-210076D01*
X-266534Y-208457D01*
X-265753Y-206572D01*
X-265487Y-204548D01*
X-265541Y-204134D01*
Y-154000D01*
X-265807Y-151977D01*
X-266588Y-150092D01*
X-267831Y-148473D01*
X-269449Y-147230D01*
X-271335Y-146449D01*
X-273358Y-146183D01*
D02*
G37*
G36*
X-580000Y-229500D02*
Y-242500D01*
X-573000D01*
Y-229500D01*
X-580000D01*
D02*
G37*
G36*
X820000D02*
X813000D01*
Y-242500D01*
X820000D01*
Y-229500D01*
D02*
G37*
G36*
Y-247500D02*
X813000D01*
Y-260500D01*
X820000D01*
Y-247500D01*
D02*
G37*
G36*
X-573000Y-247500D02*
X-580000D01*
Y-260500D01*
X-573000D01*
Y-247500D01*
D02*
G37*
G36*
X-310399Y-269098D02*
X-318665D01*
X-318616Y-269470D01*
X-317508Y-272146D01*
X-315745Y-274444D01*
X-313447Y-276207D01*
X-310771Y-277315D01*
X-310399Y-277364D01*
Y-269098D01*
D02*
G37*
G36*
X-297134D02*
X-305399D01*
Y-277364D01*
X-305028Y-277315D01*
X-302352Y-276207D01*
X-300054Y-274444D01*
X-298291Y-272146D01*
X-297183Y-269470D01*
X-297134Y-269098D01*
D02*
G37*
G36*
X-307899Y-281912D02*
X-310510Y-282256D01*
X-312943Y-283263D01*
X-315032Y-284866D01*
X-316634Y-286955D01*
X-317642Y-289388D01*
X-317986Y-291998D01*
X-317642Y-294609D01*
X-316634Y-297041D01*
X-315032Y-299130D01*
X-312943Y-300733D01*
X-310510Y-301741D01*
X-307899Y-302085D01*
X-305289Y-301741D01*
X-302856Y-300733D01*
X-300767Y-299130D01*
X-299165Y-297041D01*
X-298157Y-294609D01*
X-297813Y-291998D01*
X-298157Y-289388D01*
X-299165Y-286955D01*
X-300767Y-284866D01*
X-302856Y-283263D01*
X-305289Y-282256D01*
X-307899Y-281912D01*
D02*
G37*
G36*
X-333299D02*
X-335910Y-282256D01*
X-338343Y-283263D01*
X-340432Y-284866D01*
X-342034Y-286955D01*
X-343042Y-289388D01*
X-343386Y-291998D01*
X-343042Y-294609D01*
X-342034Y-297041D01*
X-340432Y-299130D01*
X-338343Y-300733D01*
X-335910Y-301741D01*
X-333299Y-302085D01*
X-330689Y-301741D01*
X-328256Y-300733D01*
X-326167Y-299130D01*
X-324565Y-297041D01*
X-323557Y-294609D01*
X-323213Y-291998D01*
X-323557Y-289388D01*
X-324565Y-286955D01*
X-326167Y-284866D01*
X-328256Y-283263D01*
X-330689Y-282256D01*
X-333299Y-281912D01*
D02*
G37*
G36*
X-307899Y-307312D02*
X-310510Y-307656D01*
X-312943Y-308663D01*
X-315032Y-310266D01*
X-316634Y-312355D01*
X-317642Y-314788D01*
X-317986Y-317398D01*
X-317642Y-320009D01*
X-316634Y-322441D01*
X-315032Y-324530D01*
X-312943Y-326133D01*
X-310510Y-327141D01*
X-307899Y-327485D01*
X-305289Y-327141D01*
X-302856Y-326133D01*
X-300767Y-324530D01*
X-299165Y-322441D01*
X-298157Y-320009D01*
X-297813Y-317398D01*
X-298157Y-314788D01*
X-299165Y-312355D01*
X-300767Y-310266D01*
X-302856Y-308663D01*
X-305289Y-307656D01*
X-307899Y-307312D01*
D02*
G37*
G36*
X304202Y-332134D02*
Y-340400D01*
X312468D01*
X312419Y-340028D01*
X311310Y-337353D01*
X309547Y-335055D01*
X307249Y-333292D01*
X304573Y-332183D01*
X304202Y-332134D01*
D02*
G37*
G36*
X299202D02*
X298830Y-332183D01*
X296154Y-333292D01*
X293857Y-335055D01*
X292093Y-337353D01*
X290985Y-340028D01*
X290936Y-340400D01*
X299202D01*
Y-332134D01*
D02*
G37*
G36*
X228002D02*
Y-340400D01*
X236268D01*
X236219Y-340028D01*
X235110Y-337353D01*
X233347Y-335055D01*
X231049Y-333292D01*
X228373Y-332183D01*
X228002Y-332134D01*
D02*
G37*
G36*
X223002D02*
X222630Y-332183D01*
X219954Y-333292D01*
X217657Y-335055D01*
X215893Y-337353D01*
X214785Y-340028D01*
X214736Y-340400D01*
X223002D01*
Y-332134D01*
D02*
G37*
G36*
X-220698Y-331900D02*
X-229198D01*
Y-340400D01*
X-220698D01*
Y-331900D01*
D02*
G37*
G36*
X-234198D02*
X-242698D01*
Y-340400D01*
X-234198D01*
Y-331900D01*
D02*
G37*
G36*
X403302Y-332814D02*
X400691Y-333157D01*
X398259Y-334165D01*
X396170Y-335768D01*
X394567Y-337857D01*
X393559Y-340289D01*
X393216Y-342900D01*
X393559Y-345510D01*
X394567Y-347943D01*
X396170Y-350032D01*
X398259Y-351635D01*
X400691Y-352643D01*
X403302Y-352986D01*
X405912Y-352643D01*
X408345Y-351635D01*
X410434Y-350032D01*
X412037Y-347943D01*
X413044Y-345510D01*
X413388Y-342900D01*
X413044Y-340289D01*
X412037Y-337857D01*
X410434Y-335768D01*
X408345Y-334165D01*
X405912Y-333157D01*
X403302Y-332814D01*
D02*
G37*
G36*
X377902D02*
X375291Y-333157D01*
X372859Y-334165D01*
X370770Y-335768D01*
X369167Y-337857D01*
X368159Y-340289D01*
X367816Y-342900D01*
X368159Y-345510D01*
X369167Y-347943D01*
X370770Y-350032D01*
X372859Y-351635D01*
X375291Y-352643D01*
X377902Y-352986D01*
X380512Y-352643D01*
X382945Y-351635D01*
X385034Y-350032D01*
X386637Y-347943D01*
X387644Y-345510D01*
X387988Y-342900D01*
X387644Y-340289D01*
X386637Y-337857D01*
X385034Y-335768D01*
X382945Y-334165D01*
X380512Y-333157D01*
X377902Y-332814D01*
D02*
G37*
G36*
X352502D02*
X349891Y-333157D01*
X347459Y-334165D01*
X345370Y-335768D01*
X343767Y-337857D01*
X342759Y-340289D01*
X342416Y-342900D01*
X342759Y-345510D01*
X343767Y-347943D01*
X345370Y-350032D01*
X347459Y-351635D01*
X349891Y-352643D01*
X352502Y-352986D01*
X355112Y-352643D01*
X357545Y-351635D01*
X359634Y-350032D01*
X361237Y-347943D01*
X362244Y-345510D01*
X362588Y-342900D01*
X362244Y-340289D01*
X361237Y-337857D01*
X359634Y-335768D01*
X357545Y-334165D01*
X355112Y-333157D01*
X352502Y-332814D01*
D02*
G37*
G36*
X327102D02*
X324491Y-333157D01*
X322059Y-334165D01*
X319970Y-335768D01*
X318367Y-337857D01*
X317359Y-340289D01*
X317016Y-342900D01*
X317359Y-345510D01*
X318367Y-347943D01*
X319970Y-350032D01*
X322059Y-351635D01*
X324491Y-352643D01*
X327102Y-352986D01*
X329712Y-352643D01*
X332145Y-351635D01*
X334234Y-350032D01*
X335837Y-347943D01*
X336844Y-345510D01*
X337188Y-342900D01*
X336844Y-340289D01*
X335837Y-337857D01*
X334234Y-335768D01*
X332145Y-334165D01*
X329712Y-333157D01*
X327102Y-332814D01*
D02*
G37*
G36*
X276302D02*
X273691Y-333157D01*
X271259Y-334165D01*
X269170Y-335768D01*
X267567Y-337857D01*
X266559Y-340289D01*
X266216Y-342900D01*
X266559Y-345510D01*
X267567Y-347943D01*
X269170Y-350032D01*
X271259Y-351635D01*
X273691Y-352643D01*
X276302Y-352986D01*
X278912Y-352643D01*
X281345Y-351635D01*
X283434Y-350032D01*
X285037Y-347943D01*
X286044Y-345510D01*
X286388Y-342900D01*
X286044Y-340289D01*
X285037Y-337857D01*
X283434Y-335768D01*
X281345Y-334165D01*
X278912Y-333157D01*
X276302Y-332814D01*
D02*
G37*
G36*
X250902D02*
X248291Y-333157D01*
X245859Y-334165D01*
X243770Y-335768D01*
X242167Y-337857D01*
X241159Y-340289D01*
X240816Y-342900D01*
X241159Y-345510D01*
X242167Y-347943D01*
X243770Y-350032D01*
X245859Y-351635D01*
X248291Y-352643D01*
X250902Y-352986D01*
X253512Y-352643D01*
X255945Y-351635D01*
X258034Y-350032D01*
X259637Y-347943D01*
X260644Y-345510D01*
X260988Y-342900D01*
X260644Y-340289D01*
X259637Y-337857D01*
X258034Y-335768D01*
X255945Y-334165D01*
X253512Y-333157D01*
X250902Y-332814D01*
D02*
G37*
G36*
X200102D02*
X197491Y-333157D01*
X195059Y-334165D01*
X192970Y-335768D01*
X191367Y-337857D01*
X190359Y-340289D01*
X190016Y-342900D01*
X190359Y-345510D01*
X191367Y-347943D01*
X192970Y-350032D01*
X195059Y-351635D01*
X197491Y-352643D01*
X200102Y-352986D01*
X202712Y-352643D01*
X205145Y-351635D01*
X207234Y-350032D01*
X208837Y-347943D01*
X209844Y-345510D01*
X210188Y-342900D01*
X209844Y-340289D01*
X208837Y-337857D01*
X207234Y-335768D01*
X205145Y-334165D01*
X202712Y-333157D01*
X200102Y-332814D01*
D02*
G37*
G36*
X174702D02*
X172091Y-333157D01*
X169659Y-334165D01*
X167570Y-335768D01*
X165967Y-337857D01*
X164959Y-340289D01*
X164616Y-342900D01*
X164959Y-345510D01*
X165967Y-347943D01*
X167570Y-350032D01*
X169659Y-351635D01*
X172091Y-352643D01*
X174702Y-352986D01*
X177312Y-352643D01*
X179745Y-351635D01*
X181834Y-350032D01*
X183437Y-347943D01*
X184444Y-345510D01*
X184788Y-342900D01*
X184444Y-340289D01*
X183437Y-337857D01*
X181834Y-335768D01*
X179745Y-334165D01*
X177312Y-333157D01*
X174702Y-332814D01*
D02*
G37*
G36*
X149302D02*
X146691Y-333157D01*
X144259Y-334165D01*
X142170Y-335768D01*
X140567Y-337857D01*
X139559Y-340289D01*
X139216Y-342900D01*
X139559Y-345510D01*
X140567Y-347943D01*
X142170Y-350032D01*
X144259Y-351635D01*
X146691Y-352643D01*
X149302Y-352986D01*
X151912Y-352643D01*
X154345Y-351635D01*
X156434Y-350032D01*
X158037Y-347943D01*
X159044Y-345510D01*
X159388Y-342900D01*
X159044Y-340289D01*
X158037Y-337857D01*
X156434Y-335768D01*
X154345Y-334165D01*
X151912Y-333157D01*
X149302Y-332814D01*
D02*
G37*
G36*
X47702D02*
X45091Y-333157D01*
X42659Y-334165D01*
X40570Y-335768D01*
X38967Y-337857D01*
X37959Y-340289D01*
X37616Y-342900D01*
X37959Y-345510D01*
X38967Y-347943D01*
X40570Y-350032D01*
X42659Y-351635D01*
X45091Y-352643D01*
X47702Y-352986D01*
X50312Y-352643D01*
X52745Y-351635D01*
X54834Y-350032D01*
X56437Y-347943D01*
X57444Y-345510D01*
X57788Y-342900D01*
X57444Y-340289D01*
X56437Y-337857D01*
X54834Y-335768D01*
X52745Y-334165D01*
X50312Y-333157D01*
X47702Y-332814D01*
D02*
G37*
G36*
X22302D02*
X19691Y-333157D01*
X17259Y-334165D01*
X15170Y-335768D01*
X13567Y-337857D01*
X12559Y-340289D01*
X12216Y-342900D01*
X12559Y-345510D01*
X13567Y-347943D01*
X15170Y-350032D01*
X17259Y-351635D01*
X19691Y-352643D01*
X22302Y-352986D01*
X24912Y-352643D01*
X27345Y-351635D01*
X29434Y-350032D01*
X31037Y-347943D01*
X32044Y-345510D01*
X32388Y-342900D01*
X32044Y-340289D01*
X31037Y-337857D01*
X29434Y-335768D01*
X27345Y-334165D01*
X24912Y-333157D01*
X22302Y-332814D01*
D02*
G37*
G36*
X-3098D02*
X-5709Y-333157D01*
X-8141Y-334165D01*
X-10230Y-335768D01*
X-11833Y-337857D01*
X-12841Y-340289D01*
X-13184Y-342900D01*
X-12841Y-345510D01*
X-11833Y-347943D01*
X-10230Y-350032D01*
X-8141Y-351635D01*
X-5709Y-352643D01*
X-3098Y-352986D01*
X-488Y-352643D01*
X1945Y-351635D01*
X4034Y-350032D01*
X5637Y-347943D01*
X6644Y-345510D01*
X6988Y-342900D01*
X6644Y-340289D01*
X5637Y-337857D01*
X4034Y-335768D01*
X1945Y-334165D01*
X-488Y-333157D01*
X-3098Y-332814D01*
D02*
G37*
G36*
X-28498D02*
X-31109Y-333157D01*
X-33541Y-334165D01*
X-35630Y-335768D01*
X-37233Y-337857D01*
X-38241Y-340289D01*
X-38584Y-342900D01*
X-38241Y-345510D01*
X-37233Y-347943D01*
X-35630Y-350032D01*
X-33541Y-351635D01*
X-31109Y-352643D01*
X-28498Y-352986D01*
X-25888Y-352643D01*
X-23455Y-351635D01*
X-21366Y-350032D01*
X-19763Y-347943D01*
X-18756Y-345510D01*
X-18412Y-342900D01*
X-18756Y-340289D01*
X-19763Y-337857D01*
X-21366Y-335768D01*
X-23455Y-334165D01*
X-25888Y-333157D01*
X-28498Y-332814D01*
D02*
G37*
G36*
X-53898D02*
X-56509Y-333157D01*
X-58941Y-334165D01*
X-61030Y-335768D01*
X-62633Y-337857D01*
X-63641Y-340289D01*
X-63984Y-342900D01*
X-63641Y-345510D01*
X-62633Y-347943D01*
X-61030Y-350032D01*
X-58941Y-351635D01*
X-56509Y-352643D01*
X-53898Y-352986D01*
X-51288Y-352643D01*
X-48855Y-351635D01*
X-46766Y-350032D01*
X-45163Y-347943D01*
X-44156Y-345510D01*
X-43812Y-342900D01*
X-44156Y-340289D01*
X-45163Y-337857D01*
X-46766Y-335768D01*
X-48855Y-334165D01*
X-51288Y-333157D01*
X-53898Y-332814D01*
D02*
G37*
G36*
X-79298D02*
X-81909Y-333157D01*
X-84341Y-334165D01*
X-86430Y-335768D01*
X-88033Y-337857D01*
X-89041Y-340289D01*
X-89384Y-342900D01*
X-89041Y-345510D01*
X-88033Y-347943D01*
X-86430Y-350032D01*
X-84341Y-351635D01*
X-81909Y-352643D01*
X-79298Y-352986D01*
X-76688Y-352643D01*
X-74255Y-351635D01*
X-72166Y-350032D01*
X-70563Y-347943D01*
X-69556Y-345510D01*
X-69212Y-342900D01*
X-69556Y-340289D01*
X-70563Y-337857D01*
X-72166Y-335768D01*
X-74255Y-334165D01*
X-76688Y-333157D01*
X-79298Y-332814D01*
D02*
G37*
G36*
X-104698D02*
X-107309Y-333157D01*
X-109741Y-334165D01*
X-111830Y-335768D01*
X-113433Y-337857D01*
X-114441Y-340289D01*
X-114784Y-342900D01*
X-114441Y-345510D01*
X-113433Y-347943D01*
X-111830Y-350032D01*
X-109741Y-351635D01*
X-107309Y-352643D01*
X-104698Y-352986D01*
X-102088Y-352643D01*
X-99655Y-351635D01*
X-97566Y-350032D01*
X-95963Y-347943D01*
X-94956Y-345510D01*
X-94612Y-342900D01*
X-94956Y-340289D01*
X-95963Y-337857D01*
X-97566Y-335768D01*
X-99655Y-334165D01*
X-102088Y-333157D01*
X-104698Y-332814D01*
D02*
G37*
G36*
X-130098D02*
X-132709Y-333157D01*
X-135141Y-334165D01*
X-137230Y-335768D01*
X-138833Y-337857D01*
X-139841Y-340289D01*
X-140184Y-342900D01*
X-139841Y-345510D01*
X-138833Y-347943D01*
X-137230Y-350032D01*
X-135141Y-351635D01*
X-132709Y-352643D01*
X-130098Y-352986D01*
X-127488Y-352643D01*
X-125055Y-351635D01*
X-122966Y-350032D01*
X-121363Y-347943D01*
X-120356Y-345510D01*
X-120012Y-342900D01*
X-120356Y-340289D01*
X-121363Y-337857D01*
X-122966Y-335768D01*
X-125055Y-334165D01*
X-127488Y-333157D01*
X-130098Y-332814D01*
D02*
G37*
G36*
X-155498D02*
X-158109Y-333157D01*
X-160541Y-334165D01*
X-162630Y-335768D01*
X-164233Y-337857D01*
X-165241Y-340289D01*
X-165584Y-342900D01*
X-165241Y-345510D01*
X-164233Y-347943D01*
X-162630Y-350032D01*
X-160541Y-351635D01*
X-158109Y-352643D01*
X-155498Y-352986D01*
X-152888Y-352643D01*
X-150455Y-351635D01*
X-148366Y-350032D01*
X-146763Y-347943D01*
X-145756Y-345510D01*
X-145412Y-342900D01*
X-145756Y-340289D01*
X-146763Y-337857D01*
X-148366Y-335768D01*
X-150455Y-334165D01*
X-152888Y-333157D01*
X-155498Y-332814D01*
D02*
G37*
G36*
X-180898D02*
X-183509Y-333157D01*
X-185941Y-334165D01*
X-188030Y-335768D01*
X-189633Y-337857D01*
X-190641Y-340289D01*
X-190984Y-342900D01*
X-190641Y-345510D01*
X-189633Y-347943D01*
X-188030Y-350032D01*
X-185941Y-351635D01*
X-183509Y-352643D01*
X-180898Y-352986D01*
X-178288Y-352643D01*
X-175855Y-351635D01*
X-173766Y-350032D01*
X-172163Y-347943D01*
X-171156Y-345510D01*
X-170812Y-342900D01*
X-171156Y-340289D01*
X-172163Y-337857D01*
X-173766Y-335768D01*
X-175855Y-334165D01*
X-178288Y-333157D01*
X-180898Y-332814D01*
D02*
G37*
G36*
X-206298D02*
X-208909Y-333157D01*
X-211341Y-334165D01*
X-213430Y-335768D01*
X-215033Y-337857D01*
X-216041Y-340289D01*
X-216384Y-342900D01*
X-216041Y-345510D01*
X-215033Y-347943D01*
X-213430Y-350032D01*
X-211341Y-351635D01*
X-208909Y-352643D01*
X-206298Y-352986D01*
X-203688Y-352643D01*
X-201255Y-351635D01*
X-199166Y-350032D01*
X-197563Y-347943D01*
X-196556Y-345510D01*
X-196212Y-342900D01*
X-196556Y-340289D01*
X-197563Y-337857D01*
X-199166Y-335768D01*
X-201255Y-334165D01*
X-203688Y-333157D01*
X-206298Y-332814D01*
D02*
G37*
G36*
X312468Y-345400D02*
X304202D01*
Y-353666D01*
X304573Y-353617D01*
X307249Y-352509D01*
X309547Y-350745D01*
X311310Y-348447D01*
X312419Y-345772D01*
X312468Y-345400D01*
D02*
G37*
G36*
X299202D02*
X290936D01*
X290985Y-345772D01*
X292093Y-348447D01*
X293857Y-350745D01*
X296154Y-352509D01*
X298830Y-353617D01*
X299202Y-353666D01*
Y-345400D01*
D02*
G37*
G36*
X236268D02*
X228002D01*
Y-353666D01*
X228373Y-353617D01*
X231049Y-352509D01*
X233347Y-350745D01*
X235110Y-348447D01*
X236219Y-345772D01*
X236268Y-345400D01*
D02*
G37*
G36*
X223002D02*
X214736D01*
X214785Y-345772D01*
X215893Y-348447D01*
X217657Y-350745D01*
X219954Y-352509D01*
X222630Y-353617D01*
X223002Y-353666D01*
Y-345400D01*
D02*
G37*
G36*
X-220698D02*
X-229198D01*
Y-353900D01*
X-220698D01*
Y-345400D01*
D02*
G37*
G36*
X-234198D02*
X-242698D01*
Y-353900D01*
X-234198D01*
Y-345400D01*
D02*
G37*
G36*
X403302Y-358214D02*
X400691Y-358557D01*
X398259Y-359565D01*
X396170Y-361168D01*
X394567Y-363257D01*
X393559Y-365690D01*
X393216Y-368300D01*
X393559Y-370910D01*
X394567Y-373343D01*
X396170Y-375432D01*
X398259Y-377035D01*
X400691Y-378043D01*
X403302Y-378386D01*
X405912Y-378043D01*
X408345Y-377035D01*
X410434Y-375432D01*
X412037Y-373343D01*
X413044Y-370910D01*
X413388Y-368300D01*
X413044Y-365690D01*
X412037Y-363257D01*
X410434Y-361168D01*
X408345Y-359565D01*
X405912Y-358557D01*
X403302Y-358214D01*
D02*
G37*
G36*
X377902D02*
X375291Y-358557D01*
X372859Y-359565D01*
X370770Y-361168D01*
X369167Y-363257D01*
X368159Y-365690D01*
X367816Y-368300D01*
X368159Y-370910D01*
X369167Y-373343D01*
X370770Y-375432D01*
X372859Y-377035D01*
X375291Y-378043D01*
X377902Y-378386D01*
X380512Y-378043D01*
X382945Y-377035D01*
X385034Y-375432D01*
X386637Y-373343D01*
X387644Y-370910D01*
X387988Y-368300D01*
X387644Y-365690D01*
X386637Y-363257D01*
X385034Y-361168D01*
X382945Y-359565D01*
X380512Y-358557D01*
X377902Y-358214D01*
D02*
G37*
G36*
X352502D02*
X349891Y-358557D01*
X347459Y-359565D01*
X345370Y-361168D01*
X343767Y-363257D01*
X342759Y-365690D01*
X342416Y-368300D01*
X342759Y-370910D01*
X343767Y-373343D01*
X345370Y-375432D01*
X347459Y-377035D01*
X349891Y-378043D01*
X352502Y-378386D01*
X355112Y-378043D01*
X357545Y-377035D01*
X359634Y-375432D01*
X361237Y-373343D01*
X362244Y-370910D01*
X362588Y-368300D01*
X362244Y-365690D01*
X361237Y-363257D01*
X359634Y-361168D01*
X357545Y-359565D01*
X355112Y-358557D01*
X352502Y-358214D01*
D02*
G37*
G36*
X327102D02*
X324491Y-358557D01*
X322059Y-359565D01*
X319970Y-361168D01*
X318367Y-363257D01*
X317359Y-365690D01*
X317016Y-368300D01*
X317359Y-370910D01*
X318367Y-373343D01*
X319970Y-375432D01*
X322059Y-377035D01*
X324491Y-378043D01*
X327102Y-378386D01*
X329712Y-378043D01*
X332145Y-377035D01*
X334234Y-375432D01*
X335837Y-373343D01*
X336844Y-370910D01*
X337188Y-368300D01*
X336844Y-365690D01*
X335837Y-363257D01*
X334234Y-361168D01*
X332145Y-359565D01*
X329712Y-358557D01*
X327102Y-358214D01*
D02*
G37*
G36*
X301702D02*
X299091Y-358557D01*
X296659Y-359565D01*
X294570Y-361168D01*
X292967Y-363257D01*
X291959Y-365690D01*
X291616Y-368300D01*
X291959Y-370910D01*
X292967Y-373343D01*
X294570Y-375432D01*
X296659Y-377035D01*
X299091Y-378043D01*
X301702Y-378386D01*
X304312Y-378043D01*
X306745Y-377035D01*
X308834Y-375432D01*
X310437Y-373343D01*
X311444Y-370910D01*
X311788Y-368300D01*
X311444Y-365690D01*
X310437Y-363257D01*
X308834Y-361168D01*
X306745Y-359565D01*
X304312Y-358557D01*
X301702Y-358214D01*
D02*
G37*
G36*
X276302D02*
X273691Y-358557D01*
X271259Y-359565D01*
X269170Y-361168D01*
X267567Y-363257D01*
X266559Y-365690D01*
X266216Y-368300D01*
X266559Y-370910D01*
X267567Y-373343D01*
X269170Y-375432D01*
X271259Y-377035D01*
X273691Y-378043D01*
X276302Y-378386D01*
X278912Y-378043D01*
X281345Y-377035D01*
X283434Y-375432D01*
X285037Y-373343D01*
X286044Y-370910D01*
X286388Y-368300D01*
X286044Y-365690D01*
X285037Y-363257D01*
X283434Y-361168D01*
X281345Y-359565D01*
X278912Y-358557D01*
X276302Y-358214D01*
D02*
G37*
G36*
X250902D02*
X248291Y-358557D01*
X245859Y-359565D01*
X243770Y-361168D01*
X242167Y-363257D01*
X241159Y-365690D01*
X240816Y-368300D01*
X241159Y-370910D01*
X242167Y-373343D01*
X243770Y-375432D01*
X245859Y-377035D01*
X248291Y-378043D01*
X250902Y-378386D01*
X253512Y-378043D01*
X255945Y-377035D01*
X258034Y-375432D01*
X259637Y-373343D01*
X260644Y-370910D01*
X260988Y-368300D01*
X260644Y-365690D01*
X259637Y-363257D01*
X258034Y-361168D01*
X255945Y-359565D01*
X253512Y-358557D01*
X250902Y-358214D01*
D02*
G37*
G36*
X225502D02*
X222891Y-358557D01*
X220459Y-359565D01*
X218370Y-361168D01*
X216767Y-363257D01*
X215759Y-365690D01*
X215416Y-368300D01*
X215759Y-370910D01*
X216767Y-373343D01*
X218370Y-375432D01*
X220459Y-377035D01*
X222891Y-378043D01*
X225502Y-378386D01*
X228112Y-378043D01*
X230545Y-377035D01*
X232634Y-375432D01*
X234237Y-373343D01*
X235244Y-370910D01*
X235588Y-368300D01*
X235244Y-365690D01*
X234237Y-363257D01*
X232634Y-361168D01*
X230545Y-359565D01*
X228112Y-358557D01*
X225502Y-358214D01*
D02*
G37*
G36*
X200102D02*
X197491Y-358557D01*
X195059Y-359565D01*
X192970Y-361168D01*
X191367Y-363257D01*
X190359Y-365690D01*
X190016Y-368300D01*
X190359Y-370910D01*
X191367Y-373343D01*
X192970Y-375432D01*
X195059Y-377035D01*
X197491Y-378043D01*
X200102Y-378386D01*
X202712Y-378043D01*
X205145Y-377035D01*
X207234Y-375432D01*
X208837Y-373343D01*
X209844Y-370910D01*
X210188Y-368300D01*
X209844Y-365690D01*
X208837Y-363257D01*
X207234Y-361168D01*
X205145Y-359565D01*
X202712Y-358557D01*
X200102Y-358214D01*
D02*
G37*
G36*
X174702D02*
X172091Y-358557D01*
X169659Y-359565D01*
X167570Y-361168D01*
X165967Y-363257D01*
X164959Y-365690D01*
X164616Y-368300D01*
X164959Y-370910D01*
X165967Y-373343D01*
X167570Y-375432D01*
X169659Y-377035D01*
X172091Y-378043D01*
X174702Y-378386D01*
X177312Y-378043D01*
X179745Y-377035D01*
X181834Y-375432D01*
X183437Y-373343D01*
X184444Y-370910D01*
X184788Y-368300D01*
X184444Y-365690D01*
X183437Y-363257D01*
X181834Y-361168D01*
X179745Y-359565D01*
X177312Y-358557D01*
X174702Y-358214D01*
D02*
G37*
G36*
X149302D02*
X146691Y-358557D01*
X144259Y-359565D01*
X142170Y-361168D01*
X140567Y-363257D01*
X139559Y-365690D01*
X139216Y-368300D01*
X139559Y-370910D01*
X140567Y-373343D01*
X142170Y-375432D01*
X144259Y-377035D01*
X146691Y-378043D01*
X149302Y-378386D01*
X151912Y-378043D01*
X154345Y-377035D01*
X156434Y-375432D01*
X158037Y-373343D01*
X159044Y-370910D01*
X159388Y-368300D01*
X159044Y-365690D01*
X158037Y-363257D01*
X156434Y-361168D01*
X154345Y-359565D01*
X151912Y-358557D01*
X149302Y-358214D01*
D02*
G37*
G36*
X47702D02*
X45091Y-358557D01*
X42659Y-359565D01*
X40570Y-361168D01*
X38967Y-363257D01*
X37959Y-365690D01*
X37616Y-368300D01*
X37959Y-370910D01*
X38967Y-373343D01*
X40570Y-375432D01*
X42659Y-377035D01*
X45091Y-378043D01*
X47702Y-378386D01*
X50312Y-378043D01*
X52745Y-377035D01*
X54834Y-375432D01*
X56437Y-373343D01*
X57444Y-370910D01*
X57788Y-368300D01*
X57444Y-365690D01*
X56437Y-363257D01*
X54834Y-361168D01*
X52745Y-359565D01*
X50312Y-358557D01*
X47702Y-358214D01*
D02*
G37*
G36*
X22302D02*
X19691Y-358557D01*
X17259Y-359565D01*
X15170Y-361168D01*
X13567Y-363257D01*
X12559Y-365690D01*
X12216Y-368300D01*
X12559Y-370910D01*
X13567Y-373343D01*
X15170Y-375432D01*
X17259Y-377035D01*
X19691Y-378043D01*
X22302Y-378386D01*
X24912Y-378043D01*
X27345Y-377035D01*
X29434Y-375432D01*
X31037Y-373343D01*
X32044Y-370910D01*
X32388Y-368300D01*
X32044Y-365690D01*
X31037Y-363257D01*
X29434Y-361168D01*
X27345Y-359565D01*
X24912Y-358557D01*
X22302Y-358214D01*
D02*
G37*
G36*
X-3098D02*
X-5709Y-358557D01*
X-8141Y-359565D01*
X-10230Y-361168D01*
X-11833Y-363257D01*
X-12841Y-365690D01*
X-13184Y-368300D01*
X-12841Y-370910D01*
X-11833Y-373343D01*
X-10230Y-375432D01*
X-8141Y-377035D01*
X-5709Y-378043D01*
X-3098Y-378386D01*
X-488Y-378043D01*
X1945Y-377035D01*
X4034Y-375432D01*
X5637Y-373343D01*
X6644Y-370910D01*
X6988Y-368300D01*
X6644Y-365690D01*
X5637Y-363257D01*
X4034Y-361168D01*
X1945Y-359565D01*
X-488Y-358557D01*
X-3098Y-358214D01*
D02*
G37*
G36*
X-28498D02*
X-31109Y-358557D01*
X-33541Y-359565D01*
X-35630Y-361168D01*
X-37233Y-363257D01*
X-38241Y-365690D01*
X-38584Y-368300D01*
X-38241Y-370910D01*
X-37233Y-373343D01*
X-35630Y-375432D01*
X-33541Y-377035D01*
X-31109Y-378043D01*
X-28498Y-378386D01*
X-25888Y-378043D01*
X-23455Y-377035D01*
X-21366Y-375432D01*
X-19763Y-373343D01*
X-18756Y-370910D01*
X-18412Y-368300D01*
X-18756Y-365690D01*
X-19763Y-363257D01*
X-21366Y-361168D01*
X-23455Y-359565D01*
X-25888Y-358557D01*
X-28498Y-358214D01*
D02*
G37*
G36*
X-53898D02*
X-56509Y-358557D01*
X-58941Y-359565D01*
X-61030Y-361168D01*
X-62633Y-363257D01*
X-63641Y-365690D01*
X-63984Y-368300D01*
X-63641Y-370910D01*
X-62633Y-373343D01*
X-61030Y-375432D01*
X-58941Y-377035D01*
X-56509Y-378043D01*
X-53898Y-378386D01*
X-51288Y-378043D01*
X-48855Y-377035D01*
X-46766Y-375432D01*
X-45163Y-373343D01*
X-44156Y-370910D01*
X-43812Y-368300D01*
X-44156Y-365690D01*
X-45163Y-363257D01*
X-46766Y-361168D01*
X-48855Y-359565D01*
X-51288Y-358557D01*
X-53898Y-358214D01*
D02*
G37*
G36*
X-79298D02*
X-81909Y-358557D01*
X-84341Y-359565D01*
X-86430Y-361168D01*
X-88033Y-363257D01*
X-89041Y-365690D01*
X-89384Y-368300D01*
X-89041Y-370910D01*
X-88033Y-373343D01*
X-86430Y-375432D01*
X-84341Y-377035D01*
X-81909Y-378043D01*
X-79298Y-378386D01*
X-76688Y-378043D01*
X-74255Y-377035D01*
X-72166Y-375432D01*
X-70563Y-373343D01*
X-69556Y-370910D01*
X-69212Y-368300D01*
X-69556Y-365690D01*
X-70563Y-363257D01*
X-72166Y-361168D01*
X-74255Y-359565D01*
X-76688Y-358557D01*
X-79298Y-358214D01*
D02*
G37*
G36*
X-104698D02*
X-107309Y-358557D01*
X-109741Y-359565D01*
X-111830Y-361168D01*
X-113433Y-363257D01*
X-114441Y-365690D01*
X-114784Y-368300D01*
X-114441Y-370910D01*
X-113433Y-373343D01*
X-111830Y-375432D01*
X-109741Y-377035D01*
X-107309Y-378043D01*
X-104698Y-378386D01*
X-102088Y-378043D01*
X-99655Y-377035D01*
X-97566Y-375432D01*
X-95963Y-373343D01*
X-94956Y-370910D01*
X-94612Y-368300D01*
X-94956Y-365690D01*
X-95963Y-363257D01*
X-97566Y-361168D01*
X-99655Y-359565D01*
X-102088Y-358557D01*
X-104698Y-358214D01*
D02*
G37*
G36*
X-130098D02*
X-132709Y-358557D01*
X-135141Y-359565D01*
X-137230Y-361168D01*
X-138833Y-363257D01*
X-139841Y-365690D01*
X-140184Y-368300D01*
X-139841Y-370910D01*
X-138833Y-373343D01*
X-137230Y-375432D01*
X-135141Y-377035D01*
X-132709Y-378043D01*
X-130098Y-378386D01*
X-127488Y-378043D01*
X-125055Y-377035D01*
X-122966Y-375432D01*
X-121363Y-373343D01*
X-120356Y-370910D01*
X-120012Y-368300D01*
X-120356Y-365690D01*
X-121363Y-363257D01*
X-122966Y-361168D01*
X-125055Y-359565D01*
X-127488Y-358557D01*
X-130098Y-358214D01*
D02*
G37*
G36*
X-155498D02*
X-158109Y-358557D01*
X-160541Y-359565D01*
X-162630Y-361168D01*
X-164233Y-363257D01*
X-165241Y-365690D01*
X-165584Y-368300D01*
X-165241Y-370910D01*
X-164233Y-373343D01*
X-162630Y-375432D01*
X-160541Y-377035D01*
X-158109Y-378043D01*
X-155498Y-378386D01*
X-152888Y-378043D01*
X-150455Y-377035D01*
X-148366Y-375432D01*
X-146763Y-373343D01*
X-145756Y-370910D01*
X-145412Y-368300D01*
X-145756Y-365690D01*
X-146763Y-363257D01*
X-148366Y-361168D01*
X-150455Y-359565D01*
X-152888Y-358557D01*
X-155498Y-358214D01*
D02*
G37*
G36*
X-180898D02*
X-183509Y-358557D01*
X-185941Y-359565D01*
X-188030Y-361168D01*
X-189633Y-363257D01*
X-190641Y-365690D01*
X-190984Y-368300D01*
X-190641Y-370910D01*
X-189633Y-373343D01*
X-188030Y-375432D01*
X-185941Y-377035D01*
X-183509Y-378043D01*
X-180898Y-378386D01*
X-178288Y-378043D01*
X-175855Y-377035D01*
X-173766Y-375432D01*
X-172163Y-373343D01*
X-171156Y-370910D01*
X-170812Y-368300D01*
X-171156Y-365690D01*
X-172163Y-363257D01*
X-173766Y-361168D01*
X-175855Y-359565D01*
X-178288Y-358557D01*
X-180898Y-358214D01*
D02*
G37*
G36*
X-206298D02*
X-208909Y-358557D01*
X-211341Y-359565D01*
X-213430Y-361168D01*
X-215033Y-363257D01*
X-216041Y-365690D01*
X-216384Y-368300D01*
X-216041Y-370910D01*
X-215033Y-373343D01*
X-213430Y-375432D01*
X-211341Y-377035D01*
X-208909Y-378043D01*
X-206298Y-378386D01*
X-203688Y-378043D01*
X-201255Y-377035D01*
X-199166Y-375432D01*
X-197563Y-373343D01*
X-196556Y-370910D01*
X-196212Y-368300D01*
X-196556Y-365690D01*
X-197563Y-363257D01*
X-199166Y-361168D01*
X-201255Y-359565D01*
X-203688Y-358557D01*
X-206298Y-358214D01*
D02*
G37*
G36*
X-231698D02*
X-234309Y-358557D01*
X-236741Y-359565D01*
X-238830Y-361168D01*
X-240433Y-363257D01*
X-241441Y-365690D01*
X-241784Y-368300D01*
X-241441Y-370910D01*
X-240433Y-373343D01*
X-238830Y-375432D01*
X-236741Y-377035D01*
X-234309Y-378043D01*
X-231698Y-378386D01*
X-229088Y-378043D01*
X-226655Y-377035D01*
X-224566Y-375432D01*
X-222963Y-373343D01*
X-221956Y-370910D01*
X-221612Y-368300D01*
X-221956Y-365690D01*
X-222963Y-363257D01*
X-224566Y-361168D01*
X-226655Y-359565D01*
X-229088Y-358557D01*
X-231698Y-358214D01*
D02*
G37*
%LPD*%
G36*
X-341919Y271996D02*
X-342034Y271845D01*
X-343042Y269412D01*
X-343386Y266802D01*
X-343042Y264191D01*
X-342034Y261758D01*
X-341919Y261607D01*
X-342480Y260469D01*
X-366250D01*
X-366250Y260469D01*
X-368273Y260202D01*
X-370158Y259421D01*
X-371777Y258179D01*
X-380527Y249429D01*
X-381770Y247810D01*
X-382551Y245925D01*
X-382817Y243902D01*
Y153784D01*
X-384087Y153531D01*
X-384679Y154960D01*
X-385921Y156579D01*
X-387540Y157821D01*
X-389425Y158602D01*
X-391448Y158869D01*
X-393471Y158602D01*
X-395357Y157821D01*
X-396976Y156579D01*
X-400260Y153295D01*
X-401433Y153781D01*
Y241262D01*
X-369560Y273135D01*
X-342480D01*
X-341919Y271996D01*
D02*
G37*
G36*
X-317503Y117347D02*
X-317642Y117012D01*
X-317986Y114402D01*
X-317642Y111791D01*
X-317024Y110300D01*
X-317551Y108838D01*
X-319170Y107596D01*
X-325426Y101339D01*
X-326669Y99720D01*
X-326776Y99462D01*
X-326958Y99303D01*
X-328393Y98876D01*
X-330428Y99719D01*
X-330799Y99767D01*
Y89002D01*
X-335799D01*
Y99767D01*
X-336171Y99719D01*
X-338847Y98610D01*
X-341145Y96847D01*
X-342219Y95447D01*
X-343489Y95878D01*
Y109552D01*
X-342219Y109804D01*
X-342034Y109359D01*
X-340432Y107270D01*
X-338343Y105667D01*
X-335910Y104659D01*
X-333299Y104315D01*
X-330689Y104659D01*
X-328256Y105667D01*
X-326167Y107270D01*
X-324565Y109359D01*
X-323557Y111791D01*
X-323360Y113286D01*
X-318580Y118066D01*
X-317503Y117347D01*
D02*
G37*
G36*
X-382817Y148320D02*
Y84367D01*
X-383976Y83543D01*
X-384683Y83863D01*
Y102069D01*
X-384949Y104092D01*
X-385730Y105977D01*
X-386973Y107596D01*
X-388592Y108838D01*
X-390477Y109619D01*
X-391433Y109745D01*
Y117512D01*
X-386973Y121972D01*
X-385730Y123591D01*
X-384949Y125477D01*
X-384683Y127500D01*
X-384949Y129523D01*
X-385730Y131408D01*
X-386973Y133027D01*
X-388592Y134269D01*
X-390477Y135050D01*
X-392500Y135317D01*
X-394523Y135050D01*
X-394652Y134997D01*
X-395372Y136073D01*
X-385921Y145524D01*
X-384679Y147143D01*
X-384087Y148572D01*
X-382817Y148320D01*
D02*
G37*
G36*
X335199Y85629D02*
X334950Y85026D01*
X334683Y83003D01*
X334950Y80980D01*
X335731Y79095D01*
X335837Y78956D01*
X335275Y77817D01*
X332500D01*
X330477Y77551D01*
X328592Y76770D01*
X326973Y75527D01*
X325730Y73909D01*
X324949Y72023D01*
X324683Y70000D01*
X324949Y67977D01*
X325730Y66092D01*
X326973Y64473D01*
X328592Y63230D01*
X330477Y62449D01*
X332500Y62183D01*
X359725D01*
X359949Y60477D01*
X360730Y58592D01*
X361892Y57077D01*
X361782Y56513D01*
X361490Y55807D01*
X360247D01*
X358027Y58027D01*
X356409Y59270D01*
X354523Y60051D01*
X352500Y60317D01*
X350477Y60051D01*
X348592Y59270D01*
X346973Y58027D01*
X345730Y56408D01*
X344949Y54523D01*
X344683Y52500D01*
X344949Y50477D01*
X345730Y48591D01*
X346973Y46973D01*
X351482Y42463D01*
X353101Y41221D01*
X354986Y40440D01*
X357010Y40174D01*
X370926D01*
X371711Y39168D01*
X371702Y38904D01*
X371312Y35946D01*
X371707Y32944D01*
X372866Y30147D01*
X374710Y27745D01*
X377112Y25901D01*
X379909Y24742D01*
X382911Y24347D01*
X438127D01*
Y-288372D01*
X304249D01*
Y-284697D01*
Y-224504D01*
X304954Y-223799D01*
X357650D01*
X360652Y-223404D01*
X363450Y-222245D01*
X365852Y-220402D01*
X367695Y-217999D01*
X368854Y-215202D01*
X369249Y-212200D01*
X368854Y-209198D01*
X367695Y-206400D01*
X365852Y-203998D01*
X365467Y-203702D01*
Y-195000D01*
X365201Y-192977D01*
X364420Y-191092D01*
X363177Y-189473D01*
X361558Y-188230D01*
X359673Y-187449D01*
X357650Y-187183D01*
X355627Y-187449D01*
X353741Y-188230D01*
X352123Y-189473D01*
X350880Y-191092D01*
X350099Y-192977D01*
X349833Y-195000D01*
Y-200600D01*
X326467D01*
Y-195000D01*
X326200Y-192977D01*
X325420Y-191091D01*
X324177Y-189473D01*
X322558Y-188230D01*
X320673Y-187449D01*
X318650Y-187183D01*
X316627Y-187449D01*
X314741Y-188230D01*
X313123Y-189473D01*
X312785Y-189913D01*
X311515D01*
X311177Y-189473D01*
X309558Y-188230D01*
X307673Y-187449D01*
X305650Y-187183D01*
X303627Y-187449D01*
X301742Y-188230D01*
X300123Y-189473D01*
X298880Y-191092D01*
X298099Y-192977D01*
X297833Y-195000D01*
Y-200905D01*
X297148Y-200996D01*
X294350Y-202154D01*
X291948Y-203998D01*
X291948Y-203998D01*
X284448Y-211498D01*
X282605Y-213900D01*
X281446Y-216698D01*
X281051Y-219700D01*
X281051Y-219700D01*
Y-284697D01*
Y-288372D01*
X274476D01*
X274476Y-288371D01*
X271474Y-288767D01*
X268676Y-289925D01*
X266274Y-291769D01*
X266274Y-291769D01*
X257945Y-300097D01*
X254685D01*
X254123Y-298958D01*
X254628Y-298300D01*
X255787Y-295502D01*
X256182Y-292500D01*
Y-278096D01*
X257452Y-277469D01*
X257890Y-277805D01*
X259775Y-278586D01*
X261047Y-278754D01*
X262183Y-279857D01*
X262449Y-281880D01*
X263230Y-283765D01*
X264473Y-285384D01*
X266091Y-286626D01*
X267977Y-287407D01*
X270000Y-287674D01*
X272023Y-287407D01*
X273908Y-286626D01*
X275527Y-285384D01*
X276197Y-284714D01*
X277439Y-283095D01*
X278220Y-281210D01*
X278486Y-279187D01*
Y-278820D01*
X278550Y-278665D01*
X278817Y-276642D01*
Y-151363D01*
X279772Y-150526D01*
X280000Y-150556D01*
X420000D01*
X421697Y-150333D01*
X423278Y-149678D01*
X424636Y-148636D01*
X425678Y-147278D01*
X426333Y-145697D01*
X426556Y-144000D01*
Y-19865D01*
X426333Y-18169D01*
X425678Y-16587D01*
X424636Y-15230D01*
X423278Y-14188D01*
X421697Y-13533D01*
X420000Y-13309D01*
X280000D01*
X279772Y-13339D01*
X278817Y-12502D01*
Y84833D01*
X280669Y86685D01*
X334494D01*
X335199Y85629D01*
D02*
G37*
G36*
X-343239Y62486D02*
X-343042Y60991D01*
X-342034Y58559D01*
X-340432Y56470D01*
X-338343Y54867D01*
X-335910Y53859D01*
X-333299Y53515D01*
X-330689Y53859D01*
X-330354Y53998D01*
X-329635Y52921D01*
X-334415Y48141D01*
X-335910Y47944D01*
X-338343Y46937D01*
X-340432Y45334D01*
X-341760Y43603D01*
X-343238Y43285D01*
X-350239Y50286D01*
Y67827D01*
X-349066Y68313D01*
X-343239Y62486D01*
D02*
G37*
G36*
X-345929Y-30125D02*
X-344311Y-31367D01*
X-343830Y-31567D01*
X-343633Y-31755D01*
X-343020Y-32721D01*
X-344016Y-35127D01*
X-344394Y-37998D01*
X-344174Y-39673D01*
X-345377Y-40266D01*
X-377183Y-8460D01*
Y-531D01*
X-376010Y-45D01*
X-345929Y-30125D01*
D02*
G37*
G36*
X-343239Y-115314D02*
X-343042Y-116809D01*
X-342903Y-117144D01*
X-343980Y-117863D01*
X-396433Y-65410D01*
Y-63779D01*
X-395260Y-63293D01*
X-343239Y-115314D01*
D02*
G37*
G36*
Y-191514D02*
X-343042Y-193009D01*
X-342786Y-193627D01*
X-343492Y-194683D01*
X-347160D01*
X-406433Y-135410D01*
Y-129979D01*
X-405260Y-129493D01*
X-343239Y-191514D01*
D02*
G37*
D10*
X822500Y155000D02*
Y245000D01*
X822498Y139000D02*
Y154998D01*
Y130000D02*
Y139000D01*
Y-139000D02*
Y-119998D01*
X822500Y-245000D02*
Y-155000D01*
X-582500Y155000D02*
Y245000D01*
X-582498Y139000D02*
Y154998D01*
Y130000D02*
Y139000D01*
Y-139000D02*
Y-119998D01*
X-582500Y-245000D02*
Y-155000D01*
X-375000Y243902D02*
X-366250Y252652D01*
X-375000Y10000D02*
X-340402Y-24598D01*
X-375000Y10000D02*
Y243902D01*
X-281649Y124742D02*
Y145392D01*
X-304322Y102069D02*
X-281649Y124742D01*
X-276649Y119789D02*
Y141717D01*
X-271649Y117072D02*
Y138952D01*
X-264000Y117651D02*
Y130000D01*
X-269301Y104878D02*
X-256000Y118180D01*
X-274301Y107350D02*
X-264000Y117651D01*
X-256000Y118180D02*
Y143000D01*
X-247760Y147777D02*
X-238037Y157500D01*
X-247760Y119348D02*
Y147777D01*
X757500Y-322500D02*
Y95000D01*
X765000Y-330000D02*
Y-135000D01*
X513500Y77500D02*
X516000Y80000D01*
X529190D02*
X561200Y47990D01*
X516000Y80000D02*
X529190D01*
X445161Y77500D02*
X513500D01*
X365000Y124000D02*
X374000Y115000D01*
X434965D01*
X365000Y124000D02*
Y320000D01*
X371000Y107758D02*
X432661D01*
X358000Y120758D02*
Y312000D01*
Y120758D02*
X371000Y107758D01*
X434965Y115000D02*
X442207Y107758D01*
X432661Y107758D02*
X432661Y107758D01*
X274502Y99502D02*
X449406D01*
X457661Y107758D01*
X261798Y-271035D02*
X266000Y-266834D01*
Y91000D02*
X274502Y99502D01*
X266000Y-266834D02*
Y91000D01*
X271000Y88071D02*
X277431Y94502D01*
X270000Y-279857D02*
X270670Y-279187D01*
Y-276973D01*
X271000Y-276642D02*
Y88071D01*
X270670Y-276973D02*
X271000Y-276642D01*
X277431Y94502D02*
X456906D01*
X442207Y107758D02*
X442661D01*
X-273358Y-204494D02*
Y-154000D01*
Y-204494D02*
X-273303Y-204548D01*
X377010Y52990D02*
X398402D01*
X407500Y62088D01*
X470161D01*
X402990Y47990D02*
X407500Y52500D01*
X357010Y47990D02*
X402990D01*
X407500Y52500D02*
X457500D01*
X342500Y83003D02*
X394497D01*
X400000Y77500D02*
X445161D01*
X394497Y83003D02*
X400000Y77500D01*
X432661Y70000D02*
X509589D01*
X403637D02*
X432661D01*
X377911Y62088D02*
X395726D01*
X403637Y70000D01*
X332500D02*
X370000D01*
X377911Y62088D01*
X536690Y62500D02*
X551200Y47990D01*
X517089Y62500D02*
X536690D01*
X509589Y70000D02*
X517089Y62500D01*
X470161Y62088D02*
X510000D01*
X367500Y62500D02*
X377010Y52990D01*
X457500Y52500D02*
X528919D01*
X533428Y47990D01*
Y41240D02*
Y47990D01*
X514589Y57500D02*
X531690D01*
X541200Y47990D01*
X510000Y62088D02*
X514589Y57500D01*
X352500Y52500D02*
X357010Y47990D01*
X533428Y41240D02*
X533428D01*
X546200Y28469D01*
Y20000D02*
Y28469D01*
X-419250Y252000D02*
X-338750Y332500D01*
X-297525D02*
X-289150Y324125D01*
X-338750Y332500D02*
X-297525D01*
X-429250Y-172392D02*
Y263250D01*
X-387500Y305000D01*
X-356250D02*
X-297500D01*
X-414250Y247000D02*
X-356250Y305000D01*
X-297500D02*
X-285000Y292500D01*
X-357500Y320821D02*
Y332500D01*
X-424250Y-166852D02*
Y254071D01*
X-357500Y320821D01*
X-372798Y280952D02*
X-281051D01*
X-409250Y244500D02*
X-372798Y280952D01*
X-409250Y-114448D02*
Y244500D01*
X-419250Y-152542D02*
Y252000D01*
X-414250Y-138648D02*
Y247000D01*
X-409250Y-114448D02*
X-333299Y-190398D01*
X-424250Y-166852D02*
X-349903Y-241198D01*
X-414250Y-138648D02*
X-350398Y-202500D01*
X-419250Y-152542D02*
X-344744Y-227048D01*
X-429250Y-172392D02*
X-349142Y-252500D01*
X-399250Y-48248D02*
Y120750D01*
X-392500Y127500D02*
Y127500D01*
X-399250Y120750D02*
X-392500Y127500D01*
X-404250Y-68648D02*
X-333299Y-139598D01*
X-404250Y-68648D02*
Y138250D01*
X-391448Y151052D01*
X-399250Y-48248D02*
X-333299Y-114198D01*
X-392500Y-29598D02*
Y102069D01*
Y-29598D02*
X-333299Y-88798D01*
X-385000Y-11698D02*
Y75000D01*
Y-11698D02*
X-333299Y-63398D01*
X-340402Y-24598D02*
X-319899D01*
X-366250Y252652D02*
X-280000D01*
X-369806Y23908D02*
Y207367D01*
Y23908D02*
X-333299Y-12598D01*
X-364806Y205296D02*
X-358056Y212046D01*
X-364806Y44308D02*
Y205296D01*
Y212367D02*
Y242500D01*
X-369806Y207367D02*
X-364806Y212367D01*
X-337357Y26349D02*
X-319752D01*
X-358056Y47048D02*
X-337357Y26349D01*
X-364806Y44308D02*
X-333299Y12802D01*
X-358056Y212046D02*
Y227541D01*
Y47048D02*
Y202500D01*
X-351306Y81608D02*
Y177500D01*
Y81608D02*
X-333299Y63602D01*
X-321401Y202500D02*
X-285681D01*
X-268182Y220000D02*
X-268181D01*
X-285681Y202500D02*
X-268182Y220000D01*
X-288034Y190602D02*
X-265386Y213250D01*
X-307899Y190602D02*
X-288034D01*
X-265386Y213250D02*
X-265386D01*
X-321001Y177500D02*
X-294065D01*
X-263315Y208250D02*
X-263315D01*
X-294065Y177500D02*
X-263315Y208250D01*
X-263315D02*
X-252500Y219065D01*
X-261243Y203250D02*
X-261243D01*
X-307899Y165202D02*
X-306748Y166353D01*
X-298141D01*
X-261243Y203250D01*
X-261243D02*
X-245000Y219494D01*
X-238037Y217288D02*
Y250000D01*
X-319149Y153952D02*
X-301374D01*
X-238037Y217288D01*
X-307899Y140355D02*
X-231287Y216967D01*
Y257086D01*
X-307899Y139802D02*
Y140355D01*
X-291649Y149534D02*
X-243888Y197296D01*
X-224951Y209701D02*
Y263201D01*
X-243888Y197296D02*
X-237357D01*
X-291649Y140142D02*
Y149534D01*
X-237357Y197296D02*
X-224951Y209701D01*
X-286649Y135652D02*
Y147463D01*
X-241817Y192296D02*
X-235286D01*
X-286649Y147463D02*
X-241817Y192296D01*
X-281649Y145392D02*
X-241967Y185075D01*
X-236758D01*
X-236287Y185546D01*
X-242821Y175546D02*
X-235286D01*
X-259066Y159300D02*
X-242821Y175546D01*
X-245400Y165202D02*
X-234475D01*
X-217500Y182177D02*
Y197500D01*
X-234475Y165202D02*
X-217500Y182177D01*
X-235286Y192296D02*
X-215000Y212582D01*
Y270000D01*
X-276649Y141717D02*
X-259067Y159300D01*
X-259066D01*
X-261432Y217204D02*
Y226544D01*
X-265386Y213250D02*
X-261432Y217204D01*
X-252500Y219065D02*
Y234652D01*
X-261672Y226786D02*
X-261432Y226544D01*
X-245000Y219494D02*
Y242500D01*
X-231701Y257500D02*
X-231287Y257086D01*
X-271649Y138952D02*
X-245400Y165202D01*
X-287971Y66933D02*
X-281051Y73853D01*
Y92596D01*
X-269301Y71461D02*
Y104878D01*
X-274301Y73532D02*
Y107350D01*
X-287971Y100751D02*
X-271649Y117072D01*
X-281750Y-113449D02*
X-271649Y-103348D01*
Y62041D01*
X-264301Y69390D02*
Y102807D01*
X-247760Y119348D01*
X-271649Y62041D02*
X-264301Y69390D01*
X-286750Y-93049D02*
X-276649Y-82948D01*
Y64112D01*
X-269301Y71461D01*
X-282971Y-63870D02*
Y64862D01*
X-307899Y-88798D02*
X-282971Y-63870D01*
Y64862D02*
X-274301Y73532D01*
X-307899Y-63398D02*
X-287971Y-43470D01*
Y66933D01*
X-282432Y114007D02*
X-276649Y119789D01*
X-282432Y113858D02*
Y114007D01*
X-287971Y74004D02*
Y100751D01*
X-292971Y78530D02*
Y103319D01*
X-282432Y113858D01*
X-292971Y69004D02*
X-287971Y74004D01*
X-225000Y263250D02*
X-224951Y263201D01*
X-292971Y27730D02*
Y69004D01*
X-303240Y128552D02*
X-291649Y140142D01*
X-307899Y114402D02*
X-286649Y135652D01*
X-313642Y102069D02*
X-304322D01*
X-307899Y63602D02*
X-292971Y78530D01*
X-307899Y12802D02*
X-292971Y27730D01*
X-319899Y95812D02*
X-313642Y102069D01*
X-333299Y38202D02*
X-319899Y51602D01*
Y95812D01*
X-333299Y114402D02*
X-319149Y128552D01*
X-303240D01*
X-333299Y139802D02*
X-319149Y153952D01*
X-281051Y280952D02*
X-273551Y288452D01*
X-273551D01*
X-319899Y-24598D02*
X-307899Y-12598D01*
X-319752Y26349D02*
X-307899Y38202D01*
X-537997Y-130000D02*
X-530000D01*
X-525000Y-330000D02*
Y-135000D01*
X-530000Y-130000D02*
X-525000Y-135000D01*
X-517500Y-322500D02*
Y95000D01*
X-537500Y115000D02*
Y130000D01*
Y115000D02*
X-517500Y95000D01*
X757500D02*
X777500Y115000D01*
Y130000D01*
X770000Y-130000D02*
X777997D01*
X765000Y-135000D02*
X770000Y-130000D01*
X-582498Y-154998D02*
Y-139000D01*
X822498Y-154998D02*
Y-139000D01*
X777502Y155000D02*
Y245000D01*
X791500Y130000D02*
X808502D01*
X791500Y130000D02*
Y150000D01*
X786500Y155000D02*
X791500Y150000D01*
X777502Y155000D02*
X786500D01*
X778002Y-245000D02*
Y-155000D01*
X792000Y-130000D02*
X809002D01*
X792000Y-150000D02*
Y-130000D01*
X787000Y-155000D02*
X792000Y-150000D01*
X778002Y-155000D02*
X787000D01*
X-537502Y155000D02*
Y245000D01*
X-568502Y130000D02*
X-551500D01*
X-551500Y130000D02*
Y150000D01*
X-546500Y155000D01*
X-537502D01*
X-546498Y-155000D02*
X-537500D01*
X-551498Y-150000D02*
X-546498Y-155000D01*
X-551498Y-150000D02*
Y-130000D01*
X-568500Y-130000D02*
X-551498D01*
X-551498Y-130000D01*
X-537500Y-245000D02*
Y-155000D01*
X-582500Y155000D02*
X-582498Y154998D01*
Y119998D02*
Y130000D01*
X-582500Y245000D02*
Y262000D01*
Y-155000D02*
X-582498Y-154998D01*
X-582500Y-262000D02*
Y-245000D01*
X822498Y-154998D02*
X822500Y-155000D01*
Y-262000D02*
Y-245000D01*
Y245000D02*
Y262000D01*
X822498Y119998D02*
Y130000D01*
Y154998D02*
X822500Y155000D01*
X305650Y-212200D02*
Y-195000D01*
X318650Y-212200D02*
Y-195000D01*
X357650Y-212200D02*
Y-195000D01*
X112500Y-356898D02*
Y-322898D01*
X87252Y-357050D02*
Y-322898D01*
X112500Y-356898D02*
X123902Y-368300D01*
X87252Y-357050D02*
X98502Y-368300D01*
X86803Y320000D02*
Y356605D01*
X149299Y320000D02*
Y342900D01*
X86803Y356605D02*
X98499Y368300D01*
X-333299Y165202D02*
X-321001Y177500D01*
X-320001Y-202500D02*
X-307899Y-190398D01*
X-350398Y-202500D02*
X-320001D01*
X-285000Y292500D02*
X-285000D01*
X456906Y94502D02*
X470161Y107758D01*
X-281750Y-113449D02*
Y-113449D01*
X-307899Y-139598D02*
X-281750Y-113449D01*
X-286750Y-93049D02*
Y-93049D01*
X-307899Y-114198D02*
X-286750Y-93049D01*
X-349903Y-241198D02*
X-333299D01*
X-344744Y-227048D02*
X-319149D01*
X-349142Y-252500D02*
X-319201D01*
X-307899Y-241198D01*
X-319149Y-227048D02*
X-307899Y-215798D01*
X-333299Y190602D02*
X-321401Y202500D01*
D11*
X74250Y-154000D02*
Y102086D01*
X95667Y123503D01*
Y136503D01*
D14*
X-537500Y245000D02*
D03*
Y155000D02*
D03*
X-582500Y245000D02*
D03*
Y155000D02*
D03*
X-537500Y-155000D02*
D03*
Y-245000D02*
D03*
X-582500Y-155000D02*
D03*
Y-245000D02*
D03*
X777500Y155000D02*
D03*
Y245000D02*
D03*
X822500Y155000D02*
D03*
Y245000D02*
D03*
X777500Y-245000D02*
D03*
Y-155000D02*
D03*
X822500Y-245000D02*
D03*
Y-155000D02*
D03*
D15*
X-537500Y130000D02*
D03*
X-551500D02*
D03*
X-537498Y-130000D02*
D03*
X-551498D02*
D03*
X777500Y130000D02*
D03*
X791500D02*
D03*
X777997Y-130000D02*
D03*
X791997D02*
D03*
X-568498Y130000D02*
D03*
X-582498D02*
D03*
X-568500Y-130000D02*
D03*
X-582500D02*
D03*
X808498Y130000D02*
D03*
X822498D02*
D03*
X808500Y-130000D02*
D03*
X822500D02*
D03*
D24*
X55000Y-310000D02*
Y45171D01*
X182677Y125815D02*
X220188D01*
X170000D02*
X182677D01*
X157500D02*
X170000D01*
X145167D02*
X157500D01*
X220188D02*
X244583Y101420D01*
Y-280000D02*
Y101420D01*
X495000Y35946D02*
X514998D01*
X485000D02*
X495000D01*
X475000D02*
X485000D01*
X450000D02*
X475000D01*
X382911D02*
X450000D01*
X292650Y-284697D02*
Y-219700D01*
Y-299971D02*
Y-284697D01*
X274476Y-299971D02*
X292650D01*
X262750Y-311696D02*
X274476Y-299971D01*
X-256696Y-311696D02*
X262750D01*
X292650Y-299971D02*
X443868D01*
X449726Y35672D02*
X450000Y35946D01*
X443868Y-299971D02*
X449726Y-294113D01*
Y35672D01*
X-187262Y57460D02*
Y90793D01*
X-205082Y96651D02*
X-193119D01*
X-187262Y90793D01*
X-181404Y51602D02*
X48569D01*
X-187262Y57460D02*
X-181404Y51602D01*
X48569D02*
X55000Y45171D01*
X305650Y-212200D02*
X318650D01*
X300150D02*
X305650D01*
X318650D02*
X357650D01*
X292650Y-219700D02*
X300150Y-212200D01*
X-327100Y-342900D02*
X-273358D01*
X-267500Y-337042D02*
Y-322500D01*
X-273358Y-342900D02*
X-267500Y-337042D01*
Y-322500D02*
X-256696Y-311696D01*
X-333299Y-336701D02*
X-327100Y-342900D01*
X-333299Y-336701D02*
Y-317398D01*
X133917Y125815D02*
X145167D01*
X120167D02*
X133917D01*
X244583Y-292500D02*
Y-280000D01*
X234583Y-292500D02*
X244583D01*
X224583D02*
X234583D01*
D25*
X570000Y388000D02*
D03*
Y-388000D02*
D03*
X808000Y388000D02*
D03*
Y-388000D02*
D03*
X-568000D02*
D03*
Y388000D02*
D03*
D26*
X-333299Y317602D02*
D03*
Y292202D02*
D03*
Y266802D02*
D03*
Y241402D02*
D03*
Y216002D02*
D03*
Y190602D02*
D03*
Y165202D02*
D03*
Y139802D02*
D03*
Y114402D02*
D03*
Y89002D02*
D03*
Y63602D02*
D03*
Y38202D02*
D03*
Y12802D02*
D03*
Y-12598D02*
D03*
Y-37998D02*
D03*
Y-63398D02*
D03*
Y-88798D02*
D03*
Y-114198D02*
D03*
X-307899Y317602D02*
D03*
Y292202D02*
D03*
Y266802D02*
D03*
Y241402D02*
D03*
Y216002D02*
D03*
Y190602D02*
D03*
Y165202D02*
D03*
Y139802D02*
D03*
Y114402D02*
D03*
Y89002D02*
D03*
Y63602D02*
D03*
Y38202D02*
D03*
Y12802D02*
D03*
Y-12598D02*
D03*
Y-37998D02*
D03*
Y-63398D02*
D03*
Y-88798D02*
D03*
Y-114198D02*
D03*
Y-317398D02*
D03*
X-333299Y-291998D02*
D03*
X-307899D02*
D03*
X-333299Y-266598D02*
D03*
X-307899D02*
D03*
X-333299Y-241198D02*
D03*
X-307899D02*
D03*
X-333299Y-215798D02*
D03*
X-307899D02*
D03*
X-333299Y-190398D02*
D03*
X-307899D02*
D03*
X-333299Y-164998D02*
D03*
X-307899D02*
D03*
Y-139598D02*
D03*
X-333299D02*
D03*
X403302Y-342900D02*
D03*
X377902D02*
D03*
X352502D02*
D03*
X327102D02*
D03*
X301702D02*
D03*
X276302D02*
D03*
X250902D02*
D03*
X225502D02*
D03*
X200102D02*
D03*
X174702D02*
D03*
X149302D02*
D03*
X123902D02*
D03*
X98502D02*
D03*
X73102D02*
D03*
X47702D02*
D03*
X22302D02*
D03*
X-3098D02*
D03*
X-28498D02*
D03*
X403302Y-368300D02*
D03*
X377902D02*
D03*
X352502D02*
D03*
X327102D02*
D03*
X301702D02*
D03*
X276302D02*
D03*
X250902D02*
D03*
X225502D02*
D03*
X200102D02*
D03*
X174702D02*
D03*
X149302D02*
D03*
X123902D02*
D03*
X98502D02*
D03*
X73102D02*
D03*
X47702D02*
D03*
X22302D02*
D03*
X-3098D02*
D03*
X-28498D02*
D03*
X-231698D02*
D03*
X-206298Y-342900D02*
D03*
Y-368300D02*
D03*
X-180898Y-342900D02*
D03*
Y-368300D02*
D03*
X-155498Y-342900D02*
D03*
Y-368300D02*
D03*
X-130098Y-342900D02*
D03*
Y-368300D02*
D03*
X-104698Y-342900D02*
D03*
Y-368300D02*
D03*
X-79298Y-342900D02*
D03*
Y-368300D02*
D03*
X-53898D02*
D03*
Y-342900D02*
D03*
X403299Y368300D02*
D03*
X377899D02*
D03*
X352499D02*
D03*
X327099D02*
D03*
X301699D02*
D03*
X276299D02*
D03*
X250899D02*
D03*
X225499D02*
D03*
X200099D02*
D03*
X174699D02*
D03*
X149299D02*
D03*
X123899D02*
D03*
X98499D02*
D03*
X73099D02*
D03*
X47699D02*
D03*
X22299D02*
D03*
X-3101D02*
D03*
X-28501D02*
D03*
X403299Y342900D02*
D03*
X377899D02*
D03*
X352499D02*
D03*
X327099D02*
D03*
X301699D02*
D03*
X276299D02*
D03*
X250899D02*
D03*
X225499D02*
D03*
X200099D02*
D03*
X174699D02*
D03*
X149299D02*
D03*
X123899D02*
D03*
X98499D02*
D03*
X73099D02*
D03*
X47699D02*
D03*
X22299D02*
D03*
X-3101D02*
D03*
X-28501D02*
D03*
X-231701D02*
D03*
X-206301Y368300D02*
D03*
Y342900D02*
D03*
X-180901Y368300D02*
D03*
Y342900D02*
D03*
X-155501Y368300D02*
D03*
Y342900D02*
D03*
X-130101Y368300D02*
D03*
Y342900D02*
D03*
X-104701Y368300D02*
D03*
Y342900D02*
D03*
X-79301Y368300D02*
D03*
Y342900D02*
D03*
X-53901D02*
D03*
Y368300D02*
D03*
D27*
X-333299Y-317398D02*
D03*
D28*
X-231698Y-342900D02*
D03*
X-231701Y368300D02*
D03*
D29*
X767000Y318000D02*
D03*
Y218000D02*
D03*
Y-382000D02*
D03*
X667000Y318000D02*
D03*
Y218000D02*
D03*
Y118000D02*
D03*
Y18000D02*
D03*
Y-82000D02*
D03*
Y-182000D02*
D03*
Y-282000D02*
D03*
Y-382000D02*
D03*
X567000Y318000D02*
D03*
Y218000D02*
D03*
Y118000D02*
D03*
Y18000D02*
D03*
Y-182000D02*
D03*
Y-282000D02*
D03*
X467000Y318000D02*
D03*
Y218000D02*
D03*
Y18000D02*
D03*
Y-82000D02*
D03*
Y-182000D02*
D03*
Y-282000D02*
D03*
Y-382000D02*
D03*
X367000Y-182000D02*
D03*
Y-282000D02*
D03*
Y-382000D02*
D03*
X267000Y218000D02*
D03*
Y118000D02*
D03*
Y-382000D02*
D03*
X167000Y218000D02*
D03*
Y-82000D02*
D03*
Y-182000D02*
D03*
Y-382000D02*
D03*
X67000Y318000D02*
D03*
Y218000D02*
D03*
Y-382000D02*
D03*
X-33000Y318000D02*
D03*
Y218000D02*
D03*
Y118000D02*
D03*
Y-182000D02*
D03*
Y-382000D02*
D03*
X-133000Y318000D02*
D03*
Y-382000D02*
D03*
X-233000Y318000D02*
D03*
Y-182000D02*
D03*
X-333000Y-382000D02*
D03*
X-433000Y318000D02*
D03*
Y-282000D02*
D03*
Y-382000D02*
D03*
X-533000Y318000D02*
D03*
Y18000D02*
D03*
Y-82000D02*
D03*
D30*
X-403000Y-137817D02*
D03*
X-388000Y-150092D02*
D03*
X-371000Y-170710D02*
D03*
X-357000Y-183266D02*
D03*
X-354669Y-150000D02*
D03*
X-388000Y-118976D02*
D03*
X-395000Y-95000D02*
D03*
X-371000Y-119998D02*
D03*
X-360000Y-130000D02*
D03*
X-371000Y-88798D02*
D03*
X-357000Y-103348D02*
D03*
X-371000Y-63870D02*
D03*
Y-37998D02*
D03*
X-357000Y-79056D02*
D03*
Y-52000D02*
D03*
X-371000Y-9000D02*
D03*
X-357000Y-24598D02*
D03*
X-349000Y54458D02*
D03*
X-358056Y23000D02*
D03*
X-383592Y88449D02*
D03*
Y139500D02*
D03*
Y115000D02*
D03*
X-387500Y175546D02*
D03*
Y204371D02*
D03*
Y230500D02*
D03*
Y252652D02*
D03*
X-372798Y267158D02*
D03*
X-357129D02*
D03*
X-290527D02*
D03*
X-268181D02*
D03*
X-261203Y244523D02*
D03*
X-242000Y267158D02*
D03*
X-294582Y213130D02*
D03*
X-264000Y130000D02*
D03*
X-256000Y143000D02*
D03*
X-224566Y-164998D02*
D03*
X757500Y-322500D02*
D03*
X765000Y-330000D02*
D03*
X270000Y-279857D02*
D03*
X261798Y-271035D02*
D03*
X358000Y312000D02*
D03*
X365000Y320000D02*
D03*
X-273358Y-154000D02*
D03*
X74250D02*
D03*
X83000Y7000D02*
D03*
X66000Y17000D02*
D03*
X104669Y120000D02*
D03*
X91000Y7000D02*
D03*
X107667Y49003D02*
D03*
X182677Y125815D02*
D03*
X170000D02*
D03*
X157500D02*
D03*
X133917D02*
D03*
X495000Y35946D02*
D03*
X475000D02*
D03*
X485000D02*
D03*
X432661Y144997D02*
D03*
X342500Y83003D02*
D03*
X445161Y77500D02*
D03*
X432661Y70000D02*
D03*
X382911Y72494D02*
D03*
X525950D02*
D03*
X470161Y62088D02*
D03*
X457500Y52500D02*
D03*
X332500Y70000D02*
D03*
X367500Y62500D02*
D03*
X352500Y52500D02*
D03*
X561200Y47990D02*
D03*
X551200D02*
D03*
X546200Y20000D02*
D03*
X541200Y47990D02*
D03*
X503450Y562D02*
D03*
X593950D02*
D03*
X514998Y35946D02*
D03*
X-242000Y104878D02*
D03*
X-387500Y305000D02*
D03*
X-357500Y332500D02*
D03*
X-391448Y151052D02*
D03*
X-392500Y127500D02*
D03*
Y102069D02*
D03*
X-385000Y75000D02*
D03*
X-364806Y242500D02*
D03*
X-358056Y227541D02*
D03*
Y202500D02*
D03*
X-351306Y177500D02*
D03*
X-280000Y252652D02*
D03*
X-235286Y175546D02*
D03*
X-217500Y197500D02*
D03*
X-236287Y185546D02*
D03*
X-268181Y220000D02*
D03*
X-261672Y226786D02*
D03*
X-252500Y234652D02*
D03*
X-245000Y242500D02*
D03*
X-238037Y250000D02*
D03*
X-231701Y257500D02*
D03*
X-281051Y92596D02*
D03*
X-215000Y270000D02*
D03*
X-225000Y263250D02*
D03*
X-238037Y157500D02*
D03*
X-273551Y288452D02*
D03*
X-289150Y324125D02*
D03*
X820477Y-72500D02*
D03*
X775477D02*
D03*
X820477Y66477D02*
D03*
X775477D02*
D03*
X-535477Y-63398D02*
D03*
X-578591D02*
D03*
X-535477Y70734D02*
D03*
X-578591D02*
D03*
X-135141Y-190398D02*
D03*
Y-252500D02*
D03*
X-224566D02*
D03*
X-525000Y-330000D02*
D03*
X-517500Y-322500D02*
D03*
X-582498Y119998D02*
D03*
X-582500Y262000D02*
D03*
X-582498Y228000D02*
D03*
Y139000D02*
D03*
Y-119998D02*
D03*
X-582500Y-262000D02*
D03*
X-582498Y-228000D02*
D03*
Y-139000D02*
D03*
X822498Y-119998D02*
D03*
X822500Y-262000D02*
D03*
X822498Y-228000D02*
D03*
Y-139000D02*
D03*
Y139000D02*
D03*
Y228000D02*
D03*
X822500Y262000D02*
D03*
X822498Y119998D02*
D03*
X15000Y66477D02*
D03*
X-12500D02*
D03*
X488Y77500D02*
D03*
X-42262Y73740D02*
D03*
X-77262D02*
D03*
X352900Y-248000D02*
D03*
X395250Y14692D02*
D03*
Y-9366D02*
D03*
X304750D02*
D03*
Y14692D02*
D03*
X382911Y35946D02*
D03*
X-226903Y69500D02*
D03*
X-252500Y69004D02*
D03*
X-205082Y96651D02*
D03*
X112500Y-322898D02*
D03*
X87252D02*
D03*
X-220681Y73082D02*
D03*
X-204262Y73502D02*
D03*
X-240012Y77989D02*
D03*
X145167Y125815D02*
D03*
X244583Y-280000D02*
D03*
X234583Y-292500D02*
D03*
X120167Y125815D02*
D03*
X224583Y-292500D02*
D03*
X244583D02*
D03*
X-273303Y-204548D02*
D03*
X305650Y-195000D02*
D03*
X318650D02*
D03*
X344650D02*
D03*
X357650D02*
D03*
X331650D02*
D03*
X292650D02*
D03*
X86803Y320000D02*
D03*
X149299D02*
D03*
X95667Y123503D02*
D03*
X62667Y149503D02*
D03*
X95667Y110503D02*
D03*
X432661Y107758D02*
D03*
X442661D02*
D03*
X470161Y107758D02*
D03*
X457661Y107758D02*
D03*
X377911Y23321D02*
D03*
X320411Y23071D02*
D03*
X-285000Y292500D02*
D03*
X95667Y136503D02*
D03*
Y97503D02*
D03*
X107667Y84503D02*
D03*
X318650Y-279857D02*
D03*
X292650Y-314697D02*
D03*
X292650Y-284697D02*
D03*
M02*
