G04 Layer_Color=128*
%FSLAX44Y44*%
%MOMM*%
G71*
G01*
G75*
%ADD10C,1.0000*%
%ADD18R,0.9000X0.8000*%
%ADD19R,0.8000X0.9000*%
%ADD20R,1.1000X2.6000*%
G04:AMPARAMS|DCode=21|XSize=0.25mm|YSize=0.7mm|CornerRadius=0.0625mm|HoleSize=0mm|Usage=FLASHONLY|Rotation=180.000|XOffset=0mm|YOffset=0mm|HoleType=Round|Shape=RoundedRectangle|*
%AMROUNDEDRECTD21*
21,1,0.2500,0.5750,0,0,180.0*
21,1,0.1250,0.7000,0,0,180.0*
1,1,0.1250,-0.0625,0.2875*
1,1,0.1250,0.0625,0.2875*
1,1,0.1250,0.0625,-0.2875*
1,1,0.1250,-0.0625,-0.2875*
%
%ADD21ROUNDEDRECTD21*%
%ADD22R,2.1500X0.5600*%
%ADD23R,0.9500X7.3000*%
%ADD24O,2.5000X0.7000*%
%ADD25R,0.3000X1.2000*%
%ADD26R,1.0160X1.8034*%
%ADD27R,1.0000X1.8000*%
%ADD28R,1.8034X1.0160*%
%ADD29R,1.8000X1.0000*%
%ADD30R,2.7000X4.1000*%
G36*
X1022000Y148000D02*
X1021500Y153000D01*
X1021000Y155000D01*
X1020500Y157000D01*
X1019500Y159500D01*
X1018500Y161500D01*
X1017000Y164000D01*
X1015000Y166500D01*
X1014500Y167000D01*
X1012000Y169000D01*
X1008500Y171500D01*
X1005500Y173000D01*
Y184500D01*
X1022000D01*
Y148000D01*
D02*
G37*
G36*
X984500Y173000D02*
X980500Y171000D01*
X978500Y169500D01*
X976000Y167500D01*
X973000Y164000D01*
X971500Y161500D01*
X970500Y159500D01*
X968500Y153500D01*
X968000Y148000D01*
Y184500D01*
X984500D01*
Y173000D01*
D02*
G37*
G36*
X1022000Y111500D02*
X1005500D01*
Y123000D01*
X1008500Y124500D01*
X1011500Y126500D01*
X1015000Y129500D01*
X1018000Y133500D01*
X1020500Y138500D01*
X1021500Y142500D01*
X1022000Y148000D01*
Y111500D01*
D02*
G37*
G36*
X968500Y143000D02*
X969000Y140500D01*
X969500Y138500D01*
X971000Y135500D01*
X973000Y132000D01*
X976000Y128500D01*
X979000Y126000D01*
X980500Y125000D01*
X984500Y123000D01*
Y111500D01*
X968000D01*
Y148000D01*
X968500Y143000D01*
D02*
G37*
D10*
X90000Y30000D02*
D03*
X1170000Y90000D02*
D03*
Y750000D02*
D03*
D18*
X935000Y325998D02*
D03*
Y311998D02*
D03*
X1023000Y227002D02*
D03*
Y241002D02*
D03*
X1049000Y240998D02*
D03*
Y226998D02*
D03*
X1062000Y227002D02*
D03*
Y241002D02*
D03*
X1036000Y240998D02*
D03*
Y226998D02*
D03*
X1023000Y207998D02*
D03*
Y193998D02*
D03*
X1036000Y207998D02*
D03*
Y193998D02*
D03*
D19*
X666998Y358000D02*
D03*
X652998D02*
D03*
X666998Y385000D02*
D03*
X652998D02*
D03*
X666998Y398000D02*
D03*
X652998D02*
D03*
X666998Y345000D02*
D03*
X652998D02*
D03*
X608998Y398000D02*
D03*
X594998D02*
D03*
X608998Y345000D02*
D03*
X594998D02*
D03*
X608998Y358000D02*
D03*
X594998D02*
D03*
X608998Y385000D02*
D03*
X594998D02*
D03*
X955002Y216000D02*
D03*
X969002D02*
D03*
X998998Y231000D02*
D03*
X984998D02*
D03*
X998998Y245000D02*
D03*
X984998D02*
D03*
X842998Y169996D02*
D03*
X856998D02*
D03*
D20*
X940500Y238000D02*
D03*
X967500D02*
D03*
D21*
X1002500Y196250D02*
D03*
X997500D02*
D03*
X992500D02*
D03*
X987500D02*
D03*
Y213750D02*
D03*
X992500D02*
D03*
X997500D02*
D03*
X1002500D02*
D03*
D22*
X995000Y205000D02*
D03*
D23*
X963250Y148000D02*
D03*
X1026750D02*
D03*
D24*
X901500Y156050D02*
D03*
Y143350D02*
D03*
Y130650D02*
D03*
Y117950D02*
D03*
X852500Y156050D02*
D03*
Y143350D02*
D03*
Y130650D02*
D03*
Y117950D02*
D03*
D25*
X917501Y355100D02*
D03*
X912499D02*
D03*
X907501D02*
D03*
X902499D02*
D03*
X897501D02*
D03*
X892499D02*
D03*
X887501D02*
D03*
X882499D02*
D03*
X877501D02*
D03*
X872499D02*
D03*
X867501D02*
D03*
X862499D02*
D03*
X857501D02*
D03*
X852499D02*
D03*
X847501D02*
D03*
X772499D02*
D03*
X777501D02*
D03*
X782499D02*
D03*
X787501D02*
D03*
X792499D02*
D03*
X797501D02*
D03*
X802499D02*
D03*
X807501D02*
D03*
X812499D02*
D03*
X817501D02*
D03*
X822499D02*
D03*
X827501D02*
D03*
X837501D02*
D03*
X842499D02*
D03*
X832499D02*
D03*
X937500D02*
D03*
X932499D02*
D03*
X927501D02*
D03*
X922499D02*
D03*
X767501D02*
D03*
X762499D02*
D03*
X757501D02*
D03*
X752499D02*
D03*
X747501D02*
D03*
X742500D02*
D03*
D26*
X1003299Y801600D02*
D03*
Y749600D02*
D03*
X977899D02*
D03*
X952499D02*
D03*
X977899Y801600D02*
D03*
X952499D02*
D03*
X927099D02*
D03*
X901699D02*
D03*
X876299D02*
D03*
X850899D02*
D03*
X825499D02*
D03*
X800099D02*
D03*
X774699D02*
D03*
X749299D02*
D03*
X723899D02*
D03*
X698499D02*
D03*
X673099D02*
D03*
X647699D02*
D03*
X622299D02*
D03*
X596899D02*
D03*
X571499D02*
D03*
X927099Y749600D02*
D03*
X901699D02*
D03*
X876299D02*
D03*
X850899D02*
D03*
X825499D02*
D03*
X800099D02*
D03*
X774699D02*
D03*
X749299D02*
D03*
X723899D02*
D03*
X698499D02*
D03*
X673099D02*
D03*
X647699D02*
D03*
X622299D02*
D03*
X596899D02*
D03*
X571499D02*
D03*
X368299Y801600D02*
D03*
X393699D02*
D03*
X419099D02*
D03*
X444499D02*
D03*
Y749600D02*
D03*
X419099D02*
D03*
X393699D02*
D03*
X469899Y801600D02*
D03*
X495299D02*
D03*
X520699D02*
D03*
X546099D02*
D03*
X469899Y749600D02*
D03*
X495299D02*
D03*
X520699D02*
D03*
X546099D02*
D03*
X1003302Y90400D02*
D03*
Y38400D02*
D03*
X977902D02*
D03*
X952502D02*
D03*
X977902Y90400D02*
D03*
X952502D02*
D03*
X927102D02*
D03*
X901702D02*
D03*
X876302D02*
D03*
X850902D02*
D03*
X825502D02*
D03*
X800102D02*
D03*
X774702D02*
D03*
X749302D02*
D03*
X723902D02*
D03*
X698502D02*
D03*
X673102D02*
D03*
X647702D02*
D03*
X622302D02*
D03*
X596902D02*
D03*
X571502D02*
D03*
X927102Y38400D02*
D03*
X901702D02*
D03*
X876302D02*
D03*
X850902D02*
D03*
X825502D02*
D03*
X800102D02*
D03*
X774702D02*
D03*
X749302D02*
D03*
X723902D02*
D03*
X698502D02*
D03*
X673102D02*
D03*
X647702D02*
D03*
X622302D02*
D03*
X596902D02*
D03*
X571502D02*
D03*
X368302Y90400D02*
D03*
X393702D02*
D03*
X419102D02*
D03*
X444502D02*
D03*
Y38400D02*
D03*
X419102D02*
D03*
X393702D02*
D03*
X469902Y90400D02*
D03*
X495302D02*
D03*
X520702D02*
D03*
X546102D02*
D03*
X469902Y38400D02*
D03*
X495302D02*
D03*
X520702D02*
D03*
X546102D02*
D03*
D27*
X368299Y749600D02*
D03*
X368302Y38400D02*
D03*
D28*
X253401Y737602D02*
D03*
X305401D02*
D03*
Y712202D02*
D03*
Y686802D02*
D03*
X253401Y712202D02*
D03*
Y686802D02*
D03*
Y661402D02*
D03*
Y636002D02*
D03*
Y610602D02*
D03*
Y585202D02*
D03*
Y559802D02*
D03*
Y534402D02*
D03*
Y509002D02*
D03*
Y483602D02*
D03*
Y458202D02*
D03*
Y432802D02*
D03*
Y407402D02*
D03*
Y382002D02*
D03*
Y356602D02*
D03*
Y331202D02*
D03*
Y305802D02*
D03*
X305401Y661402D02*
D03*
Y636002D02*
D03*
Y610602D02*
D03*
Y585202D02*
D03*
Y559802D02*
D03*
Y534402D02*
D03*
Y509002D02*
D03*
Y483602D02*
D03*
Y458202D02*
D03*
Y432802D02*
D03*
Y407402D02*
D03*
Y382002D02*
D03*
Y356602D02*
D03*
Y331202D02*
D03*
Y305802D02*
D03*
X253401Y102602D02*
D03*
Y128002D02*
D03*
Y153402D02*
D03*
Y178802D02*
D03*
X305401D02*
D03*
Y153402D02*
D03*
Y128002D02*
D03*
X253401Y204202D02*
D03*
Y229602D02*
D03*
Y255002D02*
D03*
Y280402D02*
D03*
X305401Y204202D02*
D03*
Y229602D02*
D03*
Y255002D02*
D03*
Y280402D02*
D03*
D29*
Y102602D02*
D03*
D30*
X956799Y380000D02*
D03*
X723201D02*
D03*
M02*
