G04 Layer_Color=128*
%FSLAX44Y44*%
%MOMM*%
G71*
G01*
G75*
%ADD47C,0.1270*%
D47*
X16000Y32000D02*
X48000D01*
X32000Y16000D02*
Y48000D01*
X16000Y808000D02*
X48000D01*
X32000Y792000D02*
Y824000D01*
X1152000Y808000D02*
X1184000D01*
X1168000Y792000D02*
Y824000D01*
X1152000Y32000D02*
X1184000D01*
X1168000Y16000D02*
Y48000D01*
X923498Y110000D02*
X926498D01*
X924998Y108500D02*
Y111500D01*
X936498Y110000D02*
X939498D01*
X937998Y108500D02*
Y111500D01*
X923500Y165999D02*
X926500D01*
X925000Y164499D02*
Y167499D01*
X936500Y166001D02*
X939500D01*
X938000Y164501D02*
Y167501D01*
X368500Y373000D02*
X371500D01*
X370000Y371500D02*
Y374500D01*
X360500Y393546D02*
X363500D01*
X362000Y392046D02*
Y395046D01*
X933500Y304000D02*
X936500D01*
X935000Y302500D02*
Y305500D01*
X978500Y205000D02*
X981500D01*
X980000Y203500D02*
Y206500D01*
X928500Y247000D02*
X931500D01*
X930000Y245500D02*
Y248500D01*
X928500Y229000D02*
X931500D01*
X930000Y227500D02*
Y230500D01*
X928500Y238000D02*
X931500D01*
X930000Y236500D02*
Y239500D01*
X945500Y216000D02*
X948500D01*
X947000Y214500D02*
Y217500D01*
X1047500Y208000D02*
X1050500D01*
X1049000Y206500D02*
Y209500D01*
X1060500Y217000D02*
X1063500D01*
X1062000Y215500D02*
Y218500D01*
X1047500Y217000D02*
X1050500D01*
X1049000Y215500D02*
Y218500D01*
X1034500Y217000D02*
X1037500D01*
X1036000Y215500D02*
Y218500D01*
X1021500Y217000D02*
X1024500D01*
X1023000Y215500D02*
Y218500D01*
X1008500Y205000D02*
X1011500D01*
X1010000Y203500D02*
Y206500D01*
X948500Y350000D02*
X951500D01*
X950000Y348500D02*
Y351500D01*
X923500Y326000D02*
X926500D01*
X925000Y324500D02*
Y327500D01*
X868143Y143350D02*
X871143D01*
X869643Y141850D02*
Y144850D01*
X833497Y169996D02*
X836497D01*
X834997Y168496D02*
Y171496D01*
X863497Y169996D02*
X866497D01*
X864997Y168496D02*
Y171496D01*
X351499Y216000D02*
X354499D01*
X352999Y214500D02*
Y217500D01*
X344500Y223000D02*
X347500D01*
X346000Y221500D02*
Y224500D01*
X337500Y230000D02*
X340500D01*
X339000Y228500D02*
Y231500D01*
X330500Y237000D02*
X333500D01*
X332000Y235500D02*
Y238500D01*
X323499Y244000D02*
X326499D01*
X324999Y242500D02*
Y245499D01*
X416500Y306000D02*
X419500D01*
X418000Y304500D02*
Y307500D01*
X423500Y294000D02*
X426500D01*
X425000Y292500D02*
Y295500D01*
X401500Y281000D02*
X404500D01*
X403000Y279500D02*
Y282500D01*
X437500Y319000D02*
X440500D01*
X439000Y317500D02*
Y320500D01*
X430500Y331000D02*
X433500D01*
X432000Y329500D02*
Y332500D01*
X444500Y356000D02*
X447500D01*
X446000Y354500D02*
Y357500D01*
X323500Y421000D02*
X326500D01*
X325000Y419500D02*
Y422500D01*
X376500Y257000D02*
X379500D01*
X378000Y255500D02*
Y258500D01*
X409500Y201000D02*
X412500D01*
X411000Y199500D02*
Y202500D01*
X437500Y173000D02*
X440500D01*
X439000Y171500D02*
Y174500D01*
X416500Y193000D02*
X419500D01*
X418000Y191500D02*
Y194500D01*
X451500Y345000D02*
X454500D01*
X453000Y343500D02*
Y346500D01*
X444500Y166000D02*
X447500D01*
X446000Y164500D02*
Y167500D01*
X430500Y180000D02*
X433500D01*
X432000Y178500D02*
Y181500D01*
X423499Y186999D02*
X426499D01*
X424999Y185499D02*
Y188499D01*
X409500Y273000D02*
X412500D01*
X411000Y271500D02*
Y274500D01*
X458500Y267000D02*
X461500D01*
X460000Y265500D02*
Y268500D01*
X465499Y272999D02*
X468499D01*
X466999Y271500D02*
Y274499D01*
X472499Y279999D02*
X475499D01*
X473999Y278499D02*
Y281499D01*
X479499Y285999D02*
X482499D01*
X480999Y284499D02*
Y287499D01*
X486499Y292999D02*
X489499D01*
X487999Y291499D02*
Y294499D01*
X493499Y299999D02*
X496499D01*
X494999Y298499D02*
Y301499D01*
X500499Y305999D02*
X503499D01*
X501999Y304499D02*
Y307499D01*
X373500Y535000D02*
X376500D01*
X375000Y533500D02*
Y536500D01*
X357500Y560000D02*
X360500D01*
X359000Y558500D02*
Y561500D01*
X350500Y548000D02*
X353500D01*
X352000Y546500D02*
Y549500D01*
X343500Y586000D02*
X346500D01*
X345000Y584500D02*
Y587500D01*
X335500Y573000D02*
X338500D01*
X337000Y571500D02*
Y574500D01*
X328500Y610000D02*
X331500D01*
X330000Y608500D02*
Y611500D01*
X321500Y599000D02*
X324500D01*
X323000Y597500D02*
Y600500D01*
X529499Y313999D02*
X532499D01*
X530999Y312499D02*
Y315499D01*
X537499Y319999D02*
X540499D01*
X538999Y318499D02*
Y321499D01*
X544499Y326999D02*
X547499D01*
X545999Y325499D02*
Y328499D01*
X515500Y302000D02*
X518500D01*
X517000Y300500D02*
Y303500D01*
X522500Y308000D02*
X525500D01*
X524000Y306500D02*
Y309500D01*
X400500Y204000D02*
X403500D01*
X402000Y202500D02*
Y205500D01*
X651498Y371500D02*
X654498D01*
X652998Y370000D02*
Y373000D01*
X593498Y371500D02*
X596498D01*
X594998Y370000D02*
Y373000D01*
X336302Y686802D02*
X339302D01*
X337802Y685302D02*
Y688302D01*
X336500Y712000D02*
X339500D01*
X338000Y710500D02*
Y713500D01*
X323500Y484000D02*
X326500D01*
X325000Y482500D02*
Y485500D01*
X320500Y458000D02*
X323500D01*
X322000Y456500D02*
Y459500D01*
X327500Y447000D02*
X330500D01*
X329000Y445500D02*
Y448500D01*
X330500Y472000D02*
X333500D01*
X332000Y470500D02*
Y473500D01*
X364500Y523000D02*
X367500D01*
X366000Y521500D02*
Y524500D01*
X288500Y255000D02*
X291500D01*
X290000Y253500D02*
Y256500D01*
X278500Y255000D02*
X281500D01*
X280000Y253500D02*
Y256500D01*
X268500Y255000D02*
X271500D01*
X270000Y253500D02*
Y256500D01*
X267301Y102604D02*
X270301D01*
X268801Y101103D02*
Y104103D01*
X277301Y102604D02*
X280301D01*
X278801Y101103D02*
Y104103D01*
X900202Y110000D02*
X903202D01*
X901702Y108500D02*
Y111500D01*
X824002Y105205D02*
X827002D01*
X825502Y103705D02*
Y106705D01*
X813500Y131000D02*
X816500D01*
X815000Y129500D02*
Y132500D01*
X537499Y140000D02*
X540499D01*
X538999Y138500D02*
Y141500D01*
X522500Y146750D02*
X525500D01*
X524000Y145250D02*
Y148250D01*
X515499Y154000D02*
X518499D01*
X516999Y152500D02*
Y155500D01*
X451499Y160750D02*
X454499D01*
X452999Y159250D02*
Y162250D01*
X529499Y122000D02*
X532499D01*
X530999Y120500D02*
Y123500D01*
X544500Y120000D02*
X547500D01*
X546000Y118500D02*
Y121500D01*
X1015097Y802200D02*
X1018097D01*
X1016597Y800700D02*
Y803700D01*
X319098Y153402D02*
X322098D01*
X320598Y151902D02*
Y154902D01*
X268500Y509000D02*
X271500D01*
X270000Y507500D02*
Y510500D01*
X278500Y509000D02*
X281500D01*
X280000Y507500D02*
Y510500D01*
X288500Y509000D02*
X291500D01*
X290000Y507500D02*
Y510500D01*
X268500Y382000D02*
X271500D01*
X270000Y380500D02*
Y383500D01*
X278500Y382000D02*
X281500D01*
X280000Y380500D02*
Y383500D01*
X288500Y382000D02*
X291500D01*
X290000Y380500D02*
Y383500D01*
X353500Y801000D02*
X356500D01*
X355000Y799500D02*
Y802500D01*
X926001Y365499D02*
X929000D01*
X927501Y364000D02*
Y367000D01*
X796001Y372501D02*
X799001D01*
X797501Y371001D02*
Y374001D01*
X764500Y372000D02*
X767500D01*
X766000Y370500D02*
Y373500D01*
X288500Y636000D02*
X291500D01*
X290000Y634500D02*
Y637500D01*
X278500Y636000D02*
X281500D01*
X280000Y634500D02*
Y637500D01*
X268500Y636000D02*
X271500D01*
X270000Y634500D02*
Y637500D01*
X376500Y380000D02*
X379500D01*
X378000Y378500D02*
Y381500D01*
X391250Y266271D02*
X394250D01*
X392750Y264771D02*
Y267771D01*
X383500Y262000D02*
X386500D01*
X385000Y260500D02*
Y263500D01*
X360500Y248000D02*
X363500D01*
X362000Y246500D02*
Y249500D01*
X368500Y253000D02*
X371500D01*
X370000Y251500D02*
Y254500D01*
X400500Y365000D02*
X403500D01*
X402000Y363500D02*
Y366500D01*
X366802Y76302D02*
X369802D01*
X368302Y74802D02*
Y77802D01*
X372500Y197000D02*
X375500D01*
X374000Y195500D02*
Y198500D01*
X402500Y170000D02*
X405500D01*
X404000Y168500D02*
Y171500D01*
X695500Y379000D02*
X698500D01*
X697000Y377500D02*
Y380500D01*
X695500Y394000D02*
X698500D01*
X697000Y392500D02*
Y395500D01*
X1073500Y250000D02*
X1076500D01*
X1075000Y248500D02*
Y251500D01*
M02*
