G04*
G04 #@! TF.GenerationSoftware,Altium Limited,Altium Designer,20.0.7 (75)*
G04*
G04 Layer_Color=128*
%FSLAX44Y44*%
%MOMM*%
G71*
G01*
G75*
%ADD15R,0.8000X0.9000*%
%ADD30R,0.9000X0.8000*%
%ADD31R,2.6000X1.1000*%
%ADD32R,0.3000X1.0000*%
%ADD33R,1.6500X1.3000*%
%ADD34R,0.5600X2.1500*%
G04:AMPARAMS|DCode=35|XSize=0.25mm|YSize=0.7mm|CornerRadius=0.0625mm|HoleSize=0mm|Usage=FLASHONLY|Rotation=90.000|XOffset=0mm|YOffset=0mm|HoleType=Round|Shape=RoundedRectangle|*
%AMROUNDEDRECTD35*
21,1,0.2500,0.5750,0,0,90.0*
21,1,0.1250,0.7000,0,0,90.0*
1,1,0.1250,0.2875,0.0625*
1,1,0.1250,0.2875,-0.0625*
1,1,0.1250,-0.2875,-0.0625*
1,1,0.1250,-0.2875,0.0625*
%
%ADD35ROUNDEDRECTD35*%
%ADD36R,7.3000X0.9500*%
%ADD37O,0.7000X2.5000*%
G36*
X54500Y69000D02*
X43000D01*
X41000Y73000D01*
X39500Y75000D01*
X37500Y77500D01*
X34000Y80500D01*
X31500Y82000D01*
X29500Y83000D01*
X23500Y85000D01*
X18000Y85500D01*
X54500D01*
Y69000D01*
D02*
G37*
G36*
X13000Y85000D02*
X10500Y84500D01*
X8500Y84000D01*
X5500Y82500D01*
X2000Y80500D01*
X-1500Y77500D01*
X-4000Y74500D01*
X-5000Y73000D01*
X-7000Y69000D01*
X-18500D01*
Y85500D01*
X18000D01*
X13000Y85000D01*
D02*
G37*
G36*
X54500Y31500D02*
X18000D01*
X23000Y32000D01*
X25000Y32500D01*
X27000Y33000D01*
X29500Y34000D01*
X31500Y35000D01*
X34000Y36500D01*
X36500Y38500D01*
X37000Y39000D01*
X39000Y41500D01*
X41500Y45000D01*
X43000Y48000D01*
X54500D01*
Y31500D01*
D02*
G37*
G36*
X-5500Y45000D02*
X-3500Y42000D01*
X-500Y38500D01*
X3500Y35500D01*
X8500Y33000D01*
X12500Y32000D01*
X18000Y31500D01*
X-18500D01*
Y48000D01*
X-7000D01*
X-5500Y45000D01*
D02*
G37*
D15*
X111002Y-21500D02*
D03*
X97002D02*
D03*
X97002Y-8500D02*
D03*
X111002D02*
D03*
X110998Y4500D02*
D03*
X96998D02*
D03*
X110998Y17500D02*
D03*
X96998D02*
D03*
X97002Y30500D02*
D03*
X111002D02*
D03*
X63998Y30500D02*
D03*
X77998D02*
D03*
X63998Y17500D02*
D03*
X77998D02*
D03*
X193097Y106000D02*
D03*
X207097D02*
D03*
D30*
X114497Y97248D02*
D03*
Y83248D02*
D03*
X292650Y-306696D02*
D03*
Y-292696D02*
D03*
X305650Y-219200D02*
D03*
Y-205200D02*
D03*
X-152500Y39502D02*
D03*
Y25502D02*
D03*
X-217500Y69502D02*
D03*
Y55502D02*
D03*
X-192500Y39502D02*
D03*
Y25502D02*
D03*
X-205000Y39502D02*
D03*
Y25502D02*
D03*
X-180161Y39502D02*
D03*
Y25502D02*
D03*
X-167500Y39502D02*
D03*
Y25502D02*
D03*
X-167500Y55498D02*
D03*
Y69498D02*
D03*
X-180000Y55498D02*
D03*
Y69498D02*
D03*
X-205000Y55498D02*
D03*
Y69498D02*
D03*
X115000Y68502D02*
D03*
Y54502D02*
D03*
X101000Y68502D02*
D03*
Y54502D02*
D03*
X318650Y-205200D02*
D03*
Y-219200D02*
D03*
X344650Y-205200D02*
D03*
Y-219200D02*
D03*
X331650Y-205200D02*
D03*
Y-219200D02*
D03*
X357650Y-205200D02*
D03*
Y-219200D02*
D03*
X292650Y-205200D02*
D03*
Y-219200D02*
D03*
D31*
X137500Y96500D02*
D03*
Y69500D02*
D03*
D32*
X362738Y85478D02*
D03*
X357738D02*
D03*
X347738D02*
D03*
X342738D02*
D03*
X332738D02*
D03*
X327738D02*
D03*
X322738D02*
D03*
X317738D02*
D03*
X312738D02*
D03*
X307738D02*
D03*
X302738D02*
D03*
X297738D02*
D03*
X292738D02*
D03*
X217738D02*
D03*
X222738D02*
D03*
X227738D02*
D03*
X232738D02*
D03*
X237738D02*
D03*
X242738D02*
D03*
X247738D02*
D03*
X252738D02*
D03*
X257738D02*
D03*
X262738D02*
D03*
X267738D02*
D03*
X272738D02*
D03*
X277738D02*
D03*
X282738D02*
D03*
X287738D02*
D03*
X352738D02*
D03*
X197738D02*
D03*
X202738D02*
D03*
X207738D02*
D03*
X212738D02*
D03*
X337738D02*
D03*
X392738D02*
D03*
X387738D02*
D03*
X382738D02*
D03*
X377738D02*
D03*
X372738D02*
D03*
X367738D02*
D03*
X-207911Y2438D02*
D03*
X-202911D02*
D03*
X-197911D02*
D03*
X-162911D02*
D03*
X-167911D02*
D03*
X-172911D02*
D03*
X-177911D02*
D03*
X-182911D02*
D03*
X-187911D02*
D03*
X-192911D02*
D03*
D33*
X415489Y66477D02*
D03*
X174988D02*
D03*
X-140161Y-16562D02*
D03*
X-230661D02*
D03*
D34*
X75000Y58500D02*
D03*
D35*
X83750Y51000D02*
D03*
Y56000D02*
D03*
Y61000D02*
D03*
Y66000D02*
D03*
X66250D02*
D03*
Y61000D02*
D03*
Y56000D02*
D03*
Y51000D02*
D03*
D36*
X18000Y26750D02*
D03*
Y90250D02*
D03*
D37*
X344050Y-297000D02*
D03*
X331350D02*
D03*
X318650D02*
D03*
X305950D02*
D03*
X344050Y-248000D02*
D03*
X331350D02*
D03*
X318650D02*
D03*
X305950D02*
D03*
M02*
