G04 Layer_Physical_Order=2*
G04 Layer_Color=16711680*
%FSLAX44Y44*%
%MOMM*%
G71*
G01*
G75*
%ADD10C,0.2000*%
%ADD11C,0.4500*%
%ADD13C,0.2500*%
%ADD14C,0.3500*%
%ADD15C,6.0000*%
%ADD16C,0.6000*%
%ADD17R,0.9000X0.8000*%
%ADD18R,2.7000X3.0000*%
%ADD19R,0.3000X1.2000*%
%ADD20O,2.5000X0.7000*%
%ADD21R,0.8000X0.9000*%
%ADD22R,0.9500X7.3000*%
%ADD23R,1.1000X2.6000*%
%ADD24R,2.7000X4.1000*%
%ADD25R,1.8034X1.0160*%
%ADD26R,1.8000X1.0000*%
%ADD27R,1.0160X1.8034*%
%ADD28R,1.0000X1.8000*%
G04:AMPARAMS|DCode=29|XSize=0.25mm|YSize=0.7mm|CornerRadius=0.0625mm|HoleSize=0mm|Usage=FLASHONLY|Rotation=180.000|XOffset=0mm|YOffset=0mm|HoleType=Round|Shape=RoundedRectangle|*
%AMROUNDEDRECTD29*
21,1,0.2500,0.5750,0,0,180.0*
21,1,0.1250,0.7000,0,0,180.0*
1,1,0.1250,-0.0625,0.2875*
1,1,0.1250,0.0625,0.2875*
1,1,0.1250,0.0625,-0.2875*
1,1,0.1250,-0.0625,-0.2875*
%
%ADD29ROUNDEDRECTD29*%
%ADD30R,2.1500X0.5600*%
%ADD31C,0.5000*%
%ADD32C,0.3450*%
%ADD33C,0.6500*%
G36*
X1022000Y148000D02*
X1021500Y153000D01*
X1021000Y155000D01*
X1020500Y157000D01*
X1019500Y159500D01*
X1018500Y161500D01*
X1017000Y164000D01*
X1015000Y166500D01*
X1014500Y167000D01*
X1012000Y169000D01*
X1008500Y171500D01*
X1005500Y173000D01*
Y184500D01*
X1022000D01*
Y148000D01*
D02*
G37*
G36*
X984500Y173000D02*
X980500Y171000D01*
X978500Y169500D01*
X976000Y167500D01*
X973000Y164000D01*
X971500Y161500D01*
X970500Y159500D01*
X968500Y153500D01*
X968000Y148000D01*
Y184500D01*
X984500D01*
Y173000D01*
D02*
G37*
G36*
X1022000Y111500D02*
X1005500D01*
Y123000D01*
X1008500Y124500D01*
X1011500Y126500D01*
X1015000Y129500D01*
X1018000Y133500D01*
X1020500Y138500D01*
X1021500Y142500D01*
X1022000Y148000D01*
Y111500D01*
D02*
G37*
G36*
X968500Y143000D02*
X969000Y140500D01*
X969500Y138500D01*
X971000Y135500D01*
X973000Y132000D01*
X976000Y128500D01*
X979000Y126000D01*
X980500Y125000D01*
X984500Y123000D01*
Y111500D01*
X968000D01*
Y148000D01*
X968500Y143000D01*
D02*
G37*
D10*
X501999Y340000D02*
X553233D01*
X567483Y325750D01*
X741151D01*
X762499Y347099D01*
Y355100D01*
Y368499D01*
X766000Y372000D01*
X797501D01*
Y372501D01*
X798000Y373000D01*
X797501Y372000D02*
X927501D01*
Y365499D02*
Y355100D01*
X935000Y311998D02*
Y304000D01*
X935000Y304000D01*
Y272000D01*
X940500Y266500D01*
Y238000D01*
X939500D02*
X930000D01*
X930000Y238000D01*
Y247000D02*
X930000Y247000D01*
X939500D01*
Y229000D02*
X930000D01*
X930000Y229000D01*
Y206000D01*
X931000Y205000D01*
X948000D01*
X980000D01*
X995000D01*
X1010000D01*
X1013000Y208000D01*
X1023000D01*
Y217000D01*
X1023000Y217000D01*
Y227002D01*
X1023000Y227002D01*
X1036000Y226998D02*
X1036000Y226998D01*
Y217000D01*
X1036000Y217000D01*
Y208000D01*
X1023000D01*
Y207998D01*
X995000Y205000D02*
X997500Y202500D01*
Y196250D01*
X1075000Y250000D02*
X1075000Y250000D01*
X955002Y216000D02*
X955002Y216000D01*
X955002Y216000D02*
X947000D01*
Y206000D01*
X948000Y205000D01*
X938000Y174002D02*
X938000Y174002D01*
X901500Y117950D02*
X901702Y117748D01*
X902448Y117002D01*
X917500Y290573D02*
Y334000D01*
X917501Y334001D01*
Y355100D01*
X912499D02*
Y340499D01*
X912500Y340499D01*
X902500D02*
X902499Y340499D01*
Y355100D01*
X897501D02*
Y334001D01*
X897500Y334000D01*
X907500D02*
X907501Y334001D01*
Y355100D01*
X892499D02*
Y340499D01*
X892500Y340499D01*
X887500Y340498D02*
X887498Y340499D01*
Y355100D01*
X882499D02*
Y340499D01*
X882500Y340499D01*
X877500Y340498D02*
X877498Y340499D01*
Y355100D01*
X872499D02*
Y340499D01*
X872500Y340499D01*
X867500Y340498D02*
X867498Y340499D01*
Y355100D01*
X862499D02*
Y340499D01*
X862500Y340499D01*
X852500D02*
X852499Y340499D01*
Y355100D01*
X842499D02*
X842500Y355099D01*
Y322145D01*
X837500Y340499D02*
X837501Y340499D01*
Y355100D01*
X827501D02*
Y340499D01*
X827500Y340499D01*
X817501Y340499D02*
Y355100D01*
X807501D02*
Y335771D01*
X754730Y283000D01*
X742000D01*
X745295Y293000D02*
X751295D01*
X777220Y318925D01*
Y318937D01*
X781032Y322750D01*
X781033D01*
X797501Y339218D01*
Y355100D01*
Y372000D01*
X757501Y401863D02*
X740864Y418500D01*
X638136D01*
X617636Y398000D01*
X608998D01*
Y358000D02*
X620000D01*
X625000Y363000D01*
Y399000D01*
X640000Y414000D01*
X739000D01*
X752499Y400500D01*
Y355100D01*
X747501D02*
Y342637D01*
X740363Y335500D01*
X702136D01*
X693500Y344136D01*
Y354000D01*
X689500Y358000D01*
X666998D01*
X666998D01*
X728000Y298000D02*
X749931D01*
X772720Y320789D01*
Y320801D01*
X779168Y327250D01*
X779169D01*
X792499Y340581D01*
Y355100D01*
X787501D02*
Y342288D01*
X767970Y322757D01*
X762970Y324828D02*
X782499Y344357D01*
Y355100D01*
X777501D02*
Y346137D01*
X758263Y326899D01*
X757970D01*
X752970Y328970D02*
X772499Y348499D01*
Y355100D01*
X757501D02*
Y401863D01*
X742500Y355100D02*
Y344000D01*
X738500Y340000D01*
X704000D01*
X698000Y346000D01*
Y358000D01*
X687000Y369000D01*
X673000D01*
X666998Y375002D01*
Y385000D01*
X697000Y379000D02*
Y394000D01*
X817500Y340499D02*
X817501Y340499D01*
X608998Y358000D02*
X608998D01*
X608000D01*
D11*
X305401Y153402D02*
X320598D01*
X220000Y325000D02*
X192500D01*
X184502D01*
X185000Y325502D02*
X170000D01*
X140000Y347500D02*
X140000Y347500D01*
X700000Y52500D02*
Y34399D01*
X725000D02*
Y52500D01*
X825502Y143000D02*
X825852Y143350D01*
X852500D01*
X869643D01*
X864997Y169996D02*
X864997Y169996D01*
X864997Y169996D02*
X857998D01*
Y169996D01*
Y169996D02*
Y156996D01*
X857052Y156050D01*
X853500D01*
X856998Y169996D02*
X857998D01*
X842998D02*
X834997D01*
X834997Y169996D01*
X1023000Y151750D02*
Y193000D01*
X750000Y746899D02*
Y775000D01*
X697500Y800601D02*
X698499Y801600D01*
X697500Y800601D02*
Y775000D01*
D13*
X76996Y2000D02*
Y838000D01*
X79496D02*
Y2000D01*
X81996D02*
Y838000D01*
X84496D02*
Y2000D01*
X86996D02*
Y838000D01*
X89496D02*
Y2000D01*
X91996D02*
Y838000D01*
X94496D02*
Y635546D01*
X94473Y635527D02*
X96092Y636770D01*
X97977Y637551D01*
X100000Y637817D01*
X230000D01*
X232023Y637551D01*
X233908Y636770D01*
X235527Y635527D01*
X236770Y633909D01*
X237551Y632023D01*
X237817Y630000D01*
Y475000D01*
X237551Y472977D01*
X236770Y471091D01*
X235527Y469473D01*
X233908Y468230D01*
X232023Y467449D01*
X230000Y467183D01*
X100000D01*
X97977Y467449D01*
X96092Y468230D01*
X94473Y469473D01*
X93230Y471091D01*
X92449Y472977D01*
X92183Y475000D01*
Y630000D01*
X92449Y632023D01*
X93230Y633909D01*
X94473Y635527D01*
X94448Y635495D02*
X2000D01*
Y632995D02*
X92852D01*
X92248Y630495D02*
X2000D01*
Y627995D02*
X92183D01*
Y625495D02*
X2000D01*
Y622995D02*
X92183D01*
Y620495D02*
X2000D01*
Y617995D02*
X92183D01*
Y615495D02*
X2000D01*
Y612995D02*
X92183D01*
Y610495D02*
X2000D01*
Y637995D02*
X239634D01*
Y635495D02*
X235552D01*
X234496Y636319D02*
Y838000D01*
X236996D02*
Y633362D01*
X237148Y632995D02*
X239634D01*
Y630495D02*
X237752D01*
X237817Y627995D02*
X239634D01*
Y626172D02*
X267168D01*
Y645832D01*
X239634D01*
Y626172D01*
X241996D02*
Y619432D01*
X240634D02*
X251660D01*
X255142D02*
G03*
X251660Y619432I-1741J-8830D01*
G01*
X251996Y619492D02*
Y626172D01*
X254496D02*
Y619535D01*
X255142Y619432D02*
X266168D01*
Y607800D01*
X292634D01*
Y619432D01*
X303660D01*
X307142D02*
G03*
X303660Y619432I-1741J-8830D01*
G01*
X304496Y619556D02*
Y626172D01*
X301996D02*
Y619432D01*
X299496D02*
Y626172D01*
X296996D02*
Y619432D01*
X294496D02*
Y626172D01*
X291996D02*
Y607800D01*
X292634Y607995D02*
X266168D01*
X266996Y607800D02*
Y626172D01*
X267168Y627995D02*
X291634D01*
Y626172D02*
Y645832D01*
X319168D01*
Y626172D01*
X291634D01*
Y630495D02*
X267168D01*
Y632995D02*
X291634D01*
Y635495D02*
X267168D01*
Y637995D02*
X291634D01*
Y640495D02*
X267168D01*
Y642995D02*
X291634D01*
Y645495D02*
X267168D01*
X266996Y645832D02*
Y838000D01*
X269496D02*
Y607800D01*
X271996D02*
Y838000D01*
X274496D02*
Y607800D01*
X276996D02*
Y838000D01*
X279496D02*
Y607800D01*
X281996D02*
Y838000D01*
X284496D02*
Y607800D01*
X286996D02*
Y838000D01*
X289496D02*
Y607800D01*
X305401Y585202D02*
X345000D01*
X354000D02*
G03*
X345000Y594202I-9000J0D01*
G01*
X330737D01*
D02*
G03*
X332000Y598800I-7737J4598D01*
G01*
D02*
G03*
X331685Y601159I-9000J0D01*
G01*
Y601159D02*
G03*
X339000Y610000I-1685J8841D01*
G01*
D02*
G03*
X330000Y619000I-9000J0D01*
G01*
X318168D01*
Y619432D02*
X307142D01*
X306996Y619459D02*
Y626172D01*
X309496D02*
Y619432D01*
X311996D02*
Y626172D01*
X314496D02*
Y619432D01*
X306003Y610000D02*
X330000D01*
X338986Y610495D02*
X373750D01*
Y612995D02*
X338487D01*
X337128Y615495D02*
X373750D01*
Y617995D02*
X334132D01*
X334496Y617797D02*
Y651902D01*
X331996D02*
Y618776D01*
X329496Y619000D02*
Y651902D01*
X326996D02*
Y619000D01*
X324496D02*
Y651902D01*
X321996D02*
Y619000D01*
X319496D02*
Y651902D01*
X316996D02*
Y645832D01*
X319168Y645495D02*
X366070D01*
X366996Y644569D02*
Y563933D01*
X367414Y562995D02*
X373750D01*
Y565495D02*
X365970D01*
X364496Y566929D02*
Y647069D01*
X363570Y647995D02*
X2000D01*
Y645495D02*
X239634D01*
Y642995D02*
X2000D01*
Y640495D02*
X239634D01*
X241996Y645832D02*
Y652572D01*
X240634D02*
Y670232D01*
X266168D01*
Y652572D01*
X240634D01*
Y652995D02*
X2000D01*
Y655495D02*
X240634D01*
Y657995D02*
X2000D01*
Y660495D02*
X240634D01*
Y662995D02*
X2000D01*
Y665495D02*
X240634D01*
Y667995D02*
X2000D01*
Y650495D02*
X361070D01*
X361996Y649569D02*
Y568288D01*
X362724Y567995D02*
X373750D01*
Y570495D02*
X345518D01*
X344737Y568802D02*
G03*
X346000Y573400I-7737J4598D01*
G01*
D02*
G03*
X345547Y576218I-9000J0D01*
G01*
Y576218D02*
G03*
X354000Y585202I-547J8983D01*
G01*
X353995Y585495D02*
X373750D01*
Y582995D02*
X353725D01*
X352671Y580495D02*
X373750D01*
Y577995D02*
X350391D01*
X349496Y577405D02*
Y568802D01*
X346996D02*
Y576426D01*
X345753Y575495D02*
X373750D01*
Y572995D02*
X345991D01*
X344737Y568802D02*
X359000D01*
X368000Y559802D02*
G03*
X359000Y568802I-9000J0D01*
G01*
X359496Y568788D02*
Y651902D01*
X359663D02*
X373750Y637815D01*
Y543402D01*
X359737D01*
D02*
G03*
X361000Y548000I-7737J4598D01*
G01*
D02*
G03*
X360510Y550929I-9000J0D01*
G01*
Y550929D02*
G03*
X368000Y559802I-1510J8872D01*
G01*
X367973Y560495D02*
X373750D01*
Y557995D02*
X367817D01*
X366996Y555671D02*
Y543402D01*
X364496D02*
Y552675D01*
X364888Y552995D02*
X373750D01*
Y550495D02*
X360647D01*
X361996Y551315D02*
Y543402D01*
X360644Y545495D02*
X373750D01*
Y547995D02*
X361000D01*
X352000Y548000D02*
X257000D01*
X253401Y551599D01*
Y559802D01*
X249040Y568632D02*
X240634D01*
Y550972D01*
X244423D01*
D02*
G03*
X247037Y545235I8978J627D01*
G01*
X249040Y543232D01*
X240634D01*
Y525572D01*
X244423D01*
D02*
G03*
X247037Y519835I8978J627D01*
G01*
X248040Y518832D01*
X239634D01*
Y499172D01*
X267168D01*
Y514000D01*
X291634D01*
Y499172D01*
X319168D01*
Y514000D01*
X366000D01*
D02*
G03*
X373750Y518424I0J9000D01*
G01*
Y419851D01*
D02*
G03*
X376533Y413133I9500J0D01*
G01*
X376542Y413124D02*
X405374Y384292D01*
D02*
G03*
X412100Y381500I6727J6708D01*
G01*
X514165D01*
X568666Y327000D01*
X558726D01*
X552363Y333363D01*
D02*
G03*
X537184Y328814I-6364J-6364D01*
G01*
D02*
G03*
X530509Y322986I1815J-8815D01*
G01*
D02*
G03*
X522469Y316869I490J-8987D01*
G01*
X522469D02*
G03*
X515470Y310869I1531J-8869D01*
G01*
X515470D02*
G03*
X508409Y299317I1531J-8869D01*
G01*
X501363Y306363D01*
D02*
G03*
X486184Y301814I-6364J-6364D01*
G01*
D02*
G03*
X479184Y294814I1815J-8815D01*
G01*
D02*
G03*
X472468Y288868I1815J-8815D01*
G01*
X472468D02*
G03*
X465184Y281814I1531J-8869D01*
G01*
D02*
G03*
X458469Y275869I1815J-8815D01*
G01*
D02*
G03*
X451000Y267000I1531J-8869D01*
G01*
X417708D01*
D02*
G03*
X420000Y273000I-6708J6000D01*
G01*
D02*
G03*
X417364Y279364I-9000J0D01*
G01*
X417343Y279385D02*
G03*
X411948Y281968I-6364J-6364D01*
G01*
X417343Y279385D02*
G03*
X411948Y281968I-6364J-6364D01*
G01*
Y281968D02*
G03*
X411062Y285000I-8948J-969D01*
G01*
X424926D01*
D02*
G03*
X434000Y294000I74J9000D01*
G01*
D02*
G03*
X431364Y300364I-9000J0D01*
G01*
X434000Y294000D02*
G03*
X431364Y300364I-9000J0D01*
G01*
X431364Y300364D02*
G03*
X426443Y302883I-6364J-6364D01*
G01*
X431364Y300364D02*
G03*
X426443Y302883I-6364J-6364D01*
G01*
Y302883D02*
G03*
X427000Y306000I-8443J3116D01*
G01*
D02*
G03*
X425851Y310400I-9000J0D01*
G01*
X436346D01*
D02*
G03*
X448000Y319000I2654J8600D01*
G01*
D02*
G03*
X445364Y325364I-9000J0D01*
G01*
X445232Y325496D02*
X531872D01*
X531996Y325652D02*
Y363670D01*
X532670Y362996D02*
X451732D01*
X451762Y362966D02*
G03*
X445398Y365602I-6364J-6364D01*
G01*
X451762Y362966D02*
G03*
X445398Y365602I-6364J-6364D01*
G01*
X375125D01*
D02*
G03*
X378783Y371034I-5125J7398D01*
G01*
D02*
G03*
X387000Y380000I-783J8966D01*
G01*
D02*
G03*
X384364Y386364I-9000J0D01*
G01*
X378364Y392364D01*
D02*
G03*
X372000Y395000I-6364J-6364D01*
G01*
X378364Y392364D02*
G03*
X372000Y395000I-6364J-6364D01*
G01*
X370882D01*
D02*
G03*
X368364Y399910I-8882J-1454D01*
G01*
X330710Y437564D01*
D02*
G03*
X338000Y446400I-1710J8836D01*
G01*
D02*
G03*
X330510Y455272I-9000J0D01*
G01*
D02*
G03*
X331000Y458202I-8510J2929D01*
G01*
D02*
G03*
X329737Y462800I-9000J0D01*
G01*
X332000D01*
D02*
G03*
X341000Y471800I0J9000D01*
G01*
D02*
G03*
X333510Y480672I-9000J0D01*
G01*
Y480672D02*
G03*
X334000Y483602I-8510J2929D01*
G01*
D02*
G03*
X325000Y492602I-9000J0D01*
G01*
X305401D01*
D02*
G03*
X303660Y492432I0J-9000D01*
G01*
X292634D01*
Y480800D01*
X266168D01*
Y492432D01*
X255142D01*
D02*
G03*
X251660Y492432I-1741J-8830D01*
G01*
X240634D01*
Y474772D01*
X244423D01*
D02*
G03*
X247037Y469035I8978J627D01*
G01*
X249040Y467032D01*
X240634D01*
Y449372D01*
X244423D01*
D02*
G03*
X247037Y443635I8978J627D01*
G01*
X249040Y441632D01*
X240634D01*
Y423972D01*
X244423D01*
D02*
G03*
X247037Y418235I8978J627D01*
G01*
X249040Y416232D01*
X240634D01*
Y398572D01*
X244423D01*
D02*
G03*
X247037Y392835I8978J627D01*
G01*
X248040Y391832D01*
X239634D01*
Y372172D01*
X267168D01*
Y386600D01*
X291634D01*
Y372172D01*
X319168D01*
Y386600D01*
X327601D01*
X340565Y373636D01*
D02*
G03*
X346929Y371000I6364J6364D01*
G01*
X359272D01*
X363636Y366636D01*
D02*
G03*
X364875Y365602I6364J6364D01*
G01*
X305401D01*
D02*
G03*
X303660Y365432I0J-9000D01*
G01*
X292634D01*
Y353800D01*
X266168D01*
Y365432D01*
X255142D01*
D02*
G03*
X251660Y365432I-1741J-8830D01*
G01*
X240634D01*
Y347772D01*
X244423D01*
D02*
G03*
X247037Y342035I8978J627D01*
G01*
X249040Y340032D01*
X240634D01*
Y322372D01*
X244423D01*
D02*
G03*
X247037Y316635I8978J627D01*
G01*
X249040Y314632D01*
X240634D01*
Y296972D01*
X244423D01*
D02*
G03*
X247037Y291235I8978J627D01*
G01*
X249040Y289232D01*
X240634D01*
Y271572D01*
X244423D01*
D02*
G03*
X247037Y265835I8978J627D01*
G01*
X248040Y264832D01*
X239634D01*
Y245172D01*
X267168D01*
Y259600D01*
X291634D01*
Y245172D01*
X316076D01*
D02*
G03*
X317798Y238602I8923J-1172D01*
G01*
X305401D01*
D02*
G03*
X303660Y238432I0J-9000D01*
G01*
X292634D01*
Y227000D01*
X266168D01*
Y238432D01*
X255142D01*
D02*
G03*
X251660Y238432I-1741J-8830D01*
G01*
X240634D01*
Y220772D01*
X244423D01*
D02*
G03*
X247037Y215035I8978J627D01*
G01*
X249040Y213032D01*
X240634D01*
Y195372D01*
X243922D01*
D02*
G03*
X246683Y189282I9479J627D01*
G01*
X246692Y189272D02*
X248333Y187632D01*
X240634D01*
Y169972D01*
X244423D01*
D02*
G03*
X247037Y164235I8978J627D01*
G01*
X249040Y162232D01*
X240634D01*
Y144572D01*
X266168D01*
Y158000D01*
X291634D01*
Y143572D01*
X319168D01*
Y158000D01*
X345272D01*
X394386Y108886D01*
D02*
G03*
X400750Y106250I6364J6364D01*
G01*
X541250D01*
D02*
G03*
X547614Y108886I0J9000D01*
G01*
X552364Y113636D01*
D02*
G03*
X555000Y120000I-6364J6364D01*
G01*
D02*
G03*
X554874Y121500I-9000J0D01*
G01*
X815000D01*
D02*
G03*
X824500Y131000I0J9500D01*
G01*
D02*
G03*
X815000Y140500I-9500J0D01*
G01*
X547985D01*
D02*
G03*
X538969Y149000I-8986J-500D01*
G01*
X532714D01*
D02*
G03*
X525864Y155555I-8714J-2250D01*
G01*
D02*
G03*
X516999Y163000I-8865J-1555D01*
G01*
X469728D01*
X470728Y164000D01*
X799939D01*
D02*
G03*
X806303Y166636I0J9000D01*
G01*
X923864Y284197D01*
D02*
G03*
X926500Y290561I-6364J6364D01*
G01*
X923864Y284197D02*
G03*
X926500Y290561I-6364J6364D01*
G01*
Y290573D02*
G03*
X926250Y292680I-9000J0D01*
G01*
Y303248D01*
X944250D01*
Y320748D01*
X943250D01*
Y322402D01*
D02*
G03*
X944000Y325998I-8250J3597D01*
G01*
D02*
G03*
X943569Y328750I-9000J0D01*
G01*
X980754D01*
X988748Y320756D01*
Y253250D01*
X988595D02*
G03*
X984998Y254000I-3597J-8250D01*
G01*
X988595Y253250D02*
G03*
X984998Y254000I-3597J-8250D01*
G01*
X976750D01*
X976995D02*
Y328750D01*
X974495D02*
Y254750D01*
X976750D02*
X958250D01*
Y225250D01*
X950750D01*
Y255750D01*
X930250D01*
Y220250D01*
X946252D01*
Y206750D01*
X963752D01*
Y207750D01*
X964524D01*
X964495D02*
Y205250D01*
X967416Y205608D02*
G03*
X966009Y205250I1635J-9358D01*
G01*
X967416Y205608D02*
G03*
X966009Y205250I1635J-9358D01*
G01*
X957000D01*
D02*
G03*
X948000Y196250I0J-9000D01*
G01*
X957000Y205250D02*
G03*
X948000Y196250I0J-9000D01*
G01*
Y189250D01*
D02*
G03*
X953000Y181188I9000J0D01*
G01*
X948000Y189250D02*
G03*
X953000Y181188I9000J0D01*
G01*
Y169991D01*
D02*
G03*
X947386Y167386I750J-8969D01*
G01*
X953000Y169991D02*
G03*
X947386Y167386I750J-8969D01*
G01*
X947250Y167250D02*
Y182752D01*
X946250D01*
Y184403D01*
D02*
G03*
X947000Y188000I-8250J3597D01*
G01*
D02*
G03*
X946250Y191597I-9000J0D01*
G01*
Y195752D01*
X942573D01*
D02*
G03*
X938000Y197000I-4573J-7752D01*
G01*
X925000D01*
X904000D01*
D02*
G03*
X897636Y194364I0J-9000D01*
G01*
X904000Y197000D02*
G03*
X897636Y194364I0J-9000D01*
G01*
X895136Y191864D01*
D02*
G03*
X892500Y185500I6364J-6364D01*
G01*
X895136Y191864D02*
G03*
X892500Y185500I6364J-6364D01*
G01*
Y163300D01*
D02*
G03*
X889001Y149700I0J-7250D01*
G01*
D02*
G03*
X889001Y137000I3499J-6350D01*
G01*
D02*
G03*
X888071Y124910I3499J-6350D01*
G01*
D02*
G03*
X892500Y109700I4429J-6960D01*
G01*
X910500D01*
D02*
G03*
X915750Y111586I0J8250D01*
G01*
Y108252D01*
X929169D01*
D02*
G03*
X932140Y103167I8829J1748D01*
G01*
X918272D01*
Y93904D01*
D02*
G03*
X917602Y90400I8830J-3504D01*
G01*
Y79500D01*
X911532D01*
Y104167D01*
X891872D01*
Y79500D01*
X885132D01*
Y103167D01*
X874602D01*
X879708Y108273D01*
D02*
G03*
X882500Y115000I-6708J6727D01*
G01*
Y126650D01*
D02*
G03*
X879717Y133368I-9500J0D01*
G01*
X882500Y126650D02*
G03*
X879708Y133377I-9500J0D01*
G01*
X875727Y137358D01*
D02*
G03*
X869104Y140149I-6727J-6708D01*
G01*
X875717Y137367D02*
G03*
X869104Y140149I-6718J-6718D01*
G01*
X869104D02*
G03*
X869750Y143350I-7604J3201D01*
G01*
D02*
G03*
X865929Y150310I-8250J0D01*
G01*
D02*
G03*
X868750Y156050I-4429J5740D01*
G01*
D02*
G03*
X867998Y159266I-7250J0D01*
G01*
Y160456D01*
D02*
G03*
X872069Y162925I-3000J9539D01*
G01*
X867998Y160456D02*
G03*
X872069Y162925I-3000J9539D01*
G01*
X872069Y162925D02*
G03*
X874997Y169996I-7071J7071D01*
G01*
D02*
G03*
X864997Y179996I-10000J0D01*
G01*
X874997Y169996D02*
G03*
X864975Y179996I-10000J0D01*
G01*
X858029D01*
X857966D02*
X856998D01*
D02*
G03*
X851748Y178507I0J-10000D01*
G01*
X851995Y178655D02*
Y212328D01*
X852663Y212996D02*
X946252D01*
Y215496D02*
X855163D01*
X854495Y214828D02*
Y179678D01*
X856995Y179996D02*
Y217328D01*
X857663Y217996D02*
X946252D01*
X944495Y220250D02*
Y195752D01*
X946250Y195496D02*
X948000D01*
Y192996D02*
X946250D01*
X946647Y190496D02*
X948000D01*
X948088Y187996D02*
X947000D01*
X946995Y187692D02*
Y182752D01*
X946250Y182996D02*
X950528D01*
X949495Y184283D02*
Y168953D01*
X948061Y167996D02*
X947250D01*
X948000Y168000D02*
Y205000D01*
X946995Y206750D02*
Y188308D01*
X938000Y188000D02*
X925000D01*
X904000D01*
X901500Y185500D01*
Y156050D01*
Y143350D02*
X924352D01*
X925000Y143998D01*
X924352Y143350D02*
X937352D01*
X946352D02*
G03*
X946250Y144698I-9000J0D01*
G01*
Y150250D01*
Y151750D01*
Y154403D01*
D02*
G03*
X946950Y157051I-8250J3597D01*
G01*
X946950Y157051D02*
G03*
X952365Y159637I-949J8950D01*
G01*
X953750Y161022D01*
Y106750D01*
X972750D01*
Y189250D01*
X957000D01*
Y196250D01*
X980000D01*
X981500D01*
Y193375D01*
D02*
G03*
X986875Y188000I5375J0D01*
G01*
X988125D01*
D02*
G03*
X991300Y189038I0J5375D01*
G01*
X991995Y189000D02*
Y105000D01*
X994495D02*
Y188032D01*
X994596Y187996D02*
X972750D01*
X971995Y189250D02*
Y196250D01*
X974495D02*
Y105000D01*
X971995D02*
Y106750D01*
X972750Y107996D02*
X998000D01*
Y109355D02*
Y105000D01*
X945482Y105000D01*
D02*
G03*
X947000Y110002I-7482J5002D01*
G01*
Y117002D01*
D02*
G03*
X946250Y120598I-9000J0D01*
G01*
Y123252D01*
Y124752D01*
Y127405D01*
D02*
G03*
X947000Y131002I-8250J3597D01*
G01*
D02*
G03*
X946250Y134599I-9000J0D01*
G01*
Y136250D01*
Y138752D01*
Y142002D01*
D02*
G03*
X946352Y143350I-8898J1348D01*
G01*
X946345Y142996D02*
X953750D01*
Y145496D02*
X946250D01*
Y147996D02*
X953750D01*
Y150496D02*
X946250D01*
Y150250D02*
Y151750D01*
Y152996D02*
X953750D01*
Y155496D02*
X946645D01*
X946950Y157051D02*
G03*
X952365Y159637I-949J8950D01*
G01*
X951995Y159287D02*
Y105000D01*
X949495D02*
Y157707D01*
X950115Y157996D02*
X953750D01*
X946995Y157056D02*
Y131310D01*
Y130693D02*
Y117310D01*
X946945Y117996D02*
X953750D01*
Y120496D02*
X946294D01*
X946250Y122996D02*
X953750D01*
Y125496D02*
X946250D01*
Y124752D02*
Y123252D01*
X947000Y115496D02*
X953750D01*
Y112996D02*
X947000D01*
Y110496D02*
X953750D01*
Y107996D02*
X946774D01*
X946995Y109693D02*
Y105000D01*
X945482D02*
G03*
X947000Y110002I-7482J5002D01*
G01*
X945791Y105496D02*
X998000D01*
X996995Y105000D02*
Y187515D01*
X992601Y189000D02*
G03*
X998000Y187514I4899J7250D01*
G01*
Y186645D01*
X997949Y186523D02*
X997683Y184500D01*
Y173000D01*
X997684Y172996D02*
X972750D01*
Y175496D02*
X997683D01*
Y177996D02*
X972750D01*
Y180496D02*
X997683D01*
Y182996D02*
X972750D01*
Y185496D02*
X997814D01*
X1006926D02*
X1013750D01*
Y185248D02*
X1017250D01*
Y106750D01*
X1036250D01*
Y185248D01*
X1045250D01*
Y198500D01*
X1049000D01*
X1080000D01*
Y58000D01*
X1077000Y55000D01*
X963000Y55000D01*
X960000Y58000D01*
X960000Y67668D01*
D02*
G03*
X962002Y73502I-7498J5834D01*
G01*
Y90400D01*
D02*
G03*
X961332Y93904I-9500J0D01*
G01*
Y96000D01*
X968072D01*
Y76633D01*
X987732D01*
Y96000D01*
X994472D01*
Y77633D01*
X1012132D01*
Y103167D01*
X1006811D01*
D02*
G03*
X1007000Y105000I-8811J1833D01*
G01*
Y109355D01*
D02*
G03*
X1006787Y111302I-9000J0D01*
G01*
X1006683Y112090D01*
Y122534D01*
X1006760Y122996D02*
X1017250D01*
Y120496D02*
X1006683D01*
Y117996D02*
X1017250D01*
Y115496D02*
X1006683D01*
Y112996D02*
X1017250D01*
Y110496D02*
X1006927D01*
X1006995Y109666D02*
Y124834D01*
X1007000Y125145D02*
Y127000D01*
Y170855D01*
D02*
G03*
X1006787Y172802I-9000J0D01*
G01*
X1006761Y172996D02*
X1017250D01*
Y175496D02*
X1006683D01*
Y173466D02*
Y183910D01*
X1006787Y184698D01*
D02*
G03*
X1007000Y186645I-8787J1947D01*
G01*
Y187514D01*
D02*
G03*
X1006791Y189444I-9000J0D01*
G01*
D02*
G03*
X1008500Y193375I-3666J3931D01*
G01*
Y196250D01*
X1010000D01*
D02*
G03*
X1013750Y197094I0J8750D01*
G01*
X1010000Y196250D02*
G03*
X1013750Y197094I0J8750D01*
G01*
Y185248D01*
X1014495D02*
Y55000D01*
X1011995D02*
Y77633D01*
X1012132Y77996D02*
X1080000D01*
Y75496D02*
X962002D01*
X960000Y67668D02*
G03*
X962002Y73502I-7498J5834D01*
G01*
X961995Y73131D02*
Y56005D01*
X962504Y55496D02*
X1077496D01*
X1076994Y55000D02*
Y198500D01*
X1074494D02*
Y55000D01*
X1071994D02*
Y198500D01*
X1069494D02*
Y55000D01*
X1066994D02*
Y198500D01*
X1064494D02*
Y55000D01*
X1061994D02*
Y198500D01*
X1059494D02*
Y55000D01*
X1056994Y55000D02*
Y198500D01*
X1054494D02*
Y55000D01*
X1051994D02*
Y198500D01*
X1049494D02*
Y55000D01*
X1046995D02*
Y198500D01*
X1045250Y197996D02*
X1080000D01*
X1079494Y198500D02*
Y57495D01*
X1079996Y57996D02*
X960004D01*
X960000Y60496D02*
X1080000D01*
Y62996D02*
X960000D01*
X960000Y65496D02*
X1080000D01*
X1089000D02*
X1143926D01*
X1144494Y65897D02*
Y774103D01*
X1146178Y772995D02*
X760000D01*
Y775000D02*
G03*
X740000Y775000I-10000J0D01*
G01*
Y746899D01*
D02*
G03*
X740469Y743873I10000J0D01*
G01*
Y736833D01*
X758129D01*
Y741074D01*
D02*
G03*
X760000Y746899I-8129J5824D01*
G01*
Y775000D01*
X759988Y775495D02*
X1142604D01*
X1141994Y775981D02*
Y64020D01*
X1140783Y62996D02*
X1089000D01*
Y60496D02*
X1138175D01*
X1136994Y59207D02*
Y780794D01*
X1137259Y780495D02*
X758355D01*
X756995Y782146D02*
Y788833D01*
X758129D02*
Y814367D01*
X740469D01*
Y788833D01*
X758129D01*
X754495D02*
Y783933D01*
X756007Y782995D02*
X1135193D01*
X1134494Y783939D02*
Y56061D01*
X1134096Y55496D02*
X1088645D01*
X1089000Y57996D02*
X1135973D01*
X1139494Y61816D02*
Y778184D01*
X1139694Y777995D02*
X759541D01*
X759495Y778137D02*
Y838000D01*
X761995D02*
Y637817D01*
X759495D02*
Y743761D01*
X759207Y742995D02*
X765869D01*
Y740495D02*
X758129D01*
Y737995D02*
X765869D01*
Y736833D02*
X783529D01*
Y762367D01*
X765869D01*
Y736833D01*
X766995D02*
Y637817D01*
X769495D02*
Y736833D01*
X771995D02*
Y637817D01*
X774495D02*
Y736833D01*
X776995D02*
Y637817D01*
X779495D02*
Y736833D01*
X781995D02*
Y637817D01*
X784495D02*
Y838000D01*
X786995D02*
Y637817D01*
X789495D02*
Y838000D01*
X791995D02*
Y814367D01*
X791269D02*
X808929D01*
Y788833D01*
X791269D01*
Y814367D01*
Y812995D02*
X783529D01*
Y814367D02*
X765869D01*
Y788833D01*
X783529D01*
Y814367D01*
X781995D02*
Y838000D01*
X779495D02*
Y814367D01*
X776995D02*
Y838000D01*
X774495D02*
Y814367D01*
X771995D02*
Y838000D01*
X769495D02*
Y814367D01*
X766995D02*
Y838000D01*
X764495D02*
Y637817D01*
X756995D02*
Y736833D01*
X754495D02*
Y637817D01*
X751995D02*
Y736833D01*
X749495D02*
Y637817D01*
X746995D02*
Y736833D01*
X744495D02*
Y637817D01*
X741995D02*
Y736833D01*
X740469Y737995D02*
X732729D01*
Y736833D02*
Y762367D01*
X715069D01*
Y736833D01*
X732729D01*
X731995D02*
Y637817D01*
X729495D02*
Y736833D01*
X726995D02*
Y637817D01*
X724495D02*
Y736833D01*
X721995D02*
Y637817D01*
X719495D02*
Y736833D01*
X716995D02*
Y637817D01*
X714495D02*
Y838000D01*
X711995D02*
Y637817D01*
X709495D02*
Y838000D01*
X706995D02*
Y814367D01*
X707329D02*
Y806294D01*
X708499Y801600D02*
G03*
X707329Y806294I-10000J0D01*
G01*
X707709Y805495D02*
X715069D01*
Y807995D02*
X707329D01*
Y810495D02*
X715069D01*
Y812995D02*
X707329D01*
Y814367D02*
X689669D01*
Y806820D01*
D02*
G03*
X687500Y800601I7831J-6219D01*
G01*
X689669Y806820D02*
G03*
X687500Y800601I7831J-6219D01*
G01*
Y775000D01*
D02*
G03*
X707500Y775000I10000J0D01*
G01*
Y797244D01*
D02*
G03*
X708499Y801600I-9001J4356D01*
G01*
X708437Y800495D02*
X715069D01*
Y797995D02*
X707826D01*
X707500Y795495D02*
X715069D01*
Y792995D02*
X707500D01*
Y790495D02*
X715069D01*
Y802995D02*
X708401D01*
X704495Y814367D02*
Y838000D01*
X701995D02*
Y814367D01*
X699495D02*
Y838000D01*
X696995D02*
Y814367D01*
X694495D02*
Y838000D01*
X691995D02*
Y814367D01*
X689669Y812995D02*
X681929D01*
Y814367D02*
X664269D01*
Y788833D01*
X681929D01*
Y814367D01*
X679495D02*
Y838000D01*
X681995D02*
Y637817D01*
X679495D02*
Y736833D01*
X681929D02*
Y762367D01*
X664269D01*
Y736833D01*
X681929D01*
Y737995D02*
X689669D01*
Y736833D02*
X707329D01*
Y762367D01*
X689669D01*
Y736833D01*
X691995D02*
Y637817D01*
X694495D02*
Y736833D01*
X696995D02*
Y637817D01*
X699495D02*
Y736833D01*
X701995D02*
Y637817D01*
X704495D02*
Y736833D01*
X706995D02*
Y637817D01*
X689495D02*
Y769006D01*
X690364Y767995D02*
X42057D01*
X41997Y767980D02*
Y72021D01*
X39497Y72563D02*
Y767437D01*
X36997Y767054D02*
Y72946D01*
X36570Y72996D02*
X826553D01*
X826500Y74000D02*
G03*
X829292Y67273I9500J0D01*
G01*
X840273Y56292D01*
D02*
G03*
X847000Y53500I6727J6708D01*
G01*
X942000D01*
D02*
G03*
X948727Y56292I0J9500D01*
G01*
X951000Y58565D01*
Y58000D02*
G03*
X953636Y51636I9000J-0D01*
G01*
X951000Y58000D02*
G03*
X953636Y51636I9000J-0D01*
G01*
X954105Y51167D02*
X943672D01*
Y25633D01*
X961332D01*
Y46156D01*
D02*
G03*
X963000Y46000I1668J8844D01*
G01*
X969072D01*
Y25633D01*
X986732D01*
Y46000D01*
X994472D01*
Y25633D01*
X1012132D01*
Y46000D01*
X1077000Y46000D01*
D02*
G03*
X1083364Y48636I0J9000D01*
G01*
X1086364Y51636D01*
D02*
G03*
X1089000Y58000I-6364J6364D01*
G01*
Y198500D01*
D02*
G03*
X1080000Y207500I-9000J0D01*
G01*
X1089000Y198500D02*
G03*
X1080000Y207500I-9000J0D01*
G01*
X1049000D01*
X1045250D01*
Y208818D01*
D02*
G03*
X1055500Y210775I3750J8181D01*
G01*
X1055500D02*
G03*
X1068364Y210636I6500J6225D01*
G01*
X1055500Y210775D02*
G03*
X1068364Y210636I6500J6225D01*
G01*
X1068364Y210636D02*
G03*
X1071000Y217000I-6364J6364D01*
G01*
Y218002D01*
X1075000D01*
D02*
G03*
X1079576Y219252I0J9000D01*
G01*
X1083250D01*
Y223405D01*
D02*
G03*
X1084000Y227002I-8250J3597D01*
G01*
D02*
G03*
X1083250Y230599I-9000J0D01*
G01*
Y232252D01*
X1084250D01*
Y249752D01*
X1065750D01*
Y249183D02*
G03*
X1062000Y250002I-3750J-8181D01*
G01*
X1023000D01*
X1016002D01*
D02*
G03*
X1009638Y247366I0J-9000D01*
G01*
X1016002Y250002D02*
G03*
X1009638Y247366I0J-9000D01*
G01*
X1009495Y247223D02*
Y736833D01*
X1011995D02*
Y249060D01*
X1010338Y247996D02*
X1009248D01*
Y250496D02*
X1198000D01*
Y247996D02*
X1084250D01*
X1081994Y249752D02*
Y838000D01*
X1084494D02*
Y206297D01*
X1085662Y205496D02*
X1198000D01*
Y202996D02*
X1087797D01*
X1086994Y204164D02*
Y838000D01*
X1089494D02*
Y2000D01*
X1086994D02*
Y52336D01*
X1087481Y52996D02*
X1132494D01*
X1131994Y52128D02*
Y787872D01*
X1131926Y787995D02*
X1013129D01*
Y787833D02*
Y815367D01*
X993469D01*
Y787833D01*
X1013129D01*
X1011995D02*
Y762367D01*
X1012129D02*
Y736833D01*
X994469D01*
Y762367D01*
X1012129D01*
Y760495D02*
X1198000D01*
Y762995D02*
X760000D01*
Y760495D02*
X765869D01*
Y757995D02*
X760000D01*
Y755495D02*
X765869D01*
Y752995D02*
X760000D01*
Y750495D02*
X765869D01*
Y747995D02*
X760000D01*
X759901Y745495D02*
X765869D01*
X783529D02*
X791269D01*
Y742995D02*
X783529D01*
Y740495D02*
X791269D01*
Y737995D02*
X783529D01*
X791269Y736833D02*
Y762367D01*
X808929D01*
Y736833D01*
X791269D01*
X791995D02*
Y637817D01*
X794495D02*
Y736833D01*
X796995D02*
Y637817D01*
X739495D02*
Y838000D01*
X741995D02*
Y814367D01*
X744495D02*
Y838000D01*
X746995D02*
Y814367D01*
X749495D02*
Y838000D01*
X751995D02*
Y814367D01*
X754495D02*
Y838000D01*
X756995D02*
Y814367D01*
X758129Y812995D02*
X765869D01*
Y810495D02*
X758129D01*
Y807995D02*
X765869D01*
Y805495D02*
X758129D01*
Y802995D02*
X765869D01*
Y800495D02*
X758129D01*
Y797995D02*
X765869D01*
Y795495D02*
X758129D01*
Y792995D02*
X765869D01*
Y790495D02*
X758129D01*
X740469D02*
X732729D01*
Y792995D02*
X740469D01*
Y795495D02*
X732729D01*
Y797995D02*
X740469D01*
Y800495D02*
X732729D01*
Y802995D02*
X740469D01*
Y805495D02*
X732729D01*
Y807995D02*
X740469D01*
Y810495D02*
X732729D01*
Y812995D02*
X740469D01*
X783529Y810495D02*
X791269D01*
Y807995D02*
X783529D01*
Y805495D02*
X791269D01*
Y802995D02*
X783529D01*
Y800495D02*
X791269D01*
Y797995D02*
X783529D01*
Y795495D02*
X791269D01*
Y792995D02*
X783529D01*
Y790495D02*
X791269D01*
X794495Y814367D02*
Y838000D01*
X796995D02*
Y814367D01*
Y788833D02*
Y762367D01*
X794495D02*
Y788833D01*
X791995D02*
Y762367D01*
X791269Y760495D02*
X783529D01*
Y757995D02*
X791269D01*
Y755495D02*
X783529D01*
Y752995D02*
X791269D01*
Y750495D02*
X783529D01*
Y747995D02*
X791269D01*
X781995Y762367D02*
Y788833D01*
X779495D02*
Y762367D01*
X776995D02*
Y788833D01*
X774495D02*
Y762367D01*
X771995D02*
Y788833D01*
X769495D02*
Y762367D01*
X766995D02*
Y788833D01*
X751995D02*
Y784799D01*
X749495Y784987D02*
Y788833D01*
X746995D02*
Y784538D01*
X744495Y783348D02*
Y788833D01*
X741995D02*
Y780994D01*
X741645Y780495D02*
X707500D01*
Y777995D02*
X740459D01*
X740012Y775495D02*
X707500D01*
X707297Y772995D02*
X740000D01*
Y770495D02*
X706428D01*
X706995Y771863D02*
Y762367D01*
X707329Y760495D02*
X715069D01*
Y757995D02*
X707329D01*
Y755495D02*
X715069D01*
Y752995D02*
X707329D01*
Y750495D02*
X715069D01*
Y747995D02*
X707329D01*
Y745495D02*
X715069D01*
Y742995D02*
X707329D01*
Y740495D02*
X715069D01*
Y737995D02*
X707329D01*
X689669Y740495D02*
X681929D01*
Y742995D02*
X689669D01*
Y745495D02*
X681929D01*
Y747995D02*
X689669D01*
Y750495D02*
X681929D01*
Y752995D02*
X689669D01*
Y755495D02*
X681929D01*
Y757995D02*
X689669D01*
Y760495D02*
X681929D01*
X679495Y762367D02*
Y788833D01*
X687500Y787995D02*
X378129D01*
Y787833D02*
Y815367D01*
X358469D01*
Y787833D01*
X378129D01*
X376996D02*
Y762350D01*
X377049D02*
Y736850D01*
X359549D01*
Y762350D01*
X377049D01*
Y760495D02*
X384869D01*
Y762367D02*
X402529D01*
Y736833D01*
X384869D01*
Y762367D01*
X386996D02*
Y788833D01*
X384869D02*
X402529D01*
Y814367D01*
X384869D01*
Y788833D01*
X389496D02*
Y762367D01*
X391996D02*
Y788833D01*
X394496D02*
Y762367D01*
X396996D02*
Y788833D01*
X399496D02*
Y762367D01*
X401996D02*
Y788833D01*
X410269D02*
Y814367D01*
X427929D01*
Y788833D01*
X410269D01*
X411996D02*
Y762367D01*
X410269D02*
X427929D01*
Y736833D01*
X410269D01*
Y762367D01*
Y760495D02*
X402529D01*
Y757995D02*
X410269D01*
Y755495D02*
X402529D01*
Y752995D02*
X410269D01*
Y750495D02*
X402529D01*
Y747995D02*
X410269D01*
Y745495D02*
X402529D01*
Y742995D02*
X410269D01*
Y740495D02*
X402529D01*
Y737995D02*
X410269D01*
X411996Y736833D02*
Y637144D01*
X411092Y636770D02*
X412977Y637551D01*
X415000Y637817D01*
X990000D01*
X992023Y637551D01*
X993908Y636770D01*
X995527Y635527D01*
X996770Y633909D01*
X997551Y632023D01*
X997817Y630000D01*
Y450000D01*
X997551Y447977D01*
X996770Y446091D01*
X995527Y444473D01*
X993908Y443230D01*
X992023Y442449D01*
X990000Y442183D01*
X415000D01*
X412977Y442449D01*
X411092Y443230D01*
X409473Y444473D01*
X408230Y446091D01*
X407449Y447977D01*
X407183Y450000D01*
Y630000D01*
X407449Y632023D01*
X408230Y633909D01*
X409473Y635527D01*
X411092Y636770D01*
X409496Y635545D02*
Y838000D01*
X406996D02*
Y419439D01*
X405939Y420496D02*
X627757D01*
X626995Y419734D02*
Y442183D01*
X629495D02*
Y422234D01*
X630257Y422995D02*
X403439D01*
X404496Y421939D02*
Y838000D01*
X401996D02*
Y814367D01*
X402529Y812995D02*
X410269D01*
Y810495D02*
X402529D01*
Y807995D02*
X410269D01*
Y805495D02*
X402529D01*
Y802995D02*
X410269D01*
Y800495D02*
X402529D01*
Y797995D02*
X410269D01*
Y795495D02*
X402529D01*
Y792995D02*
X410269D01*
Y790495D02*
X402529D01*
X384869D02*
X378129D01*
Y792995D02*
X384869D01*
Y795495D02*
X378129D01*
Y797995D02*
X384869D01*
Y800495D02*
X378129D01*
Y802995D02*
X384869D01*
Y805495D02*
X378129D01*
Y807995D02*
X384869D01*
Y810495D02*
X378129D01*
Y812995D02*
X384869D01*
X386996Y814367D02*
Y838000D01*
X384496D02*
Y695541D01*
X384542Y695495D02*
X1198000D01*
Y692995D02*
X387042D01*
X386996Y693041D02*
Y736833D01*
X389496D02*
Y690541D01*
X389542Y690495D02*
X1198000D01*
Y687995D02*
X392042D01*
X391996Y688041D02*
Y736833D01*
X394496D02*
Y685541D01*
X394542Y685495D02*
X1198000D01*
Y682995D02*
X397041D01*
X396996Y683041D02*
Y736833D01*
X399496D02*
Y678534D01*
X399607Y677995D02*
X1198000D01*
Y675495D02*
X399750D01*
Y676352D02*
G03*
X396958Y683079I-9500J0D01*
G01*
X335727Y744310D01*
D02*
G03*
X329000Y747102I-6727J-6708D01*
G01*
X335718Y744319D02*
G03*
X329000Y747102I-6718J-6718D01*
G01*
X305401D01*
D02*
G03*
X301896Y746432I0J-9500D01*
G01*
X292634D01*
Y728772D01*
X301896D01*
D02*
G03*
X305401Y728102I3504J8830D01*
G01*
X325065D01*
X331465Y721702D01*
X305401D01*
D02*
G03*
X301896Y721032I0J-9500D01*
G01*
X292634D01*
Y703372D01*
X301896D01*
D02*
G03*
X305401Y702702I3504J8830D01*
G01*
X336053D01*
D02*
G03*
X346112Y707055I1947J9298D01*
G01*
X380750Y672417D01*
Y657685D01*
X370325Y668110D01*
D02*
G03*
X363598Y670902I-6727J-6708D01*
G01*
X370316Y668119D02*
G03*
X363598Y670902I-6718J-6718D01*
G01*
X305401D01*
D02*
G03*
X301896Y670232I0J-9500D01*
G01*
X292634D01*
Y652572D01*
X301896D01*
D02*
G03*
X305401Y651902I3504J8830D01*
G01*
X359663D01*
X356996D02*
Y568802D01*
X354496D02*
Y651902D01*
X351996D02*
Y590864D01*
X352279Y590495D02*
X373750D01*
Y592995D02*
X349501D01*
X349496Y592998D02*
Y651902D01*
X346996D02*
Y593978D01*
X344496Y594202D02*
Y651902D01*
X341996D02*
Y594202D01*
X339496D02*
Y651902D01*
X336996D02*
Y615662D01*
X316996Y619432D02*
Y626172D01*
X319168Y627995D02*
X373750D01*
Y625495D02*
X237817D01*
Y622995D02*
X373750D01*
Y620495D02*
X237817D01*
Y617995D02*
X240634D01*
Y619432D02*
Y601772D01*
X244423D01*
D02*
G03*
X247037Y596035I8978J627D01*
G01*
X249040Y594032D01*
X240634D01*
Y576372D01*
X244423D01*
D02*
G03*
X247037Y570635I8978J627D01*
G01*
X249040Y568632D01*
X246996D02*
Y570676D01*
X244423Y576372D02*
G03*
X247037Y570635I8978J627D01*
G01*
X247177Y570495D02*
X237817D01*
Y567995D02*
X240634D01*
X241996Y568632D02*
Y576372D01*
X240634Y577995D02*
X237817D01*
Y580495D02*
X240634D01*
Y582995D02*
X237817D01*
Y585495D02*
X240634D01*
Y587995D02*
X237817D01*
Y590495D02*
X240634D01*
Y592995D02*
X237817D01*
Y595495D02*
X247577D01*
X244423Y601772D02*
G03*
X247037Y596035I8978J627D01*
G01*
X246996Y596076D02*
Y594032D01*
X244496D02*
Y601092D01*
X244604Y600495D02*
X237817D01*
Y602995D02*
X240634D01*
Y605495D02*
X237817D01*
Y607995D02*
X240634D01*
X241996Y601772D02*
Y594032D01*
X245552Y597995D02*
X237817D01*
X253401Y602399D02*
Y610602D01*
X249496Y619432D02*
Y626172D01*
X246996D02*
Y619432D01*
X244496D02*
Y626172D01*
X240634Y615495D02*
X237817D01*
Y612995D02*
X240634D01*
Y610495D02*
X237817D01*
X231996Y637554D02*
Y838000D01*
X229496D02*
Y637817D01*
X226996D02*
Y838000D01*
X224496D02*
Y637817D01*
X221996D02*
Y838000D01*
X219496D02*
Y637817D01*
X216996D02*
Y838000D01*
X214496D02*
Y637817D01*
X211996D02*
Y838000D01*
X209496D02*
Y637817D01*
X206996D02*
Y838000D01*
X204496D02*
Y637817D01*
X201996D02*
Y838000D01*
X199496D02*
Y637817D01*
X196996D02*
Y838000D01*
X239496D02*
Y2000D01*
X241996D02*
Y93772D01*
X240634D02*
Y111432D01*
X248195D01*
X253401Y112852D02*
G03*
X248195Y111432I0J-10250D01*
G01*
X246996D02*
Y119172D01*
X244496D02*
Y111432D01*
X241996D02*
Y119172D01*
X240634D02*
Y136832D01*
X266168D01*
Y119172D01*
X240634D01*
Y120496D02*
X2000D01*
Y122996D02*
X240634D01*
Y125496D02*
X2000D01*
Y117996D02*
X385276D01*
X384496Y118776D02*
Y2000D01*
X386996D02*
Y25633D01*
X384872D02*
X402532D01*
Y51167D01*
X384872D01*
Y25633D01*
Y27996D02*
X377052D01*
Y25650D02*
Y51150D01*
X359552D01*
Y25650D01*
X377052D01*
X376996D02*
Y2000D01*
X379496D02*
Y123776D01*
X380276Y122996D02*
X318168D01*
Y120496D02*
X382776D01*
X381996Y121276D02*
Y2000D01*
X389496D02*
Y25633D01*
X391996D02*
Y2000D01*
X394496D02*
Y25633D01*
X396996D02*
Y2000D01*
X399496D02*
Y25633D01*
X401996D02*
Y2000D01*
X404496D02*
Y106250D01*
X406996D02*
Y2000D01*
X409496D02*
Y106250D01*
X411996D02*
Y103167D01*
X410272D02*
X427932D01*
Y77633D01*
X410272D01*
Y103167D01*
Y102996D02*
X402532D01*
Y103167D02*
X384872D01*
Y77633D01*
X402532D01*
Y103167D01*
X401996D02*
Y106250D01*
X394386Y108886D02*
G03*
X400750Y106250I6364J6364D01*
G01*
X399496Y106338D02*
Y103167D01*
X396996D02*
Y107070D01*
X395422Y107996D02*
X318151D01*
Y110496D02*
X392776D01*
X391996Y111276D02*
Y103167D01*
X394496D02*
Y108778D01*
X392000Y109000D02*
X762000D01*
X825000D01*
X826500Y107996D02*
X546578D01*
X546996Y108323D02*
Y103167D01*
X544496D02*
Y106855D01*
X541996Y106281D02*
Y103167D01*
X539496D02*
Y106250D01*
X541250D02*
G03*
X547614Y108886I0J9000D01*
G01*
X549224Y110496D02*
X826500D01*
Y112996D02*
X551724D01*
X551996Y113268D02*
Y103167D01*
X554496D02*
Y117029D01*
X554774Y117996D02*
X826712D01*
X826995Y119026D02*
Y187328D01*
X827663Y187996D02*
X892853D01*
X894014Y190496D02*
X830163D01*
X829495Y189828D02*
Y122930D01*
X829561Y122996D02*
X820117D01*
X819495Y122631D02*
Y104167D01*
X816995D02*
Y121712D01*
X814495Y121500D02*
Y2000D01*
X816995D02*
Y25633D01*
X816672D02*
X834332D01*
Y51167D01*
X816672D01*
Y25633D01*
Y27996D02*
X808932D01*
Y25633D02*
Y51167D01*
X791272D01*
Y25633D01*
X808932D01*
X806995D02*
Y2000D01*
X804495D02*
Y25633D01*
X801995D02*
Y2000D01*
X799495D02*
Y25633D01*
X808932Y30496D02*
X816672D01*
Y32996D02*
X808932D01*
Y35496D02*
X816672D01*
Y37996D02*
X808932D01*
Y40496D02*
X816672D01*
Y42996D02*
X808932D01*
Y45496D02*
X816672D01*
Y47996D02*
X808932D01*
Y50496D02*
X816672D01*
X816995Y51167D02*
Y76633D01*
X815672D02*
X826500D01*
Y74000D01*
D02*
G03*
X829283Y67283I9500J0D01*
G01*
X829495Y67070D02*
Y51167D01*
X831995D02*
Y64570D01*
X831069Y65496D02*
X56074D01*
X56996Y64814D02*
Y775186D01*
X57396Y775495D02*
X687500D01*
Y777995D02*
X60306D01*
X59496Y777251D02*
Y62749D01*
X59218Y62996D02*
X833569D01*
X834495Y62070D02*
Y2000D01*
X831995D02*
Y25633D01*
X829495D02*
Y2000D01*
X826995D02*
Y25633D01*
X824495D02*
Y2000D01*
X821995D02*
Y25633D01*
X819495D02*
Y2000D01*
X811995D02*
Y121500D01*
X809495D02*
Y2000D01*
X836995D02*
Y59570D01*
X836069Y60496D02*
X731005D01*
X731995Y59646D02*
Y77633D01*
X732732D02*
Y103167D01*
X715072D01*
Y77633D01*
X732732D01*
Y77996D02*
X740472D01*
Y77633D02*
X758132D01*
Y103167D01*
X740472D01*
Y77633D01*
X741995D02*
Y51167D01*
X740472D02*
X758132D01*
Y25633D01*
X740472D01*
Y51167D01*
Y50496D02*
X735000D01*
Y52500D02*
G03*
X715000Y52500I-10000J0D01*
G01*
Y34399D01*
D02*
G03*
X715072Y33201I10000J0D01*
G01*
Y25633D01*
X720187D01*
D02*
G03*
X729813Y25633I4813J8766D01*
G01*
X732732D01*
Y28057D01*
D02*
G03*
X735000Y34399I-7732J6342D01*
G01*
Y52500D01*
X734988Y52996D02*
X952519D01*
X951995Y53887D02*
Y51167D01*
X949495D02*
Y57060D01*
X942000Y53500D02*
G03*
X948717Y56283I0J9500D01*
G01*
X947826Y55496D02*
X951355D01*
X946995Y54919D02*
Y51167D01*
X944495D02*
Y53833D01*
X941995Y53500D02*
Y2000D01*
X944495D02*
Y25633D01*
X946995D02*
Y2000D01*
X949495D02*
Y25633D01*
X951995D02*
Y2000D01*
X954495D02*
Y25633D01*
X956995D02*
Y2000D01*
X959495D02*
Y25633D01*
X961332Y27996D02*
X969072D01*
Y30496D02*
X961332D01*
Y32996D02*
X969072D01*
Y35496D02*
X961332D01*
Y37996D02*
X969072D01*
Y40496D02*
X961332D01*
Y42996D02*
X969072D01*
Y45496D02*
X961332D01*
Y46156D02*
G03*
X963000Y46000I1668J8844D01*
G01*
X961995Y46056D02*
Y2000D01*
X964495D02*
Y46000D01*
X966995D02*
Y2000D01*
X969495D02*
Y25633D01*
X971995D02*
Y2000D01*
X974495D02*
Y25633D01*
X976995D02*
Y2000D01*
X939495D02*
Y53500D01*
X936995D02*
Y2000D01*
X934495D02*
Y25633D01*
X935932D02*
Y51167D01*
X918272D01*
Y25633D01*
X935932D01*
Y27996D02*
X943672D01*
Y30496D02*
X935932D01*
Y32996D02*
X943672D01*
Y35496D02*
X935932D01*
Y37996D02*
X943672D01*
Y40496D02*
X935932D01*
Y42996D02*
X943672D01*
Y45496D02*
X935932D01*
Y47996D02*
X943672D01*
Y50496D02*
X935932D01*
X934495Y51167D02*
Y53500D01*
X931995D02*
Y51167D01*
X929495D02*
Y53500D01*
X926995D02*
Y51167D01*
X924495D02*
Y53500D01*
X921995D02*
Y51167D01*
X919495D02*
Y53500D01*
Y25633D02*
Y2000D01*
X921995D02*
Y25633D01*
X924495D02*
Y2000D01*
X926995D02*
Y25633D01*
X929495D02*
Y2000D01*
X931995D02*
Y25633D01*
X964495Y55000D02*
Y96000D01*
X966995D02*
Y55000D01*
X969495D02*
Y76633D01*
X971995D02*
Y55000D01*
X974495D02*
Y76633D01*
X976995D02*
Y55000D01*
X979495Y2000D02*
Y25633D01*
X981995D02*
Y2000D01*
X984495D02*
Y25633D01*
X986732Y27996D02*
X994472D01*
X994495Y25633D02*
Y2000D01*
X991995D02*
Y46000D01*
X989495D02*
Y2000D01*
X986995D02*
Y46000D01*
X986732Y45496D02*
X994472D01*
Y42996D02*
X986732D01*
Y40496D02*
X994472D01*
Y37996D02*
X986732D01*
Y35496D02*
X994472D01*
Y32996D02*
X986732D01*
Y30496D02*
X994472D01*
X996995Y25633D02*
Y2000D01*
X999495D02*
Y25633D01*
X1001995D02*
Y2000D01*
X1004495D02*
Y25633D01*
X1006995D02*
Y2000D01*
X1009495D02*
Y25633D01*
X1011995D02*
Y2000D01*
X1014495D02*
Y46000D01*
X1016995D02*
Y2000D01*
X1019495D02*
Y46000D01*
X1021995D02*
Y2000D01*
X1024495D02*
Y46000D01*
X1026995D02*
Y2000D01*
X1029495D02*
Y46000D01*
X1031995D02*
Y2000D01*
X1034495D02*
Y46000D01*
X1036995D02*
Y2000D01*
X1039495D02*
Y46000D01*
Y55000D02*
Y185248D01*
X1036995D02*
Y55000D01*
X1034495D02*
Y106750D01*
X1031995D02*
Y55000D01*
X1029495D02*
Y106750D01*
X1026995D02*
Y55000D01*
X1024495D02*
Y106750D01*
X1021995D02*
Y55000D01*
X1019495Y55000D02*
Y106750D01*
X1017250Y107996D02*
X1007000D01*
Y105496D02*
X1080000D01*
Y107996D02*
X1036250D01*
Y110496D02*
X1080000D01*
Y112996D02*
X1036250D01*
Y115496D02*
X1080000D01*
Y117996D02*
X1036250D01*
Y120496D02*
X1080000D01*
Y122996D02*
X1036250D01*
Y125496D02*
X1080000D01*
X1089000D02*
X1198000D01*
Y122996D02*
X1089000D01*
Y120496D02*
X1198000D01*
Y117996D02*
X1089000D01*
Y115496D02*
X1198000D01*
Y112996D02*
X1089000D01*
Y110496D02*
X1198000D01*
Y107996D02*
X1089000D01*
Y105496D02*
X1198000D01*
Y102996D02*
X1089000D01*
Y100496D02*
X1198000D01*
Y97996D02*
X1089000D01*
Y95496D02*
X1198000D01*
Y92996D02*
X1089000D01*
Y90496D02*
X1198000D01*
Y87996D02*
X1089000D01*
Y85496D02*
X1198000D01*
Y82996D02*
X1089000D01*
Y80496D02*
X1198000D01*
Y77996D02*
X1089000D01*
Y75496D02*
X1198000D01*
Y72996D02*
X1172570D01*
X1171994Y73056D02*
Y766944D01*
X1169494Y766777D02*
Y73223D01*
X1166994Y73238D02*
Y766762D01*
X1164494Y766899D02*
Y73101D01*
X1163431Y72996D02*
X1089000D01*
Y70496D02*
X1153181D01*
X1151994Y70018D02*
Y769982D01*
X1150827Y770495D02*
X760000D01*
Y767995D02*
X1157943D01*
X1156994Y768245D02*
Y71755D01*
X1159494Y72364D02*
Y767637D01*
X1154494Y769024D02*
Y70976D01*
X1149494Y68866D02*
Y771134D01*
X1146994Y772499D02*
Y67501D01*
X1147855Y67996D02*
X1089000D01*
X1080000D02*
X960244D01*
X961514Y70496D02*
X1080000D01*
Y72996D02*
X961989D01*
X962002Y77996D02*
X968072D01*
Y80496D02*
X962002D01*
Y82996D02*
X968072D01*
Y85496D02*
X962002D01*
Y87996D02*
X968072D01*
Y90496D02*
X962001D01*
X961995Y90771D02*
Y96000D01*
X961332Y95496D02*
X968072D01*
Y92996D02*
X961640D01*
X961995Y105000D02*
Y106750D01*
X959495D02*
Y105000D01*
X956995D02*
Y106750D01*
X954495D02*
Y105000D01*
X964495D02*
Y106750D01*
X966995D02*
Y105000D01*
X969495D02*
Y106750D01*
X972750Y110496D02*
X997815D01*
X997683Y111500D02*
Y123000D01*
Y122996D02*
X972750D01*
Y120496D02*
X997683D01*
Y117996D02*
X972750D01*
Y115496D02*
X997683D01*
Y112996D02*
X972750D01*
X976995Y105000D02*
Y196250D01*
X969495D02*
Y189250D01*
X966995D02*
Y196250D01*
X964495D02*
Y189250D01*
X961995D02*
Y196250D01*
X959495D02*
Y189250D01*
X957000Y190496D02*
X982336D01*
X981995Y191123D02*
Y105000D01*
X979495D02*
Y196250D01*
X981500Y195496D02*
X957000D01*
Y192996D02*
X981513D01*
X984495Y188556D02*
Y105000D01*
X986995D02*
Y188000D01*
X989495Y188177D02*
Y105000D01*
Y96000D02*
Y55000D01*
X986995D02*
Y76633D01*
X987732Y77996D02*
X994472D01*
X994495Y77633D02*
Y55000D01*
X996995D02*
Y77633D01*
X999495D02*
Y55000D01*
X1001995D02*
Y77633D01*
X1004495D02*
Y55000D01*
X1006995D02*
Y77633D01*
X1009495D02*
Y55000D01*
X1016995D02*
Y185248D01*
X1017250Y182996D02*
X1006683D01*
Y180496D02*
X1017250D01*
Y177996D02*
X1006683D01*
X1006995Y171166D02*
Y186334D01*
X1007000Y170496D02*
X1017250D01*
Y167996D02*
X1007000D01*
Y165496D02*
X1017250D01*
Y162996D02*
X1007000D01*
Y160496D02*
X1017250D01*
Y157996D02*
X1007000D01*
Y155496D02*
X1017250D01*
Y152996D02*
X1007000D01*
Y150496D02*
X1017250D01*
Y147996D02*
X1007000D01*
Y145496D02*
X1017250D01*
Y142996D02*
X1007000D01*
Y140496D02*
X1017250D01*
Y137996D02*
X1007000D01*
Y135496D02*
X1017250D01*
Y132996D02*
X1007000D01*
Y130496D02*
X1017250D01*
Y127996D02*
X1007000D01*
X998000D02*
X972750D01*
Y130496D02*
X998000D01*
Y132996D02*
X972750D01*
Y135496D02*
X998000D01*
Y137996D02*
X972750D01*
Y140496D02*
X998000D01*
Y142996D02*
X972750D01*
Y145496D02*
X998000D01*
Y147996D02*
X972750D01*
Y150496D02*
X998000D01*
Y152996D02*
X972750D01*
Y155496D02*
X998000D01*
Y157996D02*
X972750D01*
Y160496D02*
X998000D01*
Y162996D02*
X972750D01*
Y165496D02*
X998000D01*
Y167996D02*
X972750D01*
Y170496D02*
X998000D01*
Y170855D02*
Y127000D01*
Y125145D01*
X997949Y125023D02*
X997847Y124242D01*
X997697Y123468D01*
X998000Y125496D02*
X972750D01*
X938000Y117002D02*
Y110002D01*
X937998Y110000D01*
X929224Y107996D02*
X879431D01*
X879495Y108060D02*
Y103167D01*
X876995D02*
Y105560D01*
X876931Y105496D02*
X930206D01*
X929495Y107051D02*
Y103167D01*
X926995D02*
Y108252D01*
X924495D02*
Y103167D01*
X921995D02*
Y108252D01*
X919495D02*
Y103167D01*
X924998Y110000D02*
X925000Y110002D01*
Y117002D01*
X902448D01*
X901995Y109700D02*
Y104167D01*
X899495D02*
Y109700D01*
X896995D02*
Y104167D01*
X894495D02*
Y109700D01*
X891995Y109715D02*
Y104167D01*
X891872Y102996D02*
X885132D01*
X884495Y103167D02*
Y115955D01*
X884623Y115496D02*
X882500D01*
X879717Y108282D02*
G03*
X882500Y115000I-6718J6718D01*
G01*
X882286Y112996D02*
X885903D01*
X886995Y111805D02*
Y79500D01*
X889495D02*
Y110267D01*
X888964Y110496D02*
X881365D01*
X881995Y111944D02*
Y103167D01*
X885132Y100496D02*
X891872D01*
Y97996D02*
X885132D01*
Y95496D02*
X891872D01*
Y92996D02*
X885132D01*
Y90496D02*
X891872D01*
Y87996D02*
X885132D01*
Y85496D02*
X891872D01*
Y82996D02*
X885132D01*
Y80496D02*
X891872D01*
X911532D02*
X917602D01*
X916995Y79500D02*
Y108252D01*
X915750Y110496D02*
X914036D01*
X914495Y110732D02*
Y79500D01*
X911995D02*
Y109837D01*
X909495Y109700D02*
Y104167D01*
X906995D02*
Y109700D01*
X904495D02*
Y104167D01*
X911532Y102996D02*
X918272D01*
Y100496D02*
X911532D01*
Y97996D02*
X918272D01*
Y95496D02*
X911532D01*
Y92996D02*
X917964D01*
X917602Y90496D02*
X911532D01*
Y87996D02*
X917602D01*
Y85496D02*
X911532D01*
Y82996D02*
X917602D01*
X884250Y117996D02*
X882500D01*
Y120496D02*
X884653D01*
X884495Y119945D02*
Y244828D01*
X885162Y245496D02*
X930250D01*
Y242996D02*
X882662D01*
X881995Y242328D02*
Y129706D01*
X881687Y130496D02*
X885252D01*
X885640Y132996D02*
X880069D01*
X879495Y133590D02*
Y239828D01*
X880163Y240496D02*
X930250D01*
Y237996D02*
X877663D01*
X876995Y237328D02*
Y136090D01*
X877589Y135496D02*
X887108D01*
X886995Y135368D02*
Y138632D01*
X887611Y137996D02*
X875024D01*
X874495Y138400D02*
Y166865D01*
X874796Y167996D02*
X892500D01*
Y165496D02*
X873928D01*
X872139Y162996D02*
X890423D01*
X889495Y162648D02*
Y249828D01*
X890162Y250496D02*
X930250D01*
Y247996D02*
X887662D01*
X891995Y252328D02*
Y163282D01*
X886995Y160768D02*
Y247328D01*
X875163Y235496D02*
X930250D01*
Y232996D02*
X872663D01*
X871995Y232328D02*
Y177140D01*
X870997Y177996D02*
X892500D01*
Y180496D02*
X820163D01*
X819495Y179828D02*
Y139369D01*
X821427Y137996D02*
X837223D01*
X836995Y138276D02*
Y133851D01*
X836640Y132996D02*
X824288D01*
X824495Y131308D02*
Y184828D01*
X825163Y185496D02*
X892500D01*
Y182996D02*
X822663D01*
X821995Y182328D02*
Y137428D01*
X823369Y135496D02*
X838108D01*
X839071Y136390D02*
G03*
X837017Y127404I4429J-5740D01*
G01*
D02*
G03*
X831223Y124658I933J-9454D01*
G01*
X829292Y122727D01*
D02*
G03*
X826500Y116000I6708J-6727D01*
G01*
X829283Y122718D02*
G03*
X826500Y116000I6718J-6718D01*
G01*
Y104167D01*
X815672D01*
Y76633D01*
Y77996D02*
X808932D01*
Y77633D02*
Y103167D01*
X791272D01*
Y77633D01*
X808932D01*
X806995D02*
Y51167D01*
X804495D02*
Y77633D01*
X801995D02*
Y51167D01*
X799495D02*
Y77633D01*
X808932Y80496D02*
X815672D01*
Y82996D02*
X808932D01*
Y85496D02*
X815672D01*
Y87996D02*
X808932D01*
Y90496D02*
X815672D01*
Y92996D02*
X808932D01*
Y95496D02*
X815672D01*
Y97996D02*
X808932D01*
Y100496D02*
X815672D01*
Y102996D02*
X808932D01*
X806995Y103167D02*
Y121500D01*
X804495D02*
Y103167D01*
X801995D02*
Y121500D01*
X799495D02*
Y103167D01*
X821995Y104167D02*
Y124572D01*
X822743Y125496D02*
X832179D01*
X831995Y125352D02*
Y192328D01*
X832663Y192996D02*
X896268D01*
X896995Y193723D02*
Y257328D01*
X897662Y257996D02*
X988748D01*
Y255496D02*
X950750D01*
X949495Y255750D02*
Y328750D01*
X951995D02*
Y225250D01*
X950750Y225496D02*
X958250D01*
X956995Y225250D02*
Y328750D01*
X954495D02*
Y225250D01*
X950750Y227996D02*
X958250D01*
Y230496D02*
X950750D01*
Y232996D02*
X958250D01*
Y235496D02*
X950750D01*
Y237996D02*
X958250D01*
Y240496D02*
X950750D01*
Y242996D02*
X958250D01*
Y245496D02*
X950750D01*
X967500Y245000D02*
X984998D01*
Y231000D01*
X987500Y228498D01*
Y213750D01*
X971252D01*
X969002Y216000D01*
Y231000D01*
Y236498D01*
X967500Y238000D01*
Y245000D01*
X969002Y231000D02*
X984998D01*
X997500Y229502D02*
X998998Y231000D01*
X997500Y229502D02*
Y213750D01*
X1002500D02*
X1008750D01*
X1011000Y216000D01*
Y236000D01*
X1016002Y241002D01*
X1023000D01*
X1062000D01*
X1075000Y241002D02*
Y250000D01*
X1074494Y249752D02*
Y838000D01*
X1071994D02*
Y249752D01*
X1069494D02*
Y838000D01*
X1066994D02*
Y249752D01*
X1066576Y248752D02*
G03*
X1065750Y249183I-4576J-7750D01*
G01*
X1064494Y249649D02*
Y838000D01*
X1061994D02*
Y250002D01*
X1059494D02*
Y838000D01*
X1056994D02*
Y250002D01*
X1054494D02*
Y838000D01*
X1051994D02*
Y250002D01*
X1049494D02*
Y838000D01*
X1046995D02*
Y250002D01*
X1044495D02*
Y838000D01*
X1041995D02*
Y250002D01*
X1076994Y249752D02*
Y838000D01*
X1079494D02*
Y249752D01*
X1084250Y245496D02*
X1198000D01*
Y242996D02*
X1084250D01*
Y240496D02*
X1198000D01*
Y237996D02*
X1084250D01*
Y235496D02*
X1198000D01*
Y232996D02*
X1084250D01*
X1083294Y230496D02*
X1198000D01*
Y227996D02*
X1083945D01*
X1083873Y225496D02*
X1198000D01*
Y222996D02*
X1083250D01*
Y220496D02*
X1198000D01*
Y217996D02*
X1071000D01*
X1068364Y210636D02*
G03*
X1071000Y217000I-6364J6364D01*
G01*
X1070873Y215496D02*
X1198000D01*
Y212996D02*
X1070060D01*
X1069494Y212017D02*
Y207500D01*
X1066994D02*
Y209513D01*
X1068221Y210496D02*
X1198000D01*
Y207996D02*
X1045250D01*
Y208818D02*
G03*
X1055500Y210775I3750J8181D01*
G01*
X1054494Y209872D02*
Y207500D01*
X1051994D02*
Y208513D01*
X1056994Y209520D02*
Y207500D01*
X1059494D02*
Y208356D01*
X1064494Y208353D02*
Y207500D01*
X1071994D02*
Y218002D01*
X1074494D02*
Y207500D01*
X1076994D02*
Y218225D01*
X1079494Y219204D02*
Y207500D01*
X1081994Y207276D02*
Y219252D01*
X1075000Y227002D02*
X1062000D01*
X1062000Y227002D01*
Y217000D01*
X1062000Y217000D01*
X1049000D02*
X1049000Y217000D01*
Y226998D01*
X1040000Y218248D02*
Y217000D01*
X1040004Y216748D02*
X1032250D01*
X1026750D01*
X1032250D01*
X1031995D02*
Y218248D01*
X1029495D02*
Y216748D01*
X1026995D02*
Y218248D01*
X1026750D02*
X1040000D01*
Y217996D02*
X1020000D01*
Y218252D02*
X1026750D01*
Y216748D02*
X1020000D01*
Y218252D01*
X1021995D02*
Y216748D01*
X1024495D02*
Y218252D01*
X1034495Y218248D02*
Y216748D01*
X1036995D02*
Y218248D01*
X1039495D02*
Y216748D01*
X1036000Y193998D02*
X1035002Y193000D01*
X1023000D01*
Y193998D01*
Y193000D02*
X1015000D01*
X1011750Y196250D01*
X1002500D01*
X1008500Y195496D02*
X1013750D01*
Y192996D02*
X1008487D01*
X1007664Y190496D02*
X1013750D01*
Y187996D02*
X1006987D01*
X1006995Y187826D02*
Y189645D01*
X1007000Y187514D02*
G03*
X1006791Y189444I-9000J0D01*
G01*
X1009495Y196250D02*
Y103167D01*
X1006995D02*
Y104689D01*
X1006811Y103167D02*
G03*
X1007000Y105000I-8811J1833D01*
G01*
X1011995Y103167D02*
Y196480D01*
X1009248Y246976D02*
Y325002D01*
D02*
G03*
X1006246Y332249I-10250J0D01*
G01*
X1009248Y325002D02*
G03*
X1006246Y332249I-10250J0D01*
G01*
X992248Y346248D01*
D02*
G03*
X985000Y349250I-7248J-7248D01*
G01*
X992248Y346248D02*
G03*
X985000Y349250I-7248J-7248D01*
G01*
X943750D01*
Y355750D01*
X974049D01*
Y404250D01*
X939549D01*
Y365850D01*
X933751D01*
X931250D01*
X933751D01*
X934495D02*
Y442183D01*
X931995D02*
Y365850D01*
X931250D02*
X921251D01*
Y364850D01*
X922750D01*
X921251D01*
X917749D01*
X921251D01*
Y365496D02*
X803751D01*
Y365850D02*
Y364850D01*
X807249D01*
X803751D01*
X802251D01*
X803751D01*
X804495D02*
Y442183D01*
X806995D02*
Y364850D01*
X807749D02*
X812251D01*
X807749D01*
X809495D02*
Y442183D01*
X811995D02*
Y364850D01*
X812751D02*
X817249D01*
X812751D01*
X814495D02*
Y442183D01*
X816995D02*
Y364850D01*
X817749D02*
X822251D01*
X817749D01*
X819495D02*
Y442183D01*
X821995D02*
Y364850D01*
X822751D02*
X827249D01*
X822751D01*
X824495D02*
Y442183D01*
X826995D02*
Y364850D01*
X827749D02*
X832251D01*
X827749D01*
X829495D02*
Y442183D01*
X831995D02*
Y364850D01*
X832751D02*
X837249D01*
X832751D01*
X834495D02*
Y442183D01*
X836995D02*
Y364850D01*
X837749D02*
X842251D01*
X837749D01*
X839495D02*
Y442183D01*
X841995D02*
Y364850D01*
X842751D02*
X847249D01*
X842751D01*
X844495D02*
Y442183D01*
X846995D02*
Y364850D01*
X847749D02*
X852251D01*
X847749D01*
X849495D02*
Y442183D01*
X851995D02*
Y364850D01*
X852751D02*
X857249D01*
X852751D01*
X854495D02*
Y442183D01*
X856995D02*
Y364850D01*
X857749D02*
X862251D01*
X857749D01*
X857498Y355100D02*
X857500Y355098D01*
Y315414D01*
X775086Y233000D01*
X367000D01*
X356001Y244000D01*
X324999D01*
X316709Y240496D02*
X2000D01*
Y237996D02*
X240634D01*
X241996Y238432D02*
Y245172D01*
X244496D02*
Y238432D01*
X246996D02*
Y245172D01*
X249496D02*
Y238432D01*
X251996Y238491D02*
Y245172D01*
X254496D02*
Y238535D01*
X253401Y229602D02*
Y221399D01*
X256800Y218000D01*
X330929D01*
X402179Y146750D01*
X524000D01*
X526121Y155496D02*
X836271D01*
X836516Y157996D02*
X525063D01*
X524496Y158980D02*
Y164000D01*
X521996D02*
Y161485D01*
X523228Y160496D02*
X837773D01*
X837976Y160746D02*
G03*
X839071Y150310I5524J-4696D01*
G01*
D02*
G03*
X839071Y136390I4429J-6960D01*
G01*
X835759Y140496D02*
X815272D01*
X814495Y140500D02*
Y174828D01*
X815163Y175496D02*
X834248D01*
Y172996D02*
X812663D01*
X811995Y172328D02*
Y140500D01*
X809495D02*
Y169828D01*
X810163Y170496D02*
X834248D01*
Y167996D02*
X807663D01*
X806995Y167328D02*
Y140500D01*
X804495D02*
Y165239D01*
X804908Y165496D02*
X834248D01*
Y162996D02*
X517255D01*
X516996Y163000D02*
Y164000D01*
X519496D02*
Y162647D01*
X514496Y163000D02*
Y164000D01*
X511996D02*
Y163000D01*
X509496D02*
Y164000D01*
X506996D02*
Y163000D01*
X504496D02*
Y164000D01*
X501996D02*
Y163000D01*
X499496D02*
Y164000D01*
X526996D02*
Y155237D01*
X529496Y153877D02*
Y164000D01*
X531996D02*
Y150881D01*
X532183Y150496D02*
X838840D01*
X836995Y148424D02*
Y152849D01*
X836925Y152996D02*
X530479D01*
X534496Y149000D02*
Y164000D01*
X536996D02*
Y149000D01*
X547985Y140500D02*
G03*
X538999Y149000I-8986J-500D01*
G01*
X539496Y148986D02*
Y164000D01*
X541996D02*
Y148486D01*
X543129Y147996D02*
X836683D01*
X835534Y145496D02*
X546126D01*
X546996Y144129D02*
Y164000D01*
X549496D02*
Y140500D01*
X551996D02*
Y164000D01*
X554496D02*
Y140500D01*
X556996D02*
Y164000D01*
X544496D02*
Y147126D01*
X547486Y142996D02*
X835258D01*
X836252Y130496D02*
X824487D01*
X824495Y130692D02*
Y104167D01*
X826500Y105496D02*
X318151D01*
Y102996D02*
X358472D01*
Y104167D02*
X378132D01*
Y76633D01*
X358472D01*
Y104167D01*
X359496D02*
Y143776D01*
X360276Y142996D02*
X2000D01*
Y145496D02*
X240634D01*
X241996Y144572D02*
Y136832D01*
X244496D02*
Y144572D01*
X246996D02*
Y136832D01*
X249496D02*
Y144572D01*
X251996D02*
Y136832D01*
X254496D02*
Y144572D01*
X240634Y147996D02*
X2000D01*
Y150496D02*
X240634D01*
Y152996D02*
X2000D01*
Y155496D02*
X240634D01*
Y157996D02*
X2000D01*
Y160496D02*
X240634D01*
X241996Y162232D02*
Y169972D01*
X240634Y170496D02*
X2000D01*
Y172996D02*
X240634D01*
Y175496D02*
X2000D01*
Y177996D02*
X240634D01*
Y180496D02*
X2000D01*
Y182996D02*
X240634D01*
Y185496D02*
X2000D01*
Y167996D02*
X244785D01*
X244496Y169292D02*
Y162232D01*
X246996D02*
Y164276D01*
X244423Y169972D02*
G03*
X247037Y164235I8978J627D01*
G01*
X245987Y165496D02*
X2000D01*
Y162996D02*
X248276D01*
X253401Y170599D02*
X257000Y167000D01*
X349000D01*
X400750Y115250D01*
X541250D01*
X546000Y120000D01*
X554986Y120496D02*
X827631D01*
X826500Y115496D02*
X553792D01*
X549496Y110768D02*
Y103167D01*
X554932D02*
X537272D01*
Y77633D01*
X554932D01*
Y103167D01*
Y102996D02*
X562672D01*
Y103167D02*
X580332D01*
Y77633D01*
X562672D01*
Y103167D01*
X564496D02*
Y121500D01*
X561996D02*
Y2000D01*
X564496D02*
Y25633D01*
X562672D02*
X580332D01*
Y51167D01*
X562672D01*
Y25633D01*
Y27996D02*
X554932D01*
Y25633D02*
Y51167D01*
X537272D01*
Y25633D01*
X554932D01*
X554496D02*
Y2000D01*
X551996D02*
Y25633D01*
X549496D02*
Y2000D01*
X546996D02*
Y25633D01*
X544496D02*
Y2000D01*
X541996D02*
Y25633D01*
X539496D02*
Y2000D01*
X536996D02*
Y106250D01*
X534496D02*
Y2000D01*
X531996D02*
Y106250D01*
X529496D02*
Y103167D01*
X529532D02*
X511872D01*
Y77633D01*
X529532D01*
Y103167D01*
Y102996D02*
X537272D01*
Y100496D02*
X529532D01*
Y97996D02*
X537272D01*
Y95496D02*
X529532D01*
Y92996D02*
X537272D01*
Y90496D02*
X529532D01*
Y87996D02*
X537272D01*
Y85496D02*
X529532D01*
Y82996D02*
X537272D01*
Y80496D02*
X529532D01*
Y77996D02*
X537272D01*
X539496Y77633D02*
Y51167D01*
X541996D02*
Y77633D01*
X544496D02*
Y51167D01*
X546996D02*
Y77633D01*
X549496D02*
Y51167D01*
X551996D02*
Y77633D01*
X554496D02*
Y51167D01*
X554932Y50496D02*
X562672D01*
X564496Y51167D02*
Y77633D01*
X562672Y77996D02*
X554932D01*
Y80496D02*
X562672D01*
Y82996D02*
X554932D01*
Y85496D02*
X562672D01*
Y87996D02*
X554932D01*
Y90496D02*
X562672D01*
Y92996D02*
X554932D01*
Y95496D02*
X562672D01*
Y97996D02*
X554932D01*
Y100496D02*
X562672D01*
X566996Y103167D02*
Y121500D01*
X569496D02*
Y103167D01*
X571996D02*
Y121500D01*
X574496D02*
Y103167D01*
X576996D02*
Y121500D01*
X579496D02*
Y103167D01*
X580332Y102996D02*
X588072D01*
Y103167D02*
X605732D01*
Y77633D01*
X588072D01*
Y103167D01*
X589496D02*
Y121500D01*
X586996D02*
Y2000D01*
X589496D02*
Y25633D01*
X588072D02*
X605732D01*
Y51167D01*
X588072D01*
Y25633D01*
Y27996D02*
X580332D01*
Y30496D02*
X588072D01*
Y32996D02*
X580332D01*
Y35496D02*
X588072D01*
Y37996D02*
X580332D01*
Y40496D02*
X588072D01*
Y42996D02*
X580332D01*
Y45496D02*
X588072D01*
Y47996D02*
X580332D01*
Y50496D02*
X588072D01*
X589496Y51167D02*
Y77633D01*
X588072Y77996D02*
X580332D01*
X579496Y77633D02*
Y51167D01*
X576996D02*
Y77633D01*
X574496D02*
Y51167D01*
X571996D02*
Y77633D01*
X569496D02*
Y51167D01*
X566996D02*
Y77633D01*
X580332Y80496D02*
X588072D01*
Y82996D02*
X580332D01*
Y85496D02*
X588072D01*
Y87996D02*
X580332D01*
Y90496D02*
X588072D01*
Y92996D02*
X580332D01*
Y95496D02*
X588072D01*
Y97996D02*
X580332D01*
Y100496D02*
X588072D01*
X591996Y103167D02*
Y121500D01*
X594496D02*
Y103167D01*
X596996D02*
Y121500D01*
X599495D02*
Y103167D01*
X601995D02*
Y121500D01*
X604495D02*
Y103167D01*
X605732Y102996D02*
X613472D01*
Y103167D02*
X631132D01*
Y77633D01*
X613472D01*
Y103167D01*
X614495D02*
Y121500D01*
X611995D02*
Y2000D01*
X614495D02*
Y25633D01*
X613472D02*
X631132D01*
Y51167D01*
X613472D01*
Y25633D01*
Y27996D02*
X605732D01*
Y30496D02*
X613472D01*
Y32996D02*
X605732D01*
Y35496D02*
X613472D01*
Y37996D02*
X605732D01*
Y40496D02*
X613472D01*
Y42996D02*
X605732D01*
Y45496D02*
X613472D01*
Y47996D02*
X605732D01*
Y50496D02*
X613472D01*
X614495Y51167D02*
Y77633D01*
X613472Y77996D02*
X605732D01*
X604495Y77633D02*
Y51167D01*
X601995D02*
Y77633D01*
X599495D02*
Y51167D01*
X596996D02*
Y77633D01*
X594496D02*
Y51167D01*
X591996D02*
Y77633D01*
X605732Y80496D02*
X613472D01*
Y82996D02*
X605732D01*
Y85496D02*
X613472D01*
Y87996D02*
X605732D01*
Y90496D02*
X613472D01*
Y92996D02*
X605732D01*
Y95496D02*
X613472D01*
Y97996D02*
X605732D01*
Y100496D02*
X613472D01*
X616995Y103167D02*
Y121500D01*
X609495D02*
Y2000D01*
X606995D02*
Y121500D01*
X584496D02*
Y2000D01*
X581996D02*
Y121500D01*
X559496D02*
Y2000D01*
X566996D02*
Y25633D01*
X569496D02*
Y2000D01*
X571996D02*
Y25633D01*
X574496D02*
Y2000D01*
X576996D02*
Y25633D01*
X579496D02*
Y2000D01*
X591996D02*
Y25633D01*
X594496D02*
Y2000D01*
X596996D02*
Y25633D01*
X599495D02*
Y2000D01*
X601995D02*
Y25633D01*
X604495D02*
Y2000D01*
X616995D02*
Y25633D01*
Y51167D02*
Y77633D01*
X562672Y47996D02*
X554932D01*
Y45496D02*
X562672D01*
Y42996D02*
X554932D01*
Y40496D02*
X562672D01*
Y37996D02*
X554932D01*
Y35496D02*
X562672D01*
Y32996D02*
X554932D01*
Y30496D02*
X562672D01*
X619495Y2000D02*
Y25633D01*
X621995D02*
Y2000D01*
X624495D02*
Y25633D01*
X626995D02*
Y2000D01*
X629495D02*
Y25633D01*
X631132Y27996D02*
X638872D01*
Y25633D02*
Y51167D01*
X656532D01*
Y25633D01*
X638872D01*
X639495D02*
Y2000D01*
X641995D02*
Y25633D01*
X644495D02*
Y2000D01*
X646995D02*
Y25633D01*
X649495D02*
Y2000D01*
X651995D02*
Y25633D01*
X654495D02*
Y2000D01*
X656995D02*
Y121500D01*
X659495D02*
Y2000D01*
X661995D02*
Y121500D01*
X664495D02*
Y103167D01*
X664272D02*
X681932D01*
Y77633D01*
X664272D01*
Y103167D01*
Y102996D02*
X656532D01*
Y103167D02*
Y77633D01*
X638872D01*
Y103167D01*
X656532D01*
X654495D02*
Y121500D01*
X651995D02*
Y103167D01*
X649495D02*
Y121500D01*
X646995D02*
Y103167D01*
X644495D02*
Y121500D01*
X641995D02*
Y103167D01*
X639495D02*
Y121500D01*
X636995D02*
Y2000D01*
X634495D02*
Y121500D01*
X631995D02*
Y2000D01*
X664495D02*
Y25633D01*
X664272D02*
X681932D01*
Y51167D01*
X664272D01*
Y25633D01*
Y27996D02*
X656532D01*
Y30496D02*
X664272D01*
Y32996D02*
X656532D01*
Y35496D02*
X664272D01*
Y37996D02*
X656532D01*
Y40496D02*
X664272D01*
Y42996D02*
X656532D01*
Y45496D02*
X664272D01*
Y47996D02*
X656532D01*
Y50496D02*
X664272D01*
X664495Y51167D02*
Y77633D01*
X664272Y77996D02*
X656532D01*
X654495Y77633D02*
Y51167D01*
X651995D02*
Y77633D01*
X649495D02*
Y51167D01*
X646995D02*
Y77633D01*
X644495D02*
Y51167D01*
X641995D02*
Y77633D01*
X639495D02*
Y51167D01*
X638872Y50496D02*
X631132D01*
X629495Y51167D02*
Y77633D01*
X631132Y77996D02*
X638872D01*
Y80496D02*
X631132D01*
Y82996D02*
X638872D01*
Y85496D02*
X631132D01*
Y87996D02*
X638872D01*
Y90496D02*
X631132D01*
Y92996D02*
X638872D01*
Y95496D02*
X631132D01*
Y97996D02*
X638872D01*
Y100496D02*
X631132D01*
Y102996D02*
X638872D01*
X629495Y103167D02*
Y121500D01*
X626995D02*
Y103167D01*
X624495D02*
Y121500D01*
X621995D02*
Y103167D01*
X619495D02*
Y121500D01*
Y77633D02*
Y51167D01*
X621995D02*
Y77633D01*
X624495D02*
Y51167D01*
X626995D02*
Y77633D01*
X656532Y80496D02*
X664272D01*
Y82996D02*
X656532D01*
Y85496D02*
X664272D01*
Y87996D02*
X656532D01*
Y90496D02*
X664272D01*
Y92996D02*
X656532D01*
Y95496D02*
X664272D01*
Y97996D02*
X656532D01*
Y100496D02*
X664272D01*
X666995Y103167D02*
Y121500D01*
X669495D02*
Y103167D01*
X671995D02*
Y121500D01*
X674495D02*
Y103167D01*
X676995D02*
Y121500D01*
Y77633D02*
Y51167D01*
X674495D02*
Y77633D01*
X671995D02*
Y51167D01*
X669495D02*
Y77633D01*
X666995D02*
Y51167D01*
Y25633D02*
Y2000D01*
X669495D02*
Y25633D01*
X671995D02*
Y2000D01*
X674495D02*
Y25633D01*
X676995D02*
Y2000D01*
X679495D02*
Y25633D01*
X681932Y27996D02*
X689672D01*
Y25633D02*
X695187D01*
D02*
G03*
X704813Y25633I4813J8766D01*
G01*
D02*
G03*
X707332Y27598I-4813J8766D01*
G01*
D02*
G03*
X710000Y34399I-7332J6800D01*
G01*
Y52500D01*
D02*
G03*
X690000Y52500I-10000J0D01*
G01*
Y51167D01*
X689672D02*
Y25633D01*
X691995D02*
Y2000D01*
X694495D02*
Y25633D01*
X695445Y25496D02*
X72734D01*
X73055Y27996D02*
X359552D01*
Y30496D02*
X73223D01*
X73250Y32000D02*
G03*
X2000Y60312I-41250J0D01*
G01*
Y779688D01*
D02*
G03*
X73250Y808000I30000J28312D01*
G01*
D02*
G03*
X60312Y838000I-41250J0D01*
G01*
X1139688D01*
D02*
G03*
X1198000Y779688I28312J-30000D01*
G01*
Y60312D01*
D02*
G03*
X1139688Y2000I-30000J-28312D01*
G01*
X60312D01*
D02*
G03*
X73250Y32000I-28312J30000D01*
G01*
X73238Y32996D02*
X359552D01*
Y35496D02*
X73102D01*
X72812Y37996D02*
X359552D01*
Y40496D02*
X72366D01*
X71996Y42092D02*
Y797908D01*
X72018Y797995D02*
X358469D01*
Y795495D02*
X71309D01*
X70424Y792995D02*
X358469D01*
Y790495D02*
X69352D01*
X69496Y790808D02*
Y49193D01*
X70022Y47996D02*
X359552D01*
Y50496D02*
X68871D01*
X67507Y52996D02*
X690012D01*
X689672Y50496D02*
X681932D01*
Y47996D02*
X689672D01*
Y45496D02*
X681932D01*
Y42996D02*
X689672D01*
Y40496D02*
X681932D01*
Y37996D02*
X689672D01*
Y35496D02*
X681932D01*
Y32996D02*
X689672D01*
Y30496D02*
X681932D01*
X696995Y24861D02*
Y2000D01*
X699495D02*
Y24411D01*
X701995Y24600D02*
Y2000D01*
X704495D02*
Y25466D01*
X704555Y25496D02*
X720445D01*
X719495Y25633D02*
Y2000D01*
X721995D02*
Y24861D01*
X724495Y24411D02*
Y2000D01*
X726995D02*
Y24600D01*
X729495Y25466D02*
Y2000D01*
X731995D02*
Y25633D01*
X729555Y25496D02*
X1127266D01*
X1126994Y27519D02*
Y2000D01*
X1129494D02*
Y17206D01*
X1129200Y17996D02*
X70800D01*
X71614Y20496D02*
X1128387D01*
X1127745Y22996D02*
X72256D01*
X71996Y21908D02*
Y2000D01*
X69496D02*
Y14808D01*
X69805Y15496D02*
X1130196D01*
X1131388Y12996D02*
X68612D01*
X67202Y10496D02*
X1132799D01*
X1131994Y11872D02*
Y2000D01*
X1134494D02*
Y7939D01*
X1134454Y7996D02*
X65547D01*
X64496Y6593D02*
Y2000D01*
X61996D02*
Y3684D01*
X61332Y2996D02*
X1138669D01*
X1136994Y2000D02*
Y4794D01*
X1136392Y5496D02*
X63609D01*
X66996Y2000D02*
Y10164D01*
X71757Y42996D02*
X359552D01*
Y45496D02*
X70980D01*
X66996Y53836D02*
Y786164D01*
X66570Y785495D02*
X687500D01*
Y782995D02*
X64807D01*
X64496Y782592D02*
Y57408D01*
X64028Y57996D02*
X691646D01*
X691995Y58494D02*
Y77633D01*
X689672D02*
X707332D01*
Y103167D01*
X689672D01*
Y77633D01*
Y77996D02*
X681932D01*
Y80496D02*
X689672D01*
Y82996D02*
X681932D01*
Y85496D02*
X689672D01*
Y87996D02*
X681932D01*
Y90496D02*
X689672D01*
Y92996D02*
X681932D01*
Y95496D02*
X689672D01*
Y97996D02*
X681932D01*
Y100496D02*
X689672D01*
Y102996D02*
X681932D01*
X679495Y103167D02*
Y121500D01*
X681995D02*
Y2000D01*
X684495D02*
Y121500D01*
X686995D02*
Y2000D01*
X689495D02*
Y121500D01*
X691995D02*
Y103167D01*
X694495D02*
Y121500D01*
X696995D02*
Y103167D01*
X699495D02*
Y121500D01*
X701995D02*
Y103167D01*
X704495D02*
Y121500D01*
X706995D02*
Y103167D01*
X707332Y102996D02*
X715072D01*
X716995Y103167D02*
Y121500D01*
X714495D02*
Y2000D01*
X716995D02*
Y25633D01*
X715072Y27996D02*
X707682D01*
X707332Y27598D02*
Y25633D01*
X704813D01*
X706995D02*
Y27253D01*
Y25633D02*
Y2000D01*
X709495D02*
Y31262D01*
X709207Y30496D02*
X715072D01*
Y32996D02*
X709901D01*
X710000Y35496D02*
X715000D01*
Y37996D02*
X710000D01*
Y40496D02*
X715000D01*
Y42996D02*
X710000D01*
Y45496D02*
X715000D01*
Y47996D02*
X710000D01*
Y50496D02*
X715000D01*
X715012Y52996D02*
X709988D01*
X709541Y55496D02*
X715459D01*
X716646Y57996D02*
X708354D01*
X706995Y59646D02*
Y77633D01*
X707332Y77996D02*
X715072D01*
X716995Y77633D02*
Y58494D01*
X718995Y60496D02*
X706005D01*
X704495Y61433D02*
Y77633D01*
X701995D02*
Y62299D01*
X699495Y62487D02*
Y77633D01*
X696995D02*
Y62038D01*
X694495Y60848D02*
Y77633D01*
X679495D02*
Y51167D01*
X690459Y55496D02*
X65904D01*
X61996Y60316D02*
Y779684D01*
X62741Y780495D02*
X687500D01*
X687703Y772995D02*
X53822D01*
X54496Y773425D02*
Y66576D01*
X61825Y60496D02*
X693995D01*
X709495Y55637D02*
Y121500D01*
X711995D02*
Y2000D01*
X734495D02*
Y31261D01*
X734207Y30496D02*
X740472D01*
Y27996D02*
X732732D01*
X734901Y32996D02*
X740472D01*
Y35496D02*
X735000D01*
Y37996D02*
X740472D01*
Y40496D02*
X735000D01*
Y42996D02*
X740472D01*
Y45496D02*
X735000D01*
Y47996D02*
X740472D01*
X744495Y51167D02*
Y77633D01*
X746995D02*
Y51167D01*
X749495D02*
Y77633D01*
X751995D02*
Y51167D01*
X754495D02*
Y77633D01*
X756995D02*
Y51167D01*
X758132Y50496D02*
X765872D01*
Y51167D02*
X783532D01*
Y25633D01*
X765872D01*
Y51167D01*
X766995D02*
Y77633D01*
X765872D02*
X783532D01*
Y103167D01*
X765872D01*
Y77633D01*
Y77996D02*
X758132D01*
Y80496D02*
X765872D01*
Y82996D02*
X758132D01*
Y85496D02*
X765872D01*
Y87996D02*
X758132D01*
Y90496D02*
X765872D01*
Y92996D02*
X758132D01*
Y95496D02*
X765872D01*
Y97996D02*
X758132D01*
Y100496D02*
X765872D01*
Y102996D02*
X758132D01*
X756995Y103167D02*
Y121500D01*
X759495D02*
Y2000D01*
X756995D02*
Y25633D01*
X754495D02*
Y2000D01*
X751995D02*
Y25633D01*
X749495D02*
Y2000D01*
X746995D02*
Y25633D01*
X744495D02*
Y2000D01*
X741995D02*
Y25633D01*
X758132Y27996D02*
X765872D01*
Y30496D02*
X758132D01*
Y32996D02*
X765872D01*
Y35496D02*
X758132D01*
Y37996D02*
X765872D01*
Y40496D02*
X758132D01*
Y42996D02*
X765872D01*
Y45496D02*
X758132D01*
Y47996D02*
X765872D01*
X769495Y51167D02*
Y77633D01*
X771995D02*
Y51167D01*
X774495D02*
Y77633D01*
X776995D02*
Y51167D01*
X779495D02*
Y77633D01*
X781995D02*
Y51167D01*
X783532Y50496D02*
X791272D01*
X791995Y51167D02*
Y77633D01*
X791272Y77996D02*
X783532D01*
Y80496D02*
X791272D01*
Y82996D02*
X783532D01*
Y85496D02*
X791272D01*
Y87996D02*
X783532D01*
Y90496D02*
X791272D01*
Y92996D02*
X783532D01*
Y95496D02*
X791272D01*
Y97996D02*
X783532D01*
Y100496D02*
X791272D01*
Y102996D02*
X783532D01*
X781995Y103167D02*
Y121500D01*
X784495D02*
Y2000D01*
X781995D02*
Y25633D01*
X779495D02*
Y2000D01*
X776995D02*
Y25633D01*
X774495D02*
Y2000D01*
X771995D02*
Y25633D01*
X769495D02*
Y2000D01*
X766995D02*
Y25633D01*
X762000Y19000D02*
Y109000D01*
X766995Y103167D02*
Y121500D01*
X764495D02*
Y2000D01*
X761995D02*
Y121500D01*
X754495D02*
Y103167D01*
X751995D02*
Y121500D01*
X749495D02*
Y103167D01*
X746995D02*
Y121500D01*
X744495D02*
Y103167D01*
X741995D02*
Y121500D01*
X739495D02*
Y2000D01*
X786995D02*
Y121500D01*
X789495D02*
Y2000D01*
X791995D02*
Y25633D01*
X794495D02*
Y2000D01*
X796995D02*
Y25633D01*
X791272Y27996D02*
X783532D01*
Y30496D02*
X791272D01*
Y32996D02*
X783532D01*
Y35496D02*
X791272D01*
Y37996D02*
X783532D01*
Y40496D02*
X791272D01*
Y42996D02*
X783532D01*
Y45496D02*
X791272D01*
Y47996D02*
X783532D01*
X794495Y51167D02*
Y77633D01*
X796995D02*
Y51167D01*
X839495Y2000D02*
Y57070D01*
X840283Y56283D02*
G03*
X847000Y53500I6718J6718D01*
G01*
X846995D02*
Y51167D01*
X844495D02*
Y53836D01*
X841995Y54925D02*
Y2000D01*
X844495D02*
Y25633D01*
X842072D02*
Y51167D01*
X859732D01*
Y25633D01*
X842072D01*
Y27996D02*
X834332D01*
Y30496D02*
X842072D01*
Y32996D02*
X834332D01*
Y35496D02*
X842072D01*
Y37996D02*
X834332D01*
Y40496D02*
X842072D01*
Y42996D02*
X834332D01*
Y45496D02*
X842072D01*
Y47996D02*
X834332D01*
Y50496D02*
X842072D01*
X841174Y55496D02*
X734541D01*
X734495Y55637D02*
Y121500D01*
X731995D02*
Y103167D01*
X732732Y102996D02*
X740472D01*
Y100496D02*
X732732D01*
Y97996D02*
X740472D01*
Y95496D02*
X732732D01*
Y92996D02*
X740472D01*
Y90496D02*
X732732D01*
Y87996D02*
X740472D01*
Y85496D02*
X732732D01*
Y82996D02*
X740472D01*
Y80496D02*
X732732D01*
X729495Y77633D02*
Y61433D01*
X726995Y62299D02*
Y77633D01*
X724495D02*
Y62487D01*
X721995Y62038D02*
Y77633D01*
X719495D02*
Y60848D01*
X733354Y57996D02*
X838569D01*
X849495Y53500D02*
Y51167D01*
X851995D02*
Y53500D01*
X854495D02*
Y51167D01*
X856995D02*
Y53500D01*
Y25633D02*
Y2000D01*
X854495D02*
Y25633D01*
X851995D02*
Y2000D01*
X849495D02*
Y25633D01*
X846995D02*
Y2000D01*
X859495D02*
Y25633D01*
X859732Y27996D02*
X867472D01*
Y25633D02*
X885132D01*
Y51167D01*
X867472D01*
Y25633D01*
X869495D02*
Y2000D01*
X871995D02*
Y25633D01*
X874495D02*
Y2000D01*
X876995D02*
Y25633D01*
X879495D02*
Y2000D01*
X881995D02*
Y25633D01*
X884495D02*
Y2000D01*
X886995D02*
Y53500D01*
X889495D02*
Y2000D01*
X891995D02*
Y53500D01*
X894495D02*
Y51167D01*
X892872D02*
X910532D01*
Y25633D01*
X892872D01*
Y51167D01*
Y50496D02*
X885132D01*
X884495Y51167D02*
Y53500D01*
X881995D02*
Y51167D01*
X879495D02*
Y53500D01*
X876995D02*
Y51167D01*
X874495D02*
Y53500D01*
X871995D02*
Y51167D01*
X869495D02*
Y53500D01*
X866995D02*
Y2000D01*
X864495D02*
Y53500D01*
X861995D02*
Y2000D01*
X894495D02*
Y25633D01*
X896995D02*
Y2000D01*
X899495D02*
Y25633D01*
X901995D02*
Y2000D01*
X904495D02*
Y25633D01*
X906995D02*
Y2000D01*
X909495D02*
Y25633D01*
X910532Y27996D02*
X918272D01*
Y30496D02*
X910532D01*
Y32996D02*
X918272D01*
Y35496D02*
X910532D01*
Y37996D02*
X918272D01*
Y40496D02*
X910532D01*
Y42996D02*
X918272D01*
Y45496D02*
X910532D01*
Y47996D02*
X918272D01*
Y50496D02*
X910532D01*
X909495Y51167D02*
Y53500D01*
X906995D02*
Y51167D01*
X904495D02*
Y53500D01*
X901995D02*
Y51167D01*
X899495D02*
Y53500D01*
X896995D02*
Y51167D01*
X892872Y47996D02*
X885132D01*
Y45496D02*
X892872D01*
Y42996D02*
X885132D01*
Y40496D02*
X892872D01*
Y37996D02*
X885132D01*
Y35496D02*
X892872D01*
Y32996D02*
X885132D01*
Y30496D02*
X892872D01*
Y27996D02*
X885132D01*
X867472Y30496D02*
X859732D01*
Y32996D02*
X867472D01*
Y35496D02*
X859732D01*
Y37996D02*
X867472D01*
Y40496D02*
X859732D01*
Y42996D02*
X867472D01*
Y45496D02*
X859732D01*
Y47996D02*
X867472D01*
Y50496D02*
X859732D01*
X859495Y51167D02*
Y53500D01*
X911995D02*
Y2000D01*
X914495D02*
Y53500D01*
X916995D02*
Y2000D01*
X826995Y51167D02*
Y70974D01*
X827170Y70496D02*
X46819D01*
X46997Y70428D02*
Y769573D01*
X49173Y770495D02*
X688572D01*
X691995Y766652D02*
Y762367D01*
X694495D02*
Y765462D01*
X694393Y765495D02*
X2000D01*
Y767995D02*
X21943D01*
X21997Y767981D02*
Y72019D01*
X24497Y72562D02*
Y767438D01*
X26997Y767055D02*
Y72946D01*
X27430Y72996D02*
X2000D01*
Y70496D02*
X17181D01*
X16997Y70425D02*
Y769575D01*
X19497Y768691D02*
Y71309D01*
X29497Y73174D02*
Y766826D01*
X31997Y766750D02*
Y73250D01*
X34497Y73175D02*
Y766826D01*
X44497Y768689D02*
Y71312D01*
X49496Y69356D02*
Y770645D01*
X51996Y771921D02*
Y68079D01*
X52146Y67996D02*
X828638D01*
X826500Y75496D02*
X2000D01*
Y77996D02*
X358472D01*
X359496Y76633D02*
Y2000D01*
X361996D02*
Y25650D01*
X364496D02*
Y2000D01*
X366996D02*
Y25650D01*
X369496D02*
Y2000D01*
X371996D02*
Y25650D01*
X374496D02*
Y2000D01*
X356996D02*
Y146276D01*
X357776Y145496D02*
X319168D01*
Y147996D02*
X355276D01*
X354496Y148776D02*
Y2000D01*
X351996D02*
Y151276D01*
X352776Y150496D02*
X319168D01*
Y152996D02*
X350276D01*
X349496Y153776D02*
Y2000D01*
X346996D02*
Y156276D01*
X347776Y155496D02*
X319168D01*
Y157996D02*
X345276D01*
X344496Y158000D02*
Y2000D01*
X341996D02*
Y158000D01*
X339496D02*
Y2000D01*
X336996D02*
Y158000D01*
X334496D02*
Y2000D01*
X331996D02*
Y158000D01*
X329496D02*
Y2000D01*
X326996D02*
Y158000D01*
X324496D02*
Y2000D01*
X321996D02*
Y158000D01*
X319496D02*
Y2000D01*
X316996D02*
Y93852D01*
X318151D02*
Y111352D01*
X292651D01*
Y93852D01*
X318151D01*
Y95496D02*
X358472D01*
Y92996D02*
X282577D01*
X281996Y92799D02*
Y2000D01*
X279496D02*
Y92364D01*
X279000Y92352D02*
G03*
X289250Y102602I0J10250D01*
G01*
D02*
G03*
X279000Y112852I-10250J0D01*
G01*
X253401D01*
X254496D02*
Y119172D01*
X251996D02*
Y112755D01*
X249496Y112079D02*
Y119172D01*
X240634Y110496D02*
X2000D01*
Y107996D02*
X240634D01*
Y105496D02*
X2000D01*
Y102996D02*
X240634D01*
Y100496D02*
X2000D01*
Y97996D02*
X240634D01*
Y95496D02*
X2000D01*
Y92996D02*
X249823D01*
X249496Y93125D02*
Y2000D01*
X246996D02*
Y93772D01*
X248195D02*
G03*
X253401Y92352I5205J8830D01*
G01*
X279000D01*
X276996D02*
Y2000D01*
X274496D02*
Y92352D01*
X271996D02*
Y2000D01*
X269496D02*
Y92352D01*
X266996D02*
Y2000D01*
X264496D02*
Y92352D01*
X261996D02*
Y2000D01*
X259496D02*
Y92352D01*
X256996D02*
Y2000D01*
X284496D02*
Y93950D01*
X286387Y95496D02*
X292651D01*
Y97996D02*
X288157D01*
X286996Y96189D02*
Y2000D01*
X289496D02*
Y158000D01*
X291634Y157996D02*
X266168D01*
X266996Y158000D02*
Y112852D01*
X264496D02*
Y119172D01*
X261996D02*
Y112852D01*
X259496D02*
Y119172D01*
X256996D02*
Y112852D01*
X269496D02*
Y158000D01*
X271996D02*
Y112852D01*
X274496D02*
Y158000D01*
X276996D02*
Y112852D01*
X279496Y112840D02*
Y158000D01*
X281996D02*
Y112404D01*
X284496Y111254D02*
Y158000D01*
X286996D02*
Y109015D01*
X287716Y107996D02*
X292651D01*
Y110496D02*
X285538D01*
X288833Y105496D02*
X292651D01*
Y102996D02*
X289242D01*
X289031Y100496D02*
X292651D01*
X294496Y93852D02*
Y2000D01*
X296996D02*
Y93852D01*
X299496D02*
Y2000D01*
X301996D02*
Y93852D01*
X304496D02*
Y2000D01*
X306996D02*
Y93852D01*
X309496D02*
Y2000D01*
X311996D02*
Y93852D01*
X314496D02*
Y2000D01*
X291996D02*
Y143572D01*
X291634Y145496D02*
X266168D01*
Y147996D02*
X291634D01*
Y150496D02*
X266168D01*
Y152996D02*
X291634D01*
Y155496D02*
X266168D01*
X264496Y144572D02*
Y136832D01*
X261996D02*
Y144572D01*
X259496D02*
Y136832D01*
X256996D02*
Y144572D01*
X266168Y135496D02*
X292634D01*
Y136832D02*
X318168D01*
Y119172D01*
X292634D01*
Y136832D01*
X294496D02*
Y143572D01*
X296996D02*
Y136832D01*
X299496D02*
Y143572D01*
X301996D02*
Y136832D01*
X304496D02*
Y143572D01*
X306996D02*
Y136832D01*
X309496D02*
Y143572D01*
X311996D02*
Y136832D01*
X314496D02*
Y143572D01*
X292634Y132996D02*
X266168D01*
Y130496D02*
X292634D01*
Y127996D02*
X266168D01*
X305401Y178802D02*
X344672D01*
X401474Y122000D01*
X530999D01*
X526996Y106250D02*
Y103167D01*
X524496D02*
Y106250D01*
X521996D02*
Y103167D01*
X519496D02*
Y106250D01*
X516996D02*
Y103167D01*
X514496D02*
Y106250D01*
X511996D02*
Y103167D01*
X511872Y102996D02*
X504132D01*
Y103167D02*
Y77633D01*
X486472D01*
Y103167D01*
X504132D01*
X501996D02*
Y106250D01*
X504496D02*
Y2000D01*
X501996D02*
Y25633D01*
X504132D02*
Y51167D01*
X486472D01*
Y25633D01*
X504132D01*
Y27996D02*
X511872D01*
Y25633D02*
X529532D01*
Y51167D01*
X511872D01*
Y25633D01*
X511996D02*
Y2000D01*
X514496D02*
Y25633D01*
X516996D02*
Y2000D01*
X519496D02*
Y25633D01*
X521996D02*
Y2000D01*
X524496D02*
Y25633D01*
X526996D02*
Y2000D01*
X529496D02*
Y25633D01*
X529532Y27996D02*
X537272D01*
Y30496D02*
X529532D01*
Y32996D02*
X537272D01*
Y35496D02*
X529532D01*
Y37996D02*
X537272D01*
Y40496D02*
X529532D01*
Y42996D02*
X537272D01*
Y45496D02*
X529532D01*
Y47996D02*
X537272D01*
Y50496D02*
X529532D01*
X529496Y51167D02*
Y77633D01*
X526996D02*
Y51167D01*
X524496D02*
Y77633D01*
X521996D02*
Y51167D01*
X519496D02*
Y77633D01*
X516996D02*
Y51167D01*
X514496D02*
Y77633D01*
X511996D02*
Y51167D01*
X511872Y50496D02*
X504132D01*
Y47996D02*
X511872D01*
Y45496D02*
X504132D01*
Y42996D02*
X511872D01*
Y40496D02*
X504132D01*
Y37996D02*
X511872D01*
Y35496D02*
X504132D01*
Y32996D02*
X511872D01*
Y30496D02*
X504132D01*
X499496Y25633D02*
Y2000D01*
X506996D02*
Y106250D01*
X509496D02*
Y2000D01*
X556996D02*
Y121500D01*
X511872Y100496D02*
X504132D01*
Y97996D02*
X511872D01*
Y95496D02*
X504132D01*
Y92996D02*
X511872D01*
Y90496D02*
X504132D01*
Y87996D02*
X511872D01*
Y85496D02*
X504132D01*
Y82996D02*
X511872D01*
Y80496D02*
X504132D01*
Y77996D02*
X511872D01*
X501996Y77633D02*
Y51167D01*
X499496D02*
Y77633D01*
Y103167D02*
Y106250D01*
X559496Y140500D02*
Y164000D01*
X561996D02*
Y140500D01*
X564496D02*
Y164000D01*
X566996D02*
Y140500D01*
X569496D02*
Y164000D01*
X571996D02*
Y140500D01*
X574496D02*
Y164000D01*
X576996D02*
Y140500D01*
X579496D02*
Y164000D01*
X581996D02*
Y140500D01*
X584496D02*
Y164000D01*
X586996D02*
Y140500D01*
X589496D02*
Y164000D01*
X591996D02*
Y140500D01*
X594496D02*
Y164000D01*
X596996D02*
Y140500D01*
X599495D02*
Y164000D01*
X601995D02*
Y140500D01*
X604495D02*
Y164000D01*
X606995D02*
Y140500D01*
X609495D02*
Y164000D01*
X611995D02*
Y140500D01*
X614495D02*
Y164000D01*
X616995D02*
Y140500D01*
X619495D02*
Y164000D01*
X621995D02*
Y140500D01*
X624495D02*
Y164000D01*
X626995D02*
Y140500D01*
X629495D02*
Y164000D01*
X631995D02*
Y140500D01*
X634495D02*
Y164000D01*
X636995D02*
Y140500D01*
X639495D02*
Y164000D01*
X641995D02*
Y140500D01*
X644495D02*
Y164000D01*
X646995D02*
Y140500D01*
X649495D02*
Y164000D01*
X651995D02*
Y140500D01*
X654495D02*
Y164000D01*
X656995D02*
Y140500D01*
X659495D02*
Y164000D01*
X661995D02*
Y140500D01*
X664495D02*
Y164000D01*
X666995D02*
Y140500D01*
X669495D02*
Y164000D01*
X671995D02*
Y140500D01*
X674495D02*
Y164000D01*
X676995D02*
Y140500D01*
X719495Y121500D02*
Y103167D01*
X721995D02*
Y121500D01*
X724495D02*
Y103167D01*
X726995D02*
Y121500D01*
X729495D02*
Y103167D01*
X715072Y100496D02*
X707332D01*
Y97996D02*
X715072D01*
Y95496D02*
X707332D01*
Y92996D02*
X715072D01*
Y90496D02*
X707332D01*
Y87996D02*
X715072D01*
Y85496D02*
X707332D01*
Y82996D02*
X715072D01*
Y80496D02*
X707332D01*
X736995Y121500D02*
Y2000D01*
X638872Y30496D02*
X631132D01*
Y32996D02*
X638872D01*
Y35496D02*
X631132D01*
Y37996D02*
X638872D01*
Y40496D02*
X631132D01*
Y42996D02*
X638872D01*
Y45496D02*
X631132D01*
Y47996D02*
X638872D01*
X769495Y103167D02*
Y121500D01*
X771995D02*
Y103167D01*
X774495D02*
Y121500D01*
X776995D02*
Y103167D01*
X779495D02*
Y121500D01*
X791995D02*
Y103167D01*
X794495D02*
Y121500D01*
X796995D02*
Y103167D01*
X819495Y51167D02*
Y76633D01*
X821995D02*
Y51167D01*
X824495D02*
Y76633D01*
X837017Y127404D02*
G03*
X831233Y124668I933J-9454D01*
G01*
X834495Y126799D02*
Y160746D01*
X834248D02*
X837976D01*
X836995D02*
Y159251D01*
X834248Y160746D02*
Y179246D01*
X851748D01*
X849495D02*
Y209828D01*
X850163Y210496D02*
X946252D01*
Y207996D02*
X847663D01*
X846995Y207328D02*
Y179246D01*
X844495D02*
Y204828D01*
X845163Y205496D02*
X966868D01*
X964888Y207386D02*
G03*
X967416Y205608I6364J6364D01*
G01*
X964888Y207386D02*
G03*
X967416Y205608I6364J6364D01*
G01*
X961995Y205250D02*
Y206750D01*
X959495D02*
Y205250D01*
X956995D02*
Y206750D01*
X954495D02*
Y204894D01*
X951995Y203730D02*
Y206750D01*
X949495D02*
Y201217D01*
X949064Y200496D02*
X840163D01*
X839495Y199828D02*
Y179246D01*
X841995D02*
Y202328D01*
X842663Y202996D02*
X951042D01*
X948171Y197996D02*
X837663D01*
X836995Y197328D02*
Y179246D01*
X834495D02*
Y194828D01*
X835163Y195496D02*
X899019D01*
X899495Y195791D02*
Y259828D01*
X900162Y260496D02*
X988748D01*
Y262996D02*
X902662D01*
X901995Y262328D02*
Y196774D01*
X904495Y197000D02*
Y264828D01*
X905162Y265496D02*
X988748D01*
Y267996D02*
X907662D01*
X906995Y267328D02*
Y197000D01*
X909495D02*
Y269828D01*
X910162Y270496D02*
X988748D01*
Y272996D02*
X912662D01*
X911995Y272328D02*
Y197000D01*
X914495D02*
Y274828D01*
X915162Y275496D02*
X988748D01*
Y277996D02*
X917662D01*
X916995Y277328D02*
Y197000D01*
X894495Y191150D02*
Y254828D01*
X895162Y255496D02*
X930250D01*
X931995Y255750D02*
Y303248D01*
X929495D02*
Y197000D01*
X926995D02*
Y303248D01*
X926250Y302996D02*
X988748D01*
Y300496D02*
X926250D01*
Y297996D02*
X988748D01*
Y295496D02*
X926250D01*
Y292996D02*
X988748D01*
Y290496D02*
X926500D01*
X926126Y287996D02*
X988748D01*
Y285496D02*
X924939D01*
X924495Y284898D02*
Y197000D01*
X921995D02*
Y282328D01*
X922662Y282996D02*
X988748D01*
Y280496D02*
X920162D01*
X919495Y279828D02*
Y197000D01*
X931995D02*
Y220250D01*
X930250Y220496D02*
X860163D01*
X859495Y219828D02*
Y179996D01*
X861995D02*
Y222328D01*
X862663Y222996D02*
X930250D01*
Y225496D02*
X865163D01*
X864495Y224828D02*
Y179996D01*
X866995Y179794D02*
Y227328D01*
X867663Y227996D02*
X930250D01*
Y230496D02*
X870163D01*
X869495Y229828D02*
Y178927D01*
X873349Y175496D02*
X892500D01*
Y172996D02*
X874537D01*
X874495Y173126D02*
Y234828D01*
X860000Y206000D02*
X930000D01*
X934495Y197000D02*
Y220250D01*
X936995D02*
Y197000D01*
X939495Y196875D02*
Y220250D01*
X941995D02*
Y196065D01*
X946645Y185496D02*
X948820D01*
X947250Y180496D02*
X953000D01*
X951995Y181770D02*
Y169849D01*
X953000Y170496D02*
X947250D01*
Y172996D02*
X953000D01*
Y175496D02*
X947250D01*
Y177996D02*
X953000D01*
X948000Y168000D02*
X946001Y166001D01*
X938000D01*
Y174002D01*
Y166001D02*
Y158000D01*
X925000Y157998D02*
Y165999D01*
Y174000D01*
Y157998D02*
X925000Y157998D01*
X946001Y166001D02*
X946750Y166750D01*
X946250Y140496D02*
X953750D01*
Y137996D02*
X946250D01*
Y138752D02*
Y136250D01*
Y135496D02*
X953750D01*
Y132996D02*
X946776D01*
X946986Y130496D02*
X953750D01*
Y127996D02*
X946483D01*
X937648Y130650D02*
X938000Y131002D01*
X937648Y130650D02*
X901500D01*
X885753Y127996D02*
X882404D01*
X885835Y140496D02*
X869241D01*
X869495Y140137D02*
Y141314D01*
X869742Y142996D02*
X885259D01*
X885575Y145496D02*
X869466D01*
X869495Y145386D02*
Y161064D01*
X868121Y160496D02*
X886773D01*
X885516Y157996D02*
X868484D01*
X868729Y155496D02*
X885271D01*
X885925Y152996D02*
X868075D01*
X866995Y151320D02*
Y149504D01*
X866160Y150496D02*
X887840D01*
X886995Y151332D02*
Y148068D01*
X886934Y147996D02*
X868317D01*
X871995Y139666D02*
Y162852D01*
X872069Y162925D02*
G03*
X874997Y169996I-7071J7071D01*
G01*
X874985Y170496D02*
X892500D01*
X886995Y125932D02*
Y124095D01*
X887401Y125496D02*
X882500D01*
Y122996D02*
X885973D01*
X977902Y73098D02*
X987000Y64000D01*
X1049000D01*
X1064000Y79000D01*
Y141000D01*
X1057000Y148000D01*
X1026750D01*
X1023000Y151750D01*
X1036250Y152996D02*
X1080000D01*
Y155496D02*
X1036250D01*
Y157996D02*
X1080000D01*
Y160496D02*
X1036250D01*
Y162996D02*
X1080000D01*
Y165496D02*
X1036250D01*
Y167996D02*
X1080000D01*
Y170496D02*
X1036250D01*
Y172996D02*
X1080000D01*
Y175496D02*
X1036250D01*
Y177996D02*
X1080000D01*
Y180496D02*
X1036250D01*
Y182996D02*
X1080000D01*
Y185496D02*
X1045250D01*
X1044495Y185248D02*
Y55000D01*
X1041995D02*
Y185248D01*
X1089000Y185496D02*
X1198000D01*
Y182996D02*
X1089000D01*
Y180496D02*
X1198000D01*
Y177996D02*
X1089000D01*
Y175496D02*
X1198000D01*
Y172996D02*
X1089000D01*
Y170496D02*
X1198000D01*
Y167996D02*
X1089000D01*
Y165496D02*
X1198000D01*
Y162996D02*
X1089000D01*
Y160496D02*
X1198000D01*
Y157996D02*
X1089000D01*
Y155496D02*
X1198000D01*
Y152996D02*
X1089000D01*
Y150496D02*
X1198000D01*
Y147996D02*
X1089000D01*
Y145496D02*
X1198000D01*
Y142996D02*
X1089000D01*
Y140496D02*
X1198000D01*
Y137996D02*
X1089000D01*
Y135496D02*
X1198000D01*
Y132996D02*
X1089000D01*
Y130496D02*
X1198000D01*
Y127996D02*
X1089000D01*
X1080000D02*
X1036250D01*
Y130496D02*
X1080000D01*
Y132996D02*
X1036250D01*
Y135496D02*
X1080000D01*
Y137996D02*
X1036250D01*
Y140496D02*
X1080000D01*
Y142996D02*
X1036250D01*
Y145496D02*
X1080000D01*
Y147996D02*
X1036250D01*
Y150496D02*
X1080000D01*
Y102996D02*
X1012132D01*
Y100496D02*
X1080000D01*
Y97996D02*
X1012132D01*
Y95496D02*
X1080000D01*
Y92996D02*
X1012132D01*
Y90496D02*
X1080000D01*
Y87996D02*
X1012132D01*
Y85496D02*
X1080000D01*
Y82996D02*
X1012132D01*
Y80496D02*
X1080000D01*
X1086364Y51636D02*
G03*
X1089000Y58000I-6364J6364D01*
G01*
X1085224Y50496D02*
X1131130D01*
X1129978Y47996D02*
X1082652D01*
X1081994Y47513D02*
Y2000D01*
X1079494D02*
Y46353D01*
X1077000Y46000D02*
G03*
X1083364Y48636I0J9000D01*
G01*
X1084494Y49767D02*
Y2000D01*
X1076994D02*
Y46000D01*
X1074494D02*
Y2000D01*
X1071994D02*
Y46000D01*
X1069494D02*
Y2000D01*
X1066994D02*
Y46000D01*
X1064494D02*
Y2000D01*
X1061994D02*
Y46000D01*
X1059494Y46000D02*
Y2000D01*
X1056994D02*
Y46000D01*
X1054494D02*
Y2000D01*
X1051994D02*
Y46000D01*
X1049494D02*
Y2000D01*
X1046995D02*
Y46000D01*
X1044495D02*
Y2000D01*
X1041995D02*
Y46000D01*
X1091994Y2000D02*
Y838000D01*
X1094494D02*
Y2000D01*
X1096994D02*
Y838000D01*
X1099494D02*
Y2000D01*
X1101994D02*
Y838000D01*
X1104494D02*
Y2000D01*
X1106994D02*
Y838000D01*
X1109494D02*
Y2000D01*
X1111994D02*
Y838000D01*
X1114494D02*
Y2000D01*
X1116994D02*
Y838000D01*
X1119494D02*
Y2000D01*
X1121994D02*
Y838000D01*
X1124494D02*
Y2000D01*
X1191994Y65554D02*
Y774446D01*
X1193397Y775495D02*
X1198000D01*
Y772995D02*
X1189822D01*
X1189494Y772793D02*
Y67208D01*
X1188146Y67996D02*
X1198000D01*
Y70496D02*
X1182820D01*
X1181994Y70804D02*
Y769196D01*
X1179494Y768384D02*
Y71616D01*
X1176994Y72258D02*
Y767743D01*
X1178057Y767995D02*
X1198000D01*
Y765495D02*
X760000D01*
X740000D02*
X700607D01*
X699495Y765201D02*
Y762367D01*
X696995D02*
Y765013D01*
X701995Y766067D02*
Y762367D01*
X704495D02*
Y767854D01*
X704636Y767995D02*
X740000D01*
Y762995D02*
X2000D01*
Y760495D02*
X359549D01*
Y757995D02*
X2000D01*
Y755495D02*
X359549D01*
Y752995D02*
X2000D01*
Y750495D02*
X359549D01*
Y747995D02*
X2000D01*
Y745495D02*
X240634D01*
Y746432D02*
X266168D01*
Y728772D01*
X240634D01*
Y746432D01*
X241996D02*
Y838000D01*
X244496D02*
Y746432D01*
X246996D02*
Y838000D01*
X249496D02*
Y746432D01*
X251996D02*
Y838000D01*
X254496D02*
Y746432D01*
X240634Y742995D02*
X2000D01*
Y740495D02*
X240634D01*
Y737995D02*
X2000D01*
Y735495D02*
X240634D01*
Y732995D02*
X2000D01*
Y730495D02*
X240634D01*
X241996Y728772D02*
Y721032D01*
X240634D02*
X266168D01*
Y703372D01*
X240634D01*
Y721032D01*
Y720495D02*
X2000D01*
Y717995D02*
X240634D01*
Y715495D02*
X2000D01*
Y712995D02*
X240634D01*
Y710495D02*
X2000D01*
Y707995D02*
X240634D01*
Y705495D02*
X2000D01*
Y702995D02*
X303059D01*
X301996Y703333D02*
Y695671D01*
X305401Y696302D02*
G03*
X301896Y695632I0J-9500D01*
G01*
X292634D01*
Y677972D01*
X301896D01*
D02*
G03*
X305401Y677302I3504J8830D01*
G01*
X337802D01*
D02*
G03*
X347302Y686802I0J9500D01*
G01*
D02*
G03*
X337802Y696302I-9500J0D01*
G01*
X305401D01*
X304496Y696259D02*
Y702745D01*
X306996Y702702D02*
Y696302D01*
X309496D02*
Y702702D01*
X311996D02*
Y696302D01*
X314496D02*
Y702702D01*
X299496Y703372D02*
Y695632D01*
X296996D02*
Y703372D01*
X294496D02*
Y695632D01*
X292634Y695495D02*
X266168D01*
Y695632D02*
X240634D01*
Y677972D01*
X266168D01*
Y695632D01*
X264496D02*
Y703372D01*
X261996D02*
Y695632D01*
X259496D02*
Y703372D01*
X256996D02*
Y695632D01*
X266168Y692995D02*
X292634D01*
Y690495D02*
X266168D01*
Y687995D02*
X292634D01*
Y685495D02*
X266168D01*
Y682995D02*
X292634D01*
Y680495D02*
X266168D01*
Y677995D02*
X292634D01*
X294496Y677972D02*
Y670232D01*
X296996D02*
Y677972D01*
X299496D02*
Y670232D01*
X301996Y670271D02*
Y677933D01*
X304496Y677345D02*
Y670859D01*
X302651Y670495D02*
X2000D01*
Y672995D02*
X380172D01*
X379496Y673671D02*
Y658939D01*
X380750Y660495D02*
X377940D01*
X376996Y661439D02*
Y676171D01*
X377672Y675495D02*
X2000D01*
Y677995D02*
X240634D01*
X241996Y677972D02*
Y670232D01*
X244496D02*
Y677972D01*
X246996D02*
Y670232D01*
X249496D02*
Y677972D01*
X251996D02*
Y670232D01*
X254496D02*
Y677972D01*
X240634Y680495D02*
X2000D01*
Y682995D02*
X240634D01*
Y685495D02*
X2000D01*
Y687995D02*
X240634D01*
Y690495D02*
X2000D01*
Y692995D02*
X240634D01*
Y695495D02*
X2000D01*
Y697995D02*
X355172D01*
X354496Y698671D02*
Y670902D01*
X356996D02*
Y696171D01*
X357672Y695495D02*
X341633D01*
X341996Y695326D02*
Y703381D01*
X341026Y702995D02*
X350172D01*
X349496Y703671D02*
Y670902D01*
X346996D02*
Y684411D01*
X347211Y685495D02*
X367672D01*
X366996Y686171D02*
Y670273D01*
X366348Y670495D02*
X380750D01*
X399750D02*
X1198000D01*
Y672995D02*
X399750D01*
Y676352D02*
G03*
X396968Y683069I-9500J0D01*
G01*
X398799Y680495D02*
X1198000D01*
Y697995D02*
X382042D01*
X381996Y698041D02*
Y838000D01*
X379496D02*
Y700541D01*
X379542Y700495D02*
X1198000D01*
Y702995D02*
X377042D01*
X376996Y703041D02*
Y736850D01*
X377049Y737995D02*
X384869D01*
Y740495D02*
X377049D01*
Y742995D02*
X384869D01*
Y745495D02*
X377049D01*
Y747995D02*
X384869D01*
Y750495D02*
X377049D01*
Y752995D02*
X384869D01*
Y755495D02*
X377049D01*
Y757995D02*
X384869D01*
X414496Y762367D02*
Y788833D01*
X416996D02*
Y762367D01*
X419496D02*
Y788833D01*
X421996D02*
Y762367D01*
X424496D02*
Y788833D01*
X426996D02*
Y762367D01*
X427929Y760495D02*
X435669D01*
Y762367D02*
X453329D01*
Y736833D01*
X435669D01*
Y762367D01*
Y757995D02*
X427929D01*
Y755495D02*
X435669D01*
Y752995D02*
X427929D01*
Y750495D02*
X435669D01*
Y747995D02*
X427929D01*
Y745495D02*
X435669D01*
Y742995D02*
X427929D01*
Y740495D02*
X435669D01*
Y737995D02*
X427929D01*
X426996Y736833D02*
Y637817D01*
X424496D02*
Y736833D01*
X421996D02*
Y637817D01*
X419496D02*
Y736833D01*
X416996D02*
Y637817D01*
X414496Y637751D02*
Y736833D01*
X401996D02*
Y424439D01*
X400939Y425495D02*
X632880D01*
X631995Y424733D02*
Y442183D01*
X634495D02*
Y426457D01*
X636995Y427175D02*
Y442183D01*
X639495D02*
Y427250D01*
X638136D02*
G03*
X631949Y424687I0J-8750D01*
G01*
X638136Y427250D02*
G03*
X631949Y424687I0J-8750D01*
G01*
X614012Y406750D01*
X612698D01*
D02*
G03*
X604288Y406250I-3700J-8750D01*
G01*
X602748D01*
X601248D01*
X602748D01*
X601995D02*
Y442183D01*
X599495D02*
Y406368D01*
X599709Y406250D02*
G03*
X594998Y407500I-4710J-8250D01*
G01*
X586000D01*
D02*
G03*
X579273Y404708I0J-9500D01*
G01*
X573292Y398727D01*
D02*
G03*
X570500Y392000I6708J-6727D01*
G01*
X573282Y398717D02*
G03*
X570500Y392000I6718J-6718D01*
G01*
Y361935D01*
X527727Y404708D01*
D02*
G03*
X521000Y407500I-6727J-6708D01*
G01*
X527718Y404717D02*
G03*
X521000Y407500I-6718J-6718D01*
G01*
X418935D01*
X399750Y426685D01*
Y676352D01*
Y667995D02*
X1198000D01*
Y665495D02*
X399750D01*
Y662995D02*
X1198000D01*
Y660495D02*
X399750D01*
Y657995D02*
X1198000D01*
Y655495D02*
X399750D01*
Y652995D02*
X1198000D01*
Y650495D02*
X399750D01*
Y647995D02*
X1198000D01*
Y645495D02*
X399750D01*
Y642995D02*
X1198000D01*
Y640495D02*
X399750D01*
Y637995D02*
X1198000D01*
Y635495D02*
X995552D01*
X994495Y636320D02*
Y736833D01*
X994469Y737995D02*
X986729D01*
Y736833D02*
Y762367D01*
X969069D01*
Y736833D01*
X986729D01*
X984495D02*
Y637817D01*
X981995D02*
Y736833D01*
X979495D02*
Y637817D01*
X986995D02*
Y838000D01*
X989495D02*
Y637817D01*
X991995Y637554D02*
Y838000D01*
X994495D02*
Y815367D01*
X996995D02*
Y838000D01*
X999495D02*
Y815367D01*
X1001995D02*
Y838000D01*
X1004495D02*
Y815367D01*
X1006995D02*
Y838000D01*
X1009495D02*
Y815367D01*
X1011995D02*
Y838000D01*
X1014495D02*
Y249875D01*
X1016995Y250002D02*
Y838000D01*
X1019495D02*
Y250002D01*
X1021995D02*
Y838000D01*
X1024495D02*
Y250002D01*
X1026995D02*
Y838000D01*
X1029495D02*
Y250002D01*
X1031995D02*
Y838000D01*
X1034495D02*
Y250002D01*
X1036995D02*
Y838000D01*
X1039495D02*
Y250002D01*
X1009248Y252996D02*
X1198000D01*
Y255496D02*
X1009248D01*
Y257996D02*
X1198000D01*
Y260496D02*
X1009248D01*
Y262996D02*
X1198000D01*
Y265496D02*
X1009248D01*
Y267996D02*
X1198000D01*
Y270496D02*
X1009248D01*
Y272996D02*
X1198000D01*
Y275496D02*
X1009248D01*
Y277996D02*
X1198000D01*
Y280496D02*
X1009248D01*
Y282996D02*
X1198000D01*
Y285496D02*
X1009248D01*
Y287996D02*
X1198000D01*
Y290496D02*
X1009248D01*
Y292996D02*
X1198000D01*
Y295496D02*
X1009248D01*
Y297996D02*
X1198000D01*
Y300496D02*
X1009248D01*
Y302996D02*
X1198000D01*
Y305496D02*
X1009248D01*
X988748D02*
X944250D01*
X941995Y303248D02*
Y255750D01*
X939495D02*
Y303248D01*
X936995D02*
Y255750D01*
X934495D02*
Y303248D01*
X930250Y252996D02*
X892662D01*
X892500Y300916D02*
Y340499D01*
X887500Y340498D02*
Y302987D01*
X787513Y203000D01*
X419000D01*
X417000Y201000D01*
X411000D01*
X409034Y192217D02*
G03*
X416469Y184131I8966J783D01*
G01*
X416469Y184131D02*
G03*
X423185Y178184I8531J2868D01*
G01*
D02*
G03*
X429388Y171387I8815J1816D01*
G01*
X429388Y171387D02*
G03*
X437050Y165050I8612J2612D01*
G01*
D02*
G03*
X437515Y163000I8950J950D01*
G01*
X405728D01*
X364728Y204000D01*
X393000D01*
D02*
G03*
X404081Y195244I9000J-0D01*
G01*
X404081D02*
G03*
X409034Y192217I6919J5756D01*
G01*
X409355Y190496D02*
X378232D01*
X376996Y191732D02*
Y204000D01*
X379496D02*
Y189232D01*
X380732Y187996D02*
X410519D01*
X409496Y190054D02*
Y163000D01*
X406996D02*
Y192940D01*
X406884Y192996D02*
X375732D01*
X374496Y194232D02*
Y204000D01*
X371996D02*
Y196732D01*
X373232Y195496D02*
X399053D01*
X399496Y195355D02*
Y169232D01*
X400732Y167996D02*
X431295D01*
X431996Y167295D02*
Y163000D01*
X429496D02*
Y171054D01*
X429710Y170496D02*
X398232D01*
X396996Y171732D02*
Y196519D01*
X395295Y197996D02*
X370732D01*
X369496Y199232D02*
Y204000D01*
X366996D02*
Y201732D01*
X368232Y200496D02*
X393710D01*
X394496Y199031D02*
Y174232D01*
X395732Y172996D02*
X426348D01*
X426996Y172519D02*
Y163000D01*
X424496D02*
Y175031D01*
X424208Y175496D02*
X393232D01*
X391996Y176732D02*
Y204000D01*
X393056Y202996D02*
X365732D01*
X355999Y213000D02*
X783371D01*
X877500Y307130D01*
Y340498D01*
X882500Y340499D02*
Y305058D01*
X785442Y208000D01*
X406000D01*
X402000Y204000D01*
X401996Y195000D02*
Y166732D01*
X403232Y165496D02*
X435053D01*
X434496Y165710D02*
Y163000D01*
X421996D02*
Y178515D01*
X423226Y177996D02*
X390732D01*
X389496Y179232D02*
Y204000D01*
X386996D02*
Y181732D01*
X388232Y180496D02*
X418778D01*
X419496Y179878D02*
Y163000D01*
X416996D02*
Y182883D01*
X416939Y182996D02*
X385732D01*
X384496Y184232D02*
Y204000D01*
X381996D02*
Y186732D01*
X383232Y185496D02*
X413031D01*
X411996Y186295D02*
Y163000D01*
X414496D02*
Y184710D01*
X424999Y186999D02*
X431000Y193000D01*
X431000Y193000D02*
X791655D01*
X897500Y298845D01*
Y334000D01*
X907500D02*
Y294703D01*
X795797Y183000D01*
X449000D01*
X449001Y183000D02*
X440000Y174000D01*
X438000D01*
X436996Y165056D02*
Y163000D01*
X446000Y166000D02*
X458000Y178000D01*
X458000Y178000D02*
X797868D01*
X912500Y292632D01*
Y340499D01*
X902500D02*
Y296774D01*
X793726Y188000D01*
X440000D01*
X440000Y188000D02*
X432000Y180000D01*
X404496Y164232D02*
Y194779D01*
X418000Y193000D02*
X419071D01*
X424072Y198000D01*
X424000Y198000D02*
X789584D01*
X892500Y300916D01*
X917500Y290573D02*
Y290561D01*
X799939Y173000D01*
X467000D01*
X454750Y160750D01*
X452999D01*
X471996Y163000D02*
Y164000D01*
X474496D02*
Y163000D01*
X476996D02*
Y164000D01*
X479496D02*
Y163000D01*
X481996D02*
Y164000D01*
X484496D02*
Y163000D01*
X486996D02*
Y164000D01*
X489496D02*
Y163000D01*
X491996D02*
Y164000D01*
X494496D02*
Y163000D01*
X496996D02*
Y164000D01*
Y106250D02*
Y103167D01*
X494496D02*
Y106250D01*
X491996D02*
Y103167D01*
X489496D02*
Y106250D01*
X486996D02*
Y103167D01*
X486472Y102996D02*
X478732D01*
Y103167D02*
Y77633D01*
X461072D01*
Y103167D01*
X478732D01*
X476996D02*
Y106250D01*
X479496D02*
Y2000D01*
X476996D02*
Y25633D01*
X478732D02*
Y51167D01*
X461072D01*
Y25633D01*
X478732D01*
Y27996D02*
X486472D01*
Y30496D02*
X478732D01*
Y32996D02*
X486472D01*
Y35496D02*
X478732D01*
Y37996D02*
X486472D01*
Y40496D02*
X478732D01*
Y42996D02*
X486472D01*
Y45496D02*
X478732D01*
Y47996D02*
X486472D01*
Y50496D02*
X478732D01*
X476996Y51167D02*
Y77633D01*
X478732Y77996D02*
X486472D01*
X486996Y77633D02*
Y51167D01*
X489496D02*
Y77633D01*
X491996D02*
Y51167D01*
X494496D02*
Y77633D01*
X496996D02*
Y51167D01*
X474496D02*
Y77633D01*
X471996D02*
Y51167D01*
X469496D02*
Y77633D01*
X466996D02*
Y51167D01*
X464496D02*
Y77633D01*
X461996D02*
Y51167D01*
X461072Y50496D02*
X453332D01*
Y51167D02*
X435672D01*
Y25633D01*
X453332D01*
Y51167D01*
X451996D02*
Y77633D01*
X453332D02*
Y103167D01*
X435672D01*
Y77633D01*
X453332D01*
Y77996D02*
X461072D01*
Y80496D02*
X453332D01*
Y82996D02*
X461072D01*
Y85496D02*
X453332D01*
Y87996D02*
X461072D01*
Y90496D02*
X453332D01*
Y92996D02*
X461072D01*
Y95496D02*
X453332D01*
Y97996D02*
X461072D01*
Y100496D02*
X453332D01*
Y102996D02*
X461072D01*
X461996Y103167D02*
Y106250D01*
X459496D02*
Y2000D01*
X461996D02*
Y25633D01*
X464496D02*
Y2000D01*
X466996D02*
Y25633D01*
X469496D02*
Y2000D01*
X471996D02*
Y25633D01*
X474496D02*
Y2000D01*
X481996D02*
Y106250D01*
X484496D02*
Y2000D01*
X486996D02*
Y25633D01*
X489496D02*
Y2000D01*
X491996D02*
Y25633D01*
X494496D02*
Y2000D01*
X496996D02*
Y25633D01*
X461072Y27996D02*
X453332D01*
Y30496D02*
X461072D01*
Y32996D02*
X453332D01*
Y35496D02*
X461072D01*
Y37996D02*
X453332D01*
Y40496D02*
X461072D01*
Y42996D02*
X453332D01*
Y45496D02*
X461072D01*
Y47996D02*
X453332D01*
X449496Y51167D02*
Y77633D01*
X446996D02*
Y51167D01*
X444496D02*
Y77633D01*
X441996D02*
Y51167D01*
X439496D02*
Y77633D01*
X436996D02*
Y51167D01*
Y25633D02*
Y2000D01*
X439496D02*
Y25633D01*
X441996D02*
Y2000D01*
X444496D02*
Y25633D01*
X446996D02*
Y2000D01*
X449496D02*
Y25633D01*
X451996D02*
Y2000D01*
X454496D02*
Y106250D01*
X451996D02*
Y103167D01*
X449496D02*
Y106250D01*
X446996D02*
Y103167D01*
X444496D02*
Y106250D01*
X441996D02*
Y103167D01*
X439496D02*
Y106250D01*
X436996D02*
Y103167D01*
X456996Y106250D02*
Y2000D01*
X435672Y27996D02*
X427932D01*
Y25633D02*
Y51167D01*
X410272D01*
Y25633D01*
X427932D01*
X426996D02*
Y2000D01*
X424496D02*
Y25633D01*
X421996D02*
Y2000D01*
X419496D02*
Y25633D01*
X416996D02*
Y2000D01*
X414496D02*
Y25633D01*
X411996D02*
Y2000D01*
X429496D02*
Y106250D01*
X431996D02*
Y2000D01*
X434496D02*
Y106250D01*
X435672Y102996D02*
X427932D01*
X426996Y103167D02*
Y106250D01*
X424496D02*
Y103167D01*
X421996D02*
Y106250D01*
X419496D02*
Y103167D01*
X416996D02*
Y106250D01*
X414496D02*
Y103167D01*
X410272Y100496D02*
X402532D01*
Y97996D02*
X410272D01*
Y95496D02*
X402532D01*
Y92996D02*
X410272D01*
Y90496D02*
X402532D01*
Y87996D02*
X410272D01*
Y85496D02*
X402532D01*
Y82996D02*
X410272D01*
Y80496D02*
X402532D01*
Y77996D02*
X410272D01*
X411996Y77633D02*
Y51167D01*
X410272Y50496D02*
X402532D01*
X401996Y51167D02*
Y77633D01*
X399496D02*
Y51167D01*
X396996D02*
Y77633D01*
X394496D02*
Y51167D01*
X391996D02*
Y77633D01*
X389496D02*
Y51167D01*
X386996D02*
Y77633D01*
X384872Y77996D02*
X378132D01*
X376996Y76633D02*
Y51150D01*
X377052Y50496D02*
X384872D01*
Y47996D02*
X377052D01*
Y45496D02*
X384872D01*
Y42996D02*
X377052D01*
Y40496D02*
X384872D01*
Y37996D02*
X377052D01*
Y35496D02*
X384872D01*
Y32996D02*
X377052D01*
Y30496D02*
X384872D01*
X402532D02*
X410272D01*
Y27996D02*
X402532D01*
Y32996D02*
X410272D01*
Y35496D02*
X402532D01*
Y37996D02*
X410272D01*
Y40496D02*
X402532D01*
Y42996D02*
X410272D01*
Y45496D02*
X402532D01*
Y47996D02*
X410272D01*
X414496Y51167D02*
Y77633D01*
X416996D02*
Y51167D01*
X419496D02*
Y77633D01*
X421996D02*
Y51167D01*
X424496D02*
Y77633D01*
X426996D02*
Y51167D01*
X427932Y50496D02*
X435672D01*
Y47996D02*
X427932D01*
Y45496D02*
X435672D01*
Y42996D02*
X427932D01*
Y40496D02*
X435672D01*
Y37996D02*
X427932D01*
Y35496D02*
X435672D01*
Y32996D02*
X427932D01*
Y30496D02*
X435672D01*
X478732Y80496D02*
X486472D01*
Y82996D02*
X478732D01*
Y85496D02*
X486472D01*
Y87996D02*
X478732D01*
Y90496D02*
X486472D01*
Y92996D02*
X478732D01*
Y95496D02*
X486472D01*
Y97996D02*
X478732D01*
Y100496D02*
X486472D01*
X474496Y103167D02*
Y106250D01*
X471996D02*
Y103167D01*
X469496D02*
Y106250D01*
X466996D02*
Y103167D01*
X464496D02*
Y106250D01*
X516999Y154000D02*
X402000D01*
X326398Y229602D01*
X305401D01*
X304496Y238556D02*
Y245172D01*
X301996D02*
Y238432D01*
X299496D02*
Y245172D01*
X296996D02*
Y238432D01*
X294496D02*
Y245172D01*
X291996D02*
Y227000D01*
X292634Y227996D02*
X266168D01*
X266996Y227000D02*
Y245172D01*
X267168Y245496D02*
X291634D01*
X292634Y237996D02*
X266168D01*
X264496Y238432D02*
Y245172D01*
X261996D02*
Y238432D01*
X259496D02*
Y245172D01*
X256996D02*
Y238432D01*
X266168Y235496D02*
X292634D01*
Y232996D02*
X266168D01*
Y230496D02*
X292634D01*
X289496Y227000D02*
Y259600D01*
X286996D02*
Y227000D01*
X284496D02*
Y259600D01*
X281996D02*
Y227000D01*
X279496D02*
Y259600D01*
X276996D02*
Y227000D01*
X274496D02*
Y259600D01*
X271996D02*
Y227000D01*
X269496D02*
Y259600D01*
X267168Y257996D02*
X291634D01*
Y255496D02*
X267168D01*
Y252996D02*
X291634D01*
Y250496D02*
X267168D01*
Y247996D02*
X291634D01*
X305401Y280402D02*
X305999Y281000D01*
X403000D01*
X402402Y280401D01*
X411948Y281968D02*
G03*
X411062Y285000I-8948J-969D01*
G01*
X411996D02*
Y281963D01*
X411776Y282996D02*
X465513D01*
X464496Y281644D02*
Y381500D01*
X466996D02*
Y285652D01*
X466872Y285496D02*
X427947D01*
X426996Y285224D02*
Y267000D01*
X424496D02*
Y285000D01*
X425000D02*
G03*
X434000Y294000I0J9000D01*
G01*
X433944Y292996D02*
X475338D01*
X474496Y292221D02*
Y381500D01*
X471996D02*
Y288774D01*
X469869Y287996D02*
X431705D01*
X431996Y288337D02*
Y267000D01*
X429496D02*
Y286203D01*
X433290Y290496D02*
X473203D01*
X469496Y287792D02*
Y381500D01*
X476996D02*
Y294060D01*
X479352Y295496D02*
X433875D01*
X433064Y297996D02*
X480513D01*
X479496Y295948D02*
Y381500D01*
X481996D02*
Y299705D01*
X483019Y300496D02*
X431229D01*
X431996Y299662D02*
Y310400D01*
X434496D02*
Y267000D01*
X421996D02*
Y285000D01*
X419496D02*
Y275970D01*
X419647Y275496D02*
X457030D01*
X456996Y275484D02*
Y336837D01*
X458691Y337996D02*
X557670D01*
X559496Y336170D02*
Y327000D01*
X561996D02*
Y333670D01*
X562670Y332996D02*
X552730D01*
X551996Y333711D02*
Y343670D01*
X552670Y342996D02*
X461774D01*
X461996Y344716D02*
Y280480D01*
X462019Y280496D02*
X415992D01*
X416996Y279714D02*
Y285000D01*
X414496D02*
Y281305D01*
X418486Y277996D02*
X459513D01*
X459496Y277969D02*
Y338770D01*
X459364Y338636D02*
G03*
X462000Y345000I-6364J6364D01*
G01*
D02*
G03*
X460774Y349535I-9000J0D01*
G01*
D02*
G03*
X454735Y353831I-7774J-4535D01*
G01*
X454735Y353831D02*
G03*
X455000Y356000I-8735J2168D01*
G01*
D02*
G03*
X452364Y362364I-9000J0D01*
G01*
X451762Y362966D01*
X451996Y362732D02*
Y381500D01*
X449496D02*
Y364615D01*
X446996Y365459D02*
Y381500D01*
X444496D02*
Y365602D01*
X446776Y365496D02*
X530170D01*
X529496Y366170D02*
Y322873D01*
X530512Y322996D02*
X447064D01*
X446996Y323131D02*
Y335800D01*
X449496D02*
Y267000D01*
X446996D02*
Y314868D01*
X447290Y315496D02*
X519019D01*
X519496Y315792D02*
Y376170D01*
X520170Y375496D02*
X385792D01*
X384496Y373771D02*
Y365602D01*
X381996D02*
Y371936D01*
X383652Y372996D02*
X522670D01*
X521996Y373670D02*
Y316774D01*
X522935Y317996D02*
X447944D01*
X447875Y320496D02*
X524770D01*
X524496Y320221D02*
Y371170D01*
X525170Y370496D02*
X378645D01*
X379496Y371125D02*
Y365602D01*
X376996D02*
Y367338D01*
X377480Y367996D02*
X527670D01*
X534496Y361170D02*
Y327792D01*
X534869Y327996D02*
X441267D01*
X444964Y325764D02*
G03*
X440549Y328186I-6364J-6364D01*
G01*
X444964Y325764D02*
G03*
X440549Y328186I-6364J-6364D01*
G01*
Y328186D02*
G03*
X441000Y331000I-8549J2813D01*
G01*
D02*
G03*
X439613Y335800I-9000J0D01*
G01*
X452726D01*
D02*
G03*
X459164Y338436I74J9000D01*
G01*
X452800Y335800D02*
G03*
X459164Y338436I0J9000D01*
G01*
X452800Y335800D02*
G03*
X459164Y338436I0J9000D01*
G01*
X459364Y338636D02*
G03*
X462000Y345000I-6364J6364D01*
G01*
D02*
G03*
X460774Y349535I-9000J0D01*
G01*
D02*
G03*
X454735Y353831I-7774J-4535D01*
G01*
X454986Y355496D02*
X540170D01*
X539496Y356170D02*
Y333221D01*
X539287Y332996D02*
X440776D01*
X440986Y330496D02*
X537706D01*
X536996Y328774D02*
Y358670D01*
X537670Y357996D02*
X454776D01*
X454496Y358971D02*
Y381500D01*
X456996D02*
Y353064D01*
X457132Y352996D02*
X542670D01*
X541996Y353670D02*
Y335060D01*
X543031Y335496D02*
X439797D01*
X441996Y335800D02*
Y327735D01*
X444496Y326200D02*
Y335800D01*
X451996D02*
Y271115D01*
X451707Y270496D02*
X419645D01*
X419496Y270030D02*
Y267000D01*
X418480Y267996D02*
X451055D01*
X453288Y272996D02*
X420000D01*
X411000Y273000D02*
X410979Y273021D01*
X387021D01*
X382750Y268750D01*
X382204D01*
X382054Y268600D01*
X257000D01*
X253401Y272199D01*
Y280402D01*
X240634Y280496D02*
X2000D01*
Y282996D02*
X240634D01*
Y285496D02*
X2000D01*
Y287996D02*
X240634D01*
X241996Y289232D02*
Y296972D01*
X240634Y297996D02*
X2000D01*
Y300496D02*
X240634D01*
Y302996D02*
X2000D01*
Y305496D02*
X240634D01*
X244423Y296972D02*
G03*
X247037Y291235I8978J627D01*
G01*
X246996Y291276D02*
Y289232D01*
X247776Y290496D02*
X2000D01*
Y292996D02*
X245667D01*
X244650Y295496D02*
X2000D01*
Y277996D02*
X240634D01*
Y275496D02*
X2000D01*
Y272996D02*
X240634D01*
X241996Y271572D02*
Y264832D01*
X244496D02*
Y270892D01*
X244563Y270496D02*
X2000D01*
Y267996D02*
X245443D01*
X246996Y265876D02*
Y264832D01*
X244423Y271572D02*
G03*
X247037Y265835I8978J627D01*
G01*
X247376Y265496D02*
X2000D01*
Y262996D02*
X239634D01*
Y260496D02*
X2000D01*
Y257996D02*
X239634D01*
Y255496D02*
X2000D01*
Y252996D02*
X239634D01*
Y250496D02*
X2000D01*
Y247996D02*
X239634D01*
X244496Y289232D02*
Y296292D01*
X253401Y297599D02*
X257000Y294000D01*
X425000D01*
X425000Y294000D01*
X426484Y302996D02*
X486512D01*
X486996Y304116D02*
Y381500D01*
X484496D02*
Y301290D01*
X487872Y305496D02*
X426986D01*
X426996Y305718D02*
Y302776D01*
X429496Y301797D02*
Y310400D01*
X426996D02*
Y306282D01*
X418000Y306000D02*
X417802Y305802D01*
X305401D01*
X306996Y245172D02*
Y238602D01*
X309496D02*
Y245172D01*
X311996D02*
Y238602D01*
X314496D02*
Y245172D01*
X316056Y242996D02*
X2000D01*
Y245496D02*
X239634D01*
X240634Y235496D02*
X2000D01*
Y232996D02*
X240634D01*
Y230496D02*
X2000D01*
Y227996D02*
X240634D01*
Y225496D02*
X2000D01*
Y222996D02*
X240634D01*
X241996Y220772D02*
Y213032D01*
X240634Y212996D02*
X2000D01*
Y210496D02*
X240634D01*
Y207996D02*
X2000D01*
Y205496D02*
X240634D01*
Y202996D02*
X2000D01*
Y200496D02*
X240634D01*
Y197996D02*
X2000D01*
Y195496D02*
X240634D01*
X241996Y195372D02*
Y187632D01*
X244496D02*
Y192689D01*
X244388Y192996D02*
X2000D01*
Y190496D02*
X245657D01*
X243922Y195372D02*
G03*
X246692Y189272I9479J627D01*
G01*
X246996Y188969D02*
Y187632D01*
X247969Y187996D02*
X2000D01*
Y215496D02*
X246607D01*
X246996Y215076D02*
Y213032D01*
X244423Y220772D02*
G03*
X247037Y215035I8978J627D01*
G01*
X244496Y213032D02*
Y220092D01*
X244446Y220496D02*
X2000D01*
Y217996D02*
X245069D01*
X253401Y178802D02*
Y170599D01*
X240634Y135496D02*
X2000D01*
Y132996D02*
X240634D01*
Y130496D02*
X2000D01*
Y127996D02*
X240634D01*
Y93772D02*
X248195D01*
X244496D02*
Y2000D01*
X251996D02*
Y92448D01*
X254496Y92352D02*
Y2000D01*
X236996D02*
Y471638D01*
X236312Y470495D02*
X245854D01*
X246996Y469076D02*
Y467032D01*
X244423Y474772D02*
G03*
X247037Y469035I8978J627D01*
G01*
X248077Y467995D02*
X233341D01*
X234496Y468681D02*
Y2000D01*
X231996D02*
Y467446D01*
X229496Y467183D02*
Y328134D01*
X229541Y327996D02*
X240634D01*
Y330496D02*
X228354D01*
X226996Y332145D02*
Y403150D01*
X227050D02*
Y440650D01*
X192550D01*
Y411850D01*
X191750D01*
Y412850D01*
X186750D01*
X179250D01*
X186750D01*
X186996D02*
Y467183D01*
X189496D02*
Y412850D01*
X192550Y412996D02*
X143450D01*
Y411850D02*
X145250D01*
X150250D01*
X145250D01*
X144496D02*
Y467183D01*
X146996D02*
Y411850D01*
X149496D02*
Y467183D01*
X151996D02*
Y411850D01*
X150750D02*
X154250D01*
X155750D01*
X154250D01*
Y412850D01*
X166750D01*
Y411850D01*
X170250D01*
X166750D01*
X165250D01*
X166750D01*
X166996D02*
Y467183D01*
X164496D02*
Y412850D01*
X161996D02*
Y467183D01*
X159496D02*
Y412850D01*
X156996D02*
Y467183D01*
X154496D02*
Y412850D01*
Y411850D01*
X154250D02*
X150750D01*
X143450D02*
Y440650D01*
X108950D01*
Y403150D01*
X140250D01*
Y392350D01*
X145250D01*
X146500D01*
X145250D01*
X144496D02*
Y391486D01*
X145000Y391500D02*
G03*
X138636Y388864I0J-9000D01*
G01*
X145000Y391500D02*
G03*
X138636Y388864I0J-9000D01*
G01*
X133636Y383864D01*
D02*
G03*
X131000Y377500I6364J-6364D01*
G01*
X133636Y383864D02*
G03*
X131000Y377500I6364J-6364D01*
G01*
Y369498D01*
D02*
G03*
X131750Y365901I9000J0D01*
G01*
Y363248D01*
Y361748D01*
Y363248D01*
Y362996D02*
X2000D01*
Y360496D02*
X131750D01*
Y360209D02*
G03*
X130500Y355498I8250J-4710D01*
G01*
Y350622D01*
D02*
G03*
X132929Y340429I9500J-3122D01*
G01*
X132929Y340429D02*
G03*
X147825Y341273I7071J7071D01*
G01*
D02*
G03*
X160500Y339754I7175J6227D01*
G01*
Y339502D02*
G03*
X161020Y336402I9500J0D01*
G01*
D02*
G03*
X161750Y333405I8980J600D01*
G01*
Y333252D02*
Y331752D01*
Y333252D01*
X161819D02*
G03*
X162466Y332078I8181J3750D01*
G01*
X161996Y331752D02*
Y332886D01*
X161750Y332996D02*
X2000D01*
Y330496D02*
X161336D01*
X161750Y331153D02*
G03*
X161750Y319850I8250J-5651D01*
G01*
D02*
G03*
X163680Y317752I8250J5651D01*
G01*
D02*
G03*
X170000Y315502I6320J7750D01*
G01*
X181374D01*
D02*
G03*
X184502Y315000I3127J9498D01*
G01*
X192500D01*
X220000D01*
D02*
G03*
X230000Y325000I0J10000D01*
G01*
D02*
G03*
X220000Y335000I-10000J0D01*
G01*
X193775D01*
D02*
G03*
X193980Y336402I-8775J2002D01*
G01*
D02*
G03*
X194500Y339502I-8980J3100D01*
G01*
Y346748D01*
X209250D01*
Y360663D01*
D02*
G03*
X217000Y370000I-1750J9337D01*
G01*
D02*
G03*
X209000Y379381I-9500J0D01*
G01*
X209496Y379288D02*
Y403150D01*
X211996D02*
Y378369D01*
X212630Y377996D02*
X239634D01*
Y375496D02*
X215249D01*
X214496Y376427D02*
Y403150D01*
X216996D02*
Y370268D01*
X216987Y370496D02*
X359776D01*
X359496Y370776D02*
Y365602D01*
X356996D02*
Y371000D01*
X354496D02*
Y365602D01*
X351996D02*
Y371000D01*
X349496D02*
Y365602D01*
X346996D02*
Y371000D01*
X340565Y373636D02*
G03*
X346929Y371000I6364J6364D01*
G01*
X344496Y371335D02*
Y365602D01*
X341996D02*
Y372472D01*
X341278Y372996D02*
X319168D01*
Y375496D02*
X338705D01*
X339496Y374705D02*
Y365602D01*
X341000Y365000D02*
X401000D01*
X402000Y366000D01*
Y382000D01*
X405383Y384282D02*
G03*
X412100Y381500I6718J6718D01*
G01*
X411996Y381501D02*
Y365602D01*
X409496D02*
Y381864D01*
X406996Y382988D02*
Y365602D01*
X404496D02*
Y385170D01*
X404170Y385496D02*
X385127D01*
X384496Y386229D02*
Y405170D01*
X384170Y405496D02*
X362778D01*
X361996Y406278D02*
Y514000D01*
X364496D02*
Y403778D01*
X365278Y402996D02*
X386670D01*
X386996Y402670D02*
Y380273D01*
X386986Y380496D02*
X515170D01*
X514496Y381170D02*
Y310644D01*
X514030Y310496D02*
X441947D01*
X441996Y310513D02*
Y267000D01*
X439496D02*
Y310013D01*
X436996Y310226D02*
Y267000D01*
X444496D02*
Y311872D01*
X445705Y312996D02*
X516514D01*
X516996Y313651D02*
Y378670D01*
X517670Y377996D02*
X386774D01*
X386996Y379727D02*
Y365602D01*
X389496D02*
Y400170D01*
X389170Y400496D02*
X367778D01*
X366996Y401278D02*
Y514055D01*
X369496Y514707D02*
Y398527D01*
X369823Y397996D02*
X391670D01*
X391996Y397670D02*
Y365602D01*
X394496D02*
Y395170D01*
X394170Y395496D02*
X370786D01*
X371996Y395000D02*
Y516288D01*
X370968Y515495D02*
X373750D01*
Y512995D02*
X319168D01*
X319496Y514000D02*
Y492602D01*
X316996D02*
Y499172D01*
X319168Y500495D02*
X373750D01*
Y502995D02*
X319168D01*
Y505495D02*
X373750D01*
Y507995D02*
X319168D01*
Y510495D02*
X373750D01*
Y497995D02*
X237817D01*
Y500495D02*
X239634D01*
Y502995D02*
X237817D01*
Y505495D02*
X239634D01*
Y507995D02*
X237817D01*
Y510495D02*
X239634D01*
Y512995D02*
X237817D01*
Y515495D02*
X239634D01*
Y517995D02*
X237817D01*
Y520495D02*
X246439D01*
X246996Y519876D02*
Y518832D01*
X244423Y525572D02*
G03*
X247037Y519835I8978J627D01*
G01*
X244496Y518832D02*
Y524892D01*
X244428Y525495D02*
X237817D01*
Y527995D02*
X240634D01*
Y530495D02*
X237817D01*
Y532995D02*
X240634D01*
Y535495D02*
X237817D01*
Y537995D02*
X240634D01*
Y540495D02*
X237817D01*
Y542995D02*
X240634D01*
X241996Y543232D02*
Y550972D01*
X244423D02*
G03*
X247037Y545235I8978J627D01*
G01*
X246996Y545276D02*
Y543232D01*
X246787Y545495D02*
X237817D01*
Y547995D02*
X245154D01*
X244496Y543232D02*
Y550292D01*
X244469Y550495D02*
X237817D01*
Y552995D02*
X240634D01*
Y555495D02*
X237817D01*
Y557995D02*
X240634D01*
Y560495D02*
X237817D01*
Y562995D02*
X240634D01*
Y565495D02*
X237817D01*
Y572995D02*
X245340D01*
X244527Y575495D02*
X237817D01*
X244496Y575692D02*
Y568632D01*
X253401Y576999D02*
Y585202D01*
Y576999D02*
X257000Y573400D01*
X337000D01*
X351996Y568802D02*
Y579540D01*
X353555Y587995D02*
X373750D01*
Y595495D02*
X331371D01*
X331996Y594202D02*
Y598531D01*
Y599069D02*
Y601224D01*
X331839Y600495D02*
X373750D01*
Y597995D02*
X331964D01*
X334496Y594202D02*
Y602203D01*
X335651Y602995D02*
X373750D01*
Y605495D02*
X337791D01*
X336996Y604338D02*
Y594202D01*
X338774Y607995D02*
X373750D01*
Y555495D02*
X366903D01*
X359000Y559802D02*
X305401D01*
X257000Y598800D02*
X323000D01*
X321996Y514000D02*
Y492602D01*
X324496D02*
Y514000D01*
X326996D02*
Y492378D01*
X329496Y491398D02*
Y514000D01*
X331996D02*
Y489264D01*
X330786Y490495D02*
X373750D01*
Y492995D02*
X237817D01*
Y490495D02*
X240634D01*
X241996Y492432D02*
Y499172D01*
X244496D02*
Y492432D01*
X246996D02*
Y499172D01*
X249496D02*
Y492432D01*
X251996Y492491D02*
Y499172D01*
X254496D02*
Y492535D01*
X237817Y495495D02*
X373750D01*
X359496Y514000D02*
Y408778D01*
X360278Y407996D02*
X381670D01*
X381996Y407670D02*
Y388732D01*
X382732Y387996D02*
X401670D01*
X401996Y387670D02*
Y365602D01*
X399496D02*
Y390170D01*
X399170Y390496D02*
X380232D01*
X379496Y391232D02*
Y410170D01*
X379170Y410496D02*
X357778D01*
X356996Y411278D02*
Y514000D01*
X354496D02*
Y413778D01*
X355278Y412996D02*
X376670D01*
X373750Y419851D02*
G03*
X376542Y413124I9500J0D01*
G01*
X376996Y412670D02*
Y393486D01*
X377662Y392996D02*
X396670D01*
X396996Y392670D02*
Y365602D01*
X414496D02*
Y381500D01*
X416996D02*
Y365602D01*
X419496D02*
Y381500D01*
X421996D02*
Y365602D01*
X424496D02*
Y381500D01*
X426996D02*
Y365602D01*
X429496D02*
Y381500D01*
X431996D02*
Y365602D01*
X434496D02*
Y381500D01*
Y407500D02*
Y442183D01*
X431996D02*
Y407500D01*
X429496D02*
Y442183D01*
X426996D02*
Y407500D01*
X424496D02*
Y442183D01*
X421996D02*
Y407500D01*
X419496D02*
Y442183D01*
X416996D02*
Y409439D01*
X415939Y410496D02*
X617757D01*
X619495Y412234D02*
Y442183D01*
X621995D02*
Y414734D01*
X622757Y415496D02*
X410939D01*
X411996Y414439D02*
Y442856D01*
X411659Y442995D02*
X399750D01*
Y440495D02*
X1198000D01*
Y437995D02*
X399750D01*
Y435495D02*
X1198000D01*
Y432995D02*
X399750D01*
Y430495D02*
X1198000D01*
Y442995D02*
X993342D01*
X994495Y443680D02*
Y344001D01*
X995500Y342996D02*
X1198000D01*
Y340496D02*
X998000D01*
X996995Y341501D02*
Y446635D01*
X996312Y445495D02*
X1198000D01*
Y447995D02*
X997553D01*
X997817Y450495D02*
X1198000D01*
Y452995D02*
X997817D01*
Y455495D02*
X1198000D01*
Y457995D02*
X997817D01*
Y460495D02*
X1198000D01*
Y462995D02*
X997817D01*
Y465495D02*
X1198000D01*
Y467995D02*
X997817D01*
Y470495D02*
X1198000D01*
Y472995D02*
X997817D01*
Y475495D02*
X1198000D01*
Y477995D02*
X997817D01*
Y480495D02*
X1198000D01*
Y482995D02*
X997817D01*
Y485495D02*
X1198000D01*
Y487995D02*
X997817D01*
X991995Y442446D02*
Y346493D01*
X993000Y345496D02*
X1198000D01*
Y347996D02*
X989913D01*
X989495Y348212D02*
Y442183D01*
X986995D02*
Y349054D01*
X984495Y349250D02*
Y442183D01*
X981995D02*
Y349250D01*
X979495D02*
Y442183D01*
X997817Y490495D02*
X1198000D01*
Y492995D02*
X997817D01*
Y495495D02*
X1198000D01*
Y497995D02*
X997817D01*
Y500495D02*
X1198000D01*
Y502995D02*
X997817D01*
Y505495D02*
X1198000D01*
Y507995D02*
X997817D01*
Y510495D02*
X1198000D01*
Y512995D02*
X997817D01*
Y515495D02*
X1198000D01*
Y517995D02*
X997817D01*
Y520495D02*
X1198000D01*
Y522995D02*
X997817D01*
Y525495D02*
X1198000D01*
Y527995D02*
X997817D01*
Y530495D02*
X1198000D01*
Y532995D02*
X997817D01*
Y535495D02*
X1198000D01*
Y537995D02*
X997817D01*
Y540495D02*
X1198000D01*
Y542995D02*
X997817D01*
Y545495D02*
X1198000D01*
Y547995D02*
X997817D01*
Y550495D02*
X1198000D01*
Y552995D02*
X997817D01*
Y555495D02*
X1198000D01*
Y557995D02*
X997817D01*
Y560495D02*
X1198000D01*
Y562995D02*
X997817D01*
Y565495D02*
X1198000D01*
Y567995D02*
X997817D01*
Y570495D02*
X1198000D01*
Y572995D02*
X997817D01*
Y575495D02*
X1198000D01*
Y577995D02*
X997817D01*
Y580495D02*
X1198000D01*
Y582995D02*
X997817D01*
Y585495D02*
X1198000D01*
Y587995D02*
X997817D01*
Y590495D02*
X1198000D01*
Y592995D02*
X997817D01*
Y595495D02*
X1198000D01*
Y597995D02*
X997817D01*
Y600495D02*
X1198000D01*
Y602995D02*
X997817D01*
Y605495D02*
X1198000D01*
Y607995D02*
X997817D01*
Y610495D02*
X1198000D01*
Y612995D02*
X997817D01*
Y615495D02*
X1198000D01*
Y617995D02*
X997817D01*
Y620495D02*
X1198000D01*
Y622995D02*
X997817D01*
Y625495D02*
X1198000D01*
Y627995D02*
X997817D01*
X997752Y630495D02*
X1198000D01*
Y632995D02*
X997148D01*
X996995Y633365D02*
Y736833D01*
X999495D02*
Y339001D01*
X1000500Y337996D02*
X1198000D01*
Y335496D02*
X1003000D01*
X1001995Y336501D02*
Y736833D01*
X1004495D02*
Y334001D01*
X1005500Y332996D02*
X1198000D01*
Y330496D02*
X1007652D01*
X1006995Y331414D02*
Y736833D01*
X1012129Y737995D02*
X1198000D01*
Y735495D02*
X344542D01*
X344496Y735541D02*
Y838000D01*
X346996D02*
Y733041D01*
X347042Y732995D02*
X1198000D01*
Y730495D02*
X349542D01*
X349496Y730541D02*
Y838000D01*
X351996D02*
Y728041D01*
X352042Y727995D02*
X1198000D01*
Y725495D02*
X354542D01*
X354496Y725541D02*
Y838000D01*
X356996D02*
Y723041D01*
X357042Y722995D02*
X1198000D01*
Y720495D02*
X359542D01*
X359496Y720541D02*
Y787833D01*
X358469Y787995D02*
X68074D01*
X96996Y838000D02*
Y637145D01*
X99496Y637751D02*
Y838000D01*
X101996D02*
Y637817D01*
X104496D02*
Y838000D01*
X106996D02*
Y637817D01*
X109496D02*
Y838000D01*
X111996D02*
Y637817D01*
X114496D02*
Y838000D01*
X116996D02*
Y637817D01*
X119496D02*
Y838000D01*
X121996D02*
Y637817D01*
X124496D02*
Y838000D01*
X126996D02*
Y637817D01*
X129496D02*
Y838000D01*
X131996D02*
Y637817D01*
X134496D02*
Y838000D01*
X136996D02*
Y637817D01*
X139496D02*
Y838000D01*
X141996D02*
Y637817D01*
X144496D02*
Y838000D01*
X146996D02*
Y637817D01*
X149496D02*
Y838000D01*
X151996D02*
Y637817D01*
X154496D02*
Y838000D01*
X156996D02*
Y637817D01*
X159496D02*
Y838000D01*
X161996D02*
Y637817D01*
X164496D02*
Y838000D01*
X166996D02*
Y637817D01*
X169496D02*
Y838000D01*
X171996D02*
Y637817D01*
X174496D02*
Y838000D01*
X176996D02*
Y637817D01*
X179496D02*
Y838000D01*
X181996D02*
Y637817D01*
X184496D02*
Y838000D01*
X186996D02*
Y637817D01*
X189496D02*
Y838000D01*
X191996D02*
Y637817D01*
X194496D02*
Y838000D01*
X244496Y728772D02*
Y721032D01*
X246996D02*
Y728772D01*
X249496D02*
Y721032D01*
X251996D02*
Y728772D01*
X254496D02*
Y721032D01*
Y703372D02*
Y695632D01*
X251996D02*
Y703372D01*
X249496D02*
Y695632D01*
X246996D02*
Y703372D01*
X244496D02*
Y695632D01*
X241996D02*
Y703372D01*
X244496Y652572D02*
Y645832D01*
X246996D02*
Y652572D01*
X249496D02*
Y645832D01*
X251996D02*
Y652572D01*
X254496D02*
Y645832D01*
X253401Y602399D02*
X257000Y598800D01*
X256600Y523000D02*
X366000D01*
X374802Y534402D02*
X305401D01*
X291634Y512995D02*
X267168D01*
Y510495D02*
X291634D01*
Y507995D02*
X267168D01*
Y505495D02*
X291634D01*
Y502995D02*
X267168D01*
Y500495D02*
X291634D01*
X291996Y499172D02*
Y480800D01*
X289496D02*
Y514000D01*
X286996D02*
Y480800D01*
X284496D02*
Y514000D01*
X281996D02*
Y480800D01*
X279496D02*
Y514000D01*
X276996D02*
Y480800D01*
X274496D02*
Y514000D01*
X271996D02*
Y480800D01*
X269496D02*
Y514000D01*
X266996Y499172D02*
Y480800D01*
X266168Y482995D02*
X292634D01*
Y485495D02*
X266168D01*
Y487995D02*
X292634D01*
X305401Y483602D02*
X325000D01*
X333980Y482995D02*
X373750D01*
Y480495D02*
X334322D01*
X334496Y480447D02*
Y514000D01*
X336996D02*
Y479286D01*
X338528Y477995D02*
X373750D01*
Y475495D02*
X340206D01*
X339496Y476781D02*
Y514000D01*
X341996D02*
Y426278D01*
X342778Y425495D02*
X373750D01*
Y427995D02*
X340278D01*
X344496Y423778D02*
Y514000D01*
X346996D02*
Y421278D01*
X347778Y420496D02*
X373750D01*
Y422995D02*
X345278D01*
X349496Y418778D02*
Y514000D01*
X351996D02*
Y416278D01*
X352778Y415496D02*
X374807D01*
X374496Y416161D02*
Y394647D01*
X372000Y386000D02*
X378000Y380000D01*
X386487Y382996D02*
X406984D01*
X413439Y412996D02*
X620257D01*
X624495Y417234D02*
Y442183D01*
X641995D02*
Y427250D01*
X644495D02*
Y442183D01*
X646995D02*
Y427250D01*
X649495D02*
Y442183D01*
X651995D02*
Y427250D01*
X654495D02*
Y442183D01*
X656995D02*
Y427250D01*
X659495D02*
Y442183D01*
X661995D02*
Y427250D01*
X664495D02*
Y442183D01*
X666995D02*
Y427250D01*
X669495D02*
Y442183D01*
X671995D02*
Y427250D01*
X674495D02*
Y442183D01*
X676995D02*
Y427250D01*
Y405250D02*
Y377750D01*
X676624D02*
X687000D01*
X693187Y375187D02*
G03*
X687000Y377750I-6187J-6187D01*
G01*
X693187Y375187D02*
G03*
X687000Y377750I-6187J-6187D01*
G01*
X686995D02*
Y405250D01*
X684495D02*
Y377750D01*
X681995D02*
Y405250D01*
X679495D02*
Y377750D01*
X689495Y377387D02*
Y405250D01*
X691995D02*
Y376184D01*
X692863Y375496D02*
X705951D01*
Y377996D02*
X676379D01*
X676624Y377750D02*
X675748Y378626D01*
Y381301D01*
D02*
G03*
X676498Y385000I-8750J3699D01*
G01*
Y398000D01*
D02*
G03*
X674748Y403494I-9500J0D01*
G01*
Y405250D01*
X735376D01*
X736376Y404250D01*
X705951D01*
Y361654D01*
D02*
G03*
X704187Y364187I-7951J-3654D01*
G01*
X705951Y361654D02*
G03*
X704187Y364187I-7951J-3654D01*
G01*
X693187Y375187D01*
X694495Y373879D02*
Y405250D01*
X696995D02*
Y371379D01*
X697879Y370496D02*
X705951D01*
Y372996D02*
X695379D01*
X699495Y368879D02*
Y405250D01*
X701995D02*
Y366379D01*
X702879Y365496D02*
X705951D01*
Y362996D02*
X705184D01*
X704495Y363863D02*
Y405250D01*
X706995D02*
Y404250D01*
X705951Y402996D02*
X675079D01*
X676165Y400496D02*
X705951D01*
Y397996D02*
X676498D01*
Y395496D02*
X705951D01*
Y392996D02*
X676498D01*
Y390496D02*
X705951D01*
Y387996D02*
X676498D01*
Y385496D02*
X705951D01*
Y382996D02*
X676284D01*
X675748Y380496D02*
X705951D01*
X709495Y404250D02*
Y405250D01*
X711995D02*
Y404250D01*
X714495D02*
Y405250D01*
X716995D02*
Y404250D01*
X719495D02*
Y405250D01*
X721995D02*
Y404250D01*
X724495D02*
Y405250D01*
X726995D02*
Y404250D01*
X729495D02*
Y405250D01*
X731995D02*
Y404250D01*
X734495D02*
Y405250D01*
Y427250D02*
Y442183D01*
X731995D02*
Y427250D01*
X729495D02*
Y442183D01*
X726995D02*
Y427250D01*
X724495D02*
Y442183D01*
X721995D02*
Y427250D01*
X719495D02*
Y442183D01*
X716995D02*
Y427250D01*
X714495D02*
Y442183D01*
X711995D02*
Y427250D01*
X709495D02*
Y442183D01*
X706995D02*
Y427250D01*
X704495D02*
Y442183D01*
X701995D02*
Y427250D01*
X699495D02*
Y442183D01*
X696995D02*
Y427250D01*
X694495D02*
Y442183D01*
X691995D02*
Y427250D01*
X689495D02*
Y442183D01*
X686995D02*
Y427250D01*
X684495D02*
Y442183D01*
X681995D02*
Y427250D01*
X679495D02*
Y442183D01*
X736995D02*
Y427250D01*
X705951Y367996D02*
X700379D01*
X684750Y349250D02*
Y344136D01*
D02*
G03*
X687313Y337949I8750J0D01*
G01*
X695949Y329313D01*
D02*
G03*
X700059Y327000I6187J6187D01*
G01*
X695949Y329313D02*
G03*
X700059Y327000I6187J6187D01*
G01*
X629435D01*
X637935Y335500D01*
X637931Y335496D02*
X689766D01*
X689495Y335766D02*
Y327000D01*
X686995D02*
Y338284D01*
X687266Y337996D02*
X674748D01*
Y336750D02*
Y339506D01*
D02*
G03*
X676498Y345000I-7750J5494D01*
G01*
Y349250D01*
X684750D01*
X684495D02*
Y327000D01*
X681995D02*
Y349250D01*
X679495D02*
Y327000D01*
X691995D02*
Y333266D01*
X692266Y332996D02*
X635431D01*
X634495Y332060D02*
Y327000D01*
X631995D02*
Y329560D01*
X632931Y330496D02*
X694766D01*
X694495Y330766D02*
Y327000D01*
X696995D02*
Y328419D01*
X697636Y327996D02*
X630431D01*
X636995Y327000D02*
Y334560D01*
X638000Y335500D02*
X652998D01*
D02*
G03*
X657708Y336750I0J9500D01*
G01*
X659248D01*
X660748D01*
X662288D01*
D02*
G03*
X671708Y336750I4710J8250D01*
G01*
X674748D01*
X674495D02*
Y327000D01*
X671995D02*
Y336750D01*
X669495Y335834D02*
Y327000D01*
X666995D02*
Y335500D01*
X664495Y335836D02*
Y327000D01*
X661995D02*
Y336750D01*
X660748D02*
X659248D01*
X659495D02*
Y327000D01*
X656995D02*
Y336382D01*
X654495Y335619D02*
Y327000D01*
X651995D02*
Y335500D01*
X649495D02*
Y327000D01*
X646995D02*
Y335500D01*
X644495D02*
Y327000D01*
X641995D02*
Y335500D01*
X639495D02*
Y327000D01*
X676995D02*
Y349250D01*
X676498Y347996D02*
X684750D01*
Y345496D02*
X676498D01*
X676284Y342996D02*
X684825D01*
X684750Y344136D02*
G03*
X687313Y337949I8750J0D01*
G01*
X685543Y340496D02*
X675362D01*
X728000Y298000D02*
X521000D01*
X517000Y302000D01*
X508055Y302996D02*
X504731D01*
X504496Y303231D02*
Y381500D01*
X506996D02*
Y300731D01*
X507231Y300496D02*
X508127D01*
X508707Y305496D02*
X502231D01*
X501996Y305731D02*
Y381500D01*
X499496D02*
Y307796D01*
X501999Y305999D02*
X514998Y293000D01*
X744235D01*
X742000Y283000D02*
X497998D01*
X487999Y292999D01*
X494999Y299999D02*
X506998Y288000D01*
X753012D01*
X781970Y316958D01*
Y316970D01*
X783000Y318000D01*
X783000Y318000D02*
X802500Y337500D01*
Y355099D01*
X802499Y355100D01*
X812499D02*
X812500Y355099D01*
Y334053D01*
X756447Y278000D01*
X488998D01*
X480999Y285999D01*
X473999Y279999D02*
X480998Y273000D01*
X758518D01*
X817500Y331982D01*
Y340499D01*
X827500D02*
Y327840D01*
X762660Y263000D01*
X464000D01*
X460000Y267000D01*
X454496Y274121D02*
Y335961D01*
X452800Y344800D02*
X453000Y345000D01*
X453000Y345000D02*
X452800Y344800D01*
X257000D01*
X253401Y348399D01*
Y356602D01*
X254496Y365535D02*
Y372172D01*
X251996D02*
Y365491D01*
X252023Y365496D02*
X215864D01*
X214496Y363573D02*
Y335000D01*
X211996D02*
Y361631D01*
X213918Y362996D02*
X240634D01*
Y360496D02*
X209250D01*
X209496Y360712D02*
Y335000D01*
X206996D02*
Y346748D01*
X204496D02*
Y335000D01*
X201996D02*
Y346748D01*
X199496D02*
Y335000D01*
X196996D02*
Y346748D01*
X200000Y347500D02*
X200000Y347500D01*
X209250Y347996D02*
X240634D01*
X241996Y347772D02*
Y340032D01*
X244496D02*
Y347092D01*
X244423Y347772D02*
G03*
X247037Y342035I8978J627D01*
G01*
X246996Y342076D02*
Y340032D01*
X248576Y340496D02*
X194500D01*
X194496Y339234D02*
Y335000D01*
X193873Y335496D02*
X240634D01*
Y337996D02*
X194380D01*
X194500Y342996D02*
X246203D01*
X244882Y345496D02*
X194500D01*
X185000Y339502D02*
Y337002D01*
X170000D02*
Y339502D01*
X159496Y339132D02*
Y2000D01*
X156996D02*
Y338212D01*
X154496Y338013D02*
Y2000D01*
X151996D02*
Y338487D01*
X149496Y339757D02*
Y2000D01*
X146996D02*
Y340355D01*
X147137Y340496D02*
X148582D01*
X144496Y338568D02*
Y2000D01*
X141996D02*
Y337701D01*
X143110Y337996D02*
X160620D01*
X161127Y335496D02*
X2000D01*
Y337996D02*
X136890D01*
X136996Y337962D02*
Y2000D01*
X139496D02*
Y337513D01*
X160316Y327996D02*
X2000D01*
Y325496D02*
X160000D01*
X160319Y322996D02*
X2000D01*
Y320496D02*
X161343D01*
X161750Y319850D02*
Y317752D01*
X163680D01*
X163392Y317996D02*
X161750D01*
X2000D01*
Y315496D02*
X181392D01*
X181996Y315319D02*
Y2000D01*
X184496D02*
Y315000D01*
X186996D02*
Y2000D01*
X189496D02*
Y315000D01*
X191996D02*
Y2000D01*
X194496D02*
Y315000D01*
X179496Y315502D02*
Y2000D01*
X176996D02*
Y315502D01*
X174496D02*
Y2000D01*
X171996D02*
Y315502D01*
X169496Y315514D02*
Y2000D01*
X166996D02*
Y315963D01*
X164496Y317152D02*
Y2000D01*
X161996D02*
Y317752D01*
Y319506D01*
X170000Y355498D02*
X170000Y355498D01*
X185000Y355498D02*
X185000Y355498D01*
X253401Y305802D02*
Y297599D01*
X305401Y204202D02*
X337656D01*
X401858Y140000D01*
X538999D01*
X538999Y140000D01*
X529000Y303000D02*
X748213D01*
X767970Y322757D01*
X762970Y324828D02*
X746142Y308000D01*
X536998D01*
X530999Y313999D01*
X526996Y322060D02*
Y368670D01*
X511996Y381500D02*
Y309480D01*
X510288Y307996D02*
X499129D01*
X524000Y308000D02*
X529000Y303000D01*
X509496Y306968D02*
Y381500D01*
Y407500D02*
Y442183D01*
X506996D02*
Y407500D01*
X504496D02*
Y442183D01*
X501996D02*
Y407500D01*
X499496D02*
Y442183D01*
X511996D02*
Y407500D01*
X514496D02*
Y442183D01*
X516996D02*
Y407500D01*
X519496D02*
Y442183D01*
X521996D02*
Y407448D01*
X524496Y406833D02*
Y442183D01*
X526996D02*
Y405369D01*
X526837Y405496D02*
X580163D01*
X579496Y404924D02*
Y442183D01*
X576996D02*
Y402430D01*
X577561Y402996D02*
X529440D01*
X529496Y402939D02*
Y442183D01*
X531996D02*
Y400439D01*
X531939Y400496D02*
X575061D01*
X574496Y399930D02*
Y442183D01*
X571996D02*
Y397117D01*
X572631Y397996D02*
X534439D01*
X534496Y397939D02*
Y442183D01*
X536996D02*
Y395439D01*
X536939Y395496D02*
X571166D01*
X570552Y392996D02*
X539439D01*
X539496Y392939D02*
Y442183D01*
X541996D02*
Y390439D01*
X541939Y390496D02*
X570500D01*
Y387996D02*
X544439D01*
X544496Y387939D02*
Y442183D01*
X546996D02*
Y385439D01*
X546939Y385496D02*
X570500D01*
Y382996D02*
X549439D01*
X549496Y382939D02*
Y442183D01*
X551996D02*
Y380439D01*
X551939Y380496D02*
X570500D01*
Y377996D02*
X554439D01*
X554496Y377939D02*
Y442183D01*
X556996D02*
Y375439D01*
X556939Y375496D02*
X570500D01*
Y372996D02*
X559439D01*
X559496Y372939D02*
Y442183D01*
X561996D02*
Y370439D01*
X561939Y370496D02*
X570500D01*
X586000Y407500D02*
G03*
X579282Y404717I0J-9500D01*
G01*
X581996Y406615D02*
Y442183D01*
X584496D02*
Y407380D01*
X586996Y407500D02*
Y442183D01*
X589496D02*
Y407500D01*
X591996D02*
Y442183D01*
X594496D02*
Y407500D01*
X596996Y407288D02*
Y442183D01*
X604495D02*
Y406365D01*
X601248Y406250D02*
X599709D01*
X606995Y407287D02*
Y442183D01*
X609495D02*
Y407487D01*
X611995Y407015D02*
Y442183D01*
X614495D02*
Y407234D01*
X615257Y407996D02*
X418439D01*
X414496Y411939D02*
Y442249D01*
X409496Y444455D02*
Y416939D01*
X408439Y417996D02*
X625257D01*
X638136Y427250D02*
X740864D01*
X747051Y424687D02*
G03*
X740864Y427250I-6187J-6187D01*
G01*
X747051Y424687D02*
G03*
X740864Y427250I-6187J-6187D01*
G01*
X741995Y427177D02*
Y442183D01*
X744495D02*
Y426461D01*
X746120Y425495D02*
X1198000D01*
Y427995D02*
X399750D01*
X429798Y331202D02*
X430000Y331000D01*
X429798Y331202D02*
X305401D01*
Y356602D02*
X445398D01*
X446000Y356000D01*
X453797Y360496D02*
X535170D01*
X544496Y351170D02*
Y335873D01*
X546996Y335944D02*
Y348670D01*
X547670Y347996D02*
X461487D01*
X461987Y345496D02*
X550170D01*
X549496Y346170D02*
Y335292D01*
X548967Y335496D02*
X560170D01*
X564496Y331170D02*
Y327000D01*
X566996D02*
Y328670D01*
X567670Y327996D02*
X557730D01*
X565170Y330496D02*
X555230D01*
X554496Y331231D02*
Y341170D01*
X555170Y340496D02*
X460792D01*
X461996Y345283D02*
Y381500D01*
X459496D02*
Y351229D01*
X460127Y350496D02*
X545170D01*
X556996Y338670D02*
Y328731D01*
X545999Y326999D02*
X554998Y318000D01*
X742000D01*
X752970Y328970D01*
X757970Y326899D02*
X744071Y313000D01*
X545998D01*
X538999Y319999D01*
X569439Y362996D02*
X570500D01*
X569496Y362939D02*
Y442183D01*
X566996D02*
Y365439D01*
X566939Y365496D02*
X570500D01*
Y367996D02*
X564439D01*
X564496Y367939D02*
Y442183D01*
X616995D02*
Y409734D01*
X496996Y442183D02*
Y407500D01*
X494496D02*
Y442183D01*
X491996D02*
Y407500D01*
X489496D02*
Y442183D01*
X486996D02*
Y407500D01*
X484496D02*
Y442183D01*
X481996D02*
Y407500D01*
X479496D02*
Y442183D01*
X476996D02*
Y407500D01*
X474496D02*
Y442183D01*
X471996D02*
Y407500D01*
X469496D02*
Y442183D01*
X466996D02*
Y407500D01*
X464496D02*
Y442183D01*
X461996D02*
Y407500D01*
X459496D02*
Y442183D01*
X456996D02*
Y407500D01*
X454496D02*
Y442183D01*
X451996D02*
Y407500D01*
X449496D02*
Y442183D01*
X446996D02*
Y407500D01*
X444496D02*
Y442183D01*
X441996D02*
Y407500D01*
X439496D02*
Y442183D01*
X436996D02*
Y407500D01*
Y381500D02*
Y365602D01*
X439496D02*
Y381500D01*
X441996D02*
Y365602D01*
X438600Y319400D02*
X439000Y319000D01*
X438600Y319400D02*
X257000D01*
X253401Y322999D01*
Y331202D01*
X240634Y332996D02*
X226006D01*
X224496Y333932D02*
Y403150D01*
X221996D02*
Y334799D01*
X219496Y335000D02*
Y403150D01*
X227050D02*
X199439D01*
X199500Y402100D02*
G03*
X199439Y403150I-9000J0D01*
G01*
X199496D02*
Y402363D01*
X199500Y402100D02*
Y393228D01*
X206364Y386364D01*
X209000Y380000D02*
G03*
X206364Y386364I-9000J0D01*
G01*
X209000Y380000D02*
G03*
X206364Y386364I-9000J0D01*
G01*
X206996Y385662D02*
Y403150D01*
X204496D02*
Y388232D01*
X204732Y387996D02*
X239634D01*
Y385496D02*
X207127D01*
X208487Y382996D02*
X239634D01*
Y380496D02*
X208986D01*
X200000Y380000D02*
Y370000D01*
Y369498D01*
X200000Y369498D01*
X207500Y370000D02*
X207500Y370000D01*
X216996Y369732D02*
Y335000D01*
Y315000D02*
Y2000D01*
X214496D02*
Y315000D01*
X211996D02*
Y2000D01*
X209496D02*
Y315000D01*
X206996D02*
Y2000D01*
X204496D02*
Y315000D01*
X201996D02*
Y2000D01*
X199496D02*
Y315000D01*
X196996D02*
Y2000D01*
X219496D02*
Y315000D01*
X221996Y315201D02*
Y2000D01*
X224496D02*
Y316068D01*
X223110Y315496D02*
X248176D01*
X246996Y314632D02*
Y316676D01*
X244423Y322372D02*
G03*
X247037Y316635I8978J627D01*
G01*
X245920Y317996D02*
X227137D01*
X226996Y317855D02*
Y2000D01*
X229496D02*
Y321866D01*
X229797Y322996D02*
X240634D01*
X241996Y322372D02*
Y314632D01*
X244496D02*
Y321692D01*
X244756Y320496D02*
X228928D01*
X229988Y325496D02*
X240634D01*
Y312996D02*
X2000D01*
Y310496D02*
X240634D01*
Y307996D02*
X2000D01*
Y340496D02*
X132863D01*
X131996Y341505D02*
Y2000D01*
X129496D02*
Y403150D01*
X126996D02*
Y2000D01*
X124496D02*
Y403150D01*
X121996D02*
Y2000D01*
X119496D02*
Y403150D01*
X116996D02*
Y2000D01*
X114496D02*
Y403150D01*
X111996D02*
Y2000D01*
X109496D02*
Y403150D01*
X108950Y405496D02*
X2000D01*
Y402996D02*
X140250D01*
X139496Y403150D02*
Y389621D01*
X140868Y390496D02*
X2000D01*
Y387996D02*
X137768D01*
X136996Y387224D02*
Y403150D01*
X140250Y400496D02*
X2000D01*
Y397996D02*
X140250D01*
Y395496D02*
X2000D01*
Y392996D02*
X140250D01*
X141996Y392350D02*
Y390984D01*
X145000Y391500D02*
X146272D01*
X145000Y382500D02*
X150000D01*
X155500Y388000D01*
Y402100D01*
X160500D02*
Y419500D01*
X157500Y422500D01*
X143450Y422995D02*
X192550D01*
Y420496D02*
X143450D01*
Y417996D02*
X192550D01*
Y415496D02*
X143450D01*
Y425495D02*
X192550D01*
Y427995D02*
X143450D01*
X177500Y422500D02*
X180500Y419500D01*
Y402100D01*
X185500D02*
Y418000D01*
X190000Y422500D01*
X191996Y411850D02*
Y467183D01*
X194496D02*
Y440650D01*
X192550Y440495D02*
X143450D01*
X141996Y440650D02*
Y467183D01*
X139496D02*
Y440650D01*
X136996D02*
Y467183D01*
X169496D02*
Y411850D01*
X170750D02*
X174250D01*
X175750D01*
X174250D01*
Y412850D01*
X179250D01*
X179496D02*
Y467183D01*
X181996D02*
Y412850D01*
X184496D02*
Y467183D01*
X176996D02*
Y412850D01*
X174496D02*
Y467183D01*
X171996D02*
Y411850D01*
X170750D02*
X174250D01*
X174496D02*
Y412850D01*
X175500Y402100D02*
Y387000D01*
X185000Y377500D01*
Y369498D01*
X170000D02*
X170500Y369999D01*
Y402100D01*
X165500D02*
Y388000D01*
X155000Y377500D01*
Y369498D01*
X140000D02*
Y377500D01*
X145000Y382500D01*
X190500Y389500D02*
X200000Y380000D01*
X201996Y390732D02*
Y403150D01*
X199456Y402996D02*
X240634D01*
Y400496D02*
X199500D01*
Y397996D02*
X244482D01*
X244496Y397892D02*
Y391832D01*
X241996D02*
Y398572D01*
X244423D02*
G03*
X247037Y392835I8978J627D01*
G01*
X246996Y392876D02*
Y391832D01*
X246880Y392996D02*
X199732D01*
X199500Y395496D02*
X245198D01*
X239634Y390496D02*
X202232D01*
X216515Y372996D02*
X239634D01*
X241996Y372172D02*
Y365432D01*
X244496D02*
Y372172D01*
X246996D02*
Y365432D01*
X249496D02*
Y372172D01*
X253401Y399199D02*
Y407402D01*
Y399199D02*
X257000Y395600D01*
X331329D01*
X346929Y380000D01*
X363000D01*
X370000Y373000D01*
X361996Y368276D02*
Y365602D01*
X362276Y367996D02*
X216786D01*
X209250Y357996D02*
X240634D01*
Y355496D02*
X209250D01*
Y352996D02*
X240634D01*
Y350496D02*
X209250D01*
X254779Y365496D02*
X304023D01*
X304496Y365556D02*
Y372172D01*
X301996D02*
Y365432D01*
X299496D02*
Y372172D01*
X296996D02*
Y365432D01*
X294496D02*
Y372172D01*
X291996D02*
Y353800D01*
X292634Y355496D02*
X266168D01*
Y357996D02*
X292634D01*
Y360496D02*
X266168D01*
Y362996D02*
X292634D01*
X289496Y353800D02*
Y386600D01*
X286996D02*
Y353800D01*
X284496D02*
Y386600D01*
X281996D02*
Y353800D01*
X279496D02*
Y386600D01*
X276996D02*
Y353800D01*
X274496D02*
Y386600D01*
X271996D02*
Y353800D01*
X269496D02*
Y386600D01*
X267168Y385496D02*
X291634D01*
Y382996D02*
X267168D01*
Y380496D02*
X291634D01*
Y377996D02*
X267168D01*
Y375496D02*
X291634D01*
Y372996D02*
X267168D01*
X266996Y372172D02*
Y353800D01*
X264496Y365432D02*
Y372172D01*
X261996D02*
Y365432D01*
X259496D02*
Y372172D01*
X256996D02*
Y365432D01*
X306996Y365602D02*
Y372172D01*
X309496D02*
Y365602D01*
X311996D02*
Y372172D01*
X314496D02*
Y365602D01*
X319168Y259600D02*
X363881D01*
D02*
G03*
X361938Y257000I6119J-6600D01*
G01*
Y257000D02*
G03*
X354516Y252999I62J-9000D01*
G01*
X324999D01*
D02*
G03*
X319168Y250855I0J-9000D01*
G01*
Y259600D01*
X319496D02*
Y251121D01*
X319168Y252996D02*
X324744D01*
X324496Y252985D02*
Y259600D01*
X321996D02*
Y252484D01*
X326996Y252999D02*
Y259600D01*
X329496D02*
Y252999D01*
X331996D02*
Y259600D01*
X334496D02*
Y252999D01*
X336996D02*
Y259600D01*
X339496D02*
Y252999D01*
X341996D02*
Y259600D01*
X344496D02*
Y252999D01*
X346996D02*
Y259600D01*
X349496D02*
Y252999D01*
X351996D02*
Y259600D01*
X354496D02*
Y252999D01*
X356996Y255481D02*
Y259600D01*
X359496D02*
Y256645D01*
X361996Y257115D02*
Y259600D01*
X362514Y257996D02*
X319168D01*
Y255496D02*
X357019D01*
X362000Y248000D02*
X372000Y238000D01*
X773015D01*
X852500Y317485D01*
Y340499D01*
X837500D02*
Y323698D01*
X766802Y253000D01*
X394000D01*
X385000Y262000D01*
X378000Y257000D02*
Y256000D01*
X386000Y248000D01*
X768873D01*
X842500Y321627D01*
Y322145D01*
X847500Y319556D02*
Y355099D01*
X847501Y355100D01*
X842499D02*
X842251Y354851D01*
X832500Y355099D02*
X832499Y355100D01*
X832500Y355099D02*
Y325769D01*
X764731Y258000D01*
X401021D01*
X392750Y266271D01*
X380000Y243000D02*
X770944D01*
X847500Y319556D01*
X822500Y329911D02*
Y355099D01*
X822499Y355100D01*
X822500Y329911D02*
X760589Y268000D01*
X471998D01*
X466999Y272999D01*
X489496Y307121D02*
Y381500D01*
X491996D02*
Y308484D01*
X490869Y307996D02*
X426776D01*
X431799Y331201D02*
X432000Y331000D01*
X494496Y308985D02*
Y381500D01*
X496996D02*
Y308775D01*
X380000Y243000D02*
X370000Y253000D01*
X355929Y237000D02*
X364929Y228000D01*
X777158D01*
X862500Y313343D01*
Y340499D01*
X867500Y340498D02*
Y311272D01*
X779229Y223000D01*
X362616D01*
X355616Y230000D01*
X339000D01*
X346000Y223000D02*
X355545D01*
X360545Y218000D01*
X781300D01*
X872500Y309201D01*
Y340499D01*
X872251Y364850D02*
X867749D01*
X872251D01*
X871995D02*
Y442183D01*
X869495D02*
Y364850D01*
X867249D02*
X862751D01*
X867249D01*
X866995D02*
Y442183D01*
X864495D02*
Y364850D01*
X861995D02*
Y442183D01*
X859495D02*
Y364850D01*
X872751D02*
X877249D01*
X872751D01*
X874495D02*
Y442183D01*
X876995D02*
Y364850D01*
X877749D02*
X882251D01*
X877749D01*
X879495D02*
Y442183D01*
X881995D02*
Y364850D01*
X882751D02*
X887249D01*
X882751D01*
X884495D02*
Y442183D01*
X886995D02*
Y364850D01*
X887749D02*
X892251D01*
X887749D01*
X889495D02*
Y442183D01*
X891995D02*
Y364850D01*
X892750D02*
X897249D01*
X892750D01*
X894495D02*
Y442183D01*
X896995D02*
Y364850D01*
X897749D02*
X902251D01*
X897749D01*
X899495D02*
Y442183D01*
X901995D02*
Y364850D01*
X902750D02*
X907249D01*
X902750D01*
X904495D02*
Y442183D01*
X906995D02*
Y364850D01*
X907749D02*
X912251D01*
X907749D01*
X909495D02*
Y442183D01*
X911995D02*
Y364850D01*
X912750D02*
X917249D01*
X912750D01*
X914495D02*
Y442183D01*
X916995D02*
Y364850D01*
X944495Y255750D02*
Y328750D01*
X943776Y327996D02*
X981509D01*
X981995Y327510D02*
Y254000D01*
X979495D02*
Y328750D01*
X984008Y325496D02*
X943986D01*
X943484Y322996D02*
X986508D01*
X986995Y322510D02*
Y253776D01*
X984495Y254000D02*
Y325010D01*
X988748Y320496D02*
X944250D01*
Y317996D02*
X988748D01*
Y315496D02*
X944250D01*
Y312996D02*
X988748D01*
Y310496D02*
X944250D01*
Y307996D02*
X988748D01*
X1009248D02*
X1198000D01*
Y310496D02*
X1009248D01*
Y312996D02*
X1198000D01*
Y315496D02*
X1009248D01*
Y317996D02*
X1198000D01*
Y320496D02*
X1009248D01*
Y322996D02*
X1198000D01*
Y325496D02*
X1009237D01*
X1008801Y327996D02*
X1198000D01*
Y350496D02*
X943750D01*
X945000Y350000D02*
X950000D01*
X949495Y349250D02*
Y355750D01*
X951995D02*
Y349250D01*
X954495D02*
Y355750D01*
X956995D02*
Y349250D01*
X959495D02*
Y355750D01*
X961995D02*
Y349250D01*
X964495D02*
Y355750D01*
X966995D02*
Y349250D01*
X969495D02*
Y355750D01*
X971995D02*
Y349250D01*
X974495D02*
Y442183D01*
X971995D02*
Y404250D01*
X969495D02*
Y442183D01*
X966995D02*
Y404250D01*
X964495D02*
Y442183D01*
X961995D02*
Y404250D01*
X959495D02*
Y442183D01*
X956995D02*
Y404250D01*
X954495D02*
Y442183D01*
X951995D02*
Y404250D01*
X949495D02*
Y442183D01*
X946995D02*
Y404250D01*
X944495D02*
Y442183D01*
X941995D02*
Y404250D01*
X939549Y402996D02*
X766177D01*
X766251Y401863D02*
G03*
X763688Y408050I-8750J0D01*
G01*
X766251Y401863D02*
G03*
X763688Y408050I-8750J0D01*
G01*
X747051Y424687D01*
X746995Y424743D02*
Y442183D01*
X749495D02*
Y422243D01*
X748743Y422995D02*
X1198000D01*
Y420496D02*
X751243D01*
X751995Y419743D02*
Y442183D01*
X754495D02*
Y417243D01*
X753743Y417996D02*
X1198000D01*
Y415496D02*
X756243D01*
X756995Y414743D02*
Y442183D01*
X759495D02*
Y412243D01*
X758743Y412996D02*
X1198000D01*
Y410496D02*
X761243D01*
X761995Y409743D02*
Y442183D01*
X764495D02*
Y407121D01*
X763742Y407996D02*
X1198000D01*
Y405496D02*
X765461D01*
X766251Y401863D02*
Y365850D01*
X768749D01*
Y364850D01*
X772251D01*
X768749D01*
X767250D01*
X768749D01*
Y365496D02*
X791251D01*
Y365850D02*
X803751D01*
X801995D02*
Y442183D01*
X799495D02*
Y365850D01*
X766251Y370496D02*
X939549D01*
Y372996D02*
X766251D01*
Y375496D02*
X939549D01*
Y377996D02*
X766251D01*
Y380496D02*
X939549D01*
Y382996D02*
X766251D01*
Y385496D02*
X939549D01*
Y387996D02*
X766251D01*
Y390496D02*
X939549D01*
Y392996D02*
X766251D01*
Y395496D02*
X939549D01*
Y397996D02*
X766251D01*
Y400496D02*
X939549D01*
X974049D02*
X1198000D01*
Y397996D02*
X974049D01*
Y395496D02*
X1198000D01*
Y392996D02*
X974049D01*
Y390496D02*
X1198000D01*
Y387996D02*
X974049D01*
Y385496D02*
X1198000D01*
Y382996D02*
X974049D01*
Y380496D02*
X1198000D01*
Y377996D02*
X974049D01*
Y375496D02*
X1198000D01*
Y372996D02*
X974049D01*
Y370496D02*
X1198000D01*
Y402996D02*
X974049D01*
Y367996D02*
X1198000D01*
Y365496D02*
X974049D01*
Y362996D02*
X1198000D01*
Y360496D02*
X974049D01*
Y357996D02*
X1198000D01*
Y355496D02*
X943750D01*
X944495Y355750D02*
Y349250D01*
X945000Y350000D02*
X939900Y355100D01*
X937500D01*
X932499D02*
Y340501D01*
X934000Y339000D01*
X940000D01*
X946995Y349250D02*
Y355750D01*
X943750Y352996D02*
X1198000D01*
Y200496D02*
X1088776D01*
X1089000Y197996D02*
X1198000D01*
Y195496D02*
X1089000D01*
Y192996D02*
X1198000D01*
Y190496D02*
X1089000D01*
Y187996D02*
X1198000D01*
X1186994Y68617D02*
Y771383D01*
X1185173Y770495D02*
X1198000D01*
Y777995D02*
X1196307D01*
X1196994Y778659D02*
Y61342D01*
X1198000Y62996D02*
X1195218D01*
X1194494Y63617D02*
Y776383D01*
X1184494Y770191D02*
Y69809D01*
X1174494Y72736D02*
Y767264D01*
X1161994Y767190D02*
Y72811D01*
X1192075Y65496D02*
X1198000D01*
X1129494Y46794D02*
Y793206D01*
X1129576Y792995D02*
X1013129D01*
Y790495D02*
X1130649D01*
X1128691Y795495D02*
X1013129D01*
Y797995D02*
X1127982D01*
X1127439Y800495D02*
X1013129D01*
Y802995D02*
X1127055D01*
X1126994Y803519D02*
Y36481D01*
X1126899Y35496D02*
X1012132D01*
Y37996D02*
X1127188D01*
X1127635Y40496D02*
X1012132D01*
Y42996D02*
X1128243D01*
X1129021Y45496D02*
X1012132D01*
Y32996D02*
X1126762D01*
X1126778Y30496D02*
X1012132D01*
Y27996D02*
X1126945D01*
X997949Y170977D02*
X997847Y171758D01*
X997697Y172532D01*
X1007000Y125496D02*
X1017250D01*
X1006787Y123198D02*
G03*
X1007000Y125145I-8787J1947D01*
G01*
X997683Y111500D02*
X997949Y109477D01*
X994472Y95496D02*
X987732D01*
Y92996D02*
X994472D01*
Y90496D02*
X987732D01*
Y87996D02*
X994472D01*
Y85496D02*
X987732D01*
Y82996D02*
X994472D01*
Y80496D02*
X987732D01*
X984495Y76633D02*
Y55000D01*
X981995Y55000D02*
Y76633D01*
X979495D02*
Y55000D01*
X991995Y55000D02*
Y96000D01*
X1045250Y187996D02*
X1080000D01*
Y190496D02*
X1045250D01*
Y192996D02*
X1080000D01*
Y195496D02*
X1045250D01*
X971995Y328750D02*
Y254750D01*
X969495D02*
Y328750D01*
X966995D02*
Y254750D01*
X964495D02*
Y328750D01*
X961995D02*
Y254750D01*
X959495D02*
Y328750D01*
X946995D02*
Y255750D01*
X950750Y252996D02*
X958250D01*
Y250496D02*
X950750D01*
Y247996D02*
X958250D01*
X935000Y325998D02*
X934998Y326000D01*
X925000D01*
Y336000D01*
X922499Y338501D01*
Y355100D01*
X921995Y364850D02*
Y365850D01*
Y442183D01*
X919495D02*
Y364850D01*
X924495Y365850D02*
Y442183D01*
X926995D02*
Y365850D01*
X929495D02*
Y442183D01*
X936995D02*
Y365850D01*
X939495D02*
Y442183D01*
X976995D02*
Y349250D01*
X939549Y367996D02*
X766251D01*
X766995Y365850D02*
Y442183D01*
X769495D02*
Y364850D01*
X771995D02*
Y442183D01*
X774495D02*
Y364850D01*
X772751D02*
X777250D01*
X772751D01*
X776995D02*
Y442183D01*
X779495D02*
Y364850D01*
X777749D02*
X782251D01*
X777749D01*
X781995D02*
Y442183D01*
X784495D02*
Y364850D01*
X782751D02*
X787250D01*
X782751D01*
X786995D02*
Y442183D01*
X789495D02*
Y364850D01*
X787749D02*
X791251D01*
Y365850D01*
X791995D02*
Y442183D01*
X794495D02*
Y365850D01*
X796995D02*
Y442183D01*
X739495D02*
Y427250D01*
X787749Y364850D02*
X791251D01*
X792751D01*
X791251D01*
X791995D02*
Y365850D01*
X792499Y355100D02*
X792500Y355099D01*
X842998Y188997D02*
X860000Y206000D01*
X842998Y188997D02*
Y169996D01*
X834248Y177996D02*
X817663D01*
X816995Y177328D02*
Y140288D01*
X801995Y140500D02*
Y164238D01*
X799939Y164000D02*
G03*
X806303Y166636I0J9000D01*
G01*
X799495Y164000D02*
Y140500D01*
X824013Y127996D02*
X836753D01*
X796995Y140500D02*
Y164000D01*
X794495D02*
Y140500D01*
X791995D02*
Y164000D01*
X789495D02*
Y140500D01*
X786995D02*
Y164000D01*
X784495D02*
Y140500D01*
X781995D02*
Y164000D01*
X779495D02*
Y140500D01*
X776995D02*
Y164000D01*
X774495D02*
Y140500D01*
X771995D02*
Y164000D01*
X769495D02*
Y140500D01*
X766995D02*
Y164000D01*
X764495D02*
Y140500D01*
X761995D02*
Y164000D01*
X759495D02*
Y140500D01*
X756995D02*
Y164000D01*
X754495D02*
Y140500D01*
X751995D02*
Y164000D01*
X749495D02*
Y140500D01*
X746995D02*
Y164000D01*
X744495D02*
Y140500D01*
X741995D02*
Y164000D01*
X739495D02*
Y140500D01*
X736995D02*
Y164000D01*
X734495D02*
Y140500D01*
X731995D02*
Y164000D01*
X729495D02*
Y140500D01*
X726995D02*
Y164000D01*
X724495D02*
Y140500D01*
X721995D02*
Y164000D01*
X719495D02*
Y140500D01*
X716995D02*
Y164000D01*
X714495D02*
Y140500D01*
X711995D02*
Y164000D01*
X709495D02*
Y140500D01*
X706995D02*
Y164000D01*
X704495D02*
Y140500D01*
X701995D02*
Y164000D01*
X699495D02*
Y140500D01*
X696995D02*
Y164000D01*
X694495D02*
Y140500D01*
X691995D02*
Y164000D01*
X689495D02*
Y140500D01*
X686995D02*
Y164000D01*
X684495D02*
Y140500D01*
X681995D02*
Y164000D01*
X679495D02*
Y140500D01*
X408688Y445495D02*
X399750D01*
Y447995D02*
X407447D01*
X407183Y450495D02*
X399750D01*
Y452995D02*
X407183D01*
Y455495D02*
X399750D01*
Y457995D02*
X407183D01*
Y460495D02*
X399750D01*
Y462995D02*
X407183D01*
Y465495D02*
X399750D01*
Y467995D02*
X407183D01*
Y470495D02*
X399750D01*
Y472995D02*
X407183D01*
Y475495D02*
X399750D01*
Y477995D02*
X407183D01*
Y480495D02*
X399750D01*
Y482995D02*
X407183D01*
Y485495D02*
X399750D01*
Y487995D02*
X407183D01*
Y490495D02*
X399750D01*
Y492995D02*
X407183D01*
Y495495D02*
X399750D01*
Y497995D02*
X407183D01*
Y500495D02*
X399750D01*
Y502995D02*
X407183D01*
Y505495D02*
X399750D01*
Y507995D02*
X407183D01*
Y510495D02*
X399750D01*
Y512995D02*
X407183D01*
Y515495D02*
X399750D01*
Y517995D02*
X407183D01*
Y520495D02*
X399750D01*
Y522995D02*
X407183D01*
Y525495D02*
X399750D01*
Y527995D02*
X407183D01*
Y530495D02*
X399750D01*
Y532995D02*
X407183D01*
Y535495D02*
X399750D01*
Y537995D02*
X407183D01*
Y540495D02*
X399750D01*
Y542995D02*
X407183D01*
Y545495D02*
X399750D01*
Y547995D02*
X407183D01*
Y550495D02*
X399750D01*
Y552995D02*
X407183D01*
Y555495D02*
X399750D01*
Y557995D02*
X407183D01*
Y560495D02*
X399750D01*
Y562995D02*
X407183D01*
Y565495D02*
X399750D01*
Y567995D02*
X407183D01*
Y570495D02*
X399750D01*
Y572995D02*
X407183D01*
Y575495D02*
X399750D01*
Y577995D02*
X407183D01*
Y580495D02*
X399750D01*
Y582995D02*
X407183D01*
Y585495D02*
X399750D01*
Y587995D02*
X407183D01*
Y590495D02*
X399750D01*
Y592995D02*
X407183D01*
Y595495D02*
X399750D01*
Y597995D02*
X407183D01*
Y600495D02*
X399750D01*
Y602995D02*
X407183D01*
Y605495D02*
X399750D01*
Y607995D02*
X407183D01*
X436996Y637817D02*
Y736833D01*
X439496D02*
Y637817D01*
X441996D02*
Y736833D01*
X444496D02*
Y637817D01*
X446996D02*
Y736833D01*
X449496D02*
Y637817D01*
X451996D02*
Y736833D01*
X453329Y737995D02*
X461069D01*
Y736833D02*
X478729D01*
Y762367D01*
X461069D01*
Y736833D01*
X461996D02*
Y637817D01*
X464496D02*
Y736833D01*
X466996D02*
Y637817D01*
X469496D02*
Y736833D01*
X471996D02*
Y637817D01*
X474496D02*
Y736833D01*
X476996D02*
Y637817D01*
X479496D02*
Y838000D01*
X481996D02*
Y637817D01*
X484496D02*
Y838000D01*
X486996D02*
Y814367D01*
X486469D02*
X504129D01*
Y788833D01*
X486469D01*
Y814367D01*
Y812995D02*
X478729D01*
Y814367D02*
X461069D01*
Y788833D01*
X478729D01*
Y814367D01*
X476996D02*
Y838000D01*
X474496D02*
Y814367D01*
X471996D02*
Y838000D01*
X469496D02*
Y814367D01*
X466996D02*
Y838000D01*
X464496D02*
Y814367D01*
X461996D02*
Y838000D01*
X459496D02*
Y637817D01*
X456996D02*
Y838000D01*
X454496D02*
Y637817D01*
X486996D02*
Y736833D01*
X486469D02*
X504129D01*
Y762367D01*
X486469D01*
Y736833D01*
Y737995D02*
X478729D01*
Y740495D02*
X486469D01*
Y742995D02*
X478729D01*
Y745495D02*
X486469D01*
Y747995D02*
X478729D01*
Y750495D02*
X486469D01*
Y752995D02*
X478729D01*
Y755495D02*
X486469D01*
Y757995D02*
X478729D01*
Y760495D02*
X486469D01*
X486996Y762367D02*
Y788833D01*
X489496D02*
Y762367D01*
X491996D02*
Y788833D01*
X494496D02*
Y762367D01*
X496996D02*
Y788833D01*
X476996D02*
Y762367D01*
X474496D02*
Y788833D01*
X471996D02*
Y762367D01*
X469496D02*
Y788833D01*
X466996D02*
Y762367D01*
X464496D02*
Y788833D01*
X461996D02*
Y762367D01*
X461069Y760495D02*
X453329D01*
Y757995D02*
X461069D01*
Y755495D02*
X453329D01*
Y752995D02*
X461069D01*
Y750495D02*
X453329D01*
Y747995D02*
X461069D01*
Y745495D02*
X453329D01*
Y742995D02*
X461069D01*
Y740495D02*
X453329D01*
X451996Y762367D02*
Y788833D01*
X453329D02*
Y814367D01*
X435669D01*
Y788833D01*
X453329D01*
X449496D02*
Y762367D01*
X446996D02*
Y788833D01*
X444496D02*
Y762367D01*
X441996D02*
Y788833D01*
X439496D02*
Y762367D01*
X436996D02*
Y788833D01*
X489496Y736833D02*
Y637817D01*
X491996D02*
Y736833D01*
X494496D02*
Y637817D01*
X496996D02*
Y736833D01*
X499496D02*
Y637817D01*
X501996D02*
Y736833D01*
X504129Y737995D02*
X511869D01*
Y736833D02*
X529529D01*
Y762367D01*
X511869D01*
Y736833D01*
X511996D02*
Y637817D01*
X514496D02*
Y736833D01*
X516996D02*
Y637817D01*
X519496D02*
Y736833D01*
X521996D02*
Y637817D01*
X524496D02*
Y736833D01*
X526996D02*
Y637817D01*
X529496D02*
Y736833D01*
X529529Y737995D02*
X537269D01*
Y736833D02*
X554929D01*
Y762367D01*
X537269D01*
Y736833D01*
X539496D02*
Y637817D01*
X541996D02*
Y736833D01*
X544496D02*
Y637817D01*
X546996D02*
Y736833D01*
X549496D02*
Y637817D01*
X551996D02*
Y736833D01*
X554496D02*
Y637817D01*
X556996D02*
Y838000D01*
X554496D02*
Y814367D01*
X554929D02*
X537269D01*
Y788833D01*
X554929D01*
Y814367D01*
Y812995D02*
X562669D01*
Y814367D02*
X580329D01*
Y788833D01*
X562669D01*
Y814367D01*
X564496D02*
Y838000D01*
X561996D02*
Y637817D01*
X564496D02*
Y736833D01*
X562669D02*
X580329D01*
Y762367D01*
X562669D01*
Y736833D01*
Y737995D02*
X554929D01*
Y740495D02*
X562669D01*
Y742995D02*
X554929D01*
Y745495D02*
X562669D01*
Y747995D02*
X554929D01*
Y750495D02*
X562669D01*
Y752995D02*
X554929D01*
Y755495D02*
X562669D01*
Y757995D02*
X554929D01*
Y760495D02*
X562669D01*
X564496Y762367D02*
Y788833D01*
X566996D02*
Y762367D01*
X569496D02*
Y788833D01*
X571996D02*
Y762367D01*
X574496D02*
Y788833D01*
X576996D02*
Y762367D01*
X579496D02*
Y788833D01*
X588069D02*
Y814367D01*
X605729D01*
Y788833D01*
X588069D01*
X589496D02*
Y762367D01*
X588069D02*
X605729D01*
Y736833D01*
X588069D01*
Y762367D01*
Y760495D02*
X580329D01*
Y757995D02*
X588069D01*
Y755495D02*
X580329D01*
Y752995D02*
X588069D01*
Y750495D02*
X580329D01*
Y747995D02*
X588069D01*
Y745495D02*
X580329D01*
Y742995D02*
X588069D01*
Y740495D02*
X580329D01*
Y737995D02*
X588069D01*
X589496Y736833D02*
Y637817D01*
X591996D02*
Y736833D01*
X594496D02*
Y637817D01*
X596996D02*
Y736833D01*
X599495D02*
Y637817D01*
X601995D02*
Y736833D01*
X604495D02*
Y637817D01*
X606995D02*
Y838000D01*
X609495D02*
Y637817D01*
X611995D02*
Y838000D01*
X614495D02*
Y814367D01*
X613469D02*
X631129D01*
Y788833D01*
X613469D01*
Y814367D01*
Y812995D02*
X605729D01*
Y810495D02*
X613469D01*
Y807995D02*
X605729D01*
Y805495D02*
X613469D01*
Y802995D02*
X605729D01*
Y800495D02*
X613469D01*
Y797995D02*
X605729D01*
Y795495D02*
X613469D01*
Y792995D02*
X605729D01*
Y790495D02*
X613469D01*
X588069D02*
X580329D01*
Y792995D02*
X588069D01*
Y795495D02*
X580329D01*
Y797995D02*
X588069D01*
Y800495D02*
X580329D01*
Y802995D02*
X588069D01*
Y805495D02*
X580329D01*
Y807995D02*
X588069D01*
Y810495D02*
X580329D01*
Y812995D02*
X588069D01*
X589496Y814367D02*
Y838000D01*
X586996D02*
Y637817D01*
X584496D02*
Y838000D01*
X581996D02*
Y637817D01*
X579496D02*
Y736833D01*
X576996D02*
Y637817D01*
X574496D02*
Y736833D01*
X571996D02*
Y637817D01*
X569496D02*
Y736833D01*
X566996D02*
Y637817D01*
X559496D02*
Y838000D01*
X566996D02*
Y814367D01*
X569496D02*
Y838000D01*
X571996D02*
Y814367D01*
X574496D02*
Y838000D01*
X576996D02*
Y814367D01*
X579496D02*
Y838000D01*
X591996D02*
Y814367D01*
X594496D02*
Y838000D01*
X596996D02*
Y814367D01*
X599495D02*
Y838000D01*
X601995D02*
Y814367D01*
X604495D02*
Y838000D01*
X616995D02*
Y814367D01*
X562669Y810495D02*
X554929D01*
Y807995D02*
X562669D01*
Y805495D02*
X554929D01*
Y802995D02*
X562669D01*
Y800495D02*
X554929D01*
Y797995D02*
X562669D01*
Y795495D02*
X554929D01*
Y792995D02*
X562669D01*
Y790495D02*
X554929D01*
X537269D02*
X529529D01*
Y792995D02*
X537269D01*
Y795495D02*
X529529D01*
Y797995D02*
X537269D01*
Y800495D02*
X529529D01*
Y802995D02*
X537269D01*
Y805495D02*
X529529D01*
Y807995D02*
X537269D01*
Y810495D02*
X529529D01*
Y812995D02*
X537269D01*
X539496Y814367D02*
Y838000D01*
X536996D02*
Y637817D01*
X534496D02*
Y838000D01*
X531996D02*
Y637817D01*
X509496D02*
Y838000D01*
X506996D02*
Y637817D01*
X504496D02*
Y838000D01*
X501996D02*
Y814367D01*
X499496D02*
Y838000D01*
X511996D02*
Y814367D01*
X511869D02*
X529529D01*
Y788833D01*
X511869D01*
Y814367D01*
Y812995D02*
X504129D01*
Y810495D02*
X511869D01*
Y807995D02*
X504129D01*
Y805495D02*
X511869D01*
Y802995D02*
X504129D01*
Y800495D02*
X511869D01*
Y797995D02*
X504129D01*
Y795495D02*
X511869D01*
Y792995D02*
X504129D01*
Y790495D02*
X511869D01*
X514496Y814367D02*
Y838000D01*
X516996D02*
Y814367D01*
X519496D02*
Y838000D01*
X521996D02*
Y814367D01*
X524496D02*
Y838000D01*
X526996D02*
Y814367D01*
X529496D02*
Y838000D01*
X541996D02*
Y814367D01*
X544496D02*
Y838000D01*
X546996D02*
Y814367D01*
X549496D02*
Y838000D01*
X551996D02*
Y814367D01*
Y788833D02*
Y762367D01*
X549496D02*
Y788833D01*
X546996D02*
Y762367D01*
X544496D02*
Y788833D01*
X541996D02*
Y762367D01*
X539496D02*
Y788833D01*
X529496D02*
Y762367D01*
X529529Y760495D02*
X537269D01*
Y757995D02*
X529529D01*
Y755495D02*
X537269D01*
Y752995D02*
X529529D01*
Y750495D02*
X537269D01*
Y747995D02*
X529529D01*
Y745495D02*
X537269D01*
Y742995D02*
X529529D01*
Y740495D02*
X537269D01*
X511869D02*
X504129D01*
Y742995D02*
X511869D01*
Y745495D02*
X504129D01*
Y747995D02*
X511869D01*
Y750495D02*
X504129D01*
Y752995D02*
X511869D01*
Y755495D02*
X504129D01*
Y757995D02*
X511869D01*
Y760495D02*
X504129D01*
X501996Y762367D02*
Y788833D01*
X499496D02*
Y762367D01*
X511996D02*
Y788833D01*
X514496D02*
Y762367D01*
X516996D02*
Y788833D01*
X519496D02*
Y762367D01*
X521996D02*
Y788833D01*
X524496D02*
Y762367D01*
X526996D02*
Y788833D01*
X554496D02*
Y762367D01*
X591996D02*
Y788833D01*
X594496D02*
Y762367D01*
X596996D02*
Y788833D01*
X599495D02*
Y762367D01*
X601995D02*
Y788833D01*
X604495D02*
Y762367D01*
X605729Y760495D02*
X613469D01*
Y762367D02*
X631129D01*
Y736833D01*
X613469D01*
Y762367D01*
X614495D02*
Y788833D01*
X616995D02*
Y762367D01*
X613469Y757995D02*
X605729D01*
Y755495D02*
X613469D01*
Y752995D02*
X605729D01*
Y750495D02*
X613469D01*
Y747995D02*
X605729D01*
Y745495D02*
X613469D01*
Y742995D02*
X605729D01*
Y740495D02*
X613469D01*
Y737995D02*
X605729D01*
X614495Y736833D02*
Y637817D01*
X616995D02*
Y736833D01*
X619495D02*
Y637817D01*
X621995D02*
Y736833D01*
X624495D02*
Y637817D01*
X626995D02*
Y736833D01*
X629495D02*
Y637817D01*
X631995D02*
Y838000D01*
X634495D02*
Y637817D01*
X636995D02*
Y838000D01*
X639495D02*
Y814367D01*
X638869D02*
X656529D01*
Y788833D01*
X638869D01*
Y814367D01*
Y812995D02*
X631129D01*
Y810495D02*
X638869D01*
Y807995D02*
X631129D01*
Y805495D02*
X638869D01*
Y802995D02*
X631129D01*
Y800495D02*
X638869D01*
Y797995D02*
X631129D01*
Y795495D02*
X638869D01*
Y792995D02*
X631129D01*
Y790495D02*
X638869D01*
X656529D02*
X664269D01*
Y792995D02*
X656529D01*
Y795495D02*
X664269D01*
Y797995D02*
X656529D01*
Y800495D02*
X664269D01*
Y802995D02*
X656529D01*
Y805495D02*
X664269D01*
Y807995D02*
X656529D01*
Y810495D02*
X664269D01*
Y812995D02*
X656529D01*
X654495Y814367D02*
Y838000D01*
X656995D02*
Y637817D01*
X654495D02*
Y736833D01*
X656529D02*
Y762367D01*
X638869D01*
Y736833D01*
X656529D01*
Y737995D02*
X664269D01*
X664495Y736833D02*
Y637817D01*
X666995D02*
Y736833D01*
X669495D02*
Y637817D01*
X671995D02*
Y736833D01*
X674495D02*
Y637817D01*
X676995D02*
Y736833D01*
X664269Y740495D02*
X656529D01*
Y742995D02*
X664269D01*
Y745495D02*
X656529D01*
Y747995D02*
X664269D01*
Y750495D02*
X656529D01*
Y752995D02*
X664269D01*
Y755495D02*
X656529D01*
Y757995D02*
X664269D01*
Y760495D02*
X656529D01*
X654495Y762367D02*
Y788833D01*
X651995D02*
Y762367D01*
X649495D02*
Y788833D01*
X646995D02*
Y762367D01*
X644495D02*
Y788833D01*
X641995D02*
Y762367D01*
X639495D02*
Y788833D01*
X629495D02*
Y762367D01*
X626995D02*
Y788833D01*
X624495D02*
Y762367D01*
X621995D02*
Y788833D01*
X619495D02*
Y762367D01*
X631129Y760495D02*
X638869D01*
Y757995D02*
X631129D01*
Y755495D02*
X638869D01*
Y752995D02*
X631129D01*
Y750495D02*
X638869D01*
Y747995D02*
X631129D01*
Y745495D02*
X638869D01*
Y742995D02*
X631129D01*
Y740495D02*
X638869D01*
Y737995D02*
X631129D01*
X639495Y736833D02*
Y637817D01*
X641995D02*
Y736833D01*
X644495D02*
Y637817D01*
X646995D02*
Y736833D01*
X649495D02*
Y637817D01*
X651995D02*
Y736833D01*
X664495Y762367D02*
Y788833D01*
X666995D02*
Y762367D01*
X669495D02*
Y788833D01*
X671995D02*
Y762367D01*
X674495D02*
Y788833D01*
X676995D02*
Y762367D01*
X716995D02*
Y788833D01*
X715069D02*
X732729D01*
Y814367D01*
X715069D01*
Y788833D01*
X719495D02*
Y762367D01*
X721995D02*
Y788833D01*
X724495D02*
Y762367D01*
X726995D02*
Y788833D01*
X729495D02*
Y762367D01*
X731995D02*
Y788833D01*
X707500Y787995D02*
X993469D01*
X994495Y787833D02*
Y762367D01*
X994469Y760495D02*
X986729D01*
Y757995D02*
X994469D01*
Y755495D02*
X986729D01*
Y752995D02*
X994469D01*
Y750495D02*
X986729D01*
Y747995D02*
X994469D01*
Y745495D02*
X986729D01*
Y742995D02*
X994469D01*
Y740495D02*
X986729D01*
X984495Y762367D02*
Y788833D01*
X986729D02*
Y814367D01*
X969069D01*
Y788833D01*
X986729D01*
X981995D02*
Y762367D01*
X979495D02*
Y788833D01*
X996995Y787833D02*
Y762367D01*
X999495D02*
Y787833D01*
X1001995D02*
Y762367D01*
X1004495D02*
Y787833D01*
X1006995D02*
Y762367D01*
X1009495D02*
Y787833D01*
X1012129Y757995D02*
X1198000D01*
Y755495D02*
X1012129D01*
Y752995D02*
X1198000D01*
Y750495D02*
X1012129D01*
Y747995D02*
X1198000D01*
Y745495D02*
X1012129D01*
Y742995D02*
X1198000D01*
Y740495D02*
X1012129D01*
X1013129Y805495D02*
X1126826D01*
X1126750Y807995D02*
X1013129D01*
Y810495D02*
X1126826D01*
X1126994Y812481D02*
Y838000D01*
X1129494D02*
Y822794D01*
X1129572Y822995D02*
X70428D01*
X69496Y825193D02*
Y838000D01*
X71996D02*
Y818092D01*
X72021Y817995D02*
X1127979D01*
X1127437Y815495D02*
X72564D01*
X72947Y812995D02*
X358469D01*
Y810495D02*
X73175D01*
X73250Y807995D02*
X358469D01*
Y805495D02*
X73174D01*
X72945Y802995D02*
X358469D01*
Y800495D02*
X72562D01*
X71312Y820495D02*
X1128688D01*
X1130644Y825495D02*
X69356D01*
X68080Y827995D02*
X1131920D01*
X1131994Y828128D02*
Y838000D01*
X1134494D02*
Y832061D01*
X1135185Y832995D02*
X64815D01*
X64496Y833408D02*
Y838000D01*
X61996D02*
Y836316D01*
X62751Y835495D02*
X1137250D01*
X1136994Y835207D02*
Y838000D01*
X1139683Y837995D02*
X60318D01*
X66996Y838000D02*
Y829836D01*
X66577Y830495D02*
X1133423D01*
X1127054Y812995D02*
X1013129D01*
X993469D02*
X986729D01*
Y810495D02*
X993469D01*
Y807995D02*
X986729D01*
Y805495D02*
X993469D01*
Y802995D02*
X986729D01*
Y800495D02*
X993469D01*
Y797995D02*
X986729D01*
Y795495D02*
X993469D01*
Y792995D02*
X986729D01*
Y790495D02*
X993469D01*
X984495Y814367D02*
Y838000D01*
X981995D02*
Y814367D01*
X979495D02*
Y838000D01*
X976995D02*
Y814367D01*
X974495D02*
Y838000D01*
X971995D02*
Y814367D01*
X969495D02*
Y838000D01*
X966995D02*
Y637817D01*
X969495D02*
Y736833D01*
X969069Y737995D02*
X961329D01*
Y736833D02*
Y762367D01*
X943669D01*
Y736833D01*
X961329D01*
X959495D02*
Y637817D01*
X956995D02*
Y736833D01*
X954495D02*
Y637817D01*
X951995D02*
Y736833D01*
X949495D02*
Y637817D01*
X946995D02*
Y736833D01*
X944495D02*
Y637817D01*
X941995D02*
Y838000D01*
X939495D02*
Y637817D01*
X936995D02*
Y838000D01*
X934495D02*
Y814367D01*
X935929D02*
Y788833D01*
X918269D01*
Y814367D01*
X935929D01*
Y812995D02*
X943669D01*
Y814367D02*
X961329D01*
Y788833D01*
X943669D01*
Y814367D01*
X944495D02*
Y838000D01*
X946995D02*
Y814367D01*
X949495D02*
Y838000D01*
X951995D02*
Y814367D01*
X954495D02*
Y838000D01*
X956995D02*
Y814367D01*
X959495D02*
Y838000D01*
X961995D02*
Y637817D01*
X964495D02*
Y838000D01*
X961329Y812995D02*
X969069D01*
Y810495D02*
X961329D01*
Y807995D02*
X969069D01*
Y805495D02*
X961329D01*
Y802995D02*
X969069D01*
Y800495D02*
X961329D01*
Y797995D02*
X969069D01*
Y795495D02*
X961329D01*
Y792995D02*
X969069D01*
Y790495D02*
X961329D01*
X943669D02*
X935929D01*
Y792995D02*
X943669D01*
Y795495D02*
X935929D01*
Y797995D02*
X943669D01*
Y800495D02*
X935929D01*
Y802995D02*
X943669D01*
Y805495D02*
X935929D01*
Y807995D02*
X943669D01*
Y810495D02*
X935929D01*
X931995Y814367D02*
Y838000D01*
X929495D02*
Y814367D01*
X926995D02*
Y838000D01*
X924495D02*
Y814367D01*
X921995D02*
Y838000D01*
X919495D02*
Y814367D01*
Y788833D02*
Y762367D01*
X921995D02*
Y788833D01*
X924495D02*
Y762367D01*
X926995D02*
Y788833D01*
X929495D02*
Y762367D01*
X931995D02*
Y788833D01*
X934495D02*
Y762367D01*
X935929D02*
X918269D01*
Y736833D01*
X935929D01*
Y762367D01*
Y760495D02*
X943669D01*
Y757995D02*
X935929D01*
Y755495D02*
X943669D01*
Y752995D02*
X935929D01*
Y750495D02*
X943669D01*
Y747995D02*
X935929D01*
Y745495D02*
X943669D01*
Y742995D02*
X935929D01*
Y740495D02*
X943669D01*
Y737995D02*
X935929D01*
X934495Y736833D02*
Y637817D01*
X931995D02*
Y736833D01*
X929495D02*
Y637817D01*
X926995D02*
Y736833D01*
X924495D02*
Y637817D01*
X921995D02*
Y736833D01*
X919495D02*
Y637817D01*
X971995D02*
Y736833D01*
X974495D02*
Y637817D01*
X976995D02*
Y736833D01*
X969069Y740495D02*
X961329D01*
Y742995D02*
X969069D01*
Y745495D02*
X961329D01*
Y747995D02*
X969069D01*
Y750495D02*
X961329D01*
Y752995D02*
X969069D01*
Y755495D02*
X961329D01*
Y757995D02*
X969069D01*
Y760495D02*
X961329D01*
X959495Y762367D02*
Y788833D01*
X956995D02*
Y762367D01*
X954495D02*
Y788833D01*
X951995D02*
Y762367D01*
X949495D02*
Y788833D01*
X946995D02*
Y762367D01*
X944495D02*
Y788833D01*
X969495D02*
Y762367D01*
X971995D02*
Y788833D01*
X974495D02*
Y762367D01*
X976995D02*
Y788833D01*
X918269Y790495D02*
X910529D01*
Y792995D02*
X918269D01*
Y795495D02*
X910529D01*
Y797995D02*
X918269D01*
Y800495D02*
X910529D01*
Y802995D02*
X918269D01*
Y805495D02*
X910529D01*
Y807995D02*
X918269D01*
Y810495D02*
X910529D01*
Y812995D02*
X918269D01*
X910529Y814367D02*
X892869D01*
Y788833D01*
X910529D01*
Y814367D01*
X909495D02*
Y838000D01*
X906995D02*
Y814367D01*
X904495D02*
Y838000D01*
X901995D02*
Y814367D01*
X899495D02*
Y838000D01*
X896995D02*
Y814367D01*
X894495D02*
Y838000D01*
X891995D02*
Y637817D01*
X894495D02*
Y736833D01*
X892869D02*
X910529D01*
Y762367D01*
X892869D01*
Y736833D01*
Y737995D02*
X885129D01*
Y736833D02*
Y762367D01*
X867469D01*
Y736833D01*
X885129D01*
X884495D02*
Y637817D01*
X881995D02*
Y736833D01*
X879495D02*
Y637817D01*
X876995D02*
Y736833D01*
X874495D02*
Y637817D01*
X871995D02*
Y736833D01*
X869495D02*
Y637817D01*
X866995D02*
Y838000D01*
X864495D02*
Y637817D01*
X861995D02*
Y838000D01*
X859495D02*
Y814367D01*
X859729D02*
X842069D01*
Y788833D01*
X859729D01*
Y814367D01*
Y812995D02*
X867469D01*
Y814367D02*
X885129D01*
Y788833D01*
X867469D01*
Y814367D01*
X869495D02*
Y838000D01*
X871995D02*
Y814367D01*
X874495D02*
Y838000D01*
X876995D02*
Y814367D01*
X879495D02*
Y838000D01*
X881995D02*
Y814367D01*
X884495D02*
Y838000D01*
X886995D02*
Y637817D01*
X889495D02*
Y838000D01*
X911995D02*
Y637817D01*
X909495D02*
Y736833D01*
X910529Y737995D02*
X918269D01*
Y740495D02*
X910529D01*
Y742995D02*
X918269D01*
Y745495D02*
X910529D01*
Y747995D02*
X918269D01*
Y750495D02*
X910529D01*
Y752995D02*
X918269D01*
Y755495D02*
X910529D01*
Y757995D02*
X918269D01*
Y760495D02*
X910529D01*
X909495Y762367D02*
Y788833D01*
X906995D02*
Y762367D01*
X904495D02*
Y788833D01*
X901995D02*
Y762367D01*
X899495D02*
Y788833D01*
X896995D02*
Y762367D01*
X894495D02*
Y788833D01*
X884495D02*
Y762367D01*
X881995D02*
Y788833D01*
X879495D02*
Y762367D01*
X876995D02*
Y788833D01*
X874495D02*
Y762367D01*
X871995D02*
Y788833D01*
X869495D02*
Y762367D01*
X867469Y760495D02*
X859729D01*
Y762367D02*
Y736833D01*
X842069D01*
Y762367D01*
X859729D01*
X859495D02*
Y788833D01*
X859729Y757995D02*
X867469D01*
Y755495D02*
X859729D01*
Y752995D02*
X867469D01*
Y750495D02*
X859729D01*
Y747995D02*
X867469D01*
Y745495D02*
X859729D01*
Y742995D02*
X867469D01*
Y740495D02*
X859729D01*
Y737995D02*
X867469D01*
X859495Y736833D02*
Y637817D01*
X896995D02*
Y736833D01*
X899495D02*
Y637817D01*
X901995D02*
Y736833D01*
X904495D02*
Y637817D01*
X906995D02*
Y736833D01*
X892869Y740495D02*
X885129D01*
Y742995D02*
X892869D01*
Y745495D02*
X885129D01*
Y747995D02*
X892869D01*
Y750495D02*
X885129D01*
Y752995D02*
X892869D01*
Y755495D02*
X885129D01*
Y757995D02*
X892869D01*
Y760495D02*
X885129D01*
Y790495D02*
X892869D01*
Y792995D02*
X885129D01*
Y795495D02*
X892869D01*
Y797995D02*
X885129D01*
Y800495D02*
X892869D01*
Y802995D02*
X885129D01*
Y805495D02*
X892869D01*
Y807995D02*
X885129D01*
Y810495D02*
X892869D01*
Y812995D02*
X885129D01*
X867469Y810495D02*
X859729D01*
Y807995D02*
X867469D01*
Y805495D02*
X859729D01*
Y802995D02*
X867469D01*
Y800495D02*
X859729D01*
Y797995D02*
X867469D01*
Y795495D02*
X859729D01*
Y792995D02*
X867469D01*
Y790495D02*
X859729D01*
X914495Y838000D02*
Y637817D01*
X916995D02*
Y838000D01*
X856995D02*
Y814367D01*
X854495D02*
Y838000D01*
X851995D02*
Y814367D01*
X849495D02*
Y838000D01*
X846995D02*
Y814367D01*
X844495D02*
Y838000D01*
X841995D02*
Y637817D01*
X844495D02*
Y736833D01*
X846995D02*
Y637817D01*
X849495D02*
Y736833D01*
X851995D02*
Y637817D01*
X854495D02*
Y736833D01*
X856995D02*
Y637817D01*
X839495D02*
Y838000D01*
X836995D02*
Y637817D01*
X834495D02*
Y838000D01*
X831995D02*
Y814367D01*
X834329D02*
X816669D01*
Y788833D01*
X834329D01*
Y814367D01*
Y812995D02*
X842069D01*
Y810495D02*
X834329D01*
Y807995D02*
X842069D01*
Y805495D02*
X834329D01*
Y802995D02*
X842069D01*
Y800495D02*
X834329D01*
Y797995D02*
X842069D01*
Y795495D02*
X834329D01*
Y792995D02*
X842069D01*
Y790495D02*
X834329D01*
X816669D02*
X808929D01*
Y792995D02*
X816669D01*
Y795495D02*
X808929D01*
Y797995D02*
X816669D01*
Y800495D02*
X808929D01*
Y802995D02*
X816669D01*
Y805495D02*
X808929D01*
Y807995D02*
X816669D01*
Y810495D02*
X808929D01*
Y812995D02*
X816669D01*
X816995Y814367D02*
Y838000D01*
X814495D02*
Y637817D01*
X816995D02*
Y736833D01*
X816669D02*
X834329D01*
Y762367D01*
X816669D01*
Y736833D01*
Y737995D02*
X808929D01*
Y740495D02*
X816669D01*
Y742995D02*
X808929D01*
Y745495D02*
X816669D01*
Y747995D02*
X808929D01*
Y750495D02*
X816669D01*
Y752995D02*
X808929D01*
Y755495D02*
X816669D01*
Y757995D02*
X808929D01*
Y760495D02*
X816669D01*
X816995Y762367D02*
Y788833D01*
X819495D02*
Y762367D01*
X821995D02*
Y788833D01*
X824495D02*
Y762367D01*
X826995D02*
Y788833D01*
X829495D02*
Y762367D01*
X831995D02*
Y788833D01*
X844495D02*
Y762367D01*
X846995D02*
Y788833D01*
X849495D02*
Y762367D01*
X851995D02*
Y788833D01*
X854495D02*
Y762367D01*
X856995D02*
Y788833D01*
X842069Y760495D02*
X834329D01*
Y757995D02*
X842069D01*
Y755495D02*
X834329D01*
Y752995D02*
X842069D01*
Y750495D02*
X834329D01*
Y747995D02*
X842069D01*
Y745495D02*
X834329D01*
Y742995D02*
X842069D01*
Y740495D02*
X834329D01*
Y737995D02*
X842069D01*
X831995Y736833D02*
Y637817D01*
X829495D02*
Y736833D01*
X826995D02*
Y637817D01*
X824495D02*
Y736833D01*
X821995D02*
Y637817D01*
X819495D02*
Y736833D01*
X806995D02*
Y637817D01*
X804495D02*
Y736833D01*
X801995D02*
Y637817D01*
X799495D02*
Y736833D01*
Y762367D02*
Y788833D01*
X801995D02*
Y762367D01*
X804495D02*
Y788833D01*
X806995D02*
Y762367D01*
Y814367D02*
Y838000D01*
X809495D02*
Y637817D01*
X811995D02*
Y838000D01*
X819495D02*
Y814367D01*
X821995D02*
Y838000D01*
X824495D02*
Y814367D01*
X826995D02*
Y838000D01*
X829495D02*
Y814367D01*
X804495D02*
Y838000D01*
X801995D02*
Y814367D01*
X799495D02*
Y838000D01*
X743993Y782995D02*
X707500D01*
Y785495D02*
X1133430D01*
X1198000Y717995D02*
X362042D01*
X361996Y718041D02*
Y736850D01*
X364496D02*
Y715541D01*
X364542Y715495D02*
X1198000D01*
Y712995D02*
X367042D01*
X366996Y713041D02*
Y736850D01*
X369496D02*
Y710541D01*
X369542Y710495D02*
X1198000D01*
Y707995D02*
X372042D01*
X371996Y708041D02*
Y736850D01*
X374496D02*
Y705541D01*
X374542Y705495D02*
X1198000D01*
X740469Y740495D02*
X732729D01*
Y742995D02*
X740469D01*
X740099Y745495D02*
X732729D01*
Y747995D02*
X740000D01*
Y750495D02*
X732729D01*
Y752995D02*
X740000D01*
Y755495D02*
X732729D01*
Y757995D02*
X740000D01*
Y760495D02*
X732729D01*
X731995Y814367D02*
Y838000D01*
X734495D02*
Y637817D01*
X736995D02*
Y838000D01*
X729495D02*
Y814367D01*
X726995D02*
Y838000D01*
X724495D02*
Y814367D01*
X721995D02*
Y838000D01*
X719495D02*
Y814367D01*
X716995D02*
Y838000D01*
X689495D02*
Y806595D01*
X689669Y807995D02*
X681929D01*
Y805495D02*
X688779D01*
X687791Y802995D02*
X681929D01*
Y800495D02*
X687500D01*
Y797995D02*
X681929D01*
Y795495D02*
X687500D01*
Y792995D02*
X681929D01*
Y790495D02*
X687500D01*
X689669Y810495D02*
X681929D01*
X684495Y838000D02*
Y637817D01*
X686995D02*
Y838000D01*
X676995D02*
Y814367D01*
X674495D02*
Y838000D01*
X671995D02*
Y814367D01*
X669495D02*
Y838000D01*
X666995D02*
Y814367D01*
X664495D02*
Y838000D01*
X661995D02*
Y637817D01*
X659495D02*
Y838000D01*
X651995D02*
Y814367D01*
X649495D02*
Y838000D01*
X646995D02*
Y814367D01*
X644495D02*
Y838000D01*
X641995D02*
Y814367D01*
X629495D02*
Y838000D01*
X626995D02*
Y814367D01*
X624495D02*
Y838000D01*
X621995D02*
Y814367D01*
X619495D02*
Y838000D01*
X496996D02*
Y814367D01*
X494496D02*
Y838000D01*
X491996D02*
Y814367D01*
X489496D02*
Y838000D01*
X486469Y810495D02*
X478729D01*
Y807995D02*
X486469D01*
Y805495D02*
X478729D01*
Y802995D02*
X486469D01*
Y800495D02*
X478729D01*
Y797995D02*
X486469D01*
Y795495D02*
X478729D01*
Y792995D02*
X486469D01*
Y790495D02*
X478729D01*
X461069D02*
X453329D01*
Y792995D02*
X461069D01*
Y795495D02*
X453329D01*
Y797995D02*
X461069D01*
Y800495D02*
X453329D01*
Y802995D02*
X461069D01*
Y805495D02*
X453329D01*
Y807995D02*
X461069D01*
Y810495D02*
X453329D01*
Y812995D02*
X461069D01*
X451996Y814367D02*
Y838000D01*
X449496D02*
Y814367D01*
X446996D02*
Y838000D01*
X444496D02*
Y814367D01*
X441996D02*
Y838000D01*
X439496D02*
Y814367D01*
X436996D02*
Y838000D01*
X434496D02*
Y637817D01*
X431996D02*
Y838000D01*
X429496D02*
Y637817D01*
X409448Y635495D02*
X399750D01*
Y632995D02*
X407852D01*
X407248Y630495D02*
X399750D01*
Y627995D02*
X407183D01*
Y625495D02*
X399750D01*
Y622995D02*
X407183D01*
Y620495D02*
X399750D01*
Y617995D02*
X407183D01*
Y615495D02*
X399750D01*
Y612995D02*
X407183D01*
Y610495D02*
X399750D01*
X380750Y662995D02*
X375440D01*
X374496Y663939D02*
Y678671D01*
X375172Y677995D02*
X341364D01*
X341996Y678278D02*
Y670902D01*
X339496D02*
Y677454D01*
X336996Y677302D02*
Y670902D01*
X334496D02*
Y677302D01*
X331996D02*
Y670902D01*
X329496D02*
Y677302D01*
X326996D02*
Y670902D01*
X324496D02*
Y677302D01*
X321996D02*
Y670902D01*
X319496D02*
Y677302D01*
X316996D02*
Y670902D01*
Y696302D02*
Y702702D01*
X319496D02*
Y696302D01*
X321996D02*
Y702702D01*
X324496D02*
Y696302D01*
X326996D02*
Y702702D01*
X329496D02*
Y696302D01*
X331996D02*
Y702702D01*
X334496D02*
Y696302D01*
X336996D02*
Y702553D01*
X339496Y702618D02*
Y696150D01*
X344496Y693542D02*
Y705068D01*
X344924Y705495D02*
X347672D01*
X346996Y706171D02*
Y689193D01*
X347226Y687995D02*
X365172D01*
X364496Y688671D02*
Y670859D01*
X361996Y670902D02*
Y691171D01*
X362672Y690495D02*
X346554D01*
X345005Y692995D02*
X360172D01*
X359496Y693671D02*
Y670902D01*
X351996D02*
Y701171D01*
X352672Y700495D02*
X2000D01*
Y722995D02*
X330172D01*
X329496Y723671D02*
Y721702D01*
X326996D02*
Y726171D01*
X327672Y725495D02*
X2000D01*
Y727995D02*
X325172D01*
X324496Y728102D02*
Y721702D01*
X321996D02*
Y728102D01*
X319496D02*
Y721702D01*
X316996D02*
Y728102D01*
X346506Y682995D02*
X370172D01*
X369496Y683671D02*
Y668849D01*
X370440Y667995D02*
X380750D01*
Y665495D02*
X372940D01*
X371996Y666439D02*
Y681171D01*
X372672Y680495D02*
X344906D01*
X344496Y680061D02*
Y670902D01*
X368570Y642995D02*
X319168D01*
Y640495D02*
X371070D01*
X371996Y639569D02*
Y543402D01*
X369496D02*
Y642069D01*
X373570Y637995D02*
X319168D01*
Y635495D02*
X373750D01*
Y632995D02*
X319168D01*
Y630495D02*
X373750D01*
X314496Y670902D02*
Y677302D01*
X311996D02*
Y670902D01*
X309496D02*
Y677302D01*
X306996D02*
Y670902D01*
X264496Y670232D02*
Y677972D01*
X261996D02*
Y670232D01*
X259496D02*
Y677972D01*
X256996D02*
Y670232D01*
X266168Y705495D02*
X292634D01*
Y707995D02*
X266168D01*
Y710495D02*
X292634D01*
Y712995D02*
X266168D01*
Y715495D02*
X292634D01*
Y717995D02*
X266168D01*
Y720495D02*
X292634D01*
X294496Y721032D02*
Y728772D01*
X296996D02*
Y721032D01*
X299496D02*
Y728772D01*
X301996Y728733D02*
Y721071D01*
X304496Y721659D02*
Y728145D01*
X306996Y728102D02*
Y721702D01*
X309496D02*
Y728102D01*
X311996D02*
Y721702D01*
X314496D02*
Y728102D01*
X264496Y728772D02*
Y721032D01*
X261996D02*
Y728772D01*
X259496D02*
Y721032D01*
X256996D02*
Y728772D01*
X266168Y667995D02*
X292634D01*
Y665495D02*
X266168D01*
Y662995D02*
X292634D01*
Y660495D02*
X266168D01*
Y657995D02*
X292634D01*
Y655495D02*
X266168D01*
Y652995D02*
X292634D01*
X294496Y652572D02*
Y645832D01*
X296996D02*
Y652572D01*
X299496D02*
Y645832D01*
X301996D02*
Y652533D01*
X304496Y651945D02*
Y645832D01*
X306996D02*
Y651902D01*
X309496D02*
Y645832D01*
X311996D02*
Y651902D01*
X314496D02*
Y645832D01*
X291996D02*
Y838000D01*
X294496D02*
Y746432D01*
X296996D02*
Y838000D01*
X299496D02*
Y746432D01*
X301996Y746471D02*
Y838000D01*
X304496D02*
Y747059D01*
X306996Y747102D02*
Y838000D01*
X309496D02*
Y747102D01*
X311996D02*
Y838000D01*
X314496D02*
Y747102D01*
X292634Y745495D02*
X266168D01*
Y742995D02*
X292634D01*
Y740495D02*
X266168D01*
Y737995D02*
X292634D01*
Y735495D02*
X266168D01*
Y732995D02*
X292634D01*
Y730495D02*
X266168D01*
X264496Y746432D02*
Y838000D01*
X261996D02*
Y746432D01*
X259496D02*
Y838000D01*
X256996D02*
Y746432D01*
X316996Y747102D02*
Y838000D01*
X319496D02*
Y747102D01*
X321996D02*
Y838000D01*
X324496D02*
Y747102D01*
X326996D02*
Y838000D01*
X329496D02*
Y747089D01*
X331996Y746617D02*
Y838000D01*
X334496D02*
Y745351D01*
X334287Y745495D02*
X359549D01*
Y742995D02*
X337042D01*
X336996Y743041D02*
Y838000D01*
X339496D02*
Y740541D01*
X339542Y740495D02*
X359549D01*
Y737995D02*
X342042D01*
X341996Y738041D02*
Y838000D01*
X359496D02*
Y815367D01*
X361996D02*
Y838000D01*
X364496D02*
Y815367D01*
X366996D02*
Y838000D01*
X369496D02*
Y815367D01*
X371996D02*
Y838000D01*
X374496D02*
Y815367D01*
Y787833D02*
Y762350D01*
X371996D02*
Y787833D01*
X369496D02*
Y762350D01*
X366996D02*
Y787833D01*
X364496D02*
Y762350D01*
X361996D02*
Y787833D01*
X376996Y815367D02*
Y838000D01*
X389496D02*
Y814367D01*
X391996D02*
Y838000D01*
X394496D02*
Y814367D01*
X396996D02*
Y838000D01*
X399496D02*
Y814367D01*
X411996D02*
Y838000D01*
X414496D02*
Y814367D01*
X416996D02*
Y838000D01*
X419496D02*
Y814367D01*
X421996D02*
Y838000D01*
X424496D02*
Y814367D01*
X426996D02*
Y838000D01*
X427929Y812995D02*
X435669D01*
Y810495D02*
X427929D01*
Y807995D02*
X435669D01*
Y805495D02*
X427929D01*
Y802995D02*
X435669D01*
Y800495D02*
X427929D01*
Y797995D02*
X435669D01*
Y795495D02*
X427929D01*
Y792995D02*
X435669D01*
Y790495D02*
X427929D01*
X264496Y652572D02*
Y645832D01*
X261996D02*
Y652572D01*
X259496D02*
Y645832D01*
X256996D02*
Y652572D01*
Y626172D02*
Y619432D01*
X259496D02*
Y626172D01*
X261996D02*
Y619432D01*
X264496D02*
Y626172D01*
X266168Y617995D02*
X292634D01*
Y615495D02*
X266168D01*
Y612995D02*
X292634D01*
Y610495D02*
X266168D01*
X305401Y610602D02*
X306003Y610000D01*
X253401Y534402D02*
Y526199D01*
X256600Y523000D01*
X256996Y499172D02*
Y492432D01*
X259496D02*
Y499172D01*
X261996D02*
Y492432D01*
X264496D02*
Y499172D01*
X266168Y490495D02*
X292634D01*
X294496Y492432D02*
Y499172D01*
X296996D02*
Y492432D01*
X299496D02*
Y499172D01*
X301996D02*
Y492432D01*
X304496Y492556D02*
Y499172D01*
X306996D02*
Y492602D01*
X309496D02*
Y499172D01*
X311996D02*
Y492602D01*
X314496D02*
Y499172D01*
X305401Y458202D02*
X322000D01*
X330998Y457995D02*
X373750D01*
Y455495D02*
X330583D01*
X331996Y454887D02*
Y462800D01*
X333866Y462995D02*
X373750D01*
Y460495D02*
X330703D01*
X334496Y463153D02*
Y453527D01*
X335124Y452995D02*
X373750D01*
Y450495D02*
X337014D01*
X336996Y450531D02*
Y464314D01*
X338423Y465495D02*
X373750D01*
Y467995D02*
X340156D01*
X339496Y466819D02*
Y428778D01*
X337778Y430495D02*
X373750D01*
Y432995D02*
X335278D01*
X334496Y433778D02*
Y439273D01*
X335792Y440495D02*
X373750D01*
Y442995D02*
X337331D01*
X336996Y442269D02*
Y431278D01*
X332778Y435495D02*
X373750D01*
Y437995D02*
X332220D01*
X331996Y437913D02*
Y436278D01*
X322744Y432802D02*
X362000Y393546D01*
X372000Y386000D02*
X348000D01*
X327750Y406250D01*
X305401D01*
Y407402D01*
Y382002D02*
X323998D01*
X341000Y365000D01*
X336996Y365602D02*
Y377205D01*
X336205Y377996D02*
X319168D01*
Y380496D02*
X333705D01*
X334496Y379705D02*
Y365602D01*
X331996D02*
Y382205D01*
X331205Y382996D02*
X319168D01*
Y385496D02*
X328705D01*
X329496Y384705D02*
Y365602D01*
X326996D02*
Y386600D01*
X324496D02*
Y365602D01*
X321996D02*
Y386600D01*
X319496D02*
Y365602D01*
X316996D02*
Y372172D01*
X325000Y421000D02*
X257000D01*
X253401Y424599D01*
Y432802D01*
X240634Y432995D02*
X227050D01*
Y435495D02*
X240634D01*
Y437995D02*
X227050D01*
Y440495D02*
X240634D01*
X241996Y441632D02*
Y449372D01*
X244423D02*
G03*
X247037Y443635I8978J627D01*
G01*
X246996Y443676D02*
Y441632D01*
X247677Y442995D02*
X2000D01*
Y440495D02*
X108950D01*
X109496Y440650D02*
Y467183D01*
X106996D02*
Y2000D01*
X104496D02*
Y467183D01*
X101996D02*
Y2000D01*
X99496D02*
Y467249D01*
X96996Y467855D02*
Y2000D01*
X94496D02*
Y469454D01*
X93688Y470495D02*
X2000D01*
Y467995D02*
X96659D01*
X92447Y472995D02*
X2000D01*
Y475495D02*
X92183D01*
Y477995D02*
X2000D01*
Y480495D02*
X92183D01*
Y482995D02*
X2000D01*
Y485495D02*
X92183D01*
Y487995D02*
X2000D01*
Y465495D02*
X240634D01*
Y462995D02*
X2000D01*
Y460495D02*
X240634D01*
Y457995D02*
X2000D01*
Y455495D02*
X240634D01*
Y452995D02*
X2000D01*
Y450495D02*
X240634D01*
X244496Y448692D02*
Y441632D01*
X245609Y445495D02*
X2000D01*
Y447995D02*
X244627D01*
X253401Y449999D02*
Y458202D01*
Y449999D02*
X257000Y446400D01*
X329000D01*
X337954Y445495D02*
X373750D01*
Y447995D02*
X337858D01*
X340905Y470495D02*
X373750D01*
Y472995D02*
X340920D01*
X332000Y471800D02*
X257000D01*
X253401Y475399D01*
Y483602D01*
X240634Y482995D02*
X237817D01*
Y480495D02*
X240634D01*
Y477995D02*
X237817D01*
Y475495D02*
X240634D01*
X241996Y474772D02*
Y467032D01*
X244496D02*
Y474092D01*
X244728Y472995D02*
X237553D01*
X237817Y485495D02*
X240634D01*
Y487995D02*
X237817D01*
X226996Y467183D02*
Y440650D01*
X224496D02*
Y467183D01*
X221996D02*
Y440650D01*
X219496D02*
Y467183D01*
X216996D02*
Y440650D01*
X214496D02*
Y467183D01*
X211996D02*
Y440650D01*
X209496D02*
Y467183D01*
X206996D02*
Y440650D01*
X204496D02*
Y467183D01*
X201996D02*
Y440650D01*
X199496D02*
Y467183D01*
X196996D02*
Y440650D01*
X227050Y430495D02*
X240634D01*
Y427995D02*
X227050D01*
Y425495D02*
X240634D01*
X241996Y423972D02*
Y416232D01*
X240634Y415496D02*
X227050D01*
Y412996D02*
X240634D01*
Y410496D02*
X227050D01*
Y407996D02*
X240634D01*
Y405496D02*
X227050D01*
Y417996D02*
X247276D01*
X244423Y423972D02*
G03*
X247037Y418235I8978J627D01*
G01*
X246996Y418276D02*
Y416232D01*
X244496D02*
Y423292D01*
X244545Y422995D02*
X227050D01*
Y420496D02*
X245391D01*
X305401Y432802D02*
X322744D01*
X333798Y485495D02*
X373750D01*
Y487995D02*
X332855D01*
X350278Y417996D02*
X373933D01*
X241996Y518832D02*
Y525572D01*
X244990Y522995D02*
X237817D01*
X192550Y437995D02*
X143450D01*
Y435495D02*
X192550D01*
Y432995D02*
X143450D01*
Y430495D02*
X192550D01*
X190500Y402100D02*
Y389500D01*
X134496Y440650D02*
Y467183D01*
X131996D02*
Y440650D01*
X129496D02*
Y467183D01*
X126996D02*
Y440650D01*
X124496D02*
Y467183D01*
X121996D02*
Y440650D01*
X119496D02*
Y467183D01*
X116996D02*
Y440650D01*
X114496D02*
Y467183D01*
X111996D02*
Y440650D01*
X108950Y437995D02*
X2000D01*
Y435495D02*
X108950D01*
Y432995D02*
X2000D01*
Y430495D02*
X108950D01*
Y427995D02*
X2000D01*
Y425495D02*
X108950D01*
Y422995D02*
X2000D01*
Y420496D02*
X108950D01*
Y417996D02*
X2000D01*
Y415496D02*
X108950D01*
Y412996D02*
X2000D01*
Y410496D02*
X108950D01*
Y407996D02*
X2000D01*
Y385496D02*
X135268D01*
X134496Y384724D02*
Y403150D01*
X131996D02*
Y381616D01*
X131513Y380496D02*
X2000D01*
Y377996D02*
X131014D01*
X131000Y375496D02*
X2000D01*
Y372996D02*
X131000D01*
Y370496D02*
X2000D01*
Y382996D02*
X132873D01*
X131126Y367996D02*
X2000D01*
Y365496D02*
X131750D01*
Y361748D02*
Y360209D01*
X130834Y357996D02*
X2000D01*
Y355496D02*
X130500D01*
Y352996D02*
X2000D01*
Y350496D02*
X130459D01*
X130012Y347996D02*
X2000D01*
Y345496D02*
X130203D01*
X131072Y342996D02*
X2000D01*
X134496Y339151D02*
Y2000D01*
X74496D02*
Y838000D01*
X14827Y770495D02*
X2000D01*
Y772995D02*
X10178D01*
X9497Y773429D02*
Y66571D01*
X7926Y65496D02*
X2000D01*
Y62996D02*
X4782D01*
X4497Y62743D02*
Y777257D01*
X3694Y777995D02*
X2000D01*
Y775495D02*
X6604D01*
X6997Y775192D02*
Y64809D01*
X11855Y67996D02*
X2000D01*
X11997Y68075D02*
Y771925D01*
X14497Y770648D02*
Y69352D01*
X2000Y80496D02*
X358472D01*
Y82996D02*
X2000D01*
Y85496D02*
X358472D01*
Y87996D02*
X2000D01*
Y90496D02*
X358472D01*
Y97996D02*
X318151D01*
Y100496D02*
X358472D01*
X361996Y104167D02*
Y141276D01*
X362776Y140496D02*
X2000D01*
Y137996D02*
X365276D01*
X364496Y138776D02*
Y104167D01*
X366996D02*
Y136276D01*
X367776Y135496D02*
X318168D01*
Y132996D02*
X370276D01*
X369496Y133776D02*
Y104167D01*
X371996D02*
Y131276D01*
X372776Y130496D02*
X318168D01*
Y127996D02*
X375276D01*
X374496Y128776D02*
Y104167D01*
X368302Y90400D02*
Y76302D01*
X225698D01*
X224000Y78000D01*
X253401Y102602D02*
X254002Y102000D01*
X266168Y120496D02*
X292634D01*
Y122996D02*
X266168D01*
Y125496D02*
X292634D01*
X294496Y119172D02*
Y111352D01*
X296996D02*
Y119172D01*
X299496D02*
Y111352D01*
X301996D02*
Y119172D01*
X304496D02*
Y111352D01*
X306996D02*
Y119172D01*
X309496D02*
Y111352D01*
X311996D02*
Y119172D01*
X314496D02*
Y111352D01*
X361996Y51150D02*
Y76633D01*
X364496D02*
Y51150D01*
X366996D02*
Y76633D01*
X369496D02*
Y51150D01*
X371996D02*
Y76633D01*
X374496D02*
Y51150D01*
X378132Y80496D02*
X384872D01*
Y82996D02*
X378132D01*
Y85496D02*
X384872D01*
Y87996D02*
X378132D01*
Y90496D02*
X384872D01*
Y92996D02*
X378132D01*
Y95496D02*
X384872D01*
Y97996D02*
X378132D01*
Y100496D02*
X384872D01*
Y102996D02*
X378132D01*
X376996Y104167D02*
Y126276D01*
X377776Y125496D02*
X318168D01*
X316996Y119172D02*
Y111352D01*
X390276Y112996D02*
X2000D01*
Y115496D02*
X387776D01*
X386996Y116276D02*
Y103167D01*
X389496D02*
Y113776D01*
X392000Y109000D02*
X347598Y153402D01*
X320598D01*
X316996Y143572D02*
Y136832D01*
X427932Y100496D02*
X435672D01*
Y97996D02*
X427932D01*
Y95496D02*
X435672D01*
Y92996D02*
X427932D01*
Y90496D02*
X435672D01*
Y87996D02*
X427932D01*
Y85496D02*
X435672D01*
Y82996D02*
X427932D01*
Y80496D02*
X435672D01*
Y77996D02*
X427932D01*
X355999Y213000D02*
X352999Y216000D01*
X355929Y237000D02*
X332000D01*
X316996Y238602D02*
Y239883D01*
X92183Y490495D02*
X2000D01*
Y492995D02*
X92183D01*
Y495495D02*
X2000D01*
Y497995D02*
X92183D01*
Y500495D02*
X2000D01*
Y502995D02*
X92183D01*
Y505495D02*
X2000D01*
Y507995D02*
X92183D01*
Y510495D02*
X2000D01*
Y512995D02*
X92183D01*
Y515495D02*
X2000D01*
Y517995D02*
X92183D01*
Y520495D02*
X2000D01*
Y522995D02*
X92183D01*
Y525495D02*
X2000D01*
Y527995D02*
X92183D01*
Y530495D02*
X2000D01*
Y532995D02*
X92183D01*
Y535495D02*
X2000D01*
Y537995D02*
X92183D01*
Y540495D02*
X2000D01*
Y542995D02*
X92183D01*
Y545495D02*
X2000D01*
Y547995D02*
X92183D01*
Y550495D02*
X2000D01*
Y552995D02*
X92183D01*
Y555495D02*
X2000D01*
Y557995D02*
X92183D01*
Y560495D02*
X2000D01*
Y562995D02*
X92183D01*
Y565495D02*
X2000D01*
Y567995D02*
X92183D01*
Y570495D02*
X2000D01*
Y572995D02*
X92183D01*
Y575495D02*
X2000D01*
Y577995D02*
X92183D01*
Y580495D02*
X2000D01*
Y582995D02*
X92183D01*
Y585495D02*
X2000D01*
Y587995D02*
X92183D01*
Y590495D02*
X2000D01*
Y592995D02*
X92183D01*
Y595495D02*
X2000D01*
Y597995D02*
X92183D01*
Y600495D02*
X2000D01*
Y602995D02*
X92183D01*
Y605495D02*
X2000D01*
Y607995D02*
X92183D01*
D14*
X224000Y51000D02*
Y78000D01*
Y255000D01*
X224002Y255002D01*
X253401D01*
Y204202D02*
Y195999D01*
X258400Y191000D01*
X341666D01*
X401666Y131000D01*
X815000D01*
X852500Y130650D02*
X869000D01*
X873000Y126650D01*
Y115000D01*
X865000Y107000D01*
Y74000D01*
X869000Y70000D01*
X922000D01*
X927102Y75102D01*
Y90400D01*
X952502D02*
Y73502D01*
X942000Y63000D01*
X847000D01*
X836000Y74000D01*
Y116000D01*
X837950Y117950D01*
X852500D01*
X762000Y19000D02*
X1070000D01*
X1091000Y40000D01*
Y204000D01*
X1087000Y208000D01*
Y254000D01*
X1081000Y260000D01*
X1037000D01*
X1031000Y266000D01*
Y350000D01*
Y414000D01*
Y802000D01*
Y827000D01*
X377000D01*
X368299Y818299D01*
Y801600D01*
X367699Y801000D01*
X355000D01*
X329000Y737602D02*
X390250Y676352D01*
Y422750D01*
X415000Y398000D01*
X521000D01*
X574000Y345000D01*
X580000D01*
X594998D01*
Y358000D02*
Y371002D01*
Y371500D01*
Y385000D01*
X594998Y398000D02*
X586000D01*
X580000Y392000D01*
Y345000D01*
X577100Y332000D02*
X621000D01*
X634000Y345000D01*
X638000D01*
X652998D01*
Y358000D02*
Y371002D01*
X653000Y371000D01*
X652998Y371002D02*
Y371500D01*
Y385000D01*
Y398000D02*
X641000D01*
X638000Y395000D01*
Y345000D01*
X666998D02*
Y358000D01*
Y358000D01*
X666998Y358000D01*
X666998Y385000D02*
Y398000D01*
X608998Y398000D02*
Y385000D01*
X594998Y371002D02*
X595000Y371000D01*
X608998Y358000D02*
X608998Y358000D01*
X608998D02*
Y358000D01*
Y358000D02*
Y345000D01*
X577100Y332000D02*
X518101Y391000D01*
X412100D01*
X383250Y419851D01*
Y641750D01*
X363598Y661402D01*
X305401D01*
X337802Y686802D02*
X305401D01*
Y712202D02*
X337798D01*
X338000Y712000D01*
X329000Y737602D02*
X305401D01*
Y509002D02*
X342998D01*
X359000Y493000D01*
Y423000D01*
X400000Y382000D01*
X402000D01*
X465000D01*
X501999Y345001D01*
Y340000D01*
Y305999D01*
X762000Y19000D02*
X256000D01*
X224000Y51000D01*
X200000Y347500D02*
Y355498D01*
X200000Y370000D02*
X207500D01*
X200000D02*
X199502D01*
X185000Y355498D02*
Y339502D01*
X170000D02*
Y355498D01*
X155000Y355498D02*
Y347500D01*
X140000D02*
Y355498D01*
X963250Y190450D02*
X969050Y196250D01*
X986000D01*
X1036000Y207998D02*
Y208000D01*
X1049000D01*
X1087000D01*
X1031000Y350000D02*
X950000D01*
X927501Y365499D02*
Y372000D01*
Y412500D01*
X929000Y414000D01*
X1031000D01*
Y802000D02*
X1030800Y802200D01*
X1016597D01*
D15*
X32000Y32000D02*
D03*
Y808000D02*
D03*
X1168000Y32000D02*
D03*
Y808000D02*
D03*
D16*
X268801Y102604D02*
D03*
X278801D02*
D03*
X368302Y76302D02*
D03*
X404000Y170000D02*
D03*
X424999Y186999D02*
D03*
X432000Y180000D02*
D03*
X439000Y173000D02*
D03*
X446000Y166000D02*
D03*
X452999Y160750D02*
D03*
X530999Y122000D02*
D03*
X546000Y120000D02*
D03*
X538999Y140000D02*
D03*
X524000Y146750D02*
D03*
X516999Y154000D02*
D03*
X517000Y302000D02*
D03*
X501999Y305999D02*
D03*
X524000Y308000D02*
D03*
X530999Y313999D02*
D03*
X538999Y319999D02*
D03*
X545999Y326999D02*
D03*
X594998Y371500D02*
D03*
X652998Y371500D02*
D03*
X697000Y379000D02*
D03*
Y394000D02*
D03*
X766000Y372000D02*
D03*
X797501Y372501D02*
D03*
X930000Y247000D02*
D03*
Y238000D02*
D03*
Y229000D02*
D03*
X947000Y216000D02*
D03*
X938000Y166001D02*
D03*
X925000Y165999D02*
D03*
X924998Y110000D02*
D03*
X937998D02*
D03*
X869643Y143350D02*
D03*
X864997Y169996D02*
D03*
X901702Y110000D02*
D03*
X815000Y131000D02*
D03*
X834997Y169996D02*
D03*
X825502Y105205D02*
D03*
X725000Y52500D02*
D03*
X700000D02*
D03*
X935000Y304000D02*
D03*
X980000Y205000D02*
D03*
X1010000D02*
D03*
X1023000Y217000D02*
D03*
X1036000D02*
D03*
X1049000D02*
D03*
Y208000D02*
D03*
X1062000Y217000D02*
D03*
X1075000Y250000D02*
D03*
X950000Y350000D02*
D03*
X927501Y365499D02*
D03*
X925000Y326000D02*
D03*
X750000Y775000D02*
D03*
X697500D02*
D03*
X1016597Y802200D02*
D03*
X446000Y356000D02*
D03*
X453000Y345000D02*
D03*
X439000Y319000D02*
D03*
X460000Y267000D02*
D03*
X466999Y272999D02*
D03*
X473999Y279999D02*
D03*
X480999Y285999D02*
D03*
X487999Y292999D02*
D03*
X494999Y299999D02*
D03*
X432000Y331000D02*
D03*
X402000Y365000D02*
D03*
X418000Y306000D02*
D03*
X425000Y294000D02*
D03*
X411000Y273000D02*
D03*
X403000Y281000D02*
D03*
X392750Y266271D02*
D03*
X385000Y262000D02*
D03*
X378000Y257000D02*
D03*
X402000Y204000D02*
D03*
X411000Y201000D02*
D03*
X418000Y193000D02*
D03*
X370000Y253000D02*
D03*
X362000Y248000D02*
D03*
X332000Y237000D02*
D03*
X339000Y230000D02*
D03*
X346000Y223000D02*
D03*
X352999Y216000D02*
D03*
X374000Y197000D02*
D03*
X324999Y244000D02*
D03*
X320598Y153402D02*
D03*
X290000Y255000D02*
D03*
X280000D02*
D03*
X270000D02*
D03*
X220000Y325000D02*
D03*
X200000Y347500D02*
D03*
X270000Y382000D02*
D03*
X280000D02*
D03*
X290000D02*
D03*
X325000Y421000D02*
D03*
X362000Y393546D02*
D03*
X370000Y373000D02*
D03*
X378000Y380000D02*
D03*
X329000Y447000D02*
D03*
X322000Y458000D02*
D03*
X332000Y472000D02*
D03*
X325000Y484000D02*
D03*
X366000Y523000D02*
D03*
X375000Y535000D02*
D03*
X352000Y548000D02*
D03*
X359000Y560000D02*
D03*
X337000Y573000D02*
D03*
X345000Y586000D02*
D03*
X323000Y599000D02*
D03*
X330000Y610000D02*
D03*
X337802Y686802D02*
D03*
X338000Y712000D02*
D03*
X290000Y636000D02*
D03*
X280000D02*
D03*
X270000D02*
D03*
Y509000D02*
D03*
X280000D02*
D03*
X290000D02*
D03*
X207500Y370000D02*
D03*
X190000Y422500D02*
D03*
X177500D02*
D03*
X157500D02*
D03*
X155000Y347500D02*
D03*
X140000Y347500D02*
D03*
X170000D02*
D03*
X185000D02*
D03*
X355000Y801000D02*
D03*
D17*
X200000Y355498D02*
D03*
Y369498D02*
D03*
X185000D02*
D03*
X170000D02*
D03*
X155000D02*
D03*
X140000D02*
D03*
Y355498D02*
D03*
X155000D02*
D03*
X170000D02*
D03*
X185000D02*
D03*
X185000Y339502D02*
D03*
Y325502D02*
D03*
X170000D02*
D03*
Y339502D02*
D03*
X925000Y117002D02*
D03*
X938000D02*
D03*
Y131002D02*
D03*
Y144000D02*
D03*
X925000Y143998D02*
D03*
X925000Y131002D02*
D03*
X925000Y157998D02*
D03*
X938000Y158000D02*
D03*
X938000Y174002D02*
D03*
X925000Y174000D02*
D03*
X1023000Y193998D02*
D03*
X1036000D02*
D03*
Y207998D02*
D03*
X1023000D02*
D03*
X1023000Y227002D02*
D03*
X1036000Y226998D02*
D03*
Y240998D02*
D03*
X1023000Y241002D02*
D03*
X1049000Y240998D02*
D03*
X1062000Y241002D02*
D03*
X1075000Y241002D02*
D03*
Y227002D02*
D03*
X1062000Y227002D02*
D03*
X1049000Y226998D02*
D03*
X935000Y311998D02*
D03*
Y325998D02*
D03*
X938000Y188002D02*
D03*
X925000Y188000D02*
D03*
D18*
X209800Y421900D02*
D03*
X126200D02*
D03*
D19*
X145500Y402100D02*
D03*
X150500D02*
D03*
X155500D02*
D03*
X160500D02*
D03*
X165500D02*
D03*
X170500D02*
D03*
X175500D02*
D03*
X180500D02*
D03*
X185500D02*
D03*
X190500D02*
D03*
X742500Y355100D02*
D03*
X747501D02*
D03*
X752499D02*
D03*
X757501D02*
D03*
X762499D02*
D03*
X767501D02*
D03*
X772499D02*
D03*
X777501D02*
D03*
X782499D02*
D03*
X787501D02*
D03*
X792499D02*
D03*
X797501D02*
D03*
X802499D02*
D03*
X807501D02*
D03*
X812499D02*
D03*
X817501D02*
D03*
X822499D02*
D03*
X827501D02*
D03*
X832499D02*
D03*
X837501D02*
D03*
X842499D02*
D03*
X847501D02*
D03*
X852499D02*
D03*
X857501D02*
D03*
X862499D02*
D03*
X867501D02*
D03*
X872499D02*
D03*
X877501D02*
D03*
X882499D02*
D03*
X887501D02*
D03*
X892499D02*
D03*
X897501D02*
D03*
X902499D02*
D03*
X907501D02*
D03*
X912499D02*
D03*
X917501D02*
D03*
X922499D02*
D03*
X927501D02*
D03*
X932499D02*
D03*
X937500D02*
D03*
D20*
X852500Y117950D02*
D03*
X901500D02*
D03*
Y130650D02*
D03*
Y143350D02*
D03*
Y156050D02*
D03*
X852500D02*
D03*
Y143350D02*
D03*
Y130650D02*
D03*
D21*
X594998Y345000D02*
D03*
Y358000D02*
D03*
X608998D02*
D03*
Y345000D02*
D03*
X652998D02*
D03*
Y358000D02*
D03*
X666998D02*
D03*
Y345000D02*
D03*
Y385000D02*
D03*
Y398000D02*
D03*
X652998D02*
D03*
Y385000D02*
D03*
X608998Y385000D02*
D03*
Y398000D02*
D03*
X594998D02*
D03*
Y385000D02*
D03*
X842998Y169996D02*
D03*
X856998D02*
D03*
X955002Y216000D02*
D03*
X969002D02*
D03*
X984998Y231000D02*
D03*
X998998D02*
D03*
Y245000D02*
D03*
X984998D02*
D03*
D22*
X963250Y148000D02*
D03*
X1026750D02*
D03*
D23*
X940500Y238000D02*
D03*
X967500D02*
D03*
D24*
X723201Y380000D02*
D03*
X956799D02*
D03*
D25*
X253401Y102602D02*
D03*
X305401Y128002D02*
D03*
Y153402D02*
D03*
Y178802D02*
D03*
Y204202D02*
D03*
Y229602D02*
D03*
Y255002D02*
D03*
Y280402D02*
D03*
Y305802D02*
D03*
Y331202D02*
D03*
Y356602D02*
D03*
Y382002D02*
D03*
Y407402D02*
D03*
Y432802D02*
D03*
Y458202D02*
D03*
Y483602D02*
D03*
Y509002D02*
D03*
Y534402D02*
D03*
Y559802D02*
D03*
Y585202D02*
D03*
Y610602D02*
D03*
Y636002D02*
D03*
Y661402D02*
D03*
Y686802D02*
D03*
Y712202D02*
D03*
Y737602D02*
D03*
X253401D02*
D03*
Y712202D02*
D03*
Y686802D02*
D03*
Y661402D02*
D03*
Y636002D02*
D03*
Y610602D02*
D03*
Y585202D02*
D03*
Y559802D02*
D03*
Y534402D02*
D03*
Y509002D02*
D03*
Y483602D02*
D03*
Y458202D02*
D03*
Y432802D02*
D03*
Y407402D02*
D03*
Y382002D02*
D03*
Y356602D02*
D03*
Y331202D02*
D03*
Y305802D02*
D03*
Y280402D02*
D03*
Y255002D02*
D03*
Y229602D02*
D03*
Y204202D02*
D03*
Y178802D02*
D03*
Y153402D02*
D03*
Y128002D02*
D03*
D26*
X305401Y102602D02*
D03*
D27*
X368302Y90400D02*
D03*
X393702Y38400D02*
D03*
X419102D02*
D03*
X444502D02*
D03*
X469902D02*
D03*
X495302D02*
D03*
X520702D02*
D03*
X546102D02*
D03*
X571502D02*
D03*
X596902D02*
D03*
X622302D02*
D03*
X647702D02*
D03*
X673102D02*
D03*
X698502D02*
D03*
X723902D02*
D03*
X749302D02*
D03*
X774702D02*
D03*
X800102D02*
D03*
X825502D02*
D03*
X850902D02*
D03*
X876302D02*
D03*
X901702D02*
D03*
X927102D02*
D03*
X952502D02*
D03*
X977902D02*
D03*
X1003302D02*
D03*
Y90400D02*
D03*
X977902D02*
D03*
X952502D02*
D03*
X927102D02*
D03*
X901702D02*
D03*
X876302D02*
D03*
X850902D02*
D03*
X825502D02*
D03*
X800102D02*
D03*
X774702D02*
D03*
X749302D02*
D03*
X723902D02*
D03*
X698502D02*
D03*
X673102D02*
D03*
X647702D02*
D03*
X622302D02*
D03*
X596902D02*
D03*
X571502D02*
D03*
X546102D02*
D03*
X520702D02*
D03*
X495302D02*
D03*
X469902D02*
D03*
X444502D02*
D03*
X419102D02*
D03*
X393702D02*
D03*
X1003299Y749600D02*
D03*
Y801600D02*
D03*
X977899D02*
D03*
X952499D02*
D03*
X927099D02*
D03*
Y749600D02*
D03*
X952499D02*
D03*
X977899D02*
D03*
X901699Y801600D02*
D03*
X876299D02*
D03*
Y749600D02*
D03*
X901699D02*
D03*
X850899Y801600D02*
D03*
X825499D02*
D03*
X800099D02*
D03*
Y749600D02*
D03*
X825499D02*
D03*
X850899D02*
D03*
X774699Y801600D02*
D03*
X749299D02*
D03*
Y749600D02*
D03*
X774699D02*
D03*
X723899Y801600D02*
D03*
X698499D02*
D03*
Y749600D02*
D03*
X723899D02*
D03*
X673099Y801600D02*
D03*
X647699D02*
D03*
X622299D02*
D03*
Y749600D02*
D03*
X647699D02*
D03*
X673099D02*
D03*
X596899Y801600D02*
D03*
X571499D02*
D03*
Y749600D02*
D03*
X596899D02*
D03*
X546099Y801600D02*
D03*
X520699D02*
D03*
Y749600D02*
D03*
X546099D02*
D03*
X495299Y801600D02*
D03*
X469899D02*
D03*
X444499D02*
D03*
Y749600D02*
D03*
X469899D02*
D03*
X495299D02*
D03*
X419099Y801600D02*
D03*
X393699D02*
D03*
Y749600D02*
D03*
X419099D02*
D03*
X368299Y801600D02*
D03*
D28*
X368302Y38400D02*
D03*
X368299Y749600D02*
D03*
D29*
X987500Y196250D02*
D03*
X992500D02*
D03*
X997500D02*
D03*
X1002500D02*
D03*
Y213750D02*
D03*
X997500D02*
D03*
X992500D02*
D03*
X987500D02*
D03*
D30*
X995000Y205000D02*
D03*
D31*
X253401Y102602D02*
X279000D01*
X368302Y102917D02*
Y90400D01*
X376882D01*
X317918Y153402D02*
X305401D01*
Y144822D01*
Y153402D02*
X292884D01*
X359722Y90400D02*
X368302D01*
Y77883D01*
X305401Y246422D02*
Y255002D01*
X317918D01*
X305401D02*
X253401D01*
X253403Y255000D01*
X270000D01*
X280000D01*
X290000D01*
X292884Y255002D02*
X305401D01*
X265918D02*
X253401D01*
X240884D01*
X253401D02*
Y246422D01*
X208000Y355498D02*
X200000D01*
Y347998D01*
X265918Y382002D02*
X253401D01*
X253403Y382000D01*
X270000D01*
X280000D01*
X290000D01*
X292884Y382002D02*
X305401D01*
X317918D01*
X305401D02*
Y373422D01*
Y382002D02*
X253401D01*
X240884D01*
X253401D02*
Y373422D01*
X317918Y509002D02*
X305401D01*
Y500422D01*
Y509002D02*
X292884D01*
X290000Y509000D02*
X280000D01*
X270000D01*
X253403D01*
X253401Y509002D01*
X265918D01*
X305401D02*
X253401D01*
Y500422D01*
Y509002D02*
X240884D01*
X317918Y636002D02*
X305401D01*
Y644582D01*
Y636002D02*
X292884D01*
X290000Y636000D02*
X280000D01*
X270000D01*
X253403D01*
X253401Y636002D01*
X265918D01*
X305401D02*
Y627422D01*
Y636002D02*
X253401D01*
Y644582D01*
Y636002D02*
X240884D01*
X253401D02*
Y627422D01*
X368299Y789083D02*
Y801600D01*
X376879D01*
X368299D02*
Y814117D01*
Y801600D02*
X359719D01*
X931500Y238000D02*
X940500D01*
X949500D01*
X940500D02*
Y254500D01*
X935000Y304498D02*
Y311998D01*
X943000D01*
X940000Y339000D02*
X985000D01*
X998998Y325002D01*
Y245000D01*
Y231000D01*
X1023000Y227002D02*
Y219502D01*
X1023000Y215498D02*
Y207998D01*
X1036000D02*
Y215498D01*
Y219498D02*
Y226998D01*
X1075000Y241002D02*
Y248502D01*
Y241002D02*
X1083000D01*
X955002Y224000D02*
Y216000D01*
Y208000D01*
Y216000D02*
X947502D01*
X940500Y221500D02*
Y238000D01*
X963250Y190450D02*
Y148000D01*
X946000Y174002D02*
X938000D01*
X925000Y117002D02*
Y109502D01*
X868500Y143350D02*
X852500D01*
X836500D01*
X825502Y143000D02*
Y160500D01*
X834997Y169996D01*
X835498Y169996D02*
X842998D01*
Y177996D01*
X825502Y143000D02*
Y105205D01*
Y90400D01*
X893122D02*
X901702D01*
Y110000D01*
Y117748D01*
X901500Y117950D02*
X885500D01*
X901500D02*
Y110950D01*
X901702Y102917D02*
Y90400D01*
X910282D01*
X1003299Y789083D02*
Y801600D01*
X1003899Y802200D01*
X1016597D01*
X1011879Y801600D02*
X1003299D01*
Y814117D01*
Y801600D02*
X994719D01*
D32*
X977902Y73098D02*
Y90400D01*
D33*
X977902Y77883D02*
Y90400D01*
X986482D01*
X1026750Y108000D02*
Y148000D01*
X1035000D01*
X1026750D02*
X1018500D01*
X1036000Y186498D02*
Y193998D01*
X1044000D01*
X1023000D02*
X1015000D01*
X963250Y188000D02*
Y148000D01*
X971500D01*
X963250D02*
Y108000D01*
X969322Y90400D02*
X977902D01*
X963250Y148000D02*
X955000D01*
M02*
