M48
;Layer_Color=9474304
;FILE_FORMAT=4:4
METRIC,LZ
;TYPE=PLATED
T1F00S00C0.3000
T2F00S00C3.2000
%
T01
X00268801Y00102604
X00278801
X00368302Y00076302
X00530999Y00122
X00546Y0012
X007Y000525
X00725
X00825502Y00105205
X00901702Y0011
X00924998Y0011
X00937998
X01049Y00208
Y00217
X01062
X01075Y0025
X01036Y00217
X01023
X0101Y00205
X0098
X00947Y00216
X0093Y00229
Y00238
Y00247
X00935Y00304
X00925Y00326
X00927501Y00365499
X0095Y0035
X00797501Y00372501
X00766Y00372
X00697Y00379
Y00394
X00652998Y003715
X00834997Y00169996
X00864997Y00169996
X00869643Y0014335
X00815Y00131
X00925Y00165999
X00938Y00166001
X00538999Y0014
X00524Y0014675
X00516999Y00154
X00452999Y0016075
X00446Y00166
X00439Y00173
X00432Y0018
X00424999Y00186999
X00418Y00193
X00411Y00201
X00402Y00204
X00374Y00197
X00352999Y00216
X00346Y00223
X00339Y0023
X00332Y00237
X00324999Y00244
X00362Y00248
X0037Y00253
X00378Y00257
X00385Y00262
X0039275Y00266271
X00403Y00281
X00411Y00273
X00425Y00294
X00418Y00306
X00439Y00319
X00432Y00331
X00453Y00345
X00446Y00356
X00402Y00365
X00378Y0038
X0037Y00373
X00362Y00393546
X00325Y00421
X00329Y00447
X00322Y00458
X00332Y00472
X00325Y00484
X0029Y00509
X0028
X0027
Y00382
X0028
X0029
Y00255
X0028
X0027
X00320598Y00153402
X00404Y0017
X0046Y00267
X00466999Y00272999
X00473999Y00279999
X00480999Y00285999
X00487999Y00292999
X00494999Y00299999
X00501999Y00305999
X00517Y00302
X00524Y00308
X00530999Y00313999
X00538999Y00319999
X00545999Y00326999
X00594998Y003715
X002075Y0037
X002Y003475
X00185
X0017
X00155Y003475
X0014Y003475
X001575Y004225
X001775
X0019
X0022Y00325
X00366Y00523
X00375Y00535
X00352Y00548
X00359Y0056
X00337Y00573
X00345Y00586
X00323Y00599
X0033Y0061
X0029Y00636
X0028
X0027
X00337802Y00686802
X00338Y00712
X00355Y00801
X006975Y00775
X0075
X01016597Y008022
T02
X00032Y00032
X01168
X00032Y00808
X01168
M30
