G04 Layer_Physical_Order=1*
G04 Layer_Color=3162822*
%FSLAX44Y44*%
%MOMM*%
G71*
G01*
G75*
%ADD10C,0.2000*%
%ADD11C,0.4500*%
%ADD12C,0.8000*%
%ADD13C,0.2500*%
%ADD14C,0.3500*%
%ADD15C,6.0000*%
%ADD16C,0.6000*%
D10*
X76996Y2000D02*
Y396715D01*
X77716Y395996D02*
X2000D01*
Y397996D02*
X75716D01*
X78997Y394715D02*
Y2000D01*
X80997D02*
Y392715D01*
X81716Y391996D02*
X2000D01*
Y389996D02*
X83716D01*
X82997Y390715D02*
Y2000D01*
X84997D02*
Y388715D01*
X85716Y387996D02*
X2000D01*
Y385996D02*
X87716D01*
X86996Y386715D02*
Y2000D01*
X88996D02*
Y384715D01*
X89716Y383996D02*
X2000D01*
Y381996D02*
X91716D01*
X90997Y382715D02*
Y2000D01*
X92997D02*
Y380715D01*
X93716Y379996D02*
X2000D01*
Y377996D02*
X95716D01*
X94997Y378715D02*
Y2000D01*
X96996D02*
Y376715D01*
X97716Y375996D02*
X2000D01*
Y373996D02*
X99716D01*
X98996Y374715D02*
Y2000D01*
X100996D02*
Y372715D01*
X101716Y371996D02*
X2000D01*
Y369996D02*
X103716D01*
X102996Y370715D02*
Y2000D01*
X104996D02*
Y368715D01*
X114996Y401292D02*
Y467435D01*
X112996D02*
Y403292D01*
X112293Y403996D02*
X316249D01*
Y401996D02*
X114293D01*
X116293Y399996D02*
X316249D01*
Y397996D02*
X118293D01*
X118996Y397292D02*
Y467435D01*
X116996D02*
Y399292D01*
X120293Y395996D02*
X316249D01*
Y393996D02*
X122293D01*
X122996Y393292D02*
Y467435D01*
X120996D02*
Y395292D01*
X124293Y391996D02*
X316249D01*
Y389996D02*
X126293D01*
X126996Y389292D02*
Y467435D01*
X128996D02*
Y387292D01*
X128293Y387996D02*
X316249D01*
Y385996D02*
X130293D01*
X130996Y385292D02*
Y467435D01*
X132996D02*
Y383292D01*
X132293Y383996D02*
X316249D01*
Y381996D02*
X134293D01*
X134996Y381292D02*
Y467435D01*
X124996D02*
Y391292D01*
X110996Y405292D02*
Y467435D01*
X108996D02*
Y407292D01*
X108293Y407996D02*
X316249D01*
Y409996D02*
X106293D01*
X106996Y409292D02*
Y467435D01*
X104996D02*
Y411292D01*
X104293Y411996D02*
X316249D01*
Y413996D02*
X102293D01*
X102996Y413292D02*
Y467435D01*
X100996D02*
Y415292D01*
X100293Y415996D02*
X316249D01*
Y417996D02*
X98293D01*
X98996Y417292D02*
Y467567D01*
X98042Y467693D02*
X100000Y467435D01*
X230000D01*
X231958Y467693D01*
X233782Y468449D01*
X235349Y469651D01*
X236551Y471218D01*
X237307Y473042D01*
X237565Y475000D01*
Y630000D01*
X237307Y631958D01*
X236551Y633782D01*
X235349Y635349D01*
X233782Y636551D01*
X231958Y637307D01*
X230000Y637565D01*
X100000D01*
X98042Y637307D01*
X96218Y636551D01*
X94651Y635349D01*
X93449Y633782D01*
X92693Y631958D01*
X92435Y630000D01*
Y475000D01*
X92693Y473042D01*
X93449Y471218D01*
X94651Y469651D01*
X96218Y468449D01*
X98042Y467693D01*
X97312Y467995D02*
X88750D01*
Y469995D02*
X94387D01*
X94997Y469386D02*
Y421292D01*
X94293Y421996D02*
X316306D01*
X316778Y423996D02*
X92293D01*
X92997Y423292D02*
Y472309D01*
X93127Y471995D02*
X88750D01*
Y473995D02*
X92568D01*
X92435Y475995D02*
X88750D01*
Y477995D02*
X92435D01*
Y479995D02*
X88750D01*
Y481995D02*
X92435D01*
Y483995D02*
X88750D01*
Y485995D02*
X92435D01*
Y487995D02*
X88750D01*
Y465995D02*
X316250D01*
Y464929D02*
Y484000D01*
X318899Y490272D02*
G03*
X316250Y484000I6101J-6272D01*
G01*
Y483995D02*
X237565D01*
Y481995D02*
X316250D01*
Y479995D02*
X237565D01*
Y477995D02*
X316250D01*
Y475995D02*
X237565D01*
X237432Y473995D02*
X316250D01*
Y471995D02*
X236873D01*
X236996Y472292D02*
Y114267D01*
X237160Y114103D02*
X268801D01*
X268996Y114102D02*
Y765250D01*
X266996D02*
Y114103D01*
X264996D02*
Y765250D01*
X262996D02*
Y114103D01*
X260996D02*
Y765250D01*
X258996D02*
Y114103D01*
X256996D02*
Y765250D01*
X270996D02*
Y114102D01*
X269002D02*
X527233D01*
X522249Y122000D02*
G03*
X527233Y114102I8750J0D01*
G01*
X524996D02*
Y115634D01*
X524633Y115996D02*
X235267D01*
X234996Y116267D02*
Y469380D01*
X235613Y469995D02*
X316250D01*
Y467995D02*
X232688D01*
X232996Y468123D02*
Y118267D01*
X233267Y117996D02*
X523219D01*
X522996Y118463D02*
Y114102D01*
X520996D02*
Y138532D01*
X515953Y143313D02*
G03*
X522249Y138177I8047J3437D01*
G01*
Y122000D01*
Y121996D02*
X231397D01*
Y119996D02*
X522481D01*
X522249Y123996D02*
X231397D01*
Y125996D02*
X522249D01*
X518996Y114102D02*
Y139572D01*
X518437Y139996D02*
X231397D01*
Y137996D02*
X522249D01*
Y135996D02*
X231397D01*
Y133996D02*
X522249D01*
Y131996D02*
X231397D01*
Y129996D02*
X522249D01*
Y127996D02*
X231397D01*
Y141996D02*
X516654D01*
X516996Y141505D02*
Y114102D01*
X514996D02*
Y143482D01*
X508250Y152000D02*
G03*
X515953Y143313I8750J0D01*
G01*
X513464Y143996D02*
X231397D01*
Y145996D02*
X510634D01*
X510996Y145635D02*
Y114102D01*
X508996D02*
Y148465D01*
X509220Y147996D02*
X231397D01*
Y149996D02*
X508483D01*
X508250Y151996D02*
X231397D01*
Y153996D02*
X447436D01*
X446996Y154384D02*
Y114102D01*
X444996D02*
Y157213D01*
X444953Y157313D02*
G03*
X461749Y160750I8047J3437D01*
G01*
Y258427D01*
D02*
G03*
X468340Y264353I-1749J8573D01*
G01*
X468340D02*
G03*
X475601Y271397I-1341J8647D01*
G01*
X475601Y271397D02*
G03*
X482339Y277353I-1602J8602D01*
G01*
D02*
G03*
X489601Y284397I-1340J8647D01*
G01*
X489601Y284397D02*
G03*
X496601Y291397I-1602J8602D01*
G01*
X496601Y291397D02*
G03*
X503749Y299999I-1602J8602D01*
G01*
Y361001D01*
D02*
G03*
X501186Y367188I-8750J0D01*
G01*
X503749Y361001D02*
G03*
X501186Y367188I-8750J0D01*
G01*
X481624Y386750D01*
X566667D01*
X588457Y364959D01*
D02*
G03*
X604194Y370500I6541J6541D01*
G01*
X640917D01*
X646458Y364959D01*
D02*
G03*
X662248Y371500I6541J6541D01*
G01*
D02*
G03*
X659539Y378041I-9250J0D01*
G01*
X651297Y386283D01*
D02*
G03*
X644748Y389000I-6549J-6533D01*
G01*
X651289Y386291D02*
G03*
X644748Y389000I-6541J-6541D01*
G01*
X600479D01*
X579947Y409533D01*
D02*
G03*
X573398Y412250I-6549J-6533D01*
G01*
X579939Y409541D02*
G03*
X573398Y412250I-6541J-6541D01*
G01*
X438731D01*
X415749Y435232D01*
Y442435D01*
X990000D01*
X991958Y442693D01*
X993782Y443449D01*
X995349Y444651D01*
X996551Y446218D01*
X997307Y448042D01*
X997565Y450000D01*
Y630000D01*
X997307Y631958D01*
X996551Y633782D01*
X995349Y635349D01*
X993782Y636551D01*
X991958Y637307D01*
X990000Y637565D01*
X415000D01*
X413042Y637307D01*
X411218Y636551D01*
X409651Y635349D01*
X408449Y633782D01*
X407693Y631958D01*
X407435Y630000D01*
Y462859D01*
X406463Y463831D01*
Y481186D01*
D02*
G03*
X403746Y487735I-9250J0D01*
G01*
X399500Y491981D01*
Y676352D01*
D02*
G03*
X396791Y682893I-9250J0D01*
G01*
X399500Y676352D02*
G03*
X396783Y682901I-9250J0D01*
G01*
X361151Y718533D01*
D02*
G03*
X354602Y721250I-6549J-6533D01*
G01*
X361143Y718541D02*
G03*
X354602Y721250I-6541J-6541D01*
G01*
X338000D01*
D02*
G03*
X338000Y702750I0J-9250D01*
G01*
X350770D01*
X381000Y672520D01*
Y656685D01*
X344342Y693343D01*
D02*
G03*
X331261Y680261I-6541J-6541D01*
G01*
X374000Y637522D01*
Y543693D01*
D02*
G03*
X367892Y540103I1000J-8693D01*
G01*
Y559858D01*
D02*
G03*
X365329Y566045I-8750J0D01*
G01*
X367892Y559858D02*
G03*
X365329Y566045I-8750J0D01*
G01*
X365379Y565995D02*
X374000D01*
Y563995D02*
X366852D01*
X366996Y563715D02*
Y644526D01*
X367527Y643995D02*
X88750D01*
Y645995D02*
X365527D01*
X364996Y646526D02*
Y566373D01*
X365187Y566187D02*
G03*
X353750Y567000I-6187J-6187D01*
G01*
Y586000D01*
D02*
G03*
X338750Y592124I-8750J0D01*
G01*
Y610000D01*
D02*
G03*
X321250Y610000I-8750J0D01*
G01*
Y607573D01*
D02*
G03*
X314250Y599000I1750J-8573D01*
G01*
Y498546D01*
D02*
G03*
X316813Y492359I8750J0D01*
G01*
X318899Y490272D01*
X318627Y489995D02*
X237565D01*
Y491995D02*
X317176D01*
X316996Y492175D02*
Y487535D01*
X317215Y487995D02*
X237565D01*
Y485995D02*
X316481D01*
X316256Y464601D02*
G03*
X313250Y458000I5744J-6601D01*
G01*
Y437000D01*
D02*
G03*
X315813Y430813I8750J0D01*
G01*
X319134Y427492D01*
X318812Y427187D02*
G03*
X316249Y420999I6187J-6187D01*
G01*
X318812Y427187D02*
G03*
X316249Y420999I6187J-6187D01*
G01*
Y244000D01*
D02*
G03*
X323398Y235397I8750J0D01*
G01*
D02*
G03*
X330398Y228398I8602J1603D01*
G01*
D02*
G03*
X337189Y221439I8602J1602D01*
G01*
D02*
G03*
X339563Y217063I8561J1811D01*
G01*
X337189Y221439D02*
G03*
X339563Y217063I8561J1811D01*
G01*
X339813Y216813D02*
G03*
X344397Y214398I6187J6187D01*
G01*
Y214398D02*
G03*
X361749Y216000I8602J1602D01*
G01*
Y239254D01*
D02*
G03*
X369906Y244251I251J8746D01*
G01*
Y244251D02*
G03*
X377363Y248273I94J8749D01*
G01*
X377363D02*
G03*
X385929Y253300I637J8727D01*
G01*
D02*
G03*
X392518Y257524I-929J8701D01*
G01*
X392996Y257524D02*
Y114102D01*
X394996D02*
Y198756D01*
X395635Y197996D02*
X231397D01*
Y195996D02*
X398465D01*
X398996Y195782D02*
Y114102D01*
X396996D02*
Y196822D01*
X400996Y195308D02*
Y114102D01*
X402996D02*
Y195307D01*
X393250Y204000D02*
G03*
X404175Y195525I8750J0D01*
G01*
X404175D02*
G03*
X404813Y194813I6825J5475D01*
G01*
X404175Y195525D02*
G03*
X404813Y194813I6825J5475D01*
G01*
X404813Y194813D02*
G03*
X409269Y192423I6187J6187D01*
G01*
D02*
G03*
X416659Y184353I8731J577D01*
G01*
X416659D02*
G03*
X423398Y178397I8340J2646D01*
G01*
D02*
G03*
X430398Y171398I8602J1603D01*
G01*
X430398Y171398D02*
G03*
X437398Y164398I8602J1602D01*
G01*
D02*
G03*
X444953Y157313I8602J1602D01*
G01*
X445653Y155996D02*
X231397D01*
Y157996D02*
X442464D01*
X442996Y157782D02*
Y114102D01*
X440996D02*
Y158822D01*
X439635Y159996D02*
X231397D01*
Y161996D02*
X438220D01*
X438996Y160756D02*
Y114102D01*
X436996D02*
Y164482D01*
X437483Y163996D02*
X231397D01*
Y165996D02*
X433755D01*
X432996Y166635D02*
Y114102D01*
X434996D02*
Y165220D01*
X431822Y167996D02*
X231397D01*
Y169996D02*
X430782D01*
X430996Y169465D02*
Y114102D01*
X428996D02*
Y171782D01*
X428464Y171996D02*
X231397D01*
Y173996D02*
X425635D01*
X424996Y174756D02*
Y114102D01*
X422996D02*
Y178482D01*
X423483Y177996D02*
X231397D01*
Y179996D02*
X419754D01*
X418996Y180634D02*
Y114102D01*
X416996D02*
Y183463D01*
X416781Y183996D02*
X231397D01*
Y185996D02*
X412755D01*
X412996Y185822D02*
Y114102D01*
X414996D02*
Y184782D01*
X417821Y181996D02*
X231397D01*
Y175996D02*
X424220D01*
X426996Y172822D02*
Y114102D01*
X420996D02*
Y179219D01*
X410996Y114102D02*
Y187756D01*
X410822Y187996D02*
X231397D01*
Y189996D02*
X409782D01*
X409308Y191996D02*
X231397D01*
Y193996D02*
X405755D01*
X404996Y194635D02*
Y114102D01*
X406996D02*
Y193220D01*
X408996Y192482D02*
Y114102D01*
X390996D02*
Y255627D01*
X391365Y255996D02*
X393250D01*
Y257535D02*
Y204000D01*
Y203996D02*
X231397D01*
Y201996D02*
X393483D01*
X394220Y199996D02*
X231397D01*
Y205996D02*
X393250D01*
Y207996D02*
X356535D01*
X356996Y208216D02*
Y114102D01*
X354996D02*
Y207480D01*
X352996Y207250D02*
Y114102D01*
X350996D02*
Y207482D01*
X349463Y207996D02*
X231397D01*
Y209996D02*
X346634D01*
X346996Y209634D02*
Y114102D01*
X344996D02*
Y212463D01*
X345219Y211996D02*
X231397D01*
Y213996D02*
X344482D01*
X342996Y214782D02*
Y114102D01*
X340996D02*
Y215822D01*
X340755Y215996D02*
X231397D01*
Y217996D02*
X338753D01*
X338996Y217687D02*
Y114102D01*
X336996D02*
Y221483D01*
X335465Y221996D02*
X231397D01*
Y219996D02*
X337628D01*
X334996Y222220D02*
Y114102D01*
X332996D02*
Y223635D01*
X332635Y223996D02*
X231397D01*
Y225996D02*
X331220D01*
X330996Y226465D02*
Y114102D01*
X328996D02*
Y228782D01*
X330483Y227996D02*
X231397D01*
Y229996D02*
X326755D01*
X326996Y229822D02*
Y114102D01*
X324996D02*
Y231755D01*
X324822Y231996D02*
X231397D01*
Y233996D02*
X323782D01*
X322996Y235482D02*
Y114102D01*
X320996D02*
Y236219D01*
X321463Y235996D02*
X231397D01*
Y237996D02*
X318634D01*
X318996Y237634D02*
Y114102D01*
X316996D02*
Y240463D01*
X317219Y239996D02*
X231397D01*
Y241996D02*
X316482D01*
X362996Y239307D02*
Y114102D01*
X360996D02*
Y212448D01*
X360780Y211996D02*
X393250D01*
Y213996D02*
X361517D01*
X361749Y215996D02*
X393250D01*
Y217996D02*
X361749D01*
Y219996D02*
X393250D01*
Y221996D02*
X361749D01*
Y223996D02*
X393250D01*
Y225996D02*
X361749D01*
Y227996D02*
X393250D01*
Y229996D02*
X361749D01*
Y231996D02*
X393250D01*
Y233996D02*
X361749D01*
Y235996D02*
X393250D01*
Y237996D02*
X361749D01*
X364996Y239779D02*
Y114102D01*
X366996D02*
Y240816D01*
X365535Y239996D02*
X393250D01*
Y241996D02*
X368365D01*
X368996Y242745D02*
Y114102D01*
X370996D02*
Y244307D01*
X369780Y243996D02*
X393250D01*
Y245996D02*
X375244D01*
X374996Y245816D02*
Y114102D01*
X372996D02*
Y244779D01*
X359365Y209996D02*
X393250D01*
X404813Y194813D02*
G03*
X409269Y192423I6187J6187D01*
G01*
X461749Y185996D02*
X508250D01*
Y183996D02*
X461749D01*
Y181996D02*
X508250D01*
Y179996D02*
X461749D01*
Y177996D02*
X508250D01*
Y175996D02*
X461749D01*
Y173996D02*
X508250D01*
Y171996D02*
X461749D01*
Y169996D02*
X508250D01*
Y167996D02*
X461749D01*
Y165996D02*
X508250D01*
Y163996D02*
X461749D01*
Y161996D02*
X508250D01*
Y159996D02*
X461717D01*
X461305Y157996D02*
X508250D01*
Y155996D02*
X460345D01*
X460996Y157197D02*
Y114102D01*
X458996D02*
Y154377D01*
X458563Y153996D02*
X508250D01*
Y152000D02*
Y302000D01*
X515660Y310647D02*
G03*
X508250Y302000I1340J-8647D01*
G01*
Y301996D02*
X503749D01*
Y299996D02*
X508250D01*
Y297996D02*
X503517D01*
X502996Y296448D02*
Y114102D01*
X500996D02*
Y293627D01*
X501365Y293996D02*
X508250D01*
Y291996D02*
X498535D01*
X498996Y292215D02*
Y114102D01*
X504996D02*
Y386750D01*
X506996D02*
Y114102D01*
X512996D02*
Y144220D01*
X554750Y143996D02*
X788642D01*
X788995Y144670D02*
Y442435D01*
X786995D02*
Y118258D01*
X786733Y117996D02*
X554518D01*
X554750Y119996D02*
X787500D01*
Y118764D02*
Y139000D01*
X790868Y147132D02*
G03*
X787500Y139000I8132J-8132D01*
G01*
X790868Y147132D02*
G03*
X787500Y139000I8132J-8132D01*
G01*
Y137996D02*
X554750D01*
Y135996D02*
X787500D01*
Y133996D02*
X554750D01*
Y131996D02*
X787500D01*
Y129996D02*
X554750D01*
Y127996D02*
X787500D01*
X787543Y139996D02*
X554750D01*
Y141996D02*
X787897D01*
X789873Y145996D02*
X554750D01*
Y147996D02*
X791733D01*
X790995Y147259D02*
Y442435D01*
X792995D02*
Y149258D01*
X793733Y149996D02*
X554750D01*
Y151996D02*
X795733D01*
X794995Y151258D02*
Y442435D01*
X796995D02*
Y153258D01*
X797733Y153996D02*
X554750D01*
Y155996D02*
X800314D01*
X800995Y156354D02*
Y442435D01*
X798995D02*
Y155120D01*
X802995Y157100D02*
Y442435D01*
X804995D02*
Y157456D01*
X806000Y157500D02*
G03*
X797868Y154132I0J-11500D01*
G01*
X806000Y157500D02*
G03*
X797868Y154132I0J-11500D01*
G01*
X790868Y147132D01*
X787500Y125996D02*
X554750D01*
Y123996D02*
X787500D01*
Y121996D02*
X554750D01*
Y120000D02*
Y326998D01*
D02*
G03*
X552187Y333185I-8750J0D01*
G01*
X554750Y326998D02*
G03*
X552187Y333185I-8750J0D01*
G01*
X552186Y333186D02*
G03*
X537397Y328601I-6187J-6187D01*
G01*
X537397Y328601D02*
G03*
X530690Y322744I1602J-8602D01*
G01*
D02*
G03*
X522659Y316647I308J-8745D01*
G01*
Y316647D02*
G03*
X515660Y310647I1341J-8647D01*
G01*
X514996Y310517D02*
Y386750D01*
X512996D02*
Y309780D01*
X513446Y309996D02*
X503749D01*
Y311996D02*
X516216D01*
X516996Y313244D02*
Y386750D01*
X518996D02*
Y315178D01*
X520446Y315996D02*
X503749D01*
Y313996D02*
X517627D01*
X520996Y316218D02*
Y386750D01*
X522996D02*
Y317536D01*
X523215Y317996D02*
X503749D01*
Y319996D02*
X524627D01*
X524996Y320365D02*
Y386750D01*
X526996D02*
Y321780D01*
X527446Y321996D02*
X503749D01*
Y323996D02*
X531215D01*
X530996Y323536D02*
Y386750D01*
X528996D02*
Y322517D01*
X532627Y325996D02*
X503749D01*
Y327996D02*
X535446D01*
X534996Y327780D02*
Y386750D01*
X532996D02*
Y326365D01*
X536996Y328517D02*
Y386750D01*
X538996D02*
Y332245D01*
X538816Y331996D02*
X503749D01*
Y329996D02*
X537778D01*
X540744Y333996D02*
X503749D01*
Y335996D02*
X875313D01*
X874995Y335808D02*
Y442435D01*
X872995D02*
Y334256D01*
X881000Y337500D02*
G03*
X872868Y334132I0J-11500D01*
G01*
X881000Y337500D02*
G03*
X872868Y334132I0J-11500D01*
G01*
X856866Y318129D01*
D02*
G03*
X853497Y309998I8132J-8132D01*
G01*
X856866Y318129D02*
G03*
X853497Y309998I8132J-8132D01*
G01*
Y169996D01*
Y168761D01*
X842236Y157500D01*
X806000D01*
X806995D02*
Y442435D01*
X808995D02*
Y157500D01*
X810995D02*
Y442435D01*
X812995D02*
Y157500D01*
X814995D02*
Y442435D01*
X816995D02*
Y157500D01*
X818995D02*
Y442435D01*
X820995D02*
Y157500D01*
X822995D02*
Y442435D01*
X824995D02*
Y157500D01*
X826995D02*
Y442435D01*
X828995D02*
Y157500D01*
X830995D02*
Y442435D01*
X832995D02*
Y157500D01*
X834995D02*
Y442435D01*
X836995D02*
Y157500D01*
X838995D02*
Y442435D01*
X840995D02*
Y157500D01*
X842733Y157996D02*
X554750D01*
Y159996D02*
X844733D01*
X844995Y160258D02*
Y442435D01*
X846995D02*
Y162258D01*
X846733Y161996D02*
X554750D01*
Y163996D02*
X848733D01*
X848995Y164258D02*
Y442435D01*
X850995D02*
Y166258D01*
X850733Y165996D02*
X554750D01*
Y167996D02*
X852733D01*
X852995Y168258D02*
Y442435D01*
X854995D02*
Y315672D01*
X855186Y315996D02*
X554750D01*
Y313996D02*
X854215D01*
X853672Y311996D02*
X554750D01*
Y309996D02*
X853497D01*
Y307996D02*
X554750D01*
Y317996D02*
X856734D01*
X856995Y318258D02*
Y442435D01*
X842995D02*
Y158258D01*
X853497Y169996D02*
X554750D01*
Y171996D02*
X853497D01*
Y173996D02*
X554750D01*
Y175996D02*
X853497D01*
Y177996D02*
X554750D01*
Y179996D02*
X853497D01*
Y181996D02*
X554750D01*
Y183996D02*
X853497D01*
Y185996D02*
X554750D01*
X552463Y114102D02*
G03*
X554750Y120000I-6463J5898D01*
G01*
X553780Y115996D02*
X784733D01*
X784995Y116258D02*
Y442435D01*
X782995D02*
Y114258D01*
X782838Y114102D02*
X787500Y118764D01*
X782838Y114102D02*
X552463D01*
X554995D02*
Y386750D01*
X556996D02*
Y114102D01*
Y91102D02*
Y72000D01*
X554995D02*
Y91102D01*
X552995D02*
Y72000D01*
X550995D02*
Y91102D01*
X548996D02*
Y72000D01*
X546996D02*
Y91102D01*
X544996D02*
Y72000D01*
X542996D02*
Y91102D01*
X540996D02*
Y72000D01*
X538996D02*
Y91102D01*
X536996D02*
Y72000D01*
X534996D02*
Y91102D01*
X532996D02*
Y72000D01*
X530996D02*
Y91102D01*
X528996D02*
Y72000D01*
X526996D02*
Y91102D01*
X524996D02*
Y72000D01*
X522996D02*
Y91102D01*
X520996D02*
Y72000D01*
X518996D02*
Y91102D01*
X516996D02*
Y72000D01*
X514996D02*
Y91102D01*
X512996D02*
Y72000D01*
X510996D02*
Y91102D01*
X508996D02*
Y72000D01*
X506996D02*
Y91102D01*
X504996D02*
Y72000D01*
X502996D02*
Y91102D01*
X500996D02*
Y72000D01*
X498996D02*
Y91102D01*
Y42750D02*
Y2000D01*
X500996D02*
Y42750D01*
X502996D02*
Y2000D01*
X504996D02*
Y42750D01*
X506996D02*
Y2000D01*
X508996D02*
Y42750D01*
X510996D02*
Y2000D01*
X512996D02*
Y42750D01*
X514996D02*
Y2000D01*
X516996D02*
Y42750D01*
X518996D02*
Y2000D01*
X520996D02*
Y42750D01*
X522996D02*
Y2000D01*
X524996D02*
Y42750D01*
X526996D02*
Y2000D01*
X528996D02*
Y42750D01*
X530996D02*
Y2000D01*
X532996D02*
Y42750D01*
X534996D02*
Y2000D01*
X536996D02*
Y42750D01*
X538996D02*
Y2000D01*
X540996D02*
Y42750D01*
X542996D02*
Y2000D01*
X544996D02*
Y42750D01*
X546996D02*
Y2000D01*
X548996D02*
Y42750D01*
X550995D02*
Y2000D01*
X552995D02*
Y42750D01*
X554995D02*
Y2000D01*
X556996D02*
Y42750D01*
X558996Y2000D02*
Y42750D01*
X560995D02*
Y2000D01*
X562995D02*
Y42750D01*
X564995D02*
Y2000D01*
X566996D02*
Y42750D01*
X568996D02*
Y2000D01*
X570995D02*
Y42750D01*
X572995D02*
Y2000D01*
X574995D02*
Y42750D01*
X576996D02*
Y2000D01*
X578996D02*
Y42750D01*
X580995D02*
Y2000D01*
X582995D02*
Y42750D01*
X584995D02*
Y2000D01*
X586996D02*
Y42750D01*
X588996D02*
Y2000D01*
X590995D02*
Y42750D01*
X592995D02*
Y2000D01*
X594995D02*
Y42750D01*
X596996D02*
Y2000D01*
X598995D02*
Y42750D01*
X600995D02*
Y2000D01*
X602995D02*
Y42750D01*
X604995D02*
Y2000D01*
X606995D02*
Y42750D01*
X608995D02*
Y2000D01*
X610995D02*
Y42750D01*
X612995D02*
Y2000D01*
X614995D02*
Y42750D01*
X616995D02*
Y2000D01*
X618995D02*
Y42750D01*
X620995D02*
Y2000D01*
X622995D02*
Y42750D01*
X624995D02*
Y2000D01*
X626995D02*
Y42750D01*
X628995D02*
Y2000D01*
X630995D02*
Y42750D01*
X632995D02*
Y2000D01*
X634995D02*
Y42750D01*
X636995D02*
Y2000D01*
X638995D02*
Y42750D01*
X640995D02*
Y2000D01*
X642995D02*
Y42750D01*
X644995D02*
Y2000D01*
X646995D02*
Y42750D01*
X648995D02*
Y2000D01*
X650995D02*
Y42750D01*
X652995D02*
Y2000D01*
X654995D02*
Y42750D01*
X656995D02*
Y2000D01*
X658995D02*
Y42750D01*
X660995D02*
Y2000D01*
X662995D02*
Y42750D01*
X664995D02*
Y2000D01*
X666995D02*
Y42750D01*
X668995D02*
Y2000D01*
X670995D02*
Y42750D01*
X672995D02*
Y2000D01*
X674995D02*
Y42750D01*
X676995D02*
Y2000D01*
X678995D02*
Y42750D01*
X680995D02*
Y2000D01*
X682995D02*
Y42750D01*
X684995D02*
Y2000D01*
X686995D02*
Y42750D01*
X688995D02*
Y2000D01*
X690995D02*
Y42750D01*
X692995D02*
Y2000D01*
X694995D02*
Y42750D01*
X696995D02*
Y2000D01*
X698995D02*
Y42750D01*
X700000D02*
G03*
X709750Y52500I0J9750D01*
G01*
X711211D01*
X718106Y45606D01*
D02*
G03*
X734750Y52500I6894J6894D01*
G01*
D02*
G03*
X731894Y59394I-9750J0D01*
G01*
X722144Y69144D01*
D02*
G03*
X715250Y72000I-6894J-6894D01*
G01*
X722144Y69144D02*
G03*
X715250Y72000I-6894J-6894D01*
G01*
X210789D01*
X194750Y88039D01*
Y347500D01*
D02*
G03*
X177500Y353730I-9750J0D01*
G01*
D02*
G03*
X162500Y353730I-7500J-6230D01*
G01*
D02*
G03*
X161894Y354394I-7500J-6230D01*
G01*
X88750Y427539D01*
Y724961D01*
X129039Y765250D01*
X697500D01*
D02*
G03*
X707250Y775000I0J9750D01*
G01*
X736211D01*
X743106Y768106D01*
D02*
G03*
X759750Y775000I6894J6894D01*
G01*
D02*
G03*
X756894Y781894I-9750J0D01*
G01*
X747144Y791644D01*
D02*
G03*
X740250Y794500I-6894J-6894D01*
G01*
X747144Y791644D02*
G03*
X740250Y794500I-6894J-6894D01*
G01*
X122022D01*
D02*
G03*
X115128Y791644I0J-9750D01*
G01*
X122022Y794500D02*
G03*
X115128Y791644I0J-9750D01*
G01*
X63106Y739622D01*
D02*
G03*
X60250Y732728I6894J-6894D01*
G01*
X63106Y739622D02*
G03*
X60250Y732728I6894J-6894D01*
G01*
Y417500D01*
D02*
G03*
X63106Y410606I9750J0D01*
G01*
X133106Y340606D01*
D02*
G03*
X147473Y341238I6894J6894D01*
G01*
X148106Y340606D01*
D02*
G03*
X160250Y339284I6894J6894D01*
G01*
Y82500D01*
D02*
G03*
X163106Y75606I9750J0D01*
G01*
X193106Y45606D01*
D02*
G03*
X200000Y42750I6894J6894D01*
G01*
X700000D01*
X700995Y42801D02*
Y2000D01*
X702995D02*
Y43222D01*
X704770Y43996D02*
X720230D01*
X720995Y43611D02*
Y2000D01*
X722995D02*
Y42958D01*
X724995Y42750D02*
Y2000D01*
X726995D02*
Y42956D01*
X728995Y43606D02*
Y2000D01*
X730995D02*
Y44811D01*
X729770Y43996D02*
X1128794D01*
X1128994Y44631D02*
Y795369D01*
X1128797Y795995D02*
X71203D01*
X70996Y795340D02*
Y747513D01*
X71478Y747995D02*
X2000D01*
Y745995D02*
X69478D01*
X68997Y745513D02*
Y790329D01*
X68835Y789995D02*
X113478D01*
X114996Y791513D02*
Y838000D01*
X112996D02*
Y789513D01*
X111478Y787995D02*
X67788D01*
X66996Y786640D02*
Y743513D01*
X67478Y743995D02*
X2000D01*
Y741995D02*
X65478D01*
X64997Y741513D02*
Y783664D01*
X65238Y783995D02*
X107478D01*
X106996Y783513D02*
Y838000D01*
X108996D02*
Y785513D01*
X109478Y785995D02*
X66594D01*
X63698Y781995D02*
X105478D01*
X104996Y781513D02*
Y838000D01*
X102996D02*
Y779513D01*
X103478Y779995D02*
X61945D01*
X60996Y779014D02*
Y736469D01*
X60814Y735995D02*
X2000D01*
Y733995D02*
X60333D01*
X60250Y731995D02*
X2000D01*
Y729995D02*
X60250D01*
X61795Y737995D02*
X2000D01*
Y739995D02*
X63478D01*
X62997Y739511D02*
Y781163D01*
X59941Y777995D02*
X101478D01*
X100996Y777513D02*
Y838000D01*
X98996D02*
Y775513D01*
X99478Y775995D02*
X57625D01*
X56996Y775501D02*
Y64499D01*
X57637Y63996D02*
X174715D01*
X174996Y63715D02*
Y2000D01*
X172996D02*
Y65715D01*
X172715Y65996D02*
X54919D01*
X54997Y65944D02*
Y774057D01*
X54905Y773995D02*
X97478D01*
X96996Y773513D02*
Y838000D01*
X94997D02*
Y771513D01*
X95478Y771995D02*
X51612D01*
X50996Y771666D02*
Y68334D01*
X51629Y67996D02*
X170715D01*
X170996Y67715D02*
Y2000D01*
X168996D02*
Y69715D01*
X168715Y69996D02*
X47404D01*
X46997Y70159D02*
Y769841D01*
X47382Y769995D02*
X93478D01*
X92997Y769513D02*
Y838000D01*
X90997D02*
Y767513D01*
X91478Y767995D02*
X40977D01*
X40997Y767999D02*
Y72001D01*
X41017Y71996D02*
X166715D01*
X166996Y71715D02*
Y2000D01*
X164996D02*
Y73715D01*
X164715Y73996D02*
X2000D01*
Y71996D02*
X22983D01*
X22997Y71999D02*
Y768001D01*
X23024Y767995D02*
X2000D01*
Y769995D02*
X16618D01*
X16997Y769844D02*
Y70156D01*
X16596Y69996D02*
X2000D01*
Y67996D02*
X12372D01*
X12997Y68330D02*
Y771670D01*
X12388Y771995D02*
X2000D01*
Y773995D02*
X9095D01*
X8997Y774061D02*
Y65939D01*
X9082Y65996D02*
X2000D01*
Y63996D02*
X6363D01*
X6997Y64494D02*
Y775507D01*
X6375Y775995D02*
X2000D01*
Y777995D02*
X4059D01*
X4997Y777149D02*
Y62852D01*
X4049Y61996D02*
X2000D01*
X2997Y60979D02*
Y779021D01*
X2000Y780054D02*
G03*
X73000Y808000I30000J27946D01*
G01*
D02*
G03*
X59947Y838000I-41000J0D01*
G01*
X1140054D01*
D02*
G03*
X1198000Y780053I27947J-30000D01*
G01*
Y59947D01*
D02*
G03*
X1140054Y2000I-30000J-27947D01*
G01*
X59946D01*
D02*
G03*
X73000Y32000I-27946J30000D01*
G01*
D02*
G03*
X2000Y59946I-41000J0D01*
G01*
Y780054D01*
Y765995D02*
X89478D01*
X88996Y765513D02*
Y838000D01*
X86996D02*
Y763513D01*
X87478Y763995D02*
X2000D01*
Y761995D02*
X85478D01*
X84997Y761513D02*
Y838000D01*
X82997D02*
Y759513D01*
X83478Y759995D02*
X2000D01*
Y757995D02*
X81478D01*
X80997Y757513D02*
Y838000D01*
X78997D02*
Y755513D01*
X79478Y755995D02*
X2000D01*
Y753995D02*
X77478D01*
X76996Y753513D02*
Y838000D01*
X110996D02*
Y787513D01*
X117783Y753995D02*
X1198000D01*
Y755995D02*
X119783D01*
X118996Y755208D02*
Y637565D01*
X116996D02*
Y753208D01*
X115784Y751995D02*
X1198000D01*
Y749995D02*
X113784D01*
X112996Y749208D02*
Y637565D01*
X110996D02*
Y747208D01*
X111784Y747995D02*
X1198000D01*
Y745995D02*
X109783D01*
X108996Y745208D02*
Y637565D01*
X106996D02*
Y743208D01*
X107783Y743995D02*
X1198000D01*
Y741995D02*
X105784D01*
X104996Y741208D02*
Y637565D01*
X102996D02*
Y739208D01*
X103784Y739995D02*
X1198000D01*
Y737995D02*
X101784D01*
X100996Y737208D02*
Y637565D01*
X98996Y637433D02*
Y735208D01*
X99783Y735995D02*
X1198000D01*
Y733995D02*
X97783D01*
X96996Y733208D02*
Y636874D01*
X95493Y635995D02*
X88750D01*
Y633995D02*
X93612D01*
X92997Y632691D02*
Y729208D01*
X91784Y727995D02*
X1198000D01*
Y725995D02*
X89783D01*
X88996Y725208D02*
Y427292D01*
X88750Y427995D02*
X318630D01*
X317816Y425995D02*
X90293D01*
X90997Y425292D02*
Y727208D01*
X88750Y723995D02*
X1198000D01*
Y721995D02*
X88750D01*
Y719995D02*
X333348D01*
X332996Y719780D02*
Y765250D01*
X330996D02*
Y718042D01*
X330956Y717995D02*
X88750D01*
Y715995D02*
X329657D01*
X328996Y714119D02*
Y765250D01*
X326996D02*
Y618218D01*
X326445Y617995D02*
X237565D01*
Y615995D02*
X323627D01*
X322996Y615245D02*
Y765250D01*
X320996D02*
Y607517D01*
X321250Y607995D02*
X237565D01*
Y605995D02*
X317744D01*
X316996Y605365D02*
Y765250D01*
X318996D02*
Y606780D01*
X338750Y605995D02*
X374000D01*
Y603995D02*
X338750D01*
Y601995D02*
X374000D01*
Y599995D02*
X338750D01*
Y597995D02*
X374000D01*
Y595995D02*
X338750D01*
Y593995D02*
X341445D01*
X340996Y593780D02*
Y670526D01*
X341527Y669995D02*
X88750D01*
Y671995D02*
X339527D01*
X338996Y672526D02*
Y592365D01*
X342996Y594517D02*
Y668526D01*
X343527Y667995D02*
X88750D01*
Y665995D02*
X345527D01*
X344996Y666526D02*
Y594750D01*
X346996Y594519D02*
Y664526D01*
X347527Y663995D02*
X88750D01*
Y661995D02*
X349527D01*
X348996Y662526D02*
Y593784D01*
X348555Y593995D02*
X374000D01*
Y591995D02*
X351373D01*
X350996Y592373D02*
Y660526D01*
X351527Y659995D02*
X88750D01*
Y657995D02*
X353527D01*
X352996Y658526D02*
Y589553D01*
X352785Y589995D02*
X374000D01*
Y587995D02*
X353520D01*
X353750Y585995D02*
X374000D01*
Y583995D02*
X353750D01*
Y581995D02*
X374000D01*
Y579995D02*
X353750D01*
Y577995D02*
X374000D01*
Y575995D02*
X353750D01*
Y573995D02*
X374000D01*
Y571995D02*
X353750D01*
Y569995D02*
X374000D01*
Y567995D02*
X362555D01*
X362996Y567784D02*
Y648526D01*
X363527Y647995D02*
X88750D01*
Y649995D02*
X361527D01*
X360996Y650526D02*
Y568519D01*
X358996Y568750D02*
Y652526D01*
X359527Y651995D02*
X88750D01*
Y653995D02*
X357527D01*
X356996Y654526D02*
Y568517D01*
X355445Y567995D02*
X353750D01*
X354996Y567780D02*
Y656526D01*
X355527Y655995D02*
X88750D01*
Y641995D02*
X369527D01*
X368996Y642526D02*
Y541365D01*
X369744Y541995D02*
X367892D01*
Y543995D02*
X374000D01*
X372996Y543517D02*
Y638526D01*
X373527Y637995D02*
X88750D01*
Y639995D02*
X371527D01*
X370996Y640526D02*
Y542780D01*
X374000Y545995D02*
X367892D01*
Y547995D02*
X374000D01*
X314250Y498546D02*
G03*
X316813Y492359I8750J0D01*
G01*
X316630Y429995D02*
X88750D01*
Y431996D02*
X314822D01*
X314996Y431755D02*
Y114102D01*
X312996D02*
Y765250D01*
X310996D02*
Y114102D01*
X308996D02*
Y765250D01*
X306996D02*
Y114102D01*
X304996D02*
Y765250D01*
X302996D02*
Y114102D01*
X300996D02*
Y765250D01*
X298996D02*
Y114102D01*
X296996D02*
Y765250D01*
X294996D02*
Y114102D01*
X292996D02*
Y765250D01*
X290996D02*
Y114102D01*
X288996D02*
Y765250D01*
X286996D02*
Y114102D01*
X284996D02*
Y765250D01*
X282996D02*
Y114102D01*
X280996D02*
Y765250D01*
X278996D02*
Y114102D01*
X276996D02*
Y765250D01*
X274996D02*
Y114102D01*
X272996D02*
Y765250D01*
X314996D02*
Y602535D01*
X314779Y601995D02*
X237565D01*
Y599995D02*
X314307D01*
X314250Y597995D02*
X237565D01*
Y595995D02*
X314250D01*
Y593995D02*
X237565D01*
Y591995D02*
X314250D01*
Y589995D02*
X237565D01*
Y587995D02*
X314250D01*
Y585995D02*
X237565D01*
Y583995D02*
X314250D01*
Y581995D02*
X237565D01*
Y579995D02*
X314250D01*
Y577995D02*
X237565D01*
Y575995D02*
X314250D01*
Y573995D02*
X237565D01*
Y571995D02*
X314250D01*
Y569995D02*
X237565D01*
Y567995D02*
X314250D01*
Y565995D02*
X237565D01*
Y563995D02*
X314250D01*
Y561995D02*
X237565D01*
Y559995D02*
X314250D01*
Y557995D02*
X237565D01*
Y555995D02*
X314250D01*
Y553995D02*
X237565D01*
Y551995D02*
X314250D01*
Y549995D02*
X237565D01*
Y603995D02*
X315816D01*
X314250Y547995D02*
X237565D01*
Y545995D02*
X314250D01*
Y543995D02*
X237565D01*
Y541995D02*
X314250D01*
Y539995D02*
X237565D01*
Y537995D02*
X314250D01*
Y535995D02*
X237565D01*
Y533995D02*
X314250D01*
Y531995D02*
X237565D01*
Y529995D02*
X314250D01*
Y527995D02*
X237565D01*
Y525995D02*
X314250D01*
Y523995D02*
X237565D01*
Y521995D02*
X314250D01*
Y519995D02*
X237565D01*
Y517995D02*
X314250D01*
Y515995D02*
X237565D01*
Y513995D02*
X314250D01*
Y511995D02*
X237565D01*
Y509995D02*
X314250D01*
Y507995D02*
X237565D01*
Y505995D02*
X314250D01*
Y503995D02*
X237565D01*
Y501995D02*
X314250D01*
Y499995D02*
X237565D01*
Y497995D02*
X314267D01*
X314630Y495995D02*
X237565D01*
Y493995D02*
X315526D01*
X314996Y495011D02*
Y463245D01*
X315627Y463996D02*
X88750D01*
Y461996D02*
X314216D01*
X313481Y459995D02*
X88750D01*
Y457995D02*
X313250D01*
Y455995D02*
X88750D01*
Y453996D02*
X313250D01*
Y451996D02*
X88750D01*
Y449995D02*
X313250D01*
Y447995D02*
X88750D01*
Y445995D02*
X313250D01*
Y443996D02*
X88750D01*
Y441996D02*
X313250D01*
Y439995D02*
X88750D01*
Y437995D02*
X313250D01*
Y437000D02*
G03*
X315813Y430813I8750J0D01*
G01*
X313782Y433996D02*
X88750D01*
Y435995D02*
X313308D01*
X316249Y419996D02*
X96293D01*
X96996Y419292D02*
Y468126D01*
X110293Y405996D02*
X316249D01*
Y379996D02*
X213187D01*
X212996Y380102D02*
Y467435D01*
X210996D02*
Y380956D01*
X208996Y381402D02*
Y467435D01*
X206996D02*
Y381489D01*
X204996Y381224D02*
Y467435D01*
X202996D02*
Y380581D01*
X201813Y379996D02*
X136293D01*
X136996Y379292D02*
Y467435D01*
X138996D02*
Y377292D01*
X138293Y377996D02*
X199234D01*
X198996Y377742D02*
Y467435D01*
X196996D02*
Y374682D01*
X196716Y373996D02*
X142293D01*
X142996Y373292D02*
Y467435D01*
X140996D02*
Y375292D01*
X140293Y375996D02*
X197687D01*
X196175Y371996D02*
X144293D01*
X144996Y371292D02*
Y467435D01*
X146996D02*
Y369292D01*
X146293Y369996D02*
X196000D01*
X200996Y379484D02*
Y467435D01*
X214996D02*
Y378721D01*
X215632Y378132D02*
G03*
X199368Y361868I-8132J-8132D01*
G01*
X208396Y352840D01*
Y115104D01*
D02*
G03*
X211765Y106972I11500J0D01*
G01*
X224265Y94472D01*
D02*
G03*
X232397Y91103I8132J8132D01*
G01*
X268799D01*
X268996Y91102D02*
Y72000D01*
X270996D02*
Y91102D01*
X269000D02*
X787602D01*
D02*
G03*
X795733Y94470I0J11500D01*
G01*
X807132Y105868D01*
D02*
G03*
X810500Y114000I-8132J8132D01*
G01*
Y122918D01*
D02*
G03*
X815000Y121750I4500J8082D01*
G01*
X855569D01*
X882451Y94867D01*
D02*
G03*
X889000Y92150I6549J6533D01*
G01*
X1048400D01*
D02*
G03*
X1054941Y94859I0J9250D01*
G01*
X1054949Y94867D02*
X1068533Y108451D01*
D02*
G03*
X1071250Y115000I-6533J6549D01*
G01*
Y217000D01*
D02*
G03*
X1062000Y226250I-9250J0D01*
G01*
X1071250Y217000D02*
G03*
X1062000Y226250I-9250J0D01*
G01*
X1049000D01*
D02*
G03*
X1049000Y207750I0J-9250D01*
G01*
X1052750D01*
Y118832D01*
X1044569Y110650D01*
X947248D01*
Y153001D01*
D02*
G03*
X944539Y159542I-9250J0D01*
G01*
X947248Y153001D02*
G03*
X944531Y159550I-9250J0D01*
G01*
X931549Y172532D01*
X931533Y172548D02*
X927552Y176528D01*
D02*
G03*
X921003Y179246I-6549J-6533D01*
G01*
X927544Y176537D02*
G03*
X921003Y179246I-6541J-6541D01*
G01*
X876497D01*
Y305234D01*
X885763Y314500D01*
X925000D01*
D02*
G03*
X936500Y326000I0J11500D01*
G01*
D02*
G03*
X925000Y337500I-11500J0D01*
G01*
X881000D01*
X880995D02*
Y442435D01*
X878995D02*
Y337324D01*
X876995Y336780D02*
Y442435D01*
X870995D02*
Y332258D01*
X870732Y331996D02*
X553182D01*
X552995Y332254D02*
Y386750D01*
X550995D02*
Y334182D01*
X551254Y333996D02*
X872732D01*
X868995Y330258D02*
Y442435D01*
X866995D02*
Y328258D01*
X866732Y327996D02*
X554693D01*
X554750Y325996D02*
X864732D01*
X864995Y326258D02*
Y442435D01*
X862995D02*
Y324258D01*
X862732Y323996D02*
X554750D01*
Y321996D02*
X860732D01*
X860995Y322258D02*
Y442435D01*
X858995D02*
Y320258D01*
X858732Y319996D02*
X554750D01*
X554221Y329996D02*
X868732D01*
X882995Y337500D02*
Y442435D01*
X884995D02*
Y337500D01*
X886995D02*
Y442435D01*
X888995D02*
Y337500D01*
X890995D02*
Y442435D01*
X892995D02*
Y337500D01*
X894995D02*
Y442435D01*
X896995D02*
Y337500D01*
X898995D02*
Y442435D01*
X900995D02*
Y337500D01*
X902995D02*
Y442435D01*
X904995D02*
Y337500D01*
X906995D02*
Y442435D01*
X908995D02*
Y337500D01*
X910995D02*
Y442435D01*
X912995D02*
Y337500D01*
X914995D02*
Y442435D01*
X916995D02*
Y337500D01*
Y314500D02*
Y179246D01*
X914995D02*
Y314500D01*
X912995D02*
Y179246D01*
X910995D02*
Y314500D01*
X908995D02*
Y179246D01*
X906995D02*
Y314500D01*
X904995D02*
Y179246D01*
X902995D02*
Y314500D01*
X900995D02*
Y179246D01*
X898995D02*
Y314500D01*
X896995D02*
Y179246D01*
X894995D02*
Y314500D01*
X892995D02*
Y179246D01*
X890995D02*
Y314500D01*
X888995D02*
Y179246D01*
X886995D02*
Y314500D01*
X885259Y313996D02*
X1198000D01*
Y311996D02*
X883259D01*
X882995Y311731D02*
Y179246D01*
X880995D02*
Y309731D01*
X881259Y309996D02*
X1198000D01*
Y307996D02*
X879259D01*
X884995Y313731D02*
Y179246D01*
X878995D02*
Y307731D01*
X877259Y305996D02*
X1198000D01*
Y303996D02*
X876497D01*
Y301996D02*
X1198000D01*
Y299996D02*
X876497D01*
Y297996D02*
X1198000D01*
Y295996D02*
X876497D01*
Y293996D02*
X1198000D01*
Y291996D02*
X876497D01*
Y289996D02*
X1198000D01*
Y287996D02*
X876497D01*
Y285996D02*
X1198000D01*
Y283996D02*
X876497D01*
Y281996D02*
X1198000D01*
Y279996D02*
X876497D01*
Y277996D02*
X1198000D01*
Y275996D02*
X876497D01*
Y273996D02*
X1198000D01*
Y271996D02*
X876497D01*
Y269996D02*
X1198000D01*
Y267996D02*
X876497D01*
Y265996D02*
X1198000D01*
Y263996D02*
X876497D01*
Y261996D02*
X1198000D01*
Y259996D02*
X876497D01*
Y257996D02*
X1198000D01*
Y255996D02*
X876497D01*
Y253996D02*
X1198000D01*
Y251996D02*
X876497D01*
Y249996D02*
X1198000D01*
Y247996D02*
X876497D01*
X876995Y305731D02*
Y179246D01*
X876497Y179996D02*
X1052750D01*
Y181996D02*
X876497D01*
Y183996D02*
X1052750D01*
Y185996D02*
X876497D01*
X876028Y160746D02*
X917172D01*
X918451Y159467D01*
X918467Y159450D02*
X928748Y149170D01*
Y110650D01*
X892831D01*
X865949Y137533D01*
D02*
G03*
X859400Y140250I-6549J-6533D01*
G01*
X865941Y137541D02*
G03*
X859400Y140250I-6541J-6541D01*
G01*
X857513D01*
X873129Y155866D01*
D02*
G03*
X876028Y160746I-8132J8132D01*
G01*
X873129Y155866D02*
G03*
X876028Y160746I-8132J8132D01*
G01*
X876995D02*
Y126487D01*
X877485Y125996D02*
X928748D01*
Y123996D02*
X879485D01*
X878995Y124487D02*
Y160746D01*
X880995D02*
Y122487D01*
X881485Y121996D02*
X928748D01*
Y119996D02*
X883485D01*
X882995Y120487D02*
Y160746D01*
X884995D02*
Y118487D01*
X885485Y117996D02*
X928748D01*
Y115996D02*
X887485D01*
X886995Y116487D02*
Y160746D01*
X888995D02*
Y114487D01*
X889485Y113996D02*
X928748D01*
Y111996D02*
X891485D01*
X890995Y112487D02*
Y160746D01*
X892995D02*
Y110650D01*
X894995D02*
Y160746D01*
X896995D02*
Y110650D01*
X898995D02*
Y160746D01*
X900995D02*
Y110650D01*
X902995D02*
Y160746D01*
X904995D02*
Y110650D01*
X906995D02*
Y160746D01*
X908995D02*
Y110650D01*
X910995D02*
Y160746D01*
X912995D02*
Y110650D01*
X914995D02*
Y160746D01*
X916995D02*
Y110650D01*
Y92150D02*
Y2000D01*
X914995D02*
Y92150D01*
X912995D02*
Y2000D01*
X910995D02*
Y92150D01*
X908995D02*
Y2000D01*
X906995D02*
Y92150D01*
X904995D02*
Y2000D01*
X902995D02*
Y92150D01*
X900995D02*
Y2000D01*
X898995D02*
Y92150D01*
X896995D02*
Y2000D01*
X894995D02*
Y92150D01*
X892995D02*
Y2000D01*
X890995D02*
Y92150D01*
X882459Y94859D02*
G03*
X889000Y92150I6541J6541D01*
G01*
X888995D02*
Y2000D01*
X886995D02*
Y92370D01*
X884995Y93062D02*
Y2000D01*
X882995D02*
Y94364D01*
X883455Y93996D02*
X795230D01*
X794995Y93793D02*
Y2000D01*
X792995D02*
Y92445D01*
X792048Y91996D02*
X1198000D01*
Y89996D02*
X194750D01*
Y91996D02*
X227954D01*
X226996Y92450D02*
Y72000D01*
X224996D02*
Y93801D01*
X224770Y93996D02*
X194750D01*
Y95996D02*
X222740D01*
X222996Y95740D02*
Y72000D01*
X220996D02*
Y97740D01*
X220740Y97996D02*
X194750D01*
Y99996D02*
X218740D01*
X218996Y99740D02*
Y72000D01*
X216996D02*
Y101740D01*
X216740Y101996D02*
X194750D01*
Y103996D02*
X214740D01*
X214996Y103740D02*
Y72000D01*
X212996D02*
Y105740D01*
X212740Y105996D02*
X194750D01*
Y107996D02*
X210856D01*
X210996Y107821D02*
Y72000D01*
X208996Y73792D02*
Y111438D01*
X208824Y111996D02*
X194750D01*
Y109996D02*
X209593D01*
X208450Y113996D02*
X194750D01*
Y115996D02*
X208396D01*
Y115104D02*
G03*
X211765Y106972I11500J0D01*
G01*
X208396Y117996D02*
X194750D01*
Y119996D02*
X208396D01*
Y121996D02*
X194750D01*
Y123996D02*
X208396D01*
Y125996D02*
X194750D01*
X160250D02*
X2000D01*
Y123996D02*
X160250D01*
Y121996D02*
X2000D01*
Y119996D02*
X160250D01*
Y117996D02*
X2000D01*
Y115996D02*
X160250D01*
Y113996D02*
X2000D01*
Y111996D02*
X160250D01*
Y109996D02*
X2000D01*
Y107996D02*
X160250D01*
Y105996D02*
X2000D01*
Y103996D02*
X160250D01*
Y101996D02*
X2000D01*
Y99996D02*
X160250D01*
Y97996D02*
X2000D01*
Y95996D02*
X160250D01*
Y93996D02*
X2000D01*
Y91996D02*
X160250D01*
Y89996D02*
X2000D01*
Y87996D02*
X160250D01*
Y85996D02*
X2000D01*
Y83996D02*
X160250D01*
Y82500D02*
G03*
X163106Y75606I9750J0D01*
G01*
X162996Y75717D02*
Y2000D01*
X160996D02*
Y78759D01*
X161353Y77996D02*
X2000D01*
Y79996D02*
X160577D01*
X160263Y81996D02*
X2000D01*
Y75996D02*
X162736D01*
X194996Y87792D02*
Y467435D01*
X192996D02*
Y353079D01*
X192271Y353996D02*
X207241D01*
X206996Y354240D02*
Y75792D01*
X206792Y75996D02*
X1198000D01*
Y77996D02*
X204792D01*
X204996Y77792D02*
Y356240D01*
X205241Y355996D02*
X189784D01*
X188996Y356393D02*
Y467435D01*
X190996D02*
Y355188D01*
X193652Y351996D02*
X208396D01*
Y349996D02*
X194425D01*
X194737Y347996D02*
X208396D01*
Y345996D02*
X194750D01*
Y343996D02*
X208396D01*
Y341996D02*
X194750D01*
Y339996D02*
X208396D01*
Y337996D02*
X194750D01*
Y335996D02*
X208396D01*
Y333996D02*
X194750D01*
Y331996D02*
X208396D01*
Y329996D02*
X194750D01*
Y327996D02*
X208396D01*
Y325996D02*
X194750D01*
Y323996D02*
X208396D01*
Y321996D02*
X194750D01*
Y319996D02*
X208396D01*
Y317996D02*
X194750D01*
Y315996D02*
X208396D01*
Y313996D02*
X194750D01*
Y311996D02*
X208396D01*
Y309996D02*
X194750D01*
Y307996D02*
X208396D01*
X231397D02*
X316249D01*
Y309996D02*
X231397D01*
Y311996D02*
X316249D01*
Y313996D02*
X231397D01*
Y315996D02*
X316249D01*
Y317996D02*
X231397D01*
Y319996D02*
X316249D01*
Y321996D02*
X231397D01*
Y323996D02*
X316249D01*
Y325996D02*
X231397D01*
Y327996D02*
X316249D01*
Y329996D02*
X231397D01*
Y331996D02*
X316249D01*
Y333996D02*
X231397D01*
Y335996D02*
X316249D01*
Y337996D02*
X231397D01*
Y339996D02*
X316249D01*
Y341996D02*
X231397D01*
Y343996D02*
X316249D01*
Y345996D02*
X231397D01*
Y347996D02*
X316249D01*
Y349996D02*
X231397D01*
Y351996D02*
X316249D01*
Y353996D02*
X231397D01*
Y355996D02*
X316249D01*
Y357996D02*
X231390D01*
X231397Y357604D02*
G03*
X228028Y365735I-11500J0D01*
G01*
X231397Y357604D02*
G03*
X228028Y365735I-11500J0D01*
G01*
X215632Y378132D01*
X215768Y377996D02*
X316249D01*
Y375996D02*
X217768D01*
X216996Y376767D02*
Y467435D01*
X218996D02*
Y374767D01*
X219768Y373996D02*
X316249D01*
Y371996D02*
X221768D01*
X220996Y372767D02*
Y467435D01*
X222996D02*
Y370767D01*
X223768Y369996D02*
X316249D01*
Y367996D02*
X225768D01*
X226996Y366767D02*
Y467435D01*
X224996D02*
Y368767D01*
X227768Y365996D02*
X316249D01*
Y363996D02*
X229456D01*
X228996Y364635D02*
Y467435D01*
X230996Y467566D02*
Y360611D01*
X231145Y359996D02*
X316249D01*
Y361996D02*
X230525D01*
X231397Y357604D02*
Y119867D01*
X237160Y114103D01*
X238996D02*
Y765250D01*
X240996D02*
Y114103D01*
X242996D02*
Y765250D01*
X244996D02*
Y114103D01*
X246996D02*
Y765250D01*
X248996D02*
Y114103D01*
X250996D02*
Y765250D01*
X252996D02*
Y114103D01*
X254996D02*
Y765250D01*
X236996D02*
Y632708D01*
X237292Y631995D02*
X374000D01*
Y633995D02*
X236388D01*
X234996Y635620D02*
Y765250D01*
X232996D02*
Y636877D01*
X234507Y635995D02*
X374000D01*
Y629995D02*
X237565D01*
Y627995D02*
X374000D01*
Y625995D02*
X237565D01*
Y623995D02*
X374000D01*
Y621995D02*
X237565D01*
Y619995D02*
X374000D01*
Y617995D02*
X333555D01*
X332996Y618221D02*
Y678526D01*
X333527Y677995D02*
X88750D01*
Y679995D02*
X331527D01*
X330996Y680537D02*
Y618693D01*
X328996Y618692D02*
Y683970D01*
X328988Y683995D02*
X88750D01*
Y681995D02*
X329899D01*
X328587Y685995D02*
X88750D01*
Y687995D02*
X328629D01*
X328996Y689634D02*
Y709881D01*
X328970Y709995D02*
X88750D01*
Y707995D02*
X329662D01*
X330964Y705995D02*
X88750D01*
Y703995D02*
X333365D01*
X332996Y704220D02*
Y694705D01*
X331986Y693995D02*
X88750D01*
Y691995D02*
X330147D01*
X330996Y693066D02*
Y705958D01*
X334996Y703251D02*
Y695616D01*
X336779Y695995D02*
X88750D01*
Y697995D02*
X355525D01*
X354996Y698524D02*
Y682689D01*
X355690Y681995D02*
X371525D01*
X370996Y682524D02*
Y666689D01*
X371690Y665995D02*
X381000D01*
Y667995D02*
X369690D01*
X368996Y668689D02*
Y684524D01*
X369525Y683995D02*
X353690D01*
X352996Y684689D02*
Y700524D01*
X353525Y699995D02*
X88750D01*
Y701995D02*
X351525D01*
X350996Y702524D02*
Y686689D01*
X351690Y685995D02*
X367525D01*
X366996Y686524D02*
Y670689D01*
X367690Y669995D02*
X381000D01*
Y671995D02*
X365690D01*
X364996Y672689D02*
Y688524D01*
X365525Y687995D02*
X349690D01*
X348996Y688689D02*
Y702750D01*
X346996D02*
Y690689D01*
X347690Y689995D02*
X363525D01*
X362996Y690524D02*
Y674689D01*
X363690Y673995D02*
X379525D01*
X378996Y674524D02*
Y658689D01*
X379690Y657995D02*
X381000D01*
X380996Y656689D02*
Y672524D01*
X377525Y675995D02*
X361690D01*
X360996Y676689D02*
Y692524D01*
X361525Y691995D02*
X345690D01*
X344996Y692689D02*
Y702750D01*
X342996D02*
Y694456D01*
X343617Y693995D02*
X359525D01*
X358996Y694524D02*
Y678689D01*
X359690Y677995D02*
X375525D01*
X374996Y678524D02*
Y662689D01*
X375690Y661995D02*
X381000D01*
Y659995D02*
X377690D01*
X376996Y660689D02*
Y676524D01*
X399500Y675995D02*
X1198000D01*
Y677995D02*
X399353D01*
X398996Y679364D02*
Y765250D01*
X396996D02*
Y682681D01*
X397579Y681995D02*
X1198000D01*
Y679995D02*
X398752D01*
X399500Y673995D02*
X1198000D01*
Y671995D02*
X399500D01*
Y669995D02*
X1198000D01*
Y683995D02*
X395688D01*
X394996Y684687D02*
Y765250D01*
X392996D02*
Y686687D01*
X393688Y685995D02*
X1198000D01*
Y687995D02*
X391688D01*
X390996Y688687D02*
Y765250D01*
X388996D02*
Y690687D01*
X389688Y689995D02*
X1198000D01*
Y691995D02*
X387688D01*
X386996Y692687D02*
Y765250D01*
X384996D02*
Y694687D01*
X385688Y693995D02*
X1198000D01*
Y695995D02*
X383688D01*
X382996Y696687D02*
Y765250D01*
X380996D02*
Y698687D01*
X381688Y697995D02*
X1198000D01*
Y699995D02*
X379688D01*
X378996Y700687D02*
Y765250D01*
X376996D02*
Y702687D01*
X377688Y701995D02*
X1198000D01*
Y703995D02*
X375688D01*
X374996Y704687D02*
Y765250D01*
X372996D02*
Y706687D01*
X373688Y705995D02*
X1198000D01*
Y707995D02*
X371688D01*
X370996Y708687D02*
Y765250D01*
X368996D02*
Y710687D01*
X369688Y709995D02*
X1198000D01*
Y711995D02*
X367688D01*
X366996Y712687D02*
Y765250D01*
X364996D02*
Y714687D01*
X365688Y713995D02*
X1198000D01*
Y715995D02*
X363688D01*
X362996Y716687D02*
Y765250D01*
X360996D02*
Y718684D01*
X361688Y717995D02*
X1198000D01*
Y719995D02*
X359254D01*
X358996Y720140D02*
Y765250D01*
X356996D02*
Y720935D01*
X354996Y721242D02*
Y765250D01*
X352996D02*
Y721250D01*
X350996D02*
Y765250D01*
X348996D02*
Y721250D01*
X346996D02*
Y765250D01*
X344996D02*
Y721250D01*
X342996D02*
Y765250D01*
X340996D02*
Y721250D01*
X338996D02*
Y765250D01*
X336996D02*
Y721195D01*
X334996Y720749D02*
Y765250D01*
X324996D02*
Y617178D01*
X322215Y613995D02*
X237565D01*
Y611995D02*
X321480D01*
X321250Y609995D02*
X237565D01*
X230996Y637434D02*
Y765250D01*
X228996D02*
Y637565D01*
X226996D02*
Y765250D01*
X224996D02*
Y637565D01*
X222996D02*
Y765250D01*
X220996D02*
Y637565D01*
X218996D02*
Y765250D01*
X216996D02*
Y637565D01*
X214996D02*
Y765250D01*
X212996D02*
Y637565D01*
X210996D02*
Y765250D01*
X208996D02*
Y637565D01*
X206996D02*
Y765250D01*
X204996D02*
Y637565D01*
X202996D02*
Y765250D01*
X200996D02*
Y637565D01*
X198996D02*
Y765250D01*
X196996D02*
Y637565D01*
X194996D02*
Y765250D01*
X192996D02*
Y637565D01*
X190996D02*
Y765250D01*
X188996D02*
Y637565D01*
X186996D02*
Y765250D01*
X184996D02*
Y637565D01*
X182996D02*
Y765250D01*
X180996D02*
Y637565D01*
X178996D02*
Y765250D01*
X176996D02*
Y637565D01*
X174996D02*
Y765250D01*
X172996D02*
Y637565D01*
X170996D02*
Y765250D01*
X168996D02*
Y637565D01*
X166996D02*
Y765250D01*
X164996D02*
Y637565D01*
X162996D02*
Y765250D01*
X160996D02*
Y637565D01*
X158996D02*
Y765250D01*
X156996D02*
Y637565D01*
X154996D02*
Y765250D01*
X152996D02*
Y637565D01*
X150996D02*
Y765250D01*
X148996D02*
Y637565D01*
X146996D02*
Y765250D01*
X144996D02*
Y637565D01*
X142996D02*
Y765250D01*
X140996D02*
Y637565D01*
X138996D02*
Y765250D01*
X136996D02*
Y637565D01*
X88750Y673995D02*
X337527D01*
X336996Y674526D02*
Y615255D01*
X336373Y615995D02*
X374000D01*
Y613995D02*
X337785D01*
X338520Y611995D02*
X374000D01*
Y609995D02*
X338750D01*
X334996Y617183D02*
Y676526D01*
X335527Y675995D02*
X88750D01*
Y689995D02*
X329120D01*
X336996Y696017D02*
Y702805D01*
X338996Y702750D02*
Y695974D01*
X338825Y695995D02*
X357525D01*
X356996Y696524D02*
Y680689D01*
X357690Y679995D02*
X373525D01*
X372996Y680524D02*
Y664689D01*
X373690Y663995D02*
X381000D01*
X399500D02*
X1198000D01*
Y661995D02*
X399500D01*
Y659995D02*
X1198000D01*
Y657995D02*
X399500D01*
Y655995D02*
X1198000D01*
Y653995D02*
X399500D01*
Y651995D02*
X1198000D01*
Y649995D02*
X399500D01*
Y647995D02*
X1198000D01*
Y645995D02*
X399500D01*
Y643995D02*
X1198000D01*
Y641995D02*
X399500D01*
Y639995D02*
X1198000D01*
Y637995D02*
X399500D01*
Y635995D02*
X410493D01*
X410996Y636381D02*
Y765250D01*
X412996D02*
Y637288D01*
X414996Y637564D02*
Y765250D01*
X416996D02*
Y637565D01*
X418996D02*
Y765250D01*
X420996D02*
Y637565D01*
X422996D02*
Y765250D01*
X424996D02*
Y637565D01*
X426996D02*
Y765250D01*
X428996D02*
Y637565D01*
X430996D02*
Y765250D01*
X432996D02*
Y637565D01*
X434996D02*
Y765250D01*
X408996D02*
Y634495D01*
X408612Y633995D02*
X399500D01*
Y631995D02*
X407709D01*
X407435Y629995D02*
X399500D01*
Y627995D02*
X407435D01*
Y625995D02*
X399500D01*
Y623995D02*
X407435D01*
Y621995D02*
X399500D01*
Y619995D02*
X407435D01*
Y617995D02*
X399500D01*
Y615995D02*
X407435D01*
Y613995D02*
X399500D01*
Y611995D02*
X407435D01*
Y609995D02*
X399500D01*
Y665995D02*
X1198000D01*
Y667995D02*
X399500D01*
Y607995D02*
X407435D01*
Y605995D02*
X399500D01*
Y603995D02*
X407435D01*
Y601995D02*
X399500D01*
Y599995D02*
X407435D01*
Y597995D02*
X399500D01*
Y595995D02*
X407435D01*
Y593995D02*
X399500D01*
Y591995D02*
X407435D01*
Y589995D02*
X399500D01*
Y587995D02*
X407435D01*
Y585995D02*
X399500D01*
Y583995D02*
X407435D01*
Y581995D02*
X399500D01*
Y579995D02*
X407435D01*
Y577995D02*
X399500D01*
Y575995D02*
X407435D01*
Y573995D02*
X399500D01*
Y571995D02*
X407435D01*
Y569995D02*
X399500D01*
Y567995D02*
X407435D01*
Y565995D02*
X399500D01*
Y563995D02*
X407435D01*
Y561995D02*
X399500D01*
Y559995D02*
X407435D01*
Y557995D02*
X399500D01*
Y555995D02*
X407435D01*
Y553995D02*
X399500D01*
Y551995D02*
X407435D01*
Y549995D02*
X399500D01*
Y547995D02*
X407435D01*
Y545995D02*
X399500D01*
Y543995D02*
X407435D01*
Y541995D02*
X399500D01*
Y539995D02*
X407435D01*
Y537995D02*
X399500D01*
Y535995D02*
X407435D01*
Y533995D02*
X399500D01*
Y531995D02*
X407435D01*
Y529995D02*
X399500D01*
Y527995D02*
X407435D01*
Y525995D02*
X399500D01*
Y523995D02*
X407435D01*
Y521995D02*
X399500D01*
Y519995D02*
X407435D01*
Y517995D02*
X399500D01*
Y515995D02*
X407435D01*
Y513995D02*
X399500D01*
Y511995D02*
X407435D01*
Y509995D02*
X399500D01*
Y507995D02*
X407435D01*
Y505995D02*
X399500D01*
Y503995D02*
X407435D01*
Y501995D02*
X399500D01*
Y499995D02*
X407435D01*
Y497995D02*
X399500D01*
Y495995D02*
X407435D01*
Y493995D02*
X399500D01*
Y491995D02*
X407435D01*
Y489995D02*
X401485D01*
X400996Y490485D02*
Y765250D01*
X402996D02*
Y488485D01*
X403485Y487995D02*
X407435D01*
Y485995D02*
X405115D01*
X404996Y486185D02*
Y765250D01*
X406996D02*
Y463299D01*
X407435Y463996D02*
X406463D01*
Y465995D02*
X407435D01*
Y467995D02*
X406463D01*
Y469995D02*
X407435D01*
Y471995D02*
X406463D01*
Y473995D02*
X407435D01*
Y475995D02*
X406463D01*
Y477995D02*
X407435D01*
Y479995D02*
X406463D01*
Y481186D02*
G03*
X403754Y487727I-9250J0D01*
G01*
X406026Y483995D02*
X407435D01*
Y481995D02*
X406428D01*
X415749Y441996D02*
X1198000D01*
Y439995D02*
X415749D01*
Y437995D02*
X1198000D01*
Y435995D02*
X415749D01*
X416985Y433996D02*
X1198000D01*
Y431996D02*
X418985D01*
X418996Y431985D02*
Y442435D01*
X420996D02*
Y429985D01*
X420985Y429995D02*
X1198000D01*
Y443996D02*
X994495D01*
X994995Y444379D02*
Y110650D01*
X992995D02*
Y443122D01*
X990995Y442566D02*
Y110650D01*
X988995D02*
Y442435D01*
X986995D02*
Y110650D01*
X984995D02*
Y442435D01*
X982995D02*
Y110650D01*
X980995D02*
Y442435D01*
X996381Y445995D02*
X1198000D01*
Y447995D02*
X997288D01*
X996995Y447288D02*
Y110650D01*
X998995D02*
Y838000D01*
X1000995D02*
Y110650D01*
X1002995D02*
Y838000D01*
X1004995D02*
Y110650D01*
X1006995D02*
Y838000D01*
X1008995D02*
Y110650D01*
X1010995D02*
Y838000D01*
X1012995D02*
Y110650D01*
X1014995D02*
Y838000D01*
X1016995D02*
Y110650D01*
X1018995D02*
Y838000D01*
X1020995D02*
Y110650D01*
X1022995D02*
Y838000D01*
X1024995D02*
Y110650D01*
X1026995D02*
Y838000D01*
X1028995D02*
Y110650D01*
X1030995D02*
Y838000D01*
X1032995D02*
Y110650D01*
X1034995D02*
Y838000D01*
X1036995D02*
Y110650D01*
X1038995D02*
Y838000D01*
X996995D02*
Y632712D01*
X997292Y631995D02*
X1198000D01*
Y629995D02*
X997565D01*
Y627995D02*
X1198000D01*
Y625995D02*
X997565D01*
Y623995D02*
X1198000D01*
Y621995D02*
X997565D01*
Y619995D02*
X1198000D01*
Y617995D02*
X997565D01*
Y615995D02*
X1198000D01*
Y613995D02*
X997565D01*
Y611995D02*
X1198000D01*
Y609995D02*
X997565D01*
X996388Y633995D02*
X1198000D01*
Y635995D02*
X994507D01*
X994995Y635621D02*
Y838000D01*
X992995D02*
Y636878D01*
X990995Y637434D02*
Y838000D01*
X988995D02*
Y637565D01*
X986995D02*
Y838000D01*
X984995D02*
Y637565D01*
X982995D02*
Y838000D01*
X980995D02*
Y637565D01*
X997565Y607995D02*
X1198000D01*
Y605995D02*
X997565D01*
Y603995D02*
X1198000D01*
Y601995D02*
X997565D01*
Y599995D02*
X1198000D01*
Y597995D02*
X997565D01*
Y595995D02*
X1198000D01*
Y593995D02*
X997565D01*
Y591995D02*
X1198000D01*
Y589995D02*
X997565D01*
Y587995D02*
X1198000D01*
Y585995D02*
X997565D01*
Y583995D02*
X1198000D01*
Y581995D02*
X997565D01*
Y579995D02*
X1198000D01*
Y577995D02*
X997565D01*
Y575995D02*
X1198000D01*
Y573995D02*
X997565D01*
Y571995D02*
X1198000D01*
Y569995D02*
X997565D01*
Y567995D02*
X1198000D01*
Y565995D02*
X997565D01*
Y563995D02*
X1198000D01*
Y561995D02*
X997565D01*
Y559995D02*
X1198000D01*
Y557995D02*
X997565D01*
Y555995D02*
X1198000D01*
Y553995D02*
X997565D01*
Y551995D02*
X1198000D01*
Y549995D02*
X997565D01*
Y547995D02*
X1198000D01*
Y545995D02*
X997565D01*
Y543995D02*
X1198000D01*
Y541995D02*
X997565D01*
Y539995D02*
X1198000D01*
Y537995D02*
X997565D01*
Y535995D02*
X1198000D01*
Y533995D02*
X997565D01*
Y531995D02*
X1198000D01*
Y529995D02*
X997565D01*
Y527995D02*
X1198000D01*
Y525995D02*
X997565D01*
Y523995D02*
X1198000D01*
Y521995D02*
X997565D01*
Y519995D02*
X1198000D01*
Y517995D02*
X997565D01*
Y515995D02*
X1198000D01*
Y513995D02*
X997565D01*
Y511995D02*
X1198000D01*
Y509995D02*
X997565D01*
Y507995D02*
X1198000D01*
Y505995D02*
X997565D01*
Y503995D02*
X1198000D01*
Y501995D02*
X997565D01*
Y499995D02*
X1198000D01*
Y497995D02*
X997565D01*
Y495995D02*
X1198000D01*
Y493995D02*
X997565D01*
Y491995D02*
X1198000D01*
Y489995D02*
X997565D01*
Y487995D02*
X1198000D01*
Y485995D02*
X997565D01*
Y483995D02*
X1198000D01*
Y481995D02*
X997565D01*
Y479995D02*
X1198000D01*
Y477995D02*
X997565D01*
Y475995D02*
X1198000D01*
Y473995D02*
X997565D01*
Y471995D02*
X1198000D01*
Y469995D02*
X997565D01*
Y467995D02*
X1198000D01*
Y465995D02*
X997565D01*
Y463996D02*
X1198000D01*
Y461996D02*
X997565D01*
Y459995D02*
X1198000D01*
Y457995D02*
X997565D01*
Y455995D02*
X1198000D01*
Y453996D02*
X997565D01*
Y451996D02*
X1198000D01*
Y449995D02*
X997564D01*
X978995Y442435D02*
Y110650D01*
X976995D02*
Y442435D01*
X974995D02*
Y110650D01*
X972995D02*
Y442435D01*
X970995D02*
Y110650D01*
X968995D02*
Y442435D01*
X966995D02*
Y110650D01*
X964995D02*
Y442435D01*
X962995D02*
Y110650D01*
X960995D02*
Y442435D01*
X958995D02*
Y110650D01*
X956995D02*
Y442435D01*
X954995D02*
Y110650D01*
X952995D02*
Y442435D01*
X950995D02*
Y110650D01*
X948995D02*
Y442435D01*
X946995D02*
Y155151D01*
X946750Y155996D02*
X1052750D01*
Y153996D02*
X947194D01*
X947248Y151996D02*
X1052750D01*
Y149996D02*
X947248D01*
Y147996D02*
X1052750D01*
Y145996D02*
X947248D01*
Y143996D02*
X1052750D01*
Y141996D02*
X947248D01*
Y139996D02*
X1052750D01*
Y137996D02*
X947248D01*
Y135996D02*
X1052750D01*
Y133996D02*
X947248D01*
Y131996D02*
X1052750D01*
Y129996D02*
X947248D01*
Y127996D02*
X1052750D01*
X1071250D02*
X1198000D01*
Y129996D02*
X1071250D01*
Y131996D02*
X1198000D01*
Y133996D02*
X1071250D01*
Y135996D02*
X1198000D01*
Y137996D02*
X1071250D01*
Y139996D02*
X1198000D01*
Y141996D02*
X1071250D01*
Y143996D02*
X1198000D01*
Y145996D02*
X1071250D01*
Y147996D02*
X1198000D01*
Y149996D02*
X1071250D01*
Y151996D02*
X1198000D01*
Y153996D02*
X1071250D01*
Y155996D02*
X1198000D01*
Y157996D02*
X1071250D01*
Y159996D02*
X1198000D01*
Y161996D02*
X1071250D01*
Y163996D02*
X1198000D01*
Y165996D02*
X1071250D01*
Y167996D02*
X1198000D01*
Y169996D02*
X1071250D01*
Y171996D02*
X1198000D01*
Y173996D02*
X1071250D01*
Y175996D02*
X1198000D01*
Y177996D02*
X1071250D01*
Y179996D02*
X1198000D01*
Y181996D02*
X1071250D01*
Y183996D02*
X1198000D01*
Y185996D02*
X1071250D01*
X1052750Y177996D02*
X925647D01*
X924995Y178340D02*
Y314500D01*
X922995D02*
Y179029D01*
X920995Y179246D02*
Y314500D01*
X918995D02*
Y179246D01*
X926995Y177043D02*
Y314674D01*
X928995Y315216D02*
Y175086D01*
X928085Y175996D02*
X1052750D01*
Y173996D02*
X930085D01*
X930995Y173086D02*
Y316186D01*
X930671Y315996D02*
X1198000D01*
Y317996D02*
X933257D01*
X932995Y317734D02*
Y171086D01*
X932085Y171996D02*
X1052750D01*
Y169996D02*
X934085D01*
X934995Y169086D02*
Y320312D01*
X934808Y319996D02*
X1198000D01*
Y321996D02*
X935780D01*
X936324Y323996D02*
X1198000D01*
Y325996D02*
X936500D01*
X936326Y327996D02*
X1198000D01*
Y329996D02*
X935783D01*
X934995Y331688D02*
Y442435D01*
X936995D02*
Y167086D01*
X936085Y167996D02*
X1052750D01*
Y165996D02*
X938085D01*
X938995Y165086D02*
Y442435D01*
X940995D02*
Y163086D01*
X940085Y163996D02*
X1052750D01*
Y161996D02*
X942085D01*
X942995Y161086D02*
Y442435D01*
X944995D02*
Y159052D01*
X945783Y157996D02*
X1052750D01*
Y159996D02*
X944085D01*
X927922Y149996D02*
X867260D01*
X866995Y149732D02*
Y136487D01*
X867485Y135996D02*
X928748D01*
Y137996D02*
X865451D01*
X864995Y138366D02*
Y147732D01*
X865260Y147996D02*
X928748D01*
Y145996D02*
X863260D01*
X862995Y145731D02*
Y139523D01*
X861552Y139996D02*
X928748D01*
Y141996D02*
X859260D01*
X858995Y141732D02*
Y140250D01*
X860995Y140112D02*
Y143731D01*
X861260Y143996D02*
X928748D01*
X926995Y150923D02*
Y110650D01*
X924995D02*
Y152923D01*
X925922Y151996D02*
X869260D01*
X868995Y151731D02*
Y134487D01*
X869485Y133996D02*
X928748D01*
Y131996D02*
X871485D01*
X870995Y132487D02*
Y153731D01*
X871260Y153996D02*
X923922D01*
X922995Y154923D02*
Y110650D01*
X920995D02*
Y156923D01*
X921922Y155996D02*
X873258D01*
X872995Y155731D02*
Y130487D01*
X873485Y129996D02*
X928748D01*
Y127996D02*
X875485D01*
X874995Y128487D02*
Y158314D01*
X874807Y157996D02*
X919922D01*
X918995Y158923D02*
Y110650D01*
Y92150D02*
Y2000D01*
X920995D02*
Y92150D01*
X922995D02*
Y2000D01*
X924995D02*
Y92150D01*
X926995D02*
Y2000D01*
X928995D02*
Y92150D01*
X930995D02*
Y2000D01*
X932995D02*
Y92150D01*
X934995D02*
Y2000D01*
X936995D02*
Y92150D01*
X938995D02*
Y2000D01*
X940995D02*
Y92150D01*
X942995D02*
Y2000D01*
X944995D02*
Y92150D01*
X946995D02*
Y2000D01*
X948995D02*
Y92150D01*
X950995D02*
Y2000D01*
X952995D02*
Y92150D01*
X954995D02*
Y2000D01*
X956995D02*
Y92150D01*
X958995D02*
Y2000D01*
X960995D02*
Y92150D01*
X962995D02*
Y2000D01*
X964995D02*
Y92150D01*
X966995D02*
Y2000D01*
X968995D02*
Y92150D01*
X970995D02*
Y2000D01*
X972995D02*
Y92150D01*
X974995D02*
Y2000D01*
X976995D02*
Y92150D01*
X978995D02*
Y2000D01*
X980995D02*
Y92150D01*
X982995D02*
Y2000D01*
X984995D02*
Y92150D01*
X986995D02*
Y2000D01*
X988995D02*
Y92150D01*
X990995D02*
Y2000D01*
X992995D02*
Y92150D01*
X994995D02*
Y2000D01*
X996995D02*
Y92150D01*
X998995D02*
Y2000D01*
X1000995D02*
Y92150D01*
X1002995D02*
Y2000D01*
X1004995D02*
Y92150D01*
X1006995D02*
Y2000D01*
X1008995D02*
Y92150D01*
X1010995D02*
Y2000D01*
X1012995D02*
Y92150D01*
X1014995D02*
Y2000D01*
X1016995D02*
Y92150D01*
X1018995D02*
Y2000D01*
X1020995D02*
Y92150D01*
X1022995D02*
Y2000D01*
X1024995D02*
Y92150D01*
X1026995D02*
Y2000D01*
X1028995D02*
Y92150D01*
X1030995D02*
Y2000D01*
X1032995D02*
Y92150D01*
X1034995D02*
Y2000D01*
X1036995D02*
Y92150D01*
X1038995D02*
Y2000D01*
X1040995D02*
Y92150D01*
X1042995D02*
Y2000D01*
X1044995D02*
Y92150D01*
X1046995D02*
Y2000D01*
X1048995D02*
Y92169D01*
X1048400Y92150D02*
G03*
X1054949Y94867I0J9250D01*
G01*
X1054995Y94913D02*
Y2000D01*
X1052995D02*
Y93372D01*
X1053945Y93996D02*
X1198000D01*
Y95996D02*
X1056078D01*
X1056994Y96913D02*
Y2000D01*
X1058995D02*
Y98913D01*
X1058078Y97996D02*
X1198000D01*
Y99996D02*
X1060078D01*
X1060994Y100913D02*
Y2000D01*
X1062995D02*
Y102913D01*
X1062078Y101996D02*
X1198000D01*
Y103996D02*
X1064078D01*
X1064995Y104913D02*
Y2000D01*
X1066994D02*
Y106913D01*
X1066078Y105996D02*
X1198000D01*
Y107996D02*
X1068078D01*
X1068541Y108459D02*
G03*
X1071250Y115000I-6541J6541D01*
G01*
Y115996D02*
X1198000D01*
Y113996D02*
X1071195D01*
X1070994Y112841D02*
Y2000D01*
X1068995D02*
Y108947D01*
X1069780Y109996D02*
X1198000D01*
Y111996D02*
X1070749D01*
X1071250Y117996D02*
X1198000D01*
Y119996D02*
X1071250D01*
Y121996D02*
X1198000D01*
Y123996D02*
X1071250D01*
Y125996D02*
X1198000D01*
Y87996D02*
X194792D01*
X194996Y44132D02*
Y2000D01*
X192996D02*
Y45715D01*
X193106Y45606D02*
G03*
X200000Y42750I6894J6894D01*
G01*
X200996D02*
Y2000D01*
X202996D02*
Y42750D01*
X204996D02*
Y2000D01*
X206996D02*
Y42750D01*
X208996D02*
Y2000D01*
X210996D02*
Y42750D01*
X212996D02*
Y2000D01*
X214996D02*
Y42750D01*
X216996D02*
Y2000D01*
X218996D02*
Y42750D01*
X220996D02*
Y2000D01*
X222996D02*
Y42750D01*
X224996D02*
Y2000D01*
X226996D02*
Y42750D01*
X228996D02*
Y2000D01*
X230996D02*
Y42750D01*
X232996D02*
Y2000D01*
X234996D02*
Y42750D01*
X236996D02*
Y2000D01*
X238996D02*
Y42750D01*
X240996D02*
Y2000D01*
X242996D02*
Y42750D01*
X244996D02*
Y2000D01*
X246996D02*
Y42750D01*
X248996D02*
Y2000D01*
X250996D02*
Y42750D01*
X252996D02*
Y2000D01*
X254996D02*
Y42750D01*
X198996Y42802D02*
Y2000D01*
X196996D02*
Y43224D01*
X256996Y2000D02*
Y42750D01*
X258996D02*
Y2000D01*
X260996D02*
Y42750D01*
X262996D02*
Y2000D01*
X264996D02*
Y42750D01*
X266996D02*
Y2000D01*
X268996D02*
Y42750D01*
X270996D02*
Y2000D01*
X272996D02*
Y42750D01*
X274996D02*
Y2000D01*
X276996D02*
Y42750D01*
X278996D02*
Y2000D01*
X280996D02*
Y42750D01*
X282996D02*
Y2000D01*
X284996D02*
Y42750D01*
X286996D02*
Y2000D01*
X288996D02*
Y42750D01*
X290996D02*
Y2000D01*
X292996D02*
Y42750D01*
X294996D02*
Y2000D01*
X296996D02*
Y42750D01*
X298996D02*
Y2000D01*
X300996D02*
Y42750D01*
X302996D02*
Y2000D01*
X304996D02*
Y42750D01*
X306996D02*
Y2000D01*
X308996D02*
Y42750D01*
X310996D02*
Y2000D01*
X312996D02*
Y42750D01*
X314996D02*
Y2000D01*
X316996D02*
Y42750D01*
X318996D02*
Y2000D01*
X320996D02*
Y42750D01*
X322996D02*
Y2000D01*
X324996D02*
Y42750D01*
X326996D02*
Y2000D01*
X328996D02*
Y42750D01*
X330996D02*
Y2000D01*
X332996D02*
Y42750D01*
X334996D02*
Y2000D01*
X336996D02*
Y42750D01*
X338996D02*
Y2000D01*
X340996D02*
Y42750D01*
X342996D02*
Y2000D01*
X344996D02*
Y42750D01*
X346996D02*
Y2000D01*
X348996D02*
Y42750D01*
X350996D02*
Y2000D01*
X352996D02*
Y42750D01*
X354996D02*
Y2000D01*
X356996D02*
Y42750D01*
X358996D02*
Y2000D01*
X360996D02*
Y42750D01*
X362996D02*
Y2000D01*
X364996D02*
Y42750D01*
X366996D02*
Y2000D01*
X368996D02*
Y42750D01*
X370996D02*
Y2000D01*
X372996D02*
Y42750D01*
X374996D02*
Y2000D01*
X376996D02*
Y42750D01*
X378996D02*
Y2000D01*
X380996D02*
Y42750D01*
X382996D02*
Y2000D01*
X384996D02*
Y42750D01*
X386996D02*
Y2000D01*
X388996D02*
Y42750D01*
X390996D02*
Y2000D01*
X392996D02*
Y42750D01*
X394996D02*
Y2000D01*
X396996D02*
Y42750D01*
X398996D02*
Y2000D01*
X400996D02*
Y42750D01*
X402996D02*
Y2000D01*
X404996D02*
Y42750D01*
X406996D02*
Y2000D01*
X408996D02*
Y42750D01*
X410996D02*
Y2000D01*
X412996D02*
Y42750D01*
X414996D02*
Y2000D01*
X416996D02*
Y42750D01*
X418996D02*
Y2000D01*
X420996D02*
Y42750D01*
X422996D02*
Y2000D01*
X424996D02*
Y42750D01*
X426996D02*
Y2000D01*
X428996D02*
Y42750D01*
X430996D02*
Y2000D01*
X432996D02*
Y42750D01*
X434996D02*
Y2000D01*
X436996D02*
Y42750D01*
X438996D02*
Y2000D01*
X440996D02*
Y42750D01*
X442996D02*
Y2000D01*
X444996D02*
Y42750D01*
X446996D02*
Y2000D01*
X448996D02*
Y42750D01*
X450996D02*
Y2000D01*
X452996D02*
Y42750D01*
X454996D02*
Y2000D01*
X456996D02*
Y42750D01*
X458996D02*
Y2000D01*
X460996D02*
Y42750D01*
X462996D02*
Y2000D01*
X464996D02*
Y42750D01*
X466996D02*
Y2000D01*
X468996D02*
Y42750D01*
X470996D02*
Y2000D01*
X472996D02*
Y42750D01*
X474996D02*
Y2000D01*
X476996D02*
Y42750D01*
X478996D02*
Y2000D01*
X480996D02*
Y42750D01*
X482996D02*
Y2000D01*
X484996D02*
Y42750D01*
X486996D02*
Y2000D01*
X488996D02*
Y42750D01*
X490996D02*
Y2000D01*
X492996D02*
Y42750D01*
X494996D02*
Y2000D01*
X496996D02*
Y42750D01*
Y72000D02*
Y91102D01*
X494996D02*
Y72000D01*
X492996D02*
Y91102D01*
X490996D02*
Y72000D01*
X488996D02*
Y91102D01*
X486996D02*
Y72000D01*
X484996D02*
Y91102D01*
X482996D02*
Y72000D01*
X480996D02*
Y91102D01*
X478996D02*
Y72000D01*
X476996D02*
Y91102D01*
X474996D02*
Y72000D01*
X472996D02*
Y91102D01*
X470996D02*
Y72000D01*
X468996D02*
Y91102D01*
X466996D02*
Y72000D01*
X464996D02*
Y91102D01*
X462996D02*
Y72000D01*
X460996D02*
Y91102D01*
X458996D02*
Y72000D01*
X456996D02*
Y91102D01*
X454996D02*
Y72000D01*
X452996D02*
Y91102D01*
X450996D02*
Y72000D01*
X448996D02*
Y91102D01*
X446996D02*
Y72000D01*
X444996D02*
Y91102D01*
X442996D02*
Y72000D01*
X440996D02*
Y91102D01*
X438996D02*
Y72000D01*
X436996D02*
Y91102D01*
X448996Y114102D02*
Y152969D01*
X450996Y152232D02*
Y114102D01*
X452996D02*
Y152000D01*
X454996Y152230D02*
Y114102D01*
X456996D02*
Y152966D01*
X462996Y114102D02*
Y258779D01*
X461749Y257996D02*
X508250D01*
Y255996D02*
X461749D01*
Y253996D02*
X508250D01*
Y251996D02*
X461749D01*
Y249996D02*
X508250D01*
Y247996D02*
X461749D01*
X464996Y259816D02*
Y114102D01*
X466996D02*
Y261744D01*
X467178Y261996D02*
X508250D01*
Y263996D02*
X468218D01*
X468996Y264480D02*
Y114102D01*
X470996D02*
Y265215D01*
X472244Y265996D02*
X508250D01*
Y267996D02*
X474177D01*
X474996Y269447D02*
Y114102D01*
X472996D02*
Y266627D01*
X475217Y269996D02*
X508250D01*
Y271996D02*
X477535D01*
X476996Y271779D02*
Y114102D01*
X478996D02*
Y272816D01*
X480364Y273996D02*
X508250D01*
Y275996D02*
X481779D01*
X480996Y274745D02*
Y114102D01*
X482996D02*
Y277480D01*
X484535Y277996D02*
X508250D01*
Y279996D02*
X487365D01*
X486996Y279627D02*
Y114102D01*
X484996D02*
Y278216D01*
X488779Y281996D02*
X508250D01*
Y283996D02*
X489516D01*
X488996Y282447D02*
Y114102D01*
X490996D02*
Y284779D01*
X492996Y285816D02*
Y114102D01*
X494996D02*
Y287745D01*
X495177Y287996D02*
X508250D01*
Y289996D02*
X496217D01*
X496996Y291480D02*
Y114102D01*
X434996Y91102D02*
Y72000D01*
X432996D02*
Y91102D01*
X430996D02*
Y72000D01*
X428996D02*
Y91102D01*
X426996D02*
Y72000D01*
X424996D02*
Y91102D01*
X422996D02*
Y72000D01*
X420996D02*
Y91102D01*
X418996D02*
Y72000D01*
X416996D02*
Y91102D01*
X414996D02*
Y72000D01*
X412996D02*
Y91102D01*
X410996D02*
Y72000D01*
X408996D02*
Y91102D01*
X406996D02*
Y72000D01*
X404996D02*
Y91102D01*
X402996D02*
Y72000D01*
X400996D02*
Y91102D01*
X398996D02*
Y72000D01*
X396996D02*
Y91102D01*
X394996D02*
Y72000D01*
X392996D02*
Y91102D01*
X390996D02*
Y72000D01*
X388996D02*
Y91102D01*
X386996D02*
Y72000D01*
X384996D02*
Y91102D01*
X382996D02*
Y72000D01*
X380996D02*
Y91102D01*
X378996D02*
Y72000D01*
X376996D02*
Y91102D01*
Y114102D02*
Y247745D01*
X377178Y247996D02*
X393250D01*
Y249996D02*
X383245D01*
X382996Y249816D02*
Y114102D01*
X380996D02*
Y248779D01*
X378996Y248307D02*
Y114102D01*
X384996D02*
Y251744D01*
X385178Y251996D02*
X393250D01*
Y253996D02*
X388535D01*
X388996Y254216D02*
Y114102D01*
X386996D02*
Y253481D01*
X401500Y289620D02*
Y369578D01*
X412765Y358313D01*
D02*
G03*
X418952Y355750I6187J6187D01*
G01*
X437250D01*
Y338000D01*
D02*
G03*
X423250Y331000I-5250J-7000D01*
G01*
Y313000D01*
D02*
G03*
X409250Y306000I-5250J-7000D01*
G01*
Y287123D01*
D02*
G03*
X401500Y289620I-6250J-6124D01*
G01*
Y289996D02*
X409250D01*
Y291996D02*
X401500D01*
Y293996D02*
X409250D01*
Y295996D02*
X401500D01*
Y297996D02*
X409250D01*
Y299996D02*
X401500D01*
Y301996D02*
X409250D01*
Y303996D02*
X401500D01*
Y305996D02*
X409250D01*
Y287996D02*
X408255D01*
X408996Y287373D02*
Y362082D01*
X409082Y361996D02*
X401500D01*
Y363996D02*
X407082D01*
X406996Y364082D02*
Y288784D01*
X404996Y289519D02*
Y366082D01*
X405083Y365996D02*
X401500D01*
Y367996D02*
X403083D01*
X401500Y359996D02*
X411082D01*
X410996Y360082D02*
Y311244D01*
X411628Y311996D02*
X401500D01*
Y309996D02*
X410216D01*
X409481Y307996D02*
X401500D01*
Y313996D02*
X414447D01*
X414996Y314218D02*
Y356696D01*
X416894Y355996D02*
X401500D01*
Y357996D02*
X413100D01*
X412996Y358091D02*
Y313177D01*
X416996Y314692D02*
Y355972D01*
X412765Y358313D02*
G03*
X418952Y355750I6187J6187D01*
G01*
X418996D02*
Y314693D01*
X420996Y314221D02*
Y355750D01*
X422996D02*
Y313183D01*
X423250Y313996D02*
X421553D01*
X423250Y315996D02*
X401500D01*
Y317996D02*
X423250D01*
Y319996D02*
X401500D01*
Y321996D02*
X423250D01*
Y323996D02*
X401500D01*
Y325996D02*
X423250D01*
Y327996D02*
X401500D01*
Y329996D02*
X423250D01*
X423307Y331996D02*
X401500D01*
Y333996D02*
X423779D01*
X424817Y335996D02*
X401500D01*
Y337996D02*
X426745D01*
X426996Y338177D02*
Y355750D01*
X424996D02*
Y336244D01*
X428996Y339218D02*
Y355750D01*
X430996D02*
Y339692D01*
X432996Y339693D02*
Y355750D01*
X434996D02*
Y339221D01*
X401500Y339996D02*
X437250D01*
Y341996D02*
X401500D01*
Y343996D02*
X437250D01*
Y345996D02*
X401500D01*
Y347996D02*
X437250D01*
Y349996D02*
X401500D01*
Y351996D02*
X437250D01*
Y353996D02*
X401500D01*
X402996Y289750D02*
Y368082D01*
X422996Y427985D02*
Y442435D01*
X424996D02*
Y425985D01*
X424985Y425995D02*
X1198000D01*
Y427995D02*
X422985D01*
X426985Y423996D02*
X1198000D01*
Y421996D02*
X428985D01*
X428996Y421985D02*
Y442435D01*
X426996D02*
Y423985D01*
X430985Y419996D02*
X1198000D01*
Y417996D02*
X432985D01*
X432996Y417985D02*
Y442435D01*
X430996D02*
Y419985D01*
X434985Y415996D02*
X1198000D01*
Y413996D02*
X436985D01*
X436996Y413985D02*
Y442435D01*
X438996D02*
Y412250D01*
X440996D02*
Y442435D01*
X442996D02*
Y412250D01*
X444996D02*
Y442435D01*
X446996D02*
Y412250D01*
X448996D02*
Y442435D01*
X450996D02*
Y412250D01*
X452996D02*
Y442435D01*
X454996D02*
Y412250D01*
X456996D02*
Y442435D01*
X458996D02*
Y412250D01*
X460996D02*
Y442435D01*
X462996D02*
Y412250D01*
X464996D02*
Y442435D01*
X466996D02*
Y412250D01*
X468996D02*
Y442435D01*
X470996D02*
Y412250D01*
X472996D02*
Y442435D01*
X474996D02*
Y412250D01*
X476996D02*
Y442435D01*
X478996D02*
Y412250D01*
X480996D02*
Y442435D01*
X482996D02*
Y412250D01*
X484996D02*
Y442435D01*
X486996D02*
Y412250D01*
X488996D02*
Y442435D01*
X490996D02*
Y412250D01*
X492996D02*
Y442435D01*
X494996D02*
Y412250D01*
X496996D02*
Y442435D01*
Y386750D02*
Y371379D01*
X496379Y371996D02*
X581421D01*
X580995Y372421D02*
Y114102D01*
X582995D02*
Y370421D01*
X583421Y369996D02*
X498379D01*
X498996Y369379D02*
Y386750D01*
X500996D02*
Y367379D01*
X500379Y367996D02*
X585421D01*
X586996Y366421D02*
Y114102D01*
X584995D02*
Y368421D01*
X579421Y373996D02*
X494379D01*
X494996Y373379D02*
Y386750D01*
X492996D02*
Y375379D01*
X492379Y375996D02*
X577421D01*
X576996Y376421D02*
Y114102D01*
X574995D02*
Y378421D01*
X575421Y377996D02*
X490379D01*
X490996Y377379D02*
Y386750D01*
X488996D02*
Y379379D01*
X488379Y379996D02*
X573421D01*
X572995Y380421D02*
Y114102D01*
X570995D02*
Y382421D01*
X571421Y381996D02*
X486379D01*
X486996Y381379D02*
Y386750D01*
X484996D02*
Y383379D01*
X484379Y383996D02*
X569421D01*
X568996Y384421D02*
Y114102D01*
X566996D02*
Y386421D01*
X567421Y385996D02*
X482379D01*
X482996Y385379D02*
Y386750D01*
X436996Y355750D02*
Y338184D01*
X465244Y259996D02*
X508250D01*
Y285996D02*
X493244D01*
X461749Y245996D02*
X508250D01*
Y243996D02*
X461749D01*
Y241996D02*
X508250D01*
Y239996D02*
X461749D01*
Y237996D02*
X508250D01*
Y235996D02*
X461749D01*
Y233996D02*
X508250D01*
Y231996D02*
X461749D01*
Y229996D02*
X508250D01*
Y227996D02*
X461749D01*
Y225996D02*
X508250D01*
Y223996D02*
X461749D01*
Y221996D02*
X508250D01*
Y219996D02*
X461749D01*
Y217996D02*
X508250D01*
Y215996D02*
X461749D01*
Y213996D02*
X508250D01*
Y211996D02*
X461749D01*
Y209996D02*
X508250D01*
Y207996D02*
X461749D01*
Y205996D02*
X508250D01*
Y203996D02*
X461749D01*
Y201996D02*
X508250D01*
Y199996D02*
X461749D01*
Y197996D02*
X508250D01*
Y195996D02*
X461749D01*
Y193996D02*
X508250D01*
Y191996D02*
X461749D01*
Y189996D02*
X508250D01*
Y187996D02*
X461749D01*
X554750D02*
X853497D01*
Y189996D02*
X554750D01*
Y191996D02*
X853497D01*
Y193996D02*
X554750D01*
Y195996D02*
X853497D01*
Y197996D02*
X554750D01*
Y199996D02*
X853497D01*
Y201996D02*
X554750D01*
Y203996D02*
X853497D01*
Y205996D02*
X554750D01*
Y207996D02*
X853497D01*
Y209996D02*
X554750D01*
Y211996D02*
X853497D01*
Y213996D02*
X554750D01*
Y215996D02*
X853497D01*
Y217996D02*
X554750D01*
Y219996D02*
X853497D01*
Y221996D02*
X554750D01*
Y223996D02*
X853497D01*
Y225996D02*
X554750D01*
Y227996D02*
X853497D01*
Y229996D02*
X554750D01*
Y231996D02*
X853497D01*
Y233996D02*
X554750D01*
Y235996D02*
X853497D01*
Y237996D02*
X554750D01*
Y239996D02*
X853497D01*
Y241996D02*
X554750D01*
Y243996D02*
X853497D01*
Y245996D02*
X554750D01*
Y247996D02*
X853497D01*
Y249996D02*
X554750D01*
Y251996D02*
X853497D01*
Y253996D02*
X554750D01*
Y255996D02*
X853497D01*
Y257996D02*
X554750D01*
Y259996D02*
X853497D01*
Y261996D02*
X554750D01*
Y263996D02*
X853497D01*
Y265996D02*
X554750D01*
Y267996D02*
X853497D01*
Y269996D02*
X554750D01*
Y271996D02*
X853497D01*
Y273996D02*
X554750D01*
Y275996D02*
X853497D01*
Y277996D02*
X554750D01*
Y279996D02*
X853497D01*
Y281996D02*
X554750D01*
Y283996D02*
X853497D01*
Y285996D02*
X554750D01*
Y287996D02*
X853497D01*
Y289996D02*
X554750D01*
Y291996D02*
X853497D01*
Y293996D02*
X554750D01*
Y295996D02*
X853497D01*
Y297996D02*
X554750D01*
Y299996D02*
X853497D01*
Y301996D02*
X554750D01*
Y303996D02*
X853497D01*
Y305996D02*
X554750D01*
X509216D02*
X503749D01*
Y303996D02*
X508481D01*
X508996Y305534D02*
Y386750D01*
X510996D02*
Y308365D01*
X510627Y307996D02*
X503749D01*
Y337996D02*
X1198000D01*
Y339996D02*
X503749D01*
Y341996D02*
X1198000D01*
Y343996D02*
X503749D01*
Y345996D02*
X1198000D01*
Y347996D02*
X503749D01*
Y349996D02*
X1198000D01*
Y351996D02*
X503749D01*
Y353996D02*
X1198000D01*
Y355996D02*
X503749D01*
Y357996D02*
X1198000D01*
Y359996D02*
X503749D01*
X503692Y361996D02*
X1198000D01*
Y363996D02*
X658406D01*
X658995Y364458D02*
Y114102D01*
X656995D02*
Y363158D01*
X654995Y362468D02*
Y114102D01*
X652995D02*
Y362250D01*
X650995Y362470D02*
Y114102D01*
X648995D02*
Y363161D01*
X647590Y363996D02*
X600406D01*
X600995Y364458D02*
Y114102D01*
X598995D02*
Y363158D01*
X596996Y362468D02*
Y114102D01*
X594995D02*
Y362250D01*
X592995Y362470D02*
Y114102D01*
X590995D02*
Y363161D01*
X589590Y363996D02*
X503221D01*
X502996Y364553D02*
Y386750D01*
Y412250D02*
Y442435D01*
X500996D02*
Y412250D01*
X498996D02*
Y442435D01*
X504996D02*
Y412250D01*
X506996D02*
Y442435D01*
X508996D02*
Y412250D01*
X510996D02*
Y442435D01*
X512996D02*
Y412250D01*
X514996D02*
Y442435D01*
X516996D02*
Y412250D01*
X518996D02*
Y442435D01*
X520996D02*
Y412250D01*
X522996D02*
Y442435D01*
X524996D02*
Y412250D01*
X526996D02*
Y442435D01*
X528996D02*
Y412250D01*
X530996D02*
Y442435D01*
X532996D02*
Y412250D01*
X534996D02*
Y442435D01*
X536996D02*
Y412250D01*
X538996D02*
Y442435D01*
X540996D02*
Y412250D01*
X542996D02*
Y442435D01*
X544996D02*
Y412250D01*
X546996D02*
Y442435D01*
X548996D02*
Y412250D01*
X550995D02*
Y442435D01*
X552995D02*
Y412250D01*
X554995D02*
Y442435D01*
X556996D02*
Y412250D01*
X548996Y386750D02*
Y335220D01*
X546996Y335692D02*
Y386750D01*
X544996D02*
Y335692D01*
X542996Y335218D02*
Y386750D01*
X540996D02*
Y334178D01*
X502183Y365996D02*
X587421D01*
X588996Y364462D02*
Y114102D01*
X578996D02*
Y374421D01*
X564995Y386750D02*
Y114102D01*
X562995D02*
Y386750D01*
X560995D02*
Y114102D01*
X558996D02*
Y386750D01*
Y412250D02*
Y442435D01*
X560995D02*
Y412250D01*
X562995D02*
Y442435D01*
X564995D02*
Y412250D01*
X566996D02*
Y442435D01*
X568996D02*
Y412250D01*
X570995D02*
Y442435D01*
X572995D02*
Y412250D01*
X574995Y412111D02*
Y442435D01*
X576996D02*
Y411522D01*
X575552Y411996D02*
X1198000D01*
Y409996D02*
X579450D01*
X578996Y410364D02*
Y442435D01*
X580995D02*
Y408484D01*
X581484Y407996D02*
X1198000D01*
Y405996D02*
X583484D01*
X582995Y406484D02*
Y442435D01*
X584995D02*
Y404484D01*
X585484Y403996D02*
X1198000D01*
Y401996D02*
X587484D01*
X586996Y402484D02*
Y442435D01*
X588996D02*
Y400484D01*
X589484Y399996D02*
X1198000D01*
Y397996D02*
X591484D01*
X590995Y398484D02*
Y442435D01*
X592995D02*
Y396484D01*
X593484Y395996D02*
X1198000D01*
Y393996D02*
X595484D01*
X594995Y394484D02*
Y442435D01*
X596996D02*
Y392484D01*
X597484Y391996D02*
X1198000D01*
Y389996D02*
X599484D01*
X598995Y390484D02*
Y442435D01*
X600995D02*
Y389000D01*
X602995D02*
Y442435D01*
X604995D02*
Y389000D01*
X606995D02*
Y442435D01*
X608995D02*
Y389000D01*
X610995D02*
Y442435D01*
X612995D02*
Y389000D01*
X614995D02*
Y442435D01*
X616995D02*
Y389000D01*
Y370500D02*
Y114102D01*
X614995D02*
Y370500D01*
X612995D02*
Y114102D01*
X610995D02*
Y370500D01*
X608995D02*
Y114102D01*
X606995D02*
Y370500D01*
X604995D02*
Y114102D01*
X602995D02*
Y366852D01*
X602432Y365996D02*
X645421D01*
X644995Y366422D02*
Y114102D01*
X642995D02*
Y368422D01*
X641421Y369996D02*
X604125D01*
X603559Y367996D02*
X643421D01*
X646995Y364463D02*
Y114102D01*
X640995D02*
Y370422D01*
X638995Y370500D02*
Y114102D01*
X636995D02*
Y370500D01*
X634995D02*
Y114102D01*
X632995D02*
Y370500D01*
X630995D02*
Y114102D01*
X628995D02*
Y370500D01*
X626995D02*
Y114102D01*
X624995D02*
Y370500D01*
X622995D02*
Y114102D01*
X620995D02*
Y370500D01*
X618995D02*
Y114102D01*
Y91102D02*
Y72000D01*
X620995D02*
Y91102D01*
X622995D02*
Y72000D01*
X624995D02*
Y91102D01*
X626995D02*
Y72000D01*
X628995D02*
Y91102D01*
X630995D02*
Y72000D01*
X632995D02*
Y91102D01*
X634995D02*
Y72000D01*
X636995D02*
Y91102D01*
X638995D02*
Y72000D01*
X640995D02*
Y91102D01*
X642995D02*
Y72000D01*
X644995D02*
Y91102D01*
X646995D02*
Y72000D01*
X648995D02*
Y91102D01*
X650995D02*
Y72000D01*
X652995D02*
Y91102D01*
X654995D02*
Y72000D01*
X656995D02*
Y91102D01*
X658995D02*
Y72000D01*
X660995D02*
Y91102D01*
X662995D02*
Y72000D01*
X664995D02*
Y91102D01*
X666995D02*
Y72000D01*
X668995D02*
Y91102D01*
X670995D02*
Y72000D01*
X672995D02*
Y91102D01*
X674995D02*
Y72000D01*
X676995D02*
Y91102D01*
Y114102D02*
Y442435D01*
X674995D02*
Y114102D01*
X672995D02*
Y442435D01*
X670995D02*
Y114102D01*
X668995D02*
Y442435D01*
X666995D02*
Y114102D01*
X664995D02*
Y442435D01*
X662995D02*
Y114102D01*
X660995D02*
Y366852D01*
X660432Y365996D02*
X1198000D01*
Y367996D02*
X661559D01*
X697000Y379000D02*
X704000Y372000D01*
X766000D01*
X744000Y394000D01*
X697000D01*
X738995Y442435D02*
Y114102D01*
X740995D02*
Y442435D01*
X742995D02*
Y114102D01*
X744995D02*
Y442435D01*
X746995D02*
Y114102D01*
X748995D02*
Y442435D01*
X750995D02*
Y114102D01*
X752995D02*
Y442435D01*
X754995D02*
Y114102D01*
X756995D02*
Y442435D01*
X758995D02*
Y114102D01*
X760995D02*
Y442435D01*
X762995D02*
Y114102D01*
X764995D02*
Y442435D01*
X766995D02*
Y114102D01*
X768995D02*
Y442435D01*
X770995D02*
Y114102D01*
X772995D02*
Y442435D01*
X774995D02*
Y114102D01*
X776995D02*
Y442435D01*
X778995D02*
Y114102D01*
X780995D02*
Y442435D01*
X736995D02*
Y114102D01*
X734995D02*
Y442435D01*
X732995D02*
Y114102D01*
X730995D02*
Y442435D01*
X728995D02*
Y114102D01*
X726995D02*
Y442435D01*
X724995D02*
Y114102D01*
X722995D02*
Y442435D01*
X720995D02*
Y114102D01*
X718995D02*
Y442435D01*
X716995D02*
Y114102D01*
X714995D02*
Y442435D01*
X712995D02*
Y114102D01*
X710995D02*
Y442435D01*
X708995D02*
Y114102D01*
X706995D02*
Y442435D01*
X704995D02*
Y114102D01*
X702995D02*
Y442435D01*
X700995D02*
Y114102D01*
X698995D02*
Y442435D01*
X696995D02*
Y114102D01*
X694995D02*
Y442435D01*
X692995D02*
Y114102D01*
X690995D02*
Y442435D01*
X688995D02*
Y114102D01*
X686995D02*
Y442435D01*
X684995D02*
Y114102D01*
X682995D02*
Y442435D01*
X680995D02*
Y114102D01*
X678995D02*
Y442435D01*
X660995D02*
Y376149D01*
X661082Y375996D02*
X1198000D01*
Y377996D02*
X659584D01*
X658995Y378585D02*
Y442435D01*
X656995D02*
Y380584D01*
X657584Y379996D02*
X1198000D01*
Y381996D02*
X655584D01*
X654995Y382584D02*
Y442435D01*
X652995D02*
Y384585D01*
X653584Y383996D02*
X1198000D01*
Y385996D02*
X651584D01*
X650995Y386572D02*
Y442435D01*
X648995D02*
Y387967D01*
X648940Y387996D02*
X1198000D01*
Y373996D02*
X661905D01*
X662235Y371996D02*
X1198000D01*
Y369996D02*
X662125D01*
X646995Y388723D02*
Y442435D01*
X644995D02*
Y388997D01*
X642995Y389000D02*
Y442435D01*
X640995D02*
Y389000D01*
X638995D02*
Y442435D01*
X636995D02*
Y389000D01*
X634995D02*
Y442435D01*
X632995D02*
Y389000D01*
X630995D02*
Y442435D01*
X628995D02*
Y389000D01*
X626995D02*
Y442435D01*
X624995D02*
Y389000D01*
X622995D02*
Y442435D01*
X620995D02*
Y389000D01*
X618995D02*
Y442435D01*
X508250Y295996D02*
X502779D01*
X434996Y415985D02*
Y442435D01*
X416996D02*
Y433985D01*
X316996Y429630D02*
Y424536D01*
X316249Y305996D02*
X231397D01*
Y303996D02*
X316249D01*
Y301996D02*
X231397D01*
Y299996D02*
X316249D01*
Y297996D02*
X231397D01*
Y295996D02*
X316249D01*
Y293996D02*
X231397D01*
Y291996D02*
X316249D01*
Y289996D02*
X231397D01*
Y287996D02*
X316249D01*
Y285996D02*
X231397D01*
Y283996D02*
X316249D01*
Y281996D02*
X231397D01*
Y279996D02*
X316249D01*
Y277996D02*
X231397D01*
Y275996D02*
X316249D01*
Y273996D02*
X231397D01*
Y271996D02*
X316249D01*
Y269996D02*
X231397D01*
Y267996D02*
X316249D01*
Y265996D02*
X231397D01*
Y263996D02*
X316249D01*
Y261996D02*
X231397D01*
Y259996D02*
X316249D01*
Y257996D02*
X231397D01*
Y255996D02*
X316249D01*
Y253996D02*
X231397D01*
Y251996D02*
X316249D01*
Y249996D02*
X231397D01*
Y247996D02*
X316249D01*
Y245996D02*
X231397D01*
Y243996D02*
X316249D01*
X348996Y208219D02*
Y114102D01*
X358996D02*
Y209627D01*
X314996Y91102D02*
Y72000D01*
X312996D02*
Y91102D01*
X310996D02*
Y72000D01*
X308996D02*
Y91102D01*
X306996D02*
Y72000D01*
X304996D02*
Y91102D01*
X302996D02*
Y72000D01*
X300996D02*
Y91102D01*
X298996D02*
Y72000D01*
X296996D02*
Y91102D01*
X294996D02*
Y72000D01*
X292996D02*
Y91102D01*
X290996D02*
Y72000D01*
X288996D02*
Y91102D01*
X286996D02*
Y72000D01*
X284996D02*
Y91102D01*
X282996D02*
Y72000D01*
X280996D02*
Y91102D01*
X278996D02*
Y72000D01*
X276996D02*
Y91102D01*
X274996D02*
Y72000D01*
X272996D02*
Y91102D01*
X266996Y91103D02*
Y72000D01*
X264996D02*
Y91103D01*
X262996D02*
Y72000D01*
X260996D02*
Y91103D01*
X258996D02*
Y72000D01*
X256996D02*
Y91103D01*
X316996Y91102D02*
Y72000D01*
X318996D02*
Y91102D01*
X320996D02*
Y72000D01*
X322996D02*
Y91102D01*
X324996D02*
Y72000D01*
X326996D02*
Y91102D01*
X328996D02*
Y72000D01*
X330996D02*
Y91102D01*
X332996D02*
Y72000D01*
X334996D02*
Y91102D01*
X336996D02*
Y72000D01*
X338996D02*
Y91102D01*
X340996D02*
Y72000D01*
X342996D02*
Y91102D01*
X344996D02*
Y72000D01*
X346996D02*
Y91102D01*
X348996D02*
Y72000D01*
X350996D02*
Y91102D01*
X352996D02*
Y72000D01*
X354996D02*
Y91102D01*
X356996D02*
Y72000D01*
X358996D02*
Y91102D01*
X360996D02*
Y72000D01*
X362996D02*
Y91102D01*
X364996D02*
Y72000D01*
X366996D02*
Y91102D01*
X368996D02*
Y72000D01*
X370996D02*
Y91102D01*
X372996D02*
Y72000D01*
X374996D02*
Y91102D01*
X208396Y187996D02*
X194750D01*
Y189996D02*
X208396D01*
Y191996D02*
X194750D01*
Y193996D02*
X208396D01*
Y195996D02*
X194750D01*
Y197996D02*
X208396D01*
Y199996D02*
X194750D01*
Y201996D02*
X208396D01*
Y203996D02*
X194750D01*
Y205996D02*
X208396D01*
Y207996D02*
X194750D01*
Y209996D02*
X208396D01*
Y211996D02*
X194750D01*
Y213996D02*
X208396D01*
Y215996D02*
X194750D01*
Y217996D02*
X208396D01*
Y219996D02*
X194750D01*
Y221996D02*
X208396D01*
Y223996D02*
X194750D01*
Y225996D02*
X208396D01*
Y227996D02*
X194750D01*
Y229996D02*
X208396D01*
Y231996D02*
X194750D01*
Y233996D02*
X208396D01*
Y235996D02*
X194750D01*
Y237996D02*
X208396D01*
Y239996D02*
X194750D01*
Y241996D02*
X208396D01*
Y243996D02*
X194750D01*
Y245996D02*
X208396D01*
Y185996D02*
X194750D01*
Y183996D02*
X208396D01*
Y181996D02*
X194750D01*
Y179996D02*
X208396D01*
Y177996D02*
X194750D01*
Y175996D02*
X208396D01*
Y173996D02*
X194750D01*
Y171996D02*
X208396D01*
Y169996D02*
X194750D01*
Y167996D02*
X208396D01*
Y165996D02*
X194750D01*
Y163996D02*
X208396D01*
Y161996D02*
X194750D01*
Y159996D02*
X208396D01*
Y157996D02*
X194750D01*
Y155996D02*
X208396D01*
Y153996D02*
X194750D01*
Y151996D02*
X208396D01*
Y149996D02*
X194750D01*
Y147996D02*
X208396D01*
Y145996D02*
X194750D01*
Y143996D02*
X208396D01*
Y141996D02*
X194750D01*
Y139996D02*
X208396D01*
Y137996D02*
X194750D01*
Y135996D02*
X208396D01*
Y133996D02*
X194750D01*
Y131996D02*
X208396D01*
Y129996D02*
X194750D01*
Y127996D02*
X208396D01*
X224265Y94472D02*
G03*
X232397Y91103I8132J8132D01*
G01*
X232996D02*
Y72000D01*
X230996D02*
Y91189D01*
X228996Y91618D02*
Y72000D01*
X234996D02*
Y91103D01*
X236996D02*
Y72000D01*
X238996D02*
Y91103D01*
X240996D02*
Y72000D01*
X242996D02*
Y91103D01*
X244996D02*
Y72000D01*
X246996D02*
Y91103D01*
X248996D02*
Y72000D01*
X250996D02*
Y91103D01*
X252996D02*
Y72000D01*
X254996D02*
Y91103D01*
X202996Y79792D02*
Y358240D01*
X203241Y357996D02*
X158293D01*
X158996Y357292D02*
Y467435D01*
X160996D02*
Y355292D01*
X160293Y355996D02*
X165216D01*
X164996Y355868D02*
Y467435D01*
X162996D02*
Y354283D01*
X166996Y356776D02*
Y467435D01*
X168996D02*
Y357198D01*
X170996Y357199D02*
Y467435D01*
X172996D02*
Y356778D01*
X174784Y355996D02*
X180216D01*
X180996Y356390D02*
Y467435D01*
X178996D02*
Y355182D01*
X176996Y354291D02*
Y467435D01*
X174996D02*
Y355872D01*
X182996Y357042D02*
Y467435D01*
X184996D02*
Y357250D01*
X186996Y357043D02*
Y467435D01*
X156996D02*
Y359292D01*
X156293Y359996D02*
X201241D01*
X200996Y360240D02*
Y81792D01*
X200792Y81996D02*
X1198000D01*
Y79996D02*
X202792D01*
X198996Y83792D02*
Y362258D01*
X199243Y361996D02*
X154293D01*
X154996Y361292D02*
Y467435D01*
X152996D02*
Y363292D01*
X152293Y363996D02*
X197692D01*
X196996Y365318D02*
Y85792D01*
X196792Y85996D02*
X1198000D01*
Y83996D02*
X198792D01*
X208792Y73996D02*
X1198000D01*
Y71996D02*
X1177018D01*
X1176994Y72002D02*
Y767999D01*
X1176977Y767995D02*
X1198000D01*
Y765995D02*
X753738D01*
X752995Y765722D02*
Y637565D01*
X754995D02*
Y766627D01*
X756782Y767995D02*
X1159024D01*
X1158994Y768001D02*
Y71999D01*
X1158983Y71996D02*
X715520D01*
X714995Y72000D02*
Y91102D01*
X712995D02*
Y72000D01*
X710995D02*
Y91102D01*
X708995D02*
Y72000D01*
X706995D02*
Y91102D01*
X704995D02*
Y72000D01*
X702995D02*
Y91102D01*
X700995D02*
Y72000D01*
X698995D02*
Y91102D01*
X696995D02*
Y72000D01*
X694995D02*
Y91102D01*
X692995D02*
Y72000D01*
X690995D02*
Y91102D01*
X688995D02*
Y72000D01*
X686995D02*
Y91102D01*
X684995D02*
Y72000D01*
X682995D02*
Y91102D01*
X680995D02*
Y72000D01*
X678995D02*
Y91102D01*
X716995D02*
Y71842D01*
X718995Y71252D02*
Y91102D01*
X720995D02*
Y70128D01*
X721171Y69996D02*
X1152596D01*
X1152994Y70155D02*
Y769845D01*
X1152618Y769995D02*
X758367D01*
X758995Y771238D02*
Y637565D01*
X756995D02*
Y768208D01*
X759275Y771995D02*
X1148389D01*
X1148994Y771671D02*
Y68329D01*
X1148372Y67996D02*
X723292D01*
X722995Y68293D02*
Y91102D01*
X724995D02*
Y66293D01*
X725292Y65996D02*
X1145082D01*
X1144994Y65937D02*
Y774063D01*
X1145095Y773995D02*
X759698D01*
X759699Y775995D02*
X1142375D01*
X1142994Y775508D02*
Y64492D01*
X1142364Y63996D02*
X727292D01*
X726995Y64293D02*
Y91102D01*
X728995D02*
Y62293D01*
X729292Y61996D02*
X1140050D01*
X1140994Y62849D02*
Y777151D01*
X1140060Y777995D02*
X759279D01*
X758995Y778762D02*
Y838000D01*
X760995D02*
Y637565D01*
X762995D02*
Y838000D01*
X764995D02*
Y637565D01*
X766995D02*
Y838000D01*
X768995D02*
Y637565D01*
X770995D02*
Y838000D01*
X772995D02*
Y637565D01*
X774995D02*
Y838000D01*
X776995D02*
Y637565D01*
X778995D02*
Y838000D01*
X780995D02*
Y637565D01*
X782995D02*
Y838000D01*
X784995D02*
Y637565D01*
X786995D02*
Y838000D01*
X788995D02*
Y637565D01*
X790995D02*
Y838000D01*
X792995D02*
Y637565D01*
X794995D02*
Y838000D01*
X796995D02*
Y637565D01*
X750995D02*
Y765301D01*
X748995Y765302D02*
Y637565D01*
X746995D02*
Y765725D01*
X746262Y765995D02*
X701238D01*
X700995Y765898D02*
Y637565D01*
X698995D02*
Y765365D01*
X696995Y765250D02*
Y637565D01*
X694995D02*
Y765250D01*
X692995D02*
Y637565D01*
X690995D02*
Y765250D01*
X688995D02*
Y637565D01*
X686995D02*
Y765250D01*
X684995D02*
Y637565D01*
X682995D02*
Y765250D01*
X680995D02*
Y637565D01*
X678995D02*
Y765250D01*
X702995Y766946D02*
Y637565D01*
X704995D02*
Y768764D01*
X704282Y767995D02*
X743218D01*
X742995Y768216D02*
Y637565D01*
X740995D02*
Y770216D01*
X741217Y769995D02*
X705867D01*
X706775Y771995D02*
X739217D01*
X738995Y772216D02*
Y637565D01*
X744995D02*
Y766633D01*
X758373Y779995D02*
X1138055D01*
X1138994Y779023D02*
Y60977D01*
X1138047Y59996D02*
X731292D01*
X730995Y60293D02*
Y91102D01*
X732995D02*
Y58080D01*
X733053Y57996D02*
X1136295D01*
X1136994Y58826D02*
Y781174D01*
X1136303Y781995D02*
X756794D01*
X756995Y781792D02*
Y838000D01*
X754995D02*
Y783793D01*
X754794Y783995D02*
X1134763D01*
X1134994Y783677D02*
Y56323D01*
X1134756Y55996D02*
X734102D01*
X734634Y53996D02*
X1133400D01*
X1132994Y53345D02*
Y786656D01*
X1133406Y785995D02*
X752794D01*
X752995Y785794D02*
Y838000D01*
X750995D02*
Y787793D01*
X750794Y787995D02*
X1132212D01*
X1146994Y772790D02*
Y67210D01*
X1150994Y69307D02*
Y770693D01*
X1154994Y769118D02*
Y70883D01*
X1156994Y71495D02*
Y768505D01*
X1160994Y767603D02*
Y72397D01*
X1162994Y72693D02*
Y767307D01*
X1164994Y767111D02*
Y72890D01*
X1166994Y72988D02*
Y767012D01*
X1168994Y767012D02*
Y72988D01*
X1170994Y72891D02*
Y767110D01*
X1172994Y767305D02*
Y72695D01*
X1174994Y72399D02*
Y767601D01*
X1178994Y768502D02*
Y71499D01*
X1180994Y70887D02*
Y769114D01*
X1182994Y769840D02*
Y70160D01*
X1183405Y69996D02*
X1198000D01*
Y67996D02*
X1187629D01*
X1186994Y68335D02*
Y771665D01*
X1187612Y771995D02*
X1198000D01*
Y773995D02*
X1190905D01*
X1190994Y774055D02*
Y65945D01*
X1190919Y65996D02*
X1198000D01*
Y63996D02*
X1193637D01*
X1192994Y64501D02*
Y775499D01*
X1193626Y775995D02*
X1198000D01*
Y777995D02*
X1195941D01*
X1194994Y777140D02*
Y62860D01*
X1195951Y61996D02*
X1198000D01*
X1196994Y60989D02*
Y779011D01*
X1198000Y769995D02*
X1183382D01*
X1184994Y770688D02*
Y69312D01*
X1188994Y67217D02*
Y772783D01*
X1198000Y763995D02*
X127783D01*
X126996Y763208D02*
Y637565D01*
X124996D02*
Y761208D01*
X125784Y761995D02*
X1198000D01*
Y759995D02*
X123784D01*
X122996Y759208D02*
Y637565D01*
X120996D02*
Y757208D01*
X121784Y757995D02*
X1198000D01*
Y731995D02*
X95784D01*
X94997Y731208D02*
Y635614D01*
X92709Y631995D02*
X88750D01*
Y629995D02*
X92435D01*
Y627995D02*
X88750D01*
Y625995D02*
X92435D01*
Y623995D02*
X88750D01*
Y621995D02*
X92435D01*
Y619995D02*
X88750D01*
Y617995D02*
X92435D01*
Y615995D02*
X88750D01*
Y613995D02*
X92435D01*
Y611995D02*
X88750D01*
Y609995D02*
X92435D01*
X114996Y637565D02*
Y751208D01*
X128996Y765208D02*
Y637565D01*
X130996D02*
Y765250D01*
X132996D02*
Y637565D01*
X134996D02*
Y765250D01*
X75478Y751995D02*
X2000D01*
Y749995D02*
X73478D01*
X72997Y749513D02*
Y807456D01*
X73000Y807995D02*
X1127000D01*
X1127049Y809995D02*
X72952D01*
X72997Y808544D02*
Y838000D01*
X70996D02*
Y820660D01*
X71206Y819995D02*
X1128794D01*
X1128994Y820631D02*
Y838000D01*
X1126994D02*
Y2000D01*
X1128994D02*
Y19369D01*
X1128797Y19996D02*
X71203D01*
X70996Y19340D02*
Y2000D01*
X68997D02*
Y14329D01*
X68836Y13996D02*
X1131165D01*
X1130994Y14349D02*
Y2000D01*
X1132994D02*
Y10656D01*
X1133405Y9996D02*
X66595D01*
X66996Y10640D02*
Y2000D01*
X64997D02*
Y7664D01*
X65239Y7996D02*
X1134761D01*
X1134994Y7677D02*
Y2000D01*
X1136994D02*
Y5174D01*
X1136302Y5996D02*
X63699D01*
X62997Y5163D02*
Y2000D01*
X60996D02*
Y3014D01*
X61947Y3996D02*
X1138054D01*
X1138994Y3023D02*
Y2000D01*
X1124994D02*
Y838000D01*
X1122994D02*
Y2000D01*
X1120994D02*
Y838000D01*
X1118994D02*
Y2000D01*
X1116994D02*
Y838000D01*
X1114994D02*
Y2000D01*
X1112994D02*
Y838000D01*
X1110994D02*
Y2000D01*
X1108994D02*
Y838000D01*
X1106994D02*
Y2000D01*
X1104994D02*
Y838000D01*
X1102994D02*
Y2000D01*
X1100994D02*
Y838000D01*
X1130994D02*
Y825651D01*
X1131160Y825995D02*
X68840D01*
X68997Y825671D02*
Y838000D01*
X66996D02*
Y829360D01*
X66601Y829995D02*
X1133399D01*
X1132994Y829345D02*
Y838000D01*
X1134994D02*
Y832323D01*
X1134755Y831995D02*
X65246D01*
X64997Y832336D02*
Y838000D01*
X62997D02*
Y834837D01*
X63706Y833995D02*
X1136294D01*
X1136994Y834826D02*
Y838000D01*
X1138994D02*
Y836977D01*
X1138045Y835995D02*
X61955D01*
X60996Y836986D02*
Y838000D01*
X59952Y837995D02*
X1140048D01*
X1132206Y827995D02*
X67794D01*
X69752Y823995D02*
X1130249D01*
X1129463Y821995D02*
X70538D01*
X71763Y817995D02*
X1128237D01*
X1127787Y815995D02*
X72213D01*
X72559Y813995D02*
X1127441D01*
X1127195Y811995D02*
X72805D01*
X72951Y805995D02*
X1127049D01*
X1127196Y803995D02*
X72804D01*
X72558Y801995D02*
X1127442D01*
X1127789Y799995D02*
X72211D01*
X71761Y797995D02*
X1128240D01*
X1129466Y793995D02*
X743348D01*
X742995Y794106D02*
Y838000D01*
X740995D02*
Y794472D01*
X738995Y794500D02*
Y838000D01*
X744995D02*
Y793267D01*
X746775Y791995D02*
X1130253D01*
X1130994Y790349D02*
Y49651D01*
X1131161Y49996D02*
X734423D01*
X734737Y51996D02*
X1132207D01*
X1130249Y47996D02*
X733648D01*
X732995Y46920D02*
Y2000D01*
X734995D02*
Y91102D01*
X736995D02*
Y2000D01*
X718995D02*
Y44819D01*
X717715Y45996D02*
X707264D01*
X706995Y45708D02*
Y2000D01*
X704995D02*
Y44127D01*
X708648Y47996D02*
X715715D01*
X714995Y48716D02*
Y2000D01*
X716995D02*
Y46716D01*
X713715Y49996D02*
X709423D01*
X708995Y48739D02*
Y2000D01*
X710995D02*
Y52500D01*
X711715Y51996D02*
X709737D01*
X712995Y50716D02*
Y2000D01*
X738995D02*
Y91102D01*
X740995D02*
Y2000D01*
X742995D02*
Y91102D01*
X744995D02*
Y2000D01*
X746995D02*
Y91102D01*
X748995D02*
Y2000D01*
X750995D02*
Y91102D01*
X752995D02*
Y2000D01*
X754995D02*
Y91102D01*
X756995D02*
Y2000D01*
X758995D02*
Y91102D01*
X760995D02*
Y2000D01*
X762995D02*
Y91102D01*
X764995D02*
Y2000D01*
X766995D02*
Y91102D01*
X768995D02*
Y2000D01*
X770995D02*
Y91102D01*
X772995D02*
Y2000D01*
X774995D02*
Y91102D01*
X776995D02*
Y2000D01*
X778995D02*
Y91102D01*
X780995D02*
Y2000D01*
X782995D02*
Y91102D01*
X784995D02*
Y2000D01*
X786995D02*
Y91102D01*
X787602D02*
G03*
X795733Y94470I0J11500D01*
G01*
X796995Y95732D02*
Y2000D01*
X790995D02*
Y91614D01*
X788995Y91187D02*
Y2000D01*
X798995D02*
Y97732D01*
X799260Y97996D02*
X879322D01*
X878995Y98324D02*
Y2000D01*
X880995D02*
Y96324D01*
X881322Y95996D02*
X797260D01*
X800995Y99732D02*
Y2000D01*
X802995D02*
Y101732D01*
X803260Y101996D02*
X875322D01*
X874995Y102324D02*
Y2000D01*
X876995D02*
Y100324D01*
X877322Y99996D02*
X801260D01*
X804995Y103732D02*
Y2000D01*
X806995D02*
Y105732D01*
X807132Y105868D02*
G03*
X810500Y114000I-8132J8132D01*
G01*
Y113996D02*
X863323D01*
X862995Y114324D02*
Y2000D01*
X860995D02*
Y116324D01*
X861322Y115996D02*
X810500D01*
Y117996D02*
X859323D01*
X858995Y118324D02*
Y2000D01*
X864995D02*
Y112324D01*
X865322Y111996D02*
X810324D01*
X809781Y109996D02*
X867322D01*
X866995Y110324D02*
Y2000D01*
X868995D02*
Y108324D01*
X869322Y107996D02*
X808808D01*
X808995Y108312D02*
Y2000D01*
X810995D02*
Y122662D01*
X810500Y121996D02*
X812880D01*
X812995Y121970D02*
Y2000D01*
X814995D02*
Y121750D01*
X816995D02*
Y2000D01*
X818995D02*
Y121750D01*
X820995D02*
Y2000D01*
X822995D02*
Y121750D01*
X824995D02*
Y2000D01*
X826995D02*
Y121750D01*
X828995D02*
Y2000D01*
X830995D02*
Y121750D01*
X832995D02*
Y2000D01*
X834995D02*
Y121750D01*
X836995D02*
Y2000D01*
X838995D02*
Y121750D01*
X840995D02*
Y2000D01*
X842995D02*
Y121750D01*
X844995D02*
Y2000D01*
X846995D02*
Y121750D01*
X848995D02*
Y2000D01*
X850995D02*
Y121750D01*
X852995D02*
Y2000D01*
X854995D02*
Y121750D01*
X856995Y120324D02*
Y2000D01*
X870995D02*
Y106324D01*
X871322Y105996D02*
X807258D01*
X805260Y103996D02*
X873322D01*
X872995Y104324D02*
Y2000D01*
X947248Y111996D02*
X1045915D01*
X1044995Y111076D02*
Y208662D01*
X1046881Y207996D02*
X876497D01*
Y205996D02*
X1052750D01*
Y203996D02*
X876497D01*
Y201996D02*
X1052750D01*
Y199996D02*
X876497D01*
Y197996D02*
X1052750D01*
Y195996D02*
X876497D01*
Y193996D02*
X1052750D01*
Y191996D02*
X876497D01*
Y189996D02*
X1052750D01*
Y187996D02*
X876497D01*
Y209996D02*
X1042958D01*
X1042995Y209965D02*
Y110650D01*
X1040995D02*
Y212366D01*
X1041220Y211996D02*
X876497D01*
Y213996D02*
X1040251D01*
X1039805Y215996D02*
X876497D01*
Y217996D02*
X1039804D01*
X1040249Y219996D02*
X876497D01*
Y221996D02*
X1041215D01*
X1040995Y221634D02*
Y838000D01*
X1042995D02*
Y224035D01*
X1042949Y223996D02*
X876497D01*
Y225996D02*
X1046847D01*
X1046995Y226030D02*
Y838000D01*
X1044995D02*
Y225338D01*
X1048995Y226250D02*
Y838000D01*
X1050994D02*
Y226250D01*
X1052995D02*
Y838000D01*
X1054995D02*
Y226250D01*
X1056994D02*
Y838000D01*
X1058995D02*
Y226250D01*
X1060994D02*
Y838000D01*
X1062995D02*
Y226196D01*
X1064153Y225996D02*
X1198000D01*
Y227996D02*
X876497D01*
Y229996D02*
X1198000D01*
Y231996D02*
X876497D01*
Y233996D02*
X1198000D01*
Y235996D02*
X876497D01*
Y237996D02*
X1198000D01*
Y239996D02*
X876497D01*
Y241996D02*
X1198000D01*
Y243996D02*
X876497D01*
Y245996D02*
X1198000D01*
Y223996D02*
X1068051D01*
X1066994Y224786D02*
Y838000D01*
X1064995D02*
Y225752D01*
X1068995Y223053D02*
Y838000D01*
X1070994D02*
Y219159D01*
X1070751Y219996D02*
X1198000D01*
Y217996D02*
X1071196D01*
X1071250Y215996D02*
X1198000D01*
Y213996D02*
X1071250D01*
Y211996D02*
X1198000D01*
Y209996D02*
X1071250D01*
Y207996D02*
X1198000D01*
Y205996D02*
X1071250D01*
Y203996D02*
X1198000D01*
Y201996D02*
X1071250D01*
Y199996D02*
X1198000D01*
Y197996D02*
X1071250D01*
Y195996D02*
X1198000D01*
Y193996D02*
X1071250D01*
Y191996D02*
X1198000D01*
Y189996D02*
X1071250D01*
Y187996D02*
X1198000D01*
Y221996D02*
X1069785D01*
X1050994Y207750D02*
Y117076D01*
X1051915Y117996D02*
X947248D01*
Y115996D02*
X1049915D01*
X1048995Y115076D02*
Y207750D01*
X1046995Y207970D02*
Y113076D01*
X1047915Y113996D02*
X947248D01*
Y119996D02*
X1052750D01*
Y121996D02*
X947248D01*
Y123996D02*
X1052750D01*
Y125996D02*
X947248D01*
X917922Y159996D02*
X875779D01*
X857322Y119996D02*
X810500D01*
X732264Y45996D02*
X1129463D01*
X1128238Y41996D02*
X71763D01*
X72213Y39996D02*
X1127788D01*
X1127441Y37996D02*
X72559D01*
X72805Y35996D02*
X1127196D01*
X1127049Y33996D02*
X72951D01*
X72997Y32544D02*
Y400715D01*
X73716Y399996D02*
X2000D01*
Y401996D02*
X71716D01*
X70996Y402715D02*
Y44660D01*
X71206Y43996D02*
X195230D01*
X192715Y45996D02*
X70537D01*
X69751Y47996D02*
X190715D01*
X190996Y47715D02*
Y2000D01*
X188996D02*
Y49715D01*
X188715Y49996D02*
X68840D01*
X68997Y49671D02*
Y404715D01*
X69716Y403996D02*
X2000D01*
Y405996D02*
X67716D01*
X66996Y406715D02*
Y53360D01*
X66600Y53996D02*
X184715D01*
X184996Y53715D02*
Y2000D01*
X182996D02*
Y55715D01*
X182715Y55996D02*
X65244D01*
X64997Y56336D02*
Y408715D01*
X65716Y407996D02*
X2000D01*
Y409996D02*
X63716D01*
X60250Y417500D02*
G03*
X63106Y410606I9750J0D01*
G01*
X62997Y410717D02*
Y58837D01*
X63705Y57996D02*
X180715D01*
X180996Y57715D02*
Y2000D01*
X178996D02*
Y59715D01*
X178715Y59996D02*
X61954D01*
X60996Y60986D02*
Y413758D01*
X60902Y413996D02*
X2000D01*
Y415996D02*
X60367D01*
X60250Y417996D02*
X2000D01*
Y419996D02*
X60250D01*
Y421996D02*
X2000D01*
Y423996D02*
X60250D01*
Y425995D02*
X2000D01*
Y427995D02*
X60250D01*
X61952Y411996D02*
X2000D01*
Y393996D02*
X79716D01*
X105716Y367996D02*
X2000D01*
Y365996D02*
X107716D01*
X106996Y366715D02*
Y2000D01*
X108996D02*
Y364715D01*
X109716Y363996D02*
X2000D01*
Y361996D02*
X111716D01*
X110996Y362715D02*
Y2000D01*
X112996D02*
Y360715D01*
X113716Y359996D02*
X2000D01*
Y357996D02*
X115716D01*
X114996Y358715D02*
Y2000D01*
X116996D02*
Y356715D01*
X117716Y355996D02*
X2000D01*
Y353996D02*
X119716D01*
X118996Y354715D02*
Y2000D01*
X120996D02*
Y352715D01*
X121716Y351996D02*
X2000D01*
Y349996D02*
X123716D01*
X122996Y350715D02*
Y2000D01*
X124996D02*
Y348715D01*
X125716Y347996D02*
X2000D01*
Y345996D02*
X127716D01*
X126996Y346715D02*
Y2000D01*
X128996D02*
Y344715D01*
X129716Y343996D02*
X2000D01*
Y341996D02*
X131716D01*
X130996Y342715D02*
Y2000D01*
X132996D02*
Y340715D01*
X133775Y339996D02*
X2000D01*
Y337996D02*
X137825D01*
X136996Y338224D02*
Y2000D01*
X138996D02*
Y337802D01*
X140996Y337801D02*
Y2000D01*
X142996D02*
Y338222D01*
X142175Y337996D02*
X152825D01*
X152996Y337958D02*
Y2000D01*
X150996D02*
Y338610D01*
X148996Y339818D02*
Y2000D01*
X146996D02*
Y340709D01*
X146225Y339996D02*
X148775D01*
X144996Y339128D02*
Y2000D01*
X154996D02*
Y337750D01*
X156996Y337957D02*
Y2000D01*
X158996D02*
Y338607D01*
X160250Y337996D02*
X157175D01*
X160250Y335996D02*
X2000D01*
Y333996D02*
X160250D01*
Y331996D02*
X2000D01*
Y329996D02*
X160250D01*
Y327996D02*
X2000D01*
Y325996D02*
X160250D01*
Y323996D02*
X2000D01*
Y321996D02*
X160250D01*
Y319996D02*
X2000D01*
Y317996D02*
X160250D01*
Y315996D02*
X2000D01*
Y313996D02*
X160250D01*
Y311996D02*
X2000D01*
Y309996D02*
X160250D01*
Y307996D02*
X2000D01*
Y305996D02*
X160250D01*
Y303996D02*
X2000D01*
Y301996D02*
X160250D01*
Y299996D02*
X2000D01*
Y297996D02*
X160250D01*
Y295996D02*
X2000D01*
Y293996D02*
X160250D01*
Y291996D02*
X2000D01*
Y289996D02*
X160250D01*
Y287996D02*
X2000D01*
Y285996D02*
X160250D01*
Y283996D02*
X2000D01*
Y281996D02*
X160250D01*
Y279996D02*
X2000D01*
Y277996D02*
X160250D01*
Y275996D02*
X2000D01*
Y273996D02*
X160250D01*
Y271996D02*
X2000D01*
Y269996D02*
X160250D01*
Y267996D02*
X2000D01*
Y265996D02*
X160250D01*
Y263996D02*
X2000D01*
Y261996D02*
X160250D01*
Y259996D02*
X2000D01*
Y257996D02*
X160250D01*
Y255996D02*
X2000D01*
Y253996D02*
X160250D01*
Y251996D02*
X2000D01*
Y249996D02*
X160250D01*
Y247996D02*
X2000D01*
Y245996D02*
X160250D01*
Y243996D02*
X2000D01*
Y241996D02*
X160250D01*
Y239996D02*
X2000D01*
Y237996D02*
X160250D01*
Y235996D02*
X2000D01*
Y233996D02*
X160250D01*
Y231996D02*
X2000D01*
Y229996D02*
X160250D01*
Y227996D02*
X2000D01*
Y225996D02*
X160250D01*
Y223996D02*
X2000D01*
Y221996D02*
X160250D01*
Y219996D02*
X2000D01*
Y217996D02*
X160250D01*
Y215996D02*
X2000D01*
Y213996D02*
X160250D01*
Y211996D02*
X2000D01*
Y209996D02*
X160250D01*
Y207996D02*
X2000D01*
Y205996D02*
X160250D01*
Y203996D02*
X2000D01*
Y201996D02*
X160250D01*
Y199996D02*
X2000D01*
Y197996D02*
X160250D01*
Y195996D02*
X2000D01*
Y193996D02*
X160250D01*
Y191996D02*
X2000D01*
Y189996D02*
X160250D01*
Y187996D02*
X2000D01*
Y185996D02*
X160250D01*
Y183996D02*
X2000D01*
Y181996D02*
X160250D01*
Y179996D02*
X2000D01*
Y177996D02*
X160250D01*
Y175996D02*
X2000D01*
Y173996D02*
X160250D01*
Y171996D02*
X2000D01*
Y169996D02*
X160250D01*
Y167996D02*
X2000D01*
Y165996D02*
X160250D01*
Y163996D02*
X2000D01*
Y161996D02*
X160250D01*
Y159996D02*
X2000D01*
Y157996D02*
X160250D01*
Y155996D02*
X2000D01*
Y153996D02*
X160250D01*
Y151996D02*
X2000D01*
Y149996D02*
X160250D01*
Y147996D02*
X2000D01*
Y145996D02*
X160250D01*
Y143996D02*
X2000D01*
Y141996D02*
X160250D01*
Y139996D02*
X2000D01*
Y137996D02*
X160250D01*
Y135996D02*
X2000D01*
Y133996D02*
X160250D01*
Y131996D02*
X2000D01*
Y129996D02*
X160250D01*
Y127996D02*
X2000D01*
X10997Y67212D02*
Y772788D01*
X2000Y727995D02*
X60250D01*
Y725995D02*
X2000D01*
Y723995D02*
X60250D01*
Y721995D02*
X2000D01*
Y719995D02*
X60250D01*
Y717995D02*
X2000D01*
Y715995D02*
X60250D01*
Y713995D02*
X2000D01*
Y711995D02*
X60250D01*
Y709995D02*
X2000D01*
Y707995D02*
X60250D01*
Y705995D02*
X2000D01*
Y703995D02*
X60250D01*
Y701995D02*
X2000D01*
Y699995D02*
X60250D01*
Y697995D02*
X2000D01*
Y695995D02*
X60250D01*
Y693995D02*
X2000D01*
Y691995D02*
X60250D01*
Y689995D02*
X2000D01*
Y687995D02*
X60250D01*
Y685995D02*
X2000D01*
Y683995D02*
X60250D01*
Y681995D02*
X2000D01*
Y679995D02*
X60250D01*
Y677995D02*
X2000D01*
Y675995D02*
X60250D01*
Y673995D02*
X2000D01*
Y671995D02*
X60250D01*
Y669995D02*
X2000D01*
Y667995D02*
X60250D01*
Y665995D02*
X2000D01*
Y663995D02*
X60250D01*
Y661995D02*
X2000D01*
Y659995D02*
X60250D01*
Y657995D02*
X2000D01*
Y655995D02*
X60250D01*
Y653995D02*
X2000D01*
Y651995D02*
X60250D01*
Y649995D02*
X2000D01*
Y647995D02*
X60250D01*
Y645995D02*
X2000D01*
Y643995D02*
X60250D01*
Y641995D02*
X2000D01*
Y639995D02*
X60250D01*
Y637995D02*
X2000D01*
Y635995D02*
X60250D01*
Y633995D02*
X2000D01*
Y631995D02*
X60250D01*
Y629995D02*
X2000D01*
Y627995D02*
X60250D01*
Y625995D02*
X2000D01*
Y623995D02*
X60250D01*
Y621995D02*
X2000D01*
Y619995D02*
X60250D01*
Y617995D02*
X2000D01*
Y615995D02*
X60250D01*
Y613995D02*
X2000D01*
Y611995D02*
X60250D01*
Y609995D02*
X2000D01*
Y607995D02*
X60250D01*
Y605995D02*
X2000D01*
Y603995D02*
X60250D01*
Y601995D02*
X2000D01*
Y599995D02*
X60250D01*
Y597995D02*
X2000D01*
Y595995D02*
X60250D01*
Y593995D02*
X2000D01*
Y591995D02*
X60250D01*
Y589995D02*
X2000D01*
Y587995D02*
X60250D01*
Y585995D02*
X2000D01*
Y583995D02*
X60250D01*
Y581995D02*
X2000D01*
Y579995D02*
X60250D01*
Y577995D02*
X2000D01*
Y575995D02*
X60250D01*
Y573995D02*
X2000D01*
Y571995D02*
X60250D01*
Y569995D02*
X2000D01*
Y567995D02*
X60250D01*
Y565995D02*
X2000D01*
Y563995D02*
X60250D01*
Y561995D02*
X2000D01*
Y559995D02*
X60250D01*
Y557995D02*
X2000D01*
Y555995D02*
X60250D01*
Y553995D02*
X2000D01*
Y551995D02*
X60250D01*
Y549995D02*
X2000D01*
Y547995D02*
X60250D01*
Y545995D02*
X2000D01*
Y543995D02*
X60250D01*
Y541995D02*
X2000D01*
Y539995D02*
X60250D01*
Y537995D02*
X2000D01*
Y535995D02*
X60250D01*
Y533995D02*
X2000D01*
Y531995D02*
X60250D01*
Y529995D02*
X2000D01*
Y527995D02*
X60250D01*
Y525995D02*
X2000D01*
Y523995D02*
X60250D01*
Y521995D02*
X2000D01*
Y519995D02*
X60250D01*
Y517995D02*
X2000D01*
Y515995D02*
X60250D01*
Y513995D02*
X2000D01*
Y511995D02*
X60250D01*
Y509995D02*
X2000D01*
Y507995D02*
X60250D01*
Y505995D02*
X2000D01*
Y503995D02*
X60250D01*
Y501995D02*
X2000D01*
Y499995D02*
X60250D01*
Y497995D02*
X2000D01*
Y495995D02*
X60250D01*
Y493995D02*
X2000D01*
Y491995D02*
X60250D01*
Y489995D02*
X2000D01*
Y487995D02*
X60250D01*
Y485995D02*
X2000D01*
Y483995D02*
X60250D01*
Y481995D02*
X2000D01*
Y479995D02*
X60250D01*
Y477995D02*
X2000D01*
Y475995D02*
X60250D01*
Y473995D02*
X2000D01*
Y471995D02*
X60250D01*
Y469995D02*
X2000D01*
Y467995D02*
X60250D01*
Y465995D02*
X2000D01*
Y463996D02*
X60250D01*
Y461996D02*
X2000D01*
Y459995D02*
X60250D01*
Y457995D02*
X2000D01*
Y455995D02*
X60250D01*
Y453996D02*
X2000D01*
Y451996D02*
X60250D01*
Y449995D02*
X2000D01*
Y447995D02*
X60250D01*
Y445995D02*
X2000D01*
Y443996D02*
X60250D01*
Y441996D02*
X2000D01*
Y439995D02*
X60250D01*
Y437995D02*
X2000D01*
Y435995D02*
X60250D01*
Y433996D02*
X2000D01*
Y431996D02*
X60250D01*
Y429995D02*
X2000D01*
X74997Y398715D02*
Y2000D01*
X72997D02*
Y31456D01*
X73000Y31996D02*
X1127000D01*
X1127049Y29996D02*
X72951D01*
X72804Y27996D02*
X1127196D01*
X1127442Y25996D02*
X72558D01*
X72211Y23996D02*
X1127789D01*
X1128240Y21996D02*
X71761D01*
X70535Y17996D02*
X1129466D01*
X1130253Y15996D02*
X69748D01*
X67789Y11996D02*
X1132211D01*
X1050994Y92521D02*
Y2000D01*
X1072995D02*
Y838000D01*
X1074995D02*
Y2000D01*
X1076994D02*
Y838000D01*
X1078995D02*
Y2000D01*
X1080994D02*
Y838000D01*
X1082995D02*
Y2000D01*
X1084995D02*
Y838000D01*
X1086994D02*
Y2000D01*
X1088995D02*
Y838000D01*
X1090994D02*
Y2000D01*
X1092995D02*
Y838000D01*
X1094995D02*
Y2000D01*
X1096994D02*
Y838000D01*
X1098994D02*
Y2000D01*
X1198000Y331996D02*
X934813D01*
X933266Y333996D02*
X1198000D01*
Y335996D02*
X930686D01*
X930995Y335814D02*
Y442435D01*
X928995D02*
Y336784D01*
X926995Y337326D02*
Y442435D01*
X924995D02*
Y337500D01*
X922995D02*
Y442435D01*
X920995D02*
Y337500D01*
X918995D02*
Y442435D01*
X932995D02*
Y334266D01*
Y637565D02*
Y838000D01*
X930995D02*
Y637565D01*
X928995D02*
Y838000D01*
X926995D02*
Y637565D01*
X924995D02*
Y838000D01*
X922995D02*
Y637565D01*
X920995D02*
Y838000D01*
X918995D02*
Y637565D01*
X934995D02*
Y838000D01*
X936995D02*
Y637565D01*
X938995D02*
Y838000D01*
X940995D02*
Y637565D01*
X942995D02*
Y838000D01*
X944995D02*
Y637565D01*
X946995D02*
Y838000D01*
X948995D02*
Y637565D01*
X950995D02*
Y838000D01*
X952995D02*
Y637565D01*
X954995D02*
Y838000D01*
X956995D02*
Y637565D01*
X958995D02*
Y838000D01*
X960995D02*
Y637565D01*
X962995D02*
Y838000D01*
X964995D02*
Y637565D01*
X966995D02*
Y838000D01*
X968995D02*
Y637565D01*
X970995D02*
Y838000D01*
X972995D02*
Y637565D01*
X974995D02*
Y838000D01*
X976995D02*
Y637565D01*
X978995D02*
Y838000D01*
X916995D02*
Y637565D01*
X914995D02*
Y838000D01*
X912995D02*
Y637565D01*
X910995D02*
Y838000D01*
X908995D02*
Y637565D01*
X906995D02*
Y838000D01*
X904995D02*
Y637565D01*
X902995D02*
Y838000D01*
X900995D02*
Y637565D01*
X898995D02*
Y838000D01*
X896995D02*
Y637565D01*
X894995D02*
Y838000D01*
X892995D02*
Y637565D01*
X890995D02*
Y838000D01*
X888995D02*
Y637565D01*
X886995D02*
Y838000D01*
X884995D02*
Y637565D01*
X882995D02*
Y838000D01*
X880995D02*
Y637565D01*
X878995D02*
Y838000D01*
X876995D02*
Y637565D01*
X874995D02*
Y838000D01*
X872995D02*
Y637565D01*
X870995D02*
Y838000D01*
X868995D02*
Y637565D01*
X866995D02*
Y838000D01*
X864995D02*
Y637565D01*
X862995D02*
Y838000D01*
X860995D02*
Y637565D01*
X858995D02*
Y838000D01*
X856995D02*
Y637565D01*
X854995D02*
Y838000D01*
X852995D02*
Y637565D01*
X850995D02*
Y838000D01*
X848995D02*
Y637565D01*
X846995D02*
Y838000D01*
X844995D02*
Y637565D01*
X842995D02*
Y838000D01*
X840995D02*
Y637565D01*
X838995D02*
Y838000D01*
X836995D02*
Y637565D01*
X834995D02*
Y838000D01*
X832995D02*
Y637565D01*
X830995D02*
Y838000D01*
X828995D02*
Y637565D01*
X826995D02*
Y838000D01*
X824995D02*
Y637565D01*
X822995D02*
Y838000D01*
X820995D02*
Y637565D01*
X818995D02*
Y838000D01*
X816995D02*
Y637565D01*
X814995D02*
Y838000D01*
X812995D02*
Y637565D01*
X810995D02*
Y838000D01*
X808995D02*
Y637565D01*
X806995D02*
Y838000D01*
X804995D02*
Y637565D01*
X802995D02*
Y838000D01*
X800995D02*
Y637565D01*
X798995D02*
Y838000D01*
X748995D02*
Y789793D01*
X748794Y789995D02*
X1131165D01*
X1198000Y729995D02*
X93784D01*
X88750Y713995D02*
X328968D01*
X328750Y711995D02*
X88750D01*
X74997Y751513D02*
Y838000D01*
X70534Y793995D02*
X118924D01*
X118996Y794019D02*
Y838000D01*
X116996D02*
Y793105D01*
X115497Y791995D02*
X69747D01*
X58997Y777142D02*
Y62858D01*
X59951Y61996D02*
X176715D01*
X176996Y61715D02*
Y2000D01*
X186996D02*
Y51715D01*
X186715Y51996D02*
X67793D01*
X134996Y2000D02*
Y339132D01*
X194750Y305996D02*
X208396D01*
Y303996D02*
X194750D01*
Y301996D02*
X208396D01*
Y299996D02*
X194750D01*
Y297996D02*
X208396D01*
Y295996D02*
X194750D01*
Y293996D02*
X208396D01*
Y291996D02*
X194750D01*
Y289996D02*
X208396D01*
Y287996D02*
X194750D01*
Y285996D02*
X208396D01*
Y283996D02*
X194750D01*
Y281996D02*
X208396D01*
Y279996D02*
X194750D01*
Y277996D02*
X208396D01*
Y275996D02*
X194750D01*
Y273996D02*
X208396D01*
Y271996D02*
X194750D01*
Y269996D02*
X208396D01*
Y267996D02*
X194750D01*
Y265996D02*
X208396D01*
Y263996D02*
X194750D01*
Y261996D02*
X208396D01*
Y259996D02*
X194750D01*
Y257996D02*
X208396D01*
Y255996D02*
X194750D01*
Y253996D02*
X208396D01*
Y251996D02*
X194750D01*
Y249996D02*
X208396D01*
Y247996D02*
X194750D01*
X196720Y365996D02*
X150293D01*
X150996Y365292D02*
Y467435D01*
X148996D02*
Y367292D01*
X148293Y367996D02*
X196176D01*
X92435Y489995D02*
X88750D01*
Y491995D02*
X92435D01*
Y493995D02*
X88750D01*
Y495995D02*
X92435D01*
Y497995D02*
X88750D01*
Y499995D02*
X92435D01*
Y501995D02*
X88750D01*
Y503995D02*
X92435D01*
Y505995D02*
X88750D01*
Y507995D02*
X92435D01*
Y509995D02*
X88750D01*
Y511995D02*
X92435D01*
Y513995D02*
X88750D01*
Y515995D02*
X92435D01*
Y517995D02*
X88750D01*
Y519995D02*
X92435D01*
Y521995D02*
X88750D01*
Y523995D02*
X92435D01*
Y525995D02*
X88750D01*
Y527995D02*
X92435D01*
Y529995D02*
X88750D01*
Y531995D02*
X92435D01*
Y533995D02*
X88750D01*
Y535995D02*
X92435D01*
Y537995D02*
X88750D01*
Y539995D02*
X92435D01*
Y541995D02*
X88750D01*
Y543995D02*
X92435D01*
Y545995D02*
X88750D01*
Y547995D02*
X92435D01*
Y549995D02*
X88750D01*
Y551995D02*
X92435D01*
Y553995D02*
X88750D01*
Y555995D02*
X92435D01*
Y557995D02*
X88750D01*
Y559995D02*
X92435D01*
Y561995D02*
X88750D01*
Y563995D02*
X92435D01*
Y565995D02*
X88750D01*
Y567995D02*
X92435D01*
Y569995D02*
X88750D01*
Y571995D02*
X92435D01*
Y573995D02*
X88750D01*
Y575995D02*
X92435D01*
Y577995D02*
X88750D01*
Y579995D02*
X92435D01*
Y581995D02*
X88750D01*
Y583995D02*
X92435D01*
Y585995D02*
X88750D01*
Y587995D02*
X92435D01*
Y589995D02*
X88750D01*
Y591995D02*
X92435D01*
Y593995D02*
X88750D01*
Y595995D02*
X92435D01*
Y597995D02*
X88750D01*
Y599995D02*
X92435D01*
Y601995D02*
X88750D01*
Y603995D02*
X92435D01*
Y605995D02*
X88750D01*
Y607995D02*
X92435D01*
X52997Y772784D02*
Y67216D01*
X48997Y69311D02*
Y770689D01*
X44997Y769115D02*
Y70886D01*
X42997Y71498D02*
Y768502D01*
X38997Y767601D02*
Y72399D01*
X36997Y72695D02*
Y767306D01*
X34997Y767110D02*
Y72891D01*
X32997Y72988D02*
Y767012D01*
X30997Y767012D02*
Y72988D01*
X28997Y72890D02*
Y767110D01*
X26997Y767307D02*
Y72694D01*
X24997Y72397D02*
Y767603D01*
X20997Y768504D02*
Y71496D01*
X18997Y70883D02*
Y769117D01*
X14997Y770692D02*
Y69308D01*
X367892Y549995D02*
X374000D01*
Y551995D02*
X367892D01*
Y553995D02*
X374000D01*
Y555995D02*
X367892D01*
Y557995D02*
X374000D01*
Y559995D02*
X367891D01*
X367627Y561995D02*
X374000D01*
Y607995D02*
X338750D01*
X436996Y637565D02*
Y765250D01*
X438996D02*
Y637565D01*
X440996D02*
Y765250D01*
X442996D02*
Y637565D01*
X444996D02*
Y765250D01*
X446996D02*
Y637565D01*
X448996D02*
Y765250D01*
X450996D02*
Y637565D01*
X452996D02*
Y765250D01*
X454996D02*
Y637565D01*
X456996D02*
Y765250D01*
X458996D02*
Y637565D01*
X460996D02*
Y765250D01*
X462996D02*
Y637565D01*
X464996D02*
Y765250D01*
X466996D02*
Y637565D01*
X468996D02*
Y765250D01*
X470996D02*
Y637565D01*
X472996D02*
Y765250D01*
X474996D02*
Y637565D01*
X476996D02*
Y765250D01*
X478996D02*
Y637565D01*
X480996D02*
Y765250D01*
X482996D02*
Y637565D01*
X484996D02*
Y765250D01*
X486996D02*
Y637565D01*
X488996D02*
Y765250D01*
X490996D02*
Y637565D01*
X492996D02*
Y765250D01*
X494996D02*
Y637565D01*
X496996D02*
Y765250D01*
X498996D02*
Y637565D01*
X500996D02*
Y765250D01*
X502996D02*
Y637565D01*
X504996D02*
Y765250D01*
X506996D02*
Y637565D01*
X508996D02*
Y765250D01*
X510996D02*
Y637565D01*
X512996D02*
Y765250D01*
X514996D02*
Y637565D01*
X516996D02*
Y765250D01*
X518996D02*
Y637565D01*
X520996D02*
Y765250D01*
X522996D02*
Y637565D01*
X524996D02*
Y765250D01*
X526996D02*
Y637565D01*
X528996D02*
Y765250D01*
X530996D02*
Y637565D01*
X532996D02*
Y765250D01*
X534996D02*
Y637565D01*
X536996D02*
Y765250D01*
X538996D02*
Y637565D01*
X540996D02*
Y765250D01*
X542996D02*
Y637565D01*
X544996D02*
Y765250D01*
X546996D02*
Y637565D01*
X548996D02*
Y765250D01*
X550995D02*
Y637565D01*
X552995D02*
Y765250D01*
X554995D02*
Y637565D01*
X556996D02*
Y765250D01*
X558996D02*
Y637565D01*
X560995D02*
Y765250D01*
X562995D02*
Y637565D01*
X564995D02*
Y765250D01*
X566996D02*
Y637565D01*
X568996D02*
Y765250D01*
X570995D02*
Y637565D01*
X572995D02*
Y765250D01*
X574995D02*
Y637565D01*
X576996D02*
Y765250D01*
X578996D02*
Y637565D01*
X580995D02*
Y765250D01*
X582995D02*
Y637565D01*
X584995D02*
Y765250D01*
X586996D02*
Y637565D01*
X588996D02*
Y765250D01*
X590995D02*
Y637565D01*
X592995D02*
Y765250D01*
X594995D02*
Y637565D01*
X596996D02*
Y765250D01*
X598995D02*
Y637565D01*
X600995D02*
Y765250D01*
X602995D02*
Y637565D01*
X604995D02*
Y765250D01*
X606995D02*
Y637565D01*
X608995D02*
Y765250D01*
X610995D02*
Y637565D01*
X612995D02*
Y765250D01*
X614995D02*
Y637565D01*
X616995D02*
Y765250D01*
X618995D02*
Y637565D01*
X620995D02*
Y765250D01*
X622995D02*
Y637565D01*
X624995D02*
Y765250D01*
X626995D02*
Y637565D01*
X628995D02*
Y765250D01*
X630995D02*
Y637565D01*
X632995D02*
Y765250D01*
X634995D02*
Y637565D01*
X636995D02*
Y765250D01*
X638995D02*
Y637565D01*
X640995D02*
Y765250D01*
X642995D02*
Y637565D01*
X644995D02*
Y765250D01*
X646995D02*
Y637565D01*
X648995D02*
Y765250D01*
X650995D02*
Y637565D01*
X652995D02*
Y765250D01*
X654995D02*
Y637565D01*
X656995D02*
Y765250D01*
X658995D02*
Y637565D01*
X660995D02*
Y765250D01*
X662995D02*
Y637565D01*
X664995D02*
Y765250D01*
X666995D02*
Y637565D01*
X668995D02*
Y765250D01*
X670995D02*
Y637565D01*
X672995D02*
Y765250D01*
X674995D02*
Y637565D01*
X676995D02*
Y765250D01*
X706995Y772786D02*
Y637565D01*
X708995D02*
Y775000D01*
X710995D02*
Y637565D01*
X712995D02*
Y775000D01*
X714995D02*
Y637565D01*
X716995D02*
Y775000D01*
X718995D02*
Y637565D01*
X720995D02*
Y775000D01*
X722995D02*
Y637565D01*
X724995D02*
Y775000D01*
X726995D02*
Y637565D01*
X728995D02*
Y775000D01*
X730995D02*
Y637565D01*
X732995D02*
Y775000D01*
X734995D02*
Y637565D01*
X736995D02*
Y774216D01*
X737217Y773995D02*
X707198D01*
X746995Y791790D02*
Y838000D01*
X736995D02*
Y794500D01*
X734995D02*
Y838000D01*
X732995D02*
Y794500D01*
X730995D02*
Y838000D01*
X728995D02*
Y794500D01*
X726995D02*
Y838000D01*
X724995D02*
Y794500D01*
X722995D02*
Y838000D01*
X720995D02*
Y794500D01*
X718995D02*
Y838000D01*
X716995D02*
Y794500D01*
X714995D02*
Y838000D01*
X712995D02*
Y794500D01*
X710995D02*
Y838000D01*
X708995D02*
Y794500D01*
X706995D02*
Y838000D01*
X704995D02*
Y794500D01*
X702995D02*
Y838000D01*
X700995D02*
Y794500D01*
X698995D02*
Y838000D01*
X696995D02*
Y794500D01*
X694995D02*
Y838000D01*
X692995D02*
Y794500D01*
X690995D02*
Y838000D01*
X688995D02*
Y794500D01*
X686995D02*
Y838000D01*
X684995D02*
Y794500D01*
X682995D02*
Y838000D01*
X680995D02*
Y794500D01*
X678995D02*
Y838000D01*
X676995D02*
Y794500D01*
X674995D02*
Y838000D01*
X672995D02*
Y794500D01*
X670995D02*
Y838000D01*
X668995D02*
Y794500D01*
X666995D02*
Y838000D01*
X664995D02*
Y794500D01*
X662995D02*
Y838000D01*
X660995D02*
Y794500D01*
X658995D02*
Y838000D01*
X656995D02*
Y794500D01*
X654995D02*
Y838000D01*
X652995D02*
Y794500D01*
X650995D02*
Y838000D01*
X648995D02*
Y794500D01*
X646995D02*
Y838000D01*
X644995D02*
Y794500D01*
X642995D02*
Y838000D01*
X640995D02*
Y794500D01*
X638995D02*
Y838000D01*
X636995D02*
Y794500D01*
X634995D02*
Y838000D01*
X632995D02*
Y794500D01*
X630995D02*
Y838000D01*
X628995D02*
Y794500D01*
X626995D02*
Y838000D01*
X624995D02*
Y794500D01*
X622995D02*
Y838000D01*
X620995D02*
Y794500D01*
X618995D02*
Y838000D01*
X616995D02*
Y794500D01*
X614995D02*
Y838000D01*
X612995D02*
Y794500D01*
X610995D02*
Y838000D01*
X608995D02*
Y794500D01*
X606995D02*
Y838000D01*
X604995D02*
Y794500D01*
X602995D02*
Y838000D01*
X600995D02*
Y794500D01*
X598995D02*
Y838000D01*
X596996D02*
Y794500D01*
X594995D02*
Y838000D01*
X592995D02*
Y794500D01*
X590995D02*
Y838000D01*
X588996D02*
Y794500D01*
X586996D02*
Y838000D01*
X584995D02*
Y794500D01*
X582995D02*
Y838000D01*
X580995D02*
Y794500D01*
X578996D02*
Y838000D01*
X576996D02*
Y794500D01*
X574995D02*
Y838000D01*
X572995D02*
Y794500D01*
X570995D02*
Y838000D01*
X568996D02*
Y794500D01*
X566996D02*
Y838000D01*
X564995D02*
Y794500D01*
X562995D02*
Y838000D01*
X560995D02*
Y794500D01*
X558996D02*
Y838000D01*
X556996D02*
Y794500D01*
X554995D02*
Y838000D01*
X552995D02*
Y794500D01*
X550995D02*
Y838000D01*
X548996D02*
Y794500D01*
X546996D02*
Y838000D01*
X544996D02*
Y794500D01*
X542996D02*
Y838000D01*
X540996D02*
Y794500D01*
X538996D02*
Y838000D01*
X536996D02*
Y794500D01*
X534996D02*
Y838000D01*
X532996D02*
Y794500D01*
X530996D02*
Y838000D01*
X528996D02*
Y794500D01*
X526996D02*
Y838000D01*
X524996D02*
Y794500D01*
X522996D02*
Y838000D01*
X520996D02*
Y794500D01*
X518996D02*
Y838000D01*
X516996D02*
Y794500D01*
X514996D02*
Y838000D01*
X512996D02*
Y794500D01*
X510996D02*
Y838000D01*
X508996D02*
Y794500D01*
X506996D02*
Y838000D01*
X504996D02*
Y794500D01*
X502996D02*
Y838000D01*
X500996D02*
Y794500D01*
X498996D02*
Y838000D01*
X496996D02*
Y794500D01*
X494996D02*
Y838000D01*
X492996D02*
Y794500D01*
X490996D02*
Y838000D01*
X488996D02*
Y794500D01*
X486996D02*
Y838000D01*
X484996D02*
Y794500D01*
X482996D02*
Y838000D01*
X480996D02*
Y794500D01*
X478996D02*
Y838000D01*
X476996D02*
Y794500D01*
X474996D02*
Y838000D01*
X472996D02*
Y794500D01*
X470996D02*
Y838000D01*
X468996D02*
Y794500D01*
X466996D02*
Y838000D01*
X464996D02*
Y794500D01*
X462996D02*
Y838000D01*
X460996D02*
Y794500D01*
X458996D02*
Y838000D01*
X456996D02*
Y794500D01*
X454996D02*
Y838000D01*
X452996D02*
Y794500D01*
X450996D02*
Y838000D01*
X448996D02*
Y794500D01*
X446996D02*
Y838000D01*
X444996D02*
Y794500D01*
X442996D02*
Y838000D01*
X440996D02*
Y794500D01*
X438996D02*
Y838000D01*
X436996D02*
Y794500D01*
X434996D02*
Y838000D01*
X432996D02*
Y794500D01*
X430996D02*
Y838000D01*
X428996D02*
Y794500D01*
X426996D02*
Y838000D01*
X424996D02*
Y794500D01*
X422996D02*
Y838000D01*
X420996D02*
Y794500D01*
X418996D02*
Y838000D01*
X416996D02*
Y794500D01*
X414996D02*
Y838000D01*
X412996D02*
Y794500D01*
X410996D02*
Y838000D01*
X408996D02*
Y794500D01*
X406996D02*
Y838000D01*
X404996D02*
Y794500D01*
X402996D02*
Y838000D01*
X400996D02*
Y794500D01*
X398996D02*
Y838000D01*
X396996D02*
Y794500D01*
X394996D02*
Y838000D01*
X392996D02*
Y794500D01*
X390996D02*
Y838000D01*
X388996D02*
Y794500D01*
X386996D02*
Y838000D01*
X384996D02*
Y794500D01*
X382996D02*
Y838000D01*
X380996D02*
Y794500D01*
X378996D02*
Y838000D01*
X376996D02*
Y794500D01*
X374996D02*
Y838000D01*
X372996D02*
Y794500D01*
X370996D02*
Y838000D01*
X368996D02*
Y794500D01*
X366996D02*
Y838000D01*
X364996D02*
Y794500D01*
X362996D02*
Y838000D01*
X360996D02*
Y794500D01*
X358996D02*
Y838000D01*
X356996D02*
Y794500D01*
X354996D02*
Y838000D01*
X352996D02*
Y794500D01*
X350996D02*
Y838000D01*
X348996D02*
Y794500D01*
X346996D02*
Y838000D01*
X344996D02*
Y794500D01*
X342996D02*
Y838000D01*
X340996D02*
Y794500D01*
X338996D02*
Y838000D01*
X336996D02*
Y794500D01*
X334996D02*
Y838000D01*
X332996D02*
Y794500D01*
X330996D02*
Y838000D01*
X328996D02*
Y794500D01*
X326996D02*
Y838000D01*
X324996D02*
Y794500D01*
X322996D02*
Y838000D01*
X320996D02*
Y794500D01*
X318996D02*
Y838000D01*
X316996D02*
Y794500D01*
X314996D02*
Y838000D01*
X312996D02*
Y794500D01*
X310996D02*
Y838000D01*
X308996D02*
Y794500D01*
X306996D02*
Y838000D01*
X304996D02*
Y794500D01*
X302996D02*
Y838000D01*
X300996D02*
Y794500D01*
X298996D02*
Y838000D01*
X296996D02*
Y794500D01*
X294996D02*
Y838000D01*
X292996D02*
Y794500D01*
X290996D02*
Y838000D01*
X288996D02*
Y794500D01*
X286996D02*
Y838000D01*
X284996D02*
Y794500D01*
X282996D02*
Y838000D01*
X280996D02*
Y794500D01*
X278996D02*
Y838000D01*
X276996D02*
Y794500D01*
X274996D02*
Y838000D01*
X272996D02*
Y794500D01*
X270996D02*
Y838000D01*
X268996D02*
Y794500D01*
X266996D02*
Y838000D01*
X264996D02*
Y794500D01*
X262996D02*
Y838000D01*
X260996D02*
Y794500D01*
X258996D02*
Y838000D01*
X256996D02*
Y794500D01*
X254996D02*
Y838000D01*
X252996D02*
Y794500D01*
X250996D02*
Y838000D01*
X248996D02*
Y794500D01*
X246996D02*
Y838000D01*
X244996D02*
Y794500D01*
X242996D02*
Y838000D01*
X240996D02*
Y794500D01*
X238996D02*
Y838000D01*
X236996D02*
Y794500D01*
X234996D02*
Y838000D01*
X232996D02*
Y794500D01*
X230996D02*
Y838000D01*
X228996D02*
Y794500D01*
X226996D02*
Y838000D01*
X224996D02*
Y794500D01*
X222996D02*
Y838000D01*
X220996D02*
Y794500D01*
X218996D02*
Y838000D01*
X216996D02*
Y794500D01*
X214996D02*
Y838000D01*
X212996D02*
Y794500D01*
X210996D02*
Y838000D01*
X208996D02*
Y794500D01*
X206996D02*
Y838000D01*
X204996D02*
Y794500D01*
X202996D02*
Y838000D01*
X200996D02*
Y794500D01*
X198996D02*
Y838000D01*
X196996D02*
Y794500D01*
X194996D02*
Y838000D01*
X192996D02*
Y794500D01*
X190996D02*
Y838000D01*
X188996D02*
Y794500D01*
X186996D02*
Y838000D01*
X184996D02*
Y794500D01*
X182996D02*
Y838000D01*
X180996D02*
Y794500D01*
X178996D02*
Y838000D01*
X176996D02*
Y794500D01*
X174996D02*
Y838000D01*
X172996D02*
Y794500D01*
X170996D02*
Y838000D01*
X168996D02*
Y794500D01*
X166996D02*
Y838000D01*
X164996D02*
Y794500D01*
X162996D02*
Y838000D01*
X160996D02*
Y794500D01*
X158996D02*
Y838000D01*
X156996D02*
Y794500D01*
X154996D02*
Y838000D01*
X152996D02*
Y794500D01*
X150996D02*
Y838000D01*
X148996D02*
Y794500D01*
X146996D02*
Y838000D01*
X144996D02*
Y794500D01*
X142996D02*
Y838000D01*
X140996D02*
Y794500D01*
X138996D02*
Y838000D01*
X136996D02*
Y794500D01*
X134996D02*
Y838000D01*
X132996D02*
Y794500D01*
X130996D02*
Y838000D01*
X128996D02*
Y794500D01*
X126996D02*
Y838000D01*
X124996D02*
Y794500D01*
X122996D02*
Y838000D01*
X120996D02*
Y794446D01*
X340996Y702750D02*
Y695483D01*
X558996Y91102D02*
Y72000D01*
X560995D02*
Y91102D01*
X562995D02*
Y72000D01*
X564995D02*
Y91102D01*
X566996D02*
Y72000D01*
X568996D02*
Y91102D01*
X570995D02*
Y72000D01*
X572995D02*
Y91102D01*
X574995D02*
Y72000D01*
X576996D02*
Y91102D01*
X578996D02*
Y72000D01*
X580995D02*
Y91102D01*
X582995D02*
Y72000D01*
X584995D02*
Y91102D01*
X586996D02*
Y72000D01*
X588996D02*
Y91102D01*
X590995D02*
Y72000D01*
X592995D02*
Y91102D01*
X594995D02*
Y72000D01*
X596996D02*
Y91102D01*
X598995D02*
Y72000D01*
X600995D02*
Y91102D01*
X602995D02*
Y72000D01*
X604995D02*
Y91102D01*
X606995D02*
Y72000D01*
X608995D02*
Y91102D01*
X610995D02*
Y72000D01*
X612995D02*
Y91102D01*
X614995D02*
Y72000D01*
X616995D02*
Y91102D01*
D11*
X200000Y52500D02*
X700000D01*
X715250Y62250D02*
X725000Y52500D01*
X715250Y62250D02*
X206750D01*
X185000Y84000D01*
Y347500D01*
X170000D02*
Y82500D01*
X200000Y52500D01*
X320598Y153402D02*
X330402D01*
X387402D01*
X404000Y170000D01*
X401000D01*
X374000Y197000D01*
X330402Y153402D01*
X155000Y347500D02*
X79000Y423500D01*
Y729000D01*
X125000Y775000D01*
X697500D01*
X740250Y784750D02*
X750000Y775000D01*
X740250Y784750D02*
X122022D01*
X70000Y732728D01*
Y417500D01*
X140000Y347500D01*
D12*
X219897Y115104D02*
Y357604D01*
X207500Y370000D01*
X219897Y115104D02*
X232397Y102604D01*
X268801D01*
X269000Y102602D02*
X787602D01*
X799000Y114000D01*
Y139000D01*
X806000Y146000D01*
X847000D01*
X864997Y163997D01*
Y169996D01*
Y309998D01*
X881000Y326000D01*
X925000D01*
D13*
X352999Y216000D02*
Y427214D01*
X341000Y439213D01*
Y456000D01*
X332000Y465000D01*
Y472000D01*
X338750Y465321D02*
Y482796D01*
X323000Y498546D01*
Y599000D01*
X345000Y586000D02*
Y499858D01*
X353750Y491108D01*
Y471534D01*
X363713Y461571D01*
Y444784D01*
X372999Y435498D01*
Y417524D01*
X421023Y369500D01*
X457571D01*
X466999Y360072D01*
Y272999D01*
X460000Y267000D02*
Y360000D01*
X455500Y364500D01*
X418952D01*
X367999Y415453D01*
Y433427D01*
X358713Y442713D01*
Y459500D01*
X348750Y469463D01*
Y486938D01*
X337000Y498688D01*
Y573000D01*
X359000Y560000D02*
X359142Y559858D01*
Y499858D01*
X363750Y495250D01*
Y480000D01*
X373713Y470037D01*
Y448926D01*
X382999Y439640D01*
Y421666D01*
X425165Y379500D01*
X462358D01*
X480999Y360859D01*
Y285999D01*
X473999Y279999D02*
Y360788D01*
X460287Y374500D01*
X423094D01*
X377999Y419595D01*
Y437569D01*
X368713Y446855D01*
Y463642D01*
X358750Y473605D01*
Y493179D01*
X352000Y499929D01*
Y548000D01*
X375000Y535000D02*
Y482892D01*
X383713Y474179D01*
Y453068D01*
X392999Y443782D01*
Y425808D01*
X429308Y389500D01*
X466500D01*
X494999Y361001D01*
Y299999D01*
X487999Y292999D02*
Y360930D01*
X464429Y384500D01*
X427237D01*
X387999Y423737D01*
Y441711D01*
X378713Y450997D01*
Y472108D01*
X368750Y482071D01*
Y511250D01*
X366000Y514000D01*
Y523000D01*
X330000Y498617D02*
X343750Y484867D01*
Y467392D01*
X352678Y458465D01*
Y441678D01*
X362999Y431356D01*
Y413382D01*
X392750Y383632D01*
Y266271D01*
X385000Y262000D02*
Y384310D01*
X357999Y411311D01*
Y429285D01*
X347142Y440142D01*
Y456929D01*
X338750Y465321D01*
X325000Y464929D02*
X336000Y453929D01*
Y437142D01*
X345750Y427392D01*
Y223250D01*
X346000Y223000D01*
X339000Y230000D02*
Y427071D01*
X329000Y437071D01*
Y447000D01*
X322000Y437000D02*
X332000Y427000D01*
Y237000D01*
X324999Y244000D02*
Y420999D01*
X325000Y421000D01*
X362000Y393546D02*
Y248000D01*
X370000Y253000D02*
Y373000D01*
X432000Y331000D02*
Y180000D01*
X424999Y186999D02*
Y294000D01*
X418000Y306000D02*
Y193000D01*
X411000Y201000D02*
X411000Y201000D01*
Y273000D01*
X402000Y280000D02*
X403000Y281000D01*
X402000Y280000D02*
Y204000D01*
X439000Y173000D02*
Y319000D01*
X452999Y345000D02*
Y160750D01*
X446000Y166000D02*
Y356000D01*
X517000Y302000D02*
Y152000D01*
X524000Y146750D02*
Y308000D01*
X530999Y313999D02*
Y122000D01*
X546000Y120000D02*
Y326998D01*
X545999Y326999D01*
X538999Y319999D02*
Y140000D01*
X378000Y257000D02*
Y380000D01*
X322000Y437000D02*
Y458000D01*
X325000Y464929D02*
Y484000D01*
X330000Y498617D02*
Y610000D01*
D14*
X432000Y396000D02*
X570498D01*
X594998Y371500D01*
X596648Y379750D02*
X644748D01*
X652998Y371500D01*
X596648Y379750D02*
X573398Y403000D01*
X434899D01*
X406499Y431400D01*
Y450714D01*
X397213Y460000D01*
Y481186D01*
X390250Y488149D01*
Y676352D01*
X354602Y712000D01*
X338000D01*
X337802Y686802D02*
X383250Y641354D01*
Y485250D01*
X390213Y478287D01*
Y457000D01*
X399499Y447714D01*
Y428501D01*
X432000Y396000D01*
X815000Y131000D02*
X859400D01*
X889000Y101400D01*
X1048400D01*
X1062000Y115000D01*
Y217000D01*
X1049000D01*
X921003Y169996D02*
X925000Y165999D01*
X937998Y153001D01*
Y110000D01*
X921003Y169996D02*
X864997D01*
D15*
X32000Y32000D02*
D03*
Y808000D02*
D03*
X1168000Y32000D02*
D03*
Y808000D02*
D03*
D16*
X268801Y102604D02*
D03*
X278801D02*
D03*
X368302Y76302D02*
D03*
X404000Y170000D02*
D03*
X424999Y186999D02*
D03*
X432000Y180000D02*
D03*
X439000Y173000D02*
D03*
X446000Y166000D02*
D03*
X452999Y160750D02*
D03*
X530999Y122000D02*
D03*
X546000Y120000D02*
D03*
X538999Y140000D02*
D03*
X524000Y146750D02*
D03*
X516999Y154000D02*
D03*
X517000Y302000D02*
D03*
X501999Y305999D02*
D03*
X524000Y308000D02*
D03*
X530999Y313999D02*
D03*
X538999Y319999D02*
D03*
X545999Y326999D02*
D03*
X594998Y371500D02*
D03*
X652998Y371500D02*
D03*
X697000Y379000D02*
D03*
Y394000D02*
D03*
X766000Y372000D02*
D03*
X797501Y372501D02*
D03*
X930000Y247000D02*
D03*
Y238000D02*
D03*
Y229000D02*
D03*
X947000Y216000D02*
D03*
X938000Y166001D02*
D03*
X925000Y165999D02*
D03*
X924998Y110000D02*
D03*
X937998D02*
D03*
X869643Y143350D02*
D03*
X864997Y169996D02*
D03*
X901702Y110000D02*
D03*
X815000Y131000D02*
D03*
X834997Y169996D02*
D03*
X825502Y105205D02*
D03*
X725000Y52500D02*
D03*
X700000D02*
D03*
X935000Y304000D02*
D03*
X980000Y205000D02*
D03*
X1010000D02*
D03*
X1023000Y217000D02*
D03*
X1036000D02*
D03*
X1049000D02*
D03*
Y208000D02*
D03*
X1062000Y217000D02*
D03*
X1075000Y250000D02*
D03*
X950000Y350000D02*
D03*
X927501Y365499D02*
D03*
X925000Y326000D02*
D03*
X750000Y775000D02*
D03*
X697500D02*
D03*
X1016597Y802200D02*
D03*
X446000Y356000D02*
D03*
X453000Y345000D02*
D03*
X439000Y319000D02*
D03*
X460000Y267000D02*
D03*
X466999Y272999D02*
D03*
X473999Y279999D02*
D03*
X480999Y285999D02*
D03*
X487999Y292999D02*
D03*
X494999Y299999D02*
D03*
X432000Y331000D02*
D03*
X402000Y365000D02*
D03*
X418000Y306000D02*
D03*
X425000Y294000D02*
D03*
X411000Y273000D02*
D03*
X403000Y281000D02*
D03*
X392750Y266271D02*
D03*
X385000Y262000D02*
D03*
X378000Y257000D02*
D03*
X402000Y204000D02*
D03*
X411000Y201000D02*
D03*
X418000Y193000D02*
D03*
X370000Y253000D02*
D03*
X362000Y248000D02*
D03*
X332000Y237000D02*
D03*
X339000Y230000D02*
D03*
X346000Y223000D02*
D03*
X352999Y216000D02*
D03*
X374000Y197000D02*
D03*
X324999Y244000D02*
D03*
X320598Y153402D02*
D03*
X290000Y255000D02*
D03*
X280000D02*
D03*
X270000D02*
D03*
X220000Y325000D02*
D03*
X200000Y347500D02*
D03*
X270000Y382000D02*
D03*
X280000D02*
D03*
X290000D02*
D03*
X325000Y421000D02*
D03*
X362000Y393546D02*
D03*
X370000Y373000D02*
D03*
X378000Y380000D02*
D03*
X329000Y447000D02*
D03*
X322000Y458000D02*
D03*
X332000Y472000D02*
D03*
X325000Y484000D02*
D03*
X366000Y523000D02*
D03*
X375000Y535000D02*
D03*
X352000Y548000D02*
D03*
X359000Y560000D02*
D03*
X337000Y573000D02*
D03*
X345000Y586000D02*
D03*
X323000Y599000D02*
D03*
X330000Y610000D02*
D03*
X337802Y686802D02*
D03*
X338000Y712000D02*
D03*
X290000Y636000D02*
D03*
X280000D02*
D03*
X270000D02*
D03*
Y509000D02*
D03*
X280000D02*
D03*
X290000D02*
D03*
X207500Y370000D02*
D03*
X190000Y422500D02*
D03*
X177500D02*
D03*
X157500D02*
D03*
X155000Y347500D02*
D03*
X140000Y347500D02*
D03*
X170000D02*
D03*
X185000D02*
D03*
X355000Y801000D02*
D03*
M02*
