G04*
G04 #@! TF.GenerationSoftware,Altium Limited,Altium Designer,20.0.7 (75)*
G04*
G04 Layer_Color=8388736*
%FSLAX44Y44*%
%MOMM*%
G71*
G01*
G75*
%ADD16C,0.3283*%
%ADD17C,0.4103*%
%ADD18R,1.3000X2.5000*%
%ADD19R,0.9000X1.0000*%
%ADD20C,1.6000*%
%ADD21R,1.6000X1.6000*%
%ADD22C,6.1000*%
%ADD23R,1.6000X1.6000*%
G36*
X557804Y388268D02*
X552456D01*
X552287Y388284D01*
X552087Y388299D01*
X551872Y388330D01*
X551626Y388376D01*
X551350Y388422D01*
X551058Y388483D01*
X550766Y388560D01*
X550458Y388668D01*
X550151Y388775D01*
X549859Y388914D01*
X549552Y389083D01*
X549275Y389267D01*
X549014Y389482D01*
X548998Y389498D01*
X548952Y389544D01*
X548891Y389605D01*
X548814Y389697D01*
X548707Y389820D01*
X548599Y389974D01*
X548476Y390143D01*
X548353Y390343D01*
X548230Y390558D01*
X548107Y390804D01*
X548000Y391065D01*
X547892Y391357D01*
X547815Y391664D01*
X547754Y391987D01*
X547708Y392341D01*
X547692Y392709D01*
Y392725D01*
Y392802D01*
X547708Y392894D01*
X547723Y393032D01*
X547738Y393216D01*
X547769Y393401D01*
X547815Y393616D01*
X547892Y393862D01*
X547969Y394108D01*
X548077Y394369D01*
X548199Y394630D01*
X548353Y394907D01*
X548522Y395168D01*
X548737Y395429D01*
X548968Y395675D01*
X549244Y395906D01*
X549229Y395921D01*
X549168Y395952D01*
X549075Y395998D01*
X548968Y396090D01*
X548845Y396182D01*
X548691Y396320D01*
X548537Y396474D01*
X548368Y396674D01*
X548199Y396889D01*
X548046Y397135D01*
X547892Y397412D01*
X547769Y397734D01*
X547646Y398088D01*
X547569Y398472D01*
X547508Y398887D01*
X547492Y399348D01*
Y399363D01*
Y399394D01*
Y399455D01*
X547508Y399548D01*
Y399640D01*
X547523Y399763D01*
X547539Y399901D01*
X547569Y400055D01*
X547646Y400393D01*
X547754Y400762D01*
X547907Y401176D01*
X548107Y401591D01*
X548246Y401807D01*
X548384Y402006D01*
X548537Y402221D01*
X548707Y402421D01*
X548906Y402606D01*
X549106Y402790D01*
X549337Y402975D01*
X549598Y403128D01*
X549859Y403282D01*
X550166Y403420D01*
X550489Y403543D01*
X550827Y403635D01*
X551196Y403727D01*
X551595Y403789D01*
X552026Y403820D01*
X552471Y403835D01*
X557804D01*
Y388268D01*
D02*
G37*
G36*
Y342341D02*
X553516D01*
X553393Y342356D01*
X553209Y342372D01*
X552979Y342387D01*
X552717Y342433D01*
X552425Y342479D01*
X552103Y342556D01*
X551764Y342648D01*
X551411Y342756D01*
X551042Y342894D01*
X550658Y343063D01*
X550289Y343263D01*
X549905Y343494D01*
X549536Y343755D01*
X549183Y344062D01*
X549152Y344093D01*
X549091Y344154D01*
X548983Y344277D01*
X548829Y344431D01*
X548660Y344646D01*
X548476Y344892D01*
X548276Y345184D01*
X548061Y345522D01*
X547861Y345906D01*
X547662Y346321D01*
X547477Y346782D01*
X547308Y347274D01*
X547154Y347812D01*
X547047Y348396D01*
X546985Y349010D01*
X546955Y349656D01*
Y349671D01*
Y349702D01*
Y349763D01*
Y349840D01*
X546970Y349932D01*
Y350055D01*
Y350194D01*
X546985Y350347D01*
X547001Y350516D01*
X547016Y350701D01*
X547078Y351100D01*
X547139Y351546D01*
X547231Y352038D01*
X547354Y352545D01*
X547508Y353067D01*
X547677Y353605D01*
X547907Y354143D01*
X548153Y354665D01*
X548461Y355173D01*
X548799Y355649D01*
X549198Y356079D01*
X549214Y356095D01*
X549275Y356156D01*
X549383Y356248D01*
X549521Y356356D01*
X549690Y356494D01*
X549905Y356648D01*
X550151Y356817D01*
X550428Y356970D01*
X550735Y357140D01*
X551058Y357309D01*
X551427Y357462D01*
X551811Y357601D01*
X552225Y357708D01*
X552671Y357800D01*
X553132Y357862D01*
X553609Y357877D01*
X557804D01*
Y342341D01*
D02*
G37*
%LPC*%
G36*
X555545Y401515D02*
X552349D01*
X552225Y401499D01*
X552041Y401484D01*
X551841Y401453D01*
X551611Y401392D01*
X551365Y401330D01*
X551104Y401238D01*
X550858Y401130D01*
X550612Y400977D01*
X550382Y400808D01*
X550182Y400593D01*
X549997Y400347D01*
X549874Y400055D01*
X549782Y399717D01*
X549752Y399532D01*
Y399333D01*
Y399302D01*
Y399240D01*
X549767Y399117D01*
X549798Y398979D01*
X549844Y398810D01*
X549905Y398610D01*
X549982Y398410D01*
X550105Y398195D01*
X550259Y397980D01*
X550443Y397780D01*
X550673Y397581D01*
X550950Y397412D01*
X551273Y397273D01*
X551657Y397150D01*
X551872Y397120D01*
X552087Y397089D01*
X552333Y397058D01*
X555545D01*
Y401515D01*
D02*
G37*
G36*
Y394738D02*
X552349D01*
X552225Y394722D01*
X552057Y394707D01*
X551872Y394676D01*
X551657Y394630D01*
X551442Y394569D01*
X551196Y394477D01*
X550965Y394369D01*
X550750Y394231D01*
X550535Y394062D01*
X550335Y393862D01*
X550182Y393631D01*
X550059Y393355D01*
X549982Y393047D01*
X549951Y392679D01*
Y392663D01*
Y392632D01*
Y392586D01*
X549967Y392509D01*
X549982Y392341D01*
X550043Y392110D01*
X550120Y391864D01*
X550259Y391603D01*
X550428Y391357D01*
X550550Y391249D01*
X550673Y391142D01*
X550689D01*
X550704Y391111D01*
X550750Y391096D01*
X550812Y391050D01*
X550873Y391019D01*
X550965Y390973D01*
X551073Y390911D01*
X551196Y390865D01*
X551473Y390758D01*
X551826Y390681D01*
X552225Y390619D01*
X552671Y390589D01*
X555545D01*
Y394738D01*
D02*
G37*
G36*
Y355557D02*
X553439D01*
X553317Y355541D01*
X553178Y355526D01*
X553009Y355495D01*
X552809Y355465D01*
X552610Y355418D01*
X552149Y355295D01*
X551918Y355219D01*
X551672Y355111D01*
X551427Y354988D01*
X551196Y354850D01*
X550950Y354696D01*
X550735Y354512D01*
X550720Y354496D01*
X550673Y354420D01*
X550597Y354327D01*
X550489Y354174D01*
X550382Y353989D01*
X550259Y353774D01*
X550120Y353513D01*
X549967Y353221D01*
X549828Y352883D01*
X549690Y352529D01*
X549567Y352130D01*
X549444Y351684D01*
X549352Y351223D01*
X549275Y350732D01*
X549229Y350209D01*
X549214Y349656D01*
Y349625D01*
Y349548D01*
X549229Y349425D01*
Y349256D01*
X549260Y349041D01*
X549290Y348811D01*
X549337Y348549D01*
X549398Y348257D01*
X549475Y347965D01*
X549567Y347658D01*
X549690Y347335D01*
X549828Y347013D01*
X549997Y346705D01*
X550197Y346398D01*
X550428Y346106D01*
X550689Y345845D01*
X550704Y345829D01*
X550750Y345799D01*
X550812Y345737D01*
X550904Y345660D01*
X551027Y345568D01*
X551181Y345476D01*
X551350Y345368D01*
X551534Y345261D01*
X551734Y345153D01*
X551964Y345046D01*
X552210Y344953D01*
X552471Y344861D01*
X552733Y344784D01*
X553025Y344723D01*
X553332Y344692D01*
X553639Y344677D01*
X555545D01*
Y355557D01*
D02*
G37*
%LPD*%
D16*
X529080Y396047D02*
G03*
X529080Y396047I-4103J0D01*
G01*
X534004Y373068D02*
G03*
X534004Y373068I-4103J0D01*
G01*
X529080Y350089D02*
G03*
X529080Y350089I-4103J0D01*
G01*
D17*
X577500Y407537D02*
X580783D01*
Y338600D02*
Y407537D01*
X577500Y338600D02*
Y407537D01*
Y338600D02*
X580783D01*
X529901Y396047D02*
X541390D01*
X541390Y407537D02*
X562728D01*
Y384558D02*
Y407537D01*
X541390Y384558D02*
X562728D01*
X541390D02*
Y407537D01*
X534825Y373068D02*
X546314D01*
X541390Y338600D02*
Y361579D01*
Y338600D02*
X562728D01*
Y361579D01*
X541390D02*
X562728D01*
X529901Y350089D02*
X541390D01*
X559445Y368144D02*
Y377993D01*
X552880Y368144D02*
Y377993D01*
D18*
X-537500Y245000D02*
D03*
Y155000D02*
D03*
X-582500Y245000D02*
D03*
Y155000D02*
D03*
X-537500Y-155000D02*
D03*
Y-245000D02*
D03*
X-582500Y-155000D02*
D03*
Y-245000D02*
D03*
X637500Y155000D02*
D03*
Y245000D02*
D03*
X682500Y155000D02*
D03*
Y245000D02*
D03*
X637500Y-245000D02*
D03*
Y-155000D02*
D03*
X682500Y-245000D02*
D03*
Y-155000D02*
D03*
D19*
X-537500Y130000D02*
D03*
X-551500D02*
D03*
X-537498Y-130000D02*
D03*
X-551498D02*
D03*
X637500Y130000D02*
D03*
X651500D02*
D03*
X637997Y-130000D02*
D03*
X651997D02*
D03*
X-568498Y130000D02*
D03*
X-582498D02*
D03*
X-568500Y-130000D02*
D03*
X-582500D02*
D03*
X668498Y130000D02*
D03*
X682498D02*
D03*
X668500Y-130000D02*
D03*
X682500D02*
D03*
D20*
X-333299Y317602D02*
D03*
Y292202D02*
D03*
Y266802D02*
D03*
Y241402D02*
D03*
Y216002D02*
D03*
Y190602D02*
D03*
Y165202D02*
D03*
Y139802D02*
D03*
Y114402D02*
D03*
Y89002D02*
D03*
Y63602D02*
D03*
Y38202D02*
D03*
Y12802D02*
D03*
Y-12598D02*
D03*
Y-37998D02*
D03*
Y-63398D02*
D03*
Y-88798D02*
D03*
Y-114198D02*
D03*
X-307899Y317602D02*
D03*
Y292202D02*
D03*
Y266802D02*
D03*
Y241402D02*
D03*
Y216002D02*
D03*
Y190602D02*
D03*
Y165202D02*
D03*
Y139802D02*
D03*
Y114402D02*
D03*
Y89002D02*
D03*
Y63602D02*
D03*
Y38202D02*
D03*
Y12802D02*
D03*
Y-12598D02*
D03*
Y-37998D02*
D03*
Y-63398D02*
D03*
Y-88798D02*
D03*
Y-114198D02*
D03*
Y-317398D02*
D03*
X-333299Y-291998D02*
D03*
X-307899D02*
D03*
X-333299Y-266598D02*
D03*
X-307899D02*
D03*
X-333299Y-241198D02*
D03*
X-307899D02*
D03*
X-333299Y-215798D02*
D03*
X-307899D02*
D03*
X-333299Y-190398D02*
D03*
X-307899D02*
D03*
X-333299Y-164998D02*
D03*
X-307899D02*
D03*
Y-139598D02*
D03*
X-333299D02*
D03*
X403302Y-342900D02*
D03*
X377902D02*
D03*
X352502D02*
D03*
X327102D02*
D03*
X301702D02*
D03*
X276302D02*
D03*
X250902D02*
D03*
X225502D02*
D03*
X200102D02*
D03*
X174702D02*
D03*
X149302D02*
D03*
X123902D02*
D03*
X98502D02*
D03*
X73102D02*
D03*
X47702D02*
D03*
X22302D02*
D03*
X-3098D02*
D03*
X-28498D02*
D03*
X403302Y-368300D02*
D03*
X377902D02*
D03*
X352502D02*
D03*
X327102D02*
D03*
X301702D02*
D03*
X276302D02*
D03*
X250902D02*
D03*
X225502D02*
D03*
X200102D02*
D03*
X174702D02*
D03*
X149302D02*
D03*
X123902D02*
D03*
X98502D02*
D03*
X73102D02*
D03*
X47702D02*
D03*
X22302D02*
D03*
X-3098D02*
D03*
X-28498D02*
D03*
X-231698D02*
D03*
X-206298Y-342900D02*
D03*
Y-368300D02*
D03*
X-180898Y-342900D02*
D03*
Y-368300D02*
D03*
X-155498Y-342900D02*
D03*
Y-368300D02*
D03*
X-130098Y-342900D02*
D03*
Y-368300D02*
D03*
X-104698Y-342900D02*
D03*
Y-368300D02*
D03*
X-79298Y-342900D02*
D03*
Y-368300D02*
D03*
X-53898D02*
D03*
Y-342900D02*
D03*
X403299Y368300D02*
D03*
X377899D02*
D03*
X352499D02*
D03*
X327099D02*
D03*
X301699D02*
D03*
X276299D02*
D03*
X250899D02*
D03*
X225499D02*
D03*
X200099D02*
D03*
X174699D02*
D03*
X149299D02*
D03*
X123899D02*
D03*
X98499D02*
D03*
X73099D02*
D03*
X47699D02*
D03*
X22299D02*
D03*
X-3101D02*
D03*
X-28501D02*
D03*
X403299Y342900D02*
D03*
X377899D02*
D03*
X352499D02*
D03*
X327099D02*
D03*
X301699D02*
D03*
X276299D02*
D03*
X250899D02*
D03*
X225499D02*
D03*
X200099D02*
D03*
X174699D02*
D03*
X149299D02*
D03*
X123899D02*
D03*
X98499D02*
D03*
X73099D02*
D03*
X47699D02*
D03*
X22299D02*
D03*
X-3101D02*
D03*
X-28501D02*
D03*
X-231701D02*
D03*
X-206301Y368300D02*
D03*
Y342900D02*
D03*
X-180901Y368300D02*
D03*
Y342900D02*
D03*
X-155501Y368300D02*
D03*
Y342900D02*
D03*
X-130101Y368300D02*
D03*
Y342900D02*
D03*
X-104701Y368300D02*
D03*
Y342900D02*
D03*
X-79301Y368300D02*
D03*
Y342900D02*
D03*
X-53901D02*
D03*
Y368300D02*
D03*
D21*
X-333299Y-317398D02*
D03*
D22*
X668000Y388000D02*
D03*
Y-388000D02*
D03*
X-568000D02*
D03*
Y388000D02*
D03*
D23*
X-231698Y-342900D02*
D03*
X-231701Y368300D02*
D03*
M02*
