G04*
G04 #@! TF.GenerationSoftware,Altium Limited,Altium Designer,20.0.7 (75)*
G04*
G04 Layer_Color=16711935*
%FSLAX44Y44*%
%MOMM*%
G71*
G01*
G75*
%ADD16C,0.3283*%
%ADD17C,0.4103*%
%ADD19R,0.9000X1.0000*%
%ADD20C,1.6000*%
%ADD21R,1.6000X1.6000*%
%ADD22C,6.1000*%
%ADD23R,1.6000X1.6000*%
%ADD41R,1.0000X0.9000*%
%ADD42R,2.7000X1.2000*%
%ADD43R,0.4000X1.1000*%
%ADD44R,1.7500X1.4000*%
%ADD45R,0.6600X2.2500*%
G04:AMPARAMS|DCode=46|XSize=0.35mm|YSize=0.8mm|CornerRadius=0.1125mm|HoleSize=0mm|Usage=FLASHONLY|Rotation=90.000|XOffset=0mm|YOffset=0mm|HoleType=Round|Shape=RoundedRectangle|*
%AMROUNDEDRECTD46*
21,1,0.3500,0.5750,0,0,90.0*
21,1,0.1250,0.8000,0,0,90.0*
1,1,0.2250,0.2875,0.0625*
1,1,0.2250,0.2875,-0.0625*
1,1,0.2250,-0.2875,-0.0625*
1,1,0.2250,-0.2875,0.0625*
%
%ADD46ROUNDEDRECTD46*%
%ADD47R,7.4000X1.0500*%
%ADD48O,0.8000X2.6000*%
G36*
X557804Y388260D02*
X553609D01*
X553132Y388275D01*
X552671Y388337D01*
X552225Y388429D01*
X551811Y388536D01*
X551427Y388675D01*
X551058Y388828D01*
X550735Y388997D01*
X550428Y389166D01*
X550151Y389320D01*
X549905Y389489D01*
X549690Y389643D01*
X549521Y389781D01*
X549383Y389889D01*
X549275Y389981D01*
X549214Y390042D01*
X549198Y390058D01*
X548799Y390488D01*
X548461Y390964D01*
X548153Y391471D01*
X547907Y391994D01*
X547677Y392532D01*
X547508Y393070D01*
X547354Y393592D01*
X547231Y394099D01*
X547139Y394591D01*
X547078Y395037D01*
X547016Y395436D01*
X547001Y395621D01*
X546985Y395790D01*
X546970Y395943D01*
Y396082D01*
Y396204D01*
X546955Y396297D01*
Y396374D01*
Y396435D01*
Y396466D01*
Y396481D01*
X546985Y397127D01*
X547047Y397741D01*
X547154Y398325D01*
X547308Y398863D01*
X547477Y399355D01*
X547662Y399816D01*
X547861Y400231D01*
X548061Y400615D01*
X548276Y400953D01*
X548476Y401245D01*
X548660Y401491D01*
X548829Y401706D01*
X548983Y401860D01*
X549091Y401982D01*
X549152Y402044D01*
X549183Y402075D01*
X549536Y402382D01*
X549905Y402643D01*
X550289Y402874D01*
X550658Y403074D01*
X551042Y403243D01*
X551411Y403381D01*
X551764Y403489D01*
X552103Y403581D01*
X552425Y403657D01*
X552717Y403704D01*
X552979Y403750D01*
X553209Y403765D01*
X553393Y403780D01*
X553516Y403796D01*
X557804D01*
Y388260D01*
D02*
G37*
G36*
Y342302D02*
X552471D01*
X552026Y342317D01*
X551595Y342348D01*
X551196Y342409D01*
X550827Y342502D01*
X550489Y342594D01*
X550166Y342717D01*
X549859Y342855D01*
X549598Y343009D01*
X549337Y343162D01*
X549106Y343347D01*
X548906Y343531D01*
X548707Y343716D01*
X548537Y343915D01*
X548384Y344131D01*
X548246Y344330D01*
X548107Y344546D01*
X547907Y344960D01*
X547754Y345375D01*
X547646Y345744D01*
X547569Y346082D01*
X547539Y346236D01*
X547523Y346374D01*
X547508Y346497D01*
Y346589D01*
X547492Y346682D01*
Y346743D01*
Y346774D01*
Y346789D01*
X547508Y347250D01*
X547569Y347665D01*
X547646Y348049D01*
X547769Y348403D01*
X547892Y348725D01*
X548046Y349002D01*
X548199Y349248D01*
X548368Y349463D01*
X548537Y349663D01*
X548691Y349816D01*
X548845Y349955D01*
X548968Y350047D01*
X549075Y350139D01*
X549168Y350185D01*
X549229Y350216D01*
X549244Y350231D01*
X548968Y350462D01*
X548737Y350708D01*
X548522Y350969D01*
X548353Y351230D01*
X548199Y351507D01*
X548077Y351768D01*
X547969Y352029D01*
X547892Y352275D01*
X547815Y352521D01*
X547769Y352736D01*
X547738Y352920D01*
X547723Y353105D01*
X547708Y353243D01*
X547692Y353335D01*
Y353412D01*
Y353428D01*
X547708Y353796D01*
X547754Y354150D01*
X547815Y354473D01*
X547892Y354780D01*
X548000Y355072D01*
X548107Y355333D01*
X548230Y355579D01*
X548353Y355794D01*
X548476Y355994D01*
X548599Y356163D01*
X548707Y356317D01*
X548814Y356440D01*
X548891Y356532D01*
X548952Y356593D01*
X548998Y356639D01*
X549014Y356655D01*
X549275Y356870D01*
X549552Y357054D01*
X549859Y357223D01*
X550151Y357361D01*
X550458Y357469D01*
X550766Y357577D01*
X551058Y357654D01*
X551350Y357715D01*
X551626Y357761D01*
X551872Y357807D01*
X552087Y357838D01*
X552287Y357853D01*
X552456Y357869D01*
X557804D01*
Y342302D01*
D02*
G37*
G36*
X54598Y85993D02*
X54692Y85964D01*
X54779Y85918D01*
X54855Y85855D01*
X54918Y85779D01*
X54964Y85692D01*
X54993Y85598D01*
X55002Y85500D01*
Y69000D01*
X54993Y68902D01*
X54964Y68808D01*
X54918Y68721D01*
X54855Y68645D01*
X54779Y68582D01*
X54692Y68536D01*
X54598Y68507D01*
X54500Y68498D01*
X43000D01*
X42968Y68501D01*
X42937Y68502D01*
X42920Y68506D01*
X42902Y68507D01*
X42872Y68516D01*
X42841Y68523D01*
X42825Y68531D01*
X42808Y68536D01*
X42780Y68551D01*
X42751Y68564D01*
X42737Y68574D01*
X42721Y68582D01*
X42696Y68602D01*
X42671Y68621D01*
X42659Y68633D01*
X42645Y68645D01*
X42625Y68669D01*
X42603Y68692D01*
X42593Y68707D01*
X42582Y68721D01*
X42568Y68748D01*
X42551Y68775D01*
X40571Y72735D01*
X39103Y74692D01*
X37137Y77149D01*
X33705Y80091D01*
X31258Y81559D01*
X29307Y82535D01*
X23396Y84505D01*
X18002Y84995D01*
X13074Y84502D01*
X10610Y84010D01*
X8675Y83526D01*
X5737Y82057D01*
X2291Y80087D01*
X-1141Y77146D01*
X-3597Y74199D01*
X-4565Y72747D01*
X-6551Y68775D01*
X-6568Y68748D01*
X-6582Y68721D01*
X-6593Y68707D01*
X-6603Y68692D01*
X-6625Y68669D01*
X-6645Y68645D01*
X-6659Y68633D01*
X-6671Y68621D01*
X-6696Y68602D01*
X-6721Y68582D01*
X-6737Y68574D01*
X-6751Y68564D01*
X-6780Y68551D01*
X-6808Y68536D01*
X-6825Y68531D01*
X-6841Y68523D01*
X-6872Y68516D01*
X-6902Y68507D01*
X-6920Y68506D01*
X-6937Y68502D01*
X-6969Y68501D01*
X-7000Y68498D01*
X-18500D01*
X-18598Y68507D01*
X-18692Y68536D01*
X-18779Y68582D01*
X-18855Y68645D01*
X-18918Y68721D01*
X-18964Y68808D01*
X-18993Y68902D01*
X-19002Y69000D01*
Y85500D01*
X-18993Y85598D01*
X-18964Y85692D01*
X-18918Y85779D01*
X-18855Y85855D01*
X-18779Y85918D01*
X-18692Y85964D01*
X-18598Y85993D01*
X-18500Y86002D01*
X54500D01*
X54598Y85993D01*
D02*
G37*
G36*
Y48493D02*
X54692Y48464D01*
X54779Y48418D01*
X54855Y48355D01*
X54918Y48279D01*
X54964Y48192D01*
X54993Y48098D01*
X55002Y48000D01*
Y31500D01*
X54993Y31402D01*
X54964Y31308D01*
X54918Y31221D01*
X54855Y31145D01*
X54779Y31082D01*
X54692Y31036D01*
X54598Y31007D01*
X54500Y30998D01*
X-18500D01*
X-18598Y31007D01*
X-18692Y31036D01*
X-18779Y31082D01*
X-18855Y31145D01*
X-18918Y31221D01*
X-18964Y31308D01*
X-18993Y31402D01*
X-19002Y31500D01*
Y48000D01*
X-18993Y48098D01*
X-18964Y48192D01*
X-18918Y48279D01*
X-18855Y48355D01*
X-18779Y48418D01*
X-18692Y48464D01*
X-18598Y48493D01*
X-18500Y48502D01*
X-7000D01*
X-6969Y48499D01*
X-6937Y48499D01*
X-6920Y48495D01*
X-6902Y48493D01*
X-6872Y48484D01*
X-6841Y48477D01*
X-6825Y48469D01*
X-6808Y48464D01*
X-6780Y48449D01*
X-6751Y48436D01*
X-6737Y48426D01*
X-6721Y48418D01*
X-6696Y48398D01*
X-6671Y48380D01*
X-6659Y48367D01*
X-6645Y48355D01*
X-6625Y48331D01*
X-6603Y48308D01*
X-6593Y48293D01*
X-6582Y48279D01*
X-6568Y48252D01*
X-6551Y48225D01*
X-5065Y45253D01*
X-3099Y42304D01*
X-154Y38869D01*
X3765Y35929D01*
X8675Y33474D01*
X12584Y32497D01*
X17998Y32005D01*
X22913Y32496D01*
X24878Y32987D01*
X26845Y33479D01*
X29294Y34459D01*
X31258Y35441D01*
X33712Y36913D01*
X36164Y38875D01*
X36625Y39336D01*
X38599Y41803D01*
X41068Y45260D01*
X42551Y48225D01*
X42568Y48252D01*
X42582Y48279D01*
X42593Y48293D01*
X42603Y48308D01*
X42625Y48331D01*
X42645Y48355D01*
X42659Y48367D01*
X42671Y48380D01*
X42696Y48398D01*
X42721Y48418D01*
X42737Y48426D01*
X42751Y48436D01*
X42780Y48449D01*
X42808Y48464D01*
X42825Y48469D01*
X42841Y48477D01*
X42872Y48484D01*
X42902Y48493D01*
X42920Y48495D01*
X42937Y48499D01*
X42968Y48499D01*
X43000Y48502D01*
X54500D01*
X54598Y48493D01*
D02*
G37*
%LPC*%
G36*
X555545Y401460D02*
X553639D01*
X553332Y401445D01*
X553025Y401414D01*
X552733Y401353D01*
X552471Y401276D01*
X552210Y401183D01*
X551964Y401091D01*
X551734Y400984D01*
X551534Y400876D01*
X551350Y400769D01*
X551181Y400661D01*
X551027Y400569D01*
X550904Y400476D01*
X550812Y400400D01*
X550750Y400338D01*
X550704Y400308D01*
X550689Y400292D01*
X550428Y400031D01*
X550197Y399739D01*
X549997Y399432D01*
X549828Y399124D01*
X549690Y398801D01*
X549567Y398479D01*
X549475Y398172D01*
X549398Y397879D01*
X549337Y397588D01*
X549290Y397326D01*
X549260Y397096D01*
X549229Y396881D01*
Y396712D01*
X549214Y396589D01*
Y396512D01*
Y396481D01*
X549229Y395928D01*
X549275Y395405D01*
X549352Y394914D01*
X549444Y394453D01*
X549567Y394007D01*
X549690Y393607D01*
X549828Y393254D01*
X549967Y392916D01*
X550120Y392624D01*
X550259Y392363D01*
X550382Y392148D01*
X550489Y391963D01*
X550597Y391810D01*
X550673Y391717D01*
X550720Y391641D01*
X550735Y391625D01*
X550950Y391441D01*
X551196Y391287D01*
X551427Y391149D01*
X551672Y391026D01*
X551918Y390918D01*
X552149Y390841D01*
X552610Y390718D01*
X552809Y390672D01*
X553009Y390642D01*
X553178Y390611D01*
X553317Y390596D01*
X553439Y390580D01*
X555545D01*
Y401460D01*
D02*
G37*
G36*
Y355548D02*
X552671D01*
X552225Y355518D01*
X551826Y355456D01*
X551473Y355379D01*
X551196Y355272D01*
X551073Y355225D01*
X550965Y355164D01*
X550873Y355118D01*
X550812Y355087D01*
X550750Y355041D01*
X550704Y355026D01*
X550689Y354995D01*
X550673D01*
X550550Y354888D01*
X550428Y354780D01*
X550259Y354534D01*
X550120Y354273D01*
X550043Y354027D01*
X549982Y353796D01*
X549967Y353627D01*
X549951Y353550D01*
Y353504D01*
Y353474D01*
Y353458D01*
X549982Y353089D01*
X550059Y352782D01*
X550182Y352506D01*
X550335Y352275D01*
X550535Y352075D01*
X550750Y351906D01*
X550965Y351768D01*
X551196Y351660D01*
X551442Y351568D01*
X551657Y351507D01*
X551872Y351461D01*
X552057Y351430D01*
X552225Y351414D01*
X552349Y351399D01*
X555545D01*
Y355548D01*
D02*
G37*
G36*
Y349079D02*
X552333D01*
X552087Y349048D01*
X551872Y349017D01*
X551657Y348987D01*
X551273Y348864D01*
X550950Y348725D01*
X550673Y348556D01*
X550443Y348357D01*
X550259Y348157D01*
X550105Y347942D01*
X549982Y347726D01*
X549905Y347527D01*
X549844Y347327D01*
X549798Y347158D01*
X549767Y347020D01*
X549752Y346897D01*
Y346835D01*
Y346804D01*
Y346605D01*
X549782Y346420D01*
X549874Y346082D01*
X549997Y345790D01*
X550182Y345544D01*
X550382Y345329D01*
X550612Y345160D01*
X550858Y345006D01*
X551104Y344899D01*
X551365Y344807D01*
X551611Y344745D01*
X551841Y344684D01*
X552041Y344653D01*
X552225Y344638D01*
X552349Y344622D01*
X555545D01*
Y349079D01*
D02*
G37*
%LPD*%
D16*
X529080Y396047D02*
G03*
X529080Y396047I-4103J0D01*
G01*
X534004Y373068D02*
G03*
X534004Y373068I-4103J0D01*
G01*
X529080Y350089D02*
G03*
X529080Y350089I-4103J0D01*
G01*
D17*
X552880Y368144D02*
Y377993D01*
X559445Y368144D02*
Y377993D01*
X529901Y396047D02*
X541390D01*
X541390Y384558D02*
X562728D01*
Y407537D01*
X541390D02*
X562728D01*
X541390Y384558D02*
Y407537D01*
X534825Y373068D02*
X546314D01*
X541390Y338600D02*
Y361579D01*
X562728D01*
Y338600D02*
Y361579D01*
X541390Y338600D02*
X562728D01*
X529901Y350089D02*
X541390D01*
X577500Y407537D02*
X580783D01*
X577500Y338600D02*
Y407537D01*
X580783Y338600D02*
Y407537D01*
X577500Y338600D02*
X580783D01*
D19*
X111002Y-21500D02*
D03*
X97002D02*
D03*
X97002Y-8500D02*
D03*
X111002D02*
D03*
X110998Y4500D02*
D03*
X96998D02*
D03*
X110998Y17500D02*
D03*
X96998D02*
D03*
X97002Y30500D02*
D03*
X111002D02*
D03*
X63998Y30500D02*
D03*
X77998D02*
D03*
X63998Y17500D02*
D03*
X77998D02*
D03*
X193097Y106000D02*
D03*
X207097D02*
D03*
D20*
X-333299Y317602D02*
D03*
Y292202D02*
D03*
Y266802D02*
D03*
Y241402D02*
D03*
Y216002D02*
D03*
Y190602D02*
D03*
Y165202D02*
D03*
Y139802D02*
D03*
Y114402D02*
D03*
Y89002D02*
D03*
Y63602D02*
D03*
Y38202D02*
D03*
Y12802D02*
D03*
Y-12598D02*
D03*
Y-37998D02*
D03*
Y-63398D02*
D03*
Y-88798D02*
D03*
Y-114198D02*
D03*
X-307899Y317602D02*
D03*
Y292202D02*
D03*
Y266802D02*
D03*
Y241402D02*
D03*
Y216002D02*
D03*
Y190602D02*
D03*
Y165202D02*
D03*
Y139802D02*
D03*
Y114402D02*
D03*
Y89002D02*
D03*
Y63602D02*
D03*
Y38202D02*
D03*
Y12802D02*
D03*
Y-12598D02*
D03*
Y-37998D02*
D03*
Y-63398D02*
D03*
Y-88798D02*
D03*
Y-114198D02*
D03*
Y-317398D02*
D03*
X-333299Y-291998D02*
D03*
X-307899D02*
D03*
X-333299Y-266598D02*
D03*
X-307899D02*
D03*
X-333299Y-241198D02*
D03*
X-307899D02*
D03*
X-333299Y-215798D02*
D03*
X-307899D02*
D03*
X-333299Y-190398D02*
D03*
X-307899D02*
D03*
X-333299Y-164998D02*
D03*
X-307899D02*
D03*
Y-139598D02*
D03*
X-333299D02*
D03*
X403302Y-342900D02*
D03*
X377902D02*
D03*
X352502D02*
D03*
X327102D02*
D03*
X301702D02*
D03*
X276302D02*
D03*
X250902D02*
D03*
X225502D02*
D03*
X200102D02*
D03*
X174702D02*
D03*
X149302D02*
D03*
X123902D02*
D03*
X98502D02*
D03*
X73102D02*
D03*
X47702D02*
D03*
X22302D02*
D03*
X-3098D02*
D03*
X-28498D02*
D03*
X403302Y-368300D02*
D03*
X377902D02*
D03*
X352502D02*
D03*
X327102D02*
D03*
X301702D02*
D03*
X276302D02*
D03*
X250902D02*
D03*
X225502D02*
D03*
X200102D02*
D03*
X174702D02*
D03*
X149302D02*
D03*
X123902D02*
D03*
X98502D02*
D03*
X73102D02*
D03*
X47702D02*
D03*
X22302D02*
D03*
X-3098D02*
D03*
X-28498D02*
D03*
X-231698D02*
D03*
X-206298Y-342900D02*
D03*
Y-368300D02*
D03*
X-180898Y-342900D02*
D03*
Y-368300D02*
D03*
X-155498Y-342900D02*
D03*
Y-368300D02*
D03*
X-130098Y-342900D02*
D03*
Y-368300D02*
D03*
X-104698Y-342900D02*
D03*
Y-368300D02*
D03*
X-79298Y-342900D02*
D03*
Y-368300D02*
D03*
X-53898D02*
D03*
Y-342900D02*
D03*
X403299Y368300D02*
D03*
X377899D02*
D03*
X352499D02*
D03*
X327099D02*
D03*
X301699D02*
D03*
X276299D02*
D03*
X250899D02*
D03*
X225499D02*
D03*
X200099D02*
D03*
X174699D02*
D03*
X149299D02*
D03*
X123899D02*
D03*
X98499D02*
D03*
X73099D02*
D03*
X47699D02*
D03*
X22299D02*
D03*
X-3101D02*
D03*
X-28501D02*
D03*
X403299Y342900D02*
D03*
X377899D02*
D03*
X352499D02*
D03*
X327099D02*
D03*
X301699D02*
D03*
X276299D02*
D03*
X250899D02*
D03*
X225499D02*
D03*
X200099D02*
D03*
X174699D02*
D03*
X149299D02*
D03*
X123899D02*
D03*
X98499D02*
D03*
X73099D02*
D03*
X47699D02*
D03*
X22299D02*
D03*
X-3101D02*
D03*
X-28501D02*
D03*
X-231701D02*
D03*
X-206301Y368300D02*
D03*
Y342900D02*
D03*
X-180901Y368300D02*
D03*
Y342900D02*
D03*
X-155501Y368300D02*
D03*
Y342900D02*
D03*
X-130101Y368300D02*
D03*
Y342900D02*
D03*
X-104701Y368300D02*
D03*
Y342900D02*
D03*
X-79301Y368300D02*
D03*
Y342900D02*
D03*
X-53901D02*
D03*
Y368300D02*
D03*
D21*
X-333299Y-317398D02*
D03*
D22*
X668000Y388000D02*
D03*
Y-388000D02*
D03*
X-568000D02*
D03*
Y388000D02*
D03*
D23*
X-231698Y-342900D02*
D03*
X-231701Y368300D02*
D03*
D41*
X114497Y97248D02*
D03*
Y83248D02*
D03*
X292650Y-306696D02*
D03*
Y-292696D02*
D03*
X305650Y-219200D02*
D03*
Y-205200D02*
D03*
X-152500Y39502D02*
D03*
Y25502D02*
D03*
X-217500Y69502D02*
D03*
Y55502D02*
D03*
X-192500Y39502D02*
D03*
Y25502D02*
D03*
X-205000Y39502D02*
D03*
Y25502D02*
D03*
X-180161Y39502D02*
D03*
Y25502D02*
D03*
X-167500Y39502D02*
D03*
Y25502D02*
D03*
X-167500Y55498D02*
D03*
Y69498D02*
D03*
X-180000Y55498D02*
D03*
Y69498D02*
D03*
X-205000Y55498D02*
D03*
Y69498D02*
D03*
X115000Y68502D02*
D03*
Y54502D02*
D03*
X101000Y68502D02*
D03*
Y54502D02*
D03*
X318650Y-205200D02*
D03*
Y-219200D02*
D03*
X344650Y-205200D02*
D03*
Y-219200D02*
D03*
X331650Y-205200D02*
D03*
Y-219200D02*
D03*
X357650Y-205200D02*
D03*
Y-219200D02*
D03*
X292650Y-205200D02*
D03*
Y-219200D02*
D03*
D42*
X137500Y96500D02*
D03*
Y69500D02*
D03*
D43*
X362738Y85478D02*
D03*
X357738D02*
D03*
X347738D02*
D03*
X342738D02*
D03*
X332738D02*
D03*
X327738D02*
D03*
X322738D02*
D03*
X317738D02*
D03*
X312738D02*
D03*
X307738D02*
D03*
X302738D02*
D03*
X297738D02*
D03*
X292738D02*
D03*
X217738D02*
D03*
X222738D02*
D03*
X227738D02*
D03*
X232738D02*
D03*
X237738D02*
D03*
X242738D02*
D03*
X247738D02*
D03*
X252738D02*
D03*
X257738D02*
D03*
X262738D02*
D03*
X267738D02*
D03*
X272738D02*
D03*
X277738D02*
D03*
X282738D02*
D03*
X287738D02*
D03*
X352738D02*
D03*
X197738D02*
D03*
X202738D02*
D03*
X207738D02*
D03*
X212738D02*
D03*
X337738D02*
D03*
X392738D02*
D03*
X387738D02*
D03*
X382738D02*
D03*
X377738D02*
D03*
X372738D02*
D03*
X367738D02*
D03*
X-207911Y2438D02*
D03*
X-202911D02*
D03*
X-197911D02*
D03*
X-162911D02*
D03*
X-167911D02*
D03*
X-172911D02*
D03*
X-177911D02*
D03*
X-182911D02*
D03*
X-187911D02*
D03*
X-192911D02*
D03*
D44*
X415489Y66477D02*
D03*
X174988D02*
D03*
X-140161Y-16562D02*
D03*
X-230661D02*
D03*
D45*
X75000Y58500D02*
D03*
D46*
X83750Y51000D02*
D03*
Y56000D02*
D03*
Y61000D02*
D03*
Y66000D02*
D03*
X66250D02*
D03*
Y61000D02*
D03*
Y56000D02*
D03*
Y51000D02*
D03*
D47*
X18000Y26750D02*
D03*
Y90250D02*
D03*
D48*
X344050Y-297000D02*
D03*
X331350D02*
D03*
X318650D02*
D03*
X305950D02*
D03*
X344050Y-248000D02*
D03*
X331350D02*
D03*
X318650D02*
D03*
X305950D02*
D03*
M02*
