M48
;Layer_Color=9474304
;FILE_FORMAT=4:4
METRIC,LZ
;TYPE=PLATED
T1F00S00C0.3000
T2F00S00C0.9000
T3F00S00C3.2000
%
T01
X-00525Y-0033
X-005175Y-003225
X-00433Y-00382
X-00333
X-0029Y-00317398
X-0028175Y-0031
X-00133Y-00382
X-00033
X00067
X00087252Y-00322898
X001125
X00167Y-00382
X00267
X0029265Y-00314697
X00367Y-00382
X00467
X00567
X00625Y-0033
X006175Y-003225
X006825Y-00262
X00682498Y-00228
Y-00139
Y-00119998
X00680477Y-000725
X00635477
X00517Y-00082
X00567Y00018
X00467
Y-00182
X00567
X00517Y-00282
X00635477Y00066477
X00680477
X0043
X00415489Y000775
Y00054502
X004025Y00066477
X00372738Y0007374
X00337738
X00210738Y00073502
X00194319Y00073082
X00188097Y000695
X00174988Y00077989
X001625Y00069004
X00209918Y00096651
X00075Y000735
Y000435
X00087Y000305
Y000175
Y000045
Y-000085
X000625Y00002188
X0004875
X0012Y-000215
X00117Y-00082
X00167Y-00182
X00267
X0029265Y-00195
X0030565
X0031865
X0033165
X0034465
X0035765
X00367Y-00182
X003529Y-00248
X0031865Y-00279857
X0029265Y-00284697
X00217Y-00282
X00117
X000625Y-0028
Y-002925
X000525
X00417Y-00282
X000425Y-002925
X-00033Y-00182
X-000725Y-001575
X-00135141Y-00190398
Y-002525
X-00224566
X-00225472Y-00190398
X-00273303Y-00204548
Y-001575
X-00260049Y-00012549
X-00260151Y00012651
X-00260351Y00037851
X-00260551Y00063051
X-00285Y000925
X-002175Y00079
X-001925Y00069498
X-00195Y000475
X-00205
X-0018
X-001675Y000475
X-001525
Y00069502
X-001525Y00015313
X-001575Y00002688
X-00140161Y-00005941
Y-0003
X-000725Y-00020562
X-00033Y00018
X000375Y00002188
X00017Y-00082
X-00230661Y-0003
Y-00005941
X-00215Y00002438
X-00354546Y00049768
X-0039Y00075
X-00535477Y00070734
X-00578591
Y-00063398
X-00535477
X-00483Y-00082
X-00582498Y-00119998
Y-00139
Y-00228
X-005825Y-00262
X-00483Y-00282
X-00383
X-00433Y-00182
X-003975Y001025
X-00405Y0012625
X-004125Y001525
X-003975Y00180998
X-00365Y001775
X-003725Y00215
X-00397817Y002175
X-003825Y002375
X-003575Y002675
X-00365Y00303452
X-00383Y00318
X-003575Y003354
X-00483Y00318
X-005825Y00262
X-00582498Y00228
Y00139
Y00119998
X-00483Y00118
X-00265Y0011
X-002275Y0014
X-002125Y00155
Y00175
X-002025Y001675
X-00195Y001825
X-001875Y001975
X-00165Y002025
X-002275Y002325
X-00235Y00225
X-00245Y002175
X-00255Y0021
X-0022Y0024
X-002125Y002475
X-00205Y002625
X-00183Y00318
X-00141938Y0032
X-00134216Y003125
X-00285Y002925
X-00275Y0028
X-00295Y003275
X00086803Y0032
X00149299
X00217Y00318
X00317
X00417
X00367Y00218
X00417Y00118
X00185Y00106
X00145
X00136158
X001275
X00114497
X00517Y00118
X00617
X00682498Y00119998
Y00139
Y00228
X006825Y00262
X00617Y00318
X00517
X00567Y00218
X00467
T02
X-00333299Y-00317398
X-00307899
X-00231698Y-003429
Y-003683
X-00206298
Y-003429
X-00180898
Y-003683
X-00155498
Y-003429
X-00130098
Y-003683
X-00104698
Y-003429
X-00079298
Y-003683
X-00053898
X-00028498
Y-003429
X-00003098
X00022302
X00047702
Y-003683
X00022302
X-00003098
X-00053898Y-003429
X00073102
X00098502
X00123902
X00149302
X00174702
X00200102
X00225502
X00250902
X00276302
X00301702
X00327102
X00352502
X00377902
X00403302
Y-003683
X00377902
X00352502
X00327102
X00301702
X00276302
X00250902
X00225502
X00200102
X00174702
X00149302
X00123902
X00098502
X00073102
X-00307899Y-00291998
X-00333299
Y-00266598
X-00307899
Y-00241198
X-00333299
Y-00215798
X-00307899
Y-00190398
X-00333299
Y-00164998
X-00307899
Y-00139598
Y-00114198
X-00333299
Y-00088798
Y-00063398
Y-00037998
Y-00012598
Y00012802
Y00038202
Y00063602
Y00089002
X-00307899
Y00063602
Y00038202
Y00012802
Y-00012598
Y-00037998
Y-00063398
Y-00088798
X-00333299Y-00139598
Y00114402
Y00139802
Y00165202
Y00190602
Y00216002
Y00241402
Y00266802
Y00292202
Y00317602
X-00307899
Y00292202
Y00266802
Y00241402
Y00216002
Y00190602
Y00165202
Y00139802
Y00114402
X-00231701Y003429
Y003683
X-00206301
Y003429
X-00180901
Y003683
X-00155501
Y003429
X-00130101
Y003683
X-00104701
Y003429
X-00079301
Y003683
X-00053901
X-00028501
X-00003101
X00022299
X00047699
Y003429
X00022299
X-00003101
X-00028501
X-00053901
X00073099
Y003683
X00098499
X00123899
X00149299
X00174699
X00200099
X00225499
X00250899
X00276299
X00301699
X00327099
X00352499
X00377899
X00403299
Y003429
X00377899
X00352499
X00327099
X00301699
X00276299
X00250899
X00225499
X00200099
X00174699
X00149299
X00123899
X00098499
T03
X-00568Y-00388
X00668
X-00568Y00388
X00668
M30
