G04*
G04 #@! TF.GenerationSoftware,Altium Limited,Altium Designer,20.0.7 (75)*
G04*
G04 Layer_Physical_Order=1*
G04 Layer_Color=3162822*
%FSLAX44Y44*%
%MOMM*%
G71*
G01*
G75*
%ADD10C,0.2500*%
%ADD11C,0.3500*%
%ADD14R,1.2000X2.4000*%
%ADD15R,0.8000X0.9000*%
%ADD24C,1.0000*%
%ADD25C,1.5000*%
%ADD26R,1.5000X1.5000*%
%ADD27C,6.0000*%
%ADD28R,1.5000X1.5000*%
%ADD29C,0.6000*%
G36*
X635388Y413183D02*
X635920Y412030D01*
X635539Y411584D01*
X632250Y406216D01*
X629840Y400399D01*
X628370Y394277D01*
X627876Y388000D01*
X628370Y381723D01*
X629840Y375601D01*
X632250Y369784D01*
X635539Y364416D01*
X639628Y359628D01*
X644416Y355539D01*
X649784Y352249D01*
X655601Y349840D01*
X661723Y348370D01*
X668000Y347876D01*
X674277Y348370D01*
X680399Y349840D01*
X686216Y352249D01*
X691584Y355539D01*
X692030Y355920D01*
X693183Y355388D01*
X693183Y260710D01*
X692000Y260500D01*
X691913Y260500D01*
X685000D01*
Y245000D01*
Y229500D01*
X691913D01*
X693183Y229290D01*
X693183Y170710D01*
X692000Y170500D01*
X691913Y170500D01*
X685000D01*
Y155000D01*
Y139500D01*
X691913D01*
X693183Y139290D01*
X693183Y-139290D01*
X692000Y-139500D01*
X691913Y-139500D01*
X685000D01*
Y-155000D01*
Y-170500D01*
X691913D01*
X693183Y-170710D01*
X693183Y-229290D01*
X692000Y-229500D01*
X691913Y-229500D01*
X685000D01*
Y-245000D01*
Y-260500D01*
X691913D01*
X693183Y-260710D01*
X693183Y-355388D01*
X692030Y-355920D01*
X691584Y-355539D01*
X686216Y-352249D01*
X680399Y-349840D01*
X674277Y-348370D01*
X668000Y-347876D01*
X661723Y-348370D01*
X655601Y-349840D01*
X649784Y-352249D01*
X644416Y-355539D01*
X639628Y-359628D01*
X635539Y-364416D01*
X632250Y-369784D01*
X629840Y-375601D01*
X628370Y-381723D01*
X627876Y-388000D01*
X628370Y-394277D01*
X629840Y-400399D01*
X632250Y-406216D01*
X635539Y-411584D01*
X635920Y-412030D01*
X635388Y-413183D01*
X-535388Y-413183D01*
X-535920Y-412030D01*
X-535539Y-411584D01*
X-532250Y-406216D01*
X-529840Y-400399D01*
X-528370Y-394277D01*
X-527876Y-388000D01*
X-528370Y-381723D01*
X-529840Y-375601D01*
X-532250Y-369784D01*
X-535539Y-364416D01*
X-539628Y-359628D01*
X-544416Y-355539D01*
X-549784Y-352249D01*
X-555601Y-349840D01*
X-561723Y-348370D01*
X-568000Y-347876D01*
X-574277Y-348370D01*
X-580399Y-349840D01*
X-586216Y-352249D01*
X-591584Y-355539D01*
X-592030Y-355920D01*
X-593183Y-355388D01*
X-593183Y-260710D01*
X-591913Y-260500D01*
X-585000D01*
Y-245000D01*
Y-229500D01*
X-591913D01*
X-592000Y-229500D01*
X-593183Y-229290D01*
X-593183Y-170710D01*
X-591913Y-170500D01*
X-585000D01*
Y-155000D01*
Y-139500D01*
X-591913D01*
X-592000Y-139500D01*
X-593183Y-139290D01*
X-593183Y139290D01*
X-591913Y139500D01*
X-585000D01*
Y155000D01*
Y170500D01*
X-591913D01*
X-592000Y170500D01*
X-593183Y170710D01*
X-593183Y229290D01*
X-591913Y229500D01*
X-585000D01*
Y245000D01*
Y260500D01*
X-591913D01*
X-592000Y260500D01*
X-593183Y260710D01*
X-593183Y355388D01*
X-592030Y355920D01*
X-591584Y355539D01*
X-586216Y352249D01*
X-580399Y349840D01*
X-574277Y348370D01*
X-568000Y347876D01*
X-561723Y348370D01*
X-555601Y349840D01*
X-549784Y352249D01*
X-544416Y355539D01*
X-539628Y359628D01*
X-535539Y364416D01*
X-532250Y369784D01*
X-529840Y375601D01*
X-528370Y381723D01*
X-527876Y388000D01*
X-528370Y394277D01*
X-529840Y400399D01*
X-532250Y406216D01*
X-535539Y411584D01*
X-535920Y412030D01*
X-535388Y413183D01*
X635388Y413183D01*
D02*
G37*
%LPC*%
G36*
X405799Y379066D02*
Y370800D01*
X414064D01*
X414015Y371172D01*
X412907Y373848D01*
X411144Y376145D01*
X408846Y377909D01*
X406170Y379017D01*
X405799Y379066D01*
D02*
G37*
G36*
X400799D02*
X400427Y379017D01*
X397751Y377909D01*
X395453Y376145D01*
X393690Y373848D01*
X392582Y371172D01*
X392533Y370800D01*
X400799D01*
Y379066D01*
D02*
G37*
G36*
X-220701Y379300D02*
X-229201D01*
Y370800D01*
X-220701D01*
Y379300D01*
D02*
G37*
G36*
X-234201D02*
X-242701D01*
Y370800D01*
X-234201D01*
Y379300D01*
D02*
G37*
G36*
X98499Y378386D02*
X95888Y378043D01*
X93455Y377035D01*
X91367Y375432D01*
X89764Y373343D01*
X88756Y370910D01*
X88559Y369415D01*
X83779Y364635D01*
X82703Y365355D01*
X82841Y365690D01*
X83185Y368300D01*
X82841Y370910D01*
X81833Y373343D01*
X80231Y375432D01*
X78142Y377035D01*
X75709Y378043D01*
X73099Y378386D01*
X70488Y378043D01*
X68055Y377035D01*
X65967Y375432D01*
X64364Y373343D01*
X63356Y370910D01*
X63012Y368300D01*
X63356Y365690D01*
X64364Y363257D01*
X65967Y361168D01*
X68055Y359565D01*
X70488Y358557D01*
X73099Y358214D01*
X75709Y358557D01*
X78142Y359565D01*
X78324Y359705D01*
X79368Y358905D01*
X79253Y358628D01*
X78987Y356605D01*
Y352449D01*
X77716Y351811D01*
X75709Y352643D01*
X73099Y352986D01*
X70488Y352643D01*
X68055Y351635D01*
X65967Y350032D01*
X64364Y347943D01*
X63356Y345510D01*
X63012Y342900D01*
X63356Y340289D01*
X64364Y337857D01*
X65967Y335768D01*
X68055Y334165D01*
X70488Y333157D01*
X73099Y332814D01*
X75709Y333157D01*
X77716Y333989D01*
X78987Y333350D01*
Y320000D01*
X79253Y317977D01*
X80034Y316092D01*
X81276Y314473D01*
X82895Y313230D01*
X84780Y312449D01*
X86803Y312183D01*
X88827Y312449D01*
X90712Y313230D01*
X92331Y314473D01*
X93573Y316092D01*
X94354Y317977D01*
X94620Y320000D01*
Y332540D01*
X95676Y333245D01*
X95888Y333157D01*
X98499Y332814D01*
X101109Y333157D01*
X103542Y334165D01*
X105631Y335768D01*
X107233Y337857D01*
X108241Y340289D01*
X108585Y342900D01*
X108241Y345510D01*
X107233Y347943D01*
X105631Y350032D01*
X103542Y351635D01*
X101109Y352643D01*
X98499Y352986D01*
X95888Y352643D01*
X95281Y353766D01*
X95227Y353974D01*
X99614Y358361D01*
X101109Y358557D01*
X103542Y359565D01*
X105631Y361168D01*
X107233Y363257D01*
X108241Y365690D01*
X108585Y368300D01*
X108241Y370910D01*
X107233Y373343D01*
X105631Y375432D01*
X103542Y377035D01*
X101109Y378043D01*
X98499Y378386D01*
D02*
G37*
G36*
X377899D02*
X375288Y378043D01*
X372855Y377035D01*
X370766Y375432D01*
X369164Y373343D01*
X368156Y370910D01*
X367812Y368300D01*
X368156Y365690D01*
X369164Y363257D01*
X370766Y361168D01*
X372855Y359565D01*
X375288Y358557D01*
X377899Y358214D01*
X380509Y358557D01*
X382942Y359565D01*
X385031Y361168D01*
X386633Y363257D01*
X387641Y365690D01*
X387985Y368300D01*
X387641Y370910D01*
X386633Y373343D01*
X385031Y375432D01*
X382942Y377035D01*
X380509Y378043D01*
X377899Y378386D01*
D02*
G37*
G36*
X352499D02*
X349888Y378043D01*
X347455Y377035D01*
X345367Y375432D01*
X343764Y373343D01*
X342756Y370910D01*
X342412Y368300D01*
X342756Y365690D01*
X343764Y363257D01*
X345367Y361168D01*
X347455Y359565D01*
X349888Y358557D01*
X352499Y358214D01*
X355109Y358557D01*
X357542Y359565D01*
X359631Y361168D01*
X361233Y363257D01*
X362241Y365690D01*
X362585Y368300D01*
X362241Y370910D01*
X361233Y373343D01*
X359631Y375432D01*
X357542Y377035D01*
X355109Y378043D01*
X352499Y378386D01*
D02*
G37*
G36*
X327099D02*
X324488Y378043D01*
X322055Y377035D01*
X319967Y375432D01*
X318364Y373343D01*
X317356Y370910D01*
X317012Y368300D01*
X317356Y365690D01*
X318364Y363257D01*
X319967Y361168D01*
X322055Y359565D01*
X324488Y358557D01*
X327099Y358214D01*
X329709Y358557D01*
X332142Y359565D01*
X334231Y361168D01*
X335834Y363257D01*
X336841Y365690D01*
X337185Y368300D01*
X336841Y370910D01*
X335834Y373343D01*
X334231Y375432D01*
X332142Y377035D01*
X329709Y378043D01*
X327099Y378386D01*
D02*
G37*
G36*
X301699D02*
X299088Y378043D01*
X296655Y377035D01*
X294566Y375432D01*
X292964Y373343D01*
X291956Y370910D01*
X291612Y368300D01*
X291956Y365690D01*
X292964Y363257D01*
X294566Y361168D01*
X296655Y359565D01*
X299088Y358557D01*
X301699Y358214D01*
X304309Y358557D01*
X306742Y359565D01*
X308831Y361168D01*
X310434Y363257D01*
X311441Y365690D01*
X311785Y368300D01*
X311441Y370910D01*
X310434Y373343D01*
X308831Y375432D01*
X306742Y377035D01*
X304309Y378043D01*
X301699Y378386D01*
D02*
G37*
G36*
X276299D02*
X273688Y378043D01*
X271255Y377035D01*
X269167Y375432D01*
X267564Y373343D01*
X266556Y370910D01*
X266212Y368300D01*
X266556Y365690D01*
X267564Y363257D01*
X269167Y361168D01*
X271255Y359565D01*
X273688Y358557D01*
X276299Y358214D01*
X278909Y358557D01*
X281342Y359565D01*
X283431Y361168D01*
X285033Y363257D01*
X286041Y365690D01*
X286385Y368300D01*
X286041Y370910D01*
X285033Y373343D01*
X283431Y375432D01*
X281342Y377035D01*
X278909Y378043D01*
X276299Y378386D01*
D02*
G37*
G36*
X250899D02*
X248288Y378043D01*
X245855Y377035D01*
X243766Y375432D01*
X242164Y373343D01*
X241156Y370910D01*
X240812Y368300D01*
X241156Y365690D01*
X242164Y363257D01*
X243766Y361168D01*
X245855Y359565D01*
X248288Y358557D01*
X250899Y358214D01*
X253509Y358557D01*
X255942Y359565D01*
X258031Y361168D01*
X259634Y363257D01*
X260641Y365690D01*
X260985Y368300D01*
X260641Y370910D01*
X259634Y373343D01*
X258031Y375432D01*
X255942Y377035D01*
X253509Y378043D01*
X250899Y378386D01*
D02*
G37*
G36*
X225499D02*
X222888Y378043D01*
X220455Y377035D01*
X218367Y375432D01*
X216764Y373343D01*
X215756Y370910D01*
X215412Y368300D01*
X215756Y365690D01*
X216764Y363257D01*
X218367Y361168D01*
X220455Y359565D01*
X222888Y358557D01*
X225499Y358214D01*
X228109Y358557D01*
X230542Y359565D01*
X232631Y361168D01*
X234233Y363257D01*
X235241Y365690D01*
X235585Y368300D01*
X235241Y370910D01*
X234233Y373343D01*
X232631Y375432D01*
X230542Y377035D01*
X228109Y378043D01*
X225499Y378386D01*
D02*
G37*
G36*
X200099D02*
X197488Y378043D01*
X195055Y377035D01*
X192966Y375432D01*
X191364Y373343D01*
X190356Y370910D01*
X190012Y368300D01*
X190356Y365690D01*
X191364Y363257D01*
X192966Y361168D01*
X195055Y359565D01*
X197488Y358557D01*
X200099Y358214D01*
X202709Y358557D01*
X205142Y359565D01*
X207231Y361168D01*
X208834Y363257D01*
X209841Y365690D01*
X210185Y368300D01*
X209841Y370910D01*
X208834Y373343D01*
X207231Y375432D01*
X205142Y377035D01*
X202709Y378043D01*
X200099Y378386D01*
D02*
G37*
G36*
X174699D02*
X172088Y378043D01*
X169655Y377035D01*
X167567Y375432D01*
X165964Y373343D01*
X164956Y370910D01*
X164612Y368300D01*
X164956Y365690D01*
X165964Y363257D01*
X167567Y361168D01*
X169655Y359565D01*
X172088Y358557D01*
X174699Y358214D01*
X177309Y358557D01*
X179742Y359565D01*
X181831Y361168D01*
X183433Y363257D01*
X184441Y365690D01*
X184785Y368300D01*
X184441Y370910D01*
X183433Y373343D01*
X181831Y375432D01*
X179742Y377035D01*
X177309Y378043D01*
X174699Y378386D01*
D02*
G37*
G36*
X149299D02*
X146688Y378043D01*
X144255Y377035D01*
X142167Y375432D01*
X140564Y373343D01*
X139556Y370910D01*
X139212Y368300D01*
X139556Y365690D01*
X140564Y363257D01*
X142167Y361168D01*
X144255Y359565D01*
X146688Y358557D01*
X149299Y358214D01*
X151909Y358557D01*
X154342Y359565D01*
X156431Y361168D01*
X158034Y363257D01*
X159041Y365690D01*
X159385Y368300D01*
X159041Y370910D01*
X158034Y373343D01*
X156431Y375432D01*
X154342Y377035D01*
X151909Y378043D01*
X149299Y378386D01*
D02*
G37*
G36*
X123899D02*
X121288Y378043D01*
X118855Y377035D01*
X116767Y375432D01*
X115164Y373343D01*
X114156Y370910D01*
X113812Y368300D01*
X114156Y365690D01*
X115164Y363257D01*
X116767Y361168D01*
X118855Y359565D01*
X121288Y358557D01*
X123899Y358214D01*
X126509Y358557D01*
X128942Y359565D01*
X131031Y361168D01*
X132633Y363257D01*
X133641Y365690D01*
X133985Y368300D01*
X133641Y370910D01*
X132633Y373343D01*
X131031Y375432D01*
X128942Y377035D01*
X126509Y378043D01*
X123899Y378386D01*
D02*
G37*
G36*
X47699D02*
X45088Y378043D01*
X42655Y377035D01*
X40567Y375432D01*
X38964Y373343D01*
X37956Y370910D01*
X37612Y368300D01*
X37956Y365690D01*
X38964Y363257D01*
X40567Y361168D01*
X42655Y359565D01*
X45088Y358557D01*
X47699Y358214D01*
X50309Y358557D01*
X52742Y359565D01*
X54831Y361168D01*
X56434Y363257D01*
X57441Y365690D01*
X57785Y368300D01*
X57441Y370910D01*
X56434Y373343D01*
X54831Y375432D01*
X52742Y377035D01*
X50309Y378043D01*
X47699Y378386D01*
D02*
G37*
G36*
X22299D02*
X19688Y378043D01*
X17255Y377035D01*
X15166Y375432D01*
X13564Y373343D01*
X12556Y370910D01*
X12212Y368300D01*
X12556Y365690D01*
X13564Y363257D01*
X15166Y361168D01*
X17255Y359565D01*
X19688Y358557D01*
X22299Y358214D01*
X24909Y358557D01*
X27342Y359565D01*
X29431Y361168D01*
X31033Y363257D01*
X32041Y365690D01*
X32385Y368300D01*
X32041Y370910D01*
X31033Y373343D01*
X29431Y375432D01*
X27342Y377035D01*
X24909Y378043D01*
X22299Y378386D01*
D02*
G37*
G36*
X-3101D02*
X-5712Y378043D01*
X-8145Y377035D01*
X-10234Y375432D01*
X-11836Y373343D01*
X-12844Y370910D01*
X-13188Y368300D01*
X-12844Y365690D01*
X-11836Y363257D01*
X-10234Y361168D01*
X-8145Y359565D01*
X-5712Y358557D01*
X-3101Y358214D01*
X-491Y358557D01*
X1942Y359565D01*
X4031Y361168D01*
X5634Y363257D01*
X6641Y365690D01*
X6985Y368300D01*
X6641Y370910D01*
X5634Y373343D01*
X4031Y375432D01*
X1942Y377035D01*
X-491Y378043D01*
X-3101Y378386D01*
D02*
G37*
G36*
X-28501D02*
X-31112Y378043D01*
X-33545Y377035D01*
X-35633Y375432D01*
X-37236Y373343D01*
X-38244Y370910D01*
X-38588Y368300D01*
X-38244Y365690D01*
X-37236Y363257D01*
X-35633Y361168D01*
X-33545Y359565D01*
X-31112Y358557D01*
X-28501Y358214D01*
X-25891Y358557D01*
X-23458Y359565D01*
X-21369Y361168D01*
X-19766Y363257D01*
X-18759Y365690D01*
X-18415Y368300D01*
X-18759Y370910D01*
X-19766Y373343D01*
X-21369Y375432D01*
X-23458Y377035D01*
X-25891Y378043D01*
X-28501Y378386D01*
D02*
G37*
G36*
X-53901D02*
X-56512Y378043D01*
X-58945Y377035D01*
X-61034Y375432D01*
X-62636Y373343D01*
X-63644Y370910D01*
X-63988Y368300D01*
X-63644Y365690D01*
X-62636Y363257D01*
X-61034Y361168D01*
X-58945Y359565D01*
X-56512Y358557D01*
X-53901Y358214D01*
X-51291Y358557D01*
X-48858Y359565D01*
X-46769Y361168D01*
X-45167Y363257D01*
X-44159Y365690D01*
X-43815Y368300D01*
X-44159Y370910D01*
X-45167Y373343D01*
X-46769Y375432D01*
X-48858Y377035D01*
X-51291Y378043D01*
X-53901Y378386D01*
D02*
G37*
G36*
X-79301D02*
X-81912Y378043D01*
X-84345Y377035D01*
X-86433Y375432D01*
X-88036Y373343D01*
X-89044Y370910D01*
X-89388Y368300D01*
X-89044Y365690D01*
X-88036Y363257D01*
X-86433Y361168D01*
X-84345Y359565D01*
X-81912Y358557D01*
X-79301Y358214D01*
X-76691Y358557D01*
X-74258Y359565D01*
X-72169Y361168D01*
X-70567Y363257D01*
X-69559Y365690D01*
X-69215Y368300D01*
X-69559Y370910D01*
X-70567Y373343D01*
X-72169Y375432D01*
X-74258Y377035D01*
X-76691Y378043D01*
X-79301Y378386D01*
D02*
G37*
G36*
X-104701D02*
X-107312Y378043D01*
X-109745Y377035D01*
X-111833Y375432D01*
X-113436Y373343D01*
X-114444Y370910D01*
X-114788Y368300D01*
X-114444Y365690D01*
X-113436Y363257D01*
X-111833Y361168D01*
X-109745Y359565D01*
X-107312Y358557D01*
X-104701Y358214D01*
X-102091Y358557D01*
X-99658Y359565D01*
X-97569Y361168D01*
X-95967Y363257D01*
X-94959Y365690D01*
X-94615Y368300D01*
X-94959Y370910D01*
X-95967Y373343D01*
X-97569Y375432D01*
X-99658Y377035D01*
X-102091Y378043D01*
X-104701Y378386D01*
D02*
G37*
G36*
X-130101D02*
X-132712Y378043D01*
X-135145Y377035D01*
X-137233Y375432D01*
X-138836Y373343D01*
X-139844Y370910D01*
X-140188Y368300D01*
X-139844Y365690D01*
X-138836Y363257D01*
X-137233Y361168D01*
X-135145Y359565D01*
X-132712Y358557D01*
X-130101Y358214D01*
X-127491Y358557D01*
X-125058Y359565D01*
X-122969Y361168D01*
X-121367Y363257D01*
X-120359Y365690D01*
X-120015Y368300D01*
X-120359Y370910D01*
X-121367Y373343D01*
X-122969Y375432D01*
X-125058Y377035D01*
X-127491Y378043D01*
X-130101Y378386D01*
D02*
G37*
G36*
X-155501D02*
X-158112Y378043D01*
X-160545Y377035D01*
X-162633Y375432D01*
X-164236Y373343D01*
X-165244Y370910D01*
X-165588Y368300D01*
X-165244Y365690D01*
X-164236Y363257D01*
X-162633Y361168D01*
X-160545Y359565D01*
X-158112Y358557D01*
X-155501Y358214D01*
X-152891Y358557D01*
X-150458Y359565D01*
X-148369Y361168D01*
X-146767Y363257D01*
X-145759Y365690D01*
X-145415Y368300D01*
X-145759Y370910D01*
X-146767Y373343D01*
X-148369Y375432D01*
X-150458Y377035D01*
X-152891Y378043D01*
X-155501Y378386D01*
D02*
G37*
G36*
X-180901D02*
X-183512Y378043D01*
X-185945Y377035D01*
X-188034Y375432D01*
X-189636Y373343D01*
X-190644Y370910D01*
X-190988Y368300D01*
X-190644Y365690D01*
X-189636Y363257D01*
X-188034Y361168D01*
X-185945Y359565D01*
X-183512Y358557D01*
X-180901Y358214D01*
X-178291Y358557D01*
X-175858Y359565D01*
X-173769Y361168D01*
X-172167Y363257D01*
X-171159Y365690D01*
X-170815Y368300D01*
X-171159Y370910D01*
X-172167Y373343D01*
X-173769Y375432D01*
X-175858Y377035D01*
X-178291Y378043D01*
X-180901Y378386D01*
D02*
G37*
G36*
X-206301D02*
X-208912Y378043D01*
X-211345Y377035D01*
X-213433Y375432D01*
X-215036Y373343D01*
X-216044Y370910D01*
X-216388Y368300D01*
X-216044Y365690D01*
X-215036Y363257D01*
X-213433Y361168D01*
X-211345Y359565D01*
X-208912Y358557D01*
X-206301Y358214D01*
X-203691Y358557D01*
X-201258Y359565D01*
X-199169Y361168D01*
X-197567Y363257D01*
X-196559Y365690D01*
X-196215Y368300D01*
X-196559Y370910D01*
X-197567Y373343D01*
X-199169Y375432D01*
X-201258Y377035D01*
X-203691Y378043D01*
X-206301Y378386D01*
D02*
G37*
G36*
X414064Y365800D02*
X405799D01*
Y357534D01*
X406170Y357583D01*
X408846Y358692D01*
X411144Y360455D01*
X412907Y362753D01*
X414015Y365429D01*
X414064Y365800D01*
D02*
G37*
G36*
X400799D02*
X392533D01*
X392582Y365429D01*
X393690Y362753D01*
X395453Y360455D01*
X397751Y358692D01*
X400427Y357583D01*
X400799Y357534D01*
Y365800D01*
D02*
G37*
G36*
X-220701D02*
X-229201D01*
Y357300D01*
X-220701D01*
Y365800D01*
D02*
G37*
G36*
X-234201D02*
X-242701D01*
Y357300D01*
X-234201D01*
Y365800D01*
D02*
G37*
G36*
X-302900Y343217D02*
X-344600D01*
X-346623Y342951D01*
X-348508Y342170D01*
X-350127Y340927D01*
X-352119Y338936D01*
X-353498Y339310D01*
X-353535Y339365D01*
X-355354Y340581D01*
X-357500Y341008D01*
X-359646Y340581D01*
X-361465Y339365D01*
X-361656Y339079D01*
X-363027Y338027D01*
X-364270Y336408D01*
X-365051Y334523D01*
X-365317Y332500D01*
Y311227D01*
X-367023Y311002D01*
X-368909Y310221D01*
X-370527Y308979D01*
X-444777Y234729D01*
X-446020Y233110D01*
X-446800Y231225D01*
X-447067Y229202D01*
Y28383D01*
X-446800Y26360D01*
X-446020Y24475D01*
X-444777Y22856D01*
X-397817Y-24105D01*
Y-211642D01*
X-397551Y-213665D01*
X-397227Y-214446D01*
X-396770Y-215550D01*
X-395527Y-217169D01*
X-354669Y-258027D01*
X-353050Y-259270D01*
X-351165Y-260051D01*
X-349142Y-260317D01*
X-342520D01*
X-341958Y-261456D01*
X-342034Y-261555D01*
X-343042Y-263988D01*
X-343386Y-266598D01*
X-343042Y-269209D01*
X-342034Y-271642D01*
X-340432Y-273730D01*
X-338343Y-275333D01*
X-335910Y-276341D01*
X-333299Y-276685D01*
X-330689Y-276341D01*
X-328256Y-275333D01*
X-326167Y-273730D01*
X-324565Y-271642D01*
X-323557Y-269209D01*
X-323213Y-266598D01*
X-323557Y-263988D01*
X-324565Y-261555D01*
X-324641Y-261456D01*
X-324079Y-260317D01*
X-319201D01*
X-318472Y-260221D01*
X-318151Y-260497D01*
X-317650Y-261394D01*
X-318616Y-263727D01*
X-318665Y-264098D01*
X-307899D01*
Y-266598D01*
X-305399D01*
Y-277364D01*
X-305028Y-277315D01*
X-302352Y-276207D01*
X-300054Y-274444D01*
X-299087Y-273183D01*
X-297817Y-273614D01*
Y-286890D01*
X-299087Y-287143D01*
X-299165Y-286955D01*
X-300767Y-284866D01*
X-302856Y-283263D01*
X-305289Y-282256D01*
X-307899Y-281912D01*
X-310510Y-282256D01*
X-312943Y-283263D01*
X-315032Y-284866D01*
X-316634Y-286955D01*
X-317642Y-289388D01*
X-317986Y-291998D01*
X-317642Y-294609D01*
X-316634Y-297041D01*
X-315032Y-299130D01*
X-312943Y-300733D01*
X-310510Y-301741D01*
X-307899Y-302085D01*
X-305289Y-301741D01*
X-302856Y-300733D01*
X-300767Y-299130D01*
X-299165Y-297041D01*
X-299087Y-296854D01*
X-297817Y-297107D01*
Y-312290D01*
X-299087Y-312543D01*
X-299165Y-312355D01*
X-300767Y-310266D01*
X-302856Y-308663D01*
X-305289Y-307656D01*
X-307899Y-307312D01*
X-310510Y-307656D01*
X-312943Y-308663D01*
X-315032Y-310266D01*
X-316634Y-312355D01*
X-317642Y-314788D01*
X-317986Y-317398D01*
X-317642Y-320009D01*
X-316634Y-322441D01*
X-315032Y-324530D01*
X-312943Y-326133D01*
X-310510Y-327141D01*
X-307899Y-327485D01*
X-305289Y-327141D01*
X-302856Y-326133D01*
X-300767Y-324530D01*
X-299165Y-322441D01*
X-298419Y-320643D01*
X-297045Y-320643D01*
X-296770Y-321307D01*
X-295527Y-322926D01*
X-293908Y-324168D01*
X-292023Y-324949D01*
X-290000Y-325215D01*
X-287977Y-324949D01*
X-286092Y-324168D01*
X-284473Y-322926D01*
X-283230Y-321307D01*
X-282449Y-319422D01*
X-282230Y-317754D01*
X-281750Y-317817D01*
X-279727Y-317551D01*
X-279178Y-317323D01*
X-278206Y-318295D01*
X-278704Y-319498D01*
X-279099Y-322500D01*
X-279099Y-322500D01*
Y-331301D01*
X-321700D01*
Y-317398D01*
X-322095Y-314396D01*
X-323254Y-311599D01*
X-323299Y-311540D01*
Y-307398D01*
X-327441D01*
X-327500Y-307353D01*
X-330297Y-306194D01*
X-333299Y-305799D01*
X-336301Y-306194D01*
X-339099Y-307353D01*
X-339158Y-307398D01*
X-343299D01*
Y-311540D01*
X-343345Y-311599D01*
X-344504Y-314396D01*
X-344899Y-317398D01*
Y-336700D01*
X-344899Y-336701D01*
X-344504Y-339703D01*
X-343345Y-342500D01*
X-341501Y-344902D01*
X-335302Y-351102D01*
X-335302Y-351102D01*
X-332900Y-352945D01*
X-330102Y-354104D01*
X-327100Y-354499D01*
X-273358D01*
X-273358Y-354499D01*
X-270356Y-354104D01*
X-267558Y-352945D01*
X-265156Y-351102D01*
X-259298Y-345244D01*
X-257455Y-342842D01*
X-256296Y-340044D01*
X-255901Y-337042D01*
X-255901Y-337042D01*
Y-327305D01*
X-251892Y-323296D01*
X79435D01*
Y-333719D01*
X78296Y-334281D01*
X78145Y-334165D01*
X75712Y-333157D01*
X73102Y-332814D01*
X70491Y-333157D01*
X68059Y-334165D01*
X65970Y-335768D01*
X64367Y-337857D01*
X63359Y-340289D01*
X63016Y-342900D01*
X63359Y-345510D01*
X64367Y-347943D01*
X65970Y-350032D01*
X68059Y-351635D01*
X70491Y-352643D01*
X73102Y-352986D01*
X75712Y-352643D01*
X78145Y-351635D01*
X78296Y-351519D01*
X79435Y-352081D01*
Y-357050D01*
X79701Y-359073D01*
X79753Y-359198D01*
X78710Y-359999D01*
X78145Y-359565D01*
X75712Y-358557D01*
X73102Y-358214D01*
X70491Y-358557D01*
X68059Y-359565D01*
X65970Y-361168D01*
X64367Y-363257D01*
X63359Y-365690D01*
X63016Y-368300D01*
X63359Y-370910D01*
X64367Y-373343D01*
X65970Y-375432D01*
X68059Y-377035D01*
X70491Y-378043D01*
X73102Y-378386D01*
X75712Y-378043D01*
X78145Y-377035D01*
X80234Y-375432D01*
X81837Y-373343D01*
X82844Y-370910D01*
X83188Y-368300D01*
X82844Y-365690D01*
X82706Y-365355D01*
X83782Y-364635D01*
X88562Y-369415D01*
X88759Y-370910D01*
X89767Y-373343D01*
X91370Y-375432D01*
X93459Y-377035D01*
X95891Y-378043D01*
X98502Y-378386D01*
X101112Y-378043D01*
X103545Y-377035D01*
X105634Y-375432D01*
X107237Y-373343D01*
X108244Y-370910D01*
X108588Y-368300D01*
X108244Y-365690D01*
X108106Y-365355D01*
X109182Y-364635D01*
X113962Y-369415D01*
X114159Y-370910D01*
X115167Y-373343D01*
X116770Y-375432D01*
X118859Y-377035D01*
X121291Y-378043D01*
X123902Y-378386D01*
X126512Y-378043D01*
X128945Y-377035D01*
X131034Y-375432D01*
X132637Y-373343D01*
X133644Y-370910D01*
X133988Y-368300D01*
X133644Y-365690D01*
X132637Y-363257D01*
X131034Y-361168D01*
X128945Y-359565D01*
X126512Y-358557D01*
X125017Y-358361D01*
X121102Y-354446D01*
X121183Y-353803D01*
X122506Y-352803D01*
X123902Y-352986D01*
X126512Y-352643D01*
X128945Y-351635D01*
X131034Y-350032D01*
X132637Y-347943D01*
X133644Y-345510D01*
X133988Y-342900D01*
X133644Y-340289D01*
X132637Y-337857D01*
X131034Y-335768D01*
X128945Y-334165D01*
X126512Y-333157D01*
X123902Y-332814D01*
X121587Y-333119D01*
X120317Y-332365D01*
Y-323296D01*
X269198D01*
X269198Y-323296D01*
X272201Y-322901D01*
X274998Y-321742D01*
X277400Y-319898D01*
X300852Y-296447D01*
X300852Y-296447D01*
X302695Y-294044D01*
X303854Y-291247D01*
X304249Y-288245D01*
X304249Y-288245D01*
Y-284697D01*
Y-224504D01*
X304954Y-223799D01*
X357650D01*
X360652Y-223404D01*
X363450Y-222245D01*
X365852Y-220402D01*
X367695Y-217999D01*
X368854Y-215202D01*
X369249Y-212200D01*
X368854Y-209198D01*
X367695Y-206400D01*
X365852Y-203998D01*
X365467Y-203702D01*
Y-195000D01*
X365201Y-192977D01*
X364420Y-191092D01*
X363177Y-189473D01*
X361558Y-188230D01*
X359673Y-187449D01*
X357650Y-187183D01*
X355627Y-187449D01*
X353741Y-188230D01*
X352123Y-189473D01*
X350880Y-191092D01*
X350099Y-192977D01*
X349833Y-195000D01*
Y-200600D01*
X326467D01*
Y-195000D01*
X326200Y-192977D01*
X325420Y-191091D01*
X324177Y-189473D01*
X322558Y-188230D01*
X320673Y-187449D01*
X318650Y-187183D01*
X316627Y-187449D01*
X314741Y-188230D01*
X313123Y-189473D01*
X312785Y-189913D01*
X311515D01*
X311177Y-189473D01*
X309558Y-188230D01*
X307673Y-187449D01*
X305650Y-187183D01*
X303627Y-187449D01*
X301742Y-188230D01*
X300123Y-189473D01*
X298880Y-191092D01*
X298099Y-192977D01*
X297833Y-195000D01*
Y-200905D01*
X297148Y-200996D01*
X294350Y-202154D01*
X291948Y-203998D01*
X291948Y-203998D01*
X284448Y-211498D01*
X282605Y-213900D01*
X281446Y-216698D01*
X281051Y-219700D01*
X281051Y-219700D01*
Y-283440D01*
X264394Y-300097D01*
X92401D01*
Y-48504D01*
X131702Y-9204D01*
X131702Y-9204D01*
X132241Y-8501D01*
X133444Y-8909D01*
X133444Y-130000D01*
X133667Y-131697D01*
X134322Y-133278D01*
X135364Y-134636D01*
X136722Y-135678D01*
X138303Y-136333D01*
X140000Y-136556D01*
X440000D01*
X441697Y-136333D01*
X443278Y-135678D01*
X444636Y-134636D01*
X445678Y-133278D01*
X446333Y-131697D01*
X446556Y-130000D01*
X446556Y40978D01*
X446333Y42674D01*
X445678Y44255D01*
X444636Y45613D01*
X443278Y46655D01*
X441697Y47310D01*
X440000Y47534D01*
X140000D01*
X138303Y47310D01*
X136722Y46655D01*
X136369Y46385D01*
X135099Y47011D01*
Y74445D01*
X140963Y80309D01*
X205175D01*
X205175Y80309D01*
X208177Y80704D01*
X210974Y81863D01*
X213377Y83706D01*
X218120Y88449D01*
X219963Y90851D01*
X221122Y93649D01*
X221517Y96651D01*
X221122Y99653D01*
X219963Y102451D01*
X218120Y104853D01*
X215717Y106696D01*
X212920Y107855D01*
X209918Y108250D01*
X206916Y107855D01*
X204118Y106696D01*
X201716Y104853D01*
X200370Y103507D01*
X136158D01*
X136158Y103507D01*
X133156Y103112D01*
X130358Y101953D01*
X127956Y100110D01*
X127956Y100110D01*
X115298Y87452D01*
X113455Y85050D01*
X112296Y82252D01*
X111901Y79250D01*
X111901Y79250D01*
Y3803D01*
X95683Y-12415D01*
X94606Y-11696D01*
X95038Y-10654D01*
X95321Y-8500D01*
Y4500D01*
X95038Y6654D01*
X94206Y8661D01*
X92884Y10384D01*
X91161Y11706D01*
X89154Y12538D01*
X87000Y12821D01*
X84846Y12538D01*
X82839Y11706D01*
X81116Y10384D01*
X79794Y8661D01*
X78962Y6654D01*
X78679Y4500D01*
Y-8500D01*
X78962Y-10654D01*
X79794Y-12661D01*
X81116Y-14384D01*
X82839Y-15706D01*
X84846Y-16538D01*
X87000Y-16821D01*
X89154Y-16538D01*
X90196Y-16106D01*
X90915Y-17183D01*
X75273Y-32825D01*
X74099Y-32339D01*
Y2188D01*
X73704Y5190D01*
X72545Y7987D01*
X70702Y10390D01*
X68300Y12233D01*
X65502Y13392D01*
X62500Y13787D01*
X37500D01*
X34498Y13392D01*
X31700Y12233D01*
X29298Y10390D01*
X27455Y7987D01*
X26296Y5190D01*
X25901Y2188D01*
X26296Y-814D01*
X27455Y-3612D01*
X29298Y-6014D01*
X31700Y-7857D01*
X34498Y-9016D01*
X37500Y-9411D01*
X50901D01*
Y-280000D01*
Y-280901D01*
X42500D01*
X39498Y-281296D01*
X36700Y-282455D01*
X34298Y-284298D01*
X32455Y-286700D01*
X31296Y-289498D01*
X30901Y-292500D01*
X31296Y-295502D01*
X32455Y-298300D01*
X32960Y-298958D01*
X32398Y-300097D01*
X-85901D01*
Y4500D01*
X-85901Y4500D01*
X-86296Y7502D01*
X-87455Y10300D01*
X-89298Y12702D01*
X-89298Y12702D01*
X-100111Y23515D01*
X-102513Y25358D01*
X-105311Y26517D01*
X-108313Y26912D01*
X-108313Y26912D01*
X-126759D01*
Y63640D01*
X-126759Y63640D01*
X-127154Y66643D01*
X-128313Y69440D01*
X-130156Y71842D01*
X-136014Y77700D01*
X-138416Y79544D01*
X-141214Y80702D01*
X-144216Y81098D01*
X-144216Y81098D01*
X-192500D01*
X-195502Y80702D01*
X-198300Y79544D01*
X-200702Y77700D01*
X-202545Y75298D01*
X-203704Y72501D01*
X-204099Y69498D01*
X-203749Y66835D01*
X-204521Y65565D01*
X-220469D01*
Y81834D01*
X-166973Y135330D01*
X-166973Y135330D01*
X-165730Y136950D01*
X-164949Y138835D01*
X-164683Y140858D01*
Y175145D01*
X-128689Y211140D01*
X-127446Y212759D01*
X-126989Y213863D01*
X-126665Y214644D01*
X-126399Y216667D01*
Y312500D01*
X-126665Y314523D01*
X-127446Y316408D01*
X-128689Y318027D01*
X-130308Y319270D01*
X-132193Y320051D01*
X-134162Y320310D01*
X-134387Y322023D01*
X-135168Y323908D01*
X-136411Y325527D01*
X-138029Y326770D01*
X-139915Y327551D01*
X-141938Y327817D01*
X-143961Y327551D01*
X-145846Y326770D01*
X-147465Y325527D01*
X-148708Y323908D01*
X-149488Y322023D01*
X-149755Y320000D01*
Y219254D01*
X-160326Y208682D01*
X-161092Y209270D01*
X-162977Y210051D01*
X-165000Y210317D01*
X-167023Y210051D01*
X-168909Y209270D01*
X-170527Y208027D01*
X-178776Y199779D01*
X-180207Y200144D01*
X-180730Y201409D01*
X-181973Y203027D01*
X-183592Y204270D01*
X-185477Y205051D01*
X-187500Y205317D01*
X-189523Y205051D01*
X-191408Y204270D01*
X-193027Y203027D01*
X-194270Y201409D01*
X-195051Y199523D01*
X-195317Y197500D01*
Y190888D01*
X-195357Y190857D01*
X-196291Y190548D01*
X-196821Y190886D01*
X-197334Y191355D01*
X-197183Y192500D01*
X-197183Y192500D01*
Y262500D01*
X-197449Y264523D01*
X-198230Y266409D01*
X-199473Y268027D01*
X-201091Y269270D01*
X-202977Y270051D01*
X-205000Y270317D01*
X-207023Y270051D01*
X-208908Y269270D01*
X-210527Y268027D01*
X-211770Y266409D01*
X-212551Y264523D01*
X-212817Y262500D01*
Y255275D01*
X-214523Y255051D01*
X-216409Y254270D01*
X-218027Y253027D01*
X-219270Y251408D01*
X-220051Y249523D01*
X-220280Y247780D01*
X-222023Y247551D01*
X-223908Y246770D01*
X-225527Y245527D01*
X-226770Y243909D01*
X-227551Y242023D01*
X-227780Y240280D01*
X-229523Y240051D01*
X-231409Y239270D01*
X-233027Y238027D01*
X-234270Y236408D01*
X-235051Y234523D01*
X-235280Y232780D01*
X-237023Y232551D01*
X-238908Y231770D01*
X-240527Y230527D01*
X-241770Y228909D01*
X-242551Y227023D01*
X-242656Y226224D01*
X-242977Y225051D01*
X-245000Y225317D01*
X-247023Y225051D01*
X-248908Y224270D01*
X-250527Y223027D01*
X-251770Y221408D01*
X-252551Y219523D01*
X-252656Y218724D01*
X-252657Y218720D01*
X-254072Y217695D01*
X-255000Y217817D01*
X-257023Y217551D01*
X-258908Y216770D01*
X-260527Y215527D01*
X-265738Y210317D01*
X-296973D01*
X-297822Y211587D01*
X-297183Y213130D01*
X-297134Y213502D01*
X-307899D01*
X-318665D01*
X-318616Y213130D01*
X-317977Y211587D01*
X-318826Y210317D01*
X-321401D01*
X-322429Y210182D01*
X-323322Y211345D01*
X-322583Y213130D01*
X-322534Y213502D01*
X-333299D01*
X-344065D01*
X-344016Y213130D01*
X-342908Y210454D01*
X-341145Y208156D01*
X-338847Y206393D01*
X-336171Y205285D01*
X-333299Y204907D01*
X-331625Y205127D01*
X-331031Y203924D01*
X-334415Y200541D01*
X-335910Y200344D01*
X-338343Y199337D01*
X-340432Y197734D01*
X-342034Y195645D01*
X-343042Y193212D01*
X-343386Y190602D01*
X-343042Y187991D01*
X-342034Y185558D01*
X-340432Y183470D01*
X-338343Y181867D01*
X-335910Y180859D01*
X-333299Y180515D01*
X-330689Y180859D01*
X-330354Y180998D01*
X-329635Y179921D01*
X-334415Y175141D01*
X-335910Y174944D01*
X-338343Y173937D01*
X-340432Y172334D01*
X-342034Y170245D01*
X-343042Y167812D01*
X-343386Y165202D01*
X-343042Y162591D01*
X-342034Y160159D01*
X-340432Y158070D01*
X-338343Y156467D01*
X-335910Y155459D01*
X-333299Y155115D01*
X-330689Y155459D01*
X-330354Y155598D01*
X-329635Y154521D01*
X-334415Y149741D01*
X-335910Y149544D01*
X-338343Y148537D01*
X-340432Y146934D01*
X-342034Y144845D01*
X-343042Y142412D01*
X-343386Y139802D01*
X-343042Y137191D01*
X-342903Y136856D01*
X-343980Y136137D01*
X-349683Y141840D01*
Y267500D01*
X-349949Y269523D01*
X-350525Y270913D01*
X-349931Y272024D01*
X-349724Y272183D01*
X-343269D01*
X-342420Y270913D01*
X-343042Y269412D01*
X-343386Y266802D01*
X-343042Y264191D01*
X-342034Y261758D01*
X-340432Y259670D01*
X-338343Y258067D01*
X-335910Y257059D01*
X-333299Y256715D01*
X-330689Y257059D01*
X-328256Y258067D01*
X-326167Y259670D01*
X-324565Y261758D01*
X-323557Y264191D01*
X-323213Y266802D01*
X-323557Y269412D01*
X-324179Y270913D01*
X-323330Y272183D01*
X-317869D01*
X-317020Y270913D01*
X-317642Y269412D01*
X-317986Y266802D01*
X-317642Y264191D01*
X-316634Y261758D01*
X-315032Y259670D01*
X-312943Y258067D01*
X-310510Y257059D01*
X-307899Y256715D01*
X-305289Y257059D01*
X-302856Y258067D01*
X-300767Y259670D01*
X-299165Y261758D01*
X-298157Y264191D01*
X-297813Y266802D01*
X-298157Y269412D01*
X-298779Y270913D01*
X-297930Y272183D01*
X-275000D01*
X-272977Y272449D01*
X-271092Y273230D01*
X-269473Y274473D01*
X-268230Y276091D01*
X-267449Y277977D01*
X-267183Y280000D01*
X-267449Y282023D01*
X-268230Y283908D01*
X-269473Y285527D01*
X-271092Y286770D01*
X-272977Y287551D01*
X-275000Y287817D01*
X-277346D01*
X-278025Y289087D01*
X-277449Y290477D01*
X-277183Y292500D01*
X-277449Y294523D01*
X-278230Y296408D01*
X-279473Y298027D01*
X-279473Y298027D01*
X-290424Y308979D01*
X-292043Y310221D01*
X-293929Y311002D01*
X-295952Y311269D01*
X-298719D01*
X-299280Y312408D01*
X-299165Y312558D01*
X-298157Y314991D01*
X-297813Y317602D01*
X-297994Y318977D01*
X-297417Y319555D01*
X-296838Y319925D01*
X-295000Y319683D01*
X-292977Y319949D01*
X-291092Y320730D01*
X-289473Y321973D01*
X-288230Y323592D01*
X-287449Y325477D01*
X-287183Y327500D01*
X-287449Y329523D01*
X-288230Y331409D01*
X-289473Y333027D01*
X-297373Y340927D01*
X-298992Y342170D01*
X-300096Y342627D01*
X-300877Y342951D01*
X-302900Y343217D01*
D02*
G37*
G36*
X403299Y352986D02*
X400688Y352643D01*
X398255Y351635D01*
X396166Y350032D01*
X394564Y347943D01*
X393556Y345510D01*
X393212Y342900D01*
X393556Y340289D01*
X394564Y337857D01*
X396166Y335768D01*
X398255Y334165D01*
X400688Y333157D01*
X403299Y332814D01*
X405909Y333157D01*
X408342Y334165D01*
X410431Y335768D01*
X412034Y337857D01*
X413041Y340289D01*
X413385Y342900D01*
X413041Y345510D01*
X412034Y347943D01*
X410431Y350032D01*
X408342Y351635D01*
X405909Y352643D01*
X403299Y352986D01*
D02*
G37*
G36*
X377899D02*
X375288Y352643D01*
X372855Y351635D01*
X370766Y350032D01*
X369164Y347943D01*
X368156Y345510D01*
X367812Y342900D01*
X368156Y340289D01*
X369164Y337857D01*
X370766Y335768D01*
X372855Y334165D01*
X375288Y333157D01*
X377899Y332814D01*
X380509Y333157D01*
X382942Y334165D01*
X385031Y335768D01*
X386633Y337857D01*
X387641Y340289D01*
X387985Y342900D01*
X387641Y345510D01*
X386633Y347943D01*
X385031Y350032D01*
X382942Y351635D01*
X380509Y352643D01*
X377899Y352986D01*
D02*
G37*
G36*
X352499D02*
X349888Y352643D01*
X347455Y351635D01*
X345367Y350032D01*
X343764Y347943D01*
X342756Y345510D01*
X342412Y342900D01*
X342756Y340289D01*
X343764Y337857D01*
X345367Y335768D01*
X347455Y334165D01*
X349888Y333157D01*
X352499Y332814D01*
X355109Y333157D01*
X357542Y334165D01*
X359631Y335768D01*
X361233Y337857D01*
X362241Y340289D01*
X362585Y342900D01*
X362241Y345510D01*
X361233Y347943D01*
X359631Y350032D01*
X357542Y351635D01*
X355109Y352643D01*
X352499Y352986D01*
D02*
G37*
G36*
X327099D02*
X324488Y352643D01*
X322055Y351635D01*
X319967Y350032D01*
X318364Y347943D01*
X317356Y345510D01*
X317012Y342900D01*
X317356Y340289D01*
X318364Y337857D01*
X319967Y335768D01*
X322055Y334165D01*
X324488Y333157D01*
X327099Y332814D01*
X329709Y333157D01*
X332142Y334165D01*
X334231Y335768D01*
X335834Y337857D01*
X336841Y340289D01*
X337185Y342900D01*
X336841Y345510D01*
X335834Y347943D01*
X334231Y350032D01*
X332142Y351635D01*
X329709Y352643D01*
X327099Y352986D01*
D02*
G37*
G36*
X301699D02*
X299088Y352643D01*
X296655Y351635D01*
X294566Y350032D01*
X292964Y347943D01*
X291956Y345510D01*
X291612Y342900D01*
X291956Y340289D01*
X292964Y337857D01*
X294566Y335768D01*
X296655Y334165D01*
X299088Y333157D01*
X301699Y332814D01*
X304309Y333157D01*
X306742Y334165D01*
X308831Y335768D01*
X310434Y337857D01*
X311441Y340289D01*
X311785Y342900D01*
X311441Y345510D01*
X310434Y347943D01*
X308831Y350032D01*
X306742Y351635D01*
X304309Y352643D01*
X301699Y352986D01*
D02*
G37*
G36*
X276299D02*
X273688Y352643D01*
X271255Y351635D01*
X269167Y350032D01*
X267564Y347943D01*
X266556Y345510D01*
X266212Y342900D01*
X266556Y340289D01*
X267564Y337857D01*
X269167Y335768D01*
X271255Y334165D01*
X273688Y333157D01*
X276299Y332814D01*
X278909Y333157D01*
X281342Y334165D01*
X283431Y335768D01*
X285033Y337857D01*
X286041Y340289D01*
X286385Y342900D01*
X286041Y345510D01*
X285033Y347943D01*
X283431Y350032D01*
X281342Y351635D01*
X278909Y352643D01*
X276299Y352986D01*
D02*
G37*
G36*
X250899D02*
X248288Y352643D01*
X245855Y351635D01*
X243766Y350032D01*
X242164Y347943D01*
X241156Y345510D01*
X240812Y342900D01*
X241156Y340289D01*
X242164Y337857D01*
X243766Y335768D01*
X245855Y334165D01*
X248288Y333157D01*
X250899Y332814D01*
X253509Y333157D01*
X255942Y334165D01*
X258031Y335768D01*
X259634Y337857D01*
X260641Y340289D01*
X260985Y342900D01*
X260641Y345510D01*
X259634Y347943D01*
X258031Y350032D01*
X255942Y351635D01*
X253509Y352643D01*
X250899Y352986D01*
D02*
G37*
G36*
X225499D02*
X222888Y352643D01*
X220455Y351635D01*
X218367Y350032D01*
X216764Y347943D01*
X215756Y345510D01*
X215412Y342900D01*
X215756Y340289D01*
X216764Y337857D01*
X218367Y335768D01*
X220455Y334165D01*
X222888Y333157D01*
X225499Y332814D01*
X228109Y333157D01*
X230542Y334165D01*
X232631Y335768D01*
X234233Y337857D01*
X235241Y340289D01*
X235585Y342900D01*
X235241Y345510D01*
X234233Y347943D01*
X232631Y350032D01*
X230542Y351635D01*
X228109Y352643D01*
X225499Y352986D01*
D02*
G37*
G36*
X200099D02*
X197488Y352643D01*
X195055Y351635D01*
X192966Y350032D01*
X191364Y347943D01*
X190356Y345510D01*
X190012Y342900D01*
X190356Y340289D01*
X191364Y337857D01*
X192966Y335768D01*
X195055Y334165D01*
X197488Y333157D01*
X200099Y332814D01*
X202709Y333157D01*
X205142Y334165D01*
X207231Y335768D01*
X208834Y337857D01*
X209841Y340289D01*
X210185Y342900D01*
X209841Y345510D01*
X208834Y347943D01*
X207231Y350032D01*
X205142Y351635D01*
X202709Y352643D01*
X200099Y352986D01*
D02*
G37*
G36*
X174699D02*
X172088Y352643D01*
X169655Y351635D01*
X167567Y350032D01*
X165964Y347943D01*
X164956Y345510D01*
X164612Y342900D01*
X164956Y340289D01*
X165964Y337857D01*
X167567Y335768D01*
X169655Y334165D01*
X172088Y333157D01*
X174699Y332814D01*
X177309Y333157D01*
X179742Y334165D01*
X181831Y335768D01*
X183433Y337857D01*
X184441Y340289D01*
X184785Y342900D01*
X184441Y345510D01*
X183433Y347943D01*
X181831Y350032D01*
X179742Y351635D01*
X177309Y352643D01*
X174699Y352986D01*
D02*
G37*
G36*
X123899D02*
X121288Y352643D01*
X118855Y351635D01*
X116767Y350032D01*
X115164Y347943D01*
X114156Y345510D01*
X113812Y342900D01*
X114156Y340289D01*
X115164Y337857D01*
X116767Y335768D01*
X118855Y334165D01*
X121288Y333157D01*
X123899Y332814D01*
X126509Y333157D01*
X128942Y334165D01*
X131031Y335768D01*
X132633Y337857D01*
X133641Y340289D01*
X133985Y342900D01*
X133641Y345510D01*
X132633Y347943D01*
X131031Y350032D01*
X128942Y351635D01*
X126509Y352643D01*
X123899Y352986D01*
D02*
G37*
G36*
X47699D02*
X45088Y352643D01*
X42655Y351635D01*
X40567Y350032D01*
X38964Y347943D01*
X37956Y345510D01*
X37612Y342900D01*
X37956Y340289D01*
X38964Y337857D01*
X40567Y335768D01*
X42655Y334165D01*
X45088Y333157D01*
X47699Y332814D01*
X50309Y333157D01*
X52742Y334165D01*
X54831Y335768D01*
X56434Y337857D01*
X57441Y340289D01*
X57785Y342900D01*
X57441Y345510D01*
X56434Y347943D01*
X54831Y350032D01*
X52742Y351635D01*
X50309Y352643D01*
X47699Y352986D01*
D02*
G37*
G36*
X22299D02*
X19688Y352643D01*
X17255Y351635D01*
X15166Y350032D01*
X13564Y347943D01*
X12556Y345510D01*
X12212Y342900D01*
X12556Y340289D01*
X13564Y337857D01*
X15166Y335768D01*
X17255Y334165D01*
X19688Y333157D01*
X22299Y332814D01*
X24909Y333157D01*
X27342Y334165D01*
X29431Y335768D01*
X31033Y337857D01*
X32041Y340289D01*
X32385Y342900D01*
X32041Y345510D01*
X31033Y347943D01*
X29431Y350032D01*
X27342Y351635D01*
X24909Y352643D01*
X22299Y352986D01*
D02*
G37*
G36*
X-3101D02*
X-5712Y352643D01*
X-8145Y351635D01*
X-10234Y350032D01*
X-11836Y347943D01*
X-12844Y345510D01*
X-13188Y342900D01*
X-12844Y340289D01*
X-11836Y337857D01*
X-10234Y335768D01*
X-8145Y334165D01*
X-5712Y333157D01*
X-3101Y332814D01*
X-491Y333157D01*
X1942Y334165D01*
X4031Y335768D01*
X5634Y337857D01*
X6641Y340289D01*
X6985Y342900D01*
X6641Y345510D01*
X5634Y347943D01*
X4031Y350032D01*
X1942Y351635D01*
X-491Y352643D01*
X-3101Y352986D01*
D02*
G37*
G36*
X-28501D02*
X-31112Y352643D01*
X-33545Y351635D01*
X-35633Y350032D01*
X-37236Y347943D01*
X-38244Y345510D01*
X-38588Y342900D01*
X-38244Y340289D01*
X-37236Y337857D01*
X-35633Y335768D01*
X-33545Y334165D01*
X-31112Y333157D01*
X-28501Y332814D01*
X-25891Y333157D01*
X-23458Y334165D01*
X-21369Y335768D01*
X-19766Y337857D01*
X-18759Y340289D01*
X-18415Y342900D01*
X-18759Y345510D01*
X-19766Y347943D01*
X-21369Y350032D01*
X-23458Y351635D01*
X-25891Y352643D01*
X-28501Y352986D01*
D02*
G37*
G36*
X-53901D02*
X-56512Y352643D01*
X-58945Y351635D01*
X-61034Y350032D01*
X-62636Y347943D01*
X-63644Y345510D01*
X-63988Y342900D01*
X-63644Y340289D01*
X-62636Y337857D01*
X-61034Y335768D01*
X-58945Y334165D01*
X-56512Y333157D01*
X-53901Y332814D01*
X-51291Y333157D01*
X-48858Y334165D01*
X-46769Y335768D01*
X-45167Y337857D01*
X-44159Y340289D01*
X-43815Y342900D01*
X-44159Y345510D01*
X-45167Y347943D01*
X-46769Y350032D01*
X-48858Y351635D01*
X-51291Y352643D01*
X-53901Y352986D01*
D02*
G37*
G36*
X-79301D02*
X-81912Y352643D01*
X-84345Y351635D01*
X-86433Y350032D01*
X-88036Y347943D01*
X-89044Y345510D01*
X-89388Y342900D01*
X-89044Y340289D01*
X-88036Y337857D01*
X-86433Y335768D01*
X-84345Y334165D01*
X-81912Y333157D01*
X-79301Y332814D01*
X-76691Y333157D01*
X-74258Y334165D01*
X-72169Y335768D01*
X-70567Y337857D01*
X-69559Y340289D01*
X-69215Y342900D01*
X-69559Y345510D01*
X-70567Y347943D01*
X-72169Y350032D01*
X-74258Y351635D01*
X-76691Y352643D01*
X-79301Y352986D01*
D02*
G37*
G36*
X-104701D02*
X-107312Y352643D01*
X-109745Y351635D01*
X-111833Y350032D01*
X-113436Y347943D01*
X-114444Y345510D01*
X-114788Y342900D01*
X-114444Y340289D01*
X-113436Y337857D01*
X-111833Y335768D01*
X-109745Y334165D01*
X-107312Y333157D01*
X-104701Y332814D01*
X-102091Y333157D01*
X-99658Y334165D01*
X-97569Y335768D01*
X-95967Y337857D01*
X-94959Y340289D01*
X-94615Y342900D01*
X-94959Y345510D01*
X-95967Y347943D01*
X-97569Y350032D01*
X-99658Y351635D01*
X-102091Y352643D01*
X-104701Y352986D01*
D02*
G37*
G36*
X-130101D02*
X-132712Y352643D01*
X-135145Y351635D01*
X-137233Y350032D01*
X-138836Y347943D01*
X-139844Y345510D01*
X-140188Y342900D01*
X-139844Y340289D01*
X-138836Y337857D01*
X-137233Y335768D01*
X-135145Y334165D01*
X-132712Y333157D01*
X-130101Y332814D01*
X-127491Y333157D01*
X-125058Y334165D01*
X-122969Y335768D01*
X-121367Y337857D01*
X-120359Y340289D01*
X-120015Y342900D01*
X-120359Y345510D01*
X-121367Y347943D01*
X-122969Y350032D01*
X-125058Y351635D01*
X-127491Y352643D01*
X-130101Y352986D01*
D02*
G37*
G36*
X-155501D02*
X-158112Y352643D01*
X-160545Y351635D01*
X-162633Y350032D01*
X-164236Y347943D01*
X-165244Y345510D01*
X-165588Y342900D01*
X-165244Y340289D01*
X-164236Y337857D01*
X-162633Y335768D01*
X-160545Y334165D01*
X-158112Y333157D01*
X-155501Y332814D01*
X-152891Y333157D01*
X-150458Y334165D01*
X-148369Y335768D01*
X-146767Y337857D01*
X-145759Y340289D01*
X-145415Y342900D01*
X-145759Y345510D01*
X-146767Y347943D01*
X-148369Y350032D01*
X-150458Y351635D01*
X-152891Y352643D01*
X-155501Y352986D01*
D02*
G37*
G36*
X-180901D02*
X-183512Y352643D01*
X-185945Y351635D01*
X-188034Y350032D01*
X-189636Y347943D01*
X-190644Y345510D01*
X-190988Y342900D01*
X-190644Y340289D01*
X-189636Y337857D01*
X-188034Y335768D01*
X-185945Y334165D01*
X-183512Y333157D01*
X-180901Y332814D01*
X-178291Y333157D01*
X-175858Y334165D01*
X-173769Y335768D01*
X-172167Y337857D01*
X-171159Y340289D01*
X-170815Y342900D01*
X-171159Y345510D01*
X-172167Y347943D01*
X-173769Y350032D01*
X-175858Y351635D01*
X-178291Y352643D01*
X-180901Y352986D01*
D02*
G37*
G36*
X-206301D02*
X-208912Y352643D01*
X-211345Y351635D01*
X-213433Y350032D01*
X-215036Y347943D01*
X-216044Y345510D01*
X-216388Y342900D01*
X-216044Y340289D01*
X-215036Y337857D01*
X-213433Y335768D01*
X-211345Y334165D01*
X-208912Y333157D01*
X-206301Y332814D01*
X-203691Y333157D01*
X-201258Y334165D01*
X-199169Y335768D01*
X-197567Y337857D01*
X-196559Y340289D01*
X-196215Y342900D01*
X-196559Y345510D01*
X-197567Y347943D01*
X-199169Y350032D01*
X-201258Y351635D01*
X-203691Y352643D01*
X-206301Y352986D01*
D02*
G37*
G36*
X-231701D02*
X-234312Y352643D01*
X-236745Y351635D01*
X-238834Y350032D01*
X-240436Y347943D01*
X-241444Y345510D01*
X-241788Y342900D01*
X-241444Y340289D01*
X-240436Y337857D01*
X-238834Y335768D01*
X-236745Y334165D01*
X-234312Y333157D01*
X-231701Y332814D01*
X-229091Y333157D01*
X-226658Y334165D01*
X-224569Y335768D01*
X-222966Y337857D01*
X-221959Y340289D01*
X-221615Y342900D01*
X-221959Y345510D01*
X-222966Y347943D01*
X-224569Y350032D01*
X-226658Y351635D01*
X-229091Y352643D01*
X-231701Y352986D01*
D02*
G37*
G36*
X149299D02*
X146688Y352643D01*
X144255Y351635D01*
X142167Y350032D01*
X140564Y347943D01*
X139556Y345510D01*
X139212Y342900D01*
X139556Y340289D01*
X140564Y337857D01*
X141482Y336660D01*
Y320000D01*
X141748Y317977D01*
X142529Y316092D01*
X143771Y314473D01*
X145390Y313230D01*
X147275Y312449D01*
X149299Y312183D01*
X151322Y312449D01*
X153207Y313230D01*
X154826Y314473D01*
X156068Y316092D01*
X156849Y317977D01*
X157115Y320000D01*
Y336660D01*
X158034Y337857D01*
X159041Y340289D01*
X159385Y342900D01*
X159041Y345510D01*
X158034Y347943D01*
X156431Y350032D01*
X154342Y351635D01*
X151909Y352643D01*
X149299Y352986D01*
D02*
G37*
G36*
X-580000Y260500D02*
Y247500D01*
X-573000D01*
Y260500D01*
X-580000D01*
D02*
G37*
G36*
X680000D02*
X673000D01*
Y247500D01*
X680000D01*
Y260500D01*
D02*
G37*
G36*
X-307899Y251488D02*
X-310510Y251144D01*
X-312943Y250137D01*
X-315032Y248534D01*
X-316634Y246445D01*
X-317642Y244012D01*
X-317986Y241402D01*
X-317642Y238791D01*
X-316634Y236359D01*
X-315032Y234270D01*
X-312943Y232667D01*
X-310510Y231659D01*
X-307899Y231315D01*
X-305289Y231659D01*
X-302856Y232667D01*
X-300767Y234270D01*
X-299165Y236359D01*
X-298157Y238791D01*
X-297813Y241402D01*
X-298157Y244012D01*
X-299165Y246445D01*
X-300767Y248534D01*
X-302856Y250137D01*
X-305289Y251144D01*
X-307899Y251488D01*
D02*
G37*
G36*
X-333299D02*
X-335910Y251144D01*
X-338343Y250137D01*
X-340432Y248534D01*
X-342034Y246445D01*
X-343042Y244012D01*
X-343386Y241402D01*
X-343042Y238791D01*
X-342034Y236359D01*
X-340432Y234270D01*
X-338343Y232667D01*
X-335910Y231659D01*
X-333299Y231315D01*
X-330689Y231659D01*
X-328256Y232667D01*
X-326167Y234270D01*
X-324565Y236359D01*
X-323557Y238791D01*
X-323213Y241402D01*
X-323557Y244012D01*
X-324565Y246445D01*
X-326167Y248534D01*
X-328256Y250137D01*
X-330689Y251144D01*
X-333299Y251488D01*
D02*
G37*
G36*
X680000Y242500D02*
X673000D01*
Y229500D01*
X680000D01*
Y242500D01*
D02*
G37*
G36*
X-573000Y242500D02*
X-580000D01*
Y229500D01*
X-573000D01*
Y242500D01*
D02*
G37*
G36*
X-305399Y226767D02*
Y218502D01*
X-297134D01*
X-297183Y218873D01*
X-298291Y221549D01*
X-300054Y223847D01*
X-302352Y225610D01*
X-305028Y226719D01*
X-305399Y226767D01*
D02*
G37*
G36*
X-330799D02*
Y218502D01*
X-322534D01*
X-322583Y218873D01*
X-323691Y221549D01*
X-325454Y223847D01*
X-327752Y225610D01*
X-330428Y226719D01*
X-330799Y226767D01*
D02*
G37*
G36*
X-310399D02*
X-310771Y226719D01*
X-313447Y225610D01*
X-315745Y223847D01*
X-317508Y221549D01*
X-318616Y218873D01*
X-318665Y218502D01*
X-310399D01*
Y226767D01*
D02*
G37*
G36*
X-335799D02*
X-336171Y226719D01*
X-338847Y225610D01*
X-341145Y223847D01*
X-342908Y221549D01*
X-344016Y218873D01*
X-344065Y218502D01*
X-335799D01*
Y226767D01*
D02*
G37*
G36*
X-580000Y170500D02*
Y157500D01*
X-573000D01*
Y170500D01*
X-580000D01*
D02*
G37*
G36*
X680000D02*
X673000D01*
Y157500D01*
X680000D01*
Y170500D01*
D02*
G37*
G36*
Y152500D02*
X673000D01*
Y139500D01*
X680000D01*
Y152500D01*
D02*
G37*
G36*
X-573000Y152500D02*
X-580000D01*
Y139500D01*
X-573000D01*
Y152500D01*
D02*
G37*
G36*
X646000Y259500D02*
X629000D01*
Y230500D01*
X629685D01*
Y169500D01*
X629000D01*
Y140500D01*
X643683D01*
Y137000D01*
X640852D01*
X639523Y137550D01*
X637500Y137817D01*
X635477Y137550D01*
X634148Y137000D01*
X631000D01*
Y134260D01*
X630730Y133908D01*
X629949Y132023D01*
X629683Y130000D01*
Y118238D01*
X611973Y100527D01*
X610730Y98908D01*
X609949Y97023D01*
X609683Y95000D01*
Y-322500D01*
X609949Y-324523D01*
X610730Y-326408D01*
X611973Y-328027D01*
X613592Y-329270D01*
X615477Y-330051D01*
X617220Y-330280D01*
X617449Y-332023D01*
X618230Y-333908D01*
X619473Y-335527D01*
X621091Y-336770D01*
X622977Y-337551D01*
X625000Y-337817D01*
X627023Y-337551D01*
X628908Y-336770D01*
X630527Y-335527D01*
X631770Y-333908D01*
X632551Y-332023D01*
X632817Y-330000D01*
Y-259500D01*
X646000D01*
Y-230500D01*
X645819D01*
Y-169500D01*
X646000D01*
Y-162817D01*
X647000D01*
X649023Y-162551D01*
X649804Y-162227D01*
X650909Y-161770D01*
X652527Y-160527D01*
X657527Y-155527D01*
X658770Y-153909D01*
X659551Y-152023D01*
X659817Y-150000D01*
Y-137817D01*
X669002D01*
X671025Y-137551D01*
X672354Y-137000D01*
X675000D01*
X675000Y-138000D01*
X680000D01*
Y-130000D01*
Y-122000D01*
X675000D01*
X675000Y-123000D01*
X672354D01*
X671025Y-122450D01*
X669002Y-122183D01*
X652000D01*
X652000Y-122183D01*
X649977Y-122450D01*
X648648Y-123000D01*
X645497D01*
X645497Y-123000D01*
X644497D01*
Y-123000D01*
X644227Y-123000D01*
X641349D01*
X640020Y-122450D01*
X637997Y-122183D01*
X630000D01*
X627977Y-122450D01*
X626587Y-123025D01*
X625317Y-122346D01*
Y91762D01*
X643027Y109473D01*
X644270Y111091D01*
X645051Y112977D01*
X645317Y115000D01*
Y123000D01*
X648148D01*
X649477Y122450D01*
X651500Y122183D01*
X651500Y122183D01*
X668502D01*
X670525Y122450D01*
X671854Y123000D01*
X674998D01*
X674998Y122000D01*
X679998D01*
Y130000D01*
Y138000D01*
X674998D01*
X674998Y137000D01*
X671854D01*
X670525Y137551D01*
X668502Y137817D01*
X659317D01*
Y150000D01*
X659051Y152023D01*
X658270Y153909D01*
X657027Y155527D01*
X652027Y160527D01*
X650408Y161770D01*
X648523Y162551D01*
X646500Y162817D01*
X646000D01*
Y169500D01*
X645319D01*
Y230500D01*
X646000D01*
Y259500D01*
D02*
G37*
G36*
X-529000D02*
X-546000D01*
Y230500D01*
X-545318D01*
Y169500D01*
X-546000D01*
Y162817D01*
X-546500D01*
X-548523Y162551D01*
X-550408Y161770D01*
X-552027Y160527D01*
X-557027Y155527D01*
X-558270Y153909D01*
X-558727Y152804D01*
X-559050Y152023D01*
X-559317Y150000D01*
Y137817D01*
X-568502D01*
X-570525Y137551D01*
X-571854Y137000D01*
X-574998D01*
X-574998Y138000D01*
X-579998D01*
Y130000D01*
Y122000D01*
X-574998D01*
X-574998Y123000D01*
X-571854D01*
X-570525Y122450D01*
X-568502Y122183D01*
X-551500D01*
X-551500Y122183D01*
X-549477Y122450D01*
X-548148Y123000D01*
X-545317D01*
Y115000D01*
X-545051Y112977D01*
X-544270Y111091D01*
X-543027Y109473D01*
X-525317Y91762D01*
Y-122346D01*
X-526587Y-123025D01*
X-527977Y-122450D01*
X-530000Y-122183D01*
X-537997D01*
X-540020Y-122450D01*
X-541349Y-123000D01*
X-543728D01*
X-543998Y-123000D01*
Y-123000D01*
X-544998D01*
Y-123000D01*
X-548146D01*
X-549475Y-122449D01*
X-551498Y-122183D01*
X-551498Y-122183D01*
X-568500D01*
X-570523Y-122450D01*
X-571852Y-123000D01*
X-575000D01*
X-575000Y-122000D01*
X-580000D01*
Y-130000D01*
Y-138000D01*
X-575000D01*
X-575000Y-137000D01*
X-571852D01*
X-570523Y-137550D01*
X-568500Y-137817D01*
X-559315D01*
Y-150000D01*
X-559049Y-152023D01*
X-558268Y-153908D01*
X-557026Y-155527D01*
X-552026Y-160527D01*
X-550407Y-161770D01*
X-548521Y-162551D01*
X-546498Y-162817D01*
X-546000D01*
Y-169500D01*
X-545317D01*
Y-230500D01*
X-546000D01*
Y-259500D01*
X-532817D01*
Y-330000D01*
X-532551Y-332023D01*
X-531770Y-333908D01*
X-530527Y-335527D01*
X-528908Y-336770D01*
X-527023Y-337551D01*
X-525000Y-337817D01*
X-522977Y-337551D01*
X-521091Y-336770D01*
X-519473Y-335527D01*
X-518230Y-333908D01*
X-517449Y-332023D01*
X-517220Y-330280D01*
X-515477Y-330051D01*
X-513592Y-329270D01*
X-511973Y-328027D01*
X-510730Y-326408D01*
X-509949Y-324523D01*
X-509683Y-322500D01*
Y95000D01*
X-509949Y97023D01*
X-510730Y98908D01*
X-511973Y100527D01*
X-529683Y118238D01*
Y130000D01*
X-529949Y132023D01*
X-530730Y133908D01*
X-531000Y134260D01*
Y137000D01*
X-534148D01*
X-535477Y137550D01*
X-537500Y137817D01*
X-539523Y137550D01*
X-540852Y137000D01*
X-543683D01*
Y140500D01*
X-529000D01*
Y169500D01*
X-529685D01*
Y230500D01*
X-529000D01*
Y259500D01*
D02*
G37*
G36*
X689998Y138000D02*
X684998D01*
Y132500D01*
X689998D01*
Y138000D01*
D02*
G37*
G36*
X-584998D02*
X-589998D01*
Y132500D01*
X-584998D01*
Y138000D01*
D02*
G37*
G36*
X689998Y127500D02*
X684998D01*
Y122000D01*
X689998D01*
Y127500D01*
D02*
G37*
G36*
X-584998Y127500D02*
X-589998D01*
Y122000D01*
X-584998D01*
Y127500D01*
D02*
G37*
G36*
X690000Y-122000D02*
X685000D01*
Y-127500D01*
X690000D01*
Y-122000D01*
D02*
G37*
G36*
X-585000Y-122000D02*
X-590000D01*
Y-127500D01*
X-585000D01*
Y-122000D01*
D02*
G37*
G36*
Y-132500D02*
X-590000D01*
Y-138000D01*
X-585000D01*
Y-132500D01*
D02*
G37*
G36*
X690000Y-132500D02*
X685000D01*
Y-138000D01*
X690000D01*
Y-132500D01*
D02*
G37*
G36*
X-580000Y-139500D02*
Y-152500D01*
X-573000D01*
Y-139500D01*
X-580000D01*
D02*
G37*
G36*
X680000D02*
X673000D01*
Y-152500D01*
X680000D01*
Y-139500D01*
D02*
G37*
G36*
X-72500Y-12745D02*
X-74523Y-13012D01*
X-76408Y-13793D01*
X-78027Y-15035D01*
X-79270Y-16654D01*
X-80050Y-18539D01*
X-80317Y-20562D01*
Y-157500D01*
X-80050Y-159523D01*
X-79270Y-161408D01*
X-78027Y-163027D01*
X-76408Y-164270D01*
X-74523Y-165051D01*
X-72500Y-165317D01*
X-70477Y-165051D01*
X-68592Y-164270D01*
X-66973Y-163027D01*
X-65730Y-161408D01*
X-64949Y-159523D01*
X-64683Y-157500D01*
Y-20562D01*
X-64949Y-18539D01*
X-65730Y-16654D01*
X-66973Y-15035D01*
X-68592Y-13793D01*
X-70477Y-13012D01*
X-72500Y-12745D01*
D02*
G37*
G36*
X680000Y-157500D02*
X673000D01*
Y-170500D01*
X680000D01*
Y-157500D01*
D02*
G37*
G36*
X-573000Y-157500D02*
X-580000D01*
Y-170500D01*
X-573000D01*
Y-157500D01*
D02*
G37*
G36*
X-580000Y-229500D02*
Y-242500D01*
X-573000D01*
Y-229500D01*
X-580000D01*
D02*
G37*
G36*
X680000D02*
X673000D01*
Y-242500D01*
X680000D01*
Y-229500D01*
D02*
G37*
G36*
Y-247500D02*
X673000D01*
Y-260500D01*
X680000D01*
Y-247500D01*
D02*
G37*
G36*
X-573000Y-247500D02*
X-580000D01*
Y-260500D01*
X-573000D01*
Y-247500D01*
D02*
G37*
G36*
X-310399Y-269098D02*
X-318665D01*
X-318616Y-269470D01*
X-317508Y-272146D01*
X-315745Y-274444D01*
X-313447Y-276207D01*
X-310771Y-277315D01*
X-310399Y-277364D01*
Y-269098D01*
D02*
G37*
G36*
X-333299Y-281912D02*
X-335910Y-282256D01*
X-338343Y-283263D01*
X-340432Y-284866D01*
X-342034Y-286955D01*
X-343042Y-289388D01*
X-343386Y-291998D01*
X-343042Y-294609D01*
X-342034Y-297041D01*
X-340432Y-299130D01*
X-338343Y-300733D01*
X-335910Y-301741D01*
X-333299Y-302085D01*
X-330689Y-301741D01*
X-328256Y-300733D01*
X-326167Y-299130D01*
X-324565Y-297041D01*
X-323557Y-294609D01*
X-323213Y-291998D01*
X-323557Y-289388D01*
X-324565Y-286955D01*
X-326167Y-284866D01*
X-328256Y-283263D01*
X-330689Y-282256D01*
X-333299Y-281912D01*
D02*
G37*
G36*
X304202Y-332134D02*
Y-340400D01*
X312468D01*
X312419Y-340028D01*
X311310Y-337353D01*
X309547Y-335055D01*
X307249Y-333292D01*
X304573Y-332183D01*
X304202Y-332134D01*
D02*
G37*
G36*
X299202D02*
X298830Y-332183D01*
X296154Y-333292D01*
X293857Y-335055D01*
X292093Y-337353D01*
X290985Y-340028D01*
X290936Y-340400D01*
X299202D01*
Y-332134D01*
D02*
G37*
G36*
X228002D02*
Y-340400D01*
X236268D01*
X236219Y-340028D01*
X235110Y-337353D01*
X233347Y-335055D01*
X231049Y-333292D01*
X228373Y-332183D01*
X228002Y-332134D01*
D02*
G37*
G36*
X223002D02*
X222630Y-332183D01*
X219954Y-333292D01*
X217657Y-335055D01*
X215893Y-337353D01*
X214785Y-340028D01*
X214736Y-340400D01*
X223002D01*
Y-332134D01*
D02*
G37*
G36*
X-220698Y-331900D02*
X-229198D01*
Y-340400D01*
X-220698D01*
Y-331900D01*
D02*
G37*
G36*
X-234198D02*
X-242698D01*
Y-340400D01*
X-234198D01*
Y-331900D01*
D02*
G37*
G36*
X403302Y-332814D02*
X400691Y-333157D01*
X398259Y-334165D01*
X396170Y-335768D01*
X394567Y-337857D01*
X393559Y-340289D01*
X393216Y-342900D01*
X393559Y-345510D01*
X394567Y-347943D01*
X396170Y-350032D01*
X398259Y-351635D01*
X400691Y-352643D01*
X403302Y-352986D01*
X405912Y-352643D01*
X408345Y-351635D01*
X410434Y-350032D01*
X412037Y-347943D01*
X413044Y-345510D01*
X413388Y-342900D01*
X413044Y-340289D01*
X412037Y-337857D01*
X410434Y-335768D01*
X408345Y-334165D01*
X405912Y-333157D01*
X403302Y-332814D01*
D02*
G37*
G36*
X377902D02*
X375291Y-333157D01*
X372859Y-334165D01*
X370770Y-335768D01*
X369167Y-337857D01*
X368159Y-340289D01*
X367816Y-342900D01*
X368159Y-345510D01*
X369167Y-347943D01*
X370770Y-350032D01*
X372859Y-351635D01*
X375291Y-352643D01*
X377902Y-352986D01*
X380512Y-352643D01*
X382945Y-351635D01*
X385034Y-350032D01*
X386637Y-347943D01*
X387644Y-345510D01*
X387988Y-342900D01*
X387644Y-340289D01*
X386637Y-337857D01*
X385034Y-335768D01*
X382945Y-334165D01*
X380512Y-333157D01*
X377902Y-332814D01*
D02*
G37*
G36*
X352502D02*
X349891Y-333157D01*
X347459Y-334165D01*
X345370Y-335768D01*
X343767Y-337857D01*
X342759Y-340289D01*
X342416Y-342900D01*
X342759Y-345510D01*
X343767Y-347943D01*
X345370Y-350032D01*
X347459Y-351635D01*
X349891Y-352643D01*
X352502Y-352986D01*
X355112Y-352643D01*
X357545Y-351635D01*
X359634Y-350032D01*
X361237Y-347943D01*
X362244Y-345510D01*
X362588Y-342900D01*
X362244Y-340289D01*
X361237Y-337857D01*
X359634Y-335768D01*
X357545Y-334165D01*
X355112Y-333157D01*
X352502Y-332814D01*
D02*
G37*
G36*
X327102D02*
X324491Y-333157D01*
X322059Y-334165D01*
X319970Y-335768D01*
X318367Y-337857D01*
X317359Y-340289D01*
X317016Y-342900D01*
X317359Y-345510D01*
X318367Y-347943D01*
X319970Y-350032D01*
X322059Y-351635D01*
X324491Y-352643D01*
X327102Y-352986D01*
X329712Y-352643D01*
X332145Y-351635D01*
X334234Y-350032D01*
X335837Y-347943D01*
X336844Y-345510D01*
X337188Y-342900D01*
X336844Y-340289D01*
X335837Y-337857D01*
X334234Y-335768D01*
X332145Y-334165D01*
X329712Y-333157D01*
X327102Y-332814D01*
D02*
G37*
G36*
X276302D02*
X273691Y-333157D01*
X271259Y-334165D01*
X269170Y-335768D01*
X267567Y-337857D01*
X266559Y-340289D01*
X266216Y-342900D01*
X266559Y-345510D01*
X267567Y-347943D01*
X269170Y-350032D01*
X271259Y-351635D01*
X273691Y-352643D01*
X276302Y-352986D01*
X278912Y-352643D01*
X281345Y-351635D01*
X283434Y-350032D01*
X285037Y-347943D01*
X286044Y-345510D01*
X286388Y-342900D01*
X286044Y-340289D01*
X285037Y-337857D01*
X283434Y-335768D01*
X281345Y-334165D01*
X278912Y-333157D01*
X276302Y-332814D01*
D02*
G37*
G36*
X250902D02*
X248291Y-333157D01*
X245859Y-334165D01*
X243770Y-335768D01*
X242167Y-337857D01*
X241159Y-340289D01*
X240816Y-342900D01*
X241159Y-345510D01*
X242167Y-347943D01*
X243770Y-350032D01*
X245859Y-351635D01*
X248291Y-352643D01*
X250902Y-352986D01*
X253512Y-352643D01*
X255945Y-351635D01*
X258034Y-350032D01*
X259637Y-347943D01*
X260644Y-345510D01*
X260988Y-342900D01*
X260644Y-340289D01*
X259637Y-337857D01*
X258034Y-335768D01*
X255945Y-334165D01*
X253512Y-333157D01*
X250902Y-332814D01*
D02*
G37*
G36*
X200102D02*
X197491Y-333157D01*
X195059Y-334165D01*
X192970Y-335768D01*
X191367Y-337857D01*
X190359Y-340289D01*
X190016Y-342900D01*
X190359Y-345510D01*
X191367Y-347943D01*
X192970Y-350032D01*
X195059Y-351635D01*
X197491Y-352643D01*
X200102Y-352986D01*
X202712Y-352643D01*
X205145Y-351635D01*
X207234Y-350032D01*
X208837Y-347943D01*
X209844Y-345510D01*
X210188Y-342900D01*
X209844Y-340289D01*
X208837Y-337857D01*
X207234Y-335768D01*
X205145Y-334165D01*
X202712Y-333157D01*
X200102Y-332814D01*
D02*
G37*
G36*
X174702D02*
X172091Y-333157D01*
X169659Y-334165D01*
X167570Y-335768D01*
X165967Y-337857D01*
X164959Y-340289D01*
X164616Y-342900D01*
X164959Y-345510D01*
X165967Y-347943D01*
X167570Y-350032D01*
X169659Y-351635D01*
X172091Y-352643D01*
X174702Y-352986D01*
X177312Y-352643D01*
X179745Y-351635D01*
X181834Y-350032D01*
X183437Y-347943D01*
X184444Y-345510D01*
X184788Y-342900D01*
X184444Y-340289D01*
X183437Y-337857D01*
X181834Y-335768D01*
X179745Y-334165D01*
X177312Y-333157D01*
X174702Y-332814D01*
D02*
G37*
G36*
X149302D02*
X146691Y-333157D01*
X144259Y-334165D01*
X142170Y-335768D01*
X140567Y-337857D01*
X139559Y-340289D01*
X139216Y-342900D01*
X139559Y-345510D01*
X140567Y-347943D01*
X142170Y-350032D01*
X144259Y-351635D01*
X146691Y-352643D01*
X149302Y-352986D01*
X151912Y-352643D01*
X154345Y-351635D01*
X156434Y-350032D01*
X158037Y-347943D01*
X159044Y-345510D01*
X159388Y-342900D01*
X159044Y-340289D01*
X158037Y-337857D01*
X156434Y-335768D01*
X154345Y-334165D01*
X151912Y-333157D01*
X149302Y-332814D01*
D02*
G37*
G36*
X47702D02*
X45091Y-333157D01*
X42659Y-334165D01*
X40570Y-335768D01*
X38967Y-337857D01*
X37959Y-340289D01*
X37616Y-342900D01*
X37959Y-345510D01*
X38967Y-347943D01*
X40570Y-350032D01*
X42659Y-351635D01*
X45091Y-352643D01*
X47702Y-352986D01*
X50312Y-352643D01*
X52745Y-351635D01*
X54834Y-350032D01*
X56437Y-347943D01*
X57444Y-345510D01*
X57788Y-342900D01*
X57444Y-340289D01*
X56437Y-337857D01*
X54834Y-335768D01*
X52745Y-334165D01*
X50312Y-333157D01*
X47702Y-332814D01*
D02*
G37*
G36*
X22302D02*
X19691Y-333157D01*
X17259Y-334165D01*
X15170Y-335768D01*
X13567Y-337857D01*
X12559Y-340289D01*
X12216Y-342900D01*
X12559Y-345510D01*
X13567Y-347943D01*
X15170Y-350032D01*
X17259Y-351635D01*
X19691Y-352643D01*
X22302Y-352986D01*
X24912Y-352643D01*
X27345Y-351635D01*
X29434Y-350032D01*
X31037Y-347943D01*
X32044Y-345510D01*
X32388Y-342900D01*
X32044Y-340289D01*
X31037Y-337857D01*
X29434Y-335768D01*
X27345Y-334165D01*
X24912Y-333157D01*
X22302Y-332814D01*
D02*
G37*
G36*
X-3098D02*
X-5709Y-333157D01*
X-8141Y-334165D01*
X-10230Y-335768D01*
X-11833Y-337857D01*
X-12841Y-340289D01*
X-13184Y-342900D01*
X-12841Y-345510D01*
X-11833Y-347943D01*
X-10230Y-350032D01*
X-8141Y-351635D01*
X-5709Y-352643D01*
X-3098Y-352986D01*
X-488Y-352643D01*
X1945Y-351635D01*
X4034Y-350032D01*
X5637Y-347943D01*
X6644Y-345510D01*
X6988Y-342900D01*
X6644Y-340289D01*
X5637Y-337857D01*
X4034Y-335768D01*
X1945Y-334165D01*
X-488Y-333157D01*
X-3098Y-332814D01*
D02*
G37*
G36*
X-28498D02*
X-31109Y-333157D01*
X-33541Y-334165D01*
X-35630Y-335768D01*
X-37233Y-337857D01*
X-38241Y-340289D01*
X-38584Y-342900D01*
X-38241Y-345510D01*
X-37233Y-347943D01*
X-35630Y-350032D01*
X-33541Y-351635D01*
X-31109Y-352643D01*
X-28498Y-352986D01*
X-25888Y-352643D01*
X-23455Y-351635D01*
X-21366Y-350032D01*
X-19763Y-347943D01*
X-18756Y-345510D01*
X-18412Y-342900D01*
X-18756Y-340289D01*
X-19763Y-337857D01*
X-21366Y-335768D01*
X-23455Y-334165D01*
X-25888Y-333157D01*
X-28498Y-332814D01*
D02*
G37*
G36*
X-53898D02*
X-56509Y-333157D01*
X-58941Y-334165D01*
X-61030Y-335768D01*
X-62633Y-337857D01*
X-63641Y-340289D01*
X-63984Y-342900D01*
X-63641Y-345510D01*
X-62633Y-347943D01*
X-61030Y-350032D01*
X-58941Y-351635D01*
X-56509Y-352643D01*
X-53898Y-352986D01*
X-51288Y-352643D01*
X-48855Y-351635D01*
X-46766Y-350032D01*
X-45163Y-347943D01*
X-44156Y-345510D01*
X-43812Y-342900D01*
X-44156Y-340289D01*
X-45163Y-337857D01*
X-46766Y-335768D01*
X-48855Y-334165D01*
X-51288Y-333157D01*
X-53898Y-332814D01*
D02*
G37*
G36*
X-79298D02*
X-81909Y-333157D01*
X-84341Y-334165D01*
X-86430Y-335768D01*
X-88033Y-337857D01*
X-89041Y-340289D01*
X-89384Y-342900D01*
X-89041Y-345510D01*
X-88033Y-347943D01*
X-86430Y-350032D01*
X-84341Y-351635D01*
X-81909Y-352643D01*
X-79298Y-352986D01*
X-76688Y-352643D01*
X-74255Y-351635D01*
X-72166Y-350032D01*
X-70563Y-347943D01*
X-69556Y-345510D01*
X-69212Y-342900D01*
X-69556Y-340289D01*
X-70563Y-337857D01*
X-72166Y-335768D01*
X-74255Y-334165D01*
X-76688Y-333157D01*
X-79298Y-332814D01*
D02*
G37*
G36*
X-104698D02*
X-107309Y-333157D01*
X-109741Y-334165D01*
X-111830Y-335768D01*
X-113433Y-337857D01*
X-114441Y-340289D01*
X-114784Y-342900D01*
X-114441Y-345510D01*
X-113433Y-347943D01*
X-111830Y-350032D01*
X-109741Y-351635D01*
X-107309Y-352643D01*
X-104698Y-352986D01*
X-102088Y-352643D01*
X-99655Y-351635D01*
X-97566Y-350032D01*
X-95963Y-347943D01*
X-94956Y-345510D01*
X-94612Y-342900D01*
X-94956Y-340289D01*
X-95963Y-337857D01*
X-97566Y-335768D01*
X-99655Y-334165D01*
X-102088Y-333157D01*
X-104698Y-332814D01*
D02*
G37*
G36*
X-130098D02*
X-132709Y-333157D01*
X-135141Y-334165D01*
X-137230Y-335768D01*
X-138833Y-337857D01*
X-139841Y-340289D01*
X-140184Y-342900D01*
X-139841Y-345510D01*
X-138833Y-347943D01*
X-137230Y-350032D01*
X-135141Y-351635D01*
X-132709Y-352643D01*
X-130098Y-352986D01*
X-127488Y-352643D01*
X-125055Y-351635D01*
X-122966Y-350032D01*
X-121363Y-347943D01*
X-120356Y-345510D01*
X-120012Y-342900D01*
X-120356Y-340289D01*
X-121363Y-337857D01*
X-122966Y-335768D01*
X-125055Y-334165D01*
X-127488Y-333157D01*
X-130098Y-332814D01*
D02*
G37*
G36*
X-155498D02*
X-158109Y-333157D01*
X-160541Y-334165D01*
X-162630Y-335768D01*
X-164233Y-337857D01*
X-165241Y-340289D01*
X-165584Y-342900D01*
X-165241Y-345510D01*
X-164233Y-347943D01*
X-162630Y-350032D01*
X-160541Y-351635D01*
X-158109Y-352643D01*
X-155498Y-352986D01*
X-152888Y-352643D01*
X-150455Y-351635D01*
X-148366Y-350032D01*
X-146763Y-347943D01*
X-145756Y-345510D01*
X-145412Y-342900D01*
X-145756Y-340289D01*
X-146763Y-337857D01*
X-148366Y-335768D01*
X-150455Y-334165D01*
X-152888Y-333157D01*
X-155498Y-332814D01*
D02*
G37*
G36*
X-180898D02*
X-183509Y-333157D01*
X-185941Y-334165D01*
X-188030Y-335768D01*
X-189633Y-337857D01*
X-190641Y-340289D01*
X-190984Y-342900D01*
X-190641Y-345510D01*
X-189633Y-347943D01*
X-188030Y-350032D01*
X-185941Y-351635D01*
X-183509Y-352643D01*
X-180898Y-352986D01*
X-178288Y-352643D01*
X-175855Y-351635D01*
X-173766Y-350032D01*
X-172163Y-347943D01*
X-171156Y-345510D01*
X-170812Y-342900D01*
X-171156Y-340289D01*
X-172163Y-337857D01*
X-173766Y-335768D01*
X-175855Y-334165D01*
X-178288Y-333157D01*
X-180898Y-332814D01*
D02*
G37*
G36*
X-206298D02*
X-208909Y-333157D01*
X-211341Y-334165D01*
X-213430Y-335768D01*
X-215033Y-337857D01*
X-216041Y-340289D01*
X-216384Y-342900D01*
X-216041Y-345510D01*
X-215033Y-347943D01*
X-213430Y-350032D01*
X-211341Y-351635D01*
X-208909Y-352643D01*
X-206298Y-352986D01*
X-203688Y-352643D01*
X-201255Y-351635D01*
X-199166Y-350032D01*
X-197563Y-347943D01*
X-196556Y-345510D01*
X-196212Y-342900D01*
X-196556Y-340289D01*
X-197563Y-337857D01*
X-199166Y-335768D01*
X-201255Y-334165D01*
X-203688Y-333157D01*
X-206298Y-332814D01*
D02*
G37*
G36*
X312468Y-345400D02*
X304202D01*
Y-353666D01*
X304573Y-353617D01*
X307249Y-352509D01*
X309547Y-350745D01*
X311310Y-348447D01*
X312419Y-345772D01*
X312468Y-345400D01*
D02*
G37*
G36*
X299202D02*
X290936D01*
X290985Y-345772D01*
X292093Y-348447D01*
X293857Y-350745D01*
X296154Y-352509D01*
X298830Y-353617D01*
X299202Y-353666D01*
Y-345400D01*
D02*
G37*
G36*
X236268D02*
X228002D01*
Y-353666D01*
X228373Y-353617D01*
X231049Y-352509D01*
X233347Y-350745D01*
X235110Y-348447D01*
X236219Y-345772D01*
X236268Y-345400D01*
D02*
G37*
G36*
X223002D02*
X214736D01*
X214785Y-345772D01*
X215893Y-348447D01*
X217657Y-350745D01*
X219954Y-352509D01*
X222630Y-353617D01*
X223002Y-353666D01*
Y-345400D01*
D02*
G37*
G36*
X-220698D02*
X-229198D01*
Y-353900D01*
X-220698D01*
Y-345400D01*
D02*
G37*
G36*
X-234198D02*
X-242698D01*
Y-353900D01*
X-234198D01*
Y-345400D01*
D02*
G37*
G36*
X403302Y-358214D02*
X400691Y-358557D01*
X398259Y-359565D01*
X396170Y-361168D01*
X394567Y-363257D01*
X393559Y-365690D01*
X393216Y-368300D01*
X393559Y-370910D01*
X394567Y-373343D01*
X396170Y-375432D01*
X398259Y-377035D01*
X400691Y-378043D01*
X403302Y-378386D01*
X405912Y-378043D01*
X408345Y-377035D01*
X410434Y-375432D01*
X412037Y-373343D01*
X413044Y-370910D01*
X413388Y-368300D01*
X413044Y-365690D01*
X412037Y-363257D01*
X410434Y-361168D01*
X408345Y-359565D01*
X405912Y-358557D01*
X403302Y-358214D01*
D02*
G37*
G36*
X377902D02*
X375291Y-358557D01*
X372859Y-359565D01*
X370770Y-361168D01*
X369167Y-363257D01*
X368159Y-365690D01*
X367816Y-368300D01*
X368159Y-370910D01*
X369167Y-373343D01*
X370770Y-375432D01*
X372859Y-377035D01*
X375291Y-378043D01*
X377902Y-378386D01*
X380512Y-378043D01*
X382945Y-377035D01*
X385034Y-375432D01*
X386637Y-373343D01*
X387644Y-370910D01*
X387988Y-368300D01*
X387644Y-365690D01*
X386637Y-363257D01*
X385034Y-361168D01*
X382945Y-359565D01*
X380512Y-358557D01*
X377902Y-358214D01*
D02*
G37*
G36*
X352502D02*
X349891Y-358557D01*
X347459Y-359565D01*
X345370Y-361168D01*
X343767Y-363257D01*
X342759Y-365690D01*
X342416Y-368300D01*
X342759Y-370910D01*
X343767Y-373343D01*
X345370Y-375432D01*
X347459Y-377035D01*
X349891Y-378043D01*
X352502Y-378386D01*
X355112Y-378043D01*
X357545Y-377035D01*
X359634Y-375432D01*
X361237Y-373343D01*
X362244Y-370910D01*
X362588Y-368300D01*
X362244Y-365690D01*
X361237Y-363257D01*
X359634Y-361168D01*
X357545Y-359565D01*
X355112Y-358557D01*
X352502Y-358214D01*
D02*
G37*
G36*
X327102D02*
X324491Y-358557D01*
X322059Y-359565D01*
X319970Y-361168D01*
X318367Y-363257D01*
X317359Y-365690D01*
X317016Y-368300D01*
X317359Y-370910D01*
X318367Y-373343D01*
X319970Y-375432D01*
X322059Y-377035D01*
X324491Y-378043D01*
X327102Y-378386D01*
X329712Y-378043D01*
X332145Y-377035D01*
X334234Y-375432D01*
X335837Y-373343D01*
X336844Y-370910D01*
X337188Y-368300D01*
X336844Y-365690D01*
X335837Y-363257D01*
X334234Y-361168D01*
X332145Y-359565D01*
X329712Y-358557D01*
X327102Y-358214D01*
D02*
G37*
G36*
X301702D02*
X299091Y-358557D01*
X296659Y-359565D01*
X294570Y-361168D01*
X292967Y-363257D01*
X291959Y-365690D01*
X291616Y-368300D01*
X291959Y-370910D01*
X292967Y-373343D01*
X294570Y-375432D01*
X296659Y-377035D01*
X299091Y-378043D01*
X301702Y-378386D01*
X304312Y-378043D01*
X306745Y-377035D01*
X308834Y-375432D01*
X310437Y-373343D01*
X311444Y-370910D01*
X311788Y-368300D01*
X311444Y-365690D01*
X310437Y-363257D01*
X308834Y-361168D01*
X306745Y-359565D01*
X304312Y-358557D01*
X301702Y-358214D01*
D02*
G37*
G36*
X276302D02*
X273691Y-358557D01*
X271259Y-359565D01*
X269170Y-361168D01*
X267567Y-363257D01*
X266559Y-365690D01*
X266216Y-368300D01*
X266559Y-370910D01*
X267567Y-373343D01*
X269170Y-375432D01*
X271259Y-377035D01*
X273691Y-378043D01*
X276302Y-378386D01*
X278912Y-378043D01*
X281345Y-377035D01*
X283434Y-375432D01*
X285037Y-373343D01*
X286044Y-370910D01*
X286388Y-368300D01*
X286044Y-365690D01*
X285037Y-363257D01*
X283434Y-361168D01*
X281345Y-359565D01*
X278912Y-358557D01*
X276302Y-358214D01*
D02*
G37*
G36*
X250902D02*
X248291Y-358557D01*
X245859Y-359565D01*
X243770Y-361168D01*
X242167Y-363257D01*
X241159Y-365690D01*
X240816Y-368300D01*
X241159Y-370910D01*
X242167Y-373343D01*
X243770Y-375432D01*
X245859Y-377035D01*
X248291Y-378043D01*
X250902Y-378386D01*
X253512Y-378043D01*
X255945Y-377035D01*
X258034Y-375432D01*
X259637Y-373343D01*
X260644Y-370910D01*
X260988Y-368300D01*
X260644Y-365690D01*
X259637Y-363257D01*
X258034Y-361168D01*
X255945Y-359565D01*
X253512Y-358557D01*
X250902Y-358214D01*
D02*
G37*
G36*
X225502D02*
X222891Y-358557D01*
X220459Y-359565D01*
X218370Y-361168D01*
X216767Y-363257D01*
X215759Y-365690D01*
X215416Y-368300D01*
X215759Y-370910D01*
X216767Y-373343D01*
X218370Y-375432D01*
X220459Y-377035D01*
X222891Y-378043D01*
X225502Y-378386D01*
X228112Y-378043D01*
X230545Y-377035D01*
X232634Y-375432D01*
X234237Y-373343D01*
X235244Y-370910D01*
X235588Y-368300D01*
X235244Y-365690D01*
X234237Y-363257D01*
X232634Y-361168D01*
X230545Y-359565D01*
X228112Y-358557D01*
X225502Y-358214D01*
D02*
G37*
G36*
X200102D02*
X197491Y-358557D01*
X195059Y-359565D01*
X192970Y-361168D01*
X191367Y-363257D01*
X190359Y-365690D01*
X190016Y-368300D01*
X190359Y-370910D01*
X191367Y-373343D01*
X192970Y-375432D01*
X195059Y-377035D01*
X197491Y-378043D01*
X200102Y-378386D01*
X202712Y-378043D01*
X205145Y-377035D01*
X207234Y-375432D01*
X208837Y-373343D01*
X209844Y-370910D01*
X210188Y-368300D01*
X209844Y-365690D01*
X208837Y-363257D01*
X207234Y-361168D01*
X205145Y-359565D01*
X202712Y-358557D01*
X200102Y-358214D01*
D02*
G37*
G36*
X174702D02*
X172091Y-358557D01*
X169659Y-359565D01*
X167570Y-361168D01*
X165967Y-363257D01*
X164959Y-365690D01*
X164616Y-368300D01*
X164959Y-370910D01*
X165967Y-373343D01*
X167570Y-375432D01*
X169659Y-377035D01*
X172091Y-378043D01*
X174702Y-378386D01*
X177312Y-378043D01*
X179745Y-377035D01*
X181834Y-375432D01*
X183437Y-373343D01*
X184444Y-370910D01*
X184788Y-368300D01*
X184444Y-365690D01*
X183437Y-363257D01*
X181834Y-361168D01*
X179745Y-359565D01*
X177312Y-358557D01*
X174702Y-358214D01*
D02*
G37*
G36*
X149302D02*
X146691Y-358557D01*
X144259Y-359565D01*
X142170Y-361168D01*
X140567Y-363257D01*
X139559Y-365690D01*
X139216Y-368300D01*
X139559Y-370910D01*
X140567Y-373343D01*
X142170Y-375432D01*
X144259Y-377035D01*
X146691Y-378043D01*
X149302Y-378386D01*
X151912Y-378043D01*
X154345Y-377035D01*
X156434Y-375432D01*
X158037Y-373343D01*
X159044Y-370910D01*
X159388Y-368300D01*
X159044Y-365690D01*
X158037Y-363257D01*
X156434Y-361168D01*
X154345Y-359565D01*
X151912Y-358557D01*
X149302Y-358214D01*
D02*
G37*
G36*
X47702D02*
X45091Y-358557D01*
X42659Y-359565D01*
X40570Y-361168D01*
X38967Y-363257D01*
X37959Y-365690D01*
X37616Y-368300D01*
X37959Y-370910D01*
X38967Y-373343D01*
X40570Y-375432D01*
X42659Y-377035D01*
X45091Y-378043D01*
X47702Y-378386D01*
X50312Y-378043D01*
X52745Y-377035D01*
X54834Y-375432D01*
X56437Y-373343D01*
X57444Y-370910D01*
X57788Y-368300D01*
X57444Y-365690D01*
X56437Y-363257D01*
X54834Y-361168D01*
X52745Y-359565D01*
X50312Y-358557D01*
X47702Y-358214D01*
D02*
G37*
G36*
X22302D02*
X19691Y-358557D01*
X17259Y-359565D01*
X15170Y-361168D01*
X13567Y-363257D01*
X12559Y-365690D01*
X12216Y-368300D01*
X12559Y-370910D01*
X13567Y-373343D01*
X15170Y-375432D01*
X17259Y-377035D01*
X19691Y-378043D01*
X22302Y-378386D01*
X24912Y-378043D01*
X27345Y-377035D01*
X29434Y-375432D01*
X31037Y-373343D01*
X32044Y-370910D01*
X32388Y-368300D01*
X32044Y-365690D01*
X31037Y-363257D01*
X29434Y-361168D01*
X27345Y-359565D01*
X24912Y-358557D01*
X22302Y-358214D01*
D02*
G37*
G36*
X-3098D02*
X-5709Y-358557D01*
X-8141Y-359565D01*
X-10230Y-361168D01*
X-11833Y-363257D01*
X-12841Y-365690D01*
X-13184Y-368300D01*
X-12841Y-370910D01*
X-11833Y-373343D01*
X-10230Y-375432D01*
X-8141Y-377035D01*
X-5709Y-378043D01*
X-3098Y-378386D01*
X-488Y-378043D01*
X1945Y-377035D01*
X4034Y-375432D01*
X5637Y-373343D01*
X6644Y-370910D01*
X6988Y-368300D01*
X6644Y-365690D01*
X5637Y-363257D01*
X4034Y-361168D01*
X1945Y-359565D01*
X-488Y-358557D01*
X-3098Y-358214D01*
D02*
G37*
G36*
X-28498D02*
X-31109Y-358557D01*
X-33541Y-359565D01*
X-35630Y-361168D01*
X-37233Y-363257D01*
X-38241Y-365690D01*
X-38584Y-368300D01*
X-38241Y-370910D01*
X-37233Y-373343D01*
X-35630Y-375432D01*
X-33541Y-377035D01*
X-31109Y-378043D01*
X-28498Y-378386D01*
X-25888Y-378043D01*
X-23455Y-377035D01*
X-21366Y-375432D01*
X-19763Y-373343D01*
X-18756Y-370910D01*
X-18412Y-368300D01*
X-18756Y-365690D01*
X-19763Y-363257D01*
X-21366Y-361168D01*
X-23455Y-359565D01*
X-25888Y-358557D01*
X-28498Y-358214D01*
D02*
G37*
G36*
X-53898D02*
X-56509Y-358557D01*
X-58941Y-359565D01*
X-61030Y-361168D01*
X-62633Y-363257D01*
X-63641Y-365690D01*
X-63984Y-368300D01*
X-63641Y-370910D01*
X-62633Y-373343D01*
X-61030Y-375432D01*
X-58941Y-377035D01*
X-56509Y-378043D01*
X-53898Y-378386D01*
X-51288Y-378043D01*
X-48855Y-377035D01*
X-46766Y-375432D01*
X-45163Y-373343D01*
X-44156Y-370910D01*
X-43812Y-368300D01*
X-44156Y-365690D01*
X-45163Y-363257D01*
X-46766Y-361168D01*
X-48855Y-359565D01*
X-51288Y-358557D01*
X-53898Y-358214D01*
D02*
G37*
G36*
X-79298D02*
X-81909Y-358557D01*
X-84341Y-359565D01*
X-86430Y-361168D01*
X-88033Y-363257D01*
X-89041Y-365690D01*
X-89384Y-368300D01*
X-89041Y-370910D01*
X-88033Y-373343D01*
X-86430Y-375432D01*
X-84341Y-377035D01*
X-81909Y-378043D01*
X-79298Y-378386D01*
X-76688Y-378043D01*
X-74255Y-377035D01*
X-72166Y-375432D01*
X-70563Y-373343D01*
X-69556Y-370910D01*
X-69212Y-368300D01*
X-69556Y-365690D01*
X-70563Y-363257D01*
X-72166Y-361168D01*
X-74255Y-359565D01*
X-76688Y-358557D01*
X-79298Y-358214D01*
D02*
G37*
G36*
X-104698D02*
X-107309Y-358557D01*
X-109741Y-359565D01*
X-111830Y-361168D01*
X-113433Y-363257D01*
X-114441Y-365690D01*
X-114784Y-368300D01*
X-114441Y-370910D01*
X-113433Y-373343D01*
X-111830Y-375432D01*
X-109741Y-377035D01*
X-107309Y-378043D01*
X-104698Y-378386D01*
X-102088Y-378043D01*
X-99655Y-377035D01*
X-97566Y-375432D01*
X-95963Y-373343D01*
X-94956Y-370910D01*
X-94612Y-368300D01*
X-94956Y-365690D01*
X-95963Y-363257D01*
X-97566Y-361168D01*
X-99655Y-359565D01*
X-102088Y-358557D01*
X-104698Y-358214D01*
D02*
G37*
G36*
X-130098D02*
X-132709Y-358557D01*
X-135141Y-359565D01*
X-137230Y-361168D01*
X-138833Y-363257D01*
X-139841Y-365690D01*
X-140184Y-368300D01*
X-139841Y-370910D01*
X-138833Y-373343D01*
X-137230Y-375432D01*
X-135141Y-377035D01*
X-132709Y-378043D01*
X-130098Y-378386D01*
X-127488Y-378043D01*
X-125055Y-377035D01*
X-122966Y-375432D01*
X-121363Y-373343D01*
X-120356Y-370910D01*
X-120012Y-368300D01*
X-120356Y-365690D01*
X-121363Y-363257D01*
X-122966Y-361168D01*
X-125055Y-359565D01*
X-127488Y-358557D01*
X-130098Y-358214D01*
D02*
G37*
G36*
X-155498D02*
X-158109Y-358557D01*
X-160541Y-359565D01*
X-162630Y-361168D01*
X-164233Y-363257D01*
X-165241Y-365690D01*
X-165584Y-368300D01*
X-165241Y-370910D01*
X-164233Y-373343D01*
X-162630Y-375432D01*
X-160541Y-377035D01*
X-158109Y-378043D01*
X-155498Y-378386D01*
X-152888Y-378043D01*
X-150455Y-377035D01*
X-148366Y-375432D01*
X-146763Y-373343D01*
X-145756Y-370910D01*
X-145412Y-368300D01*
X-145756Y-365690D01*
X-146763Y-363257D01*
X-148366Y-361168D01*
X-150455Y-359565D01*
X-152888Y-358557D01*
X-155498Y-358214D01*
D02*
G37*
G36*
X-180898D02*
X-183509Y-358557D01*
X-185941Y-359565D01*
X-188030Y-361168D01*
X-189633Y-363257D01*
X-190641Y-365690D01*
X-190984Y-368300D01*
X-190641Y-370910D01*
X-189633Y-373343D01*
X-188030Y-375432D01*
X-185941Y-377035D01*
X-183509Y-378043D01*
X-180898Y-378386D01*
X-178288Y-378043D01*
X-175855Y-377035D01*
X-173766Y-375432D01*
X-172163Y-373343D01*
X-171156Y-370910D01*
X-170812Y-368300D01*
X-171156Y-365690D01*
X-172163Y-363257D01*
X-173766Y-361168D01*
X-175855Y-359565D01*
X-178288Y-358557D01*
X-180898Y-358214D01*
D02*
G37*
G36*
X-206298D02*
X-208909Y-358557D01*
X-211341Y-359565D01*
X-213430Y-361168D01*
X-215033Y-363257D01*
X-216041Y-365690D01*
X-216384Y-368300D01*
X-216041Y-370910D01*
X-215033Y-373343D01*
X-213430Y-375432D01*
X-211341Y-377035D01*
X-208909Y-378043D01*
X-206298Y-378386D01*
X-203688Y-378043D01*
X-201255Y-377035D01*
X-199166Y-375432D01*
X-197563Y-373343D01*
X-196556Y-370910D01*
X-196212Y-368300D01*
X-196556Y-365690D01*
X-197563Y-363257D01*
X-199166Y-361168D01*
X-201255Y-359565D01*
X-203688Y-358557D01*
X-206298Y-358214D01*
D02*
G37*
G36*
X-231698D02*
X-234309Y-358557D01*
X-236741Y-359565D01*
X-238830Y-361168D01*
X-240433Y-363257D01*
X-241441Y-365690D01*
X-241784Y-368300D01*
X-241441Y-370910D01*
X-240433Y-373343D01*
X-238830Y-375432D01*
X-236741Y-377035D01*
X-234309Y-378043D01*
X-231698Y-378386D01*
X-229088Y-378043D01*
X-226655Y-377035D01*
X-224566Y-375432D01*
X-222963Y-373343D01*
X-221956Y-370910D01*
X-221612Y-368300D01*
X-221956Y-365690D01*
X-222963Y-363257D01*
X-224566Y-361168D01*
X-226655Y-359565D01*
X-229088Y-358557D01*
X-231698Y-358214D01*
D02*
G37*
%LPD*%
G36*
X-317503Y142747D02*
X-317642Y142412D01*
X-317986Y139802D01*
X-317642Y137191D01*
X-316634Y134759D01*
X-315032Y132670D01*
X-312943Y131067D01*
X-310510Y130059D01*
X-307899Y129715D01*
X-305289Y130059D01*
X-302856Y131067D01*
X-301660Y131985D01*
X-278229D01*
X-277743Y130811D01*
X-286336Y122219D01*
X-301660D01*
X-302856Y123137D01*
X-305289Y124144D01*
X-307899Y124488D01*
X-310510Y124144D01*
X-312943Y123137D01*
X-315032Y121534D01*
X-316634Y119445D01*
X-317642Y117012D01*
X-317986Y114402D01*
X-317642Y111791D01*
X-316634Y109359D01*
X-315032Y107270D01*
X-312943Y105667D01*
X-310510Y104659D01*
X-307899Y104315D01*
X-305289Y104659D01*
X-302856Y105667D01*
X-301660Y106585D01*
X-293629D01*
X-293143Y105411D01*
X-297277Y101277D01*
X-298520Y99658D01*
X-299300Y97773D01*
X-300644Y97299D01*
X-302352Y98610D01*
X-305028Y99719D01*
X-305399Y99767D01*
Y89002D01*
Y78236D01*
X-305028Y78285D01*
X-302352Y79393D01*
X-300837Y80556D01*
X-299567Y79929D01*
Y71141D01*
X-300387Y70863D01*
X-300837Y70787D01*
X-302856Y72337D01*
X-305289Y73344D01*
X-307899Y73688D01*
X-310510Y73344D01*
X-312943Y72337D01*
X-315032Y70734D01*
X-316634Y68645D01*
X-317642Y66212D01*
X-317986Y63602D01*
X-317642Y60991D01*
X-316757Y58854D01*
X-317320Y57584D01*
X-321734D01*
X-323757Y57318D01*
X-324497Y58374D01*
X-324565Y58559D01*
X-323557Y60991D01*
X-323213Y63602D01*
X-323557Y66212D01*
X-324565Y68645D01*
X-326167Y70734D01*
X-328256Y72337D01*
X-330689Y73344D01*
X-332184Y73541D01*
X-335567Y76924D01*
X-334974Y78127D01*
X-333299Y77907D01*
X-330428Y78285D01*
X-327752Y79393D01*
X-325454Y81156D01*
X-323691Y83454D01*
X-322583Y86130D01*
X-322534Y86502D01*
X-333299D01*
Y89002D01*
X-335799D01*
Y99767D01*
X-336171Y99719D01*
X-338847Y98610D01*
X-341145Y96847D01*
X-342908Y94549D01*
X-344016Y91873D01*
X-344394Y89002D01*
X-344174Y87327D01*
X-345377Y86734D01*
X-357183Y98540D01*
Y125571D01*
X-356010Y126057D01*
X-343239Y113286D01*
X-343042Y111791D01*
X-342034Y109359D01*
X-340432Y107270D01*
X-338343Y105667D01*
X-335910Y104659D01*
X-333299Y104315D01*
X-330689Y104659D01*
X-328256Y105667D01*
X-326167Y107270D01*
X-324565Y109359D01*
X-323557Y111791D01*
X-323213Y114402D01*
X-323557Y117012D01*
X-324565Y119445D01*
X-326167Y121534D01*
X-328256Y123137D01*
X-330689Y124144D01*
X-332184Y124341D01*
X-336964Y129121D01*
X-336245Y130198D01*
X-335910Y130059D01*
X-333299Y129715D01*
X-330689Y130059D01*
X-328256Y131067D01*
X-326167Y132670D01*
X-324565Y134759D01*
X-323557Y137191D01*
X-323360Y138686D01*
X-318580Y143466D01*
X-317503Y142747D01*
D02*
G37*
G36*
X-390317Y231515D02*
Y107956D01*
X-391587Y107525D01*
X-391973Y108027D01*
X-393591Y109270D01*
X-395477Y110050D01*
X-397183Y110275D01*
Y125652D01*
X-397449Y127675D01*
X-398230Y129560D01*
X-399473Y131179D01*
X-401092Y132421D01*
X-402977Y133202D01*
X-404683Y133427D01*
Y152500D01*
X-404949Y154523D01*
X-405730Y156408D01*
X-406973Y158027D01*
X-408592Y159270D01*
X-410477Y160051D01*
X-411433Y160176D01*
Y212058D01*
X-391490Y232001D01*
X-390317Y231515D01*
D02*
G37*
G36*
X-343239Y62486D02*
X-343042Y60991D01*
X-342034Y58559D01*
X-340432Y56470D01*
X-338343Y54867D01*
X-335910Y53859D01*
X-333299Y53515D01*
X-330689Y53859D01*
X-330354Y53998D01*
X-329635Y52921D01*
X-334415Y48141D01*
X-335910Y47944D01*
X-338343Y46937D01*
X-340432Y45334D01*
X-342034Y43245D01*
X-343042Y40812D01*
X-343386Y38202D01*
X-343042Y35591D01*
X-342903Y35256D01*
X-343980Y34537D01*
X-364683Y55240D01*
Y82271D01*
X-363510Y82757D01*
X-343239Y62486D01*
D02*
G37*
G36*
X-292817Y42346D02*
Y-37261D01*
X-295822Y-40266D01*
X-297025Y-39673D01*
X-296805Y-37998D01*
X-297183Y-35127D01*
X-298291Y-32451D01*
X-300054Y-30153D01*
X-302352Y-28390D01*
X-305028Y-27281D01*
X-305399Y-27233D01*
Y-37998D01*
X-307899D01*
Y-40498D01*
X-318665D01*
X-318616Y-40870D01*
X-317508Y-43546D01*
X-315745Y-45844D01*
X-313447Y-47607D01*
X-310771Y-48715D01*
X-307899Y-49093D01*
X-306225Y-48873D01*
X-305631Y-50076D01*
X-309015Y-53459D01*
X-310510Y-53656D01*
X-312943Y-54663D01*
X-315032Y-56266D01*
X-316634Y-58355D01*
X-317642Y-60788D01*
X-317986Y-63398D01*
X-317642Y-66009D01*
X-316634Y-68442D01*
X-315032Y-70530D01*
X-312943Y-72133D01*
X-310510Y-73141D01*
X-307899Y-73485D01*
X-305289Y-73141D01*
X-304954Y-73002D01*
X-304235Y-74079D01*
X-309015Y-78859D01*
X-310510Y-79056D01*
X-312943Y-80063D01*
X-315032Y-81666D01*
X-316634Y-83755D01*
X-317642Y-86188D01*
X-317986Y-88798D01*
X-317642Y-91409D01*
X-316634Y-93841D01*
X-315032Y-95930D01*
X-312943Y-97533D01*
X-310510Y-98541D01*
X-307899Y-98885D01*
X-305289Y-98541D01*
X-304954Y-98402D01*
X-304235Y-99479D01*
X-309015Y-104259D01*
X-310510Y-104456D01*
X-312943Y-105463D01*
X-315032Y-107066D01*
X-316634Y-109155D01*
X-317642Y-111588D01*
X-317986Y-114198D01*
X-317642Y-116809D01*
X-316634Y-119242D01*
X-315032Y-121330D01*
X-312943Y-122933D01*
X-310510Y-123941D01*
X-307899Y-124285D01*
X-305289Y-123941D01*
X-304954Y-123802D01*
X-304235Y-124879D01*
X-309015Y-129659D01*
X-310510Y-129856D01*
X-312943Y-130863D01*
X-315032Y-132466D01*
X-316634Y-134555D01*
X-317642Y-136988D01*
X-317986Y-139598D01*
X-317642Y-142209D01*
X-316634Y-144642D01*
X-315032Y-146730D01*
X-312943Y-148333D01*
X-310510Y-149341D01*
X-307899Y-149685D01*
X-305289Y-149341D01*
X-302856Y-148333D01*
X-300767Y-146730D01*
X-299165Y-144642D01*
X-299087Y-144454D01*
X-297817Y-144707D01*
Y-157983D01*
X-299087Y-158414D01*
X-300054Y-157153D01*
X-302352Y-155390D01*
X-305028Y-154282D01*
X-305399Y-154233D01*
Y-164998D01*
Y-175764D01*
X-305028Y-175715D01*
X-302352Y-174607D01*
X-300054Y-172844D01*
X-299087Y-171583D01*
X-297817Y-172014D01*
Y-185290D01*
X-299087Y-185543D01*
X-299165Y-185355D01*
X-300767Y-183266D01*
X-302856Y-181663D01*
X-305289Y-180656D01*
X-307899Y-180312D01*
X-310510Y-180656D01*
X-312943Y-181663D01*
X-315032Y-183266D01*
X-316634Y-185355D01*
X-317642Y-187788D01*
X-317839Y-189283D01*
X-322619Y-194063D01*
X-323695Y-193344D01*
X-323557Y-193009D01*
X-323213Y-190398D01*
X-323557Y-187788D01*
X-324565Y-185355D01*
X-326167Y-183266D01*
X-328256Y-181663D01*
X-330689Y-180656D01*
X-332184Y-180459D01*
X-335567Y-177076D01*
X-334974Y-175873D01*
X-333299Y-176093D01*
X-330428Y-175715D01*
X-327752Y-174607D01*
X-325454Y-172844D01*
X-323691Y-170546D01*
X-322583Y-167870D01*
X-322534Y-167498D01*
X-333299D01*
Y-164998D01*
X-335799D01*
Y-154233D01*
X-336171Y-154282D01*
X-338847Y-155390D01*
X-341145Y-157153D01*
X-342908Y-159451D01*
X-344016Y-162127D01*
X-344394Y-164998D01*
X-344174Y-166673D01*
X-345377Y-167266D01*
X-362183Y-150460D01*
Y-123429D01*
X-361010Y-122943D01*
X-343239Y-140714D01*
X-343042Y-142209D01*
X-342034Y-144642D01*
X-340432Y-146730D01*
X-338343Y-148333D01*
X-335910Y-149341D01*
X-333299Y-149685D01*
X-330689Y-149341D01*
X-328256Y-148333D01*
X-326167Y-146730D01*
X-324565Y-144642D01*
X-323557Y-142209D01*
X-323213Y-139598D01*
X-323557Y-136988D01*
X-324565Y-134555D01*
X-326167Y-132466D01*
X-328256Y-130863D01*
X-330689Y-129856D01*
X-332184Y-129659D01*
X-336964Y-124879D01*
X-336245Y-123802D01*
X-335910Y-123941D01*
X-333299Y-124285D01*
X-330689Y-123941D01*
X-328256Y-122933D01*
X-326167Y-121330D01*
X-324565Y-119242D01*
X-323557Y-116809D01*
X-323213Y-114198D01*
X-323557Y-111588D01*
X-324565Y-109155D01*
X-326167Y-107066D01*
X-328256Y-105463D01*
X-330689Y-104456D01*
X-332184Y-104259D01*
X-336964Y-99479D01*
X-336245Y-98402D01*
X-335910Y-98541D01*
X-333299Y-98885D01*
X-330689Y-98541D01*
X-328256Y-97533D01*
X-326167Y-95930D01*
X-324565Y-93841D01*
X-323557Y-91409D01*
X-323213Y-88798D01*
X-323557Y-86188D01*
X-324565Y-83755D01*
X-326167Y-81666D01*
X-328256Y-80063D01*
X-330689Y-79056D01*
X-332184Y-78859D01*
X-336964Y-74079D01*
X-336245Y-73002D01*
X-335910Y-73141D01*
X-333299Y-73485D01*
X-330689Y-73141D01*
X-328256Y-72133D01*
X-326167Y-70530D01*
X-324565Y-68442D01*
X-323557Y-66009D01*
X-323213Y-63398D01*
X-323557Y-60788D01*
X-324565Y-58355D01*
X-326167Y-56266D01*
X-328256Y-54663D01*
X-330689Y-53656D01*
X-332184Y-53459D01*
X-335567Y-50076D01*
X-334974Y-48873D01*
X-333299Y-49093D01*
X-330428Y-48715D01*
X-327752Y-47607D01*
X-325454Y-45844D01*
X-323691Y-43546D01*
X-322583Y-40870D01*
X-322534Y-40498D01*
X-333299D01*
Y-37998D01*
X-335799D01*
Y-27233D01*
X-336171Y-27281D01*
X-338847Y-28390D01*
X-340055Y-29317D01*
X-341325Y-28691D01*
Y-20529D01*
X-340055Y-20019D01*
X-338343Y-21333D01*
X-335910Y-22341D01*
X-333299Y-22685D01*
X-330689Y-22341D01*
X-328256Y-21333D01*
X-326167Y-19730D01*
X-324565Y-17642D01*
X-323557Y-15209D01*
X-323213Y-12598D01*
X-323557Y-9988D01*
X-324565Y-7555D01*
X-326167Y-5466D01*
X-328256Y-3863D01*
X-330689Y-2856D01*
X-332184Y-2659D01*
X-336964Y2121D01*
X-336245Y3198D01*
X-335910Y3059D01*
X-333299Y2715D01*
X-330689Y3059D01*
X-328256Y4067D01*
X-326167Y5670D01*
X-324565Y7758D01*
X-323557Y10191D01*
X-323213Y12802D01*
X-323557Y15412D01*
X-324565Y17845D01*
X-326167Y19934D01*
X-328256Y21537D01*
X-330689Y22544D01*
X-332184Y22741D01*
X-336964Y27521D01*
X-336245Y28598D01*
X-335910Y28459D01*
X-333299Y28115D01*
X-330689Y28459D01*
X-328256Y29467D01*
X-326167Y31070D01*
X-324565Y33159D01*
X-323557Y35591D01*
X-323360Y37086D01*
X-319302Y41144D01*
X-318754Y41131D01*
X-317755Y39955D01*
X-317986Y38202D01*
X-317642Y35591D01*
X-316634Y33159D01*
X-315032Y31070D01*
X-312943Y29467D01*
X-310510Y28459D01*
X-307899Y28115D01*
X-305289Y28459D01*
X-302856Y29467D01*
X-300767Y31070D01*
X-299165Y33159D01*
X-298157Y35591D01*
X-297813Y38202D01*
X-298140Y40681D01*
X-298076Y40981D01*
X-297279Y42010D01*
X-295709Y42217D01*
X-294087Y42889D01*
X-292817Y42346D01*
D02*
G37*
G36*
X-149957Y26912D02*
X-152500D01*
X-155502Y26517D01*
X-158300Y25358D01*
X-160702Y23515D01*
X-162545Y21112D01*
X-163704Y18315D01*
X-164099Y15313D01*
X-163704Y12311D01*
X-162545Y9513D01*
X-160702Y7111D01*
X-158300Y5268D01*
X-155502Y4109D01*
X-152500Y3714D01*
X-113117D01*
X-109099Y-304D01*
Y-34716D01*
X-110000Y-35506D01*
X-249683D01*
Y-29855D01*
X-237873Y-18045D01*
X-236631Y-16426D01*
X-235850Y-14541D01*
X-235584Y-12518D01*
X-235584Y-12518D01*
Y16316D01*
X-225472Y26427D01*
X-180756D01*
X-178732Y26694D01*
X-176847Y27475D01*
X-175228Y28717D01*
X-161973Y41973D01*
X-160730Y43591D01*
X-159949Y45477D01*
X-159683Y47500D01*
X-159950Y49523D01*
X-160730Y51408D01*
X-161973Y53027D01*
X-163591Y54270D01*
X-165477Y55051D01*
X-167500Y55317D01*
X-169523Y55051D01*
X-171408Y54270D01*
X-172929Y53102D01*
X-173369Y52904D01*
X-174431Y52974D01*
X-174473Y53027D01*
X-176092Y54270D01*
X-177977Y55051D01*
X-180000Y55317D01*
X-182023Y55051D01*
X-183909Y54270D01*
X-185527Y53027D01*
X-185935Y52620D01*
X-187275Y53075D01*
X-187449Y54397D01*
X-188230Y56283D01*
X-188496Y56629D01*
X-187870Y57899D01*
X-149957D01*
Y26912D01*
D02*
G37*
G36*
X-256556Y-117341D02*
Y-150000D01*
X-256333Y-151697D01*
X-255678Y-153278D01*
X-254636Y-154636D01*
X-253278Y-155678D01*
X-251697Y-156333D01*
X-250000Y-156556D01*
X-110000D01*
X-109099Y-157346D01*
Y-300097D01*
X-256696D01*
X-256696Y-300097D01*
X-259699Y-300492D01*
X-262496Y-301651D01*
X-264898Y-303495D01*
X-264898Y-303495D01*
X-272841Y-311438D01*
X-274044Y-310844D01*
X-273933Y-310000D01*
Y-293250D01*
X-274200Y-291227D01*
X-274980Y-289342D01*
X-276223Y-287723D01*
X-277023Y-286923D01*
Y-212539D01*
X-275967Y-211834D01*
X-275326Y-212099D01*
X-273303Y-212365D01*
X-271280Y-212099D01*
X-269395Y-211318D01*
X-267776Y-210076D01*
X-266534Y-208457D01*
X-265753Y-206572D01*
X-265487Y-204548D01*
Y-157500D01*
X-265753Y-155477D01*
X-266534Y-153591D01*
X-267776Y-151973D01*
X-269395Y-150730D01*
X-271280Y-149950D01*
X-273303Y-149683D01*
X-275326Y-149950D01*
X-275967Y-150215D01*
X-277023Y-149509D01*
Y-136148D01*
X-257729Y-116855D01*
X-256556Y-117341D01*
D02*
G37*
%LPC*%
G36*
X-330799Y99767D02*
Y91502D01*
X-322534D01*
X-322583Y91873D01*
X-323691Y94549D01*
X-325454Y96847D01*
X-327752Y98610D01*
X-330428Y99719D01*
X-330799Y99767D01*
D02*
G37*
G36*
X-310399D02*
X-310771Y99719D01*
X-313447Y98610D01*
X-315745Y96847D01*
X-317508Y94549D01*
X-318616Y91873D01*
X-318665Y91502D01*
X-310399D01*
Y99767D01*
D02*
G37*
G36*
Y86502D02*
X-318665D01*
X-318616Y86130D01*
X-317508Y83454D01*
X-315745Y81156D01*
X-313447Y79393D01*
X-310771Y78285D01*
X-310399Y78236D01*
Y86502D01*
D02*
G37*
G36*
X-307899Y22888D02*
X-310510Y22544D01*
X-312943Y21537D01*
X-315032Y19934D01*
X-316634Y17845D01*
X-317642Y15412D01*
X-317986Y12802D01*
X-317642Y10191D01*
X-316634Y7758D01*
X-315032Y5670D01*
X-312943Y4067D01*
X-310510Y3059D01*
X-307899Y2715D01*
X-305289Y3059D01*
X-302856Y4067D01*
X-300767Y5670D01*
X-299165Y7758D01*
X-298157Y10191D01*
X-297813Y12802D01*
X-298157Y15412D01*
X-299165Y17845D01*
X-300767Y19934D01*
X-302856Y21537D01*
X-305289Y22544D01*
X-307899Y22888D01*
D02*
G37*
G36*
Y-2512D02*
X-310510Y-2856D01*
X-312943Y-3863D01*
X-315032Y-5466D01*
X-316634Y-7555D01*
X-317642Y-9988D01*
X-317986Y-12598D01*
X-317642Y-15209D01*
X-316634Y-17642D01*
X-315032Y-19730D01*
X-312943Y-21333D01*
X-310510Y-22341D01*
X-307899Y-22685D01*
X-305289Y-22341D01*
X-302856Y-21333D01*
X-300767Y-19730D01*
X-299165Y-17642D01*
X-298157Y-15209D01*
X-297813Y-12598D01*
X-298157Y-9988D01*
X-299165Y-7555D01*
X-300767Y-5466D01*
X-302856Y-3863D01*
X-305289Y-2856D01*
X-307899Y-2512D01*
D02*
G37*
G36*
X-330799Y-27233D02*
Y-35498D01*
X-322534D01*
X-322583Y-35127D01*
X-323691Y-32451D01*
X-325454Y-30153D01*
X-327752Y-28390D01*
X-330428Y-27281D01*
X-330799Y-27233D01*
D02*
G37*
G36*
X-310399D02*
X-310771Y-27281D01*
X-313447Y-28390D01*
X-315745Y-30153D01*
X-317508Y-32451D01*
X-318616Y-35127D01*
X-318665Y-35498D01*
X-310399D01*
Y-27233D01*
D02*
G37*
G36*
X-330799Y-154233D02*
Y-162498D01*
X-322534D01*
X-322583Y-162127D01*
X-323691Y-159451D01*
X-325454Y-157153D01*
X-327752Y-155390D01*
X-330428Y-154282D01*
X-330799Y-154233D01*
D02*
G37*
G36*
X-310399D02*
X-310771Y-154282D01*
X-313447Y-155390D01*
X-315745Y-157153D01*
X-317508Y-159451D01*
X-318616Y-162127D01*
X-318665Y-162498D01*
X-310399D01*
Y-154233D01*
D02*
G37*
G36*
Y-167498D02*
X-318665D01*
X-318616Y-167870D01*
X-317508Y-170546D01*
X-315745Y-172844D01*
X-313447Y-174607D01*
X-310771Y-175715D01*
X-310399Y-175764D01*
Y-167498D01*
D02*
G37*
%LPD*%
D10*
X-537997Y-130000D02*
X-530000D01*
X-525000Y-330000D02*
Y-135000D01*
X-530000Y-130000D02*
X-525000Y-135000D01*
X-517500Y-322500D02*
Y95000D01*
X-537500Y115000D02*
Y130000D01*
Y115000D02*
X-517500Y95000D01*
X617500D02*
X637500Y115000D01*
Y130000D01*
X617500Y-322500D02*
Y95000D01*
X630000Y-130000D02*
X637997D01*
X625000Y-135000D02*
X630000Y-130000D01*
X625000Y-330000D02*
Y-135000D01*
X-582498Y-139000D02*
Y-119998D01*
Y-154998D02*
Y-139000D01*
X682500Y-245000D02*
Y-155000D01*
X682498Y-139000D02*
Y-119998D01*
Y-154998D02*
Y-139000D01*
X637502Y155000D02*
Y245000D01*
X651500Y130000D02*
X668502D01*
X651500Y130000D02*
Y150000D01*
X646500Y155000D02*
X651500Y150000D01*
X637502Y155000D02*
X646500D01*
X638002Y-245000D02*
Y-155000D01*
X652000Y-130000D02*
X669002D01*
X652000Y-150000D02*
Y-130000D01*
X647000Y-155000D02*
X652000Y-150000D01*
X638002Y-155000D02*
X647000D01*
X-537502Y155000D02*
Y245000D01*
X-568502Y130000D02*
X-551500D01*
X-551500Y130000D02*
Y150000D01*
X-546500Y155000D01*
X-537502D01*
X-546498Y-155000D02*
X-537500D01*
X-551498Y-150000D02*
X-546498Y-155000D01*
X-551498Y-150000D02*
Y-130000D01*
X-568500Y-130000D02*
X-551498D01*
X-551498Y-130000D01*
X-537500Y-245000D02*
Y-155000D01*
X-582500Y155000D02*
X-582498Y154998D01*
Y119998D02*
Y130000D01*
Y154998D01*
X-582500Y155000D02*
Y245000D01*
Y262000D01*
Y-155000D02*
X-582498Y-154998D01*
X-582500Y-245000D02*
Y-155000D01*
Y-262000D02*
Y-245000D01*
X682498Y-154998D02*
X682500Y-155000D01*
Y-262000D02*
Y-245000D01*
Y245000D02*
Y262000D01*
Y155000D02*
Y245000D01*
X682498Y130000D02*
Y154998D01*
Y119998D02*
Y130000D01*
Y154998D02*
X682500Y155000D01*
X-72500Y-157500D02*
Y-20562D01*
X305650Y-212200D02*
Y-195000D01*
X318650Y-212200D02*
Y-195000D01*
X357650Y-212200D02*
Y-195000D01*
X-228286Y59213D02*
X-226822Y57748D01*
X-200374D02*
X-195000Y52374D01*
X-228286Y85071D02*
X-172500Y140858D01*
X-195000Y47500D02*
Y52374D01*
X-228286Y59213D02*
Y85071D01*
X-226822Y57748D02*
X-200374D01*
X-233286Y87142D02*
X-177500Y142929D01*
X-233286Y51714D02*
Y87142D01*
Y51714D02*
X-229073Y47500D01*
X-205000D01*
X-242500Y36086D02*
Y85000D01*
X-253401Y-5901D02*
Y25185D01*
X-260151Y12651D02*
Y26349D01*
X112500Y-356898D02*
Y-322898D01*
X87252Y-357050D02*
Y-322898D01*
X-281750Y-310000D02*
Y-293250D01*
X-284839Y-290161D02*
X-281750Y-293250D01*
X-290000Y-317398D02*
Y-131000D01*
X-262500Y-103500D01*
X-284839Y-290161D02*
Y-132910D01*
X-273303Y-204548D02*
Y-157500D01*
X112500Y-356898D02*
X123902Y-368300D01*
X87252Y-357050D02*
X98502Y-368300D01*
X-177500Y180454D02*
X-141938Y216016D01*
Y320000D01*
X-172500Y178383D02*
X-134216Y216667D01*
Y312500D01*
X86803Y320000D02*
Y356605D01*
X149299Y320000D02*
Y342900D01*
X86803Y356605D02*
X98499Y368300D01*
X-333299Y165202D02*
X-321001Y177500D01*
X-257500D01*
X-235000Y200000D01*
Y225000D01*
X-307899Y165202D02*
X-262298D01*
X-227500Y200000D01*
Y232500D01*
X-291750Y55750D02*
Y95750D01*
X-333299Y38202D02*
X-321734Y49768D01*
X-297732D01*
X-291750Y55750D01*
X-347500Y294546D02*
Y300552D01*
X-320001Y-202500D02*
X-307899Y-190398D01*
X-350398Y-202500D02*
X-320001D01*
X-347500Y300552D02*
X-344600Y303452D01*
X-375000Y-177898D02*
X-350398Y-202500D01*
X-375000Y-177898D02*
Y-14654D01*
X-424250Y34596D02*
Y217796D01*
X-347500Y294546D01*
X-344600Y303452D02*
X-295952D01*
X-285000Y292500D01*
X-285000D01*
X-212500Y143284D02*
Y155000D01*
X-283098Y114402D02*
X-205000Y192500D01*
X-265198Y139802D02*
X-212500Y192500D01*
X-262500Y152500D02*
X-220000Y195000D01*
X-291750Y95750D02*
X-212500Y175000D01*
X-262500Y202500D02*
X-255000Y210000D01*
X-245000Y205000D02*
Y217500D01*
X-220000Y195000D02*
Y240000D01*
X-212500Y192500D02*
Y247500D01*
X-182500Y185000D02*
X-165000Y202500D01*
X-439250Y28383D02*
Y229202D01*
X-365000Y303452D01*
X-429250Y32525D02*
Y219867D01*
X-428514Y220603D01*
X-180756Y34244D02*
X-167500Y47500D01*
X-243401Y-12518D02*
Y19554D01*
X-228710Y34244D01*
X-257500Y-26617D02*
X-243401Y-12518D01*
X-228710Y34244D02*
X-180756D01*
X-248401Y21625D02*
X-229275Y40750D01*
X-186750D02*
X-180000Y47500D01*
X-262500Y-24546D02*
X-248401Y-10447D01*
Y21625D01*
X-257500Y-105571D02*
Y-26617D01*
X-284839Y-132910D02*
X-257500Y-105571D01*
X-229275Y40750D02*
X-186750D01*
X-262500Y-103500D02*
Y-24546D01*
X-281750Y-113449D02*
X-267500Y-99199D01*
X-281750Y-113449D02*
Y-113449D01*
X-267500Y-99199D02*
Y88284D01*
X-307899Y-139598D02*
X-281750Y-113449D01*
X-286750Y-93049D02*
X-272500Y-78799D01*
X-286750Y-93049D02*
Y-93049D01*
X-307899Y-114198D02*
X-286750Y-93049D01*
X-272500Y-78799D02*
Y90355D01*
X-277500Y-58399D02*
Y97500D01*
X-307899Y-88798D02*
X-277500Y-58399D01*
X-172500Y140858D02*
Y178383D01*
X-177500Y142929D02*
Y180454D01*
X-428514Y220603D02*
X-356617Y292500D01*
X-352500Y296617D01*
Y327500D01*
X-302900Y335400D02*
X-295000Y327500D01*
X-344600Y335400D02*
X-302900D01*
X-352500Y327500D02*
X-344600Y335400D01*
X-357500Y301406D02*
Y332500D01*
X-390000Y-211642D02*
Y-20867D01*
X-439250Y28383D02*
X-390000Y-20867D01*
Y-211642D02*
X-349142Y-252500D01*
X-349903Y-241198D02*
X-333299D01*
X-385000Y-206102D02*
X-349903Y-241198D01*
X-434250Y30454D02*
X-385000Y-18796D01*
Y-206102D02*
Y-18796D01*
X-424250Y34596D02*
X-375000Y-14654D01*
X-344744Y-227048D02*
X-319149D01*
X-429250Y32525D02*
X-380000Y-16725D01*
Y-191792D02*
Y-16725D01*
Y-191792D02*
X-344744Y-227048D01*
X-419250Y36667D02*
Y215296D01*
X-370000Y-153698D02*
X-333299Y-190398D01*
X-419250Y215296D02*
X-389773Y244773D01*
X-419250Y36667D02*
X-370000Y-12583D01*
X-365000Y-107898D02*
Y-10511D01*
X-412500Y36988D02*
Y152500D01*
X-365000Y-107898D02*
X-333299Y-139598D01*
X-412500Y36988D02*
X-365000Y-10511D01*
X-405000Y36560D02*
X-359793Y-8648D01*
Y-87705D02*
X-333299Y-114198D01*
X-359793Y-87705D02*
Y-8648D01*
X-405000Y36560D02*
Y125652D01*
X-354793Y-67305D02*
Y-6576D01*
X-397500Y36131D02*
Y102500D01*
Y36131D02*
X-354793Y-6576D01*
Y-67305D02*
X-333299Y-88798D01*
X-390000Y35702D02*
X-349142Y-5156D01*
Y-47556D02*
X-333299Y-63398D01*
X-349142Y-47556D02*
Y-5156D01*
X-390000Y35702D02*
Y75000D01*
X-434250Y30454D02*
Y224656D01*
X-354546Y280000D02*
X-275000D01*
X-434250Y224656D02*
X-357500Y301406D01*
X-370000Y-153698D02*
Y-12583D01*
X-389773Y244773D02*
X-354546Y280000D01*
X-389773Y244773D02*
Y244773D01*
X-357500Y138602D02*
Y267500D01*
Y138602D02*
X-333299Y114402D01*
X-382500Y36602D02*
Y237500D01*
X-372500Y52002D02*
Y215000D01*
Y52002D02*
X-333299Y12802D01*
X-349142Y-252500D02*
X-319201D01*
X-307899Y-241198D01*
X-319149Y-227048D02*
X-307899Y-215798D01*
X-382500Y36602D02*
X-333299Y-12598D01*
X-307899Y114402D02*
X-283098D01*
X-365000Y95302D02*
X-333299Y63602D01*
X-365000Y95302D02*
Y177500D01*
X-205000Y192500D02*
Y262500D01*
X-182500Y145000D02*
Y185000D01*
X-242500Y85000D02*
X-182500Y145000D01*
X-321401Y202500D02*
X-262500D01*
X-187500Y147071D02*
Y197500D01*
X-247500Y87071D02*
X-187500Y147071D01*
X-195000Y146642D02*
Y182500D01*
X-259398Y190602D02*
X-245000Y205000D01*
X-307899Y190602D02*
X-259398D01*
X-333299D02*
X-321401Y202500D01*
X-333299Y139802D02*
X-320601Y152500D01*
X-307899Y139802D02*
X-265198D01*
X-320601Y152500D02*
X-262500D01*
X-202500Y146213D02*
Y167500D01*
X-260551Y88162D02*
X-202500Y146213D01*
X-272500Y90355D02*
X-257678Y105178D01*
Y109822D02*
X-227500Y140000D01*
X-257678Y105178D02*
Y109822D01*
X-277500Y97500D02*
X-265000Y110000D01*
X-285000Y-40499D02*
Y92500D01*
X-307899Y-63398D02*
X-285000Y-40499D01*
X-267500Y88284D02*
X-212500Y143284D01*
X-260551Y63051D02*
Y88162D01*
X-252500Y45702D02*
Y89142D01*
X-195000Y146642D01*
X-260151Y26349D02*
X-247500Y39000D01*
X-253401Y25185D02*
X-242500Y36086D01*
X-260049Y-12549D02*
X-253401Y-5901D01*
X-247500Y39000D02*
Y87071D01*
X-260351Y37851D02*
X-252500Y45702D01*
D11*
X87000Y-8500D02*
Y4500D01*
D14*
X-537500Y245000D02*
D03*
Y155000D02*
D03*
X-582500Y245000D02*
D03*
Y155000D02*
D03*
X-537500Y-155000D02*
D03*
Y-245000D02*
D03*
X-582500Y-155000D02*
D03*
Y-245000D02*
D03*
X637500Y155000D02*
D03*
Y245000D02*
D03*
X682500Y155000D02*
D03*
Y245000D02*
D03*
X637500Y-245000D02*
D03*
Y-155000D02*
D03*
X682500Y-245000D02*
D03*
Y-155000D02*
D03*
D15*
X-537500Y130000D02*
D03*
X-551500D02*
D03*
X-537498Y-130000D02*
D03*
X-551498D02*
D03*
X637500Y130000D02*
D03*
X651500D02*
D03*
X637997Y-130000D02*
D03*
X651997D02*
D03*
X-568498Y130000D02*
D03*
X-582498D02*
D03*
X-568500Y-130000D02*
D03*
X-582500D02*
D03*
X668498Y130000D02*
D03*
X682498D02*
D03*
X668500Y-130000D02*
D03*
X682500D02*
D03*
D24*
X305650Y-212200D02*
X318650D01*
X300150D02*
X305650D01*
X318650D02*
X357650D01*
X292650Y-219700D02*
X300150Y-212200D01*
X292650Y-284697D02*
Y-219700D01*
Y-288245D02*
Y-284697D01*
X269198Y-311696D02*
X292650Y-288245D01*
X-192500Y69498D02*
X-144216D01*
X-138358Y15313D02*
X-108313D01*
X-152500D02*
X-138358D01*
Y63640D01*
X-144216Y69498D02*
X-138358Y63640D01*
X-97500Y-311696D02*
X80802D01*
X-256696D02*
X-97500D01*
Y4500D01*
X-108313Y15313D02*
X-97500Y4500D01*
X205175Y91908D02*
X209918Y96651D01*
X136158Y91908D02*
X205175D01*
X123500Y-1002D02*
Y79250D01*
X136158Y91908D01*
X80802Y-311696D02*
X269198D01*
X80802Y-43700D02*
X123500Y-1002D01*
X80802Y-311696D02*
Y-43700D01*
X-327100Y-342900D02*
X-273358D01*
X-267500Y-337042D02*
Y-322500D01*
X-273358Y-342900D02*
X-267500Y-337042D01*
Y-322500D02*
X-256696Y-311696D01*
X-333299Y-336701D02*
X-327100Y-342900D01*
X-333299Y-336701D02*
Y-317398D01*
X37500Y2188D02*
X48750D01*
X62500D01*
Y-280000D02*
Y2188D01*
Y-292500D02*
Y-280000D01*
X52500Y-292500D02*
X62500D01*
X42500D02*
X52500D01*
D25*
X-333299Y317602D02*
D03*
Y292202D02*
D03*
Y266802D02*
D03*
Y241402D02*
D03*
Y216002D02*
D03*
Y190602D02*
D03*
Y165202D02*
D03*
Y139802D02*
D03*
Y114402D02*
D03*
Y89002D02*
D03*
Y63602D02*
D03*
Y38202D02*
D03*
Y12802D02*
D03*
Y-12598D02*
D03*
Y-37998D02*
D03*
Y-63398D02*
D03*
Y-88798D02*
D03*
Y-114198D02*
D03*
X-307899Y317602D02*
D03*
Y292202D02*
D03*
Y266802D02*
D03*
Y241402D02*
D03*
Y216002D02*
D03*
Y190602D02*
D03*
Y165202D02*
D03*
Y139802D02*
D03*
Y114402D02*
D03*
Y89002D02*
D03*
Y63602D02*
D03*
Y38202D02*
D03*
Y12802D02*
D03*
Y-12598D02*
D03*
Y-37998D02*
D03*
Y-63398D02*
D03*
Y-88798D02*
D03*
Y-114198D02*
D03*
Y-317398D02*
D03*
X-333299Y-291998D02*
D03*
X-307899D02*
D03*
X-333299Y-266598D02*
D03*
X-307899D02*
D03*
X-333299Y-241198D02*
D03*
X-307899D02*
D03*
X-333299Y-215798D02*
D03*
X-307899D02*
D03*
X-333299Y-190398D02*
D03*
X-307899D02*
D03*
X-333299Y-164998D02*
D03*
X-307899D02*
D03*
Y-139598D02*
D03*
X-333299D02*
D03*
X403302Y-342900D02*
D03*
X377902D02*
D03*
X352502D02*
D03*
X327102D02*
D03*
X301702D02*
D03*
X276302D02*
D03*
X250902D02*
D03*
X225502D02*
D03*
X200102D02*
D03*
X174702D02*
D03*
X149302D02*
D03*
X123902D02*
D03*
X98502D02*
D03*
X73102D02*
D03*
X47702D02*
D03*
X22302D02*
D03*
X-3098D02*
D03*
X-28498D02*
D03*
X403302Y-368300D02*
D03*
X377902D02*
D03*
X352502D02*
D03*
X327102D02*
D03*
X301702D02*
D03*
X276302D02*
D03*
X250902D02*
D03*
X225502D02*
D03*
X200102D02*
D03*
X174702D02*
D03*
X149302D02*
D03*
X123902D02*
D03*
X98502D02*
D03*
X73102D02*
D03*
X47702D02*
D03*
X22302D02*
D03*
X-3098D02*
D03*
X-28498D02*
D03*
X-231698D02*
D03*
X-206298Y-342900D02*
D03*
Y-368300D02*
D03*
X-180898Y-342900D02*
D03*
Y-368300D02*
D03*
X-155498Y-342900D02*
D03*
Y-368300D02*
D03*
X-130098Y-342900D02*
D03*
Y-368300D02*
D03*
X-104698Y-342900D02*
D03*
Y-368300D02*
D03*
X-79298Y-342900D02*
D03*
Y-368300D02*
D03*
X-53898D02*
D03*
Y-342900D02*
D03*
X403299Y368300D02*
D03*
X377899D02*
D03*
X352499D02*
D03*
X327099D02*
D03*
X301699D02*
D03*
X276299D02*
D03*
X250899D02*
D03*
X225499D02*
D03*
X200099D02*
D03*
X174699D02*
D03*
X149299D02*
D03*
X123899D02*
D03*
X98499D02*
D03*
X73099D02*
D03*
X47699D02*
D03*
X22299D02*
D03*
X-3101D02*
D03*
X-28501D02*
D03*
X403299Y342900D02*
D03*
X377899D02*
D03*
X352499D02*
D03*
X327099D02*
D03*
X301699D02*
D03*
X276299D02*
D03*
X250899D02*
D03*
X225499D02*
D03*
X200099D02*
D03*
X174699D02*
D03*
X149299D02*
D03*
X123899D02*
D03*
X98499D02*
D03*
X73099D02*
D03*
X47699D02*
D03*
X22299D02*
D03*
X-3101D02*
D03*
X-28501D02*
D03*
X-231701D02*
D03*
X-206301Y368300D02*
D03*
Y342900D02*
D03*
X-180901Y368300D02*
D03*
Y342900D02*
D03*
X-155501Y368300D02*
D03*
Y342900D02*
D03*
X-130101Y368300D02*
D03*
Y342900D02*
D03*
X-104701Y368300D02*
D03*
Y342900D02*
D03*
X-79301Y368300D02*
D03*
Y342900D02*
D03*
X-53901D02*
D03*
Y368300D02*
D03*
D26*
X-333299Y-317398D02*
D03*
D27*
X668000Y388000D02*
D03*
Y-388000D02*
D03*
X-568000D02*
D03*
Y388000D02*
D03*
D28*
X-231698Y-342900D02*
D03*
X-231701Y368300D02*
D03*
D29*
X-354546Y49768D02*
D03*
X-397500Y180998D02*
D03*
X-397817Y217500D02*
D03*
X680477Y-72500D02*
D03*
X635477D02*
D03*
X680477Y66477D02*
D03*
X635477D02*
D03*
X-535477Y-63398D02*
D03*
X-578591D02*
D03*
X-535477Y70734D02*
D03*
X-578591D02*
D03*
X-135141Y-190398D02*
D03*
Y-252500D02*
D03*
X-224566D02*
D03*
X-225472Y-190398D02*
D03*
X617000Y318000D02*
D03*
X567000Y218000D02*
D03*
X617000Y118000D02*
D03*
X567000Y18000D02*
D03*
Y-182000D02*
D03*
Y-382000D02*
D03*
X517000Y318000D02*
D03*
X467000Y218000D02*
D03*
X517000Y118000D02*
D03*
X467000Y18000D02*
D03*
X517000Y-82000D02*
D03*
X467000Y-182000D02*
D03*
X517000Y-282000D02*
D03*
X467000Y-382000D02*
D03*
X417000Y318000D02*
D03*
X367000Y218000D02*
D03*
X417000Y118000D02*
D03*
X367000Y-182000D02*
D03*
X417000Y-282000D02*
D03*
X367000Y-382000D02*
D03*
X317000Y318000D02*
D03*
X267000Y-182000D02*
D03*
Y-382000D02*
D03*
X217000Y318000D02*
D03*
X167000Y-182000D02*
D03*
X217000Y-282000D02*
D03*
X167000Y-382000D02*
D03*
X117000Y-82000D02*
D03*
Y-282000D02*
D03*
X67000Y-382000D02*
D03*
X-33000Y18000D02*
D03*
X17000Y-82000D02*
D03*
X-33000Y-182000D02*
D03*
Y-382000D02*
D03*
X-133000D02*
D03*
X-183000Y318000D02*
D03*
X-333000Y-382000D02*
D03*
X-383000Y318000D02*
D03*
X-433000Y-182000D02*
D03*
X-383000Y-282000D02*
D03*
X-433000Y-382000D02*
D03*
X-483000Y318000D02*
D03*
Y118000D02*
D03*
Y-82000D02*
D03*
Y-282000D02*
D03*
X-525000Y-330000D02*
D03*
X-517500Y-322500D02*
D03*
X617500D02*
D03*
X625000Y-330000D02*
D03*
X-582498Y119998D02*
D03*
X-582500Y262000D02*
D03*
X-582498Y228000D02*
D03*
Y139000D02*
D03*
Y-119998D02*
D03*
X-582500Y-262000D02*
D03*
X-582498Y-228000D02*
D03*
Y-139000D02*
D03*
X682498Y-119998D02*
D03*
X682500Y-262000D02*
D03*
X682498Y-228000D02*
D03*
Y-139000D02*
D03*
Y139000D02*
D03*
Y228000D02*
D03*
X682500Y262000D02*
D03*
X682498Y119998D02*
D03*
X-72500Y-20562D02*
D03*
X430000Y66477D02*
D03*
X402500D02*
D03*
X415489Y54502D02*
D03*
Y77500D02*
D03*
X372738Y73740D02*
D03*
X337738D02*
D03*
X352900Y-248000D02*
D03*
X-140161Y-5941D02*
D03*
Y-30000D02*
D03*
X-230661D02*
D03*
Y-5941D02*
D03*
X-192500Y69498D02*
D03*
X-152500Y69502D02*
D03*
X-217500Y79000D02*
D03*
X-152500Y47500D02*
D03*
X-152500Y15313D02*
D03*
X-72500Y-157500D02*
D03*
X188097Y69500D02*
D03*
X162500Y69004D02*
D03*
X145000Y106000D02*
D03*
X136158D02*
D03*
X127500D02*
D03*
X114497D02*
D03*
X209918Y96651D02*
D03*
X112500Y-322898D02*
D03*
X87252D02*
D03*
X-281750Y-310000D02*
D03*
X-290000Y-317398D02*
D03*
X185000Y106000D02*
D03*
X194319Y73082D02*
D03*
X210738Y73502D02*
D03*
X174988Y77989D02*
D03*
X37500Y2188D02*
D03*
X48750D02*
D03*
X62500Y-280000D02*
D03*
X52500Y-292500D02*
D03*
X62500Y2188D02*
D03*
X42500Y-292500D02*
D03*
X62500D02*
D03*
X-273303Y-157500D02*
D03*
Y-204548D02*
D03*
X305650Y-195000D02*
D03*
X318650D02*
D03*
X344650D02*
D03*
X357650D02*
D03*
X331650D02*
D03*
X292650D02*
D03*
X-134216Y312500D02*
D03*
X-141938Y320000D02*
D03*
X86803D02*
D03*
X149299D02*
D03*
X87000Y4500D02*
D03*
X120000Y-21500D02*
D03*
X87000Y17500D02*
D03*
X-212500Y155000D02*
D03*
X-255000Y210000D02*
D03*
X-245000Y217500D02*
D03*
X-235000Y225000D02*
D03*
X-227500Y232500D02*
D03*
X-220000Y240000D02*
D03*
X-212500Y247500D02*
D03*
X-165000Y202500D02*
D03*
X-205000Y47500D02*
D03*
X-195000D02*
D03*
X-167500Y47500D02*
D03*
X-180000Y47500D02*
D03*
X-157500Y2688D02*
D03*
X-215000Y2438D02*
D03*
X-365000Y303452D02*
D03*
X-357500Y335400D02*
D03*
X-295000Y327500D02*
D03*
X-285000Y292500D02*
D03*
X-275000Y280000D02*
D03*
X-357500Y267500D02*
D03*
X-372500Y215000D02*
D03*
X-412500Y152500D02*
D03*
X-405000Y126250D02*
D03*
X-397500Y102500D02*
D03*
X-390000Y75000D02*
D03*
X-382500Y237500D02*
D03*
X-212500Y175000D02*
D03*
X-365000Y177500D02*
D03*
X-187500Y197500D02*
D03*
X-195000Y182500D02*
D03*
X-205000Y262500D02*
D03*
X-202500Y167500D02*
D03*
X-227500Y140000D02*
D03*
X-265000Y110000D02*
D03*
X-285000Y92500D02*
D03*
X-260049Y-12549D02*
D03*
X-260151Y12651D02*
D03*
X-260351Y37851D02*
D03*
X-260551Y63051D02*
D03*
X75000Y73500D02*
D03*
X87000Y-8500D02*
D03*
Y30500D02*
D03*
X75000Y43500D02*
D03*
X318650Y-279857D02*
D03*
X292650Y-314697D02*
D03*
X292650Y-284697D02*
D03*
M02*
