G04*
G04 #@! TF.GenerationSoftware,Altium Limited,Altium Designer,20.0.11 (256)*
G04*
G04 Layer_Color=16711935*
%FSLAX44Y44*%
%MOMM*%
G71*
G01*
G75*
%ADD16C,0.3283*%
%ADD17C,0.4103*%
%ADD19R,0.9000X1.0000*%
%ADD20C,6.1000*%
%ADD21C,1.6000*%
%ADD22R,1.6000X1.6000*%
%ADD23R,1.6000X1.6000*%
%ADD42R,1.0000X0.9000*%
%ADD43R,0.4000X1.1000*%
%ADD44R,1.7500X1.4000*%
%ADD45R,2.7000X1.2000*%
%ADD46R,0.6600X2.2500*%
G04:AMPARAMS|DCode=47|XSize=0.35mm|YSize=0.8mm|CornerRadius=0.1125mm|HoleSize=0mm|Usage=FLASHONLY|Rotation=270.000|XOffset=0mm|YOffset=0mm|HoleType=Round|Shape=RoundedRectangle|*
%AMROUNDEDRECTD47*
21,1,0.3500,0.5750,0,0,270.0*
21,1,0.1250,0.8000,0,0,270.0*
1,1,0.2250,-0.2875,-0.0625*
1,1,0.2250,-0.2875,0.0625*
1,1,0.2250,0.2875,0.0625*
1,1,0.2250,0.2875,-0.0625*
%
%ADD47ROUNDEDRECTD47*%
%ADD48R,7.4000X1.0500*%
%ADD49O,0.8000X2.6000*%
G36*
X801414Y325172D02*
X797225D01*
X796747Y325189D01*
X796285Y325257D01*
X795841Y325343D01*
X795431Y325446D01*
X795037Y325582D01*
X794678Y325736D01*
X794337Y325907D01*
X794029Y326078D01*
X793755Y326232D01*
X793516Y326403D01*
X793294Y326557D01*
X793123Y326693D01*
X792986Y326796D01*
X792884Y326899D01*
X792815Y326950D01*
X792798Y326967D01*
X792405Y327411D01*
X792063Y327873D01*
X791755Y328386D01*
X791499Y328899D01*
X791294Y329428D01*
X791106Y329976D01*
X790952Y330505D01*
X790832Y331001D01*
X790747Y331497D01*
X790678Y331941D01*
X790627Y332352D01*
X790593Y332693D01*
X790576Y332847D01*
Y332984D01*
X790559Y333104D01*
Y333206D01*
Y333292D01*
Y333343D01*
Y333377D01*
Y333394D01*
X790576Y334044D01*
X790661Y334659D01*
X790764Y335241D01*
X790901Y335770D01*
X791072Y336283D01*
X791260Y336745D01*
X791465Y337155D01*
X791670Y337531D01*
X791875Y337873D01*
X792080Y338164D01*
X792268Y338420D01*
X792439Y338625D01*
X792576Y338796D01*
X792678Y338916D01*
X792764Y338984D01*
X792781Y339001D01*
X793140Y339309D01*
X793516Y339565D01*
X793892Y339805D01*
X794268Y339993D01*
X794644Y340164D01*
X795020Y340300D01*
X795379Y340420D01*
X795721Y340505D01*
X796046Y340591D01*
X796337Y340642D01*
X796593Y340676D01*
X796815Y340694D01*
X797003Y340711D01*
X797140Y340728D01*
X801414D01*
Y325172D01*
D02*
G37*
G36*
Y279214D02*
X796097D01*
X795636Y279231D01*
X795208Y279265D01*
X794815Y279334D01*
X794439Y279402D01*
X794097Y279505D01*
X793773Y279624D01*
X793482Y279761D01*
X793208Y279915D01*
X792952Y280086D01*
X792713Y280257D01*
X792507Y280445D01*
X792319Y280633D01*
X792131Y280838D01*
X791978Y281043D01*
X791721Y281453D01*
X791516Y281864D01*
X791345Y282274D01*
X791243Y282650D01*
X791174Y282992D01*
X791123Y283283D01*
X791106Y283402D01*
Y283505D01*
X791089Y283590D01*
Y283641D01*
Y283676D01*
Y283693D01*
X791106Y284154D01*
X791157Y284565D01*
X791243Y284958D01*
X791362Y285300D01*
X791499Y285625D01*
X791636Y285898D01*
X791789Y286154D01*
X791961Y286377D01*
X792114Y286565D01*
X792285Y286719D01*
X792422Y286855D01*
X792559Y286958D01*
X792678Y287043D01*
X792764Y287095D01*
X792815Y287129D01*
X792832Y287146D01*
X792559Y287385D01*
X792319Y287624D01*
X792114Y287881D01*
X791943Y288154D01*
X791789Y288411D01*
X791670Y288684D01*
X791567Y288941D01*
X791482Y289197D01*
X791431Y289436D01*
X791379Y289642D01*
X791345Y289847D01*
X791311Y290018D01*
Y290154D01*
X791294Y290257D01*
Y290325D01*
Y290343D01*
X791311Y290702D01*
X791345Y291060D01*
X791413Y291385D01*
X791499Y291693D01*
X791601Y291966D01*
X791704Y292240D01*
X791824Y292479D01*
X791943Y292701D01*
X792080Y292889D01*
X792200Y293060D01*
X792302Y293214D01*
X792405Y293334D01*
X792490Y293437D01*
X792559Y293505D01*
X792593Y293539D01*
X792610Y293556D01*
X792884Y293778D01*
X793157Y293966D01*
X793465Y294120D01*
X793755Y294274D01*
X794063Y294394D01*
X794371Y294479D01*
X794678Y294565D01*
X794952Y294633D01*
X795226Y294684D01*
X795482Y294719D01*
X795704Y294753D01*
X795909Y294770D01*
X796063Y294787D01*
X801414D01*
Y279214D01*
D02*
G37*
G36*
X201265Y96996D02*
X201359Y96967D01*
X201446Y96921D01*
X201522Y96859D01*
X201585Y96782D01*
X201631Y96695D01*
X201660Y96601D01*
X201670Y96503D01*
Y80003D01*
X201660Y79905D01*
X201631Y79811D01*
X201585Y79724D01*
X201522Y79648D01*
X201446Y79586D01*
X201359Y79539D01*
X201265Y79510D01*
X201167Y79501D01*
X189667D01*
X189636Y79504D01*
X189604Y79505D01*
X189587Y79509D01*
X189569Y79510D01*
X189539Y79520D01*
X189508Y79527D01*
X189492Y79534D01*
X189475Y79539D01*
X189447Y79554D01*
X189418Y79567D01*
X189404Y79577D01*
X189388Y79586D01*
X189363Y79606D01*
X189338Y79624D01*
X189326Y79637D01*
X189312Y79648D01*
X189292Y79672D01*
X189270Y79695D01*
X189261Y79710D01*
X189249Y79724D01*
X189235Y79752D01*
X189218Y79779D01*
X187732Y82751D01*
X185766Y85699D01*
X182822Y89135D01*
X178902Y92074D01*
X173992Y94529D01*
X170083Y95506D01*
X164669Y95999D01*
X159754Y95507D01*
X157789Y95016D01*
X155822Y94524D01*
X153373Y93545D01*
X151409Y92562D01*
X148954Y91090D01*
X146503Y89128D01*
X146042Y88668D01*
X144068Y86200D01*
X141599Y82743D01*
X140116Y79779D01*
X140099Y79752D01*
X140085Y79724D01*
X140073Y79710D01*
X140064Y79695D01*
X140042Y79672D01*
X140022Y79648D01*
X140008Y79637D01*
X139996Y79624D01*
X139971Y79606D01*
X139946Y79586D01*
X139930Y79577D01*
X139916Y79567D01*
X139887Y79554D01*
X139859Y79539D01*
X139842Y79534D01*
X139826Y79527D01*
X139795Y79520D01*
X139765Y79510D01*
X139747Y79509D01*
X139730Y79505D01*
X139699Y79504D01*
X139667Y79501D01*
X128167D01*
X128069Y79510D01*
X127975Y79539D01*
X127888Y79586D01*
X127812Y79648D01*
X127749Y79724D01*
X127703Y79811D01*
X127674Y79905D01*
X127665Y80003D01*
Y96503D01*
X127674Y96601D01*
X127703Y96695D01*
X127749Y96782D01*
X127812Y96859D01*
X127888Y96921D01*
X127975Y96967D01*
X128069Y96996D01*
X128167Y97006D01*
X201167D01*
X201265Y96996D01*
D02*
G37*
G36*
Y59496D02*
X201359Y59467D01*
X201446Y59421D01*
X201522Y59359D01*
X201585Y59282D01*
X201631Y59195D01*
X201660Y59101D01*
X201670Y59003D01*
Y42503D01*
X201660Y42405D01*
X201631Y42311D01*
X201585Y42224D01*
X201522Y42148D01*
X201446Y42086D01*
X201359Y42039D01*
X201265Y42010D01*
X201167Y42001D01*
X128167D01*
X128069Y42010D01*
X127975Y42039D01*
X127888Y42086D01*
X127812Y42148D01*
X127749Y42224D01*
X127703Y42311D01*
X127674Y42405D01*
X127665Y42503D01*
Y59003D01*
X127674Y59101D01*
X127703Y59195D01*
X127749Y59282D01*
X127812Y59359D01*
X127888Y59421D01*
X127975Y59467D01*
X128069Y59496D01*
X128167Y59506D01*
X139667D01*
X139699Y59503D01*
X139730Y59502D01*
X139747Y59498D01*
X139765Y59496D01*
X139795Y59487D01*
X139826Y59480D01*
X139842Y59473D01*
X139859Y59467D01*
X139887Y59453D01*
X139916Y59440D01*
X139930Y59429D01*
X139946Y59421D01*
X139971Y59401D01*
X139996Y59383D01*
X140008Y59370D01*
X140022Y59359D01*
X140042Y59334D01*
X140064Y59311D01*
X140073Y59296D01*
X140085Y59282D01*
X140099Y59255D01*
X140116Y59228D01*
X142096Y55269D01*
X143564Y53311D01*
X145530Y50854D01*
X148962Y47912D01*
X151409Y46444D01*
X153360Y45469D01*
X159271Y43498D01*
X164665Y43008D01*
X169593Y43501D01*
X172057Y43994D01*
X173992Y44477D01*
X176930Y45946D01*
X180376Y47916D01*
X183808Y50857D01*
X186264Y53804D01*
X187232Y55256D01*
X189218Y59228D01*
X189235Y59255D01*
X189249Y59282D01*
X189261Y59296D01*
X189270Y59311D01*
X189292Y59334D01*
X189312Y59359D01*
X189326Y59370D01*
X189338Y59383D01*
X189363Y59401D01*
X189388Y59421D01*
X189404Y59429D01*
X189418Y59440D01*
X189447Y59453D01*
X189475Y59467D01*
X189492Y59473D01*
X189508Y59480D01*
X189539Y59487D01*
X189569Y59496D01*
X189587Y59498D01*
X189604Y59502D01*
X189636Y59503D01*
X189667Y59506D01*
X201167D01*
X201265Y59496D01*
D02*
G37*
%LPC*%
G36*
X799140Y338386D02*
X797243D01*
X796935Y338369D01*
X796627Y338335D01*
X796337Y338283D01*
X796063Y338198D01*
X795807Y338112D01*
X795567Y338010D01*
X795345Y337907D01*
X795140Y337805D01*
X794952Y337685D01*
X794781Y337582D01*
X794644Y337480D01*
X794525Y337394D01*
X794422Y337309D01*
X794354Y337258D01*
X794320Y337224D01*
X794302Y337206D01*
X794046Y336933D01*
X793824Y336642D01*
X793619Y336352D01*
X793448Y336027D01*
X793311Y335719D01*
X793191Y335394D01*
X793089Y335087D01*
X793020Y334796D01*
X792952Y334506D01*
X792918Y334232D01*
X792884Y334010D01*
X792849Y333805D01*
Y333634D01*
X792832Y333497D01*
Y333428D01*
Y333394D01*
X792849Y332847D01*
X792901Y332317D01*
X792969Y331822D01*
X793072Y331360D01*
X793191Y330933D01*
X793311Y330540D01*
X793448Y330164D01*
X793584Y329839D01*
X793738Y329548D01*
X793875Y329292D01*
X793995Y329070D01*
X794114Y328881D01*
X794217Y328745D01*
X794285Y328642D01*
X794337Y328574D01*
X794354Y328557D01*
X794576Y328369D01*
X794798Y328215D01*
X795037Y328061D01*
X795277Y327941D01*
X795533Y327839D01*
X795772Y327753D01*
X796217Y327634D01*
X796422Y327582D01*
X796610Y327548D01*
X796781Y327531D01*
X796935Y327514D01*
X797055Y327497D01*
X799140D01*
Y338386D01*
D02*
G37*
G36*
Y292462D02*
X796285D01*
X795824Y292445D01*
X795431Y292377D01*
X795089Y292291D01*
X794798Y292189D01*
X794576Y292086D01*
X794422Y292001D01*
X794320Y291932D01*
X794285Y291915D01*
X794046Y291693D01*
X793875Y291437D01*
X793738Y291180D01*
X793653Y290941D01*
X793602Y290702D01*
X793584Y290530D01*
X793567Y290462D01*
Y290411D01*
Y290377D01*
Y290360D01*
X793602Y290001D01*
X793670Y289693D01*
X793790Y289419D01*
X793960Y289180D01*
X794148Y288992D01*
X794354Y288821D01*
X794576Y288684D01*
X794815Y288582D01*
X795054Y288496D01*
X795277Y288428D01*
X795482Y288394D01*
X795670Y288360D01*
X795824Y288342D01*
X795960Y288325D01*
X799140D01*
Y292462D01*
D02*
G37*
G36*
Y286000D02*
X796200D01*
X795704Y285984D01*
X795260Y285898D01*
X794884Y285795D01*
X794559Y285642D01*
X794285Y285471D01*
X794046Y285283D01*
X793875Y285077D01*
X793721Y284855D01*
X793602Y284650D01*
X793516Y284428D01*
X793448Y284240D01*
X793413Y284069D01*
X793379Y283915D01*
X793362Y283813D01*
Y283744D01*
Y283710D01*
X793396Y283334D01*
X793482Y282992D01*
X793619Y282701D01*
X793790Y282462D01*
X793995Y282240D01*
X794234Y282069D01*
X794473Y281932D01*
X794730Y281812D01*
X794986Y281727D01*
X795226Y281659D01*
X795465Y281607D01*
X795670Y281573D01*
X795841Y281556D01*
X795978Y281539D01*
X799140D01*
Y286000D01*
D02*
G37*
%LPD*%
D16*
X772690Y332958D02*
G03*
X772690Y332958I-4103J0D01*
G01*
X777614Y309979D02*
G03*
X777614Y309979I-4103J0D01*
G01*
X772690Y287000D02*
G03*
X772690Y287000I-4103J0D01*
G01*
D17*
X796489Y305055D02*
Y314903D01*
X803055Y305055D02*
Y314903D01*
X773511Y332958D02*
X785000D01*
X785000Y321469D02*
X806338D01*
Y344447D01*
X785000D02*
X806338D01*
X785000Y321469D02*
Y344447D01*
X778435Y309979D02*
X789924D01*
X785000Y275511D02*
Y298489D01*
X806338D01*
Y275511D02*
Y298489D01*
X785000Y275511D02*
X806338D01*
X773511Y287000D02*
X785000D01*
X821110Y344447D02*
X824392D01*
X821110Y275511D02*
Y344447D01*
X824392Y275511D02*
Y344447D01*
X821110Y275511D02*
X824392D01*
D19*
X71665Y149503D02*
D03*
X85665D02*
D03*
X85665Y136503D02*
D03*
X71665D02*
D03*
X71669Y123503D02*
D03*
X85669D02*
D03*
X71669Y110503D02*
D03*
X85669D02*
D03*
X85665Y97503D02*
D03*
X71665D02*
D03*
X118669Y97503D02*
D03*
X104669D02*
D03*
X118669Y110503D02*
D03*
X104669D02*
D03*
X-233903Y104878D02*
D03*
X-219903D02*
D03*
D20*
X570000Y388000D02*
D03*
Y-388000D02*
D03*
X808000Y388000D02*
D03*
Y-388000D02*
D03*
X-568000D02*
D03*
Y388000D02*
D03*
D21*
X-333299Y317602D02*
D03*
Y292202D02*
D03*
Y266802D02*
D03*
Y241402D02*
D03*
Y216002D02*
D03*
Y190602D02*
D03*
Y165202D02*
D03*
Y139802D02*
D03*
Y114402D02*
D03*
Y89002D02*
D03*
Y63602D02*
D03*
Y38202D02*
D03*
Y12802D02*
D03*
Y-12598D02*
D03*
Y-37998D02*
D03*
Y-63398D02*
D03*
Y-88798D02*
D03*
Y-114198D02*
D03*
X-307899Y317602D02*
D03*
Y292202D02*
D03*
Y266802D02*
D03*
Y241402D02*
D03*
Y216002D02*
D03*
Y190602D02*
D03*
Y165202D02*
D03*
Y139802D02*
D03*
Y114402D02*
D03*
Y89002D02*
D03*
Y63602D02*
D03*
Y38202D02*
D03*
Y12802D02*
D03*
Y-12598D02*
D03*
Y-37998D02*
D03*
Y-63398D02*
D03*
Y-88798D02*
D03*
Y-114198D02*
D03*
Y-317398D02*
D03*
X-333299Y-291998D02*
D03*
X-307899D02*
D03*
X-333299Y-266598D02*
D03*
X-307899D02*
D03*
X-333299Y-241198D02*
D03*
X-307899D02*
D03*
X-333299Y-215798D02*
D03*
X-307899D02*
D03*
X-333299Y-190398D02*
D03*
X-307899D02*
D03*
X-333299Y-164998D02*
D03*
X-307899D02*
D03*
Y-139598D02*
D03*
X-333299D02*
D03*
X403302Y-342900D02*
D03*
X377902D02*
D03*
X352502D02*
D03*
X327102D02*
D03*
X301702D02*
D03*
X276302D02*
D03*
X250902D02*
D03*
X225502D02*
D03*
X200102D02*
D03*
X174702D02*
D03*
X149302D02*
D03*
X123902D02*
D03*
X98502D02*
D03*
X73102D02*
D03*
X47702D02*
D03*
X22302D02*
D03*
X-3098D02*
D03*
X-28498D02*
D03*
X403302Y-368300D02*
D03*
X377902D02*
D03*
X352502D02*
D03*
X327102D02*
D03*
X301702D02*
D03*
X276302D02*
D03*
X250902D02*
D03*
X225502D02*
D03*
X200102D02*
D03*
X174702D02*
D03*
X149302D02*
D03*
X123902D02*
D03*
X98502D02*
D03*
X73102D02*
D03*
X47702D02*
D03*
X22302D02*
D03*
X-3098D02*
D03*
X-28498D02*
D03*
X-231698D02*
D03*
X-206298Y-342900D02*
D03*
Y-368300D02*
D03*
X-180898Y-342900D02*
D03*
Y-368300D02*
D03*
X-155498Y-342900D02*
D03*
Y-368300D02*
D03*
X-130098Y-342900D02*
D03*
Y-368300D02*
D03*
X-104698Y-342900D02*
D03*
Y-368300D02*
D03*
X-79298Y-342900D02*
D03*
Y-368300D02*
D03*
X-53898D02*
D03*
Y-342900D02*
D03*
X403299Y368300D02*
D03*
X377899D02*
D03*
X352499D02*
D03*
X327099D02*
D03*
X301699D02*
D03*
X276299D02*
D03*
X250899D02*
D03*
X225499D02*
D03*
X200099D02*
D03*
X174699D02*
D03*
X149299D02*
D03*
X123899D02*
D03*
X98499D02*
D03*
X73099D02*
D03*
X47699D02*
D03*
X22299D02*
D03*
X-3101D02*
D03*
X-28501D02*
D03*
X403299Y342900D02*
D03*
X377899D02*
D03*
X352499D02*
D03*
X327099D02*
D03*
X301699D02*
D03*
X276299D02*
D03*
X250899D02*
D03*
X225499D02*
D03*
X200099D02*
D03*
X174699D02*
D03*
X149299D02*
D03*
X123899D02*
D03*
X98499D02*
D03*
X73099D02*
D03*
X47699D02*
D03*
X22299D02*
D03*
X-3101D02*
D03*
X-28501D02*
D03*
X-231701D02*
D03*
X-206301Y368300D02*
D03*
Y342900D02*
D03*
X-180901Y368300D02*
D03*
Y342900D02*
D03*
X-155501Y368300D02*
D03*
Y342900D02*
D03*
X-130101Y368300D02*
D03*
Y342900D02*
D03*
X-104701Y368300D02*
D03*
Y342900D02*
D03*
X-79301Y368300D02*
D03*
Y342900D02*
D03*
X-53901D02*
D03*
Y368300D02*
D03*
D22*
X-333299Y-317398D02*
D03*
D23*
X-231698Y-342900D02*
D03*
X-231701Y368300D02*
D03*
D42*
X525950Y63540D02*
D03*
Y49540D02*
D03*
X57500Y30502D02*
D03*
Y44502D02*
D03*
X292650Y-306696D02*
D03*
Y-292696D02*
D03*
X305650Y-219200D02*
D03*
Y-205200D02*
D03*
X382911Y63290D02*
D03*
Y49290D02*
D03*
X432661Y137262D02*
D03*
Y123263D02*
D03*
X445161Y99759D02*
D03*
Y85759D02*
D03*
X432661Y99759D02*
D03*
Y85759D02*
D03*
X457500Y99759D02*
D03*
Y85759D02*
D03*
X470161Y99759D02*
D03*
Y85759D02*
D03*
X470000Y123259D02*
D03*
Y137259D02*
D03*
X457500Y123259D02*
D03*
Y137259D02*
D03*
X445161Y123259D02*
D03*
Y137259D02*
D03*
X67667Y59502D02*
D03*
Y73502D02*
D03*
X81667Y59502D02*
D03*
Y73502D02*
D03*
X318650Y-205200D02*
D03*
Y-219200D02*
D03*
X344650Y-205200D02*
D03*
Y-219200D02*
D03*
X331650Y-205200D02*
D03*
Y-219200D02*
D03*
X357650Y-205200D02*
D03*
Y-219200D02*
D03*
X292650Y-205200D02*
D03*
Y-219200D02*
D03*
D43*
X526200Y33000D02*
D03*
X531200D02*
D03*
X536200D02*
D03*
X571200D02*
D03*
X566200D02*
D03*
X561200D02*
D03*
X556200D02*
D03*
X551200D02*
D03*
X546200D02*
D03*
X541200D02*
D03*
X342500Y23071D02*
D03*
X347500D02*
D03*
X352500D02*
D03*
X357500D02*
D03*
X362500D02*
D03*
X367500D02*
D03*
X372500D02*
D03*
X337500D02*
D03*
X332500D02*
D03*
X327500D02*
D03*
X-52262Y85478D02*
D03*
X-57262D02*
D03*
X-67262D02*
D03*
X-72262D02*
D03*
X-82261D02*
D03*
X-87261D02*
D03*
X-92261D02*
D03*
X-97261D02*
D03*
X-102261D02*
D03*
X-107261D02*
D03*
X-112261D02*
D03*
X-117261D02*
D03*
X-122261D02*
D03*
X-197262D02*
D03*
X-192262D02*
D03*
X-187262D02*
D03*
X-182262D02*
D03*
X-177262D02*
D03*
X-172262D02*
D03*
X-167262D02*
D03*
X-162262D02*
D03*
X-157262D02*
D03*
X-152261D02*
D03*
X-147262D02*
D03*
X-142261D02*
D03*
X-137261D02*
D03*
X-132261D02*
D03*
X-127261D02*
D03*
X-62262D02*
D03*
X-217262D02*
D03*
X-212262D02*
D03*
X-207262D02*
D03*
X-202262D02*
D03*
X-77262D02*
D03*
X-22262D02*
D03*
X-27262D02*
D03*
X-32262D02*
D03*
X-37262D02*
D03*
X-42262D02*
D03*
X-47262D02*
D03*
D44*
X593950Y14000D02*
D03*
X503450D02*
D03*
X304750Y4072D02*
D03*
X395250D02*
D03*
X488Y66477D02*
D03*
X-240012D02*
D03*
D45*
X81667Y17255D02*
D03*
Y44255D02*
D03*
D46*
X107667Y69503D02*
D03*
D47*
X98917Y77003D02*
D03*
Y72003D02*
D03*
Y67003D02*
D03*
Y62003D02*
D03*
X116417D02*
D03*
Y67003D02*
D03*
Y72003D02*
D03*
Y77003D02*
D03*
D48*
X164667Y101253D02*
D03*
Y37753D02*
D03*
D49*
X344050Y-297000D02*
D03*
X331350D02*
D03*
X318650D02*
D03*
X305950D02*
D03*
X344050Y-248000D02*
D03*
X331350D02*
D03*
X318650D02*
D03*
X305950D02*
D03*
M02*
