G04 Layer_Color=16711935*
%FSLAX44Y44*%
%MOMM*%
G71*
G01*
G75*
%ADD34C,2.9000*%
%ADD35C,6.1000*%
%ADD36R,1.0000X0.9000*%
%ADD37R,0.9000X1.0000*%
%ADD38R,1.2000X2.7000*%
G04:AMPARAMS|DCode=39|XSize=0.35mm|YSize=0.8mm|CornerRadius=0.1125mm|HoleSize=0mm|Usage=FLASHONLY|Rotation=180.000|XOffset=0mm|YOffset=0mm|HoleType=Round|Shape=RoundedRectangle|*
%AMROUNDEDRECTD39*
21,1,0.3500,0.5750,0,0,180.0*
21,1,0.1250,0.8000,0,0,180.0*
1,1,0.2250,-0.0625,0.2875*
1,1,0.2250,0.0625,0.2875*
1,1,0.2250,0.0625,-0.2875*
1,1,0.2250,-0.0625,-0.2875*
%
%ADD39ROUNDEDRECTD39*%
%ADD40R,2.2500X0.6600*%
%ADD41R,1.0500X7.4000*%
%ADD42O,2.6000X0.8000*%
%ADD43R,0.4000X1.3000*%
%ADD44R,1.1160X1.9034*%
%ADD45R,1.1000X1.9000*%
%ADD46R,1.9034X1.1160*%
%ADD47R,1.9000X1.1000*%
%ADD48R,2.8000X4.2000*%
G36*
X18369Y110656D02*
X18577Y110628D01*
X18660Y110614D01*
X18729Y110600D01*
X18771Y110586D01*
X18785D01*
X18896Y110559D01*
X18993Y110517D01*
X19215Y110392D01*
X19409Y110253D01*
X19603Y110101D01*
X19769Y109948D01*
X19894Y109824D01*
X19977Y109726D01*
X19991Y109713D01*
X20005Y109699D01*
X20227Y109421D01*
X20407Y109172D01*
X20546Y108936D01*
X20643Y108728D01*
X20698Y108575D01*
X20740Y108451D01*
X20768Y108367D01*
Y108354D01*
Y108340D01*
X20823Y108243D01*
X20837Y108159D01*
X20851Y108104D01*
Y108090D01*
Y108034D01*
X20837Y108021D01*
Y108007D01*
X20809Y107979D01*
X20796Y107951D01*
Y107937D01*
Y107924D01*
X20809Y107910D01*
X20837Y107882D01*
X20893Y107799D01*
X20934Y107716D01*
X20948Y107688D01*
Y107674D01*
X20962Y107646D01*
X20976Y107577D01*
X20990Y107480D01*
X21004Y107369D01*
X21017Y107272D01*
X21031Y107175D01*
X21045Y107119D01*
Y107092D01*
X21073Y106980D01*
X21101Y106897D01*
X21128Y106842D01*
X21156Y106800D01*
X21184Y106772D01*
X21212Y106759D01*
X21226D01*
X21420Y107078D01*
X21600Y107355D01*
X21766Y107605D01*
X21905Y107840D01*
X22044Y108034D01*
X22169Y108215D01*
X22266Y108367D01*
X22363Y108492D01*
X22446Y108603D01*
X22501Y108700D01*
X22557Y108770D01*
X22612Y108825D01*
X22640Y108867D01*
X22668Y108894D01*
X22682Y108922D01*
X22834Y109088D01*
X23001Y109241D01*
X23153Y109366D01*
X23306Y109477D01*
X23458Y109574D01*
X23611Y109643D01*
X23749Y109713D01*
X23874Y109754D01*
X24096Y109824D01*
X24193Y109851D01*
X24276Y109865D01*
X24346Y109879D01*
X24429D01*
X24554Y109865D01*
X24706Y109810D01*
X24873Y109726D01*
X25053Y109643D01*
X25206Y109546D01*
X25331Y109477D01*
X25386Y109435D01*
X25428Y109421D01*
X25442Y109394D01*
X25455D01*
X25580Y109172D01*
X25705Y108950D01*
X25802Y108742D01*
X25885Y108548D01*
X26010Y108187D01*
X26065Y108034D01*
X26093Y107896D01*
X26135Y107771D01*
X26149Y107646D01*
X26163Y107549D01*
X26177Y107480D01*
X26190Y107410D01*
Y107369D01*
Y107341D01*
Y107327D01*
Y107313D01*
X26204Y107272D01*
X26218Y107175D01*
X26232Y107092D01*
Y107064D01*
Y107050D01*
X26246Y106967D01*
X26260Y106911D01*
X26274Y106870D01*
X26287Y106842D01*
Y106800D01*
X26274Y106315D01*
X26246Y105816D01*
X26204Y105316D01*
X26135Y104803D01*
X26065Y104290D01*
X25982Y103791D01*
X25899Y103319D01*
X25816Y102862D01*
X25719Y102432D01*
X25636Y102043D01*
X25552Y101697D01*
X25483Y101392D01*
X25442Y101267D01*
X25414Y101142D01*
X25400Y101045D01*
X25372Y100962D01*
X25358Y100892D01*
X25344Y100851D01*
X25331Y100823D01*
Y100809D01*
X25317Y100629D01*
X25303Y100490D01*
X25289Y100435D01*
Y100393D01*
Y100379D01*
Y100365D01*
X25136Y99922D01*
X24998Y99519D01*
X24859Y99145D01*
X24734Y98798D01*
X24609Y98479D01*
X24485Y98188D01*
X24374Y97938D01*
X24276Y97703D01*
X24193Y97508D01*
X24110Y97342D01*
X24041Y97189D01*
X23985Y97079D01*
X23930Y96981D01*
X23902Y96926D01*
X23888Y96884D01*
X23874Y96870D01*
X23805Y96787D01*
X23722Y96732D01*
X23625Y96676D01*
X23528Y96649D01*
X23431Y96635D01*
X23347Y96621D01*
X23278D01*
X23139Y96635D01*
X23028Y96649D01*
X22931Y96690D01*
X22834Y96746D01*
X22696Y96870D01*
X22612Y97023D01*
X22557Y97162D01*
X22529Y97287D01*
X22515Y97342D01*
Y97384D01*
Y97397D01*
Y97411D01*
X22529Y97633D01*
X22543Y97730D01*
X22557Y97814D01*
Y97869D01*
X22571Y97924D01*
X22585Y97952D01*
Y97966D01*
X22446Y98035D01*
X22321Y98077D01*
X22266Y98091D01*
X22113D01*
X22044Y98077D01*
X21960Y98063D01*
X21766Y98049D01*
X21572Y98021D01*
X21364Y97994D01*
X21198Y97980D01*
X21128Y97966D01*
X21073Y97952D01*
X21031D01*
X20837Y97924D01*
X20657Y97897D01*
X20490Y97869D01*
X20352Y97855D01*
X20227Y97827D01*
X20102Y97814D01*
X20005Y97800D01*
X19922Y97786D01*
X19783Y97758D01*
X19700Y97744D01*
X19645Y97730D01*
X19631D01*
X19533Y97758D01*
X19464Y97772D01*
X19409D01*
X19034Y97716D01*
X18701Y97689D01*
X18424Y97661D01*
X18188Y97633D01*
X17994D01*
X17855Y97619D01*
X17717D01*
X17689Y97633D01*
X17578Y97647D01*
X17523D01*
X17467Y97661D01*
X17426D01*
X17328Y97675D01*
X17259Y97689D01*
X17204D01*
X17162Y97703D01*
X17106D01*
X16621Y97716D01*
X16413Y97730D01*
X16205Y97744D01*
X16011Y97758D01*
X15831Y97772D01*
X15664Y97800D01*
X15512Y97814D01*
X15387Y97841D01*
X15262Y97855D01*
X15165Y97869D01*
X15082Y97897D01*
X15012Y97911D01*
X14971D01*
X14943Y97924D01*
X14929D01*
X14804Y97938D01*
X14693Y97952D01*
X14596D01*
X14513Y97966D01*
X14222D01*
X14180Y97952D01*
X14166D01*
X14069Y98008D01*
X13972Y98077D01*
X13903Y98160D01*
X13848Y98243D01*
X13806Y98313D01*
X13778Y98382D01*
X13750Y98424D01*
Y98438D01*
X13736Y98493D01*
X13709Y98576D01*
X13681Y98687D01*
X13639Y98812D01*
X13612Y98937D01*
X13584Y99048D01*
X13570Y99117D01*
X13556Y99145D01*
X14291Y102529D01*
X14347Y102515D01*
X14388Y102501D01*
X14416D01*
X14485Y102515D01*
X14541Y102543D01*
X14583Y102584D01*
X14610Y102640D01*
X14638Y102723D01*
Y102751D01*
Y102765D01*
Y102792D01*
X14624Y102834D01*
X14610Y102862D01*
X14596Y102875D01*
X14583Y102931D01*
X14569Y102973D01*
Y102986D01*
X14583Y103000D01*
X14596Y103042D01*
X14666Y103125D01*
X14721Y103208D01*
X14735Y103236D01*
X14749Y103250D01*
X14693Y103292D01*
X14652Y103333D01*
X14596Y103458D01*
X14583Y103513D01*
X14569Y103555D01*
Y103583D01*
Y103597D01*
Y103610D01*
X14583Y103652D01*
X14624Y103749D01*
X14666Y103846D01*
X14680Y103874D01*
Y103888D01*
X14721Y103985D01*
X14749Y104054D01*
X14777Y104096D01*
X14791Y104137D01*
X14804Y104179D01*
Y104207D01*
X14791Y104249D01*
X14777Y104290D01*
Y104304D01*
X14763Y104359D01*
X14749Y104401D01*
Y104415D01*
X14763Y104526D01*
X14818Y104664D01*
X14888Y104817D01*
X14957Y104984D01*
X15040Y105122D01*
X15096Y105261D01*
X15151Y105344D01*
X15165Y105358D01*
Y105372D01*
X15220Y105316D01*
X15262Y105261D01*
X15304Y105205D01*
X15331Y105178D01*
X15387Y105330D01*
X15415Y105469D01*
X15429Y105552D01*
Y105566D01*
Y105580D01*
Y105663D01*
X15415Y105732D01*
X15387Y105829D01*
X15345Y105885D01*
X15331Y105899D01*
X15207Y105774D01*
Y106356D01*
X15276Y106398D01*
X15331Y106440D01*
X15373Y106481D01*
X15401Y106509D01*
X15429Y106565D01*
Y106578D01*
Y106592D01*
X15415Y106606D01*
X15401Y106620D01*
Y106634D01*
X15373Y106703D01*
Y106731D01*
X15387Y106759D01*
X15401Y106786D01*
X15456Y106870D01*
X15512Y106925D01*
X15539Y106953D01*
X15706Y107119D01*
X15637Y107216D01*
X15609Y107272D01*
X15595Y107313D01*
Y107327D01*
X15609Y107424D01*
X15650Y107549D01*
X15706Y107702D01*
X15775Y107868D01*
X15858Y108062D01*
X15955Y108256D01*
X16177Y108659D01*
X16274Y108853D01*
X16385Y109033D01*
X16482Y109213D01*
X16566Y109366D01*
X16635Y109491D01*
X16690Y109588D01*
X16732Y109643D01*
X16746Y109671D01*
X16912Y109796D01*
X17037Y109893D01*
X17093Y109921D01*
X17134Y109948D01*
X17148Y109962D01*
X17162D01*
X17328Y110170D01*
X17398Y110253D01*
X17453Y110323D01*
X17495Y110378D01*
X17523Y110420D01*
X17550Y110434D01*
Y110448D01*
X17675Y110517D01*
X17786Y110572D01*
X17883Y110614D01*
X17980Y110642D01*
X18050Y110656D01*
X18105Y110669D01*
X18147D01*
X18369Y110656D01*
D02*
G37*
G36*
X15595Y90089D02*
X15567Y90033D01*
X15539Y89992D01*
X15512Y89964D01*
X15456Y89936D01*
X15429D01*
X15470Y90006D01*
X15498Y90061D01*
X15525Y90103D01*
X15539Y90130D01*
X15567Y90158D01*
X15595D01*
Y90089D01*
D02*
G37*
G36*
X14929Y113818D02*
X15123Y113776D01*
X15304Y113707D01*
X15442Y113637D01*
X15553Y113568D01*
X15637Y113499D01*
X15692Y113457D01*
X15706Y113443D01*
Y113402D01*
Y113360D01*
X15720Y113235D01*
X15747Y113083D01*
X15761Y112916D01*
X15789Y112764D01*
X15803Y112639D01*
Y112583D01*
X15817Y112542D01*
Y112528D01*
Y112514D01*
X15803Y112431D01*
X15761Y112361D01*
X15706Y112292D01*
X15637Y112237D01*
X15567Y112181D01*
X15512Y112140D01*
X15470Y112126D01*
X15456Y112112D01*
X15359Y112056D01*
X15262Y112015D01*
X15193Y111987D01*
X15137Y111973D01*
X15054Y111945D01*
X15026D01*
X14915Y111959D01*
X14791Y111973D01*
X14680Y112001D01*
X14583Y112029D01*
X14485Y112056D01*
X14416Y112084D01*
X14375Y112112D01*
X14361D01*
X14347Y112126D01*
X14319Y112167D01*
X14263Y112250D01*
X14194Y112334D01*
X14180Y112348D01*
X14166Y112361D01*
X14111Y112431D01*
X14069Y112500D01*
X14028Y112583D01*
X14000Y112625D01*
Y112639D01*
X14014Y112819D01*
X14056Y113013D01*
X14111Y113194D01*
X14180Y113388D01*
X14236Y113540D01*
X14291Y113679D01*
X14333Y113762D01*
X14347Y113776D01*
Y113790D01*
X14471Y113818D01*
X14583Y113832D01*
X14693D01*
X14929Y113818D01*
D02*
G37*
G36*
X18521Y80367D02*
X18618Y80339D01*
X18715Y80284D01*
X18785Y80228D01*
X18854Y80173D01*
X18896Y80117D01*
X18923Y80090D01*
X18937Y80076D01*
X19020Y79965D01*
X19076Y79840D01*
X19131Y79729D01*
X19159Y79618D01*
X19173Y79521D01*
X19187Y79452D01*
Y79396D01*
Y79382D01*
X19173Y79271D01*
X19159Y79160D01*
X19131Y79077D01*
X19117Y79050D01*
Y79036D01*
X19062Y78925D01*
X19034Y78855D01*
X19020Y78814D01*
Y78800D01*
X18979D01*
X18909Y78786D01*
X18840Y78772D01*
X18826Y78758D01*
X18812D01*
X18743Y78745D01*
X18701Y78731D01*
X18632Y78717D01*
X18591D01*
X18466Y78731D01*
X18355Y78758D01*
X18230Y78814D01*
X18119Y78869D01*
X18036Y78925D01*
X17966Y78980D01*
X17911Y79008D01*
X17897Y79022D01*
X17772Y79133D01*
X17689Y79244D01*
X17620Y79341D01*
X17578Y79438D01*
X17550Y79507D01*
X17536Y79563D01*
Y79604D01*
Y79618D01*
X17550Y79757D01*
X17578Y79868D01*
X17620Y79979D01*
X17675Y80062D01*
X17814Y80201D01*
X17980Y80284D01*
X18147Y80339D01*
X18285Y80367D01*
X18341Y80381D01*
X18424D01*
X18521Y80367D01*
D02*
G37*
G36*
X16774Y92973D02*
X16815Y92918D01*
X16843Y92876D01*
X16857Y92863D01*
X16580Y92003D01*
X16510Y91795D01*
X16427Y91642D01*
X16330Y91517D01*
X16247Y91420D01*
X16177Y91365D01*
X16108Y91323D01*
X16066Y91295D01*
X16053D01*
X16136Y91545D01*
X16205Y91739D01*
X16274Y91906D01*
X16330Y92030D01*
X16372Y92128D01*
X16399Y92197D01*
X16427Y92225D01*
Y92238D01*
X16441Y92141D01*
X16455Y92072D01*
X16469Y92044D01*
Y92030D01*
X16482Y92058D01*
X16496Y92114D01*
X16510Y92238D01*
Y92294D01*
Y92349D01*
Y92391D01*
Y92405D01*
Y92433D01*
X16524Y92474D01*
X16580Y92585D01*
X16621Y92682D01*
X16635Y92710D01*
Y92724D01*
X16677Y92821D01*
X16704Y92904D01*
X16732Y92960D01*
X16746Y92987D01*
X16760Y93015D01*
Y93029D01*
X16774Y92973D01*
D02*
G37*
G36*
X16053Y90727D02*
X15817D01*
X15858Y90852D01*
X15900Y90949D01*
X15928Y91004D01*
X15955Y91060D01*
X15969Y91087D01*
X15983Y91101D01*
X15997D01*
X16053Y90727D01*
D02*
G37*
G36*
X21350Y97203D02*
X21447Y97189D01*
X21572Y97162D01*
X21683Y97120D01*
X21808Y97079D01*
X21891Y97051D01*
X21960Y97037D01*
X21988Y97023D01*
X22141Y96967D01*
X22266Y96912D01*
X22363Y96870D01*
X22446Y96829D01*
X22515Y96801D01*
X22557Y96773D01*
X22585Y96760D01*
X22598D01*
X22751Y96690D01*
X22917Y96593D01*
X23070Y96468D01*
X23222Y96343D01*
X23514Y96066D01*
X23777Y95775D01*
X23999Y95498D01*
X24096Y95387D01*
X24166Y95276D01*
X24235Y95178D01*
X24276Y95109D01*
X24304Y95068D01*
X24318Y95054D01*
X24471Y94818D01*
X24595Y94582D01*
X24831Y94124D01*
X25011Y93722D01*
X25081Y93528D01*
X25150Y93362D01*
X25192Y93195D01*
X25233Y93057D01*
X25275Y92932D01*
X25303Y92821D01*
X25317Y92738D01*
X25331Y92682D01*
X25344Y92641D01*
Y92627D01*
X25414Y92197D01*
X25442Y91989D01*
X25469Y91809D01*
X25483Y91642D01*
Y91531D01*
X25497Y91448D01*
Y91434D01*
Y91420D01*
X25511Y91379D01*
X25525Y91309D01*
X25538Y91226D01*
X25552Y91143D01*
X25580Y91060D01*
X25594Y90990D01*
X25608Y90935D01*
Y90921D01*
X25649Y90782D01*
X25677Y90671D01*
X25691Y90602D01*
X25705Y90547D01*
X25719Y90519D01*
Y90505D01*
Y90491D01*
Y85485D01*
Y85346D01*
X25705Y85179D01*
X25649Y84819D01*
X25580Y84444D01*
X25511Y84070D01*
X25469Y83890D01*
X25428Y83723D01*
X25386Y83571D01*
X25358Y83446D01*
X25331Y83335D01*
X25303Y83252D01*
X25289Y83196D01*
Y83182D01*
X25233Y82974D01*
X25178Y82794D01*
X25122Y82628D01*
X25081Y82475D01*
X25039Y82350D01*
X24998Y82225D01*
X24970Y82128D01*
X24942Y82059D01*
X24901Y81934D01*
X24873Y81851D01*
X24845Y81809D01*
Y81796D01*
X24720Y81601D01*
X24609Y81463D01*
X24485Y81366D01*
X24388Y81296D01*
X24290Y81255D01*
X24221Y81241D01*
X24179Y81227D01*
X24166D01*
X24124Y81241D01*
X24069Y81269D01*
X23944Y81352D01*
X23888Y81393D01*
X23847Y81435D01*
X23819Y81463D01*
X23805Y81476D01*
X23694Y81574D01*
X23625Y81671D01*
X23569Y81754D01*
X23528Y81823D01*
X23500Y81879D01*
X23486Y81920D01*
Y81934D01*
Y81948D01*
X23833Y83474D01*
X23888Y83737D01*
X23944Y83973D01*
X23985Y84181D01*
X24027Y84347D01*
X24055Y84500D01*
X24082Y84625D01*
X24110Y84722D01*
X24124Y84805D01*
X24138Y84874D01*
X24152Y84930D01*
X24166Y84985D01*
Y85013D01*
X24138Y85138D01*
X24096Y85249D01*
X24055Y85332D01*
X24027Y85346D01*
Y85360D01*
X23971Y85263D01*
X23944Y85179D01*
X23916Y85124D01*
Y85110D01*
X23736Y85069D01*
X23569Y85027D01*
X23431Y84985D01*
X23306Y84958D01*
X23209Y84930D01*
X23112Y84916D01*
X23042Y84888D01*
X22987Y84874D01*
X22903Y84860D01*
X22862Y84847D01*
X22834D01*
X22765Y84833D01*
X22709Y84819D01*
X22668D01*
X22598Y84833D01*
X22543Y84847D01*
X22501Y84860D01*
X22487D01*
X22390Y84805D01*
X22321Y84763D01*
X22266Y84749D01*
X22141D01*
X22016Y84736D01*
X21877Y84722D01*
X21725D01*
X21378Y84680D01*
X21031Y84652D01*
X20712Y84625D01*
X20560Y84611D01*
X20435Y84597D01*
X20338Y84583D01*
X20255D01*
X20199Y84569D01*
X20185D01*
X19963Y84542D01*
X19769Y84528D01*
X19603Y84500D01*
X19450Y84486D01*
X19325Y84472D01*
X19215Y84458D01*
X19131Y84444D01*
X19062D01*
X19007Y84431D01*
X18951D01*
X18896Y84417D01*
X18743D01*
X18591Y84431D01*
X18396Y84444D01*
X18161Y84472D01*
X17897Y84500D01*
X17620Y84528D01*
X17051Y84597D01*
X16760Y84625D01*
X16496Y84652D01*
X16247Y84680D01*
X16025Y84708D01*
X15831Y84736D01*
X15692Y84749D01*
X15637D01*
X15595Y84763D01*
X15567D01*
X15512Y84639D01*
X15470Y84500D01*
X15429Y84347D01*
X15401Y84209D01*
X15373Y84098D01*
X15345Y83987D01*
X15331Y83931D01*
Y83904D01*
X15304Y83751D01*
X15276Y83584D01*
X15248Y83404D01*
X15234Y83238D01*
X15207Y83085D01*
X15193Y82961D01*
X15179Y82877D01*
Y82863D01*
Y82850D01*
X15123Y82739D01*
X15096Y82655D01*
X15082Y82586D01*
Y82572D01*
X15096Y82517D01*
X15109Y82503D01*
Y82489D01*
X15137Y82434D01*
Y82406D01*
X15082Y82295D01*
X15040Y82198D01*
X14943Y82031D01*
X14846Y81920D01*
X14749Y81851D01*
X14680Y81796D01*
X14624Y81782D01*
X14583Y81768D01*
X14569D01*
X14361Y81796D01*
X14291Y81809D01*
X14222Y81837D01*
X14166Y81865D01*
X14125Y81879D01*
X14111Y81906D01*
X14097D01*
X14042Y81962D01*
X13972Y82045D01*
X13861Y82212D01*
X13820Y82295D01*
X13778Y82364D01*
X13764Y82406D01*
X13750Y82420D01*
X13681Y82558D01*
X13639Y82669D01*
X13598Y82766D01*
X13584Y82836D01*
X13570Y82891D01*
X13556Y82947D01*
Y82961D01*
Y82974D01*
X13570Y83182D01*
X13584Y83418D01*
X13612Y83668D01*
X13653Y83945D01*
X13750Y84500D01*
X13875Y85041D01*
X13931Y85304D01*
X13986Y85540D01*
X14042Y85748D01*
X14083Y85942D01*
X14125Y86095D01*
X14153Y86220D01*
X14180Y86289D01*
Y86317D01*
X14263Y86580D01*
X14347Y86844D01*
X14430Y87093D01*
X14499Y87315D01*
X14569Y87509D01*
X14624Y87648D01*
X14638Y87704D01*
X14652Y87745D01*
X14666Y87759D01*
Y87773D01*
X14680Y87870D01*
Y87953D01*
X14693Y88078D01*
Y88147D01*
Y88175D01*
X14860Y88563D01*
X14999Y88910D01*
X15123Y89187D01*
X15220Y89423D01*
X15304Y89603D01*
X15359Y89742D01*
X15387Y89811D01*
X15401Y89839D01*
X15429Y89756D01*
X15442Y89673D01*
Y89617D01*
Y89603D01*
Y89562D01*
X15429Y89506D01*
X15415Y89437D01*
X15387Y89354D01*
X15373Y89271D01*
X15345Y89215D01*
X15331Y89160D01*
Y89146D01*
X15290Y89007D01*
X15248Y88910D01*
X15220Y88827D01*
X15207Y88771D01*
Y88744D01*
X15193Y88716D01*
Y88702D01*
X15207Y88619D01*
X15248Y88536D01*
X15276Y88480D01*
X15290Y88466D01*
X15359Y88536D01*
X15429Y88605D01*
X15553Y88785D01*
X15664Y88993D01*
X15775Y89201D01*
X15858Y89395D01*
X15914Y89548D01*
X15942Y89617D01*
X15955Y89659D01*
X15969Y89687D01*
Y89700D01*
X16524Y91365D01*
X16580Y91448D01*
X16621Y91503D01*
X16635Y91531D01*
Y91545D01*
X16621Y91587D01*
X16607Y91614D01*
X16580Y91670D01*
Y91684D01*
X17897Y94166D01*
Y94222D01*
X17883Y94263D01*
X17869Y94291D01*
X17689D01*
X17634Y94208D01*
X17592Y94152D01*
X17578Y94111D01*
Y94097D01*
X17509Y94152D01*
X17467Y94180D01*
X17439Y94208D01*
X17426D01*
X17453Y94305D01*
X17509Y94402D01*
X17578Y94499D01*
X17661Y94582D01*
X17744Y94638D01*
X17814Y94693D01*
X17869Y94721D01*
X17883Y94735D01*
X17855Y94693D01*
X17842Y94638D01*
X17828Y94582D01*
Y94568D01*
X17842Y94485D01*
X17869Y94430D01*
X17897Y94388D01*
X17911Y94374D01*
X18050Y94527D01*
X18161Y94651D01*
X18258Y94749D01*
X18327Y94846D01*
X18382Y94915D01*
X18438Y94957D01*
X18452Y94984D01*
X18466Y94998D01*
Y95178D01*
X18396Y95234D01*
X18341Y95262D01*
X18258Y95331D01*
X18230Y95359D01*
X18216Y95373D01*
X18230D01*
X18327Y95470D01*
X18396Y95553D01*
X18452Y95608D01*
X18507Y95636D01*
X18535Y95664D01*
X18549Y95678D01*
X18563D01*
X18604Y95595D01*
X18632Y95539D01*
X18660Y95498D01*
Y95484D01*
X18785Y95650D01*
X18882Y95789D01*
X18923Y95844D01*
X18951Y95886D01*
X18965Y95900D01*
Y95913D01*
X18896Y95997D01*
X18840Y96038D01*
X18812Y96052D01*
X18799D01*
X18840Y96066D01*
X18896Y96122D01*
X18923Y96163D01*
X18937Y96177D01*
X19034Y96371D01*
X19131Y96482D01*
X19228Y96579D01*
X19409Y96718D01*
X19589Y96829D01*
X19741Y96912D01*
X19866Y96954D01*
X19977Y96967D01*
X20033Y96981D01*
X20061D01*
X20116Y96967D01*
X20144Y96954D01*
X20213Y97023D01*
X20268Y97079D01*
X20296Y97092D01*
X20310Y97106D01*
X20490Y97120D01*
X20643Y97134D01*
X20782Y97148D01*
X20893Y97162D01*
X20990Y97176D01*
X21073Y97189D01*
X21142D01*
X21198Y97203D01*
X21267D01*
X21298Y97214D01*
X21350Y97203D01*
D02*
G37*
G36*
X17132Y93609D02*
X17093Y93570D01*
X17065Y93500D01*
X17023Y93431D01*
X16996Y93362D01*
X16968Y93292D01*
X16954Y93251D01*
X16940Y93237D01*
Y93528D01*
X16954Y93500D01*
X16968Y93487D01*
X16982Y93473D01*
X17051Y93556D01*
X17079Y93597D01*
X17093Y93625D01*
Y93639D01*
X17132Y93609D01*
D02*
G37*
G36*
X18521Y114317D02*
X18618Y114289D01*
X18715Y114234D01*
X18785Y114178D01*
X18854Y114123D01*
X18896Y114067D01*
X18923Y114039D01*
X18937Y114026D01*
X19020Y113915D01*
X19076Y113790D01*
X19131Y113679D01*
X19159Y113568D01*
X19173Y113471D01*
X19187Y113402D01*
Y113346D01*
Y113332D01*
X19173Y113221D01*
X19159Y113110D01*
X19131Y113027D01*
X19117Y112999D01*
Y112986D01*
X19062Y112875D01*
X19034Y112805D01*
X19020Y112764D01*
Y112750D01*
X18979D01*
X18909Y112736D01*
X18840Y112722D01*
X18826Y112708D01*
X18812D01*
X18743Y112694D01*
X18701Y112680D01*
X18632Y112667D01*
X18591D01*
X18466Y112680D01*
X18355Y112708D01*
X18230Y112764D01*
X18119Y112819D01*
X18036Y112875D01*
X17966Y112930D01*
X17911Y112958D01*
X17897Y112972D01*
X17772Y113083D01*
X17689Y113194D01*
X17620Y113291D01*
X17578Y113388D01*
X17550Y113457D01*
X17536Y113512D01*
Y113554D01*
Y113568D01*
X17550Y113707D01*
X17578Y113818D01*
X17620Y113929D01*
X17675Y114012D01*
X17814Y114150D01*
X17980Y114234D01*
X18147Y114289D01*
X18285Y114317D01*
X18341Y114331D01*
X18424D01*
X18521Y114317D01*
D02*
G37*
G36*
X17606Y143968D02*
X17675D01*
X17744Y143954D01*
X17800Y143940D01*
X17842D01*
X17855Y143926D01*
X17869D01*
X18063Y143773D01*
X18244Y143635D01*
X18396Y143496D01*
X18535Y143371D01*
X18646Y143274D01*
X18715Y143191D01*
X18771Y143135D01*
X18785Y143122D01*
X18951Y142900D01*
X19062Y142650D01*
X19145Y142387D01*
X19215Y142137D01*
X19242Y141901D01*
X19256Y141804D01*
Y141721D01*
X19270Y141638D01*
Y141582D01*
Y141554D01*
Y141541D01*
X19242Y140958D01*
X19187Y140431D01*
X19076Y139946D01*
X18951Y139502D01*
X18785Y139114D01*
X18618Y138767D01*
X18424Y138462D01*
X18230Y138184D01*
X18036Y137949D01*
X17842Y137754D01*
X17675Y137602D01*
X17509Y137477D01*
X17384Y137380D01*
X17273Y137311D01*
X17218Y137269D01*
X17190Y137255D01*
X17079Y137200D01*
X16940Y137172D01*
X16649Y137117D01*
X16524D01*
X16413Y137103D01*
X16316D01*
X16136Y137130D01*
X15942Y137186D01*
X15761Y137255D01*
X15595Y137352D01*
X15456Y137436D01*
X15345Y137519D01*
X15276Y137574D01*
X15248Y137588D01*
X15040Y137782D01*
X14874Y137976D01*
X14735Y138157D01*
X14624Y138337D01*
X14541Y138476D01*
X14485Y138601D01*
X14458Y138670D01*
X14444Y138698D01*
X14361Y138864D01*
X14277Y139003D01*
X14222Y139114D01*
X14180Y139197D01*
X14153Y139252D01*
X14139Y139280D01*
X14125Y139308D01*
X14042Y139502D01*
X13986Y139655D01*
X13944Y139793D01*
X13917Y139890D01*
X13903Y139973D01*
X13889Y140029D01*
Y140057D01*
Y140070D01*
X13834Y140819D01*
Y140944D01*
X13820Y141055D01*
X13806Y141222D01*
Y141346D01*
X13792Y141444D01*
Y141499D01*
Y141527D01*
Y141554D01*
X13806Y141610D01*
X13820Y141693D01*
Y141790D01*
X13834Y141873D01*
X13848Y141957D01*
Y142012D01*
Y142040D01*
X13931Y142123D01*
X14000Y142192D01*
X14042Y142248D01*
X14083Y142289D01*
X14111Y142317D01*
X14125Y142331D01*
X14222Y142511D01*
X14305Y142650D01*
X14361Y142747D01*
X14416Y142803D01*
X14444Y142844D01*
X14471Y142858D01*
X14485Y142872D01*
X14541Y142858D01*
X14596Y142830D01*
X14652Y142789D01*
X14693Y142733D01*
X14777Y142595D01*
X14832Y142428D01*
X14874Y142262D01*
X14901Y142123D01*
X14915Y142068D01*
X14929Y142026D01*
Y141998D01*
Y141984D01*
X14943Y141804D01*
X14971Y141624D01*
X14985Y141471D01*
X14999Y141333D01*
Y141208D01*
X15012Y141124D01*
Y141069D01*
Y141055D01*
X15082Y140792D01*
X15165Y140556D01*
X15220Y140362D01*
X15290Y140195D01*
X15345Y140043D01*
X15387Y139918D01*
X15429Y139821D01*
X15470Y139752D01*
X15512Y139682D01*
X15539Y139641D01*
X15581Y139585D01*
X15609Y139557D01*
X15623D01*
X15650Y139585D01*
X15678Y139613D01*
X15720Y139655D01*
X15734Y139668D01*
Y139779D01*
X15720Y139862D01*
X15706Y139932D01*
Y139973D01*
X15692Y140015D01*
X15678Y140043D01*
X15664Y140057D01*
X15692Y140168D01*
X15706Y140279D01*
X15747Y140445D01*
X15775Y140556D01*
X15789Y140639D01*
X15803Y140695D01*
X15817Y140709D01*
X15997Y141984D01*
X16025Y142220D01*
X16053Y142428D01*
X16080Y142622D01*
X16094Y142789D01*
X16108Y142941D01*
X16122Y143080D01*
X16136Y143205D01*
X16150Y143302D01*
Y143399D01*
Y143468D01*
X16164Y143579D01*
Y143649D01*
Y143663D01*
X16233Y143746D01*
X16344Y143815D01*
X16482Y143870D01*
X16621Y143912D01*
X16760Y143940D01*
X16871Y143954D01*
X16954Y143968D01*
X16982D01*
X17148Y143981D01*
X17398D01*
X17606Y143968D01*
D02*
G37*
G36*
X16524Y166975D02*
X16593Y166947D01*
X16774Y166864D01*
X16857Y166823D01*
X16926Y166781D01*
X16968Y166753D01*
X16982Y166740D01*
X17120Y166656D01*
X17245Y166587D01*
X17342Y166518D01*
X17412Y166476D01*
X17467Y166434D01*
X17495Y166407D01*
X17523Y166393D01*
X17814Y166268D01*
X18105Y166157D01*
X18355Y166046D01*
X18604Y165963D01*
X18840Y165880D01*
X19048Y165796D01*
X19228Y165741D01*
X19409Y165686D01*
X19561Y165630D01*
X19700Y165588D01*
X19811Y165561D01*
X19908Y165533D01*
X19977Y165519D01*
X20033Y165505D01*
X20061Y165491D01*
X20074D01*
X20518Y165394D01*
X20962Y165311D01*
X21406Y165228D01*
X21808Y165145D01*
X21988Y165117D01*
X22155Y165089D01*
X22307Y165061D01*
X22432Y165047D01*
X22543Y165034D01*
X22612Y165020D01*
X22668Y165006D01*
X22682D01*
X22973Y164923D01*
X23264Y164839D01*
X23528Y164756D01*
X23763Y164687D01*
X23958Y164632D01*
X24110Y164576D01*
X24166Y164562D01*
X24207Y164548D01*
X24221Y164534D01*
X24235D01*
X24429Y164465D01*
X24595Y164410D01*
X24748Y164368D01*
X24873Y164326D01*
X24984Y164285D01*
X25081Y164257D01*
X25150Y164243D01*
X25206Y164215D01*
X25289Y164188D01*
X25331Y164174D01*
X25344D01*
X25538Y164104D01*
X25705Y164035D01*
X25858Y163952D01*
X25982Y163869D01*
X26079Y163785D01*
X26177Y163702D01*
X26246Y163619D01*
X26301Y163550D01*
X26384Y163411D01*
X26426Y163286D01*
X26440Y163217D01*
Y163203D01*
X26426Y163189D01*
Y163175D01*
X26398Y163106D01*
X26371Y163037D01*
X26357Y163023D01*
Y163009D01*
X25677Y162510D01*
X25538Y162482D01*
X25428Y162468D01*
X25344D01*
X23763Y161525D01*
X23611Y161483D01*
X23486Y161456D01*
X23417Y161428D01*
X23389D01*
X23001Y161178D01*
X22626Y160942D01*
X22280Y160721D01*
X21947Y160513D01*
X21655Y160332D01*
X21378Y160152D01*
X21128Y159999D01*
X20907Y159861D01*
X20698Y159736D01*
X20518Y159625D01*
X20380Y159542D01*
X20255Y159472D01*
X20158Y159403D01*
X20088Y159361D01*
X20047Y159348D01*
X20033Y159334D01*
X19922Y159237D01*
X19811Y159140D01*
X19728Y159056D01*
X19672Y159001D01*
X19617Y158945D01*
X19575Y158904D01*
X19561Y158890D01*
X19547Y158876D01*
X19381Y158779D01*
X19242Y158696D01*
X19117Y158613D01*
X19007Y158557D01*
X18909Y158502D01*
X18840Y158446D01*
X18715Y158377D01*
X18646Y158335D01*
X18604Y158308D01*
X18591Y158294D01*
X18507Y158224D01*
X18438Y158127D01*
X18369Y158030D01*
X18299Y157919D01*
X18244Y157808D01*
X18202Y157725D01*
X18174Y157669D01*
X18161Y157642D01*
X18063Y157448D01*
X17994Y157267D01*
X17953Y157198D01*
X17939Y157142D01*
X17911Y157115D01*
Y157101D01*
X17869Y157045D01*
X17814Y157018D01*
X17717Y156962D01*
X17634Y156948D01*
X17592D01*
X17523Y156962D01*
X17481D01*
X17315Y156990D01*
X17204Y157018D01*
X17120Y157032D01*
X17051Y157045D01*
X17023Y157059D01*
X17010Y157073D01*
X16968D01*
X16954Y157059D01*
X16801Y156976D01*
X16649Y156879D01*
X16510Y156782D01*
X16372Y156699D01*
X16261Y156615D01*
X16177Y156546D01*
X16122Y156505D01*
X16108Y156491D01*
X15900Y156310D01*
X15720Y156144D01*
X15637Y156075D01*
X15581Y156019D01*
X15553Y155991D01*
X15539Y155978D01*
X15484Y155950D01*
X15401Y155936D01*
X15207Y155908D01*
X15109Y155894D01*
X14957D01*
X14846Y155908D01*
X14749Y155936D01*
X14666Y155978D01*
X14583Y156033D01*
X14527Y156088D01*
X14485Y156130D01*
X14458Y156158D01*
X14444Y156172D01*
X14333Y156352D01*
X14222Y156505D01*
X14180Y156574D01*
X14153Y156629D01*
X14139Y156657D01*
X14125Y156671D01*
X14291Y156865D01*
X14444Y157032D01*
X14555Y157170D01*
X14666Y157295D01*
X14749Y157392D01*
X14804Y157462D01*
X14832Y157503D01*
X14846Y157517D01*
X15054Y157642D01*
X15123Y157683D01*
X15193Y157725D01*
X15248Y157753D01*
X15290Y157767D01*
X15304Y157781D01*
X15317D01*
X15470Y157822D01*
X15595Y157850D01*
X15664Y157878D01*
X15692D01*
X15845Y157989D01*
X15969Y158099D01*
X16080Y158183D01*
X16164Y158266D01*
X16233Y158321D01*
X16288Y158363D01*
X16316Y158391D01*
X16330Y158405D01*
X16510Y158502D01*
X16663Y158585D01*
X16801Y158682D01*
X16926Y158779D01*
X17023Y158876D01*
X17106Y158959D01*
X17176Y159043D01*
X17231Y159126D01*
X17315Y159278D01*
X17356Y159389D01*
X17384Y159459D01*
Y159486D01*
X17273Y159625D01*
X17342Y159722D01*
X17370Y159791D01*
X17384Y159847D01*
Y159875D01*
Y160110D01*
X17370Y160360D01*
X17328Y160873D01*
X17259Y161414D01*
X17218Y161677D01*
X17190Y161927D01*
X17148Y162163D01*
X17106Y162385D01*
X17079Y162579D01*
X17051Y162745D01*
X17023Y162884D01*
X16996Y162995D01*
X16982Y163050D01*
Y163078D01*
X16912Y163397D01*
X16829Y163716D01*
X16746Y164007D01*
X16663Y164257D01*
X16580Y164479D01*
X16538Y164562D01*
X16510Y164645D01*
X16496Y164701D01*
X16469Y164742D01*
X16455Y164770D01*
Y164784D01*
X16427Y164839D01*
X16399Y164909D01*
X16288Y165089D01*
X16233Y165172D01*
X16177Y165242D01*
X16150Y165297D01*
X16136Y165311D01*
X16053Y165436D01*
X15997Y165533D01*
X15942Y165616D01*
X15914Y165672D01*
X15900Y165699D01*
X15886Y165727D01*
Y165741D01*
Y166310D01*
Y166434D01*
X15914Y166531D01*
X15942Y166628D01*
X15969Y166698D01*
X16066Y166823D01*
X16177Y166906D01*
X16274Y166947D01*
X16372Y166975D01*
X16427Y166989D01*
X16455D01*
X16524Y166975D01*
D02*
G37*
G36*
X14693Y155256D02*
X14749Y155229D01*
X14818Y155201D01*
X14901Y155187D01*
X14971D01*
X15040Y155173D01*
X15096D01*
X15193Y155146D01*
X15304Y155090D01*
X15442Y154993D01*
X15581Y154896D01*
X15720Y154799D01*
X15831Y154702D01*
X15900Y154646D01*
X15928Y154619D01*
Y154050D01*
X15664Y153870D01*
X15429Y153731D01*
X15234Y153648D01*
X15068Y153578D01*
X14929Y153537D01*
X14846Y153523D01*
X14777Y153509D01*
X14763D01*
X14652Y153523D01*
X14569Y153551D01*
X14485Y153592D01*
X14416Y153662D01*
X14305Y153800D01*
X14236Y153981D01*
X14180Y154147D01*
X14166Y154299D01*
X14153Y154355D01*
Y154397D01*
Y154424D01*
Y154438D01*
X14180Y154632D01*
X14236Y154799D01*
X14319Y154937D01*
X14416Y155062D01*
X14499Y155159D01*
X14583Y155243D01*
X14638Y155284D01*
X14666Y155298D01*
X14693Y155256D01*
D02*
G37*
G36*
X18493Y152691D02*
X18577Y152663D01*
X18729Y152566D01*
X18785Y152510D01*
X18826Y152455D01*
X18854Y152427D01*
X18868Y152413D01*
X18757Y152039D01*
X18646Y151692D01*
X18549Y151387D01*
X18452Y151138D01*
X18382Y150943D01*
X18355Y150860D01*
X18327Y150791D01*
X18299Y150735D01*
X18285Y150694D01*
X18271Y150680D01*
Y150666D01*
X18161Y150513D01*
X18063Y150389D01*
X17994Y150292D01*
X17925Y150208D01*
X17869Y150139D01*
X17828Y150097D01*
X17814Y150084D01*
X17800Y150070D01*
X17620Y149792D01*
X17481Y149543D01*
X17342Y149335D01*
X17245Y149154D01*
X17162Y149002D01*
X17106Y148905D01*
X17079Y148849D01*
X17065Y148821D01*
X16996Y148738D01*
X16926Y148641D01*
X16843Y148516D01*
X16760Y148392D01*
X16690Y148281D01*
X16635Y148183D01*
X16593Y148114D01*
X16580Y148087D01*
X16469Y147892D01*
X16385Y147740D01*
X16330Y147629D01*
X16288Y147532D01*
X16261Y147476D01*
X16247Y147435D01*
Y147407D01*
X16261Y147379D01*
X16302Y147338D01*
X16385Y147268D01*
X16469Y147199D01*
X16580Y147116D01*
X16704Y147032D01*
X16968Y146838D01*
X17218Y146658D01*
X17342Y146575D01*
X17453Y146505D01*
X17550Y146436D01*
X17620Y146395D01*
X17661Y146367D01*
X17675Y146353D01*
X17925Y146187D01*
X18147Y146034D01*
X18341Y145909D01*
X18507Y145784D01*
X18646Y145687D01*
X18757Y145604D01*
X18854Y145535D01*
X18923Y145479D01*
X18979Y145438D01*
X19034Y145396D01*
X19076Y145354D01*
X19104Y145327D01*
X19090Y145271D01*
X19062Y145216D01*
X19020Y145160D01*
X18965Y145105D01*
X18826Y144994D01*
X18674Y144897D01*
X18507Y144813D01*
X18369Y144744D01*
X18313Y144716D01*
X18271Y144703D01*
X18244Y144689D01*
X18230D01*
X18147Y144703D01*
X18063Y144744D01*
X18008Y144786D01*
X17980Y144800D01*
X17911Y144855D01*
X17855Y144897D01*
X17828Y144911D01*
X17814Y144924D01*
X17315Y145133D01*
X16801Y145382D01*
X16302Y145618D01*
X16066Y145743D01*
X15831Y145868D01*
X15623Y145978D01*
X15429Y146089D01*
X15262Y146173D01*
X15109Y146256D01*
X14999Y146325D01*
X14901Y146381D01*
X14846Y146408D01*
X14832Y146422D01*
X14791Y146464D01*
X14735Y146533D01*
X14666Y146603D01*
X14610Y146686D01*
X14555Y146769D01*
X14499Y146838D01*
X14471Y146894D01*
X14458Y146908D01*
X14361Y147046D01*
X14291Y147171D01*
X14250Y147254D01*
X14222Y147324D01*
X14194Y147379D01*
X14180Y147407D01*
Y147435D01*
X14194Y147462D01*
X14208Y147518D01*
X14250Y147587D01*
X14305Y147670D01*
X14361Y147781D01*
X14430Y147892D01*
X14610Y148156D01*
X14818Y148461D01*
X15054Y148780D01*
X15304Y149141D01*
X15567Y149487D01*
X15817Y149848D01*
X16066Y150181D01*
X16302Y150500D01*
X16510Y150777D01*
X16690Y151013D01*
X16760Y151124D01*
X16815Y151207D01*
X16871Y151262D01*
X16912Y151318D01*
X16926Y151346D01*
X16940Y151359D01*
X17023Y151373D01*
X17093Y151387D01*
X17162D01*
X17287Y151554D01*
X17412Y151720D01*
X17523Y151859D01*
X17606Y151983D01*
X17689Y152081D01*
X17758Y152178D01*
X17869Y152330D01*
X17953Y152427D01*
X18008Y152497D01*
X18022Y152524D01*
X18036Y152538D01*
X18105Y152594D01*
X18174Y152635D01*
X18299Y152691D01*
X18382Y152705D01*
X18410D01*
X18493Y152691D01*
D02*
G37*
G36*
X22127Y137380D02*
X22182Y137366D01*
X22238D01*
X22266Y137352D01*
X22280D01*
X22376Y137338D01*
X22446Y137325D01*
X22515D01*
X22543Y137311D01*
X22612D01*
X22640Y137297D01*
X22709Y137255D01*
X22793Y137214D01*
X22806Y137200D01*
X22820D01*
X22890Y137172D01*
X22945Y137144D01*
X22987Y137130D01*
X23015Y137117D01*
X23042Y137103D01*
X23167Y137061D01*
X23278Y137020D01*
X23528Y136867D01*
X23763Y136700D01*
X23971Y136506D01*
X24152Y136326D01*
X24290Y136187D01*
X24346Y136118D01*
X24388Y136076D01*
X24401Y136049D01*
X24415Y136035D01*
X24554Y135868D01*
X24665Y135702D01*
X24762Y135549D01*
X24845Y135411D01*
X24984Y135133D01*
X25067Y134911D01*
X25122Y134717D01*
X25150Y134579D01*
X25164Y134523D01*
Y134482D01*
Y134468D01*
Y134454D01*
X25220Y134315D01*
X25261Y134218D01*
X25289Y134163D01*
X25303Y134149D01*
X25344Y133663D01*
X25386Y133178D01*
X25414Y132720D01*
Y132498D01*
X25428Y132304D01*
Y132110D01*
X25442Y131944D01*
Y131805D01*
Y131666D01*
Y131569D01*
Y131500D01*
Y131444D01*
Y131431D01*
Y131292D01*
X25428Y131139D01*
X25414Y130973D01*
X25386Y130779D01*
X25331Y130377D01*
X25275Y129974D01*
X25247Y129780D01*
X25220Y129600D01*
X25192Y129433D01*
X25164Y129295D01*
X25136Y129170D01*
X25122Y129087D01*
X25109Y129017D01*
Y129004D01*
X25053Y128698D01*
X24998Y128421D01*
X24942Y128185D01*
X24901Y127991D01*
X24859Y127811D01*
X24831Y127658D01*
X24790Y127534D01*
X24776Y127436D01*
X24748Y127353D01*
X24734Y127284D01*
X24720Y127242D01*
X24706Y127201D01*
X24693Y127173D01*
Y127159D01*
X24568Y126979D01*
X24457Y126826D01*
X24346Y126674D01*
X24249Y126549D01*
X24152Y126424D01*
X24069Y126327D01*
X23930Y126147D01*
X23819Y126022D01*
X23749Y125939D01*
X23694Y125897D01*
X23680Y125883D01*
X23486Y125744D01*
X23292Y125647D01*
X23084Y125564D01*
X22890Y125523D01*
X22709Y125495D01*
X22571Y125481D01*
X22515Y125467D01*
X22446D01*
X22363Y125481D01*
X22266Y125509D01*
X22196Y125523D01*
X22182Y125536D01*
X22169D01*
X22085Y125578D01*
X22030Y125633D01*
X21974Y125675D01*
X21947Y125703D01*
X21919Y125758D01*
Y125786D01*
Y125814D01*
X21933Y125855D01*
X21974Y125939D01*
X22002Y126022D01*
X22016Y126036D01*
Y126050D01*
X22058Y126119D01*
X22085Y126174D01*
X22099Y126216D01*
X22113Y126244D01*
X22127Y126271D01*
X22099Y126299D01*
X22071Y126355D01*
X22030Y126396D01*
X22016Y126410D01*
X21669D01*
X21433Y126355D01*
X21212Y126299D01*
X21017Y126244D01*
X20851Y126202D01*
X20712Y126160D01*
X20601Y126133D01*
X20546Y126119D01*
X20518Y126105D01*
X20352Y126077D01*
X20158Y126050D01*
X19769Y126008D01*
X19381Y125953D01*
X19007Y125911D01*
X18826Y125883D01*
X18660Y125869D01*
X18521Y125855D01*
X18396Y125842D01*
X18285Y125828D01*
X18216D01*
X18161Y125814D01*
X18147D01*
X17953Y125786D01*
X17786Y125772D01*
X17634Y125758D01*
X17509Y125744D01*
X17398Y125731D01*
X17301Y125717D01*
X17218D01*
X17148Y125703D01*
X17065D01*
X17010Y125689D01*
X16649D01*
X16344Y125703D01*
X16066D01*
X15803Y125717D01*
X15567Y125731D01*
X15345Y125744D01*
X15151Y125758D01*
X14985Y125772D01*
X14832Y125786D01*
X14707Y125800D01*
X14596D01*
X14513Y125814D01*
X14444Y125828D01*
X14402Y125842D01*
X14361D01*
Y125869D01*
X14347Y125911D01*
X14305Y126036D01*
X14291Y126091D01*
X14263Y126147D01*
X14250Y126174D01*
Y126188D01*
X14208Y126285D01*
X14180Y126369D01*
X14166Y126424D01*
X14153Y126452D01*
X14139Y126480D01*
Y126493D01*
X14153Y126563D01*
X14180Y126632D01*
X14236Y126687D01*
X14319Y126729D01*
X14485Y126812D01*
X14693Y126854D01*
X14901Y126882D01*
X15082Y126909D01*
X15831D01*
X15914Y126896D01*
X16025D01*
X16469Y126840D01*
X16732D01*
X16926Y126854D01*
X17134Y126868D01*
X17328Y126896D01*
X17509Y126923D01*
X17675Y126951D01*
X17800Y126965D01*
X17883Y126993D01*
X17911D01*
X18077Y127062D01*
X18188Y127104D01*
X18258Y127117D01*
X18271Y127131D01*
X19062D01*
X19256Y127117D01*
X19547D01*
X19645Y127104D01*
X19714D01*
X20061Y127131D01*
X20393Y127173D01*
X20712Y127214D01*
X21004Y127256D01*
X21295Y127298D01*
X21558Y127353D01*
X21808Y127395D01*
X22030Y127450D01*
X22238Y127492D01*
X22418Y127534D01*
X22571Y127575D01*
X22709Y127603D01*
X22806Y127631D01*
X22890Y127658D01*
X22931Y127672D01*
X22945D01*
X23028Y127714D01*
X23112Y127797D01*
X23195Y127894D01*
X23264Y127991D01*
X23320Y128102D01*
X23361Y128185D01*
X23389Y128241D01*
X23403Y128268D01*
X23472Y128490D01*
X23528Y128685D01*
X23569Y128851D01*
X23611Y129004D01*
X23639Y129128D01*
X23666Y129212D01*
X23680Y129267D01*
Y129281D01*
X23791Y129558D01*
X23888Y129794D01*
X23971Y130002D01*
X24027Y130155D01*
X24069Y130279D01*
X24096Y130363D01*
X24124Y130418D01*
Y130432D01*
X24138Y130501D01*
X24152Y130598D01*
X24166Y130806D01*
Y130904D01*
Y130987D01*
Y131056D01*
Y131070D01*
Y131195D01*
Y131320D01*
Y131403D01*
Y131417D01*
Y131431D01*
X24179Y131444D01*
X24207Y131458D01*
X24249D01*
X24263Y131472D01*
X24276Y131514D01*
Y131542D01*
Y131555D01*
X24263Y132415D01*
Y132526D01*
Y132651D01*
Y132901D01*
Y133012D01*
Y133095D01*
Y133164D01*
Y133178D01*
Y133317D01*
X24249Y133428D01*
Y133511D01*
Y133594D01*
Y133636D01*
Y133677D01*
Y133705D01*
Y133747D01*
X24221Y133816D01*
X24179Y133982D01*
X24152Y134066D01*
X24124Y134121D01*
X24110Y134177D01*
X24096Y134190D01*
X24027Y134509D01*
X23930Y134787D01*
X23805Y135036D01*
X23680Y135258D01*
X23569Y135425D01*
X23472Y135549D01*
X23403Y135633D01*
X23389Y135660D01*
X23375D01*
X23264Y135771D01*
X23153Y135868D01*
X22945Y136007D01*
X22737Y136118D01*
X22543Y136201D01*
X22376Y136243D01*
X22238Y136257D01*
X22155Y136271D01*
X22127D01*
X21974Y136257D01*
X21822Y136201D01*
X21655Y136118D01*
X21503Y136007D01*
X21336Y135868D01*
X21170Y135730D01*
X20865Y135411D01*
X20601Y135092D01*
X20477Y134953D01*
X20380Y134814D01*
X20296Y134704D01*
X20241Y134620D01*
X20199Y134565D01*
X20185Y134551D01*
X20019Y134301D01*
X19866Y134066D01*
X19741Y133857D01*
X19631Y133663D01*
X19520Y133483D01*
X19436Y133330D01*
X19367Y133192D01*
X19298Y133067D01*
X19256Y132956D01*
X19215Y132873D01*
X19173Y132790D01*
X19159Y132734D01*
X19131Y132679D01*
Y132651D01*
X19117Y132623D01*
X19076Y132471D01*
X19048Y132332D01*
X18993Y132096D01*
X18951Y131902D01*
X18909Y131763D01*
X18896Y131652D01*
X18882Y131597D01*
X18868Y131555D01*
Y131542D01*
X18771Y131139D01*
X18687Y130765D01*
X18591Y130404D01*
X18521Y130058D01*
X18438Y129739D01*
X18369Y129447D01*
X18313Y129170D01*
X18258Y128934D01*
X18202Y128712D01*
X18161Y128518D01*
X18119Y128338D01*
X18091Y128199D01*
X18063Y128088D01*
X18050Y128019D01*
X18036Y127963D01*
Y127950D01*
X17842Y127880D01*
X17689Y127811D01*
X17578Y127769D01*
X17481Y127741D01*
X17426Y127714D01*
X17384Y127700D01*
X17356Y127686D01*
X17301Y127700D01*
X17231Y127728D01*
X17162Y127769D01*
X17079Y127825D01*
X16940Y127977D01*
X16788Y128144D01*
X16663Y128296D01*
X16566Y128449D01*
X16524Y128504D01*
X16496Y128546D01*
X16469Y128574D01*
Y128588D01*
X16344Y128782D01*
X16233Y128948D01*
X16136Y129101D01*
X16039Y129239D01*
X15942Y129364D01*
X15858Y129475D01*
X15789Y129558D01*
X15720Y129642D01*
X15609Y129766D01*
X15525Y129836D01*
X15470Y129877D01*
X15456Y129891D01*
X15429Y130002D01*
X15415Y130085D01*
Y130127D01*
Y130141D01*
X15304Y130238D01*
X15179Y130363D01*
X15068Y130487D01*
X14971Y130612D01*
X14888Y130723D01*
X14818Y130820D01*
X14777Y130876D01*
X14763Y130904D01*
X14624Y131125D01*
X14499Y131320D01*
X14388Y131486D01*
X14305Y131625D01*
X14236Y131722D01*
X14194Y131805D01*
X14166Y131847D01*
X14153Y131860D01*
X14028Y132138D01*
X13917Y132374D01*
X13820Y132582D01*
X13736Y132762D01*
X13667Y132928D01*
X13612Y133053D01*
X13556Y133164D01*
X13528Y133247D01*
X13487Y133317D01*
X13473Y133372D01*
X13459Y133414D01*
X13445Y133441D01*
X13431Y133469D01*
X13307Y133788D01*
X13210Y134093D01*
X13140Y134398D01*
X13099Y134676D01*
X13071Y134911D01*
X13057Y135022D01*
X13043Y135106D01*
Y135175D01*
Y135231D01*
Y135258D01*
Y135272D01*
Y135300D01*
Y135341D01*
X13029Y135466D01*
X13015Y135508D01*
Y135563D01*
X13002Y135591D01*
Y135605D01*
X12988Y135702D01*
X12974Y135771D01*
X12960Y135813D01*
Y135855D01*
X12946Y135882D01*
X12960Y135979D01*
X12988Y136049D01*
X13071Y136173D01*
X13140Y136243D01*
X13168Y136271D01*
X13182D01*
X13279Y136257D01*
X13362Y136229D01*
X13528Y136132D01*
X13667Y135993D01*
X13806Y135841D01*
X13903Y135688D01*
X13972Y135563D01*
X14000Y135508D01*
X14028Y135480D01*
X14042Y135452D01*
Y135438D01*
X14444Y134218D01*
X14596Y133899D01*
X14735Y133594D01*
X14860Y133330D01*
X14971Y133081D01*
X15068Y132845D01*
X15165Y132637D01*
X15248Y132457D01*
X15331Y132290D01*
X15387Y132152D01*
X15442Y132027D01*
X15498Y131916D01*
X15525Y131833D01*
X15553Y131777D01*
X15581Y131736D01*
X15595Y131708D01*
Y131694D01*
X15650Y131569D01*
X15747Y131417D01*
X15845Y131250D01*
X15969Y131070D01*
X16066Y130904D01*
X16164Y130779D01*
X16191Y130723D01*
X16219Y130682D01*
X16247Y130668D01*
Y130654D01*
X16372Y130487D01*
X16482Y130349D01*
X16580Y130224D01*
X16677Y130113D01*
X16760Y130030D01*
X16829Y129947D01*
X16954Y129836D01*
X17051Y129780D01*
X17106Y129739D01*
X17148Y129725D01*
X17162D01*
X17218Y129739D01*
X17259Y129766D01*
X17301Y129822D01*
X17342Y129891D01*
X17412Y130071D01*
X17481Y130266D01*
X17523Y130460D01*
X17564Y130640D01*
X17578Y130709D01*
Y130765D01*
X17592Y130793D01*
Y130806D01*
X17634Y131042D01*
X17661Y131250D01*
X17703Y131444D01*
X17717Y131597D01*
X17744Y131736D01*
X17758Y131860D01*
X17786Y131958D01*
X17800Y132027D01*
Y132096D01*
X17814Y132152D01*
X17828Y132207D01*
Y132249D01*
X17925Y132457D01*
X18022Y132637D01*
X18105Y132790D01*
X18161Y132914D01*
X18216Y133012D01*
X18258Y133081D01*
X18271Y133123D01*
X18285Y133136D01*
X18396Y133455D01*
X18507Y133733D01*
X18591Y133982D01*
X18660Y134177D01*
X18701Y134329D01*
X18743Y134440D01*
X18771Y134509D01*
Y134537D01*
X18909Y134759D01*
X19048Y134953D01*
X19159Y135106D01*
X19256Y135231D01*
X19339Y135314D01*
X19395Y135383D01*
X19436Y135411D01*
X19450Y135425D01*
X19533Y135591D01*
X19617Y135744D01*
X19686Y135882D01*
X19755Y136007D01*
X19811Y136104D01*
X19866Y136201D01*
X19963Y136340D01*
X20047Y136451D01*
X20102Y136506D01*
X20130Y136534D01*
X20144Y136548D01*
X20366Y136700D01*
X20560Y136825D01*
X20754Y136936D01*
X20934Y137033D01*
X21087Y137117D01*
X21239Y137186D01*
X21378Y137241D01*
X21489Y137283D01*
X21600Y137325D01*
X21697Y137352D01*
X21766Y137366D01*
X21836Y137380D01*
X21877Y137394D01*
X22016D01*
X22127Y137380D01*
D02*
G37*
G36*
X14693Y117271D02*
X14749Y117243D01*
X14818Y117215D01*
X14901Y117201D01*
X14971D01*
X15040Y117188D01*
X15096D01*
X15193Y117160D01*
X15304Y117105D01*
X15442Y117007D01*
X15581Y116910D01*
X15720Y116813D01*
X15831Y116716D01*
X15900Y116661D01*
X15928Y116633D01*
Y116064D01*
X15664Y115884D01*
X15429Y115745D01*
X15234Y115662D01*
X15068Y115593D01*
X14929Y115551D01*
X14846Y115537D01*
X14777Y115524D01*
X14763D01*
X14652Y115537D01*
X14569Y115565D01*
X14485Y115607D01*
X14416Y115676D01*
X14305Y115815D01*
X14236Y115995D01*
X14180Y116161D01*
X14166Y116314D01*
X14153Y116369D01*
Y116411D01*
Y116439D01*
Y116453D01*
X14180Y116647D01*
X14236Y116813D01*
X14319Y116952D01*
X14416Y117077D01*
X14499Y117174D01*
X14583Y117257D01*
X14638Y117299D01*
X14666Y117312D01*
X14693Y117271D01*
D02*
G37*
G36*
Y76747D02*
X14749Y76720D01*
X14818Y76692D01*
X14901Y76678D01*
X14971D01*
X15040Y76664D01*
X15096D01*
X15193Y76637D01*
X15304Y76581D01*
X15442Y76484D01*
X15581Y76387D01*
X15720Y76290D01*
X15831Y76193D01*
X15900Y76137D01*
X15928Y76109D01*
Y75541D01*
X15664Y75361D01*
X15429Y75222D01*
X15234Y75139D01*
X15068Y75069D01*
X14929Y75028D01*
X14846Y75014D01*
X14777Y75000D01*
X14763D01*
X14652Y75014D01*
X14569Y75042D01*
X14485Y75083D01*
X14416Y75153D01*
X14305Y75291D01*
X14236Y75472D01*
X14180Y75638D01*
X14166Y75791D01*
X14153Y75846D01*
Y75888D01*
Y75915D01*
Y75929D01*
X14180Y76123D01*
X14236Y76290D01*
X14319Y76428D01*
X14416Y76553D01*
X14499Y76650D01*
X14583Y76734D01*
X14638Y76775D01*
X14666Y76789D01*
X14693Y76747D01*
D02*
G37*
G36*
X14929Y79868D02*
X15123Y79826D01*
X15304Y79757D01*
X15442Y79688D01*
X15553Y79618D01*
X15637Y79549D01*
X15692Y79507D01*
X15706Y79493D01*
Y79452D01*
Y79410D01*
X15720Y79285D01*
X15747Y79133D01*
X15761Y78966D01*
X15789Y78814D01*
X15803Y78689D01*
Y78633D01*
X15817Y78592D01*
Y78578D01*
Y78564D01*
X15803Y78481D01*
X15761Y78412D01*
X15706Y78342D01*
X15637Y78287D01*
X15567Y78231D01*
X15512Y78190D01*
X15470Y78176D01*
X15456Y78162D01*
X15359Y78106D01*
X15262Y78065D01*
X15193Y78037D01*
X15137Y78023D01*
X15054Y77996D01*
X15026D01*
X14915Y78009D01*
X14791Y78023D01*
X14680Y78051D01*
X14583Y78079D01*
X14485Y78106D01*
X14416Y78134D01*
X14375Y78162D01*
X14361D01*
X14347Y78176D01*
X14319Y78218D01*
X14263Y78301D01*
X14194Y78384D01*
X14180Y78398D01*
X14166Y78412D01*
X14111Y78481D01*
X14069Y78550D01*
X14028Y78633D01*
X14000Y78675D01*
Y78689D01*
X14014Y78869D01*
X14056Y79063D01*
X14111Y79244D01*
X14180Y79438D01*
X14236Y79590D01*
X14291Y79729D01*
X14333Y79812D01*
X14347Y79826D01*
Y79840D01*
X14471Y79868D01*
X14583Y79882D01*
X14693D01*
X14929Y79868D01*
D02*
G37*
%LPC*%
G36*
X21031Y95816D02*
X20920D01*
X20837Y95789D01*
X20657Y95719D01*
X20490Y95622D01*
X20338Y95511D01*
X20199Y95387D01*
X20102Y95289D01*
X20033Y95220D01*
X20005Y95206D01*
Y95192D01*
X19575Y94679D01*
X19187Y94180D01*
X18854Y93695D01*
X18715Y93473D01*
X18591Y93265D01*
X18466Y93070D01*
X18369Y92890D01*
X18285Y92738D01*
X18202Y92599D01*
X18147Y92502D01*
X18105Y92419D01*
X18091Y92363D01*
X18077Y92349D01*
X17994Y92169D01*
X17911Y91975D01*
X17814Y91753D01*
X17717Y91517D01*
X17509Y91004D01*
X17315Y90505D01*
X17218Y90255D01*
X17134Y90033D01*
X17065Y89825D01*
X16996Y89645D01*
X16940Y89493D01*
X16898Y89382D01*
X16871Y89312D01*
X16857Y89284D01*
X16690Y88827D01*
X16538Y88411D01*
X16413Y88050D01*
X16302Y87731D01*
X16205Y87454D01*
X16122Y87204D01*
X16053Y86996D01*
X16011Y86830D01*
X15969Y86691D01*
X15942Y86566D01*
X15914Y86483D01*
X15900Y86414D01*
X15886Y86372D01*
Y86344D01*
Y86317D01*
X15900Y86261D01*
X15914Y86178D01*
X15928Y86109D01*
X15942Y86095D01*
Y86081D01*
X16150Y86053D01*
X16330Y86011D01*
X16482Y85998D01*
X16621Y85970D01*
X16746Y85956D01*
X16843Y85928D01*
X16926D01*
X16996Y85914D01*
X17093Y85901D01*
X17148Y85887D01*
X17176D01*
X19464Y85998D01*
X19575Y86011D01*
X19700D01*
X19991Y86039D01*
X20310Y86067D01*
X20629Y86109D01*
X20920Y86136D01*
X21059Y86150D01*
X21170Y86164D01*
X21267Y86178D01*
X21336Y86192D01*
X21392D01*
X21600Y86220D01*
X21780Y86233D01*
X21933Y86261D01*
X22085Y86275D01*
X22196Y86289D01*
X22307Y86303D01*
X22390Y86317D01*
X22474D01*
X22571Y86330D01*
X22640Y86344D01*
X22862D01*
X23015Y86317D01*
X23153Y86303D01*
X23278Y86275D01*
X23403Y86247D01*
X23486Y86220D01*
X23542Y86206D01*
X23569Y86192D01*
X23680Y86081D01*
X23777Y85984D01*
X23833Y85928D01*
X23847Y85901D01*
X23985Y85817D01*
X24096Y85776D01*
X24193Y85762D01*
X24221D01*
X24290Y86317D01*
X24332Y86844D01*
X24346Y87093D01*
X24374Y87329D01*
X24388Y87551D01*
Y87759D01*
X24401Y87939D01*
Y88119D01*
X24415Y88258D01*
Y88383D01*
Y88480D01*
Y88563D01*
Y88605D01*
Y88619D01*
X24485Y88744D01*
X24512Y88827D01*
X24526Y88882D01*
Y88896D01*
Y88910D01*
X24512Y88952D01*
X24485Y89035D01*
X24457Y89118D01*
X24443Y89146D01*
Y89160D01*
X24415Y89645D01*
X24374Y90089D01*
X24332Y90491D01*
X24290Y90865D01*
X24249Y91212D01*
X24221Y91517D01*
X24179Y91795D01*
X24138Y92044D01*
X24110Y92266D01*
X24069Y92446D01*
X24041Y92599D01*
X24027Y92724D01*
X23999Y92821D01*
X23985Y92890D01*
X23971Y92932D01*
Y92946D01*
X23888Y93237D01*
X23777Y93514D01*
X23666Y93764D01*
X23555Y93972D01*
X23444Y94166D01*
X23361Y94291D01*
X23320Y94346D01*
X23306Y94388D01*
X23278Y94402D01*
Y94416D01*
X23125Y94610D01*
X22987Y94776D01*
X22848Y94929D01*
X22709Y95068D01*
X22585Y95178D01*
X22460Y95289D01*
X22349Y95373D01*
X22252Y95442D01*
X22071Y95553D01*
X21933Y95622D01*
X21877Y95636D01*
X21836Y95650D01*
X21822Y95664D01*
X21808D01*
X21780Y95678D01*
X21753Y95705D01*
X21739Y95719D01*
Y95733D01*
X21697D01*
X21614Y95747D01*
X21503Y95761D01*
X21364Y95775D01*
X21239Y95789D01*
X21114Y95803D01*
X21031Y95816D01*
D02*
G37*
G36*
X14874Y87482D02*
Y87468D01*
Y87454D01*
Y87385D01*
X14860Y87301D01*
X14846Y87107D01*
X14832Y87024D01*
X14818Y86955D01*
X14804Y86899D01*
Y86885D01*
X14860Y86899D01*
X14901Y86927D01*
X14957Y87010D01*
X14971Y87079D01*
Y87107D01*
Y87121D01*
Y87135D01*
Y87149D01*
X14957Y87218D01*
X14943Y87274D01*
X14929Y87301D01*
X14915Y87357D01*
X14901Y87398D01*
X14888Y87454D01*
X14874Y87482D01*
D02*
G37*
G36*
X15928Y107105D02*
X15858Y107050D01*
X15789Y107022D01*
X15734Y107008D01*
X15706D01*
X15761Y106953D01*
X15803Y106911D01*
X15872Y106856D01*
X15900Y106828D01*
X15914D01*
X15928Y106842D01*
Y107105D01*
D02*
G37*
G36*
X17315Y142470D02*
X17301D01*
X17259Y142442D01*
X17218Y142387D01*
X17162Y142262D01*
X17120Y142109D01*
X17093Y141957D01*
X17079Y141804D01*
X17065Y141665D01*
Y141610D01*
Y141582D01*
Y141554D01*
Y141541D01*
Y139294D01*
X17079Y139252D01*
X17134Y139238D01*
X17176Y139225D01*
X17190D01*
X17245Y139238D01*
X17315Y139280D01*
X17370Y139335D01*
X17439Y139405D01*
X17495Y139474D01*
X17536Y139530D01*
X17564Y139571D01*
X17578Y139585D01*
X17661Y139710D01*
X17731Y139835D01*
X17772Y139932D01*
X17814Y140015D01*
X17828Y140084D01*
X17842Y140140D01*
X17855Y140168D01*
Y140182D01*
X17911Y140528D01*
X17966Y140847D01*
X18008Y141152D01*
X18036Y141416D01*
X18063Y141624D01*
X18077Y141721D01*
Y141790D01*
Y141846D01*
X18091Y141887D01*
Y141915D01*
Y141929D01*
X18036Y142054D01*
X17980Y142137D01*
X17939Y142206D01*
X17897Y142262D01*
X17869Y142289D01*
X17855Y142303D01*
X17842Y142317D01*
X17675Y142359D01*
X17495Y142414D01*
X17412Y142442D01*
X17356Y142456D01*
X17315Y142470D01*
D02*
G37*
G36*
X18271Y164590D02*
X18258D01*
X18216Y164576D01*
X18147Y164562D01*
X18105Y164534D01*
X18077Y164520D01*
Y164271D01*
X18091Y164188D01*
X18105Y164091D01*
X18174Y163883D01*
X18216Y163785D01*
X18244Y163702D01*
X18258Y163647D01*
X18271Y163633D01*
X18313Y163356D01*
X18341Y163078D01*
X18382Y162829D01*
X18410Y162607D01*
X18438Y162385D01*
X18452Y162191D01*
X18466Y162010D01*
X18493Y161858D01*
Y161705D01*
X18507Y161580D01*
X18521Y161483D01*
Y161386D01*
X18535Y161317D01*
Y161275D01*
Y161248D01*
Y161234D01*
X18563Y161026D01*
X18591Y160845D01*
X18618Y160693D01*
X18632Y160554D01*
X18660Y160443D01*
X18674Y160346D01*
X18687Y160263D01*
X18701Y160194D01*
X18715Y160096D01*
X18729Y160055D01*
X18743Y160027D01*
X18882Y160096D01*
X19007Y160152D01*
X19215Y160263D01*
X19381Y160332D01*
X19492Y160402D01*
X19575Y160429D01*
X19631Y160457D01*
X19645Y160471D01*
X19658D01*
X19769Y160582D01*
X19852Y160679D01*
X19908Y160735D01*
X19922Y160748D01*
X20268Y160956D01*
X20587Y161137D01*
X20851Y161289D01*
X21087Y161414D01*
X21267Y161525D01*
X21406Y161594D01*
X21489Y161636D01*
X21517Y161650D01*
X21919Y162010D01*
X22002Y162080D01*
X22085Y162149D01*
X22224Y162232D01*
X22280Y162260D01*
X22321Y162274D01*
X22349Y162288D01*
X22363D01*
X22543Y162371D01*
X22723Y162440D01*
X22876Y162510D01*
X23015Y162579D01*
X23264Y162704D01*
X23444Y162815D01*
X23597Y162898D01*
X23694Y162967D01*
X23749Y163009D01*
X23763Y163023D01*
X23666Y163134D01*
X23555Y163217D01*
X23444Y163300D01*
X23333Y163356D01*
X23250Y163397D01*
X23181Y163425D01*
X23125Y163439D01*
X23112D01*
X22945Y163466D01*
X22793Y163508D01*
X22668Y163522D01*
X22585Y163550D01*
X22501Y163564D01*
X22460D01*
X22432Y163577D01*
X22418D01*
X22266Y163591D01*
X22127Y163605D01*
X22016D01*
X21905Y163619D01*
X21725D01*
X21655Y163688D01*
X21641Y163702D01*
X21628D01*
X21336Y163758D01*
X21059Y163813D01*
X20796Y163869D01*
X20546Y163924D01*
X20310Y163966D01*
X20102Y164007D01*
X19894Y164049D01*
X19728Y164091D01*
X19561Y164118D01*
X19423Y164146D01*
X19298Y164174D01*
X19201Y164188D01*
X19117Y164202D01*
X19062Y164215D01*
X19034Y164229D01*
X19020D01*
X18646Y164423D01*
X18521Y164479D01*
X18438Y164520D01*
X18369Y164548D01*
X18313Y164576D01*
X18285D01*
X18271Y164590D01*
D02*
G37*
G36*
X18591Y108950D02*
X18577D01*
X18493Y108936D01*
X18410Y108894D01*
X18327Y108839D01*
X18230Y108756D01*
X18147Y108659D01*
X18063Y108548D01*
X17911Y108312D01*
X17772Y108076D01*
X17717Y107965D01*
X17675Y107868D01*
X17634Y107799D01*
X17606Y107729D01*
X17578Y107688D01*
Y107674D01*
X17481Y107535D01*
X17398Y107438D01*
X17342Y107369D01*
X17328Y107341D01*
X17120Y106772D01*
X16926Y106218D01*
X16746Y105663D01*
X16580Y105136D01*
X16427Y104623D01*
X16288Y104137D01*
X16164Y103666D01*
X16053Y103250D01*
X15955Y102848D01*
X15872Y102501D01*
X15803Y102196D01*
X15734Y101932D01*
X15692Y101711D01*
X15678Y101627D01*
X15664Y101558D01*
X15650Y101503D01*
X15637Y101461D01*
Y101447D01*
Y101433D01*
X15623Y101392D01*
X15609Y101336D01*
X15581Y101184D01*
X15539Y101017D01*
X15484Y100851D01*
X15442Y100684D01*
X15415Y100546D01*
X15401Y100490D01*
X15387Y100462D01*
X15373Y100435D01*
Y100421D01*
X15317Y100199D01*
X15276Y100033D01*
X15234Y99894D01*
X15220Y99797D01*
X15207Y99741D01*
X15193Y99700D01*
Y99672D01*
X15220Y99561D01*
X15276Y99464D01*
X15359Y99381D01*
X15470Y99311D01*
X15567Y99270D01*
X15650Y99228D01*
X15706Y99214D01*
X15734Y99200D01*
X18216D01*
X18396Y99242D01*
X18563Y99284D01*
X18701Y99311D01*
X18812Y99325D01*
X18896Y99353D01*
X18965D01*
X19007Y99367D01*
X19020D01*
Y99464D01*
Y99492D01*
Y99506D01*
X19007Y99686D01*
X18993Y99866D01*
X18979Y99949D01*
Y100005D01*
X18965Y100046D01*
Y100060D01*
X18937Y100185D01*
X18909Y100296D01*
X18896Y100393D01*
X18882Y100462D01*
X18868Y100518D01*
X18854Y100560D01*
Y100587D01*
Y100601D01*
X18868Y100629D01*
X18882Y100698D01*
X18896Y100767D01*
X18909Y100781D01*
Y100795D01*
X18923Y100865D01*
X18937Y100920D01*
Y100962D01*
X18951Y100989D01*
Y101017D01*
X18965Y101239D01*
X18979Y101475D01*
X19007Y101711D01*
X19034Y101932D01*
X19062Y102127D01*
X19090Y102279D01*
X19104Y102335D01*
X19117Y102376D01*
Y102404D01*
Y102418D01*
X19159Y102681D01*
X19201Y102903D01*
X19242Y103097D01*
X19270Y103264D01*
X19298Y103416D01*
X19312Y103541D01*
X19339Y103638D01*
X19353Y103722D01*
Y103791D01*
X19367Y103832D01*
X19381Y103902D01*
Y103930D01*
Y103957D01*
X19409Y104027D01*
X19423Y104096D01*
X19450Y104193D01*
X19478Y104276D01*
X19492Y104359D01*
X19520Y104415D01*
Y104429D01*
X19561Y104595D01*
X19603Y104720D01*
X19631Y104803D01*
X19645Y104873D01*
X19658Y104914D01*
Y104928D01*
Y104942D01*
Y105302D01*
X19645Y105649D01*
X19631Y105968D01*
X19617Y106259D01*
X19589Y106537D01*
X19561Y106800D01*
X19520Y107036D01*
X19492Y107258D01*
X19450Y107466D01*
X19409Y107646D01*
X19367Y107813D01*
X19312Y107965D01*
X19270Y108118D01*
X19215Y108243D01*
X19117Y108451D01*
X19020Y108617D01*
X18923Y108742D01*
X18826Y108825D01*
X18743Y108894D01*
X18674Y108922D01*
X18618Y108936D01*
X18591Y108950D01*
D02*
G37*
G36*
X24360Y108284D02*
X24346D01*
X24290Y108270D01*
X24221Y108229D01*
X24152Y108173D01*
X24069Y108090D01*
X23985Y108007D01*
X23902Y107896D01*
X23722Y107674D01*
X23555Y107452D01*
X23486Y107341D01*
X23417Y107258D01*
X23361Y107175D01*
X23333Y107119D01*
X23306Y107078D01*
X23292Y107064D01*
X23015Y106634D01*
X22765Y106190D01*
X22543Y105760D01*
X22349Y105372D01*
X22266Y105191D01*
X22196Y105025D01*
X22127Y104873D01*
X22071Y104748D01*
X22030Y104651D01*
X22002Y104581D01*
X21988Y104526D01*
X21974Y104512D01*
X21933Y104401D01*
X21877Y104262D01*
X21822Y104096D01*
X21753Y103916D01*
X21614Y103513D01*
X21461Y103111D01*
X21392Y102917D01*
X21336Y102723D01*
X21267Y102556D01*
X21226Y102404D01*
X21170Y102279D01*
X21142Y102182D01*
X21128Y102127D01*
X21114Y102099D01*
X21087Y101932D01*
X21073Y101821D01*
Y101738D01*
Y101724D01*
Y101711D01*
X20990Y101572D01*
X20934Y101461D01*
X20893Y101392D01*
X20879Y101378D01*
Y101364D01*
X20796Y101059D01*
X20768Y100906D01*
X20726Y100767D01*
X20698Y100656D01*
X20671Y100573D01*
X20643Y100518D01*
Y100490D01*
X20587Y100296D01*
X20546Y100143D01*
X20504Y100019D01*
X20490Y99935D01*
X20477Y99894D01*
X20463Y99852D01*
Y99838D01*
Y99616D01*
X20574Y99533D01*
X20685Y99492D01*
X20740D01*
X20782Y99478D01*
X20907D01*
X21073Y99492D01*
X21212Y99506D01*
X21309D01*
X21378Y99519D01*
X21503D01*
X21558Y99533D01*
X21641Y99547D01*
X21725Y99561D01*
X21808Y99575D01*
X21877Y99589D01*
X21933Y99602D01*
X21988D01*
X22058Y99575D01*
X22141Y99561D01*
X22238Y99533D01*
X22321Y99506D01*
X22404Y99492D01*
X22460Y99464D01*
X22474D01*
X22640Y99422D01*
X22779Y99381D01*
X22903Y99353D01*
X23001Y99325D01*
X23084Y99297D01*
X23153Y99284D01*
X23181Y99270D01*
X23195D01*
X23486Y100046D01*
X23749Y100809D01*
X23971Y101530D01*
X24152Y102224D01*
X24318Y102875D01*
X24457Y103500D01*
X24568Y104068D01*
X24651Y104595D01*
X24720Y105081D01*
X24748Y105302D01*
X24776Y105511D01*
X24790Y105691D01*
X24804Y105871D01*
X24817Y106038D01*
X24831Y106190D01*
X24845Y106315D01*
Y106426D01*
X24859Y106523D01*
Y106606D01*
Y106675D01*
Y106717D01*
Y106745D01*
Y106759D01*
Y106897D01*
X24845Y107036D01*
X24817Y107175D01*
X24804Y107313D01*
X24776Y107438D01*
X24748Y107535D01*
X24734Y107591D01*
Y107619D01*
X24693Y107729D01*
X24665Y107840D01*
X24595Y108007D01*
X24526Y108118D01*
X24471Y108201D01*
X24415Y108256D01*
X24374Y108270D01*
X24360Y108284D01*
D02*
G37*
G36*
X14804Y104567D02*
Y104318D01*
X14860Y104304D01*
X14901Y104276D01*
X14943Y104262D01*
X14957Y104249D01*
X15012Y104346D01*
X15054Y104429D01*
X15068Y104484D01*
X15082Y104498D01*
X14804Y104567D01*
D02*
G37*
%LPD*%
G36*
X984598Y184993D02*
X984692Y184964D01*
X984779Y184918D01*
X984855Y184855D01*
X984918Y184779D01*
X984964Y184692D01*
X984993Y184598D01*
X985002Y184500D01*
Y173000D01*
X984999Y172968D01*
X984998Y172937D01*
X984995Y172920D01*
X984993Y172902D01*
X984984Y172872D01*
X984977Y172841D01*
X984969Y172825D01*
X984964Y172808D01*
X984949Y172780D01*
X984937Y172751D01*
X984926Y172737D01*
X984918Y172721D01*
X984898Y172696D01*
X984880Y172671D01*
X984867Y172659D01*
X984855Y172645D01*
X984831Y172625D01*
X984808Y172603D01*
X984793Y172593D01*
X984779Y172582D01*
X984752Y172568D01*
X984725Y172551D01*
X980765Y170571D01*
X978808Y169103D01*
X976351Y167137D01*
X973409Y163705D01*
X971941Y161258D01*
X970965Y159307D01*
X968995Y153396D01*
X968505Y148002D01*
X968997Y143074D01*
X969490Y140610D01*
X969974Y138675D01*
X971443Y135737D01*
X973412Y132291D01*
X976354Y128859D01*
X979301Y126403D01*
X980753Y125435D01*
X984725Y123449D01*
X984752Y123432D01*
X984779Y123418D01*
X984793Y123406D01*
X984808Y123397D01*
X984831Y123375D01*
X984855Y123355D01*
X984867Y123341D01*
X984880Y123329D01*
X984898Y123304D01*
X984918Y123279D01*
X984926Y123263D01*
X984937Y123249D01*
X984949Y123220D01*
X984964Y123192D01*
X984969Y123175D01*
X984977Y123159D01*
X984984Y123128D01*
X984993Y123098D01*
X984995Y123080D01*
X984998Y123063D01*
X984999Y123032D01*
X985002Y123000D01*
Y111500D01*
X984993Y111402D01*
X984964Y111308D01*
X984918Y111221D01*
X984855Y111145D01*
X984779Y111082D01*
X984692Y111036D01*
X984598Y111007D01*
X984500Y110998D01*
X968000D01*
X967902Y111007D01*
X967808Y111036D01*
X967721Y111082D01*
X967645Y111145D01*
X967582Y111221D01*
X967536Y111308D01*
X967507Y111402D01*
X967498Y111500D01*
Y148000D01*
D01*
Y184500D01*
X967507Y184598D01*
X967536Y184692D01*
X967582Y184779D01*
X967645Y184855D01*
X967721Y184918D01*
X967808Y184964D01*
X967902Y184993D01*
X968000Y185002D01*
X984500D01*
X984598Y184993D01*
D02*
G37*
G36*
X1022098D02*
X1022192Y184964D01*
X1022279Y184918D01*
X1022355Y184855D01*
X1022418Y184779D01*
X1022464Y184692D01*
X1022493Y184598D01*
X1022502Y184500D01*
Y148000D01*
Y111500D01*
X1022493Y111402D01*
X1022464Y111308D01*
X1022418Y111221D01*
X1022355Y111145D01*
X1022279Y111082D01*
X1022192Y111036D01*
X1022098Y111007D01*
X1022000Y110998D01*
X1005500D01*
X1005402Y111007D01*
X1005308Y111036D01*
X1005221Y111082D01*
X1005145Y111145D01*
X1005082Y111221D01*
X1005036Y111308D01*
X1005007Y111402D01*
X1004998Y111500D01*
Y123000D01*
X1005001Y123032D01*
X1005002Y123063D01*
X1005005Y123080D01*
X1005007Y123098D01*
X1005016Y123128D01*
X1005023Y123159D01*
X1005031Y123175D01*
X1005036Y123192D01*
X1005051Y123220D01*
X1005063Y123249D01*
X1005074Y123263D01*
X1005082Y123279D01*
X1005102Y123304D01*
X1005120Y123329D01*
X1005133Y123341D01*
X1005145Y123355D01*
X1005169Y123375D01*
X1005192Y123397D01*
X1005207Y123406D01*
X1005221Y123418D01*
X1005248Y123432D01*
X1005275Y123449D01*
X1008247Y124935D01*
X1011196Y126901D01*
X1014631Y129846D01*
X1017571Y133765D01*
X1020026Y138675D01*
X1021003Y142584D01*
X1021495Y147998D01*
X1021004Y152914D01*
X1020513Y154878D01*
X1020021Y156845D01*
X1019041Y159294D01*
X1018059Y161258D01*
X1016587Y163713D01*
X1014625Y166164D01*
X1014164Y166625D01*
X1011697Y168599D01*
X1008240Y171068D01*
X1005275Y172551D01*
X1005248Y172568D01*
X1005221Y172582D01*
X1005207Y172593D01*
X1005192Y172603D01*
X1005169Y172625D01*
X1005145Y172645D01*
X1005133Y172659D01*
X1005120Y172671D01*
X1005102Y172696D01*
X1005082Y172721D01*
X1005074Y172737D01*
X1005063Y172751D01*
X1005051Y172780D01*
X1005036Y172808D01*
X1005031Y172825D01*
X1005023Y172841D01*
X1005016Y172872D01*
X1005007Y172902D01*
X1005005Y172920D01*
X1005002Y172937D01*
X1005001Y172968D01*
X1004998Y173000D01*
Y184500D01*
X1005007Y184598D01*
X1005036Y184692D01*
X1005082Y184779D01*
X1005145Y184855D01*
X1005221Y184918D01*
X1005308Y184964D01*
X1005402Y184993D01*
X1005500Y185002D01*
X1022000D01*
X1022098Y184993D01*
D02*
G37*
D34*
X90000Y30000D02*
D03*
X1170000Y90000D02*
D03*
Y750000D02*
D03*
D35*
X1168000Y32000D02*
D03*
Y808000D02*
D03*
X32000D02*
D03*
Y32000D02*
D03*
D36*
X935000Y325998D02*
D03*
Y311998D02*
D03*
X1023000Y227002D02*
D03*
Y241002D02*
D03*
X1049000Y240998D02*
D03*
Y226998D02*
D03*
X1062000Y227002D02*
D03*
Y241002D02*
D03*
X1036000Y240998D02*
D03*
Y226998D02*
D03*
X1023000Y207998D02*
D03*
Y193998D02*
D03*
X1036000Y207998D02*
D03*
Y193998D02*
D03*
D37*
X666998Y358000D02*
D03*
X652998D02*
D03*
X666998Y385000D02*
D03*
X652998D02*
D03*
X666998Y398000D02*
D03*
X652998D02*
D03*
X666998Y345000D02*
D03*
X652998D02*
D03*
X608998Y398000D02*
D03*
X594998D02*
D03*
X608998Y345000D02*
D03*
X594998D02*
D03*
X608998Y358000D02*
D03*
X594998D02*
D03*
X608998Y385000D02*
D03*
X594998D02*
D03*
X955002Y216000D02*
D03*
X969002D02*
D03*
X998998Y231000D02*
D03*
X984998D02*
D03*
X998998Y245000D02*
D03*
X984998D02*
D03*
X842998Y169996D02*
D03*
X856998D02*
D03*
D38*
X940500Y238000D02*
D03*
X967500D02*
D03*
D39*
X1002500Y196250D02*
D03*
X997500D02*
D03*
X992500D02*
D03*
X987500D02*
D03*
Y213750D02*
D03*
X992500D02*
D03*
X997500D02*
D03*
X1002500D02*
D03*
D40*
X995000Y205000D02*
D03*
D41*
X963250Y148000D02*
D03*
X1026750D02*
D03*
D42*
X901500Y156050D02*
D03*
Y143350D02*
D03*
Y130650D02*
D03*
Y117950D02*
D03*
X852500Y156050D02*
D03*
Y143350D02*
D03*
Y130650D02*
D03*
Y117950D02*
D03*
D43*
X917501Y355100D02*
D03*
X912499D02*
D03*
X907501D02*
D03*
X902499D02*
D03*
X897501D02*
D03*
X892499D02*
D03*
X887501D02*
D03*
X882499D02*
D03*
X877501D02*
D03*
X872499D02*
D03*
X867501D02*
D03*
X862499D02*
D03*
X857501D02*
D03*
X852499D02*
D03*
X847501D02*
D03*
X772499D02*
D03*
X777501D02*
D03*
X782499D02*
D03*
X787501D02*
D03*
X792499D02*
D03*
X797501D02*
D03*
X802499D02*
D03*
X807501D02*
D03*
X812499D02*
D03*
X817501D02*
D03*
X822499D02*
D03*
X827501D02*
D03*
X837501D02*
D03*
X842499D02*
D03*
X832499D02*
D03*
X937500D02*
D03*
X932499D02*
D03*
X927501D02*
D03*
X922499D02*
D03*
X767501D02*
D03*
X762499D02*
D03*
X757501D02*
D03*
X752499D02*
D03*
X747501D02*
D03*
X742500D02*
D03*
D44*
X1003299Y801600D02*
D03*
Y749600D02*
D03*
X977899D02*
D03*
X952499D02*
D03*
X977899Y801600D02*
D03*
X952499D02*
D03*
X927099D02*
D03*
X901699D02*
D03*
X876299D02*
D03*
X850899D02*
D03*
X825499D02*
D03*
X800099D02*
D03*
X774699D02*
D03*
X749299D02*
D03*
X723899D02*
D03*
X698499D02*
D03*
X673099D02*
D03*
X647699D02*
D03*
X622299D02*
D03*
X596899D02*
D03*
X571499D02*
D03*
X927099Y749600D02*
D03*
X901699D02*
D03*
X876299D02*
D03*
X850899D02*
D03*
X825499D02*
D03*
X800099D02*
D03*
X774699D02*
D03*
X749299D02*
D03*
X723899D02*
D03*
X698499D02*
D03*
X673099D02*
D03*
X647699D02*
D03*
X622299D02*
D03*
X596899D02*
D03*
X571499D02*
D03*
X368299Y801600D02*
D03*
X393699D02*
D03*
X419099D02*
D03*
X444499D02*
D03*
Y749600D02*
D03*
X419099D02*
D03*
X393699D02*
D03*
X469899Y801600D02*
D03*
X495299D02*
D03*
X520699D02*
D03*
X546099D02*
D03*
X469899Y749600D02*
D03*
X495299D02*
D03*
X520699D02*
D03*
X546099D02*
D03*
X1003302Y90400D02*
D03*
Y38400D02*
D03*
X977902D02*
D03*
X952502D02*
D03*
X977902Y90400D02*
D03*
X952502D02*
D03*
X927102D02*
D03*
X901702D02*
D03*
X876302D02*
D03*
X850902D02*
D03*
X825502D02*
D03*
X800102D02*
D03*
X774702D02*
D03*
X749302D02*
D03*
X723902D02*
D03*
X698502D02*
D03*
X673102D02*
D03*
X647702D02*
D03*
X622302D02*
D03*
X596902D02*
D03*
X571502D02*
D03*
X927102Y38400D02*
D03*
X901702D02*
D03*
X876302D02*
D03*
X850902D02*
D03*
X825502D02*
D03*
X800102D02*
D03*
X774702D02*
D03*
X749302D02*
D03*
X723902D02*
D03*
X698502D02*
D03*
X673102D02*
D03*
X647702D02*
D03*
X622302D02*
D03*
X596902D02*
D03*
X571502D02*
D03*
X368302Y90400D02*
D03*
X393702D02*
D03*
X419102D02*
D03*
X444502D02*
D03*
Y38400D02*
D03*
X419102D02*
D03*
X393702D02*
D03*
X469902Y90400D02*
D03*
X495302D02*
D03*
X520702D02*
D03*
X546102D02*
D03*
X469902Y38400D02*
D03*
X495302D02*
D03*
X520702D02*
D03*
X546102D02*
D03*
D45*
X368299Y749600D02*
D03*
X368302Y38400D02*
D03*
D46*
X253401Y737602D02*
D03*
X305401D02*
D03*
Y712202D02*
D03*
Y686802D02*
D03*
X253401Y712202D02*
D03*
Y686802D02*
D03*
Y661402D02*
D03*
Y636002D02*
D03*
Y610602D02*
D03*
Y585202D02*
D03*
Y559802D02*
D03*
Y534402D02*
D03*
Y509002D02*
D03*
Y483602D02*
D03*
Y458202D02*
D03*
Y432802D02*
D03*
Y407402D02*
D03*
Y382002D02*
D03*
Y356602D02*
D03*
Y331202D02*
D03*
Y305802D02*
D03*
X305401Y661402D02*
D03*
Y636002D02*
D03*
Y610602D02*
D03*
Y585202D02*
D03*
Y559802D02*
D03*
Y534402D02*
D03*
Y509002D02*
D03*
Y483602D02*
D03*
Y458202D02*
D03*
Y432802D02*
D03*
Y407402D02*
D03*
Y382002D02*
D03*
Y356602D02*
D03*
Y331202D02*
D03*
Y305802D02*
D03*
X253401Y102602D02*
D03*
Y128002D02*
D03*
Y153402D02*
D03*
Y178802D02*
D03*
X305401D02*
D03*
Y153402D02*
D03*
Y128002D02*
D03*
X253401Y204202D02*
D03*
Y229602D02*
D03*
Y255002D02*
D03*
Y280402D02*
D03*
X305401Y204202D02*
D03*
Y229602D02*
D03*
Y255002D02*
D03*
Y280402D02*
D03*
D47*
Y102602D02*
D03*
D48*
X956799Y380000D02*
D03*
X723201D02*
D03*
M02*
