G04*
G04 #@! TF.GenerationSoftware,Altium Limited,Altium Designer,20.0.11 (256)*
G04*
G04 Layer_Color=2752767*
%FSLAX44Y44*%
%MOMM*%
G71*
G01*
G75*
%ADD54C,0.0508*%
%ADD55C,0.0677*%
D54*
X567968Y385968D02*
Y390032D01*
X572032D01*
Y385968D01*
X567968D01*
Y-390032D02*
Y-385968D01*
X572032D01*
Y-390032D01*
X567968D01*
X805968Y385968D02*
Y390032D01*
X810032D01*
Y385968D01*
X805968D01*
Y-390032D02*
Y-385968D01*
X810032D01*
Y-390032D01*
X805968D01*
X-570032D02*
Y-385968D01*
X-565968D01*
Y-390032D01*
X-570032D01*
Y385968D02*
Y390032D01*
X-565968D01*
Y385968D01*
X-570032D01*
X767000Y315968D02*
X764968Y320032D01*
X769032D01*
X767000Y315968D01*
Y215968D02*
X764968Y220032D01*
X769032D01*
X767000Y215968D01*
Y-384032D02*
X764968Y-379968D01*
X769032D01*
X767000Y-384032D01*
X667000Y315968D02*
X664968Y320032D01*
X669032D01*
X667000Y315968D01*
Y215968D02*
X664968Y220032D01*
X669032D01*
X667000Y215968D01*
Y115968D02*
X664968Y120032D01*
X669032D01*
X667000Y115968D01*
Y15968D02*
X664968Y20032D01*
X669032D01*
X667000Y15968D01*
Y-84032D02*
X664968Y-79968D01*
X669032D01*
X667000Y-84032D01*
Y-184032D02*
X664968Y-179968D01*
X669032D01*
X667000Y-184032D01*
Y-284032D02*
X664968Y-279968D01*
X669032D01*
X667000Y-284032D01*
Y-384032D02*
X664968Y-379968D01*
X669032D01*
X667000Y-384032D01*
X567000Y315968D02*
X564968Y320032D01*
X569032D01*
X567000Y315968D01*
Y215968D02*
X564968Y220032D01*
X569032D01*
X567000Y215968D01*
Y115968D02*
X564968Y120032D01*
X569032D01*
X567000Y115968D01*
Y15968D02*
X564968Y20032D01*
X569032D01*
X567000Y15968D01*
Y-184032D02*
X564968Y-179968D01*
X569032D01*
X567000Y-184032D01*
Y-284032D02*
X564968Y-279968D01*
X569032D01*
X567000Y-284032D01*
X467000Y315968D02*
X464968Y320032D01*
X469032D01*
X467000Y315968D01*
Y215968D02*
X464968Y220032D01*
X469032D01*
X467000Y215968D01*
Y15968D02*
X464968Y20032D01*
X469032D01*
X467000Y15968D01*
Y-84032D02*
X464968Y-79968D01*
X469032D01*
X467000Y-84032D01*
Y-184032D02*
X464968Y-179968D01*
X469032D01*
X467000Y-184032D01*
Y-284032D02*
X464968Y-279968D01*
X469032D01*
X467000Y-284032D01*
Y-384032D02*
X464968Y-379968D01*
X469032D01*
X467000Y-384032D01*
X367000Y-184032D02*
X364968Y-179968D01*
X369032D01*
X367000Y-184032D01*
Y-284032D02*
X364968Y-279968D01*
X369032D01*
X367000Y-284032D01*
Y-384032D02*
X364968Y-379968D01*
X369032D01*
X367000Y-384032D01*
X267000Y215968D02*
X264968Y220032D01*
X269032D01*
X267000Y215968D01*
Y115968D02*
X264968Y120032D01*
X269032D01*
X267000Y115968D01*
Y-384032D02*
X264968Y-379968D01*
X269032D01*
X267000Y-384032D01*
X167000Y215968D02*
X164968Y220032D01*
X169032D01*
X167000Y215968D01*
Y-84032D02*
X164968Y-79968D01*
X169032D01*
X167000Y-84032D01*
Y-184032D02*
X164968Y-179968D01*
X169032D01*
X167000Y-184032D01*
Y-384032D02*
X164968Y-379968D01*
X169032D01*
X167000Y-384032D01*
X67000Y315968D02*
X64968Y320032D01*
X69032D01*
X67000Y315968D01*
Y215968D02*
X64968Y220032D01*
X69032D01*
X67000Y215968D01*
Y-384032D02*
X64968Y-379968D01*
X69032D01*
X67000Y-384032D01*
X-33000Y315968D02*
X-35032Y320032D01*
X-30968D01*
X-33000Y315968D01*
Y215968D02*
X-35032Y220032D01*
X-30968D01*
X-33000Y215968D01*
Y115968D02*
X-35032Y120032D01*
X-30968D01*
X-33000Y115968D01*
Y-184032D02*
X-35032Y-179968D01*
X-30968D01*
X-33000Y-184032D01*
Y-384032D02*
X-35032Y-379968D01*
X-30968D01*
X-33000Y-384032D01*
X-133000Y315968D02*
X-135032Y320032D01*
X-130968D01*
X-133000Y315968D01*
Y-384032D02*
X-135032Y-379968D01*
X-130968D01*
X-133000Y-384032D01*
X-233000Y315968D02*
X-235032Y320032D01*
X-230968D01*
X-233000Y315968D01*
Y-184032D02*
X-235032Y-179968D01*
X-230968D01*
X-233000Y-184032D01*
X-333000Y-384032D02*
X-335032Y-379968D01*
X-330968D01*
X-333000Y-384032D01*
X-433000Y315968D02*
X-435032Y320032D01*
X-430968D01*
X-433000Y315968D01*
Y-284032D02*
X-435032Y-279968D01*
X-430968D01*
X-433000Y-284032D01*
Y-384032D02*
X-435032Y-379968D01*
X-430968D01*
X-433000Y-384032D01*
X-533000Y315968D02*
X-535032Y320032D01*
X-530968D01*
X-533000Y315968D01*
Y15968D02*
X-535032Y20032D01*
X-530968D01*
X-533000Y15968D01*
Y-84032D02*
X-535032Y-79968D01*
X-530968D01*
X-533000Y-84032D01*
X-403000Y-139849D02*
X-401984Y-138833D01*
X-400968D01*
X-401984Y-137817D01*
X-400968Y-136801D01*
X-401984D01*
X-403000Y-135785D01*
X-404016Y-136801D01*
X-405032D01*
X-404016Y-137817D01*
X-405032Y-138833D01*
X-404016D01*
X-403000Y-139849D01*
X-388000Y-152124D02*
X-386984Y-151108D01*
X-385968D01*
X-386984Y-150092D01*
X-385968Y-149076D01*
X-386984D01*
X-388000Y-148060D01*
X-389016Y-149076D01*
X-390032D01*
X-389016Y-150092D01*
X-390032Y-151108D01*
X-389016D01*
X-388000Y-152124D01*
X-371000Y-172742D02*
X-369984Y-171726D01*
X-368968D01*
X-369984Y-170710D01*
X-368968Y-169694D01*
X-369984D01*
X-371000Y-168678D01*
X-372016Y-169694D01*
X-373032D01*
X-372016Y-170710D01*
X-373032Y-171726D01*
X-372016D01*
X-371000Y-172742D01*
X-357000Y-185298D02*
X-355984Y-184282D01*
X-354968D01*
X-355984Y-183266D01*
X-354968Y-182250D01*
X-355984D01*
X-357000Y-181234D01*
X-358016Y-182250D01*
X-359032D01*
X-358016Y-183266D01*
X-359032Y-184282D01*
X-358016D01*
X-357000Y-185298D01*
X-354669Y-152032D02*
X-353653Y-151016D01*
X-352637D01*
X-353653Y-150000D01*
X-352637Y-148984D01*
X-353653D01*
X-354669Y-147968D01*
X-355685Y-148984D01*
X-356701D01*
X-355685Y-150000D01*
X-356701Y-151016D01*
X-355685D01*
X-354669Y-152032D01*
X-388000Y-121008D02*
X-386984Y-119992D01*
X-385968D01*
X-386984Y-118976D01*
X-385968Y-117960D01*
X-386984D01*
X-388000Y-116944D01*
X-389016Y-117960D01*
X-390032D01*
X-389016Y-118976D01*
X-390032Y-119992D01*
X-389016D01*
X-388000Y-121008D01*
X-395000Y-97032D02*
X-393984Y-96016D01*
X-392968D01*
X-393984Y-95000D01*
X-392968Y-93984D01*
X-393984D01*
X-395000Y-92968D01*
X-396016Y-93984D01*
X-397032D01*
X-396016Y-95000D01*
X-397032Y-96016D01*
X-396016D01*
X-395000Y-97032D01*
X-371000Y-122030D02*
X-369984Y-121014D01*
X-368968D01*
X-369984Y-119998D01*
X-368968Y-118982D01*
X-369984D01*
X-371000Y-117966D01*
X-372016Y-118982D01*
X-373032D01*
X-372016Y-119998D01*
X-373032Y-121014D01*
X-372016D01*
X-371000Y-122030D01*
X-360000Y-132032D02*
X-358984Y-131016D01*
X-357968D01*
X-358984Y-130000D01*
X-357968Y-128984D01*
X-358984D01*
X-360000Y-127968D01*
X-361016Y-128984D01*
X-362032D01*
X-361016Y-130000D01*
X-362032Y-131016D01*
X-361016D01*
X-360000Y-132032D01*
X-371000Y-90830D02*
X-369984Y-89814D01*
X-368968D01*
X-369984Y-88798D01*
X-368968Y-87782D01*
X-369984D01*
X-371000Y-86766D01*
X-372016Y-87782D01*
X-373032D01*
X-372016Y-88798D01*
X-373032Y-89814D01*
X-372016D01*
X-371000Y-90830D01*
X-357000Y-105380D02*
X-355984Y-104364D01*
X-354968D01*
X-355984Y-103348D01*
X-354968Y-102332D01*
X-355984D01*
X-357000Y-101316D01*
X-358016Y-102332D01*
X-359032D01*
X-358016Y-103348D01*
X-359032Y-104364D01*
X-358016D01*
X-357000Y-105380D01*
X-371000Y-65902D02*
X-369984Y-64886D01*
X-368968D01*
X-369984Y-63870D01*
X-368968Y-62854D01*
X-369984D01*
X-371000Y-61838D01*
X-372016Y-62854D01*
X-373032D01*
X-372016Y-63870D01*
X-373032Y-64886D01*
X-372016D01*
X-371000Y-65902D01*
Y-40030D02*
X-369984Y-39014D01*
X-368968D01*
X-369984Y-37998D01*
X-368968Y-36982D01*
X-369984D01*
X-371000Y-35966D01*
X-372016Y-36982D01*
X-373032D01*
X-372016Y-37998D01*
X-373032Y-39014D01*
X-372016D01*
X-371000Y-40030D01*
X-357000Y-81088D02*
X-355984Y-80072D01*
X-354968D01*
X-355984Y-79056D01*
X-354968Y-78040D01*
X-355984D01*
X-357000Y-77024D01*
X-358016Y-78040D01*
X-359032D01*
X-358016Y-79056D01*
X-359032Y-80072D01*
X-358016D01*
X-357000Y-81088D01*
Y-54032D02*
X-355984Y-53016D01*
X-354968D01*
X-355984Y-52000D01*
X-354968Y-50984D01*
X-355984D01*
X-357000Y-49968D01*
X-358016Y-50984D01*
X-359032D01*
X-358016Y-52000D01*
X-359032Y-53016D01*
X-358016D01*
X-357000Y-54032D01*
X-371000Y-11032D02*
X-369984Y-10016D01*
X-368968D01*
X-369984Y-9000D01*
X-368968Y-7984D01*
X-369984D01*
X-371000Y-6968D01*
X-372016Y-7984D01*
X-373032D01*
X-372016Y-9000D01*
X-373032Y-10016D01*
X-372016D01*
X-371000Y-11032D01*
X-357000Y-26630D02*
X-355984Y-25614D01*
X-354968D01*
X-355984Y-24598D01*
X-354968Y-23582D01*
X-355984D01*
X-357000Y-22566D01*
X-358016Y-23582D01*
X-359032D01*
X-358016Y-24598D01*
X-359032Y-25614D01*
X-358016D01*
X-357000Y-26630D01*
X-349000Y52426D02*
X-347984Y53442D01*
X-346968D01*
X-347984Y54458D01*
X-346968Y55474D01*
X-347984D01*
X-349000Y56490D01*
X-350016Y55474D01*
X-351032D01*
X-350016Y54458D01*
X-351032Y53442D01*
X-350016D01*
X-349000Y52426D01*
X-358056Y20968D02*
X-357040Y21984D01*
X-356024D01*
X-357040Y23000D01*
X-356024Y24016D01*
X-357040D01*
X-358056Y25032D01*
X-359072Y24016D01*
X-360088D01*
X-359072Y23000D01*
X-360088Y21984D01*
X-359072D01*
X-358056Y20968D01*
X-383592Y86417D02*
X-382576Y87433D01*
X-381560D01*
X-382576Y88449D01*
X-381560Y89465D01*
X-382576D01*
X-383592Y90481D01*
X-384608Y89465D01*
X-385624D01*
X-384608Y88449D01*
X-385624Y87433D01*
X-384608D01*
X-383592Y86417D01*
Y137468D02*
X-382576Y138484D01*
X-381560D01*
X-382576Y139500D01*
X-381560Y140516D01*
X-382576D01*
X-383592Y141532D01*
X-384608Y140516D01*
X-385624D01*
X-384608Y139500D01*
X-385624Y138484D01*
X-384608D01*
X-383592Y137468D01*
Y112968D02*
X-382576Y113984D01*
X-381560D01*
X-382576Y115000D01*
X-381560Y116016D01*
X-382576D01*
X-383592Y117032D01*
X-384608Y116016D01*
X-385624D01*
X-384608Y115000D01*
X-385624Y113984D01*
X-384608D01*
X-383592Y112968D01*
X-387500Y173514D02*
X-386484Y174530D01*
X-385468D01*
X-386484Y175546D01*
X-385468Y176562D01*
X-386484D01*
X-387500Y177578D01*
X-388516Y176562D01*
X-389532D01*
X-388516Y175546D01*
X-389532Y174530D01*
X-388516D01*
X-387500Y173514D01*
Y202339D02*
X-386484Y203355D01*
X-385468D01*
X-386484Y204371D01*
X-385468Y205387D01*
X-386484D01*
X-387500Y206403D01*
X-388516Y205387D01*
X-389532D01*
X-388516Y204371D01*
X-389532Y203355D01*
X-388516D01*
X-387500Y202339D01*
Y228468D02*
X-386484Y229484D01*
X-385468D01*
X-386484Y230500D01*
X-385468Y231516D01*
X-386484D01*
X-387500Y232532D01*
X-388516Y231516D01*
X-389532D01*
X-388516Y230500D01*
X-389532Y229484D01*
X-388516D01*
X-387500Y228468D01*
Y250620D02*
X-386484Y251636D01*
X-385468D01*
X-386484Y252652D01*
X-385468Y253668D01*
X-386484D01*
X-387500Y254684D01*
X-388516Y253668D01*
X-389532D01*
X-388516Y252652D01*
X-389532Y251636D01*
X-388516D01*
X-387500Y250620D01*
X-372798Y265126D02*
X-371782Y266142D01*
X-370766D01*
X-371782Y267158D01*
X-370766Y268174D01*
X-371782D01*
X-372798Y269190D01*
X-373814Y268174D01*
X-374830D01*
X-373814Y267158D01*
X-374830Y266142D01*
X-373814D01*
X-372798Y265126D01*
X-357129D02*
X-356113Y266142D01*
X-355097D01*
X-356113Y267158D01*
X-355097Y268174D01*
X-356113D01*
X-357129Y269190D01*
X-358145Y268174D01*
X-359161D01*
X-358145Y267158D01*
X-359161Y266142D01*
X-358145D01*
X-357129Y265126D01*
X-290527D02*
X-289511Y266142D01*
X-288495D01*
X-289511Y267158D01*
X-288495Y268174D01*
X-289511D01*
X-290527Y269190D01*
X-291543Y268174D01*
X-292559D01*
X-291543Y267158D01*
X-292559Y266142D01*
X-291543D01*
X-290527Y265126D01*
X-268181D02*
X-267166Y266142D01*
X-266150D01*
X-267166Y267158D01*
X-266150Y268174D01*
X-267166D01*
X-268181Y269190D01*
X-269198Y268174D01*
X-270214D01*
X-269198Y267158D01*
X-270214Y266142D01*
X-269198D01*
X-268181Y265126D01*
X-261203Y242491D02*
X-260187Y243507D01*
X-259172D01*
X-260187Y244523D01*
X-259172Y245539D01*
X-260187D01*
X-261203Y246555D01*
X-262220Y245539D01*
X-263235D01*
X-262220Y244523D01*
X-263235Y243507D01*
X-262220D01*
X-261203Y242491D01*
X-242000Y265126D02*
X-240984Y266142D01*
X-239968D01*
X-240984Y267158D01*
X-239968Y268174D01*
X-240984D01*
X-242000Y269190D01*
X-243016Y268174D01*
X-244032D01*
X-243016Y267158D01*
X-244032Y266142D01*
X-243016D01*
X-242000Y265126D01*
X-294582Y211098D02*
X-293566Y212114D01*
X-292550D01*
X-293566Y213130D01*
X-292550Y214146D01*
X-293566D01*
X-294582Y215162D01*
X-295598Y214146D01*
X-296614D01*
X-295598Y213130D01*
X-296614Y212114D01*
X-295598D01*
X-294582Y211098D01*
X-264000Y127968D02*
X-262983Y128984D01*
X-261968D01*
X-262983Y130000D01*
X-261968Y131016D01*
X-262983D01*
X-264000Y132032D01*
X-265016Y131016D01*
X-266031D01*
X-265016Y130000D01*
X-266031Y128984D01*
X-265016D01*
X-264000Y127968D01*
X-256000Y140968D02*
X-254984Y141984D01*
X-253967D01*
X-254984Y143000D01*
X-253967Y144016D01*
X-254984D01*
X-256000Y145032D01*
X-257015Y144016D01*
X-258032D01*
X-257015Y143000D01*
X-258032Y141984D01*
X-257015D01*
X-256000Y140968D01*
X-224566Y-167030D02*
X-223550Y-166014D01*
X-222534D01*
X-223550Y-164998D01*
X-222534Y-163982D01*
X-223550D01*
X-224566Y-162966D01*
X-225582Y-163982D01*
X-226598D01*
X-225582Y-164998D01*
X-226598Y-166014D01*
X-225582D01*
X-224566Y-167030D01*
X757500Y-324532D02*
X758516Y-323516D01*
X759532D01*
X758516Y-322500D01*
X759532Y-321484D01*
X758516D01*
X757500Y-320468D01*
X756484Y-321484D01*
X755468D01*
X756484Y-322500D01*
X755468Y-323516D01*
X756484D01*
X757500Y-324532D01*
X765000Y-332032D02*
X766016Y-331016D01*
X767032D01*
X766016Y-330000D01*
X767032Y-328984D01*
X766016D01*
X765000Y-327968D01*
X763984Y-328984D01*
X762968D01*
X763984Y-330000D01*
X762968Y-331016D01*
X763984D01*
X765000Y-332032D01*
X270000Y-281889D02*
X271016Y-280873D01*
X272032D01*
X271016Y-279857D01*
X272032Y-278841D01*
X271016D01*
X270000Y-277825D01*
X268984Y-278841D01*
X267968D01*
X268984Y-279857D01*
X267968Y-280873D01*
X268984D01*
X270000Y-281889D01*
X261798Y-273067D02*
X262814Y-272052D01*
X263830D01*
X262814Y-271035D01*
X263830Y-270019D01*
X262814D01*
X261798Y-269004D01*
X260782Y-270019D01*
X259766D01*
X260782Y-271035D01*
X259766Y-272052D01*
X260782D01*
X261798Y-273067D01*
X358000Y309968D02*
X359016Y310984D01*
X360032D01*
X359016Y312000D01*
X360032Y313016D01*
X359016D01*
X358000Y314032D01*
X356984Y313016D01*
X355968D01*
X356984Y312000D01*
X355968Y310984D01*
X356984D01*
X358000Y309968D01*
X365000Y317968D02*
X366016Y318984D01*
X367032D01*
X366016Y320000D01*
X367032Y321016D01*
X366016D01*
X365000Y322032D01*
X363984Y321016D01*
X362968D01*
X363984Y320000D01*
X362968Y318984D01*
X363984D01*
X365000Y317968D01*
X-273358Y-156032D02*
X-272342Y-155016D01*
X-271326D01*
X-272342Y-154000D01*
X-271326Y-152984D01*
X-272342D01*
X-273358Y-151968D01*
X-274374Y-152984D01*
X-275390D01*
X-274374Y-154000D01*
X-275390Y-155016D01*
X-274374D01*
X-273358Y-156032D01*
X74250D02*
X75266Y-155016D01*
X76282D01*
X75266Y-154000D01*
X76282Y-152984D01*
X75266D01*
X74250Y-151968D01*
X73234Y-152984D01*
X72218D01*
X73234Y-154000D01*
X72218Y-155016D01*
X73234D01*
X74250Y-156032D01*
X83000Y4968D02*
X84016Y5984D01*
X85032D01*
X84016Y7000D01*
X85032Y8016D01*
X84016D01*
X83000Y9032D01*
X81984Y8016D01*
X80968D01*
X81984Y7000D01*
X80968Y5984D01*
X81984D01*
X83000Y4968D01*
X66000Y14968D02*
X67016Y15984D01*
X68032D01*
X67016Y17000D01*
X68032Y18016D01*
X67016D01*
X66000Y19032D01*
X64984Y18016D01*
X63968D01*
X64984Y17000D01*
X63968Y15984D01*
X64984D01*
X66000Y14968D01*
X104669Y117968D02*
X105685Y118984D01*
X106701D01*
X105685Y120000D01*
X106701Y121016D01*
X105685D01*
X104669Y122032D01*
X103653Y121016D01*
X102637D01*
X103653Y120000D01*
X102637Y118984D01*
X103653D01*
X104669Y117968D01*
X91000Y4968D02*
X92016Y5984D01*
X93032D01*
X92016Y7000D01*
X93032Y8016D01*
X92016D01*
X91000Y9032D01*
X89984Y8016D01*
X88968D01*
X89984Y7000D01*
X88968Y5984D01*
X89984D01*
X91000Y4968D01*
X107667Y46971D02*
X108683Y47987D01*
X109699D01*
X108683Y49003D01*
X109699Y50019D01*
X108683D01*
X107667Y51035D01*
X106651Y50019D01*
X105635D01*
X106651Y49003D01*
X105635Y47987D01*
X106651D01*
X107667Y46971D01*
X182677Y123783D02*
X183694Y124799D01*
X184709D01*
X183694Y125815D01*
X184709Y126831D01*
X183694D01*
X182677Y127847D01*
X181661Y126831D01*
X180646D01*
X181661Y125815D01*
X180646Y124799D01*
X181661D01*
X182677Y123783D01*
X170000D02*
X171016Y124799D01*
X172032D01*
X171016Y125815D01*
X172032Y126831D01*
X171016D01*
X170000Y127847D01*
X168984Y126831D01*
X167968D01*
X168984Y125815D01*
X167968Y124799D01*
X168984D01*
X170000Y123783D01*
X157500D02*
X158516Y124799D01*
X159532D01*
X158516Y125815D01*
X159532Y126831D01*
X158516D01*
X157500Y127847D01*
X156484Y126831D01*
X155468D01*
X156484Y125815D01*
X155468Y124799D01*
X156484D01*
X157500Y123783D01*
X133917D02*
X134933Y124799D01*
X135949D01*
X134933Y125815D01*
X135949Y126831D01*
X134933D01*
X133917Y127847D01*
X132901Y126831D01*
X131885D01*
X132901Y125815D01*
X131885Y124799D01*
X132901D01*
X133917Y123783D01*
X495000Y33914D02*
X496016Y34930D01*
X497032D01*
X496016Y35946D01*
X497032Y36962D01*
X496016D01*
X495000Y37978D01*
X493984Y36962D01*
X492968D01*
X493984Y35946D01*
X492968Y34930D01*
X493984D01*
X495000Y33914D01*
X475000D02*
X476016Y34930D01*
X477032D01*
X476016Y35946D01*
X477032Y36962D01*
X476016D01*
X475000Y37978D01*
X473984Y36962D01*
X472968D01*
X473984Y35946D01*
X472968Y34930D01*
X473984D01*
X475000Y33914D01*
X485000D02*
X486016Y34930D01*
X487032D01*
X486016Y35946D01*
X487032Y36962D01*
X486016D01*
X485000Y37978D01*
X483984Y36962D01*
X482968D01*
X483984Y35946D01*
X482968Y34930D01*
X483984D01*
X485000Y33914D01*
X432661Y142965D02*
X433677Y143981D01*
X434693D01*
X433677Y144997D01*
X434693Y146013D01*
X433677D01*
X432661Y147029D01*
X431645Y146013D01*
X430629D01*
X431645Y144997D01*
X430629Y143981D01*
X431645D01*
X432661Y142965D01*
X342500Y80971D02*
X343516Y81987D01*
X344532D01*
X343516Y83003D01*
X344532Y84019D01*
X343516D01*
X342500Y85035D01*
X341484Y84019D01*
X340468D01*
X341484Y83003D01*
X340468Y81987D01*
X341484D01*
X342500Y80971D01*
X445161Y75468D02*
X446177Y76484D01*
X447193D01*
X446177Y77500D01*
X447193Y78516D01*
X446177D01*
X445161Y79532D01*
X444145Y78516D01*
X443129D01*
X444145Y77500D01*
X443129Y76484D01*
X444145D01*
X445161Y75468D01*
X432661Y67968D02*
X433677Y68984D01*
X434693D01*
X433677Y70000D01*
X434693Y71016D01*
X433677D01*
X432661Y72032D01*
X431645Y71016D01*
X430629D01*
X431645Y70000D01*
X430629Y68984D01*
X431645D01*
X432661Y67968D01*
X382911Y70462D02*
X383927Y71478D01*
X384944D01*
X383927Y72494D01*
X384944Y73510D01*
X383927D01*
X382911Y74526D01*
X381895Y73510D01*
X380880D01*
X381895Y72494D01*
X380880Y71478D01*
X381895D01*
X382911Y70462D01*
X525950D02*
X526966Y71478D01*
X527982D01*
X526966Y72494D01*
X527982Y73510D01*
X526966D01*
X525950Y74526D01*
X524934Y73510D01*
X523918D01*
X524934Y72494D01*
X523918Y71478D01*
X524934D01*
X525950Y70462D01*
X470161Y60057D02*
X471177Y61073D01*
X472193D01*
X471177Y62088D01*
X472193Y63105D01*
X471177D01*
X470161Y64120D01*
X469145Y63105D01*
X468129D01*
X469145Y62088D01*
X468129Y61073D01*
X469145D01*
X470161Y60057D01*
X457500Y50468D02*
X458516Y51484D01*
X459532D01*
X458516Y52500D01*
X459532Y53516D01*
X458516D01*
X457500Y54532D01*
X456484Y53516D01*
X455468D01*
X456484Y52500D01*
X455468Y51484D01*
X456484D01*
X457500Y50468D01*
X332500Y67968D02*
X333516Y68984D01*
X334532D01*
X333516Y70000D01*
X334532Y71016D01*
X333516D01*
X332500Y72032D01*
X331484Y71016D01*
X330468D01*
X331484Y70000D01*
X330468Y68984D01*
X331484D01*
X332500Y67968D01*
X367500Y60468D02*
X368516Y61484D01*
X369532D01*
X368516Y62500D01*
X369532Y63516D01*
X368516D01*
X367500Y64532D01*
X366484Y63516D01*
X365468D01*
X366484Y62500D01*
X365468Y61484D01*
X366484D01*
X367500Y60468D01*
X352500Y50468D02*
X353516Y51484D01*
X354532D01*
X353516Y52500D01*
X354532Y53516D01*
X353516D01*
X352500Y54532D01*
X351484Y53516D01*
X350468D01*
X351484Y52500D01*
X350468Y51484D01*
X351484D01*
X352500Y50468D01*
X561200Y45958D02*
X562216Y46974D01*
X563232D01*
X562216Y47990D01*
X563232Y49006D01*
X562216D01*
X561200Y50022D01*
X560184Y49006D01*
X559168D01*
X560184Y47990D01*
X559168Y46974D01*
X560184D01*
X561200Y45958D01*
X551200D02*
X552216Y46974D01*
X553232D01*
X552216Y47990D01*
X553232Y49006D01*
X552216D01*
X551200Y50022D01*
X550184Y49006D01*
X549168D01*
X550184Y47990D01*
X549168Y46974D01*
X550184D01*
X551200Y45958D01*
X546200Y17968D02*
X547216Y18984D01*
X548232D01*
X547216Y20000D01*
X548232Y21016D01*
X547216D01*
X546200Y22032D01*
X545184Y21016D01*
X544168D01*
X545184Y20000D01*
X544168Y18984D01*
X545184D01*
X546200Y17968D01*
X541200Y45958D02*
X542216Y46974D01*
X543232D01*
X542216Y47990D01*
X543232Y49006D01*
X542216D01*
X541200Y50022D01*
X540184Y49006D01*
X539168D01*
X540184Y47990D01*
X539168Y46974D01*
X540184D01*
X541200Y45958D01*
X503450Y-1470D02*
X504466Y-454D01*
X505482D01*
X504466Y562D01*
X505482Y1578D01*
X504466D01*
X503450Y2594D01*
X502434Y1578D01*
X501418D01*
X502434Y562D01*
X501418Y-454D01*
X502434D01*
X503450Y-1470D01*
X593950D02*
X594966Y-454D01*
X595982D01*
X594966Y562D01*
X595982Y1578D01*
X594966D01*
X593950Y2594D01*
X592934Y1578D01*
X591918D01*
X592934Y562D01*
X591918Y-454D01*
X592934D01*
X593950Y-1470D01*
X514998Y33914D02*
X516014Y34930D01*
X517030D01*
X516014Y35946D01*
X517030Y36962D01*
X516014D01*
X514998Y37978D01*
X513982Y36962D01*
X512966D01*
X513982Y35946D01*
X512966Y34930D01*
X513982D01*
X514998Y33914D01*
X-242000Y102846D02*
X-240984Y103862D01*
X-239968D01*
X-240984Y104878D01*
X-239968Y105894D01*
X-240984D01*
X-242000Y106910D01*
X-243016Y105894D01*
X-244032D01*
X-243016Y104878D01*
X-244032Y103862D01*
X-243016D01*
X-242000Y102846D01*
X-387500Y302968D02*
X-386484Y303984D01*
X-385468D01*
X-386484Y305000D01*
X-385468Y306016D01*
X-386484D01*
X-387500Y307032D01*
X-388516Y306016D01*
X-389532D01*
X-388516Y305000D01*
X-389532Y303984D01*
X-388516D01*
X-387500Y302968D01*
X-357500Y330468D02*
X-356484Y331484D01*
X-355468D01*
X-356484Y332500D01*
X-355468Y333516D01*
X-356484D01*
X-357500Y334532D01*
X-358516Y333516D01*
X-359532D01*
X-358516Y332500D01*
X-359532Y331484D01*
X-358516D01*
X-357500Y330468D01*
X-391448Y149020D02*
X-390432Y150036D01*
X-389416D01*
X-390432Y151052D01*
X-389416Y152068D01*
X-390432D01*
X-391448Y153084D01*
X-392464Y152068D01*
X-393480D01*
X-392464Y151052D01*
X-393480Y150036D01*
X-392464D01*
X-391448Y149020D01*
X-392500Y125468D02*
X-391484Y126484D01*
X-390468D01*
X-391484Y127500D01*
X-390468Y128516D01*
X-391484D01*
X-392500Y129532D01*
X-393516Y128516D01*
X-394532D01*
X-393516Y127500D01*
X-394532Y126484D01*
X-393516D01*
X-392500Y125468D01*
Y100037D02*
X-391484Y101053D01*
X-390468D01*
X-391484Y102069D01*
X-390468Y103085D01*
X-391484D01*
X-392500Y104101D01*
X-393516Y103085D01*
X-394532D01*
X-393516Y102069D01*
X-394532Y101053D01*
X-393516D01*
X-392500Y100037D01*
X-385000Y72968D02*
X-383984Y73984D01*
X-382968D01*
X-383984Y75000D01*
X-382968Y76016D01*
X-383984D01*
X-385000Y77032D01*
X-386016Y76016D01*
X-387032D01*
X-386016Y75000D01*
X-387032Y73984D01*
X-386016D01*
X-385000Y72968D01*
X-364806Y240468D02*
X-363790Y241484D01*
X-362774D01*
X-363790Y242500D01*
X-362774Y243516D01*
X-363790D01*
X-364806Y244532D01*
X-365822Y243516D01*
X-366838D01*
X-365822Y242500D01*
X-366838Y241484D01*
X-365822D01*
X-364806Y240468D01*
X-358056Y225509D02*
X-357040Y226525D01*
X-356024D01*
X-357040Y227541D01*
X-356024Y228557D01*
X-357040D01*
X-358056Y229573D01*
X-359072Y228557D01*
X-360088D01*
X-359072Y227541D01*
X-360088Y226525D01*
X-359072D01*
X-358056Y225509D01*
Y200468D02*
X-357040Y201484D01*
X-356024D01*
X-357040Y202500D01*
X-356024Y203516D01*
X-357040D01*
X-358056Y204532D01*
X-359072Y203516D01*
X-360088D01*
X-359072Y202500D01*
X-360088Y201484D01*
X-359072D01*
X-358056Y200468D01*
X-351306Y175468D02*
X-350290Y176484D01*
X-349274D01*
X-350290Y177500D01*
X-349274Y178516D01*
X-350290D01*
X-351306Y179532D01*
X-352322Y178516D01*
X-353338D01*
X-352322Y177500D01*
X-353338Y176484D01*
X-352322D01*
X-351306Y175468D01*
X-280000Y250620D02*
X-278984Y251636D01*
X-277968D01*
X-278984Y252652D01*
X-277968Y253668D01*
X-278984D01*
X-280000Y254684D01*
X-281016Y253668D01*
X-282032D01*
X-281016Y252652D01*
X-282032Y251636D01*
X-281016D01*
X-280000Y250620D01*
X-235286Y173514D02*
X-234270Y174530D01*
X-233254D01*
X-234270Y175546D01*
X-233254Y176562D01*
X-234270D01*
X-235286Y177578D01*
X-236302Y176562D01*
X-237318D01*
X-236302Y175546D01*
X-237318Y174530D01*
X-236302D01*
X-235286Y173514D01*
X-217500Y195468D02*
X-216484Y196484D01*
X-215468D01*
X-216484Y197500D01*
X-215468Y198516D01*
X-216484D01*
X-217500Y199532D01*
X-218516Y198516D01*
X-219532D01*
X-218516Y197500D01*
X-219532Y196484D01*
X-218516D01*
X-217500Y195468D01*
X-236287Y183514D02*
X-235271Y184530D01*
X-234256D01*
X-235271Y185546D01*
X-234256Y186562D01*
X-235271D01*
X-236287Y187578D01*
X-237304Y186562D01*
X-238319D01*
X-237304Y185546D01*
X-238319Y184530D01*
X-237304D01*
X-236287Y183514D01*
X-268181Y217968D02*
X-267166Y218984D01*
X-266150D01*
X-267166Y220000D01*
X-266150Y221016D01*
X-267166D01*
X-268181Y222032D01*
X-269198Y221016D01*
X-270214D01*
X-269198Y220000D01*
X-270214Y218984D01*
X-269198D01*
X-268181Y217968D01*
X-261672Y224753D02*
X-260657Y225770D01*
X-259641D01*
X-260657Y226786D01*
X-259641Y227801D01*
X-260657D01*
X-261672Y228818D01*
X-262689Y227801D01*
X-263704D01*
X-262689Y226786D01*
X-263704Y225770D01*
X-262689D01*
X-261672Y224753D01*
X-252500Y232620D02*
X-251484Y233636D01*
X-250468D01*
X-251484Y234652D01*
X-250468Y235668D01*
X-251484D01*
X-252500Y236684D01*
X-253516Y235668D01*
X-254532D01*
X-253516Y234652D01*
X-254532Y233636D01*
X-253516D01*
X-252500Y232620D01*
X-245000Y240468D02*
X-243983Y241484D01*
X-242967D01*
X-243983Y242500D01*
X-242967Y243516D01*
X-243983D01*
X-245000Y244532D01*
X-246015Y243516D01*
X-247031D01*
X-246015Y242500D01*
X-247031Y241484D01*
X-246015D01*
X-245000Y240468D01*
X-238037Y247968D02*
X-237022Y248984D01*
X-236005D01*
X-237022Y250000D01*
X-236005Y251016D01*
X-237022D01*
X-238037Y252032D01*
X-239053Y251016D01*
X-240070D01*
X-239053Y250000D01*
X-240070Y248984D01*
X-239053D01*
X-238037Y247968D01*
X-231701Y255468D02*
X-230685Y256484D01*
X-229669D01*
X-230685Y257500D01*
X-229669Y258516D01*
X-230685D01*
X-231701Y259532D01*
X-232717Y258516D01*
X-233733D01*
X-232717Y257500D01*
X-233733Y256484D01*
X-232717D01*
X-231701Y255468D01*
X-281051Y90564D02*
X-280035Y91580D01*
X-279019D01*
X-280035Y92596D01*
X-279019Y93612D01*
X-280035D01*
X-281051Y94628D01*
X-282067Y93612D01*
X-283083D01*
X-282067Y92596D01*
X-283083Y91580D01*
X-282067D01*
X-281051Y90564D01*
X-215000Y267968D02*
X-213984Y268984D01*
X-212968D01*
X-213984Y270000D01*
X-212968Y271016D01*
X-213984D01*
X-215000Y272032D01*
X-216016Y271016D01*
X-217032D01*
X-216016Y270000D01*
X-217032Y268984D01*
X-216016D01*
X-215000Y267968D01*
X-225000Y261218D02*
X-223984Y262234D01*
X-222968D01*
X-223984Y263250D01*
X-222968Y264266D01*
X-223984D01*
X-225000Y265282D01*
X-226016Y264266D01*
X-227032D01*
X-226016Y263250D01*
X-227032Y262234D01*
X-226016D01*
X-225000Y261218D01*
X-238037Y155468D02*
X-237022Y156484D01*
X-236005D01*
X-237022Y157500D01*
X-236005Y158516D01*
X-237022D01*
X-238037Y159532D01*
X-239053Y158516D01*
X-240070D01*
X-239053Y157500D01*
X-240070Y156484D01*
X-239053D01*
X-238037Y155468D01*
X-273551Y286420D02*
X-272535Y287436D01*
X-271519D01*
X-272535Y288452D01*
X-271519Y289468D01*
X-272535D01*
X-273551Y290484D01*
X-274567Y289468D01*
X-275583D01*
X-274567Y288452D01*
X-275583Y287436D01*
X-274567D01*
X-273551Y286420D01*
X-289150Y322093D02*
X-288134Y323109D01*
X-287118D01*
X-288134Y324125D01*
X-287118Y325141D01*
X-288134D01*
X-289150Y326157D01*
X-290166Y325141D01*
X-291182D01*
X-290166Y324125D01*
X-291182Y323109D01*
X-290166D01*
X-289150Y322093D01*
X820477Y-74532D02*
X821493Y-73516D01*
X822509D01*
X821493Y-72500D01*
X822509Y-71484D01*
X821493D01*
X820477Y-70468D01*
X819461Y-71484D01*
X818445D01*
X819461Y-72500D01*
X818445Y-73516D01*
X819461D01*
X820477Y-74532D01*
X775477D02*
X776493Y-73516D01*
X777509D01*
X776493Y-72500D01*
X777509Y-71484D01*
X776493D01*
X775477Y-70468D01*
X774461Y-71484D01*
X773445D01*
X774461Y-72500D01*
X773445Y-73516D01*
X774461D01*
X775477Y-74532D01*
X820477Y64446D02*
X821493Y65462D01*
X822509D01*
X821493Y66477D01*
X822509Y67494D01*
X821493D01*
X820477Y68509D01*
X819461Y67494D01*
X818445D01*
X819461Y66477D01*
X818445Y65462D01*
X819461D01*
X820477Y64446D01*
X775477D02*
X776493Y65462D01*
X777509D01*
X776493Y66477D01*
X777509Y67494D01*
X776493D01*
X775477Y68509D01*
X774461Y67494D01*
X773445D01*
X774461Y66477D01*
X773445Y65462D01*
X774461D01*
X775477Y64446D01*
X-535477Y-65430D02*
X-534461Y-64414D01*
X-533445D01*
X-534461Y-63398D01*
X-533445Y-62382D01*
X-534461D01*
X-535477Y-61366D01*
X-536493Y-62382D01*
X-537509D01*
X-536493Y-63398D01*
X-537509Y-64414D01*
X-536493D01*
X-535477Y-65430D01*
X-578591D02*
X-577575Y-64414D01*
X-576559D01*
X-577575Y-63398D01*
X-576559Y-62382D01*
X-577575D01*
X-578591Y-61366D01*
X-579608Y-62382D01*
X-580624D01*
X-579608Y-63398D01*
X-580624Y-64414D01*
X-579608D01*
X-578591Y-65430D01*
X-535477Y68702D02*
X-534461Y69718D01*
X-533445D01*
X-534461Y70734D01*
X-533445Y71750D01*
X-534461D01*
X-535477Y72766D01*
X-536493Y71750D01*
X-537509D01*
X-536493Y70734D01*
X-537509Y69718D01*
X-536493D01*
X-535477Y68702D01*
X-578591D02*
X-577575Y69718D01*
X-576559D01*
X-577575Y70734D01*
X-576559Y71750D01*
X-577575D01*
X-578591Y72766D01*
X-579608Y71750D01*
X-580624D01*
X-579608Y70734D01*
X-580624Y69718D01*
X-579608D01*
X-578591Y68702D01*
X-135141Y-192430D02*
X-134125Y-191414D01*
X-133109D01*
X-134125Y-190398D01*
X-133109Y-189382D01*
X-134125D01*
X-135141Y-188366D01*
X-136157Y-189382D01*
X-137173D01*
X-136157Y-190398D01*
X-137173Y-191414D01*
X-136157D01*
X-135141Y-192430D01*
Y-254532D02*
X-134125Y-253516D01*
X-133109D01*
X-134125Y-252500D01*
X-133109Y-251484D01*
X-134125D01*
X-135141Y-250468D01*
X-136157Y-251484D01*
X-137173D01*
X-136157Y-252500D01*
X-137173Y-253516D01*
X-136157D01*
X-135141Y-254532D01*
X-224566D02*
X-223550Y-253516D01*
X-222534D01*
X-223550Y-252500D01*
X-222534Y-251484D01*
X-223550D01*
X-224566Y-250468D01*
X-225582Y-251484D01*
X-226598D01*
X-225582Y-252500D01*
X-226598Y-253516D01*
X-225582D01*
X-224566Y-254532D01*
X-525000Y-332032D02*
X-523984Y-331016D01*
X-522968D01*
X-523984Y-330000D01*
X-522968Y-328984D01*
X-523984D01*
X-525000Y-327968D01*
X-526016Y-328984D01*
X-527032D01*
X-526016Y-330000D01*
X-527032Y-331016D01*
X-526016D01*
X-525000Y-332032D01*
X-517500Y-324532D02*
X-516484Y-323516D01*
X-515468D01*
X-516484Y-322500D01*
X-515468Y-321484D01*
X-516484D01*
X-517500Y-320468D01*
X-518516Y-321484D01*
X-519532D01*
X-518516Y-322500D01*
X-519532Y-323516D01*
X-518516D01*
X-517500Y-324532D01*
X-582498Y117966D02*
X-581482Y118982D01*
X-580466D01*
X-581482Y119998D01*
X-580466Y121014D01*
X-581482D01*
X-582498Y122030D01*
X-583514Y121014D01*
X-584530D01*
X-583514Y119998D01*
X-584530Y118982D01*
X-583514D01*
X-582498Y117966D01*
X-582500Y259968D02*
X-581484Y260984D01*
X-580468D01*
X-581484Y262000D01*
X-580468Y263016D01*
X-581484D01*
X-582500Y264032D01*
X-583516Y263016D01*
X-584532D01*
X-583516Y262000D01*
X-584532Y260984D01*
X-583516D01*
X-582500Y259968D01*
X-582498Y225968D02*
X-581482Y226984D01*
X-580466D01*
X-581482Y228000D01*
X-580466Y229016D01*
X-581482D01*
X-582498Y230032D01*
X-583514Y229016D01*
X-584530D01*
X-583514Y228000D01*
X-584530Y226984D01*
X-583514D01*
X-582498Y225968D01*
Y136968D02*
X-581482Y137984D01*
X-580466D01*
X-581482Y139000D01*
X-580466Y140016D01*
X-581482D01*
X-582498Y141032D01*
X-583514Y140016D01*
X-584530D01*
X-583514Y139000D01*
X-584530Y137984D01*
X-583514D01*
X-582498Y136968D01*
Y-122030D02*
X-581482Y-121014D01*
X-580466D01*
X-581482Y-119998D01*
X-580466Y-118982D01*
X-581482D01*
X-582498Y-117966D01*
X-583514Y-118982D01*
X-584530D01*
X-583514Y-119998D01*
X-584530Y-121014D01*
X-583514D01*
X-582498Y-122030D01*
X-582500Y-264032D02*
X-581484Y-263016D01*
X-580468D01*
X-581484Y-262000D01*
X-580468Y-260984D01*
X-581484D01*
X-582500Y-259968D01*
X-583516Y-260984D01*
X-584532D01*
X-583516Y-262000D01*
X-584532Y-263016D01*
X-583516D01*
X-582500Y-264032D01*
X-582498Y-230032D02*
X-581482Y-229016D01*
X-580466D01*
X-581482Y-228000D01*
X-580466Y-226984D01*
X-581482D01*
X-582498Y-225968D01*
X-583514Y-226984D01*
X-584530D01*
X-583514Y-228000D01*
X-584530Y-229016D01*
X-583514D01*
X-582498Y-230032D01*
Y-141032D02*
X-581482Y-140016D01*
X-580466D01*
X-581482Y-139000D01*
X-580466Y-137984D01*
X-581482D01*
X-582498Y-136968D01*
X-583514Y-137984D01*
X-584530D01*
X-583514Y-139000D01*
X-584530Y-140016D01*
X-583514D01*
X-582498Y-141032D01*
X822498Y-122030D02*
X823514Y-121014D01*
X824530D01*
X823514Y-119998D01*
X824530Y-118982D01*
X823514D01*
X822498Y-117966D01*
X821482Y-118982D01*
X820466D01*
X821482Y-119998D01*
X820466Y-121014D01*
X821482D01*
X822498Y-122030D01*
X822500Y-264032D02*
X823516Y-263016D01*
X824532D01*
X823516Y-262000D01*
X824532Y-260984D01*
X823516D01*
X822500Y-259968D01*
X821484Y-260984D01*
X820468D01*
X821484Y-262000D01*
X820468Y-263016D01*
X821484D01*
X822500Y-264032D01*
X822498Y-230032D02*
X823514Y-229016D01*
X824530D01*
X823514Y-228000D01*
X824530Y-226984D01*
X823514D01*
X822498Y-225968D01*
X821482Y-226984D01*
X820466D01*
X821482Y-228000D01*
X820466Y-229016D01*
X821482D01*
X822498Y-230032D01*
Y-141032D02*
X823514Y-140016D01*
X824530D01*
X823514Y-139000D01*
X824530Y-137984D01*
X823514D01*
X822498Y-136968D01*
X821482Y-137984D01*
X820466D01*
X821482Y-139000D01*
X820466Y-140016D01*
X821482D01*
X822498Y-141032D01*
Y136968D02*
X823514Y137984D01*
X824530D01*
X823514Y139000D01*
X824530Y140016D01*
X823514D01*
X822498Y141032D01*
X821482Y140016D01*
X820466D01*
X821482Y139000D01*
X820466Y137984D01*
X821482D01*
X822498Y136968D01*
Y225968D02*
X823514Y226984D01*
X824530D01*
X823514Y228000D01*
X824530Y229016D01*
X823514D01*
X822498Y230032D01*
X821482Y229016D01*
X820466D01*
X821482Y228000D01*
X820466Y226984D01*
X821482D01*
X822498Y225968D01*
X822500Y259968D02*
X823516Y260984D01*
X824532D01*
X823516Y262000D01*
X824532Y263016D01*
X823516D01*
X822500Y264032D01*
X821484Y263016D01*
X820468D01*
X821484Y262000D01*
X820468Y260984D01*
X821484D01*
X822500Y259968D01*
X822498Y117966D02*
X823514Y118982D01*
X824530D01*
X823514Y119998D01*
X824530Y121014D01*
X823514D01*
X822498Y122030D01*
X821482Y121014D01*
X820466D01*
X821482Y119998D01*
X820466Y118982D01*
X821482D01*
X822498Y117966D01*
X15000Y64446D02*
X16016Y65462D01*
X17032D01*
X16016Y66477D01*
X17032Y67494D01*
X16016D01*
X15000Y68509D01*
X13984Y67494D01*
X12968D01*
X13984Y66477D01*
X12968Y65462D01*
X13984D01*
X15000Y64446D01*
X-12500D02*
X-11484Y65462D01*
X-10468D01*
X-11484Y66477D01*
X-10468Y67494D01*
X-11484D01*
X-12500Y68509D01*
X-13516Y67494D01*
X-14532D01*
X-13516Y66477D01*
X-14532Y65462D01*
X-13516D01*
X-12500Y64446D01*
X488Y75468D02*
X1505Y76484D01*
X2521D01*
X1505Y77500D01*
X2521Y78516D01*
X1505D01*
X488Y79532D01*
X-527Y78516D01*
X-1543D01*
X-527Y77500D01*
X-1543Y76484D01*
X-527D01*
X488Y75468D01*
X-42262Y71708D02*
X-41245Y72724D01*
X-40230D01*
X-41245Y73740D01*
X-40230Y74756D01*
X-41245D01*
X-42262Y75772D01*
X-43278Y74756D01*
X-44293D01*
X-43278Y73740D01*
X-44293Y72724D01*
X-43278D01*
X-42262Y71708D01*
X-77262D02*
X-76245Y72724D01*
X-75230D01*
X-76245Y73740D01*
X-75230Y74756D01*
X-76245D01*
X-77262Y75772D01*
X-78278Y74756D01*
X-79293D01*
X-78278Y73740D01*
X-79293Y72724D01*
X-78278D01*
X-77262Y71708D01*
X352900Y-250032D02*
X353916Y-249016D01*
X354932D01*
X353916Y-248000D01*
X354932Y-246984D01*
X353916D01*
X352900Y-245968D01*
X351884Y-246984D01*
X350868D01*
X351884Y-248000D01*
X350868Y-249016D01*
X351884D01*
X352900Y-250032D01*
X395250Y12660D02*
X396266Y13677D01*
X397282D01*
X396266Y14692D01*
X397282Y15709D01*
X396266D01*
X395250Y16724D01*
X394234Y15709D01*
X393218D01*
X394234Y14692D01*
X393218Y13677D01*
X394234D01*
X395250Y12660D01*
Y-11398D02*
X396266Y-10382D01*
X397282D01*
X396266Y-9366D01*
X397282Y-8350D01*
X396266D01*
X395250Y-7334D01*
X394234Y-8350D01*
X393218D01*
X394234Y-9366D01*
X393218Y-10382D01*
X394234D01*
X395250Y-11398D01*
X304750D02*
X305766Y-10382D01*
X306782D01*
X305766Y-9366D01*
X306782Y-8350D01*
X305766D01*
X304750Y-7334D01*
X303734Y-8350D01*
X302718D01*
X303734Y-9366D01*
X302718Y-10382D01*
X303734D01*
X304750Y-11398D01*
Y12660D02*
X305766Y13677D01*
X306782D01*
X305766Y14692D01*
X306782Y15709D01*
X305766D01*
X304750Y16724D01*
X303734Y15709D01*
X302718D01*
X303734Y14692D01*
X302718Y13677D01*
X303734D01*
X304750Y12660D01*
X382911Y33914D02*
X383927Y34930D01*
X384944D01*
X383927Y35946D01*
X384944Y36962D01*
X383927D01*
X382911Y37978D01*
X381895Y36962D01*
X380880D01*
X381895Y35946D01*
X380880Y34930D01*
X381895D01*
X382911Y33914D01*
X-226903Y67468D02*
X-225887Y68484D01*
X-224871D01*
X-225887Y69500D01*
X-224871Y70516D01*
X-225887D01*
X-226903Y71532D01*
X-227919Y70516D01*
X-228935D01*
X-227919Y69500D01*
X-228935Y68484D01*
X-227919D01*
X-226903Y67468D01*
X-252500Y66972D02*
X-251484Y67988D01*
X-250468D01*
X-251484Y69004D01*
X-250468Y70020D01*
X-251484D01*
X-252500Y71036D01*
X-253516Y70020D01*
X-254532D01*
X-253516Y69004D01*
X-254532Y67988D01*
X-253516D01*
X-252500Y66972D01*
X-205082Y94619D02*
X-204066Y95635D01*
X-203050D01*
X-204066Y96651D01*
X-203050Y97667D01*
X-204066D01*
X-205082Y98683D01*
X-206098Y97667D01*
X-207114D01*
X-206098Y96651D01*
X-207114Y95635D01*
X-206098D01*
X-205082Y94619D01*
X112500Y-324930D02*
X113516Y-323914D01*
X114532D01*
X113516Y-322898D01*
X114532Y-321882D01*
X113516D01*
X112500Y-320866D01*
X111484Y-321882D01*
X110468D01*
X111484Y-322898D01*
X110468Y-323914D01*
X111484D01*
X112500Y-324930D01*
X87252D02*
X88268Y-323914D01*
X89284D01*
X88268Y-322898D01*
X89284Y-321882D01*
X88268D01*
X87252Y-320866D01*
X86236Y-321882D01*
X85220D01*
X86236Y-322898D01*
X85220Y-323914D01*
X86236D01*
X87252Y-324930D01*
X-220681Y71050D02*
X-219665Y72066D01*
X-218649D01*
X-219665Y73082D01*
X-218649Y74098D01*
X-219665D01*
X-220681Y75114D01*
X-221697Y74098D01*
X-222713D01*
X-221697Y73082D01*
X-222713Y72066D01*
X-221697D01*
X-220681Y71050D01*
X-204262Y71470D02*
X-203246Y72486D01*
X-202230D01*
X-203246Y73502D01*
X-202230Y74518D01*
X-203246D01*
X-204262Y75534D01*
X-205278Y74518D01*
X-206294D01*
X-205278Y73502D01*
X-206294Y72486D01*
X-205278D01*
X-204262Y71470D01*
X-240012Y75957D02*
X-238995Y76972D01*
X-237980D01*
X-238995Y77989D01*
X-237980Y79005D01*
X-238995D01*
X-240012Y80021D01*
X-241028Y79005D01*
X-242043D01*
X-241028Y77989D01*
X-242043Y76972D01*
X-241028D01*
X-240012Y75957D01*
X145167Y123783D02*
X146183Y124799D01*
X147199D01*
X146183Y125815D01*
X147199Y126831D01*
X146183D01*
X145167Y127847D01*
X144151Y126831D01*
X143135D01*
X144151Y125815D01*
X143135Y124799D01*
X144151D01*
X145167Y123783D01*
X244583Y-282032D02*
X245599Y-281016D01*
X246615D01*
X245599Y-280000D01*
X246615Y-278984D01*
X245599D01*
X244583Y-277968D01*
X243567Y-278984D01*
X242551D01*
X243567Y-280000D01*
X242551Y-281016D01*
X243567D01*
X244583Y-282032D01*
X234583Y-294532D02*
X235599Y-293516D01*
X236615D01*
X235599Y-292500D01*
X236615Y-291484D01*
X235599D01*
X234583Y-290468D01*
X233567Y-291484D01*
X232551D01*
X233567Y-292500D01*
X232551Y-293516D01*
X233567D01*
X234583Y-294532D01*
X120167Y123783D02*
X121183Y124799D01*
X122199D01*
X121183Y125815D01*
X122199Y126831D01*
X121183D01*
X120167Y127847D01*
X119151Y126831D01*
X118135D01*
X119151Y125815D01*
X118135Y124799D01*
X119151D01*
X120167Y123783D01*
X224583Y-294532D02*
X225599Y-293516D01*
X226615D01*
X225599Y-292500D01*
X226615Y-291484D01*
X225599D01*
X224583Y-290468D01*
X223567Y-291484D01*
X222551D01*
X223567Y-292500D01*
X222551Y-293516D01*
X223567D01*
X224583Y-294532D01*
X244583D02*
X245599Y-293516D01*
X246615D01*
X245599Y-292500D01*
X246615Y-291484D01*
X245599D01*
X244583Y-290468D01*
X243567Y-291484D01*
X242551D01*
X243567Y-292500D01*
X242551Y-293516D01*
X243567D01*
X244583Y-294532D01*
X-273303Y-206580D02*
X-272287Y-205564D01*
X-271271D01*
X-272287Y-204548D01*
X-271271Y-203532D01*
X-272287D01*
X-273303Y-202516D01*
X-274319Y-203532D01*
X-275335D01*
X-274319Y-204548D01*
X-275335Y-205564D01*
X-274319D01*
X-273303Y-206580D01*
X305650Y-197032D02*
X306666Y-196016D01*
X307682D01*
X306666Y-195000D01*
X307682Y-193984D01*
X306666D01*
X305650Y-192968D01*
X304634Y-193984D01*
X303618D01*
X304634Y-195000D01*
X303618Y-196016D01*
X304634D01*
X305650Y-197032D01*
X318650D02*
X319666Y-196016D01*
X320682D01*
X319666Y-195000D01*
X320682Y-193984D01*
X319666D01*
X318650Y-192968D01*
X317634Y-193984D01*
X316618D01*
X317634Y-195000D01*
X316618Y-196016D01*
X317634D01*
X318650Y-197032D01*
X344650D02*
X345666Y-196016D01*
X346682D01*
X345666Y-195000D01*
X346682Y-193984D01*
X345666D01*
X344650Y-192968D01*
X343634Y-193984D01*
X342618D01*
X343634Y-195000D01*
X342618Y-196016D01*
X343634D01*
X344650Y-197032D01*
X357650D02*
X358666Y-196016D01*
X359682D01*
X358666Y-195000D01*
X359682Y-193984D01*
X358666D01*
X357650Y-192968D01*
X356634Y-193984D01*
X355618D01*
X356634Y-195000D01*
X355618Y-196016D01*
X356634D01*
X357650Y-197032D01*
X331650D02*
X332666Y-196016D01*
X333682D01*
X332666Y-195000D01*
X333682Y-193984D01*
X332666D01*
X331650Y-192968D01*
X330634Y-193984D01*
X329618D01*
X330634Y-195000D01*
X329618Y-196016D01*
X330634D01*
X331650Y-197032D01*
X292650D02*
X293666Y-196016D01*
X294682D01*
X293666Y-195000D01*
X294682Y-193984D01*
X293666D01*
X292650Y-192968D01*
X291634Y-193984D01*
X290618D01*
X291634Y-195000D01*
X290618Y-196016D01*
X291634D01*
X292650Y-197032D01*
X86803Y317968D02*
X87819Y318984D01*
X88835D01*
X87819Y320000D01*
X88835Y321016D01*
X87819D01*
X86803Y322032D01*
X85787Y321016D01*
X84771D01*
X85787Y320000D01*
X84771Y318984D01*
X85787D01*
X86803Y317968D01*
X149299D02*
X150315Y318984D01*
X151331D01*
X150315Y320000D01*
X151331Y321016D01*
X150315D01*
X149299Y322032D01*
X148283Y321016D01*
X147267D01*
X148283Y320000D01*
X147267Y318984D01*
X148283D01*
X149299Y317968D01*
X95667Y121471D02*
X96683Y122487D01*
X97699D01*
X96683Y123503D01*
X97699Y124519D01*
X96683D01*
X95667Y125535D01*
X94651Y124519D01*
X93635D01*
X94651Y123503D01*
X93635Y122487D01*
X94651D01*
X95667Y121471D01*
X62667Y147471D02*
X63683Y148487D01*
X64699D01*
X63683Y149503D01*
X64699Y150519D01*
X63683D01*
X62667Y151535D01*
X61651Y150519D01*
X60635D01*
X61651Y149503D01*
X60635Y148487D01*
X61651D01*
X62667Y147471D01*
X95667Y108471D02*
X96683Y109487D01*
X97699D01*
X96683Y110503D01*
X97699Y111519D01*
X96683D01*
X95667Y112535D01*
X94651Y111519D01*
X93635D01*
X94651Y110503D01*
X93635Y109487D01*
X94651D01*
X95667Y108471D01*
X432661Y105726D02*
X433677Y106742D01*
X434693D01*
X433677Y107758D01*
X434693Y108774D01*
X433677D01*
X432661Y109790D01*
X431645Y108774D01*
X430629D01*
X431645Y107758D01*
X430629Y106742D01*
X431645D01*
X432661Y105726D01*
X442661D02*
X443677Y106742D01*
X444693D01*
X443677Y107758D01*
X444693Y108774D01*
X443677D01*
X442661Y109790D01*
X441645Y108774D01*
X440629D01*
X441645Y107758D01*
X440629Y106742D01*
X441645D01*
X442661Y105726D01*
X470161Y105725D02*
X471177Y106742D01*
X472193D01*
X471177Y107758D01*
X472193Y108773D01*
X471177D01*
X470161Y109789D01*
X469145Y108773D01*
X468129D01*
X469145Y107758D01*
X468129Y106742D01*
X469145D01*
X470161Y105725D01*
X457661Y105726D02*
X458677Y106742D01*
X459693D01*
X458677Y107758D01*
X459693Y108774D01*
X458677D01*
X457661Y109790D01*
X456645Y108774D01*
X455629D01*
X456645Y107758D01*
X455629Y106742D01*
X456645D01*
X457661Y105726D01*
X377911Y21290D02*
X378927Y22306D01*
X379944D01*
X378927Y23321D01*
X379944Y24337D01*
X378927D01*
X377911Y25354D01*
X376895Y24337D01*
X375880D01*
X376895Y23321D01*
X375880Y22306D01*
X376895D01*
X377911Y21290D01*
X320411Y21040D02*
X321427Y22055D01*
X322444D01*
X321427Y23071D01*
X322444Y24088D01*
X321427D01*
X320411Y25103D01*
X319396Y24088D01*
X318379D01*
X319396Y23071D01*
X318379Y22055D01*
X319396D01*
X320411Y21040D01*
X-285000Y290468D02*
X-283984Y291484D01*
X-282968D01*
X-283984Y292500D01*
X-282968Y293516D01*
X-283984D01*
X-285000Y294532D01*
X-286016Y293516D01*
X-287032D01*
X-286016Y292500D01*
X-287032Y291484D01*
X-286016D01*
X-285000Y290468D01*
X95667Y134471D02*
X96683Y135487D01*
X97699D01*
X96683Y136503D01*
X97699Y137519D01*
X96683D01*
X95667Y138535D01*
X94651Y137519D01*
X93635D01*
X94651Y136503D01*
X93635Y135487D01*
X94651D01*
X95667Y134471D01*
Y95471D02*
X96683Y96487D01*
X97699D01*
X96683Y97503D01*
X97699Y98519D01*
X96683D01*
X95667Y99535D01*
X94651Y98519D01*
X93635D01*
X94651Y97503D01*
X93635Y96487D01*
X94651D01*
X95667Y95471D01*
X107667Y82471D02*
X108683Y83487D01*
X109699D01*
X108683Y84503D01*
X109699Y85519D01*
X108683D01*
X107667Y86535D01*
X106651Y85519D01*
X105635D01*
X106651Y84503D01*
X105635Y83487D01*
X106651D01*
X107667Y82471D01*
X318650Y-281889D02*
X319666Y-280873D01*
X320682D01*
X319666Y-279857D01*
X320682Y-278841D01*
X319666D01*
X318650Y-277825D01*
X317634Y-278841D01*
X316618D01*
X317634Y-279857D01*
X316618Y-280873D01*
X317634D01*
X318650Y-281889D01*
X292650Y-316728D02*
X293666Y-315713D01*
X294682D01*
X293666Y-314697D01*
X294682Y-313680D01*
X293666D01*
X292650Y-312665D01*
X291634Y-313680D01*
X290618D01*
X291634Y-314697D01*
X290618Y-315713D01*
X291634D01*
X292650Y-316728D01*
X292650Y-286728D02*
X293666Y-285713D01*
X294682D01*
X293666Y-284697D01*
X294682Y-283680D01*
X293666D01*
X292650Y-282665D01*
X291634Y-283680D01*
X290618D01*
X291634Y-284697D01*
X290618Y-285713D01*
X291634D01*
X292650Y-286728D01*
D55*
X-331267Y317602D02*
G03*
X-331267Y317602I-2032J0D01*
G01*
Y292202D02*
G03*
X-331267Y292202I-2032J0D01*
G01*
Y266802D02*
G03*
X-331267Y266802I-2032J0D01*
G01*
Y241402D02*
G03*
X-331267Y241402I-2032J0D01*
G01*
Y216002D02*
G03*
X-331267Y216002I-2032J0D01*
G01*
Y190602D02*
G03*
X-331267Y190602I-2032J0D01*
G01*
Y165202D02*
G03*
X-331267Y165202I-2032J0D01*
G01*
Y139802D02*
G03*
X-331267Y139802I-2032J0D01*
G01*
Y114402D02*
G03*
X-331267Y114402I-2032J0D01*
G01*
Y89002D02*
G03*
X-331267Y89002I-2032J0D01*
G01*
Y63602D02*
G03*
X-331267Y63602I-2032J0D01*
G01*
Y38202D02*
G03*
X-331267Y38202I-2032J0D01*
G01*
Y12802D02*
G03*
X-331267Y12802I-2032J0D01*
G01*
Y-12598D02*
G03*
X-331267Y-12598I-2032J0D01*
G01*
Y-37998D02*
G03*
X-331267Y-37998I-2032J0D01*
G01*
Y-63398D02*
G03*
X-331267Y-63398I-2032J0D01*
G01*
Y-88798D02*
G03*
X-331267Y-88798I-2032J0D01*
G01*
Y-114198D02*
G03*
X-331267Y-114198I-2032J0D01*
G01*
X-305867Y317602D02*
G03*
X-305867Y317602I-2032J0D01*
G01*
Y292202D02*
G03*
X-305867Y292202I-2032J0D01*
G01*
Y266802D02*
G03*
X-305867Y266802I-2032J0D01*
G01*
Y241402D02*
G03*
X-305867Y241402I-2032J0D01*
G01*
Y216002D02*
G03*
X-305867Y216002I-2032J0D01*
G01*
Y190602D02*
G03*
X-305867Y190602I-2032J0D01*
G01*
Y165202D02*
G03*
X-305867Y165202I-2032J0D01*
G01*
Y139802D02*
G03*
X-305867Y139802I-2032J0D01*
G01*
Y114402D02*
G03*
X-305867Y114402I-2032J0D01*
G01*
Y89002D02*
G03*
X-305867Y89002I-2032J0D01*
G01*
Y63602D02*
G03*
X-305867Y63602I-2032J0D01*
G01*
Y38202D02*
G03*
X-305867Y38202I-2032J0D01*
G01*
Y12802D02*
G03*
X-305867Y12802I-2032J0D01*
G01*
Y-12598D02*
G03*
X-305867Y-12598I-2032J0D01*
G01*
Y-37998D02*
G03*
X-305867Y-37998I-2032J0D01*
G01*
Y-63398D02*
G03*
X-305867Y-63398I-2032J0D01*
G01*
Y-88798D02*
G03*
X-305867Y-88798I-2032J0D01*
G01*
Y-114198D02*
G03*
X-305867Y-114198I-2032J0D01*
G01*
X-331267Y-317398D02*
G03*
X-331267Y-317398I-2032J0D01*
G01*
X-305867D02*
G03*
X-305867Y-317398I-2032J0D01*
G01*
X-331267Y-291998D02*
G03*
X-331267Y-291998I-2032J0D01*
G01*
X-305867D02*
G03*
X-305867Y-291998I-2032J0D01*
G01*
X-331267Y-266598D02*
G03*
X-331267Y-266598I-2032J0D01*
G01*
X-305867D02*
G03*
X-305867Y-266598I-2032J0D01*
G01*
X-331267Y-241198D02*
G03*
X-331267Y-241198I-2032J0D01*
G01*
X-305867D02*
G03*
X-305867Y-241198I-2032J0D01*
G01*
X-331267Y-215798D02*
G03*
X-331267Y-215798I-2032J0D01*
G01*
X-305867D02*
G03*
X-305867Y-215798I-2032J0D01*
G01*
X-331267Y-190398D02*
G03*
X-331267Y-190398I-2032J0D01*
G01*
X-305867D02*
G03*
X-305867Y-190398I-2032J0D01*
G01*
X-331267Y-164998D02*
G03*
X-331267Y-164998I-2032J0D01*
G01*
X-305867D02*
G03*
X-305867Y-164998I-2032J0D01*
G01*
Y-139598D02*
G03*
X-305867Y-139598I-2032J0D01*
G01*
X-331267D02*
G03*
X-331267Y-139598I-2032J0D01*
G01*
X405334Y-342900D02*
G03*
X405334Y-342900I-2032J0D01*
G01*
X379934D02*
G03*
X379934Y-342900I-2032J0D01*
G01*
X354534D02*
G03*
X354534Y-342900I-2032J0D01*
G01*
X329134D02*
G03*
X329134Y-342900I-2032J0D01*
G01*
X303734D02*
G03*
X303734Y-342900I-2032J0D01*
G01*
X278334D02*
G03*
X278334Y-342900I-2032J0D01*
G01*
X252934D02*
G03*
X252934Y-342900I-2032J0D01*
G01*
X227534D02*
G03*
X227534Y-342900I-2032J0D01*
G01*
X202134D02*
G03*
X202134Y-342900I-2032J0D01*
G01*
X176734D02*
G03*
X176734Y-342900I-2032J0D01*
G01*
X151334D02*
G03*
X151334Y-342900I-2032J0D01*
G01*
X125934D02*
G03*
X125934Y-342900I-2032J0D01*
G01*
X100534D02*
G03*
X100534Y-342900I-2032J0D01*
G01*
X75134D02*
G03*
X75134Y-342900I-2032J0D01*
G01*
X49734D02*
G03*
X49734Y-342900I-2032J0D01*
G01*
X24334D02*
G03*
X24334Y-342900I-2032J0D01*
G01*
X-1066D02*
G03*
X-1066Y-342900I-2032J0D01*
G01*
X-26466D02*
G03*
X-26466Y-342900I-2032J0D01*
G01*
X405334Y-368300D02*
G03*
X405334Y-368300I-2032J0D01*
G01*
X379934D02*
G03*
X379934Y-368300I-2032J0D01*
G01*
X354534D02*
G03*
X354534Y-368300I-2032J0D01*
G01*
X329134D02*
G03*
X329134Y-368300I-2032J0D01*
G01*
X303734D02*
G03*
X303734Y-368300I-2032J0D01*
G01*
X278334D02*
G03*
X278334Y-368300I-2032J0D01*
G01*
X252934D02*
G03*
X252934Y-368300I-2032J0D01*
G01*
X227534D02*
G03*
X227534Y-368300I-2032J0D01*
G01*
X202134D02*
G03*
X202134Y-368300I-2032J0D01*
G01*
X176734D02*
G03*
X176734Y-368300I-2032J0D01*
G01*
X151334D02*
G03*
X151334Y-368300I-2032J0D01*
G01*
X125934D02*
G03*
X125934Y-368300I-2032J0D01*
G01*
X100534D02*
G03*
X100534Y-368300I-2032J0D01*
G01*
X75134D02*
G03*
X75134Y-368300I-2032J0D01*
G01*
X49734D02*
G03*
X49734Y-368300I-2032J0D01*
G01*
X24334D02*
G03*
X24334Y-368300I-2032J0D01*
G01*
X-1066D02*
G03*
X-1066Y-368300I-2032J0D01*
G01*
X-26466D02*
G03*
X-26466Y-368300I-2032J0D01*
G01*
X-229666Y-342900D02*
G03*
X-229666Y-342900I-2032J0D01*
G01*
Y-368300D02*
G03*
X-229666Y-368300I-2032J0D01*
G01*
X-204266Y-342900D02*
G03*
X-204266Y-342900I-2032J0D01*
G01*
Y-368300D02*
G03*
X-204266Y-368300I-2032J0D01*
G01*
X-178866Y-342900D02*
G03*
X-178866Y-342900I-2032J0D01*
G01*
Y-368300D02*
G03*
X-178866Y-368300I-2032J0D01*
G01*
X-153466Y-342900D02*
G03*
X-153466Y-342900I-2032J0D01*
G01*
Y-368300D02*
G03*
X-153466Y-368300I-2032J0D01*
G01*
X-128066Y-342900D02*
G03*
X-128066Y-342900I-2032J0D01*
G01*
Y-368300D02*
G03*
X-128066Y-368300I-2032J0D01*
G01*
X-102666Y-342900D02*
G03*
X-102666Y-342900I-2032J0D01*
G01*
Y-368300D02*
G03*
X-102666Y-368300I-2032J0D01*
G01*
X-77266Y-342900D02*
G03*
X-77266Y-342900I-2032J0D01*
G01*
Y-368300D02*
G03*
X-77266Y-368300I-2032J0D01*
G01*
X-51866D02*
G03*
X-51866Y-368300I-2032J0D01*
G01*
Y-342900D02*
G03*
X-51866Y-342900I-2032J0D01*
G01*
X405331Y368300D02*
G03*
X405331Y368300I-2032J0D01*
G01*
X379931D02*
G03*
X379931Y368300I-2032J0D01*
G01*
X354531D02*
G03*
X354531Y368300I-2032J0D01*
G01*
X329131D02*
G03*
X329131Y368300I-2032J0D01*
G01*
X303731D02*
G03*
X303731Y368300I-2032J0D01*
G01*
X278331D02*
G03*
X278331Y368300I-2032J0D01*
G01*
X252931D02*
G03*
X252931Y368300I-2032J0D01*
G01*
X227531D02*
G03*
X227531Y368300I-2032J0D01*
G01*
X202131D02*
G03*
X202131Y368300I-2032J0D01*
G01*
X176731D02*
G03*
X176731Y368300I-2032J0D01*
G01*
X151331D02*
G03*
X151331Y368300I-2032J0D01*
G01*
X125931D02*
G03*
X125931Y368300I-2032J0D01*
G01*
X100531D02*
G03*
X100531Y368300I-2032J0D01*
G01*
X75131D02*
G03*
X75131Y368300I-2032J0D01*
G01*
X49731D02*
G03*
X49731Y368300I-2032J0D01*
G01*
X24331D02*
G03*
X24331Y368300I-2032J0D01*
G01*
X-1069D02*
G03*
X-1069Y368300I-2032J0D01*
G01*
X-26469D02*
G03*
X-26469Y368300I-2032J0D01*
G01*
X405331Y342900D02*
G03*
X405331Y342900I-2032J0D01*
G01*
X379931D02*
G03*
X379931Y342900I-2032J0D01*
G01*
X354531D02*
G03*
X354531Y342900I-2032J0D01*
G01*
X329131D02*
G03*
X329131Y342900I-2032J0D01*
G01*
X303731D02*
G03*
X303731Y342900I-2032J0D01*
G01*
X278331D02*
G03*
X278331Y342900I-2032J0D01*
G01*
X252931D02*
G03*
X252931Y342900I-2032J0D01*
G01*
X227531D02*
G03*
X227531Y342900I-2032J0D01*
G01*
X202131D02*
G03*
X202131Y342900I-2032J0D01*
G01*
X176731D02*
G03*
X176731Y342900I-2032J0D01*
G01*
X151331D02*
G03*
X151331Y342900I-2032J0D01*
G01*
X125931D02*
G03*
X125931Y342900I-2032J0D01*
G01*
X100531D02*
G03*
X100531Y342900I-2032J0D01*
G01*
X75131D02*
G03*
X75131Y342900I-2032J0D01*
G01*
X49731D02*
G03*
X49731Y342900I-2032J0D01*
G01*
X24331D02*
G03*
X24331Y342900I-2032J0D01*
G01*
X-1069D02*
G03*
X-1069Y342900I-2032J0D01*
G01*
X-26469D02*
G03*
X-26469Y342900I-2032J0D01*
G01*
X-229669Y368300D02*
G03*
X-229669Y368300I-2032J0D01*
G01*
Y342900D02*
G03*
X-229669Y342900I-2032J0D01*
G01*
X-204269Y368300D02*
G03*
X-204269Y368300I-2032J0D01*
G01*
Y342900D02*
G03*
X-204269Y342900I-2032J0D01*
G01*
X-178869Y368300D02*
G03*
X-178869Y368300I-2032J0D01*
G01*
Y342900D02*
G03*
X-178869Y342900I-2032J0D01*
G01*
X-153469Y368300D02*
G03*
X-153469Y368300I-2032J0D01*
G01*
Y342900D02*
G03*
X-153469Y342900I-2032J0D01*
G01*
X-128069Y368300D02*
G03*
X-128069Y368300I-2032J0D01*
G01*
Y342900D02*
G03*
X-128069Y342900I-2032J0D01*
G01*
X-102669Y368300D02*
G03*
X-102669Y368300I-2032J0D01*
G01*
Y342900D02*
G03*
X-102669Y342900I-2032J0D01*
G01*
X-77269Y368300D02*
G03*
X-77269Y368300I-2032J0D01*
G01*
Y342900D02*
G03*
X-77269Y342900I-2032J0D01*
G01*
X-51869D02*
G03*
X-51869Y342900I-2032J0D01*
G01*
Y368300D02*
G03*
X-51869Y368300I-2032J0D01*
G01*
M02*
