G04*
G04 #@! TF.GenerationSoftware,Altium Limited,Altium Designer,20.0.11 (256)*
G04*
G04 Layer_Color=128*
%FSLAX44Y44*%
%MOMM*%
G71*
G01*
G75*
%ADD15R,0.8000X0.9000*%
%ADD31R,0.9000X0.8000*%
%ADD32R,0.3000X1.0000*%
%ADD33R,1.6500X1.3000*%
%ADD34R,2.6000X1.1000*%
%ADD35R,0.5600X2.1500*%
G04:AMPARAMS|DCode=36|XSize=0.25mm|YSize=0.7mm|CornerRadius=0.0625mm|HoleSize=0mm|Usage=FLASHONLY|Rotation=270.000|XOffset=0mm|YOffset=0mm|HoleType=Round|Shape=RoundedRectangle|*
%AMROUNDEDRECTD36*
21,1,0.2500,0.5750,0,0,270.0*
21,1,0.1250,0.7000,0,0,270.0*
1,1,0.1250,-0.2875,-0.0625*
1,1,0.1250,-0.2875,0.0625*
1,1,0.1250,0.2875,0.0625*
1,1,0.1250,0.2875,-0.0625*
%
%ADD36ROUNDEDRECTD36*%
%ADD37R,7.3000X0.9500*%
%ADD38O,0.7000X2.5000*%
G36*
X201167Y80003D02*
X189667D01*
X188167Y83003D01*
X186167Y86003D01*
X183167Y89503D01*
X179167Y92503D01*
X174167Y95003D01*
X170167Y96003D01*
X164667Y96503D01*
X201167D01*
Y80003D01*
D02*
G37*
G36*
X159667Y96003D02*
X157667Y95503D01*
X155667Y95003D01*
X153167Y94003D01*
X151167Y93003D01*
X148667Y91503D01*
X146167Y89503D01*
X145667Y89003D01*
X143667Y86503D01*
X141167Y83003D01*
X139667Y80003D01*
X128167D01*
Y96503D01*
X164667D01*
X159667Y96003D01*
D02*
G37*
G36*
X201167Y42503D02*
X164667D01*
X169667Y43003D01*
X172167Y43503D01*
X174167Y44003D01*
X177167Y45503D01*
X180667Y47503D01*
X184167Y50503D01*
X186667Y53503D01*
X187667Y55003D01*
X189667Y59003D01*
X201167D01*
Y42503D01*
D02*
G37*
G36*
X141667Y55003D02*
X143167Y53003D01*
X145167Y50503D01*
X148667Y47503D01*
X151167Y46003D01*
X153167Y45003D01*
X159167Y43003D01*
X164667Y42503D01*
X128167D01*
Y59003D01*
X139667D01*
X141667Y55003D01*
D02*
G37*
D15*
X71665Y149503D02*
D03*
X85665D02*
D03*
X85665Y136503D02*
D03*
X71665D02*
D03*
X71669Y123503D02*
D03*
X85669D02*
D03*
X71669Y110503D02*
D03*
X85669D02*
D03*
X85665Y97503D02*
D03*
X71665D02*
D03*
X118669Y97503D02*
D03*
X104669D02*
D03*
X118669Y110503D02*
D03*
X104669D02*
D03*
X-233903Y104878D02*
D03*
X-219903D02*
D03*
D31*
X525950Y63540D02*
D03*
Y49540D02*
D03*
X57500Y30502D02*
D03*
Y44502D02*
D03*
X292650Y-306696D02*
D03*
Y-292696D02*
D03*
X305650Y-219200D02*
D03*
Y-205200D02*
D03*
X382911Y63290D02*
D03*
Y49290D02*
D03*
X432661Y137262D02*
D03*
Y123263D02*
D03*
X445161Y99759D02*
D03*
Y85759D02*
D03*
X432661Y99759D02*
D03*
Y85759D02*
D03*
X457500Y99759D02*
D03*
Y85759D02*
D03*
X470161Y99759D02*
D03*
Y85759D02*
D03*
X470000Y123259D02*
D03*
Y137259D02*
D03*
X457500Y123259D02*
D03*
Y137259D02*
D03*
X445161Y123259D02*
D03*
Y137259D02*
D03*
X67667Y59502D02*
D03*
Y73502D02*
D03*
X81667Y59502D02*
D03*
Y73502D02*
D03*
X318650Y-205200D02*
D03*
Y-219200D02*
D03*
X344650Y-205200D02*
D03*
Y-219200D02*
D03*
X331650Y-205200D02*
D03*
Y-219200D02*
D03*
X357650Y-205200D02*
D03*
Y-219200D02*
D03*
X292650Y-205200D02*
D03*
Y-219200D02*
D03*
D32*
X526200Y33000D02*
D03*
X531200D02*
D03*
X536200D02*
D03*
X571200D02*
D03*
X566200D02*
D03*
X561200D02*
D03*
X556200D02*
D03*
X551200D02*
D03*
X546200D02*
D03*
X541200D02*
D03*
X342500Y23071D02*
D03*
X347500D02*
D03*
X352500D02*
D03*
X357500D02*
D03*
X362500D02*
D03*
X367500D02*
D03*
X372500D02*
D03*
X337500D02*
D03*
X332500D02*
D03*
X327500D02*
D03*
X-52262Y85478D02*
D03*
X-57262D02*
D03*
X-67262D02*
D03*
X-72262D02*
D03*
X-82261D02*
D03*
X-87261D02*
D03*
X-92261D02*
D03*
X-97261D02*
D03*
X-102261D02*
D03*
X-107261D02*
D03*
X-112261D02*
D03*
X-117261D02*
D03*
X-122261D02*
D03*
X-197262D02*
D03*
X-192262D02*
D03*
X-187262D02*
D03*
X-182262D02*
D03*
X-177262D02*
D03*
X-172262D02*
D03*
X-167262D02*
D03*
X-162262D02*
D03*
X-157262D02*
D03*
X-152261D02*
D03*
X-147262D02*
D03*
X-142261D02*
D03*
X-137261D02*
D03*
X-132261D02*
D03*
X-127261D02*
D03*
X-62262D02*
D03*
X-217262D02*
D03*
X-212262D02*
D03*
X-207262D02*
D03*
X-202262D02*
D03*
X-77262D02*
D03*
X-22262D02*
D03*
X-27262D02*
D03*
X-32262D02*
D03*
X-37262D02*
D03*
X-42262D02*
D03*
X-47262D02*
D03*
D33*
X593950Y14000D02*
D03*
X503450D02*
D03*
X304750Y4072D02*
D03*
X395250D02*
D03*
X488Y66477D02*
D03*
X-240012D02*
D03*
D34*
X81667Y17255D02*
D03*
Y44255D02*
D03*
D35*
X107667Y69503D02*
D03*
D36*
X98917Y77003D02*
D03*
Y72003D02*
D03*
Y67003D02*
D03*
Y62003D02*
D03*
X116417D02*
D03*
Y67003D02*
D03*
Y72003D02*
D03*
Y77003D02*
D03*
D37*
X164667Y101253D02*
D03*
Y37753D02*
D03*
D38*
X344050Y-297000D02*
D03*
X331350D02*
D03*
X318650D02*
D03*
X305950D02*
D03*
X344050Y-248000D02*
D03*
X331350D02*
D03*
X318650D02*
D03*
X305950D02*
D03*
M02*
