M48
;Layer_Color=9474304
;FILE_FORMAT=4:4
METRIC,LZ
;TYPE=PLATED
T1F00S00C0.2500
T2F00S00C0.3000
T3F00S00C0.9000
T4F00S00C3.2000
%
T01
X-00433Y-00382
X-00333
X-00133
X-00033
X00067
X00167
X00267
X00367
X00467
X00667
X00767
X00667Y-00282
Y-00182
Y-00082
Y00018
X00567
X00467
Y-00082
Y-00182
X00567
Y-00282
X00467
X00367
Y-00182
X00167
Y-00082
X-00033Y-00182
X-00233
X-00433Y-00282
X-00533Y-00082
Y00018
Y00318
X-00433
X-00233
X-00133
X-00033
Y00218
Y00118
X00067Y00218
X00167
X00267
Y00118
X00067Y00318
X00467
X00567
X00667
X00767
Y00218
X00667
Y00118
X00567
Y00218
X00467
T02
X-00525Y-0033
X-005175Y-003225
X00087252Y-00322898
X001125
X0029265Y-00314697
X007575Y-003225
X00765Y-0033
X008225Y-00262
X00822498Y-00228
Y-00139
Y-00119998
X00820477Y-000725
X00775477
Y00066477
X00820477
X005612Y0004799
X005512
X005412
X005462Y0002
X00514998Y00035946
X00495
X00485
X00475
X00470161Y00062088
X004575Y000525
X00445161Y000775
X0052595Y00072494
X0050345Y00000562
X0059395
X0039525Y-00009366
Y00014692
X00377911Y00023321
X00382911Y00035946
Y00072494
X003675Y000625
X003525Y000525
X003325Y0007
X003425Y00083003
X00320411Y00023071
X0030475Y00014692
Y-00009366
X0030565Y-00195
X0031865
X0033165
X0034465
X0035765
X003529Y-00248
X0031865Y-00279857
X0029265Y-00284697
X0027Y-00279857
X00261798Y-00271035
X00244583Y-0028
Y-002925
X00234583
X00224583
X0029265Y-00195
X0007425Y-00154
X00083Y00007
X00091
X00066Y00017
X00107667Y00049003
Y00084503
X00095667Y00097503
X00432661Y0007
X00015Y00066477
X00000488Y000775
X-000125Y00066477
X-00042262Y0007374
X-00077262
X-00204262Y00073502
X-00220681Y00073082
X-00226903Y000695
X-00240012Y00077989
X-002525Y00069004
X-00281051Y00092596
X-00205082Y00096651
X-00224566Y-00164998
X-00273358Y-00154
X-00273303Y-00204548
X-00224566Y-002525
X-00135141
Y-00190398
X-00357Y-00183266
X-00371Y-0017071
X-00354669Y-0015
X-0036Y-0013
X-00371Y-00119998
X-00388Y-00118976
X-00395Y-00095
X-00371Y-00088798
X-00357Y-00079056
Y-00103348
Y-00052
X-00371Y-0006387
Y-00037998
X-00357Y-00024598
X-00371Y-00009
X-00358056Y00023
X-00349Y00054458
X-00385Y00075
X-00383592Y00088449
X-00535477Y00070734
X-00578591
Y-00063398
X-00535477
X-00582498Y-00119998
Y-00139
Y-00228
X-005825Y-00262
X-00403Y-00137817
X-00388Y-00150092
X-003925Y00102069
X-00383592Y00115
X-003925Y001275
X-00383592Y001395
X-00391448Y00151052
X-003875Y00175546
Y00204371
Y002305
Y00252652
X-00372798Y00267158
X-00357129
X-00364806Y002425
X-00358056Y00227541
Y002025
X-00351306Y001775
X-003575Y003325
X-003875Y00305
X-005825Y00262
X-00582498Y00228
Y00139
Y00119998
X-00264Y0013
X-00256Y00143
X-00238037Y001575
X-00235286Y00175546
X-00236287Y00185546
X-002175Y001975
X-002525Y00234652
X-00245Y002425
X-00238037Y0025
X-00231701Y002575
X-00225Y0026325
X-00215Y0027
X-00242Y00267158
X-00268181
X-00290527
X-0028Y00252652
X-00261203Y00244523
X-00261672Y00226786
X-00268181Y0022
X-00294582Y0021313
X-00285Y002925
X-00273551Y00288452
X-0028915Y00324125
X-00242Y00104878
X00095667Y00110503
Y00123503
X00104669Y0012
X00120167Y00125815
X00133917
X00145167
X001575
X0017
X00182677
X00095667Y00136503
X00062667Y00149503
X00086803Y0032
X00149299
X00365
X00358Y00312
X00432661Y00144997
X00432661Y00107758
X00442661
X00457661
X00470161Y00107758
X00822498Y00119998
Y00139
Y00228
X008225Y00262
T03
X-00333299Y-00317398
X-00307899
X-00231698Y-003429
Y-003683
X-00206298
Y-003429
X-00180898
Y-003683
X-00155498
Y-003429
X-00130098
Y-003683
X-00104698
Y-003429
X-00079298
Y-003683
X-00053898
X-00028498
Y-003429
X-00003098
X00022302
X00047702
Y-003683
X00022302
X-00003098
X-00053898Y-003429
X00073102
X00098502
X00123902
X00149302
X00174702
X00200102
X00225502
X00250902
X00276302
X00301702
X00327102
X00352502
X00377902
X00403302
Y-003683
X00377902
X00352502
X00327102
X00301702
X00276302
X00250902
X00225502
X00200102
X00174702
X00149302
X00123902
X00098502
X00073102
X-00307899Y-00291998
X-00333299
Y-00266598
X-00307899
Y-00241198
X-00333299
Y-00215798
X-00307899
Y-00190398
X-00333299
Y-00164998
X-00307899
Y-00139598
Y-00114198
X-00333299
Y-00088798
Y-00063398
Y-00037998
Y-00012598
Y00012802
Y00038202
Y00063602
Y00089002
X-00307899
Y00063602
Y00038202
Y00012802
Y-00012598
Y-00037998
Y-00063398
Y-00088798
X-00333299Y-00139598
Y00114402
Y00139802
Y00165202
Y00190602
Y00216002
Y00241402
Y00266802
Y00292202
Y00317602
X-00307899
Y00292202
Y00266802
Y00241402
Y00216002
Y00190602
Y00165202
Y00139802
Y00114402
X-00231701Y003429
Y003683
X-00206301
Y003429
X-00180901
Y003683
X-00155501
Y003429
X-00130101
Y003683
X-00104701
Y003429
X-00079301
Y003683
X-00053901
X-00028501
X-00003101
X00022299
X00047699
Y003429
X00022299
X-00003101
X-00028501
X-00053901
X00073099
Y003683
X00098499
X00123899
X00149299
X00174699
X00200099
X00225499
X00250899
X00276299
X00301699
X00327099
X00352499
X00377899
X00403299
Y003429
X00377899
X00352499
X00327099
X00301699
X00276299
X00250899
X00225499
X00200099
X00174699
X00149299
X00123899
X00098499
T04
X-00568Y-00388
X0057
X00808
X-00568Y00388
X0057
X00808
M30
