M48
;Layer_Color=9474304
;FILE_FORMAT=4:4
METRIC,LZ
;TYPE=PLATED
T1F00S00C0.3000
T2F00S00C0.5500
T3F00S00C0.9000
T4F00S00C0.9500
T5F00S00C1.4000
T6F00S00C1.5000
T7F00S00C1.7000
T8F00S00C3.2000
%
T01
X-00704Y-00454
X-00624
X-00584Y-00374
X-007375Y-003775
Y-00385
Y-00395
Y-004025
X-00744Y-00374
X-0055Y-003875
X-005425Y-00395
X-005175
X-00539999Y-00352499
X-0056Y-00345
X-004725Y-00355
Y-00365
Y-00375
X-00435Y-003525
X-004375Y-00335
X-00425Y-003375
X-0039Y-003525
X-003875Y-0039
X-00384Y-00454
X-003592Y-004417
X-003465Y-00441
X-003338Y-004413
X-00304Y-00454
X-00264Y-00374
X-00464Y-00454
X-00544
X00136Y-00374
X00296
X00376
X00455999
X00415999Y-00454
X00336
X00256
X00415999Y-00294
X00455999Y-00214
X00415999Y-00134
X003175Y-001875
X00256Y-00134
X00296Y-00054
X00415999Y00026
X00176
X00096
X00016
X00056Y-00054
X00136
X00176Y-00134
X00096
X00016
X-00064
X-00144
Y00026
Y-00294
X00136Y-00214
X-00224Y-00134
Y00026
X-00304
X-00384
X-004075Y-000575
X-00407252Y-0008525
Y-0009525
X-004225Y-0011
X-00422753Y-0012525
X-00431465Y-00148535
Y-00156035
X-0040173Y-001525
X-00395253Y-0014025
X-00402Y-0018028
X-00438Y-002
X-004625Y-002075
X-004725Y-001725
X-005325Y-00152499
X-005325Y-00137499
X-005175Y-00122499
Y-00107499
X-005175Y-000425
X-00544Y00026
X-00567752Y-00137499
X-00567752Y-00152499
X-0055Y-00162499
X-00532248Y-00257499
X-00532248Y-00272499
X-00517248Y-00289999
Y-00304999
X-00567752Y-00272499
X-00567752Y-00257499
X-00415Y-00245
X-00582752Y-00289999
Y-00304999
X-00704Y-00294
X-007375Y-002425
Y-00235
Y-00225
Y-002175
X-00652993Y-001965
X-0064Y-0016
X-00704Y-00134
X-00664Y-00054
X-00670748Y-00043305
X-00664248Y-00016695
X-00650001Y0
X-0064
X-00625Y000175
X-00610001Y00017499
X-00649495Y00024496
X-00670748Y00033305
X-00670748Y00056695
X-00704Y00026
X-00744Y-00054
X-00584
X-00582752Y-00107499
Y-00122499
X-00610001Y00117499
X-00625Y001175
X-00649495Y00124496
X-00650001Y001
X-0064
X-00664248Y00083305
X-00670748Y00133305
X-00679498Y00162998
X-00710502Y00163002
X-00699498Y002125
X-00699498Y00242998
X-00730502Y00243002
X-00730502Y00212503
X-00710502Y00300505
X-00679498Y00300502
X-006975Y003425
X-00728503Y00342503
X-00728503Y00375502
X-006975Y00375498
X-006175Y003725
X-00615Y003875
X-00584Y00426
X-00664
X-00744
X-005925Y0031875
X-005775Y003175
X-006175Y0028
X-0063
X-00629999Y0024
X-006175Y00247502
X-0060225Y00256998
X-0059Y00201001
X-0057175Y0020175
X-0054Y002175
X-0055875Y0025625
X-0056525Y0026025
X-0053775Y0027275
X-00504Y00266
X-00495Y0028
Y002875
X-004875Y003
Y0031
X-0054375Y00319998
X-00545Y00365
X-005625Y0035
X-00555Y0039
X-004115Y00396
X-00369
X-00252002Y00359502
X-00242002
X-00264Y00266
X-00184
X-00224Y00186
X-00304
X-00264Y00106
X-005075Y0016
Y0019
X-00453614Y00256114
Y00265123
X-00024Y00266
X000025Y0024
X00028738Y00256238
X00056Y00266
X00018998Y001923
X000025Y0019
X00096Y00186
X00056Y00106
X-00024
X-00104
X-0009Y00355
X-0006
X00016Y00346
X00096
X00176
X00256
X00336
X00415999
X00455999Y00266
X00376Y00426
T02
X-00720397Y-00341996
X-00694997
X-00669597
Y-00279998
X-00694997
X-00720397
T03
X00342721Y-003175
X00368121
Y-002921
Y-002667
Y-002413
Y-002159
Y-001905
Y-001651
Y-001397
Y-001143
Y-000889
Y-000635
Y-000381
Y-000127
Y000127
Y000381
X00342721
Y000127
Y-000127
Y-000381
Y-000635
Y-000889
Y-001143
Y-001397
Y-001651
Y-001905
Y-002159
Y-002413
Y-002667
Y-002921
Y000635
X00368121
X-00343076Y00063598
Y00038198
Y00012798
Y-00012602
Y-00038002
Y-00063402
Y-00088802
Y-00114202
Y-00139602
Y-00165002
Y-00190402
Y-00215802
Y-00241202
Y-00266602
Y-00292002
Y-00317402
X-00368476
Y-00292002
Y-00266602
Y-00241202
Y-00215802
Y-00190402
Y-00165002
Y-00139602
Y-00114202
Y-00088802
Y-00063402
Y-00038002
Y-00012602
Y00012798
Y00038198
Y00063598
Y00088998
X-00343076
Y00114398
X-00368476
Y00139798
Y00165198
Y00190598
Y00215998
Y00241398
Y00266798
Y00292198
Y00317598
X-00343076
Y00292198
Y00266798
Y00241398
Y00215998
Y00190598
Y00165198
Y00139798
X-00317702Y00393494
Y00418894
X-00292302
Y00393494
X-00266902
Y00418894
X-00241502
Y00393494
X-00216102
Y00418894
X-00190702
Y00393494
X-00165302
Y00418894
X-00139902
X-00114502
X-00089102
X-00063702
X-00038302
X-00012902
X00012498
X00037898
X00063298
X00088698
X00114098
X00139498
X00164898
X00190298
X00215698
Y00393494
X00190298
X00164898
X00139498
X00114098
X00088698
X00063298
X00037898
X00012498
X-00012902
X-00038302
X-00063702
X-00089102
X-00114502
X-00139902
X00241098
Y00418894
X00266498
X00291898
X00317298
Y00393494
X00291898
X00266498
X00342721Y003175
X00368121
Y002921
X00342721
Y002667
X00368121
Y002413
X00342721
Y002159
X00368121
Y001905
X00342721
Y001651
X00368121
Y001397
Y001143
Y000889
X00342721
Y001143
Y001397
T04
X-005775Y-00327999
X-005225
X-0049Y-0022
Y-0019
X-005225Y-00084999
X-005775
X-006125Y-0019
Y-0022
X-0075Y001775
Y00315
X-00625Y00327998
T05
X-00787497Y-00344996
X-00229801Y-00438926
X-001948
X-00159801
X-00099799
X-00064798
X-000298
X00030199
X000652
X00100199
X001602
X00195202
X002302
X004465Y-00045002
Y-00010001
Y00024997
X-00787497Y000075
Y-000275
Y-00097499
Y-001325
Y-00167499
Y-00274996
Y-00309998
Y000825
Y001175
X-007875Y00177503
Y00212501
Y00247502
Y00307503
Y00342501
Y00377503
X00447Y002275
Y001925
Y001375
Y001025
T06
X-00247298Y-00325626
X-00172298
X-00107298
X-00032298
X00032702
X00107702
X00172702
X00247702
Y-00275226
Y-00224826
X00172702
Y-00275226
X00107702
Y-00224826
X00032702
Y-00275226
X-00032298
Y-00224826
X-00107298
Y-00275226
X-00172298
Y-00224826
X-00247298
Y-00275226
T07
X00247702Y-00072226
X00172702
X00107702
X00032702
X-00032298
X-00107298
X-00172298
X-00247298
T08
X-0082Y-0047
X0048
X-0082Y0045
X0048
M30
