G04*
G04 #@! TF.GenerationSoftware,Altium Limited,Altium Designer,19.1.6 (110)*
G04*
G04 Layer_Color=128*
%FSLAX44Y44*%
%MOMM*%
G71*
G01*
G75*
%ADD92C,0.0508*%
D92*
X-794500Y307503D02*
X-780500D01*
X-787500Y300503D02*
Y314503D01*
X-794500Y342501D02*
X-780500D01*
X-787500Y335501D02*
Y349501D01*
X-794500Y377503D02*
X-780500D01*
X-787500Y370503D02*
Y384502D01*
X-794500Y177503D02*
X-780500D01*
X-787500Y170503D02*
Y184503D01*
X-794500Y212501D02*
X-780500D01*
X-787500Y205501D02*
Y219501D01*
X-794500Y247502D02*
X-780500D01*
X-787500Y240502D02*
Y254503D01*
X-794498Y117500D02*
X-780498D01*
X-787497Y110500D02*
Y124500D01*
X-794498Y82500D02*
X-780498D01*
X-787497Y75500D02*
Y89500D01*
X-794498Y7500D02*
X-780498D01*
X-787497Y500D02*
Y14500D01*
X-794498Y-27500D02*
X-780498D01*
X-787497Y-34500D02*
Y-20500D01*
X-794498Y-167499D02*
X-780498D01*
X-787497Y-174499D02*
Y-160499D01*
X-794498Y-132500D02*
X-780498D01*
X-787497Y-139500D02*
Y-125500D01*
X-794498Y-97499D02*
X-780498D01*
X-787497Y-104499D02*
Y-90499D01*
X-794498Y-344996D02*
X-780498D01*
X-787497Y-351996D02*
Y-337996D01*
X-794498Y-309998D02*
X-780498D01*
X-787497Y-316998D02*
Y-302997D01*
X-794498Y-274996D02*
X-780498D01*
X-787497Y-281996D02*
Y-267996D01*
X-697747Y-279998D02*
X-692247D01*
X-694997Y-282747D02*
Y-277248D01*
X-672347Y-279998D02*
X-666848D01*
X-669597Y-282747D02*
Y-277248D01*
X-723148Y-279998D02*
X-717647D01*
X-720397Y-282747D02*
Y-277248D01*
X-697747Y-341996D02*
X-692247D01*
X-694997Y-344746D02*
Y-339246D01*
X-672347Y-341996D02*
X-666848D01*
X-669597Y-344746D02*
Y-339246D01*
X-723148Y-341996D02*
X-717647D01*
X-720397Y-344746D02*
Y-339246D01*
X440000Y192500D02*
X454000D01*
X447000Y185500D02*
Y199500D01*
X440000Y227500D02*
X454000D01*
X447000Y220500D02*
Y234500D01*
X440000Y102500D02*
X454000D01*
X447000Y95500D02*
Y109500D01*
X440000Y137500D02*
X454000D01*
X447000Y130500D02*
Y144500D01*
X439500Y24997D02*
X453500D01*
X446500Y17997D02*
Y31997D01*
X439500Y-10001D02*
X453500D01*
X446500Y-17001D02*
Y-3001D01*
X439500Y-45002D02*
X453500D01*
X446500Y-52003D02*
Y-38003D01*
X-36800Y-438926D02*
X-22800D01*
X-29800Y-445926D02*
Y-431926D01*
X-71798Y-438926D02*
X-57798D01*
X-64798Y-445926D02*
Y-431926D01*
X-106799Y-438926D02*
X-92800D01*
X-99799Y-445926D02*
Y-431926D01*
X93199Y-438926D02*
X107199D01*
X100199Y-445926D02*
Y-431926D01*
X58200Y-438926D02*
X72200D01*
X65200Y-445926D02*
Y-431926D01*
X23199Y-438926D02*
X37199D01*
X30199Y-445926D02*
Y-431926D01*
X-166801Y-438926D02*
X-152801D01*
X-159801Y-445926D02*
Y-431926D01*
X-201800Y-438926D02*
X-187800D01*
X-194800Y-445926D02*
Y-431926D01*
X-236801Y-438926D02*
X-222801D01*
X-229801Y-445926D02*
Y-431926D01*
X223200Y-438926D02*
X237200D01*
X230200Y-445926D02*
Y-431926D01*
X188202Y-438926D02*
X202202D01*
X195202Y-445926D02*
Y-431926D01*
X153201Y-438926D02*
X167200D01*
X160200Y-445926D02*
Y-431926D01*
X-527250Y-84999D02*
X-517750D01*
X-522500Y-89749D02*
Y-80249D01*
X-527250Y-327999D02*
X-517750D01*
X-522500Y-332749D02*
Y-323249D01*
X-582250Y-327999D02*
X-572750D01*
X-577500Y-332749D02*
Y-323249D01*
X-494750Y-190000D02*
X-485250D01*
X-490000Y-194750D02*
Y-185250D01*
X-617250Y-190000D02*
X-607750D01*
X-612500Y-194750D02*
Y-185250D01*
X-582250Y-84999D02*
X-572750D01*
X-577500Y-89749D02*
Y-80249D01*
X-617250Y-220000D02*
X-607750D01*
X-612500Y-224750D02*
Y-215250D01*
X-494750Y-220000D02*
X-485250D01*
X-490000Y-224750D02*
Y-215250D01*
X-179798Y-224826D02*
X-164798D01*
X-172298Y-232326D02*
Y-217326D01*
X-179798Y-325626D02*
X-164798D01*
X-172298Y-333126D02*
Y-318126D01*
X-254798Y-275226D02*
X-239798D01*
X-247298Y-282726D02*
Y-267726D01*
X-180798Y-72226D02*
X-163798D01*
X-172298Y-80726D02*
Y-63726D01*
X-255798Y-72226D02*
X-238798D01*
X-247298Y-80726D02*
Y-63726D01*
X-179798Y-275226D02*
X-164798D01*
X-172298Y-282726D02*
Y-267726D01*
X-254798Y-325626D02*
X-239798D01*
X-247298Y-333126D02*
Y-318126D01*
X-254798Y-224826D02*
X-239798D01*
X-247298Y-232326D02*
Y-217326D01*
X-39798Y-224826D02*
X-24798D01*
X-32298Y-232326D02*
Y-217326D01*
X-39798Y-325626D02*
X-24798D01*
X-32298Y-333126D02*
Y-318126D01*
X-114798Y-275226D02*
X-99798D01*
X-107298Y-282726D02*
Y-267726D01*
X-40798Y-72226D02*
X-23798D01*
X-32298Y-80726D02*
Y-63726D01*
X-115798Y-72226D02*
X-98798D01*
X-107298Y-80726D02*
Y-63726D01*
X-39798Y-275226D02*
X-24798D01*
X-32298Y-282726D02*
Y-267726D01*
X-114798Y-325626D02*
X-99798D01*
X-107298Y-333126D02*
Y-318126D01*
X-114798Y-224826D02*
X-99798D01*
X-107298Y-232326D02*
Y-217326D01*
X100202Y-224826D02*
X115202D01*
X107702Y-232326D02*
Y-217326D01*
X100202Y-325626D02*
X115202D01*
X107702Y-333126D02*
Y-318126D01*
X25202Y-275226D02*
X40202D01*
X32702Y-282726D02*
Y-267726D01*
X99202Y-72226D02*
X116202D01*
X107702Y-80726D02*
Y-63726D01*
X24202Y-72226D02*
X41202D01*
X32702Y-80726D02*
Y-63726D01*
X100202Y-275226D02*
X115202D01*
X107702Y-282726D02*
Y-267726D01*
X25202Y-325626D02*
X40202D01*
X32702Y-333126D02*
Y-318126D01*
X25202Y-224826D02*
X40202D01*
X32702Y-232326D02*
Y-217326D01*
X240202Y-224826D02*
X255202D01*
X247702Y-232326D02*
Y-217326D01*
X240202Y-325626D02*
X255202D01*
X247702Y-333126D02*
Y-318126D01*
X165202Y-275226D02*
X180202D01*
X172702Y-282726D02*
Y-267726D01*
X239202Y-72226D02*
X256202D01*
X247702Y-80726D02*
Y-63726D01*
X164202Y-72226D02*
X181202D01*
X172702Y-80726D02*
Y-63726D01*
X240202Y-275226D02*
X255202D01*
X247702Y-282726D02*
Y-267726D01*
X165202Y-325626D02*
X180202D01*
X172702Y-333126D02*
Y-318126D01*
X165202Y-224826D02*
X180202D01*
X172702Y-232326D02*
Y-217326D01*
X-754750Y177500D02*
X-745250D01*
X-750000Y172750D02*
Y182250D01*
X-754750Y315000D02*
X-745250D01*
X-750000Y310250D02*
Y319750D01*
X-629750Y327998D02*
X-620250D01*
X-625000Y323248D02*
Y332748D01*
X-347576Y-317402D02*
X-338576D01*
X-343076Y-321902D02*
Y-312902D01*
X-347576Y-292002D02*
X-338576D01*
X-343076Y-296502D02*
Y-287502D01*
X-347576Y-266602D02*
X-338576D01*
X-343076Y-271102D02*
Y-262102D01*
X-347576Y-241202D02*
X-338576D01*
X-343076Y-245702D02*
Y-236702D01*
X-347576Y-215802D02*
X-338576D01*
X-343076Y-220302D02*
Y-211302D01*
X-347576Y-190402D02*
X-338576D01*
X-343076Y-194902D02*
Y-185902D01*
X-347576Y-165002D02*
X-338576D01*
X-343076Y-169502D02*
Y-160502D01*
X-347576Y-139602D02*
X-338576D01*
X-343076Y-144102D02*
Y-135102D01*
X-347576Y-114202D02*
X-338576D01*
X-343076Y-118702D02*
Y-109702D01*
X-347576Y-88802D02*
X-338576D01*
X-343076Y-93302D02*
Y-84302D01*
X-347576Y-63402D02*
X-338576D01*
X-343076Y-67902D02*
Y-58902D01*
X-347576Y-38002D02*
X-338576D01*
X-343076Y-42502D02*
Y-33502D01*
X-347576Y-12602D02*
X-338576D01*
X-343076Y-17102D02*
Y-8102D01*
X-347576Y12798D02*
X-338576D01*
X-343076Y8298D02*
Y17298D01*
X-347576Y38198D02*
X-338576D01*
X-343076Y33698D02*
Y42698D01*
X-347576Y63598D02*
X-338576D01*
X-343076Y59098D02*
Y68098D01*
X-347576Y88998D02*
X-338576D01*
X-343076Y84498D02*
Y93498D01*
X-347576Y114398D02*
X-338576D01*
X-343076Y109898D02*
Y118898D01*
X-372976Y-317402D02*
X-363976D01*
X-368476Y-321902D02*
Y-312902D01*
X-372976Y-292002D02*
X-363976D01*
X-368476Y-296502D02*
Y-287502D01*
X-372976Y-266602D02*
X-363976D01*
X-368476Y-271102D02*
Y-262102D01*
X-372976Y-241202D02*
X-363976D01*
X-368476Y-245702D02*
Y-236702D01*
X-372976Y-215802D02*
X-363976D01*
X-368476Y-220302D02*
Y-211302D01*
X-372976Y-190402D02*
X-363976D01*
X-368476Y-194902D02*
Y-185902D01*
X-372976Y-165002D02*
X-363976D01*
X-368476Y-169502D02*
Y-160502D01*
X-372976Y-139602D02*
X-363976D01*
X-368476Y-144102D02*
Y-135102D01*
X-372976Y-114202D02*
X-363976D01*
X-368476Y-118702D02*
Y-109702D01*
X-372976Y-88802D02*
X-363976D01*
X-368476Y-93302D02*
Y-84302D01*
X-372976Y-63402D02*
X-363976D01*
X-368476Y-67902D02*
Y-58902D01*
X-372976Y-38002D02*
X-363976D01*
X-368476Y-42502D02*
Y-33502D01*
X-372976Y-12602D02*
X-363976D01*
X-368476Y-17102D02*
Y-8102D01*
X-372976Y12798D02*
X-363976D01*
X-368476Y8298D02*
Y17298D01*
X-372976Y38198D02*
X-363976D01*
X-368476Y33698D02*
Y42698D01*
X-372976Y63598D02*
X-363976D01*
X-368476Y59098D02*
Y68098D01*
X-372976Y88998D02*
X-363976D01*
X-368476Y84498D02*
Y93498D01*
X-372976Y114398D02*
X-363976D01*
X-368476Y109898D02*
Y118898D01*
X-347576Y317598D02*
X-338576D01*
X-343076Y313098D02*
Y322098D01*
X-372976Y317598D02*
X-363976D01*
X-368476Y313098D02*
Y322098D01*
X-347576Y292198D02*
X-338576D01*
X-343076Y287698D02*
Y296698D01*
X-372976Y292198D02*
X-363976D01*
X-368476Y287698D02*
Y296698D01*
X-347576Y266798D02*
X-338576D01*
X-343076Y262298D02*
Y271298D01*
X-372976Y266798D02*
X-363976D01*
X-368476Y262298D02*
Y271298D01*
X-347576Y241398D02*
X-338576D01*
X-343076Y236898D02*
Y245898D01*
X-372976Y241398D02*
X-363976D01*
X-368476Y236898D02*
Y245898D01*
X-347576Y215998D02*
X-338576D01*
X-343076Y211498D02*
Y220498D01*
X-372976Y215998D02*
X-363976D01*
X-368476Y211498D02*
Y220498D01*
X-347576Y190598D02*
X-338576D01*
X-343076Y186098D02*
Y195098D01*
X-372976Y190598D02*
X-363976D01*
X-368476Y186098D02*
Y195098D01*
X-347576Y165198D02*
X-338576D01*
X-343076Y160698D02*
Y169698D01*
X-372976Y165198D02*
X-363976D01*
X-368476Y160698D02*
Y169698D01*
X-372976Y139798D02*
X-363976D01*
X-368476Y135298D02*
Y144298D01*
X-347576Y139798D02*
X-338576D01*
X-343076Y135298D02*
Y144298D01*
X312798Y418894D02*
X321798D01*
X317298Y414394D02*
Y423394D01*
X287398Y418894D02*
X296398D01*
X291898Y414394D02*
Y423394D01*
X261998Y418894D02*
X270998D01*
X266498Y414394D02*
Y423394D01*
X236598Y418894D02*
X245598D01*
X241098Y414394D02*
Y423394D01*
X211198Y418894D02*
X220198D01*
X215698Y414394D02*
Y423394D01*
X185798Y418894D02*
X194798D01*
X190298Y414394D02*
Y423394D01*
X160398Y418894D02*
X169398D01*
X164898Y414394D02*
Y423394D01*
X134998Y418894D02*
X143998D01*
X139498Y414394D02*
Y423394D01*
X109598Y418894D02*
X118598D01*
X114098Y414394D02*
Y423394D01*
X84198Y418894D02*
X93198D01*
X88698Y414394D02*
Y423394D01*
X58798Y418894D02*
X67798D01*
X63298Y414394D02*
Y423394D01*
X33398Y418894D02*
X42398D01*
X37898Y414394D02*
Y423394D01*
X7998Y418894D02*
X16998D01*
X12498Y414394D02*
Y423394D01*
X-17402Y418894D02*
X-8402D01*
X-12902Y414394D02*
Y423394D01*
X-42802Y418894D02*
X-33802D01*
X-38302Y414394D02*
Y423394D01*
X-68202Y418894D02*
X-59202D01*
X-63702Y414394D02*
Y423394D01*
X-93602Y418894D02*
X-84602D01*
X-89102Y414394D02*
Y423394D01*
X-119002Y418894D02*
X-110002D01*
X-114502Y414394D02*
Y423394D01*
X312798Y393494D02*
X321798D01*
X317298Y388994D02*
Y397994D01*
X287398Y393494D02*
X296398D01*
X291898Y388994D02*
Y397994D01*
X261998Y393494D02*
X270998D01*
X266498Y388994D02*
Y397994D01*
X236598Y393494D02*
X245598D01*
X241098Y388994D02*
Y397994D01*
X211198Y393494D02*
X220198D01*
X215698Y388994D02*
Y397994D01*
X185798Y393494D02*
X194798D01*
X190298Y388994D02*
Y397994D01*
X160398Y393494D02*
X169398D01*
X164898Y388994D02*
Y397994D01*
X134998Y393494D02*
X143998D01*
X139498Y388994D02*
Y397994D01*
X109598Y393494D02*
X118598D01*
X114098Y388994D02*
Y397994D01*
X84198Y393494D02*
X93198D01*
X88698Y388994D02*
Y397994D01*
X58798Y393494D02*
X67798D01*
X63298Y388994D02*
Y397994D01*
X33398Y393494D02*
X42398D01*
X37898Y388994D02*
Y397994D01*
X7998Y393494D02*
X16998D01*
X12498Y388994D02*
Y397994D01*
X-17402Y393494D02*
X-8402D01*
X-12902Y388994D02*
Y397994D01*
X-42802Y393494D02*
X-33802D01*
X-38302Y388994D02*
Y397994D01*
X-68202Y393494D02*
X-59202D01*
X-63702Y388994D02*
Y397994D01*
X-93602Y393494D02*
X-84602D01*
X-89102Y388994D02*
Y397994D01*
X-119002Y393494D02*
X-110002D01*
X-114502Y388994D02*
Y397994D01*
X-322202Y418894D02*
X-313202D01*
X-317702Y414394D02*
Y423394D01*
X-322202Y393494D02*
X-313202D01*
X-317702Y388994D02*
Y397994D01*
X-296802Y418894D02*
X-287802D01*
X-292302Y414394D02*
Y423394D01*
X-296802Y393494D02*
X-287802D01*
X-292302Y388994D02*
Y397994D01*
X-271402Y418894D02*
X-262402D01*
X-266902Y414394D02*
Y423394D01*
X-271402Y393494D02*
X-262402D01*
X-266902Y388994D02*
Y397994D01*
X-246002Y418894D02*
X-237002D01*
X-241502Y414394D02*
Y423394D01*
X-246002Y393494D02*
X-237002D01*
X-241502Y388994D02*
Y397994D01*
X-220602Y418894D02*
X-211602D01*
X-216102Y414394D02*
Y423394D01*
X-220602Y393494D02*
X-211602D01*
X-216102Y388994D02*
Y397994D01*
X-195202Y418894D02*
X-186202D01*
X-190702Y414394D02*
Y423394D01*
X-195202Y393494D02*
X-186202D01*
X-190702Y388994D02*
Y397994D01*
X-169802Y418894D02*
X-160802D01*
X-165302Y414394D02*
Y423394D01*
X-169802Y393494D02*
X-160802D01*
X-165302Y388994D02*
Y397994D01*
X-144402Y393494D02*
X-135402D01*
X-139902Y388994D02*
Y397994D01*
X-144402Y418894D02*
X-135402D01*
X-139902Y414394D02*
Y423394D01*
X363621Y-317500D02*
X372621D01*
X368121Y-322000D02*
Y-313000D01*
X363621Y-292100D02*
X372621D01*
X368121Y-296600D02*
Y-287600D01*
X363621Y-266700D02*
X372621D01*
X368121Y-271200D02*
Y-262200D01*
X363621Y-241300D02*
X372621D01*
X368121Y-245800D02*
Y-236800D01*
X363621Y-215900D02*
X372621D01*
X368121Y-220400D02*
Y-211400D01*
X363621Y-190500D02*
X372621D01*
X368121Y-195000D02*
Y-186000D01*
X363621Y-165100D02*
X372621D01*
X368121Y-169600D02*
Y-160600D01*
X363621Y-139700D02*
X372621D01*
X368121Y-144200D02*
Y-135200D01*
X363621Y-114300D02*
X372621D01*
X368121Y-118800D02*
Y-109800D01*
X363621Y-88900D02*
X372621D01*
X368121Y-93400D02*
Y-84400D01*
X363621Y-63500D02*
X372621D01*
X368121Y-68000D02*
Y-59000D01*
X363621Y-38100D02*
X372621D01*
X368121Y-42600D02*
Y-33600D01*
X363621Y-12700D02*
X372621D01*
X368121Y-17200D02*
Y-8200D01*
X363621Y12700D02*
X372621D01*
X368121Y8200D02*
Y17200D01*
X363621Y38100D02*
X372621D01*
X368121Y33600D02*
Y42600D01*
X338221Y-317500D02*
X347221D01*
X342721Y-322000D02*
Y-313000D01*
X338221Y-292100D02*
X347221D01*
X342721Y-296600D02*
Y-287600D01*
X338221Y-266700D02*
X347221D01*
X342721Y-271200D02*
Y-262200D01*
X338221Y-241300D02*
X347221D01*
X342721Y-245800D02*
Y-236800D01*
X338221Y-215900D02*
X347221D01*
X342721Y-220400D02*
Y-211400D01*
X338221Y-190500D02*
X347221D01*
X342721Y-195000D02*
Y-186000D01*
X338221Y-165100D02*
X347221D01*
X342721Y-169600D02*
Y-160600D01*
X338221Y-139700D02*
X347221D01*
X342721Y-144200D02*
Y-135200D01*
X338221Y-114300D02*
X347221D01*
X342721Y-118800D02*
Y-109800D01*
X338221Y-88900D02*
X347221D01*
X342721Y-93400D02*
Y-84400D01*
X338221Y-63500D02*
X347221D01*
X342721Y-68000D02*
Y-59000D01*
X338221Y-38100D02*
X347221D01*
X342721Y-42600D02*
Y-33600D01*
X338221Y-12700D02*
X347221D01*
X342721Y-17200D02*
Y-8200D01*
X338221Y12700D02*
X347221D01*
X342721Y8200D02*
Y17200D01*
X338221Y38100D02*
X347221D01*
X342721Y33600D02*
Y42600D01*
X363621Y317500D02*
X372621D01*
X368121Y313000D02*
Y322000D01*
X338221Y317500D02*
X347221D01*
X342721Y313000D02*
Y322000D01*
X363621Y292100D02*
X372621D01*
X368121Y287600D02*
Y296600D01*
X338221Y292100D02*
X347221D01*
X342721Y287600D02*
Y296600D01*
X363621Y266700D02*
X372621D01*
X368121Y262200D02*
Y271200D01*
X338221Y266700D02*
X347221D01*
X342721Y262200D02*
Y271200D01*
X363621Y241300D02*
X372621D01*
X368121Y236800D02*
Y245800D01*
X338221Y241300D02*
X347221D01*
X342721Y236800D02*
Y245800D01*
X363621Y63500D02*
X372621D01*
X368121Y59000D02*
Y68000D01*
X363621Y88900D02*
X372621D01*
X368121Y84400D02*
Y93400D01*
X363621Y114300D02*
X372621D01*
X368121Y109800D02*
Y118800D01*
X338221Y63500D02*
X347221D01*
X342721Y59000D02*
Y68000D01*
X338221Y88900D02*
X347221D01*
X342721Y84400D02*
Y93400D01*
X338221Y114300D02*
X347221D01*
X342721Y109800D02*
Y118800D01*
X363621Y215900D02*
X372621D01*
X368121Y211400D02*
Y220400D01*
X338221Y215900D02*
X347221D01*
X342721Y211400D02*
Y220400D01*
X363621Y190500D02*
X372621D01*
X368121Y186000D02*
Y195000D01*
X338221Y190500D02*
X347221D01*
X342721Y186000D02*
Y195000D01*
X363621Y165100D02*
X372621D01*
X368121Y160600D02*
Y169600D01*
X338221Y165100D02*
X347221D01*
X342721Y160600D02*
Y169600D01*
X338221Y139700D02*
X347221D01*
X342721Y135200D02*
Y144200D01*
X363621Y139700D02*
X372621D01*
X368121Y135200D02*
Y144200D01*
X-836000Y450000D02*
X-804000D01*
X-820000Y434000D02*
Y466000D01*
X464000Y450000D02*
X496000D01*
X480000Y434000D02*
Y466000D01*
X-836000Y-470000D02*
X-804000D01*
X-820000Y-486000D02*
Y-454000D01*
X464000Y-470000D02*
X496000D01*
X480000Y-486000D02*
Y-454000D01*
X-370500Y396000D02*
X-367500D01*
X-369000Y394500D02*
Y397500D01*
X-413000Y396000D02*
X-410000D01*
X-411500Y394500D02*
Y397500D01*
X17498Y192300D02*
X20498D01*
X18998Y190800D02*
Y193800D01*
X414500Y346000D02*
X417500D01*
X415999Y344500D02*
Y347500D01*
X454500Y266000D02*
X457500D01*
X455999Y264500D02*
Y267500D01*
X414500Y26000D02*
X417500D01*
X415999Y24500D02*
Y27500D01*
X414500Y-134000D02*
X417500D01*
X415999Y-135500D02*
Y-132500D01*
X454500Y-214000D02*
X457500D01*
X455999Y-215500D02*
Y-212500D01*
X414500Y-294000D02*
X417500D01*
X415999Y-295500D02*
Y-292500D01*
X454500Y-374000D02*
X457500D01*
X455999Y-375500D02*
Y-372500D01*
X414500Y-454000D02*
X417500D01*
X415999Y-455500D02*
Y-452500D01*
X374500Y426000D02*
X377500D01*
X376000Y424500D02*
Y427500D01*
X334500Y346000D02*
X337500D01*
X336000Y344500D02*
Y347500D01*
X374500Y-374000D02*
X377500D01*
X376000Y-375500D02*
Y-372500D01*
X334500Y-454000D02*
X337500D01*
X336000Y-455500D02*
Y-452500D01*
X254500Y346000D02*
X257500D01*
X256000Y344500D02*
Y347500D01*
X294500Y-54000D02*
X297500D01*
X296000Y-55500D02*
Y-52500D01*
X254500Y-134000D02*
X257500D01*
X256000Y-135500D02*
Y-132500D01*
X294500Y-374000D02*
X297500D01*
X296000Y-375500D02*
Y-372500D01*
X254500Y-454000D02*
X257500D01*
X256000Y-455500D02*
Y-452500D01*
X174500Y346000D02*
X177500D01*
X176000Y344500D02*
Y347500D01*
X174500Y26000D02*
X177500D01*
X176000Y24500D02*
Y27500D01*
X174500Y-134000D02*
X177500D01*
X176000Y-135500D02*
Y-132500D01*
X94500Y346000D02*
X97500D01*
X96000Y344500D02*
Y347500D01*
X94500Y186000D02*
X97500D01*
X96000Y184500D02*
Y187500D01*
X94500Y26000D02*
X97500D01*
X96000Y24500D02*
Y27500D01*
X134500Y-54000D02*
X137500D01*
X136000Y-55500D02*
Y-52500D01*
X94500Y-134000D02*
X97500D01*
X96000Y-135500D02*
Y-132500D01*
X134500Y-214000D02*
X137500D01*
X136000Y-215500D02*
Y-212500D01*
X134500Y-374000D02*
X137500D01*
X136000Y-375500D02*
Y-372500D01*
X14500Y346000D02*
X17500D01*
X16000Y344500D02*
Y347500D01*
X54500Y266000D02*
X57500D01*
X56000Y264500D02*
Y267500D01*
X54500Y106000D02*
X57500D01*
X56000Y104500D02*
Y107500D01*
X14500Y26000D02*
X17500D01*
X16000Y24500D02*
Y27500D01*
X54500Y-54000D02*
X57500D01*
X56000Y-55500D02*
Y-52500D01*
X14500Y-134000D02*
X17500D01*
X16000Y-135500D02*
Y-132500D01*
X-25500Y266000D02*
X-22500D01*
X-24000Y264500D02*
Y267500D01*
X-25500Y106000D02*
X-22500D01*
X-24000Y104500D02*
Y107500D01*
X-65500Y-134000D02*
X-62500D01*
X-64000Y-135500D02*
Y-132500D01*
X-105500Y106000D02*
X-102500D01*
X-104000Y104500D02*
Y107500D01*
X-145500Y26000D02*
X-142500D01*
X-144000Y24500D02*
Y27500D01*
X-145500Y-134000D02*
X-142500D01*
X-144000Y-135500D02*
Y-132500D01*
X-145500Y-294000D02*
X-142500D01*
X-144000Y-295500D02*
Y-292500D01*
X-185500Y266000D02*
X-182500D01*
X-184000Y264500D02*
Y267500D01*
X-225500Y186000D02*
X-222500D01*
X-224000Y184500D02*
Y187500D01*
X-225500Y26000D02*
X-222500D01*
X-224000Y24500D02*
Y27500D01*
X-225500Y-134000D02*
X-222500D01*
X-224000Y-135500D02*
Y-132500D01*
X-265500Y266000D02*
X-262500D01*
X-264000Y264500D02*
Y267500D01*
X-305500Y186000D02*
X-302500D01*
X-304000Y184500D02*
Y187500D01*
X-265500Y106000D02*
X-262500D01*
X-264000Y104500D02*
Y107500D01*
X-305500Y26000D02*
X-302500D01*
X-304000Y24500D02*
Y27500D01*
X-265500Y-374000D02*
X-262500D01*
X-264000Y-375500D02*
Y-372500D01*
X-305500Y-454000D02*
X-302500D01*
X-304000Y-455500D02*
Y-452500D01*
X-385500Y26000D02*
X-382500D01*
X-384000Y24500D02*
Y27500D01*
X-385500Y-454000D02*
X-382500D01*
X-384000Y-455500D02*
Y-452500D01*
X-465500Y-454000D02*
X-462500D01*
X-464000Y-455500D02*
Y-452500D01*
X-505500Y266000D02*
X-502500D01*
X-504000Y264500D02*
Y267500D01*
X-545500Y26000D02*
X-542500D01*
X-544000Y24500D02*
Y27500D01*
X-545500Y-454000D02*
X-542500D01*
X-544000Y-455500D02*
Y-452500D01*
X-585500Y426000D02*
X-582500D01*
X-584000Y424500D02*
Y427500D01*
X-585500Y-54000D02*
X-582500D01*
X-584000Y-55500D02*
Y-52500D01*
X-585500Y-374000D02*
X-582500D01*
X-584000Y-375500D02*
Y-372500D01*
X-625500Y-454000D02*
X-622500D01*
X-624000Y-455500D02*
Y-452500D01*
X-665500Y426000D02*
X-662500D01*
X-664000Y424500D02*
Y427500D01*
X-705500Y26000D02*
X-702500D01*
X-704000Y24500D02*
Y27500D01*
X-665500Y-54000D02*
X-662500D01*
X-664000Y-55500D02*
Y-52500D01*
X-705500Y-134000D02*
X-702500D01*
X-704000Y-135500D02*
Y-132500D01*
X-705500Y-294000D02*
X-702500D01*
X-704000Y-295500D02*
Y-292500D01*
X-705500Y-454000D02*
X-702500D01*
X-704000Y-455500D02*
Y-452500D01*
X-745500Y426000D02*
X-742500D01*
X-744000Y424500D02*
Y427500D01*
X-745500Y-54000D02*
X-742500D01*
X-744000Y-55500D02*
Y-52500D01*
X-745500Y-374000D02*
X-742500D01*
X-744000Y-375500D02*
Y-372500D01*
X316000Y-187500D02*
X319000D01*
X317500Y-189000D02*
Y-186000D01*
X-436500Y-352500D02*
X-433500D01*
X-435000Y-354000D02*
Y-351000D01*
X-519000Y-42500D02*
X-516000D01*
X-517500Y-44000D02*
Y-41000D01*
X-253502Y359502D02*
X-250502D01*
X-252002Y358002D02*
Y361002D01*
X-243502Y359502D02*
X-240502D01*
X-242002Y358002D02*
Y361002D01*
X27238Y256238D02*
X30238D01*
X28738Y254738D02*
Y257738D01*
X1000Y240000D02*
X4000D01*
X2500Y238500D02*
Y241500D01*
X1000Y190000D02*
X4000D01*
X2500Y188500D02*
Y191500D01*
X-544000Y-395000D02*
X-541000D01*
X-542500Y-396500D02*
Y-393500D01*
X-519000Y-395000D02*
X-516000D01*
X-517500Y-396500D02*
Y-393500D01*
X-551500Y-387500D02*
X-548500D01*
X-550000Y-389000D02*
Y-386000D01*
X-739000Y-377500D02*
X-736000D01*
X-737500Y-379000D02*
Y-376000D01*
X-739000Y-385000D02*
X-736000D01*
X-737500Y-386500D02*
Y-383500D01*
X-739000Y-402500D02*
X-736000D01*
X-737500Y-404000D02*
Y-401000D01*
X-739000Y-395000D02*
X-736000D01*
X-737500Y-396500D02*
Y-393500D01*
X-739000Y-235000D02*
X-736000D01*
X-737500Y-236500D02*
Y-233500D01*
X-739000Y-242500D02*
X-736000D01*
X-737500Y-244000D02*
Y-241000D01*
X-739000Y-225000D02*
X-736000D01*
X-737500Y-226500D02*
Y-223500D01*
X-739000Y-217500D02*
X-736000D01*
X-737500Y-219000D02*
Y-216000D01*
X-551500Y-162499D02*
X-548500D01*
X-550000Y-163999D02*
Y-160999D01*
X-573250Y201750D02*
X-570250D01*
X-571750Y200250D02*
Y203250D01*
X-541500Y217500D02*
X-538500D01*
X-540000Y216000D02*
Y219000D01*
X-539250Y272750D02*
X-536250D01*
X-537750Y271250D02*
Y274250D01*
X-560250Y256250D02*
X-557250D01*
X-558750Y254750D02*
Y257750D01*
X-566750Y260250D02*
X-563750D01*
X-565250Y258750D02*
Y261750D01*
X-700998Y212500D02*
X-697998D01*
X-699498Y211000D02*
Y214000D01*
X-732002Y212503D02*
X-729002D01*
X-730502Y211003D02*
Y214003D01*
X-680998Y162998D02*
X-677998D01*
X-679498Y161498D02*
Y164498D01*
X-712002Y163002D02*
X-709002D01*
X-710502Y161502D02*
Y164502D01*
X-700998Y242998D02*
X-697998D01*
X-699498Y241498D02*
Y244498D01*
X-732002Y243002D02*
X-729002D01*
X-730502Y241502D02*
Y244502D01*
X-680998Y300502D02*
X-677998D01*
X-679498Y299002D02*
Y302002D01*
X-712002Y300505D02*
X-709002D01*
X-710502Y299005D02*
Y302005D01*
X-699000Y342500D02*
X-696000D01*
X-697500Y341000D02*
Y344000D01*
X-730003Y342503D02*
X-727003D01*
X-728503Y341003D02*
Y344003D01*
X-730003Y375502D02*
X-727003D01*
X-728503Y374002D02*
Y377002D01*
X-699000Y375498D02*
X-696000D01*
X-697500Y373998D02*
Y376998D01*
X-61500Y355000D02*
X-58500D01*
X-60000Y353500D02*
Y356500D01*
X-91500Y355000D02*
X-88500D01*
X-90000Y353500D02*
Y356500D01*
X-391500Y-352500D02*
X-388500D01*
X-390000Y-354000D02*
Y-351000D01*
X-389000Y-390000D02*
X-386000D01*
X-387500Y-391500D02*
Y-388500D01*
X-360700Y-441700D02*
X-357700D01*
X-359200Y-443200D02*
Y-440200D01*
X-335300Y-441300D02*
X-332300D01*
X-333800Y-442800D02*
Y-439800D01*
X-348000Y-441000D02*
X-345000D01*
X-346500Y-442500D02*
Y-439500D01*
X-432965Y-156035D02*
X-429964D01*
X-431465Y-157535D02*
Y-154536D01*
X-432965Y-148535D02*
X-429964D01*
X-431465Y-150035D02*
Y-147036D01*
X-641500Y0D02*
X-638500D01*
X-640000Y-1500D02*
Y1500D01*
X-651501Y0D02*
X-648501D01*
X-650001Y-1500D02*
Y1500D01*
X-651501Y100000D02*
X-648501D01*
X-650001Y98500D02*
Y101500D01*
X-455114Y256114D02*
X-452114D01*
X-453614Y254614D02*
Y257614D01*
X-455114Y265123D02*
X-452114D01*
X-453614Y263623D02*
Y266623D01*
X-672247Y56695D02*
X-669248D01*
X-670748Y55195D02*
Y58195D01*
X-665748Y83305D02*
X-662747D01*
X-664248Y81805D02*
Y84805D01*
X-665748Y-16695D02*
X-662747D01*
X-664248Y-18195D02*
Y-15195D01*
X-672247Y-43305D02*
X-669248D01*
X-670748Y-44805D02*
Y-41805D01*
X-641500Y100000D02*
X-638500D01*
X-640000Y98500D02*
Y101500D01*
X-409000Y-57500D02*
X-406000D01*
X-407500Y-59000D02*
Y-56000D01*
X-509000Y160000D02*
X-506000D01*
X-507500Y158500D02*
Y161500D01*
X-509000Y190000D02*
X-506000D01*
X-507500Y188500D02*
Y191500D01*
X-496500Y280000D02*
X-493500D01*
X-495000Y278500D02*
Y281500D01*
X-496500Y287500D02*
X-493500D01*
X-495000Y286000D02*
Y289000D01*
X-489000Y300000D02*
X-486000D01*
X-487500Y298500D02*
Y301500D01*
X-489000Y310000D02*
X-486000D01*
X-487500Y308500D02*
Y311500D01*
X-579000Y317500D02*
X-576000D01*
X-577500Y316000D02*
Y319000D01*
X-564000Y350000D02*
X-561000D01*
X-562500Y348500D02*
Y351500D01*
X-546500Y365000D02*
X-543500D01*
X-545000Y363500D02*
Y366500D01*
X-556500Y390000D02*
X-553500D01*
X-555000Y388500D02*
Y391500D01*
X-616500Y387500D02*
X-613500D01*
X-615000Y386000D02*
Y389000D01*
X-619000Y372500D02*
X-616000D01*
X-617500Y371000D02*
Y374000D01*
X-672247Y133305D02*
X-669248D01*
X-670748Y131805D02*
Y134805D01*
X-626500Y117500D02*
X-623500D01*
X-625000Y116000D02*
Y119000D01*
X-611501Y117499D02*
X-608501D01*
X-610001Y115999D02*
Y118999D01*
X-650995Y124496D02*
X-647995D01*
X-649495Y122996D02*
Y125996D01*
X-650995Y24496D02*
X-647995D01*
X-649495Y22996D02*
Y25996D01*
X-611501Y17499D02*
X-608501D01*
X-610001Y15999D02*
Y18999D01*
X-626500Y17500D02*
X-623500D01*
X-625000Y16000D02*
Y19000D01*
X-672247Y33305D02*
X-669248D01*
X-670748Y31805D02*
Y34805D01*
X-424253Y-125250D02*
X-421253D01*
X-422753Y-126750D02*
Y-123750D01*
X-396753Y-140250D02*
X-393753D01*
X-395253Y-141750D02*
Y-138750D01*
X-408752Y-95250D02*
X-405752D01*
X-407252Y-96750D02*
Y-93750D01*
X-408752Y-85250D02*
X-405752D01*
X-407252Y-86750D02*
Y-83750D01*
X-424000Y-110000D02*
X-421000D01*
X-422500Y-111500D02*
Y-108500D01*
X-416500Y-245000D02*
X-413500D01*
X-415000Y-246500D02*
Y-243500D01*
X-403230Y-152500D02*
X-400230D01*
X-401730Y-154000D02*
Y-151000D01*
X-403500Y-180280D02*
X-400500D01*
X-402000Y-181780D02*
Y-178780D01*
X-474000Y-172500D02*
X-471000D01*
X-472500Y-174000D02*
Y-171000D01*
X-641500Y-160000D02*
X-638500D01*
X-640000Y-161500D02*
Y-158500D01*
X-439500Y-200000D02*
X-436500D01*
X-438000Y-201500D02*
Y-198500D01*
X-464000Y-207500D02*
X-461000D01*
X-462500Y-209000D02*
Y-206000D01*
X-439000Y-335000D02*
X-436000D01*
X-437500Y-336500D02*
Y-333500D01*
X-541499Y-352499D02*
X-538499D01*
X-539999Y-353999D02*
Y-350999D01*
X-561500Y-345000D02*
X-558500D01*
X-560000Y-346500D02*
Y-343500D01*
X-426500Y-337500D02*
X-423500D01*
X-425000Y-339000D02*
Y-336000D01*
X-474000Y-365000D02*
X-471000D01*
X-472500Y-366500D02*
Y-363500D01*
X-474000Y-375000D02*
X-471000D01*
X-472500Y-376500D02*
Y-373500D01*
X-474000Y-355000D02*
X-471000D01*
X-472500Y-356500D02*
Y-353500D01*
X-654493Y-196500D02*
X-651493D01*
X-652993Y-198000D02*
Y-195000D01*
X-594000Y318750D02*
X-591000D01*
X-592500Y317250D02*
Y320250D01*
X-545250Y319998D02*
X-542250D01*
X-543750Y318498D02*
Y321498D01*
X-631500Y280000D02*
X-628500D01*
X-630000Y278500D02*
Y281500D01*
X-631499Y240000D02*
X-628499D01*
X-629999Y238500D02*
Y241500D01*
X-619000Y280000D02*
X-616000D01*
X-617500Y278500D02*
Y281500D01*
X-619000Y247502D02*
X-616000D01*
X-617500Y246003D02*
Y249002D01*
X-591500Y201001D02*
X-588500D01*
X-590000Y199501D02*
Y202501D01*
X-603750Y256998D02*
X-600750D01*
X-602250Y255498D02*
Y258498D01*
X-518748Y-304999D02*
X-515748D01*
X-517248Y-306499D02*
Y-303499D01*
X-518748Y-289999D02*
X-515748D01*
X-517248Y-291499D02*
Y-288499D01*
X-533748Y-272499D02*
X-530748D01*
X-532248Y-273999D02*
Y-270999D01*
X-533748Y-257499D02*
X-530748D01*
X-532248Y-258999D02*
Y-255999D01*
X-584252Y-304999D02*
X-581252D01*
X-582752Y-306499D02*
Y-303499D01*
X-584252Y-289999D02*
X-581252D01*
X-582752Y-291499D02*
Y-288499D01*
X-569252Y-272499D02*
X-566252D01*
X-567752Y-273999D02*
Y-270999D01*
X-569252Y-257499D02*
X-566252D01*
X-567752Y-258999D02*
Y-255999D01*
X-569252Y-152499D02*
X-566252D01*
X-567752Y-153999D02*
Y-150999D01*
X-569252Y-137499D02*
X-566252D01*
X-567752Y-138999D02*
Y-135999D01*
X-584252Y-122499D02*
X-581252D01*
X-582752Y-123999D02*
Y-120999D01*
X-584252Y-107499D02*
X-581252D01*
X-582752Y-108999D02*
Y-105999D01*
X-519000Y-107499D02*
X-516000D01*
X-517500Y-108999D02*
Y-105999D01*
X-519000Y-122499D02*
X-516000D01*
X-517500Y-123999D02*
Y-120999D01*
X-534000Y-137499D02*
X-531000D01*
X-532500Y-138999D02*
Y-135999D01*
X-534000Y-152499D02*
X-531000D01*
X-532500Y-153999D02*
Y-150999D01*
M02*
