G04*
G04 #@! TF.GenerationSoftware,Altium Limited,Altium Designer,19.1.6 (110)*
G04*
G04 Layer_Color=65535*
%FSLAX44Y44*%
%MOMM*%
G71*
G01*
G75*
%ADD10C,0.2500*%
%ADD11C,0.6000*%
%ADD12C,0.3500*%
%ADD13C,0.4500*%
%ADD14C,0.2000*%
%ADD15C,0.2540*%
%ADD16C,0.3000*%
%ADD17C,0.4000*%
%ADD18C,0.5000*%
G36*
X-664372Y-271923D02*
X-664361Y-271912D01*
X-664330Y-271881D01*
X-664268Y-271829D01*
X-664195Y-271767D01*
X-664101Y-271694D01*
X-663976Y-271600D01*
X-663851Y-271496D01*
X-663695Y-271392D01*
X-663528Y-271277D01*
X-663351Y-271163D01*
X-663153Y-271048D01*
X-662945Y-270933D01*
X-662727Y-270819D01*
X-662487Y-270715D01*
X-662247Y-270621D01*
X-661998Y-270527D01*
Y-272204D01*
X-662008D01*
X-662029Y-272214D01*
X-662070Y-272225D01*
X-662122Y-272246D01*
X-662195Y-272277D01*
X-662268Y-272308D01*
X-662362Y-272350D01*
X-662466Y-272402D01*
X-662695Y-272516D01*
X-662956Y-272673D01*
X-663247Y-272860D01*
X-663560Y-273089D01*
X-663570Y-273100D01*
X-663601Y-273120D01*
X-663643Y-273152D01*
X-663695Y-273204D01*
X-663768Y-273266D01*
X-663841Y-273350D01*
X-663924Y-273433D01*
X-664018Y-273537D01*
X-664216Y-273766D01*
X-664403Y-274027D01*
X-664580Y-274318D01*
X-664653Y-274474D01*
X-664715Y-274641D01*
X-666215D01*
Y-264998D01*
X-664372D01*
Y-271923D01*
D02*
G37*
G36*
Y-333922D02*
X-664361Y-333911D01*
X-664330Y-333880D01*
X-664268Y-333828D01*
X-664195Y-333765D01*
X-664101Y-333693D01*
X-663976Y-333599D01*
X-663851Y-333495D01*
X-663695Y-333391D01*
X-663528Y-333276D01*
X-663351Y-333161D01*
X-663153Y-333047D01*
X-662945Y-332932D01*
X-662727Y-332818D01*
X-662487Y-332714D01*
X-662247Y-332620D01*
X-661998Y-332526D01*
Y-334203D01*
X-662008D01*
X-662029Y-334213D01*
X-662070Y-334224D01*
X-662122Y-334244D01*
X-662195Y-334276D01*
X-662268Y-334307D01*
X-662362Y-334349D01*
X-662466Y-334401D01*
X-662695Y-334515D01*
X-662956Y-334671D01*
X-663247Y-334859D01*
X-663560Y-335088D01*
X-663570Y-335098D01*
X-663601Y-335119D01*
X-663643Y-335150D01*
X-663695Y-335202D01*
X-663768Y-335265D01*
X-663841Y-335348D01*
X-663924Y-335432D01*
X-664018Y-335536D01*
X-664216Y-335765D01*
X-664403Y-336025D01*
X-664580Y-336317D01*
X-664653Y-336473D01*
X-664715Y-336640D01*
X-666215D01*
Y-326996D01*
X-664372D01*
Y-333922D01*
D02*
G37*
D10*
X-648997Y-292997D02*
G03*
X-648997Y-292997I-8000J0D01*
G01*
Y-354996D02*
G03*
X-648997Y-354996I-8000J0D01*
G01*
X-537000Y272750D02*
G03*
X-537000Y272750I-1250J0D01*
G01*
X-436250Y-233000D02*
G03*
X-436250Y-233000I-1250J0D01*
G01*
X-648747Y-240899D02*
G03*
X-648747Y-240899I-1250J0D01*
G01*
Y-424898D02*
G03*
X-648747Y-424898I-1250J0D01*
G01*
X169500Y243000D02*
G03*
X169500Y243000I-4500J0D01*
G01*
X168998Y135500D02*
G03*
X168998Y135500I-4500J0D01*
G01*
X-135948Y83298D02*
G03*
X-135948Y83298I-1250J0D01*
G01*
X-773497Y59000D02*
Y141000D01*
X-867497D02*
X-773497D01*
X-867497Y59000D02*
Y141000D01*
Y59000D02*
X-773497D01*
Y-51000D02*
Y31000D01*
X-867497D02*
X-773497D01*
X-867497Y-51000D02*
Y31000D01*
Y-51000D02*
X-773497D01*
X433000Y169000D02*
Y251000D01*
Y169000D02*
X527000D01*
Y251000D01*
X433000D02*
X527000D01*
X433000Y79000D02*
Y161000D01*
Y79000D02*
X527000D01*
Y161000D01*
X433000D02*
X527000D01*
X401003Y94000D02*
X413000D01*
X401003Y99942D02*
X401574Y98228D01*
X403288Y97085D01*
X406144Y96514D01*
X407858D01*
X410715Y97085D01*
X412429Y98228D01*
X413000Y99942D01*
Y101084D01*
X412429Y102798D01*
X410715Y103941D01*
X407858Y104512D01*
X406144D01*
X403288Y103941D01*
X401574Y102798D01*
X401003Y101084D01*
Y99942D01*
X402716Y112339D02*
X413000D01*
X407858Y107197D02*
Y117481D01*
X401003Y130449D02*
X413000D01*
X401003Y136391D02*
X401574Y134677D01*
X403288Y133534D01*
X406144Y132963D01*
X407858D01*
X410715Y133534D01*
X412429Y134677D01*
X413000Y136391D01*
Y137534D01*
X412429Y139247D01*
X410715Y140390D01*
X407858Y140961D01*
X406144D01*
X403288Y140390D01*
X401574Y139247D01*
X401003Y137534D01*
Y136391D01*
X407858Y143646D02*
Y153930D01*
X400503Y177500D02*
X412500D01*
X402788Y180014D02*
X402216Y181156D01*
X400503Y182870D01*
X412500D01*
X402216Y193954D02*
X412500D01*
X407358Y188812D02*
Y199095D01*
X400503Y212064D02*
X412500D01*
X402788Y214578D02*
X402216Y215720D01*
X400503Y217434D01*
X412500D01*
X407358Y223376D02*
Y233659D01*
X-756430Y29141D02*
X-757002Y30284D01*
X-758144Y31426D01*
X-759287Y31997D01*
X-761572D01*
X-762715Y31426D01*
X-763857Y30284D01*
X-764429Y29141D01*
X-765000Y27427D01*
Y24571D01*
X-764429Y22857D01*
X-763857Y21714D01*
X-762715Y20571D01*
X-761572Y20000D01*
X-759287D01*
X-758144Y20571D01*
X-757002Y21714D01*
X-756430Y22857D01*
X-749632Y31997D02*
X-751346Y31426D01*
X-752488Y29712D01*
X-753060Y26856D01*
Y25142D01*
X-752488Y22285D01*
X-751346Y20571D01*
X-749632Y20000D01*
X-748489D01*
X-746775Y20571D01*
X-745633Y22285D01*
X-745061Y25142D01*
Y26856D01*
X-745633Y29712D01*
X-746775Y31426D01*
X-748489Y31997D01*
X-749632D01*
X-737234Y30284D02*
Y20000D01*
X-742376Y25142D02*
X-732093D01*
X-758930Y131641D02*
X-759502Y132783D01*
X-760644Y133926D01*
X-761787Y134497D01*
X-764072D01*
X-765215Y133926D01*
X-766357Y132783D01*
X-766929Y131641D01*
X-767500Y129927D01*
Y127071D01*
X-766929Y125357D01*
X-766357Y124214D01*
X-765215Y123071D01*
X-764072Y122500D01*
X-761787D01*
X-760644Y123071D01*
X-759502Y124214D01*
X-758930Y125357D01*
X-755560Y132212D02*
X-754417Y132783D01*
X-752703Y134497D01*
Y122500D01*
X-741620Y132783D02*
Y122500D01*
X-746761Y127642D02*
X-736478D01*
X-758930Y66641D02*
X-759502Y67783D01*
X-760644Y68926D01*
X-761787Y69497D01*
X-764072D01*
X-765215Y68926D01*
X-766357Y67783D01*
X-766929Y66641D01*
X-767500Y64927D01*
Y62070D01*
X-766929Y60356D01*
X-766357Y59214D01*
X-765215Y58071D01*
X-764072Y57500D01*
X-761787D01*
X-760644Y58071D01*
X-759502Y59214D01*
X-758930Y60356D01*
X-755560Y67212D02*
X-754417Y67783D01*
X-752703Y69497D01*
Y57500D01*
X-746761Y62642D02*
X-736478D01*
X-758930Y-35859D02*
X-759502Y-34716D01*
X-760644Y-33574D01*
X-761787Y-33003D01*
X-764072D01*
X-765215Y-33574D01*
X-766357Y-34716D01*
X-766929Y-35859D01*
X-767500Y-37573D01*
Y-40430D01*
X-766929Y-42144D01*
X-766357Y-43286D01*
X-765215Y-44429D01*
X-764072Y-45000D01*
X-761787D01*
X-760644Y-44429D01*
X-759502Y-43286D01*
X-758930Y-42144D01*
X-752132Y-33003D02*
X-753846Y-33574D01*
X-754988Y-35288D01*
X-755560Y-38144D01*
Y-39858D01*
X-754988Y-42715D01*
X-753846Y-44429D01*
X-752132Y-45000D01*
X-750989D01*
X-749275Y-44429D01*
X-748133Y-42715D01*
X-747561Y-39858D01*
Y-38144D01*
X-748133Y-35288D01*
X-749275Y-33574D01*
X-750989Y-33003D01*
X-752132D01*
X-744876Y-39858D02*
X-734593D01*
X-759283Y-270426D02*
X-758140Y-269855D01*
X-756997Y-268712D01*
X-756426Y-267569D01*
Y-265284D01*
X-756997Y-264141D01*
X-758140Y-262999D01*
X-759283Y-262428D01*
X-760996Y-261856D01*
X-763853D01*
X-765567Y-262428D01*
X-766710Y-262999D01*
X-767852Y-264141D01*
X-768423Y-265284D01*
Y-267569D01*
X-767852Y-268712D01*
X-766710Y-269855D01*
X-765567Y-270426D01*
X-758711Y-273797D02*
X-758140Y-274939D01*
X-756426Y-276653D01*
X-768423D01*
X-759283Y-300591D02*
X-758140Y-300019D01*
X-756997Y-298877D01*
X-756426Y-297734D01*
Y-295449D01*
X-756997Y-294306D01*
X-758140Y-293164D01*
X-759283Y-292593D01*
X-760996Y-292021D01*
X-763853D01*
X-765567Y-292593D01*
X-766710Y-293164D01*
X-767852Y-294306D01*
X-768423Y-295449D01*
Y-297734D01*
X-767852Y-298877D01*
X-766710Y-300019D01*
X-765567Y-300591D01*
X-763853D01*
Y-297734D02*
Y-300591D01*
X-756426Y-303333D02*
X-768423D01*
X-756426D02*
X-768423Y-311331D01*
X-756426D02*
X-768423D01*
X-756426Y-314645D02*
X-768423D01*
X-756426D02*
Y-318644D01*
X-756997Y-320358D01*
X-758140Y-321501D01*
X-759283Y-322072D01*
X-760996Y-322643D01*
X-763853D01*
X-765567Y-322072D01*
X-766710Y-321501D01*
X-767852Y-320358D01*
X-768423Y-318644D01*
Y-314645D01*
X-759283Y-343325D02*
X-758140Y-342753D01*
X-756997Y-341610D01*
X-756426Y-340468D01*
Y-338183D01*
X-756997Y-337040D01*
X-758140Y-335897D01*
X-759283Y-335326D01*
X-760996Y-334755D01*
X-763853D01*
X-765567Y-335326D01*
X-766710Y-335897D01*
X-767852Y-337040D01*
X-768423Y-338183D01*
Y-340468D01*
X-767852Y-341610D01*
X-766710Y-342753D01*
X-765567Y-343325D01*
X-759283Y-347267D02*
X-758711D01*
X-757569Y-347838D01*
X-756997Y-348409D01*
X-756426Y-349552D01*
Y-351837D01*
X-756997Y-352980D01*
X-757569Y-353551D01*
X-758711Y-354122D01*
X-759854D01*
X-760996Y-353551D01*
X-762710Y-352408D01*
X-768423Y-346695D01*
Y-354693D01*
X-756426Y-84359D02*
X-768423Y-88930D01*
X-756426Y-93500D02*
X-768423Y-88930D01*
X-758711Y-95042D02*
X-758140Y-96185D01*
X-756426Y-97899D01*
X-768423D01*
X-759283Y-121837D02*
X-758140Y-121265D01*
X-756997Y-120123D01*
X-756426Y-118980D01*
Y-116695D01*
X-756997Y-115552D01*
X-758140Y-114410D01*
X-759283Y-113838D01*
X-760996Y-113267D01*
X-763853D01*
X-765567Y-113838D01*
X-766710Y-114410D01*
X-767852Y-115552D01*
X-768423Y-116695D01*
Y-118980D01*
X-767852Y-120123D01*
X-766710Y-121265D01*
X-765567Y-121837D01*
X-763853D01*
Y-118980D02*
Y-121837D01*
X-756426Y-124579D02*
X-768423D01*
X-756426D02*
X-768423Y-132577D01*
X-756426D02*
X-768423D01*
X-756426Y-135891D02*
X-768423D01*
X-756426D02*
Y-139890D01*
X-756997Y-141604D01*
X-758140Y-142746D01*
X-759283Y-143318D01*
X-760996Y-143889D01*
X-763853D01*
X-765567Y-143318D01*
X-766710Y-142746D01*
X-767852Y-141604D01*
X-768423Y-139890D01*
Y-135891D01*
X-756426Y-156001D02*
X-768423Y-160571D01*
X-756426Y-165142D02*
X-768423Y-160571D01*
X-759283Y-167255D02*
X-758711D01*
X-757569Y-167827D01*
X-756997Y-168398D01*
X-756426Y-169541D01*
Y-171826D01*
X-756997Y-172969D01*
X-757569Y-173540D01*
X-758711Y-174111D01*
X-759854D01*
X-760996Y-173540D01*
X-762710Y-172397D01*
X-768423Y-166684D01*
Y-174683D01*
X-441073Y-70644D02*
X-441501Y-69787D01*
X-442358Y-68930D01*
X-443215Y-68502D01*
X-444929D01*
X-445786Y-68930D01*
X-446643Y-69787D01*
X-447071Y-70644D01*
X-447500Y-71930D01*
Y-74072D01*
X-447071Y-75358D01*
X-446643Y-76215D01*
X-445786Y-77071D01*
X-444929Y-77500D01*
X-443215D01*
X-442358Y-77071D01*
X-441501Y-76215D01*
X-441073Y-75358D01*
X-438545Y-70216D02*
X-437688Y-69787D01*
X-436402Y-68502D01*
Y-77500D01*
X-429375Y-68502D02*
X-430661Y-68930D01*
X-431518Y-70216D01*
X-431946Y-72358D01*
Y-73644D01*
X-431518Y-75786D01*
X-430661Y-77071D01*
X-429375Y-77500D01*
X-428518D01*
X-427233Y-77071D01*
X-426376Y-75786D01*
X-425947Y-73644D01*
Y-72358D01*
X-426376Y-70216D01*
X-427233Y-68930D01*
X-428518Y-68502D01*
X-429375D01*
X-418792Y-69787D02*
X-419220Y-68930D01*
X-420506Y-68502D01*
X-421363D01*
X-422648Y-68930D01*
X-423505Y-70216D01*
X-423934Y-72358D01*
Y-74501D01*
X-423505Y-76215D01*
X-422648Y-77071D01*
X-421363Y-77500D01*
X-420934D01*
X-419649Y-77071D01*
X-418792Y-76215D01*
X-418363Y-74929D01*
Y-74501D01*
X-418792Y-73215D01*
X-419649Y-72358D01*
X-420934Y-71930D01*
X-421363D01*
X-422648Y-72358D01*
X-423505Y-73215D01*
X-423934Y-74501D01*
X-388502Y-195000D02*
X-394929D01*
X-396214Y-195429D01*
X-397071Y-196285D01*
X-397500Y-197571D01*
Y-198428D01*
X-397071Y-199713D01*
X-396214Y-200570D01*
X-394929Y-200999D01*
X-388502D01*
Y-207769D02*
X-394501Y-203484D01*
Y-209911D01*
X-388502Y-207769D02*
X-397500D01*
X-388502Y-215781D02*
X-394501Y-211497D01*
Y-217924D01*
X-388502Y-215781D02*
X-397500D01*
X-553998Y-157500D02*
X-547571D01*
X-546285Y-157072D01*
X-545429Y-156215D01*
X-545000Y-154929D01*
Y-154072D01*
X-545429Y-152787D01*
X-546285Y-151930D01*
X-547571Y-151501D01*
X-553998D01*
X-552284Y-149016D02*
X-552713Y-148159D01*
X-553998Y-146874D01*
X-545000D01*
X-553998Y-138133D02*
X-547999Y-142417D01*
Y-135990D01*
X-553998Y-138133D02*
X-545000D01*
X-463998Y-145000D02*
X-455000D01*
X-463998D02*
Y-141144D01*
X-463570Y-139858D01*
X-463141Y-139430D01*
X-462284Y-139001D01*
X-461427D01*
X-460570Y-139430D01*
X-460142Y-139858D01*
X-459713Y-141144D01*
Y-145000D01*
Y-142001D02*
X-455000Y-139001D01*
X-463998Y-136130D02*
Y-131417D01*
X-460570Y-133988D01*
Y-132703D01*
X-460142Y-131846D01*
X-459713Y-131417D01*
X-458428Y-130989D01*
X-457571D01*
X-456285Y-131417D01*
X-455429Y-132274D01*
X-455000Y-133560D01*
Y-134845D01*
X-455429Y-136130D01*
X-455857Y-136559D01*
X-456714Y-136987D01*
X-463998Y-126832D02*
X-463570Y-128118D01*
X-462713Y-128546D01*
X-461856D01*
X-460999Y-128118D01*
X-460570Y-127261D01*
X-460142Y-125547D01*
X-459713Y-124262D01*
X-458856Y-123405D01*
X-457999Y-122976D01*
X-456714D01*
X-455857Y-123405D01*
X-455429Y-123833D01*
X-455000Y-125119D01*
Y-126832D01*
X-455429Y-128118D01*
X-455857Y-128546D01*
X-456714Y-128975D01*
X-457999D01*
X-458856Y-128546D01*
X-459713Y-127689D01*
X-460142Y-126404D01*
X-460570Y-124690D01*
X-460999Y-123833D01*
X-461856Y-123405D01*
X-462713D01*
X-463570Y-123833D01*
X-463998Y-125119D01*
Y-126832D01*
Y-114964D02*
X-455000Y-119248D01*
X-463998Y-120962D02*
Y-114964D01*
X-450000Y-153502D02*
Y-162500D01*
Y-153502D02*
X-446144D01*
X-444858Y-153930D01*
X-444430Y-154359D01*
X-444001Y-155216D01*
Y-156073D01*
X-444430Y-156930D01*
X-444858Y-157358D01*
X-446144Y-157787D01*
X-450000D01*
X-447001D02*
X-444001Y-162500D01*
X-441130Y-153502D02*
X-436417D01*
X-438988Y-156930D01*
X-437703D01*
X-436846Y-157358D01*
X-436417Y-157787D01*
X-435989Y-159072D01*
Y-159929D01*
X-436417Y-161215D01*
X-437274Y-162071D01*
X-438560Y-162500D01*
X-439845D01*
X-441130Y-162071D01*
X-441559Y-161643D01*
X-441987Y-160786D01*
X-431832Y-153502D02*
X-433118Y-153930D01*
X-433546Y-154787D01*
Y-155644D01*
X-433118Y-156501D01*
X-432261Y-156930D01*
X-430547Y-157358D01*
X-429262Y-157787D01*
X-428405Y-158644D01*
X-427976Y-159501D01*
Y-160786D01*
X-428405Y-161643D01*
X-428833Y-162071D01*
X-430118Y-162500D01*
X-431832D01*
X-433118Y-162071D01*
X-433546Y-161643D01*
X-433975Y-160786D01*
Y-159501D01*
X-433546Y-158644D01*
X-432689Y-157787D01*
X-431404Y-157358D01*
X-429690Y-156930D01*
X-428833Y-156501D01*
X-428405Y-155644D01*
Y-154787D01*
X-428833Y-153930D01*
X-430118Y-153502D01*
X-431832D01*
X-420821Y-154787D02*
X-421249Y-153930D01*
X-422534Y-153502D01*
X-423391D01*
X-424677Y-153930D01*
X-425534Y-155216D01*
X-425962Y-157358D01*
Y-159501D01*
X-425534Y-161215D01*
X-424677Y-162071D01*
X-423391Y-162500D01*
X-422963D01*
X-421677Y-162071D01*
X-420821Y-161215D01*
X-420392Y-159929D01*
Y-159501D01*
X-420821Y-158215D01*
X-421677Y-157358D01*
X-422963Y-156930D01*
X-423391D01*
X-424677Y-157358D01*
X-425534Y-158215D01*
X-425962Y-159501D01*
X-510000Y-91002D02*
Y-100000D01*
Y-91002D02*
X-506144D01*
X-504858Y-91430D01*
X-504430Y-91859D01*
X-504001Y-92716D01*
Y-93573D01*
X-504430Y-94430D01*
X-504858Y-94858D01*
X-506144Y-95287D01*
X-510000D01*
X-507001D02*
X-504001Y-100000D01*
X-501987Y-92716D02*
X-501130Y-92287D01*
X-499845Y-91002D01*
Y-100000D01*
X-492818Y-91002D02*
X-494103Y-91430D01*
X-494960Y-92716D01*
X-495389Y-94858D01*
Y-96144D01*
X-494960Y-98286D01*
X-494103Y-99572D01*
X-492818Y-100000D01*
X-491961D01*
X-490676Y-99572D01*
X-489819Y-98286D01*
X-489390Y-96144D01*
Y-94858D01*
X-489819Y-92716D01*
X-490676Y-91430D01*
X-491961Y-91002D01*
X-492818D01*
X-481377D02*
X-485662Y-100000D01*
X-487376Y-91002D02*
X-481377D01*
X-625000D02*
Y-100000D01*
Y-91002D02*
X-621144D01*
X-619858Y-91430D01*
X-619430Y-91859D01*
X-619001Y-92716D01*
Y-93573D01*
X-619430Y-94430D01*
X-619858Y-94858D01*
X-621144Y-95287D01*
X-625000D01*
X-622001D02*
X-619001Y-100000D01*
X-616987Y-92716D02*
X-616130Y-92287D01*
X-614845Y-91002D01*
Y-100000D01*
X-607818Y-91002D02*
X-609103Y-91430D01*
X-609960Y-92716D01*
X-610389Y-94858D01*
Y-96144D01*
X-609960Y-98286D01*
X-609103Y-99572D01*
X-607818Y-100000D01*
X-606961D01*
X-605676Y-99572D01*
X-604819Y-98286D01*
X-604390Y-96144D01*
Y-94858D01*
X-604819Y-92716D01*
X-605676Y-91430D01*
X-606961Y-91002D01*
X-607818D01*
X-597234Y-92287D02*
X-597663Y-91430D01*
X-598948Y-91002D01*
X-599805D01*
X-601091Y-91430D01*
X-601948Y-92716D01*
X-602376Y-94858D01*
Y-97001D01*
X-601948Y-98715D01*
X-601091Y-99572D01*
X-599805Y-100000D01*
X-599377D01*
X-598091Y-99572D01*
X-597234Y-98715D01*
X-596806Y-97429D01*
Y-97001D01*
X-597234Y-95715D01*
X-598091Y-94858D01*
X-599377Y-94430D01*
X-599805D01*
X-601091Y-94858D01*
X-601948Y-95715D01*
X-602376Y-97001D01*
X-477500Y-43502D02*
Y-52500D01*
Y-43502D02*
X-473644D01*
X-472358Y-43930D01*
X-471930Y-44359D01*
X-471501Y-45216D01*
Y-46073D01*
X-471930Y-46930D01*
X-472358Y-47358D01*
X-473644Y-47787D01*
X-477500D01*
X-474501D02*
X-471501Y-52500D01*
X-469487Y-45216D02*
X-468630Y-44787D01*
X-467345Y-43502D01*
Y-52500D01*
X-460318Y-43502D02*
X-461603Y-43930D01*
X-462460Y-45216D01*
X-462889Y-47358D01*
Y-48644D01*
X-462460Y-50786D01*
X-461603Y-52071D01*
X-460318Y-52500D01*
X-459461D01*
X-458176Y-52071D01*
X-457319Y-50786D01*
X-456890Y-48644D01*
Y-47358D01*
X-457319Y-45216D01*
X-458176Y-43930D01*
X-459461Y-43502D01*
X-460318D01*
X-449734D02*
X-454019D01*
X-454448Y-47358D01*
X-454019Y-46930D01*
X-452734Y-46501D01*
X-451448D01*
X-450163Y-46930D01*
X-449306Y-47787D01*
X-448877Y-49072D01*
Y-49929D01*
X-449306Y-51215D01*
X-450163Y-52071D01*
X-451448Y-52500D01*
X-452734D01*
X-454019Y-52071D01*
X-454448Y-51643D01*
X-454876Y-50786D01*
X-510000Y-76002D02*
Y-85000D01*
Y-76002D02*
X-506144D01*
X-504858Y-76430D01*
X-504430Y-76859D01*
X-504001Y-77716D01*
Y-78573D01*
X-504430Y-79430D01*
X-504858Y-79858D01*
X-506144Y-80287D01*
X-510000D01*
X-507001D02*
X-504001Y-85000D01*
X-501987Y-77716D02*
X-501130Y-77287D01*
X-499845Y-76002D01*
Y-85000D01*
X-492818Y-76002D02*
X-494103Y-76430D01*
X-494960Y-77716D01*
X-495389Y-79858D01*
Y-81144D01*
X-494960Y-83286D01*
X-494103Y-84572D01*
X-492818Y-85000D01*
X-491961D01*
X-490676Y-84572D01*
X-489819Y-83286D01*
X-489390Y-81144D01*
Y-79858D01*
X-489819Y-77716D01*
X-490676Y-76430D01*
X-491961Y-76002D01*
X-492818D01*
X-483091D02*
X-487376Y-82001D01*
X-480949D01*
X-483091Y-76002D02*
Y-85000D01*
X-661102Y-132914D02*
Y-141912D01*
Y-132914D02*
X-657246D01*
X-655960Y-133342D01*
X-655532Y-133771D01*
X-655103Y-134628D01*
Y-135485D01*
X-655532Y-136342D01*
X-655960Y-136770D01*
X-657246Y-137199D01*
X-661102D01*
X-658103D02*
X-655103Y-141912D01*
X-653089Y-134628D02*
X-652232Y-134199D01*
X-650947Y-132914D01*
Y-141912D01*
X-643920Y-132914D02*
X-645205Y-133342D01*
X-646062Y-134628D01*
X-646491Y-136770D01*
Y-138056D01*
X-646062Y-140198D01*
X-645205Y-141483D01*
X-643920Y-141912D01*
X-643063D01*
X-641777Y-141483D01*
X-640921Y-140198D01*
X-640492Y-138056D01*
Y-136770D01*
X-640921Y-134628D01*
X-641777Y-133342D01*
X-643063Y-132914D01*
X-643920D01*
X-637621D02*
X-632908D01*
X-635479Y-136342D01*
X-634193D01*
X-633336Y-136770D01*
X-632908Y-137199D01*
X-632480Y-138484D01*
Y-139341D01*
X-632908Y-140627D01*
X-633765Y-141483D01*
X-635050Y-141912D01*
X-636336D01*
X-637621Y-141483D01*
X-638050Y-141055D01*
X-638478Y-140198D01*
X-625000Y-103502D02*
Y-112500D01*
Y-103502D02*
X-621144D01*
X-619858Y-103930D01*
X-619430Y-104359D01*
X-619001Y-105216D01*
Y-106073D01*
X-619430Y-106930D01*
X-619858Y-107358D01*
X-621144Y-107787D01*
X-625000D01*
X-622001D02*
X-619001Y-112500D01*
X-616987Y-105216D02*
X-616130Y-104787D01*
X-614845Y-103502D01*
Y-112500D01*
X-607818Y-103502D02*
X-609103Y-103930D01*
X-609960Y-105216D01*
X-610389Y-107358D01*
Y-108644D01*
X-609960Y-110786D01*
X-609103Y-112072D01*
X-607818Y-112500D01*
X-606961D01*
X-605676Y-112072D01*
X-604819Y-110786D01*
X-604390Y-108644D01*
Y-107358D01*
X-604819Y-105216D01*
X-605676Y-103930D01*
X-606961Y-103502D01*
X-607818D01*
X-601948Y-105644D02*
Y-105216D01*
X-601519Y-104359D01*
X-601091Y-103930D01*
X-600234Y-103502D01*
X-598520D01*
X-597663Y-103930D01*
X-597234Y-104359D01*
X-596806Y-105216D01*
Y-106073D01*
X-597234Y-106930D01*
X-598091Y-108215D01*
X-602376Y-112500D01*
X-596377D01*
X-477500Y-58502D02*
Y-67500D01*
Y-58502D02*
X-473644D01*
X-472358Y-58930D01*
X-471930Y-59359D01*
X-471501Y-60216D01*
Y-61073D01*
X-471930Y-61930D01*
X-472358Y-62358D01*
X-473644Y-62787D01*
X-477500D01*
X-474501D02*
X-471501Y-67500D01*
X-469487Y-60216D02*
X-468630Y-59787D01*
X-467345Y-58502D01*
Y-67500D01*
X-460318Y-58502D02*
X-461603Y-58930D01*
X-462460Y-60216D01*
X-462889Y-62358D01*
Y-63644D01*
X-462460Y-65786D01*
X-461603Y-67071D01*
X-460318Y-67500D01*
X-459461D01*
X-458176Y-67071D01*
X-457319Y-65786D01*
X-456890Y-63644D01*
Y-62358D01*
X-457319Y-60216D01*
X-458176Y-58930D01*
X-459461Y-58502D01*
X-460318D01*
X-454876Y-60216D02*
X-454019Y-59787D01*
X-452734Y-58502D01*
Y-67500D01*
X-661102Y-117928D02*
Y-126926D01*
Y-117928D02*
X-657246D01*
X-655960Y-118356D01*
X-655532Y-118785D01*
X-655103Y-119642D01*
Y-120499D01*
X-655532Y-121356D01*
X-655960Y-121784D01*
X-657246Y-122213D01*
X-661102D01*
X-658103D02*
X-655103Y-126926D01*
X-653089Y-119642D02*
X-652232Y-119213D01*
X-650947Y-117928D01*
Y-126926D01*
X-643920Y-117928D02*
X-645205Y-118356D01*
X-646062Y-119642D01*
X-646491Y-121784D01*
Y-123070D01*
X-646062Y-125212D01*
X-645205Y-126497D01*
X-643920Y-126926D01*
X-643063D01*
X-641777Y-126497D01*
X-640921Y-125212D01*
X-640492Y-123070D01*
Y-121784D01*
X-640921Y-119642D01*
X-641777Y-118356D01*
X-643063Y-117928D01*
X-643920D01*
X-635907D02*
X-637193Y-118356D01*
X-638050Y-119642D01*
X-638478Y-121784D01*
Y-123070D01*
X-638050Y-125212D01*
X-637193Y-126497D01*
X-635907Y-126926D01*
X-635050D01*
X-633765Y-126497D01*
X-632908Y-125212D01*
X-632480Y-123070D01*
Y-121784D01*
X-632908Y-119642D01*
X-633765Y-118356D01*
X-635050Y-117928D01*
X-635907D01*
X-525000Y-41002D02*
Y-50000D01*
Y-41002D02*
X-521144D01*
X-519858Y-41430D01*
X-519430Y-41859D01*
X-519001Y-42716D01*
Y-43573D01*
X-519430Y-44430D01*
X-519858Y-44858D01*
X-521144Y-45287D01*
X-525000D01*
X-522001D02*
X-519001Y-50000D01*
X-511417Y-44001D02*
X-511846Y-45287D01*
X-512703Y-46144D01*
X-513988Y-46572D01*
X-514417D01*
X-515702Y-46144D01*
X-516559Y-45287D01*
X-516987Y-44001D01*
Y-43573D01*
X-516559Y-42287D01*
X-515702Y-41430D01*
X-514417Y-41002D01*
X-513988D01*
X-512703Y-41430D01*
X-511846Y-42287D01*
X-511417Y-44001D01*
Y-46144D01*
X-511846Y-48286D01*
X-512703Y-49571D01*
X-513988Y-50000D01*
X-514845D01*
X-516130Y-49571D01*
X-516559Y-48715D01*
X-503405Y-44001D02*
X-503833Y-45287D01*
X-504690Y-46144D01*
X-505975Y-46572D01*
X-506404D01*
X-507689Y-46144D01*
X-508546Y-45287D01*
X-508975Y-44001D01*
Y-43573D01*
X-508546Y-42287D01*
X-507689Y-41430D01*
X-506404Y-41002D01*
X-505975D01*
X-504690Y-41430D01*
X-503833Y-42287D01*
X-503405Y-44001D01*
Y-46144D01*
X-503833Y-48286D01*
X-504690Y-49571D01*
X-505975Y-50000D01*
X-506832D01*
X-508118Y-49571D01*
X-508546Y-48715D01*
X-610000Y-63502D02*
Y-72500D01*
Y-63502D02*
X-606144D01*
X-604858Y-63930D01*
X-604430Y-64359D01*
X-604001Y-65216D01*
Y-66073D01*
X-604430Y-66930D01*
X-604858Y-67358D01*
X-606144Y-67787D01*
X-610000D01*
X-607001D02*
X-604001Y-72500D01*
X-596417Y-66501D02*
X-596846Y-67787D01*
X-597703Y-68644D01*
X-598988Y-69072D01*
X-599417D01*
X-600702Y-68644D01*
X-601559Y-67787D01*
X-601987Y-66501D01*
Y-66073D01*
X-601559Y-64787D01*
X-600702Y-63930D01*
X-599417Y-63502D01*
X-598988D01*
X-597703Y-63930D01*
X-596846Y-64787D01*
X-596417Y-66501D01*
Y-68644D01*
X-596846Y-70786D01*
X-597703Y-72071D01*
X-598988Y-72500D01*
X-599845D01*
X-601130Y-72071D01*
X-601559Y-71215D01*
X-591832Y-63502D02*
X-593118Y-63930D01*
X-593546Y-64787D01*
Y-65644D01*
X-593118Y-66501D01*
X-592261Y-66930D01*
X-590547Y-67358D01*
X-589262Y-67787D01*
X-588405Y-68644D01*
X-587976Y-69501D01*
Y-70786D01*
X-588405Y-71643D01*
X-588833Y-72071D01*
X-590118Y-72500D01*
X-591832D01*
X-593118Y-72071D01*
X-593546Y-71643D01*
X-593975Y-70786D01*
Y-69501D01*
X-593546Y-68644D01*
X-592689Y-67787D01*
X-591404Y-67358D01*
X-589690Y-66930D01*
X-588833Y-66501D01*
X-588405Y-65644D01*
Y-64787D01*
X-588833Y-63930D01*
X-590118Y-63502D01*
X-591832D01*
X-465000Y-171002D02*
Y-180000D01*
Y-171002D02*
X-461144D01*
X-459858Y-171430D01*
X-459430Y-171859D01*
X-459001Y-172716D01*
Y-173573D01*
X-459430Y-174430D01*
X-459858Y-174858D01*
X-461144Y-175287D01*
X-465000D01*
X-462001D02*
X-459001Y-180000D01*
X-451417Y-174001D02*
X-451846Y-175287D01*
X-452703Y-176144D01*
X-453988Y-176572D01*
X-454417D01*
X-455702Y-176144D01*
X-456559Y-175287D01*
X-456987Y-174001D01*
Y-173573D01*
X-456559Y-172287D01*
X-455702Y-171430D01*
X-454417Y-171002D01*
X-453988D01*
X-452703Y-171430D01*
X-451846Y-172287D01*
X-451417Y-174001D01*
Y-176144D01*
X-451846Y-178286D01*
X-452703Y-179571D01*
X-453988Y-180000D01*
X-454845D01*
X-456130Y-179571D01*
X-456559Y-178715D01*
X-442976Y-171002D02*
X-447261Y-180000D01*
X-448975Y-171002D02*
X-442976D01*
X-654244Y-167966D02*
Y-176964D01*
Y-167966D02*
X-650388D01*
X-649102Y-168394D01*
X-648674Y-168823D01*
X-648245Y-169680D01*
Y-170537D01*
X-648674Y-171394D01*
X-649102Y-171822D01*
X-650388Y-172251D01*
X-654244D01*
X-651245D02*
X-648245Y-176964D01*
X-640661Y-170965D02*
X-641090Y-172251D01*
X-641947Y-173108D01*
X-643232Y-173536D01*
X-643661D01*
X-644946Y-173108D01*
X-645803Y-172251D01*
X-646231Y-170965D01*
Y-170537D01*
X-645803Y-169251D01*
X-644946Y-168394D01*
X-643661Y-167966D01*
X-643232D01*
X-641947Y-168394D01*
X-641090Y-169251D01*
X-640661Y-170965D01*
Y-173108D01*
X-641090Y-175250D01*
X-641947Y-176535D01*
X-643232Y-176964D01*
X-644089D01*
X-645374Y-176535D01*
X-645803Y-175679D01*
X-633077Y-169251D02*
X-633506Y-168394D01*
X-634791Y-167966D01*
X-635648D01*
X-636933Y-168394D01*
X-637790Y-169680D01*
X-638219Y-171822D01*
Y-173965D01*
X-637790Y-175679D01*
X-636933Y-176535D01*
X-635648Y-176964D01*
X-635219D01*
X-633934Y-176535D01*
X-633077Y-175679D01*
X-632649Y-174393D01*
Y-173965D01*
X-633077Y-172679D01*
X-633934Y-171822D01*
X-635219Y-171394D01*
X-635648D01*
X-636933Y-171822D01*
X-637790Y-172679D01*
X-638219Y-173965D01*
X-543998Y-65000D02*
X-535000D01*
X-543998D02*
Y-61144D01*
X-543570Y-59858D01*
X-543141Y-59430D01*
X-542284Y-59001D01*
X-541427D01*
X-540570Y-59430D01*
X-540142Y-59858D01*
X-539713Y-61144D01*
Y-65000D01*
Y-62001D02*
X-535000Y-59001D01*
X-540999Y-51417D02*
X-539713Y-51846D01*
X-538856Y-52703D01*
X-538428Y-53988D01*
Y-54416D01*
X-538856Y-55702D01*
X-539713Y-56559D01*
X-540999Y-56987D01*
X-541427D01*
X-542713Y-56559D01*
X-543570Y-55702D01*
X-543998Y-54416D01*
Y-53988D01*
X-543570Y-52703D01*
X-542713Y-51846D01*
X-540999Y-51417D01*
X-538856D01*
X-536714Y-51846D01*
X-535429Y-52703D01*
X-535000Y-53988D01*
Y-54845D01*
X-535429Y-56130D01*
X-536285Y-56559D01*
X-543998Y-43833D02*
Y-48118D01*
X-540142Y-48546D01*
X-540570Y-48118D01*
X-540999Y-46832D01*
Y-45547D01*
X-540570Y-44262D01*
X-539713Y-43405D01*
X-538428Y-42976D01*
X-537571D01*
X-536285Y-43405D01*
X-535429Y-44262D01*
X-535000Y-45547D01*
Y-46832D01*
X-535429Y-48118D01*
X-535857Y-48546D01*
X-536714Y-48975D01*
X-577500Y-56002D02*
Y-65000D01*
Y-56002D02*
X-573644D01*
X-572358Y-56430D01*
X-571930Y-56859D01*
X-571501Y-57716D01*
Y-58573D01*
X-571930Y-59430D01*
X-572358Y-59858D01*
X-573644Y-60287D01*
X-577500D01*
X-574501D02*
X-571501Y-65000D01*
X-563917Y-59001D02*
X-564346Y-60287D01*
X-565203Y-61144D01*
X-566488Y-61572D01*
X-566917D01*
X-568202Y-61144D01*
X-569059Y-60287D01*
X-569487Y-59001D01*
Y-58573D01*
X-569059Y-57287D01*
X-568202Y-56430D01*
X-566917Y-56002D01*
X-566488D01*
X-565203Y-56430D01*
X-564346Y-57287D01*
X-563917Y-59001D01*
Y-61144D01*
X-564346Y-63286D01*
X-565203Y-64571D01*
X-566488Y-65000D01*
X-567345D01*
X-568630Y-64571D01*
X-569059Y-63715D01*
X-557190Y-56002D02*
X-561475Y-62001D01*
X-555048D01*
X-557190Y-56002D02*
Y-65000D01*
X-560000Y-268502D02*
Y-277500D01*
Y-268502D02*
X-556144D01*
X-554858Y-268930D01*
X-554430Y-269359D01*
X-554001Y-270216D01*
Y-271073D01*
X-554430Y-271930D01*
X-554858Y-272358D01*
X-556144Y-272787D01*
X-560000D01*
X-557001D02*
X-554001Y-277500D01*
X-546417Y-271501D02*
X-546846Y-272787D01*
X-547703Y-273644D01*
X-548988Y-274072D01*
X-549417D01*
X-550702Y-273644D01*
X-551559Y-272787D01*
X-551987Y-271501D01*
Y-271073D01*
X-551559Y-269787D01*
X-550702Y-268930D01*
X-549417Y-268502D01*
X-548988D01*
X-547703Y-268930D01*
X-546846Y-269787D01*
X-546417Y-271501D01*
Y-273644D01*
X-546846Y-275786D01*
X-547703Y-277071D01*
X-548988Y-277500D01*
X-549845D01*
X-551130Y-277071D01*
X-551559Y-276215D01*
X-543118Y-268502D02*
X-538405D01*
X-540975Y-271930D01*
X-539690D01*
X-538833Y-272358D01*
X-538405Y-272787D01*
X-537976Y-274072D01*
Y-274929D01*
X-538405Y-276215D01*
X-539262Y-277071D01*
X-540547Y-277500D01*
X-541832D01*
X-543118Y-277071D01*
X-543546Y-276643D01*
X-543975Y-275786D01*
X-467500Y-241002D02*
Y-250000D01*
Y-241002D02*
X-463644D01*
X-462358Y-241430D01*
X-461930Y-241859D01*
X-461501Y-242716D01*
Y-243573D01*
X-461930Y-244430D01*
X-462358Y-244858D01*
X-463644Y-245287D01*
X-467500D01*
X-464501D02*
X-461501Y-250000D01*
X-453917Y-244001D02*
X-454346Y-245287D01*
X-455203Y-246144D01*
X-456488Y-246572D01*
X-456917D01*
X-458202Y-246144D01*
X-459059Y-245287D01*
X-459487Y-244001D01*
Y-243573D01*
X-459059Y-242287D01*
X-458202Y-241430D01*
X-456917Y-241002D01*
X-456488D01*
X-455203Y-241430D01*
X-454346Y-242287D01*
X-453917Y-244001D01*
Y-246144D01*
X-454346Y-248286D01*
X-455203Y-249571D01*
X-456488Y-250000D01*
X-457345D01*
X-458630Y-249571D01*
X-459059Y-248715D01*
X-451046Y-243144D02*
Y-242716D01*
X-450618Y-241859D01*
X-450189Y-241430D01*
X-449333Y-241002D01*
X-447618D01*
X-446762Y-241430D01*
X-446333Y-241859D01*
X-445905Y-242716D01*
Y-243573D01*
X-446333Y-244430D01*
X-447190Y-245715D01*
X-451475Y-250000D01*
X-445476D01*
X-693502Y-232500D02*
X-702500D01*
X-693502D02*
Y-236356D01*
X-693930Y-237642D01*
X-694359Y-238070D01*
X-695216Y-238499D01*
X-696073D01*
X-696930Y-238070D01*
X-697358Y-237642D01*
X-697787Y-236356D01*
Y-232500D01*
Y-235499D02*
X-702500Y-238499D01*
X-696501Y-246083D02*
X-697787Y-245654D01*
X-698644Y-244797D01*
X-699072Y-243512D01*
Y-243083D01*
X-698644Y-241798D01*
X-697787Y-240941D01*
X-696501Y-240513D01*
X-696073D01*
X-694787Y-240941D01*
X-693930Y-241798D01*
X-693502Y-243083D01*
Y-243512D01*
X-693930Y-244797D01*
X-694787Y-245654D01*
X-696501Y-246083D01*
X-698644D01*
X-700786Y-245654D01*
X-702072Y-244797D01*
X-702500Y-243512D01*
Y-242655D01*
X-702072Y-241369D01*
X-701215Y-240941D01*
X-695216Y-248525D02*
X-694787Y-249382D01*
X-693502Y-250667D01*
X-702500D01*
X-737500Y-198502D02*
Y-207500D01*
Y-198502D02*
X-733644D01*
X-732358Y-198930D01*
X-731930Y-199359D01*
X-731501Y-200216D01*
Y-201073D01*
X-731930Y-201930D01*
X-732358Y-202358D01*
X-733644Y-202787D01*
X-737500D01*
X-734501D02*
X-731501Y-207500D01*
X-723917Y-201501D02*
X-724346Y-202787D01*
X-725203Y-203644D01*
X-726488Y-204072D01*
X-726917D01*
X-728202Y-203644D01*
X-729059Y-202787D01*
X-729487Y-201501D01*
Y-201073D01*
X-729059Y-199787D01*
X-728202Y-198930D01*
X-726917Y-198502D01*
X-726488D01*
X-725203Y-198930D01*
X-724346Y-199787D01*
X-723917Y-201501D01*
Y-203644D01*
X-724346Y-205786D01*
X-725203Y-207071D01*
X-726488Y-207500D01*
X-727345D01*
X-728630Y-207071D01*
X-729059Y-206215D01*
X-718904Y-198502D02*
X-720189Y-198930D01*
X-721046Y-200216D01*
X-721475Y-202358D01*
Y-203644D01*
X-721046Y-205786D01*
X-720189Y-207071D01*
X-718904Y-207500D01*
X-718047D01*
X-716762Y-207071D01*
X-715905Y-205786D01*
X-715476Y-203644D01*
Y-202358D01*
X-715905Y-200216D01*
X-716762Y-198930D01*
X-718047Y-198502D01*
X-718904D01*
X-638998Y-270000D02*
X-630000D01*
X-638998D02*
Y-266144D01*
X-638570Y-264858D01*
X-638141Y-264430D01*
X-637284Y-264001D01*
X-636427D01*
X-635570Y-264430D01*
X-635142Y-264858D01*
X-634713Y-266144D01*
Y-270000D01*
Y-267001D02*
X-630000Y-264001D01*
X-638998Y-259845D02*
X-638570Y-261130D01*
X-637713Y-261559D01*
X-636856D01*
X-635999Y-261130D01*
X-635570Y-260273D01*
X-635142Y-258560D01*
X-634713Y-257274D01*
X-633856Y-256417D01*
X-632999Y-255989D01*
X-631714D01*
X-630857Y-256417D01*
X-630429Y-256846D01*
X-630000Y-258131D01*
Y-259845D01*
X-630429Y-261130D01*
X-630857Y-261559D01*
X-631714Y-261987D01*
X-632999D01*
X-633856Y-261559D01*
X-634713Y-260702D01*
X-635142Y-259417D01*
X-635570Y-257703D01*
X-635999Y-256846D01*
X-636856Y-256417D01*
X-637713D01*
X-638570Y-256846D01*
X-638998Y-258131D01*
Y-259845D01*
X-635999Y-248405D02*
X-634713Y-248833D01*
X-633856Y-249690D01*
X-633428Y-250975D01*
Y-251404D01*
X-633856Y-252689D01*
X-634713Y-253546D01*
X-635999Y-253975D01*
X-636427D01*
X-637713Y-253546D01*
X-638570Y-252689D01*
X-638998Y-251404D01*
Y-250975D01*
X-638570Y-249690D01*
X-637713Y-248833D01*
X-635999Y-248405D01*
X-633856D01*
X-631714Y-248833D01*
X-630429Y-249690D01*
X-630000Y-250975D01*
Y-251832D01*
X-630429Y-253118D01*
X-631286Y-253546D01*
X-560000Y-253502D02*
Y-262500D01*
Y-253502D02*
X-556144D01*
X-554858Y-253930D01*
X-554430Y-254359D01*
X-554001Y-255216D01*
Y-256073D01*
X-554430Y-256930D01*
X-554858Y-257358D01*
X-556144Y-257787D01*
X-560000D01*
X-557001D02*
X-554001Y-262500D01*
X-549845Y-253502D02*
X-551130Y-253930D01*
X-551559Y-254787D01*
Y-255644D01*
X-551130Y-256501D01*
X-550274Y-256930D01*
X-548560Y-257358D01*
X-547274Y-257787D01*
X-546417Y-258644D01*
X-545989Y-259501D01*
Y-260786D01*
X-546417Y-261643D01*
X-546846Y-262071D01*
X-548131Y-262500D01*
X-549845D01*
X-551130Y-262071D01*
X-551559Y-261643D01*
X-551987Y-260786D01*
Y-259501D01*
X-551559Y-258644D01*
X-550702Y-257787D01*
X-549417Y-257358D01*
X-547703Y-256930D01*
X-546846Y-256501D01*
X-546417Y-255644D01*
Y-254787D01*
X-546846Y-253930D01*
X-548131Y-253502D01*
X-549845D01*
X-541832D02*
X-543118Y-253930D01*
X-543546Y-254787D01*
Y-255644D01*
X-543118Y-256501D01*
X-542261Y-256930D01*
X-540547Y-257358D01*
X-539262Y-257787D01*
X-538405Y-258644D01*
X-537976Y-259501D01*
Y-260786D01*
X-538405Y-261643D01*
X-538833Y-262071D01*
X-540118Y-262500D01*
X-541832D01*
X-543118Y-262071D01*
X-543546Y-261643D01*
X-543975Y-260786D01*
Y-259501D01*
X-543546Y-258644D01*
X-542689Y-257787D01*
X-541404Y-257358D01*
X-539690Y-256930D01*
X-538833Y-256501D01*
X-538405Y-255644D01*
Y-254787D01*
X-538833Y-253930D01*
X-540118Y-253502D01*
X-541832D01*
X-764226Y-395042D02*
Y-404040D01*
Y-395042D02*
X-760370D01*
X-759084Y-395470D01*
X-758656Y-395899D01*
X-758227Y-396756D01*
Y-397613D01*
X-758656Y-398470D01*
X-759084Y-398898D01*
X-760370Y-399327D01*
X-764226D01*
X-761227D02*
X-758227Y-404040D01*
X-754071Y-395042D02*
X-755356Y-395470D01*
X-755785Y-396327D01*
Y-397184D01*
X-755356Y-398041D01*
X-754500Y-398470D01*
X-752786Y-398898D01*
X-751500Y-399327D01*
X-750643Y-400184D01*
X-750215Y-401041D01*
Y-402326D01*
X-750643Y-403183D01*
X-751072Y-403611D01*
X-752357Y-404040D01*
X-754071D01*
X-755356Y-403611D01*
X-755785Y-403183D01*
X-756213Y-402326D01*
Y-401041D01*
X-755785Y-400184D01*
X-754928Y-399327D01*
X-753643Y-398898D01*
X-751929Y-398470D01*
X-751072Y-398041D01*
X-750643Y-397184D01*
Y-396327D01*
X-751072Y-395470D01*
X-752357Y-395042D01*
X-754071D01*
X-742202D02*
X-746487Y-404040D01*
X-748201Y-395042D02*
X-742202D01*
X-763718Y-377516D02*
Y-386514D01*
Y-377516D02*
X-759862D01*
X-758576Y-377944D01*
X-758148Y-378373D01*
X-757719Y-379230D01*
Y-380087D01*
X-758148Y-380944D01*
X-758576Y-381372D01*
X-759862Y-381801D01*
X-763718D01*
X-760719D02*
X-757719Y-386514D01*
X-753563Y-377516D02*
X-754848Y-377944D01*
X-755277Y-378801D01*
Y-379658D01*
X-754848Y-380515D01*
X-753991Y-380944D01*
X-752278Y-381372D01*
X-750992Y-381801D01*
X-750135Y-382658D01*
X-749707Y-383515D01*
Y-384800D01*
X-750135Y-385657D01*
X-750564Y-386086D01*
X-751849Y-386514D01*
X-753563D01*
X-754848Y-386086D01*
X-755277Y-385657D01*
X-755705Y-384800D01*
Y-383515D01*
X-755277Y-382658D01*
X-754420Y-381801D01*
X-753135Y-381372D01*
X-751421Y-380944D01*
X-750564Y-380515D01*
X-750135Y-379658D01*
Y-378801D01*
X-750564Y-377944D01*
X-751849Y-377516D01*
X-753563D01*
X-742551Y-378801D02*
X-742980Y-377944D01*
X-744265Y-377516D01*
X-745122D01*
X-746407Y-377944D01*
X-747264Y-379230D01*
X-747693Y-381372D01*
Y-383515D01*
X-747264Y-385229D01*
X-746407Y-386086D01*
X-745122Y-386514D01*
X-744694D01*
X-743408Y-386086D01*
X-742551Y-385229D01*
X-742123Y-383943D01*
Y-383515D01*
X-742551Y-382229D01*
X-743408Y-381372D01*
X-744694Y-380944D01*
X-745122D01*
X-746407Y-381372D01*
X-747264Y-382229D01*
X-747693Y-383515D01*
X-465000Y-286002D02*
Y-295000D01*
Y-286002D02*
X-461144D01*
X-459858Y-286430D01*
X-459430Y-286859D01*
X-459001Y-287716D01*
Y-288573D01*
X-459430Y-289430D01*
X-459858Y-289858D01*
X-461144Y-290287D01*
X-465000D01*
X-462001D02*
X-459001Y-295000D01*
X-454845Y-286002D02*
X-456130Y-286430D01*
X-456559Y-287287D01*
Y-288144D01*
X-456130Y-289001D01*
X-455274Y-289430D01*
X-453560Y-289858D01*
X-452274Y-290287D01*
X-451417Y-291144D01*
X-450989Y-292001D01*
Y-293286D01*
X-451417Y-294143D01*
X-451846Y-294571D01*
X-453131Y-295000D01*
X-454845D01*
X-456130Y-294571D01*
X-456559Y-294143D01*
X-456987Y-293286D01*
Y-292001D01*
X-456559Y-291144D01*
X-455702Y-290287D01*
X-454417Y-289858D01*
X-452703Y-289430D01*
X-451846Y-289001D01*
X-451417Y-288144D01*
Y-287287D01*
X-451846Y-286430D01*
X-453131Y-286002D01*
X-454845D01*
X-443833D02*
X-448118D01*
X-448546Y-289858D01*
X-448118Y-289430D01*
X-446833Y-289001D01*
X-445547D01*
X-444262Y-289430D01*
X-443405Y-290287D01*
X-442976Y-291572D01*
Y-292429D01*
X-443405Y-293715D01*
X-444262Y-294571D01*
X-445547Y-295000D01*
X-446833D01*
X-448118Y-294571D01*
X-448546Y-294143D01*
X-448975Y-293286D01*
X-475000Y-308502D02*
Y-317500D01*
Y-308502D02*
X-471144D01*
X-469858Y-308930D01*
X-469430Y-309359D01*
X-469001Y-310216D01*
Y-311073D01*
X-469430Y-311930D01*
X-469858Y-312358D01*
X-471144Y-312787D01*
X-475000D01*
X-472001D02*
X-469001Y-317500D01*
X-464845Y-308502D02*
X-466130Y-308930D01*
X-466559Y-309787D01*
Y-310644D01*
X-466130Y-311501D01*
X-465274Y-311930D01*
X-463560Y-312358D01*
X-462274Y-312787D01*
X-461417Y-313644D01*
X-460989Y-314501D01*
Y-315786D01*
X-461417Y-316643D01*
X-461846Y-317071D01*
X-463131Y-317500D01*
X-464845D01*
X-466130Y-317071D01*
X-466559Y-316643D01*
X-466987Y-315786D01*
Y-314501D01*
X-466559Y-313644D01*
X-465702Y-312787D01*
X-464417Y-312358D01*
X-462703Y-311930D01*
X-461846Y-311501D01*
X-461417Y-310644D01*
Y-309787D01*
X-461846Y-308930D01*
X-463131Y-308502D01*
X-464845D01*
X-454690D02*
X-458975Y-314501D01*
X-452548D01*
X-454690Y-308502D02*
Y-317500D01*
X-638998Y-297500D02*
X-630000D01*
X-638998D02*
Y-293644D01*
X-638570Y-292358D01*
X-638141Y-291930D01*
X-637284Y-291501D01*
X-636427D01*
X-635570Y-291930D01*
X-635142Y-292358D01*
X-634713Y-293644D01*
Y-297500D01*
Y-294501D02*
X-630000Y-291501D01*
X-638998Y-287345D02*
X-638570Y-288630D01*
X-637713Y-289059D01*
X-636856D01*
X-635999Y-288630D01*
X-635570Y-287773D01*
X-635142Y-286060D01*
X-634713Y-284774D01*
X-633856Y-283917D01*
X-632999Y-283489D01*
X-631714D01*
X-630857Y-283917D01*
X-630429Y-284346D01*
X-630000Y-285631D01*
Y-287345D01*
X-630429Y-288630D01*
X-630857Y-289059D01*
X-631714Y-289487D01*
X-632999D01*
X-633856Y-289059D01*
X-634713Y-288202D01*
X-635142Y-286917D01*
X-635570Y-285203D01*
X-635999Y-284346D01*
X-636856Y-283917D01*
X-637713D01*
X-638570Y-284346D01*
X-638998Y-285631D01*
Y-287345D01*
Y-280618D02*
Y-275905D01*
X-635570Y-278475D01*
Y-277190D01*
X-635142Y-276333D01*
X-634713Y-275905D01*
X-633428Y-275476D01*
X-632571D01*
X-631286Y-275905D01*
X-630429Y-276761D01*
X-630000Y-278047D01*
Y-279332D01*
X-630429Y-280618D01*
X-630857Y-281046D01*
X-631714Y-281475D01*
X-467500Y-256002D02*
Y-265000D01*
Y-256002D02*
X-463644D01*
X-462358Y-256430D01*
X-461930Y-256859D01*
X-461501Y-257716D01*
Y-258573D01*
X-461930Y-259430D01*
X-462358Y-259858D01*
X-463644Y-260287D01*
X-467500D01*
X-464501D02*
X-461501Y-265000D01*
X-457345Y-256002D02*
X-458630Y-256430D01*
X-459059Y-257287D01*
Y-258144D01*
X-458630Y-259001D01*
X-457774Y-259430D01*
X-456060Y-259858D01*
X-454774Y-260287D01*
X-453917Y-261144D01*
X-453489Y-262001D01*
Y-263286D01*
X-453917Y-264143D01*
X-454346Y-264571D01*
X-455631Y-265000D01*
X-457345D01*
X-458630Y-264571D01*
X-459059Y-264143D01*
X-459487Y-263286D01*
Y-262001D01*
X-459059Y-261144D01*
X-458202Y-260287D01*
X-456917Y-259858D01*
X-455203Y-259430D01*
X-454346Y-259001D01*
X-453917Y-258144D01*
Y-257287D01*
X-454346Y-256430D01*
X-455631Y-256002D01*
X-457345D01*
X-451046Y-258144D02*
Y-257716D01*
X-450618Y-256859D01*
X-450189Y-256430D01*
X-449333Y-256002D01*
X-447618D01*
X-446762Y-256430D01*
X-446333Y-256859D01*
X-445905Y-257716D01*
Y-258573D01*
X-446333Y-259430D01*
X-447190Y-260715D01*
X-451475Y-265000D01*
X-445476D01*
X-633502Y-302500D02*
X-642500D01*
X-633502D02*
Y-306356D01*
X-633930Y-307642D01*
X-634359Y-308070D01*
X-635216Y-308499D01*
X-636073D01*
X-636930Y-308070D01*
X-637358Y-307642D01*
X-637787Y-306356D01*
Y-302500D01*
Y-305499D02*
X-642500Y-308499D01*
X-633502Y-312655D02*
X-633930Y-311370D01*
X-634787Y-310941D01*
X-635644D01*
X-636501Y-311370D01*
X-636930Y-312227D01*
X-637358Y-313940D01*
X-637787Y-315226D01*
X-638644Y-316083D01*
X-639501Y-316511D01*
X-640786D01*
X-641643Y-316083D01*
X-642072Y-315654D01*
X-642500Y-314369D01*
Y-312655D01*
X-642072Y-311370D01*
X-641643Y-310941D01*
X-640786Y-310513D01*
X-639501D01*
X-638644Y-310941D01*
X-637787Y-311798D01*
X-637358Y-313083D01*
X-636930Y-314797D01*
X-636501Y-315654D01*
X-635644Y-316083D01*
X-634787D01*
X-633930Y-315654D01*
X-633502Y-314369D01*
Y-312655D01*
X-635216Y-318525D02*
X-634787Y-319382D01*
X-633502Y-320668D01*
X-642500D01*
X-631002Y-342500D02*
X-640000D01*
X-631002D02*
Y-346356D01*
X-631430Y-347642D01*
X-631859Y-348070D01*
X-632716Y-348499D01*
X-633573D01*
X-634430Y-348070D01*
X-634858Y-347642D01*
X-635287Y-346356D01*
Y-342500D01*
Y-345499D02*
X-640000Y-348499D01*
X-631002Y-352655D02*
X-631430Y-351370D01*
X-632287Y-350941D01*
X-633144D01*
X-634001Y-351370D01*
X-634430Y-352226D01*
X-634858Y-353940D01*
X-635287Y-355226D01*
X-636144Y-356083D01*
X-637001Y-356511D01*
X-638286D01*
X-639143Y-356083D01*
X-639571Y-355654D01*
X-640000Y-354369D01*
Y-352655D01*
X-639571Y-351370D01*
X-639143Y-350941D01*
X-638286Y-350513D01*
X-637001D01*
X-636144Y-350941D01*
X-635287Y-351798D01*
X-634858Y-353083D01*
X-634430Y-354797D01*
X-634001Y-355654D01*
X-633144Y-356083D01*
X-632287D01*
X-631430Y-355654D01*
X-631002Y-354369D01*
Y-352655D01*
Y-361096D02*
X-631430Y-359811D01*
X-632716Y-358954D01*
X-634858Y-358525D01*
X-636144D01*
X-638286Y-358954D01*
X-639571Y-359811D01*
X-640000Y-361096D01*
Y-361953D01*
X-639571Y-363238D01*
X-638286Y-364095D01*
X-636144Y-364524D01*
X-634858D01*
X-632716Y-364095D01*
X-631430Y-363238D01*
X-631002Y-361953D01*
Y-361096D01*
X-612500Y-316002D02*
Y-325000D01*
Y-316002D02*
X-608644D01*
X-607358Y-316430D01*
X-606930Y-316859D01*
X-606501Y-317716D01*
Y-318573D01*
X-606930Y-319430D01*
X-607358Y-319858D01*
X-608644Y-320287D01*
X-612500D01*
X-609501D02*
X-606501Y-325000D01*
X-598489Y-316002D02*
X-602774Y-325000D01*
X-604487Y-316002D02*
X-598489D01*
X-590905Y-319001D02*
X-591333Y-320287D01*
X-592190Y-321144D01*
X-593475Y-321572D01*
X-593904D01*
X-595189Y-321144D01*
X-596046Y-320287D01*
X-596475Y-319001D01*
Y-318573D01*
X-596046Y-317287D01*
X-595189Y-316430D01*
X-593904Y-316002D01*
X-593475D01*
X-592190Y-316430D01*
X-591333Y-317287D01*
X-590905Y-319001D01*
Y-321144D01*
X-591333Y-323286D01*
X-592190Y-324571D01*
X-593475Y-325000D01*
X-594332D01*
X-595618Y-324571D01*
X-596046Y-323715D01*
X-507500Y-308502D02*
Y-317500D01*
Y-308502D02*
X-503644D01*
X-502358Y-308930D01*
X-501930Y-309359D01*
X-501501Y-310216D01*
Y-311073D01*
X-501930Y-311930D01*
X-502358Y-312358D01*
X-503644Y-312787D01*
X-507500D01*
X-504501D02*
X-501501Y-317500D01*
X-493489Y-308502D02*
X-497774Y-317500D01*
X-499487Y-308502D02*
X-493489D01*
X-489332D02*
X-490618Y-308930D01*
X-491046Y-309787D01*
Y-310644D01*
X-490618Y-311501D01*
X-489761Y-311930D01*
X-488047Y-312358D01*
X-486762Y-312787D01*
X-485905Y-313644D01*
X-485476Y-314501D01*
Y-315786D01*
X-485905Y-316643D01*
X-486333Y-317071D01*
X-487618Y-317500D01*
X-489332D01*
X-490618Y-317071D01*
X-491046Y-316643D01*
X-491475Y-315786D01*
Y-314501D01*
X-491046Y-313644D01*
X-490189Y-312787D01*
X-488904Y-312358D01*
X-487190Y-311930D01*
X-486333Y-311501D01*
X-485905Y-310644D01*
Y-309787D01*
X-486333Y-308930D01*
X-487618Y-308502D01*
X-489332D01*
X-689519Y-175586D02*
X-690376Y-176014D01*
X-691233Y-176871D01*
X-691662Y-177728D01*
X-692090Y-179014D01*
Y-181156D01*
X-691662Y-182442D01*
X-691233Y-183299D01*
X-690376Y-184156D01*
X-689519Y-184584D01*
X-687805D01*
X-686948Y-184156D01*
X-686091Y-183299D01*
X-685663Y-182442D01*
X-685234Y-181156D01*
Y-179014D01*
X-685663Y-177728D01*
X-686091Y-176871D01*
X-686948Y-176014D01*
X-687805Y-175586D01*
X-689519D01*
X-688234Y-182870D02*
X-685663Y-185441D01*
X-682706Y-177728D02*
Y-177300D01*
X-682278Y-176443D01*
X-681849Y-176014D01*
X-680992Y-175586D01*
X-679278D01*
X-678421Y-176014D01*
X-677993Y-176443D01*
X-677564Y-177300D01*
Y-178157D01*
X-677993Y-179014D01*
X-678850Y-180299D01*
X-683135Y-184584D01*
X-677136D01*
X-689519Y-434920D02*
X-690376Y-435348D01*
X-691233Y-436205D01*
X-691662Y-437062D01*
X-692090Y-438348D01*
Y-440490D01*
X-691662Y-441776D01*
X-691233Y-442633D01*
X-690376Y-443489D01*
X-689519Y-443918D01*
X-687805D01*
X-686948Y-443489D01*
X-686091Y-442633D01*
X-685663Y-441776D01*
X-685234Y-440490D01*
Y-438348D01*
X-685663Y-437062D01*
X-686091Y-436205D01*
X-686948Y-435348D01*
X-687805Y-434920D01*
X-689519D01*
X-688234Y-442204D02*
X-685663Y-444775D01*
X-683135Y-436634D02*
X-682278Y-436205D01*
X-680992Y-434920D01*
Y-443918D01*
X-510000Y-383502D02*
Y-392500D01*
X-504858D01*
X-503444Y-385644D02*
Y-385216D01*
X-503016Y-384359D01*
X-502587Y-383930D01*
X-501730Y-383502D01*
X-500016D01*
X-499160Y-383930D01*
X-498731Y-384359D01*
X-498302Y-385216D01*
Y-386073D01*
X-498731Y-386930D01*
X-499588Y-388215D01*
X-503873Y-392500D01*
X-497874D01*
X-765715Y-61002D02*
Y-67858D01*
X-766144Y-69143D01*
X-766572Y-69571D01*
X-767429Y-70000D01*
X-768286D01*
X-769143Y-69571D01*
X-769572Y-69143D01*
X-770000Y-67858D01*
Y-67001D01*
X-763401Y-62716D02*
X-762544Y-62287D01*
X-761259Y-61002D01*
Y-70000D01*
X-751661Y-62287D02*
X-752090Y-61430D01*
X-753375Y-61002D01*
X-754232D01*
X-755517Y-61430D01*
X-756374Y-62716D01*
X-756803Y-64858D01*
Y-67001D01*
X-756374Y-68715D01*
X-755517Y-69571D01*
X-754232Y-70000D01*
X-753803D01*
X-752518Y-69571D01*
X-751661Y-68715D01*
X-751233Y-67429D01*
Y-67001D01*
X-751661Y-65715D01*
X-752518Y-64858D01*
X-753803Y-64430D01*
X-754232D01*
X-755517Y-64858D01*
X-756374Y-65715D01*
X-756803Y-67001D01*
X-765715Y-238502D02*
Y-245358D01*
X-766144Y-246643D01*
X-766572Y-247071D01*
X-767429Y-247500D01*
X-768286D01*
X-769143Y-247071D01*
X-769572Y-246643D01*
X-770000Y-245358D01*
Y-244501D01*
X-763401Y-240216D02*
X-762544Y-239787D01*
X-761259Y-238502D01*
Y-247500D01*
X-751661Y-238502D02*
X-755946D01*
X-756374Y-242358D01*
X-755946Y-241930D01*
X-754660Y-241501D01*
X-753375D01*
X-752090Y-241930D01*
X-751233Y-242787D01*
X-750804Y-244072D01*
Y-244929D01*
X-751233Y-246215D01*
X-752090Y-247071D01*
X-753375Y-247500D01*
X-754660D01*
X-755946Y-247071D01*
X-756374Y-246643D01*
X-756803Y-245786D01*
X-411073Y-123144D02*
X-411501Y-122287D01*
X-412358Y-121430D01*
X-413215Y-121002D01*
X-414929D01*
X-415786Y-121430D01*
X-416643Y-122287D01*
X-417071Y-123144D01*
X-417500Y-124430D01*
Y-126572D01*
X-417071Y-127858D01*
X-416643Y-128715D01*
X-415786Y-129572D01*
X-414929Y-130000D01*
X-413215D01*
X-412358Y-129572D01*
X-411501Y-128715D01*
X-411073Y-127858D01*
X-408545Y-122716D02*
X-407688Y-122287D01*
X-406402Y-121002D01*
Y-130000D01*
X-399375Y-121002D02*
X-400661Y-121430D01*
X-401518Y-122716D01*
X-401946Y-124858D01*
Y-126144D01*
X-401518Y-128286D01*
X-400661Y-129572D01*
X-399375Y-130000D01*
X-398518D01*
X-397233Y-129572D01*
X-396376Y-128286D01*
X-395947Y-126144D01*
Y-124858D01*
X-396376Y-122716D01*
X-397233Y-121430D01*
X-398518Y-121002D01*
X-399375D01*
X-389649D02*
X-393934Y-127001D01*
X-387506D01*
X-389649Y-121002D02*
Y-130000D01*
X-532322Y-424283D02*
X-533179Y-424711D01*
X-534036Y-425568D01*
X-534464Y-426425D01*
Y-428139D01*
X-534036Y-428996D01*
X-533179Y-429853D01*
X-532322Y-430281D01*
X-531036Y-430710D01*
X-528894D01*
X-527608Y-430281D01*
X-526751Y-429853D01*
X-525895Y-428996D01*
X-525466Y-428139D01*
Y-426425D01*
X-525895Y-425568D01*
X-526751Y-424711D01*
X-527608Y-424283D01*
X-534464Y-420898D02*
Y-416185D01*
X-531036Y-418755D01*
Y-417470D01*
X-530608Y-416613D01*
X-530179Y-416185D01*
X-528894Y-415756D01*
X-528037D01*
X-526751Y-416185D01*
X-525895Y-417042D01*
X-525466Y-418327D01*
Y-419612D01*
X-525895Y-420898D01*
X-526323Y-421326D01*
X-527180Y-421755D01*
X-532322Y-413314D02*
X-532750D01*
X-533607Y-412885D01*
X-534036Y-412457D01*
X-534464Y-411600D01*
Y-409886D01*
X-534036Y-409029D01*
X-533607Y-408601D01*
X-532750Y-408172D01*
X-531893D01*
X-531036Y-408601D01*
X-529751Y-409457D01*
X-525466Y-413742D01*
Y-407743D01*
X-552388Y-403963D02*
X-553245Y-404391D01*
X-554102Y-405248D01*
X-554530Y-406105D01*
Y-407819D01*
X-554102Y-408676D01*
X-553245Y-409533D01*
X-552388Y-409962D01*
X-551102Y-410390D01*
X-548960D01*
X-547674Y-409962D01*
X-546817Y-409533D01*
X-545961Y-408676D01*
X-545532Y-407819D01*
Y-406105D01*
X-545961Y-405248D01*
X-546817Y-404391D01*
X-547674Y-403963D01*
X-554530Y-400578D02*
Y-395864D01*
X-551102Y-398435D01*
Y-397150D01*
X-550674Y-396293D01*
X-550245Y-395864D01*
X-548960Y-395436D01*
X-548103D01*
X-546817Y-395864D01*
X-545961Y-396721D01*
X-545532Y-398007D01*
Y-399292D01*
X-545961Y-400578D01*
X-546389Y-401006D01*
X-547246Y-401435D01*
X-552816Y-393422D02*
X-553245Y-392565D01*
X-554530Y-391280D01*
X-545532D01*
X-471073Y-75644D02*
X-471501Y-74787D01*
X-472358Y-73930D01*
X-473215Y-73502D01*
X-474929D01*
X-475786Y-73930D01*
X-476643Y-74787D01*
X-477071Y-75644D01*
X-477500Y-76930D01*
Y-79072D01*
X-477071Y-80358D01*
X-476643Y-81215D01*
X-475786Y-82072D01*
X-474929Y-82500D01*
X-473215D01*
X-472358Y-82072D01*
X-471501Y-81215D01*
X-471073Y-80358D01*
X-467688Y-73502D02*
X-462975D01*
X-465545Y-76930D01*
X-464260D01*
X-463403Y-77358D01*
X-462975Y-77787D01*
X-462546Y-79072D01*
Y-79929D01*
X-462975Y-81215D01*
X-463831Y-82072D01*
X-465117Y-82500D01*
X-466402D01*
X-467688Y-82072D01*
X-468116Y-81643D01*
X-468545Y-80786D01*
X-457961Y-73502D02*
X-459247Y-73930D01*
X-460104Y-75216D01*
X-460532Y-77358D01*
Y-78644D01*
X-460104Y-80786D01*
X-459247Y-82072D01*
X-457961Y-82500D01*
X-457104D01*
X-455819Y-82072D01*
X-454962Y-80786D01*
X-454534Y-78644D01*
Y-77358D01*
X-454962Y-75216D01*
X-455819Y-73930D01*
X-457104Y-73502D01*
X-457961D01*
X-648579Y-150042D02*
X-649007Y-149185D01*
X-649864Y-148328D01*
X-650721Y-147900D01*
X-652435D01*
X-653292Y-148328D01*
X-654149Y-149185D01*
X-654577Y-150042D01*
X-655006Y-151328D01*
Y-153470D01*
X-654577Y-154756D01*
X-654149Y-155613D01*
X-653292Y-156469D01*
X-652435Y-156898D01*
X-650721D01*
X-649864Y-156469D01*
X-649007Y-155613D01*
X-648579Y-154756D01*
X-645622Y-150042D02*
Y-149614D01*
X-645194Y-148757D01*
X-644765Y-148328D01*
X-643908Y-147900D01*
X-642194D01*
X-641338Y-148328D01*
X-640909Y-148757D01*
X-640480Y-149614D01*
Y-150471D01*
X-640909Y-151328D01*
X-641766Y-152613D01*
X-646051Y-156898D01*
X-640052D01*
X-632468Y-150899D02*
X-632896Y-152185D01*
X-633753Y-153042D01*
X-635039Y-153470D01*
X-635467D01*
X-636753Y-153042D01*
X-637610Y-152185D01*
X-638038Y-150899D01*
Y-150471D01*
X-637610Y-149185D01*
X-636753Y-148328D01*
X-635467Y-147900D01*
X-635039D01*
X-633753Y-148328D01*
X-632896Y-149185D01*
X-632468Y-150899D01*
Y-153042D01*
X-632896Y-155184D01*
X-633753Y-156469D01*
X-635039Y-156898D01*
X-635896D01*
X-637181Y-156469D01*
X-637610Y-155613D01*
X-518573Y-58144D02*
X-519001Y-57287D01*
X-519858Y-56430D01*
X-520715Y-56002D01*
X-522429D01*
X-523286Y-56430D01*
X-524143Y-57287D01*
X-524571Y-58144D01*
X-525000Y-59430D01*
Y-61572D01*
X-524571Y-62858D01*
X-524143Y-63715D01*
X-523286Y-64571D01*
X-522429Y-65000D01*
X-520715D01*
X-519858Y-64571D01*
X-519001Y-63715D01*
X-518573Y-62858D01*
X-515616Y-58144D02*
Y-57716D01*
X-515188Y-56859D01*
X-514759Y-56430D01*
X-513902Y-56002D01*
X-512188D01*
X-511331Y-56430D01*
X-510903Y-56859D01*
X-510475Y-57716D01*
Y-58573D01*
X-510903Y-59430D01*
X-511760Y-60715D01*
X-516045Y-65000D01*
X-510046D01*
X-505890Y-56002D02*
X-507175Y-56430D01*
X-507604Y-57287D01*
Y-58144D01*
X-507175Y-59001D01*
X-506318Y-59430D01*
X-504604Y-59858D01*
X-503319Y-60287D01*
X-502462Y-61144D01*
X-502034Y-62001D01*
Y-63286D01*
X-502462Y-64143D01*
X-502890Y-64571D01*
X-504176Y-65000D01*
X-505890D01*
X-507175Y-64571D01*
X-507604Y-64143D01*
X-508032Y-63286D01*
Y-62001D01*
X-507604Y-61144D01*
X-506747Y-60287D01*
X-505461Y-59858D01*
X-503747Y-59430D01*
X-502890Y-59001D01*
X-502462Y-58144D01*
Y-57287D01*
X-502890Y-56430D01*
X-504176Y-56002D01*
X-505890D01*
X-603573Y-78144D02*
X-604001Y-77287D01*
X-604858Y-76430D01*
X-605715Y-76002D01*
X-607429D01*
X-608286Y-76430D01*
X-609143Y-77287D01*
X-609571Y-78144D01*
X-610000Y-79430D01*
Y-81572D01*
X-609571Y-82858D01*
X-609143Y-83715D01*
X-608286Y-84572D01*
X-607429Y-85000D01*
X-605715D01*
X-604858Y-84572D01*
X-604001Y-83715D01*
X-603573Y-82858D01*
X-600616Y-78144D02*
Y-77716D01*
X-600188Y-76859D01*
X-599759Y-76430D01*
X-598902Y-76002D01*
X-597188D01*
X-596331Y-76430D01*
X-595903Y-76859D01*
X-595475Y-77716D01*
Y-78573D01*
X-595903Y-79430D01*
X-596760Y-80715D01*
X-601045Y-85000D01*
X-595046D01*
X-587034Y-76002D02*
X-591318Y-85000D01*
X-593032Y-76002D02*
X-587034D01*
X-626856Y-316073D02*
X-627713Y-316501D01*
X-628570Y-317358D01*
X-628998Y-318215D01*
Y-319929D01*
X-628570Y-320786D01*
X-627713Y-321643D01*
X-626856Y-322071D01*
X-625570Y-322500D01*
X-623428D01*
X-622142Y-322071D01*
X-621285Y-321643D01*
X-620429Y-320786D01*
X-620000Y-319929D01*
Y-318215D01*
X-620429Y-317358D01*
X-621285Y-316501D01*
X-622142Y-316073D01*
X-626856Y-313116D02*
X-627284D01*
X-628141Y-312688D01*
X-628570Y-312259D01*
X-628998Y-311402D01*
Y-309688D01*
X-628570Y-308832D01*
X-628141Y-308403D01*
X-627284Y-307974D01*
X-626427D01*
X-625570Y-308403D01*
X-624285Y-309260D01*
X-620000Y-313545D01*
Y-307546D01*
X-627713Y-300390D02*
X-628570Y-300819D01*
X-628998Y-302104D01*
Y-302961D01*
X-628570Y-304247D01*
X-627284Y-305104D01*
X-625142Y-305532D01*
X-622999D01*
X-621285Y-305104D01*
X-620429Y-304247D01*
X-620000Y-302961D01*
Y-302533D01*
X-620429Y-301247D01*
X-621285Y-300390D01*
X-622571Y-299962D01*
X-622999D01*
X-624285Y-300390D01*
X-625142Y-301247D01*
X-625570Y-302533D01*
Y-302961D01*
X-625142Y-304247D01*
X-624285Y-305104D01*
X-622999Y-305532D01*
X-461073Y-273144D02*
X-461501Y-272287D01*
X-462358Y-271430D01*
X-463215Y-271002D01*
X-464929D01*
X-465786Y-271430D01*
X-466643Y-272287D01*
X-467071Y-273144D01*
X-467500Y-274430D01*
Y-276572D01*
X-467071Y-277858D01*
X-466643Y-278715D01*
X-465786Y-279571D01*
X-464929Y-280000D01*
X-463215D01*
X-462358Y-279571D01*
X-461501Y-278715D01*
X-461073Y-277858D01*
X-458116Y-273144D02*
Y-272716D01*
X-457688Y-271859D01*
X-457259Y-271430D01*
X-456402Y-271002D01*
X-454688D01*
X-453831Y-271430D01*
X-453403Y-271859D01*
X-452975Y-272716D01*
Y-273573D01*
X-453403Y-274430D01*
X-454260Y-275715D01*
X-458545Y-280000D01*
X-452546D01*
X-445390Y-271002D02*
X-449675D01*
X-450104Y-274858D01*
X-449675Y-274430D01*
X-448390Y-274001D01*
X-447104D01*
X-445819Y-274430D01*
X-444962Y-275287D01*
X-444534Y-276572D01*
Y-277429D01*
X-444962Y-278715D01*
X-445819Y-279571D01*
X-447104Y-280000D01*
X-448390D01*
X-449675Y-279571D01*
X-450104Y-279143D01*
X-450532Y-278286D01*
X-608573Y-303144D02*
X-609001Y-302287D01*
X-609858Y-301430D01*
X-610715Y-301002D01*
X-612429D01*
X-613286Y-301430D01*
X-614143Y-302287D01*
X-614571Y-303144D01*
X-615000Y-304430D01*
Y-306572D01*
X-614571Y-307858D01*
X-614143Y-308715D01*
X-613286Y-309571D01*
X-612429Y-310000D01*
X-610715D01*
X-609858Y-309571D01*
X-609001Y-308715D01*
X-608573Y-307858D01*
X-605616Y-303144D02*
Y-302716D01*
X-605188Y-301859D01*
X-604759Y-301430D01*
X-603902Y-301002D01*
X-602188D01*
X-601331Y-301430D01*
X-600903Y-301859D01*
X-600475Y-302716D01*
Y-303573D01*
X-600903Y-304430D01*
X-601760Y-305715D01*
X-606045Y-310000D01*
X-600046D01*
X-593747Y-301002D02*
X-598032Y-307001D01*
X-591605D01*
X-593747Y-301002D02*
Y-310000D01*
X-501073Y-325644D02*
X-501501Y-324787D01*
X-502358Y-323930D01*
X-503215Y-323502D01*
X-504929D01*
X-505786Y-323930D01*
X-506643Y-324787D01*
X-507071Y-325644D01*
X-507500Y-326930D01*
Y-329072D01*
X-507071Y-330358D01*
X-506643Y-331215D01*
X-505786Y-332071D01*
X-504929Y-332500D01*
X-503215D01*
X-502358Y-332071D01*
X-501501Y-331215D01*
X-501073Y-330358D01*
X-498116Y-325644D02*
Y-325216D01*
X-497688Y-324359D01*
X-497259Y-323930D01*
X-496402Y-323502D01*
X-494688D01*
X-493831Y-323930D01*
X-493403Y-324359D01*
X-492975Y-325216D01*
Y-326073D01*
X-493403Y-326930D01*
X-494260Y-328215D01*
X-498545Y-332500D01*
X-492546D01*
X-489675Y-323502D02*
X-484962D01*
X-487533Y-326930D01*
X-486247D01*
X-485390Y-327358D01*
X-484962Y-327787D01*
X-484534Y-329072D01*
Y-329929D01*
X-484962Y-331215D01*
X-485819Y-332071D01*
X-487104Y-332500D01*
X-488390D01*
X-489675Y-332071D01*
X-490104Y-331643D01*
X-490532Y-330786D01*
X-408573Y-105644D02*
X-409001Y-104787D01*
X-409858Y-103930D01*
X-410715Y-103502D01*
X-412429D01*
X-413286Y-103930D01*
X-414143Y-104787D01*
X-414571Y-105644D01*
X-415000Y-106930D01*
Y-109072D01*
X-414571Y-110358D01*
X-414143Y-111215D01*
X-413286Y-112072D01*
X-412429Y-112500D01*
X-410715D01*
X-409858Y-112072D01*
X-409001Y-111215D01*
X-408573Y-110358D01*
X-405616Y-105644D02*
Y-105216D01*
X-405188Y-104359D01*
X-404759Y-103930D01*
X-403902Y-103502D01*
X-402188D01*
X-401331Y-103930D01*
X-400903Y-104359D01*
X-400475Y-105216D01*
Y-106073D01*
X-400903Y-106930D01*
X-401760Y-108215D01*
X-406045Y-112500D01*
X-400046D01*
X-397604Y-105644D02*
Y-105216D01*
X-397175Y-104359D01*
X-396747Y-103930D01*
X-395890Y-103502D01*
X-394176D01*
X-393319Y-103930D01*
X-392891Y-104359D01*
X-392462Y-105216D01*
Y-106073D01*
X-392891Y-106930D01*
X-393747Y-108215D01*
X-398032Y-112500D01*
X-392034D01*
X235518Y307014D02*
Y298016D01*
Y307014D02*
X238517D01*
X239803Y306586D01*
X240660Y305729D01*
X241088Y304872D01*
X241517Y303586D01*
Y301444D01*
X241088Y300158D01*
X240660Y299301D01*
X239803Y298444D01*
X238517Y298016D01*
X235518D01*
X243959Y304872D02*
Y305300D01*
X244388Y306157D01*
X244816Y306586D01*
X245673Y307014D01*
X247387D01*
X248244Y306586D01*
X248672Y306157D01*
X249101Y305300D01*
Y304443D01*
X248672Y303586D01*
X247815Y302301D01*
X243531Y298016D01*
X249529D01*
X235518Y199572D02*
Y190574D01*
Y199572D02*
X238517D01*
X239803Y199144D01*
X240660Y198287D01*
X241088Y197430D01*
X241517Y196144D01*
Y194002D01*
X241088Y192716D01*
X240660Y191859D01*
X239803Y191003D01*
X238517Y190574D01*
X235518D01*
X243531Y197858D02*
X244388Y198287D01*
X245673Y199572D01*
Y190574D01*
X157540Y311586D02*
Y305159D01*
X157969Y303873D01*
X158826Y303016D01*
X160111Y302588D01*
X160968D01*
X162253Y303016D01*
X163110Y303873D01*
X163539Y305159D01*
Y311586D01*
X166024Y309872D02*
X166881Y310301D01*
X168166Y311586D01*
Y302588D01*
X173479Y311586D02*
X178193D01*
X175622Y308158D01*
X176907D01*
X177764Y307730D01*
X178193Y307301D01*
X178621Y306016D01*
Y305159D01*
X178193Y303873D01*
X177336Y303016D01*
X176050Y302588D01*
X174765D01*
X173479Y303016D01*
X173051Y303445D01*
X172623Y304302D01*
X19872Y272978D02*
Y266551D01*
X20301Y265265D01*
X21158Y264408D01*
X22443Y263980D01*
X23300D01*
X24585Y264408D01*
X25442Y265265D01*
X25871Y266551D01*
Y272978D01*
X28356Y271264D02*
X29213Y271693D01*
X30498Y272978D01*
Y263980D01*
X35383Y270836D02*
Y271264D01*
X35812Y272121D01*
X36240Y272550D01*
X37097Y272978D01*
X38811D01*
X39668Y272550D01*
X40096Y272121D01*
X40525Y271264D01*
Y270407D01*
X40096Y269550D01*
X39239Y268265D01*
X34955Y263980D01*
X40953D01*
X157032Y204144D02*
Y197717D01*
X157460Y196431D01*
X158317Y195574D01*
X159603Y195146D01*
X160460D01*
X161745Y195574D01*
X162602Y196431D01*
X163031Y197717D01*
Y204144D01*
X165516Y202430D02*
X166373Y202859D01*
X167658Y204144D01*
Y195146D01*
X172115Y202430D02*
X172971Y202859D01*
X174257Y204144D01*
Y195146D01*
X-273752Y-35886D02*
Y-42313D01*
X-273323Y-43599D01*
X-272467Y-44455D01*
X-271181Y-44884D01*
X-270324D01*
X-269039Y-44455D01*
X-268182Y-43599D01*
X-267753Y-42313D01*
Y-35886D01*
X-265268Y-37600D02*
X-264411Y-37171D01*
X-263126Y-35886D01*
Y-44884D01*
X-256099Y-35886D02*
X-257384Y-36314D01*
X-258241Y-37600D01*
X-258669Y-39742D01*
Y-41028D01*
X-258241Y-43170D01*
X-257384Y-44455D01*
X-256099Y-44884D01*
X-255242D01*
X-253956Y-44455D01*
X-253099Y-43170D01*
X-252671Y-41028D01*
Y-39742D01*
X-253099Y-37600D01*
X-253956Y-36314D01*
X-255242Y-35886D01*
X-256099D01*
X-133798D02*
Y-42313D01*
X-133370Y-43599D01*
X-132513Y-44455D01*
X-131227Y-44884D01*
X-130370D01*
X-129085Y-44455D01*
X-128228Y-43599D01*
X-127799Y-42313D01*
Y-35886D01*
X-119744Y-38885D02*
X-120172Y-40171D01*
X-121029Y-41028D01*
X-122315Y-41456D01*
X-122743D01*
X-124029Y-41028D01*
X-124886Y-40171D01*
X-125314Y-38885D01*
Y-38457D01*
X-124886Y-37171D01*
X-124029Y-36314D01*
X-122743Y-35886D01*
X-122315D01*
X-121029Y-36314D01*
X-120172Y-37171D01*
X-119744Y-38885D01*
Y-41028D01*
X-120172Y-43170D01*
X-121029Y-44455D01*
X-122315Y-44884D01*
X-123172D01*
X-124457Y-44455D01*
X-124886Y-43599D01*
X6156Y-35886D02*
Y-42313D01*
X6585Y-43599D01*
X7441Y-44455D01*
X8727Y-44884D01*
X9584D01*
X10869Y-44455D01*
X11726Y-43599D01*
X12155Y-42313D01*
Y-35886D01*
X16782D02*
X15497Y-36314D01*
X15068Y-37171D01*
Y-38028D01*
X15497Y-38885D01*
X16354Y-39314D01*
X18068Y-39742D01*
X19353Y-40171D01*
X20210Y-41028D01*
X20639Y-41885D01*
Y-43170D01*
X20210Y-44027D01*
X19782Y-44455D01*
X18496Y-44884D01*
X16782D01*
X15497Y-44455D01*
X15068Y-44027D01*
X14640Y-43170D01*
Y-41885D01*
X15068Y-41028D01*
X15925Y-40171D01*
X17211Y-39742D01*
X18925Y-39314D01*
X19782Y-38885D01*
X20210Y-38028D01*
Y-37171D01*
X19782Y-36314D01*
X18496Y-35886D01*
X16782D01*
X146110D02*
Y-42313D01*
X146538Y-43599D01*
X147395Y-44455D01*
X148681Y-44884D01*
X149538D01*
X150823Y-44455D01*
X151680Y-43599D01*
X152109Y-42313D01*
Y-35886D01*
X160593D02*
X156308Y-44884D01*
X154594Y-35886D02*
X160593D01*
X-257242Y115244D02*
Y108817D01*
X-256814Y107531D01*
X-255956Y106674D01*
X-254671Y106246D01*
X-253814D01*
X-252529Y106674D01*
X-251672Y107531D01*
X-251243Y108817D01*
Y115244D01*
X-243616Y113959D02*
X-244045Y114816D01*
X-245330Y115244D01*
X-246187D01*
X-247473Y114816D01*
X-248330Y113530D01*
X-248758Y111388D01*
Y109245D01*
X-248330Y107531D01*
X-247473Y106674D01*
X-246187Y106246D01*
X-245759D01*
X-244473Y106674D01*
X-243616Y107531D01*
X-243188Y108817D01*
Y109245D01*
X-243616Y110531D01*
X-244473Y111388D01*
X-245759Y111816D01*
X-246187D01*
X-247473Y111388D01*
X-248330Y110531D01*
X-248758Y109245D01*
X-376368Y-341448D02*
Y-347875D01*
X-375939Y-349161D01*
X-375083Y-350018D01*
X-373797Y-350446D01*
X-372940D01*
X-371655Y-350018D01*
X-370798Y-349161D01*
X-370369Y-347875D01*
Y-341448D01*
X-362742D02*
X-367027D01*
X-367456Y-345304D01*
X-367027Y-344876D01*
X-365742Y-344447D01*
X-364456D01*
X-363171Y-344876D01*
X-362314Y-345733D01*
X-361885Y-347018D01*
Y-347875D01*
X-362314Y-349161D01*
X-363171Y-350018D01*
X-364456Y-350446D01*
X-365742D01*
X-367027Y-350018D01*
X-367456Y-349589D01*
X-367884Y-348732D01*
X-684470Y146994D02*
Y140567D01*
X-684042Y139281D01*
X-683185Y138425D01*
X-681899Y137996D01*
X-681042D01*
X-679757Y138425D01*
X-678900Y139281D01*
X-678471Y140567D01*
Y146994D01*
X-671701D02*
X-675986Y140995D01*
X-669559D01*
X-671701Y146994D02*
Y137996D01*
X-698998Y-45000D02*
X-692571D01*
X-691285Y-44571D01*
X-690428Y-43715D01*
X-690000Y-42429D01*
Y-41572D01*
X-690428Y-40287D01*
X-691285Y-39430D01*
X-692571Y-39001D01*
X-698998D01*
Y-35659D02*
Y-30946D01*
X-695570Y-33517D01*
Y-32231D01*
X-695142Y-31374D01*
X-694713Y-30946D01*
X-693428Y-30517D01*
X-692571D01*
X-691285Y-30946D01*
X-690428Y-31803D01*
X-690000Y-33088D01*
Y-34374D01*
X-690428Y-35659D01*
X-690857Y-36088D01*
X-691714Y-36516D01*
X-545000Y398998D02*
Y392571D01*
X-544571Y391286D01*
X-543715Y390429D01*
X-542429Y390000D01*
X-541572D01*
X-540287Y390429D01*
X-539430Y391286D01*
X-539001Y392571D01*
Y398998D01*
X-536088Y396856D02*
Y397284D01*
X-535659Y398141D01*
X-535231Y398570D01*
X-534374Y398998D01*
X-532660D01*
X-531803Y398570D01*
X-531374Y398141D01*
X-530946Y397284D01*
Y396427D01*
X-531374Y395570D01*
X-532231Y394285D01*
X-536516Y390000D01*
X-530517D01*
X-527500Y231498D02*
Y225071D01*
X-527071Y223785D01*
X-526215Y222929D01*
X-524929Y222500D01*
X-524072D01*
X-522787Y222929D01*
X-521930Y223785D01*
X-521501Y225071D01*
Y231498D01*
X-519016Y229784D02*
X-518159Y230213D01*
X-516874Y231498D01*
Y222500D01*
X323510Y271092D02*
X314512D01*
X323510D02*
Y267236D01*
X323082Y265950D01*
X322653Y265522D01*
X321796Y265093D01*
X320939D01*
X320082Y265522D01*
X319654Y265950D01*
X319225Y267236D01*
Y271092D01*
Y268093D02*
X314512Y265093D01*
X323510Y257081D02*
X314512Y261366D01*
X323510Y263079D02*
Y257081D01*
Y249068D02*
X314512Y253353D01*
X323510Y255067D02*
Y249068D01*
Y238326D02*
X314512D01*
X323510D02*
Y234470D01*
X323082Y233184D01*
X322653Y232756D01*
X321796Y232327D01*
X320939D01*
X320082Y232756D01*
X319654Y233184D01*
X319225Y234470D01*
Y238326D01*
Y235327D02*
X314512Y232327D01*
X323510Y224315D02*
X314512Y228599D01*
X323510Y230313D02*
Y224315D01*
X322225Y217159D02*
X323082Y217588D01*
X323510Y218873D01*
Y219730D01*
X323082Y221015D01*
X321796Y221872D01*
X319654Y222301D01*
X317511D01*
X315798Y221872D01*
X314940Y221015D01*
X314512Y219730D01*
Y219301D01*
X314940Y218016D01*
X315798Y217159D01*
X317083Y216731D01*
X317511D01*
X318797Y217159D01*
X319654Y218016D01*
X320082Y219301D01*
Y219730D01*
X319654Y221015D01*
X318797Y221872D01*
X317511Y222301D01*
X140414Y300048D02*
X149412D01*
X140414D02*
Y303904D01*
X140842Y305190D01*
X141271Y305618D01*
X142128Y306047D01*
X142985D01*
X143842Y305618D01*
X144270Y305190D01*
X144699Y303904D01*
Y300048D01*
Y303047D02*
X149412Y306047D01*
X140414Y314059D02*
X149412Y309774D01*
X140414Y308061D02*
Y314059D01*
Y321215D02*
Y316930D01*
X144270Y316502D01*
X143842Y316930D01*
X143413Y318216D01*
Y319501D01*
X143842Y320786D01*
X144699Y321643D01*
X145984Y322072D01*
X146841D01*
X148127Y321643D01*
X148983Y320786D01*
X149412Y319501D01*
Y318216D01*
X148983Y316930D01*
X148555Y316502D01*
X147698Y316073D01*
X323510Y163650D02*
X314512D01*
X323510D02*
Y159794D01*
X323082Y158508D01*
X322653Y158080D01*
X321796Y157651D01*
X320939D01*
X320082Y158080D01*
X319654Y158508D01*
X319225Y159794D01*
Y163650D01*
Y160651D02*
X314512Y157651D01*
X323510Y149639D02*
X314512Y153924D01*
X323510Y155637D02*
Y149639D01*
Y143340D02*
X317511Y147625D01*
Y141198D01*
X323510Y143340D02*
X314512D01*
X-18998Y170000D02*
X-10000D01*
X-18998D02*
Y173856D01*
X-18570Y175142D01*
X-18141Y175570D01*
X-17284Y175999D01*
X-16427D01*
X-15570Y175570D01*
X-15142Y175142D01*
X-14713Y173856D01*
Y170000D01*
Y172999D02*
X-10000Y175999D01*
X-18998Y184011D02*
X-10000Y179727D01*
X-18998Y178013D02*
Y184011D01*
Y186882D02*
Y191595D01*
X-15570Y189025D01*
Y190310D01*
X-15142Y191167D01*
X-14713Y191595D01*
X-13428Y192024D01*
X-12571D01*
X-11285Y191595D01*
X-10429Y190738D01*
X-10000Y189453D01*
Y188167D01*
X-10429Y186882D01*
X-10857Y186454D01*
X-11714Y186025D01*
X-18998Y217500D02*
X-10000D01*
X-18998D02*
Y221356D01*
X-18570Y222642D01*
X-18141Y223070D01*
X-17284Y223499D01*
X-16427D01*
X-15570Y223070D01*
X-15142Y222642D01*
X-14713Y221356D01*
Y217500D01*
Y220499D02*
X-10000Y223499D01*
X-18998Y231511D02*
X-10000Y227227D01*
X-18998Y225513D02*
Y231511D01*
X-16856Y233954D02*
X-17284D01*
X-18141Y234382D01*
X-18570Y234811D01*
X-18998Y235668D01*
Y237381D01*
X-18570Y238238D01*
X-18141Y238667D01*
X-17284Y239095D01*
X-16427D01*
X-15570Y238667D01*
X-14285Y237810D01*
X-10000Y233525D01*
Y239524D01*
X323510Y129106D02*
X314512D01*
X323510D02*
Y125250D01*
X323082Y123964D01*
X322653Y123536D01*
X321796Y123107D01*
X320939D01*
X320082Y123536D01*
X319654Y123964D01*
X319225Y125250D01*
Y129106D01*
Y126107D02*
X314512Y123107D01*
X323510Y115095D02*
X314512Y119380D01*
X323510Y121093D02*
Y115095D01*
X321796Y113081D02*
X322225Y112224D01*
X323510Y110938D01*
X314512D01*
X140414Y192606D02*
X149412D01*
X140414D02*
Y196462D01*
X140842Y197748D01*
X141271Y198176D01*
X142128Y198605D01*
X142985D01*
X143842Y198176D01*
X144270Y197748D01*
X144699Y196462D01*
Y192606D01*
Y195605D02*
X149412Y198605D01*
X140414Y206617D02*
X149412Y202332D01*
X140414Y200619D02*
Y206617D01*
Y211202D02*
X140842Y209917D01*
X142128Y209060D01*
X144270Y208631D01*
X145556D01*
X147698Y209060D01*
X148983Y209917D01*
X149412Y211202D01*
Y212059D01*
X148983Y213344D01*
X147698Y214201D01*
X145556Y214630D01*
X144270D01*
X142128Y214201D01*
X140842Y213344D01*
X140414Y212059D01*
Y211202D01*
X238458Y-26342D02*
X247456D01*
X238458D02*
Y-22486D01*
X238886Y-21200D01*
X239315Y-20772D01*
X240172Y-20343D01*
X241029D01*
X241886Y-20772D01*
X242314Y-21200D01*
X242743Y-22486D01*
Y-26342D01*
Y-23343D02*
X247456Y-20343D01*
X239743Y-13188D02*
X238886Y-13616D01*
X238458Y-14902D01*
Y-15759D01*
X238886Y-17044D01*
X240172Y-17901D01*
X242314Y-18329D01*
X244457D01*
X246171Y-17901D01*
X247027Y-17044D01*
X247456Y-15759D01*
Y-15330D01*
X247027Y-14045D01*
X246171Y-13188D01*
X244885Y-12759D01*
X244457D01*
X243171Y-13188D01*
X242314Y-14045D01*
X241886Y-15330D01*
Y-15759D01*
X242314Y-17044D01*
X243171Y-17901D01*
X244457Y-18329D01*
X241457Y-5218D02*
X242743Y-5646D01*
X243600Y-6503D01*
X244028Y-7789D01*
Y-8217D01*
X243600Y-9503D01*
X242743Y-10360D01*
X241457Y-10788D01*
X241029D01*
X239743Y-10360D01*
X238886Y-9503D01*
X238458Y-8217D01*
Y-7789D01*
X238886Y-6503D01*
X239743Y-5646D01*
X241457Y-5218D01*
X243600D01*
X245742Y-5646D01*
X247027Y-6503D01*
X247456Y-7789D01*
Y-8646D01*
X247027Y-9931D01*
X246171Y-10360D01*
X253044Y30408D02*
Y21410D01*
Y30408D02*
X256900D01*
X258186Y29980D01*
X258614Y29551D01*
X259043Y28694D01*
Y27837D01*
X258614Y26980D01*
X258186Y26552D01*
X256900Y26123D01*
X253044D01*
X256043D02*
X259043Y21410D01*
X266198Y29123D02*
X265770Y29980D01*
X264484Y30408D01*
X263627D01*
X262342Y29980D01*
X261485Y28694D01*
X261057Y26552D01*
Y24409D01*
X261485Y22695D01*
X262342Y21839D01*
X263627Y21410D01*
X264056D01*
X265341Y21839D01*
X266198Y22695D01*
X266627Y23981D01*
Y24409D01*
X266198Y25695D01*
X265341Y26552D01*
X264056Y26980D01*
X263627D01*
X262342Y26552D01*
X261485Y25695D01*
X261057Y24409D01*
X270740Y30408D02*
X269455Y29980D01*
X269026Y29123D01*
Y28266D01*
X269455Y27409D01*
X270312Y26980D01*
X272026Y26552D01*
X273311Y26123D01*
X274168Y25266D01*
X274597Y24409D01*
Y23124D01*
X274168Y22267D01*
X273740Y21839D01*
X272454Y21410D01*
X270740D01*
X269455Y21839D01*
X269026Y22267D01*
X268598Y23124D01*
Y24409D01*
X269026Y25266D01*
X269883Y26123D01*
X271169Y26552D01*
X272883Y26980D01*
X273740Y27409D01*
X274168Y28266D01*
Y29123D01*
X273740Y29980D01*
X272454Y30408D01*
X270740D01*
X238458Y72972D02*
X247456D01*
X238458D02*
Y76828D01*
X238886Y78114D01*
X239315Y78542D01*
X240172Y78971D01*
X241029D01*
X241886Y78542D01*
X242314Y78114D01*
X242743Y76828D01*
Y72972D01*
Y75971D02*
X247456Y78971D01*
X239743Y86126D02*
X238886Y85698D01*
X238458Y84412D01*
Y83555D01*
X238886Y82270D01*
X240172Y81413D01*
X242314Y80985D01*
X244457D01*
X246171Y81413D01*
X247027Y82270D01*
X247456Y83555D01*
Y83984D01*
X247027Y85269D01*
X246171Y86126D01*
X244885Y86555D01*
X244457D01*
X243171Y86126D01*
X242314Y85269D01*
X241886Y83984D01*
Y83555D01*
X242314Y82270D01*
X243171Y81413D01*
X244457Y80985D01*
X238458Y94524D02*
X247456Y90240D01*
X238458Y88526D02*
Y94524D01*
X253044Y68000D02*
Y59002D01*
Y68000D02*
X256900D01*
X258186Y67572D01*
X258614Y67143D01*
X259043Y66286D01*
Y65429D01*
X258614Y64572D01*
X258186Y64144D01*
X256900Y63715D01*
X253044D01*
X256043D02*
X259043Y59002D01*
X266198Y66715D02*
X265770Y67572D01*
X264484Y68000D01*
X263627D01*
X262342Y67572D01*
X261485Y66286D01*
X261057Y64144D01*
Y62001D01*
X261485Y60287D01*
X262342Y59430D01*
X263627Y59002D01*
X264056D01*
X265341Y59430D01*
X266198Y60287D01*
X266627Y61573D01*
Y62001D01*
X266198Y63287D01*
X265341Y64144D01*
X264056Y64572D01*
X263627D01*
X262342Y64144D01*
X261485Y63287D01*
X261057Y62001D01*
X273740Y66715D02*
X273311Y67572D01*
X272026Y68000D01*
X271169D01*
X269883Y67572D01*
X269026Y66286D01*
X268598Y64144D01*
Y62001D01*
X269026Y60287D01*
X269883Y59430D01*
X271169Y59002D01*
X271597D01*
X272883Y59430D01*
X273740Y60287D01*
X274168Y61573D01*
Y62001D01*
X273740Y63287D01*
X272883Y64144D01*
X271597Y64572D01*
X271169D01*
X269883Y64144D01*
X269026Y63287D01*
X268598Y62001D01*
X-638998Y-242500D02*
X-630000D01*
X-638998D02*
Y-238644D01*
X-638570Y-237358D01*
X-638141Y-236930D01*
X-637284Y-236501D01*
X-636427D01*
X-635570Y-236930D01*
X-635142Y-237358D01*
X-634713Y-238644D01*
Y-242500D01*
Y-239501D02*
X-630000Y-236501D01*
X-637713Y-229346D02*
X-638570Y-229774D01*
X-638998Y-231060D01*
Y-231917D01*
X-638570Y-233202D01*
X-637284Y-234059D01*
X-635142Y-234487D01*
X-632999D01*
X-631286Y-234059D01*
X-630429Y-233202D01*
X-630000Y-231917D01*
Y-231488D01*
X-630429Y-230203D01*
X-631286Y-229346D01*
X-632571Y-228917D01*
X-632999D01*
X-634285Y-229346D01*
X-635142Y-230203D01*
X-635570Y-231488D01*
Y-231917D01*
X-635142Y-233202D01*
X-634285Y-234059D01*
X-632999Y-234487D01*
X-638998Y-221804D02*
Y-226089D01*
X-635142Y-226518D01*
X-635570Y-226089D01*
X-635999Y-224804D01*
Y-223518D01*
X-635570Y-222233D01*
X-634713Y-221376D01*
X-633428Y-220947D01*
X-632571D01*
X-631286Y-221376D01*
X-630429Y-222233D01*
X-630000Y-223518D01*
Y-224804D01*
X-630429Y-226089D01*
X-630857Y-226518D01*
X-631714Y-226946D01*
X297494Y-184984D02*
Y-193982D01*
Y-184984D02*
X301350D01*
X302636Y-185412D01*
X303064Y-185841D01*
X303493Y-186698D01*
Y-187555D01*
X303064Y-188412D01*
X302636Y-188840D01*
X301350Y-189269D01*
X297494D01*
X300493D02*
X303493Y-193982D01*
X310648Y-186269D02*
X310220Y-185412D01*
X308934Y-184984D01*
X308078D01*
X306792Y-185412D01*
X305935Y-186698D01*
X305507Y-188840D01*
Y-190983D01*
X305935Y-192697D01*
X306792Y-193554D01*
X308078Y-193982D01*
X308506D01*
X309791Y-193554D01*
X310648Y-192697D01*
X311077Y-191411D01*
Y-190983D01*
X310648Y-189697D01*
X309791Y-188840D01*
X308506Y-188412D01*
X308078D01*
X306792Y-188840D01*
X305935Y-189697D01*
X305507Y-190983D01*
X317333Y-184984D02*
X313048Y-190983D01*
X319475D01*
X317333Y-184984D02*
Y-193982D01*
X297494Y-142312D02*
Y-151310D01*
Y-142312D02*
X301350D01*
X302636Y-142740D01*
X303064Y-143169D01*
X303493Y-144026D01*
Y-144883D01*
X303064Y-145740D01*
X302636Y-146168D01*
X301350Y-146597D01*
X297494D01*
X300493D02*
X303493Y-151310D01*
X310648Y-143597D02*
X310220Y-142740D01*
X308934Y-142312D01*
X308078D01*
X306792Y-142740D01*
X305935Y-144026D01*
X305507Y-146168D01*
Y-148311D01*
X305935Y-150025D01*
X306792Y-150882D01*
X308078Y-151310D01*
X308506D01*
X309791Y-150882D01*
X310648Y-150025D01*
X311077Y-148739D01*
Y-148311D01*
X310648Y-147025D01*
X309791Y-146168D01*
X308506Y-145740D01*
X308078D01*
X306792Y-146168D01*
X305935Y-147025D01*
X305507Y-148311D01*
X313905Y-142312D02*
X318618D01*
X316047Y-145740D01*
X317333D01*
X318190Y-146168D01*
X318618Y-146597D01*
X319047Y-147882D01*
Y-148739D01*
X318618Y-150025D01*
X317761Y-150882D01*
X316476Y-151310D01*
X315190D01*
X313905Y-150882D01*
X313476Y-150453D01*
X313048Y-149596D01*
X-409896Y-242388D02*
Y-251386D01*
Y-242388D02*
X-406040D01*
X-404754Y-242816D01*
X-404326Y-243245D01*
X-403897Y-244102D01*
Y-244959D01*
X-404326Y-245816D01*
X-404754Y-246244D01*
X-406040Y-246673D01*
X-409896D01*
X-406897D02*
X-403897Y-251386D01*
X-396742Y-243673D02*
X-397170Y-242816D01*
X-398456Y-242388D01*
X-399313D01*
X-400598Y-242816D01*
X-401455Y-244102D01*
X-401883Y-246244D01*
Y-248387D01*
X-401455Y-250101D01*
X-400598Y-250958D01*
X-399313Y-251386D01*
X-398884D01*
X-397599Y-250958D01*
X-396742Y-250101D01*
X-396313Y-248815D01*
Y-248387D01*
X-396742Y-247101D01*
X-397599Y-246244D01*
X-398884Y-245816D01*
X-399313D01*
X-400598Y-246244D01*
X-401455Y-247101D01*
X-401883Y-248387D01*
X-393914Y-244530D02*
Y-244102D01*
X-393485Y-243245D01*
X-393057Y-242816D01*
X-392200Y-242388D01*
X-390486D01*
X-389629Y-242816D01*
X-389200Y-243245D01*
X-388772Y-244102D01*
Y-244959D01*
X-389200Y-245816D01*
X-390057Y-247101D01*
X-394342Y-251386D01*
X-388343D01*
X-502352Y179506D02*
Y170508D01*
Y179506D02*
X-498496D01*
X-497210Y179078D01*
X-496782Y178649D01*
X-496353Y177792D01*
Y176935D01*
X-496782Y176078D01*
X-497210Y175650D01*
X-498496Y175221D01*
X-502352D01*
X-499353D02*
X-496353Y170508D01*
X-489198Y178221D02*
X-489626Y179078D01*
X-490912Y179506D01*
X-491768D01*
X-493054Y179078D01*
X-493911Y177792D01*
X-494339Y175650D01*
Y173507D01*
X-493911Y171793D01*
X-493054Y170937D01*
X-491768Y170508D01*
X-491340D01*
X-490055Y170937D01*
X-489198Y171793D01*
X-488769Y173079D01*
Y173507D01*
X-489198Y174793D01*
X-490055Y175650D01*
X-491340Y176078D01*
X-491768D01*
X-493054Y175650D01*
X-493911Y174793D01*
X-494339Y173507D01*
X-486798Y177792D02*
X-485941Y178221D01*
X-484656Y179506D01*
Y170508D01*
X-502352Y209478D02*
Y200480D01*
Y209478D02*
X-498496D01*
X-497210Y209050D01*
X-496782Y208621D01*
X-496353Y207764D01*
Y206907D01*
X-496782Y206050D01*
X-497210Y205622D01*
X-498496Y205193D01*
X-502352D01*
X-499353D02*
X-496353Y200480D01*
X-489198Y208193D02*
X-489626Y209050D01*
X-490912Y209478D01*
X-491768D01*
X-493054Y209050D01*
X-493911Y207764D01*
X-494339Y205622D01*
Y203479D01*
X-493911Y201765D01*
X-493054Y200909D01*
X-491768Y200480D01*
X-491340D01*
X-490055Y200909D01*
X-489198Y201765D01*
X-488769Y203051D01*
Y203479D01*
X-489198Y204765D01*
X-490055Y205622D01*
X-491340Y206050D01*
X-491768D01*
X-493054Y205622D01*
X-493911Y204765D01*
X-494339Y203479D01*
X-484227Y209478D02*
X-485513Y209050D01*
X-486370Y207764D01*
X-486798Y205622D01*
Y204336D01*
X-486370Y202194D01*
X-485513Y200909D01*
X-484227Y200480D01*
X-483370D01*
X-482085Y200909D01*
X-481228Y202194D01*
X-480799Y204336D01*
Y205622D01*
X-481228Y207764D01*
X-482085Y209050D01*
X-483370Y209478D01*
X-484227D01*
X-467500Y-228502D02*
Y-237500D01*
Y-228502D02*
X-463644D01*
X-462358Y-228930D01*
X-461930Y-229359D01*
X-461501Y-230216D01*
Y-231073D01*
X-461930Y-231930D01*
X-462358Y-232358D01*
X-463644Y-232787D01*
X-467500D01*
X-464501D02*
X-461501Y-237500D01*
X-454346Y-228502D02*
X-458630D01*
X-459059Y-232358D01*
X-458630Y-231930D01*
X-457345Y-231501D01*
X-456060D01*
X-454774Y-231930D01*
X-453917Y-232787D01*
X-453489Y-234072D01*
Y-234929D01*
X-453917Y-236215D01*
X-454774Y-237071D01*
X-456060Y-237500D01*
X-457345D01*
X-458630Y-237071D01*
X-459059Y-236643D01*
X-459487Y-235786D01*
X-445905Y-231501D02*
X-446333Y-232787D01*
X-447190Y-233644D01*
X-448475Y-234072D01*
X-448904D01*
X-450189Y-233644D01*
X-451046Y-232787D01*
X-451475Y-231501D01*
Y-231073D01*
X-451046Y-229787D01*
X-450189Y-228930D01*
X-448904Y-228502D01*
X-448475D01*
X-447190Y-228930D01*
X-446333Y-229787D01*
X-445905Y-231501D01*
Y-233644D01*
X-446333Y-235786D01*
X-447190Y-237071D01*
X-448475Y-237500D01*
X-449333D01*
X-450618Y-237071D01*
X-451046Y-236215D01*
X-582500Y-343502D02*
Y-352500D01*
Y-343502D02*
X-578644D01*
X-577358Y-343930D01*
X-576930Y-344359D01*
X-576501Y-345216D01*
Y-346073D01*
X-576930Y-346930D01*
X-577358Y-347358D01*
X-578644Y-347787D01*
X-582500D01*
X-579501D02*
X-576501Y-352500D01*
X-569346Y-343502D02*
X-573630D01*
X-574059Y-347358D01*
X-573630Y-346930D01*
X-572345Y-346501D01*
X-571060D01*
X-569774Y-346930D01*
X-568917Y-347787D01*
X-568489Y-349072D01*
Y-349929D01*
X-568917Y-351215D01*
X-569774Y-352071D01*
X-571060Y-352500D01*
X-572345D01*
X-573630Y-352071D01*
X-574059Y-351643D01*
X-574487Y-350786D01*
X-564333Y-343502D02*
X-565618Y-343930D01*
X-566046Y-344787D01*
Y-345644D01*
X-565618Y-346501D01*
X-564761Y-346930D01*
X-563047Y-347358D01*
X-561762Y-347787D01*
X-560905Y-348644D01*
X-560476Y-349501D01*
Y-350786D01*
X-560905Y-351643D01*
X-561333Y-352071D01*
X-562618Y-352500D01*
X-564333D01*
X-565618Y-352071D01*
X-566046Y-351643D01*
X-566475Y-350786D01*
Y-349501D01*
X-566046Y-348644D01*
X-565189Y-347787D01*
X-563904Y-347358D01*
X-562190Y-346930D01*
X-561333Y-346501D01*
X-560905Y-345644D01*
Y-344787D01*
X-561333Y-343930D01*
X-562618Y-343502D01*
X-564333D01*
X-545000D02*
Y-352500D01*
Y-343502D02*
X-541144D01*
X-539858Y-343930D01*
X-539430Y-344359D01*
X-539001Y-345216D01*
Y-346073D01*
X-539430Y-346930D01*
X-539858Y-347358D01*
X-541144Y-347787D01*
X-545000D01*
X-542001D02*
X-539001Y-352500D01*
X-531846Y-343502D02*
X-536130D01*
X-536559Y-347358D01*
X-536130Y-346930D01*
X-534845Y-346501D01*
X-533560D01*
X-532274Y-346930D01*
X-531417Y-347787D01*
X-530989Y-349072D01*
Y-349929D01*
X-531417Y-351215D01*
X-532274Y-352071D01*
X-533560Y-352500D01*
X-534845D01*
X-536130Y-352071D01*
X-536559Y-351643D01*
X-536987Y-350786D01*
X-522976Y-343502D02*
X-527261Y-352500D01*
X-528975Y-343502D02*
X-522976D01*
X-64564Y294968D02*
X-55566D01*
X-64564D02*
Y298824D01*
X-64136Y300110D01*
X-63707Y300538D01*
X-62850Y300967D01*
X-61993D01*
X-61136Y300538D01*
X-60708Y300110D01*
X-60279Y298824D01*
Y294968D01*
Y297967D02*
X-55566Y300967D01*
X-64564Y308122D02*
Y303838D01*
X-60708Y303409D01*
X-61136Y303838D01*
X-61565Y305123D01*
Y306408D01*
X-61136Y307694D01*
X-60279Y308551D01*
X-58994Y308979D01*
X-58137D01*
X-56851Y308551D01*
X-55995Y307694D01*
X-55566Y306408D01*
Y305123D01*
X-55995Y303838D01*
X-56423Y303409D01*
X-57280Y302981D01*
X-64564Y315278D02*
X-58565Y310993D01*
Y317420D01*
X-64564Y315278D02*
X-55566D01*
X-49578Y295476D02*
X-40580D01*
X-49578D02*
Y299332D01*
X-49150Y300618D01*
X-48721Y301046D01*
X-47864Y301475D01*
X-47007D01*
X-46150Y301046D01*
X-45722Y300618D01*
X-45293Y299332D01*
Y295476D01*
Y298475D02*
X-40580Y301475D01*
X-49578Y308630D02*
Y304345D01*
X-45722Y303917D01*
X-46150Y304345D01*
X-46579Y305631D01*
Y306916D01*
X-46150Y308202D01*
X-45293Y309059D01*
X-44008Y309487D01*
X-43151D01*
X-41865Y309059D01*
X-41009Y308202D01*
X-40580Y306916D01*
Y305631D01*
X-41009Y304345D01*
X-41437Y303917D01*
X-42294Y303489D01*
X-49578Y312358D02*
Y317071D01*
X-46150Y314501D01*
Y315786D01*
X-45722Y316643D01*
X-45293Y317071D01*
X-44008Y317500D01*
X-43151D01*
X-41865Y317071D01*
X-41009Y316214D01*
X-40580Y314929D01*
Y313643D01*
X-41009Y312358D01*
X-41437Y311930D01*
X-42294Y311501D01*
X-94536Y299286D02*
X-85538D01*
X-94536D02*
Y303142D01*
X-94108Y304428D01*
X-93679Y304856D01*
X-92822Y305285D01*
X-91965D01*
X-91108Y304856D01*
X-90680Y304428D01*
X-90251Y303142D01*
Y299286D01*
Y302285D02*
X-85538Y305285D01*
X-94536Y312440D02*
Y308155D01*
X-90680Y307727D01*
X-91108Y308155D01*
X-91537Y309441D01*
Y310726D01*
X-91108Y312012D01*
X-90251Y312869D01*
X-88966Y313297D01*
X-88109D01*
X-86823Y312869D01*
X-85967Y312012D01*
X-85538Y310726D01*
Y309441D01*
X-85967Y308155D01*
X-86395Y307727D01*
X-87252Y307299D01*
X-92822Y315311D02*
X-93251Y316168D01*
X-94536Y317453D01*
X-85538D01*
X-79550Y295476D02*
X-70552D01*
X-79550D02*
Y299332D01*
X-79122Y300618D01*
X-78693Y301046D01*
X-77836Y301475D01*
X-76979D01*
X-76122Y301046D01*
X-75694Y300618D01*
X-75265Y299332D01*
Y295476D01*
Y298475D02*
X-70552Y301475D01*
X-79550Y308630D02*
Y304345D01*
X-75694Y303917D01*
X-76122Y304345D01*
X-76551Y305631D01*
Y306916D01*
X-76122Y308202D01*
X-75265Y309059D01*
X-73980Y309487D01*
X-73123D01*
X-71837Y309059D01*
X-70981Y308202D01*
X-70552Y306916D01*
Y305631D01*
X-70981Y304345D01*
X-71409Y303917D01*
X-72266Y303489D01*
X-79550Y314072D02*
X-79122Y312787D01*
X-77836Y311930D01*
X-75694Y311501D01*
X-74408D01*
X-72266Y311930D01*
X-70981Y312787D01*
X-70552Y314072D01*
Y314929D01*
X-70981Y316214D01*
X-72266Y317071D01*
X-74408Y317500D01*
X-75694D01*
X-77836Y317071D01*
X-79122Y316214D01*
X-79550Y314929D01*
Y314072D01*
X-119428Y295476D02*
X-110430D01*
X-119428D02*
Y299332D01*
X-119000Y300618D01*
X-118571Y301046D01*
X-117714Y301475D01*
X-116857D01*
X-116000Y301046D01*
X-115572Y300618D01*
X-115143Y299332D01*
Y295476D01*
Y298475D02*
X-110430Y301475D01*
X-119428Y307773D02*
X-113429Y303489D01*
Y309916D01*
X-119428Y307773D02*
X-110430D01*
X-119428Y313643D02*
X-119000Y312358D01*
X-118143Y311930D01*
X-117286D01*
X-116429Y312358D01*
X-116000Y313215D01*
X-115572Y314929D01*
X-115143Y316214D01*
X-114286Y317071D01*
X-113429Y317500D01*
X-112144D01*
X-111287Y317071D01*
X-110858Y316643D01*
X-110430Y315357D01*
Y313643D01*
X-110858Y312358D01*
X-111287Y311930D01*
X-112144Y311501D01*
X-113429D01*
X-114286Y311930D01*
X-115143Y312787D01*
X-115572Y314072D01*
X-116000Y315786D01*
X-116429Y316643D01*
X-117286Y317071D01*
X-118143D01*
X-119000Y316643D01*
X-119428Y315357D01*
Y313643D01*
X-136954Y295476D02*
X-127956D01*
X-136954D02*
Y299332D01*
X-136526Y300618D01*
X-136097Y301046D01*
X-135240Y301475D01*
X-134383D01*
X-133526Y301046D01*
X-133098Y300618D01*
X-132669Y299332D01*
Y295476D01*
Y298475D02*
X-127956Y301475D01*
X-136954Y307773D02*
X-130955Y303489D01*
Y309916D01*
X-136954Y307773D02*
X-127956D01*
X-136954Y317500D02*
X-127956Y313215D01*
X-136954Y311501D02*
Y317500D01*
X-154480Y295476D02*
X-145482D01*
X-154480D02*
Y299332D01*
X-154052Y300618D01*
X-153623Y301046D01*
X-152766Y301475D01*
X-151909D01*
X-151052Y301046D01*
X-150624Y300618D01*
X-150195Y299332D01*
Y295476D01*
Y298475D02*
X-145482Y301475D01*
X-154480Y307773D02*
X-148481Y303489D01*
Y309916D01*
X-154480Y307773D02*
X-145482D01*
X-154480Y316643D02*
Y312358D01*
X-150624Y311930D01*
X-151052Y312358D01*
X-151481Y313643D01*
Y314929D01*
X-151052Y316214D01*
X-150195Y317071D01*
X-148910Y317500D01*
X-148053D01*
X-146767Y317071D01*
X-145911Y316214D01*
X-145482Y314929D01*
Y313643D01*
X-145911Y312358D01*
X-146339Y311930D01*
X-147196Y311501D01*
X-172006Y294968D02*
X-163008D01*
X-172006D02*
Y298824D01*
X-171578Y300110D01*
X-171149Y300538D01*
X-170292Y300967D01*
X-169435D01*
X-168578Y300538D01*
X-168150Y300110D01*
X-167721Y298824D01*
Y294968D01*
Y297967D02*
X-163008Y300967D01*
X-172006Y307265D02*
X-166007Y302981D01*
Y309408D01*
X-172006Y307265D02*
X-163008D01*
X-172006Y315278D02*
X-166007Y310993D01*
Y317420D01*
X-172006Y315278D02*
X-163008D01*
X-222044Y314272D02*
X-213046D01*
X-222044D02*
Y318128D01*
X-221616Y319414D01*
X-221187Y319842D01*
X-220330Y320271D01*
X-219473D01*
X-218616Y319842D01*
X-218188Y319414D01*
X-217759Y318128D01*
Y314272D01*
Y317271D02*
X-213046Y320271D01*
X-222044Y326569D02*
X-216045Y322285D01*
Y328712D01*
X-222044Y326569D02*
X-213046D01*
X-220330Y330297D02*
X-220759Y331154D01*
X-222044Y332439D01*
X-213046D01*
X-721498Y120000D02*
X-712500D01*
X-721498D02*
Y123856D01*
X-721070Y125142D01*
X-720641Y125570D01*
X-719784Y125999D01*
X-718927D01*
X-718070Y125570D01*
X-717642Y125142D01*
X-717213Y123856D01*
Y120000D01*
Y122999D02*
X-712500Y125999D01*
X-721498Y128869D02*
Y133583D01*
X-718070Y131012D01*
Y132297D01*
X-717642Y133154D01*
X-717213Y133583D01*
X-715928Y134011D01*
X-715071D01*
X-713785Y133583D01*
X-712928Y132726D01*
X-712500Y131440D01*
Y130155D01*
X-712928Y128869D01*
X-713357Y128441D01*
X-714214Y128013D01*
X-718499Y141595D02*
X-717213Y141167D01*
X-716356Y140310D01*
X-715928Y139024D01*
Y138596D01*
X-716356Y137311D01*
X-717213Y136454D01*
X-718499Y136025D01*
X-718927D01*
X-720213Y136454D01*
X-721070Y137311D01*
X-721498Y138596D01*
Y139024D01*
X-721070Y140310D01*
X-720213Y141167D01*
X-718499Y141595D01*
X-716356D01*
X-714214Y141167D01*
X-712928Y140310D01*
X-712500Y139024D01*
Y138167D01*
X-712928Y136882D01*
X-713785Y136454D01*
X-721002Y70000D02*
X-730000D01*
X-721002D02*
Y66144D01*
X-721430Y64858D01*
X-721859Y64430D01*
X-722716Y64001D01*
X-723573D01*
X-724430Y64430D01*
X-724858Y64858D01*
X-725287Y66144D01*
Y70000D01*
Y67001D02*
X-730000Y64001D01*
X-721002Y61130D02*
Y56417D01*
X-724430Y58988D01*
Y57703D01*
X-724858Y56846D01*
X-725287Y56417D01*
X-726572Y55989D01*
X-727429D01*
X-728715Y56417D01*
X-729572Y57274D01*
X-730000Y58560D01*
Y59845D01*
X-729572Y61130D01*
X-729143Y61559D01*
X-728286Y61987D01*
X-721002Y51832D02*
X-721430Y53118D01*
X-722287Y53546D01*
X-723144D01*
X-724001Y53118D01*
X-724430Y52261D01*
X-724858Y50547D01*
X-725287Y49262D01*
X-726144Y48405D01*
X-727001Y47976D01*
X-728286D01*
X-729143Y48405D01*
X-729572Y48833D01*
X-730000Y50118D01*
Y51832D01*
X-729572Y53118D01*
X-729143Y53546D01*
X-728286Y53975D01*
X-727001D01*
X-726144Y53546D01*
X-725287Y52689D01*
X-724858Y51404D01*
X-724430Y49690D01*
X-724001Y48833D01*
X-723144Y48405D01*
X-722287D01*
X-721430Y48833D01*
X-721002Y50118D01*
Y51832D01*
X-692500Y196498D02*
Y187500D01*
Y196498D02*
X-688644D01*
X-687358Y196070D01*
X-686930Y195641D01*
X-686501Y194784D01*
Y193927D01*
X-686930Y193070D01*
X-687358Y192642D01*
X-688644Y192213D01*
X-692500D01*
X-689501D02*
X-686501Y187500D01*
X-683631Y196498D02*
X-678917D01*
X-681488Y193070D01*
X-680203D01*
X-679346Y192642D01*
X-678917Y192213D01*
X-678489Y190928D01*
Y190071D01*
X-678917Y188785D01*
X-679774Y187929D01*
X-681060Y187500D01*
X-682345D01*
X-683631Y187929D01*
X-684059Y188357D01*
X-684487Y189214D01*
X-670476Y196498D02*
X-674761Y187500D01*
X-676475Y196498D02*
X-670476D01*
X-742500Y168998D02*
Y160000D01*
Y168998D02*
X-738644D01*
X-737358Y168570D01*
X-736930Y168141D01*
X-736501Y167284D01*
Y166427D01*
X-736930Y165570D01*
X-737358Y165142D01*
X-738644Y164713D01*
X-742500D01*
X-739501D02*
X-736501Y160000D01*
X-733630Y168998D02*
X-728917D01*
X-731488Y165570D01*
X-730203D01*
X-729346Y165142D01*
X-728917Y164713D01*
X-728489Y163428D01*
Y162571D01*
X-728917Y161285D01*
X-729774Y160429D01*
X-731060Y160000D01*
X-732345D01*
X-733630Y160429D01*
X-734059Y160857D01*
X-734487Y161714D01*
X-721333Y167713D02*
X-721761Y168570D01*
X-723047Y168998D01*
X-723904D01*
X-725189Y168570D01*
X-726046Y167284D01*
X-726475Y165142D01*
Y162999D01*
X-726046Y161285D01*
X-725189Y160429D01*
X-723904Y160000D01*
X-723475D01*
X-722190Y160429D01*
X-721333Y161285D01*
X-720905Y162571D01*
Y162999D01*
X-721333Y164285D01*
X-722190Y165142D01*
X-723475Y165570D01*
X-723904D01*
X-725189Y165142D01*
X-726046Y164285D01*
X-726475Y162999D01*
X-650000Y191498D02*
Y182500D01*
Y191498D02*
X-646144D01*
X-644858Y191070D01*
X-644430Y190641D01*
X-644001Y189784D01*
Y188927D01*
X-644430Y188070D01*
X-644858Y187642D01*
X-646144Y187213D01*
X-650000D01*
X-647001D02*
X-644001Y182500D01*
X-641130Y191498D02*
X-636417D01*
X-638988Y188070D01*
X-637703D01*
X-636846Y187642D01*
X-636417Y187213D01*
X-635989Y185928D01*
Y185071D01*
X-636417Y183785D01*
X-637274Y182929D01*
X-638560Y182500D01*
X-639845D01*
X-641130Y182929D01*
X-641559Y183357D01*
X-641987Y184214D01*
X-628833Y191498D02*
X-633118D01*
X-633546Y187642D01*
X-633118Y188070D01*
X-631832Y188499D01*
X-630547D01*
X-629262Y188070D01*
X-628405Y187213D01*
X-627976Y185928D01*
Y185071D01*
X-628405Y183785D01*
X-629262Y182929D01*
X-630547Y182500D01*
X-631832D01*
X-633118Y182929D01*
X-633546Y183357D01*
X-633975Y184214D01*
X-717500Y333998D02*
Y325000D01*
Y333998D02*
X-713644D01*
X-712358Y333570D01*
X-711930Y333141D01*
X-711501Y332284D01*
Y331427D01*
X-711930Y330570D01*
X-712358Y330142D01*
X-713644Y329713D01*
X-717500D01*
X-714501D02*
X-711501Y325000D01*
X-708630Y333998D02*
X-703917D01*
X-706488Y330570D01*
X-705203D01*
X-704346Y330142D01*
X-703917Y329713D01*
X-703489Y328428D01*
Y327571D01*
X-703917Y326286D01*
X-704774Y325429D01*
X-706060Y325000D01*
X-707345D01*
X-708630Y325429D01*
X-709059Y325857D01*
X-709487Y326714D01*
X-697190Y333998D02*
X-701475Y327999D01*
X-695048D01*
X-697190Y333998D02*
Y325000D01*
X-750000Y336498D02*
Y327500D01*
Y336498D02*
X-746144D01*
X-744858Y336070D01*
X-744430Y335641D01*
X-744001Y334784D01*
Y333927D01*
X-744430Y333070D01*
X-744858Y332642D01*
X-746144Y332213D01*
X-750000D01*
X-747001D02*
X-744001Y327500D01*
X-741130Y336498D02*
X-736417D01*
X-738988Y333070D01*
X-737703D01*
X-736846Y332642D01*
X-736417Y332213D01*
X-735989Y330928D01*
Y330071D01*
X-736417Y328785D01*
X-737274Y327929D01*
X-738560Y327500D01*
X-739845D01*
X-741130Y327929D01*
X-741559Y328357D01*
X-741987Y329214D01*
X-733118Y336498D02*
X-728405D01*
X-730975Y333070D01*
X-729690D01*
X-728833Y332642D01*
X-728405Y332213D01*
X-727976Y330928D01*
Y330071D01*
X-728405Y328785D01*
X-729262Y327929D01*
X-730547Y327500D01*
X-731832D01*
X-733118Y327929D01*
X-733546Y328357D01*
X-733975Y329214D01*
X-662500Y336498D02*
Y327500D01*
Y336498D02*
X-658644D01*
X-657358Y336070D01*
X-656930Y335641D01*
X-656501Y334784D01*
Y333927D01*
X-656930Y333070D01*
X-657358Y332642D01*
X-658644Y332213D01*
X-662500D01*
X-659501D02*
X-656501Y327500D01*
X-653630Y336498D02*
X-648917D01*
X-651488Y333070D01*
X-650203D01*
X-649346Y332642D01*
X-648917Y332213D01*
X-648489Y330928D01*
Y330071D01*
X-648917Y328785D01*
X-649774Y327929D01*
X-651060Y327500D01*
X-652345D01*
X-653630Y327929D01*
X-654059Y328357D01*
X-654487Y329214D01*
X-646046Y334356D02*
Y334784D01*
X-645618Y335641D01*
X-645189Y336070D01*
X-644332Y336498D01*
X-642618D01*
X-641762Y336070D01*
X-641333Y335641D01*
X-640905Y334784D01*
Y333927D01*
X-641333Y333070D01*
X-642190Y331785D01*
X-646475Y327500D01*
X-640476D01*
X-718998Y20000D02*
X-710000D01*
X-718998D02*
Y23856D01*
X-718570Y25142D01*
X-718141Y25570D01*
X-717284Y25999D01*
X-716427D01*
X-715570Y25570D01*
X-715142Y25142D01*
X-714713Y23856D01*
Y20000D01*
Y22999D02*
X-710000Y25999D01*
X-718998Y28870D02*
Y33583D01*
X-715570Y31012D01*
Y32297D01*
X-715142Y33154D01*
X-714713Y33583D01*
X-713428Y34011D01*
X-712571D01*
X-711285Y33583D01*
X-710428Y32726D01*
X-710000Y31440D01*
Y30155D01*
X-710428Y28870D01*
X-710857Y28441D01*
X-711714Y28013D01*
X-717284Y36025D02*
X-717713Y36882D01*
X-718998Y38168D01*
X-710000D01*
X-721002Y-30000D02*
X-730000D01*
X-721002D02*
Y-33856D01*
X-721430Y-35142D01*
X-721859Y-35570D01*
X-722716Y-35999D01*
X-723573D01*
X-724430Y-35570D01*
X-724858Y-35142D01*
X-725287Y-33856D01*
Y-30000D01*
Y-32999D02*
X-730000Y-35999D01*
X-721002Y-38870D02*
Y-43583D01*
X-724430Y-41012D01*
Y-42297D01*
X-724858Y-43154D01*
X-725287Y-43583D01*
X-726572Y-44011D01*
X-727429D01*
X-728715Y-43583D01*
X-729572Y-42726D01*
X-730000Y-41440D01*
Y-40155D01*
X-729572Y-38870D01*
X-729143Y-38441D01*
X-728286Y-38013D01*
X-721002Y-48596D02*
X-721430Y-47311D01*
X-722716Y-46454D01*
X-724858Y-46025D01*
X-726144D01*
X-728286Y-46454D01*
X-729572Y-47311D01*
X-730000Y-48596D01*
Y-49453D01*
X-729572Y-50738D01*
X-728286Y-51595D01*
X-726144Y-52024D01*
X-724858D01*
X-722716Y-51595D01*
X-721430Y-50738D01*
X-721002Y-49453D01*
Y-48596D01*
X-616498Y150000D02*
X-607500D01*
X-616498D02*
Y153856D01*
X-616070Y155142D01*
X-615641Y155570D01*
X-614784Y155999D01*
X-613927D01*
X-613070Y155570D01*
X-612642Y155142D01*
X-612213Y153856D01*
Y150000D01*
Y152999D02*
X-607500Y155999D01*
X-614356Y158441D02*
X-614784D01*
X-615641Y158870D01*
X-616070Y159298D01*
X-616498Y160155D01*
Y161869D01*
X-616070Y162726D01*
X-615641Y163154D01*
X-614784Y163583D01*
X-613927D01*
X-613070Y163154D01*
X-611785Y162297D01*
X-607500Y158013D01*
Y164011D01*
X-613499Y171595D02*
X-612213Y171167D01*
X-611356Y170310D01*
X-610928Y169025D01*
Y168596D01*
X-611356Y167311D01*
X-612213Y166454D01*
X-613499Y166025D01*
X-613927D01*
X-615213Y166454D01*
X-616070Y167311D01*
X-616498Y168596D01*
Y169025D01*
X-616070Y170310D01*
X-615213Y171167D01*
X-613499Y171595D01*
X-611356D01*
X-609214Y171167D01*
X-607929Y170310D01*
X-607500Y169025D01*
Y168168D01*
X-607929Y166882D01*
X-608785Y166454D01*
X-660086Y162488D02*
Y153490D01*
Y162488D02*
X-656230D01*
X-654944Y162060D01*
X-654516Y161631D01*
X-654087Y160774D01*
Y159917D01*
X-654516Y159060D01*
X-654944Y158632D01*
X-656230Y158203D01*
X-660086D01*
X-657087D02*
X-654087Y153490D01*
X-651645Y160346D02*
Y160774D01*
X-651216Y161631D01*
X-650788Y162060D01*
X-649931Y162488D01*
X-648217D01*
X-647360Y162060D01*
X-646932Y161631D01*
X-646503Y160774D01*
Y159917D01*
X-646932Y159060D01*
X-647789Y157775D01*
X-652073Y153490D01*
X-646075D01*
X-641918Y162488D02*
X-643204Y162060D01*
X-643632Y161203D01*
Y160346D01*
X-643204Y159489D01*
X-642347Y159060D01*
X-640633Y158632D01*
X-639347Y158203D01*
X-638491Y157346D01*
X-638062Y156489D01*
Y155204D01*
X-638491Y154347D01*
X-638919Y153919D01*
X-640204Y153490D01*
X-641918D01*
X-643204Y153919D01*
X-643632Y154347D01*
X-644061Y155204D01*
Y156489D01*
X-643632Y157346D01*
X-642775Y158203D01*
X-641490Y158632D01*
X-639776Y159060D01*
X-638919Y159489D01*
X-638491Y160346D01*
Y161203D01*
X-638919Y162060D01*
X-640204Y162488D01*
X-641918D01*
X-599888D02*
Y153490D01*
Y162488D02*
X-596032D01*
X-594746Y162060D01*
X-594318Y161631D01*
X-593889Y160774D01*
Y159917D01*
X-594318Y159060D01*
X-594746Y158632D01*
X-596032Y158203D01*
X-599888D01*
X-596889D02*
X-593889Y153490D01*
X-591447Y160346D02*
Y160774D01*
X-591018Y161631D01*
X-590590Y162060D01*
X-589733Y162488D01*
X-588019D01*
X-587162Y162060D01*
X-586734Y161631D01*
X-586305Y160774D01*
Y159917D01*
X-586734Y159060D01*
X-587591Y157775D01*
X-591875Y153490D01*
X-585877D01*
X-577864Y162488D02*
X-582149Y153490D01*
X-583863Y162488D02*
X-577864D01*
X-613998Y47500D02*
X-605000D01*
X-613998D02*
Y51356D01*
X-613570Y52642D01*
X-613141Y53070D01*
X-612284Y53499D01*
X-611427D01*
X-610570Y53070D01*
X-610142Y52642D01*
X-609713Y51356D01*
Y47500D01*
Y50499D02*
X-605000Y53499D01*
X-611856Y55941D02*
X-612284D01*
X-613141Y56370D01*
X-613570Y56798D01*
X-613998Y57655D01*
Y59369D01*
X-613570Y60226D01*
X-613141Y60654D01*
X-612284Y61083D01*
X-611427D01*
X-610570Y60654D01*
X-609285Y59797D01*
X-605000Y55513D01*
Y61511D01*
X-612713Y68667D02*
X-613570Y68238D01*
X-613998Y66953D01*
Y66096D01*
X-613570Y64811D01*
X-612284Y63954D01*
X-610142Y63525D01*
X-607999D01*
X-606286Y63954D01*
X-605429Y64811D01*
X-605000Y66096D01*
Y66525D01*
X-605429Y67810D01*
X-606286Y68667D01*
X-607571Y69095D01*
X-607999D01*
X-609285Y68667D01*
X-610142Y67810D01*
X-610570Y66525D01*
Y66096D01*
X-610142Y64811D01*
X-609285Y63954D01*
X-607999Y63525D01*
X-643998Y50000D02*
X-635000D01*
X-643998D02*
Y53856D01*
X-643570Y55142D01*
X-643141Y55570D01*
X-642284Y55999D01*
X-641427D01*
X-640570Y55570D01*
X-640142Y55142D01*
X-639713Y53856D01*
Y50000D01*
Y52999D02*
X-635000Y55999D01*
X-641856Y58441D02*
X-642284D01*
X-643141Y58870D01*
X-643570Y59298D01*
X-643998Y60155D01*
Y61869D01*
X-643570Y62726D01*
X-643141Y63154D01*
X-642284Y63583D01*
X-641427D01*
X-640570Y63154D01*
X-639285Y62297D01*
X-635000Y58013D01*
Y64011D01*
X-643998Y71167D02*
Y66882D01*
X-640142Y66454D01*
X-640570Y66882D01*
X-640999Y68168D01*
Y69453D01*
X-640570Y70738D01*
X-639713Y71595D01*
X-638428Y72024D01*
X-637571D01*
X-636285Y71595D01*
X-635429Y70738D01*
X-635000Y69453D01*
Y68168D01*
X-635429Y66882D01*
X-635857Y66454D01*
X-636714Y66025D01*
X-567500Y46498D02*
Y37500D01*
Y46498D02*
X-563644D01*
X-562358Y46070D01*
X-561930Y45641D01*
X-561501Y44784D01*
Y43927D01*
X-561930Y43070D01*
X-562358Y42642D01*
X-563644Y42213D01*
X-567500D01*
X-564501D02*
X-561501Y37500D01*
X-559059Y44356D02*
Y44784D01*
X-558630Y45641D01*
X-558202Y46070D01*
X-557345Y46498D01*
X-555631D01*
X-554774Y46070D01*
X-554346Y45641D01*
X-553917Y44784D01*
Y43927D01*
X-554346Y43070D01*
X-555203Y41785D01*
X-559487Y37500D01*
X-553489D01*
X-547190Y46498D02*
X-551475Y40499D01*
X-545048D01*
X-547190Y46498D02*
Y37500D01*
X-237030Y310462D02*
X-228032D01*
X-237030D02*
Y314318D01*
X-236602Y315604D01*
X-236173Y316032D01*
X-235316Y316461D01*
X-234459D01*
X-233602Y316032D01*
X-233174Y315604D01*
X-232745Y314318D01*
Y310462D01*
Y313461D02*
X-228032Y316461D01*
X-234888Y318903D02*
X-235316D01*
X-236173Y319331D01*
X-236602Y319760D01*
X-237030Y320617D01*
Y322331D01*
X-236602Y323188D01*
X-236173Y323616D01*
X-235316Y324045D01*
X-234459D01*
X-233602Y323616D01*
X-232317Y322759D01*
X-228032Y318475D01*
Y324473D01*
X-237030Y327344D02*
Y332057D01*
X-233602Y329487D01*
Y330772D01*
X-233174Y331629D01*
X-232745Y332057D01*
X-231460Y332486D01*
X-230603D01*
X-229317Y332057D01*
X-228461Y331200D01*
X-228032Y329915D01*
Y328629D01*
X-228461Y327344D01*
X-228889Y326916D01*
X-229746Y326487D01*
X-690000Y246498D02*
Y237500D01*
Y246498D02*
X-686144D01*
X-684858Y246070D01*
X-684430Y245641D01*
X-684001Y244784D01*
Y243927D01*
X-684430Y243070D01*
X-684858Y242642D01*
X-686144Y242213D01*
X-690000D01*
X-687001D02*
X-684001Y237500D01*
X-681559Y244356D02*
Y244784D01*
X-681130Y245641D01*
X-680702Y246070D01*
X-679845Y246498D01*
X-678131D01*
X-677274Y246070D01*
X-676846Y245641D01*
X-676417Y244784D01*
Y243927D01*
X-676846Y243070D01*
X-677703Y241785D01*
X-681987Y237500D01*
X-675989D01*
X-673546Y244356D02*
Y244784D01*
X-673118Y245641D01*
X-672689Y246070D01*
X-671832Y246498D01*
X-670118D01*
X-669262Y246070D01*
X-668833Y245641D01*
X-668405Y244784D01*
Y243927D01*
X-668833Y243070D01*
X-669690Y241785D01*
X-673975Y237500D01*
X-667976D01*
X-625000Y421498D02*
Y412500D01*
Y421498D02*
X-621144D01*
X-619858Y421070D01*
X-619430Y420641D01*
X-619001Y419784D01*
Y418927D01*
X-619430Y418070D01*
X-619858Y417642D01*
X-621144Y417213D01*
X-625000D01*
X-622001D02*
X-619001Y412500D01*
X-616559Y419356D02*
Y419784D01*
X-616130Y420641D01*
X-615702Y421070D01*
X-614845Y421498D01*
X-613131D01*
X-612274Y421070D01*
X-611846Y420641D01*
X-611417Y419784D01*
Y418927D01*
X-611846Y418070D01*
X-612703Y416785D01*
X-616987Y412500D01*
X-610989D01*
X-608975Y419784D02*
X-608118Y420213D01*
X-606832Y421498D01*
Y412500D01*
X-580076Y412678D02*
Y403680D01*
Y412678D02*
X-576220D01*
X-574934Y412250D01*
X-574506Y411821D01*
X-574077Y410964D01*
Y410107D01*
X-574506Y409250D01*
X-574934Y408822D01*
X-576220Y408393D01*
X-580076D01*
X-577077D02*
X-574077Y403680D01*
X-571635Y410536D02*
Y410964D01*
X-571206Y411821D01*
X-570778Y412250D01*
X-569921Y412678D01*
X-568207D01*
X-567350Y412250D01*
X-566922Y411821D01*
X-566493Y410964D01*
Y410107D01*
X-566922Y409250D01*
X-567779Y407965D01*
X-572063Y403680D01*
X-566065D01*
X-561480Y412678D02*
X-562765Y412250D01*
X-563622Y410964D01*
X-564051Y408822D01*
Y407536D01*
X-563622Y405394D01*
X-562765Y404109D01*
X-561480Y403680D01*
X-560623D01*
X-559338Y404109D01*
X-558481Y405394D01*
X-558052Y407536D01*
Y408822D01*
X-558481Y410964D01*
X-559338Y412250D01*
X-560623Y412678D01*
X-561480D01*
X-757500Y218998D02*
Y210000D01*
Y218998D02*
X-753644D01*
X-752358Y218570D01*
X-751930Y218141D01*
X-751501Y217284D01*
Y216427D01*
X-751930Y215570D01*
X-752358Y215142D01*
X-753644Y214713D01*
X-757500D01*
X-754501D02*
X-751501Y210000D01*
X-749487Y217284D02*
X-748631Y217713D01*
X-747345Y218998D01*
Y210000D01*
X-737319Y215999D02*
X-737747Y214713D01*
X-738604Y213856D01*
X-739890Y213428D01*
X-740318D01*
X-741603Y213856D01*
X-742460Y214713D01*
X-742889Y215999D01*
Y216427D01*
X-742460Y217713D01*
X-741603Y218570D01*
X-740318Y218998D01*
X-739890D01*
X-738604Y218570D01*
X-737747Y217713D01*
X-737319Y215999D01*
Y213856D01*
X-737747Y211714D01*
X-738604Y210429D01*
X-739890Y210000D01*
X-740746D01*
X-742032Y210429D01*
X-742460Y211285D01*
X-670000Y223998D02*
Y215000D01*
Y223998D02*
X-666144D01*
X-664858Y223570D01*
X-664430Y223141D01*
X-664001Y222284D01*
Y221427D01*
X-664430Y220570D01*
X-664858Y220142D01*
X-666144Y219713D01*
X-670000D01*
X-667001D02*
X-664001Y215000D01*
X-661987Y222284D02*
X-661131Y222713D01*
X-659845Y223998D01*
Y215000D01*
X-653246Y223998D02*
X-654532Y223570D01*
X-654960Y222713D01*
Y221856D01*
X-654532Y220999D01*
X-653675Y220570D01*
X-651961Y220142D01*
X-650676Y219713D01*
X-649819Y218856D01*
X-649390Y217999D01*
Y216714D01*
X-649819Y215857D01*
X-650247Y215429D01*
X-651533Y215000D01*
X-653246D01*
X-654532Y215429D01*
X-654960Y215857D01*
X-655389Y216714D01*
Y217999D01*
X-654960Y218856D01*
X-654103Y219713D01*
X-652818Y220142D01*
X-651104Y220570D01*
X-650247Y220999D01*
X-649819Y221856D01*
Y222713D01*
X-650247Y223570D01*
X-651533Y223998D01*
X-653246D01*
X-612500Y408998D02*
Y400000D01*
Y408998D02*
X-608644D01*
X-607358Y408570D01*
X-606930Y408141D01*
X-606501Y407284D01*
Y406427D01*
X-606930Y405570D01*
X-607358Y405142D01*
X-608644Y404713D01*
X-612500D01*
X-609501D02*
X-606501Y400000D01*
X-604487Y407284D02*
X-603630Y407713D01*
X-602345Y408998D01*
Y400000D01*
X-591890Y408998D02*
X-596175Y400000D01*
X-597889Y408998D02*
X-591890D01*
X-705000Y278998D02*
Y270000D01*
Y278998D02*
X-701144D01*
X-699858Y278570D01*
X-699430Y278141D01*
X-699001Y277284D01*
Y276427D01*
X-699430Y275570D01*
X-699858Y275142D01*
X-701144Y274713D01*
X-705000D01*
X-702001D02*
X-699001Y270000D01*
X-696987Y277284D02*
X-696131Y277713D01*
X-694845Y278998D01*
Y270000D01*
X-685247Y277713D02*
X-685676Y278570D01*
X-686961Y278998D01*
X-687818D01*
X-689103Y278570D01*
X-689960Y277284D01*
X-690389Y275142D01*
Y272999D01*
X-689960Y271285D01*
X-689103Y270429D01*
X-687818Y270000D01*
X-687390D01*
X-686104Y270429D01*
X-685247Y271285D01*
X-684819Y272571D01*
Y272999D01*
X-685247Y274285D01*
X-686104Y275142D01*
X-687390Y275570D01*
X-687818D01*
X-689103Y275142D01*
X-689960Y274285D01*
X-690389Y272999D01*
X-502352Y164520D02*
Y155522D01*
Y164520D02*
X-498496D01*
X-497210Y164092D01*
X-496782Y163663D01*
X-496353Y162806D01*
Y161949D01*
X-496782Y161092D01*
X-497210Y160664D01*
X-498496Y160235D01*
X-502352D01*
X-499353D02*
X-496353Y155522D01*
X-494339Y162806D02*
X-493482Y163235D01*
X-492197Y164520D01*
Y155522D01*
X-482599Y164520D02*
X-486884D01*
X-487312Y160664D01*
X-486884Y161092D01*
X-485598Y161521D01*
X-484313D01*
X-483027Y161092D01*
X-482171Y160235D01*
X-481742Y158950D01*
Y158093D01*
X-482171Y156807D01*
X-483027Y155950D01*
X-484313Y155522D01*
X-485598D01*
X-486884Y155950D01*
X-487312Y156379D01*
X-487741Y157236D01*
X-752542Y280090D02*
Y271092D01*
Y280090D02*
X-748686D01*
X-747400Y279662D01*
X-746972Y279233D01*
X-746543Y278376D01*
Y277519D01*
X-746972Y276662D01*
X-747400Y276234D01*
X-748686Y275805D01*
X-752542D01*
X-749543D02*
X-746543Y271092D01*
X-744529Y278376D02*
X-743672Y278805D01*
X-742387Y280090D01*
Y271092D01*
X-733646Y280090D02*
X-737931Y274091D01*
X-731504D01*
X-733646Y280090D02*
Y271092D01*
X-670000Y261498D02*
Y252500D01*
Y261498D02*
X-666144D01*
X-664858Y261070D01*
X-664430Y260641D01*
X-664001Y259784D01*
Y258927D01*
X-664430Y258070D01*
X-664858Y257642D01*
X-666144Y257213D01*
X-670000D01*
X-667001D02*
X-664001Y252500D01*
X-661987Y259784D02*
X-661131Y260213D01*
X-659845Y261498D01*
Y252500D01*
X-654532Y261498D02*
X-649819D01*
X-652390Y258070D01*
X-651104D01*
X-650247Y257642D01*
X-649819Y257213D01*
X-649390Y255928D01*
Y255071D01*
X-649819Y253785D01*
X-650676Y252929D01*
X-651961Y252500D01*
X-653246D01*
X-654532Y252929D01*
X-654960Y253357D01*
X-655389Y254214D01*
X-502352Y194492D02*
Y185494D01*
Y194492D02*
X-498496D01*
X-497210Y194064D01*
X-496782Y193635D01*
X-496353Y192778D01*
Y191921D01*
X-496782Y191064D01*
X-497210Y190636D01*
X-498496Y190207D01*
X-502352D01*
X-499353D02*
X-496353Y185494D01*
X-494339Y192778D02*
X-493482Y193207D01*
X-492197Y194492D01*
Y185494D01*
X-487312Y192350D02*
Y192778D01*
X-486884Y193635D01*
X-486455Y194064D01*
X-485598Y194492D01*
X-483885D01*
X-483027Y194064D01*
X-482599Y193635D01*
X-482171Y192778D01*
Y191921D01*
X-482599Y191064D01*
X-483456Y189779D01*
X-487741Y185494D01*
X-481742D01*
X-541498Y370000D02*
X-532500D01*
X-541498D02*
Y373856D01*
X-541070Y375142D01*
X-540641Y375570D01*
X-539784Y375999D01*
X-538927D01*
X-538070Y375570D01*
X-537642Y375142D01*
X-537213Y373856D01*
Y370000D01*
Y372999D02*
X-532500Y375999D01*
X-539784Y378013D02*
X-540213Y378870D01*
X-541498Y380155D01*
X-532500D01*
X-539784Y384611D02*
X-540213Y385468D01*
X-541498Y386754D01*
X-532500D01*
X-638998Y345000D02*
X-630000D01*
X-638998D02*
Y348856D01*
X-638570Y350142D01*
X-638141Y350570D01*
X-637284Y350999D01*
X-636427D01*
X-635570Y350570D01*
X-635142Y350142D01*
X-634713Y348856D01*
Y345000D01*
Y347999D02*
X-630000Y350999D01*
X-637284Y353013D02*
X-637713Y353870D01*
X-638998Y355155D01*
X-630000D01*
X-638998Y362182D02*
X-638570Y360897D01*
X-637284Y360040D01*
X-635142Y359611D01*
X-633856D01*
X-631714Y360040D01*
X-630429Y360897D01*
X-630000Y362182D01*
Y363039D01*
X-630429Y364324D01*
X-631714Y365181D01*
X-633856Y365610D01*
X-635142D01*
X-637284Y365181D01*
X-638570Y364324D01*
X-638998Y363039D01*
Y362182D01*
X-692500Y376498D02*
Y367500D01*
Y376498D02*
X-688644D01*
X-687358Y376070D01*
X-686930Y375641D01*
X-686501Y374784D01*
Y373927D01*
X-686930Y373070D01*
X-687358Y372642D01*
X-688644Y372213D01*
X-692500D01*
X-689501D02*
X-686501Y367500D01*
X-678917Y373499D02*
X-679346Y372213D01*
X-680203Y371356D01*
X-681488Y370928D01*
X-681917D01*
X-683202Y371356D01*
X-684059Y372213D01*
X-684487Y373499D01*
Y373927D01*
X-684059Y375213D01*
X-683202Y376070D01*
X-681917Y376498D01*
X-681488D01*
X-680203Y376070D01*
X-679346Y375213D01*
X-678917Y373499D01*
Y371356D01*
X-679346Y369214D01*
X-680203Y367929D01*
X-681488Y367500D01*
X-682345D01*
X-683631Y367929D01*
X-684059Y368785D01*
X-510000Y253998D02*
Y245000D01*
Y253998D02*
X-506144D01*
X-504858Y253570D01*
X-504430Y253141D01*
X-504001Y252284D01*
Y251427D01*
X-504430Y250570D01*
X-504858Y250142D01*
X-506144Y249713D01*
X-510000D01*
X-507001D02*
X-504001Y245000D01*
X-499845Y253998D02*
X-501130Y253570D01*
X-501559Y252713D01*
Y251856D01*
X-501130Y250999D01*
X-500274Y250570D01*
X-498560Y250142D01*
X-497274Y249713D01*
X-496417Y248856D01*
X-495989Y247999D01*
Y246714D01*
X-496417Y245857D01*
X-496846Y245429D01*
X-498131Y245000D01*
X-499845D01*
X-501130Y245429D01*
X-501559Y245857D01*
X-501987Y246714D01*
Y247999D01*
X-501559Y248856D01*
X-500702Y249713D01*
X-499417Y250142D01*
X-497703Y250570D01*
X-496846Y250999D01*
X-496417Y251856D01*
Y252713D01*
X-496846Y253570D01*
X-498131Y253998D01*
X-499845D01*
X-768998Y352500D02*
X-760000D01*
X-768998D02*
Y356356D01*
X-768570Y357642D01*
X-768141Y358070D01*
X-767284Y358499D01*
X-766427D01*
X-765570Y358070D01*
X-765142Y357642D01*
X-764713Y356356D01*
Y352500D01*
Y355499D02*
X-760000Y358499D01*
X-768998Y366511D02*
X-760000Y362226D01*
X-768998Y360513D02*
Y366511D01*
X-667500Y361498D02*
Y352500D01*
Y361498D02*
X-663644D01*
X-662358Y361070D01*
X-661930Y360641D01*
X-661501Y359784D01*
Y358927D01*
X-661930Y358070D01*
X-662358Y357642D01*
X-663644Y357213D01*
X-667500D01*
X-664501D02*
X-661501Y352500D01*
X-654346Y360213D02*
X-654774Y361070D01*
X-656060Y361498D01*
X-656917D01*
X-658202Y361070D01*
X-659059Y359784D01*
X-659487Y357642D01*
Y355499D01*
X-659059Y353785D01*
X-658202Y352929D01*
X-656917Y352500D01*
X-656488D01*
X-655203Y352929D01*
X-654346Y353785D01*
X-653917Y355071D01*
Y355499D01*
X-654346Y356785D01*
X-655203Y357642D01*
X-656488Y358070D01*
X-656917D01*
X-658202Y357642D01*
X-659059Y356785D01*
X-659487Y355499D01*
X-626498Y285000D02*
X-617500D01*
X-626498D02*
Y288856D01*
X-626070Y290142D01*
X-625641Y290570D01*
X-624784Y290999D01*
X-623927D01*
X-623070Y290570D01*
X-622642Y290142D01*
X-622213Y288856D01*
Y285000D01*
Y287999D02*
X-617500Y290999D01*
X-626498Y298154D02*
Y293869D01*
X-622642Y293441D01*
X-623070Y293869D01*
X-623499Y295155D01*
Y296440D01*
X-623070Y297726D01*
X-622213Y298583D01*
X-620928Y299011D01*
X-620071D01*
X-618786Y298583D01*
X-617929Y297726D01*
X-617500Y296440D01*
Y295155D01*
X-617929Y293869D01*
X-618357Y293441D01*
X-619214Y293013D01*
X-663998Y285000D02*
X-655000D01*
X-663998D02*
Y288856D01*
X-663570Y290142D01*
X-663141Y290570D01*
X-662284Y290999D01*
X-661427D01*
X-660570Y290570D01*
X-660142Y290142D01*
X-659713Y288856D01*
Y285000D01*
Y287999D02*
X-655000Y290999D01*
X-663998Y297297D02*
X-657999Y293013D01*
Y299440D01*
X-663998Y297297D02*
X-655000D01*
X-708998Y402500D02*
X-700000D01*
X-708998D02*
Y406356D01*
X-708570Y407642D01*
X-708141Y408070D01*
X-707284Y408499D01*
X-706427D01*
X-705570Y408070D01*
X-705142Y407642D01*
X-704713Y406356D01*
Y402500D01*
Y405499D02*
X-700000Y408499D01*
X-708998Y411370D02*
Y416083D01*
X-705570Y413512D01*
Y414797D01*
X-705142Y415654D01*
X-704713Y416083D01*
X-703428Y416511D01*
X-702571D01*
X-701285Y416083D01*
X-700428Y415226D01*
X-700000Y413940D01*
Y412655D01*
X-700428Y411370D01*
X-700857Y410941D01*
X-701714Y410513D01*
X-675000Y408998D02*
Y400000D01*
Y408998D02*
X-671144D01*
X-669858Y408570D01*
X-669430Y408141D01*
X-669001Y407284D01*
Y406427D01*
X-669430Y405570D01*
X-669858Y405142D01*
X-671144Y404713D01*
X-675000D01*
X-672001D02*
X-669001Y400000D01*
X-666559Y406856D02*
Y407284D01*
X-666130Y408141D01*
X-665702Y408570D01*
X-664845Y408998D01*
X-663131D01*
X-662274Y408570D01*
X-661846Y408141D01*
X-661417Y407284D01*
Y406427D01*
X-661846Y405570D01*
X-662703Y404285D01*
X-666987Y400000D01*
X-660989D01*
X-750510Y410138D02*
Y401140D01*
Y410138D02*
X-746654D01*
X-745368Y409710D01*
X-744940Y409281D01*
X-744511Y408424D01*
Y407567D01*
X-744940Y406710D01*
X-745368Y406282D01*
X-746654Y405853D01*
X-750510D01*
X-747511D02*
X-744511Y401140D01*
X-742497Y408424D02*
X-741640Y408853D01*
X-740355Y410138D01*
Y401140D01*
X-497500Y351498D02*
Y342500D01*
X-492358D01*
X-491373Y349784D02*
X-490516Y350213D01*
X-489230Y351498D01*
Y342500D01*
X410715Y-73998D02*
Y-67142D01*
X411144Y-65857D01*
X411572Y-65429D01*
X412429Y-65000D01*
X413286D01*
X414143Y-65429D01*
X414571Y-65857D01*
X415000Y-67142D01*
Y-67999D01*
X408401Y-72284D02*
X407544Y-72713D01*
X406259Y-73998D01*
Y-65000D01*
X401803Y-72284D02*
X400946Y-72713D01*
X399660Y-73998D01*
Y-65000D01*
X401785Y253998D02*
Y247142D01*
X401356Y245857D01*
X400928Y245429D01*
X400071Y245000D01*
X399214D01*
X398357Y245429D01*
X397929Y245857D01*
X397500Y247142D01*
Y247999D01*
X404099Y252284D02*
X404956Y252713D01*
X406241Y253998D01*
Y245000D01*
X413268Y253998D02*
X411983Y253570D01*
X411126Y252284D01*
X410697Y250142D01*
Y248856D01*
X411126Y246714D01*
X411983Y245429D01*
X413268Y245000D01*
X414125D01*
X415410Y245429D01*
X416267Y246714D01*
X416696Y248856D01*
Y250142D01*
X416267Y252284D01*
X415410Y253570D01*
X414125Y253998D01*
X413268D01*
X432500Y269998D02*
Y260000D01*
X434595Y269998D02*
Y260000D01*
Y269998D02*
X441260Y260000D01*
Y269998D02*
Y260000D01*
X444021Y268093D02*
X444973Y268570D01*
X446402Y269998D01*
Y260000D01*
X459209Y264761D02*
X463493D01*
X464922Y265237D01*
X465398Y265713D01*
X465874Y266665D01*
Y268093D01*
X465398Y269046D01*
X464922Y269522D01*
X463493Y269998D01*
X459209D01*
Y260000D01*
X468111Y269998D02*
Y260000D01*
X474777Y269998D02*
Y260000D01*
X468111Y265237D02*
X474777D01*
X480395Y269998D02*
X479442Y269522D01*
X478490Y268570D01*
X478014Y267617D01*
X477538Y266189D01*
Y263809D01*
X478014Y262380D01*
X478490Y261428D01*
X479442Y260476D01*
X480395Y260000D01*
X482299D01*
X483251Y260476D01*
X484203Y261428D01*
X484679Y262380D01*
X485155Y263809D01*
Y266189D01*
X484679Y267617D01*
X484203Y268570D01*
X483251Y269522D01*
X482299Y269998D01*
X480395D01*
X490821D02*
Y260000D01*
X487488Y269998D02*
X494153D01*
X498200D02*
X497248Y269522D01*
X496296Y268570D01*
X495820Y267617D01*
X495344Y266189D01*
Y263809D01*
X495820Y262380D01*
X496296Y261428D01*
X497248Y260476D01*
X498200Y260000D01*
X500105D01*
X501057Y260476D01*
X502009Y261428D01*
X502485Y262380D01*
X502961Y263809D01*
Y266189D01*
X502485Y267617D01*
X502009Y268570D01*
X501057Y269522D01*
X500105Y269998D01*
X498200D01*
X404285Y83998D02*
Y77142D01*
X403856Y75857D01*
X403428Y75429D01*
X402571Y75000D01*
X401714D01*
X400857Y75429D01*
X400429Y75857D01*
X400000Y77142D01*
Y77999D01*
X412169Y80999D02*
X411740Y79713D01*
X410883Y78856D01*
X409598Y78428D01*
X409170D01*
X407884Y78856D01*
X407027Y79713D01*
X406599Y80999D01*
Y81427D01*
X407027Y82713D01*
X407884Y83570D01*
X409170Y83998D01*
X409598D01*
X410883Y83570D01*
X411740Y82713D01*
X412169Y80999D01*
Y78856D01*
X411740Y76714D01*
X410883Y75429D01*
X409598Y75000D01*
X408741D01*
X407455Y75429D01*
X407027Y76285D01*
X430000Y69998D02*
Y60000D01*
X432095Y69998D02*
Y60000D01*
Y69998D02*
X438760Y60000D01*
Y69998D02*
Y60000D01*
X444378Y69998D02*
X442950Y69522D01*
X441997Y68094D01*
X441521Y65713D01*
Y64285D01*
X441997Y61904D01*
X442950Y60476D01*
X444378Y60000D01*
X445330D01*
X446758Y60476D01*
X447710Y61904D01*
X448187Y64285D01*
Y65713D01*
X447710Y68094D01*
X446758Y69522D01*
X445330Y69998D01*
X444378D01*
X458280Y64761D02*
X462565D01*
X463993Y65237D01*
X464469Y65713D01*
X464945Y66665D01*
Y68094D01*
X464469Y69046D01*
X463993Y69522D01*
X462565Y69998D01*
X458280D01*
Y60000D01*
X467183Y69998D02*
Y60000D01*
X473848Y69998D02*
Y60000D01*
X467183Y65237D02*
X473848D01*
X479466Y69998D02*
X478513Y69522D01*
X477561Y68570D01*
X477085Y67617D01*
X476609Y66189D01*
Y63809D01*
X477085Y62380D01*
X477561Y61428D01*
X478513Y60476D01*
X479466Y60000D01*
X481370D01*
X482322Y60476D01*
X483274Y61428D01*
X483750Y62380D01*
X484226Y63809D01*
Y66189D01*
X483750Y67617D01*
X483274Y68570D01*
X482322Y69522D01*
X481370Y69998D01*
X479466D01*
X489892D02*
Y60000D01*
X486559Y69998D02*
X493224D01*
X497271D02*
X496319Y69522D01*
X495367Y68570D01*
X494891Y67617D01*
X494415Y66189D01*
Y63809D01*
X494891Y62380D01*
X495367Y61428D01*
X496319Y60476D01*
X497271Y60000D01*
X499176D01*
X500128Y60476D01*
X501080Y61428D01*
X501556Y62380D01*
X502032Y63809D01*
Y66189D01*
X501556Y67617D01*
X501080Y68570D01*
X500128Y69522D01*
X499176Y69998D01*
X497271D01*
X-840715Y48998D02*
Y42142D01*
X-841144Y40857D01*
X-841572Y40429D01*
X-842429Y40000D01*
X-843286D01*
X-844143Y40429D01*
X-844572Y40857D01*
X-845000Y42142D01*
Y42999D01*
X-836259Y48998D02*
X-837544Y48570D01*
X-837973Y47713D01*
Y46856D01*
X-837544Y45999D01*
X-836687Y45570D01*
X-834974Y45142D01*
X-833688Y44713D01*
X-832831Y43856D01*
X-832403Y42999D01*
Y41714D01*
X-832831Y40857D01*
X-833260Y40429D01*
X-834545Y40000D01*
X-836259D01*
X-837544Y40429D01*
X-837973Y40857D01*
X-838401Y41714D01*
Y42999D01*
X-837973Y43856D01*
X-837116Y44713D01*
X-835831Y45142D01*
X-834117Y45570D01*
X-833260Y45999D01*
X-832831Y46856D01*
Y47713D01*
X-833260Y48570D01*
X-834545Y48998D01*
X-836259D01*
X-845715Y-56002D02*
Y-62858D01*
X-846144Y-64143D01*
X-846572Y-64571D01*
X-847429Y-65000D01*
X-848286D01*
X-849143Y-64571D01*
X-849572Y-64143D01*
X-850000Y-62858D01*
Y-62001D01*
X-837403Y-56002D02*
X-841687Y-65000D01*
X-843401Y-56002D02*
X-837403D01*
X-760715Y166498D02*
Y159642D01*
X-761144Y158357D01*
X-761572Y157928D01*
X-762429Y157500D01*
X-763286D01*
X-764143Y157928D01*
X-764572Y158357D01*
X-765000Y159642D01*
Y160499D01*
X-753260Y165213D02*
X-753688Y166070D01*
X-754974Y166498D01*
X-755831D01*
X-757116Y166070D01*
X-757973Y164784D01*
X-758401Y162642D01*
Y160499D01*
X-757973Y158785D01*
X-757116Y157928D01*
X-755831Y157500D01*
X-755402D01*
X-754117Y157928D01*
X-753260Y158785D01*
X-752831Y160071D01*
Y160499D01*
X-753260Y161785D01*
X-754117Y162642D01*
X-755402Y163070D01*
X-755831D01*
X-757116Y162642D01*
X-757973Y161785D01*
X-758401Y160499D01*
X-258998Y-400715D02*
X-252142D01*
X-250857Y-401144D01*
X-250429Y-401572D01*
X-250000Y-402429D01*
Y-403286D01*
X-250429Y-404143D01*
X-250857Y-404571D01*
X-252142Y-405000D01*
X-252999D01*
X-258998Y-393260D02*
Y-397544D01*
X-255142Y-397973D01*
X-255570Y-397544D01*
X-255999Y-396259D01*
Y-394974D01*
X-255570Y-393688D01*
X-254713Y-392831D01*
X-253428Y-392403D01*
X-252571D01*
X-251285Y-392831D01*
X-250429Y-393688D01*
X-250000Y-394974D01*
Y-396259D01*
X-250429Y-397544D01*
X-250857Y-397973D01*
X-251714Y-398401D01*
X-128998Y-400715D02*
X-122142D01*
X-120857Y-401144D01*
X-120428Y-401572D01*
X-120000Y-402429D01*
Y-403286D01*
X-120428Y-404143D01*
X-120857Y-404571D01*
X-122142Y-405000D01*
X-122999D01*
X-128998Y-394117D02*
X-122999Y-398401D01*
Y-391974D01*
X-128998Y-394117D02*
X-120000D01*
X-780715Y438998D02*
Y432142D01*
X-781144Y430857D01*
X-781572Y430429D01*
X-782429Y430000D01*
X-783286D01*
X-784143Y430429D01*
X-784572Y430857D01*
X-785000Y432142D01*
Y432999D01*
X-777544Y438998D02*
X-772831D01*
X-775402Y435570D01*
X-774117D01*
X-773260Y435142D01*
X-772831Y434713D01*
X-772403Y433428D01*
Y432571D01*
X-772831Y431285D01*
X-773688Y430429D01*
X-774974Y430000D01*
X-776259D01*
X-777544Y430429D01*
X-777973Y430857D01*
X-778401Y431714D01*
X1002Y-400715D02*
X7858D01*
X9143Y-401144D01*
X9571Y-401572D01*
X10000Y-402429D01*
Y-403286D01*
X9571Y-404143D01*
X9143Y-404571D01*
X7858Y-405000D01*
X7001D01*
X3144Y-397973D02*
X2716D01*
X1859Y-397544D01*
X1430Y-397116D01*
X1002Y-396259D01*
Y-394545D01*
X1430Y-393688D01*
X1859Y-393260D01*
X2716Y-392831D01*
X3573D01*
X4430Y-393260D01*
X5715Y-394117D01*
X10000Y-398401D01*
Y-392403D01*
X131002Y-398215D02*
X137858D01*
X139143Y-398644D01*
X139572Y-399072D01*
X140000Y-399929D01*
Y-400786D01*
X139572Y-401643D01*
X139143Y-402071D01*
X137858Y-402500D01*
X137001D01*
X132716Y-395901D02*
X132287Y-395044D01*
X131002Y-393759D01*
X140000D01*
X282508Y323270D02*
Y314272D01*
Y323270D02*
X285507D01*
X286793Y322842D01*
X287650Y321985D01*
X288078Y321128D01*
X288507Y319842D01*
Y317700D01*
X288078Y316414D01*
X287650Y315557D01*
X286793Y314701D01*
X285507Y314272D01*
X282508D01*
X296519Y323270D02*
X290521Y314272D01*
Y323270D02*
X296519D01*
X290521Y314272D02*
X296519D01*
X298962Y321128D02*
Y321556D01*
X299390Y322413D01*
X299819Y322842D01*
X300676Y323270D01*
X302390D01*
X303246Y322842D01*
X303675Y322413D01*
X304103Y321556D01*
Y320699D01*
X303675Y319842D01*
X302818Y318557D01*
X298533Y314272D01*
X304532D01*
X282508Y215828D02*
Y206830D01*
Y215828D02*
X285507D01*
X286793Y215400D01*
X287650Y214543D01*
X288078Y213686D01*
X288507Y212400D01*
Y210258D01*
X288078Y208972D01*
X287650Y208115D01*
X286793Y207258D01*
X285507Y206830D01*
X282508D01*
X296519Y215828D02*
X290521Y206830D01*
Y215828D02*
X296519D01*
X290521Y206830D02*
X296519D01*
X298533Y214114D02*
X299390Y214543D01*
X300676Y215828D01*
Y206830D01*
X225614Y-17375D02*
X224757Y-17803D01*
X223900Y-18660D01*
X223472Y-19517D01*
Y-21231D01*
X223900Y-22088D01*
X224757Y-22945D01*
X225614Y-23373D01*
X226900Y-23802D01*
X229042D01*
X230328Y-23373D01*
X231185Y-22945D01*
X232041Y-22088D01*
X232470Y-21231D01*
Y-19517D01*
X232041Y-18660D01*
X231185Y-17803D01*
X230328Y-17375D01*
X225614Y-14418D02*
X225186D01*
X224329Y-13990D01*
X223900Y-13561D01*
X223472Y-12704D01*
Y-10991D01*
X223900Y-10134D01*
X224329Y-9705D01*
X225186Y-9276D01*
X226043D01*
X226900Y-9705D01*
X228185Y-10562D01*
X232470Y-14847D01*
Y-8848D01*
X225186Y-6834D02*
X224757Y-5977D01*
X223472Y-4692D01*
X232470D01*
X225614Y79399D02*
X224757Y78971D01*
X223900Y78114D01*
X223472Y77257D01*
Y75543D01*
X223900Y74686D01*
X224757Y73829D01*
X225614Y73401D01*
X226900Y72972D01*
X229042D01*
X230328Y73401D01*
X231185Y73829D01*
X232041Y74686D01*
X232470Y75543D01*
Y77257D01*
X232041Y78114D01*
X231185Y78971D01*
X230328Y79399D01*
X225614Y82356D02*
X225186D01*
X224329Y82784D01*
X223900Y83213D01*
X223472Y84070D01*
Y85784D01*
X223900Y86641D01*
X224329Y87069D01*
X225186Y87498D01*
X226043D01*
X226900Y87069D01*
X228185Y86212D01*
X232470Y81927D01*
Y87926D01*
X223472Y92511D02*
X223900Y91225D01*
X225186Y90368D01*
X227328Y89940D01*
X228614D01*
X230756Y90368D01*
X232041Y91225D01*
X232470Y92511D01*
Y93368D01*
X232041Y94653D01*
X230756Y95510D01*
X228614Y95939D01*
X227328D01*
X225186Y95510D01*
X223900Y94653D01*
X223472Y93368D01*
Y92511D01*
X-407862Y-379579D02*
X-408719Y-380007D01*
X-409576Y-380864D01*
X-410004Y-381721D01*
Y-383435D01*
X-409576Y-384292D01*
X-408719Y-385149D01*
X-407862Y-385578D01*
X-406576Y-386006D01*
X-404434D01*
X-403148Y-385578D01*
X-402291Y-385149D01*
X-401435Y-384292D01*
X-401006Y-383435D01*
Y-381721D01*
X-401435Y-380864D01*
X-402291Y-380007D01*
X-403148Y-379579D01*
X-408290Y-377051D02*
X-408719Y-376194D01*
X-410004Y-374908D01*
X-401006D01*
X-407005Y-364882D02*
X-405719Y-365310D01*
X-404862Y-366167D01*
X-404434Y-367453D01*
Y-367881D01*
X-404862Y-369167D01*
X-405719Y-370024D01*
X-407005Y-370452D01*
X-407433D01*
X-408719Y-370024D01*
X-409576Y-369167D01*
X-410004Y-367881D01*
Y-367453D01*
X-409576Y-366167D01*
X-408719Y-365310D01*
X-407005Y-364882D01*
X-404862D01*
X-402720Y-365310D01*
X-401435Y-366167D01*
X-401006Y-367453D01*
Y-368310D01*
X-401435Y-369595D01*
X-402291Y-370024D01*
X-721073Y196856D02*
X-721501Y197713D01*
X-722358Y198570D01*
X-723215Y198998D01*
X-724929D01*
X-725786Y198570D01*
X-726643Y197713D01*
X-727072Y196856D01*
X-727500Y195570D01*
Y193428D01*
X-727072Y192142D01*
X-726643Y191285D01*
X-725786Y190429D01*
X-724929Y190000D01*
X-723215D01*
X-722358Y190429D01*
X-721501Y191285D01*
X-721073Y192142D01*
X-718545Y197284D02*
X-717688Y197713D01*
X-716402Y198998D01*
Y190000D01*
X-709804Y198998D02*
X-711089Y198570D01*
X-711518Y197713D01*
Y196856D01*
X-711089Y195999D01*
X-710232Y195570D01*
X-708518Y195142D01*
X-707233Y194713D01*
X-706376Y193856D01*
X-705947Y192999D01*
Y191714D01*
X-706376Y190857D01*
X-706804Y190429D01*
X-708090Y190000D01*
X-709804D01*
X-711089Y190429D01*
X-711518Y190857D01*
X-711946Y191714D01*
Y192999D01*
X-711518Y193856D01*
X-710661Y194713D01*
X-709375Y195142D01*
X-707661Y195570D01*
X-706804Y195999D01*
X-706376Y196856D01*
Y197713D01*
X-706804Y198570D01*
X-708090Y198998D01*
X-709804D01*
X-618573Y106856D02*
X-619001Y107713D01*
X-619858Y108570D01*
X-620715Y108998D01*
X-622429D01*
X-623286Y108570D01*
X-624143Y107713D01*
X-624571Y106856D01*
X-625000Y105570D01*
Y103428D01*
X-624571Y102142D01*
X-624143Y101285D01*
X-623286Y100428D01*
X-622429Y100000D01*
X-620715D01*
X-619858Y100428D01*
X-619001Y101285D01*
X-618573Y102142D01*
X-616045Y107284D02*
X-615188Y107713D01*
X-613902Y108998D01*
Y100000D01*
X-603447Y108998D02*
X-607732Y100000D01*
X-609446Y108998D02*
X-603447D01*
X-684647Y334336D02*
X-685075Y335193D01*
X-685932Y336050D01*
X-686789Y336478D01*
X-688503D01*
X-689360Y336050D01*
X-690217Y335193D01*
X-690646Y334336D01*
X-691074Y333050D01*
Y330908D01*
X-690646Y329622D01*
X-690217Y328765D01*
X-689360Y327909D01*
X-688503Y327480D01*
X-686789D01*
X-685932Y327909D01*
X-685075Y328765D01*
X-684647Y329622D01*
X-682119Y334764D02*
X-681262Y335193D01*
X-679976Y336478D01*
Y327480D01*
X-670378Y335193D02*
X-670807Y336050D01*
X-672092Y336478D01*
X-672949D01*
X-674235Y336050D01*
X-675092Y334764D01*
X-675520Y332622D01*
Y330479D01*
X-675092Y328765D01*
X-674235Y327909D01*
X-672949Y327480D01*
X-672521D01*
X-671235Y327909D01*
X-670378Y328765D01*
X-669950Y330051D01*
Y330479D01*
X-670378Y331765D01*
X-671235Y332622D01*
X-672521Y333050D01*
X-672949D01*
X-674235Y332622D01*
X-675092Y331765D01*
X-675520Y330479D01*
X-629356Y156427D02*
X-630213Y155999D01*
X-631070Y155142D01*
X-631498Y154285D01*
Y152571D01*
X-631070Y151714D01*
X-630213Y150857D01*
X-629356Y150428D01*
X-628070Y150000D01*
X-625928D01*
X-624642Y150428D01*
X-623785Y150857D01*
X-622929Y151714D01*
X-622500Y152571D01*
Y154285D01*
X-622929Y155142D01*
X-623785Y155999D01*
X-624642Y156427D01*
X-629784Y158955D02*
X-630213Y159812D01*
X-631498Y161098D01*
X-622500D01*
X-631498Y170696D02*
Y166411D01*
X-627642Y165982D01*
X-628070Y166411D01*
X-628499Y167696D01*
Y168982D01*
X-628070Y170267D01*
X-627213Y171124D01*
X-625928Y171553D01*
X-625071D01*
X-623785Y171124D01*
X-622929Y170267D01*
X-622500Y168982D01*
Y167696D01*
X-622929Y166411D01*
X-623357Y165982D01*
X-624214Y165554D01*
X-628573Y-3144D02*
X-629001Y-2287D01*
X-629858Y-1430D01*
X-630715Y-1002D01*
X-632429D01*
X-633286Y-1430D01*
X-634143Y-2287D01*
X-634571Y-3144D01*
X-635000Y-4430D01*
Y-6572D01*
X-634571Y-7858D01*
X-634143Y-8715D01*
X-633286Y-9571D01*
X-632429Y-10000D01*
X-630715D01*
X-629858Y-9571D01*
X-629001Y-8715D01*
X-628573Y-7858D01*
X-626045Y-2716D02*
X-625188Y-2287D01*
X-623902Y-1002D01*
Y-10000D01*
X-615161Y-1002D02*
X-619446Y-7001D01*
X-613019D01*
X-615161Y-1002D02*
Y-10000D01*
X-626856Y53927D02*
X-627713Y53499D01*
X-628570Y52642D01*
X-628998Y51785D01*
Y50071D01*
X-628570Y49214D01*
X-627713Y48357D01*
X-626856Y47929D01*
X-625570Y47500D01*
X-623428D01*
X-622142Y47929D01*
X-621285Y48357D01*
X-620429Y49214D01*
X-620000Y50071D01*
Y51785D01*
X-620429Y52642D01*
X-621285Y53499D01*
X-622142Y53927D01*
X-627284Y56455D02*
X-627713Y57312D01*
X-628998Y58598D01*
X-620000D01*
X-628998Y63911D02*
Y68624D01*
X-625570Y66053D01*
Y67339D01*
X-625142Y68196D01*
X-624713Y68624D01*
X-623428Y69053D01*
X-622571D01*
X-621285Y68624D01*
X-620429Y67767D01*
X-620000Y66482D01*
Y65196D01*
X-620429Y63911D01*
X-620857Y63482D01*
X-621714Y63054D01*
X-751073Y244356D02*
X-751501Y245213D01*
X-752358Y246070D01*
X-753215Y246498D01*
X-754929D01*
X-755786Y246070D01*
X-756643Y245213D01*
X-757072Y244356D01*
X-757500Y243070D01*
Y240928D01*
X-757072Y239642D01*
X-756643Y238785D01*
X-755786Y237929D01*
X-754929Y237500D01*
X-753215D01*
X-752358Y237929D01*
X-751501Y238785D01*
X-751073Y239642D01*
X-748545Y244784D02*
X-747688Y245213D01*
X-746402Y246498D01*
Y237500D01*
X-741518Y244356D02*
Y244784D01*
X-741089Y245641D01*
X-740661Y246070D01*
X-739804Y246498D01*
X-738090D01*
X-737233Y246070D01*
X-736804Y245641D01*
X-736376Y244784D01*
Y243927D01*
X-736804Y243070D01*
X-737661Y241785D01*
X-741946Y237500D01*
X-735947D01*
X-624356Y351427D02*
X-625213Y350999D01*
X-626070Y350142D01*
X-626498Y349285D01*
Y347571D01*
X-626070Y346714D01*
X-625213Y345857D01*
X-624356Y345429D01*
X-623070Y345000D01*
X-620928D01*
X-619642Y345429D01*
X-618786Y345857D01*
X-617929Y346714D01*
X-617500Y347571D01*
Y349285D01*
X-617929Y350142D01*
X-618786Y350999D01*
X-619642Y351427D01*
X-624784Y353955D02*
X-625213Y354812D01*
X-626498Y356098D01*
X-617500D01*
X-624784Y360554D02*
X-625213Y361411D01*
X-626498Y362696D01*
X-617500D01*
X-629356Y381427D02*
X-630213Y380999D01*
X-631070Y380142D01*
X-631498Y379285D01*
Y377571D01*
X-631070Y376714D01*
X-630213Y375857D01*
X-629356Y375429D01*
X-628070Y375000D01*
X-625928D01*
X-624642Y375429D01*
X-623785Y375857D01*
X-622929Y376714D01*
X-622500Y377571D01*
Y379285D01*
X-622929Y380142D01*
X-623785Y380999D01*
X-624642Y381427D01*
X-629784Y383955D02*
X-630213Y384812D01*
X-631498Y386098D01*
X-622500D01*
X-631498Y393125D02*
X-631070Y391839D01*
X-629784Y390982D01*
X-627642Y390554D01*
X-626356D01*
X-624214Y390982D01*
X-622929Y391839D01*
X-622500Y393125D01*
Y393982D01*
X-622929Y395267D01*
X-624214Y396124D01*
X-626356Y396553D01*
X-627642D01*
X-629784Y396124D01*
X-631070Y395267D01*
X-631498Y393982D01*
Y393125D01*
X-524356Y376427D02*
X-525213Y375999D01*
X-526070Y375142D01*
X-526498Y374285D01*
Y372571D01*
X-526070Y371714D01*
X-525213Y370857D01*
X-524356Y370429D01*
X-523070Y370000D01*
X-520928D01*
X-519642Y370429D01*
X-518785Y370857D01*
X-517929Y371714D01*
X-517500Y372571D01*
Y374285D01*
X-517929Y375142D01*
X-518785Y375999D01*
X-519642Y376427D01*
X-523499Y384525D02*
X-522213Y384097D01*
X-521356Y383240D01*
X-520928Y381955D01*
Y381526D01*
X-521356Y380241D01*
X-522213Y379384D01*
X-523499Y378955D01*
X-523927D01*
X-525213Y379384D01*
X-526070Y380241D01*
X-526498Y381526D01*
Y381955D01*
X-526070Y383240D01*
X-525213Y384097D01*
X-523499Y384525D01*
X-521356D01*
X-519214Y384097D01*
X-517929Y383240D01*
X-517500Y381955D01*
Y381098D01*
X-517929Y379812D01*
X-518785Y379384D01*
X-719699Y276932D02*
X-720127Y277789D01*
X-720984Y278646D01*
X-721841Y279074D01*
X-723555D01*
X-724412Y278646D01*
X-725269Y277789D01*
X-725697Y276932D01*
X-726126Y275646D01*
Y273504D01*
X-725697Y272218D01*
X-725269Y271361D01*
X-724412Y270504D01*
X-723555Y270076D01*
X-721841D01*
X-720984Y270504D01*
X-720127Y271361D01*
X-719699Y272218D01*
X-715028Y279074D02*
X-716314Y278646D01*
X-716742Y277789D01*
Y276932D01*
X-716314Y276075D01*
X-715457Y275646D01*
X-713743Y275218D01*
X-712458Y274789D01*
X-711600Y273932D01*
X-711172Y273075D01*
Y271790D01*
X-711600Y270933D01*
X-712029Y270504D01*
X-713314Y270076D01*
X-715028D01*
X-716314Y270504D01*
X-716742Y270933D01*
X-717171Y271790D01*
Y273075D01*
X-716742Y273932D01*
X-715885Y274789D01*
X-714600Y275218D01*
X-712886Y275646D01*
X-712029Y276075D01*
X-711600Y276932D01*
Y277789D01*
X-712029Y278646D01*
X-713314Y279074D01*
X-715028D01*
X-741073Y371856D02*
X-741501Y372713D01*
X-742358Y373570D01*
X-743215Y373998D01*
X-744929D01*
X-745786Y373570D01*
X-746643Y372713D01*
X-747072Y371856D01*
X-747500Y370570D01*
Y368428D01*
X-747072Y367142D01*
X-746643Y366285D01*
X-745786Y365429D01*
X-744929Y365000D01*
X-743215D01*
X-742358Y365429D01*
X-741501Y366285D01*
X-741073Y367142D01*
X-732546Y373998D02*
X-736831Y365000D01*
X-738545Y373998D02*
X-732546D01*
X-636856Y291427D02*
X-637713Y290999D01*
X-638570Y290142D01*
X-638998Y289285D01*
Y287571D01*
X-638570Y286714D01*
X-637713Y285857D01*
X-636856Y285428D01*
X-635570Y285000D01*
X-633428D01*
X-632142Y285428D01*
X-631286Y285857D01*
X-630429Y286714D01*
X-630000Y287571D01*
Y289285D01*
X-630429Y290142D01*
X-631286Y290999D01*
X-632142Y291427D01*
X-637713Y299097D02*
X-638570Y298668D01*
X-638998Y297383D01*
Y296526D01*
X-638570Y295241D01*
X-637284Y294384D01*
X-635142Y293955D01*
X-632999D01*
X-631286Y294384D01*
X-630429Y295241D01*
X-630000Y296526D01*
Y296954D01*
X-630429Y298240D01*
X-631286Y299097D01*
X-632571Y299525D01*
X-632999D01*
X-634285Y299097D01*
X-635142Y298240D01*
X-635570Y296954D01*
Y296526D01*
X-635142Y295241D01*
X-634285Y294384D01*
X-632999Y293955D01*
X-649356Y291427D02*
X-650213Y290999D01*
X-651070Y290142D01*
X-651498Y289285D01*
Y287571D01*
X-651070Y286714D01*
X-650213Y285857D01*
X-649356Y285429D01*
X-648070Y285000D01*
X-645928D01*
X-644642Y285429D01*
X-643785Y285857D01*
X-642928Y286714D01*
X-642500Y287571D01*
Y289285D01*
X-642928Y290142D01*
X-643785Y290999D01*
X-644642Y291427D01*
X-651498Y299097D02*
Y294812D01*
X-647642Y294384D01*
X-648070Y294812D01*
X-648499Y296098D01*
Y297383D01*
X-648070Y298668D01*
X-647213Y299526D01*
X-645928Y299954D01*
X-645071D01*
X-643785Y299526D01*
X-642928Y298668D01*
X-642500Y297383D01*
Y296098D01*
X-642928Y294812D01*
X-643357Y294384D01*
X-644214Y293955D01*
X-546856Y328927D02*
X-547713Y328499D01*
X-548570Y327642D01*
X-548998Y326785D01*
Y325071D01*
X-548570Y324214D01*
X-547713Y323357D01*
X-546856Y322929D01*
X-545570Y322500D01*
X-543428D01*
X-542142Y322929D01*
X-541286Y323357D01*
X-540429Y324214D01*
X-540000Y325071D01*
Y326785D01*
X-540429Y327642D01*
X-541286Y328499D01*
X-542142Y328927D01*
X-548998Y335740D02*
X-542999Y331455D01*
Y337882D01*
X-548998Y335740D02*
X-540000D01*
X-481073Y284356D02*
X-481501Y285213D01*
X-482358Y286070D01*
X-483215Y286498D01*
X-484929D01*
X-485786Y286070D01*
X-486643Y285213D01*
X-487071Y284356D01*
X-487500Y283070D01*
Y280928D01*
X-487071Y279642D01*
X-486643Y278785D01*
X-485786Y277929D01*
X-484929Y277500D01*
X-483215D01*
X-482358Y277929D01*
X-481501Y278785D01*
X-481073Y279642D01*
X-477688Y286498D02*
X-472975D01*
X-475545Y283070D01*
X-474260D01*
X-473403Y282642D01*
X-472975Y282213D01*
X-472546Y280928D01*
Y280071D01*
X-472975Y278785D01*
X-473831Y277929D01*
X-475117Y277500D01*
X-476402D01*
X-477688Y277929D01*
X-478116Y278357D01*
X-478545Y279214D01*
X-721856Y406427D02*
X-722713Y405999D01*
X-723570Y405142D01*
X-723998Y404285D01*
Y402571D01*
X-723570Y401714D01*
X-722713Y400857D01*
X-721856Y400429D01*
X-720570Y400000D01*
X-718428D01*
X-717142Y400429D01*
X-716285Y400857D01*
X-715428Y401714D01*
X-715000Y402571D01*
Y404285D01*
X-715428Y405142D01*
X-716285Y405999D01*
X-717142Y406427D01*
X-721856Y409384D02*
X-722284D01*
X-723141Y409812D01*
X-723570Y410241D01*
X-723998Y411098D01*
Y412812D01*
X-723570Y413669D01*
X-723141Y414097D01*
X-722284Y414525D01*
X-721427D01*
X-720570Y414097D01*
X-719285Y413240D01*
X-715000Y408955D01*
Y414954D01*
X-473573Y309356D02*
X-474001Y310213D01*
X-474858Y311070D01*
X-475715Y311498D01*
X-477429D01*
X-478286Y311070D01*
X-479143Y310213D01*
X-479571Y309356D01*
X-480000Y308070D01*
Y305928D01*
X-479571Y304642D01*
X-479143Y303785D01*
X-478286Y302929D01*
X-477429Y302500D01*
X-475715D01*
X-474858Y302929D01*
X-474001Y303785D01*
X-473573Y304642D01*
X-471045Y309784D02*
X-470188Y310213D01*
X-468902Y311498D01*
Y302500D01*
D11*
X-549000Y252000D02*
G03*
X-549000Y252000I-3000J0D01*
G01*
X-425500Y-209500D02*
G03*
X-425500Y-209500I-3000J0D01*
G01*
X-142998Y57798D02*
G03*
X-142998Y57798I-4500J0D01*
G01*
D12*
X-586500Y-208499D02*
G03*
X-586500Y-208499I-2500J0D01*
G01*
X-371850Y-402000D02*
G03*
X-371850Y-402000I-2000J0D01*
G01*
X20000Y-393003D02*
Y-405000D01*
Y-393003D02*
X27998Y-405000D01*
Y-393003D02*
Y-405000D01*
X39881Y-395859D02*
X39310Y-394716D01*
X38168Y-393574D01*
X37025Y-393003D01*
X34740D01*
X33597Y-393574D01*
X32455Y-394716D01*
X31883Y-395859D01*
X31312Y-397573D01*
Y-400429D01*
X31883Y-402143D01*
X32455Y-403286D01*
X33597Y-404429D01*
X34740Y-405000D01*
X37025D01*
X38168Y-404429D01*
X39310Y-403286D01*
X39881Y-402143D01*
X61248Y-395859D02*
X60677Y-394716D01*
X59534Y-393574D01*
X58392Y-393003D01*
X56107D01*
X54964Y-393574D01*
X53821Y-394716D01*
X53250Y-395859D01*
X52679Y-397573D01*
Y-400429D01*
X53250Y-402143D01*
X53821Y-403286D01*
X54964Y-404429D01*
X56107Y-405000D01*
X58392D01*
X59534Y-404429D01*
X60677Y-403286D01*
X61248Y-402143D01*
X68047Y-393003D02*
X66904Y-393574D01*
X65762Y-394716D01*
X65190Y-395859D01*
X64619Y-397573D01*
Y-400429D01*
X65190Y-402143D01*
X65762Y-403286D01*
X66904Y-404429D01*
X68047Y-405000D01*
X70332D01*
X71475Y-404429D01*
X72617Y-403286D01*
X73189Y-402143D01*
X73760Y-400429D01*
Y-397573D01*
X73189Y-395859D01*
X72617Y-394716D01*
X71475Y-393574D01*
X70332Y-393003D01*
X68047D01*
X76559D02*
Y-405000D01*
Y-393003D02*
X81130Y-405000D01*
X85700Y-393003D02*
X81130Y-405000D01*
X85700Y-393003D02*
Y-405000D01*
X98555Y-393003D02*
Y-405000D01*
Y-393003D02*
X106553Y-405000D01*
Y-393003D02*
Y-405000D01*
X113294Y-393003D02*
X112152Y-393574D01*
X111009Y-394716D01*
X110438Y-395859D01*
X109867Y-397573D01*
Y-400429D01*
X110438Y-402143D01*
X111009Y-403286D01*
X112152Y-404429D01*
X113294Y-405000D01*
X115580D01*
X116722Y-404429D01*
X117865Y-403286D01*
X118436Y-402143D01*
X119007Y-400429D01*
Y-397573D01*
X118436Y-395859D01*
X117865Y-394716D01*
X116722Y-393574D01*
X115580Y-393003D01*
X113294D01*
X150000D02*
Y-405000D01*
Y-393003D02*
X157998Y-405000D01*
Y-393003D02*
Y-405000D01*
X169881Y-395859D02*
X169310Y-394716D01*
X168167Y-393574D01*
X167025Y-393003D01*
X164740D01*
X163597Y-393574D01*
X162454Y-394716D01*
X161883Y-395859D01*
X161312Y-397573D01*
Y-400429D01*
X161883Y-402143D01*
X162454Y-403286D01*
X163597Y-404429D01*
X164740Y-405000D01*
X167025D01*
X168167Y-404429D01*
X169310Y-403286D01*
X169881Y-402143D01*
X191248Y-395859D02*
X190677Y-394716D01*
X189534Y-393574D01*
X188392Y-393003D01*
X186107D01*
X184964Y-393574D01*
X183821Y-394716D01*
X183250Y-395859D01*
X182679Y-397573D01*
Y-400429D01*
X183250Y-402143D01*
X183821Y-403286D01*
X184964Y-404429D01*
X186107Y-405000D01*
X188392D01*
X189534Y-404429D01*
X190677Y-403286D01*
X191248Y-402143D01*
X198047Y-393003D02*
X196904Y-393574D01*
X195762Y-394716D01*
X195190Y-395859D01*
X194619Y-397573D01*
Y-400429D01*
X195190Y-402143D01*
X195762Y-403286D01*
X196904Y-404429D01*
X198047Y-405000D01*
X200332D01*
X201475Y-404429D01*
X202617Y-403286D01*
X203189Y-402143D01*
X203760Y-400429D01*
Y-397573D01*
X203189Y-395859D01*
X202617Y-394716D01*
X201475Y-393574D01*
X200332Y-393003D01*
X198047D01*
X206559D02*
Y-405000D01*
Y-393003D02*
X211130Y-405000D01*
X215700Y-393003D02*
X211130Y-405000D01*
X215700Y-393003D02*
Y-405000D01*
X228555Y-393003D02*
Y-405000D01*
Y-393003D02*
X236553Y-405000D01*
Y-393003D02*
Y-405000D01*
X243294Y-393003D02*
X242152Y-393574D01*
X241009Y-394716D01*
X240438Y-395859D01*
X239867Y-397573D01*
Y-400429D01*
X240438Y-402143D01*
X241009Y-403286D01*
X242152Y-404429D01*
X243294Y-405000D01*
X245580D01*
X246722Y-404429D01*
X247865Y-403286D01*
X248436Y-402143D01*
X249007Y-400429D01*
Y-397573D01*
X248436Y-395859D01*
X247865Y-394716D01*
X246722Y-393574D01*
X245580Y-393003D01*
X243294D01*
X-240000D02*
Y-405000D01*
Y-393003D02*
X-232002Y-405000D01*
Y-393003D02*
Y-405000D01*
X-220119Y-395859D02*
X-220690Y-394716D01*
X-221833Y-393574D01*
X-222975Y-393003D01*
X-225260D01*
X-226403Y-393574D01*
X-227546Y-394716D01*
X-228117Y-395859D01*
X-228688Y-397573D01*
Y-400429D01*
X-228117Y-402143D01*
X-227546Y-403286D01*
X-226403Y-404429D01*
X-225260Y-405000D01*
X-222975D01*
X-221833Y-404429D01*
X-220690Y-403286D01*
X-220119Y-402143D01*
X-198752Y-395859D02*
X-199323Y-394716D01*
X-200466Y-393574D01*
X-201608Y-393003D01*
X-203893D01*
X-205036Y-393574D01*
X-206179Y-394716D01*
X-206750Y-395859D01*
X-207321Y-397573D01*
Y-400429D01*
X-206750Y-402143D01*
X-206179Y-403286D01*
X-205036Y-404429D01*
X-203893Y-405000D01*
X-201608D01*
X-200466Y-404429D01*
X-199323Y-403286D01*
X-198752Y-402143D01*
X-191953Y-393003D02*
X-193096Y-393574D01*
X-194238Y-394716D01*
X-194810Y-395859D01*
X-195381Y-397573D01*
Y-400429D01*
X-194810Y-402143D01*
X-194238Y-403286D01*
X-193096Y-404429D01*
X-191953Y-405000D01*
X-189668D01*
X-188525Y-404429D01*
X-187383Y-403286D01*
X-186811Y-402143D01*
X-186240Y-400429D01*
Y-397573D01*
X-186811Y-395859D01*
X-187383Y-394716D01*
X-188525Y-393574D01*
X-189668Y-393003D01*
X-191953D01*
X-183441D02*
Y-405000D01*
Y-393003D02*
X-178870Y-405000D01*
X-174300Y-393003D02*
X-178870Y-405000D01*
X-174300Y-393003D02*
Y-405000D01*
X-161445Y-393003D02*
Y-405000D01*
Y-393003D02*
X-153447Y-405000D01*
Y-393003D02*
Y-405000D01*
X-146706Y-393003D02*
X-147848Y-393574D01*
X-148991Y-394716D01*
X-149562Y-395859D01*
X-150133Y-397573D01*
Y-400429D01*
X-149562Y-402143D01*
X-148991Y-403286D01*
X-147848Y-404429D01*
X-146706Y-405000D01*
X-144420D01*
X-143278Y-404429D01*
X-142135Y-403286D01*
X-141564Y-402143D01*
X-140993Y-400429D01*
Y-397573D01*
X-141564Y-395859D01*
X-142135Y-394716D01*
X-143278Y-393574D01*
X-144420Y-393003D01*
X-146706D01*
X-110000D02*
Y-405000D01*
Y-393003D02*
X-102002Y-405000D01*
Y-393003D02*
Y-405000D01*
X-90119Y-395859D02*
X-90690Y-394716D01*
X-91833Y-393574D01*
X-92975Y-393003D01*
X-95260D01*
X-96403Y-393574D01*
X-97545Y-394716D01*
X-98117Y-395859D01*
X-98688Y-397573D01*
Y-400429D01*
X-98117Y-402143D01*
X-97545Y-403286D01*
X-96403Y-404429D01*
X-95260Y-405000D01*
X-92975D01*
X-91833Y-404429D01*
X-90690Y-403286D01*
X-90119Y-402143D01*
X-68752Y-395859D02*
X-69323Y-394716D01*
X-70466Y-393574D01*
X-71608Y-393003D01*
X-73893D01*
X-75036Y-393574D01*
X-76179Y-394716D01*
X-76750Y-395859D01*
X-77321Y-397573D01*
Y-400429D01*
X-76750Y-402143D01*
X-76179Y-403286D01*
X-75036Y-404429D01*
X-73893Y-405000D01*
X-71608D01*
X-70466Y-404429D01*
X-69323Y-403286D01*
X-68752Y-402143D01*
X-61953Y-393003D02*
X-63096Y-393574D01*
X-64238Y-394716D01*
X-64810Y-395859D01*
X-65381Y-397573D01*
Y-400429D01*
X-64810Y-402143D01*
X-64238Y-403286D01*
X-63096Y-404429D01*
X-61953Y-405000D01*
X-59668D01*
X-58525Y-404429D01*
X-57383Y-403286D01*
X-56811Y-402143D01*
X-56240Y-400429D01*
Y-397573D01*
X-56811Y-395859D01*
X-57383Y-394716D01*
X-58525Y-393574D01*
X-59668Y-393003D01*
X-61953D01*
X-53441D02*
Y-405000D01*
Y-393003D02*
X-48870Y-405000D01*
X-44300Y-393003D02*
X-48870Y-405000D01*
X-44300Y-393003D02*
Y-405000D01*
X-31445Y-393003D02*
Y-405000D01*
Y-393003D02*
X-23447Y-405000D01*
Y-393003D02*
Y-405000D01*
X-16706Y-393003D02*
X-17848Y-393574D01*
X-18991Y-394716D01*
X-19562Y-395859D01*
X-20134Y-397573D01*
Y-400429D01*
X-19562Y-402143D01*
X-18991Y-403286D01*
X-17848Y-404429D01*
X-16706Y-405000D01*
X-14420D01*
X-13278Y-404429D01*
X-12135Y-403286D01*
X-11564Y-402143D01*
X-10993Y-400429D01*
Y-397573D01*
X-11564Y-395859D01*
X-12135Y-394716D01*
X-13278Y-393574D01*
X-14420Y-393003D01*
X-16706D01*
X-236572Y-370503D02*
X-237715Y-371074D01*
X-238857Y-372216D01*
X-239429Y-373359D01*
X-240000Y-375073D01*
Y-377929D01*
X-239429Y-379644D01*
X-238857Y-380786D01*
X-237715Y-381929D01*
X-236572Y-382500D01*
X-234287D01*
X-233144Y-381929D01*
X-232002Y-380786D01*
X-231430Y-379644D01*
X-230859Y-377929D01*
Y-375073D01*
X-231430Y-373359D01*
X-232002Y-372216D01*
X-233144Y-371074D01*
X-234287Y-370503D01*
X-236572D01*
X-228060D02*
Y-379072D01*
X-227488Y-380786D01*
X-226346Y-381929D01*
X-224632Y-382500D01*
X-223489D01*
X-221775Y-381929D01*
X-220633Y-380786D01*
X-220061Y-379072D01*
Y-370503D01*
X-212749D02*
Y-382500D01*
X-216748Y-370503D02*
X-208750D01*
X-206179D02*
X-199894D01*
X-203322Y-375073D01*
X-201608D01*
X-200466Y-375644D01*
X-199894Y-376216D01*
X-199323Y-377929D01*
Y-379072D01*
X-199894Y-380786D01*
X-201037Y-381929D01*
X-202751Y-382500D01*
X-204465D01*
X-206179Y-381929D01*
X-206750Y-381357D01*
X-207321Y-380215D01*
X-104072Y-370503D02*
X-105215Y-371074D01*
X-106357Y-372216D01*
X-106929Y-373359D01*
X-107500Y-375073D01*
Y-377929D01*
X-106929Y-379644D01*
X-106357Y-380786D01*
X-105215Y-381929D01*
X-104072Y-382500D01*
X-101787D01*
X-100644Y-381929D01*
X-99502Y-380786D01*
X-98930Y-379644D01*
X-98359Y-377929D01*
Y-375073D01*
X-98930Y-373359D01*
X-99502Y-372216D01*
X-100644Y-371074D01*
X-101787Y-370503D01*
X-104072D01*
X-95560D02*
Y-379072D01*
X-94988Y-380786D01*
X-93846Y-381929D01*
X-92132Y-382500D01*
X-90989D01*
X-89275Y-381929D01*
X-88133Y-380786D01*
X-87561Y-379072D01*
Y-370503D01*
X-80249D02*
Y-382500D01*
X-84248Y-370503D02*
X-76249D01*
X-74250Y-373359D02*
Y-372788D01*
X-73679Y-371645D01*
X-73107Y-371074D01*
X-71965Y-370503D01*
X-69679D01*
X-68537Y-371074D01*
X-67966Y-371645D01*
X-67394Y-372788D01*
Y-373930D01*
X-67966Y-375073D01*
X-69108Y-376787D01*
X-74821Y-382500D01*
X-66823D01*
X23428Y-370503D02*
X22285Y-371074D01*
X21143Y-372216D01*
X20571Y-373359D01*
X20000Y-375073D01*
Y-377929D01*
X20571Y-379644D01*
X21143Y-380786D01*
X22285Y-381929D01*
X23428Y-382500D01*
X25713D01*
X26856Y-381929D01*
X27998Y-380786D01*
X28570Y-379644D01*
X29141Y-377929D01*
Y-375073D01*
X28570Y-373359D01*
X27998Y-372216D01*
X26856Y-371074D01*
X25713Y-370503D01*
X23428D01*
X31940D02*
Y-379072D01*
X32512Y-380786D01*
X33654Y-381929D01*
X35368Y-382500D01*
X36511D01*
X38225Y-381929D01*
X39367Y-380786D01*
X39939Y-379072D01*
Y-370503D01*
X47251D02*
Y-382500D01*
X43252Y-370503D02*
X51251D01*
X52679Y-372788D02*
X53821Y-372216D01*
X55535Y-370503D01*
Y-382500D01*
X153428Y-370503D02*
X152285Y-371074D01*
X151143Y-372216D01*
X150571Y-373359D01*
X150000Y-375073D01*
Y-377929D01*
X150571Y-379644D01*
X151143Y-380786D01*
X152285Y-381929D01*
X153428Y-382500D01*
X155713D01*
X156856Y-381929D01*
X157998Y-380786D01*
X158570Y-379644D01*
X159141Y-377929D01*
Y-375073D01*
X158570Y-373359D01*
X157998Y-372216D01*
X156856Y-371074D01*
X155713Y-370503D01*
X153428D01*
X161940D02*
Y-379072D01*
X162512Y-380786D01*
X163654Y-381929D01*
X165368Y-382500D01*
X166511D01*
X168225Y-381929D01*
X169367Y-380786D01*
X169939Y-379072D01*
Y-370503D01*
X177251D02*
Y-382500D01*
X173252Y-370503D02*
X181250D01*
X186107D02*
X184393Y-371074D01*
X183250Y-372788D01*
X182679Y-375644D01*
Y-377358D01*
X183250Y-380215D01*
X184393Y-381929D01*
X186107Y-382500D01*
X187249D01*
X188963Y-381929D01*
X190106Y-380215D01*
X190677Y-377358D01*
Y-375644D01*
X190106Y-372788D01*
X188963Y-371074D01*
X187249Y-370503D01*
X186107D01*
D13*
X110498Y162500D02*
G03*
X110498Y162500I-5500J0D01*
G01*
X-510000Y124765D02*
X-490004Y132383D01*
X-510000Y140000D01*
X-503335Y137143D02*
Y127622D01*
X-496670Y120099D02*
X-510000D01*
X-500478D02*
X-497622Y117243D01*
X-496670Y115339D01*
Y112482D01*
X-497622Y110578D01*
X-500478Y109626D01*
X-510000D01*
X-496670Y92962D02*
X-510000D01*
X-499526D02*
X-497622Y94867D01*
X-496670Y96771D01*
Y99628D01*
X-497622Y101532D01*
X-499526Y103436D01*
X-502383Y104389D01*
X-504287D01*
X-507144Y103436D01*
X-509048Y101532D01*
X-510000Y99628D01*
Y96771D01*
X-509048Y94867D01*
X-507144Y92962D01*
X-490004Y87630D02*
X-510000D01*
X-496670Y78680D02*
X-497622Y80584D01*
X-499526Y82488D01*
X-502383Y83441D01*
X-504287D01*
X-507144Y82488D01*
X-509048Y80584D01*
X-510000Y78680D01*
Y75823D01*
X-509048Y73919D01*
X-507144Y72014D01*
X-504287Y71062D01*
X-502383D01*
X-499526Y72014D01*
X-497622Y73919D01*
X-496670Y75823D01*
Y78680D01*
Y55256D02*
X-511904D01*
X-514761Y56208D01*
X-515713Y57161D01*
X-516665Y59065D01*
Y61922D01*
X-515713Y63826D01*
X-499526Y55256D02*
X-497622Y57161D01*
X-496670Y59065D01*
Y61922D01*
X-497622Y63826D01*
X-499526Y65730D01*
X-502383Y66682D01*
X-504287D01*
X-507144Y65730D01*
X-509048Y63826D01*
X-510000Y61922D01*
Y59065D01*
X-509048Y57161D01*
X-507144Y55256D01*
X-490004Y34213D02*
X-510000D01*
X-496670Y30024D02*
X-510000D01*
X-500478D02*
X-497622Y27167D01*
X-496670Y25263D01*
Y22406D01*
X-497622Y20502D01*
X-500478Y19550D01*
X-510000D01*
X-496670Y14313D02*
X-516665D01*
X-499526D02*
X-497622Y12408D01*
X-496670Y10504D01*
Y7647D01*
X-497622Y5743D01*
X-499526Y3839D01*
X-502383Y2887D01*
X-504287D01*
X-507144Y3839D01*
X-509048Y5743D01*
X-510000Y7647D01*
Y10504D01*
X-509048Y12408D01*
X-507144Y14313D01*
X-496670Y-1398D02*
X-506191D01*
X-509048Y-2350D01*
X-510000Y-4255D01*
Y-7111D01*
X-509048Y-9016D01*
X-506191Y-11872D01*
X-496670D02*
X-510000D01*
X-490004Y-19966D02*
X-506191D01*
X-509048Y-20918D01*
X-510000Y-22822D01*
Y-24727D01*
X-496670Y-17109D02*
Y-23774D01*
X-445000Y-462504D02*
Y-482500D01*
Y-462504D02*
X-436430D01*
X-433574Y-463456D01*
X-432622Y-464409D01*
X-431670Y-466313D01*
Y-468217D01*
X-432622Y-470122D01*
X-433574Y-471074D01*
X-436430Y-472026D01*
X-445000D01*
X-438335D02*
X-431670Y-482500D01*
X-427194Y-474883D02*
X-415768D01*
Y-472978D01*
X-416720Y-471074D01*
X-417673Y-470122D01*
X-419577Y-469170D01*
X-422433D01*
X-424338Y-470122D01*
X-426242Y-472026D01*
X-427194Y-474883D01*
Y-476787D01*
X-426242Y-479644D01*
X-424338Y-481548D01*
X-422433Y-482500D01*
X-419577D01*
X-417673Y-481548D01*
X-415768Y-479644D01*
X-411483Y-462504D02*
Y-482500D01*
X-395868Y-469170D02*
Y-482500D01*
Y-472026D02*
X-397772Y-470122D01*
X-399676Y-469170D01*
X-402533D01*
X-404437Y-470122D01*
X-406342Y-472026D01*
X-407294Y-474883D01*
Y-476787D01*
X-406342Y-479644D01*
X-404437Y-481548D01*
X-402533Y-482500D01*
X-399676D01*
X-397772Y-481548D01*
X-395868Y-479644D01*
X-389583Y-469170D02*
X-383870Y-482500D01*
X-378157Y-469170D02*
X-383870Y-482500D01*
X-385775Y-486309D01*
X-387679Y-488213D01*
X-389583Y-489165D01*
X-390536D01*
X-353401Y-462504D02*
X-355305Y-463456D01*
X-357209Y-465361D01*
X-358162Y-467265D01*
X-359114Y-470122D01*
Y-474883D01*
X-358162Y-477739D01*
X-357209Y-479644D01*
X-355305Y-481548D01*
X-353401Y-482500D01*
X-349592D01*
X-347687Y-481548D01*
X-345783Y-479644D01*
X-344831Y-477739D01*
X-343879Y-474883D01*
Y-470122D01*
X-344831Y-467265D01*
X-345783Y-465361D01*
X-347687Y-463456D01*
X-349592Y-462504D01*
X-353401D01*
X-339213Y-469170D02*
Y-478691D01*
X-338261Y-481548D01*
X-336357Y-482500D01*
X-333500D01*
X-331596Y-481548D01*
X-328739Y-478691D01*
Y-469170D02*
Y-482500D01*
X-320646Y-462504D02*
Y-478691D01*
X-319694Y-481548D01*
X-317789Y-482500D01*
X-315885D01*
X-323502Y-469170D02*
X-316837D01*
X-313028D02*
Y-489165D01*
Y-472026D02*
X-311124Y-470122D01*
X-309219Y-469170D01*
X-306363D01*
X-304459Y-470122D01*
X-302554Y-472026D01*
X-301602Y-474883D01*
Y-476787D01*
X-302554Y-479644D01*
X-304459Y-481548D01*
X-306363Y-482500D01*
X-309219D01*
X-311124Y-481548D01*
X-313028Y-479644D01*
X-297317Y-469170D02*
Y-478691D01*
X-296365Y-481548D01*
X-294461Y-482500D01*
X-291604D01*
X-289700Y-481548D01*
X-286843Y-478691D01*
Y-469170D02*
Y-482500D01*
X-278750Y-462504D02*
Y-478691D01*
X-277798Y-481548D01*
X-275893Y-482500D01*
X-273989D01*
X-281606Y-469170D02*
X-274941D01*
X407504Y285000D02*
X427500D01*
X407504D02*
Y291665D01*
X408456Y294522D01*
X410361Y296426D01*
X412265Y297378D01*
X415122Y298330D01*
X419883D01*
X422739Y297378D01*
X424644Y296426D01*
X426548Y294522D01*
X427500Y291665D01*
Y285000D01*
X407504Y304710D02*
X408456Y305662D01*
X407504Y306614D01*
X406552Y305662D01*
X407504Y304710D01*
X414170Y305662D02*
X427500D01*
X414170Y321564D02*
X429404D01*
X432261Y320611D01*
X433213Y319659D01*
X434165Y317755D01*
Y314898D01*
X433213Y312994D01*
X417026Y321564D02*
X415122Y319659D01*
X414170Y317755D01*
Y314898D01*
X415122Y312994D01*
X417026Y311090D01*
X419883Y310138D01*
X421787D01*
X424644Y311090D01*
X426548Y312994D01*
X427500Y314898D01*
Y317755D01*
X426548Y319659D01*
X424644Y321564D01*
X407504Y328800D02*
X408456Y329752D01*
X407504Y330704D01*
X406552Y329752D01*
X407504Y328800D01*
X414170Y329752D02*
X427500D01*
X407504Y337084D02*
X423691D01*
X426548Y338036D01*
X427500Y339941D01*
Y341845D01*
X414170Y334228D02*
Y340893D01*
Y356128D02*
X427500D01*
X417026D02*
X415122Y354223D01*
X414170Y352319D01*
Y349462D01*
X415122Y347558D01*
X417026Y345654D01*
X419883Y344701D01*
X421787D01*
X424644Y345654D01*
X426548Y347558D01*
X427500Y349462D01*
Y352319D01*
X426548Y354223D01*
X424644Y356128D01*
X407504Y361460D02*
X427500D01*
X407504Y381360D02*
X427500D01*
X414170Y385550D02*
X427500D01*
X417978D02*
X415122Y388406D01*
X414170Y390311D01*
Y393167D01*
X415122Y395072D01*
X417978Y396024D01*
X427500D01*
X414170Y401261D02*
X434165D01*
X417026D02*
X415122Y403165D01*
X414170Y405070D01*
Y407926D01*
X415122Y409830D01*
X417026Y411735D01*
X419883Y412687D01*
X421787D01*
X424644Y411735D01*
X426548Y409830D01*
X427500Y407926D01*
Y405070D01*
X426548Y403165D01*
X424644Y401261D01*
X414170Y416972D02*
X423691D01*
X426548Y417924D01*
X427500Y419828D01*
Y422685D01*
X426548Y424589D01*
X423691Y427446D01*
X414170D02*
X427500D01*
X407504Y435539D02*
X423691D01*
X426548Y436491D01*
X427500Y438396D01*
Y440300D01*
X414170Y432683D02*
Y439348D01*
X430000Y-407503D02*
Y-422500D01*
Y-407503D02*
X436427D01*
X438570Y-408217D01*
X439284Y-408932D01*
X439998Y-410360D01*
Y-411788D01*
X439284Y-413216D01*
X438570Y-413930D01*
X436427Y-414645D01*
X430000D01*
X434999D02*
X439998Y-422500D01*
X452638Y-407503D02*
X443354D01*
Y-422500D01*
X452638D01*
X443354Y-414645D02*
X449067D01*
X455137Y-407503D02*
X460850Y-422500D01*
X466564Y-407503D02*
X460850Y-422500D01*
X469206Y-421072D02*
X468492Y-421786D01*
X469206Y-422500D01*
X469920Y-421786D01*
X469206Y-421072D01*
X484631Y-422500D02*
X478918Y-407503D01*
X473205Y-422500D01*
X475347Y-417501D02*
X482489D01*
D14*
X395500Y208898D02*
X433000D01*
X395500Y161500D02*
X433000D01*
X395500Y168500D02*
X433000D01*
X395500Y121102D02*
X433000D01*
X395000Y50000D02*
X432500D01*
X395000Y12500D02*
X432500D01*
X395000Y-27898D02*
X432500D01*
X395500Y89023D02*
X418000D01*
X395500Y258500D02*
X418000D01*
X395500Y240977D02*
X418000D01*
X395500Y71500D02*
X418000D01*
X395000Y-59977D02*
X417500D01*
X395000Y-77500D02*
X417500D01*
X418000Y79000D02*
Y161500D01*
Y168500D02*
Y251000D01*
X417500Y-70000D02*
Y50000D01*
X395500Y85514D02*
Y161514D01*
Y168486D02*
Y244486D01*
X395000Y-77500D02*
Y-59977D01*
Y-60000D02*
Y50000D01*
X418000Y251000D02*
Y258500D01*
Y251000D02*
X433000D01*
X417500Y-77500D02*
Y-70000D01*
X395500Y240977D02*
Y258500D01*
Y71500D02*
Y89023D01*
X418000Y79000D02*
X433000D01*
X418000Y71500D02*
Y79000D01*
X432500Y12500D02*
Y17500D01*
X417500Y-70000D02*
X432500D01*
X395500Y161500D02*
Y161514D01*
Y168486D02*
Y168500D01*
X395000Y12500D02*
Y17687D01*
X15000Y-365000D02*
X125000D01*
X15000Y-387500D02*
X125000D01*
X5000Y-410000D02*
X125000D01*
X145000Y-365000D02*
X255000D01*
X145000Y-387500D02*
X255000D01*
X135000Y-410000D02*
X255000D01*
X-245000Y-365000D02*
X-135000D01*
X-115000D02*
X-5000D01*
X-245000Y-387500D02*
X-135000D01*
X-115000D02*
X-5000D01*
X-255000Y-410000D02*
X-135000D01*
X-125000D02*
X-5000D01*
X-135000Y-425000D02*
Y-387500D01*
X-115000Y-410000D02*
Y-387500D01*
X-135000D02*
Y-365000D01*
X-115000Y-387500D02*
Y-365000D01*
X127500Y-387500D02*
X145000D01*
X127500Y-410000D02*
X135000D01*
X-2500Y-387500D02*
X15000D01*
X-132500D02*
X-115000D01*
Y-410000D02*
X-114977D01*
X-262500Y-387500D02*
X-245000D01*
X-262500Y-410000D02*
X-255000D01*
X255000Y-425000D02*
Y-387500D01*
X222500Y-425000D02*
Y-387500D01*
X177102Y-425000D02*
Y-387500D01*
X145000Y-410000D02*
Y-387500D01*
X125000Y-425000D02*
Y-387500D01*
X127500Y-410000D02*
Y-387500D01*
X92500Y-425000D02*
Y-387500D01*
X47102Y-425000D02*
Y-387500D01*
X15000Y-410000D02*
Y-387500D01*
X-5000Y-425000D02*
Y-387500D01*
X-2500Y-410000D02*
Y-387500D01*
X-37500Y-425000D02*
Y-387500D01*
X-82898Y-425000D02*
Y-387500D01*
X-132500Y-410000D02*
Y-387500D01*
X-167500Y-425000D02*
Y-387500D01*
X-212898Y-425000D02*
Y-387500D01*
X-245000Y-410000D02*
Y-387500D01*
X-262500Y-410000D02*
Y-387500D01*
X255000D02*
Y-365000D01*
X145000Y-387500D02*
Y-365000D01*
X135000Y-425000D02*
Y-410000D01*
X125000Y-387500D02*
Y-365000D01*
X15000Y-387500D02*
Y-365000D01*
X-5000Y-387500D02*
Y-365000D01*
X5000Y-425000D02*
Y-410000D01*
X-125000Y-425000D02*
Y-410000D01*
X-245000Y-387500D02*
Y-365000D01*
X-255000Y-425000D02*
Y-410000D01*
X222500Y-387500D02*
X222687D01*
X145000Y-410000D02*
X145023D01*
X92500Y-387500D02*
X92687D01*
X15000Y-410000D02*
X15023D01*
X-2500D02*
X5000D01*
X-37500Y-387500D02*
X-37313D01*
X-132500Y-410000D02*
X-125000D01*
X-167500Y-387500D02*
X-167313D01*
X-245000Y-410000D02*
X-244977D01*
X-773497Y-74359D02*
X-750997D01*
X-773497Y-56859D02*
X-750997D01*
X-773497Y-106840D02*
X-750997D01*
X-773497Y-152238D02*
X-750997D01*
X-773497Y-184738D02*
X-750997D01*
X-773497Y-234356D02*
X-750997D01*
X-773497Y-251856D02*
X-750997D01*
X-773497Y-284337D02*
X-750997D01*
X-773497Y-329735D02*
X-750997D01*
X-773497Y-362235D02*
X-750997D01*
Y-361856D02*
Y-251856D01*
X-773497Y-361856D02*
Y-241856D01*
X-750997Y-184359D02*
Y-74359D01*
Y-56859D01*
X-773497Y-184359D02*
Y-64359D01*
X-750997Y-251856D02*
Y-234356D01*
X-773497Y-74382D02*
Y-74359D01*
Y-241856D02*
Y-234356D01*
X-750997Y-152046D02*
Y-151859D01*
Y-329543D02*
Y-329356D01*
X-773497Y-64359D02*
Y-56859D01*
Y-251879D02*
Y-251856D01*
X-465000Y382500D02*
X-410000D01*
X-465000Y362697D02*
X-410000D01*
X-465000Y341383D02*
X-410000D01*
X-465000Y320000D02*
X-410000D01*
X-465000Y242500D02*
X-410000D01*
X-465000Y222697D02*
X-410000D01*
X-465000Y201383D02*
X-410000D01*
X-465000Y180000D02*
X-410000D01*
Y320000D02*
Y382500D01*
X-465000Y320000D02*
Y382500D01*
X-410000Y180000D02*
Y242500D01*
X-465000Y180000D02*
Y242500D01*
X-868500Y282500D02*
X-773500D01*
X-868500D02*
Y402500D01*
X-773500D01*
Y282500D02*
Y402500D01*
X-868500Y152500D02*
X-773500D01*
X-868500D02*
Y272500D01*
X-773500D01*
Y152500D02*
Y272500D01*
X-695498Y91000D02*
Y99000D01*
X-719498Y91000D02*
Y99000D01*
X-735498Y91000D02*
Y99000D01*
X-759498Y91000D02*
Y99000D01*
X-695498Y-9000D02*
Y-1000D01*
X-719498Y-9000D02*
Y-1000D01*
X-735498Y-9000D02*
Y-1000D01*
X-759498Y-9000D02*
Y-1000D01*
X-868497Y-192502D02*
X-773497D01*
X-868497D02*
Y-72502D01*
X-773497D01*
Y-192502D02*
Y-72502D01*
X-868497Y-369999D02*
X-773497D01*
X-868497D02*
Y-249999D01*
X-773497D01*
Y-369999D02*
Y-249999D01*
X-744997Y-304998D02*
X-644997D01*
Y-254998D01*
X-744997Y-304998D02*
Y-254998D01*
X-644997D01*
X-744997Y-366996D02*
X-644997D01*
Y-316996D01*
X-744997Y-366996D02*
Y-316996D01*
X-644997D01*
X432500Y50000D02*
X527500D01*
Y-70000D02*
Y50000D01*
X432500Y-70000D02*
X527500D01*
X432500D02*
Y50000D01*
X-4797Y-519926D02*
Y-424926D01*
X-124797Y-519926D02*
X-4797D01*
X-124797D02*
Y-424926D01*
X-4797D01*
X125202Y-519926D02*
Y-424926D01*
X5202Y-519926D02*
X125202D01*
X5202D02*
Y-424926D01*
X125202D01*
X-134798Y-519926D02*
Y-424926D01*
X-254798Y-519926D02*
X-134798D01*
X-254798D02*
Y-424926D01*
X-134798D01*
X255203Y-519926D02*
Y-424926D01*
X135203Y-519926D02*
X255203D01*
X135203D02*
Y-424926D01*
X255203D01*
X-568000Y381000D02*
X-558000D01*
Y372000D02*
Y381000D01*
Y349000D02*
Y358000D01*
X-568000Y349000D02*
X-558000D01*
X-535500Y334002D02*
Y342002D01*
X-511500Y334002D02*
Y342002D01*
X-514500Y296998D02*
X-506500D01*
X-514500Y311998D02*
X-506500D01*
X-608000Y228000D02*
Y262000D01*
X-542000Y228000D02*
Y262000D01*
X-608000Y228000D02*
X-542000D01*
X-608000Y262000D02*
X-542000D01*
X-685997Y-14500D02*
Y4500D01*
X-651998D01*
X-682998Y-14500D02*
Y4500D01*
X-685997Y-14500D02*
X-651998D01*
Y4500D01*
X-594000Y-212999D02*
X-506000D01*
X-594000Y-196999D02*
X-506000D01*
X-594000Y-212999D02*
Y-196999D01*
X-506000Y-212999D02*
Y-196999D01*
X-434000Y-82500D02*
X-426000D01*
X-434000Y-97500D02*
X-426000D01*
X-404500Y-216500D02*
Y-193500D01*
X-435500Y-216500D02*
Y-193500D01*
X-404500D01*
X-435500Y-216500D02*
X-404500D01*
X-499000Y-352676D02*
X-491000D01*
X-499000Y-376676D02*
X-491000D01*
X-682497Y-240899D02*
X-656497D01*
X-682497D02*
Y-230899D01*
Y-194899D02*
X-656497D01*
X-682497Y-204899D02*
Y-194899D01*
Y-424898D02*
X-656497D01*
X-682497D02*
Y-414898D01*
Y-378898D02*
X-656497D01*
X-682497Y-388898D02*
Y-378898D01*
X159000Y237500D02*
X226000D01*
X159000Y262500D02*
X226000D01*
X159000Y237500D02*
Y262500D01*
X226000Y237500D02*
Y262500D01*
X158498Y130000D02*
X225498D01*
X158498Y155000D02*
X225498D01*
X158498Y130000D02*
Y155000D01*
X225498Y130000D02*
Y155000D01*
X-255498Y67798D02*
X-137498D01*
X-255498Y7798D02*
X-137498D01*
Y67798D01*
X-255498Y7798D02*
Y67798D01*
X-377850Y-406000D02*
X-327850D01*
X-377850Y-390000D02*
X-327850D01*
X-377850Y-406000D02*
Y-390000D01*
X-327850Y-406000D02*
Y-390000D01*
X-685997Y85500D02*
Y104500D01*
X-651998D01*
X-682998Y85500D02*
Y104500D01*
X-685997Y85500D02*
X-651998D01*
Y104500D01*
X281000Y286998D02*
Y296998D01*
X290000D01*
X304000D02*
X313000D01*
Y286998D02*
Y296998D01*
X280998Y179500D02*
Y189500D01*
X289998D01*
X303998D02*
X312998D01*
Y179500D02*
Y189500D01*
X-537500Y-383676D02*
Y-375676D01*
X-522500Y-383676D02*
Y-375676D01*
D15*
X-510000Y-247500D02*
X-472500D01*
X-510000Y-300000D02*
X-475000D01*
X-510000D02*
Y-282500D01*
X-475000Y-305000D02*
Y-300000D01*
X-510000Y-250000D02*
Y-247500D01*
D16*
X41998Y155000D02*
Y255000D01*
X111998D01*
Y155000D02*
Y255000D01*
X41998Y155000D02*
X111998D01*
X-274798Y-343926D02*
X-144798D01*
Y-53926D01*
X-274798D02*
X-144798D01*
X-274798Y-343926D02*
Y-53926D01*
X-134798Y-343926D02*
X-4798D01*
Y-53926D01*
X-134798D02*
X-4798D01*
X-134798Y-343926D02*
Y-53926D01*
X5202Y-343926D02*
X135202D01*
Y-53926D01*
X5202D02*
X135202D01*
X5202Y-343926D02*
Y-53926D01*
X145202Y-343926D02*
X275202D01*
Y-53926D01*
X145202D02*
X275202D01*
X145202Y-343926D02*
Y-53926D01*
X234498Y222500D02*
Y277500D01*
Y222500D02*
X236998D01*
X234498Y277500D02*
X236998D01*
X271998Y222500D02*
X274498D01*
X271998Y277500D02*
X274498D01*
Y222500D02*
Y277500D01*
X234498Y115000D02*
Y170000D01*
Y115000D02*
X236998D01*
X234498Y170000D02*
X236998D01*
X271998Y115000D02*
X274498D01*
X271998Y170000D02*
X274498D01*
Y115000D02*
Y170000D01*
X400503Y-55000D02*
X412500D01*
X403359Y-51915D02*
X402788D01*
X401645Y-51344D01*
X401074Y-50772D01*
X400503Y-49630D01*
Y-47344D01*
X401074Y-46202D01*
X401645Y-45631D01*
X402788Y-45059D01*
X403930D01*
X405073Y-45631D01*
X406787Y-46773D01*
X412500Y-52486D01*
Y-44488D01*
X402216Y-36661D02*
X412500D01*
X407358Y-41803D02*
Y-31519D01*
X400503Y-18551D02*
X412500D01*
X400503Y-14894D02*
Y-8610D01*
X405073Y-12038D01*
Y-10324D01*
X405644Y-9181D01*
X406216Y-8610D01*
X407929Y-8039D01*
X409072D01*
X410786Y-8610D01*
X411929Y-9753D01*
X412500Y-11466D01*
Y-13180D01*
X411929Y-14894D01*
X411357Y-15466D01*
X410215Y-16037D01*
X402216Y-212D02*
X412500D01*
X407358Y-5354D02*
Y4930D01*
X403359Y26468D02*
X402216Y25897D01*
X401074Y24754D01*
X400503Y23612D01*
Y21326D01*
X401074Y20184D01*
X402216Y19041D01*
X403359Y18470D01*
X405073Y17899D01*
X407929D01*
X409644Y18470D01*
X410786Y19041D01*
X411929Y20184D01*
X412500Y21326D01*
Y23612D01*
X411929Y24754D01*
X410786Y25897D01*
X409644Y26468D01*
X407929D01*
Y23612D02*
Y26468D01*
X400503Y29211D02*
X412500D01*
X400503D02*
X412500Y37209D01*
X400503D02*
X412500D01*
X400503Y40522D02*
X412500D01*
X400503D02*
Y44521D01*
X401074Y46235D01*
X402216Y47378D01*
X403359Y47949D01*
X405073Y48521D01*
X407929D01*
X409644Y47949D01*
X410786Y47378D01*
X411929Y46235D01*
X412500Y44521D01*
Y40522D01*
X-450859Y347500D02*
X-455429Y359497D01*
X-460000Y347500D01*
X-458286Y351499D02*
X-452573D01*
X-448060Y359497D02*
Y347500D01*
Y359497D02*
X-444061D01*
X-442347Y358926D01*
X-441204Y357784D01*
X-440633Y356641D01*
X-440061Y354927D01*
Y352070D01*
X-440633Y350356D01*
X-441204Y349214D01*
X-442347Y348071D01*
X-444061Y347500D01*
X-448060D01*
X-428807Y356641D02*
X-429378Y357784D01*
X-430521Y358926D01*
X-431663Y359497D01*
X-433948D01*
X-435091Y358926D01*
X-436234Y357784D01*
X-436805Y356641D01*
X-437376Y354927D01*
Y352070D01*
X-436805Y350356D01*
X-436234Y349214D01*
X-435091Y348071D01*
X-433948Y347500D01*
X-431663D01*
X-430521Y348071D01*
X-429378Y349214D01*
X-428807Y350356D01*
X-425436Y357212D02*
X-424293Y357784D01*
X-422579Y359497D01*
Y347500D01*
X-450859Y367500D02*
X-455429Y379497D01*
X-460000Y367500D01*
X-458286Y371499D02*
X-452573D01*
X-448060Y379497D02*
Y367500D01*
Y379497D02*
X-444061D01*
X-442347Y378926D01*
X-441204Y377784D01*
X-440633Y376641D01*
X-440061Y374927D01*
Y372071D01*
X-440633Y370356D01*
X-441204Y369214D01*
X-442347Y368071D01*
X-444061Y367500D01*
X-448060D01*
X-428807Y376641D02*
X-429378Y377784D01*
X-430521Y378926D01*
X-431663Y379497D01*
X-433948D01*
X-435091Y378926D01*
X-436234Y377784D01*
X-436805Y376641D01*
X-437376Y374927D01*
Y372071D01*
X-436805Y370356D01*
X-436234Y369214D01*
X-435091Y368071D01*
X-433948Y367500D01*
X-431663D01*
X-430521Y368071D01*
X-429378Y369214D01*
X-428807Y370356D01*
X-422008Y379497D02*
X-423722Y378926D01*
X-424865Y377212D01*
X-425436Y374356D01*
Y372642D01*
X-424865Y369785D01*
X-423722Y368071D01*
X-422008Y367500D01*
X-420866D01*
X-419152Y368071D01*
X-418009Y369785D01*
X-417438Y372642D01*
Y374356D01*
X-418009Y377212D01*
X-419152Y378926D01*
X-420866Y379497D01*
X-422008D01*
X-457383Y387500D02*
X-461191Y397498D01*
X-465000Y387500D01*
X-463572Y390833D02*
X-458811D01*
X-455050Y397498D02*
Y387500D01*
Y397498D02*
X-451717D01*
X-450289Y397022D01*
X-449337Y396070D01*
X-448861Y395117D01*
X-448385Y393689D01*
Y391309D01*
X-448861Y389880D01*
X-449337Y388928D01*
X-450289Y387976D01*
X-451717Y387500D01*
X-455050D01*
X-439006Y395117D02*
X-439482Y396070D01*
X-440434Y397022D01*
X-441386Y397498D01*
X-443290D01*
X-444243Y397022D01*
X-445195Y396070D01*
X-445671Y395117D01*
X-446147Y393689D01*
Y391309D01*
X-445671Y389880D01*
X-445195Y388928D01*
X-444243Y387976D01*
X-443290Y387500D01*
X-441386D01*
X-440434Y387976D01*
X-439482Y388928D01*
X-439006Y389880D01*
X-433340Y397498D02*
X-434768Y397022D01*
X-435721Y395593D01*
X-436197Y393213D01*
Y391785D01*
X-435721Y389404D01*
X-434768Y387976D01*
X-433340Y387500D01*
X-432388D01*
X-430960Y387976D01*
X-430008Y389404D01*
X-429531Y391785D01*
Y393213D01*
X-430008Y395593D01*
X-430960Y397022D01*
X-432388Y397498D01*
X-433340D01*
X-427294Y391785D02*
X-418724D01*
X-415773Y395593D02*
X-414820Y396070D01*
X-413392Y397498D01*
Y387500D01*
X-451430Y334141D02*
X-452002Y335284D01*
X-453144Y336426D01*
X-454287Y336997D01*
X-456572D01*
X-457715Y336426D01*
X-458857Y335284D01*
X-459429Y334141D01*
X-460000Y332427D01*
Y329571D01*
X-459429Y327856D01*
X-458857Y326714D01*
X-457715Y325571D01*
X-456572Y325000D01*
X-454287D01*
X-453144Y325571D01*
X-452002Y326714D01*
X-451430Y327856D01*
Y329571D01*
X-454287D02*
X-451430D01*
X-448688Y336997D02*
Y325000D01*
Y336997D02*
X-440690Y325000D01*
Y336997D02*
Y325000D01*
X-437376Y336997D02*
Y325000D01*
Y336997D02*
X-433377D01*
X-431663Y336426D01*
X-430521Y335284D01*
X-429949Y334141D01*
X-429378Y332427D01*
Y329571D01*
X-429949Y327856D01*
X-430521Y326714D01*
X-431663Y325571D01*
X-433377Y325000D01*
X-437376D01*
X-450859Y227500D02*
X-455429Y239497D01*
X-460000Y227500D01*
X-458286Y231499D02*
X-452573D01*
X-448060Y239497D02*
Y227500D01*
Y239497D02*
X-444061D01*
X-442347Y238926D01*
X-441204Y237784D01*
X-440633Y236641D01*
X-440061Y234927D01*
Y232071D01*
X-440633Y230357D01*
X-441204Y229214D01*
X-442347Y228071D01*
X-444061Y227500D01*
X-448060D01*
X-428807Y236641D02*
X-429378Y237784D01*
X-430521Y238926D01*
X-431663Y239497D01*
X-433948D01*
X-435091Y238926D01*
X-436234Y237784D01*
X-436805Y236641D01*
X-437376Y234927D01*
Y232071D01*
X-436805Y230357D01*
X-436234Y229214D01*
X-435091Y228071D01*
X-433948Y227500D01*
X-431663D01*
X-430521Y228071D01*
X-429378Y229214D01*
X-428807Y230357D01*
X-424865Y236641D02*
Y237212D01*
X-424293Y238355D01*
X-423722Y238926D01*
X-422579Y239497D01*
X-420294D01*
X-419152Y238926D01*
X-418580Y238355D01*
X-418009Y237212D01*
Y236070D01*
X-418580Y234927D01*
X-419723Y233213D01*
X-425436Y227500D01*
X-417438D01*
X-450859Y205000D02*
X-455429Y216997D01*
X-460000Y205000D01*
X-458286Y208999D02*
X-452573D01*
X-448060Y216997D02*
Y205000D01*
Y216997D02*
X-444061D01*
X-442347Y216426D01*
X-441204Y215284D01*
X-440633Y214141D01*
X-440061Y212427D01*
Y209570D01*
X-440633Y207857D01*
X-441204Y206714D01*
X-442347Y205571D01*
X-444061Y205000D01*
X-448060D01*
X-428807Y214141D02*
X-429378Y215284D01*
X-430521Y216426D01*
X-431663Y216997D01*
X-433948D01*
X-435091Y216426D01*
X-436234Y215284D01*
X-436805Y214141D01*
X-437376Y212427D01*
Y209570D01*
X-436805Y207857D01*
X-436234Y206714D01*
X-435091Y205571D01*
X-433948Y205000D01*
X-431663D01*
X-430521Y205571D01*
X-429378Y206714D01*
X-428807Y207857D01*
X-424293Y216997D02*
X-418009D01*
X-421437Y212427D01*
X-419723D01*
X-418580Y211856D01*
X-418009Y211284D01*
X-417438Y209570D01*
Y208428D01*
X-418009Y206714D01*
X-419152Y205571D01*
X-420866Y205000D01*
X-422579D01*
X-424293Y205571D01*
X-424865Y206143D01*
X-425436Y207285D01*
X-451430Y194141D02*
X-452002Y195284D01*
X-453144Y196426D01*
X-454287Y196997D01*
X-456572D01*
X-457715Y196426D01*
X-458857Y195284D01*
X-459429Y194141D01*
X-460000Y192427D01*
Y189571D01*
X-459429Y187857D01*
X-458857Y186714D01*
X-457715Y185571D01*
X-456572Y185000D01*
X-454287D01*
X-453144Y185571D01*
X-452002Y186714D01*
X-451430Y187857D01*
Y189571D01*
X-454287D02*
X-451430D01*
X-448688Y196997D02*
Y185000D01*
Y196997D02*
X-440690Y185000D01*
Y196997D02*
Y185000D01*
X-437376Y196997D02*
Y185000D01*
Y196997D02*
X-433377D01*
X-431663Y196426D01*
X-430521Y195284D01*
X-429949Y194141D01*
X-429378Y192427D01*
Y189571D01*
X-429949Y187857D01*
X-430521Y186714D01*
X-431663Y185571D01*
X-433377Y185000D01*
X-437376D01*
X-457383Y247500D02*
X-461191Y257498D01*
X-465000Y247500D01*
X-463572Y250833D02*
X-458811D01*
X-455050Y257498D02*
Y247500D01*
Y257498D02*
X-451717D01*
X-450289Y257022D01*
X-449337Y256070D01*
X-448861Y255117D01*
X-448385Y253689D01*
Y251309D01*
X-448861Y249880D01*
X-449337Y248928D01*
X-450289Y247976D01*
X-451717Y247500D01*
X-455050D01*
X-439006Y255117D02*
X-439482Y256070D01*
X-440434Y257022D01*
X-441386Y257498D01*
X-443290D01*
X-444243Y257022D01*
X-445195Y256070D01*
X-445671Y255117D01*
X-446147Y253689D01*
Y251309D01*
X-445671Y249880D01*
X-445195Y248928D01*
X-444243Y247976D01*
X-443290Y247500D01*
X-441386D01*
X-440434Y247976D01*
X-439482Y248928D01*
X-439006Y249880D01*
X-435721Y255117D02*
Y255593D01*
X-435244Y256546D01*
X-434768Y257022D01*
X-433816Y257498D01*
X-431912D01*
X-430960Y257022D01*
X-430484Y256546D01*
X-430008Y255593D01*
Y254641D01*
X-430484Y253689D01*
X-431436Y252261D01*
X-436197Y247500D01*
X-429531D01*
X-427294Y251785D02*
X-418724D01*
X-414820Y257498D02*
X-409583D01*
X-412440Y253689D01*
X-411012D01*
X-410059Y253213D01*
X-409583Y252737D01*
X-409107Y251309D01*
Y250357D01*
X-409583Y248928D01*
X-410536Y247976D01*
X-411964Y247500D01*
X-413392D01*
X-414820Y247976D01*
X-415296Y248452D01*
X-415773Y249404D01*
X-845000Y-202502D02*
X-841191Y-212500D01*
X-837383Y-202502D02*
X-841191Y-212500D01*
X-833241Y-202502D02*
X-834193Y-202978D01*
X-835145Y-203930D01*
X-835621Y-204883D01*
X-836097Y-206311D01*
Y-208691D01*
X-835621Y-210120D01*
X-835145Y-211072D01*
X-834193Y-212024D01*
X-833241Y-212500D01*
X-831336D01*
X-830384Y-212024D01*
X-829432Y-211072D01*
X-828956Y-210120D01*
X-828480Y-208691D01*
Y-206311D01*
X-828956Y-204883D01*
X-829432Y-203930D01*
X-830384Y-202978D01*
X-831336Y-202502D01*
X-833241D01*
X-826147D02*
Y-212500D01*
X-820434D01*
X-816006Y-202502D02*
Y-212500D01*
X-819339Y-202502D02*
X-812674D01*
X-811483Y-215833D02*
X-803866D01*
X-802580Y-202502D02*
Y-212500D01*
Y-202502D02*
X-799248D01*
X-797820Y-202978D01*
X-796868Y-203930D01*
X-796391Y-204883D01*
X-795915Y-206311D01*
Y-208691D01*
X-796391Y-210120D01*
X-796868Y-211072D01*
X-797820Y-212024D01*
X-799248Y-212500D01*
X-802580D01*
X-786060D02*
X-789869Y-202502D01*
X-793678Y-212500D01*
X-792249Y-209167D02*
X-787488D01*
X-776586Y-204883D02*
X-777062Y-203930D01*
X-778014Y-202978D01*
X-778967Y-202502D01*
X-780871D01*
X-781823Y-202978D01*
X-782775Y-203930D01*
X-783251Y-204883D01*
X-783727Y-206311D01*
Y-208691D01*
X-783251Y-210120D01*
X-782775Y-211072D01*
X-781823Y-212024D01*
X-780871Y-212500D01*
X-778967D01*
X-778014Y-212024D01*
X-777062Y-211072D01*
X-776586Y-210120D01*
X-840359Y-382383D02*
X-840835Y-381430D01*
X-841787Y-380478D01*
X-842739Y-380002D01*
X-844643D01*
X-845596Y-380478D01*
X-846548Y-381430D01*
X-847024Y-382383D01*
X-847500Y-383811D01*
Y-386191D01*
X-847024Y-387620D01*
X-846548Y-388572D01*
X-845596Y-389524D01*
X-844643Y-390000D01*
X-842739D01*
X-841787Y-389524D01*
X-840835Y-388572D01*
X-840359Y-387620D01*
X-837550Y-380002D02*
Y-387144D01*
X-837074Y-388572D01*
X-836122Y-389524D01*
X-834693Y-390000D01*
X-833741D01*
X-832313Y-389524D01*
X-831361Y-388572D01*
X-830884Y-387144D01*
Y-380002D01*
X-828123D02*
Y-390000D01*
Y-380002D02*
X-823838D01*
X-822410Y-380478D01*
X-821934Y-380954D01*
X-821458Y-381907D01*
Y-382859D01*
X-821934Y-383811D01*
X-822410Y-384287D01*
X-823838Y-384763D01*
X-828123D01*
X-824791D02*
X-821458Y-390000D01*
X-819220Y-380002D02*
Y-390000D01*
Y-380002D02*
X-814936D01*
X-813507Y-380478D01*
X-813031Y-380954D01*
X-812555Y-381907D01*
Y-382859D01*
X-813031Y-383811D01*
X-813507Y-384287D01*
X-814936Y-384763D01*
X-819220D01*
X-815888D02*
X-812555Y-390000D01*
X-810318Y-393333D02*
X-802700D01*
X-801415Y-380002D02*
Y-390000D01*
Y-380002D02*
X-798082D01*
X-796654Y-380478D01*
X-795702Y-381430D01*
X-795226Y-382383D01*
X-794749Y-383811D01*
Y-386191D01*
X-795226Y-387620D01*
X-795702Y-388572D01*
X-796654Y-389524D01*
X-798082Y-390000D01*
X-801415D01*
X-784894D02*
X-788703Y-380002D01*
X-792512Y-390000D01*
X-791084Y-386667D02*
X-786323D01*
X-775420Y-382383D02*
X-775896Y-381430D01*
X-776849Y-380478D01*
X-777801Y-380002D01*
X-779705D01*
X-780657Y-380478D01*
X-781609Y-381430D01*
X-782085Y-382383D01*
X-782562Y-383811D01*
Y-386191D01*
X-782085Y-387620D01*
X-781609Y-388572D01*
X-780657Y-389524D01*
X-779705Y-390000D01*
X-777801D01*
X-776849Y-389524D01*
X-775896Y-388572D01*
X-775420Y-387620D01*
X435356Y-77502D02*
X434404Y-77978D01*
X433452Y-78930D01*
X432976Y-79883D01*
X432500Y-81311D01*
Y-83691D01*
X432976Y-85120D01*
X433452Y-86072D01*
X434404Y-87024D01*
X435356Y-87500D01*
X437261D01*
X438213Y-87024D01*
X439165Y-86072D01*
X439641Y-85120D01*
X440117Y-83691D01*
Y-81311D01*
X439641Y-79883D01*
X439165Y-78930D01*
X438213Y-77978D01*
X437261Y-77502D01*
X435356D01*
X442450D02*
Y-84643D01*
X442926Y-86072D01*
X443879Y-87024D01*
X445307Y-87500D01*
X446259D01*
X447687Y-87024D01*
X448639Y-86072D01*
X449115Y-84643D01*
Y-77502D01*
X455209D02*
Y-87500D01*
X451877Y-77502D02*
X458542D01*
X460208Y-79883D02*
Y-79406D01*
X460684Y-78454D01*
X461161Y-77978D01*
X462113Y-77502D01*
X464017D01*
X464969Y-77978D01*
X465445Y-78454D01*
X465921Y-79406D01*
Y-80359D01*
X465445Y-81311D01*
X464493Y-82739D01*
X459732Y-87500D01*
X466398D01*
X468635Y-83215D02*
X477205D01*
X481109Y-77502D02*
X486346D01*
X483489Y-81311D01*
X484917D01*
X485869Y-81787D01*
X486346Y-82263D01*
X486822Y-83691D01*
Y-84643D01*
X486346Y-86072D01*
X485393Y-87024D01*
X483965Y-87500D01*
X482537D01*
X481109Y-87024D01*
X480633Y-86548D01*
X480156Y-85596D01*
X-810359Y47617D02*
X-810835Y48570D01*
X-811787Y49522D01*
X-812739Y49998D01*
X-814643D01*
X-815596Y49522D01*
X-816548Y48570D01*
X-817024Y47617D01*
X-817500Y46189D01*
Y43809D01*
X-817024Y42380D01*
X-816548Y41428D01*
X-815596Y40476D01*
X-814643Y40000D01*
X-812739D01*
X-811787Y40476D01*
X-810835Y41428D01*
X-810359Y42380D01*
X-807550Y49998D02*
Y42856D01*
X-807074Y41428D01*
X-806122Y40476D01*
X-804693Y40000D01*
X-803741D01*
X-802313Y40476D01*
X-801361Y41428D01*
X-800884Y42856D01*
Y49998D01*
X-798123D02*
Y40000D01*
Y49998D02*
X-793838D01*
X-792410Y49522D01*
X-791934Y49046D01*
X-791458Y48094D01*
Y47141D01*
X-791934Y46189D01*
X-792410Y45713D01*
X-793838Y45237D01*
X-798123D01*
X-794791D02*
X-791458Y40000D01*
X-789220Y49998D02*
Y40000D01*
Y49998D02*
X-784936D01*
X-783507Y49522D01*
X-783031Y49046D01*
X-782555Y48094D01*
Y47141D01*
X-783031Y46189D01*
X-783507Y45713D01*
X-784936Y45237D01*
X-789220D01*
X-785888D02*
X-782555Y40000D01*
X-780318Y48094D02*
X-779365Y48570D01*
X-777937Y49998D01*
Y40000D01*
X-815359Y-59883D02*
X-815835Y-58930D01*
X-816787Y-57978D01*
X-817739Y-57502D01*
X-819643D01*
X-820596Y-57978D01*
X-821548Y-58930D01*
X-822024Y-59883D01*
X-822500Y-61311D01*
Y-63691D01*
X-822024Y-65120D01*
X-821548Y-66072D01*
X-820596Y-67024D01*
X-819643Y-67500D01*
X-817739D01*
X-816787Y-67024D01*
X-815835Y-66072D01*
X-815359Y-65120D01*
X-812550Y-57502D02*
Y-64644D01*
X-812074Y-66072D01*
X-811122Y-67024D01*
X-809693Y-67500D01*
X-808741D01*
X-807313Y-67024D01*
X-806361Y-66072D01*
X-805884Y-64644D01*
Y-57502D01*
X-803123D02*
Y-67500D01*
Y-57502D02*
X-798838D01*
X-797410Y-57978D01*
X-796934Y-58454D01*
X-796458Y-59406D01*
Y-60359D01*
X-796934Y-61311D01*
X-797410Y-61787D01*
X-798838Y-62263D01*
X-803123D01*
X-799791D02*
X-796458Y-67500D01*
X-794220Y-57502D02*
Y-67500D01*
Y-57502D02*
X-789936D01*
X-788507Y-57978D01*
X-788031Y-58454D01*
X-787555Y-59406D01*
Y-60359D01*
X-788031Y-61311D01*
X-788507Y-61787D01*
X-789936Y-62263D01*
X-794220D01*
X-790888D02*
X-787555Y-67500D01*
X-782461Y-57502D02*
X-783889Y-57978D01*
X-784841Y-59406D01*
X-785318Y-61787D01*
Y-63215D01*
X-784841Y-65596D01*
X-783889Y-67024D01*
X-782461Y-67500D01*
X-781509D01*
X-780080Y-67024D01*
X-779128Y-65596D01*
X-778652Y-63215D01*
Y-61787D01*
X-779128Y-59406D01*
X-780080Y-57978D01*
X-781509Y-57502D01*
X-782461D01*
X-759883Y145000D02*
X-763691Y154998D01*
X-767500Y145000D01*
X-766072Y148333D02*
X-761311D01*
X-757550Y154998D02*
Y145000D01*
Y154998D02*
X-754217D01*
X-752789Y154522D01*
X-751837Y153570D01*
X-751361Y152617D01*
X-750884Y151189D01*
Y148809D01*
X-751361Y147380D01*
X-751837Y146428D01*
X-752789Y145476D01*
X-754217Y145000D01*
X-757550D01*
X-741506Y152617D02*
X-741982Y153570D01*
X-742934Y154522D01*
X-743886Y154998D01*
X-745790D01*
X-746742Y154522D01*
X-747695Y153570D01*
X-748171Y152617D01*
X-748647Y151189D01*
Y148809D01*
X-748171Y147380D01*
X-747695Y146428D01*
X-746742Y145476D01*
X-745790Y145000D01*
X-743886D01*
X-742934Y145476D01*
X-741982Y146428D01*
X-741506Y147380D01*
X-738221Y152617D02*
Y153094D01*
X-737745Y154046D01*
X-737268Y154522D01*
X-736316Y154998D01*
X-734412D01*
X-733460Y154522D01*
X-732984Y154046D01*
X-732507Y153094D01*
Y152141D01*
X-732984Y151189D01*
X-733936Y149761D01*
X-738697Y145000D01*
X-732031D01*
X-729794Y149285D02*
X-721224D01*
X-717320Y154998D02*
X-712083D01*
X-714940Y151189D01*
X-713512D01*
X-712559Y150713D01*
X-712083Y150237D01*
X-711607Y148809D01*
Y147857D01*
X-712083Y146428D01*
X-713036Y145476D01*
X-714464Y145000D01*
X-715892D01*
X-717320Y145476D01*
X-717796Y145952D01*
X-718272Y146904D01*
X-779883Y412500D02*
X-783691Y422498D01*
X-787500Y412500D01*
X-786072Y415833D02*
X-781311D01*
X-777550Y422498D02*
Y412500D01*
Y422498D02*
X-774217D01*
X-772789Y422022D01*
X-771837Y421070D01*
X-771361Y420117D01*
X-770884Y418689D01*
Y416309D01*
X-771361Y414880D01*
X-771837Y413928D01*
X-772789Y412976D01*
X-774217Y412500D01*
X-777550D01*
X-761506Y420117D02*
X-761982Y421070D01*
X-762934Y422022D01*
X-763886Y422498D01*
X-765790D01*
X-766742Y422022D01*
X-767695Y421070D01*
X-768171Y420117D01*
X-768647Y418689D01*
Y416309D01*
X-768171Y414880D01*
X-767695Y413928D01*
X-766742Y412976D01*
X-765790Y412500D01*
X-763886D01*
X-762934Y412976D01*
X-761982Y413928D01*
X-761506Y414880D01*
X-755840Y422498D02*
X-757268Y422022D01*
X-758221Y420593D01*
X-758697Y418213D01*
Y416785D01*
X-758221Y414404D01*
X-757268Y412976D01*
X-755840Y412500D01*
X-754888D01*
X-753460Y412976D01*
X-752507Y414404D01*
X-752031Y416785D01*
Y418213D01*
X-752507Y420593D01*
X-753460Y422022D01*
X-754888Y422498D01*
X-755840D01*
X-749794Y416785D02*
X-741224D01*
X-738272Y420593D02*
X-737320Y421070D01*
X-735892Y422498D01*
Y412500D01*
D17*
X239498Y207500D02*
X269498D01*
X239498Y100000D02*
X269498D01*
D18*
X-214738Y234048D02*
Y214052D01*
X-204835Y234048D02*
X-206740Y233096D01*
X-208644Y231191D01*
X-209596Y229287D01*
X-210548Y226430D01*
Y221670D01*
X-209596Y218813D01*
X-208644Y216909D01*
X-206740Y215004D01*
X-204835Y214052D01*
X-201027D01*
X-199122Y215004D01*
X-197218Y216909D01*
X-196266Y218813D01*
X-195314Y221670D01*
Y226430D01*
X-196266Y229287D01*
X-197218Y231191D01*
X-199122Y233096D01*
X-201027Y234048D01*
X-204835D01*
X-161607Y231191D02*
X-163511Y233096D01*
X-166367Y234048D01*
X-170176D01*
X-173033Y233096D01*
X-174937Y231191D01*
Y229287D01*
X-173985Y227383D01*
X-173033Y226430D01*
X-171128Y225478D01*
X-165415Y223574D01*
X-163511Y222622D01*
X-162559Y221670D01*
X-161607Y219765D01*
Y216909D01*
X-163511Y215004D01*
X-166367Y214052D01*
X-170176D01*
X-173033Y215004D01*
X-174937Y216909D01*
X-157131Y234048D02*
Y214052D01*
Y223574D02*
X-154275Y226430D01*
X-152370Y227383D01*
X-149514D01*
X-147610Y226430D01*
X-146657Y223574D01*
Y214052D01*
X-139516Y234048D02*
X-138564Y233096D01*
X-137612Y234048D01*
X-138564Y235000D01*
X-139516Y234048D01*
X-138564Y227383D02*
Y214052D01*
X-134089Y221670D02*
X-122662D01*
Y223574D01*
X-123615Y225478D01*
X-124567Y226430D01*
X-126471Y227383D01*
X-129328D01*
X-131232Y226430D01*
X-133137Y224526D01*
X-134089Y221670D01*
Y219765D01*
X-133137Y216909D01*
X-131232Y215004D01*
X-129328Y214052D01*
X-126471D01*
X-124567Y215004D01*
X-122662Y216909D01*
X-118378Y234048D02*
Y214052D01*
X-102762Y234048D02*
Y214052D01*
Y224526D02*
X-104666Y226430D01*
X-106571Y227383D01*
X-109427D01*
X-111332Y226430D01*
X-113236Y224526D01*
X-114188Y221670D01*
Y219765D01*
X-113236Y216909D01*
X-111332Y215004D01*
X-109427Y214052D01*
X-106571D01*
X-104666Y215004D01*
X-102762Y216909D01*
X-221022Y187579D02*
X-212453D01*
X-209596Y188531D01*
X-208644Y189483D01*
X-207692Y191388D01*
Y194244D01*
X-208644Y196149D01*
X-209596Y197101D01*
X-212453Y198053D01*
X-221022D01*
Y178057D01*
X-203217Y191388D02*
Y178057D01*
Y185675D02*
X-202264Y188531D01*
X-200360Y190436D01*
X-198456Y191388D01*
X-195599D01*
X-189029D02*
X-190934Y190436D01*
X-192838Y188531D01*
X-193790Y185675D01*
Y183770D01*
X-192838Y180914D01*
X-190934Y179009D01*
X-189029Y178057D01*
X-186173D01*
X-184268Y179009D01*
X-182364Y180914D01*
X-181412Y183770D01*
Y185675D01*
X-182364Y188531D01*
X-184268Y190436D01*
X-186173Y191388D01*
X-189029D01*
X-174175Y198053D02*
Y181866D01*
X-173223Y179009D01*
X-171319Y178057D01*
X-169414D01*
X-177032Y191388D02*
X-170367D01*
X-161797D02*
X-163701Y190436D01*
X-165606Y188531D01*
X-166558Y185675D01*
Y183770D01*
X-165606Y180914D01*
X-163701Y179009D01*
X-161797Y178057D01*
X-158940D01*
X-157036Y179009D01*
X-155132Y180914D01*
X-154179Y183770D01*
Y185675D01*
X-155132Y188531D01*
X-157036Y190436D01*
X-158940Y191388D01*
X-161797D01*
X-146943Y198053D02*
Y181866D01*
X-145991Y179009D01*
X-144087Y178057D01*
X-142182D01*
X-149799Y191388D02*
X-143134D01*
X-138373D02*
X-132660Y178057D01*
X-126947Y191388D02*
X-132660Y178057D01*
X-134565Y174249D01*
X-136469Y172344D01*
X-138373Y171392D01*
X-139326D01*
X-123615Y191388D02*
Y171392D01*
Y188531D02*
X-121710Y190436D01*
X-119806Y191388D01*
X-116949D01*
X-115045Y190436D01*
X-113141Y188531D01*
X-112189Y185675D01*
Y183770D01*
X-113141Y180914D01*
X-115045Y179009D01*
X-116949Y178057D01*
X-119806D01*
X-121710Y179009D01*
X-123615Y180914D01*
X-107904Y185675D02*
X-96478D01*
Y187579D01*
X-97430Y189483D01*
X-98382Y190436D01*
X-100286Y191388D01*
X-103143D01*
X-105047Y190436D01*
X-106952Y188531D01*
X-107904Y185675D01*
Y183770D01*
X-106952Y180914D01*
X-105047Y179009D01*
X-103143Y178057D01*
X-100286D01*
X-98382Y179009D01*
X-96478Y180914D01*
M02*
