G04*
G04 #@! TF.GenerationSoftware,Altium Limited,Altium Designer,19.1.6 (110)*
G04*
G04 Layer_Color=16711935*
%FSLAX44Y44*%
%MOMM*%
G71*
G01*
G75*
%ADD67C,2.4000*%
%ADD68R,2.4000X2.4000*%
%ADD69C,1.1000*%
%ADD70R,2.4000X2.4000*%
%ADD71C,1.7000*%
%ADD72C,3.1000*%
%ADD73C,3.2000*%
%ADD74C,1.6000*%
%ADD75R,1.6000X1.6000*%
%ADD76R,1.6000X1.6000*%
%ADD77C,6.1000*%
D67*
X-787500Y307503D02*
D03*
Y342501D02*
D03*
Y177503D02*
D03*
Y212501D02*
D03*
X-787497Y82500D02*
D03*
Y-27500D02*
D03*
Y-167499D02*
D03*
Y-132500D02*
D03*
Y-344996D02*
D03*
Y-309998D02*
D03*
X447000Y227500D02*
D03*
Y137500D02*
D03*
X446500Y24997D02*
D03*
Y-10001D02*
D03*
X-29800Y-438926D02*
D03*
X-64798D02*
D03*
X100199D02*
D03*
X65200D02*
D03*
X-159801D02*
D03*
X-194800D02*
D03*
X230200D02*
D03*
X195202D02*
D03*
D68*
X-787500Y377503D02*
D03*
Y247502D02*
D03*
X-787497Y117500D02*
D03*
Y7500D02*
D03*
Y-97499D02*
D03*
Y-274996D02*
D03*
X447000Y192500D02*
D03*
Y102500D02*
D03*
X446500Y-45002D02*
D03*
D69*
X-694997Y-279998D02*
D03*
X-669597D02*
D03*
X-720397D02*
D03*
X-694997Y-341996D02*
D03*
X-669597D02*
D03*
X-720397D02*
D03*
D70*
X-99799Y-438926D02*
D03*
X30199D02*
D03*
X-229801D02*
D03*
X160200D02*
D03*
D71*
X-522500Y-84999D02*
D03*
X-522500Y-327999D02*
D03*
X-577500D02*
D03*
X-490000Y-190000D02*
D03*
X-612500D02*
D03*
X-577500Y-84999D02*
D03*
X-612500Y-220000D02*
D03*
X-490000D02*
D03*
X-750000Y177500D02*
D03*
Y315000D02*
D03*
X-625000Y327998D02*
D03*
D72*
X-172298Y-224826D02*
D03*
Y-325626D02*
D03*
X-247298Y-275226D02*
D03*
X-172298D02*
D03*
X-247298Y-325626D02*
D03*
Y-224826D02*
D03*
X-32298D02*
D03*
Y-325626D02*
D03*
X-107298Y-275226D02*
D03*
X-32298D02*
D03*
X-107298Y-325626D02*
D03*
Y-224826D02*
D03*
X107702D02*
D03*
Y-325626D02*
D03*
X32702Y-275226D02*
D03*
X107702D02*
D03*
X32702Y-325626D02*
D03*
Y-224826D02*
D03*
X247702D02*
D03*
Y-325626D02*
D03*
X172702Y-275226D02*
D03*
X247702D02*
D03*
X172702Y-325626D02*
D03*
Y-224826D02*
D03*
D73*
X-172298Y-72226D02*
D03*
X-247298D02*
D03*
X-32298D02*
D03*
X-107298D02*
D03*
X107702D02*
D03*
X32702D02*
D03*
X247702D02*
D03*
X172702D02*
D03*
D74*
X-343076Y-317402D02*
D03*
Y-292002D02*
D03*
Y-266602D02*
D03*
Y-241202D02*
D03*
Y-215802D02*
D03*
Y-190402D02*
D03*
Y-165002D02*
D03*
Y-139602D02*
D03*
Y-114202D02*
D03*
Y-88802D02*
D03*
Y-63402D02*
D03*
Y-38002D02*
D03*
Y-12602D02*
D03*
Y12798D02*
D03*
Y38198D02*
D03*
Y63598D02*
D03*
Y88998D02*
D03*
Y114398D02*
D03*
X-368476Y-317402D02*
D03*
Y-292002D02*
D03*
Y-266602D02*
D03*
Y-241202D02*
D03*
Y-215802D02*
D03*
Y-190402D02*
D03*
Y-165002D02*
D03*
Y-139602D02*
D03*
Y-114202D02*
D03*
Y-88802D02*
D03*
Y-63402D02*
D03*
Y-38002D02*
D03*
Y-12602D02*
D03*
Y12798D02*
D03*
Y38198D02*
D03*
Y63598D02*
D03*
Y88998D02*
D03*
Y114398D02*
D03*
Y317598D02*
D03*
X-343076Y292198D02*
D03*
X-368476D02*
D03*
X-343076Y266798D02*
D03*
X-368476D02*
D03*
X-343076Y241398D02*
D03*
X-368476D02*
D03*
X-343076Y215998D02*
D03*
X-368476D02*
D03*
X-343076Y190598D02*
D03*
X-368476D02*
D03*
X-343076Y165198D02*
D03*
X-368476D02*
D03*
Y139798D02*
D03*
X-343076D02*
D03*
X317298Y418894D02*
D03*
X291898D02*
D03*
X266498D02*
D03*
X241098D02*
D03*
X215698D02*
D03*
X190298D02*
D03*
X164898D02*
D03*
X139498D02*
D03*
X114098D02*
D03*
X88698D02*
D03*
X63298D02*
D03*
X37898D02*
D03*
X12498D02*
D03*
X-12902D02*
D03*
X-38302D02*
D03*
X-63702D02*
D03*
X-89102D02*
D03*
X-114502D02*
D03*
X317298Y393494D02*
D03*
X291898D02*
D03*
X266498D02*
D03*
X241098D02*
D03*
X215698D02*
D03*
X190298D02*
D03*
X164898D02*
D03*
X139498D02*
D03*
X114098D02*
D03*
X88698D02*
D03*
X63298D02*
D03*
X37898D02*
D03*
X12498D02*
D03*
X-12902D02*
D03*
X-38302D02*
D03*
X-63702D02*
D03*
X-89102D02*
D03*
X-114502D02*
D03*
X-317702D02*
D03*
X-292302Y418894D02*
D03*
Y393494D02*
D03*
X-266902Y418894D02*
D03*
Y393494D02*
D03*
X-241502Y418894D02*
D03*
Y393494D02*
D03*
X-216102Y418894D02*
D03*
Y393494D02*
D03*
X-190702Y418894D02*
D03*
Y393494D02*
D03*
X-165302Y418894D02*
D03*
Y393494D02*
D03*
X-139902D02*
D03*
Y418894D02*
D03*
X368121Y-317500D02*
D03*
Y-292100D02*
D03*
Y-266700D02*
D03*
Y-241300D02*
D03*
Y-215900D02*
D03*
Y-190500D02*
D03*
Y-165100D02*
D03*
Y-139700D02*
D03*
Y-114300D02*
D03*
Y-88900D02*
D03*
Y-63500D02*
D03*
Y-38100D02*
D03*
Y-12700D02*
D03*
Y12700D02*
D03*
Y38100D02*
D03*
X342721Y-317500D02*
D03*
Y-292100D02*
D03*
Y-266700D02*
D03*
Y-241300D02*
D03*
Y-215900D02*
D03*
Y-190500D02*
D03*
Y-165100D02*
D03*
Y-139700D02*
D03*
Y-114300D02*
D03*
Y-88900D02*
D03*
Y-63500D02*
D03*
Y-38100D02*
D03*
Y-12700D02*
D03*
Y12700D02*
D03*
Y38100D02*
D03*
Y317500D02*
D03*
X368121Y292100D02*
D03*
X342721D02*
D03*
X368121Y266700D02*
D03*
X342721D02*
D03*
X368121Y241300D02*
D03*
X342721D02*
D03*
X368121Y63500D02*
D03*
Y88900D02*
D03*
Y114300D02*
D03*
X342721Y63500D02*
D03*
Y88900D02*
D03*
Y114300D02*
D03*
X368121Y215900D02*
D03*
X342721D02*
D03*
X368121Y190500D02*
D03*
X342721D02*
D03*
X368121Y165100D02*
D03*
X342721D02*
D03*
Y139700D02*
D03*
X368121D02*
D03*
D75*
X-343076Y317598D02*
D03*
X368121Y317500D02*
D03*
D76*
X-317702Y418894D02*
D03*
D77*
X-820000Y450000D02*
D03*
X480000D02*
D03*
X-820000Y-470000D02*
D03*
X480000D02*
D03*
M02*
