G04*
G04 #@! TF.GenerationSoftware,Altium Limited,Altium Designer,19.1.6 (110)*
G04*
G04 Layer_Color=32896*
%FSLAX44Y44*%
%MOMM*%
G71*
G01*
G75*
%ADD13C,0.4500*%
%ADD14C,0.2000*%
%ADD16C,0.3000*%
G36*
X-367790Y340834D02*
X-367803Y340667D01*
X-367831Y340528D01*
X-367873Y340390D01*
X-367942Y340293D01*
X-368012Y340196D01*
X-368095Y340126D01*
X-368261Y340001D01*
X-368441Y339946D01*
X-368580Y339904D01*
X-368649Y339891D01*
X-368691D01*
X-368719D01*
X-368733D01*
X-368899Y339904D01*
X-369038Y339932D01*
X-369176Y339974D01*
X-369273Y340043D01*
X-369371Y340112D01*
X-369440Y340182D01*
X-369565Y340362D01*
X-369620Y340528D01*
X-369662Y340681D01*
X-369676Y340750D01*
Y345396D01*
X-370106Y345257D01*
X-370494Y345105D01*
X-370827Y344966D01*
X-371118Y344828D01*
X-371257Y344758D01*
X-371368Y344703D01*
X-371465Y344647D01*
X-371534Y344592D01*
X-371603Y344564D01*
X-371645Y344536D01*
X-371673Y344509D01*
X-371687D01*
X-371950Y344328D01*
X-372200Y344134D01*
X-372435Y343912D01*
X-372671Y343690D01*
X-373101Y343233D01*
X-373295Y342997D01*
X-373476Y342761D01*
X-373628Y342553D01*
X-373781Y342345D01*
X-373906Y342165D01*
X-374016Y342012D01*
X-374100Y341874D01*
X-374155Y341777D01*
X-374197Y341721D01*
X-374211Y341693D01*
X-374433Y341347D01*
X-374668Y341055D01*
X-374932Y340792D01*
X-375181Y340570D01*
X-375445Y340376D01*
X-375722Y340223D01*
X-375972Y340098D01*
X-376222Y339987D01*
X-376457Y339918D01*
X-376679Y339849D01*
X-376873Y339807D01*
X-377054Y339780D01*
X-377192Y339766D01*
X-377303Y339752D01*
X-377359D01*
X-377387D01*
X-377622Y339766D01*
X-377858Y339793D01*
X-378080Y339849D01*
X-378288Y339918D01*
X-378662Y340085D01*
X-378843Y340182D01*
X-378995Y340279D01*
X-379134Y340390D01*
X-379259Y340487D01*
X-379370Y340570D01*
X-379467Y340653D01*
X-379536Y340723D01*
X-379592Y340778D01*
X-379619Y340806D01*
X-379633Y340820D01*
X-379786Y340986D01*
X-379924Y341166D01*
X-380049Y341361D01*
X-380146Y341555D01*
X-380229Y341763D01*
X-380299Y341957D01*
X-380410Y342359D01*
X-380451Y342539D01*
X-380479Y342720D01*
X-380493Y342872D01*
X-380507Y343011D01*
X-380521Y343122D01*
Y343524D01*
X-380493Y343760D01*
X-380410Y344203D01*
X-380285Y344620D01*
X-380119Y344994D01*
X-379938Y345327D01*
X-379716Y345632D01*
X-379495Y345909D01*
X-379259Y346145D01*
X-379009Y346339D01*
X-378787Y346520D01*
X-378565Y346658D01*
X-378385Y346783D01*
X-378219Y346866D01*
X-378094Y346922D01*
X-378011Y346963D01*
X-377997Y346977D01*
X-377983D01*
X-377844Y347019D01*
X-377719Y347047D01*
X-377664Y347060D01*
X-377636D01*
X-377608D01*
X-377594D01*
X-377456Y347047D01*
X-377331Y347019D01*
X-377220Y346977D01*
X-377123Y346922D01*
X-377054Y346866D01*
X-376984Y346825D01*
X-376957Y346797D01*
X-376943Y346783D01*
X-376860Y346672D01*
X-376804Y346561D01*
X-376749Y346450D01*
X-376721Y346353D01*
X-376707Y346256D01*
X-376693Y346187D01*
Y346131D01*
X-376721Y345937D01*
X-376776Y345771D01*
X-376873Y345632D01*
X-376984Y345521D01*
X-377081Y345438D01*
X-377178Y345382D01*
X-377234Y345355D01*
X-377262Y345341D01*
X-377539Y345202D01*
X-377775Y345063D01*
X-377969Y344911D01*
X-378135Y344758D01*
X-378246Y344633D01*
X-378330Y344536D01*
X-378385Y344467D01*
X-378399Y344439D01*
X-378482Y344273D01*
X-378538Y344079D01*
X-378579Y343885D01*
X-378607Y343676D01*
X-378621Y343496D01*
X-378635Y343344D01*
Y343205D01*
X-378621Y342955D01*
X-378579Y342747D01*
X-378510Y342553D01*
X-378441Y342401D01*
X-378357Y342276D01*
X-378302Y342179D01*
X-378246Y342123D01*
X-378232Y342109D01*
X-378080Y341971D01*
X-377914Y341874D01*
X-377747Y341804D01*
X-377594Y341763D01*
X-377456Y341721D01*
X-377345Y341707D01*
X-377276D01*
X-377248D01*
X-377081Y341721D01*
X-376915Y341749D01*
X-376762Y341790D01*
X-376624Y341846D01*
X-376374Y341998D01*
X-376166Y342165D01*
X-376013Y342345D01*
X-375889Y342484D01*
X-375847Y342553D01*
X-375819Y342595D01*
X-375792Y342622D01*
Y342636D01*
X-375570Y342997D01*
X-375348Y343344D01*
X-375126Y343663D01*
X-374904Y343954D01*
X-374682Y344231D01*
X-374474Y344481D01*
X-374266Y344717D01*
X-374072Y344925D01*
X-373892Y345105D01*
X-373725Y345271D01*
X-373573Y345410D01*
X-373448Y345521D01*
X-373337Y345618D01*
X-373268Y345674D01*
X-373212Y345715D01*
X-373198Y345729D01*
X-372755Y346034D01*
X-372283Y346311D01*
X-371839Y346547D01*
X-371409Y346741D01*
X-371215Y346811D01*
X-371035Y346894D01*
X-370882Y346950D01*
X-370744Y347005D01*
X-370633Y347033D01*
X-370549Y347060D01*
X-370494Y347088D01*
X-370480D01*
X-370009Y347199D01*
X-369551Y347310D01*
X-369093Y347421D01*
X-368885Y347463D01*
X-368677Y347504D01*
X-368497Y347546D01*
X-368317Y347587D01*
X-368164Y347615D01*
X-368039Y347643D01*
X-367928Y347671D01*
X-367859Y347685D01*
X-367803Y347698D01*
X-367790D01*
Y340834D01*
D02*
G37*
G36*
X-370652Y-336815D02*
X-370555Y-336829D01*
X-370485Y-336843D01*
X-370457D01*
X-370194Y-336940D01*
X-369930Y-337051D01*
X-369695Y-337176D01*
X-369473Y-337301D01*
X-369265Y-337426D01*
X-369071Y-337564D01*
X-368890Y-337689D01*
X-368738Y-337814D01*
X-368599Y-337925D01*
X-368474Y-338036D01*
X-368363Y-338147D01*
X-368280Y-338230D01*
X-368211Y-338299D01*
X-368169Y-338355D01*
X-368141Y-338383D01*
X-368128Y-338396D01*
X-367961Y-338618D01*
X-367822Y-338840D01*
X-367711Y-339062D01*
X-367614Y-339284D01*
X-367531Y-339506D01*
X-367462Y-339728D01*
X-367406Y-339936D01*
X-367365Y-340130D01*
X-367337Y-340324D01*
X-367323Y-340491D01*
X-367309Y-340643D01*
Y-341018D01*
X-367351Y-341350D01*
X-367406Y-341656D01*
X-367476Y-341947D01*
X-367573Y-342210D01*
X-367684Y-342460D01*
X-367795Y-342682D01*
X-367920Y-342876D01*
X-368031Y-343056D01*
X-368155Y-343223D01*
X-368266Y-343361D01*
X-368377Y-343472D01*
X-368474Y-343569D01*
X-368558Y-343639D01*
X-368613Y-343694D01*
X-368655Y-343722D01*
X-368668Y-343736D01*
X-368918Y-343916D01*
X-369168Y-344055D01*
X-369431Y-344193D01*
X-369695Y-344304D01*
X-369972Y-344402D01*
X-370235Y-344485D01*
X-370485Y-344540D01*
X-370735Y-344596D01*
X-370957Y-344637D01*
X-371165Y-344665D01*
X-371359Y-344693D01*
X-371511Y-344707D01*
X-371650Y-344720D01*
X-371747D01*
X-371803D01*
X-371830D01*
X-372163Y-344707D01*
X-372482Y-344665D01*
X-372801Y-344609D01*
X-373092Y-344526D01*
X-373370Y-344429D01*
X-373633Y-344332D01*
X-373869Y-344221D01*
X-374091Y-344110D01*
X-374299Y-343985D01*
X-374465Y-343875D01*
X-374632Y-343777D01*
X-374757Y-343680D01*
X-374854Y-343597D01*
X-374937Y-343542D01*
X-374978Y-343500D01*
X-374992Y-343486D01*
X-375228Y-343250D01*
X-375436Y-343015D01*
X-375616Y-342765D01*
X-375769Y-342529D01*
X-375908Y-342280D01*
X-376005Y-342044D01*
X-376102Y-341822D01*
X-376171Y-341614D01*
X-376227Y-341406D01*
X-376268Y-341226D01*
X-376296Y-341059D01*
X-376324Y-340920D01*
Y-340810D01*
X-376338Y-340726D01*
Y-340435D01*
X-376324Y-340241D01*
X-376310Y-340047D01*
X-376282Y-339880D01*
X-376254Y-339714D01*
X-376227Y-339561D01*
X-376185Y-339437D01*
X-376157Y-339312D01*
X-376130Y-339215D01*
X-376088Y-339118D01*
X-376060Y-339048D01*
X-376032Y-338979D01*
X-376005Y-338937D01*
X-375991Y-338896D01*
X-375977Y-338882D01*
Y-338868D01*
X-378224D01*
Y-342876D01*
X-378238Y-343042D01*
X-378265Y-343181D01*
X-378307Y-343306D01*
X-378376Y-343417D01*
X-378446Y-343500D01*
X-378515Y-343583D01*
X-378695Y-343694D01*
X-378862Y-343750D01*
X-379014Y-343791D01*
X-379070Y-343805D01*
X-379111D01*
X-379139D01*
X-379153D01*
X-379319Y-343791D01*
X-379458Y-343764D01*
X-379583Y-343722D01*
X-379694Y-343666D01*
X-379777Y-343583D01*
X-379860Y-343514D01*
X-379971Y-343348D01*
X-380027Y-343167D01*
X-380068Y-343028D01*
X-380082Y-342959D01*
Y-337051D01*
X-374285D01*
X-374133Y-337065D01*
X-374008Y-337079D01*
X-373897Y-337121D01*
X-373800Y-337176D01*
X-373717Y-337231D01*
X-373647Y-337301D01*
X-373550Y-337440D01*
X-373481Y-337578D01*
X-373453Y-337703D01*
X-373439Y-337800D01*
Y-337828D01*
X-373453Y-337953D01*
X-373495Y-338091D01*
X-373550Y-338230D01*
X-373619Y-338355D01*
X-373689Y-338452D01*
X-373744Y-338549D01*
X-373786Y-338605D01*
X-373800Y-338618D01*
X-373911Y-338771D01*
X-374022Y-338937D01*
X-374174Y-339284D01*
X-374299Y-339617D01*
X-374368Y-339950D01*
X-374396Y-340102D01*
X-374424Y-340227D01*
X-374438Y-340352D01*
Y-340463D01*
X-374451Y-340546D01*
Y-340671D01*
X-374438Y-340837D01*
X-374424Y-340990D01*
X-374327Y-341281D01*
X-374202Y-341545D01*
X-374063Y-341780D01*
X-373924Y-341961D01*
X-373800Y-342099D01*
X-373744Y-342155D01*
X-373703Y-342196D01*
X-373689Y-342210D01*
X-373675Y-342224D01*
X-373522Y-342349D01*
X-373370Y-342446D01*
X-373217Y-342543D01*
X-373065Y-342612D01*
X-372746Y-342737D01*
X-372468Y-342821D01*
X-372205Y-342862D01*
X-372108Y-342890D01*
X-372011D01*
X-371941Y-342904D01*
X-371872D01*
X-371844D01*
X-371830D01*
X-371428Y-342876D01*
X-371068Y-342821D01*
X-370762Y-342751D01*
X-370499Y-342654D01*
X-370388Y-342612D01*
X-370277Y-342557D01*
X-370194Y-342515D01*
X-370125Y-342488D01*
X-370069Y-342446D01*
X-370028Y-342432D01*
X-370014Y-342404D01*
X-370000D01*
X-369861Y-342307D01*
X-369750Y-342183D01*
X-369639Y-342072D01*
X-369542Y-341947D01*
X-369403Y-341697D01*
X-369292Y-341447D01*
X-369237Y-341226D01*
X-369209Y-341129D01*
X-369195Y-341045D01*
X-369182Y-340976D01*
X-369168Y-340920D01*
Y-340879D01*
X-369182Y-340602D01*
X-369223Y-340338D01*
X-369320Y-340088D01*
X-369445Y-339853D01*
X-369598Y-339645D01*
X-369764Y-339450D01*
X-369958Y-339270D01*
X-370139Y-339118D01*
X-370333Y-338979D01*
X-370527Y-338854D01*
X-370707Y-338757D01*
X-370860Y-338674D01*
X-370998Y-338605D01*
X-371095Y-338563D01*
X-371165Y-338535D01*
X-371193Y-338521D01*
X-371359Y-338452D01*
X-371470Y-338341D01*
X-371553Y-338216D01*
X-371622Y-338078D01*
X-371650Y-337967D01*
X-371664Y-337856D01*
X-371678Y-337786D01*
Y-337758D01*
X-371664Y-337620D01*
X-371636Y-337495D01*
X-371595Y-337384D01*
X-371553Y-337287D01*
X-371498Y-337204D01*
X-371456Y-337148D01*
X-371428Y-337107D01*
X-371414Y-337093D01*
X-371317Y-336996D01*
X-371206Y-336926D01*
X-371109Y-336871D01*
X-370998Y-336843D01*
X-370915Y-336815D01*
X-370846Y-336802D01*
X-370790D01*
X-370776D01*
X-370652Y-336815D01*
D02*
G37*
G36*
X-367490Y-354054D02*
X-367504Y-354220D01*
X-367531Y-354359D01*
X-367573Y-354498D01*
X-367642Y-354595D01*
X-367711Y-354692D01*
X-367795Y-354761D01*
X-367961Y-354886D01*
X-368141Y-354941D01*
X-368280Y-354983D01*
X-368349Y-354997D01*
X-368391D01*
X-368419D01*
X-368433D01*
X-368599Y-354983D01*
X-368738Y-354955D01*
X-368876Y-354914D01*
X-368974Y-354844D01*
X-369071Y-354775D01*
X-369140Y-354706D01*
X-369265Y-354525D01*
X-369320Y-354359D01*
X-369362Y-354207D01*
X-369376Y-354137D01*
Y-349491D01*
X-369806Y-349630D01*
X-370194Y-349782D01*
X-370527Y-349921D01*
X-370818Y-350060D01*
X-370957Y-350129D01*
X-371068Y-350185D01*
X-371165Y-350240D01*
X-371234Y-350296D01*
X-371303Y-350323D01*
X-371345Y-350351D01*
X-371373Y-350379D01*
X-371387D01*
X-371650Y-350559D01*
X-371900Y-350753D01*
X-372136Y-350975D01*
X-372371Y-351197D01*
X-372801Y-351655D01*
X-372995Y-351890D01*
X-373176Y-352126D01*
X-373328Y-352334D01*
X-373481Y-352542D01*
X-373606Y-352723D01*
X-373717Y-352875D01*
X-373800Y-353014D01*
X-373855Y-353111D01*
X-373897Y-353166D01*
X-373911Y-353194D01*
X-374133Y-353541D01*
X-374368Y-353832D01*
X-374632Y-354095D01*
X-374881Y-354317D01*
X-375145Y-354512D01*
X-375422Y-354664D01*
X-375672Y-354789D01*
X-375922Y-354900D01*
X-376157Y-354969D01*
X-376379Y-355039D01*
X-376573Y-355080D01*
X-376754Y-355108D01*
X-376892Y-355122D01*
X-377003Y-355136D01*
X-377059D01*
X-377086D01*
X-377322Y-355122D01*
X-377558Y-355094D01*
X-377780Y-355039D01*
X-377988Y-354969D01*
X-378362Y-354803D01*
X-378543Y-354706D01*
X-378695Y-354609D01*
X-378834Y-354498D01*
X-378959Y-354401D01*
X-379070Y-354317D01*
X-379167Y-354234D01*
X-379236Y-354165D01*
X-379292Y-354109D01*
X-379319Y-354082D01*
X-379333Y-354068D01*
X-379486Y-353901D01*
X-379624Y-353721D01*
X-379749Y-353527D01*
X-379846Y-353333D01*
X-379930Y-353125D01*
X-379999Y-352931D01*
X-380110Y-352528D01*
X-380151Y-352348D01*
X-380179Y-352168D01*
X-380193Y-352015D01*
X-380207Y-351877D01*
X-380221Y-351766D01*
Y-351363D01*
X-380193Y-351128D01*
X-380110Y-350684D01*
X-379985Y-350268D01*
X-379819Y-349893D01*
X-379638Y-349561D01*
X-379416Y-349255D01*
X-379194Y-348978D01*
X-378959Y-348742D01*
X-378709Y-348548D01*
X-378487Y-348368D01*
X-378265Y-348229D01*
X-378085Y-348104D01*
X-377919Y-348021D01*
X-377794Y-347966D01*
X-377711Y-347924D01*
X-377697Y-347910D01*
X-377683D01*
X-377544Y-347869D01*
X-377419Y-347841D01*
X-377364Y-347827D01*
X-377336D01*
X-377308D01*
X-377295D01*
X-377156Y-347841D01*
X-377031Y-347869D01*
X-376920Y-347910D01*
X-376823Y-347966D01*
X-376754Y-348021D01*
X-376684Y-348063D01*
X-376657Y-348091D01*
X-376643Y-348104D01*
X-376559Y-348215D01*
X-376504Y-348326D01*
X-376449Y-348437D01*
X-376421Y-348534D01*
X-376407Y-348631D01*
X-376393Y-348701D01*
Y-348756D01*
X-376421Y-348950D01*
X-376476Y-349117D01*
X-376573Y-349255D01*
X-376684Y-349366D01*
X-376781Y-349450D01*
X-376879Y-349505D01*
X-376934Y-349533D01*
X-376962Y-349547D01*
X-377239Y-349685D01*
X-377475Y-349824D01*
X-377669Y-349977D01*
X-377835Y-350129D01*
X-377946Y-350254D01*
X-378030Y-350351D01*
X-378085Y-350420D01*
X-378099Y-350448D01*
X-378182Y-350615D01*
X-378238Y-350809D01*
X-378279Y-351003D01*
X-378307Y-351211D01*
X-378321Y-351391D01*
X-378335Y-351544D01*
Y-351682D01*
X-378321Y-351932D01*
X-378279Y-352140D01*
X-378210Y-352334D01*
X-378140Y-352487D01*
X-378057Y-352612D01*
X-378002Y-352709D01*
X-377946Y-352764D01*
X-377933Y-352778D01*
X-377780Y-352917D01*
X-377613Y-353014D01*
X-377447Y-353083D01*
X-377295Y-353125D01*
X-377156Y-353166D01*
X-377045Y-353180D01*
X-376976D01*
X-376948D01*
X-376781Y-353166D01*
X-376615Y-353139D01*
X-376462Y-353097D01*
X-376324Y-353041D01*
X-376074Y-352889D01*
X-375866Y-352723D01*
X-375714Y-352542D01*
X-375589Y-352404D01*
X-375547Y-352334D01*
X-375519Y-352293D01*
X-375492Y-352265D01*
Y-352251D01*
X-375270Y-351890D01*
X-375048Y-351544D01*
X-374826Y-351225D01*
X-374604Y-350933D01*
X-374382Y-350656D01*
X-374174Y-350406D01*
X-373966Y-350171D01*
X-373772Y-349963D01*
X-373592Y-349782D01*
X-373425Y-349616D01*
X-373273Y-349477D01*
X-373148Y-349366D01*
X-373037Y-349269D01*
X-372968Y-349214D01*
X-372912Y-349172D01*
X-372898Y-349158D01*
X-372454Y-348853D01*
X-371983Y-348576D01*
X-371539Y-348340D01*
X-371109Y-348146D01*
X-370915Y-348077D01*
X-370735Y-347993D01*
X-370582Y-347938D01*
X-370444Y-347882D01*
X-370333Y-347855D01*
X-370249Y-347827D01*
X-370194Y-347799D01*
X-370180D01*
X-369709Y-347688D01*
X-369251Y-347577D01*
X-368793Y-347466D01*
X-368585Y-347425D01*
X-368377Y-347383D01*
X-368197Y-347342D01*
X-368017Y-347300D01*
X-367864Y-347272D01*
X-367739Y-347244D01*
X-367628Y-347217D01*
X-367559Y-347203D01*
X-367504Y-347189D01*
X-367490D01*
Y-354054D01*
D02*
G37*
G36*
X-331386Y344684D02*
X-331247Y344657D01*
X-331122Y344615D01*
X-331025Y344560D01*
X-330928Y344490D01*
X-330859Y344407D01*
X-330748Y344241D01*
X-330692Y344074D01*
X-330651Y343922D01*
X-330637Y343866D01*
Y343783D01*
X-330651Y343617D01*
X-330679Y343478D01*
X-330720Y343339D01*
X-330776Y343242D01*
X-330845Y343145D01*
X-330928Y343076D01*
X-331095Y342951D01*
X-331261Y342896D01*
X-331414Y342854D01*
X-331469Y342840D01*
X-331511D01*
X-331539D01*
X-331552D01*
X-342481D01*
X-342647Y342854D01*
X-342786Y342882D01*
X-342911Y342923D01*
X-343022Y342993D01*
X-343105Y343062D01*
X-343188Y343131D01*
X-343299Y343312D01*
X-343354Y343478D01*
X-343396Y343630D01*
X-343410Y343700D01*
Y343783D01*
X-343396Y343950D01*
X-343368Y344088D01*
X-343327Y344213D01*
X-343271Y344310D01*
X-343188Y344407D01*
X-343119Y344477D01*
X-342952Y344587D01*
X-342772Y344643D01*
X-342633Y344684D01*
X-342564Y344698D01*
X-342522D01*
X-342495D01*
X-342481D01*
X-331552D01*
X-331386Y344684D01*
D02*
G37*
G36*
X-332552Y-336815D02*
X-332454Y-336829D01*
X-332385Y-336843D01*
X-332357D01*
X-332094Y-336940D01*
X-331830Y-337051D01*
X-331595Y-337176D01*
X-331373Y-337301D01*
X-331165Y-337426D01*
X-330971Y-337564D01*
X-330790Y-337689D01*
X-330638Y-337814D01*
X-330499Y-337925D01*
X-330374Y-338036D01*
X-330263Y-338147D01*
X-330180Y-338230D01*
X-330111Y-338299D01*
X-330069Y-338355D01*
X-330041Y-338383D01*
X-330028Y-338396D01*
X-329861Y-338618D01*
X-329722Y-338840D01*
X-329612Y-339062D01*
X-329514Y-339284D01*
X-329431Y-339506D01*
X-329362Y-339728D01*
X-329306Y-339936D01*
X-329265Y-340130D01*
X-329237Y-340324D01*
X-329223Y-340491D01*
X-329209Y-340643D01*
Y-341018D01*
X-329251Y-341350D01*
X-329306Y-341656D01*
X-329376Y-341947D01*
X-329473Y-342210D01*
X-329584Y-342460D01*
X-329695Y-342682D01*
X-329819Y-342876D01*
X-329930Y-343056D01*
X-330055Y-343223D01*
X-330166Y-343361D01*
X-330277Y-343472D01*
X-330374Y-343569D01*
X-330457Y-343639D01*
X-330513Y-343694D01*
X-330555Y-343722D01*
X-330568Y-343736D01*
X-330818Y-343916D01*
X-331068Y-344055D01*
X-331331Y-344193D01*
X-331595Y-344304D01*
X-331872Y-344402D01*
X-332136Y-344485D01*
X-332385Y-344540D01*
X-332635Y-344596D01*
X-332857Y-344637D01*
X-333065Y-344665D01*
X-333259Y-344693D01*
X-333411Y-344707D01*
X-333550Y-344720D01*
X-333647D01*
X-333703D01*
X-333730D01*
X-334063Y-344707D01*
X-334382Y-344665D01*
X-334701Y-344609D01*
X-334992Y-344526D01*
X-335270Y-344429D01*
X-335533Y-344332D01*
X-335769Y-344221D01*
X-335991Y-344110D01*
X-336199Y-343985D01*
X-336365Y-343875D01*
X-336532Y-343777D01*
X-336657Y-343680D01*
X-336754Y-343597D01*
X-336837Y-343542D01*
X-336879Y-343500D01*
X-336892Y-343486D01*
X-337128Y-343250D01*
X-337336Y-343015D01*
X-337517Y-342765D01*
X-337669Y-342529D01*
X-337808Y-342280D01*
X-337905Y-342044D01*
X-338002Y-341822D01*
X-338071Y-341614D01*
X-338127Y-341406D01*
X-338168Y-341226D01*
X-338196Y-341059D01*
X-338224Y-340920D01*
Y-340810D01*
X-338238Y-340726D01*
Y-340435D01*
X-338224Y-340241D01*
X-338210Y-340047D01*
X-338182Y-339880D01*
X-338154Y-339714D01*
X-338127Y-339561D01*
X-338085Y-339437D01*
X-338057Y-339312D01*
X-338030Y-339215D01*
X-337988Y-339118D01*
X-337960Y-339048D01*
X-337933Y-338979D01*
X-337905Y-338937D01*
X-337891Y-338896D01*
X-337877Y-338882D01*
Y-338868D01*
X-340124D01*
Y-342876D01*
X-340138Y-343042D01*
X-340165Y-343181D01*
X-340207Y-343306D01*
X-340276Y-343417D01*
X-340346Y-343500D01*
X-340415Y-343583D01*
X-340595Y-343694D01*
X-340762Y-343750D01*
X-340914Y-343791D01*
X-340970Y-343805D01*
X-341011D01*
X-341039D01*
X-341053D01*
X-341219Y-343791D01*
X-341358Y-343764D01*
X-341483Y-343722D01*
X-341594Y-343666D01*
X-341677Y-343583D01*
X-341760Y-343514D01*
X-341871Y-343348D01*
X-341927Y-343167D01*
X-341968Y-343028D01*
X-341982Y-342959D01*
Y-337051D01*
X-336185D01*
X-336033Y-337065D01*
X-335908Y-337079D01*
X-335797Y-337121D01*
X-335700Y-337176D01*
X-335616Y-337231D01*
X-335547Y-337301D01*
X-335450Y-337440D01*
X-335381Y-337578D01*
X-335353Y-337703D01*
X-335339Y-337800D01*
Y-337828D01*
X-335353Y-337953D01*
X-335395Y-338091D01*
X-335450Y-338230D01*
X-335519Y-338355D01*
X-335589Y-338452D01*
X-335644Y-338549D01*
X-335686Y-338605D01*
X-335700Y-338618D01*
X-335811Y-338771D01*
X-335922Y-338937D01*
X-336074Y-339284D01*
X-336199Y-339617D01*
X-336268Y-339950D01*
X-336296Y-340102D01*
X-336324Y-340227D01*
X-336338Y-340352D01*
Y-340463D01*
X-336352Y-340546D01*
Y-340671D01*
X-336338Y-340837D01*
X-336324Y-340990D01*
X-336227Y-341281D01*
X-336102Y-341545D01*
X-335963Y-341780D01*
X-335825Y-341961D01*
X-335700Y-342099D01*
X-335644Y-342155D01*
X-335603Y-342196D01*
X-335589Y-342210D01*
X-335575Y-342224D01*
X-335422Y-342349D01*
X-335270Y-342446D01*
X-335117Y-342543D01*
X-334965Y-342612D01*
X-334646Y-342737D01*
X-334368Y-342821D01*
X-334105Y-342862D01*
X-334008Y-342890D01*
X-333911D01*
X-333841Y-342904D01*
X-333772D01*
X-333744D01*
X-333730D01*
X-333328Y-342876D01*
X-332968Y-342821D01*
X-332663Y-342751D01*
X-332399Y-342654D01*
X-332288Y-342612D01*
X-332177Y-342557D01*
X-332094Y-342515D01*
X-332025Y-342488D01*
X-331969Y-342446D01*
X-331927Y-342432D01*
X-331914Y-342404D01*
X-331900D01*
X-331761Y-342307D01*
X-331650Y-342183D01*
X-331539Y-342072D01*
X-331442Y-341947D01*
X-331303Y-341697D01*
X-331193Y-341447D01*
X-331137Y-341226D01*
X-331109Y-341129D01*
X-331095Y-341045D01*
X-331082Y-340976D01*
X-331068Y-340920D01*
Y-340879D01*
X-331082Y-340602D01*
X-331123Y-340338D01*
X-331220Y-340088D01*
X-331345Y-339853D01*
X-331498Y-339645D01*
X-331664Y-339450D01*
X-331858Y-339270D01*
X-332038Y-339118D01*
X-332233Y-338979D01*
X-332427Y-338854D01*
X-332607Y-338757D01*
X-332760Y-338674D01*
X-332898Y-338605D01*
X-332995Y-338563D01*
X-333065Y-338535D01*
X-333092Y-338521D01*
X-333259Y-338452D01*
X-333370Y-338341D01*
X-333453Y-338216D01*
X-333522Y-338078D01*
X-333550Y-337967D01*
X-333564Y-337856D01*
X-333578Y-337786D01*
Y-337758D01*
X-333564Y-337620D01*
X-333536Y-337495D01*
X-333495Y-337384D01*
X-333453Y-337287D01*
X-333398Y-337204D01*
X-333356Y-337148D01*
X-333328Y-337107D01*
X-333314Y-337093D01*
X-333217Y-336996D01*
X-333106Y-336926D01*
X-333009Y-336871D01*
X-332898Y-336843D01*
X-332815Y-336815D01*
X-332746Y-336802D01*
X-332690D01*
X-332676D01*
X-332552Y-336815D01*
D02*
G37*
G36*
X-329986Y-347938D02*
X-329847Y-347966D01*
X-329722Y-348007D01*
X-329625Y-348063D01*
X-329528Y-348132D01*
X-329459Y-348215D01*
X-329348Y-348382D01*
X-329292Y-348548D01*
X-329251Y-348701D01*
X-329237Y-348756D01*
Y-348839D01*
X-329251Y-349006D01*
X-329279Y-349145D01*
X-329320Y-349283D01*
X-329376Y-349380D01*
X-329445Y-349477D01*
X-329528Y-349547D01*
X-329695Y-349672D01*
X-329861Y-349727D01*
X-330014Y-349769D01*
X-330069Y-349782D01*
X-330111D01*
X-330139D01*
X-330152D01*
X-341081D01*
X-341247Y-349769D01*
X-341386Y-349741D01*
X-341511Y-349699D01*
X-341622Y-349630D01*
X-341705Y-349561D01*
X-341788Y-349491D01*
X-341899Y-349311D01*
X-341954Y-349145D01*
X-341996Y-348992D01*
X-342010Y-348923D01*
Y-348839D01*
X-341996Y-348673D01*
X-341968Y-348534D01*
X-341927Y-348410D01*
X-341871Y-348312D01*
X-341788Y-348215D01*
X-341719Y-348146D01*
X-341552Y-348035D01*
X-341372Y-347980D01*
X-341233Y-347938D01*
X-341164Y-347924D01*
X-341122D01*
X-341095D01*
X-341081D01*
X-330152D01*
X-329986Y-347938D01*
D02*
G37*
G36*
X-340770Y394166D02*
X-340632Y394138D01*
X-340493Y394097D01*
X-340396Y394027D01*
X-340299Y393958D01*
X-340229Y393875D01*
X-340105Y393708D01*
X-340049Y393528D01*
X-340008Y393390D01*
X-339994Y393320D01*
Y393279D01*
Y393251D01*
Y393237D01*
X-340008Y393071D01*
X-340035Y392932D01*
X-340077Y392793D01*
X-340146Y392696D01*
X-340216Y392599D01*
X-340285Y392530D01*
X-340465Y392405D01*
X-340632Y392349D01*
X-340784Y392308D01*
X-340854Y392294D01*
X-345499D01*
X-345361Y391864D01*
X-345208Y391476D01*
X-345070Y391143D01*
X-344931Y390852D01*
X-344861Y390713D01*
X-344806Y390602D01*
X-344751Y390505D01*
X-344695Y390436D01*
X-344667Y390366D01*
X-344640Y390325D01*
X-344612Y390297D01*
Y390283D01*
X-344432Y390019D01*
X-344238Y389770D01*
X-344016Y389534D01*
X-343794Y389298D01*
X-343336Y388868D01*
X-343100Y388674D01*
X-342864Y388494D01*
X-342657Y388341D01*
X-342448Y388189D01*
X-342268Y388064D01*
X-342116Y387953D01*
X-341977Y387870D01*
X-341880Y387814D01*
X-341824Y387773D01*
X-341797Y387759D01*
X-341450Y387537D01*
X-341159Y387301D01*
X-340895Y387038D01*
X-340673Y386788D01*
X-340479Y386525D01*
X-340327Y386247D01*
X-340202Y385998D01*
X-340091Y385748D01*
X-340022Y385512D01*
X-339952Y385290D01*
X-339911Y385096D01*
X-339883Y384916D01*
X-339869Y384777D01*
X-339855Y384666D01*
Y384611D01*
Y384583D01*
X-339869Y384347D01*
X-339897Y384112D01*
X-339952Y383890D01*
X-340022Y383682D01*
X-340188Y383307D01*
X-340285Y383127D01*
X-340382Y382974D01*
X-340493Y382836D01*
X-340590Y382711D01*
X-340673Y382600D01*
X-340756Y382503D01*
X-340826Y382434D01*
X-340881Y382378D01*
X-340909Y382350D01*
X-340923Y382336D01*
X-341089Y382184D01*
X-341270Y382045D01*
X-341464Y381920D01*
X-341658Y381823D01*
X-341866Y381740D01*
X-342060Y381671D01*
X-342462Y381560D01*
X-342643Y381518D01*
X-342823Y381490D01*
X-342975Y381477D01*
X-343114Y381463D01*
X-343225Y381449D01*
X-343627D01*
X-343863Y381477D01*
X-344307Y381560D01*
X-344723Y381685D01*
X-345097Y381851D01*
X-345430Y382031D01*
X-345735Y382253D01*
X-346013Y382475D01*
X-346248Y382711D01*
X-346442Y382961D01*
X-346623Y383182D01*
X-346762Y383404D01*
X-346886Y383585D01*
X-346969Y383751D01*
X-347025Y383876D01*
X-347067Y383959D01*
X-347080Y383973D01*
Y383987D01*
X-347122Y384125D01*
X-347150Y384250D01*
X-347164Y384306D01*
Y384333D01*
Y384361D01*
Y384375D01*
X-347150Y384514D01*
X-347122Y384639D01*
X-347080Y384749D01*
X-347025Y384847D01*
X-346969Y384916D01*
X-346928Y384985D01*
X-346900Y385013D01*
X-346886Y385027D01*
X-346775Y385110D01*
X-346664Y385166D01*
X-346553Y385221D01*
X-346456Y385249D01*
X-346359Y385263D01*
X-346290Y385276D01*
X-346235D01*
X-346040Y385249D01*
X-345874Y385193D01*
X-345735Y385096D01*
X-345624Y384985D01*
X-345541Y384888D01*
X-345486Y384791D01*
X-345458Y384736D01*
X-345444Y384708D01*
X-345305Y384431D01*
X-345167Y384195D01*
X-345014Y384001D01*
X-344861Y383834D01*
X-344737Y383723D01*
X-344640Y383640D01*
X-344570Y383585D01*
X-344543Y383571D01*
X-344376Y383488D01*
X-344182Y383432D01*
X-343988Y383390D01*
X-343780Y383363D01*
X-343600Y383349D01*
X-343447Y383335D01*
X-343308D01*
X-343059Y383349D01*
X-342851Y383390D01*
X-342657Y383460D01*
X-342504Y383529D01*
X-342379Y383612D01*
X-342282Y383668D01*
X-342226Y383723D01*
X-342213Y383737D01*
X-342074Y383890D01*
X-341977Y384056D01*
X-341908Y384222D01*
X-341866Y384375D01*
X-341824Y384514D01*
X-341810Y384625D01*
Y384694D01*
Y384722D01*
X-341824Y384888D01*
X-341852Y385055D01*
X-341894Y385207D01*
X-341949Y385346D01*
X-342102Y385596D01*
X-342268Y385803D01*
X-342448Y385956D01*
X-342587Y386081D01*
X-342657Y386123D01*
X-342698Y386150D01*
X-342726Y386178D01*
X-342740D01*
X-343100Y386400D01*
X-343447Y386622D01*
X-343766Y386844D01*
X-344057Y387066D01*
X-344334Y387287D01*
X-344584Y387495D01*
X-344820Y387704D01*
X-345028Y387898D01*
X-345208Y388078D01*
X-345375Y388244D01*
X-345513Y388397D01*
X-345624Y388522D01*
X-345721Y388633D01*
X-345777Y388702D01*
X-345818Y388758D01*
X-345832Y388771D01*
X-346137Y389215D01*
X-346415Y389687D01*
X-346651Y390131D01*
X-346845Y390560D01*
X-346914Y390755D01*
X-346997Y390935D01*
X-347053Y391087D01*
X-347108Y391226D01*
X-347136Y391337D01*
X-347164Y391420D01*
X-347191Y391476D01*
Y391490D01*
X-347302Y391961D01*
X-347413Y392419D01*
X-347524Y392876D01*
X-347566Y393084D01*
X-347607Y393293D01*
X-347649Y393473D01*
X-347691Y393653D01*
X-347718Y393806D01*
X-347746Y393930D01*
X-347774Y394041D01*
X-347788Y394111D01*
X-347802Y394166D01*
Y394180D01*
X-340937D01*
X-340770Y394166D01*
D02*
G37*
G36*
X341247Y394619D02*
X341552Y394563D01*
X341843Y394494D01*
X342107Y394397D01*
X342357Y394286D01*
X342579Y394175D01*
X342773Y394050D01*
X342953Y393939D01*
X343119Y393814D01*
X343258Y393703D01*
X343369Y393592D01*
X343466Y393495D01*
X343535Y393412D01*
X343591Y393357D01*
X343619Y393315D01*
X343633Y393301D01*
X343813Y393052D01*
X343951Y392802D01*
X344090Y392538D01*
X344201Y392275D01*
X344298Y391998D01*
X344381Y391734D01*
X344437Y391484D01*
X344492Y391235D01*
X344534Y391013D01*
X344562Y390805D01*
X344590Y390611D01*
X344603Y390458D01*
X344617Y390320D01*
Y390222D01*
Y390167D01*
Y390139D01*
X344603Y389806D01*
X344562Y389487D01*
X344506Y389168D01*
X344423Y388877D01*
X344326Y388600D01*
X344229Y388336D01*
X344118Y388101D01*
X344007Y387879D01*
X343882Y387671D01*
X343771Y387504D01*
X343674Y387338D01*
X343577Y387213D01*
X343494Y387116D01*
X343438Y387033D01*
X343397Y386991D01*
X343383Y386977D01*
X343147Y386741D01*
X342911Y386533D01*
X342662Y386353D01*
X342426Y386201D01*
X342176Y386062D01*
X341941Y385965D01*
X341719Y385868D01*
X341511Y385798D01*
X341303Y385743D01*
X341122Y385701D01*
X340956Y385674D01*
X340817Y385646D01*
X340706D01*
X340623Y385632D01*
X340332D01*
X340138Y385646D01*
X339944Y385660D01*
X339777Y385687D01*
X339611Y385715D01*
X339458Y385743D01*
X339333Y385784D01*
X339208Y385812D01*
X339111Y385840D01*
X339014Y385882D01*
X338945Y385909D01*
X338876Y385937D01*
X338834Y385965D01*
X338792Y385979D01*
X338779Y385993D01*
X338765D01*
Y383746D01*
X342773D01*
X342939Y383732D01*
X343078Y383704D01*
X343203Y383663D01*
X343314Y383593D01*
X343397Y383524D01*
X343480Y383455D01*
X343591Y383274D01*
X343646Y383108D01*
X343688Y382955D01*
X343702Y382900D01*
Y382858D01*
Y382831D01*
Y382817D01*
X343688Y382650D01*
X343660Y382512D01*
X343619Y382387D01*
X343563Y382276D01*
X343480Y382193D01*
X343411Y382109D01*
X343244Y381998D01*
X343064Y381943D01*
X342925Y381901D01*
X342856Y381888D01*
X336948D01*
Y387685D01*
X336962Y387837D01*
X336976Y387962D01*
X337017Y388073D01*
X337073Y388170D01*
X337128Y388253D01*
X337198Y388322D01*
X337336Y388419D01*
X337475Y388489D01*
X337600Y388517D01*
X337697Y388531D01*
X337725D01*
X337849Y388517D01*
X337988Y388475D01*
X338127Y388419D01*
X338252Y388350D01*
X338349Y388281D01*
X338446Y388225D01*
X338501Y388184D01*
X338515Y388170D01*
X338668Y388059D01*
X338834Y387948D01*
X339181Y387795D01*
X339514Y387671D01*
X339846Y387601D01*
X339999Y387574D01*
X340124Y387546D01*
X340249Y387532D01*
X340360D01*
X340443Y387518D01*
X340568D01*
X340734Y387532D01*
X340887Y387546D01*
X341178Y387643D01*
X341441Y387768D01*
X341677Y387906D01*
X341857Y388045D01*
X341996Y388170D01*
X342052Y388225D01*
X342093Y388267D01*
X342107Y388281D01*
X342121Y388295D01*
X342246Y388447D01*
X342343Y388600D01*
X342440Y388752D01*
X342509Y388905D01*
X342634Y389224D01*
X342717Y389501D01*
X342759Y389765D01*
X342787Y389862D01*
Y389959D01*
X342800Y390028D01*
Y390098D01*
Y390125D01*
Y390139D01*
X342773Y390541D01*
X342717Y390902D01*
X342648Y391207D01*
X342551Y391471D01*
X342509Y391581D01*
X342454Y391693D01*
X342412Y391776D01*
X342384Y391845D01*
X342343Y391900D01*
X342329Y391942D01*
X342301Y391956D01*
Y391970D01*
X342204Y392108D01*
X342079Y392220D01*
X341968Y392330D01*
X341843Y392427D01*
X341594Y392566D01*
X341344Y392677D01*
X341122Y392733D01*
X341025Y392760D01*
X340942Y392774D01*
X340873Y392788D01*
X340817Y392802D01*
X340776D01*
X340498Y392788D01*
X340235Y392747D01*
X339985Y392649D01*
X339749Y392525D01*
X339541Y392372D01*
X339347Y392206D01*
X339167Y392011D01*
X339014Y391831D01*
X338876Y391637D01*
X338751Y391443D01*
X338654Y391263D01*
X338571Y391110D01*
X338501Y390971D01*
X338460Y390874D01*
X338432Y390805D01*
X338418Y390777D01*
X338349Y390611D01*
X338238Y390500D01*
X338113Y390417D01*
X337974Y390347D01*
X337863Y390320D01*
X337752Y390306D01*
X337683Y390292D01*
X337655D01*
X337517Y390306D01*
X337392Y390333D01*
X337281Y390375D01*
X337184Y390417D01*
X337100Y390472D01*
X337045Y390514D01*
X337003Y390541D01*
X336990Y390555D01*
X336893Y390652D01*
X336823Y390763D01*
X336768Y390860D01*
X336740Y390971D01*
X336712Y391054D01*
X336698Y391124D01*
Y391179D01*
Y391193D01*
X336712Y391318D01*
X336726Y391415D01*
X336740Y391484D01*
Y391512D01*
X336837Y391776D01*
X336948Y392039D01*
X337073Y392275D01*
X337198Y392497D01*
X337322Y392705D01*
X337461Y392899D01*
X337586Y393079D01*
X337711Y393232D01*
X337822Y393371D01*
X337933Y393495D01*
X338044Y393606D01*
X338127Y393689D01*
X338196Y393759D01*
X338252Y393801D01*
X338279Y393828D01*
X338293Y393842D01*
X338515Y394008D01*
X338737Y394147D01*
X338959Y394258D01*
X339181Y394355D01*
X339403Y394438D01*
X339625Y394508D01*
X339833Y394563D01*
X340027Y394605D01*
X340221Y394633D01*
X340387Y394646D01*
X340540Y394660D01*
X340914D01*
X341247Y394619D01*
D02*
G37*
G36*
X354117Y394466D02*
X354256Y394438D01*
X354394Y394397D01*
X354492Y394328D01*
X354589Y394258D01*
X354658Y394175D01*
X354783Y394008D01*
X354838Y393828D01*
X354880Y393689D01*
X354894Y393620D01*
Y393579D01*
Y393551D01*
Y393537D01*
X354880Y393371D01*
X354852Y393232D01*
X354810Y393093D01*
X354741Y392996D01*
X354672Y392899D01*
X354602Y392830D01*
X354422Y392705D01*
X354256Y392649D01*
X354103Y392608D01*
X354034Y392594D01*
X349388D01*
X349527Y392164D01*
X349679Y391776D01*
X349818Y391443D01*
X349957Y391152D01*
X350026Y391013D01*
X350081Y390902D01*
X350137Y390805D01*
X350192Y390736D01*
X350220Y390666D01*
X350248Y390625D01*
X350275Y390597D01*
Y390583D01*
X350456Y390320D01*
X350650Y390070D01*
X350872Y389834D01*
X351094Y389598D01*
X351551Y389168D01*
X351787Y388974D01*
X352023Y388794D01*
X352231Y388641D01*
X352439Y388489D01*
X352619Y388364D01*
X352772Y388253D01*
X352910Y388170D01*
X353008Y388114D01*
X353063Y388073D01*
X353091Y388059D01*
X353438Y387837D01*
X353729Y387601D01*
X353992Y387338D01*
X354214Y387088D01*
X354408Y386825D01*
X354561Y386547D01*
X354686Y386298D01*
X354797Y386048D01*
X354866Y385812D01*
X354935Y385590D01*
X354977Y385396D01*
X355005Y385216D01*
X355019Y385077D01*
X355032Y384966D01*
Y384911D01*
Y384883D01*
X355019Y384647D01*
X354991Y384412D01*
X354935Y384190D01*
X354866Y383982D01*
X354700Y383607D01*
X354602Y383427D01*
X354505Y383274D01*
X354394Y383136D01*
X354297Y383011D01*
X354214Y382900D01*
X354131Y382803D01*
X354062Y382733D01*
X354006Y382678D01*
X353978Y382650D01*
X353965Y382636D01*
X353798Y382484D01*
X353618Y382345D01*
X353424Y382220D01*
X353229Y382123D01*
X353021Y382040D01*
X352827Y381971D01*
X352425Y381860D01*
X352245Y381818D01*
X352065Y381790D01*
X351912Y381777D01*
X351773Y381763D01*
X351662Y381749D01*
X351260D01*
X351024Y381777D01*
X350581Y381860D01*
X350165Y381985D01*
X349790Y382151D01*
X349457Y382331D01*
X349152Y382553D01*
X348875Y382775D01*
X348639Y383011D01*
X348445Y383260D01*
X348265Y383482D01*
X348126Y383704D01*
X348001Y383885D01*
X347918Y384051D01*
X347862Y384176D01*
X347821Y384259D01*
X347807Y384273D01*
Y384287D01*
X347765Y384425D01*
X347738Y384550D01*
X347724Y384606D01*
Y384633D01*
Y384661D01*
Y384675D01*
X347738Y384814D01*
X347765Y384939D01*
X347807Y385050D01*
X347862Y385147D01*
X347918Y385216D01*
X347960Y385285D01*
X347987Y385313D01*
X348001Y385327D01*
X348112Y385410D01*
X348223Y385466D01*
X348334Y385521D01*
X348431Y385549D01*
X348528Y385563D01*
X348597Y385577D01*
X348653D01*
X348847Y385549D01*
X349013Y385493D01*
X349152Y385396D01*
X349263Y385285D01*
X349346Y385188D01*
X349402Y385091D01*
X349430Y385036D01*
X349443Y385008D01*
X349582Y384730D01*
X349721Y384495D01*
X349873Y384301D01*
X350026Y384134D01*
X350151Y384023D01*
X350248Y383940D01*
X350317Y383885D01*
X350345Y383871D01*
X350511Y383787D01*
X350705Y383732D01*
X350900Y383690D01*
X351108Y383663D01*
X351288Y383649D01*
X351440Y383635D01*
X351579D01*
X351829Y383649D01*
X352037Y383690D01*
X352231Y383760D01*
X352383Y383829D01*
X352508Y383912D01*
X352605Y383968D01*
X352661Y384023D01*
X352675Y384037D01*
X352813Y384190D01*
X352910Y384356D01*
X352980Y384523D01*
X353021Y384675D01*
X353063Y384814D01*
X353077Y384925D01*
Y384994D01*
Y385022D01*
X353063Y385188D01*
X353035Y385355D01*
X352994Y385507D01*
X352938Y385646D01*
X352786Y385896D01*
X352619Y386104D01*
X352439Y386256D01*
X352300Y386381D01*
X352231Y386423D01*
X352189Y386450D01*
X352162Y386478D01*
X352148D01*
X351787Y386700D01*
X351440Y386922D01*
X351121Y387144D01*
X350830Y387365D01*
X350553Y387587D01*
X350303Y387795D01*
X350067Y388004D01*
X349859Y388198D01*
X349679Y388378D01*
X349513Y388544D01*
X349374Y388697D01*
X349263Y388822D01*
X349166Y388933D01*
X349111Y389002D01*
X349069Y389058D01*
X349055Y389071D01*
X348750Y389515D01*
X348473Y389987D01*
X348237Y390430D01*
X348043Y390860D01*
X347973Y391054D01*
X347890Y391235D01*
X347835Y391387D01*
X347779Y391526D01*
X347752Y391637D01*
X347724Y391720D01*
X347696Y391776D01*
Y391790D01*
X347585Y392261D01*
X347474Y392719D01*
X347363Y393176D01*
X347322Y393384D01*
X347280Y393592D01*
X347238Y393773D01*
X347197Y393953D01*
X347169Y394106D01*
X347141Y394230D01*
X347113Y394341D01*
X347100Y394411D01*
X347086Y394466D01*
Y394480D01*
X353951D01*
X354117Y394466D01*
D02*
G37*
G36*
X-343720Y431319D02*
X-343581Y431291D01*
X-343442Y431249D01*
X-343345Y431194D01*
X-343248Y431125D01*
X-343179Y431041D01*
X-343054Y430875D01*
X-342999Y430709D01*
X-342957Y430556D01*
X-342943Y430500D01*
Y430459D01*
Y430431D01*
Y430417D01*
Y419489D01*
X-342957Y419323D01*
X-342985Y419184D01*
X-343027Y419059D01*
X-343096Y418948D01*
X-343165Y418865D01*
X-343234Y418782D01*
X-343415Y418671D01*
X-343581Y418615D01*
X-343734Y418574D01*
X-343803Y418560D01*
X-343886D01*
X-344053Y418574D01*
X-344191Y418601D01*
X-344316Y418643D01*
X-344413Y418699D01*
X-344510Y418782D01*
X-344580Y418851D01*
X-344691Y419017D01*
X-344746Y419198D01*
X-344788Y419336D01*
X-344802Y419406D01*
Y419447D01*
Y419475D01*
Y419489D01*
Y430417D01*
X-344788Y430584D01*
X-344760Y430722D01*
X-344718Y430847D01*
X-344663Y430944D01*
X-344594Y431041D01*
X-344510Y431111D01*
X-344344Y431222D01*
X-344178Y431277D01*
X-344025Y431319D01*
X-343969Y431333D01*
X-343886D01*
X-343720Y431319D01*
D02*
G37*
G36*
X341247Y432719D02*
X341552Y432663D01*
X341843Y432594D01*
X342107Y432497D01*
X342357Y432386D01*
X342579Y432275D01*
X342773Y432150D01*
X342953Y432039D01*
X343119Y431914D01*
X343258Y431803D01*
X343369Y431693D01*
X343466Y431595D01*
X343535Y431512D01*
X343591Y431457D01*
X343619Y431415D01*
X343633Y431401D01*
X343813Y431152D01*
X343951Y430902D01*
X344090Y430639D01*
X344201Y430375D01*
X344298Y430098D01*
X344381Y429834D01*
X344437Y429585D01*
X344492Y429335D01*
X344534Y429113D01*
X344562Y428905D01*
X344590Y428711D01*
X344603Y428558D01*
X344617Y428419D01*
Y428322D01*
Y428267D01*
Y428239D01*
X344603Y427906D01*
X344562Y427587D01*
X344506Y427268D01*
X344423Y426977D01*
X344326Y426700D01*
X344229Y426436D01*
X344118Y426201D01*
X344007Y425979D01*
X343882Y425771D01*
X343771Y425604D01*
X343674Y425438D01*
X343577Y425313D01*
X343494Y425216D01*
X343438Y425133D01*
X343397Y425091D01*
X343383Y425077D01*
X343147Y424841D01*
X342911Y424633D01*
X342662Y424453D01*
X342426Y424301D01*
X342176Y424162D01*
X341941Y424065D01*
X341719Y423968D01*
X341511Y423898D01*
X341303Y423843D01*
X341122Y423801D01*
X340956Y423774D01*
X340817Y423746D01*
X340706D01*
X340623Y423732D01*
X340332D01*
X340138Y423746D01*
X339944Y423760D01*
X339777Y423787D01*
X339611Y423815D01*
X339458Y423843D01*
X339333Y423885D01*
X339208Y423912D01*
X339111Y423940D01*
X339014Y423982D01*
X338945Y424009D01*
X338876Y424037D01*
X338834Y424065D01*
X338792Y424079D01*
X338779Y424093D01*
X338765D01*
Y421846D01*
X342773D01*
X342939Y421832D01*
X343078Y421804D01*
X343203Y421763D01*
X343314Y421693D01*
X343397Y421624D01*
X343480Y421555D01*
X343591Y421374D01*
X343646Y421208D01*
X343688Y421055D01*
X343702Y421000D01*
Y420958D01*
Y420931D01*
Y420917D01*
X343688Y420750D01*
X343660Y420612D01*
X343619Y420487D01*
X343563Y420376D01*
X343480Y420293D01*
X343411Y420209D01*
X343244Y420098D01*
X343064Y420043D01*
X342925Y420001D01*
X342856Y419987D01*
X336948D01*
Y425784D01*
X336962Y425937D01*
X336976Y426062D01*
X337017Y426173D01*
X337073Y426270D01*
X337128Y426353D01*
X337198Y426423D01*
X337336Y426520D01*
X337475Y426589D01*
X337600Y426617D01*
X337697Y426631D01*
X337725D01*
X337849Y426617D01*
X337988Y426575D01*
X338127Y426520D01*
X338252Y426450D01*
X338349Y426381D01*
X338446Y426325D01*
X338501Y426284D01*
X338515Y426270D01*
X338668Y426159D01*
X338834Y426048D01*
X339181Y425896D01*
X339514Y425771D01*
X339846Y425701D01*
X339999Y425674D01*
X340124Y425646D01*
X340249Y425632D01*
X340360D01*
X340443Y425618D01*
X340568D01*
X340734Y425632D01*
X340887Y425646D01*
X341178Y425743D01*
X341441Y425868D01*
X341677Y426006D01*
X341857Y426145D01*
X341996Y426270D01*
X342052Y426325D01*
X342093Y426367D01*
X342107Y426381D01*
X342121Y426395D01*
X342246Y426547D01*
X342343Y426700D01*
X342440Y426852D01*
X342509Y427005D01*
X342634Y427324D01*
X342717Y427601D01*
X342759Y427865D01*
X342787Y427962D01*
Y428059D01*
X342800Y428128D01*
Y428198D01*
Y428225D01*
Y428239D01*
X342773Y428641D01*
X342717Y429002D01*
X342648Y429307D01*
X342551Y429571D01*
X342509Y429682D01*
X342454Y429793D01*
X342412Y429876D01*
X342384Y429945D01*
X342343Y430000D01*
X342329Y430042D01*
X342301Y430056D01*
Y430070D01*
X342204Y430209D01*
X342079Y430320D01*
X341968Y430430D01*
X341843Y430527D01*
X341594Y430666D01*
X341344Y430777D01*
X341122Y430833D01*
X341025Y430860D01*
X340942Y430874D01*
X340873Y430888D01*
X340817Y430902D01*
X340776D01*
X340498Y430888D01*
X340235Y430846D01*
X339985Y430749D01*
X339749Y430625D01*
X339541Y430472D01*
X339347Y430306D01*
X339167Y430112D01*
X339014Y429931D01*
X338876Y429737D01*
X338751Y429543D01*
X338654Y429363D01*
X338571Y429210D01*
X338501Y429071D01*
X338460Y428974D01*
X338432Y428905D01*
X338418Y428877D01*
X338349Y428711D01*
X338238Y428600D01*
X338113Y428517D01*
X337974Y428447D01*
X337863Y428419D01*
X337752Y428406D01*
X337683Y428392D01*
X337655D01*
X337517Y428406D01*
X337392Y428433D01*
X337281Y428475D01*
X337184Y428517D01*
X337100Y428572D01*
X337045Y428614D01*
X337003Y428641D01*
X336990Y428655D01*
X336893Y428752D01*
X336823Y428863D01*
X336768Y428960D01*
X336740Y429071D01*
X336712Y429155D01*
X336698Y429224D01*
Y429279D01*
Y429293D01*
X336712Y429418D01*
X336726Y429515D01*
X336740Y429585D01*
Y429612D01*
X336837Y429876D01*
X336948Y430139D01*
X337073Y430375D01*
X337198Y430597D01*
X337322Y430805D01*
X337461Y430999D01*
X337586Y431179D01*
X337711Y431332D01*
X337822Y431471D01*
X337933Y431595D01*
X338044Y431706D01*
X338127Y431790D01*
X338196Y431859D01*
X338252Y431900D01*
X338279Y431928D01*
X338293Y431942D01*
X338515Y432108D01*
X338737Y432247D01*
X338959Y432358D01*
X339181Y432455D01*
X339403Y432538D01*
X339625Y432608D01*
X339833Y432663D01*
X340027Y432705D01*
X340221Y432733D01*
X340387Y432747D01*
X340540Y432760D01*
X340914D01*
X341247Y432719D01*
D02*
G37*
G36*
X348903D02*
X349041Y432691D01*
X349180Y432649D01*
X349277Y432594D01*
X349374Y432525D01*
X349443Y432441D01*
X349568Y432275D01*
X349624Y432108D01*
X349665Y431956D01*
X349679Y431900D01*
Y431859D01*
Y431831D01*
Y431817D01*
Y420889D01*
X349665Y420723D01*
X349638Y420584D01*
X349596Y420459D01*
X349527Y420348D01*
X349457Y420265D01*
X349388Y420182D01*
X349208Y420071D01*
X349041Y420015D01*
X348889Y419974D01*
X348819Y419960D01*
X348736D01*
X348570Y419974D01*
X348431Y420001D01*
X348306Y420043D01*
X348209Y420098D01*
X348112Y420182D01*
X348043Y420251D01*
X347932Y420417D01*
X347876Y420598D01*
X347835Y420736D01*
X347821Y420806D01*
Y420847D01*
Y420875D01*
Y420889D01*
Y431817D01*
X347835Y431984D01*
X347862Y432122D01*
X347904Y432247D01*
X347960Y432344D01*
X348029Y432441D01*
X348112Y432511D01*
X348279Y432622D01*
X348445Y432677D01*
X348597Y432719D01*
X348653Y432733D01*
X348736D01*
X348903Y432719D01*
D02*
G37*
G36*
X343407Y340735D02*
X343393Y340569D01*
X343365Y340430D01*
X343324Y340291D01*
X343254Y340194D01*
X343185Y340097D01*
X343102Y340028D01*
X342935Y339903D01*
X342755Y339848D01*
X342616Y339806D01*
X342547Y339792D01*
X342505D01*
X342477D01*
X342464D01*
X342297Y339806D01*
X342159Y339834D01*
X342020Y339875D01*
X341923Y339945D01*
X341826Y340014D01*
X341756Y340083D01*
X341632Y340264D01*
X341576Y340430D01*
X341535Y340583D01*
X341521Y340652D01*
Y345298D01*
X341091Y345159D01*
X340702Y345007D01*
X340369Y344868D01*
X340078Y344729D01*
X339940Y344660D01*
X339829Y344604D01*
X339732Y344549D01*
X339662Y344493D01*
X339593Y344466D01*
X339551Y344438D01*
X339524Y344410D01*
X339510D01*
X339246Y344230D01*
X338997Y344036D01*
X338761Y343814D01*
X338525Y343592D01*
X338095Y343134D01*
X337901Y342899D01*
X337721Y342663D01*
X337568Y342455D01*
X337416Y342247D01*
X337291Y342066D01*
X337180Y341914D01*
X337097Y341775D01*
X337041Y341678D01*
X337000Y341623D01*
X336986Y341595D01*
X336764Y341248D01*
X336528Y340957D01*
X336264Y340694D01*
X336015Y340472D01*
X335751Y340277D01*
X335474Y340125D01*
X335224Y340000D01*
X334975Y339889D01*
X334739Y339820D01*
X334517Y339751D01*
X334323Y339709D01*
X334143Y339681D01*
X334004Y339667D01*
X333893Y339653D01*
X333838D01*
X333810D01*
X333574Y339667D01*
X333338Y339695D01*
X333116Y339751D01*
X332908Y339820D01*
X332534Y339986D01*
X332354Y340083D01*
X332201Y340180D01*
X332062Y340291D01*
X331937Y340388D01*
X331827Y340472D01*
X331730Y340555D01*
X331660Y340624D01*
X331605Y340680D01*
X331577Y340707D01*
X331563Y340721D01*
X331410Y340888D01*
X331272Y341068D01*
X331147Y341262D01*
X331050Y341456D01*
X330967Y341664D01*
X330897Y341858D01*
X330787Y342261D01*
X330745Y342441D01*
X330717Y342621D01*
X330703Y342774D01*
X330689Y342912D01*
X330676Y343023D01*
Y343426D01*
X330703Y343661D01*
X330787Y344105D01*
X330911Y344521D01*
X331078Y344896D01*
X331258Y345229D01*
X331480Y345534D01*
X331702Y345811D01*
X331937Y346047D01*
X332187Y346241D01*
X332409Y346421D01*
X332631Y346560D01*
X332811Y346685D01*
X332978Y346768D01*
X333102Y346823D01*
X333186Y346865D01*
X333200Y346879D01*
X333213D01*
X333352Y346920D01*
X333477Y346948D01*
X333532Y346962D01*
X333560D01*
X333588D01*
X333602D01*
X333740Y346948D01*
X333865Y346920D01*
X333976Y346879D01*
X334073Y346823D01*
X334143Y346768D01*
X334212Y346726D01*
X334240Y346698D01*
X334254Y346685D01*
X334337Y346574D01*
X334392Y346463D01*
X334448Y346352D01*
X334476Y346255D01*
X334489Y346158D01*
X334503Y346088D01*
Y346033D01*
X334476Y345839D01*
X334420Y345672D01*
X334323Y345534D01*
X334212Y345423D01*
X334115Y345339D01*
X334018Y345284D01*
X333962Y345256D01*
X333935Y345242D01*
X333657Y345104D01*
X333422Y344965D01*
X333227Y344812D01*
X333061Y344660D01*
X332950Y344535D01*
X332867Y344438D01*
X332811Y344369D01*
X332797Y344341D01*
X332714Y344174D01*
X332659Y343980D01*
X332617Y343786D01*
X332589Y343578D01*
X332575Y343398D01*
X332562Y343245D01*
Y343107D01*
X332575Y342857D01*
X332617Y342649D01*
X332686Y342455D01*
X332756Y342302D01*
X332839Y342177D01*
X332895Y342080D01*
X332950Y342025D01*
X332964Y342011D01*
X333116Y341872D01*
X333283Y341775D01*
X333449Y341706D01*
X333602Y341664D01*
X333740Y341623D01*
X333851Y341609D01*
X333921D01*
X333949D01*
X334115Y341623D01*
X334281Y341650D01*
X334434Y341692D01*
X334572Y341748D01*
X334822Y341900D01*
X335030Y342066D01*
X335183Y342247D01*
X335308Y342385D01*
X335349Y342455D01*
X335377Y342496D01*
X335405Y342524D01*
Y342538D01*
X335626Y342899D01*
X335848Y343245D01*
X336070Y343564D01*
X336292Y343856D01*
X336514Y344133D01*
X336722Y344383D01*
X336930Y344618D01*
X337124Y344826D01*
X337305Y345007D01*
X337471Y345173D01*
X337624Y345312D01*
X337748Y345423D01*
X337859Y345520D01*
X337929Y345575D01*
X337984Y345617D01*
X337998Y345631D01*
X338442Y345936D01*
X338913Y346213D01*
X339357Y346449D01*
X339787Y346643D01*
X339981Y346712D01*
X340162Y346796D01*
X340314Y346851D01*
X340453Y346907D01*
X340564Y346934D01*
X340647Y346962D01*
X340702Y346990D01*
X340716D01*
X341188Y347101D01*
X341645Y347212D01*
X342103Y347323D01*
X342311Y347364D01*
X342519Y347406D01*
X342699Y347447D01*
X342880Y347489D01*
X343032Y347517D01*
X343157Y347545D01*
X343268Y347572D01*
X343337Y347586D01*
X343393Y347600D01*
X343407D01*
Y340735D01*
D02*
G37*
G36*
X340545Y-336914D02*
X340642Y-336928D01*
X340711Y-336942D01*
X340739D01*
X341002Y-337039D01*
X341266Y-337150D01*
X341502Y-337274D01*
X341724Y-337399D01*
X341931Y-337524D01*
X342126Y-337663D01*
X342306Y-337788D01*
X342458Y-337912D01*
X342597Y-338023D01*
X342722Y-338134D01*
X342833Y-338245D01*
X342916Y-338328D01*
X342985Y-338398D01*
X343027Y-338453D01*
X343055Y-338481D01*
X343069Y-338495D01*
X343235Y-338717D01*
X343374Y-338939D01*
X343485Y-339160D01*
X343582Y-339382D01*
X343665Y-339604D01*
X343734Y-339826D01*
X343790Y-340034D01*
X343831Y-340228D01*
X343859Y-340423D01*
X343873Y-340589D01*
X343887Y-340742D01*
Y-341116D01*
X343845Y-341449D01*
X343790Y-341754D01*
X343721Y-342045D01*
X343624Y-342309D01*
X343512Y-342558D01*
X343402Y-342780D01*
X343277Y-342974D01*
X343166Y-343155D01*
X343041Y-343321D01*
X342930Y-343460D01*
X342819Y-343571D01*
X342722Y-343668D01*
X342639Y-343737D01*
X342583Y-343793D01*
X342542Y-343820D01*
X342528Y-343834D01*
X342278Y-344015D01*
X342029Y-344153D01*
X341765Y-344292D01*
X341502Y-344403D01*
X341224Y-344500D01*
X340961Y-344583D01*
X340711Y-344639D01*
X340462Y-344694D01*
X340240Y-344736D01*
X340032Y-344763D01*
X339837Y-344791D01*
X339685Y-344805D01*
X339546Y-344819D01*
X339449D01*
X339394D01*
X339366D01*
X339033Y-344805D01*
X338714Y-344763D01*
X338395Y-344708D01*
X338104Y-344625D01*
X337826Y-344528D01*
X337563Y-344431D01*
X337327Y-344320D01*
X337105Y-344209D01*
X336897Y-344084D01*
X336731Y-343973D01*
X336564Y-343876D01*
X336440Y-343779D01*
X336343Y-343695D01*
X336259Y-343640D01*
X336218Y-343598D01*
X336204Y-343585D01*
X335968Y-343349D01*
X335760Y-343113D01*
X335580Y-342863D01*
X335427Y-342628D01*
X335289Y-342378D01*
X335191Y-342142D01*
X335094Y-341920D01*
X335025Y-341712D01*
X334970Y-341504D01*
X334928Y-341324D01*
X334900Y-341158D01*
X334873Y-341019D01*
Y-340908D01*
X334859Y-340825D01*
Y-340533D01*
X334873Y-340339D01*
X334886Y-340145D01*
X334914Y-339979D01*
X334942Y-339812D01*
X334970Y-339660D01*
X335011Y-339535D01*
X335039Y-339410D01*
X335067Y-339313D01*
X335108Y-339216D01*
X335136Y-339147D01*
X335164Y-339077D01*
X335191Y-339036D01*
X335205Y-338994D01*
X335219Y-338980D01*
Y-338966D01*
X332973D01*
Y-342974D01*
X332959Y-343141D01*
X332931Y-343279D01*
X332889Y-343404D01*
X332820Y-343515D01*
X332751Y-343598D01*
X332681Y-343682D01*
X332501Y-343793D01*
X332335Y-343848D01*
X332182Y-343890D01*
X332127Y-343904D01*
X332085D01*
X332057D01*
X332043D01*
X331877Y-343890D01*
X331738Y-343862D01*
X331614Y-343820D01*
X331502Y-343765D01*
X331419Y-343682D01*
X331336Y-343612D01*
X331225Y-343446D01*
X331170Y-343266D01*
X331128Y-343127D01*
X331114Y-343058D01*
Y-337150D01*
X336911D01*
X337064Y-337164D01*
X337189Y-337177D01*
X337299Y-337219D01*
X337397Y-337274D01*
X337480Y-337330D01*
X337549Y-337399D01*
X337646Y-337538D01*
X337716Y-337677D01*
X337743Y-337801D01*
X337757Y-337898D01*
Y-337926D01*
X337743Y-338051D01*
X337702Y-338190D01*
X337646Y-338328D01*
X337577Y-338453D01*
X337508Y-338550D01*
X337452Y-338647D01*
X337411Y-338703D01*
X337397Y-338717D01*
X337286Y-338869D01*
X337175Y-339036D01*
X337022Y-339382D01*
X336897Y-339715D01*
X336828Y-340048D01*
X336800Y-340201D01*
X336772Y-340326D01*
X336759Y-340450D01*
Y-340561D01*
X336745Y-340644D01*
Y-340769D01*
X336759Y-340936D01*
X336772Y-341088D01*
X336870Y-341380D01*
X336994Y-341643D01*
X337133Y-341879D01*
X337272Y-342059D01*
X337397Y-342198D01*
X337452Y-342253D01*
X337494Y-342295D01*
X337508Y-342309D01*
X337521Y-342323D01*
X337674Y-342447D01*
X337826Y-342544D01*
X337979Y-342641D01*
X338132Y-342711D01*
X338451Y-342836D01*
X338728Y-342919D01*
X338991Y-342961D01*
X339089Y-342988D01*
X339186D01*
X339255Y-343002D01*
X339324D01*
X339352D01*
X339366D01*
X339768Y-342974D01*
X340129Y-342919D01*
X340434Y-342850D01*
X340697Y-342752D01*
X340808Y-342711D01*
X340919Y-342655D01*
X341002Y-342614D01*
X341072Y-342586D01*
X341127Y-342544D01*
X341169Y-342531D01*
X341183Y-342503D01*
X341197D01*
X341335Y-342406D01*
X341446Y-342281D01*
X341557Y-342170D01*
X341654Y-342045D01*
X341793Y-341796D01*
X341904Y-341546D01*
X341959Y-341324D01*
X341987Y-341227D01*
X342001Y-341144D01*
X342015Y-341074D01*
X342029Y-341019D01*
Y-340977D01*
X342015Y-340700D01*
X341973Y-340436D01*
X341876Y-340187D01*
X341751Y-339951D01*
X341599Y-339743D01*
X341432Y-339549D01*
X341238Y-339369D01*
X341058Y-339216D01*
X340864Y-339077D01*
X340670Y-338952D01*
X340489Y-338855D01*
X340337Y-338772D01*
X340198Y-338703D01*
X340101Y-338661D01*
X340032Y-338633D01*
X340004Y-338620D01*
X339837Y-338550D01*
X339726Y-338439D01*
X339643Y-338315D01*
X339574Y-338176D01*
X339546Y-338065D01*
X339532Y-337954D01*
X339518Y-337885D01*
Y-337857D01*
X339532Y-337718D01*
X339560Y-337593D01*
X339602Y-337482D01*
X339643Y-337385D01*
X339699Y-337302D01*
X339740Y-337247D01*
X339768Y-337205D01*
X339782Y-337191D01*
X339879Y-337094D01*
X339990Y-337025D01*
X340087Y-336969D01*
X340198Y-336942D01*
X340281Y-336914D01*
X340351Y-336900D01*
X340406D01*
X340420D01*
X340545Y-336914D01*
D02*
G37*
G36*
X343707Y-354152D02*
X343693Y-354319D01*
X343665Y-354457D01*
X343624Y-354596D01*
X343554Y-354693D01*
X343485Y-354790D01*
X343402Y-354860D01*
X343235Y-354984D01*
X343055Y-355040D01*
X342916Y-355081D01*
X342847Y-355095D01*
X342805D01*
X342777D01*
X342764D01*
X342597Y-355081D01*
X342458Y-355054D01*
X342320Y-355012D01*
X342223Y-354943D01*
X342126Y-354873D01*
X342056Y-354804D01*
X341931Y-354624D01*
X341876Y-354457D01*
X341834Y-354305D01*
X341821Y-354235D01*
Y-349590D01*
X341391Y-349728D01*
X341002Y-349881D01*
X340670Y-350019D01*
X340378Y-350158D01*
X340240Y-350228D01*
X340129Y-350283D01*
X340032Y-350339D01*
X339962Y-350394D01*
X339893Y-350422D01*
X339851Y-350449D01*
X339824Y-350477D01*
X339810D01*
X339546Y-350657D01*
X339297Y-350852D01*
X339061Y-351073D01*
X338825Y-351295D01*
X338395Y-351753D01*
X338201Y-351989D01*
X338021Y-352225D01*
X337868Y-352433D01*
X337716Y-352641D01*
X337591Y-352821D01*
X337480Y-352974D01*
X337397Y-353112D01*
X337341Y-353209D01*
X337299Y-353265D01*
X337286Y-353292D01*
X337064Y-353639D01*
X336828Y-353930D01*
X336564Y-354194D01*
X336315Y-354416D01*
X336051Y-354610D01*
X335774Y-354762D01*
X335524Y-354887D01*
X335275Y-354998D01*
X335039Y-355068D01*
X334817Y-355137D01*
X334623Y-355178D01*
X334443Y-355206D01*
X334304Y-355220D01*
X334193Y-355234D01*
X334137D01*
X334110D01*
X333874Y-355220D01*
X333638Y-355192D01*
X333416Y-355137D01*
X333208Y-355068D01*
X332834Y-354901D01*
X332654Y-354804D01*
X332501Y-354707D01*
X332362Y-354596D01*
X332238Y-354499D01*
X332127Y-354416D01*
X332029Y-354333D01*
X331960Y-354263D01*
X331905Y-354208D01*
X331877Y-354180D01*
X331863Y-354166D01*
X331711Y-354000D01*
X331572Y-353819D01*
X331447Y-353625D01*
X331350Y-353431D01*
X331267Y-353223D01*
X331197Y-353029D01*
X331087Y-352627D01*
X331045Y-352447D01*
X331017Y-352266D01*
X331003Y-352114D01*
X330989Y-351975D01*
X330975Y-351864D01*
Y-351462D01*
X331003Y-351226D01*
X331087Y-350782D01*
X331211Y-350366D01*
X331378Y-349992D01*
X331558Y-349659D01*
X331780Y-349354D01*
X332002Y-349076D01*
X332238Y-348841D01*
X332487Y-348647D01*
X332709Y-348466D01*
X332931Y-348327D01*
X333111Y-348203D01*
X333278Y-348120D01*
X333402Y-348064D01*
X333486Y-348022D01*
X333500Y-348009D01*
X333513D01*
X333652Y-347967D01*
X333777Y-347939D01*
X333832Y-347925D01*
X333860D01*
X333888D01*
X333902D01*
X334040Y-347939D01*
X334165Y-347967D01*
X334276Y-348009D01*
X334373Y-348064D01*
X334443Y-348120D01*
X334512Y-348161D01*
X334540Y-348189D01*
X334554Y-348203D01*
X334637Y-348314D01*
X334692Y-348425D01*
X334748Y-348536D01*
X334776Y-348633D01*
X334789Y-348730D01*
X334803Y-348799D01*
Y-348854D01*
X334776Y-349049D01*
X334720Y-349215D01*
X334623Y-349354D01*
X334512Y-349465D01*
X334415Y-349548D01*
X334318Y-349603D01*
X334262Y-349631D01*
X334235Y-349645D01*
X333957Y-349784D01*
X333722Y-349922D01*
X333527Y-350075D01*
X333361Y-350228D01*
X333250Y-350352D01*
X333167Y-350449D01*
X333111Y-350519D01*
X333097Y-350546D01*
X333014Y-350713D01*
X332959Y-350907D01*
X332917Y-351101D01*
X332889Y-351309D01*
X332876Y-351489D01*
X332862Y-351642D01*
Y-351781D01*
X332876Y-352030D01*
X332917Y-352238D01*
X332986Y-352433D01*
X333056Y-352585D01*
X333139Y-352710D01*
X333195Y-352807D01*
X333250Y-352863D01*
X333264Y-352876D01*
X333416Y-353015D01*
X333583Y-353112D01*
X333749Y-353181D01*
X333902Y-353223D01*
X334040Y-353265D01*
X334151Y-353279D01*
X334221D01*
X334249D01*
X334415Y-353265D01*
X334581Y-353237D01*
X334734Y-353195D01*
X334873Y-353140D01*
X335122Y-352987D01*
X335330Y-352821D01*
X335483Y-352641D01*
X335608Y-352502D01*
X335649Y-352433D01*
X335677Y-352391D01*
X335705Y-352363D01*
Y-352349D01*
X335927Y-351989D01*
X336148Y-351642D01*
X336370Y-351323D01*
X336592Y-351032D01*
X336814Y-350755D01*
X337022Y-350505D01*
X337230Y-350269D01*
X337424Y-350061D01*
X337605Y-349881D01*
X337771Y-349714D01*
X337924Y-349576D01*
X338048Y-349465D01*
X338159Y-349368D01*
X338229Y-349312D01*
X338284Y-349271D01*
X338298Y-349257D01*
X338742Y-348952D01*
X339213Y-348674D01*
X339657Y-348438D01*
X340087Y-348244D01*
X340281Y-348175D01*
X340462Y-348092D01*
X340614Y-348036D01*
X340753Y-347981D01*
X340864Y-347953D01*
X340947Y-347925D01*
X341002Y-347898D01*
X341016D01*
X341488Y-347787D01*
X341945Y-347676D01*
X342403Y-347565D01*
X342611Y-347523D01*
X342819Y-347482D01*
X342999Y-347440D01*
X343180Y-347398D01*
X343332Y-347371D01*
X343457Y-347343D01*
X343568Y-347315D01*
X343637Y-347301D01*
X343693Y-347287D01*
X343707D01*
Y-354152D01*
D02*
G37*
G36*
X379810Y344586D02*
X379949Y344558D01*
X380074Y344517D01*
X380171Y344461D01*
X380268Y344392D01*
X380337Y344309D01*
X380448Y344142D01*
X380504Y343976D01*
X380545Y343823D01*
X380559Y343768D01*
Y343685D01*
X380545Y343518D01*
X380518Y343380D01*
X380476Y343241D01*
X380421Y343144D01*
X380351Y343047D01*
X380268Y342977D01*
X380102Y342853D01*
X379935Y342797D01*
X379783Y342756D01*
X379727Y342742D01*
X379686D01*
X379658D01*
X379644D01*
X368716D01*
X368549Y342756D01*
X368410Y342783D01*
X368286Y342825D01*
X368175Y342894D01*
X368092Y342963D01*
X368008Y343033D01*
X367897Y343213D01*
X367842Y343380D01*
X367800Y343532D01*
X367786Y343601D01*
Y343685D01*
X367800Y343851D01*
X367828Y343990D01*
X367870Y344115D01*
X367925Y344212D01*
X368008Y344309D01*
X368078Y344378D01*
X368244Y344489D01*
X368424Y344544D01*
X368563Y344586D01*
X368632Y344600D01*
X368674D01*
X368702D01*
X368716D01*
X379644D01*
X379810Y344586D01*
D02*
G37*
G36*
X378645Y-336914D02*
X378742Y-336928D01*
X378811Y-336942D01*
X378839D01*
X379102Y-337039D01*
X379366Y-337150D01*
X379602Y-337274D01*
X379823Y-337399D01*
X380032Y-337524D01*
X380226Y-337663D01*
X380406Y-337788D01*
X380559Y-337912D01*
X380697Y-338023D01*
X380822Y-338134D01*
X380933Y-338245D01*
X381016Y-338328D01*
X381086Y-338398D01*
X381127Y-338453D01*
X381155Y-338481D01*
X381169Y-338495D01*
X381335Y-338717D01*
X381474Y-338939D01*
X381585Y-339160D01*
X381682Y-339382D01*
X381765Y-339604D01*
X381834Y-339826D01*
X381890Y-340034D01*
X381931Y-340228D01*
X381959Y-340423D01*
X381973Y-340589D01*
X381987Y-340742D01*
Y-341116D01*
X381945Y-341449D01*
X381890Y-341754D01*
X381821Y-342045D01*
X381724Y-342309D01*
X381613Y-342558D01*
X381502Y-342780D01*
X381377Y-342974D01*
X381266Y-343155D01*
X381141Y-343321D01*
X381030Y-343460D01*
X380919Y-343571D01*
X380822Y-343668D01*
X380739Y-343737D01*
X380683Y-343793D01*
X380642Y-343820D01*
X380628Y-343834D01*
X380378Y-344015D01*
X380129Y-344153D01*
X379865Y-344292D01*
X379602Y-344403D01*
X379324Y-344500D01*
X379061Y-344583D01*
X378811Y-344639D01*
X378562Y-344694D01*
X378340Y-344736D01*
X378132Y-344763D01*
X377937Y-344791D01*
X377785Y-344805D01*
X377646Y-344819D01*
X377549D01*
X377494D01*
X377466D01*
X377133Y-344805D01*
X376814Y-344763D01*
X376495Y-344708D01*
X376204Y-344625D01*
X375927Y-344528D01*
X375663Y-344431D01*
X375427Y-344320D01*
X375205Y-344209D01*
X374997Y-344084D01*
X374831Y-343973D01*
X374664Y-343876D01*
X374540Y-343779D01*
X374443Y-343695D01*
X374359Y-343640D01*
X374318Y-343598D01*
X374304Y-343585D01*
X374068Y-343349D01*
X373860Y-343113D01*
X373680Y-342863D01*
X373527Y-342628D01*
X373389Y-342378D01*
X373292Y-342142D01*
X373194Y-341920D01*
X373125Y-341712D01*
X373070Y-341504D01*
X373028Y-341324D01*
X373000Y-341158D01*
X372972Y-341019D01*
Y-340908D01*
X372959Y-340825D01*
Y-340533D01*
X372972Y-340339D01*
X372986Y-340145D01*
X373014Y-339979D01*
X373042Y-339812D01*
X373070Y-339660D01*
X373111Y-339535D01*
X373139Y-339410D01*
X373167Y-339313D01*
X373208Y-339216D01*
X373236Y-339147D01*
X373264Y-339077D01*
X373292Y-339036D01*
X373305Y-338994D01*
X373319Y-338980D01*
Y-338966D01*
X371073D01*
Y-342974D01*
X371059Y-343141D01*
X371031Y-343279D01*
X370989Y-343404D01*
X370920Y-343515D01*
X370851Y-343598D01*
X370781Y-343682D01*
X370601Y-343793D01*
X370435Y-343848D01*
X370282Y-343890D01*
X370227Y-343904D01*
X370185D01*
X370157D01*
X370143D01*
X369977Y-343890D01*
X369838Y-343862D01*
X369714Y-343820D01*
X369603Y-343765D01*
X369519Y-343682D01*
X369436Y-343612D01*
X369325Y-343446D01*
X369270Y-343266D01*
X369228Y-343127D01*
X369214Y-343058D01*
Y-337150D01*
X375011D01*
X375164Y-337164D01*
X375289Y-337177D01*
X375400Y-337219D01*
X375497Y-337274D01*
X375580Y-337330D01*
X375649Y-337399D01*
X375746Y-337538D01*
X375816Y-337677D01*
X375843Y-337801D01*
X375857Y-337898D01*
Y-337926D01*
X375843Y-338051D01*
X375802Y-338190D01*
X375746Y-338328D01*
X375677Y-338453D01*
X375607Y-338550D01*
X375552Y-338647D01*
X375510Y-338703D01*
X375497Y-338717D01*
X375386Y-338869D01*
X375275Y-339036D01*
X375122Y-339382D01*
X374997Y-339715D01*
X374928Y-340048D01*
X374900Y-340201D01*
X374873Y-340326D01*
X374859Y-340450D01*
Y-340561D01*
X374845Y-340644D01*
Y-340769D01*
X374859Y-340936D01*
X374873Y-341088D01*
X374970Y-341380D01*
X375094Y-341643D01*
X375233Y-341879D01*
X375372Y-342059D01*
X375497Y-342198D01*
X375552Y-342253D01*
X375594Y-342295D01*
X375607Y-342309D01*
X375621Y-342323D01*
X375774Y-342447D01*
X375927Y-342544D01*
X376079Y-342641D01*
X376232Y-342711D01*
X376551Y-342836D01*
X376828Y-342919D01*
X377091Y-342961D01*
X377188Y-342988D01*
X377286D01*
X377355Y-343002D01*
X377424D01*
X377452D01*
X377466D01*
X377868Y-342974D01*
X378229Y-342919D01*
X378534Y-342850D01*
X378797Y-342752D01*
X378908Y-342711D01*
X379019Y-342655D01*
X379102Y-342614D01*
X379172Y-342586D01*
X379227Y-342544D01*
X379269Y-342531D01*
X379283Y-342503D01*
X379296D01*
X379435Y-342406D01*
X379546Y-342281D01*
X379657Y-342170D01*
X379754Y-342045D01*
X379893Y-341796D01*
X380004Y-341546D01*
X380059Y-341324D01*
X380087Y-341227D01*
X380101Y-341144D01*
X380115Y-341074D01*
X380129Y-341019D01*
Y-340977D01*
X380115Y-340700D01*
X380073Y-340436D01*
X379976Y-340187D01*
X379851Y-339951D01*
X379699Y-339743D01*
X379532Y-339549D01*
X379338Y-339369D01*
X379158Y-339216D01*
X378964Y-339077D01*
X378769Y-338952D01*
X378589Y-338855D01*
X378437Y-338772D01*
X378298Y-338703D01*
X378201Y-338661D01*
X378132Y-338633D01*
X378104Y-338620D01*
X377937Y-338550D01*
X377826Y-338439D01*
X377743Y-338315D01*
X377674Y-338176D01*
X377646Y-338065D01*
X377632Y-337954D01*
X377618Y-337885D01*
Y-337857D01*
X377632Y-337718D01*
X377660Y-337593D01*
X377702Y-337482D01*
X377743Y-337385D01*
X377799Y-337302D01*
X377840Y-337247D01*
X377868Y-337205D01*
X377882Y-337191D01*
X377979Y-337094D01*
X378090Y-337025D01*
X378187Y-336969D01*
X378298Y-336942D01*
X378381Y-336914D01*
X378451Y-336900D01*
X378506D01*
X378520D01*
X378645Y-336914D01*
D02*
G37*
G36*
X381210Y-348036D02*
X381349Y-348064D01*
X381474Y-348106D01*
X381571Y-348161D01*
X381668Y-348231D01*
X381737Y-348314D01*
X381848Y-348480D01*
X381904Y-348647D01*
X381945Y-348799D01*
X381959Y-348854D01*
Y-348938D01*
X381945Y-349104D01*
X381918Y-349243D01*
X381876Y-349381D01*
X381821Y-349479D01*
X381751Y-349576D01*
X381668Y-349645D01*
X381502Y-349770D01*
X381335Y-349825D01*
X381183Y-349867D01*
X381127Y-349881D01*
X381086D01*
X381058D01*
X381044D01*
X370116D01*
X369949Y-349867D01*
X369810Y-349839D01*
X369686Y-349798D01*
X369575Y-349728D01*
X369492Y-349659D01*
X369408Y-349590D01*
X369297Y-349409D01*
X369242Y-349243D01*
X369200Y-349090D01*
X369187Y-349021D01*
Y-348938D01*
X369200Y-348771D01*
X369228Y-348633D01*
X369270Y-348508D01*
X369325Y-348411D01*
X369408Y-348314D01*
X369478Y-348244D01*
X369644Y-348133D01*
X369824Y-348078D01*
X369963Y-348036D01*
X370032Y-348022D01*
X370074D01*
X370102D01*
X370116D01*
X381044D01*
X381210Y-348036D01*
D02*
G37*
G36*
X370404Y360461D02*
X370504Y360420D01*
X370596Y360353D01*
X370662Y360286D01*
X370721Y360220D01*
X370754Y360153D01*
X370771Y360112D01*
X370779Y360103D01*
Y360095D01*
X372553Y355004D01*
X372595Y354821D01*
X372612Y354746D01*
X372620Y354671D01*
Y354613D01*
X372628Y354571D01*
Y354538D01*
Y354530D01*
X372620Y354430D01*
X372612Y354338D01*
X372587Y354263D01*
X372562Y354196D01*
X372537Y354138D01*
X372495Y354088D01*
X372462Y354046D01*
X372420Y354021D01*
X372345Y353980D01*
X372287Y353955D01*
X372237Y353946D01*
X369196D01*
Y353338D01*
X369188Y353238D01*
X369171Y353155D01*
X369146Y353080D01*
X369113Y353013D01*
X369071Y352963D01*
X369021Y352913D01*
X368921Y352847D01*
X368821Y352813D01*
X368729Y352788D01*
X368696Y352780D01*
X368646D01*
X368546Y352788D01*
X368463Y352805D01*
X368380Y352830D01*
X368321Y352872D01*
X368263Y352913D01*
X368221Y352955D01*
X368146Y353063D01*
X368113Y353163D01*
X368088Y353255D01*
X368080Y353288D01*
Y353313D01*
Y353330D01*
Y353338D01*
Y353946D01*
X367596D01*
X367496Y353955D01*
X367413Y353971D01*
X367330Y353996D01*
X367271Y354038D01*
X367213Y354080D01*
X367172Y354130D01*
X367096Y354230D01*
X367063Y354338D01*
X367038Y354421D01*
X367030Y354463D01*
Y354488D01*
Y354505D01*
Y354513D01*
X367038Y354613D01*
X367055Y354696D01*
X367080Y354780D01*
X367122Y354838D01*
X367163Y354896D01*
X367205Y354938D01*
X367313Y355013D01*
X367413Y355046D01*
X367505Y355071D01*
X367546Y355079D01*
X368080D01*
Y356229D01*
X368088Y356329D01*
X368105Y356412D01*
X368130Y356487D01*
X368171Y356554D01*
X368213Y356604D01*
X368255Y356654D01*
X368363Y356721D01*
X368463Y356754D01*
X368554Y356779D01*
X368596Y356787D01*
X368646D01*
X368746Y356779D01*
X368829Y356762D01*
X368904Y356737D01*
X368963Y356704D01*
X369021Y356654D01*
X369063Y356612D01*
X369129Y356512D01*
X369163Y356404D01*
X369188Y356321D01*
X369196Y356279D01*
Y356254D01*
Y356237D01*
Y356229D01*
Y355079D01*
X371345D01*
X369712Y359720D01*
X369688Y359787D01*
X369679Y359853D01*
X369671Y359903D01*
Y359911D01*
Y359920D01*
X369679Y360003D01*
X369704Y360078D01*
X369729Y360145D01*
X369762Y360203D01*
X369804Y360253D01*
X369829Y360286D01*
X369854Y360303D01*
X369863Y360311D01*
X369929Y360370D01*
X370004Y360411D01*
X370071Y360436D01*
X370137Y360461D01*
X370187Y360470D01*
X370229Y360478D01*
X370337D01*
X370404Y360461D01*
D02*
G37*
G36*
X374753D02*
X374836Y360445D01*
X374911Y360420D01*
X374969Y360386D01*
X375028Y360336D01*
X375070Y360295D01*
X375136Y360195D01*
X375169Y360087D01*
X375194Y360003D01*
X375203Y359962D01*
Y359936D01*
Y359920D01*
Y359911D01*
Y353346D01*
X375194Y353247D01*
X375178Y353163D01*
X375153Y353088D01*
X375120Y353030D01*
X375078Y352972D01*
X375028Y352930D01*
X374928Y352863D01*
X374828Y352830D01*
X374736Y352805D01*
X374703Y352797D01*
X374653D01*
X374553Y352805D01*
X374470Y352822D01*
X374386Y352847D01*
X374328Y352880D01*
X374270Y352922D01*
X374228Y352972D01*
X374153Y353072D01*
X374120Y353172D01*
X374095Y353263D01*
X374086Y353297D01*
Y353321D01*
Y353338D01*
Y353346D01*
Y359911D01*
X374095Y360011D01*
X374111Y360095D01*
X374136Y360170D01*
X374178Y360236D01*
X374220Y360286D01*
X374261Y360336D01*
X374370Y360403D01*
X374470Y360436D01*
X374561Y360461D01*
X374603Y360470D01*
X374653D01*
X374753Y360461D01*
D02*
G37*
G36*
X377635Y360470D02*
X377719Y360453D01*
X377794Y360428D01*
X377860Y360386D01*
X377910Y360345D01*
X377952Y360295D01*
X378019Y360187D01*
X378060Y360078D01*
X378077Y359986D01*
X378085Y359945D01*
Y359920D01*
Y359903D01*
Y359895D01*
Y355438D01*
X378094Y355329D01*
X378102Y355221D01*
X378152Y355021D01*
X378219Y354838D01*
X378294Y354679D01*
X378377Y354555D01*
X378410Y354496D01*
X378444Y354455D01*
X378469Y354421D01*
X378494Y354396D01*
X378502Y354380D01*
X378510Y354371D01*
X378602Y354280D01*
X378694Y354205D01*
X378785Y354130D01*
X378877Y354071D01*
X378977Y354021D01*
X379068Y353980D01*
X379252Y353921D01*
X379402Y353880D01*
X379477Y353871D01*
X379527Y353863D01*
X379577Y353855D01*
X379643D01*
X379827Y353871D01*
X379993Y353913D01*
X380143Y353963D01*
X380276Y354030D01*
X380385Y354096D01*
X380468Y354146D01*
X380493Y354171D01*
X380518Y354188D01*
X380526Y354205D01*
X380535D01*
X380610Y354305D01*
X380676Y354405D01*
X380735Y354496D01*
X380785Y354588D01*
X380860Y354746D01*
X380910Y354888D01*
X380943Y354996D01*
X380960Y355079D01*
X380968Y355104D01*
Y355129D01*
Y355138D01*
Y355146D01*
X380976Y355254D01*
X380993Y355338D01*
X381018Y355421D01*
X381060Y355488D01*
X381101Y355546D01*
X381151Y355596D01*
X381201Y355629D01*
X381251Y355663D01*
X381359Y355704D01*
X381451Y355729D01*
X381493Y355738D01*
X381543D01*
X381634Y355729D01*
X381718Y355713D01*
X381793Y355688D01*
X381851Y355646D01*
X381901Y355604D01*
X381943Y355563D01*
X382009Y355454D01*
X382051Y355354D01*
X382068Y355263D01*
X382076Y355221D01*
Y355196D01*
Y355179D01*
Y355171D01*
X382068Y355013D01*
X382051Y354863D01*
X382018Y354721D01*
X381968Y354588D01*
X381918Y354463D01*
X381868Y354346D01*
X381801Y354238D01*
X381743Y354138D01*
X381684Y354055D01*
X381618Y353971D01*
X381568Y353905D01*
X381510Y353846D01*
X381468Y353805D01*
X381435Y353771D01*
X381418Y353755D01*
X381409Y353746D01*
X381260Y353572D01*
X381110Y353413D01*
X380951Y353280D01*
X380801Y353163D01*
X380651Y353063D01*
X380501Y352988D01*
X380360Y352922D01*
X380227Y352863D01*
X380110Y352822D01*
X379993Y352788D01*
X379893Y352772D01*
X379810Y352755D01*
X379735Y352747D01*
X379685Y352738D01*
X379643D01*
X379435Y352747D01*
X379235Y352772D01*
X379044Y352822D01*
X378868Y352872D01*
X378702Y352938D01*
X378552Y353013D01*
X378410Y353088D01*
X378285Y353172D01*
X378177Y353247D01*
X378077Y353321D01*
X377994Y353396D01*
X377927Y353463D01*
X377869Y353521D01*
X377835Y353563D01*
X377810Y353588D01*
X377802Y353596D01*
X377660Y353755D01*
X377536Y353921D01*
X377427Y354080D01*
X377336Y354246D01*
X377252Y354396D01*
X377194Y354555D01*
X377136Y354696D01*
X377094Y354838D01*
X377061Y354963D01*
X377036Y355079D01*
X377019Y355179D01*
X377002Y355271D01*
Y355338D01*
X376994Y355396D01*
Y355429D01*
Y355438D01*
Y359895D01*
X377002Y359995D01*
X377019Y360087D01*
X377044Y360162D01*
X377077Y360236D01*
X377119Y360286D01*
X377169Y360336D01*
X377219Y360378D01*
X377269Y360403D01*
X377369Y360445D01*
X377461Y360470D01*
X377494Y360478D01*
X377544D01*
X377635Y360470D01*
D02*
G37*
G36*
X316649Y-360293D02*
X316739Y-360311D01*
X316820Y-360338D01*
X316883Y-360383D01*
X316946Y-360428D01*
X316991Y-360473D01*
X317064Y-360590D01*
X317099Y-360698D01*
X317127Y-360798D01*
X317136Y-360843D01*
Y-360870D01*
Y-360888D01*
Y-360897D01*
Y-367966D01*
X317127Y-368074D01*
X317108Y-368164D01*
X317082Y-368246D01*
X317045Y-368318D01*
X317000Y-368372D01*
X316946Y-368426D01*
X316838Y-368498D01*
X316730Y-368534D01*
X316631Y-368561D01*
X316595Y-368570D01*
X316541D01*
X316432Y-368561D01*
X316342Y-368543D01*
X316261Y-368516D01*
X316189Y-368471D01*
X316135Y-368426D01*
X316081Y-368381D01*
X316008Y-368264D01*
X315972Y-368155D01*
X315945Y-368056D01*
X315936Y-368020D01*
Y-367993D01*
Y-367975D01*
Y-367966D01*
Y-364828D01*
X312600D01*
Y-367966D01*
X312591Y-368074D01*
X312573Y-368164D01*
X312546Y-368246D01*
X312510Y-368318D01*
X312465Y-368372D01*
X312411Y-368426D01*
X312302Y-368498D01*
X312194Y-368534D01*
X312095Y-368561D01*
X312059Y-368570D01*
X312005D01*
X311897Y-368561D01*
X311807Y-368543D01*
X311725Y-368516D01*
X311653Y-368471D01*
X311599Y-368426D01*
X311545Y-368381D01*
X311473Y-368264D01*
X311437Y-368155D01*
X311410Y-368056D01*
X311401Y-368020D01*
Y-367993D01*
Y-367975D01*
Y-367966D01*
Y-360897D01*
X311410Y-360788D01*
X311428Y-360698D01*
X311455Y-360608D01*
X311491Y-360545D01*
X311545Y-360482D01*
X311590Y-360437D01*
X311698Y-360356D01*
X311816Y-360320D01*
X311906Y-360293D01*
X311951Y-360284D01*
X312005D01*
X312113Y-360293D01*
X312203Y-360311D01*
X312284Y-360338D01*
X312348Y-360383D01*
X312411Y-360428D01*
X312456Y-360473D01*
X312528Y-360590D01*
X312564Y-360698D01*
X312591Y-360798D01*
X312600Y-360843D01*
Y-360870D01*
Y-360888D01*
Y-360897D01*
Y-363602D01*
X315936D01*
Y-360897D01*
X315945Y-360788D01*
X315963Y-360698D01*
X315990Y-360608D01*
X316026Y-360545D01*
X316081Y-360482D01*
X316126Y-360437D01*
X316234Y-360356D01*
X316351Y-360320D01*
X316441Y-360293D01*
X316486Y-360284D01*
X316541D01*
X316649Y-360293D01*
D02*
G37*
G36*
X345160Y-364422D02*
X345251Y-364440D01*
X345332Y-364467D01*
X345404Y-364504D01*
X345458Y-364558D01*
X345503Y-364603D01*
X345575Y-364711D01*
X345620Y-364828D01*
X345638Y-364918D01*
X345647Y-364963D01*
Y-364990D01*
Y-365009D01*
Y-365018D01*
X345638Y-365126D01*
X345620Y-365216D01*
X345593Y-365297D01*
X345557Y-365360D01*
X345512Y-365423D01*
X345458Y-365468D01*
X345350Y-365541D01*
X345251Y-365577D01*
X345151Y-365604D01*
X345115Y-365613D01*
X342284D01*
X342176Y-365604D01*
X342086Y-365586D01*
X341996Y-365559D01*
X341932Y-365522D01*
X341869Y-365477D01*
X341824Y-365423D01*
X341743Y-365315D01*
X341707Y-365207D01*
X341680Y-365108D01*
X341671Y-365072D01*
Y-365045D01*
Y-365027D01*
Y-365018D01*
X341680Y-364909D01*
X341698Y-364819D01*
X341725Y-364738D01*
X341770Y-364666D01*
X341815Y-364612D01*
X341860Y-364558D01*
X341977Y-364486D01*
X342086Y-364449D01*
X342185Y-364422D01*
X342230Y-364413D01*
X345061D01*
X345160Y-364422D01*
D02*
G37*
G36*
X374601Y-360266D02*
X374682Y-360284D01*
X374754Y-360311D01*
X374817Y-360338D01*
X374862Y-360374D01*
X374898Y-360401D01*
X374925Y-360419D01*
X374935Y-360428D01*
X374998Y-360491D01*
X375043Y-360563D01*
X375070Y-360635D01*
X375088Y-360707D01*
X375106Y-360761D01*
X375115Y-360807D01*
Y-360843D01*
Y-360852D01*
Y-360924D01*
X375106Y-360996D01*
X375097Y-361041D01*
Y-361050D01*
Y-361059D01*
X372861Y-368110D01*
X372825Y-368191D01*
X372780Y-368273D01*
X372734Y-368336D01*
X372671Y-368390D01*
X372545Y-368480D01*
X372419Y-368534D01*
X372302Y-368570D01*
X372202Y-368588D01*
X372157Y-368597D01*
X372103D01*
X371995Y-368588D01*
X371896Y-368579D01*
X371815Y-368552D01*
X371734Y-368516D01*
X371607Y-368435D01*
X371508Y-368345D01*
X371445Y-368255D01*
X371391Y-368173D01*
X371373Y-368110D01*
X371364Y-368101D01*
Y-368092D01*
X369371Y-361032D01*
X369353Y-360969D01*
X369344Y-360924D01*
Y-360888D01*
Y-360870D01*
X369353Y-360770D01*
X369371Y-360689D01*
X369407Y-360608D01*
X369443Y-360545D01*
X369479Y-360500D01*
X369515Y-360455D01*
X369533Y-360437D01*
X369542Y-360428D01*
X369614Y-360374D01*
X369696Y-360329D01*
X369768Y-360302D01*
X369840Y-360275D01*
X369894Y-360266D01*
X369939Y-360257D01*
X370056D01*
X370129Y-360275D01*
X370246Y-360320D01*
X370336Y-360392D01*
X370408Y-360464D01*
X370462Y-360536D01*
X370489Y-360608D01*
X370507Y-360653D01*
X370516Y-360662D01*
Y-360671D01*
X372112Y-366641D01*
X373943Y-360779D01*
X373970Y-360689D01*
X374006Y-360608D01*
X374051Y-360536D01*
X374096Y-360473D01*
X374141Y-360428D01*
X374186Y-360383D01*
X374276Y-360320D01*
X374366Y-360284D01*
X374439Y-360266D01*
X374493Y-360257D01*
X374511D01*
X374601Y-360266D01*
D02*
G37*
G36*
X322032Y-360202D02*
X322275Y-360247D01*
X322510Y-360302D01*
X322726Y-360383D01*
X322924Y-360473D01*
X323114Y-360572D01*
X323285Y-360680D01*
X323447Y-360788D01*
X323583Y-360906D01*
X323709Y-361014D01*
X323817Y-361113D01*
X323907Y-361203D01*
X323979Y-361284D01*
X324025Y-361339D01*
X324061Y-361375D01*
X324070Y-361393D01*
X324223Y-361618D01*
X324367Y-361852D01*
X324484Y-362105D01*
X324584Y-362366D01*
X324674Y-362619D01*
X324746Y-362881D01*
X324800Y-363133D01*
X324854Y-363367D01*
X324890Y-363602D01*
X324917Y-363809D01*
X324935Y-363999D01*
X324944Y-364161D01*
X324953Y-364296D01*
X324962Y-364350D01*
Y-364395D01*
Y-364440D01*
Y-364467D01*
Y-364477D01*
Y-364486D01*
X324953Y-364774D01*
X324926Y-365053D01*
X324881Y-365315D01*
X324827Y-365559D01*
X324764Y-365793D01*
X324692Y-366009D01*
X324611Y-366208D01*
X324529Y-366397D01*
X324457Y-366559D01*
X324376Y-366704D01*
X324304Y-366821D01*
X324241Y-366929D01*
X324187Y-367010D01*
X324142Y-367073D01*
X324115Y-367109D01*
X324106Y-367118D01*
X323916Y-367389D01*
X323718Y-367614D01*
X323511Y-367822D01*
X323303Y-367993D01*
X323105Y-368137D01*
X322897Y-368264D01*
X322699Y-368363D01*
X322510Y-368444D01*
X322329Y-368507D01*
X322167Y-368552D01*
X322023Y-368588D01*
X321897Y-368606D01*
X321797Y-368624D01*
X321716Y-368633D01*
X321653D01*
X321491Y-368624D01*
X321338Y-368606D01*
X321184Y-368579D01*
X321040Y-368543D01*
X320788Y-368453D01*
X320670Y-368399D01*
X320562Y-368345D01*
X320463Y-368291D01*
X320373Y-368237D01*
X320301Y-368191D01*
X320237Y-368146D01*
X320183Y-368110D01*
X320147Y-368083D01*
X320129Y-368065D01*
X320120Y-368056D01*
X319958Y-367894D01*
X319814Y-367714D01*
X319687Y-367515D01*
X319579Y-367317D01*
X319489Y-367109D01*
X319417Y-366902D01*
X319354Y-366695D01*
X319309Y-366487D01*
X319273Y-366298D01*
X319237Y-366127D01*
X319219Y-365964D01*
X319209Y-365820D01*
X319200Y-365712D01*
X319191Y-365622D01*
Y-365568D01*
Y-365559D01*
Y-365550D01*
Y-364161D01*
X321392D01*
X321500Y-364170D01*
X321590Y-364188D01*
X321671Y-364215D01*
X321743Y-364260D01*
X321797Y-364305D01*
X321852Y-364350D01*
X321924Y-364467D01*
X321960Y-364576D01*
X321987Y-364675D01*
X321996Y-364720D01*
Y-364747D01*
Y-364765D01*
Y-364774D01*
X321987Y-364882D01*
X321969Y-364972D01*
X321942Y-365053D01*
X321897Y-365126D01*
X321852Y-365189D01*
X321806Y-365234D01*
X321689Y-365306D01*
X321581Y-365351D01*
X321482Y-365378D01*
X321446Y-365387D01*
X320436D01*
Y-365532D01*
X320445Y-365667D01*
Y-365793D01*
X320454Y-365910D01*
X320463Y-366018D01*
X320481Y-366118D01*
X320490Y-366208D01*
X320499Y-366289D01*
X320517Y-366361D01*
X320526Y-366424D01*
X320535Y-366478D01*
X320553Y-366523D01*
X320562Y-366550D01*
Y-366577D01*
X320571Y-366586D01*
Y-366595D01*
X320625Y-366740D01*
X320697Y-366866D01*
X320769Y-366974D01*
X320851Y-367064D01*
X320941Y-367146D01*
X321031Y-367209D01*
X321121Y-367263D01*
X321211Y-367308D01*
X321301Y-367335D01*
X321383Y-367362D01*
X321455Y-367380D01*
X321518Y-367398D01*
X321572D01*
X321617Y-367407D01*
X321653D01*
X321824Y-367398D01*
X321987Y-367362D01*
X322140Y-367317D01*
X322293Y-367263D01*
X322429Y-367191D01*
X322555Y-367109D01*
X322672Y-367028D01*
X322780Y-366938D01*
X322879Y-366848D01*
X322961Y-366767D01*
X323033Y-366686D01*
X323096Y-366614D01*
X323141Y-366559D01*
X323177Y-366505D01*
X323195Y-366478D01*
X323204Y-366469D01*
X323303Y-366307D01*
X323384Y-366136D01*
X323456Y-365964D01*
X323520Y-365793D01*
X323574Y-365622D01*
X323619Y-365459D01*
X323655Y-365306D01*
X323682Y-365153D01*
X323709Y-365009D01*
X323727Y-364882D01*
X323736Y-364774D01*
X323745Y-364675D01*
X323754Y-364594D01*
Y-364531D01*
Y-364495D01*
Y-364486D01*
X323745Y-364233D01*
X323727Y-363989D01*
X323700Y-363764D01*
X323673Y-363548D01*
X323628Y-363349D01*
X323583Y-363169D01*
X323538Y-362998D01*
X323484Y-362844D01*
X323429Y-362709D01*
X323384Y-362592D01*
X323339Y-362493D01*
X323294Y-362412D01*
X323267Y-362339D01*
X323240Y-362294D01*
X323222Y-362267D01*
X323213Y-362258D01*
X323105Y-362114D01*
X322997Y-361979D01*
X322879Y-361870D01*
X322753Y-361771D01*
X322636Y-361690D01*
X322519Y-361627D01*
X322402Y-361573D01*
X322293Y-361528D01*
X322185Y-361492D01*
X322086Y-361465D01*
X322005Y-361447D01*
X321924Y-361429D01*
X321861D01*
X321815Y-361420D01*
X321779D01*
X321581Y-361429D01*
X321401Y-361456D01*
X321247Y-361492D01*
X321121Y-361528D01*
X321022Y-361573D01*
X320950Y-361609D01*
X320914Y-361636D01*
X320896Y-361645D01*
X320833Y-361690D01*
X320760Y-361753D01*
X320625Y-361889D01*
X320562Y-361952D01*
X320517Y-362006D01*
X320481Y-362042D01*
X320472Y-362060D01*
X320382Y-362177D01*
X320291Y-362267D01*
X320201Y-362321D01*
X320120Y-362366D01*
X320048Y-362393D01*
X319994Y-362403D01*
X319949Y-362412D01*
X319940D01*
X319859Y-362403D01*
X319778Y-362384D01*
X319705Y-362357D01*
X319642Y-362330D01*
X319597Y-362303D01*
X319552Y-362276D01*
X319534Y-362258D01*
X319525Y-362249D01*
X319462Y-362186D01*
X319417Y-362114D01*
X319381Y-362042D01*
X319363Y-361979D01*
X319345Y-361925D01*
X319336Y-361870D01*
Y-361843D01*
Y-361834D01*
X319345Y-361762D01*
X319354Y-361690D01*
X319372Y-361636D01*
X319390Y-361582D01*
X319417Y-361537D01*
X319435Y-361501D01*
X319444Y-361483D01*
X319453Y-361474D01*
X319525Y-361366D01*
X319597Y-361266D01*
X319669Y-361176D01*
X319732Y-361095D01*
X319796Y-361023D01*
X319850Y-360960D01*
X319958Y-360861D01*
X320039Y-360788D01*
X320102Y-360743D01*
X320138Y-360725D01*
X320156Y-360716D01*
X320283Y-360626D01*
X320409Y-360545D01*
X320544Y-360473D01*
X320679Y-360410D01*
X320824Y-360365D01*
X320959Y-360320D01*
X321211Y-360257D01*
X321329Y-360238D01*
X321437Y-360220D01*
X321536Y-360211D01*
X321617Y-360202D01*
X321689Y-360193D01*
X321779D01*
X322032Y-360202D01*
D02*
G37*
G36*
X382076Y-368471D02*
X377153D01*
X377044Y-368462D01*
X376954Y-368444D01*
X376864Y-368417D01*
X376801Y-368372D01*
X376738Y-368327D01*
X376693Y-368273D01*
X376612Y-368164D01*
X376576Y-368047D01*
X376549Y-367957D01*
X376540Y-367912D01*
Y-367885D01*
Y-367867D01*
Y-367858D01*
X376549Y-367750D01*
X376567Y-367659D01*
X376594Y-367569D01*
X376639Y-367506D01*
X376684Y-367443D01*
X376729Y-367398D01*
X376846Y-367317D01*
X376954Y-367281D01*
X377054Y-367254D01*
X377099Y-367245D01*
X380877D01*
Y-364603D01*
X377387D01*
X377279Y-364594D01*
X377189Y-364576D01*
X377099Y-364549D01*
X377035Y-364504D01*
X376972Y-364458D01*
X376927Y-364404D01*
X376846Y-364296D01*
X376810Y-364179D01*
X376783Y-364089D01*
X376774Y-364044D01*
Y-364017D01*
Y-363999D01*
Y-363989D01*
X376783Y-363881D01*
X376801Y-363791D01*
X376828Y-363701D01*
X376873Y-363638D01*
X376918Y-363575D01*
X376963Y-363530D01*
X377081Y-363448D01*
X377189Y-363413D01*
X377288Y-363385D01*
X377333Y-363376D01*
X380877D01*
Y-361492D01*
X377153D01*
X377044Y-361483D01*
X376954Y-361465D01*
X376864Y-361438D01*
X376801Y-361393D01*
X376738Y-361348D01*
X376693Y-361293D01*
X376612Y-361185D01*
X376576Y-361068D01*
X376549Y-360978D01*
X376540Y-360933D01*
Y-360906D01*
Y-360888D01*
Y-360879D01*
X376549Y-360770D01*
X376567Y-360680D01*
X376594Y-360590D01*
X376639Y-360527D01*
X376684Y-360464D01*
X376729Y-360419D01*
X376846Y-360338D01*
X376954Y-360302D01*
X377054Y-360275D01*
X377099Y-360266D01*
X382076D01*
Y-368471D01*
D02*
G37*
G36*
X352924Y-360275D02*
X353014Y-360293D01*
X353095Y-360320D01*
X353158Y-360356D01*
X353222Y-360410D01*
X353267Y-360455D01*
X353339Y-360563D01*
X353375Y-360680D01*
X353402Y-360770D01*
X353411Y-360816D01*
Y-360843D01*
Y-360861D01*
Y-360870D01*
Y-367975D01*
X353402Y-368083D01*
X353384Y-368173D01*
X353357Y-368255D01*
X353321Y-368318D01*
X353276Y-368381D01*
X353222Y-368426D01*
X353113Y-368498D01*
X353005Y-368534D01*
X352906Y-368561D01*
X352870Y-368570D01*
X352816D01*
X352708Y-368561D01*
X352617Y-368543D01*
X352527Y-368516D01*
X352464Y-368480D01*
X352401Y-368435D01*
X352356Y-368381D01*
X352275Y-368273D01*
X352239Y-368164D01*
X352212Y-368065D01*
X352203Y-368029D01*
Y-368002D01*
Y-367984D01*
Y-367975D01*
Y-360870D01*
X352212Y-360761D01*
X352230Y-360671D01*
X352257Y-360590D01*
X352302Y-360518D01*
X352347Y-360464D01*
X352392Y-360410D01*
X352509Y-360338D01*
X352617Y-360302D01*
X352717Y-360275D01*
X352762Y-360266D01*
X352816D01*
X352924Y-360275D01*
D02*
G37*
G36*
X335918Y-367948D02*
X335909Y-368056D01*
X335891Y-368155D01*
X335864Y-368237D01*
X335828Y-368309D01*
X335783Y-368372D01*
X335729Y-368417D01*
X335675Y-368462D01*
X335620Y-368489D01*
X335512Y-368534D01*
X335413Y-368561D01*
X335377Y-368570D01*
X335323D01*
X335215Y-368561D01*
X335125Y-368543D01*
X335034Y-368516D01*
X334971Y-368471D01*
X334908Y-368426D01*
X334863Y-368372D01*
X334782Y-368264D01*
X334746Y-368146D01*
X334719Y-368056D01*
X334710Y-368011D01*
Y-367984D01*
Y-367966D01*
Y-367957D01*
Y-365072D01*
X333357D01*
X331085Y-368300D01*
X331013Y-368390D01*
X330932Y-368453D01*
X330859Y-368507D01*
X330778Y-368534D01*
X330715Y-368552D01*
X330661Y-368561D01*
X330625Y-368570D01*
X330616D01*
X330526Y-368561D01*
X330445Y-368543D01*
X330373Y-368516D01*
X330309Y-368480D01*
X330255Y-368444D01*
X330219Y-368417D01*
X330192Y-368399D01*
X330183Y-368390D01*
X330120Y-368318D01*
X330075Y-368246D01*
X330039Y-368173D01*
X330021Y-368101D01*
X330003Y-368047D01*
X329994Y-368002D01*
Y-367966D01*
Y-367957D01*
X330003Y-367885D01*
X330012Y-367822D01*
X330057Y-367705D01*
X330084Y-367659D01*
X330102Y-367623D01*
X330111Y-367596D01*
X330120Y-367587D01*
X331978Y-365072D01*
X331987D01*
X331878Y-365063D01*
X331779Y-365053D01*
X331599Y-365009D01*
X331437Y-364945D01*
X331292Y-364873D01*
X331184Y-364801D01*
X331103Y-364738D01*
X331058Y-364693D01*
X331040Y-364675D01*
X330859Y-364540D01*
X330697Y-364395D01*
X330553Y-364242D01*
X330436Y-364089D01*
X330336Y-363926D01*
X330246Y-363764D01*
X330183Y-363602D01*
X330120Y-363448D01*
X330084Y-363304D01*
X330048Y-363169D01*
X330030Y-363043D01*
X330012Y-362935D01*
X330003Y-362844D01*
X329994Y-362781D01*
Y-362745D01*
Y-362727D01*
X330003Y-362520D01*
X330021Y-362330D01*
X330066Y-362150D01*
X330111Y-361979D01*
X330165Y-361816D01*
X330228Y-361672D01*
X330291Y-361537D01*
X330364Y-361411D01*
X330436Y-361302D01*
X330499Y-361203D01*
X330562Y-361122D01*
X330616Y-361050D01*
X330661Y-360996D01*
X330697Y-360960D01*
X330724Y-360933D01*
X330733Y-360924D01*
X330868Y-360807D01*
X331004Y-360716D01*
X331148Y-360626D01*
X331292Y-360554D01*
X331427Y-360491D01*
X331572Y-360437D01*
X331707Y-360401D01*
X331833Y-360365D01*
X331950Y-360338D01*
X332059Y-360320D01*
X332158Y-360302D01*
X332248Y-360293D01*
X332311Y-360284D01*
X335918D01*
Y-367948D01*
D02*
G37*
G36*
X327875Y-360275D02*
X327965Y-360293D01*
X328046Y-360320D01*
X328109Y-360365D01*
X328172Y-360410D01*
X328218Y-360455D01*
X328290Y-360572D01*
X328326Y-360680D01*
X328353Y-360779D01*
X328362Y-360825D01*
Y-360852D01*
Y-360870D01*
Y-360879D01*
Y-367948D01*
X328353Y-368056D01*
X328335Y-368155D01*
X328308Y-368237D01*
X328272Y-368309D01*
X328227Y-368372D01*
X328172Y-368417D01*
X328118Y-368462D01*
X328064Y-368489D01*
X327956Y-368534D01*
X327857Y-368561D01*
X327821Y-368570D01*
X327767D01*
X327658Y-368561D01*
X327568Y-368543D01*
X327478Y-368516D01*
X327415Y-368471D01*
X327352Y-368426D01*
X327307Y-368372D01*
X327226Y-368255D01*
X327189Y-368146D01*
X327163Y-368047D01*
X327154Y-368002D01*
Y-367975D01*
Y-367957D01*
Y-367948D01*
Y-360879D01*
X327163Y-360770D01*
X327180Y-360680D01*
X327208Y-360590D01*
X327253Y-360527D01*
X327298Y-360464D01*
X327343Y-360419D01*
X327460Y-360338D01*
X327568Y-360302D01*
X327667Y-360275D01*
X327713Y-360266D01*
X327767D01*
X327875Y-360275D01*
D02*
G37*
G36*
X364953Y-360202D02*
X365043Y-360211D01*
X365187Y-360266D01*
X365304Y-360338D01*
X365395Y-360419D01*
X365467Y-360509D01*
X365512Y-360581D01*
X365539Y-360635D01*
X365548Y-360644D01*
Y-360653D01*
X368208Y-367786D01*
X368226Y-367867D01*
X368235Y-367939D01*
X368244Y-367993D01*
Y-368002D01*
Y-368011D01*
X368235Y-368101D01*
X368217Y-368182D01*
X368190Y-368255D01*
X368154Y-368309D01*
X368118Y-368363D01*
X368091Y-368399D01*
X368073Y-368417D01*
X368064Y-368426D01*
X367991Y-368480D01*
X367910Y-368516D01*
X367838Y-368552D01*
X367775Y-368570D01*
X367712Y-368579D01*
X367667Y-368588D01*
X367622D01*
X367477Y-368570D01*
X367360Y-368525D01*
X367270Y-368471D01*
X367198Y-368399D01*
X367135Y-368327D01*
X367099Y-368273D01*
X367081Y-368228D01*
X367072Y-368209D01*
X366639Y-367082D01*
X362960D01*
X362473Y-368282D01*
X362419Y-368381D01*
X362356Y-368462D01*
X362266Y-368516D01*
X362184Y-368552D01*
X362103Y-368570D01*
X362031Y-368579D01*
X361986Y-368588D01*
X361968D01*
X361878Y-368579D01*
X361797Y-368561D01*
X361725Y-368534D01*
X361661Y-368507D01*
X361607Y-368480D01*
X361571Y-368453D01*
X361544Y-368435D01*
X361535Y-368426D01*
X361472Y-368363D01*
X361427Y-368291D01*
X361391Y-368228D01*
X361373Y-368155D01*
X361355Y-368101D01*
X361346Y-368056D01*
Y-368020D01*
Y-368011D01*
X361355Y-367930D01*
X361364Y-367849D01*
X361382Y-367795D01*
X361391Y-367786D01*
Y-367777D01*
X364177Y-360599D01*
X364204Y-360527D01*
X364249Y-360464D01*
X364349Y-360365D01*
X364457Y-360293D01*
X364574Y-360247D01*
X364682Y-360211D01*
X364772Y-360202D01*
X364809Y-360193D01*
X364863D01*
X364953Y-360202D01*
D02*
G37*
G36*
X357965Y-360284D02*
X358172Y-360329D01*
X358361Y-360401D01*
X358542Y-360500D01*
X358704Y-360608D01*
X358866Y-360734D01*
X359011Y-360870D01*
X359137Y-361014D01*
X359254Y-361149D01*
X359353Y-361284D01*
X359443Y-361411D01*
X359515Y-361528D01*
X359579Y-361627D01*
X359615Y-361699D01*
X359642Y-361744D01*
X359651Y-361762D01*
X359768Y-361961D01*
X359867Y-362177D01*
X359957Y-362403D01*
X360029Y-362628D01*
X360093Y-362853D01*
X360147Y-363079D01*
X360192Y-363295D01*
X360228Y-363503D01*
X360255Y-363701D01*
X360273Y-363881D01*
X360291Y-364044D01*
X360300Y-364188D01*
Y-364296D01*
X360309Y-364386D01*
Y-364440D01*
Y-364449D01*
Y-364458D01*
X360300Y-364765D01*
X360282Y-365053D01*
X360246Y-365324D01*
X360210Y-365586D01*
X360165Y-365820D01*
X360111Y-366045D01*
X360047Y-366244D01*
X359984Y-366424D01*
X359930Y-366595D01*
X359867Y-366731D01*
X359813Y-366857D01*
X359768Y-366956D01*
X359732Y-367037D01*
X359696Y-367100D01*
X359678Y-367136D01*
X359669Y-367146D01*
X359524Y-367407D01*
X359371Y-367632D01*
X359218Y-367831D01*
X359056Y-368002D01*
X358893Y-368146D01*
X358740Y-368273D01*
X358587Y-368372D01*
X358433Y-368444D01*
X358298Y-368507D01*
X358163Y-368552D01*
X358055Y-368588D01*
X357956Y-368606D01*
X357874Y-368624D01*
X357811Y-368633D01*
X357757D01*
X357541Y-368615D01*
X357342Y-368570D01*
X357153Y-368498D01*
X356964Y-368399D01*
X356801Y-368291D01*
X356639Y-368164D01*
X356495Y-368029D01*
X356369Y-367885D01*
X356251Y-367750D01*
X356143Y-367614D01*
X356053Y-367488D01*
X355981Y-367380D01*
X355918Y-367281D01*
X355882Y-367209D01*
X355855Y-367164D01*
X355846Y-367146D01*
X355728Y-366947D01*
X355629Y-366740D01*
X355548Y-366523D01*
X355467Y-366298D01*
X355404Y-366073D01*
X355359Y-365847D01*
X355314Y-365631D01*
X355277Y-365423D01*
X355250Y-365225D01*
X355232Y-365036D01*
X355214Y-364873D01*
X355205Y-364738D01*
X355196Y-364621D01*
Y-364531D01*
Y-364477D01*
Y-364467D01*
Y-364458D01*
X355205Y-364152D01*
X355223Y-363854D01*
X355260Y-363575D01*
X355304Y-363313D01*
X355350Y-363061D01*
X355404Y-362817D01*
X355467Y-362601D01*
X355530Y-362403D01*
X355593Y-362222D01*
X355656Y-362060D01*
X355710Y-361925D01*
X355755Y-361807D01*
X355801Y-361717D01*
X355837Y-361645D01*
X355855Y-361609D01*
X355864Y-361591D01*
X356008Y-361357D01*
X356152Y-361149D01*
X356305Y-360978D01*
X356468Y-360825D01*
X356630Y-360698D01*
X356783Y-360590D01*
X356937Y-360500D01*
X357081Y-360428D01*
X357225Y-360374D01*
X357351Y-360338D01*
X357469Y-360302D01*
X357568Y-360284D01*
X357649Y-360275D01*
X357703Y-360266D01*
X357757D01*
X357965Y-360284D01*
D02*
G37*
G36*
X309282Y-360275D02*
X309381Y-360293D01*
X309462Y-360329D01*
X309534Y-360365D01*
X309597Y-360410D01*
X309652Y-360464D01*
X309697Y-360527D01*
X309724Y-360581D01*
X309769Y-360707D01*
X309796Y-360807D01*
X309805Y-360843D01*
Y-360879D01*
Y-360897D01*
Y-360906D01*
X309796Y-361014D01*
X309778Y-361113D01*
X309751Y-361194D01*
X309706Y-361266D01*
X309660Y-361329D01*
X309606Y-361384D01*
X309543Y-361429D01*
X309489Y-361456D01*
X309372Y-361501D01*
X309273Y-361528D01*
X309228Y-361537D01*
X307199D01*
Y-368327D01*
X307190Y-368435D01*
X307172Y-368534D01*
X307145Y-368624D01*
X307100Y-368696D01*
X307055Y-368759D01*
X307001Y-368814D01*
X306946Y-368850D01*
X306883Y-368886D01*
X306775Y-368931D01*
X306676Y-368958D01*
X306631Y-368967D01*
X306577D01*
X306469Y-368958D01*
X306369Y-368940D01*
X306288Y-368904D01*
X306207Y-368868D01*
X306153Y-368823D01*
X306099Y-368769D01*
X306054Y-368705D01*
X306027Y-368642D01*
X305982Y-368525D01*
X305954Y-368426D01*
X305945Y-368390D01*
Y-368354D01*
Y-368336D01*
Y-368327D01*
Y-361537D01*
X303998D01*
X303881Y-361528D01*
X303781Y-361510D01*
X303700Y-361483D01*
X303619Y-361438D01*
X303556Y-361393D01*
X303511Y-361339D01*
X303466Y-361275D01*
X303430Y-361221D01*
X303385Y-361104D01*
X303358Y-361005D01*
X303349Y-360960D01*
Y-360933D01*
Y-360915D01*
Y-360906D01*
X303358Y-360788D01*
X303376Y-360698D01*
X303412Y-360608D01*
X303448Y-360536D01*
X303502Y-360473D01*
X303556Y-360419D01*
X303610Y-360383D01*
X303673Y-360347D01*
X303790Y-360302D01*
X303899Y-360275D01*
X303935Y-360266D01*
X309174D01*
X309282Y-360275D01*
D02*
G37*
G36*
X-336447Y360461D02*
X-336364Y360445D01*
X-336289Y360420D01*
X-336231Y360386D01*
X-336172Y360336D01*
X-336130Y360295D01*
X-336064Y360195D01*
X-336031Y360087D01*
X-336006Y360003D01*
X-335997Y359962D01*
Y359936D01*
Y359920D01*
Y359911D01*
Y353346D01*
X-336006Y353247D01*
X-336022Y353163D01*
X-336047Y353088D01*
X-336081Y353030D01*
X-336122Y352972D01*
X-336172Y352930D01*
X-336272Y352863D01*
X-336372Y352830D01*
X-336464Y352805D01*
X-336497Y352797D01*
X-336547D01*
X-336647Y352805D01*
X-336730Y352822D01*
X-336814Y352847D01*
X-336872Y352880D01*
X-336930Y352922D01*
X-336972Y352972D01*
X-337047Y353072D01*
X-337080Y353172D01*
X-337105Y353263D01*
X-337114Y353297D01*
Y353321D01*
Y353338D01*
Y353346D01*
Y359911D01*
X-337105Y360011D01*
X-337089Y360095D01*
X-337064Y360170D01*
X-337022Y360236D01*
X-336980Y360286D01*
X-336939Y360336D01*
X-336830Y360403D01*
X-336730Y360436D01*
X-336639Y360461D01*
X-336597Y360470D01*
X-336547D01*
X-336447Y360461D01*
D02*
G37*
G36*
X-339646Y360453D02*
X-339555Y360445D01*
X-339471Y360428D01*
X-339396Y360403D01*
X-339330Y360361D01*
X-339280Y360320D01*
X-339238Y360278D01*
X-339171Y360170D01*
X-339130Y360070D01*
X-339113Y359978D01*
X-339105Y359936D01*
Y359911D01*
Y359895D01*
Y359887D01*
X-339113Y359787D01*
X-339130Y359703D01*
X-339155Y359628D01*
X-339188Y359570D01*
X-339230Y359512D01*
X-339280Y359470D01*
X-339380Y359403D01*
X-339480Y359370D01*
X-339571Y359345D01*
X-339605Y359337D01*
X-341421D01*
X-340388Y358220D01*
X-340313Y358170D01*
X-340255Y358120D01*
X-340196Y358079D01*
X-340154Y358029D01*
X-340079Y357945D01*
X-340029Y357862D01*
X-340005Y357795D01*
X-339988Y357745D01*
X-339980Y357712D01*
Y357704D01*
X-339988Y357645D01*
X-340005Y357587D01*
X-340055Y357487D01*
X-340079Y357445D01*
X-340104Y357412D01*
X-340121Y357396D01*
X-340130Y357387D01*
X-340188Y357337D01*
X-340255Y357304D01*
X-340313Y357279D01*
X-340371Y357262D01*
X-340429Y357245D01*
X-340471Y357237D01*
X-340504D01*
X-340629Y357229D01*
X-340746Y357220D01*
X-340854Y357212D01*
X-340954Y357204D01*
X-341038D01*
X-341096Y357196D01*
X-341154D01*
X-341362Y357154D01*
X-341554Y357096D01*
X-341712Y357029D01*
X-341846Y356962D01*
X-341954Y356904D01*
X-342029Y356854D01*
X-342079Y356821D01*
X-342096Y356804D01*
X-342179Y356721D01*
X-342254Y356637D01*
X-342312Y356537D01*
X-342362Y356437D01*
X-342446Y356237D01*
X-342504Y356037D01*
X-342520Y355946D01*
X-342537Y355863D01*
X-342546Y355779D01*
X-342554Y355713D01*
X-342562Y355654D01*
Y355613D01*
Y355588D01*
Y355579D01*
X-342554Y355438D01*
X-342546Y355304D01*
X-342520Y355179D01*
X-342487Y355063D01*
X-342412Y354838D01*
X-342362Y354746D01*
X-342321Y354655D01*
X-342279Y354571D01*
X-342229Y354505D01*
X-342187Y354438D01*
X-342154Y354388D01*
X-342121Y354346D01*
X-342104Y354321D01*
X-342087Y354305D01*
X-342079Y354296D01*
X-341929Y354180D01*
X-341779Y354096D01*
X-341621Y354030D01*
X-341471Y353988D01*
X-341346Y353963D01*
X-341287Y353955D01*
X-341237D01*
X-341204Y353946D01*
X-341146D01*
X-340996Y353955D01*
X-340854Y353980D01*
X-340729Y354013D01*
X-340629Y354046D01*
X-340546Y354080D01*
X-340479Y354113D01*
X-340446Y354138D01*
X-340429Y354146D01*
X-340288Y354271D01*
X-340163Y354396D01*
X-340071Y354521D01*
X-339988Y354638D01*
X-339930Y354738D01*
X-339896Y354821D01*
X-339871Y354871D01*
X-339863Y354879D01*
Y354888D01*
X-339838Y354971D01*
X-339805Y355046D01*
X-339771Y355104D01*
X-339730Y355154D01*
X-339646Y355238D01*
X-339555Y355296D01*
X-339480Y355329D01*
X-339413Y355346D01*
X-339363Y355354D01*
X-339346D01*
X-339271Y355346D01*
X-339196Y355329D01*
X-339130Y355304D01*
X-339071Y355279D01*
X-339030Y355254D01*
X-338997Y355229D01*
X-338971Y355213D01*
X-338963Y355204D01*
X-338905Y355146D01*
X-338863Y355079D01*
X-338838Y355013D01*
X-338821Y354954D01*
X-338805Y354896D01*
X-338797Y354855D01*
Y354821D01*
Y354813D01*
X-338805Y354738D01*
X-338813Y354671D01*
X-338821Y354613D01*
X-338830Y354604D01*
Y354596D01*
X-338888Y354438D01*
X-338946Y354288D01*
X-339013Y354146D01*
X-339088Y354021D01*
X-339163Y353896D01*
X-339246Y353780D01*
X-339321Y353680D01*
X-339405Y353588D01*
X-339471Y353505D01*
X-339546Y353438D01*
X-339605Y353372D01*
X-339663Y353321D01*
X-339705Y353280D01*
X-339738Y353255D01*
X-339763Y353238D01*
X-339771Y353230D01*
X-339888Y353155D01*
X-340005Y353080D01*
X-340130Y353022D01*
X-340246Y352972D01*
X-340479Y352888D01*
X-340696Y352838D01*
X-340796Y352822D01*
X-340888Y352805D01*
X-340963Y352797D01*
X-341029Y352788D01*
X-341088Y352780D01*
X-341163D01*
X-341346Y352788D01*
X-341529Y352813D01*
X-341696Y352847D01*
X-341854Y352888D01*
X-342004Y352947D01*
X-342146Y353005D01*
X-342279Y353072D01*
X-342396Y353138D01*
X-342504Y353205D01*
X-342604Y353272D01*
X-342687Y353330D01*
X-342754Y353388D01*
X-342804Y353430D01*
X-342845Y353463D01*
X-342870Y353488D01*
X-342879Y353497D01*
X-343012Y353647D01*
X-343137Y353813D01*
X-343237Y353980D01*
X-343329Y354155D01*
X-343404Y354330D01*
X-343462Y354505D01*
X-343512Y354671D01*
X-343554Y354838D01*
X-343587Y354988D01*
X-343612Y355129D01*
X-343629Y355254D01*
X-343645Y355363D01*
Y355454D01*
X-343654Y355521D01*
Y355563D01*
Y355579D01*
X-343645Y355788D01*
X-343629Y355988D01*
X-343604Y356179D01*
X-343570Y356354D01*
X-343520Y356521D01*
X-343470Y356679D01*
X-343412Y356829D01*
X-343345Y356962D01*
X-343270Y357096D01*
X-343195Y357220D01*
X-343112Y357329D01*
X-343029Y357437D01*
X-342854Y357620D01*
X-342671Y357779D01*
X-342479Y357904D01*
X-342304Y358012D01*
X-342137Y358087D01*
X-341987Y358154D01*
X-341862Y358195D01*
X-341812Y358212D01*
X-341762Y358229D01*
X-341729Y358237D01*
X-341704D01*
X-341687Y358245D01*
X-341679D01*
X-342746Y359445D01*
X-342854Y359528D01*
X-342954Y359612D01*
X-343037Y359687D01*
X-343104Y359753D01*
X-343170Y359812D01*
X-343220Y359870D01*
X-343262Y359920D01*
X-343295Y359962D01*
X-343337Y360037D01*
X-343362Y360087D01*
X-343370Y360120D01*
Y360128D01*
X-343362Y360187D01*
X-343354Y360245D01*
X-343304Y360328D01*
X-343237Y360386D01*
X-343162Y360428D01*
X-343079Y360453D01*
X-343012Y360461D01*
X-342962Y360470D01*
X-342945D01*
X-339646Y360453D01*
D02*
G37*
G36*
X-333564Y360470D02*
X-333481Y360453D01*
X-333406Y360428D01*
X-333340Y360386D01*
X-333290Y360345D01*
X-333248Y360295D01*
X-333181Y360187D01*
X-333140Y360078D01*
X-333123Y359986D01*
X-333115Y359945D01*
Y359920D01*
Y359903D01*
Y359895D01*
Y355438D01*
X-333106Y355329D01*
X-333098Y355221D01*
X-333048Y355021D01*
X-332981Y354838D01*
X-332906Y354679D01*
X-332823Y354555D01*
X-332790Y354496D01*
X-332756Y354455D01*
X-332731Y354421D01*
X-332706Y354396D01*
X-332698Y354380D01*
X-332690Y354371D01*
X-332598Y354280D01*
X-332506Y354205D01*
X-332415Y354130D01*
X-332323Y354071D01*
X-332223Y354021D01*
X-332132Y353980D01*
X-331948Y353921D01*
X-331798Y353880D01*
X-331723Y353871D01*
X-331673Y353863D01*
X-331623Y353855D01*
X-331557D01*
X-331373Y353871D01*
X-331207Y353913D01*
X-331057Y353963D01*
X-330924Y354030D01*
X-330815Y354096D01*
X-330732Y354146D01*
X-330707Y354171D01*
X-330682Y354188D01*
X-330674Y354205D01*
X-330665D01*
X-330590Y354305D01*
X-330524Y354405D01*
X-330465Y354496D01*
X-330415Y354588D01*
X-330340Y354746D01*
X-330290Y354888D01*
X-330257Y354996D01*
X-330240Y355079D01*
X-330232Y355104D01*
Y355129D01*
Y355138D01*
Y355146D01*
X-330224Y355254D01*
X-330207Y355338D01*
X-330182Y355421D01*
X-330140Y355488D01*
X-330099Y355546D01*
X-330049Y355596D01*
X-329999Y355629D01*
X-329949Y355663D01*
X-329841Y355704D01*
X-329749Y355729D01*
X-329707Y355738D01*
X-329657D01*
X-329566Y355729D01*
X-329482Y355713D01*
X-329407Y355688D01*
X-329349Y355646D01*
X-329299Y355604D01*
X-329257Y355563D01*
X-329191Y355454D01*
X-329149Y355354D01*
X-329132Y355263D01*
X-329124Y355221D01*
Y355196D01*
Y355179D01*
Y355171D01*
X-329132Y355013D01*
X-329149Y354863D01*
X-329182Y354721D01*
X-329232Y354588D01*
X-329282Y354463D01*
X-329332Y354346D01*
X-329399Y354238D01*
X-329457Y354138D01*
X-329515Y354055D01*
X-329582Y353971D01*
X-329632Y353905D01*
X-329691Y353846D01*
X-329732Y353805D01*
X-329766Y353771D01*
X-329782Y353755D01*
X-329790Y353746D01*
X-329940Y353572D01*
X-330090Y353413D01*
X-330249Y353280D01*
X-330399Y353163D01*
X-330549Y353063D01*
X-330699Y352988D01*
X-330840Y352922D01*
X-330974Y352863D01*
X-331090Y352822D01*
X-331207Y352788D01*
X-331307Y352772D01*
X-331390Y352755D01*
X-331465Y352747D01*
X-331515Y352738D01*
X-331557D01*
X-331765Y352747D01*
X-331965Y352772D01*
X-332156Y352822D01*
X-332332Y352872D01*
X-332498Y352938D01*
X-332648Y353013D01*
X-332790Y353088D01*
X-332915Y353172D01*
X-333023Y353247D01*
X-333123Y353321D01*
X-333206Y353396D01*
X-333273Y353463D01*
X-333331Y353521D01*
X-333365Y353563D01*
X-333390Y353588D01*
X-333398Y353596D01*
X-333540Y353755D01*
X-333665Y353921D01*
X-333773Y354080D01*
X-333864Y354246D01*
X-333948Y354396D01*
X-334006Y354555D01*
X-334064Y354696D01*
X-334106Y354838D01*
X-334139Y354963D01*
X-334164Y355079D01*
X-334181Y355179D01*
X-334198Y355271D01*
Y355338D01*
X-334206Y355396D01*
Y355429D01*
Y355438D01*
Y359895D01*
X-334198Y359995D01*
X-334181Y360087D01*
X-334156Y360162D01*
X-334123Y360236D01*
X-334081Y360286D01*
X-334031Y360336D01*
X-333981Y360378D01*
X-333931Y360403D01*
X-333831Y360445D01*
X-333740Y360470D01*
X-333706Y360478D01*
X-333656D01*
X-333564Y360470D01*
D02*
G37*
G36*
X-366040Y-364422D02*
X-365949Y-364440D01*
X-365868Y-364467D01*
X-365796Y-364504D01*
X-365742Y-364558D01*
X-365697Y-364603D01*
X-365625Y-364711D01*
X-365580Y-364828D01*
X-365562Y-364918D01*
X-365553Y-364963D01*
Y-364990D01*
Y-365009D01*
Y-365018D01*
X-365562Y-365126D01*
X-365580Y-365216D01*
X-365607Y-365297D01*
X-365643Y-365360D01*
X-365688Y-365423D01*
X-365742Y-365468D01*
X-365850Y-365541D01*
X-365949Y-365577D01*
X-366049Y-365604D01*
X-366085Y-365613D01*
X-368916D01*
X-369024Y-365604D01*
X-369114Y-365586D01*
X-369204Y-365559D01*
X-369268Y-365522D01*
X-369331Y-365477D01*
X-369376Y-365423D01*
X-369457Y-365315D01*
X-369493Y-365207D01*
X-369520Y-365108D01*
X-369529Y-365072D01*
Y-365045D01*
Y-365027D01*
Y-365018D01*
X-369520Y-364909D01*
X-369502Y-364819D01*
X-369475Y-364738D01*
X-369430Y-364666D01*
X-369385Y-364612D01*
X-369340Y-364558D01*
X-369223Y-364486D01*
X-369114Y-364449D01*
X-369015Y-364422D01*
X-368970Y-364413D01*
X-366139D01*
X-366040Y-364422D01*
D02*
G37*
G36*
X-336599Y-360266D02*
X-336518Y-360284D01*
X-336446Y-360311D01*
X-336383Y-360338D01*
X-336338Y-360374D01*
X-336301Y-360401D01*
X-336274Y-360419D01*
X-336265Y-360428D01*
X-336202Y-360491D01*
X-336157Y-360563D01*
X-336130Y-360635D01*
X-336112Y-360707D01*
X-336094Y-360761D01*
X-336085Y-360807D01*
Y-360843D01*
Y-360852D01*
Y-360924D01*
X-336094Y-360996D01*
X-336103Y-361041D01*
Y-361050D01*
Y-361059D01*
X-338339Y-368110D01*
X-338375Y-368191D01*
X-338420Y-368273D01*
X-338466Y-368336D01*
X-338529Y-368390D01*
X-338655Y-368480D01*
X-338781Y-368534D01*
X-338898Y-368570D01*
X-338998Y-368588D01*
X-339043Y-368597D01*
X-339097D01*
X-339205Y-368588D01*
X-339304Y-368579D01*
X-339385Y-368552D01*
X-339467Y-368516D01*
X-339593Y-368435D01*
X-339692Y-368345D01*
X-339755Y-368255D01*
X-339809Y-368173D01*
X-339827Y-368110D01*
X-339836Y-368101D01*
Y-368092D01*
X-341829Y-361032D01*
X-341847Y-360969D01*
X-341856Y-360924D01*
Y-360888D01*
Y-360870D01*
X-341847Y-360770D01*
X-341829Y-360689D01*
X-341793Y-360608D01*
X-341757Y-360545D01*
X-341721Y-360500D01*
X-341685Y-360455D01*
X-341667Y-360437D01*
X-341658Y-360428D01*
X-341586Y-360374D01*
X-341504Y-360329D01*
X-341432Y-360302D01*
X-341360Y-360275D01*
X-341306Y-360266D01*
X-341261Y-360257D01*
X-341144D01*
X-341072Y-360275D01*
X-340954Y-360320D01*
X-340864Y-360392D01*
X-340792Y-360464D01*
X-340738Y-360536D01*
X-340711Y-360608D01*
X-340693Y-360653D01*
X-340684Y-360662D01*
Y-360671D01*
X-339088Y-366641D01*
X-337257Y-360779D01*
X-337230Y-360689D01*
X-337194Y-360608D01*
X-337149Y-360536D01*
X-337104Y-360473D01*
X-337059Y-360428D01*
X-337014Y-360383D01*
X-336924Y-360320D01*
X-336833Y-360284D01*
X-336761Y-360266D01*
X-336707Y-360257D01*
X-336689D01*
X-336599Y-360266D01*
D02*
G37*
G36*
X-329124Y-368471D02*
X-334047D01*
X-334156Y-368462D01*
X-334246Y-368444D01*
X-334336Y-368417D01*
X-334399Y-368372D01*
X-334462Y-368327D01*
X-334507Y-368273D01*
X-334588Y-368164D01*
X-334624Y-368047D01*
X-334651Y-367957D01*
X-334660Y-367912D01*
Y-367885D01*
Y-367867D01*
Y-367858D01*
X-334651Y-367750D01*
X-334633Y-367659D01*
X-334606Y-367569D01*
X-334561Y-367506D01*
X-334516Y-367443D01*
X-334471Y-367398D01*
X-334354Y-367317D01*
X-334246Y-367281D01*
X-334146Y-367254D01*
X-334101Y-367245D01*
X-330323D01*
Y-364603D01*
X-333813D01*
X-333921Y-364594D01*
X-334011Y-364576D01*
X-334101Y-364549D01*
X-334165Y-364504D01*
X-334228Y-364458D01*
X-334273Y-364404D01*
X-334354Y-364296D01*
X-334390Y-364179D01*
X-334417Y-364089D01*
X-334426Y-364044D01*
Y-364017D01*
Y-363999D01*
Y-363989D01*
X-334417Y-363881D01*
X-334399Y-363791D01*
X-334372Y-363701D01*
X-334327Y-363638D01*
X-334282Y-363575D01*
X-334237Y-363530D01*
X-334119Y-363448D01*
X-334011Y-363413D01*
X-333912Y-363385D01*
X-333867Y-363376D01*
X-330323D01*
Y-361492D01*
X-334047D01*
X-334156Y-361483D01*
X-334246Y-361465D01*
X-334336Y-361438D01*
X-334399Y-361393D01*
X-334462Y-361348D01*
X-334507Y-361293D01*
X-334588Y-361185D01*
X-334624Y-361068D01*
X-334651Y-360978D01*
X-334660Y-360933D01*
Y-360906D01*
Y-360888D01*
Y-360879D01*
X-334651Y-360770D01*
X-334633Y-360680D01*
X-334606Y-360590D01*
X-334561Y-360527D01*
X-334516Y-360464D01*
X-334471Y-360419D01*
X-334354Y-360338D01*
X-334246Y-360302D01*
X-334146Y-360275D01*
X-334101Y-360266D01*
X-329124D01*
Y-368471D01*
D02*
G37*
G36*
X-382126D02*
X-387049D01*
X-387157Y-368462D01*
X-387248Y-368444D01*
X-387338Y-368417D01*
X-387401Y-368372D01*
X-387464Y-368327D01*
X-387509Y-368273D01*
X-387590Y-368164D01*
X-387626Y-368047D01*
X-387653Y-367957D01*
X-387662Y-367912D01*
Y-367885D01*
Y-367867D01*
Y-367858D01*
X-387653Y-367750D01*
X-387635Y-367659D01*
X-387608Y-367569D01*
X-387563Y-367506D01*
X-387518Y-367443D01*
X-387473Y-367398D01*
X-387356Y-367317D01*
X-387248Y-367281D01*
X-387148Y-367254D01*
X-387103Y-367245D01*
X-383325D01*
Y-364603D01*
X-386815D01*
X-386923Y-364594D01*
X-387013Y-364576D01*
X-387103Y-364549D01*
X-387166Y-364504D01*
X-387229Y-364458D01*
X-387275Y-364404D01*
X-387356Y-364296D01*
X-387392Y-364179D01*
X-387419Y-364089D01*
X-387428Y-364044D01*
Y-364017D01*
Y-363999D01*
Y-363989D01*
X-387419Y-363881D01*
X-387401Y-363791D01*
X-387374Y-363701D01*
X-387329Y-363638D01*
X-387284Y-363575D01*
X-387239Y-363530D01*
X-387121Y-363448D01*
X-387013Y-363413D01*
X-386914Y-363385D01*
X-386869Y-363376D01*
X-383325D01*
Y-361492D01*
X-387049D01*
X-387157Y-361483D01*
X-387248Y-361465D01*
X-387338Y-361438D01*
X-387401Y-361393D01*
X-387464Y-361348D01*
X-387509Y-361293D01*
X-387590Y-361185D01*
X-387626Y-361068D01*
X-387653Y-360978D01*
X-387662Y-360933D01*
Y-360906D01*
Y-360888D01*
Y-360879D01*
X-387653Y-360770D01*
X-387635Y-360680D01*
X-387608Y-360590D01*
X-387563Y-360527D01*
X-387518Y-360464D01*
X-387473Y-360419D01*
X-387356Y-360338D01*
X-387248Y-360302D01*
X-387148Y-360275D01*
X-387103Y-360266D01*
X-382126D01*
Y-368471D01*
D02*
G37*
G36*
X-375787Y-360275D02*
X-375697Y-360293D01*
X-375616Y-360320D01*
X-375552Y-360365D01*
X-375489Y-360410D01*
X-375444Y-360464D01*
X-375372Y-360581D01*
X-375336Y-360698D01*
X-375309Y-360798D01*
X-375300Y-360843D01*
Y-360870D01*
Y-360888D01*
Y-360897D01*
Y-368480D01*
X-380223D01*
X-380331Y-368471D01*
X-380422Y-368453D01*
X-380512Y-368426D01*
X-380575Y-368381D01*
X-380638Y-368336D01*
X-380683Y-368291D01*
X-380764Y-368173D01*
X-380800Y-368065D01*
X-380827Y-367966D01*
X-380836Y-367930D01*
Y-367903D01*
Y-367885D01*
Y-367876D01*
X-380827Y-367768D01*
X-380809Y-367677D01*
X-380782Y-367596D01*
X-380737Y-367524D01*
X-380692Y-367470D01*
X-380647Y-367416D01*
X-380530Y-367344D01*
X-380422Y-367308D01*
X-380322Y-367281D01*
X-380277Y-367272D01*
X-376499D01*
Y-360897D01*
X-376490Y-360788D01*
X-376472Y-360689D01*
X-376445Y-360608D01*
X-376409Y-360527D01*
X-376355Y-360473D01*
X-376310Y-360419D01*
X-376256Y-360374D01*
X-376202Y-360347D01*
X-376085Y-360302D01*
X-375994Y-360275D01*
X-375949Y-360266D01*
X-375895D01*
X-375787Y-360275D01*
D02*
G37*
G36*
X-389303Y-367930D02*
X-389313Y-368038D01*
X-389330Y-368137D01*
X-389357Y-368218D01*
X-389394Y-368291D01*
X-389439Y-368354D01*
X-389493Y-368399D01*
X-389547Y-368444D01*
X-389601Y-368471D01*
X-389709Y-368516D01*
X-389808Y-368543D01*
X-389845Y-368552D01*
X-389899D01*
X-390007Y-368543D01*
X-390097Y-368525D01*
X-390178Y-368498D01*
X-390250Y-368453D01*
X-390304Y-368408D01*
X-390358Y-368354D01*
X-390431Y-368237D01*
X-390467Y-368128D01*
X-390494Y-368029D01*
X-390503Y-367984D01*
Y-367957D01*
Y-367939D01*
Y-367930D01*
Y-364603D01*
X-393325D01*
X-393433Y-364594D01*
X-393523Y-364576D01*
X-393605Y-364549D01*
X-393677Y-364504D01*
X-393731Y-364458D01*
X-393785Y-364404D01*
X-393857Y-364296D01*
X-393893Y-364179D01*
X-393920Y-364089D01*
X-393929Y-364044D01*
Y-364017D01*
Y-363999D01*
Y-363989D01*
X-393920Y-363881D01*
X-393902Y-363791D01*
X-393875Y-363701D01*
X-393839Y-363638D01*
X-393785Y-363575D01*
X-393740Y-363530D01*
X-393632Y-363448D01*
X-393514Y-363413D01*
X-393424Y-363385D01*
X-393379Y-363376D01*
X-390503D01*
Y-361510D01*
X-394227D01*
X-394335Y-361501D01*
X-394425Y-361483D01*
X-394515Y-361456D01*
X-394578Y-361411D01*
X-394641Y-361366D01*
X-394687Y-361311D01*
X-394768Y-361203D01*
X-394804Y-361086D01*
X-394831Y-360996D01*
X-394840Y-360951D01*
Y-360924D01*
Y-360906D01*
Y-360897D01*
X-394831Y-360788D01*
X-394813Y-360698D01*
X-394786Y-360608D01*
X-394741Y-360545D01*
X-394696Y-360482D01*
X-394650Y-360437D01*
X-394533Y-360356D01*
X-394425Y-360320D01*
X-394326Y-360293D01*
X-394281Y-360284D01*
X-389303D01*
Y-367930D01*
D02*
G37*
G36*
X-358276Y-360275D02*
X-358186Y-360293D01*
X-358105Y-360320D01*
X-358041Y-360356D01*
X-357978Y-360410D01*
X-357933Y-360455D01*
X-357861Y-360563D01*
X-357825Y-360680D01*
X-357798Y-360770D01*
X-357789Y-360816D01*
Y-360843D01*
Y-360861D01*
Y-360870D01*
Y-367975D01*
X-357798Y-368083D01*
X-357816Y-368173D01*
X-357843Y-368255D01*
X-357879Y-368318D01*
X-357924Y-368381D01*
X-357978Y-368426D01*
X-358087Y-368498D01*
X-358195Y-368534D01*
X-358294Y-368561D01*
X-358330Y-368570D01*
X-358384D01*
X-358492Y-368561D01*
X-358582Y-368543D01*
X-358673Y-368516D01*
X-358736Y-368480D01*
X-358799Y-368435D01*
X-358844Y-368381D01*
X-358925Y-368273D01*
X-358961Y-368164D01*
X-358988Y-368065D01*
X-358997Y-368029D01*
Y-368002D01*
Y-367984D01*
Y-367975D01*
Y-360870D01*
X-358988Y-360761D01*
X-358970Y-360671D01*
X-358943Y-360590D01*
X-358898Y-360518D01*
X-358853Y-360464D01*
X-358808Y-360410D01*
X-358691Y-360338D01*
X-358582Y-360302D01*
X-358483Y-360275D01*
X-358438Y-360266D01*
X-358384D01*
X-358276Y-360275D01*
D02*
G37*
G36*
X-346247Y-360202D02*
X-346157Y-360211D01*
X-346013Y-360266D01*
X-345896Y-360338D01*
X-345805Y-360419D01*
X-345733Y-360509D01*
X-345688Y-360581D01*
X-345661Y-360635D01*
X-345652Y-360644D01*
Y-360653D01*
X-342992Y-367786D01*
X-342974Y-367867D01*
X-342965Y-367939D01*
X-342956Y-367993D01*
Y-368002D01*
Y-368011D01*
X-342965Y-368101D01*
X-342983Y-368182D01*
X-343010Y-368255D01*
X-343046Y-368309D01*
X-343082Y-368363D01*
X-343109Y-368399D01*
X-343127Y-368417D01*
X-343136Y-368426D01*
X-343209Y-368480D01*
X-343290Y-368516D01*
X-343362Y-368552D01*
X-343425Y-368570D01*
X-343488Y-368579D01*
X-343533Y-368588D01*
X-343578D01*
X-343722Y-368570D01*
X-343840Y-368525D01*
X-343930Y-368471D01*
X-344002Y-368399D01*
X-344065Y-368327D01*
X-344101Y-368273D01*
X-344119Y-368228D01*
X-344128Y-368209D01*
X-344561Y-367082D01*
X-348240D01*
X-348727Y-368282D01*
X-348781Y-368381D01*
X-348844Y-368462D01*
X-348934Y-368516D01*
X-349016Y-368552D01*
X-349097Y-368570D01*
X-349169Y-368579D01*
X-349214Y-368588D01*
X-349232D01*
X-349322Y-368579D01*
X-349403Y-368561D01*
X-349475Y-368534D01*
X-349538Y-368507D01*
X-349593Y-368480D01*
X-349629Y-368453D01*
X-349656Y-368435D01*
X-349665Y-368426D01*
X-349728Y-368363D01*
X-349773Y-368291D01*
X-349809Y-368228D01*
X-349827Y-368155D01*
X-349845Y-368101D01*
X-349854Y-368056D01*
Y-368020D01*
Y-368011D01*
X-349845Y-367930D01*
X-349836Y-367849D01*
X-349818Y-367795D01*
X-349809Y-367786D01*
Y-367777D01*
X-347023Y-360599D01*
X-346996Y-360527D01*
X-346951Y-360464D01*
X-346851Y-360365D01*
X-346743Y-360293D01*
X-346626Y-360247D01*
X-346518Y-360211D01*
X-346428Y-360202D01*
X-346391Y-360193D01*
X-346337D01*
X-346247Y-360202D01*
D02*
G37*
G36*
X-353235Y-360284D02*
X-353028Y-360329D01*
X-352839Y-360401D01*
X-352658Y-360500D01*
X-352496Y-360608D01*
X-352334Y-360734D01*
X-352189Y-360870D01*
X-352063Y-361014D01*
X-351946Y-361149D01*
X-351847Y-361284D01*
X-351757Y-361411D01*
X-351684Y-361528D01*
X-351621Y-361627D01*
X-351585Y-361699D01*
X-351558Y-361744D01*
X-351549Y-361762D01*
X-351432Y-361961D01*
X-351333Y-362177D01*
X-351243Y-362403D01*
X-351171Y-362628D01*
X-351107Y-362853D01*
X-351053Y-363079D01*
X-351008Y-363295D01*
X-350972Y-363503D01*
X-350945Y-363701D01*
X-350927Y-363881D01*
X-350909Y-364044D01*
X-350900Y-364188D01*
Y-364296D01*
X-350891Y-364386D01*
Y-364440D01*
Y-364449D01*
Y-364458D01*
X-350900Y-364765D01*
X-350918Y-365053D01*
X-350954Y-365324D01*
X-350990Y-365586D01*
X-351035Y-365820D01*
X-351089Y-366045D01*
X-351152Y-366244D01*
X-351216Y-366424D01*
X-351270Y-366595D01*
X-351333Y-366731D01*
X-351387Y-366857D01*
X-351432Y-366956D01*
X-351468Y-367037D01*
X-351504Y-367100D01*
X-351522Y-367136D01*
X-351531Y-367146D01*
X-351675Y-367407D01*
X-351829Y-367632D01*
X-351982Y-367831D01*
X-352144Y-368002D01*
X-352307Y-368146D01*
X-352460Y-368273D01*
X-352613Y-368372D01*
X-352767Y-368444D01*
X-352902Y-368507D01*
X-353037Y-368552D01*
X-353145Y-368588D01*
X-353245Y-368606D01*
X-353326Y-368624D01*
X-353389Y-368633D01*
X-353443D01*
X-353659Y-368615D01*
X-353858Y-368570D01*
X-354047Y-368498D01*
X-354236Y-368399D01*
X-354399Y-368291D01*
X-354561Y-368164D01*
X-354705Y-368029D01*
X-354831Y-367885D01*
X-354949Y-367750D01*
X-355057Y-367614D01*
X-355147Y-367488D01*
X-355219Y-367380D01*
X-355282Y-367281D01*
X-355318Y-367209D01*
X-355345Y-367164D01*
X-355354Y-367146D01*
X-355472Y-366947D01*
X-355571Y-366740D01*
X-355652Y-366523D01*
X-355733Y-366298D01*
X-355796Y-366073D01*
X-355841Y-365847D01*
X-355886Y-365631D01*
X-355923Y-365423D01*
X-355950Y-365225D01*
X-355968Y-365036D01*
X-355986Y-364873D01*
X-355995Y-364738D01*
X-356004Y-364621D01*
Y-364531D01*
Y-364477D01*
Y-364467D01*
Y-364458D01*
X-355995Y-364152D01*
X-355977Y-363854D01*
X-355941Y-363575D01*
X-355896Y-363313D01*
X-355850Y-363061D01*
X-355796Y-362817D01*
X-355733Y-362601D01*
X-355670Y-362403D01*
X-355607Y-362222D01*
X-355544Y-362060D01*
X-355490Y-361925D01*
X-355445Y-361807D01*
X-355400Y-361717D01*
X-355363Y-361645D01*
X-355345Y-361609D01*
X-355336Y-361591D01*
X-355192Y-361357D01*
X-355048Y-361149D01*
X-354895Y-360978D01*
X-354732Y-360825D01*
X-354570Y-360698D01*
X-354417Y-360590D01*
X-354263Y-360500D01*
X-354119Y-360428D01*
X-353975Y-360374D01*
X-353849Y-360338D01*
X-353731Y-360302D01*
X-353632Y-360284D01*
X-353551Y-360275D01*
X-353497Y-360266D01*
X-353443D01*
X-353235Y-360284D01*
D02*
G37*
G36*
X-396598Y-360275D02*
X-396499Y-360293D01*
X-396418Y-360329D01*
X-396346Y-360365D01*
X-396283Y-360410D01*
X-396228Y-360464D01*
X-396183Y-360527D01*
X-396156Y-360581D01*
X-396111Y-360707D01*
X-396084Y-360807D01*
X-396075Y-360843D01*
Y-360879D01*
Y-360897D01*
Y-360906D01*
X-396084Y-361014D01*
X-396102Y-361113D01*
X-396129Y-361194D01*
X-396174Y-361266D01*
X-396219Y-361329D01*
X-396274Y-361384D01*
X-396337Y-361429D01*
X-396391Y-361456D01*
X-396508Y-361501D01*
X-396607Y-361528D01*
X-396652Y-361537D01*
X-398681D01*
Y-368327D01*
X-398690Y-368435D01*
X-398708Y-368534D01*
X-398735Y-368624D01*
X-398780Y-368696D01*
X-398825Y-368759D01*
X-398880Y-368814D01*
X-398934Y-368850D01*
X-398997Y-368886D01*
X-399105Y-368931D01*
X-399204Y-368958D01*
X-399249Y-368967D01*
X-399303D01*
X-399412Y-368958D01*
X-399511Y-368940D01*
X-399592Y-368904D01*
X-399673Y-368868D01*
X-399727Y-368823D01*
X-399781Y-368769D01*
X-399826Y-368705D01*
X-399853Y-368642D01*
X-399898Y-368525D01*
X-399925Y-368426D01*
X-399935Y-368390D01*
Y-368354D01*
Y-368336D01*
Y-368327D01*
Y-361537D01*
X-401882D01*
X-401999Y-361528D01*
X-402099Y-361510D01*
X-402180Y-361483D01*
X-402261Y-361438D01*
X-402324Y-361393D01*
X-402369Y-361339D01*
X-402414Y-361275D01*
X-402450Y-361221D01*
X-402495Y-361104D01*
X-402522Y-361005D01*
X-402531Y-360960D01*
Y-360933D01*
Y-360915D01*
Y-360906D01*
X-402522Y-360788D01*
X-402504Y-360698D01*
X-402468Y-360608D01*
X-402432Y-360536D01*
X-402378Y-360473D01*
X-402324Y-360419D01*
X-402270Y-360383D01*
X-402207Y-360347D01*
X-402090Y-360302D01*
X-401981Y-360275D01*
X-401945Y-360266D01*
X-396706D01*
X-396598Y-360275D01*
D02*
G37*
G36*
X343105Y445610D02*
X343372Y445560D01*
X343622Y445485D01*
X343847Y445385D01*
X344047Y445276D01*
X344230Y445143D01*
X344396Y445010D01*
X344538Y444868D01*
X344655Y444718D01*
X344763Y444585D01*
X344846Y444452D01*
X344921Y444343D01*
X344971Y444243D01*
X345005Y444168D01*
X345030Y444118D01*
X345038Y444110D01*
Y444102D01*
X345063Y444018D01*
X345080Y443943D01*
X345088Y443910D01*
Y443894D01*
Y443877D01*
Y443868D01*
X345080Y443785D01*
X345063Y443710D01*
X345038Y443643D01*
X345005Y443585D01*
X344971Y443544D01*
X344946Y443502D01*
X344930Y443485D01*
X344921Y443477D01*
X344855Y443427D01*
X344788Y443394D01*
X344721Y443360D01*
X344663Y443344D01*
X344605Y443335D01*
X344563Y443327D01*
X344530D01*
X344413Y443344D01*
X344313Y443377D01*
X344230Y443435D01*
X344163Y443502D01*
X344113Y443560D01*
X344080Y443619D01*
X344063Y443652D01*
X344055Y443669D01*
X343971Y443835D01*
X343888Y443977D01*
X343797Y444093D01*
X343705Y444193D01*
X343630Y444260D01*
X343572Y444310D01*
X343530Y444343D01*
X343513Y444352D01*
X343413Y444402D01*
X343297Y444435D01*
X343180Y444460D01*
X343055Y444477D01*
X342947Y444485D01*
X342855Y444493D01*
X342772D01*
X342622Y444485D01*
X342497Y444460D01*
X342380Y444418D01*
X342289Y444377D01*
X342214Y444327D01*
X342155Y444293D01*
X342122Y444260D01*
X342114Y444252D01*
X342030Y444160D01*
X341972Y444060D01*
X341930Y443960D01*
X341905Y443868D01*
X341880Y443785D01*
X341872Y443718D01*
Y443677D01*
Y443660D01*
X341880Y443560D01*
X341897Y443460D01*
X341922Y443369D01*
X341955Y443285D01*
X342047Y443135D01*
X342147Y443010D01*
X342255Y442919D01*
X342339Y442844D01*
X342380Y442819D01*
X342405Y442802D01*
X342422Y442785D01*
X342430D01*
X342647Y442652D01*
X342855Y442519D01*
X343047Y442385D01*
X343222Y442252D01*
X343388Y442119D01*
X343538Y441994D01*
X343680Y441869D01*
X343805Y441752D01*
X343913Y441644D01*
X344013Y441544D01*
X344096Y441452D01*
X344163Y441377D01*
X344221Y441311D01*
X344255Y441269D01*
X344280Y441236D01*
X344288Y441227D01*
X344471Y440961D01*
X344638Y440678D01*
X344780Y440411D01*
X344896Y440153D01*
X344938Y440036D01*
X344988Y439928D01*
X345021Y439836D01*
X345055Y439753D01*
X345071Y439686D01*
X345088Y439636D01*
X345105Y439603D01*
Y439595D01*
X345171Y439311D01*
X345238Y439036D01*
X345304Y438761D01*
X345330Y438637D01*
X345354Y438512D01*
X345379Y438403D01*
X345405Y438295D01*
X345421Y438203D01*
X345438Y438128D01*
X345454Y438062D01*
X345463Y438020D01*
X345471Y437987D01*
Y437978D01*
X341347D01*
X341247Y437987D01*
X341164Y438003D01*
X341081Y438028D01*
X341022Y438070D01*
X340964Y438112D01*
X340922Y438162D01*
X340847Y438262D01*
X340814Y438370D01*
X340789Y438453D01*
X340781Y438495D01*
Y438520D01*
Y438536D01*
Y438545D01*
X340789Y438645D01*
X340806Y438728D01*
X340831Y438811D01*
X340872Y438870D01*
X340914Y438928D01*
X340956Y438970D01*
X341064Y439045D01*
X341164Y439078D01*
X341256Y439103D01*
X341297Y439111D01*
X344088D01*
X344005Y439370D01*
X343913Y439603D01*
X343830Y439803D01*
X343747Y439978D01*
X343705Y440061D01*
X343672Y440128D01*
X343638Y440186D01*
X343605Y440228D01*
X343588Y440269D01*
X343572Y440294D01*
X343555Y440311D01*
Y440319D01*
X343447Y440478D01*
X343330Y440628D01*
X343197Y440769D01*
X343063Y440911D01*
X342789Y441169D01*
X342647Y441286D01*
X342505Y441394D01*
X342380Y441486D01*
X342255Y441577D01*
X342147Y441652D01*
X342055Y441719D01*
X341972Y441769D01*
X341914Y441802D01*
X341880Y441827D01*
X341864Y441836D01*
X341656Y441969D01*
X341480Y442111D01*
X341322Y442269D01*
X341189Y442419D01*
X341072Y442577D01*
X340981Y442744D01*
X340906Y442894D01*
X340839Y443044D01*
X340797Y443185D01*
X340756Y443319D01*
X340731Y443435D01*
X340714Y443544D01*
X340706Y443627D01*
X340697Y443694D01*
Y443727D01*
Y443744D01*
X340706Y443885D01*
X340722Y444027D01*
X340756Y444160D01*
X340797Y444285D01*
X340897Y444510D01*
X340956Y444618D01*
X341014Y444710D01*
X341081Y444793D01*
X341139Y444868D01*
X341189Y444935D01*
X341239Y444993D01*
X341281Y445035D01*
X341314Y445068D01*
X341331Y445085D01*
X341339Y445093D01*
X341439Y445185D01*
X341547Y445268D01*
X341664Y445343D01*
X341780Y445401D01*
X341905Y445451D01*
X342022Y445493D01*
X342264Y445560D01*
X342372Y445585D01*
X342480Y445601D01*
X342572Y445610D01*
X342655Y445618D01*
X342722Y445626D01*
X342963D01*
X343105Y445610D01*
D02*
G37*
G36*
X347829Y445551D02*
X347912Y445535D01*
X347987Y445510D01*
X348046Y445476D01*
X348104Y445426D01*
X348145Y445385D01*
X348212Y445285D01*
X348246Y445177D01*
X348270Y445093D01*
X348279Y445051D01*
Y445027D01*
Y445010D01*
Y445001D01*
Y438437D01*
X348270Y438337D01*
X348254Y438253D01*
X348229Y438178D01*
X348195Y438120D01*
X348154Y438062D01*
X348104Y438020D01*
X348004Y437953D01*
X347904Y437920D01*
X347812Y437895D01*
X347779Y437887D01*
X347729D01*
X347629Y437895D01*
X347546Y437912D01*
X347462Y437937D01*
X347404Y437970D01*
X347346Y438012D01*
X347304Y438062D01*
X347229Y438162D01*
X347196Y438262D01*
X347171Y438353D01*
X347162Y438387D01*
Y438411D01*
Y438428D01*
Y438437D01*
Y445001D01*
X347171Y445102D01*
X347187Y445185D01*
X347212Y445260D01*
X347254Y445326D01*
X347296Y445376D01*
X347337Y445426D01*
X347446Y445493D01*
X347546Y445526D01*
X347637Y445551D01*
X347679Y445560D01*
X347729D01*
X347829Y445551D01*
D02*
G37*
G36*
X350712Y445560D02*
X350795Y445543D01*
X350870Y445518D01*
X350936Y445476D01*
X350986Y445435D01*
X351028Y445385D01*
X351095Y445276D01*
X351136Y445168D01*
X351153Y445076D01*
X351161Y445035D01*
Y445010D01*
Y444993D01*
Y444985D01*
Y440528D01*
X351170Y440419D01*
X351178Y440311D01*
X351228Y440111D01*
X351295Y439928D01*
X351370Y439770D01*
X351453Y439645D01*
X351486Y439586D01*
X351520Y439545D01*
X351545Y439511D01*
X351570Y439486D01*
X351578Y439470D01*
X351586Y439461D01*
X351678Y439370D01*
X351770Y439295D01*
X351861Y439220D01*
X351953Y439161D01*
X352053Y439111D01*
X352145Y439070D01*
X352328Y439011D01*
X352478Y438970D01*
X352553Y438961D01*
X352603Y438953D01*
X352653Y438945D01*
X352719D01*
X352903Y438961D01*
X353069Y439003D01*
X353219Y439053D01*
X353353Y439120D01*
X353461Y439186D01*
X353544Y439236D01*
X353569Y439261D01*
X353594Y439278D01*
X353602Y439295D01*
X353611D01*
X353686Y439395D01*
X353752Y439495D01*
X353811Y439586D01*
X353861Y439678D01*
X353936Y439836D01*
X353986Y439978D01*
X354019Y440086D01*
X354036Y440169D01*
X354044Y440194D01*
Y440219D01*
Y440228D01*
Y440236D01*
X354052Y440344D01*
X354069Y440428D01*
X354094Y440511D01*
X354136Y440578D01*
X354177Y440636D01*
X354227Y440686D01*
X354277Y440719D01*
X354327Y440753D01*
X354436Y440794D01*
X354527Y440819D01*
X354569Y440828D01*
X354619D01*
X354711Y440819D01*
X354794Y440803D01*
X354869Y440778D01*
X354927Y440736D01*
X354977Y440694D01*
X355019Y440653D01*
X355085Y440544D01*
X355127Y440444D01*
X355144Y440353D01*
X355152Y440311D01*
Y440286D01*
Y440269D01*
Y440261D01*
X355144Y440103D01*
X355127Y439953D01*
X355094Y439811D01*
X355044Y439678D01*
X354994Y439553D01*
X354944Y439436D01*
X354877Y439328D01*
X354819Y439228D01*
X354761Y439145D01*
X354694Y439061D01*
X354644Y438995D01*
X354585Y438936D01*
X354544Y438895D01*
X354510Y438861D01*
X354494Y438845D01*
X354486Y438836D01*
X354336Y438661D01*
X354186Y438503D01*
X354027Y438370D01*
X353877Y438253D01*
X353727Y438153D01*
X353577Y438078D01*
X353436Y438012D01*
X353302Y437953D01*
X353186Y437912D01*
X353069Y437878D01*
X352969Y437862D01*
X352886Y437845D01*
X352811Y437837D01*
X352761Y437828D01*
X352719D01*
X352511Y437837D01*
X352311Y437862D01*
X352119Y437912D01*
X351945Y437962D01*
X351778Y438028D01*
X351628Y438103D01*
X351486Y438178D01*
X351361Y438262D01*
X351253Y438337D01*
X351153Y438411D01*
X351070Y438487D01*
X351003Y438553D01*
X350945Y438611D01*
X350911Y438653D01*
X350886Y438678D01*
X350878Y438686D01*
X350737Y438845D01*
X350611Y439011D01*
X350503Y439170D01*
X350412Y439336D01*
X350328Y439486D01*
X350270Y439645D01*
X350212Y439786D01*
X350170Y439928D01*
X350137Y440053D01*
X350112Y440169D01*
X350095Y440269D01*
X350078Y440361D01*
Y440428D01*
X350070Y440486D01*
Y440519D01*
Y440528D01*
Y444985D01*
X350078Y445085D01*
X350095Y445177D01*
X350120Y445252D01*
X350153Y445326D01*
X350195Y445376D01*
X350245Y445426D01*
X350295Y445468D01*
X350345Y445493D01*
X350445Y445535D01*
X350536Y445560D01*
X350570Y445568D01*
X350620D01*
X350712Y445560D01*
D02*
G37*
G36*
X318236Y370400D02*
X318327Y370382D01*
X318408Y370355D01*
X318480Y370318D01*
X318534Y370264D01*
X318579Y370219D01*
X318651Y370111D01*
X318696Y369994D01*
X318714Y369904D01*
X318723Y369859D01*
Y369832D01*
Y369813D01*
Y369804D01*
X318714Y369696D01*
X318696Y369606D01*
X318669Y369525D01*
X318633Y369462D01*
X318588Y369399D01*
X318534Y369354D01*
X318426Y369282D01*
X318327Y369245D01*
X318227Y369218D01*
X318191Y369209D01*
X315360D01*
X315252Y369218D01*
X315162Y369236D01*
X315072Y369263D01*
X315008Y369300D01*
X314945Y369345D01*
X314900Y369399D01*
X314819Y369507D01*
X314783Y369615D01*
X314756Y369714D01*
X314747Y369750D01*
Y369777D01*
Y369795D01*
Y369804D01*
X314756Y369913D01*
X314774Y370003D01*
X314801Y370084D01*
X314846Y370156D01*
X314891Y370210D01*
X314936Y370264D01*
X315053Y370336D01*
X315162Y370373D01*
X315261Y370400D01*
X315306Y370409D01*
X318137D01*
X318236Y370400D01*
D02*
G37*
G36*
X347677Y374557D02*
X347758Y374538D01*
X347830Y374511D01*
X347893Y374484D01*
X347938Y374448D01*
X347975Y374421D01*
X348002Y374403D01*
X348011Y374394D01*
X348074Y374331D01*
X348119Y374259D01*
X348146Y374187D01*
X348164Y374115D01*
X348182Y374061D01*
X348191Y374016D01*
Y373979D01*
Y373970D01*
Y373898D01*
X348182Y373826D01*
X348173Y373781D01*
Y373772D01*
Y373763D01*
X345937Y366712D01*
X345901Y366631D01*
X345855Y366549D01*
X345810Y366486D01*
X345747Y366432D01*
X345621Y366342D01*
X345495Y366288D01*
X345378Y366252D01*
X345278Y366234D01*
X345233Y366225D01*
X345179D01*
X345071Y366234D01*
X344972Y366243D01*
X344891Y366270D01*
X344809Y366306D01*
X344683Y366387D01*
X344584Y366477D01*
X344521Y366567D01*
X344467Y366649D01*
X344449Y366712D01*
X344440Y366721D01*
Y366730D01*
X342447Y373790D01*
X342429Y373853D01*
X342420Y373898D01*
Y373934D01*
Y373952D01*
X342429Y374052D01*
X342447Y374133D01*
X342483Y374214D01*
X342519Y374277D01*
X342555Y374322D01*
X342591Y374367D01*
X342609Y374385D01*
X342618Y374394D01*
X342691Y374448D01*
X342772Y374493D01*
X342844Y374520D01*
X342916Y374548D01*
X342970Y374557D01*
X343015Y374566D01*
X343132D01*
X343204Y374548D01*
X343322Y374502D01*
X343412Y374430D01*
X343484Y374358D01*
X343538Y374286D01*
X343565Y374214D01*
X343583Y374169D01*
X343592Y374160D01*
Y374151D01*
X345188Y368181D01*
X347019Y374043D01*
X347046Y374133D01*
X347082Y374214D01*
X347127Y374286D01*
X347172Y374349D01*
X347217Y374394D01*
X347262Y374439D01*
X347352Y374502D01*
X347443Y374538D01*
X347515Y374557D01*
X347569Y374566D01*
X347587D01*
X347677Y374557D01*
D02*
G37*
G36*
X355152Y366351D02*
X350229D01*
X350121Y366360D01*
X350030Y366378D01*
X349940Y366405D01*
X349877Y366450D01*
X349814Y366495D01*
X349769Y366549D01*
X349688Y366658D01*
X349652Y366775D01*
X349625Y366865D01*
X349616Y366910D01*
Y366937D01*
Y366955D01*
Y366964D01*
X349625Y367072D01*
X349643Y367163D01*
X349670Y367253D01*
X349715Y367316D01*
X349760Y367379D01*
X349805Y367424D01*
X349922Y367505D01*
X350030Y367541D01*
X350130Y367568D01*
X350175Y367577D01*
X353953D01*
Y370219D01*
X350463D01*
X350355Y370228D01*
X350265Y370246D01*
X350175Y370273D01*
X350112Y370318D01*
X350048Y370364D01*
X350003Y370418D01*
X349922Y370526D01*
X349886Y370643D01*
X349859Y370733D01*
X349850Y370778D01*
Y370805D01*
Y370823D01*
Y370832D01*
X349859Y370941D01*
X349877Y371031D01*
X349904Y371121D01*
X349949Y371184D01*
X349994Y371247D01*
X350039Y371292D01*
X350157Y371373D01*
X350265Y371409D01*
X350364Y371437D01*
X350409Y371446D01*
X353953D01*
Y373330D01*
X350229D01*
X350121Y373339D01*
X350030Y373357D01*
X349940Y373384D01*
X349877Y373429D01*
X349814Y373474D01*
X349769Y373529D01*
X349688Y373637D01*
X349652Y373754D01*
X349625Y373844D01*
X349616Y373889D01*
Y373916D01*
Y373934D01*
Y373943D01*
X349625Y374052D01*
X349643Y374142D01*
X349670Y374232D01*
X349715Y374295D01*
X349760Y374358D01*
X349805Y374403D01*
X349922Y374484D01*
X350030Y374520D01*
X350130Y374548D01*
X350175Y374557D01*
X355152D01*
Y366351D01*
D02*
G37*
G36*
X326000Y374548D02*
X326090Y374529D01*
X326171Y374502D01*
X326235Y374466D01*
X326298Y374412D01*
X326343Y374367D01*
X326415Y374259D01*
X326451Y374142D01*
X326478Y374052D01*
X326487Y374006D01*
Y373979D01*
Y373961D01*
Y373952D01*
Y366847D01*
X326478Y366739D01*
X326460Y366649D01*
X326433Y366567D01*
X326397Y366504D01*
X326352Y366441D01*
X326298Y366396D01*
X326189Y366324D01*
X326081Y366288D01*
X325982Y366261D01*
X325946Y366252D01*
X325892D01*
X325784Y366261D01*
X325694Y366279D01*
X325603Y366306D01*
X325540Y366342D01*
X325477Y366387D01*
X325432Y366441D01*
X325351Y366549D01*
X325315Y366658D01*
X325288Y366757D01*
X325279Y366793D01*
Y366820D01*
Y366838D01*
Y366847D01*
Y373952D01*
X325288Y374061D01*
X325306Y374151D01*
X325333Y374232D01*
X325378Y374304D01*
X325423Y374358D01*
X325468Y374412D01*
X325585Y374484D01*
X325694Y374520D01*
X325793Y374548D01*
X325838Y374557D01*
X325892D01*
X326000Y374548D01*
D02*
G37*
G36*
X338029Y374620D02*
X338119Y374611D01*
X338263Y374557D01*
X338380Y374484D01*
X338471Y374403D01*
X338543Y374313D01*
X338588Y374241D01*
X338615Y374187D01*
X338624Y374178D01*
Y374169D01*
X341284Y367036D01*
X341302Y366955D01*
X341311Y366883D01*
X341320Y366829D01*
Y366820D01*
Y366811D01*
X341311Y366721D01*
X341293Y366640D01*
X341266Y366567D01*
X341230Y366513D01*
X341194Y366459D01*
X341167Y366423D01*
X341149Y366405D01*
X341140Y366396D01*
X341068Y366342D01*
X340986Y366306D01*
X340914Y366270D01*
X340851Y366252D01*
X340788Y366243D01*
X340743Y366234D01*
X340698D01*
X340554Y366252D01*
X340436Y366297D01*
X340346Y366351D01*
X340274Y366423D01*
X340211Y366495D01*
X340175Y366549D01*
X340157Y366595D01*
X340148Y366613D01*
X339715Y367740D01*
X336036D01*
X335549Y366540D01*
X335495Y366441D01*
X335432Y366360D01*
X335342Y366306D01*
X335261Y366270D01*
X335179Y366252D01*
X335107Y366243D01*
X335062Y366234D01*
X335044D01*
X334954Y366243D01*
X334873Y366261D01*
X334801Y366288D01*
X334738Y366315D01*
X334683Y366342D01*
X334647Y366369D01*
X334620Y366387D01*
X334611Y366396D01*
X334548Y366459D01*
X334503Y366531D01*
X334467Y366595D01*
X334449Y366667D01*
X334431Y366721D01*
X334422Y366766D01*
Y366802D01*
Y366811D01*
X334431Y366892D01*
X334440Y366973D01*
X334458Y367027D01*
X334467Y367036D01*
Y367045D01*
X337253Y374223D01*
X337280Y374295D01*
X337325Y374358D01*
X337425Y374457D01*
X337533Y374529D01*
X337650Y374575D01*
X337758Y374611D01*
X337848Y374620D01*
X337884Y374629D01*
X337939D01*
X338029Y374620D01*
D02*
G37*
G36*
X293845Y366856D02*
X293836Y366748D01*
X293818Y366649D01*
X293791Y366567D01*
X293755Y366495D01*
X293710Y366432D01*
X293656Y366387D01*
X293602Y366342D01*
X293548Y366315D01*
X293440Y366270D01*
X293340Y366243D01*
X293304Y366234D01*
X293250D01*
X293142Y366243D01*
X293052Y366261D01*
X292971Y366288D01*
X292899Y366333D01*
X292845Y366378D01*
X292790Y366432D01*
X292718Y366549D01*
X292682Y366658D01*
X292655Y366757D01*
X292646Y366802D01*
Y366829D01*
Y366847D01*
Y366856D01*
Y370120D01*
X290482D01*
X290302Y370129D01*
X290140Y370147D01*
X289986Y370174D01*
X289842Y370210D01*
X289707Y370255D01*
X289589Y370309D01*
X289472Y370364D01*
X289373Y370418D01*
X289292Y370472D01*
X289211Y370526D01*
X289148Y370580D01*
X289093Y370625D01*
X289048Y370661D01*
X289021Y370688D01*
X289003Y370706D01*
X288994Y370715D01*
X288904Y370832D01*
X288823Y370959D01*
X288751Y371085D01*
X288688Y371220D01*
X288643Y371346D01*
X288598Y371482D01*
X288534Y371734D01*
X288516Y371842D01*
X288498Y371951D01*
X288489Y372050D01*
X288480Y372131D01*
X288471Y372203D01*
Y372248D01*
Y372284D01*
Y372293D01*
X288480Y372483D01*
X288498Y372654D01*
X288534Y372825D01*
X288580Y372979D01*
X288643Y373132D01*
X288697Y373267D01*
X288769Y373384D01*
X288832Y373502D01*
X288895Y373601D01*
X288967Y373691D01*
X289021Y373763D01*
X289075Y373826D01*
X289130Y373880D01*
X289166Y373916D01*
X289184Y373934D01*
X289193Y373943D01*
X289265Y374052D01*
X289355Y374142D01*
X289463Y374232D01*
X289571Y374295D01*
X289698Y374358D01*
X289815Y374403D01*
X290067Y374484D01*
X290184Y374502D01*
X290302Y374520D01*
X290401Y374538D01*
X290491Y374548D01*
X290563Y374557D01*
X293845D01*
Y366856D01*
D02*
G37*
G36*
X331041Y374538D02*
X331248Y374493D01*
X331437Y374421D01*
X331618Y374322D01*
X331780Y374214D01*
X331942Y374088D01*
X332086Y373952D01*
X332213Y373808D01*
X332330Y373673D01*
X332429Y373538D01*
X332519Y373411D01*
X332592Y373294D01*
X332655Y373195D01*
X332691Y373123D01*
X332718Y373078D01*
X332727Y373060D01*
X332844Y372861D01*
X332943Y372645D01*
X333033Y372419D01*
X333106Y372194D01*
X333169Y371969D01*
X333223Y371743D01*
X333268Y371527D01*
X333304Y371319D01*
X333331Y371121D01*
X333349Y370941D01*
X333367Y370778D01*
X333376Y370634D01*
Y370526D01*
X333385Y370436D01*
Y370382D01*
Y370373D01*
Y370364D01*
X333376Y370057D01*
X333358Y369768D01*
X333322Y369498D01*
X333286Y369236D01*
X333241Y369002D01*
X333187Y368777D01*
X333124Y368578D01*
X333060Y368398D01*
X333006Y368227D01*
X332943Y368091D01*
X332889Y367965D01*
X332844Y367866D01*
X332808Y367785D01*
X332772Y367722D01*
X332754Y367686D01*
X332745Y367677D01*
X332601Y367415D01*
X332447Y367190D01*
X332294Y366991D01*
X332132Y366820D01*
X331969Y366676D01*
X331816Y366549D01*
X331663Y366450D01*
X331509Y366378D01*
X331374Y366315D01*
X331239Y366270D01*
X331131Y366234D01*
X331031Y366216D01*
X330950Y366198D01*
X330887Y366189D01*
X330833D01*
X330617Y366207D01*
X330418Y366252D01*
X330229Y366324D01*
X330040Y366423D01*
X329877Y366531D01*
X329715Y366658D01*
X329571Y366793D01*
X329445Y366937D01*
X329327Y367072D01*
X329219Y367208D01*
X329129Y367334D01*
X329057Y367442D01*
X328994Y367541D01*
X328958Y367613D01*
X328931Y367659D01*
X328922Y367677D01*
X328804Y367875D01*
X328705Y368082D01*
X328624Y368299D01*
X328543Y368524D01*
X328480Y368750D01*
X328435Y368975D01*
X328390Y369191D01*
X328354Y369399D01*
X328326Y369597D01*
X328308Y369786D01*
X328290Y369949D01*
X328281Y370084D01*
X328272Y370201D01*
Y370291D01*
Y370345D01*
Y370355D01*
Y370364D01*
X328281Y370670D01*
X328299Y370968D01*
X328335Y371247D01*
X328381Y371509D01*
X328426Y371761D01*
X328480Y372005D01*
X328543Y372221D01*
X328606Y372419D01*
X328669Y372600D01*
X328732Y372762D01*
X328786Y372897D01*
X328831Y373015D01*
X328876Y373105D01*
X328913Y373177D01*
X328931Y373213D01*
X328940Y373231D01*
X329084Y373465D01*
X329228Y373673D01*
X329381Y373844D01*
X329544Y373997D01*
X329706Y374124D01*
X329859Y374232D01*
X330013Y374322D01*
X330157Y374394D01*
X330301Y374448D01*
X330427Y374484D01*
X330545Y374520D01*
X330644Y374538D01*
X330725Y374548D01*
X330779Y374557D01*
X330833D01*
X331041Y374538D01*
D02*
G37*
G36*
X298760Y374611D02*
X298994Y374575D01*
X299220Y374502D01*
X299436Y374412D01*
X299634Y374313D01*
X299815Y374196D01*
X299986Y374070D01*
X300139Y373943D01*
X300275Y373817D01*
X300401Y373691D01*
X300500Y373574D01*
X300590Y373474D01*
X300653Y373384D01*
X300707Y373321D01*
X300734Y373276D01*
X300743Y373258D01*
X300879Y373024D01*
X301005Y372780D01*
X301113Y372537D01*
X301203Y372293D01*
X301275Y372041D01*
X301339Y371806D01*
X301393Y371572D01*
X301438Y371355D01*
X301474Y371148D01*
X301492Y370959D01*
X301510Y370787D01*
X301528Y370643D01*
Y370526D01*
X301537Y370436D01*
Y370382D01*
Y370373D01*
Y370364D01*
X301528Y370057D01*
X301501Y369759D01*
X301456Y369480D01*
X301402Y369209D01*
X301339Y368957D01*
X301275Y368722D01*
X301194Y368506D01*
X301113Y368308D01*
X301041Y368127D01*
X300960Y367965D01*
X300897Y367830D01*
X300825Y367713D01*
X300779Y367622D01*
X300734Y367550D01*
X300707Y367514D01*
X300698Y367496D01*
X300518Y367271D01*
X300338Y367063D01*
X300148Y366892D01*
X299950Y366739D01*
X299752Y366613D01*
X299562Y366504D01*
X299373Y366423D01*
X299193Y366351D01*
X299021Y366297D01*
X298868Y366261D01*
X298724Y366225D01*
X298606Y366207D01*
X298507Y366198D01*
X298435Y366189D01*
X298372D01*
X298111Y366207D01*
X297867Y366252D01*
X297633Y366324D01*
X297407Y366414D01*
X297200Y366522D01*
X297010Y366640D01*
X296830Y366775D01*
X296677Y366910D01*
X296532Y367036D01*
X296406Y367172D01*
X296289Y367289D01*
X296199Y367397D01*
X296127Y367487D01*
X296082Y367559D01*
X296046Y367604D01*
X296037Y367622D01*
X295892Y367830D01*
X295775Y368046D01*
X295667Y368272D01*
X295577Y368506D01*
X295505Y368731D01*
X295432Y368966D01*
X295387Y369182D01*
X295342Y369399D01*
X295306Y369597D01*
X295288Y369777D01*
X295270Y369940D01*
X295252Y370084D01*
Y370201D01*
X295243Y370291D01*
Y370345D01*
Y370355D01*
Y370364D01*
X295252Y370670D01*
X295279Y370968D01*
X295324Y371247D01*
X295378Y371518D01*
X295441Y371779D01*
X295514Y372014D01*
X295586Y372239D01*
X295667Y372438D01*
X295748Y372627D01*
X295820Y372789D01*
X295892Y372933D01*
X295955Y373051D01*
X296010Y373141D01*
X296055Y373213D01*
X296082Y373249D01*
X296091Y373267D01*
X296271Y373511D01*
X296469Y373718D01*
X296668Y373898D01*
X296866Y374052D01*
X297073Y374187D01*
X297272Y374295D01*
X297470Y374385D01*
X297651Y374457D01*
X297831Y374511D01*
X297993Y374557D01*
X298137Y374584D01*
X298264Y374611D01*
X298363Y374620D01*
X298444Y374629D01*
X298507D01*
X298760Y374611D01*
D02*
G37*
G36*
X308669Y374548D02*
X308769Y374529D01*
X308850Y374493D01*
X308922Y374457D01*
X308985Y374412D01*
X309039Y374358D01*
X309084Y374295D01*
X309111Y374241D01*
X309156Y374115D01*
X309183Y374016D01*
X309192Y373979D01*
Y373943D01*
Y373925D01*
Y373916D01*
X309183Y373808D01*
X309165Y373709D01*
X309138Y373628D01*
X309093Y373556D01*
X309048Y373493D01*
X308994Y373438D01*
X308931Y373393D01*
X308877Y373366D01*
X308760Y373321D01*
X308660Y373294D01*
X308615Y373285D01*
X306586D01*
Y366495D01*
X306577Y366387D01*
X306559Y366288D01*
X306532Y366198D01*
X306487Y366126D01*
X306442Y366063D01*
X306388Y366008D01*
X306334Y365972D01*
X306271Y365936D01*
X306163Y365891D01*
X306063Y365864D01*
X306018Y365855D01*
X305964D01*
X305856Y365864D01*
X305757Y365882D01*
X305676Y365918D01*
X305595Y365954D01*
X305541Y365999D01*
X305486Y366053D01*
X305441Y366117D01*
X305414Y366180D01*
X305369Y366297D01*
X305342Y366396D01*
X305333Y366432D01*
Y366468D01*
Y366486D01*
Y366495D01*
Y373285D01*
X303385D01*
X303268Y373294D01*
X303169Y373312D01*
X303088Y373339D01*
X303007Y373384D01*
X302944Y373429D01*
X302899Y373484D01*
X302853Y373547D01*
X302817Y373601D01*
X302772Y373718D01*
X302745Y373817D01*
X302736Y373862D01*
Y373889D01*
Y373907D01*
Y373916D01*
X302745Y374034D01*
X302763Y374124D01*
X302799Y374214D01*
X302835Y374286D01*
X302889Y374349D01*
X302944Y374403D01*
X302998Y374439D01*
X303061Y374475D01*
X303178Y374520D01*
X303286Y374548D01*
X303322Y374557D01*
X308561D01*
X308669Y374548D01*
D02*
G37*
%LPC*%
G36*
X334710Y-361492D02*
X332410D01*
X332230Y-361510D01*
X332059Y-361546D01*
X331905Y-361600D01*
X331770Y-361663D01*
X331662Y-361726D01*
X331581Y-361780D01*
X331527Y-361816D01*
X331509Y-361834D01*
X331400Y-361961D01*
X331328Y-362105D01*
X331274Y-362249D01*
X331229Y-362393D01*
X331211Y-362520D01*
X331202Y-362628D01*
X331193Y-362664D01*
Y-362691D01*
Y-362709D01*
Y-362718D01*
X331211Y-362935D01*
X331247Y-363115D01*
X331301Y-363277D01*
X331364Y-363403D01*
X331427Y-363503D01*
X331482Y-363575D01*
X331518Y-363620D01*
X331536Y-363638D01*
X331626Y-363710D01*
X331707Y-363755D01*
X331779Y-363791D01*
X331851Y-363818D01*
X331905Y-363836D01*
X331950Y-363845D01*
X334710D01*
Y-361492D01*
D02*
G37*
G36*
X364863Y-361997D02*
X363384Y-365856D01*
X366233D01*
X364863Y-361997D01*
D02*
G37*
G36*
X357784Y-361492D02*
X357757D01*
X357640Y-361501D01*
X357532Y-361528D01*
X357433Y-361573D01*
X357333Y-361636D01*
X357243Y-361699D01*
X357162Y-361780D01*
X357018Y-361943D01*
X356901Y-362105D01*
X356856Y-362186D01*
X356819Y-362249D01*
X356783Y-362312D01*
X356765Y-362357D01*
X356747Y-362384D01*
Y-362393D01*
X356621Y-362727D01*
X356531Y-363070D01*
X356468Y-363413D01*
X356441Y-363584D01*
X356423Y-363737D01*
X356405Y-363890D01*
X356396Y-364026D01*
X356387Y-364143D01*
Y-364251D01*
X356378Y-364332D01*
Y-364395D01*
Y-364431D01*
Y-364449D01*
Y-364675D01*
X356396Y-364882D01*
X356414Y-365090D01*
X356432Y-365279D01*
X356459Y-365459D01*
X356495Y-365631D01*
X356531Y-365784D01*
X356558Y-365928D01*
X356594Y-366063D01*
X356630Y-366172D01*
X356657Y-366271D01*
X356693Y-366352D01*
X356711Y-366415D01*
X356729Y-366469D01*
X356747Y-366496D01*
Y-366505D01*
X356819Y-366668D01*
X356901Y-366803D01*
X356991Y-366920D01*
X357072Y-367028D01*
X357153Y-367109D01*
X357243Y-367191D01*
X357324Y-367245D01*
X357397Y-367290D01*
X357478Y-367335D01*
X357541Y-367362D01*
X357604Y-367380D01*
X357658Y-367389D01*
X357694Y-367398D01*
X357730Y-367407D01*
X357757D01*
X357865Y-367398D01*
X357974Y-367371D01*
X358073Y-367326D01*
X358172Y-367263D01*
X358262Y-367200D01*
X358343Y-367127D01*
X358479Y-366956D01*
X358596Y-366794D01*
X358641Y-366722D01*
X358677Y-366650D01*
X358713Y-366595D01*
X358731Y-366550D01*
X358740Y-366523D01*
X358749Y-366514D01*
X358866Y-366181D01*
X358956Y-365838D01*
X359020Y-365495D01*
X359047Y-365333D01*
X359065Y-365171D01*
X359083Y-365027D01*
X359092Y-364891D01*
X359101Y-364765D01*
Y-364666D01*
X359110Y-364576D01*
Y-364512D01*
Y-364477D01*
Y-364458D01*
Y-364233D01*
X359092Y-364026D01*
X359083Y-363818D01*
X359056Y-363629D01*
X359029Y-363457D01*
X359002Y-363295D01*
X358974Y-363142D01*
X358938Y-363007D01*
X358911Y-362881D01*
X358884Y-362772D01*
X358857Y-362682D01*
X358830Y-362610D01*
X358803Y-362547D01*
X358794Y-362502D01*
X358776Y-362475D01*
Y-362466D01*
X358695Y-362294D01*
X358614Y-362141D01*
X358533Y-362015D01*
X358442Y-361907D01*
X358361Y-361807D01*
X358271Y-361726D01*
X358190Y-361663D01*
X358118Y-361609D01*
X358037Y-361573D01*
X357974Y-361546D01*
X357910Y-361519D01*
X357856Y-361510D01*
X357820Y-361501D01*
X357784Y-361492D01*
D02*
G37*
G36*
X-346337Y-361997D02*
X-347816Y-365856D01*
X-344967D01*
X-346337Y-361997D01*
D02*
G37*
G36*
X-353416Y-361492D02*
X-353443D01*
X-353560Y-361501D01*
X-353668Y-361528D01*
X-353767Y-361573D01*
X-353867Y-361636D01*
X-353957Y-361699D01*
X-354038Y-361780D01*
X-354182Y-361943D01*
X-354299Y-362105D01*
X-354344Y-362186D01*
X-354381Y-362249D01*
X-354417Y-362312D01*
X-354435Y-362357D01*
X-354453Y-362384D01*
Y-362393D01*
X-354579Y-362727D01*
X-354669Y-363070D01*
X-354732Y-363413D01*
X-354759Y-363584D01*
X-354777Y-363737D01*
X-354795Y-363890D01*
X-354804Y-364026D01*
X-354813Y-364143D01*
Y-364251D01*
X-354822Y-364332D01*
Y-364395D01*
Y-364431D01*
Y-364449D01*
Y-364675D01*
X-354804Y-364882D01*
X-354786Y-365090D01*
X-354768Y-365279D01*
X-354741Y-365459D01*
X-354705Y-365631D01*
X-354669Y-365784D01*
X-354642Y-365928D01*
X-354606Y-366063D01*
X-354570Y-366172D01*
X-354543Y-366271D01*
X-354507Y-366352D01*
X-354489Y-366415D01*
X-354471Y-366469D01*
X-354453Y-366496D01*
Y-366505D01*
X-354381Y-366668D01*
X-354299Y-366803D01*
X-354209Y-366920D01*
X-354128Y-367028D01*
X-354047Y-367109D01*
X-353957Y-367191D01*
X-353876Y-367245D01*
X-353803Y-367290D01*
X-353722Y-367335D01*
X-353659Y-367362D01*
X-353596Y-367380D01*
X-353542Y-367389D01*
X-353506Y-367398D01*
X-353470Y-367407D01*
X-353443D01*
X-353335Y-367398D01*
X-353226Y-367371D01*
X-353127Y-367326D01*
X-353028Y-367263D01*
X-352938Y-367200D01*
X-352857Y-367127D01*
X-352721Y-366956D01*
X-352604Y-366794D01*
X-352559Y-366722D01*
X-352523Y-366650D01*
X-352487Y-366595D01*
X-352469Y-366550D01*
X-352460Y-366523D01*
X-352451Y-366514D01*
X-352334Y-366181D01*
X-352244Y-365838D01*
X-352180Y-365495D01*
X-352153Y-365333D01*
X-352135Y-365171D01*
X-352117Y-365027D01*
X-352108Y-364891D01*
X-352099Y-364765D01*
Y-364666D01*
X-352090Y-364576D01*
Y-364512D01*
Y-364477D01*
Y-364458D01*
Y-364233D01*
X-352108Y-364026D01*
X-352117Y-363818D01*
X-352144Y-363629D01*
X-352171Y-363457D01*
X-352198Y-363295D01*
X-352225Y-363142D01*
X-352262Y-363007D01*
X-352289Y-362881D01*
X-352316Y-362772D01*
X-352343Y-362682D01*
X-352370Y-362610D01*
X-352397Y-362547D01*
X-352406Y-362502D01*
X-352424Y-362475D01*
Y-362466D01*
X-352505Y-362294D01*
X-352586Y-362141D01*
X-352667Y-362015D01*
X-352757Y-361907D01*
X-352839Y-361807D01*
X-352929Y-361726D01*
X-353010Y-361663D01*
X-353082Y-361609D01*
X-353163Y-361573D01*
X-353226Y-361546D01*
X-353289Y-361519D01*
X-353344Y-361510D01*
X-353380Y-361501D01*
X-353416Y-361492D01*
D02*
G37*
G36*
X337939Y372825D02*
X336460Y368966D01*
X339309D01*
X337939Y372825D01*
D02*
G37*
G36*
X292646Y373348D02*
X290672D01*
X290491Y373339D01*
X290338Y373303D01*
X290212Y373249D01*
X290094Y373186D01*
X289995Y373105D01*
X289914Y373015D01*
X289851Y372915D01*
X289797Y372825D01*
X289752Y372726D01*
X289725Y372627D01*
X289698Y372537D01*
X289689Y372455D01*
X289680Y372392D01*
X289671Y372338D01*
Y372302D01*
Y372293D01*
X289680Y372131D01*
X289707Y371978D01*
X289743Y371851D01*
X289797Y371743D01*
X289860Y371653D01*
X289923Y371581D01*
X290004Y371518D01*
X290076Y371464D01*
X290149Y371428D01*
X290221Y371400D01*
X290293Y371373D01*
X290356Y371365D01*
X290410Y371355D01*
X290446Y371346D01*
X292646D01*
Y373348D01*
D02*
G37*
G36*
X330860Y373330D02*
X330833D01*
X330716Y373321D01*
X330608Y373294D01*
X330509Y373249D01*
X330409Y373186D01*
X330319Y373123D01*
X330238Y373042D01*
X330094Y372879D01*
X329977Y372717D01*
X329931Y372636D01*
X329895Y372573D01*
X329859Y372510D01*
X329841Y372464D01*
X329823Y372438D01*
Y372429D01*
X329697Y372095D01*
X329607Y371752D01*
X329544Y371409D01*
X329517Y371238D01*
X329499Y371085D01*
X329481Y370932D01*
X329472Y370796D01*
X329463Y370679D01*
Y370571D01*
X329454Y370490D01*
Y370427D01*
Y370391D01*
Y370373D01*
Y370147D01*
X329472Y369940D01*
X329490Y369732D01*
X329508Y369543D01*
X329535Y369363D01*
X329571Y369191D01*
X329607Y369038D01*
X329634Y368894D01*
X329670Y368759D01*
X329706Y368650D01*
X329733Y368551D01*
X329769Y368470D01*
X329787Y368407D01*
X329805Y368353D01*
X329823Y368326D01*
Y368317D01*
X329895Y368154D01*
X329977Y368019D01*
X330067Y367902D01*
X330148Y367794D01*
X330229Y367713D01*
X330319Y367631D01*
X330400Y367577D01*
X330472Y367532D01*
X330554Y367487D01*
X330617Y367460D01*
X330680Y367442D01*
X330734Y367433D01*
X330770Y367424D01*
X330806Y367415D01*
X330833D01*
X330941Y367424D01*
X331050Y367451D01*
X331149Y367496D01*
X331248Y367559D01*
X331338Y367622D01*
X331419Y367695D01*
X331554Y367866D01*
X331672Y368028D01*
X331717Y368100D01*
X331753Y368172D01*
X331789Y368227D01*
X331807Y368272D01*
X331816Y368299D01*
X331825Y368308D01*
X331942Y368641D01*
X332032Y368984D01*
X332096Y369327D01*
X332123Y369489D01*
X332141Y369651D01*
X332159Y369795D01*
X332168Y369931D01*
X332177Y370057D01*
Y370156D01*
X332186Y370246D01*
Y370309D01*
Y370345D01*
Y370364D01*
Y370589D01*
X332168Y370796D01*
X332159Y371004D01*
X332132Y371193D01*
X332105Y371365D01*
X332077Y371527D01*
X332051Y371680D01*
X332014Y371815D01*
X331987Y371941D01*
X331960Y372050D01*
X331933Y372140D01*
X331906Y372212D01*
X331879Y372275D01*
X331870Y372320D01*
X331852Y372347D01*
Y372356D01*
X331771Y372528D01*
X331690Y372681D01*
X331609Y372807D01*
X331519Y372915D01*
X331437Y373015D01*
X331347Y373096D01*
X331266Y373159D01*
X331194Y373213D01*
X331113Y373249D01*
X331050Y373276D01*
X330987Y373303D01*
X330932Y373312D01*
X330896Y373321D01*
X330860Y373330D01*
D02*
G37*
G36*
X298543Y373402D02*
X298507D01*
X298336Y373393D01*
X298165Y373366D01*
X298011Y373321D01*
X297867Y373258D01*
X297732Y373195D01*
X297605Y373114D01*
X297488Y373033D01*
X297389Y372952D01*
X297290Y372861D01*
X297209Y372780D01*
X297146Y372699D01*
X297083Y372636D01*
X297038Y372573D01*
X297010Y372528D01*
X296992Y372501D01*
X296983Y372492D01*
X296893Y372320D01*
X296803Y372140D01*
X296740Y371960D01*
X296677Y371779D01*
X296623Y371599D01*
X296578Y371419D01*
X296542Y371256D01*
X296514Y371094D01*
X296496Y370941D01*
X296478Y370796D01*
X296469Y370679D01*
X296460Y370571D01*
X296451Y370481D01*
Y370418D01*
Y370382D01*
Y370364D01*
X296460Y370138D01*
X296469Y369922D01*
X296487Y369723D01*
X296514Y369534D01*
X296551Y369363D01*
X296587Y369191D01*
X296623Y369047D01*
X296668Y368912D01*
X296704Y368786D01*
X296749Y368677D01*
X296785Y368587D01*
X296812Y368506D01*
X296848Y368452D01*
X296866Y368407D01*
X296875Y368380D01*
X296884Y368371D01*
X296992Y368200D01*
X297110Y368055D01*
X297236Y367929D01*
X297353Y367821D01*
X297479Y367722D01*
X297605Y367649D01*
X297723Y367586D01*
X297840Y367532D01*
X297948Y367496D01*
X298047Y367469D01*
X298137Y367442D01*
X298219Y367433D01*
X298282Y367424D01*
X298327Y367415D01*
X298372D01*
X298543Y367424D01*
X298706Y367460D01*
X298859Y367505D01*
X299012Y367568D01*
X299147Y367640D01*
X299283Y367722D01*
X299400Y367803D01*
X299517Y367893D01*
X299616Y367983D01*
X299706Y368064D01*
X299779Y368145D01*
X299851Y368218D01*
X299896Y368281D01*
X299941Y368326D01*
X299959Y368362D01*
X299968Y368371D01*
X300031Y368524D01*
X300085Y368677D01*
X300175Y369011D01*
X300238Y369345D01*
X300266Y369507D01*
X300284Y369660D01*
X300302Y369804D01*
X300311Y369940D01*
X300320Y370057D01*
Y370165D01*
X300329Y370246D01*
Y370309D01*
Y370345D01*
Y370364D01*
X300320Y370589D01*
X300311Y370814D01*
X300293Y371022D01*
X300266Y371211D01*
X300238Y371391D01*
X300202Y371563D01*
X300166Y371716D01*
X300121Y371851D01*
X300085Y371978D01*
X300049Y372086D01*
X300013Y372185D01*
X299986Y372257D01*
X299959Y372320D01*
X299941Y372365D01*
X299923Y372392D01*
Y372401D01*
X299815Y372582D01*
X299706Y372735D01*
X299589Y372861D01*
X299472Y372979D01*
X299355Y373078D01*
X299238Y373159D01*
X299120Y373222D01*
X299012Y373276D01*
X298904Y373321D01*
X298814Y373348D01*
X298724Y373375D01*
X298652Y373384D01*
X298588Y373393D01*
X298543Y373402D01*
D02*
G37*
%LPD*%
D13*
X410000Y-410003D02*
Y-425000D01*
Y-410003D02*
X403573D01*
X401430Y-410717D01*
X400716Y-411432D01*
X400002Y-412860D01*
Y-414288D01*
X400716Y-415716D01*
X401430Y-416430D01*
X403573Y-417145D01*
X410000D01*
X405001D02*
X400002Y-425000D01*
X387362Y-410003D02*
X396646D01*
Y-425000D01*
X387362D01*
X396646Y-417145D02*
X390933D01*
X384863Y-410003D02*
X379150Y-425000D01*
X373436Y-410003D02*
X379150Y-425000D01*
X370794Y-423572D02*
X371508Y-424286D01*
X370794Y-425000D01*
X370080Y-424286D01*
X370794Y-423572D01*
X355369Y-425000D02*
X361082Y-410003D01*
X366795Y-425000D01*
X364653Y-420001D02*
X357511D01*
D14*
X322500Y-335000D02*
X385000D01*
X322500D02*
Y-305000D01*
X385000D01*
Y-335000D02*
Y-305000D01*
X325000Y-230000D02*
X387500D01*
X325000D02*
Y-150000D01*
X387500D01*
Y-230000D02*
Y-150000D01*
X325000Y280000D02*
X387500D01*
X325000D02*
Y337500D01*
X387500D01*
Y280000D02*
Y337500D01*
X205000Y375000D02*
Y437500D01*
X227500D01*
Y375000D02*
Y437500D01*
X205000Y375000D02*
X227500D01*
X75000Y377500D02*
Y440000D01*
X100000D01*
Y377500D02*
Y440000D01*
X75000Y377500D02*
X100000D01*
X-352500D02*
Y440000D01*
X-25000D01*
Y377500D02*
Y440000D01*
X-352500Y377500D02*
X-25000D01*
X-387500Y347500D02*
X-325000D01*
Y300000D02*
Y347500D01*
X-387500Y300000D02*
X-325000D01*
X-387500D02*
Y347500D01*
X-388503Y-122803D02*
Y-77500D01*
X-387500Y-180192D02*
Y-122500D01*
Y-180192D02*
X-325000D01*
Y-77500D01*
X-388503D02*
X-325000D01*
X-387500Y-277500D02*
Y-230000D01*
Y-277500D02*
X-325000D01*
Y-230000D01*
X-387500D02*
X-325000D01*
X-381176Y-332642D02*
X-330376D01*
X-381176D02*
Y332838D01*
X-330376Y-332642D02*
Y332838D01*
X-381176D02*
X-330376D01*
X332538Y380794D02*
Y431594D01*
X-332941Y380794D02*
X332538D01*
X-332941Y431594D02*
X332538D01*
X-332941Y380794D02*
Y431594D01*
X330021Y-332740D02*
X380821D01*
X330021D02*
Y332739D01*
X380821Y-332740D02*
Y332739D01*
X330021D02*
X380821D01*
D16*
X55988Y171048D02*
Y151052D01*
X46085Y171048D02*
X47990Y170096D01*
X49894Y168191D01*
X50846Y166287D01*
X51799Y163430D01*
Y158670D01*
X50846Y155813D01*
X49894Y153909D01*
X47990Y152004D01*
X46085Y151052D01*
X42277D01*
X40372Y152004D01*
X38468Y153909D01*
X37516Y155813D01*
X36564Y158670D01*
Y163430D01*
X37516Y166287D01*
X38468Y168191D01*
X40372Y170096D01*
X42277Y171048D01*
X46085D01*
X2857Y168191D02*
X4761Y170096D01*
X7617Y171048D01*
X11426D01*
X14283Y170096D01*
X16187Y168191D01*
Y166287D01*
X15235Y164383D01*
X14283Y163430D01*
X12378Y162478D01*
X6665Y160574D01*
X4761Y159622D01*
X3809Y158670D01*
X2857Y156765D01*
Y153909D01*
X4761Y152004D01*
X7617Y151052D01*
X11426D01*
X14283Y152004D01*
X16187Y153909D01*
X-1619Y171048D02*
Y151052D01*
Y160574D02*
X-4475Y163430D01*
X-6380Y164383D01*
X-9236D01*
X-11141Y163430D01*
X-12093Y160574D01*
Y151052D01*
X-19234Y171048D02*
X-20186Y170096D01*
X-21138Y171048D01*
X-20186Y172000D01*
X-19234Y171048D01*
X-20186Y164383D02*
Y151052D01*
X-24661Y158670D02*
X-36088D01*
Y160574D01*
X-35135Y162478D01*
X-34183Y163430D01*
X-32279Y164383D01*
X-29422D01*
X-27518Y163430D01*
X-25614Y161526D01*
X-24661Y158670D01*
Y156765D01*
X-25614Y153909D01*
X-27518Y152004D01*
X-29422Y151052D01*
X-32279D01*
X-34183Y152004D01*
X-36088Y153909D01*
X-40372Y171048D02*
Y151052D01*
X-55988Y171048D02*
Y151052D01*
Y161526D02*
X-54084Y163430D01*
X-52179Y164383D01*
X-49323D01*
X-47418Y163430D01*
X-45514Y161526D01*
X-44562Y158670D01*
Y156765D01*
X-45514Y153909D01*
X-47418Y152004D01*
X-49323Y151052D01*
X-52179D01*
X-54084Y152004D01*
X-55988Y153909D01*
X62272Y129379D02*
X53703D01*
X50846Y130331D01*
X49894Y131283D01*
X48942Y133188D01*
Y136044D01*
X49894Y137949D01*
X50846Y138901D01*
X53703Y139853D01*
X62272D01*
Y119857D01*
X44467Y133188D02*
Y119857D01*
Y127475D02*
X43514Y130331D01*
X41610Y132235D01*
X39706Y133188D01*
X36849D01*
X30279D02*
X32184Y132235D01*
X34088Y130331D01*
X35040Y127475D01*
Y125570D01*
X34088Y122714D01*
X32184Y120809D01*
X30279Y119857D01*
X27423D01*
X25518Y120809D01*
X23614Y122714D01*
X22662Y125570D01*
Y127475D01*
X23614Y130331D01*
X25518Y132235D01*
X27423Y133188D01*
X30279D01*
X15425Y139853D02*
Y123666D01*
X14473Y120809D01*
X12569Y119857D01*
X10664D01*
X18282Y133188D02*
X11617D01*
X3047D02*
X4951Y132235D01*
X6856Y130331D01*
X7808Y127475D01*
Y125570D01*
X6856Y122714D01*
X4951Y120809D01*
X3047Y119857D01*
X190D01*
X-1714Y120809D01*
X-3618Y122714D01*
X-4570Y125570D01*
Y127475D01*
X-3618Y130331D01*
X-1714Y132235D01*
X190Y133188D01*
X3047D01*
X-11807Y139853D02*
Y123666D01*
X-12759Y120809D01*
X-14663Y119857D01*
X-16568D01*
X-8950Y133188D02*
X-15616D01*
X-20377D02*
X-26090Y119857D01*
X-31803Y133188D02*
X-26090Y119857D01*
X-24185Y116048D01*
X-22281Y114144D01*
X-20377Y113192D01*
X-19424D01*
X-35135Y133188D02*
Y113192D01*
Y130331D02*
X-37040Y132235D01*
X-38944Y133188D01*
X-41801D01*
X-43705Y132235D01*
X-45609Y130331D01*
X-46561Y127475D01*
Y125570D01*
X-45609Y122714D01*
X-43705Y120809D01*
X-41801Y119857D01*
X-38944D01*
X-37040Y120809D01*
X-35135Y122714D01*
X-50846Y127475D02*
X-62272D01*
Y129379D01*
X-61320Y131283D01*
X-60368Y132235D01*
X-58464Y133188D01*
X-55607D01*
X-53703Y132235D01*
X-51798Y130331D01*
X-50846Y127475D01*
Y125570D01*
X-51798Y122714D01*
X-53703Y120809D01*
X-55607Y119857D01*
X-58464D01*
X-60368Y120809D01*
X-62272Y122714D01*
M02*
