G04*
G04 #@! TF.GenerationSoftware,Altium Limited,Altium Designer,19.1.6 (110)*
G04*
G04 Layer_Physical_Order=2*
G04 Layer_Color=16711680*
%FSLAX44Y44*%
%MOMM*%
G71*
G01*
G75*
%ADD10C,0.2500*%
%ADD12C,0.3500*%
%ADD72C,3.1000*%
%ADD74C,1.6000*%
%ADD78C,1.0000*%
%ADD79C,0.6500*%
%ADD80C,0.8500*%
%ADD81C,2.3000*%
%ADD82R,2.3000X2.3000*%
%ADD83C,1.0000*%
%ADD84R,2.3000X2.3000*%
%ADD85C,3.0000*%
%ADD86C,1.5000*%
%ADD87R,1.5000X1.5000*%
%ADD88R,1.5000X1.5000*%
%ADD89C,6.0000*%
%ADD90C,0.6000*%
G36*
X484740Y479924D02*
X489362Y478815D01*
X493755Y476995D01*
X497808Y474511D01*
X501424Y471423D01*
X504511Y467808D01*
X506995Y463755D01*
X508815Y459362D01*
X509925Y454740D01*
X510146Y451920D01*
X510146Y451920D01*
X510146D01*
X510166Y451902D01*
X510166Y-470000D01*
X510248Y-470625D01*
X509925Y-474740D01*
X508815Y-479362D01*
X506995Y-483755D01*
X504511Y-487808D01*
X501424Y-491424D01*
X497808Y-494511D01*
X493755Y-496995D01*
X489362Y-498815D01*
X484740Y-499925D01*
X481920Y-500146D01*
X481920Y-500146D01*
Y-500146D01*
X481902Y-500166D01*
X-820000Y-500166D01*
X-820625Y-500248D01*
X-824740Y-499925D01*
X-829362Y-498815D01*
X-833755Y-496995D01*
X-837808Y-494511D01*
X-841424Y-491424D01*
X-844511Y-487808D01*
X-846995Y-483755D01*
X-848815Y-479362D01*
X-849924Y-474740D01*
X-850146Y-471920D01*
X-850146Y-471920D01*
X-850146D01*
X-850166Y-471902D01*
X-850166Y450000D01*
X-850248Y450625D01*
X-849924Y454740D01*
X-848815Y459362D01*
X-846995Y463755D01*
X-844511Y467808D01*
X-841424Y471423D01*
X-837808Y474511D01*
X-833755Y476995D01*
X-829362Y478815D01*
X-824740Y479924D01*
X-821920Y480146D01*
X-821920Y480146D01*
Y480146D01*
X-821902Y480166D01*
X480000Y480166D01*
X480625Y480248D01*
X484740Y479924D01*
D02*
G37*
%LPC*%
G36*
X317298Y434971D02*
X314162Y434662D01*
X311146Y433747D01*
X308366Y432262D01*
X305930Y430262D01*
X304848Y428945D01*
X304348D01*
X303267Y430262D01*
X300830Y432262D01*
X298051Y433747D01*
X295035Y434662D01*
X291898Y434971D01*
X288762Y434662D01*
X285746Y433747D01*
X282966Y432262D01*
X280530Y430262D01*
X279448Y428945D01*
X278948D01*
X277867Y430262D01*
X275431Y432262D01*
X272651Y433747D01*
X269635Y434662D01*
X266498Y434971D01*
X263362Y434662D01*
X260346Y433747D01*
X257566Y432262D01*
X255130Y430262D01*
X254048Y428945D01*
X253548D01*
X252467Y430262D01*
X250030Y432262D01*
X247251Y433747D01*
X244235Y434662D01*
X241098Y434971D01*
X237962Y434662D01*
X234946Y433747D01*
X232166Y432262D01*
X229730Y430262D01*
X227731Y427826D01*
X227180Y426797D01*
X226682Y426756D01*
X225327Y428522D01*
X222507Y430686D01*
X219223Y432046D01*
X218698Y432115D01*
Y418894D01*
X212698D01*
Y432115D01*
X212174Y432046D01*
X208890Y430686D01*
X206070Y428522D01*
X204715Y426756D01*
X204216Y426797D01*
X203666Y427826D01*
X201667Y430262D01*
X199230Y432262D01*
X196451Y433747D01*
X193435Y434662D01*
X190298Y434971D01*
X187162Y434662D01*
X184146Y433747D01*
X181366Y432262D01*
X178930Y430262D01*
X177848Y428945D01*
X177348D01*
X176267Y430262D01*
X173831Y432262D01*
X171051Y433747D01*
X168035Y434662D01*
X164898Y434971D01*
X161762Y434662D01*
X158746Y433747D01*
X155966Y432262D01*
X153530Y430262D01*
X152448Y428945D01*
X151948D01*
X150867Y430262D01*
X148431Y432262D01*
X145651Y433747D01*
X142635Y434662D01*
X139498Y434971D01*
X136362Y434662D01*
X133346Y433747D01*
X130566Y432262D01*
X128130Y430262D01*
X127048Y428945D01*
X126548D01*
X125467Y430262D01*
X123031Y432262D01*
X120251Y433747D01*
X117235Y434662D01*
X114098Y434971D01*
X110962Y434662D01*
X107946Y433747D01*
X105166Y432262D01*
X102730Y430262D01*
X100730Y427826D01*
X100180Y426797D01*
X99682Y426756D01*
X98327Y428522D01*
X95507Y430686D01*
X92222Y432046D01*
X91698Y432115D01*
Y418894D01*
X85698D01*
Y432115D01*
X85174Y432046D01*
X81890Y430686D01*
X79070Y428522D01*
X77715Y426756D01*
X77216Y426797D01*
X76666Y427826D01*
X74667Y430262D01*
X72231Y432262D01*
X69451Y433747D01*
X66435Y434662D01*
X63298Y434971D01*
X60162Y434662D01*
X57146Y433747D01*
X54366Y432262D01*
X51930Y430262D01*
X50848Y428945D01*
X50348D01*
X49267Y430262D01*
X46831Y432262D01*
X44051Y433747D01*
X41035Y434662D01*
X37898Y434971D01*
X34762Y434662D01*
X31746Y433747D01*
X28966Y432262D01*
X26530Y430262D01*
X25448Y428945D01*
X24948D01*
X23867Y430262D01*
X21430Y432262D01*
X18651Y433747D01*
X15635Y434662D01*
X12498Y434971D01*
X9362Y434662D01*
X6346Y433747D01*
X3566Y432262D01*
X1130Y430262D01*
X48Y428945D01*
X-452D01*
X-1533Y430262D01*
X-3970Y432262D01*
X-6749Y433747D01*
X-9765Y434662D01*
X-12902Y434971D01*
X-16038Y434662D01*
X-19054Y433747D01*
X-21834Y432262D01*
X-24270Y430262D01*
X-26270Y427826D01*
X-26820Y426797D01*
X-27318Y426756D01*
X-28673Y428522D01*
X-31493Y430686D01*
X-34778Y432046D01*
X-35302Y432115D01*
Y418894D01*
X-41302D01*
Y432115D01*
X-41826Y432046D01*
X-45110Y430686D01*
X-47930Y428522D01*
X-49285Y426756D01*
X-49784Y426797D01*
X-50334Y427826D01*
X-52333Y430262D01*
X-54770Y432262D01*
X-57549Y433747D01*
X-60565Y434662D01*
X-63702Y434971D01*
X-66838Y434662D01*
X-69854Y433747D01*
X-72634Y432262D01*
X-75070Y430262D01*
X-76152Y428945D01*
X-76652D01*
X-77733Y430262D01*
X-80169Y432262D01*
X-82949Y433747D01*
X-85965Y434662D01*
X-89102Y434971D01*
X-92238Y434662D01*
X-95254Y433747D01*
X-98034Y432262D01*
X-100470Y430262D01*
X-101552Y428945D01*
X-102052D01*
X-103133Y430262D01*
X-105569Y432262D01*
X-108349Y433747D01*
X-111365Y434662D01*
X-114502Y434971D01*
X-117638Y434662D01*
X-120654Y433747D01*
X-123434Y432262D01*
X-125870Y430262D01*
X-126952Y428945D01*
X-127452D01*
X-128533Y430262D01*
X-130969Y432262D01*
X-133749Y433747D01*
X-136765Y434662D01*
X-139902Y434971D01*
X-143038Y434662D01*
X-146054Y433747D01*
X-148834Y432262D01*
X-151270Y430262D01*
X-153270Y427826D01*
X-153820Y426797D01*
X-154318Y426756D01*
X-155673Y428522D01*
X-158493Y430686D01*
X-161777Y432046D01*
X-162302Y432115D01*
Y418894D01*
X-168302D01*
Y432115D01*
X-168826Y432046D01*
X-172110Y430686D01*
X-174930Y428522D01*
X-176285Y426756D01*
X-176784Y426797D01*
X-177334Y427826D01*
X-179333Y430262D01*
X-181770Y432262D01*
X-184549Y433747D01*
X-187565Y434662D01*
X-190702Y434971D01*
X-193838Y434662D01*
X-196854Y433747D01*
X-199634Y432262D01*
X-202070Y430262D01*
X-203152Y428945D01*
X-203652D01*
X-204733Y430262D01*
X-207169Y432262D01*
X-209949Y433747D01*
X-212965Y434662D01*
X-216102Y434971D01*
X-219238Y434662D01*
X-222254Y433747D01*
X-225034Y432262D01*
X-227470Y430262D01*
X-228552Y428945D01*
X-229052D01*
X-230133Y430262D01*
X-232570Y432262D01*
X-235349Y433747D01*
X-238365Y434662D01*
X-241502Y434971D01*
X-244638Y434662D01*
X-247654Y433747D01*
X-250434Y432262D01*
X-252870Y430262D01*
X-253952Y428945D01*
X-254452D01*
X-255533Y430262D01*
X-257969Y432262D01*
X-260749Y433747D01*
X-263765Y434662D01*
X-266902Y434971D01*
X-270038Y434662D01*
X-273054Y433747D01*
X-275834Y432262D01*
X-278270Y430262D01*
X-279352Y428945D01*
X-279852D01*
X-280933Y430262D01*
X-283370Y432262D01*
X-286149Y433747D01*
X-289165Y434662D01*
X-292302Y434971D01*
X-295438Y434662D01*
X-298454Y433747D01*
X-301202Y432279D01*
X-301479Y432357D01*
X-301702Y432463D01*
Y434894D01*
X-333702D01*
Y402894D01*
X-331270D01*
X-331165Y402671D01*
X-331087Y402394D01*
X-332555Y399646D01*
X-333470Y396630D01*
X-333779Y393494D01*
X-333470Y390357D01*
X-332555Y387341D01*
X-331069Y384562D01*
X-329070Y382125D01*
X-326634Y380126D01*
X-323854Y378640D01*
X-320838Y377725D01*
X-317702Y377416D01*
X-314565Y377725D01*
X-311549Y378640D01*
X-308769Y380126D01*
X-306333Y382125D01*
X-305252Y383443D01*
X-304752D01*
X-303670Y382125D01*
X-301234Y380126D01*
X-298454Y378640D01*
X-295438Y377725D01*
X-292302Y377416D01*
X-289165Y377725D01*
X-286149Y378640D01*
X-283370Y380126D01*
X-280933Y382125D01*
X-278934Y384562D01*
X-278384Y385591D01*
X-277885Y385632D01*
X-276530Y383866D01*
X-273710Y381702D01*
X-270426Y380341D01*
X-269902Y380272D01*
Y393494D01*
X-263902D01*
Y380272D01*
X-263377Y380341D01*
X-260093Y381702D01*
X-257273Y383866D01*
X-255918Y385632D01*
X-255420Y385591D01*
X-254869Y384562D01*
X-252870Y382125D01*
X-250434Y380126D01*
X-247654Y378640D01*
X-244638Y377725D01*
X-241502Y377416D01*
X-238365Y377725D01*
X-235349Y378640D01*
X-232570Y380126D01*
X-230133Y382125D01*
X-229052Y383443D01*
X-228552D01*
X-227470Y382125D01*
X-225034Y380126D01*
X-222254Y378640D01*
X-219238Y377725D01*
X-216102Y377416D01*
X-212965Y377725D01*
X-209949Y378640D01*
X-207169Y380126D01*
X-204733Y382125D01*
X-203652Y383443D01*
X-203152D01*
X-202070Y382125D01*
X-199634Y380126D01*
X-196854Y378640D01*
X-193838Y377725D01*
X-190702Y377416D01*
X-187565Y377725D01*
X-184549Y378640D01*
X-181770Y380126D01*
X-179333Y382125D01*
X-177334Y384562D01*
X-176784Y385591D01*
X-176285Y385632D01*
X-174930Y383866D01*
X-172110Y381702D01*
X-168826Y380341D01*
X-168302Y380272D01*
Y393494D01*
X-162302D01*
Y380272D01*
X-161777Y380341D01*
X-158493Y381702D01*
X-155673Y383866D01*
X-154318Y385632D01*
X-153820Y385591D01*
X-153270Y384562D01*
X-151270Y382125D01*
X-148834Y380126D01*
X-146054Y378640D01*
X-143038Y377725D01*
X-139902Y377416D01*
X-136765Y377725D01*
X-133749Y378640D01*
X-130969Y380126D01*
X-128533Y382125D01*
X-127452Y383443D01*
X-126952D01*
X-125870Y382125D01*
X-123434Y380126D01*
X-120654Y378640D01*
X-117638Y377725D01*
X-114502Y377416D01*
X-111365Y377725D01*
X-108349Y378640D01*
X-105569Y380126D01*
X-103133Y382125D01*
X-102052Y383443D01*
X-101552D01*
X-100470Y382125D01*
X-98034Y380126D01*
X-95254Y378640D01*
X-92238Y377725D01*
X-89102Y377416D01*
X-88061Y377519D01*
X-87690Y377183D01*
Y371931D01*
X-93710Y365911D01*
X-95800Y365045D01*
X-98202Y363202D01*
X-100045Y360800D01*
X-101204Y358002D01*
X-101599Y355000D01*
X-101204Y351998D01*
X-100045Y349200D01*
X-98202Y346798D01*
X-95800Y344955D01*
X-93002Y343796D01*
X-90000Y343401D01*
X-86998Y343796D01*
X-84200Y344955D01*
X-81798Y346798D01*
X-79955Y349200D01*
X-79089Y351290D01*
X-71281Y359099D01*
X-70865Y358821D01*
X-71204Y358002D01*
X-71599Y355000D01*
X-71204Y351998D01*
X-70045Y349200D01*
X-68202Y346798D01*
X-65800Y344955D01*
X-63002Y343796D01*
X-60000Y343401D01*
X-56998Y343796D01*
X-54200Y344955D01*
X-51798Y346798D01*
X-49955Y349200D01*
X-49089Y351290D01*
X-44641Y355738D01*
X-42998Y357879D01*
X-41965Y360373D01*
X-41613Y363048D01*
Y379934D01*
X-41302Y380207D01*
Y393494D01*
X-35302D01*
Y380272D01*
X-34778Y380341D01*
X-31493Y381702D01*
X-28673Y383866D01*
X-27318Y385632D01*
X-26820Y385591D01*
X-26270Y384562D01*
X-24270Y382125D01*
X-21834Y380126D01*
X-19054Y378640D01*
X-16038Y377725D01*
X-12902Y377416D01*
X-9765Y377725D01*
X-6749Y378640D01*
X-3970Y380126D01*
X-1533Y382125D01*
X-452Y383443D01*
X48D01*
X1130Y382125D01*
X3566Y380126D01*
X6346Y378640D01*
X9362Y377725D01*
X12498Y377416D01*
X15635Y377725D01*
X18651Y378640D01*
X21430Y380126D01*
X23867Y382125D01*
X24948Y383443D01*
X25448D01*
X26530Y382125D01*
X28966Y380126D01*
X31746Y378640D01*
X34762Y377725D01*
X37898Y377416D01*
X41035Y377725D01*
X44051Y378640D01*
X46831Y380126D01*
X49267Y382125D01*
X50348Y383443D01*
X50848D01*
X51930Y382125D01*
X54366Y380126D01*
X57146Y378640D01*
X60162Y377725D01*
X63298Y377416D01*
X66435Y377725D01*
X69451Y378640D01*
X72231Y380126D01*
X74667Y382125D01*
X76666Y384562D01*
X77216Y385591D01*
X77715Y385632D01*
X79070Y383866D01*
X81890Y381702D01*
X85174Y380341D01*
X85698Y380272D01*
Y393494D01*
X91698D01*
Y380272D01*
X92222Y380341D01*
X95507Y381702D01*
X98327Y383866D01*
X99682Y385632D01*
X100180Y385591D01*
X100730Y384562D01*
X102730Y382125D01*
X105166Y380126D01*
X107946Y378640D01*
X110962Y377725D01*
X114098Y377416D01*
X117235Y377725D01*
X120251Y378640D01*
X123031Y380126D01*
X125467Y382125D01*
X126548Y383443D01*
X127048D01*
X128130Y382125D01*
X130566Y380126D01*
X133346Y378640D01*
X136362Y377725D01*
X139498Y377416D01*
X142635Y377725D01*
X145651Y378640D01*
X148431Y380126D01*
X150867Y382125D01*
X151948Y383443D01*
X152448D01*
X153530Y382125D01*
X155966Y380126D01*
X158746Y378640D01*
X161762Y377725D01*
X164898Y377416D01*
X168035Y377725D01*
X171051Y378640D01*
X173831Y380126D01*
X176267Y382125D01*
X177348Y383443D01*
X177848D01*
X178930Y382125D01*
X181366Y380126D01*
X184146Y378640D01*
X187162Y377725D01*
X190298Y377416D01*
X193435Y377725D01*
X196451Y378640D01*
X199230Y380126D01*
X201667Y382125D01*
X203666Y384562D01*
X204216Y385591D01*
X204715Y385632D01*
X206070Y383866D01*
X208890Y381702D01*
X212174Y380341D01*
X212698Y380272D01*
Y393494D01*
X218698D01*
Y380272D01*
X219223Y380341D01*
X222507Y381702D01*
X225327Y383866D01*
X226682Y385632D01*
X227180Y385591D01*
X227731Y384562D01*
X229730Y382125D01*
X232166Y380126D01*
X234946Y378640D01*
X237962Y377725D01*
X241098Y377416D01*
X244235Y377725D01*
X247251Y378640D01*
X250030Y380126D01*
X252467Y382125D01*
X253548Y383443D01*
X254048D01*
X255130Y382125D01*
X257566Y380126D01*
X260346Y378640D01*
X263362Y377725D01*
X266498Y377416D01*
X269635Y377725D01*
X272651Y378640D01*
X275431Y380126D01*
X277867Y382125D01*
X278948Y383443D01*
X279448D01*
X280530Y382125D01*
X282966Y380126D01*
X285746Y378640D01*
X288762Y377725D01*
X291898Y377416D01*
X295035Y377725D01*
X298051Y378640D01*
X300830Y380126D01*
X303267Y382125D01*
X304348Y383443D01*
X304848D01*
X305930Y382125D01*
X308366Y380126D01*
X311146Y378640D01*
X314162Y377725D01*
X317298Y377416D01*
X320435Y377725D01*
X323451Y378640D01*
X326231Y380126D01*
X328667Y382125D01*
X330666Y384562D01*
X332152Y387341D01*
X333067Y390357D01*
X333376Y393494D01*
X333067Y396630D01*
X332152Y399646D01*
X330666Y402426D01*
X328667Y404862D01*
X327349Y405944D01*
Y406444D01*
X328667Y407525D01*
X330666Y409962D01*
X332152Y412741D01*
X333067Y415757D01*
X333376Y418894D01*
X333067Y422030D01*
X332152Y425047D01*
X330666Y427826D01*
X328667Y430262D01*
X326231Y432262D01*
X323451Y433747D01*
X320435Y434662D01*
X317298Y434971D01*
D02*
G37*
G36*
X-329576Y331098D02*
X-340076D01*
Y320598D01*
X-329576D01*
Y331098D01*
D02*
G37*
G36*
X381620Y331000D02*
X371121D01*
Y320500D01*
X381620D01*
Y331000D01*
D02*
G37*
G36*
X-767500Y397503D02*
X-807500D01*
Y357503D01*
X-801489D01*
X-801321Y357032D01*
X-801711Y356712D01*
X-804210Y353666D01*
X-806067Y350192D01*
X-807211Y346422D01*
X-807597Y342501D01*
X-807211Y338581D01*
X-806067Y334811D01*
X-804210Y331336D01*
X-801711Y328291D01*
X-798665Y325791D01*
X-795191Y323934D01*
X-794981Y323871D01*
X-794932Y323373D01*
X-797270Y322124D01*
X-799934Y319937D01*
X-802121Y317272D01*
X-803746Y314232D01*
X-804747Y310933D01*
X-804789Y310502D01*
X-787500D01*
X-770211D01*
X-770253Y310933D01*
X-771254Y314232D01*
X-772879Y317272D01*
X-775066Y319937D01*
X-777730Y322124D01*
X-780068Y323373D01*
X-780019Y323871D01*
X-779809Y323934D01*
X-776335Y325791D01*
X-773289Y328291D01*
X-770790Y331336D01*
X-768933Y334811D01*
X-767789Y338581D01*
X-767403Y342501D01*
X-767789Y346422D01*
X-768933Y350192D01*
X-770790Y353666D01*
X-773289Y356712D01*
X-773679Y357032D01*
X-773511Y357503D01*
X-767500D01*
Y397503D01*
D02*
G37*
G36*
X-750000Y331580D02*
X-753235Y331261D01*
X-756345Y330318D01*
X-759211Y328786D01*
X-761724Y326724D01*
X-763786Y324211D01*
X-765318Y321345D01*
X-766261Y318235D01*
X-766580Y315000D01*
X-766261Y311765D01*
X-765318Y308655D01*
X-763786Y305789D01*
X-761724Y303276D01*
X-759211Y301214D01*
X-756345Y299682D01*
X-753235Y298739D01*
X-750000Y298420D01*
X-746765Y298739D01*
X-743655Y299682D01*
X-740789Y301214D01*
X-738276Y303276D01*
X-736214Y305789D01*
X-734682Y308655D01*
X-733739Y311765D01*
X-733420Y315000D01*
X-733739Y318235D01*
X-734682Y321345D01*
X-736214Y324211D01*
X-738276Y326724D01*
X-740789Y328786D01*
X-743655Y330318D01*
X-746765Y331261D01*
X-750000Y331580D01*
D02*
G37*
G36*
X-790500Y304503D02*
X-804789D01*
X-804747Y304072D01*
X-803746Y300773D01*
X-802121Y297733D01*
X-799934Y295068D01*
X-797270Y292882D01*
X-794229Y291257D01*
X-790931Y290256D01*
X-790500Y290213D01*
Y304503D01*
D02*
G37*
G36*
X-770211D02*
X-784500D01*
Y290213D01*
X-784069Y290256D01*
X-780771Y291257D01*
X-777730Y292882D01*
X-775066Y295068D01*
X-772879Y297733D01*
X-771254Y300773D01*
X-770253Y304072D01*
X-770211Y304503D01*
D02*
G37*
G36*
X-617500Y291599D02*
X-620502Y291204D01*
X-623300Y290045D01*
X-623750Y289700D01*
X-624200Y290045D01*
X-626998Y291204D01*
X-630000Y291599D01*
X-633002Y291204D01*
X-635800Y290045D01*
X-638202Y288202D01*
X-640045Y285800D01*
X-641204Y283002D01*
X-641599Y280000D01*
X-641204Y276998D01*
X-640045Y274200D01*
X-639833Y273924D01*
Y246073D01*
X-640044Y245799D01*
X-641203Y243002D01*
X-641598Y240000D01*
X-641203Y236997D01*
X-640044Y234200D01*
X-638201Y231798D01*
X-635798Y229954D01*
X-633001Y228796D01*
X-629999Y228400D01*
X-626997Y228796D01*
X-624199Y229954D01*
X-621797Y231798D01*
X-619953Y234200D01*
X-619158Y236122D01*
X-617500Y235903D01*
X-614498Y236299D01*
X-612500Y237126D01*
X-612084Y236848D01*
Y213251D01*
X-612084Y213251D01*
X-611917Y211979D01*
X-611749Y210706D01*
X-610767Y208334D01*
X-609204Y206297D01*
X-601249Y198343D01*
X-601204Y197999D01*
X-600045Y195202D01*
X-598202Y192799D01*
X-595800Y190956D01*
X-593002Y189797D01*
X-590000Y189402D01*
X-586998Y189797D01*
X-584200Y190956D01*
X-581798Y192799D01*
X-579955Y195202D01*
X-578796Y197999D01*
X-578401Y201001D01*
X-578796Y204003D01*
X-579955Y206801D01*
X-581798Y209203D01*
X-584200Y211047D01*
X-586998Y212205D01*
X-587342Y212251D01*
X-592416Y217325D01*
Y250924D01*
X-592205Y251199D01*
X-591046Y253996D01*
X-590651Y256998D01*
X-591046Y260000D01*
X-592205Y262798D01*
X-594048Y265200D01*
X-596450Y267044D01*
X-599248Y268202D01*
X-602250Y268598D01*
X-605252Y268202D01*
X-607250Y267375D01*
X-607666Y267653D01*
Y273925D01*
X-607455Y274200D01*
X-606296Y276998D01*
X-605901Y280000D01*
X-606296Y283002D01*
X-607455Y285800D01*
X-609298Y288202D01*
X-611700Y290045D01*
X-614498Y291204D01*
X-617500Y291599D01*
D02*
G37*
G36*
X-445000Y350360D02*
X-615498D01*
X-618827Y349922D01*
X-621928Y348637D01*
X-624592Y346593D01*
X-626782Y344403D01*
X-628234Y344260D01*
X-631345Y343316D01*
X-634211Y341784D01*
X-636724Y339722D01*
X-638786Y337210D01*
X-640318Y334343D01*
X-641261Y331233D01*
X-641580Y327998D01*
X-641261Y324764D01*
X-640318Y321654D01*
X-638786Y318787D01*
X-636724Y316275D01*
X-634211Y314213D01*
X-631345Y312681D01*
X-628234Y311737D01*
X-625000Y311419D01*
X-621765Y311737D01*
X-618655Y312681D01*
X-615789Y314213D01*
X-613276Y316275D01*
X-611214Y318787D01*
X-609682Y321654D01*
X-608776Y324640D01*
X-450360D01*
Y278690D01*
X-450736Y278360D01*
X-453614Y278739D01*
X-457138Y278275D01*
X-460422Y276915D01*
X-463242Y274751D01*
X-465406Y271931D01*
X-466767Y268647D01*
X-467230Y265123D01*
Y256114D01*
Y201851D01*
X-507500D01*
X-510567Y201448D01*
X-513426Y200264D01*
X-515880Y198380D01*
X-517764Y195926D01*
X-518948Y193067D01*
X-519351Y190000D01*
X-518948Y186933D01*
X-517764Y184074D01*
X-515880Y181620D01*
X-513426Y179736D01*
X-510567Y178552D01*
X-507500Y178149D01*
X-467230D01*
Y171851D01*
X-507500D01*
X-510567Y171448D01*
X-513426Y170264D01*
X-515880Y168380D01*
X-517764Y165926D01*
X-518948Y163067D01*
X-519351Y160000D01*
X-518948Y156933D01*
X-517764Y154074D01*
X-515880Y151620D01*
X-513426Y149736D01*
X-510567Y148552D01*
X-507500Y148149D01*
X-467230D01*
Y111851D01*
X-650001D01*
X-653069Y111448D01*
X-655927Y110264D01*
X-658382Y108380D01*
X-660265Y105926D01*
X-661449Y103067D01*
X-661853Y100000D01*
X-661449Y96933D01*
X-660265Y94074D01*
X-658382Y91620D01*
X-655927Y89736D01*
X-653069Y88552D01*
X-650001Y88149D01*
X-467230D01*
Y11851D01*
X-650001D01*
X-653069Y11448D01*
X-655927Y10264D01*
X-658382Y8380D01*
X-660265Y5926D01*
X-661449Y3067D01*
X-661853Y0D01*
X-661449Y-3067D01*
X-660265Y-5926D01*
X-658382Y-8380D01*
X-655927Y-10264D01*
X-653069Y-11448D01*
X-650001Y-11851D01*
X-467230D01*
Y-126386D01*
X-466767Y-129910D01*
X-465406Y-133194D01*
X-463242Y-136014D01*
X-445081Y-154176D01*
Y-156035D01*
X-444617Y-159560D01*
X-443257Y-162844D01*
X-441803Y-164738D01*
Y-189128D01*
X-443800Y-189955D01*
X-444075Y-190166D01*
X-455000D01*
X-455000Y-190166D01*
X-457545Y-190501D01*
X-459917Y-191483D01*
X-461954Y-193046D01*
X-461954Y-193046D01*
X-465158Y-196251D01*
X-465502Y-196296D01*
X-468300Y-197455D01*
X-470702Y-199298D01*
X-472545Y-201700D01*
X-473704Y-204498D01*
X-474099Y-207500D01*
X-473704Y-210502D01*
X-472545Y-213300D01*
X-470702Y-215702D01*
X-468300Y-217545D01*
X-465502Y-218704D01*
X-462500Y-219099D01*
X-459498Y-218704D01*
X-456700Y-217545D01*
X-454298Y-215702D01*
X-452455Y-213300D01*
X-451296Y-210502D01*
X-451251Y-210158D01*
X-450927Y-209834D01*
X-444075D01*
X-443800Y-210045D01*
X-441088Y-211168D01*
Y-311750D01*
X-440736Y-314426D01*
X-439703Y-316919D01*
X-438060Y-319060D01*
X-433401Y-323719D01*
X-433679Y-324135D01*
X-434498Y-323796D01*
X-437500Y-323401D01*
X-440502Y-323796D01*
X-443300Y-324955D01*
X-443575Y-325166D01*
X-506199D01*
X-506239Y-324765D01*
X-507182Y-321654D01*
X-508714Y-318788D01*
X-510776Y-316275D01*
X-513289Y-314214D01*
X-516155Y-312681D01*
X-519265Y-311738D01*
X-522500Y-311419D01*
X-525734Y-311738D01*
X-528845Y-312681D01*
X-531711Y-314214D01*
X-534224Y-316275D01*
X-536286Y-318788D01*
X-537818Y-321654D01*
X-538761Y-324765D01*
X-539080Y-327999D01*
X-538761Y-331234D01*
X-537818Y-334344D01*
X-537608Y-334737D01*
X-537865Y-335166D01*
X-553925D01*
X-554200Y-334955D01*
X-556998Y-333796D01*
X-560000Y-333401D01*
X-561518Y-333601D01*
X-561841Y-333219D01*
X-561239Y-331234D01*
X-560920Y-327999D01*
X-561239Y-324765D01*
X-562182Y-321654D01*
X-563714Y-318788D01*
X-565776Y-316275D01*
X-568289Y-314214D01*
X-571155Y-312681D01*
X-574265Y-311738D01*
X-577500Y-311419D01*
X-580735Y-311738D01*
X-583845Y-312681D01*
X-586711Y-314214D01*
X-589224Y-316275D01*
X-591286Y-318788D01*
X-592818Y-321654D01*
X-593761Y-324765D01*
X-594080Y-327999D01*
X-593761Y-331234D01*
X-592818Y-334344D01*
X-591286Y-337210D01*
X-589224Y-339723D01*
X-586711Y-341785D01*
X-583845Y-343317D01*
X-580735Y-344260D01*
X-577500Y-344579D01*
X-574265Y-344260D01*
X-571828Y-343521D01*
X-571447Y-343845D01*
X-571599Y-345000D01*
X-571204Y-348002D01*
X-570045Y-350800D01*
X-568202Y-353202D01*
X-565800Y-355045D01*
X-563002Y-356204D01*
X-560000Y-356599D01*
X-556998Y-356204D01*
X-554200Y-355045D01*
X-553925Y-354834D01*
X-551291D01*
X-551203Y-355501D01*
X-550044Y-358299D01*
X-548201Y-360701D01*
X-545798Y-362545D01*
X-543001Y-363703D01*
X-539999Y-364099D01*
X-536997Y-363703D01*
X-534199Y-362545D01*
X-533924Y-362333D01*
X-517500D01*
X-517499Y-362333D01*
X-516227Y-362166D01*
X-514954Y-361998D01*
X-512582Y-361016D01*
X-510546Y-359453D01*
X-503427Y-352334D01*
X-484380D01*
X-484050Y-352710D01*
X-484351Y-355000D01*
Y-365000D01*
Y-375000D01*
X-483948Y-378067D01*
X-482764Y-380926D01*
X-480880Y-383380D01*
X-478426Y-385264D01*
X-475567Y-386448D01*
X-472500Y-386851D01*
X-469433Y-386448D01*
X-466574Y-385264D01*
X-464120Y-383380D01*
X-462236Y-380926D01*
X-461052Y-378067D01*
X-460892Y-376851D01*
X-365000D01*
X-361933Y-376448D01*
X-359074Y-375264D01*
X-356620Y-373380D01*
X-334696Y-351456D01*
X-332812Y-349001D01*
X-331628Y-346143D01*
X-331224Y-343076D01*
Y-331018D01*
X-314902D01*
X-311377Y-330554D01*
X-308093Y-329194D01*
X-305273Y-327030D01*
X-290273Y-312030D01*
X-288109Y-309210D01*
X-286749Y-305926D01*
X-286285Y-302402D01*
Y-98042D01*
X-274086Y-85842D01*
X-267171D01*
X-264351Y-89279D01*
X-260697Y-92278D01*
X-256527Y-94506D01*
X-252003Y-95879D01*
X-247298Y-96342D01*
X-242875Y-95906D01*
X-221653Y-117128D01*
X-218832Y-119292D01*
X-215548Y-120653D01*
X-212024Y-121117D01*
X-142572D01*
X-139048Y-120653D01*
X-135764Y-119292D01*
X-132944Y-117128D01*
X-111722Y-95906D01*
X-107298Y-96342D01*
X-102874Y-95906D01*
X-81653Y-117128D01*
X-78833Y-119292D01*
X-75549Y-120653D01*
X-72024Y-121117D01*
X-2573D01*
X952Y-120653D01*
X4236Y-119292D01*
X7056Y-117128D01*
X28278Y-95906D01*
X32702Y-96342D01*
X37125Y-95906D01*
X58347Y-117128D01*
X61167Y-119292D01*
X64451Y-120653D01*
X67976Y-121117D01*
X137428D01*
X140952Y-120653D01*
X144236Y-119292D01*
X147056Y-117128D01*
X168278Y-95906D01*
X172702Y-96342D01*
X177407Y-95879D01*
X181931Y-94506D01*
X186100Y-92278D01*
X189754Y-89279D01*
X192754Y-85624D01*
X194982Y-81455D01*
X196354Y-76931D01*
X196818Y-72226D01*
X196354Y-67521D01*
X194982Y-62997D01*
X192754Y-58828D01*
X189754Y-55173D01*
X186100Y-52174D01*
X181931Y-49946D01*
X177407Y-48573D01*
X172702Y-48110D01*
X167997Y-48573D01*
X163473Y-49946D01*
X159303Y-52174D01*
X155649Y-55173D01*
X152650Y-58828D01*
X150421Y-62997D01*
X149049Y-67521D01*
X148586Y-72226D01*
X149021Y-76650D01*
X131787Y-93883D01*
X119124D01*
X119003Y-93399D01*
X121100Y-92278D01*
X124754Y-89279D01*
X127753Y-85624D01*
X129982Y-81455D01*
X131354Y-76931D01*
X131818Y-72226D01*
X131354Y-67521D01*
X129982Y-62997D01*
X127753Y-58828D01*
X124754Y-55173D01*
X121100Y-52174D01*
X116931Y-49946D01*
X112407Y-48573D01*
X107702Y-48110D01*
X102997Y-48573D01*
X98473Y-49946D01*
X94303Y-52174D01*
X90649Y-55173D01*
X87650Y-58828D01*
X85421Y-62997D01*
X84049Y-67521D01*
X83586Y-72226D01*
X84049Y-76931D01*
X85421Y-81455D01*
X87650Y-85624D01*
X90649Y-89279D01*
X94303Y-92278D01*
X96400Y-93399D01*
X96279Y-93883D01*
X73616D01*
X56382Y-76650D01*
X56818Y-72226D01*
X56354Y-67521D01*
X54982Y-62997D01*
X52754Y-58828D01*
X49754Y-55173D01*
X46100Y-52174D01*
X41930Y-49946D01*
X37406Y-48573D01*
X32702Y-48110D01*
X27997Y-48573D01*
X23473Y-49946D01*
X19303Y-52174D01*
X15649Y-55173D01*
X12650Y-58828D01*
X10421Y-62997D01*
X9049Y-67521D01*
X8586Y-72226D01*
X9021Y-76650D01*
X-8213Y-93883D01*
X-20875D01*
X-20997Y-93399D01*
X-18900Y-92278D01*
X-15246Y-89279D01*
X-12247Y-85624D01*
X-10018Y-81455D01*
X-8646Y-76931D01*
X-8182Y-72226D01*
X-8646Y-67521D01*
X-10018Y-62997D01*
X-12247Y-58828D01*
X-15246Y-55173D01*
X-18900Y-52174D01*
X-23070Y-49946D01*
X-27594Y-48573D01*
X-32298Y-48110D01*
X-37003Y-48573D01*
X-41527Y-49946D01*
X-45697Y-52174D01*
X-49351Y-55173D01*
X-52350Y-58828D01*
X-54579Y-62997D01*
X-55951Y-67521D01*
X-56414Y-72226D01*
X-55951Y-76931D01*
X-54579Y-81455D01*
X-52350Y-85624D01*
X-49351Y-89279D01*
X-45697Y-92278D01*
X-43600Y-93399D01*
X-43721Y-93883D01*
X-66384D01*
X-83618Y-76650D01*
X-83182Y-72226D01*
X-83646Y-67521D01*
X-85018Y-62997D01*
X-87247Y-58828D01*
X-90246Y-55173D01*
X-93900Y-52174D01*
X-98069Y-49946D01*
X-102593Y-48573D01*
X-107298Y-48110D01*
X-112003Y-48573D01*
X-116527Y-49946D01*
X-120697Y-52174D01*
X-124351Y-55173D01*
X-127350Y-58828D01*
X-129579Y-62997D01*
X-130951Y-67521D01*
X-131414Y-72226D01*
X-130979Y-76650D01*
X-148213Y-93883D01*
X-160875D01*
X-160997Y-93399D01*
X-158900Y-92278D01*
X-155246Y-89279D01*
X-152247Y-85624D01*
X-150018Y-81455D01*
X-148646Y-76931D01*
X-148182Y-72226D01*
X-148646Y-67521D01*
X-150018Y-62997D01*
X-152247Y-58828D01*
X-155246Y-55173D01*
X-158900Y-52174D01*
X-163069Y-49946D01*
X-167593Y-48573D01*
X-172298Y-48110D01*
X-177003Y-48573D01*
X-181527Y-49946D01*
X-185697Y-52174D01*
X-189351Y-55173D01*
X-192350Y-58828D01*
X-194579Y-62997D01*
X-195951Y-67521D01*
X-196415Y-72226D01*
X-195951Y-76931D01*
X-194579Y-81455D01*
X-192350Y-85624D01*
X-189351Y-89279D01*
X-185697Y-92278D01*
X-183600Y-93399D01*
X-183721Y-93883D01*
X-206384D01*
X-223618Y-76650D01*
X-223182Y-72226D01*
X-223646Y-67521D01*
X-225018Y-62997D01*
X-227246Y-58828D01*
X-230246Y-55173D01*
X-233900Y-52174D01*
X-238069Y-49946D01*
X-242593Y-48573D01*
X-247298Y-48110D01*
X-252003Y-48573D01*
X-256527Y-49946D01*
X-260697Y-52174D01*
X-264351Y-55173D01*
X-267171Y-58609D01*
X-279726D01*
X-283250Y-59073D01*
X-285174Y-59870D01*
X-286534Y-60434D01*
X-289354Y-62598D01*
X-309530Y-82773D01*
X-311694Y-85593D01*
X-313054Y-88877D01*
X-313518Y-92402D01*
Y-296761D01*
X-320542Y-303785D01*
X-331504D01*
X-331637Y-303285D01*
X-329708Y-300934D01*
X-328222Y-298154D01*
X-327307Y-295138D01*
X-326998Y-292002D01*
X-327307Y-288865D01*
X-328222Y-285849D01*
X-329708Y-283069D01*
X-331707Y-280633D01*
X-333025Y-279552D01*
Y-279052D01*
X-331707Y-277970D01*
X-329708Y-275534D01*
X-328222Y-272754D01*
X-327307Y-269738D01*
X-326998Y-266602D01*
X-327307Y-263465D01*
X-328222Y-260449D01*
X-329708Y-257670D01*
X-331707Y-255233D01*
X-333025Y-254152D01*
Y-253652D01*
X-331707Y-252570D01*
X-329708Y-250134D01*
X-328222Y-247354D01*
X-327307Y-244338D01*
X-326998Y-241202D01*
X-327307Y-238065D01*
X-328222Y-235049D01*
X-329708Y-232269D01*
X-331707Y-229833D01*
X-334144Y-227834D01*
X-335173Y-227284D01*
X-335214Y-226785D01*
X-333447Y-225430D01*
X-331283Y-222610D01*
X-329923Y-219326D01*
X-329854Y-218802D01*
X-343076D01*
Y-212802D01*
X-329854D01*
X-329923Y-212277D01*
X-331283Y-208993D01*
X-333447Y-206173D01*
X-335214Y-204818D01*
X-335173Y-204320D01*
X-334144Y-203769D01*
X-331707Y-201770D01*
X-329708Y-199334D01*
X-328222Y-196554D01*
X-327307Y-193538D01*
X-326998Y-190402D01*
X-327307Y-187265D01*
X-328222Y-184249D01*
X-329708Y-181469D01*
X-331707Y-179033D01*
X-333025Y-177952D01*
Y-177452D01*
X-331707Y-176370D01*
X-329708Y-173934D01*
X-328222Y-171154D01*
X-327307Y-168138D01*
X-326998Y-165002D01*
X-327307Y-161865D01*
X-328222Y-158849D01*
X-329708Y-156069D01*
X-331707Y-153633D01*
X-334144Y-151634D01*
X-335173Y-151084D01*
X-335214Y-150585D01*
X-333447Y-149230D01*
X-331283Y-146410D01*
X-329923Y-143126D01*
X-329854Y-142602D01*
X-343076D01*
Y-136602D01*
X-329854D01*
X-329923Y-136077D01*
X-331283Y-132793D01*
X-333447Y-129973D01*
X-335214Y-128618D01*
X-335173Y-128120D01*
X-334144Y-127570D01*
X-331707Y-125570D01*
X-329708Y-123134D01*
X-328222Y-120354D01*
X-327307Y-117338D01*
X-326998Y-114202D01*
X-327307Y-111065D01*
X-328222Y-108049D01*
X-329708Y-105269D01*
X-331707Y-102833D01*
X-333025Y-101752D01*
Y-101252D01*
X-331707Y-100170D01*
X-329708Y-97734D01*
X-328222Y-94954D01*
X-327307Y-91938D01*
X-326998Y-88802D01*
X-327307Y-85665D01*
X-328222Y-82649D01*
X-329708Y-79869D01*
X-331707Y-77433D01*
X-333025Y-76352D01*
Y-75852D01*
X-331707Y-74770D01*
X-329708Y-72334D01*
X-328222Y-69554D01*
X-327307Y-66538D01*
X-326998Y-63402D01*
X-327307Y-60265D01*
X-328222Y-57249D01*
X-329708Y-54469D01*
X-331707Y-52033D01*
X-333025Y-50952D01*
Y-50452D01*
X-331707Y-49370D01*
X-329708Y-46934D01*
X-328222Y-44154D01*
X-327307Y-41138D01*
X-326998Y-38002D01*
X-327307Y-34865D01*
X-328222Y-31849D01*
X-329708Y-29069D01*
X-331707Y-26633D01*
X-333025Y-25552D01*
Y-25052D01*
X-331707Y-23970D01*
X-329708Y-21534D01*
X-328222Y-18754D01*
X-327307Y-15738D01*
X-326998Y-12602D01*
X-327307Y-9465D01*
X-328222Y-6449D01*
X-329708Y-3670D01*
X-331707Y-1233D01*
X-333025Y-152D01*
Y348D01*
X-331707Y1430D01*
X-329708Y3866D01*
X-328222Y6646D01*
X-327307Y9662D01*
X-326998Y12798D01*
X-327307Y15935D01*
X-328222Y18951D01*
X-329708Y21730D01*
X-331707Y24167D01*
X-333025Y25248D01*
Y25748D01*
X-331707Y26830D01*
X-329708Y29266D01*
X-328222Y32046D01*
X-327307Y35062D01*
X-326998Y38198D01*
X-327307Y41335D01*
X-328222Y44351D01*
X-329708Y47130D01*
X-331707Y49567D01*
X-333025Y50648D01*
Y51148D01*
X-331707Y52230D01*
X-329708Y54666D01*
X-328222Y57446D01*
X-327307Y60462D01*
X-326998Y63598D01*
X-327307Y66735D01*
X-328222Y69751D01*
X-329708Y72530D01*
X-331707Y74967D01*
X-333025Y76048D01*
Y76548D01*
X-331707Y77630D01*
X-329708Y80066D01*
X-328222Y82846D01*
X-327307Y85862D01*
X-326998Y88998D01*
X-327307Y92135D01*
X-328222Y95151D01*
X-329708Y97930D01*
X-331707Y100367D01*
X-333025Y101448D01*
Y101948D01*
X-331707Y103030D01*
X-329708Y105466D01*
X-328222Y108246D01*
X-327307Y111262D01*
X-326998Y114398D01*
X-327307Y117535D01*
X-328222Y120551D01*
X-329708Y123330D01*
X-331707Y125767D01*
X-333025Y126848D01*
Y127348D01*
X-331707Y128430D01*
X-329708Y130866D01*
X-328222Y133646D01*
X-327307Y136662D01*
X-326998Y139798D01*
X-327307Y142935D01*
X-328222Y145951D01*
X-329708Y148730D01*
X-331707Y151167D01*
X-333025Y152248D01*
Y152748D01*
X-331707Y153830D01*
X-329708Y156266D01*
X-328222Y159046D01*
X-327307Y162062D01*
X-326998Y165198D01*
X-327307Y168335D01*
X-328222Y171351D01*
X-329708Y174130D01*
X-331707Y176567D01*
X-333025Y177648D01*
Y178148D01*
X-331707Y179230D01*
X-329708Y181666D01*
X-328222Y184446D01*
X-327307Y187462D01*
X-326998Y190598D01*
X-327307Y193735D01*
X-328222Y196751D01*
X-329708Y199531D01*
X-331707Y201967D01*
X-333025Y203048D01*
Y203548D01*
X-331707Y204630D01*
X-329708Y207066D01*
X-328222Y209846D01*
X-327307Y212862D01*
X-326998Y215998D01*
X-327307Y219135D01*
X-328222Y222151D01*
X-329708Y224930D01*
X-331707Y227367D01*
X-333025Y228448D01*
Y228948D01*
X-331707Y230030D01*
X-329708Y232466D01*
X-328222Y235246D01*
X-327307Y238262D01*
X-326998Y241398D01*
X-327307Y244535D01*
X-328222Y247551D01*
X-329708Y250331D01*
X-331707Y252767D01*
X-333025Y253848D01*
Y254348D01*
X-331707Y255430D01*
X-329708Y257866D01*
X-328222Y260646D01*
X-327307Y263662D01*
X-326998Y266798D01*
X-327307Y269935D01*
X-328222Y272951D01*
X-329708Y275730D01*
X-331707Y278167D01*
X-333025Y279248D01*
Y279748D01*
X-331707Y280830D01*
X-329708Y283266D01*
X-328222Y286046D01*
X-327307Y289062D01*
X-326998Y292198D01*
X-327307Y295335D01*
X-328222Y298351D01*
X-329708Y301131D01*
X-331707Y303567D01*
X-331781Y303628D01*
X-331613Y304098D01*
X-329576D01*
Y314598D01*
X-343076D01*
Y317598D01*
X-346076D01*
Y331098D01*
X-356576D01*
Y329061D01*
X-357047Y328893D01*
X-357107Y328967D01*
X-359544Y330966D01*
X-362323Y332452D01*
X-365339Y333367D01*
X-368476Y333676D01*
X-371612Y333367D01*
X-374628Y332452D01*
X-377408Y330966D01*
X-379844Y328967D01*
X-381844Y326530D01*
X-383329Y323751D01*
X-384244Y320735D01*
X-384553Y317598D01*
X-384244Y314462D01*
X-383329Y311446D01*
X-381844Y308666D01*
X-379844Y306230D01*
X-378526Y305148D01*
Y304648D01*
X-379844Y303567D01*
X-381844Y301131D01*
X-383329Y298351D01*
X-384244Y295335D01*
X-384553Y292198D01*
X-384244Y289062D01*
X-383329Y286046D01*
X-381844Y283266D01*
X-379844Y280830D01*
X-378526Y279748D01*
Y279248D01*
X-379844Y278167D01*
X-381844Y275730D01*
X-383329Y272951D01*
X-384244Y269935D01*
X-384553Y266798D01*
X-384244Y263662D01*
X-383329Y260646D01*
X-381844Y257866D01*
X-379844Y255430D01*
X-378526Y254348D01*
Y253848D01*
X-379844Y252767D01*
X-381844Y250331D01*
X-383329Y247551D01*
X-384244Y244535D01*
X-384553Y241398D01*
X-384244Y238262D01*
X-383329Y235246D01*
X-381844Y232466D01*
X-379844Y230030D01*
X-378526Y228948D01*
Y228448D01*
X-379844Y227367D01*
X-381844Y224930D01*
X-383329Y222151D01*
X-384244Y219135D01*
X-384553Y215998D01*
X-384244Y212862D01*
X-383329Y209846D01*
X-381844Y207066D01*
X-379844Y204630D01*
X-378526Y203548D01*
Y203048D01*
X-379844Y201967D01*
X-381844Y199531D01*
X-383329Y196751D01*
X-384244Y193735D01*
X-384553Y190598D01*
X-384244Y187462D01*
X-383329Y184446D01*
X-381844Y181666D01*
X-379844Y179230D01*
X-378526Y178148D01*
Y177648D01*
X-379844Y176567D01*
X-381844Y174130D01*
X-383329Y171351D01*
X-384244Y168335D01*
X-384553Y165198D01*
X-384244Y162062D01*
X-383329Y159046D01*
X-381844Y156266D01*
X-379844Y153830D01*
X-378526Y152748D01*
Y152248D01*
X-379844Y151167D01*
X-381844Y148730D01*
X-383329Y145951D01*
X-384244Y142935D01*
X-384553Y139798D01*
X-384244Y136662D01*
X-383329Y133646D01*
X-381844Y130866D01*
X-379844Y128430D01*
X-378526Y127348D01*
Y126848D01*
X-379844Y125767D01*
X-381844Y123330D01*
X-383329Y120551D01*
X-384244Y117535D01*
X-384553Y114398D01*
X-384244Y111262D01*
X-383329Y108246D01*
X-381844Y105466D01*
X-379844Y103030D01*
X-378526Y101948D01*
Y101448D01*
X-379844Y100367D01*
X-381844Y97930D01*
X-383329Y95151D01*
X-384244Y92135D01*
X-384553Y88998D01*
X-384244Y85862D01*
X-383329Y82846D01*
X-381844Y80066D01*
X-379844Y77630D01*
X-378526Y76548D01*
Y76048D01*
X-379844Y74967D01*
X-381844Y72530D01*
X-383329Y69751D01*
X-384244Y66735D01*
X-384553Y63598D01*
X-384244Y60462D01*
X-383329Y57446D01*
X-381844Y54666D01*
X-379844Y52230D01*
X-378526Y51148D01*
Y50648D01*
X-379844Y49567D01*
X-381844Y47130D01*
X-383329Y44351D01*
X-384244Y41335D01*
X-384553Y38198D01*
X-384244Y35062D01*
X-383329Y32046D01*
X-381844Y29266D01*
X-379844Y26830D01*
X-378526Y25748D01*
Y25248D01*
X-379844Y24167D01*
X-381844Y21730D01*
X-383329Y18951D01*
X-384244Y15935D01*
X-384553Y12798D01*
X-384244Y9662D01*
X-383329Y6646D01*
X-381844Y3866D01*
X-379844Y1430D01*
X-378526Y348D01*
Y-152D01*
X-379844Y-1233D01*
X-381844Y-3670D01*
X-383329Y-6449D01*
X-384244Y-9465D01*
X-384553Y-12602D01*
X-384244Y-15738D01*
X-383329Y-18754D01*
X-381844Y-21534D01*
X-379844Y-23970D01*
X-378526Y-25052D01*
Y-25552D01*
X-379844Y-26633D01*
X-381844Y-29069D01*
X-383329Y-31849D01*
X-384244Y-34865D01*
X-384553Y-38002D01*
X-384244Y-41138D01*
X-383329Y-44154D01*
X-381844Y-46934D01*
X-379844Y-49370D01*
X-378526Y-50452D01*
Y-50952D01*
X-379844Y-52033D01*
X-381844Y-54469D01*
X-383329Y-57249D01*
X-384244Y-60265D01*
X-384553Y-63402D01*
X-384244Y-66538D01*
X-383329Y-69554D01*
X-381844Y-72334D01*
X-379844Y-74770D01*
X-378526Y-75852D01*
Y-76352D01*
X-379844Y-77433D01*
X-380316Y-78008D01*
X-380816Y-78000D01*
X-381549Y-77043D01*
X-381550Y-77043D01*
X-396822Y-61771D01*
X-396296Y-60502D01*
X-395901Y-57500D01*
X-396296Y-54498D01*
X-397455Y-51700D01*
X-399298Y-49298D01*
X-401700Y-47455D01*
X-404498Y-46296D01*
X-407500Y-45901D01*
X-410502Y-46296D01*
X-413300Y-47455D01*
X-415702Y-49298D01*
X-417545Y-51700D01*
X-418704Y-54498D01*
X-419099Y-57500D01*
X-418704Y-60502D01*
X-417545Y-63300D01*
X-417334Y-63575D01*
Y-65000D01*
X-417334Y-65000D01*
X-417167Y-66273D01*
X-416999Y-67545D01*
X-416017Y-69917D01*
X-414454Y-71954D01*
X-398337Y-88070D01*
Y-140988D01*
X-398837Y-141281D01*
X-401730Y-140901D01*
X-404732Y-141296D01*
X-407529Y-142455D01*
X-409932Y-144298D01*
X-411775Y-146700D01*
X-412934Y-149498D01*
X-413329Y-152500D01*
X-412934Y-155502D01*
X-412338Y-156939D01*
Y-175188D01*
X-413204Y-177278D01*
X-413599Y-180280D01*
X-413204Y-183282D01*
X-412045Y-186080D01*
X-410202Y-188482D01*
X-407800Y-190325D01*
X-405002Y-191484D01*
X-402000Y-191879D01*
X-398998Y-191484D01*
X-396200Y-190325D01*
X-393798Y-188482D01*
X-393650Y-188289D01*
X-393151Y-188256D01*
X-385196Y-196212D01*
X-385196Y-196212D01*
X-383159Y-197775D01*
X-382540Y-198031D01*
X-381844Y-199334D01*
X-379844Y-201770D01*
X-378526Y-202852D01*
Y-203352D01*
X-379844Y-204433D01*
X-381844Y-206870D01*
X-383329Y-209649D01*
X-384244Y-212665D01*
X-384553Y-215802D01*
X-384244Y-218938D01*
X-383329Y-221954D01*
X-381844Y-224734D01*
X-379844Y-227170D01*
X-378526Y-228252D01*
Y-228752D01*
X-379844Y-229833D01*
X-381844Y-232269D01*
X-383329Y-235049D01*
X-384244Y-238065D01*
X-384553Y-241202D01*
X-384244Y-244338D01*
X-383329Y-247354D01*
X-381844Y-250134D01*
X-379844Y-252570D01*
X-378526Y-253652D01*
Y-254152D01*
X-379844Y-255233D01*
X-381844Y-257670D01*
X-383329Y-260449D01*
X-384244Y-263465D01*
X-384553Y-266602D01*
X-384244Y-269738D01*
X-383329Y-272754D01*
X-381844Y-275534D01*
X-379844Y-277970D01*
X-378526Y-279052D01*
Y-279552D01*
X-379844Y-280633D01*
X-381844Y-283069D01*
X-383329Y-285849D01*
X-384244Y-288865D01*
X-384553Y-292002D01*
X-384244Y-295138D01*
X-383329Y-298154D01*
X-381844Y-300934D01*
X-379844Y-303370D01*
X-378526Y-304452D01*
Y-304952D01*
X-379844Y-306033D01*
X-381844Y-308470D01*
X-383329Y-311249D01*
X-384244Y-314265D01*
X-384553Y-317402D01*
X-384244Y-320538D01*
X-383329Y-323554D01*
X-381844Y-326334D01*
X-379844Y-328770D01*
X-377408Y-330770D01*
X-374628Y-332255D01*
X-371612Y-333170D01*
X-368476Y-333479D01*
X-365339Y-333170D01*
X-362323Y-332255D01*
X-359544Y-330770D01*
X-357107Y-328770D01*
X-356026Y-327452D01*
X-355526D01*
X-354927Y-328182D01*
Y-338167D01*
X-369909Y-353149D01*
X-378107D01*
X-378437Y-352773D01*
X-378401Y-352500D01*
X-378796Y-349498D01*
X-379955Y-346700D01*
X-381798Y-344298D01*
X-384200Y-342455D01*
X-386998Y-341296D01*
X-390000Y-340901D01*
X-393002Y-341296D01*
X-395092Y-342162D01*
X-405718D01*
X-407162Y-340718D01*
Y-325000D01*
X-407514Y-322324D01*
X-408547Y-319831D01*
X-410190Y-317690D01*
X-420412Y-307468D01*
Y-196997D01*
X-420764Y-194321D01*
X-421126Y-193447D01*
Y-164738D01*
X-419672Y-162844D01*
X-418312Y-159560D01*
X-417848Y-156035D01*
Y-148535D01*
X-418312Y-145011D01*
X-419109Y-143088D01*
X-419672Y-141727D01*
X-421836Y-138907D01*
X-422248Y-138496D01*
X-422087Y-138022D01*
X-419425Y-137672D01*
X-416323Y-136387D01*
X-413660Y-134343D01*
X-411616Y-131680D01*
X-410331Y-128579D01*
X-409893Y-125250D01*
X-410331Y-121922D01*
X-411616Y-118820D01*
X-413660Y-116157D01*
X-424640Y-105176D01*
Y330000D01*
X-425078Y333328D01*
X-426363Y336430D01*
X-428407Y339093D01*
X-435907Y346593D01*
X-438570Y348637D01*
X-441672Y349922D01*
X-445000Y350360D01*
D02*
G37*
G36*
X-767500Y267502D02*
X-807500D01*
Y227502D01*
X-801489D01*
X-801321Y227032D01*
X-801711Y226712D01*
X-804210Y223666D01*
X-806067Y220192D01*
X-807211Y216422D01*
X-807597Y212501D01*
X-807211Y208581D01*
X-806067Y204811D01*
X-804210Y201336D01*
X-801711Y198291D01*
X-798665Y195791D01*
X-795191Y193934D01*
X-794981Y193871D01*
X-794932Y193373D01*
X-797270Y192124D01*
X-799934Y189937D01*
X-802121Y187272D01*
X-803746Y184232D01*
X-804747Y180933D01*
X-804789Y180502D01*
X-787500D01*
X-770211D01*
X-770253Y180933D01*
X-771254Y184232D01*
X-772879Y187272D01*
X-775066Y189937D01*
X-777730Y192124D01*
X-780068Y193373D01*
X-780019Y193871D01*
X-779809Y193934D01*
X-776335Y195791D01*
X-773289Y198291D01*
X-770790Y201336D01*
X-768933Y204811D01*
X-767789Y208581D01*
X-767403Y212501D01*
X-767789Y216422D01*
X-768933Y220192D01*
X-770790Y223666D01*
X-773289Y226712D01*
X-773679Y227032D01*
X-773511Y227502D01*
X-767500D01*
Y267502D01*
D02*
G37*
G36*
X447000Y247597D02*
X443079Y247211D01*
X439309Y246067D01*
X435835Y244210D01*
X432789Y241710D01*
X430290Y238665D01*
X428433Y235191D01*
X427289Y231421D01*
X426903Y227500D01*
X427289Y223579D01*
X428433Y219809D01*
X430290Y216335D01*
X432789Y213289D01*
X433178Y212971D01*
X433009Y212500D01*
X427000D01*
Y172500D01*
X467000D01*
Y212500D01*
X460991D01*
X460822Y212971D01*
X461211Y213289D01*
X463710Y216335D01*
X465567Y219809D01*
X466711Y223579D01*
X467097Y227500D01*
X466711Y231421D01*
X465567Y235191D01*
X463710Y238665D01*
X461211Y241710D01*
X458165Y244210D01*
X454691Y246067D01*
X450921Y247211D01*
X447000Y247597D01*
D02*
G37*
G36*
X-750000Y194080D02*
X-753235Y193761D01*
X-756345Y192818D01*
X-759211Y191286D01*
X-761724Y189224D01*
X-763786Y186711D01*
X-765318Y183845D01*
X-766261Y180735D01*
X-766580Y177500D01*
X-766261Y174265D01*
X-765318Y171155D01*
X-763786Y168289D01*
X-761724Y165776D01*
X-759211Y163714D01*
X-756345Y162182D01*
X-753235Y161239D01*
X-750000Y160920D01*
X-746765Y161239D01*
X-743655Y162182D01*
X-740789Y163714D01*
X-738276Y165776D01*
X-736214Y168289D01*
X-734682Y171155D01*
X-733739Y174265D01*
X-733420Y177500D01*
X-733739Y180735D01*
X-734682Y183845D01*
X-736214Y186711D01*
X-738276Y189224D01*
X-740789Y191286D01*
X-743655Y192818D01*
X-746765Y193761D01*
X-750000Y194080D01*
D02*
G37*
G36*
X-770211Y174502D02*
X-784500D01*
Y160213D01*
X-784069Y160256D01*
X-780771Y161257D01*
X-777730Y162882D01*
X-775066Y165068D01*
X-772879Y167733D01*
X-771254Y170773D01*
X-770253Y174072D01*
X-770211Y174502D01*
D02*
G37*
G36*
X-790500D02*
X-804789D01*
X-804747Y174072D01*
X-803746Y170773D01*
X-802121Y167733D01*
X-799934Y165068D01*
X-797270Y162882D01*
X-794229Y161257D01*
X-790931Y160256D01*
X-790500Y160213D01*
Y174502D01*
D02*
G37*
G36*
X447000Y157597D02*
X443079Y157211D01*
X439309Y156067D01*
X435835Y154210D01*
X432789Y151711D01*
X430290Y148665D01*
X428433Y145191D01*
X427289Y141421D01*
X426903Y137500D01*
X427289Y133579D01*
X428433Y129809D01*
X430290Y126335D01*
X432789Y123289D01*
X433178Y122971D01*
X433009Y122500D01*
X427000D01*
Y82500D01*
X467000D01*
Y122500D01*
X460991D01*
X460822Y122971D01*
X461211Y123289D01*
X463710Y126335D01*
X465567Y129809D01*
X466711Y133579D01*
X467097Y137500D01*
X466711Y141421D01*
X465567Y145191D01*
X463710Y148665D01*
X461211Y151711D01*
X458165Y154210D01*
X454691Y156067D01*
X450921Y157211D01*
X447000Y157597D01*
D02*
G37*
G36*
X-767497Y137500D02*
X-807497D01*
Y97500D01*
X-801488D01*
X-801320Y97029D01*
X-801708Y96711D01*
X-804207Y93665D01*
X-806065Y90191D01*
X-807208Y86421D01*
X-807594Y82500D01*
X-807208Y78579D01*
X-806065Y74809D01*
X-804207Y71335D01*
X-801708Y68289D01*
X-798663Y65790D01*
X-795188Y63933D01*
X-791418Y62789D01*
X-787497Y62403D01*
X-783577Y62789D01*
X-779807Y63933D01*
X-776332Y65790D01*
X-773287Y68289D01*
X-770788Y71335D01*
X-768931Y74809D01*
X-767787Y78579D01*
X-767401Y82500D01*
X-767787Y86421D01*
X-768931Y90191D01*
X-770788Y93665D01*
X-773287Y96711D01*
X-773675Y97029D01*
X-773507Y97500D01*
X-767497D01*
Y137500D01*
D02*
G37*
G36*
X449500Y42287D02*
Y27997D01*
X463789D01*
X463747Y28428D01*
X462746Y31727D01*
X461121Y34767D01*
X458934Y37432D01*
X456269Y39618D01*
X453229Y41244D01*
X449931Y42244D01*
X449500Y42287D01*
D02*
G37*
G36*
X443500Y42287D02*
X443069Y42244D01*
X439771Y41244D01*
X436730Y39618D01*
X434066Y37432D01*
X431879Y34767D01*
X430254Y31727D01*
X429253Y28428D01*
X429211Y27997D01*
X443500D01*
Y42287D01*
D02*
G37*
G36*
X-767497Y27500D02*
X-807497D01*
Y-12500D01*
X-801488D01*
X-801320Y-12971D01*
X-801708Y-13289D01*
X-804207Y-16335D01*
X-806065Y-19809D01*
X-807208Y-23579D01*
X-807594Y-27500D01*
X-807208Y-31421D01*
X-806065Y-35191D01*
X-804207Y-38665D01*
X-801708Y-41711D01*
X-798663Y-44210D01*
X-795188Y-46067D01*
X-791418Y-47210D01*
X-787497Y-47597D01*
X-783577Y-47210D01*
X-779807Y-46067D01*
X-776332Y-44210D01*
X-773287Y-41711D01*
X-770788Y-38665D01*
X-768931Y-35191D01*
X-767787Y-31421D01*
X-767401Y-27500D01*
X-767787Y-23579D01*
X-768931Y-19809D01*
X-770788Y-16335D01*
X-773287Y-13289D01*
X-773675Y-12971D01*
X-773507Y-12500D01*
X-767497D01*
Y27500D01*
D02*
G37*
G36*
X463789Y21997D02*
X446500D01*
X429211D01*
X429253Y21567D01*
X430254Y18268D01*
X431879Y15228D01*
X434066Y12563D01*
X436730Y10376D01*
X439068Y9127D01*
X439019Y8629D01*
X438809Y8566D01*
X435335Y6709D01*
X432289Y4209D01*
X429790Y1164D01*
X427933Y-2311D01*
X426789Y-6081D01*
X426403Y-10001D01*
X426789Y-13922D01*
X427933Y-17692D01*
X429790Y-21167D01*
X432289Y-24212D01*
X432679Y-24532D01*
X432511Y-25003D01*
X426500D01*
Y-65002D01*
X466500D01*
Y-25003D01*
X460489D01*
X460321Y-24532D01*
X460711Y-24212D01*
X463210Y-21167D01*
X465067Y-17692D01*
X466211Y-13922D01*
X466597Y-10001D01*
X466211Y-6081D01*
X465067Y-2311D01*
X463210Y1164D01*
X460711Y4209D01*
X457665Y6709D01*
X454191Y8566D01*
X453981Y8629D01*
X453932Y9127D01*
X456269Y10376D01*
X458934Y12563D01*
X461121Y15228D01*
X462746Y18268D01*
X463747Y21567D01*
X463789Y21997D01*
D02*
G37*
G36*
X247702Y-48110D02*
X242997Y-48573D01*
X238473Y-49946D01*
X234303Y-52174D01*
X230649Y-55173D01*
X227650Y-58828D01*
X225421Y-62997D01*
X224049Y-67521D01*
X223585Y-72226D01*
X224049Y-76931D01*
X225421Y-81455D01*
X227650Y-85624D01*
X230649Y-89279D01*
X234303Y-92278D01*
X238473Y-94506D01*
X242997Y-95879D01*
X247702Y-96342D01*
X252407Y-95879D01*
X256931Y-94506D01*
X261100Y-92278D01*
X264754Y-89279D01*
X267754Y-85624D01*
X269982Y-81455D01*
X271354Y-76931D01*
X271818Y-72226D01*
X271354Y-67521D01*
X269982Y-62997D01*
X267754Y-58828D01*
X264754Y-55173D01*
X261100Y-52174D01*
X256931Y-49946D01*
X252407Y-48573D01*
X247702Y-48110D01*
D02*
G37*
G36*
X-522500Y-68419D02*
X-525734Y-68738D01*
X-528845Y-69681D01*
X-531711Y-71213D01*
X-534224Y-73275D01*
X-536286Y-75788D01*
X-537818Y-78654D01*
X-538761Y-81765D01*
X-539080Y-84999D01*
X-538761Y-88234D01*
X-537818Y-91344D01*
X-536286Y-94210D01*
X-534224Y-96723D01*
X-531711Y-98785D01*
X-528845Y-100317D01*
X-525734Y-101260D01*
X-522500Y-101579D01*
X-519265Y-101260D01*
X-516155Y-100317D01*
X-513289Y-98785D01*
X-510776Y-96723D01*
X-508714Y-94210D01*
X-507182Y-91344D01*
X-506239Y-88234D01*
X-505920Y-84999D01*
X-506239Y-81765D01*
X-507182Y-78654D01*
X-508714Y-75788D01*
X-510776Y-73275D01*
X-513289Y-71213D01*
X-516155Y-69681D01*
X-519265Y-68738D01*
X-522500Y-68419D01*
D02*
G37*
G36*
X-577500D02*
X-580734Y-68738D01*
X-583845Y-69681D01*
X-586711Y-71213D01*
X-589224Y-73275D01*
X-591286Y-75788D01*
X-592818Y-78654D01*
X-593761Y-81765D01*
X-594080Y-84999D01*
X-593761Y-88234D01*
X-592818Y-91344D01*
X-591286Y-94210D01*
X-589224Y-96723D01*
X-586711Y-98785D01*
X-583845Y-100317D01*
X-580734Y-101260D01*
X-577500Y-101579D01*
X-574265Y-101260D01*
X-571155Y-100317D01*
X-568289Y-98785D01*
X-565776Y-96723D01*
X-563714Y-94210D01*
X-562182Y-91344D01*
X-561239Y-88234D01*
X-560920Y-84999D01*
X-561239Y-81765D01*
X-562182Y-78654D01*
X-563714Y-75788D01*
X-565776Y-73275D01*
X-568289Y-71213D01*
X-571155Y-69681D01*
X-574265Y-68738D01*
X-577500Y-68419D01*
D02*
G37*
G36*
X-767497Y-77499D02*
X-807497D01*
Y-117499D01*
X-797592D01*
X-797413Y-117999D01*
X-799932Y-120066D01*
X-802119Y-122731D01*
X-803744Y-125771D01*
X-804744Y-129070D01*
X-804787Y-129500D01*
X-787498D01*
X-770208D01*
X-770251Y-129070D01*
X-771251Y-125771D01*
X-772876Y-122731D01*
X-775063Y-120066D01*
X-777582Y-117999D01*
X-777403Y-117499D01*
X-767497D01*
Y-77499D01*
D02*
G37*
G36*
X-640000Y-148401D02*
X-643002Y-148796D01*
X-645800Y-149955D01*
X-648202Y-151798D01*
X-650045Y-154200D01*
X-651204Y-156998D01*
X-651599Y-160000D01*
X-651204Y-163002D01*
X-650045Y-165800D01*
X-648202Y-168202D01*
X-645800Y-170045D01*
X-643002Y-171204D01*
X-640000Y-171599D01*
X-636998Y-171204D01*
X-634908Y-170338D01*
X-591782D01*
X-582310Y-179810D01*
X-580169Y-181453D01*
X-577676Y-182486D01*
X-575000Y-182838D01*
X-505368D01*
X-505110Y-183267D01*
X-505318Y-183655D01*
X-506261Y-186765D01*
X-506580Y-190000D01*
X-506261Y-193235D01*
X-505318Y-196345D01*
X-503786Y-199211D01*
X-501724Y-201724D01*
X-499211Y-203786D01*
X-497407Y-204750D01*
Y-205250D01*
X-499211Y-206214D01*
X-501724Y-208276D01*
X-503786Y-210789D01*
X-505318Y-213655D01*
X-506261Y-216765D01*
X-506580Y-220000D01*
X-506261Y-223235D01*
X-505318Y-226345D01*
X-503786Y-229211D01*
X-501724Y-231724D01*
X-499211Y-233786D01*
X-496345Y-235318D01*
X-493235Y-236261D01*
X-490000Y-236580D01*
X-486765Y-236261D01*
X-483655Y-235318D01*
X-480789Y-233786D01*
X-478276Y-231724D01*
X-476214Y-229211D01*
X-474682Y-226345D01*
X-473739Y-223235D01*
X-473420Y-220000D01*
X-473739Y-216765D01*
X-474682Y-213655D01*
X-476214Y-210789D01*
X-478276Y-208276D01*
X-480789Y-206214D01*
X-482593Y-205250D01*
Y-204750D01*
X-480789Y-203786D01*
X-478276Y-201724D01*
X-476214Y-199211D01*
X-474682Y-196345D01*
X-473739Y-193235D01*
X-473420Y-190000D01*
X-473739Y-186765D01*
X-474499Y-184260D01*
X-474175Y-183879D01*
X-472500Y-184099D01*
X-469498Y-183704D01*
X-466700Y-182545D01*
X-464298Y-180702D01*
X-462455Y-178300D01*
X-461296Y-175502D01*
X-460901Y-172500D01*
X-461296Y-169498D01*
X-462455Y-166700D01*
X-464298Y-164298D01*
X-466700Y-162455D01*
X-469498Y-161296D01*
X-472500Y-160901D01*
X-475502Y-161296D01*
X-477592Y-162162D01*
X-570718D01*
X-580190Y-152690D01*
X-582331Y-151047D01*
X-584824Y-150014D01*
X-587500Y-149662D01*
X-634908D01*
X-636998Y-148796D01*
X-640000Y-148401D01*
D02*
G37*
G36*
X-770208Y-135500D02*
X-787498D01*
X-804787D01*
X-804744Y-135931D01*
X-803744Y-139230D01*
X-802119Y-142270D01*
X-799932Y-144935D01*
X-797267Y-147121D01*
X-794930Y-148371D01*
X-794979Y-148868D01*
X-795188Y-148932D01*
X-798663Y-150789D01*
X-801708Y-153288D01*
X-804207Y-156334D01*
X-806065Y-159808D01*
X-807208Y-163578D01*
X-807594Y-167499D01*
X-807208Y-171420D01*
X-806065Y-175190D01*
X-804207Y-178664D01*
X-801708Y-181710D01*
X-798663Y-184209D01*
X-795188Y-186066D01*
X-791418Y-187210D01*
X-787497Y-187596D01*
X-783577Y-187210D01*
X-779807Y-186066D01*
X-776332Y-184209D01*
X-773287Y-181710D01*
X-770788Y-178664D01*
X-768931Y-175190D01*
X-767787Y-171420D01*
X-767401Y-167499D01*
X-767787Y-163578D01*
X-768931Y-159808D01*
X-770788Y-156334D01*
X-773287Y-153288D01*
X-776332Y-150789D01*
X-779807Y-148932D01*
X-780016Y-148868D01*
X-780065Y-148371D01*
X-777728Y-147121D01*
X-775063Y-144935D01*
X-772876Y-142270D01*
X-771251Y-139230D01*
X-770251Y-135931D01*
X-770208Y-135500D01*
D02*
G37*
G36*
X-612500Y-173420D02*
X-615735Y-173739D01*
X-618845Y-174682D01*
X-621711Y-176214D01*
X-624224Y-178276D01*
X-626286Y-180789D01*
X-627818Y-183655D01*
X-628761Y-186765D01*
X-629080Y-190000D01*
X-628761Y-193235D01*
X-627818Y-196345D01*
X-626286Y-199211D01*
X-624224Y-201724D01*
X-621711Y-203786D01*
X-619907Y-204750D01*
Y-205250D01*
X-621711Y-206214D01*
X-624224Y-208276D01*
X-626286Y-210789D01*
X-627818Y-213655D01*
X-628761Y-216765D01*
X-629080Y-220000D01*
X-628761Y-223235D01*
X-627818Y-226345D01*
X-626286Y-229211D01*
X-624224Y-231724D01*
X-621711Y-233786D01*
X-618845Y-235318D01*
X-615735Y-236261D01*
X-612500Y-236580D01*
X-609265Y-236261D01*
X-606155Y-235318D01*
X-603289Y-233786D01*
X-600776Y-231724D01*
X-598714Y-229211D01*
X-597182Y-226345D01*
X-596239Y-223235D01*
X-595920Y-220000D01*
X-596239Y-216765D01*
X-597182Y-213655D01*
X-598714Y-210789D01*
X-600776Y-208276D01*
X-603289Y-206214D01*
X-605093Y-205250D01*
Y-204750D01*
X-603289Y-203786D01*
X-600776Y-201724D01*
X-598714Y-199211D01*
X-597182Y-196345D01*
X-596239Y-193235D01*
X-595920Y-190000D01*
X-596239Y-186765D01*
X-597182Y-183655D01*
X-598714Y-180789D01*
X-600776Y-178276D01*
X-603289Y-176214D01*
X-606155Y-174682D01*
X-609265Y-173739D01*
X-612500Y-173420D01*
D02*
G37*
G36*
X247702Y-201212D02*
X243095Y-201666D01*
X238665Y-203010D01*
X234583Y-205192D01*
X231004Y-208129D01*
X228067Y-211707D01*
X225885Y-215789D01*
X224542Y-220219D01*
X224088Y-224826D01*
X224542Y-229433D01*
X225885Y-233862D01*
X228067Y-237945D01*
X231004Y-241523D01*
X234583Y-244460D01*
X238665Y-246642D01*
X243095Y-247986D01*
X247702Y-248440D01*
X252308Y-247986D01*
X256738Y-246642D01*
X260821Y-244460D01*
X264399Y-241523D01*
X267336Y-237945D01*
X269518Y-233862D01*
X270862Y-229433D01*
X271315Y-224826D01*
X270862Y-220219D01*
X269518Y-215789D01*
X267336Y-211707D01*
X264399Y-208129D01*
X260821Y-205192D01*
X256738Y-203010D01*
X252308Y-201666D01*
X247702Y-201212D01*
D02*
G37*
G36*
X172702D02*
X168095Y-201666D01*
X163665Y-203010D01*
X159583Y-205192D01*
X156004Y-208129D01*
X153068Y-211707D01*
X150885Y-215789D01*
X149542Y-220219D01*
X149088Y-224826D01*
X149542Y-229433D01*
X150885Y-233862D01*
X153068Y-237945D01*
X156004Y-241523D01*
X159583Y-244460D01*
X163665Y-246642D01*
X168095Y-247986D01*
X172702Y-248440D01*
X177308Y-247986D01*
X181738Y-246642D01*
X185821Y-244460D01*
X189399Y-241523D01*
X192336Y-237945D01*
X194518Y-233862D01*
X195862Y-229433D01*
X196315Y-224826D01*
X195862Y-220219D01*
X194518Y-215789D01*
X192336Y-211707D01*
X189399Y-208129D01*
X185821Y-205192D01*
X181738Y-203010D01*
X177308Y-201666D01*
X172702Y-201212D01*
D02*
G37*
G36*
X107702D02*
X103095Y-201666D01*
X98665Y-203010D01*
X94583Y-205192D01*
X91004Y-208129D01*
X88068Y-211707D01*
X85885Y-215789D01*
X84542Y-220219D01*
X84088Y-224826D01*
X84542Y-229433D01*
X85885Y-233862D01*
X88068Y-237945D01*
X91004Y-241523D01*
X94583Y-244460D01*
X98665Y-246642D01*
X103095Y-247986D01*
X107702Y-248440D01*
X112308Y-247986D01*
X116738Y-246642D01*
X120821Y-244460D01*
X124399Y-241523D01*
X127336Y-237945D01*
X129518Y-233862D01*
X130862Y-229433D01*
X131315Y-224826D01*
X130862Y-220219D01*
X129518Y-215789D01*
X127336Y-211707D01*
X124399Y-208129D01*
X120821Y-205192D01*
X116738Y-203010D01*
X112308Y-201666D01*
X107702Y-201212D01*
D02*
G37*
G36*
X32702D02*
X28095Y-201666D01*
X23665Y-203010D01*
X19583Y-205192D01*
X16004Y-208129D01*
X13068Y-211707D01*
X10885Y-215789D01*
X9542Y-220219D01*
X9088Y-224826D01*
X9542Y-229433D01*
X10885Y-233862D01*
X13068Y-237945D01*
X16004Y-241523D01*
X19583Y-244460D01*
X23665Y-246642D01*
X28095Y-247986D01*
X32702Y-248440D01*
X37308Y-247986D01*
X41738Y-246642D01*
X45821Y-244460D01*
X49399Y-241523D01*
X52336Y-237945D01*
X54518Y-233862D01*
X55862Y-229433D01*
X56315Y-224826D01*
X55862Y-220219D01*
X54518Y-215789D01*
X52336Y-211707D01*
X49399Y-208129D01*
X45821Y-205192D01*
X41738Y-203010D01*
X37308Y-201666D01*
X32702Y-201212D01*
D02*
G37*
G36*
X-32298D02*
X-36905Y-201666D01*
X-41335Y-203010D01*
X-45417Y-205192D01*
X-48996Y-208129D01*
X-51933Y-211707D01*
X-54115Y-215789D01*
X-55458Y-220219D01*
X-55912Y-224826D01*
X-55458Y-229433D01*
X-54115Y-233862D01*
X-51933Y-237945D01*
X-48996Y-241523D01*
X-45417Y-244460D01*
X-41335Y-246642D01*
X-36905Y-247986D01*
X-32298Y-248440D01*
X-27692Y-247986D01*
X-23262Y-246642D01*
X-19179Y-244460D01*
X-15601Y-241523D01*
X-12664Y-237945D01*
X-10482Y-233862D01*
X-9138Y-229433D01*
X-8685Y-224826D01*
X-9138Y-220219D01*
X-10482Y-215789D01*
X-12664Y-211707D01*
X-15601Y-208129D01*
X-19179Y-205192D01*
X-23262Y-203010D01*
X-27692Y-201666D01*
X-32298Y-201212D01*
D02*
G37*
G36*
X-107298D02*
X-111905Y-201666D01*
X-116335Y-203010D01*
X-120417Y-205192D01*
X-123996Y-208129D01*
X-126932Y-211707D01*
X-129115Y-215789D01*
X-130458Y-220219D01*
X-130912Y-224826D01*
X-130458Y-229433D01*
X-129115Y-233862D01*
X-126932Y-237945D01*
X-123996Y-241523D01*
X-120417Y-244460D01*
X-116335Y-246642D01*
X-111905Y-247986D01*
X-107298Y-248440D01*
X-102692Y-247986D01*
X-98262Y-246642D01*
X-94179Y-244460D01*
X-90601Y-241523D01*
X-87664Y-237945D01*
X-85482Y-233862D01*
X-84138Y-229433D01*
X-83685Y-224826D01*
X-84138Y-220219D01*
X-85482Y-215789D01*
X-87664Y-211707D01*
X-90601Y-208129D01*
X-94179Y-205192D01*
X-98262Y-203010D01*
X-102692Y-201666D01*
X-107298Y-201212D01*
D02*
G37*
G36*
X-172298D02*
X-176905Y-201666D01*
X-181335Y-203010D01*
X-185417Y-205192D01*
X-188996Y-208129D01*
X-191933Y-211707D01*
X-194115Y-215789D01*
X-195458Y-220219D01*
X-195912Y-224826D01*
X-195458Y-229433D01*
X-194115Y-233862D01*
X-191933Y-237945D01*
X-188996Y-241523D01*
X-185417Y-244460D01*
X-181335Y-246642D01*
X-176905Y-247986D01*
X-172298Y-248440D01*
X-167692Y-247986D01*
X-163262Y-246642D01*
X-159179Y-244460D01*
X-155601Y-241523D01*
X-152664Y-237945D01*
X-150482Y-233862D01*
X-149138Y-229433D01*
X-148685Y-224826D01*
X-149138Y-220219D01*
X-150482Y-215789D01*
X-152664Y-211707D01*
X-155601Y-208129D01*
X-159179Y-205192D01*
X-163262Y-203010D01*
X-167692Y-201666D01*
X-172298Y-201212D01*
D02*
G37*
G36*
X-247298D02*
X-251905Y-201666D01*
X-256335Y-203010D01*
X-260417Y-205192D01*
X-263996Y-208129D01*
X-266933Y-211707D01*
X-269115Y-215789D01*
X-270458Y-220219D01*
X-270912Y-224826D01*
X-270458Y-229433D01*
X-269115Y-233862D01*
X-266933Y-237945D01*
X-263996Y-241523D01*
X-260417Y-244460D01*
X-256335Y-246642D01*
X-251905Y-247986D01*
X-247298Y-248440D01*
X-242692Y-247986D01*
X-238262Y-246642D01*
X-234179Y-244460D01*
X-230601Y-241523D01*
X-227664Y-237945D01*
X-225482Y-233862D01*
X-224138Y-229433D01*
X-223685Y-224826D01*
X-224138Y-220219D01*
X-225482Y-215789D01*
X-227664Y-211707D01*
X-230601Y-208129D01*
X-234179Y-205192D01*
X-238262Y-203010D01*
X-242692Y-201666D01*
X-247298Y-201212D01*
D02*
G37*
G36*
X247702Y-251612D02*
X243095Y-252066D01*
X238665Y-253410D01*
X234583Y-255592D01*
X231004Y-258528D01*
X228476Y-261609D01*
X191928D01*
X189399Y-258528D01*
X185821Y-255592D01*
X181738Y-253410D01*
X177308Y-252066D01*
X172702Y-251612D01*
X168095Y-252066D01*
X163665Y-253410D01*
X159583Y-255592D01*
X156004Y-258528D01*
X153068Y-262107D01*
X150885Y-266189D01*
X149542Y-270619D01*
X149088Y-275226D01*
X149542Y-279833D01*
X150885Y-284263D01*
X153068Y-288345D01*
X156004Y-291923D01*
X159583Y-294860D01*
X163665Y-297042D01*
X168095Y-298386D01*
X172702Y-298840D01*
X177308Y-298386D01*
X181738Y-297042D01*
X185821Y-294860D01*
X189399Y-291923D01*
X191928Y-288842D01*
X228476D01*
X231004Y-291923D01*
X234583Y-294860D01*
X238665Y-297042D01*
X243095Y-298386D01*
X247702Y-298840D01*
X252308Y-298386D01*
X256738Y-297042D01*
X260821Y-294860D01*
X264399Y-291923D01*
X267336Y-288345D01*
X269518Y-284263D01*
X270862Y-279833D01*
X271315Y-275226D01*
X270862Y-270619D01*
X269518Y-266189D01*
X267336Y-262107D01*
X264399Y-258528D01*
X260821Y-255592D01*
X256738Y-253410D01*
X252308Y-252066D01*
X247702Y-251612D01*
D02*
G37*
G36*
X107702D02*
X103095Y-252066D01*
X98665Y-253410D01*
X94583Y-255592D01*
X91004Y-258528D01*
X88476Y-261609D01*
X51927D01*
X49399Y-258528D01*
X45821Y-255592D01*
X41738Y-253410D01*
X37308Y-252066D01*
X32702Y-251612D01*
X28095Y-252066D01*
X23665Y-253410D01*
X19583Y-255592D01*
X16004Y-258528D01*
X13068Y-262107D01*
X10885Y-266189D01*
X9542Y-270619D01*
X9088Y-275226D01*
X9542Y-279833D01*
X10885Y-284263D01*
X13068Y-288345D01*
X16004Y-291923D01*
X19583Y-294860D01*
X23665Y-297042D01*
X28095Y-298386D01*
X32702Y-298840D01*
X37308Y-298386D01*
X41738Y-297042D01*
X45821Y-294860D01*
X49399Y-291923D01*
X51927Y-288842D01*
X88476D01*
X91004Y-291923D01*
X94583Y-294860D01*
X98665Y-297042D01*
X103095Y-298386D01*
X107702Y-298840D01*
X112308Y-298386D01*
X116738Y-297042D01*
X120821Y-294860D01*
X124399Y-291923D01*
X127336Y-288345D01*
X129518Y-284263D01*
X130862Y-279833D01*
X131315Y-275226D01*
X130862Y-270619D01*
X129518Y-266189D01*
X127336Y-262107D01*
X124399Y-258528D01*
X120821Y-255592D01*
X116738Y-253410D01*
X112308Y-252066D01*
X107702Y-251612D01*
D02*
G37*
G36*
X-32298D02*
X-36905Y-252066D01*
X-41335Y-253410D01*
X-45417Y-255592D01*
X-48996Y-258528D01*
X-51524Y-261609D01*
X-88073D01*
X-90601Y-258528D01*
X-94179Y-255592D01*
X-98262Y-253410D01*
X-102692Y-252066D01*
X-107298Y-251612D01*
X-111905Y-252066D01*
X-116335Y-253410D01*
X-120417Y-255592D01*
X-123996Y-258528D01*
X-126932Y-262107D01*
X-129115Y-266189D01*
X-130458Y-270619D01*
X-130912Y-275226D01*
X-130458Y-279833D01*
X-129115Y-284263D01*
X-126932Y-288345D01*
X-123996Y-291923D01*
X-120417Y-294860D01*
X-116335Y-297042D01*
X-111905Y-298386D01*
X-107298Y-298840D01*
X-102692Y-298386D01*
X-98262Y-297042D01*
X-94179Y-294860D01*
X-90601Y-291923D01*
X-88073Y-288842D01*
X-51524D01*
X-48996Y-291923D01*
X-45417Y-294860D01*
X-41335Y-297042D01*
X-36905Y-298386D01*
X-32298Y-298840D01*
X-27692Y-298386D01*
X-23262Y-297042D01*
X-19179Y-294860D01*
X-15601Y-291923D01*
X-12664Y-288345D01*
X-10482Y-284263D01*
X-9138Y-279833D01*
X-8685Y-275226D01*
X-9138Y-270619D01*
X-10482Y-266189D01*
X-12664Y-262107D01*
X-15601Y-258528D01*
X-19179Y-255592D01*
X-23262Y-253410D01*
X-27692Y-252066D01*
X-32298Y-251612D01*
D02*
G37*
G36*
X-172298D02*
X-176905Y-252066D01*
X-181335Y-253410D01*
X-185417Y-255592D01*
X-188996Y-258528D01*
X-191524Y-261609D01*
X-228072D01*
X-230601Y-258528D01*
X-234179Y-255592D01*
X-238262Y-253410D01*
X-242692Y-252066D01*
X-247298Y-251612D01*
X-251905Y-252066D01*
X-256335Y-253410D01*
X-260417Y-255592D01*
X-263996Y-258528D01*
X-266933Y-262107D01*
X-269115Y-266189D01*
X-270458Y-270619D01*
X-270912Y-275226D01*
X-270458Y-279833D01*
X-269115Y-284263D01*
X-266933Y-288345D01*
X-263996Y-291923D01*
X-260417Y-294860D01*
X-256335Y-297042D01*
X-251905Y-298386D01*
X-247298Y-298840D01*
X-242692Y-298386D01*
X-238262Y-297042D01*
X-234179Y-294860D01*
X-230601Y-291923D01*
X-228072Y-288842D01*
X-191524D01*
X-188996Y-291923D01*
X-185417Y-294860D01*
X-181335Y-297042D01*
X-176905Y-298386D01*
X-172298Y-298840D01*
X-167692Y-298386D01*
X-163262Y-297042D01*
X-159179Y-294860D01*
X-155601Y-291923D01*
X-152664Y-288345D01*
X-150482Y-284263D01*
X-149138Y-279833D01*
X-148685Y-275226D01*
X-149138Y-270619D01*
X-150482Y-266189D01*
X-152664Y-262107D01*
X-155601Y-258528D01*
X-159179Y-255592D01*
X-163262Y-253410D01*
X-167692Y-252066D01*
X-172298Y-251612D01*
D02*
G37*
G36*
X-652993Y-184901D02*
X-655995Y-185296D01*
X-658793Y-186455D01*
X-661195Y-188298D01*
X-663039Y-190700D01*
X-664197Y-193498D01*
X-664593Y-196500D01*
X-664197Y-199502D01*
X-663332Y-201592D01*
Y-259111D01*
X-670754Y-266533D01*
X-673122Y-266845D01*
X-676406Y-268205D01*
X-679226Y-270369D01*
X-681390Y-273189D01*
X-682048Y-274777D01*
X-682548D01*
X-683205Y-273189D01*
X-685369Y-270369D01*
X-688189Y-268205D01*
X-691473Y-266845D01*
X-694997Y-266381D01*
X-698522Y-266845D01*
X-701806Y-268205D01*
X-704626Y-270369D01*
X-706790Y-273189D01*
X-707448Y-274777D01*
X-707947D01*
X-708605Y-273189D01*
X-710769Y-270369D01*
X-713589Y-268205D01*
X-716873Y-266845D01*
X-720397Y-266381D01*
X-723922Y-266845D01*
X-727206Y-268205D01*
X-730026Y-270369D01*
X-732190Y-273189D01*
X-733550Y-276473D01*
X-734014Y-279998D01*
X-733550Y-283522D01*
X-732190Y-286806D01*
X-730026Y-289626D01*
X-727206Y-291790D01*
X-723922Y-293150D01*
X-720397Y-293614D01*
X-716873Y-293150D01*
X-713589Y-291790D01*
X-710769Y-289626D01*
X-708605Y-286806D01*
X-707947Y-285218D01*
X-707448D01*
X-706790Y-286806D01*
X-704626Y-289626D01*
X-701806Y-291790D01*
X-698522Y-293150D01*
X-694997Y-293614D01*
X-691473Y-293150D01*
X-688189Y-291790D01*
X-685369Y-289626D01*
X-683205Y-286806D01*
X-682548Y-285218D01*
X-682048D01*
X-681390Y-286806D01*
X-679226Y-289626D01*
X-676406Y-291790D01*
X-673122Y-293150D01*
X-669597Y-293614D01*
X-666073Y-293150D01*
X-662789Y-291790D01*
X-659969Y-289626D01*
X-657805Y-286806D01*
X-656445Y-283522D01*
X-656133Y-281154D01*
X-645683Y-270704D01*
X-644040Y-268563D01*
X-643007Y-266069D01*
X-642655Y-263393D01*
Y-201592D01*
X-641789Y-199502D01*
X-641394Y-196500D01*
X-641789Y-193498D01*
X-642948Y-190700D01*
X-644791Y-188298D01*
X-647194Y-186455D01*
X-649991Y-185296D01*
X-652993Y-184901D01*
D02*
G37*
G36*
X-767497Y-254996D02*
X-807497D01*
Y-294996D01*
X-797592D01*
X-797413Y-295496D01*
X-799932Y-297563D01*
X-802119Y-300228D01*
X-803744Y-303268D01*
X-804744Y-306567D01*
X-804787Y-306998D01*
X-787498D01*
X-770208D01*
X-770251Y-306567D01*
X-771251Y-303268D01*
X-772876Y-300228D01*
X-775063Y-297563D01*
X-777582Y-295496D01*
X-777403Y-294996D01*
X-767497D01*
Y-254996D01*
D02*
G37*
G36*
X247702Y-302012D02*
X243095Y-302466D01*
X238665Y-303810D01*
X234583Y-305992D01*
X231004Y-308929D01*
X228476Y-312009D01*
X191928D01*
X189399Y-308929D01*
X185821Y-305992D01*
X181738Y-303810D01*
X177308Y-302466D01*
X172702Y-302012D01*
X168095Y-302466D01*
X163665Y-303810D01*
X159583Y-305992D01*
X156004Y-308929D01*
X153068Y-312507D01*
X150885Y-316589D01*
X149542Y-321019D01*
X149088Y-325626D01*
X149542Y-330233D01*
X150885Y-334663D01*
X153068Y-338745D01*
X156004Y-342323D01*
X159583Y-345260D01*
X163665Y-347442D01*
X168095Y-348786D01*
X172702Y-349240D01*
X177308Y-348786D01*
X181738Y-347442D01*
X185821Y-345260D01*
X189399Y-342323D01*
X191928Y-339242D01*
X228476D01*
X231004Y-342323D01*
X234085Y-344852D01*
Y-376658D01*
X220572Y-390171D01*
X218408Y-392991D01*
X217048Y-396275D01*
X216584Y-399800D01*
Y-424228D01*
X215990Y-424715D01*
X213490Y-427761D01*
X212951Y-428770D01*
X212451D01*
X211912Y-427761D01*
X209412Y-424715D01*
X206367Y-422216D01*
X202892Y-420359D01*
X199122Y-419215D01*
X195202Y-418829D01*
X191281Y-419215D01*
X187511Y-420359D01*
X184037Y-422216D01*
X180991Y-424715D01*
X180671Y-425105D01*
X180201Y-424937D01*
Y-418926D01*
X140200D01*
Y-458926D01*
X180201D01*
Y-452915D01*
X180671Y-452747D01*
X180991Y-453136D01*
X184037Y-455636D01*
X187511Y-457493D01*
X191281Y-458637D01*
X195202Y-459023D01*
X199122Y-458637D01*
X202892Y-457493D01*
X206367Y-455636D01*
X209412Y-453136D01*
X211912Y-450091D01*
X212451Y-449082D01*
X212951D01*
X213490Y-450091D01*
X215990Y-453136D01*
X219035Y-455636D01*
X222510Y-457493D01*
X226280Y-458637D01*
X230200Y-459023D01*
X234121Y-458637D01*
X237891Y-457493D01*
X241366Y-455636D01*
X244411Y-453136D01*
X246910Y-450091D01*
X248767Y-446617D01*
X249911Y-442847D01*
X250297Y-438926D01*
X249911Y-435005D01*
X248767Y-431235D01*
X246910Y-427761D01*
X244411Y-424715D01*
X243817Y-424228D01*
Y-405440D01*
X257330Y-391927D01*
X259494Y-389107D01*
X260057Y-387746D01*
X260854Y-385823D01*
X261318Y-382298D01*
Y-344852D01*
X264399Y-342323D01*
X267336Y-338745D01*
X269518Y-334663D01*
X270862Y-330233D01*
X271315Y-325626D01*
X270862Y-321019D01*
X269518Y-316589D01*
X267336Y-312507D01*
X264399Y-308929D01*
X260821Y-305992D01*
X256738Y-303810D01*
X252308Y-302466D01*
X247702Y-302012D01*
D02*
G37*
G36*
X107702D02*
X103095Y-302466D01*
X98665Y-303810D01*
X94583Y-305992D01*
X91004Y-308929D01*
X88476Y-312009D01*
X51927D01*
X49399Y-308929D01*
X45821Y-305992D01*
X41738Y-303810D01*
X37308Y-302466D01*
X32702Y-302012D01*
X28095Y-302466D01*
X23665Y-303810D01*
X19583Y-305992D01*
X16004Y-308929D01*
X13068Y-312507D01*
X10885Y-316589D01*
X9542Y-321019D01*
X9088Y-325626D01*
X9542Y-330233D01*
X10885Y-334663D01*
X13068Y-338745D01*
X16004Y-342323D01*
X19583Y-345260D01*
X23665Y-347442D01*
X28095Y-348786D01*
X32702Y-349240D01*
X37308Y-348786D01*
X41738Y-347442D01*
X45821Y-345260D01*
X49399Y-342323D01*
X51927Y-339242D01*
X88476D01*
X91004Y-342323D01*
X94085Y-344852D01*
Y-396658D01*
X90571Y-400173D01*
X88407Y-402993D01*
X87046Y-406277D01*
X86583Y-409801D01*
Y-424228D01*
X85989Y-424715D01*
X83489Y-427761D01*
X82950Y-428770D01*
X82450D01*
X81910Y-427761D01*
X79411Y-424715D01*
X76366Y-422216D01*
X72891Y-420359D01*
X69121Y-419215D01*
X65200Y-418829D01*
X61280Y-419215D01*
X57510Y-420359D01*
X54035Y-422216D01*
X50990Y-424715D01*
X50670Y-425105D01*
X50199Y-424937D01*
Y-418926D01*
X10199D01*
Y-458926D01*
X50199D01*
Y-452915D01*
X50670Y-452747D01*
X50990Y-453136D01*
X54035Y-455636D01*
X57510Y-457493D01*
X61280Y-458637D01*
X65200Y-459023D01*
X69121Y-458637D01*
X72891Y-457493D01*
X76366Y-455636D01*
X79411Y-453136D01*
X81910Y-450091D01*
X82450Y-449082D01*
X82950D01*
X83489Y-450091D01*
X85989Y-453136D01*
X89034Y-455636D01*
X92508Y-457493D01*
X96278Y-458637D01*
X100199Y-459023D01*
X104120Y-458637D01*
X107890Y-457493D01*
X111364Y-455636D01*
X114410Y-453136D01*
X116909Y-450091D01*
X118766Y-446617D01*
X119910Y-442847D01*
X120296Y-438926D01*
X119910Y-435005D01*
X118766Y-431235D01*
X116909Y-427761D01*
X114410Y-424715D01*
X113815Y-424228D01*
Y-415441D01*
X117330Y-411927D01*
X119494Y-409107D01*
X120854Y-405823D01*
X121318Y-402298D01*
Y-344852D01*
X124399Y-342323D01*
X127336Y-338745D01*
X129518Y-334663D01*
X130862Y-330233D01*
X131315Y-325626D01*
X130862Y-321019D01*
X129518Y-316589D01*
X127336Y-312507D01*
X124399Y-308929D01*
X120821Y-305992D01*
X116738Y-303810D01*
X112308Y-302466D01*
X107702Y-302012D01*
D02*
G37*
G36*
X-32298D02*
X-36905Y-302466D01*
X-41335Y-303810D01*
X-45417Y-305992D01*
X-48996Y-308929D01*
X-51524Y-312009D01*
X-88073D01*
X-90601Y-308929D01*
X-94179Y-305992D01*
X-98262Y-303810D01*
X-102692Y-302466D01*
X-107298Y-302012D01*
X-111905Y-302466D01*
X-116335Y-303810D01*
X-120417Y-305992D01*
X-123996Y-308929D01*
X-126932Y-312507D01*
X-129115Y-316589D01*
X-130458Y-321019D01*
X-130912Y-325626D01*
X-130458Y-330233D01*
X-129115Y-334663D01*
X-126932Y-338745D01*
X-123996Y-342323D01*
X-120417Y-345260D01*
X-116335Y-347442D01*
X-111905Y-348786D01*
X-107298Y-349240D01*
X-102692Y-348786D01*
X-98262Y-347442D01*
X-94179Y-345260D01*
X-90601Y-342323D01*
X-88073Y-339242D01*
X-51524D01*
X-48996Y-342323D01*
X-45915Y-344852D01*
Y-392479D01*
X-45451Y-396003D01*
X-44091Y-399287D01*
X-43416Y-400166D01*
Y-424228D01*
X-44010Y-424715D01*
X-46510Y-427761D01*
X-47049Y-428770D01*
X-47549D01*
X-48088Y-427761D01*
X-50588Y-424715D01*
X-53633Y-422216D01*
X-57108Y-420359D01*
X-60878Y-419215D01*
X-64798Y-418829D01*
X-68719Y-419215D01*
X-72489Y-420359D01*
X-75964Y-422216D01*
X-79009Y-424715D01*
X-79329Y-425105D01*
X-79799Y-424937D01*
Y-418926D01*
X-119800D01*
Y-458926D01*
X-79799D01*
Y-452915D01*
X-79329Y-452747D01*
X-79009Y-453136D01*
X-75964Y-455636D01*
X-72489Y-457493D01*
X-68719Y-458637D01*
X-64798Y-459023D01*
X-60878Y-458637D01*
X-57108Y-457493D01*
X-53633Y-455636D01*
X-50588Y-453136D01*
X-48088Y-450091D01*
X-47549Y-449082D01*
X-47049D01*
X-46510Y-450091D01*
X-44010Y-453136D01*
X-40965Y-455636D01*
X-37490Y-457493D01*
X-33720Y-458637D01*
X-29800Y-459023D01*
X-25879Y-458637D01*
X-22109Y-457493D01*
X-18635Y-455636D01*
X-15589Y-453136D01*
X-13090Y-450091D01*
X-11233Y-446617D01*
X-10089Y-442847D01*
X-9703Y-438926D01*
X-10089Y-435005D01*
X-11233Y-431235D01*
X-13090Y-427761D01*
X-15589Y-424715D01*
X-16183Y-424228D01*
Y-394978D01*
X-16647Y-391454D01*
X-18008Y-388170D01*
X-18682Y-387291D01*
Y-344852D01*
X-15601Y-342323D01*
X-12664Y-338745D01*
X-10482Y-334663D01*
X-9138Y-330233D01*
X-8685Y-325626D01*
X-9138Y-321019D01*
X-10482Y-316589D01*
X-12664Y-312507D01*
X-15601Y-308929D01*
X-19179Y-305992D01*
X-23262Y-303810D01*
X-27692Y-302466D01*
X-32298Y-302012D01*
D02*
G37*
G36*
X-172298D02*
X-176905Y-302466D01*
X-181335Y-303810D01*
X-185417Y-305992D01*
X-188996Y-308929D01*
X-191524Y-312009D01*
X-228072D01*
X-230601Y-308929D01*
X-234179Y-305992D01*
X-238262Y-303810D01*
X-242692Y-302466D01*
X-247298Y-302012D01*
X-251905Y-302466D01*
X-256335Y-303810D01*
X-260417Y-305992D01*
X-263996Y-308929D01*
X-266933Y-312507D01*
X-269115Y-316589D01*
X-270458Y-321019D01*
X-270912Y-325626D01*
X-270458Y-330233D01*
X-269115Y-334663D01*
X-266933Y-338745D01*
X-263996Y-342323D01*
X-260417Y-345260D01*
X-256335Y-347442D01*
X-251905Y-348786D01*
X-247298Y-349240D01*
X-242692Y-348786D01*
X-238262Y-347442D01*
X-234179Y-345260D01*
X-230601Y-342323D01*
X-228072Y-339242D01*
X-191524D01*
X-188996Y-342323D01*
X-185915Y-344852D01*
Y-378426D01*
X-185451Y-381950D01*
X-184091Y-385234D01*
X-181927Y-388054D01*
X-173417Y-396563D01*
Y-424228D01*
X-174011Y-424715D01*
X-176511Y-427761D01*
X-177050Y-428770D01*
X-177550D01*
X-178090Y-427761D01*
X-180589Y-424715D01*
X-183634Y-422216D01*
X-187109Y-420359D01*
X-190879Y-419215D01*
X-194800Y-418829D01*
X-198720Y-419215D01*
X-202490Y-420359D01*
X-205965Y-422216D01*
X-209010Y-424715D01*
X-209330Y-425105D01*
X-209801Y-424937D01*
Y-418926D01*
X-249801D01*
Y-458926D01*
X-209801D01*
Y-452915D01*
X-209330Y-452747D01*
X-209010Y-453136D01*
X-205965Y-455636D01*
X-202490Y-457493D01*
X-198720Y-458637D01*
X-194800Y-459023D01*
X-190879Y-458637D01*
X-187109Y-457493D01*
X-183634Y-455636D01*
X-180589Y-453136D01*
X-178090Y-450091D01*
X-177550Y-449082D01*
X-177050D01*
X-176511Y-450091D01*
X-174011Y-453136D01*
X-170966Y-455636D01*
X-167492Y-457493D01*
X-163722Y-458637D01*
X-159801Y-459023D01*
X-155880Y-458637D01*
X-152110Y-457493D01*
X-148636Y-455636D01*
X-145590Y-453136D01*
X-143091Y-450091D01*
X-141234Y-446617D01*
X-140090Y-442847D01*
X-139704Y-438926D01*
X-140090Y-435005D01*
X-141234Y-431235D01*
X-143091Y-427761D01*
X-145590Y-424715D01*
X-146185Y-424228D01*
Y-390923D01*
X-146648Y-387399D01*
X-147445Y-385475D01*
X-148009Y-384115D01*
X-150173Y-381295D01*
X-158682Y-372786D01*
Y-344852D01*
X-155601Y-342323D01*
X-152664Y-338745D01*
X-150482Y-334663D01*
X-149138Y-330233D01*
X-148685Y-325626D01*
X-149138Y-321019D01*
X-150482Y-316589D01*
X-152664Y-312507D01*
X-155601Y-308929D01*
X-159179Y-305992D01*
X-163262Y-303810D01*
X-167692Y-302466D01*
X-172298Y-302012D01*
D02*
G37*
G36*
X381342Y-320500D02*
X371121D01*
Y-330722D01*
X371645Y-330653D01*
X374929Y-329292D01*
X377749Y-327128D01*
X379913Y-324308D01*
X381273Y-321024D01*
X381342Y-320500D01*
D02*
G37*
G36*
X-252002Y373118D02*
X-255526Y372654D01*
X-258810Y371294D01*
X-261630Y369130D01*
X-263794Y366310D01*
X-265154Y363026D01*
X-265618Y359502D01*
X-265154Y355977D01*
X-263794Y352693D01*
X-261630Y349873D01*
X-258810Y347709D01*
X-255618Y346387D01*
Y282002D01*
X-255154Y278477D01*
X-253794Y275193D01*
X-251630Y272373D01*
X-209628Y230372D01*
X-206808Y228208D01*
X-205448Y227644D01*
X-203524Y226847D01*
X-201653Y226601D01*
X-200000Y226383D01*
X-11116D01*
Y190000D01*
X-10653Y186476D01*
X-9292Y183192D01*
X-7128Y180372D01*
X-4308Y178208D01*
X-1024Y176847D01*
X2500Y176383D01*
X6024Y176847D01*
X9308Y178208D01*
X12128Y180372D01*
X14292Y183192D01*
X15653Y186476D01*
X16116Y190000D01*
Y226383D01*
X82500D01*
X86024Y226847D01*
X89308Y228208D01*
X92128Y230372D01*
X140240Y278484D01*
X331149D01*
X331282Y277983D01*
X329353Y275632D01*
X327867Y272853D01*
X326952Y269837D01*
X326643Y266700D01*
X326952Y263563D01*
X327867Y260547D01*
X329353Y257768D01*
X331352Y255331D01*
X332670Y254250D01*
Y253750D01*
X331352Y252668D01*
X329353Y250232D01*
X327867Y247453D01*
X326952Y244436D01*
X326643Y241300D01*
X326952Y238164D01*
X327867Y235147D01*
X329353Y232368D01*
X331352Y229932D01*
X332670Y228850D01*
Y228350D01*
X331352Y227269D01*
X329353Y224832D01*
X327867Y222053D01*
X326952Y219037D01*
X326643Y215900D01*
X326952Y212764D01*
X327867Y209747D01*
X329353Y206968D01*
X331352Y204531D01*
X332670Y203450D01*
Y202950D01*
X331352Y201868D01*
X329353Y199432D01*
X327867Y196653D01*
X326952Y193636D01*
X326643Y190500D01*
X326952Y187363D01*
X327867Y184347D01*
X329353Y181568D01*
X331352Y179132D01*
X332670Y178050D01*
Y177550D01*
X331352Y176469D01*
X329353Y174032D01*
X327867Y171253D01*
X326952Y168237D01*
X326643Y165100D01*
X326952Y161964D01*
X327867Y158947D01*
X329353Y156168D01*
X331352Y153731D01*
X332670Y152650D01*
Y152150D01*
X331352Y151068D01*
X329353Y148632D01*
X327867Y145853D01*
X326952Y142837D01*
X326643Y139700D01*
X326952Y136564D01*
X327867Y133547D01*
X329353Y130768D01*
X331352Y128331D01*
X332670Y127250D01*
Y126750D01*
X331352Y125668D01*
X329353Y123232D01*
X327867Y120453D01*
X326952Y117437D01*
X326643Y114300D01*
X326952Y111164D01*
X327867Y108147D01*
X329353Y105368D01*
X331352Y102931D01*
X332670Y101850D01*
Y101350D01*
X331352Y100268D01*
X329353Y97832D01*
X327867Y95053D01*
X326952Y92037D01*
X326643Y88900D01*
X326952Y85764D01*
X327867Y82747D01*
X329353Y79968D01*
X331352Y77531D01*
X332670Y76450D01*
Y75950D01*
X331352Y74868D01*
X329353Y72432D01*
X327867Y69653D01*
X326952Y66637D01*
X326643Y63500D01*
X326952Y60363D01*
X327867Y57347D01*
X329353Y54568D01*
X331352Y52132D01*
X332670Y51050D01*
Y50550D01*
X331352Y49468D01*
X329353Y47032D01*
X327867Y44253D01*
X326952Y41237D01*
X326643Y38100D01*
X326952Y34964D01*
X327867Y31947D01*
X329353Y29168D01*
X331352Y26732D01*
X332670Y25650D01*
Y25150D01*
X331352Y24069D01*
X329353Y21632D01*
X327867Y18853D01*
X326952Y15836D01*
X326643Y12700D01*
X326952Y9564D01*
X327867Y6547D01*
X329353Y3768D01*
X331352Y1331D01*
X332670Y250D01*
Y-250D01*
X331352Y-1331D01*
X329353Y-3768D01*
X327867Y-6547D01*
X326952Y-9564D01*
X326643Y-12700D01*
X326952Y-15836D01*
X327867Y-18853D01*
X329353Y-21632D01*
X331352Y-24069D01*
X332670Y-25150D01*
Y-25650D01*
X331352Y-26732D01*
X329353Y-29168D01*
X327867Y-31947D01*
X326952Y-34964D01*
X326643Y-38100D01*
X326952Y-41237D01*
X327867Y-44253D01*
X329353Y-47032D01*
X331352Y-49468D01*
X332670Y-50550D01*
Y-51050D01*
X331352Y-52132D01*
X329353Y-54568D01*
X327867Y-57347D01*
X326952Y-60363D01*
X326643Y-63500D01*
X326952Y-66637D01*
X327867Y-69653D01*
X329353Y-72432D01*
X331352Y-74868D01*
X332670Y-75950D01*
Y-76450D01*
X331352Y-77531D01*
X329353Y-79968D01*
X327867Y-82747D01*
X326952Y-85764D01*
X326643Y-88900D01*
X326952Y-92037D01*
X327867Y-95053D01*
X329353Y-97832D01*
X331352Y-100268D01*
X332670Y-101350D01*
Y-101850D01*
X331352Y-102931D01*
X329353Y-105368D01*
X327867Y-108147D01*
X326952Y-111164D01*
X326643Y-114300D01*
X326952Y-117437D01*
X327867Y-120453D01*
X329353Y-123232D01*
X331352Y-125668D01*
X332670Y-126750D01*
Y-127250D01*
X331352Y-128331D01*
X329353Y-130768D01*
X327867Y-133547D01*
X326952Y-136564D01*
X326643Y-139700D01*
X326952Y-142837D01*
X327867Y-145853D01*
X329353Y-148632D01*
X331352Y-151068D01*
X332670Y-152150D01*
Y-152650D01*
X331352Y-153731D01*
X329353Y-156168D01*
X327867Y-158947D01*
X326952Y-161964D01*
X326643Y-165100D01*
X326952Y-168237D01*
X327867Y-171253D01*
X329353Y-174032D01*
X331352Y-176469D01*
X332670Y-177550D01*
Y-178050D01*
X331352Y-179132D01*
X329353Y-181568D01*
X327867Y-184347D01*
X326952Y-187363D01*
X326643Y-190500D01*
X326952Y-193636D01*
X327867Y-196653D01*
X329353Y-199432D01*
X331352Y-201868D01*
X332670Y-202950D01*
Y-203450D01*
X331352Y-204531D01*
X329353Y-206968D01*
X327867Y-209747D01*
X326952Y-212764D01*
X326643Y-215900D01*
X326952Y-219037D01*
X327867Y-222053D01*
X329353Y-224832D01*
X331352Y-227269D01*
X332670Y-228350D01*
Y-228850D01*
X331352Y-229932D01*
X329353Y-232368D01*
X327867Y-235147D01*
X326952Y-238164D01*
X326643Y-241300D01*
X326952Y-244436D01*
X327867Y-247453D01*
X329353Y-250232D01*
X331352Y-252668D01*
X332670Y-253750D01*
Y-254250D01*
X331352Y-255331D01*
X329353Y-257768D01*
X327867Y-260547D01*
X326952Y-263563D01*
X326643Y-266700D01*
X326952Y-269837D01*
X327867Y-272853D01*
X329353Y-275632D01*
X331352Y-278069D01*
X332670Y-279150D01*
Y-279650D01*
X331352Y-280732D01*
X329353Y-283168D01*
X327867Y-285947D01*
X326952Y-288964D01*
X326643Y-292100D01*
X326952Y-295236D01*
X327867Y-298253D01*
X329353Y-301032D01*
X331352Y-303468D01*
X332670Y-304550D01*
Y-305050D01*
X331352Y-306131D01*
X329353Y-308568D01*
X327867Y-311347D01*
X326952Y-314363D01*
X326643Y-317500D01*
X326952Y-320636D01*
X327867Y-323653D01*
X329353Y-326432D01*
X331352Y-328868D01*
X333788Y-330868D01*
X336568Y-332354D01*
X339584Y-333269D01*
X342721Y-333577D01*
X345857Y-333269D01*
X348873Y-332354D01*
X351653Y-330868D01*
X354089Y-328868D01*
X356088Y-326432D01*
X356639Y-325403D01*
X357137Y-325362D01*
X358492Y-327128D01*
X361312Y-329292D01*
X364596Y-330653D01*
X365121Y-330722D01*
Y-317500D01*
X368121D01*
Y-314500D01*
X381342D01*
X381273Y-313976D01*
X379913Y-310692D01*
X377749Y-307872D01*
X375983Y-306516D01*
X376023Y-306018D01*
X377053Y-305468D01*
X379489Y-303468D01*
X381488Y-301032D01*
X382974Y-298253D01*
X383889Y-295236D01*
X384198Y-292100D01*
X383889Y-288964D01*
X382974Y-285947D01*
X381488Y-283168D01*
X379489Y-280732D01*
X378171Y-279650D01*
Y-279150D01*
X379489Y-278069D01*
X381488Y-275632D01*
X382974Y-272853D01*
X383889Y-269837D01*
X384198Y-266700D01*
X383889Y-263563D01*
X382974Y-260547D01*
X381488Y-257768D01*
X379489Y-255331D01*
X378171Y-254250D01*
Y-253750D01*
X379489Y-252668D01*
X381488Y-250232D01*
X382974Y-247453D01*
X383889Y-244436D01*
X384198Y-241300D01*
X383889Y-238164D01*
X382974Y-235147D01*
X381488Y-232368D01*
X379489Y-229932D01*
X378171Y-228850D01*
Y-228350D01*
X379489Y-227269D01*
X381488Y-224832D01*
X382974Y-222053D01*
X383889Y-219037D01*
X384198Y-215900D01*
X383889Y-212764D01*
X382974Y-209747D01*
X381488Y-206968D01*
X379489Y-204531D01*
X378171Y-203450D01*
Y-202950D01*
X379489Y-201868D01*
X381488Y-199432D01*
X382974Y-196653D01*
X383889Y-193636D01*
X384198Y-190500D01*
X383889Y-187363D01*
X382974Y-184347D01*
X381488Y-181568D01*
X379489Y-179132D01*
X378171Y-178050D01*
Y-177550D01*
X379489Y-176469D01*
X381488Y-174032D01*
X382974Y-171253D01*
X383889Y-168237D01*
X384198Y-165100D01*
X383889Y-161964D01*
X382974Y-158947D01*
X381488Y-156168D01*
X379489Y-153731D01*
X378171Y-152650D01*
Y-152150D01*
X379489Y-151068D01*
X381488Y-148632D01*
X382974Y-145853D01*
X383889Y-142837D01*
X384198Y-139700D01*
X383889Y-136564D01*
X382974Y-133547D01*
X381488Y-130768D01*
X379489Y-128331D01*
X378171Y-127250D01*
Y-126750D01*
X379489Y-125668D01*
X381488Y-123232D01*
X382974Y-120453D01*
X383889Y-117437D01*
X384198Y-114300D01*
X383889Y-111164D01*
X382974Y-108147D01*
X381488Y-105368D01*
X379489Y-102931D01*
X378171Y-101850D01*
Y-101350D01*
X379489Y-100268D01*
X381488Y-97832D01*
X382974Y-95053D01*
X383889Y-92037D01*
X384198Y-88900D01*
X383889Y-85764D01*
X382974Y-82747D01*
X381488Y-79968D01*
X379489Y-77531D01*
X378171Y-76450D01*
Y-75950D01*
X379489Y-74868D01*
X381488Y-72432D01*
X382974Y-69653D01*
X383889Y-66637D01*
X384198Y-63500D01*
X383889Y-60363D01*
X382974Y-57347D01*
X381488Y-54568D01*
X379489Y-52132D01*
X378171Y-51050D01*
Y-50550D01*
X379489Y-49468D01*
X381488Y-47032D01*
X382974Y-44253D01*
X383889Y-41237D01*
X384198Y-38100D01*
X383889Y-34964D01*
X382974Y-31947D01*
X381488Y-29168D01*
X379489Y-26732D01*
X378171Y-25650D01*
Y-25150D01*
X379489Y-24069D01*
X381488Y-21632D01*
X382974Y-18853D01*
X383889Y-15836D01*
X384198Y-12700D01*
X383889Y-9564D01*
X382974Y-6547D01*
X381488Y-3768D01*
X379489Y-1331D01*
X378171Y-250D01*
Y250D01*
X379489Y1331D01*
X381488Y3768D01*
X382974Y6547D01*
X383889Y9564D01*
X384198Y12700D01*
X383889Y15836D01*
X382974Y18853D01*
X381488Y21632D01*
X379489Y24069D01*
X378171Y25150D01*
Y25650D01*
X379489Y26732D01*
X381488Y29168D01*
X382974Y31947D01*
X383889Y34964D01*
X384198Y38100D01*
X383889Y41237D01*
X382974Y44253D01*
X381488Y47032D01*
X379489Y49468D01*
X378171Y50550D01*
Y51050D01*
X379489Y52132D01*
X381488Y54568D01*
X382974Y57347D01*
X383889Y60363D01*
X384198Y63500D01*
X383889Y66637D01*
X382974Y69653D01*
X381488Y72432D01*
X379489Y74868D01*
X378171Y75950D01*
Y76450D01*
X379489Y77531D01*
X381488Y79968D01*
X382974Y82747D01*
X383889Y85764D01*
X384198Y88900D01*
X383889Y92037D01*
X382974Y95053D01*
X381488Y97832D01*
X379489Y100268D01*
X378171Y101350D01*
Y101850D01*
X379489Y102931D01*
X381488Y105368D01*
X382974Y108147D01*
X383889Y111164D01*
X384198Y114300D01*
X383889Y117437D01*
X382974Y120453D01*
X381488Y123232D01*
X379489Y125668D01*
X378171Y126750D01*
Y127250D01*
X379489Y128331D01*
X381488Y130768D01*
X382974Y133547D01*
X383889Y136564D01*
X384198Y139700D01*
X383889Y142837D01*
X382974Y145853D01*
X381488Y148632D01*
X379489Y151068D01*
X378171Y152150D01*
Y152650D01*
X379489Y153731D01*
X381488Y156168D01*
X382974Y158947D01*
X383889Y161964D01*
X384198Y165100D01*
X383889Y168237D01*
X382974Y171253D01*
X381488Y174032D01*
X379489Y176469D01*
X378171Y177550D01*
Y178050D01*
X379489Y179132D01*
X381488Y181568D01*
X382974Y184347D01*
X383889Y187363D01*
X384198Y190500D01*
X383889Y193636D01*
X382974Y196653D01*
X381488Y199432D01*
X379489Y201868D01*
X378171Y202950D01*
Y203450D01*
X379489Y204531D01*
X381488Y206968D01*
X382974Y209747D01*
X383889Y212764D01*
X384198Y215900D01*
X383889Y219037D01*
X382974Y222053D01*
X381488Y224832D01*
X379489Y227269D01*
X378171Y228350D01*
Y228850D01*
X379489Y229932D01*
X381488Y232368D01*
X382974Y235147D01*
X383889Y238164D01*
X384198Y241300D01*
X383889Y244436D01*
X382974Y247453D01*
X381488Y250232D01*
X379489Y252668D01*
X378171Y253750D01*
Y254250D01*
X379489Y255331D01*
X381488Y257768D01*
X382974Y260547D01*
X383889Y263563D01*
X384198Y266700D01*
X383889Y269837D01*
X382974Y272853D01*
X381488Y275632D01*
X379489Y278069D01*
X378171Y279150D01*
Y279650D01*
X379489Y280732D01*
X381488Y283168D01*
X382974Y285947D01*
X383889Y288964D01*
X384198Y292100D01*
X383889Y295236D01*
X382974Y298253D01*
X381488Y301032D01*
X379489Y303468D01*
X379415Y303529D01*
X379583Y304000D01*
X381620D01*
Y314500D01*
X368121D01*
Y317500D01*
X365121D01*
Y331000D01*
X354621D01*
Y328963D01*
X354150Y328794D01*
X354089Y328868D01*
X351653Y330868D01*
X348873Y332354D01*
X345857Y333269D01*
X342721Y333577D01*
X339584Y333269D01*
X336568Y332354D01*
X333788Y330868D01*
X331352Y328868D01*
X329353Y326432D01*
X327867Y323653D01*
X326952Y320636D01*
X326643Y317500D01*
X326952Y314363D01*
X327867Y311347D01*
X329353Y308568D01*
X331282Y306217D01*
X331149Y305716D01*
X134600D01*
X131076Y305252D01*
X127792Y303892D01*
X124972Y301728D01*
X76860Y253617D01*
X-194360D01*
X-228385Y287642D01*
Y359502D01*
X-228849Y363026D01*
X-230209Y366310D01*
X-232373Y369130D01*
X-235193Y371294D01*
X-238477Y372654D01*
X-242002Y373118D01*
X-252002D01*
D02*
G37*
G36*
X-669597Y-328380D02*
X-673122Y-328844D01*
X-676406Y-330204D01*
X-679226Y-332368D01*
X-681390Y-335188D01*
X-682048Y-336776D01*
X-682548D01*
X-683205Y-335188D01*
X-685369Y-332368D01*
X-688189Y-330204D01*
X-691473Y-328844D01*
X-694997Y-328380D01*
X-698522Y-328844D01*
X-701806Y-330204D01*
X-704626Y-332368D01*
X-706790Y-335188D01*
X-707448Y-336776D01*
X-707947D01*
X-708605Y-335188D01*
X-710769Y-332368D01*
X-713589Y-330204D01*
X-716873Y-328844D01*
X-720397Y-328380D01*
X-723922Y-328844D01*
X-727206Y-330204D01*
X-730026Y-332368D01*
X-732190Y-335188D01*
X-733550Y-338472D01*
X-734014Y-341996D01*
X-733550Y-345521D01*
X-732190Y-348805D01*
X-730026Y-351625D01*
X-727206Y-353788D01*
X-723922Y-355149D01*
X-720397Y-355613D01*
X-716873Y-355149D01*
X-713589Y-353788D01*
X-710769Y-351625D01*
X-708605Y-348805D01*
X-707947Y-347216D01*
X-707448D01*
X-706790Y-348805D01*
X-704626Y-351625D01*
X-701806Y-353788D01*
X-698522Y-355149D01*
X-694997Y-355613D01*
X-691473Y-355149D01*
X-688189Y-353788D01*
X-685369Y-351625D01*
X-683205Y-348805D01*
X-682548Y-347216D01*
X-682048D01*
X-681390Y-348805D01*
X-679226Y-351625D01*
X-676406Y-353788D01*
X-673122Y-355149D01*
X-669597Y-355613D01*
X-666073Y-355149D01*
X-662789Y-353788D01*
X-659969Y-351625D01*
X-657805Y-348805D01*
X-656445Y-345521D01*
X-655981Y-341996D01*
X-656445Y-338472D01*
X-657805Y-335188D01*
X-659969Y-332368D01*
X-662789Y-330204D01*
X-666073Y-328844D01*
X-669597Y-328380D01*
D02*
G37*
G36*
X-770208Y-312998D02*
X-787498D01*
X-804787D01*
X-804744Y-313428D01*
X-803744Y-316727D01*
X-802119Y-319767D01*
X-799932Y-322432D01*
X-797267Y-324619D01*
X-794930Y-325868D01*
X-794979Y-326366D01*
X-795188Y-326429D01*
X-798663Y-328286D01*
X-801708Y-330786D01*
X-804207Y-333831D01*
X-806065Y-337305D01*
X-807208Y-341076D01*
X-807594Y-344996D01*
X-807208Y-348917D01*
X-806065Y-352687D01*
X-804207Y-356161D01*
X-801708Y-359207D01*
X-798663Y-361706D01*
X-795188Y-363563D01*
X-791418Y-364707D01*
X-787497Y-365093D01*
X-783577Y-364707D01*
X-779807Y-363563D01*
X-776332Y-361706D01*
X-773287Y-359207D01*
X-770788Y-356161D01*
X-768931Y-352687D01*
X-767787Y-348917D01*
X-767401Y-344996D01*
X-767787Y-341076D01*
X-768931Y-337305D01*
X-770788Y-333831D01*
X-773287Y-330786D01*
X-776332Y-328286D01*
X-779807Y-326429D01*
X-780016Y-326366D01*
X-780065Y-325868D01*
X-777728Y-324619D01*
X-775063Y-322432D01*
X-772876Y-319767D01*
X-771251Y-316727D01*
X-770251Y-313428D01*
X-770208Y-312998D01*
D02*
G37*
%LPD*%
D10*
X-321863Y-139602D02*
X-320000Y-141465D01*
X-343076Y-139602D02*
X-321863D01*
X-320000Y-212500D02*
Y-141465D01*
X-323302Y-215802D02*
X-320000Y-212500D01*
X-343076Y-215802D02*
X-323302D01*
X-532500Y-152499D02*
Y-123588D01*
X-550126Y-122499D02*
X-531411D01*
X-567752Y-152499D02*
Y-123812D01*
Y-289999D02*
Y-257499D01*
X-577500Y260598D02*
X-563098D01*
X-642497Y117499D02*
X-610001D01*
X-670748Y33305D02*
Y76806D01*
X368121Y317500D02*
X390000D01*
X402500Y305000D01*
Y47500D02*
Y305000D01*
Y47500D02*
X425003Y24997D01*
X440000D01*
X215698Y355005D02*
Y393494D01*
Y335698D02*
Y355005D01*
X359995D01*
X368121Y346879D01*
Y317500D02*
Y346879D01*
X-165302Y335302D02*
X-147598Y317598D01*
X-165302Y335302D02*
Y371271D01*
X-147598Y317598D02*
X-59902D01*
X-165302Y371271D02*
Y393494D01*
X-266902Y371691D02*
Y393494D01*
X-165722Y371691D02*
X-165302Y371271D01*
X-266902Y371691D02*
X-165722D01*
X-343076Y317598D02*
X-308645D01*
X-266902Y359341D02*
Y371691D01*
X-308645Y317598D02*
X-266902Y359341D01*
X29162Y317598D02*
X50098D01*
X-59902D02*
X29162D01*
X50098D02*
X197598D01*
X215698Y335698D01*
Y393494D02*
Y418894D01*
X88698Y356198D02*
Y393494D01*
X50098Y317598D02*
X88698Y356198D01*
Y393494D02*
Y418894D01*
X-38302Y339198D02*
Y393494D01*
X-59902Y317598D02*
X-38302Y339198D01*
Y393494D02*
Y418894D01*
X-165302Y393494D02*
Y418894D01*
X-343076Y317598D02*
Y353076D01*
X-355000Y365000D02*
X-343076Y353076D01*
X-545000Y365000D02*
X-355000D01*
X-550126Y-75126D02*
X-517500Y-42500D01*
X-550126Y-107499D02*
Y-75126D01*
X-407252Y-111751D02*
Y-95250D01*
Y-128252D02*
Y-111751D01*
X-409002Y-110000D02*
X-407252Y-111751D01*
X-422500Y-110000D02*
X-409002D01*
X-407252Y-95250D02*
Y-85250D01*
Y-128252D02*
X-395253Y-140250D01*
X-532248Y-289999D02*
X-517248D01*
X-567752D02*
X-532248D01*
Y-304883D02*
Y-289999D01*
X-532248Y-272738D02*
Y-257499D01*
X-532248Y-304883D02*
X-532132Y-304999D01*
X-532248Y-289999D02*
Y-272499D01*
X-582752Y-289999D02*
X-567752D01*
Y-304224D02*
Y-289999D01*
X-568527Y-304999D02*
X-567752Y-304224D01*
X-517248Y-289999D02*
X-517248Y-289999D01*
X-531411Y-122499D02*
X-517500D01*
X-532500Y-123588D02*
X-531411Y-122499D01*
X-566439D02*
X-550126D01*
X-582752D02*
X-566439D01*
X-567752Y-123812D02*
X-566439Y-122499D01*
X-550126Y-107499D02*
X-517500D01*
X-582752D02*
X-550126D01*
Y-122499D02*
Y-107499D01*
X-652501D02*
X-582752D01*
X-670748Y-89253D02*
X-652501Y-107499D01*
X-670748Y-89253D02*
Y-43305D01*
X-664248Y-36805D01*
Y-16695D01*
X-543750Y278750D02*
X-537750Y272750D01*
X-543750Y278750D02*
Y319998D01*
X-540000Y217500D02*
Y218447D01*
X-537750Y220697D01*
Y272750D01*
X-577500Y216868D02*
Y260598D01*
Y201807D02*
Y216868D01*
X-576868Y217500D01*
X-540000D01*
X-577500Y118963D02*
Y201807D01*
X-577444Y201750D01*
X-571750D01*
X-577500Y260598D02*
Y317500D01*
X-563098Y260598D02*
X-558750Y256250D01*
X-578965Y117499D02*
X-577500Y118963D01*
X-610001Y117499D02*
X-578965D01*
X-495000Y280000D02*
Y287500D01*
X-487500Y300000D02*
Y310000D01*
Y295000D02*
Y300000D01*
X-495000Y287500D02*
X-487500Y295000D01*
X-533752Y310000D02*
X-487500D01*
X-543750Y319998D02*
X-533752Y310000D01*
X-544466Y319998D02*
X-543750D01*
X-546964Y317500D02*
X-544466Y319998D01*
X-577500Y317500D02*
X-546964D01*
X-592500Y318750D02*
X-591553D01*
X-590303Y317500D01*
X-577500D01*
X-610748Y300502D02*
X-592500Y318750D01*
X-679498Y300502D02*
X-610748D01*
X-563071Y390000D02*
X-555000D01*
X-611786D02*
X-563071D01*
X-562500Y389429D01*
Y350000D02*
Y389429D01*
X-545000Y365000D02*
Y380000D01*
X-555000Y390000D02*
X-545000Y380000D01*
X-614286Y387500D02*
X-611786Y390000D01*
X-615000Y387500D02*
X-614286D01*
X-615000Y386786D02*
Y387500D01*
X-617500Y384286D02*
X-615000Y386786D01*
X-617500Y372500D02*
Y384286D01*
X-697284Y375498D02*
X-694286Y372500D01*
X-697500Y375498D02*
X-697284D01*
X-694286Y372500D02*
X-617500D01*
X-710502Y375502D02*
Y376998D01*
Y342503D02*
Y375502D01*
X-697503D01*
X-728503D02*
X-710502D01*
X-697503D02*
X-697500Y375498D01*
X-710502Y342503D02*
X-697503D01*
X-713003D02*
X-710502D01*
Y300505D02*
Y340002D01*
Y342503D01*
X-728503D02*
X-713003D01*
X-710502Y340002D01*
X-697503Y342503D02*
X-697500Y342500D01*
X-679502Y300505D02*
X-679498Y300502D01*
X-710502Y300505D02*
X-679502D01*
X-710841Y243002D02*
X-699502D01*
X-730502D02*
X-710841D01*
Y300166D01*
Y212503D02*
Y243002D01*
Y300166D02*
X-710502Y300505D01*
X-699502Y243002D02*
X-699498Y242998D01*
X-649495Y124496D02*
X-642497Y117499D01*
X-664248Y126805D02*
X-661938Y124496D01*
X-649495D01*
X-710841Y212503D02*
X-699502D01*
X-730502D02*
X-710841D01*
X-710502Y212164D01*
Y163002D02*
Y212164D01*
X-699502Y212503D02*
X-699498Y212500D01*
X-710502Y163002D02*
X-710498Y162998D01*
X-679498D01*
X-670748Y154248D01*
Y133305D02*
Y154248D01*
Y133305D02*
X-664248Y126805D01*
Y83305D02*
Y126805D01*
X-670748Y76806D02*
X-664248Y83305D01*
Y22187D02*
X-661938Y24496D01*
X-664248Y-16695D02*
Y22187D01*
X-670748Y33305D02*
X-661938Y24496D01*
X-649495D01*
X-388503Y-178997D02*
Y-83997D01*
X-407500Y-65000D02*
X-388503Y-83997D01*
X-407500Y-65000D02*
Y-57500D01*
X-388503Y-178997D02*
X-378242Y-189258D01*
X-369619D01*
X-368476Y-190402D01*
X-455000Y-200000D02*
X-438000D01*
X-462500Y-207500D02*
X-455000Y-200000D01*
X-430000Y-342500D02*
X-425000Y-337500D01*
X-507500Y-342500D02*
X-430000D01*
X-517500Y-345000D02*
X-507500Y-335000D01*
X-437500D01*
X-517499Y-352499D02*
X-507500Y-342500D01*
X-539999Y-352499D02*
X-517499D01*
X-560000Y-345000D02*
X-517500D01*
X-630000Y280000D02*
X-629999Y279999D01*
Y240000D02*
Y279999D01*
Y240000D02*
X-629999Y240000D01*
X-617500Y247502D02*
Y280000D01*
X-602250Y213251D02*
Y256998D01*
Y213251D02*
X-590000Y201001D01*
D12*
X-430750Y-311750D02*
X-417500Y-325000D01*
Y-345000D02*
Y-325000D01*
Y-345000D02*
X-410000Y-352500D01*
X-430750Y-311750D02*
Y-196997D01*
X-431465Y-196283D02*
X-430750Y-196997D01*
X-431465Y-196283D02*
Y-156035D01*
X-410000Y-352500D02*
X-390000D01*
X29162Y257500D02*
Y317598D01*
X-532132Y-304999D02*
X-517248D01*
X-568527D02*
X-532132D01*
X-582752D02*
X-568527D01*
X-532248Y-272499D02*
X-531770Y-272978D01*
X-517248Y-304999D02*
X-517248Y-304999D01*
X-600445Y-385000D02*
X-552500D01*
X-737500D02*
X-600445D01*
Y-322693D01*
X-582752Y-304999D01*
X-542500Y-395000D02*
X-517500D01*
X-550000Y-387500D02*
X-542500Y-395000D01*
X-552500Y-385000D02*
X-550000Y-387500D01*
X-737500Y-310000D02*
Y-242500D01*
Y-377500D02*
Y-310000D01*
X-737503Y-309998D02*
X-737500Y-310000D01*
X-787497Y-309998D02*
X-737503D01*
X-737500Y-385000D02*
Y-377500D01*
Y-395000D02*
Y-385000D01*
Y-402500D02*
Y-395000D01*
X-738352Y-132500D02*
X-677502D01*
X-787497D02*
X-738352D01*
X-737500Y-217500D02*
Y-133352D01*
Y-225000D02*
Y-217500D01*
Y-235000D02*
Y-225000D01*
Y-242500D02*
Y-235000D01*
X-738352Y-132500D02*
X-737500Y-133352D01*
X-677502Y-132500D02*
X-652501Y-107499D01*
X-550126Y-162373D02*
Y-122499D01*
Y-162373D02*
X-550000Y-162499D01*
X-575000Y-172500D02*
X-472500D01*
X-587500Y-160000D02*
X-575000Y-172500D01*
X-51952Y363048D02*
Y407144D01*
X-60000Y355000D02*
X-51952Y363048D01*
X-63702Y418894D02*
X-51952Y407144D01*
X-77352Y367648D02*
Y407144D01*
X-89102Y418894D02*
X-77352Y407144D01*
X-90000Y355000D02*
X-77352Y367648D01*
X-402000Y-152770D02*
X-401730Y-152500D01*
X-402000Y-180280D02*
Y-152770D01*
X-640000Y-160000D02*
X-587500D01*
X-669597Y-279998D02*
X-652993Y-263393D01*
Y-196500D01*
D72*
X-172298Y-72226D02*
D03*
X-247298D02*
D03*
X-32298D02*
D03*
X-107298D02*
D03*
X107702D02*
D03*
X32702D02*
D03*
X247702D02*
D03*
X172702D02*
D03*
D74*
X-522500Y-84999D02*
D03*
X-522500Y-327999D02*
D03*
X-577500D02*
D03*
X-490000Y-190000D02*
D03*
X-612500D02*
D03*
X-577500Y-84999D02*
D03*
X-612500Y-220000D02*
D03*
X-490000D02*
D03*
X-750000Y177500D02*
D03*
Y315000D02*
D03*
X-625000Y327998D02*
D03*
D78*
X-242002Y359502D02*
Y359502D01*
Y282002D02*
Y359502D01*
X-200000Y240000D02*
X2500D01*
Y190000D02*
Y240000D01*
X-242002Y359502D02*
X-242002Y359502D01*
X-252002Y359502D02*
X-242002D01*
X-242002Y282002D02*
X-200000Y240000D01*
X2500D02*
X82500D01*
X134600Y292100D01*
X342721D01*
X-32298Y-392479D02*
Y-325626D01*
Y-392479D02*
X-29800Y-394978D01*
Y-438926D02*
Y-394978D01*
X247702Y-382298D02*
Y-325626D01*
X230200Y-438926D02*
Y-399800D01*
X247702Y-382298D01*
X107702Y-402298D02*
Y-325626D01*
X100199Y-438926D02*
Y-409801D01*
X107702Y-402298D01*
X32702Y-72226D02*
X67976Y-107500D01*
X137428D02*
X172702Y-72226D01*
X67976Y-107500D02*
X137428D01*
X-107298Y-72226D02*
X-72024Y-107500D01*
X-2573D02*
X32702Y-72226D01*
X-72024Y-107500D02*
X-2573D01*
X-212024D02*
X-142572D01*
X-107298Y-72226D01*
X-247298D02*
X-212024Y-107500D01*
X-299902Y-302402D02*
Y-92402D01*
X-314902Y-317402D02*
X-299902Y-302402D01*
X-343076Y-317402D02*
X-314902D01*
X-299902Y-92402D02*
X-279726Y-72226D01*
X-247298D01*
X-431465Y-156035D02*
Y-148535D01*
X-453614Y-126386D02*
X-431465Y-148535D01*
X-453614Y0D02*
Y100000D01*
Y-126386D02*
Y0D01*
Y100000D02*
Y159364D01*
Y188870D01*
Y256114D01*
Y265123D01*
X172702Y-275226D02*
X247702D01*
X172702Y-325626D02*
X247702D01*
X32702Y-275226D02*
X107702D01*
X32702Y-325626D02*
X107702D01*
X-107298Y-275226D02*
X-32298D01*
X-107298Y-325626D02*
X-32298D01*
X-159801Y-438926D02*
Y-390923D01*
X-172298Y-378426D02*
X-159801Y-390923D01*
X-172298Y-378426D02*
Y-325626D01*
X-247298D02*
X-172298D01*
X-247298Y-275226D02*
X-172298D01*
D79*
X-453614Y100000D02*
X-452500D01*
X-640000D02*
X-453614D01*
Y0D02*
X-452500D01*
X-640000D02*
X-453614D01*
X-650001D02*
X-640000D01*
X-650001Y100000D02*
X-640000D01*
X-454250Y160000D02*
X-453614Y159364D01*
X-507500Y160000D02*
X-454250D01*
X-454744Y190000D02*
X-453614Y188870D01*
X-507500Y190000D02*
X-454744D01*
X-472500Y-365000D02*
Y-355000D01*
Y-375000D02*
Y-365000D01*
X-343076Y-343076D02*
Y-317402D01*
X-365000Y-365000D02*
X-343076Y-343076D01*
X-472500Y-365000D02*
X-365000D01*
D80*
X-437500Y-110503D02*
Y330000D01*
Y-110503D02*
X-422753Y-125250D01*
X-445000Y337500D02*
X-437500Y330000D01*
X-615498Y337500D02*
X-445000D01*
X-625000Y327998D02*
X-615498Y337500D01*
D81*
X-787500Y307503D02*
D03*
Y342501D02*
D03*
Y177503D02*
D03*
Y212501D02*
D03*
X-787497Y82500D02*
D03*
Y-27500D02*
D03*
Y-167499D02*
D03*
Y-132500D02*
D03*
Y-344996D02*
D03*
Y-309998D02*
D03*
X447000Y227500D02*
D03*
Y137500D02*
D03*
X446500Y24997D02*
D03*
Y-10001D02*
D03*
X-29800Y-438926D02*
D03*
X-64798D02*
D03*
X100199D02*
D03*
X65200D02*
D03*
X-159801D02*
D03*
X-194800D02*
D03*
X230200D02*
D03*
X195202D02*
D03*
D82*
X-787500Y377503D02*
D03*
Y247502D02*
D03*
X-787497Y117500D02*
D03*
Y7500D02*
D03*
Y-97499D02*
D03*
Y-274996D02*
D03*
X447000Y192500D02*
D03*
Y102500D02*
D03*
X446500Y-45002D02*
D03*
D83*
X-694997Y-279998D02*
D03*
X-669597D02*
D03*
X-720397D02*
D03*
X-694997Y-341996D02*
D03*
X-669597D02*
D03*
X-720397D02*
D03*
D84*
X-99799Y-438926D02*
D03*
X30199D02*
D03*
X-229801D02*
D03*
X160200D02*
D03*
D85*
X-172298Y-224826D02*
D03*
Y-325626D02*
D03*
X-247298Y-275226D02*
D03*
X-172298D02*
D03*
X-247298Y-325626D02*
D03*
Y-224826D02*
D03*
X-32298D02*
D03*
Y-325626D02*
D03*
X-107298Y-275226D02*
D03*
X-32298D02*
D03*
X-107298Y-325626D02*
D03*
Y-224826D02*
D03*
X107702D02*
D03*
Y-325626D02*
D03*
X32702Y-275226D02*
D03*
X107702D02*
D03*
X32702Y-325626D02*
D03*
Y-224826D02*
D03*
X247702D02*
D03*
Y-325626D02*
D03*
X172702Y-275226D02*
D03*
X247702D02*
D03*
X172702Y-325626D02*
D03*
Y-224826D02*
D03*
D86*
X-343076Y-317402D02*
D03*
Y-292002D02*
D03*
Y-266602D02*
D03*
Y-241202D02*
D03*
Y-215802D02*
D03*
Y-190402D02*
D03*
Y-165002D02*
D03*
Y-139602D02*
D03*
Y-114202D02*
D03*
Y-88802D02*
D03*
Y-63402D02*
D03*
Y-38002D02*
D03*
Y-12602D02*
D03*
Y12798D02*
D03*
Y38198D02*
D03*
Y63598D02*
D03*
Y88998D02*
D03*
Y114398D02*
D03*
X-368476Y-317402D02*
D03*
Y-292002D02*
D03*
Y-266602D02*
D03*
Y-241202D02*
D03*
Y-215802D02*
D03*
Y-190402D02*
D03*
Y-165002D02*
D03*
Y-139602D02*
D03*
Y-114202D02*
D03*
Y-88802D02*
D03*
Y-63402D02*
D03*
Y-38002D02*
D03*
Y-12602D02*
D03*
Y12798D02*
D03*
Y38198D02*
D03*
Y63598D02*
D03*
Y88998D02*
D03*
Y114398D02*
D03*
Y317598D02*
D03*
X-343076Y292198D02*
D03*
X-368476D02*
D03*
X-343076Y266798D02*
D03*
X-368476D02*
D03*
X-343076Y241398D02*
D03*
X-368476D02*
D03*
X-343076Y215998D02*
D03*
X-368476D02*
D03*
X-343076Y190598D02*
D03*
X-368476D02*
D03*
X-343076Y165198D02*
D03*
X-368476D02*
D03*
Y139798D02*
D03*
X-343076D02*
D03*
X317298Y418894D02*
D03*
X291898D02*
D03*
X266498D02*
D03*
X241098D02*
D03*
X215698D02*
D03*
X190298D02*
D03*
X164898D02*
D03*
X139498D02*
D03*
X114098D02*
D03*
X88698D02*
D03*
X63298D02*
D03*
X37898D02*
D03*
X12498D02*
D03*
X-12902D02*
D03*
X-38302D02*
D03*
X-63702D02*
D03*
X-89102D02*
D03*
X-114502D02*
D03*
X317298Y393494D02*
D03*
X291898D02*
D03*
X266498D02*
D03*
X241098D02*
D03*
X215698D02*
D03*
X190298D02*
D03*
X164898D02*
D03*
X139498D02*
D03*
X114098D02*
D03*
X88698D02*
D03*
X63298D02*
D03*
X37898D02*
D03*
X12498D02*
D03*
X-12902D02*
D03*
X-38302D02*
D03*
X-63702D02*
D03*
X-89102D02*
D03*
X-114502D02*
D03*
X-317702D02*
D03*
X-292302Y418894D02*
D03*
Y393494D02*
D03*
X-266902Y418894D02*
D03*
Y393494D02*
D03*
X-241502Y418894D02*
D03*
Y393494D02*
D03*
X-216102Y418894D02*
D03*
Y393494D02*
D03*
X-190702Y418894D02*
D03*
Y393494D02*
D03*
X-165302Y418894D02*
D03*
Y393494D02*
D03*
X-139902D02*
D03*
Y418894D02*
D03*
X368121Y-317500D02*
D03*
Y-292100D02*
D03*
Y-266700D02*
D03*
Y-241300D02*
D03*
Y-215900D02*
D03*
Y-190500D02*
D03*
Y-165100D02*
D03*
Y-139700D02*
D03*
Y-114300D02*
D03*
Y-88900D02*
D03*
Y-63500D02*
D03*
Y-38100D02*
D03*
Y-12700D02*
D03*
Y12700D02*
D03*
Y38100D02*
D03*
X342721Y-317500D02*
D03*
Y-292100D02*
D03*
Y-266700D02*
D03*
Y-241300D02*
D03*
Y-215900D02*
D03*
Y-190500D02*
D03*
Y-165100D02*
D03*
Y-139700D02*
D03*
Y-114300D02*
D03*
Y-88900D02*
D03*
Y-63500D02*
D03*
Y-38100D02*
D03*
Y-12700D02*
D03*
Y12700D02*
D03*
Y38100D02*
D03*
Y317500D02*
D03*
X368121Y292100D02*
D03*
X342721D02*
D03*
X368121Y266700D02*
D03*
X342721D02*
D03*
X368121Y241300D02*
D03*
X342721D02*
D03*
X368121Y63500D02*
D03*
Y88900D02*
D03*
Y114300D02*
D03*
X342721Y63500D02*
D03*
Y88900D02*
D03*
Y114300D02*
D03*
X368121Y215900D02*
D03*
X342721D02*
D03*
X368121Y190500D02*
D03*
X342721D02*
D03*
X368121Y165100D02*
D03*
X342721D02*
D03*
Y139700D02*
D03*
X368121D02*
D03*
D87*
X-343076Y317598D02*
D03*
X368121Y317500D02*
D03*
D88*
X-317702Y418894D02*
D03*
D89*
X-820000Y450000D02*
D03*
X480000D02*
D03*
X-820000Y-470000D02*
D03*
X480000D02*
D03*
D90*
X-369000Y396000D02*
D03*
X-411500D02*
D03*
X18998Y192300D02*
D03*
X415999Y346000D02*
D03*
X455999Y266000D02*
D03*
X415999Y26000D02*
D03*
Y-134000D02*
D03*
X455999Y-214000D02*
D03*
X415999Y-294000D02*
D03*
X455999Y-374000D02*
D03*
X415999Y-454000D02*
D03*
X376000Y426000D02*
D03*
X336000Y346000D02*
D03*
X376000Y-374000D02*
D03*
X336000Y-454000D02*
D03*
X256000Y346000D02*
D03*
X296000Y-54000D02*
D03*
X256000Y-134000D02*
D03*
X296000Y-374000D02*
D03*
X256000Y-454000D02*
D03*
X176000Y346000D02*
D03*
Y26000D02*
D03*
Y-134000D02*
D03*
X96000Y346000D02*
D03*
Y186000D02*
D03*
Y26000D02*
D03*
X136000Y-54000D02*
D03*
X96000Y-134000D02*
D03*
X136000Y-214000D02*
D03*
Y-374000D02*
D03*
X16000Y346000D02*
D03*
X56000Y266000D02*
D03*
Y106000D02*
D03*
X16000Y26000D02*
D03*
X56000Y-54000D02*
D03*
X16000Y-134000D02*
D03*
X-24000Y266000D02*
D03*
Y106000D02*
D03*
X-64000Y-134000D02*
D03*
X-104000Y106000D02*
D03*
X-144000Y26000D02*
D03*
Y-134000D02*
D03*
Y-294000D02*
D03*
X-184000Y266000D02*
D03*
X-224000Y186000D02*
D03*
Y26000D02*
D03*
Y-134000D02*
D03*
X-264000Y266000D02*
D03*
X-304000Y186000D02*
D03*
X-264000Y106000D02*
D03*
X-304000Y26000D02*
D03*
X-264000Y-374000D02*
D03*
X-304000Y-454000D02*
D03*
X-384000Y26000D02*
D03*
Y-454000D02*
D03*
X-464000D02*
D03*
X-504000Y266000D02*
D03*
X-544000Y26000D02*
D03*
Y-454000D02*
D03*
X-584000Y426000D02*
D03*
Y-54000D02*
D03*
Y-374000D02*
D03*
X-624000Y-454000D02*
D03*
X-664000Y426000D02*
D03*
X-704000Y26000D02*
D03*
X-664000Y-54000D02*
D03*
X-704000Y-134000D02*
D03*
Y-294000D02*
D03*
Y-454000D02*
D03*
X-744000Y426000D02*
D03*
Y-54000D02*
D03*
Y-374000D02*
D03*
X317500Y-187500D02*
D03*
X-435000Y-352500D02*
D03*
X-517500Y-42500D02*
D03*
X-252002Y359502D02*
D03*
X-242002D02*
D03*
X28738Y256238D02*
D03*
X2500Y240000D02*
D03*
Y190000D02*
D03*
X-542500Y-395000D02*
D03*
X-517500D02*
D03*
X-550000Y-387500D02*
D03*
X-737500Y-377500D02*
D03*
Y-385000D02*
D03*
Y-402500D02*
D03*
Y-395000D02*
D03*
Y-235000D02*
D03*
Y-242500D02*
D03*
Y-225000D02*
D03*
Y-217500D02*
D03*
X-550000Y-162499D02*
D03*
X-571750Y201750D02*
D03*
X-540000Y217500D02*
D03*
X-537750Y272750D02*
D03*
X-558750Y256250D02*
D03*
X-565250Y260250D02*
D03*
X-699498Y212500D02*
D03*
X-730502Y212503D02*
D03*
X-679498Y162998D02*
D03*
X-710502Y163002D02*
D03*
X-699498Y242998D02*
D03*
X-730502Y243002D02*
D03*
X-679498Y300502D02*
D03*
X-710502Y300505D02*
D03*
X-697500Y342500D02*
D03*
X-728503Y342503D02*
D03*
X-728503Y375502D02*
D03*
X-697500Y375498D02*
D03*
X-60000Y355000D02*
D03*
X-90000D02*
D03*
X-390000Y-352500D02*
D03*
X-387500Y-390000D02*
D03*
X-359200Y-441700D02*
D03*
X-333800Y-441300D02*
D03*
X-346500Y-441000D02*
D03*
X-431465Y-156035D02*
D03*
Y-148535D02*
D03*
X-640000Y0D02*
D03*
X-650001D02*
D03*
Y100000D02*
D03*
X-453614Y256114D02*
D03*
Y265123D02*
D03*
X-670748Y56695D02*
D03*
X-664248Y83305D02*
D03*
Y-16695D02*
D03*
X-670748Y-43305D02*
D03*
X-640000Y100000D02*
D03*
X-407500Y-57500D02*
D03*
X-507500Y160000D02*
D03*
Y190000D02*
D03*
X-495000Y280000D02*
D03*
Y287500D02*
D03*
X-487500Y300000D02*
D03*
Y310000D02*
D03*
X-577500Y317500D02*
D03*
X-562500Y350000D02*
D03*
X-545000Y365000D02*
D03*
X-555000Y390000D02*
D03*
X-615000Y387500D02*
D03*
X-617500Y372500D02*
D03*
X-670748Y133305D02*
D03*
X-625000Y117500D02*
D03*
X-610001Y117499D02*
D03*
X-649495Y124496D02*
D03*
Y24496D02*
D03*
X-610001Y17499D02*
D03*
X-625000Y17500D02*
D03*
X-670748Y33305D02*
D03*
X-422753Y-125250D02*
D03*
X-395253Y-140250D02*
D03*
X-407252Y-95250D02*
D03*
Y-85250D02*
D03*
X-422500Y-110000D02*
D03*
X-415000Y-245000D02*
D03*
X-401730Y-152500D02*
D03*
X-402000Y-180280D02*
D03*
X-472500Y-172500D02*
D03*
X-640000Y-160000D02*
D03*
X-438000Y-200000D02*
D03*
X-462500Y-207500D02*
D03*
X-437500Y-335000D02*
D03*
X-539999Y-352499D02*
D03*
X-560000Y-345000D02*
D03*
X-425000Y-337500D02*
D03*
X-472500Y-365000D02*
D03*
Y-375000D02*
D03*
Y-355000D02*
D03*
X-652993Y-196500D02*
D03*
X-592500Y318750D02*
D03*
X-543750Y319998D02*
D03*
X-630000Y280000D02*
D03*
X-629999Y240000D02*
D03*
X-617500Y280000D02*
D03*
Y247502D02*
D03*
X-590000Y201001D02*
D03*
X-602250Y256998D02*
D03*
X-517248Y-304999D02*
D03*
Y-289999D02*
D03*
X-532248Y-272499D02*
D03*
X-532248Y-257499D02*
D03*
X-582752Y-304999D02*
D03*
Y-289999D02*
D03*
X-567752Y-272499D02*
D03*
X-567752Y-257499D02*
D03*
Y-152499D02*
D03*
X-567752Y-137499D02*
D03*
X-582752Y-122499D02*
D03*
Y-107499D02*
D03*
X-517500D02*
D03*
Y-122499D02*
D03*
X-532500Y-137499D02*
D03*
X-532500Y-152499D02*
D03*
M02*
