G04*
G04 #@! TF.GenerationSoftware,Altium Limited,Altium Designer,19.1.6 (110)*
G04*
G04 Layer_Physical_Order=1*
G04 Layer_Color=3162822*
%FSLAX44Y44*%
%MOMM*%
G71*
G01*
G75*
%ADD10C,0.2500*%
%ADD12C,0.3500*%
%ADD13C,0.4500*%
%ADD19R,2.6000X1.1000*%
%ADD20R,1.0000X1.3000*%
%ADD21R,0.8000X0.9000*%
%ADD22R,0.9000X0.8000*%
%ADD23R,0.9000X0.6500*%
%ADD24R,1.1000X0.6500*%
%ADD25R,1.3000X1.0000*%
%ADD26R,1.1000X1.7000*%
%ADD27O,0.4000X1.3500*%
%ADD28R,0.4000X1.6000*%
%ADD29O,0.7000X2.5000*%
%ADD30R,0.4000X1.5000*%
%ADD31R,1.1000X2.6000*%
%ADD32R,1.2000X0.5000*%
%ADD33R,1.6000X0.5000*%
G04:AMPARAMS|DCode=34|XSize=1.8mm|YSize=3mm|CornerRadius=0mm|HoleSize=0mm|Usage=FLASHONLY|Rotation=270.000|XOffset=0mm|YOffset=0mm|HoleType=Round|Shape=Octagon|*
%AMOCTAGOND34*
4,1,8,1.5000,0.4500,1.5000,-0.4500,1.0500,-0.9000,-1.0500,-0.9000,-1.5000,-0.4500,-1.5000,0.4500,-1.0500,0.9000,1.0500,0.9000,1.5000,0.4500,0.0*
%
%ADD34OCTAGOND34*%

%ADD35R,1.0000X2.4000*%
%ADD36R,3.3000X2.4000*%
%ADD37R,1.6500X1.7000*%
%ADD38O,0.6000X2.3000*%
%ADD39R,0.6500X0.9000*%
%ADD40R,0.6500X1.1000*%
%ADD41R,1.7000X1.1000*%
%ADD42R,2.7432X2.6162*%
%ADD72C,3.1000*%
%ADD74C,1.6000*%
%ADD78C,1.0000*%
%ADD79C,0.6500*%
%ADD80C,0.8500*%
%ADD81C,2.3000*%
%ADD82R,2.3000X2.3000*%
%ADD83C,1.0000*%
%ADD84R,2.3000X2.3000*%
%ADD85C,3.0000*%
%ADD86C,1.5000*%
%ADD87R,1.5000X1.5000*%
%ADD88R,1.5000X1.5000*%
%ADD89C,6.0000*%
%ADD90C,0.6000*%
G36*
X484740Y479924D02*
X489362Y478815D01*
X493755Y476995D01*
X497808Y474511D01*
X501424Y471423D01*
X504511Y467808D01*
X506995Y463755D01*
X508815Y459362D01*
X509925Y454740D01*
X510146Y451920D01*
X510146Y451920D01*
X510146D01*
X510166Y451902D01*
X510166Y-470000D01*
X510248Y-470625D01*
X509925Y-474740D01*
X508815Y-479362D01*
X506995Y-483755D01*
X504511Y-487808D01*
X501424Y-491424D01*
X497808Y-494511D01*
X493755Y-496995D01*
X489362Y-498815D01*
X484740Y-499925D01*
X481920Y-500146D01*
X481920Y-500146D01*
Y-500146D01*
X481902Y-500166D01*
X-820000Y-500166D01*
X-820625Y-500248D01*
X-824740Y-499925D01*
X-829362Y-498815D01*
X-833755Y-496995D01*
X-837808Y-494511D01*
X-841424Y-491424D01*
X-844511Y-487808D01*
X-846995Y-483755D01*
X-848815Y-479362D01*
X-849924Y-474740D01*
X-850146Y-471920D01*
X-850146Y-471920D01*
X-850146D01*
X-850166Y-471902D01*
X-850166Y450000D01*
X-850248Y450625D01*
X-849924Y454740D01*
X-848815Y459362D01*
X-846995Y463755D01*
X-844511Y467808D01*
X-841424Y471423D01*
X-837808Y474511D01*
X-833755Y476995D01*
X-829362Y478815D01*
X-824740Y479924D01*
X-821920Y480146D01*
X-821920Y480146D01*
Y480146D01*
X-821902Y480166D01*
X480000Y480166D01*
X480625Y480248D01*
X484740Y479924D01*
D02*
G37*
%LPC*%
G36*
X317298Y434971D02*
X314162Y434662D01*
X311146Y433747D01*
X308366Y432262D01*
X305930Y430262D01*
X304848Y428945D01*
X304348D01*
X303267Y430262D01*
X300830Y432262D01*
X298051Y433747D01*
X295035Y434662D01*
X291898Y434971D01*
X288762Y434662D01*
X285746Y433747D01*
X282966Y432262D01*
X280530Y430262D01*
X279448Y428945D01*
X278948D01*
X277867Y430262D01*
X275431Y432262D01*
X272651Y433747D01*
X269635Y434662D01*
X266498Y434971D01*
X263362Y434662D01*
X260346Y433747D01*
X257566Y432262D01*
X255130Y430262D01*
X254048Y428945D01*
X253548D01*
X252467Y430262D01*
X250030Y432262D01*
X247251Y433747D01*
X244235Y434662D01*
X241098Y434971D01*
X237962Y434662D01*
X234946Y433747D01*
X232166Y432262D01*
X229730Y430262D01*
X227731Y427826D01*
X227180Y426797D01*
X226682Y426756D01*
X225327Y428522D01*
X222507Y430686D01*
X219223Y432046D01*
X218698Y432115D01*
Y418894D01*
X212698D01*
Y432115D01*
X212174Y432046D01*
X208890Y430686D01*
X206070Y428522D01*
X204715Y426756D01*
X204216Y426797D01*
X203666Y427826D01*
X201667Y430262D01*
X199230Y432262D01*
X196451Y433747D01*
X193435Y434662D01*
X190298Y434971D01*
X187162Y434662D01*
X184146Y433747D01*
X181366Y432262D01*
X178930Y430262D01*
X177848Y428945D01*
X177348D01*
X176267Y430262D01*
X173831Y432262D01*
X171051Y433747D01*
X168035Y434662D01*
X164898Y434971D01*
X161762Y434662D01*
X158746Y433747D01*
X155966Y432262D01*
X153530Y430262D01*
X152448Y428945D01*
X151948D01*
X150867Y430262D01*
X148431Y432262D01*
X145651Y433747D01*
X142635Y434662D01*
X139498Y434971D01*
X136362Y434662D01*
X133346Y433747D01*
X130566Y432262D01*
X128130Y430262D01*
X127048Y428945D01*
X126548D01*
X125467Y430262D01*
X123031Y432262D01*
X120251Y433747D01*
X117235Y434662D01*
X114098Y434971D01*
X110962Y434662D01*
X107946Y433747D01*
X105166Y432262D01*
X102730Y430262D01*
X100730Y427826D01*
X100180Y426797D01*
X99682Y426756D01*
X98327Y428522D01*
X95507Y430686D01*
X92222Y432046D01*
X91698Y432115D01*
Y418894D01*
X85698D01*
Y432115D01*
X85174Y432046D01*
X81890Y430686D01*
X79070Y428522D01*
X77715Y426756D01*
X77216Y426797D01*
X76666Y427826D01*
X74667Y430262D01*
X72231Y432262D01*
X69451Y433747D01*
X66435Y434662D01*
X63298Y434971D01*
X60162Y434662D01*
X57146Y433747D01*
X54366Y432262D01*
X51930Y430262D01*
X50848Y428945D01*
X50348D01*
X49267Y430262D01*
X46831Y432262D01*
X44051Y433747D01*
X41035Y434662D01*
X37898Y434971D01*
X34762Y434662D01*
X31746Y433747D01*
X28966Y432262D01*
X26530Y430262D01*
X25448Y428945D01*
X24948D01*
X23867Y430262D01*
X21430Y432262D01*
X18651Y433747D01*
X15635Y434662D01*
X12498Y434971D01*
X9362Y434662D01*
X6346Y433747D01*
X3566Y432262D01*
X1130Y430262D01*
X48Y428945D01*
X-452D01*
X-1533Y430262D01*
X-3970Y432262D01*
X-6749Y433747D01*
X-9765Y434662D01*
X-12902Y434971D01*
X-16038Y434662D01*
X-19054Y433747D01*
X-21834Y432262D01*
X-24270Y430262D01*
X-26270Y427826D01*
X-26820Y426797D01*
X-27318Y426756D01*
X-28673Y428522D01*
X-31493Y430686D01*
X-34778Y432046D01*
X-35302Y432115D01*
Y418894D01*
X-41302D01*
Y432115D01*
X-41826Y432046D01*
X-45110Y430686D01*
X-47930Y428522D01*
X-49285Y426756D01*
X-49784Y426797D01*
X-50334Y427826D01*
X-52333Y430262D01*
X-54770Y432262D01*
X-57549Y433747D01*
X-60565Y434662D01*
X-63702Y434971D01*
X-66838Y434662D01*
X-69854Y433747D01*
X-72634Y432262D01*
X-75070Y430262D01*
X-76152Y428945D01*
X-76652D01*
X-77733Y430262D01*
X-80169Y432262D01*
X-82949Y433747D01*
X-85965Y434662D01*
X-89102Y434971D01*
X-92238Y434662D01*
X-95254Y433747D01*
X-98034Y432262D01*
X-100470Y430262D01*
X-101552Y428945D01*
X-102052D01*
X-103133Y430262D01*
X-105569Y432262D01*
X-108349Y433747D01*
X-111365Y434662D01*
X-114502Y434971D01*
X-117638Y434662D01*
X-120654Y433747D01*
X-123434Y432262D01*
X-125870Y430262D01*
X-126952Y428945D01*
X-127452D01*
X-128533Y430262D01*
X-130969Y432262D01*
X-133749Y433747D01*
X-136765Y434662D01*
X-139902Y434971D01*
X-143038Y434662D01*
X-146054Y433747D01*
X-148834Y432262D01*
X-151270Y430262D01*
X-153270Y427826D01*
X-153820Y426797D01*
X-154318Y426756D01*
X-155673Y428522D01*
X-158493Y430686D01*
X-161777Y432046D01*
X-162302Y432115D01*
Y418894D01*
X-168302D01*
Y432115D01*
X-168826Y432046D01*
X-172110Y430686D01*
X-174930Y428522D01*
X-176285Y426756D01*
X-176784Y426797D01*
X-177334Y427826D01*
X-179333Y430262D01*
X-181770Y432262D01*
X-184549Y433747D01*
X-187565Y434662D01*
X-190702Y434971D01*
X-193838Y434662D01*
X-196854Y433747D01*
X-199634Y432262D01*
X-202070Y430262D01*
X-203152Y428945D01*
X-203652D01*
X-204733Y430262D01*
X-207169Y432262D01*
X-209949Y433747D01*
X-212965Y434662D01*
X-216102Y434971D01*
X-219238Y434662D01*
X-222254Y433747D01*
X-225034Y432262D01*
X-227470Y430262D01*
X-228552Y428945D01*
X-229052D01*
X-230133Y430262D01*
X-232570Y432262D01*
X-235349Y433747D01*
X-238365Y434662D01*
X-241502Y434971D01*
X-244638Y434662D01*
X-247654Y433747D01*
X-250434Y432262D01*
X-252870Y430262D01*
X-253952Y428945D01*
X-254452D01*
X-255533Y430262D01*
X-257969Y432262D01*
X-260749Y433747D01*
X-263765Y434662D01*
X-266902Y434971D01*
X-270038Y434662D01*
X-273054Y433747D01*
X-275834Y432262D01*
X-278270Y430262D01*
X-279352Y428945D01*
X-279852D01*
X-280933Y430262D01*
X-283370Y432262D01*
X-286149Y433747D01*
X-289165Y434662D01*
X-292302Y434971D01*
X-295438Y434662D01*
X-298454Y433747D01*
X-301202Y432279D01*
X-301479Y432357D01*
X-301702Y432463D01*
Y434894D01*
X-333702D01*
Y432510D01*
X-508606D01*
X-512130Y432046D01*
X-515414Y430686D01*
X-518234Y428522D01*
X-533128Y413628D01*
X-535292Y410808D01*
X-536652Y407524D01*
X-537117Y404000D01*
Y365502D01*
X-543125D01*
Y374250D01*
X-551625D01*
Y365000D01*
X-557625D01*
Y374250D01*
X-562375D01*
Y379500D01*
X-552998D01*
Y387000D01*
X-562998D01*
Y390000D01*
X-564498D01*
Y400500D01*
X-564498D01*
Y403000D01*
X-589498D01*
Y400500D01*
X-605498D01*
Y398000D01*
X-605499D01*
Y387500D01*
X-606998D01*
Y384500D01*
X-616998D01*
Y384000D01*
X-620000D01*
Y376000D01*
X-607500D01*
Y370501D01*
X-620000D01*
Y370500D01*
X-622500D01*
Y344704D01*
X-622870Y344369D01*
X-625000Y344578D01*
X-628234Y344260D01*
X-629262Y343948D01*
X-629663Y344246D01*
Y363613D01*
X-629999Y366158D01*
X-630981Y368530D01*
X-632544Y370566D01*
X-632544Y370567D01*
X-656431Y394454D01*
X-658468Y396017D01*
X-660839Y396999D01*
X-662112Y397166D01*
X-663385Y397334D01*
X-663385Y397334D01*
X-666003D01*
Y400500D01*
X-692502D01*
Y401998D01*
X-707502D01*
Y402002D01*
X-733502D01*
Y400500D01*
X-760000D01*
Y398078D01*
X-762670Y397726D01*
X-765285Y396643D01*
X-767052Y395288D01*
X-767500Y395509D01*
Y397503D01*
X-807500D01*
Y357503D01*
X-801489D01*
X-801321Y357032D01*
X-801711Y356712D01*
X-804210Y353666D01*
X-806067Y350192D01*
X-807211Y346422D01*
X-807597Y342501D01*
X-807211Y338581D01*
X-806067Y334811D01*
X-804210Y331336D01*
X-801711Y328291D01*
X-798665Y325791D01*
X-795191Y323934D01*
X-794981Y323871D01*
X-794932Y323373D01*
X-797270Y322124D01*
X-799934Y319937D01*
X-802121Y317272D01*
X-803746Y314232D01*
X-804747Y310933D01*
X-804789Y310502D01*
X-787500D01*
X-770211D01*
X-770253Y310933D01*
X-771254Y314232D01*
X-772879Y317272D01*
X-775066Y319937D01*
X-777730Y322124D01*
X-780068Y323373D01*
X-780019Y323871D01*
X-779809Y323934D01*
X-776335Y325791D01*
X-773289Y328291D01*
X-770790Y331336D01*
X-768933Y334811D01*
X-767789Y338581D01*
X-767403Y342501D01*
X-767763Y346158D01*
X-767392Y346659D01*
X-760000D01*
Y344500D01*
X-731002D01*
Y333002D01*
X-723502D01*
Y343002D01*
X-717502D01*
Y333002D01*
X-716002D01*
Y332998D01*
X-708502D01*
Y342998D01*
X-702502D01*
Y332998D01*
X-695002D01*
Y344498D01*
X-692502D01*
Y344500D01*
X-666003D01*
Y347666D01*
X-661571D01*
X-656830Y342925D01*
Y328000D01*
X-684502D01*
Y327002D01*
X-700500D01*
Y326998D01*
X-702998D01*
Y328000D01*
X-739831D01*
X-740789Y328786D01*
X-743655Y330318D01*
X-746765Y331261D01*
X-750000Y331580D01*
X-753235Y331261D01*
X-756345Y330318D01*
X-759211Y328786D01*
X-761724Y326724D01*
X-763786Y324211D01*
X-765318Y321345D01*
X-766261Y318235D01*
X-766580Y315000D01*
X-766261Y311765D01*
X-765318Y308655D01*
X-763786Y305789D01*
X-761724Y303276D01*
X-759211Y301214D01*
X-756345Y299682D01*
X-753235Y298739D01*
X-750000Y298420D01*
X-746765Y298739D01*
X-743655Y299682D01*
X-740789Y301214D01*
X-739831Y302000D01*
X-715500D01*
Y301998D01*
X-713000D01*
Y290498D01*
X-705500D01*
Y300498D01*
X-699500D01*
Y290498D01*
X-692000D01*
Y290502D01*
X-690500D01*
Y300501D01*
X-684500D01*
Y290502D01*
X-677000D01*
Y302000D01*
X-667836D01*
Y288503D01*
X-667836Y288503D01*
X-667668Y287231D01*
X-667501Y285958D01*
X-666518Y283586D01*
X-664955Y281549D01*
X-650700Y267294D01*
X-650892Y266833D01*
X-668002D01*
Y270500D01*
X-707002D01*
Y269498D01*
X-709500D01*
Y269502D01*
X-722998D01*
Y270500D01*
X-761998D01*
Y267813D01*
X-762670Y267725D01*
X-765285Y266642D01*
X-767052Y265287D01*
X-767500Y265508D01*
Y267502D01*
X-807500D01*
Y227502D01*
X-801489D01*
X-801321Y227032D01*
X-801711Y226712D01*
X-804210Y223666D01*
X-806067Y220192D01*
X-807211Y216422D01*
X-807597Y212501D01*
X-807211Y208581D01*
X-806067Y204811D01*
X-804210Y201336D01*
X-801711Y198291D01*
X-798665Y195791D01*
X-795191Y193934D01*
X-794981Y193871D01*
X-794932Y193373D01*
X-797270Y192124D01*
X-799934Y189937D01*
X-802121Y187272D01*
X-803746Y184232D01*
X-804747Y180933D01*
X-804789Y180502D01*
X-787500D01*
X-770211D01*
X-770253Y180933D01*
X-771254Y184232D01*
X-772879Y187272D01*
X-775066Y189937D01*
X-777730Y192124D01*
X-780068Y193373D01*
X-780019Y193871D01*
X-779809Y193934D01*
X-776335Y195791D01*
X-773289Y198291D01*
X-770790Y201336D01*
X-768933Y204811D01*
X-767789Y208581D01*
X-767403Y212501D01*
X-767763Y216157D01*
X-767391Y216657D01*
X-761998D01*
Y214500D01*
X-733000D01*
Y203002D01*
X-725500D01*
Y213001D01*
X-719500D01*
Y203002D01*
X-718000D01*
Y202998D01*
X-710500D01*
Y212998D01*
X-704500D01*
Y202998D01*
X-697000D01*
Y214498D01*
X-694500D01*
Y214500D01*
X-668002D01*
Y217666D01*
X-637500D01*
X-637500Y217666D01*
X-636227Y217833D01*
X-634955Y218001D01*
X-632583Y218983D01*
X-630546Y220546D01*
X-629462Y221630D01*
X-614841D01*
Y212500D01*
X-614480Y209759D01*
X-614084Y208804D01*
Y189823D01*
X-616573Y187334D01*
X-648002D01*
Y190500D01*
X-687002D01*
Y189498D01*
X-689500D01*
Y189502D01*
X-702998D01*
Y190500D01*
X-739831D01*
X-740789Y191286D01*
X-743655Y192818D01*
X-746765Y193761D01*
X-750000Y194080D01*
X-753235Y193761D01*
X-756345Y192818D01*
X-759211Y191286D01*
X-761724Y189224D01*
X-763786Y186711D01*
X-765318Y183845D01*
X-766261Y180735D01*
X-766580Y177500D01*
X-766261Y174265D01*
X-765318Y171155D01*
X-763786Y168289D01*
X-761724Y165776D01*
X-759211Y163714D01*
X-756345Y162182D01*
X-753235Y161239D01*
X-750000Y160920D01*
X-746765Y161239D01*
X-743655Y162182D01*
X-740789Y163714D01*
X-739831Y164500D01*
X-713000D01*
Y153002D01*
X-705500D01*
Y163002D01*
X-699500D01*
Y153002D01*
X-698000D01*
Y152998D01*
X-690500D01*
Y162998D01*
X-684500D01*
Y152998D01*
X-677000D01*
Y164498D01*
X-674500D01*
Y164500D01*
X-648002D01*
Y167666D01*
X-612500D01*
X-612500Y167666D01*
X-611227Y167833D01*
X-609955Y168001D01*
X-607583Y168983D01*
X-605546Y170546D01*
X-604534Y171558D01*
X-592334Y159358D01*
Y153000D01*
X-609499D01*
Y151998D01*
X-611997D01*
Y152002D01*
X-630496D01*
Y153000D01*
X-669496D01*
Y136500D01*
X-687747D01*
Y129003D01*
X-687867Y128953D01*
X-690008Y127310D01*
X-692058Y125260D01*
X-693701Y123119D01*
X-693957Y122500D01*
X-760737D01*
X-764117Y125880D01*
X-766572Y127764D01*
X-767497Y128147D01*
Y137500D01*
X-807497D01*
Y97500D01*
X-801488D01*
X-801320Y97029D01*
X-801708Y96711D01*
X-804207Y93665D01*
X-806065Y90191D01*
X-807208Y86421D01*
X-807594Y82500D01*
X-807208Y78579D01*
X-806065Y74809D01*
X-804207Y71335D01*
X-801708Y68289D01*
X-798663Y65790D01*
X-795188Y63933D01*
X-791418Y62789D01*
X-787497Y62403D01*
X-783577Y62789D01*
X-779807Y63933D01*
X-776332Y65790D01*
X-773287Y68289D01*
X-771761Y70149D01*
X-768997D01*
Y67500D01*
X-696271D01*
X-696201Y67331D01*
X-694558Y65190D01*
X-692058Y62690D01*
X-689917Y61047D01*
X-687747Y60148D01*
Y53500D01*
X-647247D01*
Y86500D01*
X-679507D01*
X-679937Y87060D01*
X-681687Y88810D01*
X-683828Y90453D01*
X-685997Y91352D01*
Y99826D01*
X-684572Y100014D01*
X-682078Y101047D01*
X-679937Y102690D01*
X-679127Y103500D01*
X-673983D01*
X-673747Y101702D01*
X-672764Y99330D01*
X-671201Y97294D01*
X-666954Y93046D01*
X-666954Y93046D01*
X-664917Y91483D01*
X-662545Y90501D01*
X-660000Y90166D01*
X-660000Y90166D01*
X-656076D01*
X-655801Y89955D01*
X-653003Y88796D01*
X-650001Y88401D01*
X-646999Y88796D01*
X-645001Y89624D01*
X-643002Y88796D01*
X-640000Y88401D01*
X-636998Y88796D01*
X-634200Y89955D01*
X-631798Y91798D01*
X-629955Y94200D01*
X-628796Y96998D01*
X-628664Y97998D01*
X-626997D01*
Y115502D01*
X-620498D01*
Y115498D01*
X-612998D01*
Y125498D01*
X-606997D01*
Y115498D01*
X-599497D01*
Y126998D01*
X-596997D01*
Y127000D01*
X-582334D01*
Y115823D01*
X-587203Y110954D01*
X-588766Y108918D01*
X-589748Y106546D01*
X-589916Y105273D01*
X-590083Y104000D01*
X-590083Y104000D01*
Y53000D01*
X-609499D01*
Y51998D01*
X-611998D01*
Y52002D01*
X-630496D01*
Y53000D01*
X-669496D01*
Y36500D01*
X-687747D01*
Y29106D01*
X-688117Y28953D01*
X-690258Y27310D01*
X-692308Y25260D01*
X-693951Y23119D01*
X-694207Y22500D01*
X-767497D01*
Y27500D01*
X-807497D01*
Y-12500D01*
X-801488D01*
X-801320Y-12971D01*
X-801708Y-13289D01*
X-804207Y-16335D01*
X-806065Y-19809D01*
X-807208Y-23579D01*
X-807594Y-27500D01*
X-807208Y-31421D01*
X-806065Y-35191D01*
X-804207Y-38665D01*
X-801708Y-41711D01*
X-798663Y-44210D01*
X-795188Y-46067D01*
X-791418Y-47210D01*
X-787497Y-47597D01*
X-783577Y-47210D01*
X-779807Y-46067D01*
X-776332Y-44210D01*
X-773287Y-41711D01*
X-771212Y-39182D01*
X-769430Y-38948D01*
X-766572Y-37764D01*
X-764117Y-35880D01*
X-760737Y-32500D01*
X-696521D01*
X-696451Y-32669D01*
X-694808Y-34810D01*
X-692308Y-37310D01*
X-690167Y-38953D01*
X-687747Y-39955D01*
Y-46500D01*
X-647247D01*
Y-13500D01*
X-679757D01*
X-680187Y-12940D01*
X-681937Y-11190D01*
X-684078Y-9547D01*
X-685997Y-8752D01*
Y-141D01*
X-684822Y14D01*
X-682328Y1047D01*
X-680187Y2690D01*
X-679377Y3500D01*
X-673983D01*
X-673747Y1702D01*
X-672764Y-670D01*
X-671201Y-2706D01*
X-666954Y-6954D01*
X-666954Y-6954D01*
X-664917Y-8517D01*
X-662545Y-9499D01*
X-660000Y-9834D01*
X-660000Y-9834D01*
X-656076D01*
X-655801Y-10045D01*
X-653003Y-11204D01*
X-650001Y-11599D01*
X-646999Y-11204D01*
X-645001Y-10376D01*
X-643002Y-11204D01*
X-640000Y-11599D01*
X-636998Y-11204D01*
X-634200Y-10045D01*
X-631798Y-8202D01*
X-629955Y-5800D01*
X-628796Y-3002D01*
X-628664Y-2002D01*
X-626997D01*
Y15502D01*
X-620498D01*
Y15498D01*
X-612998D01*
Y25498D01*
X-606997D01*
Y15498D01*
X-599497D01*
Y26998D01*
X-596997D01*
Y27000D01*
X-570499D01*
Y42111D01*
X-570415Y42750D01*
X-570415Y42750D01*
Y99927D01*
X-565546Y104796D01*
X-565546Y104796D01*
X-563983Y106833D01*
X-563001Y109204D01*
X-562666Y111750D01*
Y160502D01*
X-562666Y160503D01*
X-562833Y161775D01*
X-563001Y163048D01*
X-563983Y165420D01*
X-565546Y167456D01*
X-565546Y167456D01*
X-580166Y182076D01*
Y194926D01*
X-579955Y195202D01*
X-578796Y197999D01*
X-578401Y201001D01*
X-578489Y201671D01*
X-578250Y201909D01*
X-575509Y202270D01*
X-572955Y203328D01*
X-571750Y204253D01*
X-570545Y203328D01*
X-568584Y202516D01*
Y188750D01*
X-568584Y188750D01*
X-568417Y187477D01*
X-568249Y186205D01*
X-567267Y183833D01*
X-565704Y181796D01*
X-551954Y168046D01*
X-549917Y166483D01*
X-547545Y165501D01*
X-546273Y165333D01*
X-545000Y165166D01*
X-545000Y165166D01*
X-542002D01*
Y162000D01*
X-541998D01*
Y147000D01*
X-502998D01*
Y149417D01*
X-501700Y149955D01*
X-499298Y151798D01*
X-497455Y154200D01*
X-496296Y156998D01*
X-495901Y160000D01*
X-496296Y163002D01*
X-497020Y164750D01*
X-496742Y165166D01*
X-419073D01*
X-417334Y163427D01*
Y-51425D01*
X-417545Y-51700D01*
X-418704Y-54498D01*
X-419099Y-57500D01*
X-418704Y-60502D01*
X-417545Y-63300D01*
X-415702Y-65702D01*
X-413300Y-67545D01*
X-410502Y-68704D01*
X-409834Y-68792D01*
Y-72500D01*
X-409834Y-72500D01*
X-409505Y-75000D01*
X-409530Y-75155D01*
X-409761Y-75500D01*
X-413500D01*
Y-87000D01*
X-405000D01*
Y-82061D01*
X-404538Y-81869D01*
X-390652Y-95755D01*
X-390652Y-95755D01*
X-388615Y-97318D01*
X-386244Y-98301D01*
X-384971Y-98468D01*
X-383698Y-98636D01*
X-383698Y-98636D01*
X-381103D01*
X-379844Y-100170D01*
X-378526Y-101252D01*
Y-101752D01*
X-379844Y-102833D01*
X-381844Y-105269D01*
X-383329Y-108049D01*
X-384244Y-111065D01*
X-384553Y-114202D01*
X-384244Y-117338D01*
X-383329Y-120354D01*
X-381844Y-123134D01*
X-379844Y-125570D01*
X-378526Y-126652D01*
Y-127152D01*
X-379844Y-128233D01*
X-381844Y-130669D01*
X-383329Y-133449D01*
X-384244Y-136465D01*
X-384553Y-139602D01*
X-384338Y-141791D01*
X-384673Y-142162D01*
X-393002D01*
Y-129500D01*
X-400002D01*
Y-140000D01*
X-404501D01*
Y-129500D01*
X-404502D01*
Y-127000D01*
X-411005D01*
X-411335Y-126624D01*
X-411154Y-125250D01*
X-411549Y-122248D01*
X-412708Y-119450D01*
X-414551Y-117048D01*
X-416954Y-115205D01*
X-418002Y-114771D01*
Y-112000D01*
X-420498D01*
Y-111999D01*
X-430498D01*
Y-107000D01*
X-429500D01*
Y-106500D01*
X-420498D01*
Y-104500D01*
X-419500D01*
Y-93000D01*
X-428000D01*
Y-99000D01*
X-429500D01*
Y-73000D01*
X-455592D01*
X-475546Y-53046D01*
X-477583Y-51483D01*
X-479955Y-50501D01*
X-481227Y-50333D01*
X-482500Y-50166D01*
X-482500Y-50166D01*
X-552500D01*
X-552500Y-50166D01*
X-555045Y-50501D01*
X-557417Y-51483D01*
X-559454Y-53046D01*
X-559454Y-53046D01*
X-566954Y-60546D01*
X-568517Y-62583D01*
X-569499Y-64955D01*
X-569571Y-65501D01*
X-573000D01*
Y-68702D01*
X-573401Y-69000D01*
X-574265Y-68738D01*
X-577500Y-68419D01*
X-580734Y-68738D01*
X-583845Y-69681D01*
X-586711Y-71213D01*
X-589224Y-73275D01*
X-591286Y-75788D01*
X-592818Y-78654D01*
X-593761Y-81765D01*
X-594080Y-84999D01*
X-593761Y-88234D01*
X-592818Y-91344D01*
X-591286Y-94210D01*
X-589224Y-96723D01*
X-586711Y-98785D01*
X-584502Y-99966D01*
Y-104500D01*
X-574502D01*
Y-110499D01*
X-584502D01*
Y-117999D01*
Y-124499D01*
X-592998D01*
Y-109499D01*
X-631998D01*
Y-135499D01*
Y-139499D01*
X-632002D01*
Y-151077D01*
X-632450Y-151298D01*
X-634200Y-149955D01*
X-636998Y-148796D01*
X-640000Y-148401D01*
X-643002Y-148796D01*
X-645092Y-149662D01*
X-650718D01*
X-652999Y-147380D01*
X-655141Y-145737D01*
X-657634Y-144704D01*
X-660310Y-144352D01*
X-738527D01*
X-749662Y-133218D01*
Y-105563D01*
X-750014Y-102887D01*
X-751047Y-100394D01*
X-752690Y-98253D01*
X-760754Y-90189D01*
X-762895Y-88546D01*
X-765388Y-87513D01*
X-767497Y-87235D01*
Y-77499D01*
X-807497D01*
Y-117499D01*
X-797592D01*
X-797413Y-117999D01*
X-799932Y-120066D01*
X-802119Y-122731D01*
X-803744Y-125771D01*
X-804744Y-129070D01*
X-804787Y-129500D01*
X-787498D01*
Y-135500D01*
X-804787D01*
X-804744Y-135931D01*
X-803744Y-139230D01*
X-802119Y-142270D01*
X-799932Y-144935D01*
X-797267Y-147121D01*
X-794930Y-148371D01*
X-794979Y-148868D01*
X-795188Y-148932D01*
X-798663Y-150789D01*
X-801708Y-153288D01*
X-804207Y-156334D01*
X-806065Y-159808D01*
X-807208Y-163578D01*
X-807594Y-167499D01*
X-807208Y-171420D01*
X-806065Y-175190D01*
X-804207Y-178664D01*
X-801708Y-181710D01*
X-798663Y-184209D01*
X-795188Y-186066D01*
X-791418Y-187210D01*
X-787497Y-187596D01*
X-783577Y-187210D01*
X-779807Y-186066D01*
X-776332Y-184209D01*
X-773287Y-181710D01*
X-770788Y-178664D01*
X-770346Y-177837D01*
X-681783D01*
X-679811Y-179809D01*
X-677670Y-181453D01*
X-675177Y-182485D01*
X-672501Y-182838D01*
X-631998D01*
Y-185499D01*
X-628797D01*
X-628499Y-185901D01*
X-628761Y-186765D01*
X-629080Y-190000D01*
X-628761Y-193235D01*
X-627818Y-196345D01*
X-626286Y-199211D01*
X-624224Y-201724D01*
X-621711Y-203786D01*
X-619907Y-204750D01*
Y-205250D01*
X-621711Y-206214D01*
X-624224Y-208276D01*
X-626286Y-210789D01*
X-627818Y-213655D01*
X-628761Y-216765D01*
X-629080Y-220000D01*
X-628761Y-223235D01*
X-628526Y-224011D01*
X-628958Y-224310D01*
X-629432Y-223946D01*
X-631925Y-222913D01*
X-634601Y-222561D01*
X-637998D01*
Y-213899D01*
Y-191899D01*
X-642452D01*
X-642948Y-190700D01*
X-644791Y-188298D01*
X-647194Y-186455D01*
X-649991Y-185296D01*
X-652993Y-184901D01*
X-655995Y-185296D01*
X-658793Y-186455D01*
X-661195Y-188298D01*
X-663039Y-190700D01*
X-663535Y-191899D01*
X-666998D01*
Y-200399D01*
X-683308D01*
X-692403Y-191304D01*
X-695066Y-189261D01*
X-698168Y-187976D01*
X-701496Y-187538D01*
X-758494D01*
X-761822Y-187976D01*
X-764924Y-189261D01*
X-767587Y-191304D01*
X-796591Y-220308D01*
X-798635Y-222972D01*
X-799919Y-226073D01*
X-800358Y-229402D01*
Y-254996D01*
X-807497D01*
Y-294996D01*
X-797592D01*
X-797413Y-295496D01*
X-799932Y-297563D01*
X-802119Y-300228D01*
X-803744Y-303268D01*
X-804744Y-306567D01*
X-804787Y-306998D01*
X-787498D01*
X-770208D01*
X-770251Y-306567D01*
X-771251Y-303268D01*
X-772876Y-300228D01*
X-775063Y-297563D01*
X-777582Y-295496D01*
X-777403Y-294996D01*
X-767497D01*
Y-254996D01*
X-774638D01*
Y-234728D01*
X-753167Y-213258D01*
X-738997D01*
Y-217399D01*
X-727998D01*
Y-223399D01*
X-738997D01*
Y-232899D01*
Y-234899D01*
X-727998D01*
Y-237899D01*
X-725498D01*
Y-250399D01*
X-725498D01*
Y-252899D01*
X-722840D01*
Y-262997D01*
X-722471Y-265804D01*
X-722294Y-266231D01*
X-722544Y-266664D01*
X-723922Y-266845D01*
X-727206Y-268205D01*
X-730026Y-270369D01*
X-732190Y-273189D01*
X-733550Y-276473D01*
X-734014Y-279998D01*
X-733550Y-283522D01*
X-732190Y-286806D01*
X-730026Y-289626D01*
X-727206Y-291790D01*
X-723922Y-293150D01*
X-720397Y-293614D01*
X-716873Y-293150D01*
X-713589Y-291790D01*
X-710769Y-289626D01*
X-708605Y-286806D01*
X-707947Y-285218D01*
X-707448D01*
X-706790Y-286806D01*
X-704626Y-289626D01*
X-701806Y-291790D01*
X-698522Y-293150D01*
X-694997Y-293614D01*
X-691473Y-293150D01*
X-688189Y-291790D01*
X-685369Y-289626D01*
X-683205Y-286806D01*
X-682548Y-285218D01*
X-682048D01*
X-681390Y-286806D01*
X-679226Y-289626D01*
X-676406Y-291790D01*
X-673122Y-293150D01*
X-669597Y-293614D01*
X-666073Y-293150D01*
X-662789Y-291790D01*
X-660895Y-290336D01*
X-649285D01*
X-644311Y-295310D01*
X-642170Y-296952D01*
X-639677Y-297985D01*
X-637001Y-298338D01*
X-632003D01*
Y-300999D01*
X-593003D01*
Y-286499D01*
X-584502D01*
Y-287499D01*
X-574502D01*
Y-293499D01*
X-584502D01*
Y-300999D01*
Y-302500D01*
X-574502D01*
Y-308500D01*
X-584502D01*
Y-313032D01*
X-586711Y-314214D01*
X-589224Y-316275D01*
X-591286Y-318788D01*
X-592818Y-321654D01*
X-593761Y-324765D01*
X-594080Y-327999D01*
X-593761Y-331234D01*
X-592818Y-334344D01*
X-591286Y-337210D01*
X-589224Y-339723D01*
X-586711Y-341785D01*
X-583845Y-343317D01*
X-580735Y-344260D01*
X-577500Y-344579D01*
X-574265Y-344260D01*
X-573402Y-343998D01*
X-573000Y-344296D01*
Y-347996D01*
X-571205D01*
X-571204Y-348002D01*
X-570045Y-350800D01*
X-568202Y-353202D01*
X-565800Y-355045D01*
X-563002Y-356204D01*
X-563000Y-356204D01*
Y-376754D01*
X-560500D01*
Y-376754D01*
X-550000D01*
Y-378254D01*
X-547001D01*
Y-380177D01*
X-547000D01*
Y-388254D01*
X-544500D01*
Y-390176D01*
X-530000D01*
X-515500D01*
Y-386176D01*
X-475569D01*
X-475502Y-386204D01*
X-474138Y-386384D01*
X-473978Y-386857D01*
X-484282Y-397162D01*
X-515500D01*
Y-396176D01*
X-530000D01*
X-544500D01*
Y-397162D01*
X-610718D01*
X-628292Y-379588D01*
X-630433Y-377945D01*
X-632926Y-376912D01*
X-635602Y-376559D01*
X-637998D01*
Y-375898D01*
X-642159D01*
Y-359096D01*
X-642511Y-356421D01*
X-643544Y-353927D01*
X-645187Y-351786D01*
X-656133Y-340840D01*
X-656445Y-338472D01*
X-657805Y-335188D01*
X-659969Y-332368D01*
X-662789Y-330204D01*
X-666073Y-328844D01*
X-669597Y-328380D01*
X-673122Y-328844D01*
X-676406Y-330204D01*
X-679226Y-332368D01*
X-681390Y-335188D01*
X-682048Y-336776D01*
X-682548D01*
X-683205Y-335188D01*
X-685369Y-332368D01*
X-688189Y-330204D01*
X-691473Y-328844D01*
X-694997Y-328380D01*
X-698522Y-328844D01*
X-701806Y-330204D01*
X-704626Y-332368D01*
X-706790Y-335188D01*
X-707448Y-336776D01*
X-707947D01*
X-708605Y-335188D01*
X-710769Y-332368D01*
X-713589Y-330204D01*
X-716873Y-328844D01*
X-720397Y-328380D01*
X-723922Y-328844D01*
X-727206Y-330204D01*
X-730026Y-332368D01*
X-732190Y-335188D01*
X-733550Y-338472D01*
X-734014Y-341996D01*
X-733550Y-345521D01*
X-732190Y-348805D01*
X-730026Y-351625D01*
X-727206Y-353788D01*
X-723922Y-355149D01*
X-722582Y-355325D01*
X-722332Y-355758D01*
X-722471Y-356093D01*
X-722840Y-358899D01*
Y-366996D01*
X-725498D01*
Y-369496D01*
X-725498D01*
Y-381996D01*
X-727998D01*
Y-384996D01*
X-738997D01*
Y-394496D01*
Y-396497D01*
X-727998D01*
Y-402496D01*
X-738997D01*
Y-407037D01*
X-749671D01*
X-774638Y-382070D01*
Y-360315D01*
X-773287Y-359207D01*
X-770788Y-356161D01*
X-768931Y-352687D01*
X-767787Y-348917D01*
X-767401Y-344996D01*
X-767787Y-341076D01*
X-768931Y-337305D01*
X-770788Y-333831D01*
X-773287Y-330786D01*
X-776332Y-328286D01*
X-779807Y-326429D01*
X-780016Y-326366D01*
X-780065Y-325868D01*
X-777728Y-324619D01*
X-775063Y-322432D01*
X-772876Y-319767D01*
X-771251Y-316727D01*
X-770251Y-313428D01*
X-770208Y-312998D01*
X-787498D01*
X-804787D01*
X-804744Y-313428D01*
X-803744Y-316727D01*
X-802119Y-319767D01*
X-799932Y-322432D01*
X-797267Y-324619D01*
X-794930Y-325868D01*
X-794979Y-326366D01*
X-795188Y-326429D01*
X-798663Y-328286D01*
X-801708Y-330786D01*
X-804207Y-333831D01*
X-806065Y-337305D01*
X-807208Y-341076D01*
X-807594Y-344996D01*
X-807208Y-348917D01*
X-806065Y-352687D01*
X-804207Y-356161D01*
X-801708Y-359207D01*
X-800358Y-360315D01*
Y-387397D01*
X-799919Y-390725D01*
X-798635Y-393827D01*
X-796591Y-396490D01*
X-764091Y-428990D01*
X-761428Y-431034D01*
X-758326Y-432318D01*
X-754997Y-432757D01*
X-701496D01*
X-698168Y-432318D01*
X-695066Y-431034D01*
X-692403Y-428990D01*
X-682811Y-419398D01*
X-666998D01*
Y-427898D01*
X-637998D01*
Y-427236D01*
X-479398D01*
X-476722Y-426884D01*
X-474229Y-425851D01*
X-472088Y-424208D01*
X-442690Y-394810D01*
X-441047Y-392669D01*
X-440014Y-390176D01*
X-439662Y-387500D01*
Y-346694D01*
X-439286Y-346364D01*
X-437500Y-346599D01*
X-434498Y-346204D01*
X-433222Y-345676D01*
X-433202Y-345702D01*
X-430800Y-347545D01*
X-428002Y-348704D01*
X-425000Y-349099D01*
X-421998Y-348704D01*
X-419200Y-347545D01*
X-416798Y-345702D01*
X-414955Y-343300D01*
X-413796Y-340502D01*
X-413401Y-337500D01*
X-413796Y-334498D01*
X-414955Y-331700D01*
X-415166Y-331425D01*
Y-278000D01*
X-380502D01*
Y-277911D01*
X-380031Y-277743D01*
X-379844Y-277970D01*
X-378526Y-279052D01*
Y-279552D01*
X-379844Y-280633D01*
X-381844Y-283069D01*
X-383329Y-285849D01*
X-384244Y-288865D01*
X-384553Y-292002D01*
X-384244Y-295138D01*
X-383329Y-298154D01*
X-381844Y-300934D01*
X-379844Y-303370D01*
X-378526Y-304452D01*
Y-304952D01*
X-379844Y-306033D01*
X-381844Y-308470D01*
X-383329Y-311249D01*
X-384244Y-314265D01*
X-384553Y-317402D01*
X-384244Y-320538D01*
X-383329Y-323554D01*
X-381844Y-326334D01*
X-379844Y-328770D01*
X-377408Y-330770D01*
X-374628Y-332255D01*
X-371612Y-333170D01*
X-368476Y-333479D01*
X-365339Y-333170D01*
X-362323Y-332255D01*
X-359544Y-330770D01*
X-357107Y-328770D01*
X-356026Y-327452D01*
X-355526D01*
X-354444Y-328770D01*
X-352008Y-330770D01*
X-349228Y-332255D01*
X-346212Y-333170D01*
X-343076Y-333479D01*
X-339939Y-333170D01*
X-336923Y-332255D01*
X-334144Y-330770D01*
X-331707Y-328770D01*
X-330305Y-327061D01*
X-329834Y-327230D01*
Y-352704D01*
X-330250Y-352982D01*
X-330667Y-352809D01*
X-333800Y-352397D01*
X-336933Y-352809D01*
X-339852Y-354018D01*
X-340150Y-354247D01*
X-340448Y-354018D01*
X-343367Y-352809D01*
X-346500Y-352397D01*
X-349633Y-352809D01*
X-352552Y-354018D01*
X-355051Y-355936D01*
X-356200Y-355460D01*
Y-357428D01*
X-356982Y-358448D01*
X-358192Y-361367D01*
X-358604Y-364500D01*
Y-373500D01*
X-359796D01*
Y-364500D01*
X-360208Y-361367D01*
X-361418Y-358448D01*
X-362200Y-357428D01*
Y-355460D01*
X-363349Y-355936D01*
X-365848Y-354018D01*
X-368767Y-352809D01*
X-371900Y-352397D01*
X-375033Y-352809D01*
X-377952Y-354018D01*
X-378155Y-354174D01*
X-378588Y-353924D01*
X-378401Y-352500D01*
X-378796Y-349498D01*
X-379955Y-346700D01*
X-381798Y-344298D01*
X-384200Y-342455D01*
X-386998Y-341296D01*
X-390000Y-340901D01*
X-393002Y-341296D01*
X-395800Y-342455D01*
X-398202Y-344298D01*
X-400045Y-346700D01*
X-401204Y-349498D01*
X-401599Y-352500D01*
X-401204Y-355502D01*
X-400500Y-357202D01*
Y-380498D01*
X-398000D01*
Y-380499D01*
X-387500D01*
Y-381999D01*
X-384500D01*
Y-391998D01*
X-382238D01*
Y-407261D01*
X-382382Y-407448D01*
X-383591Y-410367D01*
X-384003Y-413500D01*
Y-431500D01*
X-383591Y-434633D01*
X-382382Y-437552D01*
X-380458Y-440059D01*
X-377952Y-441982D01*
X-375033Y-443191D01*
X-371900Y-443604D01*
X-368767Y-443191D01*
X-365848Y-441982D01*
X-363349Y-440064D01*
X-362200Y-440540D01*
Y-438572D01*
X-361418Y-437552D01*
X-360208Y-434633D01*
X-359796Y-431500D01*
Y-422500D01*
X-356200D01*
Y-440540D01*
X-354409Y-439798D01*
X-352850Y-438602D01*
X-351291Y-439798D01*
X-349500Y-440540D01*
Y-422500D01*
X-343500D01*
Y-440540D01*
X-341709Y-439798D01*
X-340150Y-438602D01*
X-338591Y-439798D01*
X-336800Y-440540D01*
Y-422500D01*
X-333800D01*
Y-419500D01*
X-324218D01*
Y-413500D01*
X-324544Y-411020D01*
X-325502Y-408709D01*
X-327024Y-406725D01*
X-328837Y-405334D01*
X-328667Y-404834D01*
X-322500D01*
X-322500Y-404834D01*
X-321227Y-404667D01*
X-319955Y-404499D01*
X-317583Y-403517D01*
X-315546Y-401954D01*
X-308046Y-394454D01*
X-308046Y-394454D01*
X-306483Y-392417D01*
X-305501Y-390045D01*
X-305166Y-387500D01*
X-305166Y-387500D01*
Y-250000D01*
X-305501Y-247455D01*
X-306483Y-245083D01*
X-308046Y-243046D01*
X-308046Y-243046D01*
X-316845Y-234248D01*
X-318881Y-232685D01*
X-321253Y-231703D01*
X-322526Y-231535D01*
X-323798Y-231367D01*
X-323799Y-231367D01*
X-330448D01*
X-331707Y-229833D01*
X-334144Y-227834D01*
X-335173Y-227284D01*
X-335214Y-226785D01*
X-333447Y-225430D01*
X-331283Y-222610D01*
X-329923Y-219326D01*
X-329854Y-218802D01*
X-343076D01*
Y-212802D01*
X-329854D01*
X-329923Y-212277D01*
X-331283Y-208993D01*
X-333447Y-206173D01*
X-335214Y-204818D01*
X-335173Y-204320D01*
X-334144Y-203769D01*
X-331707Y-201770D01*
X-329708Y-199334D01*
X-328222Y-196554D01*
X-327307Y-193538D01*
X-326998Y-190402D01*
X-327275Y-187590D01*
X-326877Y-187090D01*
X-311752D01*
X-309076Y-186738D01*
X-306582Y-185705D01*
X-304441Y-184062D01*
X-303218Y-182838D01*
X-260355D01*
X278218Y-182838D01*
X289417Y-194038D01*
X289226Y-194500D01*
X288002D01*
Y-220500D01*
X327002D01*
X327002Y-220500D01*
Y-220500D01*
X327445Y-220662D01*
X327867Y-222053D01*
X329353Y-224832D01*
X331352Y-227269D01*
X332670Y-228350D01*
Y-228850D01*
X331352Y-229932D01*
X329353Y-232368D01*
X327867Y-235147D01*
X326952Y-238164D01*
X326643Y-241300D01*
X326952Y-244436D01*
X327867Y-247453D01*
X329353Y-250232D01*
X331352Y-252668D01*
X332670Y-253750D01*
Y-254250D01*
X331352Y-255331D01*
X329353Y-257768D01*
X327867Y-260547D01*
X326952Y-263563D01*
X326643Y-266700D01*
X326952Y-269837D01*
X327867Y-272853D01*
X329353Y-275632D01*
X331352Y-278069D01*
X332670Y-279150D01*
Y-279650D01*
X331352Y-280732D01*
X329353Y-283168D01*
X327867Y-285947D01*
X326952Y-288964D01*
X326643Y-292100D01*
X326952Y-295236D01*
X327867Y-298253D01*
X329353Y-301032D01*
X331352Y-303468D01*
X332670Y-304550D01*
Y-305050D01*
X331352Y-306131D01*
X329353Y-308568D01*
X327867Y-311347D01*
X326952Y-314363D01*
X326643Y-317500D01*
X326952Y-320636D01*
X327867Y-323653D01*
X329353Y-326432D01*
X331352Y-328868D01*
X333788Y-330868D01*
X336568Y-332354D01*
X339584Y-333269D01*
X342721Y-333577D01*
X345857Y-333269D01*
X348873Y-332354D01*
X351653Y-330868D01*
X354089Y-328868D01*
X356088Y-326432D01*
X356639Y-325403D01*
X357137Y-325362D01*
X358492Y-327128D01*
X361312Y-329292D01*
X364596Y-330653D01*
X365121Y-330722D01*
Y-317500D01*
X368121D01*
Y-314500D01*
X381342D01*
X381273Y-313976D01*
X379913Y-310692D01*
X377749Y-307872D01*
X375983Y-306516D01*
X376023Y-306018D01*
X377053Y-305468D01*
X379489Y-303468D01*
X381488Y-301032D01*
X382974Y-298253D01*
X383889Y-295236D01*
X384198Y-292100D01*
X383889Y-288964D01*
X382974Y-285947D01*
X381488Y-283168D01*
X379489Y-280732D01*
X378171Y-279650D01*
Y-279150D01*
X379489Y-278069D01*
X381488Y-275632D01*
X382974Y-272853D01*
X383889Y-269837D01*
X384198Y-266700D01*
X383889Y-263563D01*
X382974Y-260547D01*
X381488Y-257768D01*
X379489Y-255331D01*
X378171Y-254250D01*
Y-253750D01*
X379489Y-252668D01*
X381488Y-250232D01*
X382974Y-247453D01*
X383889Y-244436D01*
X384198Y-241300D01*
X383889Y-238164D01*
X382974Y-235147D01*
X381488Y-232368D01*
X379489Y-229932D01*
X378171Y-228850D01*
Y-228350D01*
X379489Y-227269D01*
X381488Y-224832D01*
X382974Y-222053D01*
X383889Y-219037D01*
X384198Y-215900D01*
X383889Y-212764D01*
X382974Y-209747D01*
X381488Y-206968D01*
X379489Y-204531D01*
X378171Y-203450D01*
Y-202950D01*
X379489Y-201868D01*
X381488Y-199432D01*
X382974Y-196653D01*
X383889Y-193636D01*
X384198Y-190500D01*
X383889Y-187363D01*
X382974Y-184347D01*
X381488Y-181568D01*
X379489Y-179132D01*
X378171Y-178050D01*
Y-177550D01*
X379489Y-176469D01*
X381488Y-174032D01*
X382974Y-171253D01*
X383889Y-168237D01*
X384198Y-165100D01*
X383889Y-161964D01*
X382974Y-158947D01*
X381488Y-156168D01*
X379489Y-153731D01*
X378171Y-152650D01*
Y-152150D01*
X379489Y-151068D01*
X381488Y-148632D01*
X382974Y-145853D01*
X383889Y-142837D01*
X384198Y-139700D01*
X383889Y-136564D01*
X382974Y-133547D01*
X381488Y-130768D01*
X379489Y-128331D01*
X378171Y-127250D01*
Y-126750D01*
X379489Y-125668D01*
X381488Y-123232D01*
X382974Y-120453D01*
X383889Y-117437D01*
X384198Y-114300D01*
X383889Y-111164D01*
X382974Y-108147D01*
X381488Y-105368D01*
X379489Y-102931D01*
X378171Y-101850D01*
Y-101350D01*
X379489Y-100268D01*
X381488Y-97832D01*
X382974Y-95053D01*
X383889Y-92037D01*
X384198Y-88900D01*
X383889Y-85764D01*
X382974Y-82747D01*
X381488Y-79968D01*
X379489Y-77531D01*
X378171Y-76450D01*
Y-75950D01*
X379489Y-74868D01*
X381488Y-72432D01*
X382974Y-69653D01*
X383889Y-66637D01*
X384198Y-63500D01*
X383889Y-60363D01*
X382974Y-57347D01*
X381488Y-54568D01*
X379489Y-52132D01*
X378171Y-51050D01*
Y-50550D01*
X379489Y-49468D01*
X381488Y-47032D01*
X382974Y-44253D01*
X383889Y-41237D01*
X384198Y-38100D01*
X383889Y-34964D01*
X382974Y-31947D01*
X381488Y-29168D01*
X379489Y-26732D01*
X378171Y-25650D01*
Y-25150D01*
X379489Y-24069D01*
X381488Y-21632D01*
X382974Y-18853D01*
X383708Y-16435D01*
X384193Y-16313D01*
X393087Y-25208D01*
Y-35925D01*
X393439Y-38601D01*
X394472Y-41094D01*
X396115Y-43236D01*
X405192Y-52313D01*
X407333Y-53956D01*
X409827Y-54989D01*
X412503Y-55341D01*
X426500D01*
Y-65002D01*
X466500D01*
Y-25003D01*
X460489D01*
X460321Y-24532D01*
X460711Y-24212D01*
X463210Y-21167D01*
X465067Y-17692D01*
X466211Y-13922D01*
X466597Y-10001D01*
X466211Y-6081D01*
X465067Y-2311D01*
X463210Y1164D01*
X460711Y4209D01*
X457665Y6709D01*
X454191Y8566D01*
X453981Y8629D01*
X453932Y9127D01*
X456269Y10376D01*
X458934Y12563D01*
X461121Y15228D01*
X462746Y18268D01*
X463747Y21567D01*
X463789Y21997D01*
X446500D01*
X429211D01*
X429253Y21567D01*
X430254Y18268D01*
X431879Y15228D01*
X434066Y12563D01*
X436730Y10376D01*
X439068Y9127D01*
X439019Y8629D01*
X438809Y8566D01*
X435335Y6709D01*
X432289Y4209D01*
X429790Y1164D01*
X429348Y337D01*
X426784D01*
X394810Y32310D01*
X392669Y33953D01*
X390176Y34986D01*
X387500Y35338D01*
X384298D01*
X383963Y35709D01*
X384198Y38100D01*
X383889Y41237D01*
X382974Y44253D01*
X381488Y47032D01*
X379489Y49468D01*
X378171Y50550D01*
Y51050D01*
X379489Y52132D01*
X381488Y54568D01*
X382974Y57347D01*
X383889Y60363D01*
X384198Y63500D01*
X383889Y66637D01*
X382974Y69653D01*
X381488Y72432D01*
X379489Y74868D01*
X378171Y75950D01*
Y76450D01*
X379489Y77531D01*
X381488Y79968D01*
X382974Y82747D01*
X383889Y85764D01*
X384198Y88900D01*
X383889Y92037D01*
X382974Y95053D01*
X381488Y97832D01*
X379489Y100268D01*
X378171Y101350D01*
Y101850D01*
X379489Y102931D01*
X381488Y105368D01*
X382974Y108147D01*
X383889Y111164D01*
X384198Y114300D01*
X384095Y115341D01*
X384431Y115712D01*
X392168D01*
X412690Y95190D01*
X414831Y93547D01*
X417324Y92514D01*
X420000Y92162D01*
X427000D01*
Y82500D01*
X467000D01*
Y122500D01*
X460991D01*
X460822Y122971D01*
X461211Y123289D01*
X463710Y126335D01*
X465567Y129809D01*
X466711Y133579D01*
X467097Y137500D01*
X466711Y141421D01*
X465567Y145191D01*
X463710Y148665D01*
X461211Y151711D01*
X458165Y154210D01*
X454691Y156067D01*
X450921Y157211D01*
X447000Y157597D01*
X443079Y157211D01*
X439309Y156067D01*
X435835Y154210D01*
X432789Y151711D01*
X430290Y148665D01*
X429848Y147838D01*
X419282D01*
X407310Y159810D01*
X405169Y161453D01*
X402676Y162486D01*
X400000Y162838D01*
X384347D01*
X384012Y163209D01*
X384198Y165100D01*
X383889Y168237D01*
X382974Y171253D01*
X381488Y174032D01*
X379489Y176469D01*
X378171Y177550D01*
Y178050D01*
X379489Y179132D01*
X381488Y181568D01*
X382974Y184347D01*
X383889Y187363D01*
X384198Y190500D01*
X383889Y193636D01*
X382974Y196653D01*
X381488Y199432D01*
X379489Y201868D01*
X378171Y202950D01*
Y203450D01*
X379489Y204531D01*
X381488Y206968D01*
X382974Y209747D01*
X383889Y212764D01*
X383942Y213298D01*
X384412Y213467D01*
X412690Y185190D01*
X414831Y183547D01*
X417324Y182514D01*
X420000Y182162D01*
X427000D01*
Y172500D01*
X467000D01*
Y212500D01*
X460991D01*
X460822Y212971D01*
X461211Y213289D01*
X463710Y216335D01*
X465567Y219809D01*
X466711Y223579D01*
X467097Y227500D01*
X466711Y231421D01*
X465567Y235191D01*
X463710Y238665D01*
X461211Y241710D01*
X458165Y244210D01*
X454691Y246067D01*
X450921Y247211D01*
X447000Y247597D01*
X443079Y247211D01*
X439309Y246067D01*
X435835Y244210D01*
X432789Y241710D01*
X430290Y238665D01*
X429848Y237838D01*
X414282D01*
X391760Y260360D01*
X389619Y262003D01*
X387126Y263036D01*
X384450Y263388D01*
X384319D01*
X383921Y263888D01*
X384198Y266700D01*
X383889Y269837D01*
X382974Y272853D01*
X381488Y275632D01*
X379489Y278069D01*
X378171Y279150D01*
Y279650D01*
X379489Y280732D01*
X381488Y283168D01*
X382974Y285947D01*
X383889Y288964D01*
X384198Y292100D01*
X383889Y295236D01*
X382974Y298253D01*
X381488Y301032D01*
X379489Y303468D01*
X379415Y303529D01*
X379583Y304000D01*
X381620D01*
Y314500D01*
X368121D01*
Y317500D01*
X365121D01*
Y331000D01*
X354621D01*
Y328963D01*
X354150Y328794D01*
X354089Y328868D01*
X351653Y330868D01*
X348873Y332354D01*
X345857Y333269D01*
X342721Y333577D01*
X339584Y333269D01*
X336568Y332354D01*
X333788Y330868D01*
X331352Y328868D01*
X329353Y326432D01*
X327867Y323653D01*
X326952Y320636D01*
X326643Y317500D01*
X326952Y314363D01*
X327867Y311347D01*
X329353Y308568D01*
X331352Y306131D01*
X332670Y305050D01*
Y304550D01*
X331352Y303468D01*
X329353Y301032D01*
X327867Y298253D01*
X326952Y295236D01*
X326643Y292100D01*
X326952Y288964D01*
X327867Y285947D01*
X329353Y283168D01*
X331352Y280732D01*
X332670Y279650D01*
Y279150D01*
X331352Y278069D01*
X329353Y275632D01*
X327867Y272853D01*
X326952Y269837D01*
X326874Y269040D01*
X326415Y268841D01*
X326269Y268953D01*
X323776Y269986D01*
X321100Y270338D01*
X318250D01*
Y292623D01*
X308750D01*
Y314373D01*
X285250D01*
Y310712D01*
X132873D01*
X130198Y310359D01*
X127704Y309327D01*
X125563Y307684D01*
X117948Y300069D01*
X116305Y297927D01*
X115272Y295434D01*
X114920Y292758D01*
Y260100D01*
X108508D01*
Y226100D01*
Y200700D01*
Y175300D01*
Y149900D01*
X114920D01*
Y122242D01*
X115272Y119566D01*
X116305Y117072D01*
X117948Y114931D01*
X126690Y106190D01*
X128831Y104547D01*
X131324Y103514D01*
X134000Y103162D01*
X155498D01*
Y93000D01*
X228498D01*
Y109662D01*
X232282D01*
Y97424D01*
X276714D01*
Y107000D01*
X314000D01*
Y109662D01*
X322500D01*
X325176Y110014D01*
X326720Y110653D01*
X327172Y110440D01*
X327867Y108147D01*
X329353Y105368D01*
X331352Y102931D01*
X332670Y101850D01*
Y101350D01*
X331352Y100268D01*
X329353Y97832D01*
X327867Y95053D01*
X326952Y92037D01*
X326643Y88900D01*
X326952Y85764D01*
X327867Y82747D01*
X329353Y79968D01*
X331352Y77531D01*
X332670Y76450D01*
Y75950D01*
X331352Y74868D01*
X329353Y72432D01*
X327867Y69653D01*
X326952Y66637D01*
X326643Y63500D01*
X326952Y60363D01*
X327867Y57347D01*
X329353Y54568D01*
X331352Y52132D01*
X332670Y51050D01*
Y50550D01*
X331352Y49468D01*
X329353Y47032D01*
X327867Y44253D01*
X326952Y41237D01*
X326643Y38100D01*
X326879Y35709D01*
X326543Y35338D01*
X309282D01*
X291871Y52750D01*
X289730Y54393D01*
X287236Y55426D01*
X284561Y55778D01*
X282498D01*
Y58439D01*
X253500D01*
Y69938D01*
X246000D01*
Y59938D01*
X240000D01*
Y69938D01*
X231000D01*
Y59938D01*
X228000D01*
Y58438D01*
X217500D01*
Y58438D01*
X215000D01*
Y55778D01*
X-53657D01*
X-64661Y66782D01*
Y191887D01*
X-64200Y192079D01*
X-31710Y159590D01*
X-29569Y157947D01*
X-27076Y156914D01*
X-24400Y156562D01*
X-10500D01*
Y155502D01*
X11988D01*
Y149900D01*
X45488D01*
Y183900D01*
X42988D01*
Y189300D01*
X28739D01*
Y195300D01*
X42988D01*
Y200700D01*
X45488D01*
Y234700D01*
X42988D01*
Y240100D01*
X28739D01*
Y243100D01*
X25738D01*
Y257600D01*
X14488D01*
Y244502D01*
X13083D01*
X12545Y245800D01*
X10702Y248202D01*
X8300Y250045D01*
X5502Y251204D01*
X2500Y251599D01*
X-502Y251204D01*
X-3300Y250045D01*
X-5702Y248202D01*
X-7545Y245800D01*
X-8083Y244502D01*
X-10500D01*
Y228039D01*
X-13418D01*
X-34662Y249282D01*
Y317998D01*
X-32000D01*
Y331998D01*
Y356998D01*
X-34662D01*
Y357500D01*
X-35014Y360176D01*
X-36047Y362669D01*
X-37690Y364810D01*
X-53363Y380484D01*
Y381280D01*
X-52333Y382125D01*
X-50334Y384562D01*
X-49784Y385591D01*
X-49285Y385632D01*
X-47930Y383866D01*
X-45110Y381702D01*
X-41826Y380341D01*
X-41302Y380272D01*
Y393494D01*
X-35302D01*
Y380272D01*
X-34778Y380341D01*
X-31493Y381702D01*
X-28673Y383866D01*
X-27318Y385632D01*
X-26820Y385591D01*
X-26270Y384562D01*
X-24270Y382125D01*
X-21834Y380126D01*
X-19054Y378640D01*
X-16038Y377725D01*
X-12902Y377416D01*
X-9765Y377725D01*
X-6749Y378640D01*
X-3970Y380126D01*
X-1533Y382125D01*
X-452Y383443D01*
X48D01*
X1130Y382125D01*
X3566Y380126D01*
X6346Y378640D01*
X9362Y377725D01*
X12498Y377416D01*
X15635Y377725D01*
X18651Y378640D01*
X21430Y380126D01*
X23867Y382125D01*
X24948Y383443D01*
X25448D01*
X26530Y382125D01*
X28966Y380126D01*
X31746Y378640D01*
X34762Y377725D01*
X37898Y377416D01*
X41035Y377725D01*
X44051Y378640D01*
X46831Y380126D01*
X49267Y382125D01*
X50348Y383443D01*
X50848D01*
X51930Y382125D01*
X54366Y380126D01*
X57146Y378640D01*
X60162Y377725D01*
X63298Y377416D01*
X66435Y377725D01*
X69451Y378640D01*
X72231Y380126D01*
X74667Y382125D01*
X76666Y384562D01*
X77216Y385591D01*
X77715Y385632D01*
X79070Y383866D01*
X81890Y381702D01*
X85174Y380341D01*
X85698Y380272D01*
Y393494D01*
X91698D01*
Y380272D01*
X92222Y380341D01*
X95507Y381702D01*
X98327Y383866D01*
X99682Y385632D01*
X100180Y385591D01*
X100730Y384562D01*
X102730Y382125D01*
X105166Y380126D01*
X107946Y378640D01*
X110962Y377725D01*
X114098Y377416D01*
X117235Y377725D01*
X120251Y378640D01*
X123031Y380126D01*
X125467Y382125D01*
X126548Y383443D01*
X127048D01*
X128130Y382125D01*
X130566Y380126D01*
X133346Y378640D01*
X136362Y377725D01*
X139498Y377416D01*
X142635Y377725D01*
X145651Y378640D01*
X148431Y380126D01*
X150867Y382125D01*
X151948Y383443D01*
X152448D01*
X153530Y382125D01*
X155966Y380126D01*
X158746Y378640D01*
X161762Y377725D01*
X164898Y377416D01*
X168035Y377725D01*
X171051Y378640D01*
X173831Y380126D01*
X176267Y382125D01*
X177348Y383443D01*
X177848D01*
X178930Y382125D01*
X181366Y380126D01*
X184146Y378640D01*
X187162Y377725D01*
X190298Y377416D01*
X193435Y377725D01*
X196451Y378640D01*
X199230Y380126D01*
X201667Y382125D01*
X203666Y384562D01*
X204216Y385591D01*
X204715Y385632D01*
X206070Y383866D01*
X208890Y381702D01*
X212174Y380341D01*
X212698Y380272D01*
Y393494D01*
X218698D01*
Y380272D01*
X219223Y380341D01*
X222507Y381702D01*
X225327Y383866D01*
X226682Y385632D01*
X227180Y385591D01*
X227731Y384562D01*
X229730Y382125D01*
X232166Y380126D01*
X234946Y378640D01*
X237962Y377725D01*
X241098Y377416D01*
X244235Y377725D01*
X247251Y378640D01*
X250030Y380126D01*
X252467Y382125D01*
X253548Y383443D01*
X254048D01*
X255130Y382125D01*
X257566Y380126D01*
X260346Y378640D01*
X263362Y377725D01*
X266498Y377416D01*
X269635Y377725D01*
X272651Y378640D01*
X275431Y380126D01*
X277867Y382125D01*
X278948Y383443D01*
X279448D01*
X280530Y382125D01*
X282966Y380126D01*
X285746Y378640D01*
X288762Y377725D01*
X291898Y377416D01*
X295035Y377725D01*
X298051Y378640D01*
X300830Y380126D01*
X303267Y382125D01*
X304348Y383443D01*
X304848D01*
X305930Y382125D01*
X308366Y380126D01*
X311146Y378640D01*
X314162Y377725D01*
X317298Y377416D01*
X320435Y377725D01*
X323451Y378640D01*
X326231Y380126D01*
X328667Y382125D01*
X330666Y384562D01*
X332152Y387341D01*
X333067Y390357D01*
X333376Y393494D01*
X333067Y396630D01*
X332152Y399646D01*
X330666Y402426D01*
X328667Y404862D01*
X327349Y405944D01*
Y406444D01*
X328667Y407525D01*
X330666Y409962D01*
X332152Y412741D01*
X333067Y415757D01*
X333376Y418894D01*
X333067Y422030D01*
X332152Y425047D01*
X330666Y427826D01*
X328667Y430262D01*
X326231Y432262D01*
X323451Y433747D01*
X320435Y434662D01*
X317298Y434971D01*
D02*
G37*
G36*
X-552998Y400500D02*
X-559998D01*
Y393000D01*
X-552998D01*
Y400500D01*
D02*
G37*
G36*
X-609998Y398000D02*
X-616998D01*
Y390500D01*
X-609998D01*
Y398000D01*
D02*
G37*
G36*
X381620Y331000D02*
X371121D01*
Y320500D01*
X381620D01*
Y331000D01*
D02*
G37*
G36*
X-790500Y304503D02*
X-804789D01*
X-804747Y304072D01*
X-803746Y300773D01*
X-802121Y297733D01*
X-799934Y295068D01*
X-797270Y292882D01*
X-794229Y291257D01*
X-790931Y290256D01*
X-790500Y290213D01*
Y304503D01*
D02*
G37*
G36*
X-770211D02*
X-784500D01*
Y290213D01*
X-784069Y290256D01*
X-780771Y291257D01*
X-777730Y292882D01*
X-775066Y295068D01*
X-772879Y297733D01*
X-771254Y300773D01*
X-770253Y304072D01*
X-770211Y304503D01*
D02*
G37*
G36*
X42988Y257600D02*
X31739D01*
Y246100D01*
X42988D01*
Y257600D01*
D02*
G37*
G36*
X-770211Y174502D02*
X-784500D01*
Y160213D01*
X-784069Y160256D01*
X-780771Y161257D01*
X-777730Y162882D01*
X-775066Y165068D01*
X-772879Y167733D01*
X-771254Y170773D01*
X-770253Y174072D01*
X-770211Y174502D01*
D02*
G37*
G36*
X-790500D02*
X-804789D01*
X-804747Y174072D01*
X-803746Y170773D01*
X-802121Y167733D01*
X-799934Y165068D01*
X-797270Y162882D01*
X-794229Y161257D01*
X-790931Y160256D01*
X-790500Y160213D01*
Y174502D01*
D02*
G37*
G36*
X225000Y69938D02*
X217500D01*
Y62938D01*
X225000D01*
Y69938D01*
D02*
G37*
G36*
X449500Y42287D02*
Y27997D01*
X463789D01*
X463747Y28428D01*
X462746Y31727D01*
X461121Y34767D01*
X458934Y37432D01*
X456269Y39618D01*
X453229Y41244D01*
X449931Y42244D01*
X449500Y42287D01*
D02*
G37*
G36*
X443500Y42287D02*
X443069Y42244D01*
X439771Y41244D01*
X436730Y39618D01*
X434066Y37432D01*
X431879Y34767D01*
X430254Y31727D01*
X429253Y28428D01*
X429211Y27997D01*
X443500D01*
Y42287D01*
D02*
G37*
G36*
X-419500Y-75500D02*
X-428000D01*
Y-87000D01*
X-419500D01*
Y-75500D01*
D02*
G37*
G36*
X-405000Y-93000D02*
X-413500D01*
Y-104500D01*
X-405000D01*
Y-93000D01*
D02*
G37*
G36*
X247702Y-201212D02*
X243095Y-201666D01*
X238665Y-203010D01*
X234583Y-205192D01*
X231004Y-208129D01*
X228476Y-211209D01*
X191928D01*
X189399Y-208129D01*
X185821Y-205192D01*
X181738Y-203010D01*
X177308Y-201666D01*
X172702Y-201212D01*
X168095Y-201666D01*
X163665Y-203010D01*
X159583Y-205192D01*
X156004Y-208129D01*
X153068Y-211707D01*
X150885Y-215789D01*
X149542Y-220219D01*
X149088Y-224826D01*
X149542Y-229433D01*
X150885Y-233862D01*
X153068Y-237945D01*
X156004Y-241523D01*
X159583Y-244460D01*
X163665Y-246642D01*
X168095Y-247986D01*
X172702Y-248440D01*
X177308Y-247986D01*
X181738Y-246642D01*
X185821Y-244460D01*
X187631Y-242974D01*
X188083Y-243188D01*
Y-256863D01*
X187631Y-257077D01*
X185821Y-255592D01*
X181738Y-253410D01*
X177308Y-252066D01*
X172702Y-251612D01*
X168095Y-252066D01*
X163665Y-253410D01*
X159583Y-255592D01*
X156004Y-258528D01*
X153068Y-262107D01*
X150885Y-266189D01*
X149542Y-270619D01*
X149088Y-275226D01*
X149542Y-279833D01*
X150885Y-284263D01*
X153068Y-288345D01*
X156004Y-291923D01*
X159583Y-294860D01*
X163665Y-297042D01*
X168095Y-298386D01*
X172702Y-298840D01*
X177308Y-298386D01*
X181738Y-297042D01*
X185821Y-294860D01*
X187631Y-293375D01*
X188083Y-293588D01*
Y-307264D01*
X187631Y-307477D01*
X185821Y-305992D01*
X181738Y-303810D01*
X177308Y-302466D01*
X172702Y-302012D01*
X168095Y-302466D01*
X163665Y-303810D01*
X159583Y-305992D01*
X156004Y-308929D01*
X153068Y-312507D01*
X150885Y-316589D01*
X149542Y-321019D01*
X149088Y-325626D01*
X149542Y-330233D01*
X150885Y-334663D01*
X153068Y-338745D01*
X156004Y-342323D01*
X159583Y-345260D01*
X163665Y-347442D01*
X168095Y-348786D01*
X172702Y-349240D01*
X177308Y-348786D01*
X181738Y-347442D01*
X185821Y-345260D01*
X187631Y-343774D01*
X188083Y-343988D01*
Y-347661D01*
X150572Y-385171D01*
X148408Y-387991D01*
X147048Y-391275D01*
X146584Y-394800D01*
Y-418926D01*
X140200D01*
Y-458926D01*
X180201D01*
Y-452915D01*
X180671Y-452747D01*
X180991Y-453136D01*
X184037Y-455636D01*
X187511Y-457493D01*
X191281Y-458637D01*
X195202Y-459023D01*
X199122Y-458637D01*
X202892Y-457493D01*
X206367Y-455636D01*
X209412Y-453136D01*
X211912Y-450091D01*
X212451Y-449082D01*
X212951D01*
X213490Y-450091D01*
X215990Y-453136D01*
X219035Y-455636D01*
X222510Y-457493D01*
X226280Y-458637D01*
X230200Y-459023D01*
X234121Y-458637D01*
X237891Y-457493D01*
X241366Y-455636D01*
X244411Y-453136D01*
X246910Y-450091D01*
X248767Y-446617D01*
X249911Y-442847D01*
X250297Y-438926D01*
X249911Y-435005D01*
X248767Y-431235D01*
X246910Y-427761D01*
X244411Y-424715D01*
X241366Y-422216D01*
X237891Y-420359D01*
X234121Y-419215D01*
X230200Y-418829D01*
X226280Y-419215D01*
X222510Y-420359D01*
X219035Y-422216D01*
X215990Y-424715D01*
X213490Y-427761D01*
X212951Y-428770D01*
X212451D01*
X211912Y-427761D01*
X209412Y-424715D01*
X208818Y-424228D01*
Y-395438D01*
X229830Y-374427D01*
X231994Y-371607D01*
X233354Y-368323D01*
X233818Y-364798D01*
Y-345217D01*
X234270Y-345004D01*
X234583Y-345260D01*
X238665Y-347442D01*
X243095Y-348786D01*
X247702Y-349240D01*
X252308Y-348786D01*
X256738Y-347442D01*
X260821Y-345260D01*
X264399Y-342323D01*
X267336Y-338745D01*
X269518Y-334663D01*
X270862Y-330233D01*
X271315Y-325626D01*
X270862Y-321019D01*
X269518Y-316589D01*
X267336Y-312507D01*
X264399Y-308929D01*
X260821Y-305992D01*
X256738Y-303810D01*
X252308Y-302466D01*
X247702Y-302012D01*
X243095Y-302466D01*
X239263Y-303628D01*
X238998Y-303186D01*
X243735Y-298449D01*
X247702Y-298840D01*
X252308Y-298386D01*
X256738Y-297042D01*
X260821Y-294860D01*
X264399Y-291923D01*
X267336Y-288345D01*
X269518Y-284263D01*
X270862Y-279833D01*
X271315Y-275226D01*
X270862Y-270619D01*
X269518Y-266189D01*
X267336Y-262107D01*
X264399Y-258528D01*
X260821Y-255592D01*
X256738Y-253410D01*
X252308Y-252066D01*
X247702Y-251612D01*
X243095Y-252066D01*
X238665Y-253410D01*
X234583Y-255592D01*
X231004Y-258528D01*
X228067Y-262107D01*
X225885Y-266189D01*
X224542Y-270619D01*
X224088Y-275226D01*
X224479Y-279192D01*
X215778Y-287893D01*
X215316Y-287702D01*
Y-238442D01*
X228476D01*
X231004Y-241523D01*
X234583Y-244460D01*
X238665Y-246642D01*
X243095Y-247986D01*
X247702Y-248440D01*
X252308Y-247986D01*
X256738Y-246642D01*
X260821Y-244460D01*
X264399Y-241523D01*
X267336Y-237945D01*
X269518Y-233862D01*
X270862Y-229433D01*
X271315Y-224826D01*
X270862Y-220219D01*
X269518Y-215789D01*
X267336Y-211707D01*
X264399Y-208129D01*
X260821Y-205192D01*
X256738Y-203010D01*
X252308Y-201666D01*
X247702Y-201212D01*
D02*
G37*
G36*
X107702D02*
X103095Y-201666D01*
X98665Y-203010D01*
X94583Y-205192D01*
X91004Y-208129D01*
X88476Y-211209D01*
X51927D01*
X49399Y-208129D01*
X45821Y-205192D01*
X41738Y-203010D01*
X37308Y-201666D01*
X32702Y-201212D01*
X28095Y-201666D01*
X23665Y-203010D01*
X19583Y-205192D01*
X16004Y-208129D01*
X13068Y-211707D01*
X10885Y-215789D01*
X9542Y-220219D01*
X9088Y-224826D01*
X9542Y-229433D01*
X10885Y-233862D01*
X13068Y-237945D01*
X16004Y-241523D01*
X19583Y-244460D01*
X23665Y-246642D01*
X28095Y-247986D01*
X32702Y-248440D01*
X37308Y-247986D01*
X41738Y-246642D01*
X45821Y-244460D01*
X47631Y-242974D01*
X48083Y-243188D01*
Y-256863D01*
X47631Y-257077D01*
X45821Y-255592D01*
X41738Y-253410D01*
X37308Y-252066D01*
X32702Y-251612D01*
X28095Y-252066D01*
X23665Y-253410D01*
X19583Y-255592D01*
X16004Y-258528D01*
X13068Y-262107D01*
X10885Y-266189D01*
X9542Y-270619D01*
X9088Y-275226D01*
X9542Y-279833D01*
X10885Y-284263D01*
X13068Y-288345D01*
X16004Y-291923D01*
X19583Y-294860D01*
X23665Y-297042D01*
X28095Y-298386D01*
X32702Y-298840D01*
X37308Y-298386D01*
X41738Y-297042D01*
X45821Y-294860D01*
X47631Y-293375D01*
X48083Y-293588D01*
Y-307264D01*
X47631Y-307477D01*
X45821Y-305992D01*
X41738Y-303810D01*
X37308Y-302466D01*
X32702Y-302012D01*
X28095Y-302466D01*
X23665Y-303810D01*
X19583Y-305992D01*
X16004Y-308929D01*
X13068Y-312507D01*
X10885Y-316589D01*
X9542Y-321019D01*
X9088Y-325626D01*
X9542Y-330233D01*
X10885Y-334663D01*
X13068Y-338745D01*
X16004Y-342323D01*
X19583Y-345260D01*
X23665Y-347442D01*
X28095Y-348786D01*
X32702Y-349240D01*
X37308Y-348786D01*
X41738Y-347442D01*
X45821Y-345260D01*
X47631Y-343774D01*
X48083Y-343988D01*
Y-352661D01*
X20571Y-380173D01*
X18407Y-382993D01*
X17047Y-386277D01*
X16583Y-389801D01*
Y-418926D01*
X10199D01*
Y-458926D01*
X50199D01*
Y-452915D01*
X50670Y-452747D01*
X50990Y-453136D01*
X54035Y-455636D01*
X57510Y-457493D01*
X61280Y-458637D01*
X65200Y-459023D01*
X69121Y-458637D01*
X72891Y-457493D01*
X76366Y-455636D01*
X79411Y-453136D01*
X81910Y-450091D01*
X82450Y-449082D01*
X82950D01*
X83489Y-450091D01*
X85989Y-453136D01*
X89034Y-455636D01*
X92508Y-457493D01*
X96278Y-458637D01*
X100199Y-459023D01*
X104120Y-458637D01*
X107890Y-457493D01*
X111364Y-455636D01*
X114410Y-453136D01*
X116909Y-450091D01*
X118766Y-446617D01*
X119910Y-442847D01*
X120296Y-438926D01*
X119910Y-435005D01*
X118766Y-431235D01*
X116909Y-427761D01*
X114410Y-424715D01*
X111364Y-422216D01*
X107890Y-420359D01*
X104120Y-419215D01*
X100199Y-418829D01*
X96278Y-419215D01*
X92508Y-420359D01*
X89034Y-422216D01*
X85989Y-424715D01*
X83489Y-427761D01*
X82950Y-428770D01*
X82450D01*
X81910Y-427761D01*
X79411Y-424715D01*
X78817Y-424228D01*
Y-390440D01*
X89830Y-379427D01*
X91994Y-376607D01*
X93354Y-373323D01*
X93818Y-369798D01*
Y-345217D01*
X94270Y-345004D01*
X94583Y-345260D01*
X98665Y-347442D01*
X103095Y-348786D01*
X107702Y-349240D01*
X112308Y-348786D01*
X116738Y-347442D01*
X120821Y-345260D01*
X124399Y-342323D01*
X127336Y-338745D01*
X129518Y-334663D01*
X130862Y-330233D01*
X131315Y-325626D01*
X130862Y-321019D01*
X129518Y-316589D01*
X127336Y-312507D01*
X124399Y-308929D01*
X120821Y-305992D01*
X116738Y-303810D01*
X112308Y-302466D01*
X107702Y-302012D01*
X103095Y-302466D01*
X99263Y-303628D01*
X98998Y-303186D01*
X103735Y-298449D01*
X107702Y-298840D01*
X112308Y-298386D01*
X116738Y-297042D01*
X120821Y-294860D01*
X124399Y-291923D01*
X127336Y-288345D01*
X129518Y-284263D01*
X130862Y-279833D01*
X131315Y-275226D01*
X130862Y-270619D01*
X129518Y-266189D01*
X127336Y-262107D01*
X124399Y-258528D01*
X120821Y-255592D01*
X116738Y-253410D01*
X112308Y-252066D01*
X107702Y-251612D01*
X103095Y-252066D01*
X98665Y-253410D01*
X94583Y-255592D01*
X91004Y-258528D01*
X88068Y-262107D01*
X85885Y-266189D01*
X84542Y-270619D01*
X84088Y-275226D01*
X84479Y-279192D01*
X75778Y-287893D01*
X75316Y-287702D01*
Y-238442D01*
X88476D01*
X91004Y-241523D01*
X94583Y-244460D01*
X98665Y-246642D01*
X103095Y-247986D01*
X107702Y-248440D01*
X112308Y-247986D01*
X116738Y-246642D01*
X120821Y-244460D01*
X124399Y-241523D01*
X127336Y-237945D01*
X129518Y-233862D01*
X130862Y-229433D01*
X131315Y-224826D01*
X130862Y-220219D01*
X129518Y-215789D01*
X127336Y-211707D01*
X124399Y-208129D01*
X120821Y-205192D01*
X116738Y-203010D01*
X112308Y-201666D01*
X107702Y-201212D01*
D02*
G37*
G36*
X-32298D02*
X-36905Y-201666D01*
X-41335Y-203010D01*
X-45417Y-205192D01*
X-48996Y-208129D01*
X-51524Y-211209D01*
X-88073D01*
X-90601Y-208129D01*
X-94179Y-205192D01*
X-98262Y-203010D01*
X-102692Y-201666D01*
X-107298Y-201212D01*
X-111905Y-201666D01*
X-116335Y-203010D01*
X-120417Y-205192D01*
X-123996Y-208129D01*
X-126932Y-211707D01*
X-129115Y-215789D01*
X-130458Y-220219D01*
X-130912Y-224826D01*
X-130458Y-229433D01*
X-129115Y-233862D01*
X-126932Y-237945D01*
X-123996Y-241523D01*
X-120417Y-244460D01*
X-116335Y-246642D01*
X-111905Y-247986D01*
X-107298Y-248440D01*
X-102692Y-247986D01*
X-98262Y-246642D01*
X-94179Y-244460D01*
X-92369Y-242974D01*
X-91917Y-243188D01*
Y-256863D01*
X-92369Y-257077D01*
X-94179Y-255592D01*
X-98262Y-253410D01*
X-102692Y-252066D01*
X-107298Y-251612D01*
X-111905Y-252066D01*
X-116335Y-253410D01*
X-120417Y-255592D01*
X-123996Y-258528D01*
X-126932Y-262107D01*
X-129115Y-266189D01*
X-130458Y-270619D01*
X-130912Y-275226D01*
X-130458Y-279833D01*
X-129115Y-284263D01*
X-126932Y-288345D01*
X-123996Y-291923D01*
X-120417Y-294860D01*
X-116335Y-297042D01*
X-111905Y-298386D01*
X-107298Y-298840D01*
X-102692Y-298386D01*
X-98262Y-297042D01*
X-94179Y-294860D01*
X-92369Y-293375D01*
X-91917Y-293588D01*
Y-307264D01*
X-92369Y-307477D01*
X-94179Y-305992D01*
X-98262Y-303810D01*
X-102692Y-302466D01*
X-107298Y-302012D01*
X-111905Y-302466D01*
X-116335Y-303810D01*
X-120417Y-305992D01*
X-123996Y-308929D01*
X-126932Y-312507D01*
X-129115Y-316589D01*
X-130458Y-321019D01*
X-130912Y-325626D01*
X-130458Y-330233D01*
X-129115Y-334663D01*
X-126932Y-338745D01*
X-123996Y-342323D01*
X-120417Y-345260D01*
X-116335Y-347442D01*
X-111905Y-348786D01*
X-107298Y-349240D01*
X-102692Y-348786D01*
X-98262Y-347442D01*
X-94179Y-345260D01*
X-92369Y-343774D01*
X-91917Y-343988D01*
Y-359360D01*
X-109428Y-376870D01*
X-111592Y-379691D01*
X-112952Y-382975D01*
X-113416Y-386499D01*
Y-418926D01*
X-119800D01*
Y-458926D01*
X-79799D01*
Y-452915D01*
X-79329Y-452747D01*
X-79009Y-453136D01*
X-75964Y-455636D01*
X-72489Y-457493D01*
X-68719Y-458637D01*
X-64798Y-459023D01*
X-60878Y-458637D01*
X-57108Y-457493D01*
X-53633Y-455636D01*
X-50588Y-453136D01*
X-48088Y-450091D01*
X-47549Y-449082D01*
X-47049D01*
X-46510Y-450091D01*
X-44010Y-453136D01*
X-40965Y-455636D01*
X-37490Y-457493D01*
X-33720Y-458637D01*
X-29800Y-459023D01*
X-25879Y-458637D01*
X-22109Y-457493D01*
X-18635Y-455636D01*
X-15589Y-453136D01*
X-13090Y-450091D01*
X-11233Y-446617D01*
X-10089Y-442847D01*
X-9703Y-438926D01*
X-10089Y-435005D01*
X-11233Y-431235D01*
X-13090Y-427761D01*
X-15589Y-424715D01*
X-18635Y-422216D01*
X-22109Y-420359D01*
X-25879Y-419215D01*
X-29800Y-418829D01*
X-33720Y-419215D01*
X-37490Y-420359D01*
X-40965Y-422216D01*
X-44010Y-424715D01*
X-46510Y-427761D01*
X-47049Y-428770D01*
X-47549D01*
X-48088Y-427761D01*
X-50588Y-424715D01*
X-51182Y-424228D01*
Y-412938D01*
X-47872Y-409628D01*
X-45708Y-406808D01*
X-44348Y-403524D01*
X-43884Y-400000D01*
Y-346566D01*
X-43455Y-346309D01*
X-41335Y-347442D01*
X-36905Y-348786D01*
X-32298Y-349240D01*
X-27692Y-348786D01*
X-23262Y-347442D01*
X-19179Y-345260D01*
X-15601Y-342323D01*
X-12664Y-338745D01*
X-10482Y-334663D01*
X-9138Y-330233D01*
X-8685Y-325626D01*
X-9138Y-321019D01*
X-10482Y-316589D01*
X-12664Y-312507D01*
X-15601Y-308929D01*
X-19179Y-305992D01*
X-23262Y-303810D01*
X-27692Y-302466D01*
X-32298Y-302012D01*
X-36905Y-302466D01*
X-40737Y-303628D01*
X-41002Y-303186D01*
X-36265Y-298449D01*
X-32298Y-298840D01*
X-27692Y-298386D01*
X-23262Y-297042D01*
X-19179Y-294860D01*
X-15601Y-291923D01*
X-12664Y-288345D01*
X-10482Y-284263D01*
X-9138Y-279833D01*
X-8685Y-275226D01*
X-9138Y-270619D01*
X-10482Y-266189D01*
X-12664Y-262107D01*
X-15601Y-258528D01*
X-19179Y-255592D01*
X-23262Y-253410D01*
X-27692Y-252066D01*
X-32298Y-251612D01*
X-36905Y-252066D01*
X-41335Y-253410D01*
X-45417Y-255592D01*
X-48996Y-258528D01*
X-51933Y-262107D01*
X-54115Y-266189D01*
X-55458Y-270619D01*
X-55912Y-275226D01*
X-55521Y-279192D01*
X-64222Y-287893D01*
X-64684Y-287702D01*
Y-238442D01*
X-51524D01*
X-48996Y-241523D01*
X-45417Y-244460D01*
X-41335Y-246642D01*
X-36905Y-247986D01*
X-32298Y-248440D01*
X-27692Y-247986D01*
X-23262Y-246642D01*
X-19179Y-244460D01*
X-15601Y-241523D01*
X-12664Y-237945D01*
X-10482Y-233862D01*
X-9138Y-229433D01*
X-8685Y-224826D01*
X-9138Y-220219D01*
X-10482Y-215789D01*
X-12664Y-211707D01*
X-15601Y-208129D01*
X-19179Y-205192D01*
X-23262Y-203010D01*
X-27692Y-201666D01*
X-32298Y-201212D01*
D02*
G37*
G36*
X-172298D02*
X-176905Y-201666D01*
X-181335Y-203010D01*
X-185417Y-205192D01*
X-188996Y-208129D01*
X-191524Y-211209D01*
X-228072D01*
X-230601Y-208129D01*
X-234179Y-205192D01*
X-238262Y-203010D01*
X-242692Y-201666D01*
X-247298Y-201212D01*
X-251905Y-201666D01*
X-256335Y-203010D01*
X-260417Y-205192D01*
X-263996Y-208129D01*
X-266933Y-211707D01*
X-269115Y-215789D01*
X-270458Y-220219D01*
X-270912Y-224826D01*
X-270458Y-229433D01*
X-269115Y-233862D01*
X-266933Y-237945D01*
X-263996Y-241523D01*
X-260417Y-244460D01*
X-256335Y-246642D01*
X-251905Y-247986D01*
X-247298Y-248440D01*
X-242692Y-247986D01*
X-238262Y-246642D01*
X-234179Y-244460D01*
X-232369Y-242974D01*
X-231917Y-243188D01*
Y-256863D01*
X-232369Y-257077D01*
X-234179Y-255592D01*
X-238262Y-253410D01*
X-242692Y-252066D01*
X-247298Y-251612D01*
X-251905Y-252066D01*
X-256335Y-253410D01*
X-260417Y-255592D01*
X-263996Y-258528D01*
X-266933Y-262107D01*
X-269115Y-266189D01*
X-270458Y-270619D01*
X-270912Y-275226D01*
X-270458Y-279833D01*
X-269115Y-284263D01*
X-266933Y-288345D01*
X-263996Y-291923D01*
X-260417Y-294860D01*
X-256335Y-297042D01*
X-251905Y-298386D01*
X-247298Y-298840D01*
X-242692Y-298386D01*
X-238262Y-297042D01*
X-234179Y-294860D01*
X-232369Y-293375D01*
X-231917Y-293588D01*
Y-307264D01*
X-232369Y-307477D01*
X-234179Y-305992D01*
X-238262Y-303810D01*
X-242692Y-302466D01*
X-247298Y-302012D01*
X-251905Y-302466D01*
X-256335Y-303810D01*
X-260417Y-305992D01*
X-263996Y-308929D01*
X-266933Y-312507D01*
X-269115Y-316589D01*
X-270458Y-321019D01*
X-270912Y-325626D01*
X-270458Y-330233D01*
X-269115Y-334663D01*
X-266933Y-338745D01*
X-263996Y-342323D01*
X-260417Y-345260D01*
X-256335Y-347442D01*
X-251905Y-348786D01*
X-247298Y-349240D01*
X-242692Y-348786D01*
X-238262Y-347442D01*
X-234179Y-345260D01*
X-232369Y-343774D01*
X-231917Y-343988D01*
Y-371788D01*
X-239427Y-379298D01*
X-241591Y-382118D01*
X-242951Y-385402D01*
X-243415Y-388926D01*
Y-418926D01*
X-249801D01*
Y-458926D01*
X-209801D01*
Y-452915D01*
X-209330Y-452747D01*
X-209010Y-453136D01*
X-205965Y-455636D01*
X-202490Y-457493D01*
X-198720Y-458637D01*
X-194800Y-459023D01*
X-190879Y-458637D01*
X-187109Y-457493D01*
X-183634Y-455636D01*
X-180589Y-453136D01*
X-178090Y-450091D01*
X-177550Y-449082D01*
X-177050D01*
X-176511Y-450091D01*
X-174011Y-453136D01*
X-170966Y-455636D01*
X-167492Y-457493D01*
X-163722Y-458637D01*
X-159801Y-459023D01*
X-155880Y-458637D01*
X-152110Y-457493D01*
X-148636Y-455636D01*
X-145590Y-453136D01*
X-143091Y-450091D01*
X-141234Y-446617D01*
X-140090Y-442847D01*
X-139704Y-438926D01*
X-140090Y-435005D01*
X-141234Y-431235D01*
X-143091Y-427761D01*
X-145590Y-424715D01*
X-148636Y-422216D01*
X-152110Y-420359D01*
X-155880Y-419215D01*
X-159801Y-418829D01*
X-163722Y-419215D01*
X-167492Y-420359D01*
X-170966Y-422216D01*
X-174011Y-424715D01*
X-176511Y-427761D01*
X-177050Y-428770D01*
X-177550D01*
X-178090Y-427761D01*
X-180589Y-424715D01*
X-181183Y-424228D01*
Y-381425D01*
X-181647Y-377900D01*
X-183007Y-374616D01*
X-185171Y-371796D01*
X-186182Y-370786D01*
Y-345217D01*
X-185730Y-345004D01*
X-185417Y-345260D01*
X-181335Y-347442D01*
X-176905Y-348786D01*
X-172298Y-349240D01*
X-167692Y-348786D01*
X-163262Y-347442D01*
X-159179Y-345260D01*
X-155601Y-342323D01*
X-152664Y-338745D01*
X-150482Y-334663D01*
X-149138Y-330233D01*
X-148685Y-325626D01*
X-149138Y-321019D01*
X-150482Y-316589D01*
X-152664Y-312507D01*
X-155601Y-308929D01*
X-159179Y-305992D01*
X-163262Y-303810D01*
X-167692Y-302466D01*
X-172298Y-302012D01*
X-176905Y-302466D01*
X-180737Y-303628D01*
X-181002Y-303186D01*
X-176265Y-298449D01*
X-172298Y-298840D01*
X-167692Y-298386D01*
X-163262Y-297042D01*
X-159179Y-294860D01*
X-155601Y-291923D01*
X-152664Y-288345D01*
X-150482Y-284263D01*
X-149138Y-279833D01*
X-148685Y-275226D01*
X-149138Y-270619D01*
X-150482Y-266189D01*
X-152664Y-262107D01*
X-155601Y-258528D01*
X-159179Y-255592D01*
X-163262Y-253410D01*
X-167692Y-252066D01*
X-172298Y-251612D01*
X-176905Y-252066D01*
X-181335Y-253410D01*
X-185417Y-255592D01*
X-188996Y-258528D01*
X-191933Y-262107D01*
X-194115Y-266189D01*
X-195458Y-270619D01*
X-195912Y-275226D01*
X-195521Y-279192D01*
X-204222Y-287893D01*
X-204684Y-287702D01*
Y-238442D01*
X-191524D01*
X-188996Y-241523D01*
X-185417Y-244460D01*
X-181335Y-246642D01*
X-176905Y-247986D01*
X-172298Y-248440D01*
X-167692Y-247986D01*
X-163262Y-246642D01*
X-159179Y-244460D01*
X-155601Y-241523D01*
X-152664Y-237945D01*
X-150482Y-233862D01*
X-149138Y-229433D01*
X-148685Y-224826D01*
X-149138Y-220219D01*
X-150482Y-215789D01*
X-152664Y-211707D01*
X-155601Y-208129D01*
X-159179Y-205192D01*
X-163262Y-203010D01*
X-167692Y-201666D01*
X-172298Y-201212D01*
D02*
G37*
G36*
X-730997Y-240899D02*
X-738997D01*
Y-250399D01*
X-730997D01*
Y-240899D01*
D02*
G37*
G36*
X381342Y-320500D02*
X371121D01*
Y-330722D01*
X371645Y-330653D01*
X374929Y-329292D01*
X377749Y-327128D01*
X379913Y-324308D01*
X381273Y-321024D01*
X381342Y-320500D01*
D02*
G37*
G36*
X-730998Y-369496D02*
X-738997D01*
Y-378997D01*
X-730998D01*
Y-369496D01*
D02*
G37*
G36*
X-553000Y-381254D02*
X-560500D01*
Y-388254D01*
X-553000D01*
Y-381254D01*
D02*
G37*
G36*
X-390500Y-384999D02*
X-398000D01*
Y-391998D01*
X-390500D01*
Y-384999D01*
D02*
G37*
G36*
X-324218Y-425500D02*
X-330800D01*
Y-440540D01*
X-329009Y-439798D01*
X-327024Y-438275D01*
X-325502Y-436291D01*
X-324544Y-433980D01*
X-324218Y-431500D01*
Y-425500D01*
D02*
G37*
%LPD*%
G36*
X-263902Y380272D02*
X-263377Y380341D01*
X-260093Y381702D01*
X-257273Y383866D01*
X-255918Y385632D01*
X-255420Y385591D01*
X-254869Y384562D01*
X-252870Y382125D01*
X-250434Y380126D01*
X-247654Y378640D01*
X-244638Y377725D01*
X-241502Y377416D01*
X-238365Y377725D01*
X-235349Y378640D01*
X-232570Y380126D01*
X-230133Y382125D01*
X-229052Y383443D01*
X-228552D01*
X-227470Y382125D01*
X-225936Y380866D01*
Y372002D01*
X-236902D01*
X-238477Y372654D01*
X-242002Y373118D01*
X-326362D01*
X-328762Y375519D01*
Y381288D01*
X-328310Y381502D01*
X-326634Y380126D01*
X-323854Y378640D01*
X-320838Y377725D01*
X-317702Y377416D01*
X-314565Y377725D01*
X-311549Y378640D01*
X-308769Y380126D01*
X-306333Y382125D01*
X-305252Y383443D01*
X-304752D01*
X-303670Y382125D01*
X-301234Y380126D01*
X-298454Y378640D01*
X-295438Y377725D01*
X-292302Y377416D01*
X-289165Y377725D01*
X-286149Y378640D01*
X-283370Y380126D01*
X-280933Y382125D01*
X-278934Y384562D01*
X-278384Y385591D01*
X-277885Y385632D01*
X-276530Y383866D01*
X-273710Y381702D01*
X-270426Y380341D01*
X-269902Y380272D01*
Y393494D01*
X-263902D01*
Y380272D01*
D02*
G37*
G36*
X-174930Y383866D02*
X-172110Y381702D01*
X-168826Y380341D01*
X-168369Y380281D01*
X-168209Y379808D01*
X-174810Y373206D01*
X-176453Y371065D01*
X-177486Y368571D01*
X-177838Y365896D01*
Y356998D01*
X-180500D01*
Y331998D01*
Y317998D01*
X-177838D01*
Y154282D01*
X-191109Y141012D01*
X-192752Y138871D01*
X-193785Y136377D01*
X-194137Y133702D01*
Y103466D01*
X-194513Y103136D01*
X-196498Y103398D01*
X-199501Y103002D01*
X-202298Y101844D01*
X-202848Y101421D01*
X-203399Y101844D01*
X-206196Y103002D01*
X-209198Y103398D01*
X-212201Y103002D01*
X-214998Y101844D01*
X-215548Y101421D01*
X-216099Y101844D01*
X-218896Y103002D01*
X-221898Y103398D01*
X-224900Y103002D01*
X-227698Y101844D01*
X-228248Y101421D01*
X-228799Y101844D01*
X-231596Y103002D01*
X-234598Y103398D01*
X-237600Y103002D01*
X-240398Y101844D01*
X-242800Y100000D01*
X-242989Y99755D01*
X-244298Y100297D01*
Y98049D01*
X-244644Y97598D01*
X-245803Y94801D01*
X-246198Y91798D01*
Y83298D01*
Y74798D01*
X-245803Y71796D01*
X-244644Y68998D01*
X-244298Y68548D01*
Y66300D01*
X-242989Y66842D01*
X-242800Y66596D01*
X-240398Y64753D01*
X-237600Y63594D01*
X-234598Y63199D01*
X-231596Y63594D01*
X-228799Y64753D01*
X-228248Y65175D01*
X-227698Y64753D01*
X-224900Y63594D01*
X-221898Y63199D01*
X-218896Y63594D01*
X-216099Y64753D01*
X-215548Y65175D01*
X-214998Y64753D01*
X-212201Y63594D01*
X-209198Y63199D01*
X-206196Y63594D01*
X-203399Y64753D01*
X-202848Y65175D01*
X-202298Y64753D01*
X-199501Y63594D01*
X-196498Y63199D01*
X-193496Y63594D01*
X-190699Y64753D01*
X-190148Y65175D01*
X-189598Y64753D01*
X-186800Y63594D01*
X-183798Y63199D01*
X-180796Y63594D01*
X-177999Y64753D01*
X-177448Y65175D01*
X-176898Y64753D01*
X-174100Y63594D01*
X-171098Y63199D01*
X-168096Y63594D01*
X-165299Y64753D01*
X-164748Y65175D01*
X-164198Y64753D01*
X-161401Y63594D01*
X-158398Y63199D01*
X-155396Y63594D01*
X-152599Y64753D01*
X-152048Y65175D01*
X-151498Y64753D01*
X-148701Y63594D01*
X-145698Y63199D01*
X-142696Y63594D01*
X-139899Y64753D01*
X-137496Y66596D01*
X-135653Y68999D01*
X-134494Y71796D01*
X-134099Y74798D01*
Y91798D01*
X-134494Y94801D01*
X-135360Y96890D01*
Y112519D01*
X-107690Y140190D01*
X-106047Y142331D01*
X-105014Y144824D01*
X-104662Y147500D01*
Y318002D01*
X-100338D01*
Y42500D01*
X-99986Y39824D01*
X-98953Y37331D01*
X-97310Y35190D01*
X-62750Y629D01*
X-60609Y-1014D01*
X-58115Y-2047D01*
X-55439Y-2399D01*
X215000D01*
Y-4062D01*
X230000D01*
Y-4561D01*
X243498D01*
Y-5061D01*
X282498D01*
Y-2399D01*
X292778D01*
X296740Y-6360D01*
X298881Y-8003D01*
X301374Y-9036D01*
X304050Y-9388D01*
X326522D01*
X326920Y-9888D01*
X326643Y-12700D01*
X326952Y-15836D01*
X327867Y-18853D01*
X329353Y-21632D01*
X331352Y-24069D01*
X332670Y-25150D01*
Y-25650D01*
X331352Y-26732D01*
X329353Y-29168D01*
X327867Y-31947D01*
X326952Y-34964D01*
X326643Y-38100D01*
X326952Y-41237D01*
X327867Y-44253D01*
X329353Y-47032D01*
X331352Y-49468D01*
X332670Y-50550D01*
Y-51050D01*
X331352Y-52132D01*
X329353Y-54568D01*
X327867Y-57347D01*
X326952Y-60363D01*
X326643Y-63500D01*
X326952Y-66637D01*
X327867Y-69653D01*
X329353Y-72432D01*
X331352Y-74868D01*
X332670Y-75950D01*
Y-76450D01*
X331352Y-77531D01*
X329353Y-79968D01*
X327867Y-82747D01*
X326952Y-85764D01*
X326643Y-88900D01*
X326952Y-92037D01*
X327867Y-95053D01*
X329353Y-97832D01*
X331352Y-100268D01*
X332670Y-101350D01*
Y-101850D01*
X331352Y-102931D01*
X329353Y-105368D01*
X327867Y-108147D01*
X326952Y-111164D01*
X326643Y-114300D01*
X326952Y-117437D01*
X327867Y-120453D01*
X329353Y-123232D01*
X331352Y-125668D01*
X332670Y-126750D01*
Y-127250D01*
X331352Y-128331D01*
X329353Y-130768D01*
X327867Y-133547D01*
X326952Y-136564D01*
X326643Y-139700D01*
X326952Y-142837D01*
X327867Y-145853D01*
X329353Y-148632D01*
X331352Y-151068D01*
X332670Y-152150D01*
Y-152650D01*
X331352Y-153731D01*
X330507Y-154762D01*
X326998D01*
Y-152000D01*
X287998D01*
Y-154662D01*
X-303218D01*
X-312690Y-145190D01*
X-314831Y-143547D01*
X-317324Y-142514D01*
X-320000Y-142162D01*
X-329417D01*
X-329747Y-141786D01*
X-329459Y-139602D01*
X-329923Y-136077D01*
X-331283Y-132793D01*
X-333447Y-129973D01*
X-335214Y-128618D01*
X-335173Y-128120D01*
X-334144Y-127570D01*
X-331707Y-125570D01*
X-329708Y-123134D01*
X-328222Y-120354D01*
X-327307Y-117338D01*
X-326998Y-114202D01*
X-327307Y-111065D01*
X-328222Y-108049D01*
X-329708Y-105269D01*
X-331707Y-102833D01*
X-333025Y-101752D01*
Y-101252D01*
X-331707Y-100170D01*
X-329708Y-97734D01*
X-328222Y-94954D01*
X-327307Y-91938D01*
X-326998Y-88802D01*
X-327307Y-85665D01*
X-328222Y-82649D01*
X-329708Y-79869D01*
X-331707Y-77433D01*
X-333025Y-76352D01*
Y-75852D01*
X-331707Y-74770D01*
X-329708Y-72334D01*
X-328222Y-69554D01*
X-327307Y-66538D01*
X-326998Y-63402D01*
X-327307Y-60265D01*
X-328222Y-57249D01*
X-329708Y-54469D01*
X-331707Y-52033D01*
X-333025Y-50952D01*
Y-50452D01*
X-331707Y-49370D01*
X-329708Y-46934D01*
X-328222Y-44154D01*
X-327307Y-41138D01*
X-326998Y-38002D01*
X-327307Y-34865D01*
X-328222Y-31849D01*
X-329708Y-29069D01*
X-331707Y-26633D01*
X-333025Y-25552D01*
Y-25052D01*
X-331707Y-23970D01*
X-329708Y-21534D01*
X-328222Y-18754D01*
X-327307Y-15738D01*
X-326998Y-12602D01*
X-327307Y-9465D01*
X-328222Y-6449D01*
X-329708Y-3670D01*
X-331707Y-1233D01*
X-333025Y-152D01*
Y348D01*
X-331707Y1430D01*
X-329708Y3866D01*
X-328222Y6646D01*
X-327307Y9662D01*
X-326998Y12798D01*
X-327307Y15935D01*
X-328222Y18951D01*
X-329708Y21730D01*
X-331707Y24167D01*
X-333025Y25248D01*
Y25748D01*
X-331707Y26830D01*
X-329708Y29266D01*
X-328222Y32046D01*
X-327307Y35062D01*
X-326998Y38198D01*
X-327307Y41335D01*
X-328222Y44351D01*
X-329708Y47130D01*
X-331707Y49567D01*
X-333025Y50648D01*
Y51148D01*
X-331707Y52230D01*
X-329708Y54666D01*
X-328222Y57446D01*
X-327307Y60462D01*
X-326998Y63598D01*
X-327307Y66735D01*
X-328222Y69751D01*
X-329708Y72530D01*
X-331707Y74967D01*
X-333025Y76048D01*
Y76548D01*
X-331707Y77630D01*
X-329708Y80066D01*
X-328222Y82846D01*
X-327307Y85862D01*
X-326998Y88998D01*
X-327307Y92135D01*
X-328222Y95151D01*
X-329708Y97930D01*
X-331707Y100367D01*
X-333025Y101448D01*
Y101948D01*
X-331707Y103030D01*
X-329708Y105466D01*
X-328222Y108246D01*
X-327307Y111262D01*
X-326998Y114398D01*
X-327307Y117535D01*
X-328222Y120551D01*
X-329708Y123330D01*
X-331707Y125767D01*
X-333025Y126848D01*
Y127348D01*
X-331707Y128430D01*
X-329708Y130866D01*
X-328222Y133646D01*
X-327307Y136662D01*
X-326998Y139798D01*
X-327307Y142935D01*
X-328222Y145951D01*
X-329708Y148730D01*
X-331707Y151167D01*
X-333025Y152248D01*
Y152748D01*
X-331707Y153830D01*
X-329708Y156266D01*
X-328222Y159046D01*
X-327307Y162062D01*
X-326998Y165198D01*
X-327307Y168335D01*
X-328222Y171351D01*
X-329708Y174130D01*
X-331707Y176567D01*
X-333025Y177648D01*
Y178148D01*
X-331707Y179230D01*
X-329708Y181666D01*
X-328222Y184446D01*
X-327307Y187462D01*
X-326998Y190598D01*
X-327307Y193735D01*
X-328222Y196751D01*
X-329708Y199531D01*
X-331707Y201967D01*
X-333025Y203048D01*
Y203548D01*
X-331707Y204630D01*
X-329708Y207066D01*
X-328222Y209846D01*
X-327307Y212862D01*
X-326998Y215998D01*
X-327307Y219135D01*
X-328222Y222151D01*
X-329708Y224930D01*
X-331707Y227367D01*
X-333025Y228448D01*
Y228948D01*
X-331707Y230030D01*
X-329708Y232466D01*
X-328222Y235246D01*
X-327307Y238262D01*
X-326998Y241398D01*
X-327307Y244535D01*
X-328222Y247551D01*
X-329708Y250331D01*
X-331707Y252767D01*
X-333025Y253848D01*
Y254348D01*
X-331707Y255430D01*
X-329708Y257866D01*
X-328222Y260646D01*
X-327307Y263662D01*
X-326998Y266798D01*
X-327307Y269935D01*
X-328222Y272951D01*
X-329708Y275730D01*
X-331707Y278167D01*
X-333025Y279248D01*
Y279748D01*
X-331707Y280830D01*
X-329708Y283266D01*
X-328222Y286046D01*
X-327307Y289062D01*
X-326998Y292198D01*
X-327307Y295335D01*
X-328222Y298351D01*
X-329708Y301131D01*
X-331707Y303567D01*
X-331781Y303628D01*
X-331613Y304098D01*
X-329576D01*
Y314598D01*
X-343076D01*
Y317598D01*
X-346076D01*
Y331098D01*
X-356576D01*
Y329061D01*
X-357047Y328893D01*
X-357107Y328967D01*
X-359544Y330966D01*
X-362323Y332452D01*
X-365339Y333367D01*
X-368476Y333676D01*
X-371612Y333367D01*
X-374628Y332452D01*
X-377408Y330966D01*
X-379844Y328967D01*
X-381844Y326530D01*
X-383329Y323751D01*
X-384244Y320735D01*
X-384553Y317598D01*
X-384244Y314462D01*
X-383329Y311446D01*
X-381844Y308666D01*
X-379844Y306230D01*
X-378526Y305148D01*
Y304648D01*
X-379844Y303567D01*
X-381844Y301131D01*
X-383329Y298351D01*
X-384244Y295335D01*
X-384553Y292198D01*
X-384244Y289062D01*
X-383329Y286046D01*
X-381844Y283266D01*
X-379844Y280830D01*
X-378526Y279748D01*
Y279248D01*
X-379844Y278167D01*
X-381844Y275730D01*
X-383329Y272951D01*
X-384244Y269935D01*
X-384553Y266798D01*
X-384244Y263662D01*
X-383329Y260646D01*
X-381844Y257866D01*
X-379844Y255430D01*
X-378526Y254348D01*
Y253848D01*
X-379844Y252767D01*
X-381844Y250331D01*
X-383329Y247551D01*
X-384244Y244535D01*
X-384553Y241398D01*
X-384244Y238262D01*
X-383329Y235246D01*
X-381844Y232466D01*
X-379844Y230030D01*
X-378526Y228948D01*
Y228448D01*
X-379844Y227367D01*
X-381844Y224930D01*
X-383329Y222151D01*
X-384244Y219135D01*
X-384553Y215998D01*
X-384244Y212862D01*
X-383329Y209846D01*
X-381844Y207066D01*
X-379844Y204630D01*
X-378526Y203548D01*
Y203048D01*
X-379844Y201967D01*
X-381844Y199531D01*
X-383329Y196751D01*
X-384244Y193735D01*
X-384553Y190598D01*
X-384244Y187462D01*
X-383329Y184446D01*
X-381844Y181666D01*
X-379844Y179230D01*
X-378526Y178148D01*
Y177648D01*
X-379844Y176567D01*
X-381844Y174130D01*
X-383329Y171351D01*
X-384244Y168335D01*
X-384553Y165198D01*
X-384244Y162062D01*
X-383329Y159046D01*
X-381844Y156266D01*
X-379844Y153830D01*
X-378526Y152748D01*
Y152248D01*
X-379844Y151167D01*
X-381844Y148730D01*
X-383329Y145951D01*
X-384244Y142935D01*
X-384553Y139798D01*
X-384244Y136662D01*
X-383329Y133646D01*
X-381844Y130866D01*
X-379844Y128430D01*
X-378526Y127348D01*
Y126848D01*
X-379844Y125767D01*
X-381844Y123330D01*
X-383329Y120551D01*
X-384244Y117535D01*
X-384553Y114398D01*
X-384244Y111262D01*
X-383329Y108246D01*
X-381844Y105466D01*
X-379844Y103030D01*
X-378526Y101948D01*
Y101448D01*
X-379844Y100367D01*
X-381844Y97930D01*
X-383329Y95151D01*
X-384244Y92135D01*
X-384553Y88998D01*
X-384244Y85862D01*
X-383329Y82846D01*
X-381844Y80066D01*
X-379844Y77630D01*
X-378526Y76548D01*
Y76048D01*
X-379844Y74967D01*
X-381844Y72530D01*
X-383329Y69751D01*
X-384244Y66735D01*
X-384553Y63598D01*
X-384244Y60462D01*
X-383329Y57446D01*
X-381844Y54666D01*
X-379844Y52230D01*
X-378526Y51148D01*
Y50648D01*
X-379844Y49567D01*
X-381844Y47130D01*
X-383329Y44351D01*
X-384244Y41335D01*
X-384553Y38198D01*
X-384244Y35062D01*
X-383329Y32046D01*
X-381844Y29266D01*
X-379844Y26830D01*
X-378526Y25748D01*
Y25248D01*
X-379844Y24167D01*
X-381844Y21730D01*
X-383329Y18951D01*
X-384244Y15935D01*
X-384553Y12798D01*
X-384244Y9662D01*
X-383329Y6646D01*
X-381844Y3866D01*
X-379844Y1430D01*
X-378526Y348D01*
Y-152D01*
X-379844Y-1233D01*
X-381844Y-3670D01*
X-383329Y-6449D01*
X-384244Y-9465D01*
X-384553Y-12602D01*
X-384244Y-15738D01*
X-383329Y-18754D01*
X-381844Y-21534D01*
X-379844Y-23970D01*
X-378526Y-25052D01*
Y-25552D01*
X-379844Y-26633D01*
X-381844Y-29069D01*
X-383329Y-31849D01*
X-384244Y-34865D01*
X-384553Y-38002D01*
X-384244Y-41138D01*
X-383329Y-44154D01*
X-381844Y-46934D01*
X-379844Y-49370D01*
X-378526Y-50452D01*
Y-50952D01*
X-379844Y-52033D01*
X-381844Y-54469D01*
X-383329Y-57249D01*
X-384244Y-60265D01*
X-384553Y-63402D01*
X-384244Y-66538D01*
X-383329Y-69554D01*
X-381844Y-72334D01*
X-379844Y-74770D01*
X-378526Y-75852D01*
Y-76352D01*
X-379844Y-77433D01*
X-380201Y-77868D01*
X-380700Y-77892D01*
X-390166Y-68427D01*
Y200000D01*
X-390166Y200000D01*
X-390501Y202545D01*
X-391483Y204917D01*
X-393046Y206954D01*
X-393046Y206954D01*
X-398046Y211954D01*
X-400083Y213517D01*
X-402455Y214499D01*
X-403727Y214667D01*
X-405000Y214834D01*
X-405000Y214834D01*
X-503002D01*
Y218000D01*
X-537681D01*
Y222000D01*
X-537719Y222290D01*
X-537389Y222666D01*
X-442500D01*
X-442500Y222666D01*
X-441227Y222833D01*
X-439955Y223001D01*
X-437583Y223983D01*
X-435546Y225546D01*
X-405546Y255546D01*
X-405546Y255546D01*
X-403983Y257583D01*
X-403001Y259955D01*
X-402666Y262500D01*
X-402666Y262500D01*
Y323427D01*
X-390425Y335667D01*
X-245500D01*
Y333002D01*
X-230500D01*
Y332998D01*
X-204500D01*
Y346998D01*
Y371998D01*
X-206268D01*
Y380866D01*
X-204733Y382125D01*
X-203652Y383443D01*
X-203152D01*
X-202070Y382125D01*
X-199634Y380126D01*
X-196854Y378640D01*
X-193838Y377725D01*
X-190702Y377416D01*
X-187565Y377725D01*
X-184549Y378640D01*
X-181770Y380126D01*
X-179333Y382125D01*
X-177334Y384562D01*
X-176784Y385591D01*
X-176285Y385632D01*
X-174930Y383866D01*
D02*
G37*
G36*
X-731002Y370500D02*
X-756150D01*
X-756341Y370962D01*
X-754833Y372470D01*
X-754833Y372470D01*
X-753276Y374500D01*
X-731002D01*
Y370500D01*
D02*
G37*
G36*
X-657626Y367834D02*
X-657833Y367334D01*
X-666003D01*
Y370500D01*
X-695002D01*
Y374500D01*
X-666003D01*
Y375558D01*
X-665541Y375749D01*
X-657626Y367834D01*
D02*
G37*
G36*
X-355995Y369879D02*
X-355531Y366354D01*
X-354171Y363070D01*
X-352007Y360250D01*
X-347554Y355798D01*
X-347746Y355336D01*
X-394498D01*
X-394498Y355336D01*
X-397044Y355001D01*
X-399415Y354018D01*
X-401452Y352455D01*
X-401452Y352455D01*
X-419454Y334454D01*
X-421017Y332417D01*
X-421999Y330045D01*
X-422167Y328773D01*
X-422334Y327500D01*
X-422334Y327500D01*
Y266573D01*
X-446573Y242334D01*
X-451025D01*
X-451058Y242834D01*
X-450090Y242962D01*
X-446806Y244322D01*
X-443986Y246486D01*
X-441822Y249306D01*
X-440462Y252590D01*
X-439998Y256114D01*
Y265123D01*
Y405277D01*
X-355995D01*
Y369879D01*
D02*
G37*
G36*
X-535000Y269750D02*
X-536500D01*
Y255750D01*
Y251232D01*
X-571750D01*
X-571750Y251232D01*
X-574295Y250897D01*
X-574736Y250715D01*
X-575194Y251066D01*
X-574916Y253179D01*
X-574916Y253179D01*
Y257496D01*
X-574658Y257669D01*
X-574416Y257760D01*
X-571750Y257409D01*
X-569009Y257770D01*
X-566455Y258828D01*
X-564969Y259968D01*
X-563162Y260206D01*
X-562000Y260687D01*
X-560838Y260206D01*
X-559030Y259968D01*
X-557545Y258828D01*
X-554991Y257770D01*
X-552250Y257409D01*
X-549509Y257770D01*
X-546955Y258828D01*
X-545470Y259968D01*
X-543662Y260206D01*
X-541716Y261012D01*
X-540044Y262294D01*
X-538762Y263965D01*
X-537956Y265912D01*
X-537681Y268000D01*
Y274864D01*
X-535000D01*
Y269750D01*
D02*
G37*
G36*
X-467230Y265123D02*
Y256114D01*
X-466767Y252590D01*
X-465406Y249306D01*
X-463242Y246486D01*
X-460422Y244322D01*
X-457138Y242962D01*
X-456170Y242834D01*
X-456203Y242334D01*
X-510500D01*
Y244750D01*
Y267985D01*
X-508000D01*
Y270485D01*
X-507999D01*
Y282985D01*
X-505500D01*
Y285985D01*
X-494500D01*
Y289998D01*
X-485500D01*
Y301498D01*
X-497000D01*
Y304498D01*
X-500000D01*
Y318998D01*
X-502000D01*
Y337502D01*
Y365502D01*
X-509883D01*
Y398360D01*
X-502966Y405277D01*
X-467230D01*
Y265123D01*
D02*
G37*
G36*
X-733000Y240500D02*
X-756149D01*
X-756340Y240962D01*
X-754833Y242469D01*
X-754833Y242469D01*
X-753275Y244500D01*
X-733000D01*
Y240500D01*
D02*
G37*
G36*
X-639341Y246716D02*
X-640044Y245799D01*
X-641203Y243002D01*
X-641598Y240000D01*
X-641298Y237720D01*
X-641652Y237334D01*
X-668002D01*
Y240500D01*
X-697000D01*
Y244498D01*
X-694500D01*
Y244500D01*
X-668002D01*
Y247164D01*
X-639562D01*
X-639341Y246716D01*
D02*
G37*
G36*
X-65250Y38129D02*
X-63109Y36486D01*
X-60615Y35453D01*
X-57939Y35101D01*
X215000D01*
Y33438D01*
X243498D01*
Y32439D01*
X282498D01*
Y32439D01*
X282811Y32569D01*
X296601Y18778D01*
X296394Y18278D01*
X282498D01*
Y20939D01*
X253500D01*
Y31939D01*
X246000D01*
Y21939D01*
X240000D01*
Y31939D01*
X238500D01*
Y32438D01*
X231000D01*
Y22438D01*
X228000D01*
Y20938D01*
X217500D01*
Y20938D01*
X215000D01*
Y18278D01*
X-51157D01*
X-79662Y46782D01*
Y51888D01*
X-79200Y52079D01*
X-65250Y38129D01*
D02*
G37*
G36*
X-472334Y-91145D02*
Y-109499D01*
X-507002D01*
Y-124499D01*
X-515498D01*
Y-117999D01*
Y-110499D01*
X-525499D01*
Y-104499D01*
X-515498D01*
Y-99966D01*
X-513289Y-98785D01*
X-510776Y-96723D01*
X-508714Y-94210D01*
X-507182Y-91344D01*
X-506239Y-88234D01*
X-505920Y-84999D01*
X-506239Y-81765D01*
X-507182Y-78654D01*
X-508714Y-75788D01*
X-509126Y-75286D01*
X-508912Y-74834D01*
X-488644D01*
X-472334Y-91145D01*
D02*
G37*
G36*
X331352Y-176469D02*
X332670Y-177550D01*
Y-178050D01*
X331352Y-179132D01*
X329353Y-181568D01*
X327867Y-184347D01*
X326952Y-187363D01*
X326643Y-190500D01*
X326952Y-193636D01*
X327071Y-194029D01*
X326692Y-194500D01*
X310840D01*
Y-190502D01*
X310488Y-187826D01*
X309455Y-185332D01*
X307812Y-183191D01*
X303083Y-178462D01*
X303274Y-178000D01*
X326998D01*
Y-175438D01*
X330507D01*
X331352Y-176469D01*
D02*
G37*
G36*
X-549404Y-190499D02*
X-548992Y-193632D01*
X-547782Y-196551D01*
X-547000Y-197571D01*
Y-199539D01*
X-545851Y-199063D01*
X-543352Y-200981D01*
X-540433Y-202190D01*
X-537300Y-202603D01*
X-534167Y-202190D01*
X-531248Y-200981D01*
X-530950Y-200752D01*
X-530652Y-200981D01*
X-527733Y-202190D01*
X-524600Y-202603D01*
X-521467Y-202190D01*
X-518548Y-200981D01*
X-518250Y-200752D01*
X-517952Y-200981D01*
X-515033Y-202190D01*
X-511900Y-202603D01*
X-508767Y-202190D01*
X-505848Y-200981D01*
X-503691Y-199326D01*
X-501724Y-201724D01*
X-499211Y-203786D01*
X-497407Y-204750D01*
Y-205250D01*
X-499211Y-206214D01*
X-501724Y-208276D01*
X-503690Y-210673D01*
X-505848Y-209017D01*
X-508767Y-207808D01*
X-511900Y-207396D01*
X-515033Y-207808D01*
X-517952Y-209017D01*
X-518250Y-209246D01*
X-518548Y-209017D01*
X-521467Y-207808D01*
X-524600Y-207396D01*
X-527733Y-207808D01*
X-530652Y-209017D01*
X-530950Y-209246D01*
X-531248Y-209017D01*
X-534167Y-207808D01*
X-537300Y-207396D01*
X-540433Y-207808D01*
X-543352Y-209017D01*
X-543650Y-209246D01*
X-543948Y-209017D01*
X-546867Y-207808D01*
X-550000Y-207396D01*
X-553133Y-207808D01*
X-556052Y-209017D01*
X-556350Y-209246D01*
X-556648Y-209017D01*
X-559567Y-207808D01*
X-562700Y-207396D01*
X-565833Y-207808D01*
X-568752Y-209017D01*
X-569050Y-209246D01*
X-569348Y-209017D01*
X-572267Y-207808D01*
X-575400Y-207396D01*
X-578533Y-207808D01*
X-581452Y-209017D01*
X-581750Y-209246D01*
X-582048Y-209017D01*
X-584967Y-207808D01*
X-588100Y-207396D01*
X-591233Y-207808D01*
X-594152Y-209017D01*
X-596659Y-210941D01*
X-597542Y-212092D01*
X-598040Y-212051D01*
X-598714Y-210789D01*
X-600776Y-208276D01*
X-603289Y-206214D01*
X-605093Y-205250D01*
Y-204750D01*
X-603289Y-203786D01*
X-600776Y-201724D01*
X-598714Y-199211D01*
X-598039Y-197948D01*
X-597541Y-197908D01*
X-596659Y-199058D01*
X-594152Y-200981D01*
X-591233Y-202190D01*
X-588100Y-202603D01*
X-584967Y-202190D01*
X-582048Y-200981D01*
X-581750Y-200752D01*
X-581452Y-200981D01*
X-578533Y-202190D01*
X-575400Y-202603D01*
X-572267Y-202190D01*
X-569348Y-200981D01*
X-569050Y-200752D01*
X-568752Y-200981D01*
X-565833Y-202190D01*
X-562700Y-202603D01*
X-559567Y-202190D01*
X-556648Y-200981D01*
X-554149Y-199063D01*
X-553000Y-199539D01*
Y-197571D01*
X-552217Y-196551D01*
X-551008Y-193632D01*
X-550596Y-190499D01*
Y-181499D01*
X-549404D01*
Y-190499D01*
D02*
G37*
G36*
X-507002Y-300999D02*
X-468621D01*
X-467838Y-301782D01*
Y-343176D01*
X-514863D01*
X-514984Y-342691D01*
X-513289Y-341785D01*
X-510776Y-339723D01*
X-508714Y-337210D01*
X-507182Y-334344D01*
X-506239Y-331234D01*
X-505920Y-327999D01*
X-506239Y-324765D01*
X-507182Y-321654D01*
X-508714Y-318788D01*
X-510776Y-316275D01*
X-513289Y-314214D01*
X-515498Y-313032D01*
Y-308499D01*
X-525498D01*
Y-302499D01*
X-515498D01*
Y-300999D01*
Y-293499D01*
X-525499D01*
Y-287499D01*
X-515498D01*
Y-285999D01*
X-507002D01*
Y-300999D01*
D02*
G37*
G36*
X-355017Y-393417D02*
X-353454Y-395454D01*
X-346954Y-401954D01*
X-346954Y-401954D01*
X-344917Y-403517D01*
X-344543Y-403671D01*
X-344674Y-404159D01*
X-346500Y-403918D01*
X-348980Y-404245D01*
X-351291Y-405202D01*
X-352850Y-406398D01*
X-354409Y-405202D01*
X-356720Y-404245D01*
X-359200Y-403918D01*
X-361186Y-404179D01*
X-361562Y-403850D01*
Y-392150D01*
X-361186Y-391821D01*
X-359200Y-392082D01*
X-356720Y-391755D01*
X-355854Y-391397D01*
X-355017Y-393417D01*
D02*
G37*
%LPC*%
G36*
X-329576Y331098D02*
X-340076D01*
Y320598D01*
X-329576D01*
Y331098D01*
D02*
G37*
G36*
X-250298Y100297D02*
X-251837Y99660D01*
X-253717Y98217D01*
X-255160Y96337D01*
X-256067Y94148D01*
X-256376Y91798D01*
Y86298D01*
X-250298D01*
Y100297D01*
D02*
G37*
G36*
Y80298D02*
X-256376D01*
Y74798D01*
X-256067Y72449D01*
X-255160Y70259D01*
X-253717Y68380D01*
X-251837Y66937D01*
X-250298Y66300D01*
Y80298D01*
D02*
G37*
G36*
X-145698Y12398D02*
X-148701Y12002D01*
X-151498Y10844D01*
X-152048Y10421D01*
X-152599Y10844D01*
X-155396Y12002D01*
X-158398Y12398D01*
X-161401Y12002D01*
X-164198Y10844D01*
X-164748Y10421D01*
X-165299Y10844D01*
X-168096Y12002D01*
X-171098Y12398D01*
X-174100Y12002D01*
X-176898Y10844D01*
X-177448Y10421D01*
X-177999Y10844D01*
X-180796Y12002D01*
X-183798Y12398D01*
X-186800Y12002D01*
X-189598Y10844D01*
X-190148Y10421D01*
X-190699Y10844D01*
X-193496Y12002D01*
X-196498Y12398D01*
X-199501Y12002D01*
X-202298Y10844D01*
X-202848Y10421D01*
X-203399Y10844D01*
X-206196Y12002D01*
X-209198Y12398D01*
X-212201Y12002D01*
X-214998Y10844D01*
X-215548Y10421D01*
X-216099Y10844D01*
X-218896Y12002D01*
X-221898Y12398D01*
X-224900Y12002D01*
X-227698Y10844D01*
X-228248Y10421D01*
X-228799Y10844D01*
X-231596Y12002D01*
X-234598Y12398D01*
X-237600Y12002D01*
X-240398Y10844D01*
X-240948Y10421D01*
X-241499Y10844D01*
X-244296Y12002D01*
X-247298Y12398D01*
X-250301Y12002D01*
X-253098Y10844D01*
X-255500Y9000D01*
X-257344Y6598D01*
X-258502Y3801D01*
X-258898Y798D01*
Y-5786D01*
X-259150Y-7702D01*
Y-51347D01*
X-260697Y-52174D01*
X-264351Y-55173D01*
X-267350Y-58828D01*
X-269579Y-62997D01*
X-270951Y-67521D01*
X-271415Y-72226D01*
X-270951Y-76931D01*
X-269579Y-81455D01*
X-267350Y-85624D01*
X-264351Y-89279D01*
X-260697Y-92278D01*
X-256527Y-94506D01*
X-252003Y-95879D01*
X-247298Y-96342D01*
X-242593Y-95879D01*
X-238069Y-94506D01*
X-233900Y-92278D01*
X-230246Y-89279D01*
X-227246Y-85624D01*
X-225018Y-81455D01*
X-223646Y-76931D01*
X-223182Y-72226D01*
X-223646Y-67521D01*
X-225018Y-62997D01*
X-227246Y-58828D01*
X-230246Y-55173D01*
X-233900Y-52174D01*
X-235447Y-51347D01*
Y-28068D01*
X-235071Y-27739D01*
X-234598Y-27801D01*
X-231596Y-27406D01*
X-228799Y-26247D01*
X-228248Y-25825D01*
X-227698Y-26247D01*
X-224900Y-27406D01*
X-221898Y-27801D01*
X-218896Y-27406D01*
X-216099Y-26247D01*
X-215548Y-25825D01*
X-214998Y-26247D01*
X-212201Y-27406D01*
X-209198Y-27801D01*
X-206196Y-27406D01*
X-203399Y-26247D01*
X-202848Y-25825D01*
X-202298Y-26247D01*
X-199501Y-27406D01*
X-196498Y-27801D01*
X-195017Y-27606D01*
X-194641Y-27936D01*
Y-38702D01*
X-194272Y-41508D01*
X-193188Y-44123D01*
X-191465Y-46369D01*
X-186032Y-51802D01*
X-186065Y-52476D01*
X-189351Y-55173D01*
X-192350Y-58828D01*
X-194579Y-62997D01*
X-195951Y-67521D01*
X-196415Y-72226D01*
X-195951Y-76931D01*
X-194579Y-81455D01*
X-192350Y-85624D01*
X-189351Y-89279D01*
X-185697Y-92278D01*
X-181527Y-94506D01*
X-177003Y-95879D01*
X-172298Y-96342D01*
X-167593Y-95879D01*
X-163069Y-94506D01*
X-158900Y-92278D01*
X-155246Y-89279D01*
X-152247Y-85624D01*
X-150018Y-81455D01*
X-148646Y-76931D01*
X-148182Y-72226D01*
X-148646Y-67521D01*
X-150018Y-62997D01*
X-152247Y-58828D01*
X-155246Y-55173D01*
X-156903Y-53814D01*
X-156734Y-53343D01*
X-122863D01*
X-122694Y-53814D01*
X-124351Y-55173D01*
X-127350Y-58828D01*
X-129579Y-62997D01*
X-130951Y-67521D01*
X-131414Y-72226D01*
X-130951Y-76931D01*
X-129579Y-81455D01*
X-127350Y-85624D01*
X-124351Y-89279D01*
X-120697Y-92278D01*
X-116527Y-94506D01*
X-112003Y-95879D01*
X-107298Y-96342D01*
X-102593Y-95879D01*
X-98069Y-94506D01*
X-93900Y-92278D01*
X-90246Y-89279D01*
X-87247Y-85624D01*
X-85018Y-81455D01*
X-83646Y-76931D01*
X-83182Y-72226D01*
X-83646Y-67521D01*
X-85018Y-62997D01*
X-87247Y-58828D01*
X-90246Y-55173D01*
X-91903Y-53814D01*
X-91734Y-53343D01*
X-66515D01*
X-55110Y-64748D01*
X-55951Y-67521D01*
X-56414Y-72226D01*
X-55951Y-76931D01*
X-54579Y-81455D01*
X-52350Y-85624D01*
X-49351Y-89279D01*
X-45697Y-92278D01*
X-41527Y-94506D01*
X-37003Y-95879D01*
X-32298Y-96342D01*
X-27594Y-95879D01*
X-23070Y-94506D01*
X-18900Y-92278D01*
X-15246Y-89279D01*
X-12247Y-85624D01*
X-10018Y-81455D01*
X-8646Y-76931D01*
X-8182Y-72226D01*
X-8646Y-67521D01*
X-10018Y-62997D01*
X-12247Y-58828D01*
X-15246Y-55173D01*
X-18900Y-52174D01*
X-23070Y-49946D01*
X-27594Y-48573D01*
X-32298Y-48110D01*
X-37003Y-48573D01*
X-39776Y-49414D01*
X-45386Y-43805D01*
X-45194Y-43343D01*
X63485D01*
X84890Y-64748D01*
X84049Y-67521D01*
X83586Y-72226D01*
X84049Y-76931D01*
X85421Y-81455D01*
X87650Y-85624D01*
X90649Y-89279D01*
X94303Y-92278D01*
X98473Y-94506D01*
X102997Y-95879D01*
X107702Y-96342D01*
X112407Y-95879D01*
X116931Y-94506D01*
X121100Y-92278D01*
X124754Y-89279D01*
X127753Y-85624D01*
X129982Y-81455D01*
X131354Y-76931D01*
X131818Y-72226D01*
X131354Y-67521D01*
X129982Y-62997D01*
X127753Y-58828D01*
X124754Y-55173D01*
X121100Y-52174D01*
X116931Y-49946D01*
X112407Y-48573D01*
X107702Y-48110D01*
X102997Y-48573D01*
X100224Y-49414D01*
X81703Y-30893D01*
X81894Y-30431D01*
X190573D01*
X224890Y-64748D01*
X224049Y-67521D01*
X223585Y-72226D01*
X224049Y-76931D01*
X225421Y-81455D01*
X227650Y-85624D01*
X230649Y-89279D01*
X234303Y-92278D01*
X238473Y-94506D01*
X242997Y-95879D01*
X247702Y-96342D01*
X252407Y-95879D01*
X256931Y-94506D01*
X261100Y-92278D01*
X264754Y-89279D01*
X267754Y-85624D01*
X269982Y-81455D01*
X271354Y-76931D01*
X271818Y-72226D01*
X271354Y-67521D01*
X269982Y-62997D01*
X267754Y-58828D01*
X264754Y-55173D01*
X261100Y-52174D01*
X256931Y-49946D01*
X252407Y-48573D01*
X247702Y-48110D01*
X242997Y-48573D01*
X240224Y-49414D01*
X202731Y-11922D01*
X200486Y-10199D01*
X197871Y-9115D01*
X195064Y-8746D01*
X-134099D01*
Y798D01*
X-134494Y3801D01*
X-135653Y6598D01*
X-137496Y9000D01*
X-139899Y10844D01*
X-142696Y12002D01*
X-145698Y12398D01*
D02*
G37*
G36*
X172702Y-48110D02*
X167997Y-48573D01*
X163473Y-49946D01*
X159303Y-52174D01*
X155649Y-55173D01*
X152650Y-58828D01*
X150421Y-62997D01*
X149049Y-67521D01*
X148586Y-72226D01*
X149049Y-76931D01*
X150421Y-81455D01*
X152650Y-85624D01*
X155649Y-89279D01*
X159303Y-92278D01*
X163473Y-94506D01*
X167997Y-95879D01*
X172702Y-96342D01*
X177407Y-95879D01*
X181931Y-94506D01*
X186100Y-92278D01*
X189754Y-89279D01*
X192754Y-85624D01*
X194982Y-81455D01*
X196354Y-76931D01*
X196818Y-72226D01*
X196354Y-67521D01*
X194982Y-62997D01*
X192754Y-58828D01*
X189754Y-55173D01*
X186100Y-52174D01*
X181931Y-49946D01*
X177407Y-48573D01*
X172702Y-48110D01*
D02*
G37*
G36*
X32702D02*
X27997Y-48573D01*
X23473Y-49946D01*
X19303Y-52174D01*
X15649Y-55173D01*
X12650Y-58828D01*
X10421Y-62997D01*
X9049Y-67521D01*
X8586Y-72226D01*
X9049Y-76931D01*
X10421Y-81455D01*
X12650Y-85624D01*
X15649Y-89279D01*
X19303Y-92278D01*
X23473Y-94506D01*
X27997Y-95879D01*
X32702Y-96342D01*
X37406Y-95879D01*
X41930Y-94506D01*
X46100Y-92278D01*
X49754Y-89279D01*
X52754Y-85624D01*
X54982Y-81455D01*
X56354Y-76931D01*
X56818Y-72226D01*
X56354Y-67521D01*
X54982Y-62997D01*
X52754Y-58828D01*
X49754Y-55173D01*
X46100Y-52174D01*
X41930Y-49946D01*
X37406Y-48573D01*
X32702Y-48110D01*
D02*
G37*
G36*
X-485500Y318998D02*
X-494000D01*
Y307498D01*
X-485500D01*
Y318998D01*
D02*
G37*
G36*
X-494500Y279985D02*
X-502500D01*
Y270485D01*
X-494500D01*
Y279985D01*
D02*
G37*
G36*
X225000Y32438D02*
X217500D01*
Y25438D01*
X225000D01*
Y32438D01*
D02*
G37*
%LPD*%
D10*
X-359200Y-373500D02*
Y-350800D01*
X-372500Y-337500D02*
X-359200Y-350800D01*
X-402500Y-337500D02*
X-372500D01*
X-417500Y-352500D02*
X-402500Y-337500D01*
X-435000Y-352500D02*
X-417500D01*
X-390578Y-136521D02*
X-388503D01*
X-394306Y-140250D02*
X-390578Y-136521D01*
X-395253Y-140250D02*
X-394306D01*
X-388503Y-136521D02*
X-380334Y-128352D01*
X-363816D01*
X-354326Y-137842D01*
X-344836D01*
X-343076Y-139602D01*
X-660000Y100000D02*
X-639997D01*
X-517500Y-42500D02*
X-445000D01*
X-416500Y-71000D01*
Y-90000D02*
Y-71000D01*
X-403252Y-139750D02*
X-402752Y-140250D01*
X-532248Y-272499D02*
X-524250D01*
X-575750D02*
X-567752D01*
X-575750Y-257499D02*
X-567752D01*
X-532248D02*
X-524250D01*
X-575750Y-137499D02*
X-567752D01*
X-575750Y-152499D02*
X-567752D01*
X-571750Y201750D02*
Y217250D01*
X-540250D02*
X-540000Y217500D01*
X-545750Y217250D02*
X-540250D01*
X-545750Y272750D02*
X-537750D01*
X-558750Y256250D02*
Y272750D01*
X-565250Y260250D02*
Y272750D01*
X-592500Y318750D02*
Y328002D01*
Y309498D02*
Y318750D01*
X-705502Y342500D02*
X-697500D01*
X-707500Y212500D02*
X-699498D01*
X-707500Y212500D02*
X-707500Y212500D01*
X-730502Y212503D02*
X-722500D01*
X-722500Y212503D01*
X-625000Y117500D02*
X-624999Y117499D01*
X-610001D01*
Y84999D02*
Y117499D01*
X-611695Y83305D02*
X-610001Y84999D01*
X-664248Y83305D02*
X-611695D01*
X-625318Y-16695D02*
X-611695D01*
X-664248D02*
X-625318D01*
Y-41841D02*
Y-16695D01*
X-626783Y-43305D02*
X-625318Y-41841D01*
X-670748Y-43305D02*
X-626783D01*
X-625000Y-16376D02*
Y17500D01*
X-625318Y-16695D02*
X-625000Y-16376D01*
X-670748Y33305D02*
X-670748Y33305D01*
X-670748Y33305D02*
Y56695D01*
X-610001Y-15001D02*
Y17499D01*
X-611695Y-16695D02*
X-610001Y-15001D01*
X-687500Y162998D02*
X-679498D01*
X-687500Y162998D02*
X-687500Y162998D01*
X-710502Y163002D02*
X-702500D01*
X-702500Y163002D01*
X-707500Y242998D02*
X-699498D01*
X-707500Y242998D02*
X-707500Y242998D01*
X-730502Y243002D02*
X-722500D01*
X-722500Y243002D01*
X-687500Y300502D02*
X-679498D01*
X-687500Y300502D02*
X-687500Y300502D01*
X-710502Y300505D02*
X-702500D01*
X-702500Y300505D01*
X-705502Y342500D02*
X-705502Y342500D01*
X-728503Y342503D02*
X-720502D01*
X-720502Y342503D01*
X-720502Y375502D02*
X-720502Y375502D01*
X-728503Y375502D02*
X-720502D01*
X-705502Y375498D02*
X-705502Y375498D01*
X-697500D01*
X-650001Y0D02*
X-639997D01*
X-660000D02*
X-650001D01*
X-431465Y-156035D02*
Y-148535D01*
Y-161465D02*
Y-156035D01*
X-387500Y-390000D02*
Y-381998D01*
X-359200Y-441700D02*
Y-422500D01*
X-333800Y-441300D02*
Y-422500D01*
X-346500Y-441000D02*
Y-422500D01*
X-359200D02*
Y-373500D01*
X-322500Y-395000D02*
X-315000Y-387500D01*
X-340000Y-395000D02*
X-322500D01*
X-346500Y-388500D02*
X-340000Y-395000D01*
X-315000Y-387500D02*
Y-250000D01*
X-323798Y-241202D02*
X-315000Y-250000D01*
X-320000Y-370000D02*
Y-270000D01*
X-323014Y-373014D02*
X-320000Y-370000D01*
X-333314Y-373014D02*
X-323014D01*
X-346500Y-388500D02*
Y-373500D01*
X-343076Y-241202D02*
X-323798D01*
X-333800Y-373500D02*
X-333314Y-373014D01*
X-323398Y-266602D02*
X-320000Y-270000D01*
X-343076Y-266602D02*
X-323398D01*
X-540000Y-159999D02*
Y-92001D01*
X-523043Y-84999D02*
X-522500D01*
X-530044Y-92001D02*
X-523043Y-84999D01*
X-540000Y-92001D02*
X-530044D01*
X-560000Y-159999D02*
Y-92001D01*
X-560000D01*
X-569956D02*
X-560000D01*
X-577500Y-84999D02*
X-576957D01*
X-569956Y-92001D01*
X-430752Y-124750D02*
X-430252Y-125250D01*
X-431465Y-148535D02*
Y-140966D01*
X-670748Y56695D02*
Y70000D01*
X-670748Y56695D02*
X-670748Y56695D01*
X-664248Y70000D02*
Y83305D01*
X-664248Y83305D01*
X-664248Y-30000D02*
Y-16695D01*
X-664248Y-16695D01*
X-670748Y-43305D02*
Y-30000D01*
X-670748Y-43305D02*
X-670748Y-43305D01*
X-639997Y0D02*
Y10498D01*
Y100000D02*
Y110498D01*
X-407500Y-57500D02*
Y167500D01*
X-415000Y175000D02*
X-407500Y167500D01*
X-515502Y175000D02*
X-415000D01*
X-405000Y205000D02*
X-400000Y200000D01*
X-515502Y205000D02*
X-405000D01*
X-400000Y-72500D02*
Y200000D01*
Y-72500D02*
X-383698Y-88802D01*
X-368476D01*
X-565250Y227250D02*
X-560000Y232500D01*
X-565250Y217250D02*
Y227250D01*
X-560000Y232500D02*
X-442500D01*
X-412500Y262500D01*
Y327500D01*
X-394498Y345502D01*
X-232500D01*
X-232497Y345498D01*
X-217500D01*
X-216102Y360897D02*
Y393494D01*
X-217500Y359498D02*
X-216102Y360897D01*
X-733500Y357500D02*
X-692503D01*
X-692503Y357500D01*
X-733500Y387500D02*
X-692503D01*
X-692503Y387500D01*
X-515498Y160000D02*
X-515498Y160000D01*
X-507500D01*
X-515498Y190000D02*
X-515498Y190000D01*
X-507500D01*
X-529502Y175000D02*
X-529498Y174997D01*
Y160000D02*
Y174997D01*
X-529502Y205000D02*
X-529498Y204997D01*
Y190000D02*
Y204997D01*
X-502998Y280000D02*
X-502998Y280000D01*
X-495000D01*
X-502998Y287500D02*
X-502998Y287500D01*
X-495000D01*
X-495498Y300000D02*
X-495498Y300000D01*
X-487500D01*
X-495498Y310000D02*
X-495498Y310000D01*
X-487500D01*
X-577500Y309498D02*
Y317500D01*
Y309498D02*
X-577500Y309498D01*
X-562500Y341998D02*
Y350000D01*
Y341998D02*
X-562500Y341998D01*
X-554625Y365000D02*
X-545000D01*
X-554625Y365000D02*
X-554625Y365000D01*
X-562998Y390000D02*
X-555000D01*
X-562998Y390000D02*
X-562998Y390000D01*
X-615000Y387500D02*
X-606998D01*
X-606998Y387500D01*
X-617500Y372500D02*
X-608000D01*
X-607500Y373000D01*
X-576998Y376123D02*
X-575375Y374500D01*
X-576998Y376123D02*
Y390000D01*
X-579498Y387500D02*
X-576998Y390000D01*
X-592998Y387500D02*
X-579498D01*
X-592998D02*
X-592500Y387002D01*
Y372002D02*
Y387002D01*
X-607500Y357000D02*
X-606498Y358002D01*
X-592500D01*
X-589998Y355500D01*
X-575375D01*
X-607500Y341998D02*
X-577500D01*
X-575375Y344123D01*
Y355500D01*
X-607500Y341998D02*
X-607500Y341998D01*
X-607500Y341998D02*
Y357000D01*
X-664248Y104248D02*
Y120000D01*
Y104248D02*
X-660000Y100000D01*
X-670748Y120000D02*
Y133305D01*
X-610998Y124498D02*
X-609997Y125498D01*
X-670748Y133305D02*
X-670748Y133305D01*
X-625000Y117500D02*
X-624998Y117502D01*
Y124498D01*
Y125502D01*
Y124498D02*
X-610998D01*
X-609999Y117501D02*
Y124497D01*
X-610001Y117499D02*
X-609999Y117501D01*
X-640008Y124488D02*
X-639997Y124498D01*
X-624998D01*
X-649487Y124488D02*
X-640008D01*
X-649495Y124496D02*
X-649487Y124488D01*
X-649495Y124496D02*
Y124496D01*
Y24496D02*
Y24496D01*
Y24496D02*
X-649487Y24488D01*
X-640008D01*
X-639997Y24498D02*
X-624998D01*
X-640008Y24488D02*
X-639997Y24498D01*
X-610001Y17499D02*
X-609999Y17501D01*
Y24497D01*
X-624998Y24498D02*
X-610998D01*
X-624998D02*
Y25502D01*
Y17502D02*
Y24498D01*
X-625000Y17500D02*
X-624998Y17502D01*
X-670748Y33305D02*
X-670748Y33305D01*
X-610998Y24498D02*
X-609997Y25498D01*
X-670748Y20000D02*
Y33305D01*
X-664248Y4248D02*
X-660000Y0D01*
X-664248Y4248D02*
Y20000D01*
X-430252Y-125250D02*
X-422753D01*
X-402752Y-140250D02*
X-395253D01*
X-415250Y-94750D02*
X-414750Y-95250D01*
X-407252D01*
X-415250Y-84750D02*
X-414750Y-85250D01*
X-407252D01*
X-429998Y-110000D02*
X-422500D01*
X-430498Y-109500D02*
X-429998Y-110000D01*
X-417002Y-140000D02*
X-417002Y-140000D01*
X-430498Y-140000D02*
X-417002D01*
X-431465Y-140966D02*
X-430498Y-140000D01*
X-431465Y-161465D02*
X-425000Y-167929D01*
Y-180000D02*
Y-167929D01*
X-444498Y-140000D02*
Y-109500D01*
X-443500Y-156500D02*
Y-90000D01*
X-430000Y-180000D02*
Y-170000D01*
X-443500Y-156500D02*
X-430000Y-170000D01*
X-420000Y-240000D02*
X-415000Y-245000D01*
X-420000Y-240000D02*
Y-230000D01*
X-407500Y-264502D02*
Y-252500D01*
Y-264502D02*
X-407002Y-265000D01*
X-407500Y-252500D02*
X-402000Y-247000D01*
Y-205500D01*
X-415000Y-192500D02*
X-402000Y-205500D01*
X-415000Y-192500D02*
Y-180000D01*
X-410000D02*
X-402280D01*
X-420000D02*
Y-165000D01*
X-484571Y-65000D02*
X-462500Y-87071D01*
Y-207500D02*
Y-87071D01*
X-482500Y-60000D02*
X-457500Y-85000D01*
Y-199571D02*
Y-85000D01*
Y-199571D02*
X-449571Y-207500D01*
X-438000Y-200000D02*
X-417929D01*
X-535000Y-65000D02*
X-484571D01*
X-540000Y-70000D02*
X-535000Y-65000D01*
X-540000Y-78001D02*
Y-70000D01*
X-560000Y-78001D02*
Y-67500D01*
X-552500Y-60000D01*
X-482500D01*
X-449571Y-207500D02*
X-417500D01*
X-417929Y-200000D02*
X-410000Y-207929D01*
Y-230000D02*
Y-207929D01*
Y-230000D02*
X-410000Y-230000D01*
X-417500Y-207500D02*
X-415000Y-210000D01*
Y-230000D02*
Y-210000D01*
X-577500Y-327999D02*
X-575961D01*
X-569457Y-321496D01*
X-560000D01*
X-523043Y-327999D02*
X-522500D01*
X-530044Y-320998D02*
X-523043Y-327999D01*
X-540000Y-320998D02*
X-530044D01*
X-560000Y-345000D02*
X-560000Y-345000D01*
X-560000Y-345000D02*
Y-335496D01*
X-437500Y-335000D02*
X-430000Y-327500D01*
X-540000Y-352498D02*
X-539999Y-352499D01*
X-540000Y-352498D02*
Y-334997D01*
X-425000Y-337500D02*
X-425000Y-337500D01*
X-425000Y-337500D02*
Y-230000D01*
X-430000Y-327500D02*
Y-230000D01*
X-480498Y-365000D02*
X-472500D01*
X-480498Y-365000D02*
X-480498Y-365000D01*
Y-375000D02*
X-472500D01*
X-480498Y-375000D02*
X-480498Y-375000D01*
Y-355000D02*
X-472500D01*
X-480498Y-355000D02*
X-480498Y-355000D01*
X-480502Y-160501D02*
Y-137499D01*
X-482500Y-162499D02*
X-480502Y-160501D01*
Y-137499D02*
Y-122499D01*
X-508923Y-364254D02*
X-508500Y-364676D01*
X-558750Y188750D02*
X-545000Y175000D01*
X-529502D01*
X-558750Y188750D02*
Y217250D01*
X-550000Y205000D02*
X-529502D01*
X-529502Y205000D01*
X-552250Y207250D02*
X-550000Y205000D01*
X-552250Y207250D02*
Y217250D01*
X-511900Y-174578D02*
X-509821Y-172499D01*
X-625000Y327998D02*
X-607500D01*
X-607500Y327998D02*
X-607500Y327998D01*
X-607500Y309502D02*
Y327998D01*
X-543750Y312748D02*
Y319998D01*
Y312748D02*
X-543750Y312748D01*
Y312248D02*
Y312748D01*
Y312248D02*
X-541000Y309498D01*
X-540500D01*
X-592500D02*
X-577500D01*
X-592500Y309498D02*
X-592500Y309498D01*
X-523500Y304998D02*
Y324502D01*
X-524000Y304498D02*
X-523500Y304998D01*
X-523500Y257250D02*
Y284698D01*
X-540500D02*
X-523500D01*
X-552250D02*
X-540500D01*
Y295498D01*
X-523500Y284698D02*
Y303998D01*
Y284698D02*
X-523213D01*
X-521500Y282985D01*
X-524000Y304498D02*
X-523500Y303998D01*
X-571750Y241398D02*
X-526103D01*
X-524500Y243002D01*
X-578250Y234898D02*
X-571750Y241398D01*
X-578250Y217250D02*
Y234898D01*
X-560498Y307500D02*
X-554250D01*
X-562500Y309502D02*
X-560498Y307500D01*
X-554250D02*
X-552250Y305500D01*
Y284698D02*
Y305500D01*
X-569750Y284698D02*
X-552250D01*
Y272750D02*
Y284698D01*
X-571463Y282985D02*
X-569750Y284698D01*
X-571463Y273037D02*
Y282985D01*
X-571750Y272750D02*
X-571463Y273037D01*
X-607500Y295502D02*
X-577500D01*
X-578250Y294752D02*
X-577500Y295502D01*
X-565000D01*
X-578250Y272750D02*
Y294752D01*
X-646996Y296996D02*
X-630000Y280000D01*
X-629999Y240000D02*
X-590996D01*
X-584750Y233753D01*
Y217250D02*
Y233753D01*
X-657497Y357500D02*
X-646996Y346998D01*
Y296996D02*
Y346998D01*
X-639497Y301998D02*
Y363613D01*
X-663385Y387500D02*
X-639497Y363613D01*
Y301998D02*
X-617500Y280000D01*
X-678503Y357500D02*
X-657497D01*
X-678503Y387500D02*
X-663385D01*
X-584750Y253179D02*
Y272750D01*
X-592681Y245248D02*
X-584750Y253179D01*
X-609819Y245248D02*
X-592681D01*
X-591250Y253750D02*
Y272750D01*
X-594752Y250248D02*
X-591250Y253750D01*
X-607748Y250248D02*
X-594752D01*
X-612074Y247502D02*
X-609819Y245248D01*
X-617500Y247502D02*
X-612074D01*
X-614498Y256998D02*
X-607748Y250248D01*
X-680000Y256998D02*
X-614498D01*
X-680502Y257500D02*
X-680000Y256998D01*
X-597750Y178682D02*
X-582500Y163432D01*
X-597750Y178682D02*
Y217250D01*
X-582500Y140499D02*
Y163432D01*
X-572500Y111750D02*
Y160503D01*
X-590000Y178003D02*
X-572500Y160503D01*
X-590000Y178003D02*
Y199750D01*
X-580249Y104000D02*
X-572500Y111750D01*
X-597750Y261498D02*
Y272750D01*
X-602250Y256998D02*
X-597750Y261498D01*
X-580249Y42750D02*
Y104000D01*
X-582999Y40000D02*
X-580249Y42750D01*
X-582999Y140000D02*
X-582500Y140499D01*
X-658002Y288503D02*
Y315000D01*
Y288503D02*
X-642248Y272750D01*
X-604250D01*
X-680502Y227500D02*
X-637500D01*
X-633535Y231465D01*
X-593965D01*
X-591250Y228750D01*
Y217250D02*
Y228750D01*
X-612500Y177500D02*
X-604250Y185750D01*
Y217250D01*
X-660502Y177500D02*
X-612500D01*
X-619498Y-160501D02*
Y-152499D01*
X-445000Y-88500D02*
X-443500Y-90000D01*
X-444502Y-125000D02*
X-444502Y-125000D01*
X-525247Y-304999D02*
X-525247Y-304999D01*
X-517248D01*
X-525247Y-289999D02*
X-525247Y-289999D01*
X-517248D01*
X-524250Y-272499D02*
X-524250Y-272499D01*
X-524250Y-257499D02*
X-524250Y-257499D01*
X-574753Y-304999D02*
X-574753Y-304999D01*
X-582752Y-304999D02*
X-574753D01*
Y-289999D02*
X-574753Y-289999D01*
X-582752Y-289999D02*
X-574753D01*
X-575750Y-272499D02*
X-575750Y-272499D01*
Y-257499D02*
X-575750Y-257499D01*
X-537300Y-247299D02*
Y-228499D01*
X-540000Y-249999D02*
X-537300Y-247299D01*
X-540000Y-317997D02*
Y-249999D01*
X-560000Y-317997D02*
Y-249999D01*
X-562700Y-247299D02*
X-560000Y-249999D01*
X-562700Y-247299D02*
Y-228499D01*
X-575750Y-152499D02*
X-575750Y-152499D01*
X-575750Y-137499D02*
X-575750Y-137499D01*
X-582752Y-122499D02*
X-574753D01*
X-574753Y-122499D01*
X-582752Y-107499D02*
X-574753D01*
X-574753Y-107499D01*
X-562700Y-181499D02*
Y-162699D01*
X-560000Y-159999D01*
X-525498Y-107499D02*
X-525498Y-107499D01*
X-517500D01*
X-525498Y-122499D02*
X-525498Y-122499D01*
X-517500D01*
X-524502Y-137499D02*
X-524502Y-137499D01*
X-532500Y-137499D02*
X-524502D01*
X-532500Y-152499D02*
X-524502D01*
X-524502Y-152499D01*
X-540000Y-159999D02*
X-537300Y-162699D01*
Y-181499D02*
Y-162699D01*
X-605498Y-137499D02*
Y-122499D01*
X-605502Y-152499D02*
X-590000D01*
X-605498Y-137499D02*
X-589498D01*
X-605498Y-137499D02*
X-605498Y-137499D01*
X-590000Y-152499D02*
Y-138001D01*
X-605498Y-152496D02*
Y-137499D01*
X-605502Y-152499D02*
X-605498Y-152496D01*
X-619498Y-160501D02*
X-617500Y-162499D01*
X-607500D01*
X-605000Y-164999D01*
Y-172001D02*
Y-164999D01*
X-619498Y-137499D02*
Y-122499D01*
Y-152499D02*
Y-137499D01*
X-605498Y-172499D02*
X-590179D01*
X-605498Y-287999D02*
Y-272999D01*
X-605502Y-257999D02*
X-590000D01*
X-605498Y-272999D02*
X-589498D01*
X-605498Y-272999D02*
X-605498Y-272999D01*
X-590000Y-272497D02*
Y-257999D01*
X-605498Y-272999D02*
Y-258002D01*
X-605502Y-257999D02*
X-605498Y-258002D01*
X-590000Y-152499D02*
Y-138001D01*
X-576261Y-180638D02*
X-575400Y-181499D01*
X-576261Y-180638D02*
Y-166238D01*
X-580000Y-162499D02*
X-576261Y-166238D01*
X-587500Y-162499D02*
X-580000D01*
X-590000Y-159999D02*
X-587500Y-162499D01*
X-590000Y-159999D02*
Y-152499D01*
Y-257499D02*
Y-249999D01*
X-587500Y-247499D01*
X-580000D01*
X-576261Y-243760D01*
Y-229360D01*
X-575400Y-228499D01*
X-494502Y-287999D02*
Y-272999D01*
X-510502Y-272999D02*
X-510000Y-272497D01*
Y-257999D02*
X-494498D01*
X-510502D02*
X-510000D01*
X-510502Y-272999D02*
X-494502D01*
X-494502Y-272999D01*
X-510000Y-272497D02*
Y-257999D01*
X-494502Y-272999D02*
Y-258002D01*
X-494498Y-257999D01*
X-524600Y-228499D02*
X-523739Y-229360D01*
Y-243760D02*
Y-229360D01*
Y-243760D02*
X-520000Y-247499D01*
X-512500D01*
X-510000Y-249999D01*
Y-257499D02*
Y-249999D01*
X-511900Y-181499D02*
Y-174578D01*
X-495000Y-172001D02*
Y-164999D01*
Y-172001D02*
X-494502Y-172499D01*
X-495000Y-164999D02*
X-492500Y-162499D01*
X-482500D01*
X-494502Y-152496D02*
X-494498Y-152499D01*
X-494502Y-152496D02*
Y-137499D01*
X-510000Y-152499D02*
Y-138001D01*
X-494502Y-137499D02*
X-494502Y-137499D01*
X-510502Y-137499D02*
X-494502D01*
X-510000Y-159999D02*
Y-152499D01*
X-510502D02*
X-510000D01*
X-494498D01*
X-510502Y-137499D02*
X-510000Y-138001D01*
X-512500Y-162499D02*
X-510000Y-159999D01*
X-520000Y-162499D02*
X-512500D01*
X-523739Y-166238D02*
X-520000Y-162499D01*
X-523739Y-180638D02*
Y-166238D01*
X-524600Y-181499D02*
X-523739Y-180638D01*
X-494502Y-137499D02*
Y-122499D01*
D12*
X18998Y192300D02*
X28738D01*
X-57939Y45439D02*
X255998D01*
X-75000Y62500D02*
X-57939Y45439D01*
X-75000Y62500D02*
Y330498D01*
X-55439Y7939D02*
X255998D01*
X-90000Y42500D02*
X-55439Y7939D01*
X-90000Y42500D02*
Y330502D01*
X-480502Y-287999D02*
Y-257999D01*
X-615000Y-407500D02*
X-480000D01*
X-635602Y-386898D02*
X-615000Y-407500D01*
X-652497Y-386898D02*
X-635602D01*
X-242002Y359502D02*
X-232500D01*
X28738Y243100D02*
Y256238D01*
X2500Y232002D02*
Y240000D01*
Y182002D02*
Y190000D01*
X-542500Y-395000D02*
X-533254D01*
X-526746D02*
X-517500D01*
X-550000Y-387500D02*
Y-378254D01*
X-737500Y-377500D02*
X-728397D01*
X-737500Y-385000D02*
X-728397D01*
X-737500Y-402500D02*
X-728397D01*
X-737500Y-395000D02*
X-728397D01*
X-737500Y-235000D02*
X-728397D01*
X-737500Y-242500D02*
X-728397D01*
X-737500Y-225000D02*
X-728397D01*
X-737500Y-217500D02*
X-728397D01*
X-90000Y355000D02*
X-90000Y355000D01*
X-90000Y344502D02*
Y355000D01*
X-60000D02*
X-60000Y355000D01*
X-60000Y344502D02*
Y355000D01*
X-45000Y344498D02*
Y357500D01*
X-63702Y376202D02*
X-45000Y357500D01*
X-63702Y376202D02*
Y393494D01*
X-75000Y344498D02*
Y357500D01*
X-89102Y371602D02*
X-75000Y357500D01*
X-89102Y371602D02*
Y393494D01*
X296423Y192300D02*
X296998Y192875D01*
X125258Y192300D02*
X296423D01*
X125258Y166900D02*
X126657Y165502D01*
X145000D01*
X183997Y179502D02*
X191998Y171500D01*
X145000Y179502D02*
X183997D01*
X143780Y221000D02*
X169500D01*
X128558D02*
X143780D01*
X145000Y222219D01*
Y273002D01*
X184498Y287002D02*
X192500Y279000D01*
X145000Y287002D02*
X184498D01*
X125258Y243100D02*
Y292758D01*
X132873Y300373D01*
X297000D01*
X125258Y217700D02*
X128558Y221000D01*
X134000Y113500D02*
X168998D01*
X125258Y122242D02*
X134000Y113500D01*
X125258Y122242D02*
Y166900D01*
X-45000Y245000D02*
X-17700Y217700D01*
X28738D01*
X-45000Y245000D02*
Y330498D01*
X-60000Y202500D02*
X-24400Y166900D01*
X28738D01*
X-60000Y202500D02*
Y330502D01*
X305000Y25000D02*
X387500D01*
X284561Y45439D02*
X305000Y25000D01*
X269998Y45439D02*
X284561D01*
X304050Y950D02*
X381550D01*
X297061Y7939D02*
X304050Y950D01*
X269998Y7939D02*
X297061D01*
X381550Y950D02*
X403425Y-20925D01*
Y-35925D02*
Y-20925D01*
Y-35925D02*
X412503Y-45002D01*
X440000D01*
X422501Y-10001D02*
X440000D01*
X387500Y25000D02*
X422501Y-10001D01*
X192500Y221000D02*
Y279000D01*
X191998Y113500D02*
X192002Y113497D01*
X191998Y113500D02*
Y171500D01*
X254498Y227500D02*
X287500D01*
X225000Y226505D02*
X254498D01*
X384850Y227650D02*
X420000Y192500D01*
X301650Y227650D02*
X384850D01*
X301500Y227500D02*
X301650Y227650D01*
X321100Y260000D02*
X328050Y253050D01*
X301500Y260000D02*
X321100D01*
X287500D02*
Y279623D01*
X260628Y279625D02*
X287498D01*
X218248Y227500D02*
X225000D01*
X225000Y227500D02*
X254498D01*
X225000Y120000D02*
X287500D01*
X214998Y116750D02*
X218248Y120000D01*
X225000D01*
X225000Y120000D01*
X214998Y218500D02*
Y223255D01*
X218248Y226505D01*
X225000D01*
X254498Y165995D02*
X260628Y172125D01*
X287498D01*
X287500Y172123D01*
Y152500D02*
Y172123D01*
X214998Y113500D02*
Y116750D01*
X328050Y253050D02*
X384450D01*
X328550Y126050D02*
X396450D01*
X322500Y120000D02*
X328550Y126050D01*
X301500Y120000D02*
X322500D01*
X420000Y102500D02*
X440000D01*
X396450Y126050D02*
X420000Y102500D01*
X415000Y137500D02*
X440000D01*
X400000Y152500D02*
X415000Y137500D01*
X301500Y152500D02*
X400000D01*
X420000Y192500D02*
X440000D01*
X410000Y227500D02*
X440000D01*
X384450Y253050D02*
X410000Y227500D01*
X-115000Y360000D02*
X-102500Y372500D01*
Y406892D01*
X-114502Y418894D02*
X-102500Y406892D01*
X-115000Y344502D02*
Y360000D01*
X-132500Y362500D02*
X-114502Y380498D01*
Y393494D01*
X-132500Y344498D02*
Y362500D01*
X-167500Y344498D02*
Y365896D01*
X-139902Y393494D01*
X-127500Y382500D02*
Y406492D01*
X-139902Y418894D02*
X-127500Y406492D01*
X-150000Y360000D02*
X-127500Y382500D01*
X-150000Y344502D02*
Y360000D01*
X-145698Y116802D02*
X-115000Y147500D01*
Y330502D01*
X-145698Y83298D02*
Y116802D01*
X-158398Y121602D02*
X-132500Y147500D01*
Y330498D01*
X-158398Y83298D02*
Y121602D01*
X-171098Y126402D02*
X-150000Y147500D01*
Y330502D01*
X-171098Y83298D02*
Y126402D01*
X-183798Y83298D02*
Y133702D01*
X-167500Y150000D01*
Y330498D01*
X-390000Y-365748D02*
X-387750Y-367998D01*
X-387500D01*
X-390000Y-365748D02*
Y-352500D01*
X-371900Y-373500D02*
Y-369615D01*
X-373517Y-367998D02*
X-371900Y-369615D01*
X-387500Y-367998D02*
X-373517D01*
X-371900Y-422500D02*
Y-373500D01*
X-307500Y-172500D02*
X-260355D01*
X-311752Y-176752D02*
X-307500Y-172500D01*
X-383248Y-176752D02*
X-311752D01*
X-307500Y-165000D02*
X300498D01*
X-320000Y-152500D02*
X-307500Y-165000D01*
X-401730Y-152500D02*
X-320000D01*
X-397500Y-162500D02*
X-383248Y-176752D01*
X-417500Y-162500D02*
X-397500D01*
X-657747Y120000D02*
X-657497Y120250D01*
X-402280Y-180000D02*
X-402000Y-180280D01*
X-420000Y-165000D02*
X-417500Y-162500D01*
X-260355Y-172500D02*
X282500Y-172500D01*
X300502Y-190502D01*
Y-207500D02*
Y-190502D01*
X331755Y-204150D02*
X356371D01*
X328405Y-207500D02*
X331755Y-204150D01*
X314502Y-207500D02*
X328405D01*
X356371Y-204150D02*
X368121Y-215900D01*
X314498Y-165000D02*
X314598Y-165100D01*
X342721D01*
X-393002Y-265000D02*
X-391400Y-266602D01*
X-368476D01*
X-619501Y-287997D02*
Y-258001D01*
X-637001Y-287999D02*
X-619503D01*
X-645003Y-279998D02*
X-637001Y-287999D01*
X-669597Y-279998D02*
X-645003D01*
X-472500Y-172500D02*
X-472500Y-172500D01*
X-480501Y-172500D02*
X-472500D01*
X-480502Y-172499D02*
X-480501Y-172500D01*
X-787497Y-97499D02*
X-768064D01*
X-660310Y-154690D02*
X-655000Y-160000D01*
X-768064Y-97499D02*
X-760000Y-105563D01*
Y-137500D02*
Y-105563D01*
Y-137500D02*
X-742810Y-154690D01*
X-660310D01*
X-655000Y-160000D02*
X-640000D01*
X-672501Y-172499D02*
X-619498D01*
X-677501Y-167499D02*
X-672501Y-172499D01*
X-787497Y-167499D02*
X-677501D01*
X-457500Y-385000D02*
Y-297500D01*
X-480000Y-407500D02*
X-457500Y-385000D01*
X-480502Y-287999D02*
X-480003Y-287500D01*
X-467500D01*
X-457500Y-297500D01*
X-652497Y-416898D02*
X-479398D01*
X-450000Y-387500D01*
Y-250000D01*
X-462501Y-237499D02*
X-450000Y-250000D01*
X-480502Y-237499D02*
X-462501D01*
X-495064Y-236937D02*
Y-227738D01*
X-488063Y-220736D01*
Y-219438D01*
X-488561Y-188938D02*
Y-187639D01*
X-495563Y-180637D02*
X-488561Y-187639D01*
X-495563Y-180637D02*
Y-171439D01*
X-605000Y-181200D02*
Y-172001D01*
X-612002Y-188201D02*
X-605000Y-181200D01*
X-612002Y-189500D02*
Y-188201D01*
X-612500Y-221299D02*
Y-220000D01*
Y-221299D02*
X-605498Y-228300D01*
Y-237499D02*
Y-228300D01*
X-630000Y-237500D02*
X-619499D01*
X-619498Y-237499D01*
X-634601Y-232899D02*
X-630000Y-237500D01*
X-652497Y-232899D02*
X-634601D01*
X-588100Y-233582D02*
Y-228499D01*
X-589717Y-235199D02*
X-588100Y-233582D01*
X-594800Y-235199D02*
X-589717D01*
X-597100Y-237499D02*
X-594800Y-235199D01*
X-605498Y-237499D02*
X-597100D01*
X-550000Y-181499D02*
Y-162500D01*
Y-364254D02*
X-508923D01*
X-550000D02*
Y-228499D01*
X-619503Y-287999D02*
X-619501Y-287997D01*
Y-258001D02*
X-619498Y-257999D01*
X-652993Y-202403D02*
Y-196500D01*
Y-202403D02*
X-652497Y-202899D01*
X-669597Y-341996D02*
X-652497Y-359096D01*
Y-386898D02*
Y-359096D01*
X-735498Y227500D02*
X-694502D01*
X-694502Y227500D01*
X-735498Y227500D02*
X-735498Y227500D01*
X-715498Y177500D02*
X-674502D01*
X-674502Y177500D01*
X-715498Y177500D02*
X-715498Y177500D01*
X-642996Y140000D02*
X-596999D01*
X-596999Y140000D01*
X-642996Y140000D02*
X-642996Y140000D01*
Y40000D02*
X-596999D01*
X-596999Y40000D01*
X-642996Y40000D02*
X-642996Y40000D01*
X-657497Y39498D02*
X-656996Y40000D01*
X-657497Y20250D02*
Y39498D01*
X-657747Y20000D02*
X-657497Y20250D01*
Y139498D02*
X-656996Y140000D01*
X-657497Y120250D02*
Y139498D01*
X-657747Y120000D02*
X-657497Y120250D01*
X-684747Y70000D02*
X-676998D01*
X-687247Y72500D02*
X-684747Y70000D01*
X-687247Y72500D02*
Y79750D01*
X-707247Y81500D02*
X-688998D01*
X-687247Y79750D01*
X-682697Y120000D02*
X-676998D01*
X-684747Y117950D02*
X-682697Y120000D01*
X-684747Y112500D02*
Y117950D01*
X-687247Y110000D02*
X-684747Y112500D01*
X-705748Y110000D02*
X-687247D01*
X-707998Y8000D02*
X-705997Y10000D01*
X-687497D01*
X-684997Y12500D01*
Y17950D01*
X-682947Y20000D01*
X-677247D01*
X-689248Y-18500D02*
X-687497Y-20250D01*
X-707497Y-18500D02*
X-689248D01*
X-687497Y-27500D02*
Y-20250D01*
Y-27500D02*
X-684997Y-30000D01*
X-677247D01*
D13*
X195064Y-19589D02*
X247702Y-72226D01*
X-142775Y-19589D02*
X195064D01*
X-145411Y-16953D02*
X-142775Y-19589D01*
X-145411Y-16953D02*
Y-7989D01*
X-145698Y-7702D02*
X-145411Y-7989D01*
X67976Y-32500D02*
X107702Y-72226D01*
X-152500Y-32500D02*
X67976D01*
X-158398Y-26602D02*
X-152500Y-32500D01*
X-158398Y-26602D02*
Y-7702D01*
X-62024Y-42500D02*
X-32298Y-72226D01*
X-157500Y-42500D02*
X-62024D01*
X-171098Y-28902D02*
X-157500Y-42500D01*
X-171098Y-28902D02*
Y-7702D01*
X-183798Y-38702D02*
X-172298Y-50202D01*
Y-72226D02*
Y-50202D01*
X-183798Y-38702D02*
Y-7702D01*
X-509821Y-172499D02*
X-494502D01*
X-511900Y-235219D02*
Y-228499D01*
Y-235219D02*
X-510745Y-236374D01*
X-495627D01*
X-494502Y-237499D01*
X-677497Y-401898D02*
X-654498D01*
X-683497D02*
X-677497D01*
Y-217899D02*
X-654498D01*
X-683000D02*
X-677497D01*
X-683497Y-218397D02*
X-683000Y-217899D01*
X-711998Y-381996D02*
Y-358899D01*
Y-399496D02*
Y-381996D01*
Y-358899D02*
X-694997Y-341899D01*
X-711998Y-237899D02*
Y-220399D01*
Y-262997D02*
Y-237899D01*
Y-262997D02*
X-694997Y-279998D01*
X-562500Y327998D02*
X-551128D01*
X-577500D02*
X-562500D01*
X-547750Y347002D02*
X-543250Y351502D01*
X-523500D01*
X-547750Y331377D02*
Y347002D01*
X-551128Y327998D02*
X-547750Y331377D01*
X-735498Y257500D02*
X-694502D01*
X-694502Y257500D01*
X-735498Y257500D02*
X-735498Y257500D01*
X-715498Y315000D02*
X-672002D01*
X-672002Y315000D01*
X-715498Y315000D02*
X-715498Y315000D01*
X-729498D02*
X-729498Y315000D01*
X-750000Y315000D02*
X-729498D01*
X-750000Y177500D02*
X-729498D01*
X-729498Y177500D01*
X-787500Y342503D02*
X-772501Y357501D01*
X-749498D02*
X-749498Y357501D01*
X-772501Y357501D02*
X-749498D01*
X-749747Y387253D02*
X-749498Y387501D01*
X-759864Y387253D02*
X-749747D01*
X-762500Y384617D02*
X-759864Y387253D01*
X-787500Y377504D02*
X-787497Y377501D01*
X-762500Y380137D02*
Y384617D01*
X-765136Y377501D02*
X-762500Y380137D01*
X-787497Y377501D02*
X-765136D01*
X-787497Y247500D02*
X-765136D01*
X-762500Y250136D01*
Y254616D01*
X-787500Y247502D02*
X-787497Y247500D01*
X-762500Y254616D02*
X-759864Y257252D01*
X-749747D01*
X-749498Y257500D01*
X-772501Y227500D02*
X-749498D01*
X-749498Y227500D01*
X-787500Y212501D02*
X-772501Y227500D01*
D19*
X-707497Y108500D02*
D03*
Y81500D02*
D03*
X-747497Y108500D02*
D03*
Y81500D02*
D03*
X-707497Y8500D02*
D03*
Y-18500D02*
D03*
X-747497Y8500D02*
D03*
Y-18500D02*
D03*
X-523500Y324502D02*
D03*
Y351502D02*
D03*
D20*
X-727998Y-220399D02*
D03*
X-711998D02*
D03*
X-727998Y-237899D02*
D03*
X-711998D02*
D03*
X-521500Y282985D02*
D03*
X-505500D02*
D03*
X-727998Y-399496D02*
D03*
X-711998D02*
D03*
X-727998Y-381996D02*
D03*
X-711998D02*
D03*
D21*
X-658002Y315000D02*
D03*
X-672002D02*
D03*
X-729498Y315000D02*
D03*
X-715498D02*
D03*
X-747500Y357500D02*
D03*
X-733500D02*
D03*
X-678503Y357500D02*
D03*
X-692503D02*
D03*
X-678503Y387500D02*
D03*
X-692503D02*
D03*
X-606998Y387500D02*
D03*
X-592998D02*
D03*
X-680502Y257500D02*
D03*
X-694502D02*
D03*
X-749498Y227500D02*
D03*
X-735498D02*
D03*
X-729498Y177500D02*
D03*
X-715498D02*
D03*
X-660502Y177500D02*
D03*
X-674502D02*
D03*
X-680502Y227500D02*
D03*
X-694502D02*
D03*
X-656996Y40000D02*
D03*
X-642996D02*
D03*
X-582999Y40000D02*
D03*
X-596999D02*
D03*
X-619498Y-257999D02*
D03*
X-605498D02*
D03*
X-619502Y-273499D02*
D03*
X-605502D02*
D03*
X-605503Y-287999D02*
D03*
X-619503D02*
D03*
X-510502Y-152499D02*
D03*
X-524502D02*
D03*
X-539498Y-122499D02*
D03*
X-525498D02*
D03*
X-510502Y-137499D02*
D03*
X-524502D02*
D03*
X-480502Y-172499D02*
D03*
X-494502D02*
D03*
X-494498Y-152499D02*
D03*
X-480498D02*
D03*
X-480502Y-137499D02*
D03*
X-494502D02*
D03*
X-539498Y-107499D02*
D03*
X-525498D02*
D03*
X-560502Y-122499D02*
D03*
X-574502D02*
D03*
X-560502Y-107499D02*
D03*
X-574502D02*
D03*
X-589498Y-152499D02*
D03*
X-575498D02*
D03*
X-589498Y-137499D02*
D03*
X-575498D02*
D03*
X-480502Y-122499D02*
D03*
X-494502D02*
D03*
X-444498Y-109500D02*
D03*
X-430498D02*
D03*
X-430502Y-125000D02*
D03*
X-444502D02*
D03*
X-444498Y-140000D02*
D03*
X-430498D02*
D03*
X-403002Y-140000D02*
D03*
X-417002D02*
D03*
X-480502Y-237499D02*
D03*
X-494502D02*
D03*
X-480502Y-257999D02*
D03*
X-494502D02*
D03*
X-494498Y-272999D02*
D03*
X-480498D02*
D03*
X-480502Y-287999D02*
D03*
X-494502D02*
D03*
X-510502Y-272999D02*
D03*
X-524502D02*
D03*
X-510502Y-257999D02*
D03*
X-524502D02*
D03*
X-589498Y-257999D02*
D03*
X-575498D02*
D03*
X-589750Y-273499D02*
D03*
X-575750D02*
D03*
X-539498Y-290499D02*
D03*
X-525498D02*
D03*
X-539498Y-305499D02*
D03*
X-525498D02*
D03*
X-560502Y-305499D02*
D03*
X-574502D02*
D03*
X-560502Y-290499D02*
D03*
X-574502D02*
D03*
X-619498Y-237499D02*
D03*
X-605498D02*
D03*
X-582999Y140000D02*
D03*
X-596999D02*
D03*
X-515502Y205000D02*
D03*
X-529502D02*
D03*
X-515502Y175000D02*
D03*
X-529502D02*
D03*
X-747500Y387500D02*
D03*
X-733500D02*
D03*
X-529498Y190000D02*
D03*
X-515498D02*
D03*
X-656996Y140000D02*
D03*
X-642996D02*
D03*
X-619498Y-137499D02*
D03*
X-605498D02*
D03*
X-619498Y-122499D02*
D03*
X-605498D02*
D03*
X-619498Y-172499D02*
D03*
X-605498D02*
D03*
X-576998Y390000D02*
D03*
X-562998D02*
D03*
X-529498Y160000D02*
D03*
X-515498D02*
D03*
X-749498Y257500D02*
D03*
X-735498D02*
D03*
X287500Y260000D02*
D03*
X301500D02*
D03*
X287500Y227500D02*
D03*
X301500D02*
D03*
X287500Y152500D02*
D03*
X301500D02*
D03*
X287500Y120000D02*
D03*
X301500D02*
D03*
X269998Y7939D02*
D03*
X255998D02*
D03*
X269998Y45439D02*
D03*
X255998D02*
D03*
X300502Y-207500D02*
D03*
X314502D02*
D03*
X314498Y-165000D02*
D03*
X300498D02*
D03*
X-393002Y-265000D02*
D03*
X-407002D02*
D03*
X-605502Y-152499D02*
D03*
X-619502D02*
D03*
D22*
X-702500Y314498D02*
D03*
Y300498D02*
D03*
X-720502Y343002D02*
D03*
Y357002D02*
D03*
X-705502Y356998D02*
D03*
Y342998D02*
D03*
X-720502Y375502D02*
D03*
Y389502D02*
D03*
X-705502Y389498D02*
D03*
Y375498D02*
D03*
X-592500Y358002D02*
D03*
Y372002D02*
D03*
X-562500Y341998D02*
D03*
Y327998D02*
D03*
X-577500Y341998D02*
D03*
Y327998D02*
D03*
X-592500Y328002D02*
D03*
Y342002D02*
D03*
X-607500Y341998D02*
D03*
Y327998D02*
D03*
X-562500Y295502D02*
D03*
Y309502D02*
D03*
X-577500Y309498D02*
D03*
Y295498D02*
D03*
X-592500Y309498D02*
D03*
Y295498D02*
D03*
X-607500Y295502D02*
D03*
Y309502D02*
D03*
X-540500Y309498D02*
D03*
Y295498D02*
D03*
X-523500Y243250D02*
D03*
Y257250D02*
D03*
X-707500Y256998D02*
D03*
Y242998D02*
D03*
Y226998D02*
D03*
Y212998D02*
D03*
X-722500Y213002D02*
D03*
Y227002D02*
D03*
X-702500Y163002D02*
D03*
Y177002D02*
D03*
X-687500Y176998D02*
D03*
Y162998D02*
D03*
X-609997Y139498D02*
D03*
Y125498D02*
D03*
X-624997Y125502D02*
D03*
Y139502D02*
D03*
X-639997Y124498D02*
D03*
Y110498D02*
D03*
X-609997Y39498D02*
D03*
Y25498D02*
D03*
X-624998Y25502D02*
D03*
Y39502D02*
D03*
X-639997Y24498D02*
D03*
Y10498D02*
D03*
X-540000Y-78001D02*
D03*
Y-92001D02*
D03*
X-560000Y-78001D02*
D03*
Y-92001D02*
D03*
X-560000Y-335496D02*
D03*
Y-321496D02*
D03*
X-540000Y-334997D02*
D03*
Y-320998D02*
D03*
X2500Y218002D02*
D03*
Y232002D02*
D03*
Y168002D02*
D03*
Y182002D02*
D03*
X-90000Y330502D02*
D03*
Y344502D02*
D03*
X-150000Y330502D02*
D03*
Y344502D02*
D03*
X-167500Y344498D02*
D03*
Y330498D02*
D03*
X-217500Y359498D02*
D03*
Y345498D02*
D03*
X-232500Y345502D02*
D03*
Y359502D02*
D03*
X-75000Y344498D02*
D03*
Y330498D02*
D03*
X-45000Y344498D02*
D03*
Y330498D02*
D03*
X-115000Y330502D02*
D03*
Y344502D02*
D03*
X-60000Y330502D02*
D03*
Y344502D02*
D03*
X-132500Y344498D02*
D03*
Y330498D02*
D03*
X145000Y273002D02*
D03*
Y287002D02*
D03*
Y165502D02*
D03*
Y179502D02*
D03*
X243000Y21939D02*
D03*
Y7939D02*
D03*
X243000Y59938D02*
D03*
Y45938D02*
D03*
X-722500Y243002D02*
D03*
Y257002D02*
D03*
X-387500Y-381998D02*
D03*
Y-367998D02*
D03*
X228000Y59938D02*
D03*
Y45938D02*
D03*
Y22438D02*
D03*
Y8438D02*
D03*
X-687500Y300502D02*
D03*
Y314502D02*
D03*
X-550000Y-364254D02*
D03*
Y-378254D02*
D03*
D23*
X-575375Y374500D02*
D03*
Y355500D02*
D03*
D24*
X-554625Y365000D02*
D03*
D25*
X-607500Y357000D02*
D03*
Y373000D02*
D03*
D26*
X-497000Y304498D02*
D03*
X-524000D02*
D03*
X-443500Y-90000D02*
D03*
X-416500D02*
D03*
D27*
X-604250Y217250D02*
D03*
X-597750D02*
D03*
X-591250D02*
D03*
X-584750D02*
D03*
X-578250D02*
D03*
X-571750D02*
D03*
X-565250D02*
D03*
X-558750D02*
D03*
X-552250D02*
D03*
X-545750D02*
D03*
X-604250Y272750D02*
D03*
X-597750D02*
D03*
X-591250D02*
D03*
X-584750D02*
D03*
X-578250D02*
D03*
X-571750D02*
D03*
X-565250D02*
D03*
X-558750D02*
D03*
X-552250D02*
D03*
X-545750D02*
D03*
D28*
X-677247Y-30000D02*
D03*
X-670748D02*
D03*
X-664248D02*
D03*
X-657747D02*
D03*
X-677247Y20000D02*
D03*
X-670748D02*
D03*
X-664248D02*
D03*
X-657747D02*
D03*
X-677247Y70000D02*
D03*
X-670748D02*
D03*
X-664248D02*
D03*
X-657747D02*
D03*
X-677247Y120000D02*
D03*
X-670748D02*
D03*
X-664248D02*
D03*
X-657747D02*
D03*
D29*
X-524600Y-181499D02*
D03*
X-588100Y-228499D02*
D03*
X-575400D02*
D03*
X-562700D02*
D03*
X-550000D02*
D03*
X-537300D02*
D03*
X-524600D02*
D03*
X-511900D02*
D03*
X-588100Y-181499D02*
D03*
X-575400D02*
D03*
X-562700D02*
D03*
X-550000D02*
D03*
X-537300D02*
D03*
X-511900D02*
D03*
X-371900Y-422500D02*
D03*
X-359200D02*
D03*
X-346500D02*
D03*
X-333800D02*
D03*
X-371900Y-373500D02*
D03*
X-359200D02*
D03*
X-346500D02*
D03*
X-333800D02*
D03*
D30*
X-410000Y-180000D02*
D03*
X-415000D02*
D03*
X-420000D02*
D03*
X-425000D02*
D03*
X-430000D02*
D03*
X-410000Y-230000D02*
D03*
X-415000D02*
D03*
X-420000D02*
D03*
X-425000D02*
D03*
X-430000D02*
D03*
D31*
X-508500Y-364676D02*
D03*
X-481500D02*
D03*
D32*
X-652497Y-232899D02*
D03*
Y-202899D02*
D03*
Y-416898D02*
D03*
Y-386898D02*
D03*
D33*
X-654498Y-217899D02*
D03*
Y-401898D02*
D03*
D34*
X-677497Y-217899D02*
D03*
Y-401898D02*
D03*
D35*
X169500Y221000D02*
D03*
X192500D02*
D03*
X215500D02*
D03*
X168998Y113500D02*
D03*
X191998D02*
D03*
X214998D02*
D03*
D36*
X192500Y279000D02*
D03*
X191998Y171500D02*
D03*
D37*
X125258Y166900D02*
D03*
Y192300D02*
D03*
Y217700D02*
D03*
Y243100D02*
D03*
X28738D02*
D03*
Y217700D02*
D03*
Y192300D02*
D03*
Y166900D02*
D03*
D38*
X-145698Y83298D02*
D03*
X-158398D02*
D03*
X-171098D02*
D03*
X-183798D02*
D03*
X-196498D02*
D03*
X-209198D02*
D03*
X-221898D02*
D03*
X-234598D02*
D03*
X-247298D02*
D03*
X-145698Y-7702D02*
D03*
X-158398D02*
D03*
X-171098D02*
D03*
X-183798D02*
D03*
X-196498D02*
D03*
X-209198D02*
D03*
X-221898D02*
D03*
X-234598D02*
D03*
X-247298D02*
D03*
D39*
X287500Y279623D02*
D03*
X306500D02*
D03*
X287498Y172125D02*
D03*
X306498D02*
D03*
D40*
X297000Y300373D02*
D03*
X296998Y192875D02*
D03*
D41*
X-530000Y-393176D02*
D03*
Y-366176D02*
D03*
D42*
X254498Y273495D02*
D03*
Y226505D02*
D03*
Y165995D02*
D03*
Y119005D02*
D03*
D72*
X-172298Y-72226D02*
D03*
X-247298D02*
D03*
X-32298D02*
D03*
X-107298D02*
D03*
X107702D02*
D03*
X32702D02*
D03*
X247702D02*
D03*
X172702D02*
D03*
D74*
X-522500Y-84999D02*
D03*
X-522500Y-327999D02*
D03*
X-577500D02*
D03*
X-490000Y-190000D02*
D03*
X-612500D02*
D03*
X-577500Y-84999D02*
D03*
X-612500Y-220000D02*
D03*
X-490000D02*
D03*
X-750000Y177500D02*
D03*
Y315000D02*
D03*
X-625000Y327998D02*
D03*
D78*
X-508606Y418894D02*
X-453614D01*
X-523500Y404000D02*
X-508606Y418894D01*
X-523500Y351502D02*
Y404000D01*
X-252002Y359502D02*
X-242002D01*
X-332002D02*
X-252002D01*
X220202Y-364798D02*
Y-302726D01*
X195202Y-389798D02*
X220202Y-364798D01*
X195202Y-438926D02*
Y-389798D01*
X80202Y-369798D02*
Y-302726D01*
X65200Y-384800D02*
X80202Y-369798D01*
X65200Y-438926D02*
Y-384800D01*
X-57500Y-300427D02*
X-32298Y-275226D01*
X-57500Y-400000D02*
Y-300427D01*
X-64798Y-407298D02*
X-57500Y-400000D01*
X-342379Y418894D02*
X-317702D01*
X-453614D02*
X-342379D01*
Y369879D02*
X-332002Y359502D01*
X-342379Y369879D02*
Y418894D01*
X-64798Y-438926D02*
Y-407298D01*
X-78301Y-365000D02*
Y-224826D01*
X-99799Y-386499D02*
X-78301Y-365000D01*
X-99799Y-438926D02*
Y-386499D01*
X201699Y-353301D02*
Y-224826D01*
X160200Y-394800D02*
X201699Y-353301D01*
X160200Y-438926D02*
Y-394800D01*
X61699Y-358301D02*
Y-224826D01*
X30199Y-438926D02*
Y-389801D01*
X61699Y-358301D01*
X-453614Y265123D02*
Y418894D01*
Y256114D02*
Y265123D01*
X172702Y-224826D02*
X201699D01*
X247702D01*
X220202Y-302726D02*
X247702Y-275226D01*
X32702Y-224826D02*
X61699D01*
X107702D01*
X80202Y-302726D02*
X107702Y-275226D01*
X-107298Y-224826D02*
X-78301D01*
X-32298D01*
X-194800Y-438926D02*
Y-381425D01*
X-199798Y-376426D02*
X-194800Y-381425D01*
X-199798Y-376426D02*
Y-302726D01*
X-172298Y-275226D01*
X-218301Y-224826D02*
X-172298D01*
X-247298D02*
X-218301D01*
Y-377428D02*
Y-224826D01*
X-229798Y-388926D02*
X-218301Y-377428D01*
X-229798Y-438923D02*
Y-388926D01*
X-229801Y-438926D02*
X-229798Y-438923D01*
D79*
X-247298Y-72226D02*
Y-7702D01*
X-786998Y8000D02*
X-707998D01*
X-787497Y7500D02*
X-786998Y8000D01*
X-787497Y-27500D02*
X-772497D01*
X-763497Y-18500D01*
X-707497D01*
X-763497Y108500D02*
X-747497D01*
X-707497D01*
X-772497Y117500D02*
X-763497Y108500D01*
X-787497Y117500D02*
X-772497D01*
X-786998Y82000D02*
X-707998D01*
X-707497Y81500D01*
X-787497Y82500D02*
X-786998Y82000D01*
D80*
X-787497Y-387397D02*
X-754997Y-419897D01*
X-787497Y-387397D02*
Y-344996D01*
X-758494Y-200398D02*
X-701496D01*
X-787497Y-274996D02*
Y-229402D01*
X-758494Y-200398D01*
X-701496D02*
X-683497Y-218397D01*
X-754997Y-419897D02*
X-701496D01*
X-683497Y-401898D01*
D81*
X-787500Y307503D02*
D03*
Y342501D02*
D03*
Y177503D02*
D03*
Y212501D02*
D03*
X-787497Y82500D02*
D03*
Y-27500D02*
D03*
Y-167499D02*
D03*
Y-132500D02*
D03*
Y-344996D02*
D03*
Y-309998D02*
D03*
X447000Y227500D02*
D03*
Y137500D02*
D03*
X446500Y24997D02*
D03*
Y-10001D02*
D03*
X-29800Y-438926D02*
D03*
X-64798D02*
D03*
X100199D02*
D03*
X65200D02*
D03*
X-159801D02*
D03*
X-194800D02*
D03*
X230200D02*
D03*
X195202D02*
D03*
D82*
X-787500Y377503D02*
D03*
Y247502D02*
D03*
X-787497Y117500D02*
D03*
Y7500D02*
D03*
Y-97499D02*
D03*
Y-274996D02*
D03*
X447000Y192500D02*
D03*
Y102500D02*
D03*
X446500Y-45002D02*
D03*
D83*
X-694997Y-279998D02*
D03*
X-669597D02*
D03*
X-720397D02*
D03*
X-694997Y-341996D02*
D03*
X-669597D02*
D03*
X-720397D02*
D03*
D84*
X-99799Y-438926D02*
D03*
X30199D02*
D03*
X-229801D02*
D03*
X160200D02*
D03*
D85*
X-172298Y-224826D02*
D03*
Y-325626D02*
D03*
X-247298Y-275226D02*
D03*
X-172298D02*
D03*
X-247298Y-325626D02*
D03*
Y-224826D02*
D03*
X-32298D02*
D03*
Y-325626D02*
D03*
X-107298Y-275226D02*
D03*
X-32298D02*
D03*
X-107298Y-325626D02*
D03*
Y-224826D02*
D03*
X107702D02*
D03*
Y-325626D02*
D03*
X32702Y-275226D02*
D03*
X107702D02*
D03*
X32702Y-325626D02*
D03*
Y-224826D02*
D03*
X247702D02*
D03*
Y-325626D02*
D03*
X172702Y-275226D02*
D03*
X247702D02*
D03*
X172702Y-325626D02*
D03*
Y-224826D02*
D03*
D86*
X-343076Y-317402D02*
D03*
Y-292002D02*
D03*
Y-266602D02*
D03*
Y-241202D02*
D03*
Y-215802D02*
D03*
Y-190402D02*
D03*
Y-165002D02*
D03*
Y-139602D02*
D03*
Y-114202D02*
D03*
Y-88802D02*
D03*
Y-63402D02*
D03*
Y-38002D02*
D03*
Y-12602D02*
D03*
Y12798D02*
D03*
Y38198D02*
D03*
Y63598D02*
D03*
Y88998D02*
D03*
Y114398D02*
D03*
X-368476Y-317402D02*
D03*
Y-292002D02*
D03*
Y-266602D02*
D03*
Y-241202D02*
D03*
Y-215802D02*
D03*
Y-190402D02*
D03*
Y-165002D02*
D03*
Y-139602D02*
D03*
Y-114202D02*
D03*
Y-88802D02*
D03*
Y-63402D02*
D03*
Y-38002D02*
D03*
Y-12602D02*
D03*
Y12798D02*
D03*
Y38198D02*
D03*
Y63598D02*
D03*
Y88998D02*
D03*
Y114398D02*
D03*
Y317598D02*
D03*
X-343076Y292198D02*
D03*
X-368476D02*
D03*
X-343076Y266798D02*
D03*
X-368476D02*
D03*
X-343076Y241398D02*
D03*
X-368476D02*
D03*
X-343076Y215998D02*
D03*
X-368476D02*
D03*
X-343076Y190598D02*
D03*
X-368476D02*
D03*
X-343076Y165198D02*
D03*
X-368476D02*
D03*
Y139798D02*
D03*
X-343076D02*
D03*
X317298Y418894D02*
D03*
X291898D02*
D03*
X266498D02*
D03*
X241098D02*
D03*
X215698D02*
D03*
X190298D02*
D03*
X164898D02*
D03*
X139498D02*
D03*
X114098D02*
D03*
X88698D02*
D03*
X63298D02*
D03*
X37898D02*
D03*
X12498D02*
D03*
X-12902D02*
D03*
X-38302D02*
D03*
X-63702D02*
D03*
X-89102D02*
D03*
X-114502D02*
D03*
X317298Y393494D02*
D03*
X291898D02*
D03*
X266498D02*
D03*
X241098D02*
D03*
X215698D02*
D03*
X190298D02*
D03*
X164898D02*
D03*
X139498D02*
D03*
X114098D02*
D03*
X88698D02*
D03*
X63298D02*
D03*
X37898D02*
D03*
X12498D02*
D03*
X-12902D02*
D03*
X-38302D02*
D03*
X-63702D02*
D03*
X-89102D02*
D03*
X-114502D02*
D03*
X-317702D02*
D03*
X-292302Y418894D02*
D03*
Y393494D02*
D03*
X-266902Y418894D02*
D03*
Y393494D02*
D03*
X-241502Y418894D02*
D03*
Y393494D02*
D03*
X-216102Y418894D02*
D03*
Y393494D02*
D03*
X-190702Y418894D02*
D03*
Y393494D02*
D03*
X-165302Y418894D02*
D03*
Y393494D02*
D03*
X-139902D02*
D03*
Y418894D02*
D03*
X368121Y-317500D02*
D03*
Y-292100D02*
D03*
Y-266700D02*
D03*
Y-241300D02*
D03*
Y-215900D02*
D03*
Y-190500D02*
D03*
Y-165100D02*
D03*
Y-139700D02*
D03*
Y-114300D02*
D03*
Y-88900D02*
D03*
Y-63500D02*
D03*
Y-38100D02*
D03*
Y-12700D02*
D03*
Y12700D02*
D03*
Y38100D02*
D03*
X342721Y-317500D02*
D03*
Y-292100D02*
D03*
Y-266700D02*
D03*
Y-241300D02*
D03*
Y-215900D02*
D03*
Y-190500D02*
D03*
Y-165100D02*
D03*
Y-139700D02*
D03*
Y-114300D02*
D03*
Y-88900D02*
D03*
Y-63500D02*
D03*
Y-38100D02*
D03*
Y-12700D02*
D03*
Y12700D02*
D03*
Y38100D02*
D03*
Y317500D02*
D03*
X368121Y292100D02*
D03*
X342721D02*
D03*
X368121Y266700D02*
D03*
X342721D02*
D03*
X368121Y241300D02*
D03*
X342721D02*
D03*
X368121Y63500D02*
D03*
Y88900D02*
D03*
Y114300D02*
D03*
X342721Y63500D02*
D03*
Y88900D02*
D03*
Y114300D02*
D03*
X368121Y215900D02*
D03*
X342721D02*
D03*
X368121Y190500D02*
D03*
X342721D02*
D03*
X368121Y165100D02*
D03*
X342721D02*
D03*
Y139700D02*
D03*
X368121D02*
D03*
D87*
X-343076Y317598D02*
D03*
X368121Y317500D02*
D03*
D88*
X-317702Y418894D02*
D03*
D89*
X-820000Y450000D02*
D03*
X480000D02*
D03*
X-820000Y-470000D02*
D03*
X480000D02*
D03*
D90*
X-369000Y396000D02*
D03*
X-411500D02*
D03*
X18998Y192300D02*
D03*
X415999Y346000D02*
D03*
X455999Y266000D02*
D03*
X415999Y26000D02*
D03*
Y-134000D02*
D03*
X455999Y-214000D02*
D03*
X415999Y-294000D02*
D03*
X455999Y-374000D02*
D03*
X415999Y-454000D02*
D03*
X376000Y426000D02*
D03*
X336000Y346000D02*
D03*
X376000Y-374000D02*
D03*
X336000Y-454000D02*
D03*
X256000Y346000D02*
D03*
X296000Y-54000D02*
D03*
X256000Y-134000D02*
D03*
X296000Y-374000D02*
D03*
X256000Y-454000D02*
D03*
X176000Y346000D02*
D03*
Y26000D02*
D03*
Y-134000D02*
D03*
X96000Y346000D02*
D03*
Y186000D02*
D03*
Y26000D02*
D03*
X136000Y-54000D02*
D03*
X96000Y-134000D02*
D03*
X136000Y-214000D02*
D03*
Y-374000D02*
D03*
X16000Y346000D02*
D03*
X56000Y266000D02*
D03*
Y106000D02*
D03*
X16000Y26000D02*
D03*
X56000Y-54000D02*
D03*
X16000Y-134000D02*
D03*
X-24000Y266000D02*
D03*
Y106000D02*
D03*
X-64000Y-134000D02*
D03*
X-104000Y106000D02*
D03*
X-144000Y26000D02*
D03*
Y-134000D02*
D03*
Y-294000D02*
D03*
X-184000Y266000D02*
D03*
X-224000Y186000D02*
D03*
Y26000D02*
D03*
Y-134000D02*
D03*
X-264000Y266000D02*
D03*
X-304000Y186000D02*
D03*
X-264000Y106000D02*
D03*
X-304000Y26000D02*
D03*
X-264000Y-374000D02*
D03*
X-304000Y-454000D02*
D03*
X-384000Y26000D02*
D03*
Y-454000D02*
D03*
X-464000D02*
D03*
X-504000Y266000D02*
D03*
X-544000Y26000D02*
D03*
Y-454000D02*
D03*
X-584000Y426000D02*
D03*
Y-54000D02*
D03*
Y-374000D02*
D03*
X-624000Y-454000D02*
D03*
X-664000Y426000D02*
D03*
X-704000Y26000D02*
D03*
X-664000Y-54000D02*
D03*
X-704000Y-134000D02*
D03*
Y-294000D02*
D03*
Y-454000D02*
D03*
X-744000Y426000D02*
D03*
Y-54000D02*
D03*
Y-374000D02*
D03*
X317500Y-187500D02*
D03*
X-435000Y-352500D02*
D03*
X-517500Y-42500D02*
D03*
X-252002Y359502D02*
D03*
X-242002D02*
D03*
X28738Y256238D02*
D03*
X2500Y240000D02*
D03*
Y190000D02*
D03*
X-542500Y-395000D02*
D03*
X-517500D02*
D03*
X-550000Y-387500D02*
D03*
X-737500Y-377500D02*
D03*
Y-385000D02*
D03*
Y-402500D02*
D03*
Y-395000D02*
D03*
Y-235000D02*
D03*
Y-242500D02*
D03*
Y-225000D02*
D03*
Y-217500D02*
D03*
X-550000Y-162499D02*
D03*
X-571750Y201750D02*
D03*
X-540000Y217500D02*
D03*
X-537750Y272750D02*
D03*
X-558750Y256250D02*
D03*
X-565250Y260250D02*
D03*
X-699498Y212500D02*
D03*
X-730502Y212503D02*
D03*
X-679498Y162998D02*
D03*
X-710502Y163002D02*
D03*
X-699498Y242998D02*
D03*
X-730502Y243002D02*
D03*
X-679498Y300502D02*
D03*
X-710502Y300505D02*
D03*
X-697500Y342500D02*
D03*
X-728503Y342503D02*
D03*
X-728503Y375502D02*
D03*
X-697500Y375498D02*
D03*
X-60000Y355000D02*
D03*
X-90000D02*
D03*
X-390000Y-352500D02*
D03*
X-387500Y-390000D02*
D03*
X-359200Y-441700D02*
D03*
X-333800Y-441300D02*
D03*
X-346500Y-441000D02*
D03*
X-431465Y-156035D02*
D03*
Y-148535D02*
D03*
X-640000Y0D02*
D03*
X-650001D02*
D03*
Y100000D02*
D03*
X-453614Y256114D02*
D03*
Y265123D02*
D03*
X-670748Y56695D02*
D03*
X-664248Y83305D02*
D03*
Y-16695D02*
D03*
X-670748Y-43305D02*
D03*
X-640000Y100000D02*
D03*
X-407500Y-57500D02*
D03*
X-507500Y160000D02*
D03*
Y190000D02*
D03*
X-495000Y280000D02*
D03*
Y287500D02*
D03*
X-487500Y300000D02*
D03*
Y310000D02*
D03*
X-577500Y317500D02*
D03*
X-562500Y350000D02*
D03*
X-545000Y365000D02*
D03*
X-555000Y390000D02*
D03*
X-615000Y387500D02*
D03*
X-617500Y372500D02*
D03*
X-670748Y133305D02*
D03*
X-625000Y117500D02*
D03*
X-610001Y117499D02*
D03*
X-649495Y124496D02*
D03*
Y24496D02*
D03*
X-610001Y17499D02*
D03*
X-625000Y17500D02*
D03*
X-670748Y33305D02*
D03*
X-422753Y-125250D02*
D03*
X-395253Y-140250D02*
D03*
X-407252Y-95250D02*
D03*
Y-85250D02*
D03*
X-422500Y-110000D02*
D03*
X-415000Y-245000D02*
D03*
X-401730Y-152500D02*
D03*
X-402000Y-180280D02*
D03*
X-472500Y-172500D02*
D03*
X-640000Y-160000D02*
D03*
X-438000Y-200000D02*
D03*
X-462500Y-207500D02*
D03*
X-437500Y-335000D02*
D03*
X-539999Y-352499D02*
D03*
X-560000Y-345000D02*
D03*
X-425000Y-337500D02*
D03*
X-472500Y-365000D02*
D03*
Y-375000D02*
D03*
Y-355000D02*
D03*
X-652993Y-196500D02*
D03*
X-592500Y318750D02*
D03*
X-543750Y319998D02*
D03*
X-630000Y280000D02*
D03*
X-629999Y240000D02*
D03*
X-617500Y280000D02*
D03*
Y247502D02*
D03*
X-590000Y201001D02*
D03*
X-602250Y256998D02*
D03*
X-517248Y-304999D02*
D03*
Y-289999D02*
D03*
X-532248Y-272499D02*
D03*
X-532248Y-257499D02*
D03*
X-582752Y-304999D02*
D03*
Y-289999D02*
D03*
X-567752Y-272499D02*
D03*
X-567752Y-257499D02*
D03*
Y-152499D02*
D03*
X-567752Y-137499D02*
D03*
X-582752Y-122499D02*
D03*
Y-107499D02*
D03*
X-517500D02*
D03*
Y-122499D02*
D03*
X-532500Y-137499D02*
D03*
X-532500Y-152499D02*
D03*
M02*
