G04 Layer_Color=128*
%FSLAX44Y44*%
%MOMM*%
G71*
G01*
G75*
%ADD112C,0.1270*%
D112*
X489200Y1030702D02*
X498200D01*
X493700Y1026202D02*
Y1035202D01*
X463800Y1030702D02*
X472800D01*
X468300Y1026202D02*
Y1035202D01*
X489200Y1056102D02*
X498200D01*
X493700Y1051602D02*
Y1060602D01*
X463800Y1056102D02*
X472800D01*
X468300Y1051602D02*
Y1060602D01*
X548250Y1059000D02*
X551750D01*
X550000Y1057250D02*
Y1060750D01*
X532250Y1059000D02*
X535750D01*
X534000Y1057250D02*
Y1060750D01*
X540250Y1053000D02*
X543750D01*
X542000Y1051250D02*
Y1054750D01*
X548250Y1046000D02*
X551750D01*
X550000Y1044250D02*
Y1047750D01*
X532250Y1046000D02*
X535750D01*
X534000Y1044250D02*
Y1047750D01*
X406500Y542000D02*
X409500D01*
X408000Y540500D02*
Y543500D01*
X406500Y532000D02*
X409500D01*
X408000Y530500D02*
Y533500D01*
X406500Y522000D02*
X409500D01*
X408000Y520500D02*
Y523500D01*
X406500Y512000D02*
X409500D01*
X408000Y510500D02*
Y513500D01*
X406500Y502000D02*
X409500D01*
X408000Y500500D02*
Y503500D01*
X406500Y492000D02*
X409500D01*
X408000Y490500D02*
Y493500D01*
X406500Y482000D02*
X409500D01*
X408000Y480500D02*
Y483500D01*
X406500Y472000D02*
X409500D01*
X408000Y470500D02*
Y473500D01*
X391500Y472000D02*
X394500D01*
X393000Y470500D02*
Y473500D01*
X391500Y482000D02*
X394500D01*
X393000Y480500D02*
Y483500D01*
X391500Y492000D02*
X394500D01*
X393000Y490500D02*
Y493500D01*
X391500Y502000D02*
X394500D01*
X393000Y500500D02*
Y503500D01*
X391500Y512000D02*
X394500D01*
X393000Y510500D02*
Y513500D01*
X391500Y522000D02*
X394500D01*
X393000Y520500D02*
Y523500D01*
X391500Y532000D02*
X394500D01*
X393000Y530500D02*
Y533500D01*
X391500Y542000D02*
X394500D01*
X393000Y540500D02*
Y543500D01*
X376500Y472000D02*
X379500D01*
X378000Y470500D02*
Y473500D01*
X376500Y482000D02*
X379500D01*
X378000Y480500D02*
Y483500D01*
X376500Y492000D02*
X379500D01*
X378000Y490500D02*
Y493500D01*
X376500Y502000D02*
X379500D01*
X378000Y500500D02*
Y503500D01*
X376500Y512000D02*
X379500D01*
X378000Y510500D02*
Y513500D01*
X376500Y522000D02*
X379500D01*
X378000Y520500D02*
Y523500D01*
X376500Y532000D02*
X379500D01*
X378000Y530500D02*
Y533500D01*
X376500Y542000D02*
X379500D01*
X378000Y540500D02*
Y543500D01*
X361500Y472000D02*
X364500D01*
X363000Y470500D02*
Y473500D01*
X361500Y482000D02*
X364500D01*
X363000Y480500D02*
Y483500D01*
X361500Y492000D02*
X364500D01*
X363000Y490500D02*
Y493500D01*
X361500Y502000D02*
X364500D01*
X363000Y500500D02*
Y503500D01*
X361500Y512000D02*
X364500D01*
X363000Y510500D02*
Y513500D01*
X361500Y522000D02*
X364500D01*
X363000Y520500D02*
Y523500D01*
X361500Y532000D02*
X364500D01*
X363000Y530500D02*
Y533500D01*
X361500Y542000D02*
X364500D01*
X363000Y540500D02*
Y543500D01*
X346500Y472000D02*
X349500D01*
X348000Y470500D02*
Y473500D01*
X346500Y482000D02*
X349500D01*
X348000Y480500D02*
Y483500D01*
X346500Y492000D02*
X349500D01*
X348000Y490500D02*
Y493500D01*
X346500Y502000D02*
X349500D01*
X348000Y500500D02*
Y503500D01*
X346500Y512000D02*
X349500D01*
X348000Y510500D02*
Y513500D01*
X346500Y522000D02*
X349500D01*
X348000Y520500D02*
Y523500D01*
X346500Y532000D02*
X349500D01*
X348000Y530500D02*
Y533500D01*
X346500Y542000D02*
X349500D01*
X348000Y540500D02*
Y543500D01*
X820250Y1064200D02*
X829750D01*
X825000Y1059450D02*
Y1068950D01*
X820250Y1115000D02*
X829750D01*
X825000Y1110250D02*
Y1119750D01*
X820250Y1089600D02*
X829750D01*
X825000Y1084850D02*
Y1094350D01*
X820250Y1013400D02*
X829750D01*
X825000Y1008650D02*
Y1018150D01*
X820250Y988000D02*
X829750D01*
X825000Y983250D02*
Y992750D01*
X820250Y962600D02*
X829750D01*
X825000Y957850D02*
Y967350D01*
X820250Y1038800D02*
X829750D01*
X825000Y1034050D02*
Y1043550D01*
X820250Y937200D02*
X829750D01*
X825000Y932450D02*
Y941950D01*
X39850Y90000D02*
X49350D01*
X44600Y85250D02*
Y94750D01*
X65250Y90000D02*
X74750D01*
X70000Y85250D02*
Y94750D01*
X530499Y1148498D02*
X539498D01*
X534999Y1143998D02*
Y1152998D01*
X574499Y1148498D02*
X583499D01*
X578999Y1143998D02*
Y1152998D01*
X570200Y975000D02*
X579200D01*
X574700Y970500D02*
Y979500D01*
X544800Y975000D02*
X553800D01*
X549300Y970500D02*
Y979500D01*
X363900Y1093898D02*
X373100D01*
X368500Y1089298D02*
Y1098498D01*
X383900Y1093898D02*
X393100D01*
X388500Y1089298D02*
Y1098498D01*
X16000Y1170000D02*
X48000D01*
X32000Y1154000D02*
Y1186000D01*
X792000Y1170000D02*
X824000D01*
X808000Y1154000D02*
Y1186000D01*
X792000Y32000D02*
X824000D01*
X808000Y16000D02*
Y48000D01*
X16000Y32000D02*
X48000D01*
X32000Y16000D02*
Y48000D01*
X44000Y140000D02*
X76000D01*
X60000Y124000D02*
Y156000D01*
X577000Y50000D02*
X593000D01*
X585000Y42000D02*
Y58000D01*
X551100Y75400D02*
X568100D01*
X559600Y66900D02*
Y83900D01*
X601900Y75400D02*
X618900D01*
X610400Y66900D02*
Y83900D01*
X601900Y24600D02*
X618900D01*
X610400Y16100D02*
Y33100D01*
X551100Y24600D02*
X568100D01*
X559600Y16100D02*
Y33100D01*
X199500Y209500D02*
X202500D01*
X201000Y208000D02*
Y211000D01*
X199500Y199500D02*
X202500D01*
X201000Y198000D02*
Y201000D01*
X199500Y189500D02*
X202500D01*
X201000Y188000D02*
Y191000D01*
X189500Y209500D02*
X192500D01*
X191000Y208000D02*
Y211000D01*
X189500Y199500D02*
X192500D01*
X191000Y198000D02*
Y201000D01*
X189500Y189500D02*
X192500D01*
X191000Y188000D02*
Y191000D01*
X179500Y209500D02*
X182500D01*
X181000Y208000D02*
Y211000D01*
X179500Y199500D02*
X182500D01*
X181000Y198000D02*
Y201000D01*
X179500Y189500D02*
X182500D01*
X181000Y188000D02*
Y191000D01*
X142500Y59000D02*
X156500D01*
X149500Y52000D02*
Y66000D01*
X107500Y59000D02*
X121500D01*
X114500Y52000D02*
Y66000D01*
X677100Y24600D02*
X694100D01*
X685600Y16100D02*
Y33100D01*
X727900Y24600D02*
X744900D01*
X736400Y16100D02*
Y33100D01*
X727900Y75400D02*
X744900D01*
X736400Y66900D02*
Y83900D01*
X677100Y75400D02*
X694100D01*
X685600Y66900D02*
Y83900D01*
X703000Y50000D02*
X719000D01*
X711000Y42000D02*
Y58000D01*
X432700Y1090398D02*
X455700D01*
X444199Y1078898D02*
Y1101898D01*
X432700Y1147200D02*
X455700D01*
X444199Y1135700D02*
Y1158700D01*
X301300Y1147200D02*
X324300D01*
X312800Y1135700D02*
Y1158700D01*
X301300Y1090398D02*
X324300D01*
X312800Y1078898D02*
Y1101898D01*
X408899Y1093898D02*
X418099D01*
X413499Y1089298D02*
Y1098498D01*
X338899Y1093898D02*
X348099D01*
X343499Y1089298D02*
Y1098498D01*
X408899Y1120098D02*
X418099D01*
X413499Y1115498D02*
Y1124698D01*
X383900Y1120098D02*
X393100D01*
X388500Y1115498D02*
Y1124698D01*
X363900Y1120098D02*
X373100D01*
X368500Y1115498D02*
Y1124698D01*
X338899Y1120098D02*
X348099D01*
X343499Y1115498D02*
Y1124698D01*
X764000Y140000D02*
X796000D01*
X780000Y124000D02*
Y156000D01*
X44000Y890000D02*
X76000D01*
X60000Y874000D02*
Y906000D01*
X764000Y890000D02*
X796000D01*
X780000Y874000D02*
Y906000D01*
X495298Y90000D02*
X513298D01*
X504298Y81000D02*
Y99000D01*
X326298Y90000D02*
X344298D01*
X335298Y81000D02*
Y99000D01*
X449250Y739200D02*
X460750D01*
X455000Y733450D02*
Y744950D01*
X384250Y289200D02*
X395750D01*
X390000Y283450D02*
Y294950D01*
X233000Y96000D02*
X241000D01*
X237000Y92001D02*
Y100000D01*
X281000Y66000D02*
X289000D01*
X285000Y62000D02*
Y70001D01*
X233000Y38001D02*
X241000D01*
X237000Y34000D02*
Y42000D01*
X97798Y933299D02*
X106798D01*
X102298Y928799D02*
Y937799D01*
X123198Y933299D02*
X132198D01*
X127698Y928799D02*
Y937799D01*
X148598Y933299D02*
X157598D01*
X153098Y928799D02*
Y937799D01*
X173998Y933299D02*
X182998D01*
X178498Y928799D02*
Y937799D01*
X199398Y933299D02*
X208398D01*
X203898Y928799D02*
Y937799D01*
X224798Y933299D02*
X233798D01*
X229298Y928799D02*
Y937799D01*
X250198Y933299D02*
X259198D01*
X254698Y928799D02*
Y937799D01*
X275598Y933299D02*
X284598D01*
X280098Y928799D02*
Y937799D01*
X326398Y907899D02*
X335398D01*
X330898Y903399D02*
Y912399D01*
X351798Y907899D02*
X360798D01*
X356298Y903399D02*
Y912399D01*
X377198Y907899D02*
X386198D01*
X381698Y903399D02*
Y912399D01*
X402598Y907899D02*
X411598D01*
X407098Y903399D02*
Y912399D01*
X427998Y907899D02*
X436998D01*
X432498Y903399D02*
Y912399D01*
X453398Y907899D02*
X462398D01*
X457898Y903399D02*
Y912399D01*
X478798Y907899D02*
X487798D01*
X483298Y903399D02*
Y912399D01*
X504198Y907899D02*
X513198D01*
X508698Y903399D02*
Y912399D01*
X529598Y907899D02*
X538598D01*
X534098Y903399D02*
Y912399D01*
X554998Y907899D02*
X563998D01*
X559498Y903399D02*
Y912399D01*
X580398Y907899D02*
X589398D01*
X584898Y903399D02*
Y912399D01*
X605798Y907899D02*
X614798D01*
X610298Y903399D02*
Y912399D01*
X631198Y907899D02*
X640198D01*
X635698Y903399D02*
Y912399D01*
X300998Y933299D02*
X309998D01*
X305498Y928799D02*
Y937799D01*
X326398Y933299D02*
X335398D01*
X330898Y928799D02*
Y937799D01*
X351798Y933299D02*
X360798D01*
X356298Y928799D02*
Y937799D01*
X377198Y933299D02*
X386198D01*
X381698Y928799D02*
Y937799D01*
X402598Y933299D02*
X411598D01*
X407098Y928799D02*
Y937799D01*
X427998Y933299D02*
X436998D01*
X432498Y928799D02*
Y937799D01*
X453398Y933299D02*
X462398D01*
X457898Y928799D02*
Y937799D01*
X478798Y933299D02*
X487798D01*
X483298Y928799D02*
Y937799D01*
X504198Y933299D02*
X513198D01*
X508698Y928799D02*
Y937799D01*
X529598Y933299D02*
X538598D01*
X534098Y928799D02*
Y937799D01*
X554998Y933299D02*
X563998D01*
X559498Y928799D02*
Y937799D01*
X580398Y933299D02*
X589398D01*
X584898Y928799D02*
Y937799D01*
X605798Y933299D02*
X614798D01*
X610298Y928799D02*
Y937799D01*
X631198Y933299D02*
X640198D01*
X635698Y928799D02*
Y937799D01*
X97798Y907899D02*
X106798D01*
X102298Y903399D02*
Y912399D01*
X123198Y907899D02*
X132198D01*
X127698Y903399D02*
Y912399D01*
X148598Y907899D02*
X157598D01*
X153098Y903399D02*
Y912399D01*
X173998Y907899D02*
X182998D01*
X178498Y903399D02*
Y912399D01*
X199398Y907899D02*
X208398D01*
X203898Y903399D02*
Y912399D01*
X224798Y907899D02*
X233798D01*
X229298Y903399D02*
Y912399D01*
X250198Y907899D02*
X259198D01*
X254698Y903399D02*
Y912399D01*
X275598Y907899D02*
X284598D01*
X280098Y903399D02*
Y912399D01*
X300998Y907899D02*
X309998D01*
X305498Y903399D02*
Y912399D01*
X656598Y907899D02*
X665598D01*
X661098Y903399D02*
Y912399D01*
X681998Y907899D02*
X690998D01*
X686498Y903399D02*
Y912399D01*
X707398Y907899D02*
X716398D01*
X711898Y903399D02*
Y912399D01*
X732798Y907899D02*
X741798D01*
X737298Y903399D02*
Y912399D01*
X656598Y933299D02*
X665598D01*
X661098Y928799D02*
Y937799D01*
X681998Y933299D02*
X690998D01*
X686498Y928799D02*
Y937799D01*
X707398Y933299D02*
X716398D01*
X711898Y928799D02*
Y937799D01*
X732798Y933299D02*
X741798D01*
X737298Y928799D02*
Y937799D01*
X783799Y831901D02*
X792799D01*
X788299Y827401D02*
Y836401D01*
X783799Y806501D02*
X792799D01*
X788299Y802001D02*
Y811001D01*
X783799Y781101D02*
X792799D01*
X788299Y776601D02*
Y785601D01*
X783799Y755701D02*
X792799D01*
X788299Y751201D02*
Y760201D01*
X783799Y730301D02*
X792799D01*
X788299Y725801D02*
Y734801D01*
X783799Y704901D02*
X792799D01*
X788299Y700401D02*
Y709401D01*
X783799Y679501D02*
X792799D01*
X788299Y675001D02*
Y684001D01*
X783799Y654101D02*
X792799D01*
X788299Y649601D02*
Y658601D01*
X758399Y603301D02*
X767399D01*
X762899Y598801D02*
Y607801D01*
X758399Y577901D02*
X767399D01*
X762899Y573401D02*
Y582401D01*
X758399Y552501D02*
X767399D01*
X762899Y548001D02*
Y557001D01*
X758399Y527101D02*
X767399D01*
X762899Y522601D02*
Y531601D01*
X758399Y501701D02*
X767399D01*
X762899Y497201D02*
Y506201D01*
X758399Y476301D02*
X767399D01*
X762899Y471801D02*
Y480801D01*
X758399Y450901D02*
X767399D01*
X762899Y446401D02*
Y455401D01*
X758399Y425501D02*
X767399D01*
X762899Y421001D02*
Y430001D01*
X758399Y400101D02*
X767399D01*
X762899Y395601D02*
Y404601D01*
X758399Y374701D02*
X767399D01*
X762899Y370201D02*
Y379201D01*
X758399Y349301D02*
X767399D01*
X762899Y344801D02*
Y353801D01*
X758399Y323901D02*
X767399D01*
X762899Y319401D02*
Y328401D01*
X758399Y298501D02*
X767399D01*
X762899Y294001D02*
Y303001D01*
X783799Y628701D02*
X792799D01*
X788299Y624201D02*
Y633201D01*
X783799Y603301D02*
X792799D01*
X788299Y598801D02*
Y607801D01*
X783799Y577901D02*
X792799D01*
X788299Y573401D02*
Y582401D01*
X783799Y552501D02*
X792799D01*
X788299Y548001D02*
Y557001D01*
X783799Y527101D02*
X792799D01*
X788299Y522601D02*
Y531601D01*
X783799Y501701D02*
X792799D01*
X788299Y497201D02*
Y506201D01*
X783799Y476301D02*
X792799D01*
X788299Y471801D02*
Y480801D01*
X783799Y450901D02*
X792799D01*
X788299Y446401D02*
Y455401D01*
X783799Y425501D02*
X792799D01*
X788299Y421001D02*
Y430001D01*
X783799Y400101D02*
X792799D01*
X788299Y395601D02*
Y404601D01*
X783799Y374701D02*
X792799D01*
X788299Y370201D02*
Y379201D01*
X783799Y349301D02*
X792799D01*
X788299Y344801D02*
Y353801D01*
X783799Y323901D02*
X792799D01*
X788299Y319401D02*
Y328401D01*
X783799Y298501D02*
X792799D01*
X788299Y294001D02*
Y303001D01*
X758399Y831901D02*
X767399D01*
X762899Y827401D02*
Y836401D01*
X758399Y806501D02*
X767399D01*
X762899Y802001D02*
Y811001D01*
X758399Y781101D02*
X767399D01*
X762899Y776601D02*
Y785601D01*
X758399Y755701D02*
X767399D01*
X762899Y751201D02*
Y760201D01*
X758399Y730301D02*
X767399D01*
X762899Y725801D02*
Y734801D01*
X758399Y704901D02*
X767399D01*
X762899Y700401D02*
Y709401D01*
X758399Y679501D02*
X767399D01*
X762899Y675001D02*
Y684001D01*
X758399Y654101D02*
X767399D01*
X762899Y649601D02*
Y658601D01*
X758399Y628701D02*
X767399D01*
X762899Y624201D02*
Y633201D01*
X758399Y273101D02*
X767399D01*
X762899Y268601D02*
Y277601D01*
X758399Y247701D02*
X767399D01*
X762899Y243201D02*
Y252201D01*
X758399Y222301D02*
X767399D01*
X762899Y217801D02*
Y226801D01*
X758399Y196901D02*
X767399D01*
X762899Y192401D02*
Y201401D01*
X783799Y273101D02*
X792799D01*
X788299Y268601D02*
Y277601D01*
X783799Y247701D02*
X792799D01*
X788299Y243201D02*
Y252201D01*
X783799Y222301D02*
X792799D01*
X788299Y217801D02*
Y226801D01*
X783799Y196901D02*
X792799D01*
X788299Y192401D02*
Y201401D01*
X72599Y831901D02*
X81599D01*
X77099Y827401D02*
Y836401D01*
X72599Y806501D02*
X81599D01*
X77099Y802001D02*
Y811001D01*
X72599Y781101D02*
X81599D01*
X77099Y776601D02*
Y785601D01*
X72599Y755701D02*
X81599D01*
X77099Y751201D02*
Y760201D01*
X72599Y730301D02*
X81599D01*
X77099Y725801D02*
Y734801D01*
X72599Y704901D02*
X81599D01*
X77099Y700401D02*
Y709401D01*
X72599Y679501D02*
X81599D01*
X77099Y675001D02*
Y684001D01*
X72599Y654101D02*
X81599D01*
X77099Y649601D02*
Y658601D01*
X47199Y603301D02*
X56199D01*
X51699Y598801D02*
Y607801D01*
X47199Y577901D02*
X56199D01*
X51699Y573401D02*
Y582401D01*
X47199Y552501D02*
X56199D01*
X51699Y548001D02*
Y557001D01*
X47199Y527101D02*
X56199D01*
X51699Y522601D02*
Y531601D01*
X47199Y501701D02*
X56199D01*
X51699Y497201D02*
Y506201D01*
X47199Y476301D02*
X56199D01*
X51699Y471801D02*
Y480801D01*
X47199Y450901D02*
X56199D01*
X51699Y446401D02*
Y455401D01*
X47199Y425501D02*
X56199D01*
X51699Y421001D02*
Y430001D01*
X47199Y400101D02*
X56199D01*
X51699Y395601D02*
Y404601D01*
X47199Y374701D02*
X56199D01*
X51699Y370201D02*
Y379201D01*
X47199Y349301D02*
X56199D01*
X51699Y344801D02*
Y353801D01*
X47199Y323901D02*
X56199D01*
X51699Y319401D02*
Y328401D01*
X47199Y298501D02*
X56199D01*
X51699Y294001D02*
Y303001D01*
X72599Y628701D02*
X81599D01*
X77099Y624201D02*
Y633201D01*
X72599Y603301D02*
X81599D01*
X77099Y598801D02*
Y607801D01*
X72599Y577901D02*
X81599D01*
X77099Y573401D02*
Y582401D01*
X72599Y552501D02*
X81599D01*
X77099Y548001D02*
Y557001D01*
X72599Y527101D02*
X81599D01*
X77099Y522601D02*
Y531601D01*
X72599Y501701D02*
X81599D01*
X77099Y497201D02*
Y506201D01*
X72599Y476301D02*
X81599D01*
X77099Y471801D02*
Y480801D01*
X72599Y450901D02*
X81599D01*
X77099Y446401D02*
Y455401D01*
X72599Y425501D02*
X81599D01*
X77099Y421001D02*
Y430001D01*
X72599Y400101D02*
X81599D01*
X77099Y395601D02*
Y404601D01*
X72599Y374701D02*
X81599D01*
X77099Y370201D02*
Y379201D01*
X72599Y349301D02*
X81599D01*
X77099Y344801D02*
Y353801D01*
X72599Y323901D02*
X81599D01*
X77099Y319401D02*
Y328401D01*
X72599Y298501D02*
X81599D01*
X77099Y294001D02*
Y303001D01*
X47199Y831901D02*
X56199D01*
X51699Y827401D02*
Y836401D01*
X47199Y806501D02*
X56199D01*
X51699Y802001D02*
Y811001D01*
X47199Y781101D02*
X56199D01*
X51699Y776601D02*
Y785601D01*
X47199Y755701D02*
X56199D01*
X51699Y751201D02*
Y760201D01*
X47199Y730301D02*
X56199D01*
X51699Y725801D02*
Y734801D01*
X47199Y704901D02*
X56199D01*
X51699Y700401D02*
Y709401D01*
X47199Y679501D02*
X56199D01*
X51699Y675001D02*
Y684001D01*
X47199Y654101D02*
X56199D01*
X51699Y649601D02*
Y658601D01*
X47199Y628701D02*
X56199D01*
X51699Y624201D02*
Y633201D01*
X47199Y273101D02*
X56199D01*
X51699Y268601D02*
Y277601D01*
X47199Y247701D02*
X56199D01*
X51699Y243201D02*
Y252201D01*
X47199Y222301D02*
X56199D01*
X51699Y217801D02*
Y226801D01*
X47199Y196901D02*
X56199D01*
X51699Y192401D02*
Y201401D01*
X72599Y273101D02*
X81599D01*
X77099Y268601D02*
Y277601D01*
X72599Y247701D02*
X81599D01*
X77099Y243201D02*
Y252201D01*
X72599Y222301D02*
X81599D01*
X77099Y217801D02*
Y226801D01*
X72599Y196901D02*
X81599D01*
X77099Y192401D02*
Y201401D01*
X202750Y1071100D02*
X211650D01*
X207200Y1066650D02*
Y1075550D01*
X190050Y1045700D02*
X198950D01*
X194500Y1041250D02*
Y1050150D01*
X164650Y1045700D02*
X173550D01*
X169100Y1041250D02*
Y1050150D01*
X113850Y1045700D02*
X122750D01*
X118300Y1041250D02*
Y1050150D01*
X126550Y1071100D02*
X135450D01*
X131000Y1066650D02*
Y1075550D01*
X151950Y1071100D02*
X160850D01*
X156400Y1066650D02*
Y1075550D01*
X89350Y1134600D02*
X121850D01*
X105600Y1118350D02*
Y1150850D01*
X203650Y1134600D02*
X236150D01*
X219900Y1118350D02*
Y1150850D01*
X77150Y1104100D02*
X93450D01*
X85300Y1095950D02*
Y1112250D01*
X232050Y1104100D02*
X248350D01*
X240200Y1095950D02*
Y1112250D01*
X224900Y1180300D02*
X235100D01*
X230000Y1175200D02*
Y1185400D01*
X224900Y1160000D02*
X235100D01*
X230000Y1154900D02*
Y1165100D01*
X90400Y1160000D02*
X100600D01*
X95500Y1154900D02*
Y1165100D01*
X90400Y1180300D02*
X100600D01*
X95500Y1175200D02*
Y1185400D01*
X177350Y1071100D02*
X186250D01*
X181800Y1066650D02*
Y1075550D01*
X139250Y1045700D02*
X148150D01*
X143700Y1041250D02*
Y1050150D01*
X664500Y688000D02*
X667500D01*
X666000Y686500D02*
Y689500D01*
X664500Y700000D02*
X667500D01*
X666000Y698500D02*
Y701500D01*
X718500Y600000D02*
X721500D01*
X720000Y598500D02*
Y601500D01*
X718500Y620000D02*
X721500D01*
X720000Y618500D02*
Y621500D01*
X631500Y638000D02*
X634500D01*
X633000Y636500D02*
Y639500D01*
X628500Y669149D02*
X631500D01*
X630000Y667649D02*
Y670649D01*
X639499Y667999D02*
X642499D01*
X640999Y666499D02*
Y669499D01*
X665500Y854000D02*
X668500D01*
X667000Y852500D02*
Y855500D01*
X714500Y640000D02*
X717500D01*
X716000Y638500D02*
Y641500D01*
X709500Y668000D02*
X712500D01*
X711000Y666500D02*
Y669500D01*
X709251Y690751D02*
X712251D01*
X710751Y689251D02*
Y692251D01*
X702500Y707000D02*
X705500D01*
X704000Y705500D02*
Y708500D01*
X634500Y558000D02*
X637500D01*
X636000Y556500D02*
Y559500D01*
X787500Y1003000D02*
X790500D01*
X789000Y1001500D02*
Y1004500D01*
X752500Y1030000D02*
X755500D01*
X754000Y1028500D02*
Y1031500D01*
X734500Y1030000D02*
X737500D01*
X736000Y1028500D02*
Y1031500D01*
X717500Y1030000D02*
X720500D01*
X719000Y1028500D02*
Y1031500D01*
X675500Y1030000D02*
X678500D01*
X677000Y1028500D02*
Y1031500D01*
X660500Y1030000D02*
X663500D01*
X662000Y1028500D02*
Y1031500D01*
X423500Y988550D02*
X426500D01*
X425000Y987050D02*
Y990050D01*
X442550Y988050D02*
X445550D01*
X444050Y986550D02*
Y989550D01*
X404500Y988000D02*
X407500D01*
X406000Y986500D02*
Y989500D01*
X410500Y1073000D02*
X413500D01*
X412000Y1071500D02*
Y1074500D01*
X429500Y1038000D02*
X432500D01*
X431000Y1036500D02*
Y1039500D01*
X390500Y1041000D02*
X393500D01*
X392000Y1039500D02*
Y1042500D01*
X505500Y1022000D02*
X508500D01*
X507000Y1020500D02*
Y1023500D01*
X565499Y1080998D02*
X568499D01*
X566999Y1079498D02*
Y1082498D01*
X615502Y1055000D02*
X618502D01*
X617002Y1053500D02*
Y1056500D01*
X615502Y1065000D02*
X618502D01*
X617002Y1063500D02*
Y1066500D01*
X615503Y1078000D02*
X618503D01*
X617003Y1076500D02*
Y1079500D01*
X615503Y1094000D02*
X618503D01*
X617003Y1092500D02*
Y1095500D01*
X614500Y1027000D02*
X617500D01*
X616000Y1025500D02*
Y1028500D01*
X587500Y1060000D02*
X590500D01*
X589000Y1058500D02*
Y1061500D01*
X731500Y379000D02*
X734500D01*
X733000Y377500D02*
Y380500D01*
X735500Y365000D02*
X738500D01*
X737000Y363500D02*
Y366500D01*
X735500Y348000D02*
X738500D01*
X737000Y346500D02*
Y349500D01*
X241500Y313000D02*
X244500D01*
X243000Y311500D02*
Y314500D01*
X233500Y313000D02*
X236500D01*
X235000Y311500D02*
Y314500D01*
X224500Y313000D02*
X227500D01*
X226000Y311500D02*
Y314500D01*
X216500Y320000D02*
X219500D01*
X218000Y318500D02*
Y321500D01*
X443500Y463000D02*
X446500D01*
X445000Y461500D02*
Y464500D01*
X458500Y463000D02*
X461500D01*
X460000Y461500D02*
Y464500D01*
X443500Y446000D02*
X446500D01*
X445000Y444500D02*
Y447500D01*
X473500Y440000D02*
X476500D01*
X475000Y438500D02*
Y441500D01*
X433500Y435000D02*
X436500D01*
X435000Y433500D02*
Y436500D01*
X498500Y402000D02*
X501500D01*
X500000Y400500D02*
Y403500D01*
X249750Y431750D02*
X252750D01*
X251250Y430250D02*
Y433250D01*
X178500Y446000D02*
X181500D01*
X180000Y444500D02*
Y447500D01*
X97500Y363000D02*
X100500D01*
X99000Y361500D02*
Y364500D01*
X110500Y371000D02*
X113500D01*
X112000Y369500D02*
Y372500D01*
X314500Y379000D02*
X317500D01*
X316000Y377500D02*
Y380500D01*
X302500Y367000D02*
X305500D01*
X304000Y365500D02*
Y368500D01*
X294500Y379000D02*
X297500D01*
X296000Y377500D02*
Y380500D01*
X286500Y389000D02*
X289500D01*
X288000Y387500D02*
Y390500D01*
X278500Y398000D02*
X281500D01*
X280000Y396500D02*
Y399500D01*
X270500Y405000D02*
X273500D01*
X272000Y403500D02*
Y406500D01*
X262500Y413000D02*
X265500D01*
X264000Y411500D02*
Y414500D01*
X254500Y420000D02*
X257500D01*
X256000Y418500D02*
Y421500D01*
X422499Y412999D02*
X425499D01*
X423999Y411499D02*
Y414499D01*
X466499Y454999D02*
X469499D01*
X467999Y453499D02*
Y456499D01*
X430500Y420000D02*
X433500D01*
X432000Y418500D02*
Y421500D01*
X329500Y309000D02*
X332500D01*
X331000Y307500D02*
Y310500D01*
X430500Y398000D02*
X433500D01*
X432000Y396500D02*
Y399500D01*
X454500Y401000D02*
X457500D01*
X456000Y399500D02*
Y402500D01*
X564500Y375000D02*
X567500D01*
X566000Y373500D02*
Y376500D01*
X492500Y471000D02*
X495500D01*
X494000Y469500D02*
Y472500D01*
X529500Y467000D02*
X532500D01*
X531000Y465500D02*
Y468500D01*
X555500Y492000D02*
X558500D01*
X557000Y490500D02*
Y493500D01*
X586500Y400000D02*
X589500D01*
X588000Y398500D02*
Y401500D01*
X586500Y390000D02*
X589500D01*
X588000Y388500D02*
Y391500D01*
X585500Y354000D02*
X588500D01*
X587000Y352500D02*
Y355500D01*
X564500Y405000D02*
X567500D01*
X566000Y403500D02*
Y406500D01*
X637500Y372000D02*
X640500D01*
X639000Y370500D02*
Y373500D01*
X645500Y365000D02*
X648500D01*
X647000Y363500D02*
Y366500D01*
X721500Y287000D02*
X724500D01*
X723000Y285500D02*
Y288500D01*
X441500Y349000D02*
X444500D01*
X443000Y347500D02*
Y350500D01*
X454500Y349000D02*
X457500D01*
X456000Y347500D02*
Y350500D01*
X467500Y349000D02*
X470500D01*
X469000Y347500D02*
Y350500D01*
X310500Y717000D02*
X313500D01*
X312000Y715500D02*
Y718500D01*
X135500Y743000D02*
X138500D01*
X137000Y741500D02*
Y744500D01*
X188500Y478000D02*
X191500D01*
X190000Y476500D02*
Y479500D01*
X178500Y463000D02*
X181500D01*
X180000Y461500D02*
Y464500D01*
X157500Y606000D02*
X160500D01*
X159000Y604500D02*
Y607500D01*
X176500Y599000D02*
X179500D01*
X178000Y597500D02*
Y600500D01*
X168500Y590000D02*
X171500D01*
X170000Y588500D02*
Y591500D01*
X176500Y534000D02*
X179500D01*
X178000Y532500D02*
Y535500D01*
X178500Y487000D02*
X181500D01*
X180000Y485500D02*
Y488500D01*
X178500Y502000D02*
X181500D01*
X180000Y500500D02*
Y503500D01*
X168500Y574000D02*
X171500D01*
X170000Y572500D02*
Y575500D01*
X168500Y558000D02*
X171500D01*
X170000Y556500D02*
Y559500D01*
X168500Y542000D02*
X171500D01*
X170000Y540500D02*
Y543500D01*
X425500Y255000D02*
X428500D01*
X427000Y253500D02*
Y256500D01*
X488500Y131000D02*
X491500D01*
X490000Y129500D02*
Y132500D01*
X458500Y131000D02*
X461500D01*
X460000Y129500D02*
Y132500D01*
X430500Y145000D02*
X433500D01*
X432000Y143500D02*
Y146500D01*
X430500Y158000D02*
X433500D01*
X432000Y156500D02*
Y159500D01*
X458002Y172998D02*
X461002D01*
X459502Y171498D02*
Y174498D01*
X458002Y181998D02*
X461002D01*
X459502Y180498D02*
Y183498D01*
X473503Y194000D02*
X476503D01*
X475003Y192500D02*
Y195500D01*
X473503Y207000D02*
X476503D01*
X475003Y205500D02*
Y208500D01*
X504500Y158000D02*
X507500D01*
X506000Y156500D02*
Y159500D01*
X450000Y256500D02*
X453000D01*
X451500Y255000D02*
Y258000D01*
X454500Y288000D02*
X457500D01*
X456000Y286500D02*
Y289500D01*
X352500Y866000D02*
X355500D01*
X354000Y864500D02*
Y867500D01*
X345500Y851000D02*
X348500D01*
X347000Y849500D02*
Y852500D01*
X497500Y762000D02*
X500500D01*
X499000Y760500D02*
Y763500D01*
X488497Y770000D02*
X491497D01*
X489997Y768500D02*
Y771500D01*
X428500Y755000D02*
X431500D01*
X430000Y753500D02*
Y756500D01*
X457500Y790000D02*
X460500D01*
X459000Y788500D02*
Y791500D01*
X470500Y717000D02*
X473500D01*
X472000Y715500D02*
Y718500D01*
X494500Y717000D02*
X497500D01*
X496000Y715500D02*
Y718500D01*
X518500Y717000D02*
X521500D01*
X520000Y715500D02*
Y718500D01*
X438500Y717000D02*
X441500D01*
X440000Y715500D02*
Y718500D01*
X382500Y717000D02*
X385500D01*
X384000Y715500D02*
Y718500D01*
X358500Y717000D02*
X361500D01*
X360000Y715500D02*
Y718500D01*
X326500Y717000D02*
X329500D01*
X328000Y715500D02*
Y718500D01*
X318500Y683000D02*
X321500D01*
X320000Y681500D02*
Y684500D01*
X334500Y677000D02*
X337500D01*
X336000Y675500D02*
Y678500D01*
X342500Y683000D02*
X345500D01*
X344000Y681500D02*
Y684500D01*
X366500Y677000D02*
X369500D01*
X368000Y675500D02*
Y678500D01*
X374500Y683000D02*
X377500D01*
X376000Y681500D02*
Y684500D01*
X390500Y677000D02*
X393500D01*
X392000Y675500D02*
Y678500D01*
X398500Y683000D02*
X401500D01*
X400000Y681500D02*
Y684500D01*
X430500Y677000D02*
X433500D01*
X432000Y675500D02*
Y678500D01*
X566500Y683000D02*
X569500D01*
X568000Y681500D02*
Y684500D01*
X558500Y677000D02*
X561500D01*
X560000Y675500D02*
Y678500D01*
X534500Y677000D02*
X537500D01*
X536000Y675500D02*
Y678500D01*
X526500Y683000D02*
X529500D01*
X528000Y681500D02*
Y684500D01*
X510500Y677000D02*
X513500D01*
X512000Y675500D02*
Y678500D01*
X502500Y683000D02*
X505500D01*
X504000Y681500D02*
Y684500D01*
X446500Y677000D02*
X449500D01*
X448000Y675500D02*
Y678500D01*
X466500Y677000D02*
X469500D01*
X468000Y675500D02*
Y678500D01*
X486500Y677000D02*
X489500D01*
X488000Y675500D02*
Y678500D01*
X478500Y683000D02*
X481500D01*
X480000Y681500D02*
Y684500D01*
X633499Y249000D02*
X636499D01*
X634999Y247500D02*
Y250499D01*
X657500Y214000D02*
X660500D01*
X659000Y212500D02*
Y215500D01*
X658499Y199000D02*
X661499D01*
X659999Y197500D02*
Y200500D01*
X666499Y193000D02*
X669499D01*
X667999Y191500D02*
Y194500D01*
X664500Y182000D02*
X667500D01*
X666000Y180500D02*
Y183500D01*
X712500Y120000D02*
X715500D01*
X714000Y118500D02*
Y121500D01*
X690500Y120000D02*
X693500D01*
X692000Y118500D02*
Y121500D01*
X655500Y120000D02*
X658500D01*
X657000Y118500D02*
Y121500D01*
X648500Y91000D02*
X651500D01*
X650000Y89500D02*
Y92500D01*
X629500Y98000D02*
X632500D01*
X631000Y96500D02*
Y99500D01*
X622500Y120000D02*
X625500D01*
X624000Y118500D02*
Y121500D01*
X528500Y104000D02*
X531500D01*
X530000Y102500D02*
Y105500D01*
X542500Y90000D02*
X545500D01*
X544000Y88500D02*
Y91500D01*
X597500Y99000D02*
X600500D01*
X599000Y97500D02*
Y100500D01*
X588500Y129000D02*
X591500D01*
X590000Y127500D02*
Y130500D01*
X588500Y114000D02*
X591500D01*
X590000Y112500D02*
Y115500D01*
X574500Y119000D02*
X577500D01*
X576000Y117500D02*
Y120500D01*
X571500Y130000D02*
X574500D01*
X573000Y128500D02*
Y131500D01*
X561499Y119000D02*
X564499D01*
X562999Y117500D02*
Y120500D01*
X552500Y122000D02*
X555500D01*
X554000Y120500D02*
Y123500D01*
X638500Y151000D02*
X641500D01*
X640000Y149500D02*
Y152500D01*
X657500Y139000D02*
X660500D01*
X659000Y137500D02*
Y140500D01*
X540500Y205000D02*
X543500D01*
X542000Y203500D02*
Y206500D01*
X540500Y189000D02*
X543500D01*
X542000Y187500D02*
Y190500D01*
X540500Y175000D02*
X543500D01*
X542000Y173500D02*
Y176500D01*
X540500Y161000D02*
X543500D01*
X542000Y159500D02*
Y162500D01*
X626500Y152000D02*
X629500D01*
X628000Y150500D02*
Y153500D01*
X612500Y152000D02*
X615500D01*
X614000Y150500D02*
Y153500D01*
X598500Y152000D02*
X601500D01*
X600000Y150500D02*
Y153500D01*
X635500Y175000D02*
X638500D01*
X637000Y173500D02*
Y176500D01*
X635500Y189000D02*
X638500D01*
X637000Y187500D02*
Y190500D01*
X635500Y161000D02*
X638500D01*
X637000Y159500D02*
Y162500D01*
X577500Y152000D02*
X580500D01*
X579000Y150500D02*
Y153500D01*
X563500Y152000D02*
X566500D01*
X565000Y150500D02*
Y153500D01*
X549500Y152000D02*
X552500D01*
X551000Y150500D02*
Y153500D01*
X626500Y201000D02*
X629500D01*
X628000Y199500D02*
Y202500D01*
X612500Y201000D02*
X615500D01*
X614000Y199500D02*
Y202500D01*
X598500Y201000D02*
X601500D01*
X600000Y199500D02*
Y202500D01*
X577500Y201000D02*
X580500D01*
X579000Y199500D02*
Y202500D01*
X563500Y201000D02*
X566500D01*
X565000Y199500D02*
Y202500D01*
X549500Y201000D02*
X552500D01*
X551000Y199500D02*
Y202500D01*
X532499Y1114000D02*
X535499D01*
X533999Y1112500D02*
Y1115500D01*
X532499Y1122000D02*
X535499D01*
X533999Y1120500D02*
Y1123500D01*
X532499Y1130000D02*
X535499D01*
X533999Y1128500D02*
Y1131500D01*
X533000Y1083002D02*
X536000D01*
X534500Y1081502D02*
Y1084502D01*
X572499Y650999D02*
X575499D01*
X573999Y649499D02*
Y652499D01*
X579500Y643000D02*
X582500D01*
X581000Y641500D02*
Y644500D01*
X454500Y683000D02*
X457500D01*
X456000Y681500D02*
Y684500D01*
X613500Y727000D02*
X616500D01*
X615000Y725500D02*
Y728500D01*
X580899Y670000D02*
X583899D01*
X582399Y668500D02*
Y671500D01*
X620500Y662399D02*
X623500D01*
X622000Y660899D02*
Y663899D01*
X588500Y622000D02*
X591500D01*
X590000Y620500D02*
Y623500D01*
X588500Y486000D02*
X591500D01*
X590000Y484500D02*
Y487500D01*
X588500Y446000D02*
X591500D01*
X590000Y444500D02*
Y447500D01*
X344250Y1019500D02*
X346750D01*
X345500Y1018250D02*
Y1020750D01*
X344250Y1046500D02*
X346750D01*
X345500Y1045250D02*
Y1047750D01*
X647500Y130500D02*
X650500D01*
X649000Y129000D02*
Y132000D01*
X622750Y130500D02*
X625750D01*
X624250Y129000D02*
Y132000D01*
X601750Y130500D02*
X604750D01*
X603250Y129000D02*
Y132000D01*
X552750Y130500D02*
X555750D01*
X554250Y129000D02*
Y132000D01*
X528000Y130500D02*
X531000D01*
X529500Y129000D02*
Y132000D01*
X639808Y199500D02*
X642807D01*
X641308Y198000D02*
Y201000D01*
X664499Y171000D02*
X667499D01*
X665999Y169500D02*
Y172500D01*
X707500Y415000D02*
X710500D01*
X709000Y413500D02*
Y416500D01*
X621500Y566000D02*
X624500D01*
X623000Y564500D02*
Y567500D01*
X621500Y526000D02*
X624500D01*
X623000Y524500D02*
Y527500D01*
X631500Y494000D02*
X634500D01*
X633000Y492500D02*
Y495500D01*
X672500Y471000D02*
X675500D01*
X674000Y469500D02*
Y472500D01*
X317250Y1046500D02*
X319750D01*
X318500Y1045250D02*
Y1047750D01*
X317250Y1019500D02*
X319750D01*
X318500Y1018250D02*
Y1020750D01*
X216500Y227500D02*
X219500D01*
X218000Y226000D02*
Y229000D01*
X505000Y357500D02*
X508000D01*
X506500Y356000D02*
Y359000D01*
X529500Y433000D02*
X532500D01*
X531000Y431500D02*
Y434500D01*
X519500Y433000D02*
X522500D01*
X521000Y431500D02*
Y434500D01*
X511500Y433000D02*
X514500D01*
X513000Y431500D02*
Y434500D01*
X503500Y433000D02*
X506500D01*
X505000Y431500D02*
Y434500D01*
X492500Y433000D02*
X495500D01*
X494000Y431500D02*
Y434500D01*
X628500Y620000D02*
X631500D01*
X630000Y618500D02*
Y621500D01*
X639499Y606999D02*
X642499D01*
X640999Y605499D02*
Y608499D01*
X644500Y588000D02*
X647500D01*
X646000Y586500D02*
Y589500D01*
X629499Y548999D02*
X632499D01*
X630999Y547499D02*
Y550499D01*
X640999Y534499D02*
X643999D01*
X642499Y532999D02*
Y535999D01*
X631500Y472000D02*
X634500D01*
X633000Y470500D02*
Y473500D01*
X656500Y496000D02*
X659500D01*
X658000Y494500D02*
Y497500D01*
X689500Y497000D02*
X692500D01*
X691000Y495500D02*
Y498500D01*
X670500Y501000D02*
X673500D01*
X672000Y499500D02*
Y502500D01*
X672500Y399000D02*
X675500D01*
X674000Y397500D02*
Y400500D01*
X688500Y406000D02*
X691500D01*
X690000Y404500D02*
Y407500D01*
X620500Y320000D02*
X623500D01*
X622000Y318500D02*
Y321500D01*
X563500Y284000D02*
X566500D01*
X565000Y282500D02*
Y285500D01*
X639500Y398000D02*
X642500D01*
X641000Y396500D02*
Y399500D01*
X162500Y227500D02*
X165500D01*
X164000Y226000D02*
Y229000D01*
X302500Y606000D02*
X305500D01*
X304000Y604500D02*
Y607500D01*
X302500Y630000D02*
X305500D01*
X304000Y628500D02*
Y631500D01*
X290500Y622000D02*
X293500D01*
X292000Y620500D02*
Y623500D01*
X290500Y615000D02*
X293500D01*
X292000Y613500D02*
Y616500D01*
X335500Y640000D02*
X338500D01*
X337000Y638500D02*
Y641500D01*
X348500Y654000D02*
X351500D01*
X350000Y652500D02*
Y655500D01*
X358500Y654000D02*
X361500D01*
X360000Y652500D02*
Y655500D01*
X404500Y654000D02*
X407500D01*
X406000Y652500D02*
Y655500D01*
X394500Y654000D02*
X397500D01*
X396000Y652500D02*
Y655500D01*
X417500Y640000D02*
X420500D01*
X419000Y638500D02*
Y641500D01*
X461500Y621000D02*
X464500D01*
X463000Y619500D02*
Y622500D01*
X461500Y614000D02*
X464500D01*
X463000Y612500D02*
Y615500D01*
X449500Y606000D02*
X452500D01*
X451000Y604500D02*
Y607500D01*
X449500Y630000D02*
X452500D01*
X451000Y628500D02*
Y631500D01*
X481500Y630000D02*
X484500D01*
X483000Y628500D02*
Y631500D01*
X458500Y598000D02*
X461500D01*
X460000Y596500D02*
Y599500D01*
X458500Y590000D02*
X461500D01*
X460000Y588500D02*
Y591500D01*
X458500Y582000D02*
X461500D01*
X460000Y580500D02*
Y583500D01*
X514500Y641000D02*
X517500D01*
X516000Y639500D02*
Y642500D01*
X143250Y1135600D02*
X146250D01*
X144750Y1134100D02*
Y1137100D01*
X174250Y1135600D02*
X177250D01*
X175750Y1134100D02*
Y1137100D01*
X142250Y1113600D02*
X145250D01*
X143750Y1112100D02*
Y1115100D01*
X155250Y1113600D02*
X158250D01*
X156750Y1112100D02*
Y1115100D01*
X507500Y483000D02*
X510500D01*
X509000Y481500D02*
Y484500D01*
X516500Y483000D02*
X519500D01*
X518000Y481500D02*
Y484500D01*
X581500Y470000D02*
X584500D01*
X583000Y468500D02*
Y471500D01*
X545500Y506000D02*
X548500D01*
X547000Y504500D02*
Y507500D01*
X538500Y506000D02*
X541500D01*
X540000Y504500D02*
Y507500D01*
X656500Y399000D02*
X659500D01*
X658000Y397500D02*
Y400500D01*
X493500Y349000D02*
X496500D01*
X495000Y347500D02*
Y350500D01*
X621500Y708000D02*
X624500D01*
X623000Y706500D02*
Y709500D01*
X621500Y700000D02*
X624500D01*
X623000Y698500D02*
Y701500D01*
X621500Y692000D02*
X624500D01*
X623000Y690500D02*
Y693500D01*
X657500Y164000D02*
X660500D01*
X659000Y162500D02*
Y165500D01*
X476500Y506000D02*
X479500D01*
X478000Y504500D02*
Y507500D01*
X535500Y586000D02*
X538500D01*
X537000Y584500D02*
Y587500D01*
X546500Y586000D02*
X549500D01*
X548000Y584500D02*
Y587500D01*
X539500Y656000D02*
X542500D01*
X541000Y654500D02*
Y657500D01*
X528500Y656000D02*
X531500D01*
X530000Y654500D02*
Y657500D01*
X106500Y127000D02*
X109500D01*
X108000Y125500D02*
Y128500D01*
X173502Y117252D02*
X176502D01*
X175002Y115752D02*
Y118752D01*
X142500Y171000D02*
X145500D01*
X144000Y169500D02*
Y172500D01*
X154500Y124000D02*
X157500D01*
X156000Y122500D02*
Y125500D01*
X142500Y144000D02*
X145500D01*
X144000Y142500D02*
Y145500D01*
X170500Y144500D02*
X173500D01*
X172000Y143000D02*
Y146000D01*
X205500Y124000D02*
X208500D01*
X207000Y122500D02*
Y125500D01*
X195850Y156350D02*
X198850D01*
X197350Y154850D02*
Y157850D01*
X217500Y176000D02*
X220500D01*
X219000Y174500D02*
Y177500D01*
X620500Y334000D02*
X623500D01*
X622000Y332500D02*
Y335500D01*
X600500Y313000D02*
X603500D01*
X602000Y311500D02*
Y314500D01*
X612500Y313000D02*
X615500D01*
X614000Y311500D02*
Y314500D01*
X503500Y294000D02*
X506500D01*
X505000Y292500D02*
Y295500D01*
X515500Y280000D02*
X518500D01*
X517000Y278500D02*
Y281500D01*
X521500Y271000D02*
X524500D01*
X523000Y269500D02*
Y272500D01*
X644499Y313999D02*
X647499D01*
X645999Y312499D02*
Y315499D01*
X721500Y317000D02*
X724500D01*
X723000Y315500D02*
Y318500D01*
X478500Y276000D02*
X481500D01*
X480000Y274500D02*
Y277500D01*
X577500Y247000D02*
X580500D01*
X579000Y245500D02*
Y248500D01*
X563500Y247000D02*
X566500D01*
X565000Y245500D02*
Y248500D01*
X549500Y247000D02*
X552500D01*
X551000Y245500D02*
Y248500D01*
X538500Y247000D02*
X541500D01*
X540000Y245500D02*
Y248500D01*
X519500Y259000D02*
X522500D01*
X521000Y257500D02*
Y260500D01*
X598500Y246959D02*
X601500D01*
X600000Y245459D02*
Y248458D01*
X588500Y246959D02*
X591500D01*
X590000Y245459D02*
Y248458D01*
X588500Y201000D02*
X591500D01*
X590000Y199500D02*
Y202500D01*
X588500Y189000D02*
X591500D01*
X590000Y187500D02*
Y190500D01*
X588500Y175000D02*
X591500D01*
X590000Y173500D02*
Y176500D01*
X588500Y161000D02*
X591500D01*
X590000Y159500D02*
Y162500D01*
X515500Y199000D02*
X518500D01*
X517000Y197500D02*
Y200500D01*
X516500Y189000D02*
X519500D01*
X518000Y187500D02*
Y190500D01*
X507283Y193783D02*
X510283D01*
X508783Y192283D02*
Y195282D01*
X507500Y212000D02*
X510500D01*
X509000Y210500D02*
Y213500D01*
X518499Y171000D02*
X521499D01*
X519999Y169500D02*
Y172500D01*
X519500Y150000D02*
X522500D01*
X521000Y148500D02*
Y151500D01*
X519500Y139000D02*
X522500D01*
X521000Y137500D02*
Y140500D01*
X342500Y309400D02*
X345500D01*
X344000Y307899D02*
Y310900D01*
X639500Y1000000D02*
X642500D01*
X641000Y998500D02*
Y1001500D01*
X626500Y1000000D02*
X629500D01*
X628000Y998500D02*
Y1001500D01*
X685500Y854000D02*
X688500D01*
X687000Y852500D02*
Y855500D01*
X633500Y991000D02*
X636500D01*
X635000Y989500D02*
Y992500D01*
X614499Y997998D02*
X617499D01*
X615999Y996498D02*
Y999498D01*
X514500Y986000D02*
X517500D01*
X516000Y984500D02*
Y987500D01*
X802500Y1053000D02*
X805500D01*
X804000Y1051500D02*
Y1054500D01*
X810500Y1053000D02*
X813500D01*
X812000Y1051500D02*
Y1054500D01*
X693500Y1055000D02*
X696500D01*
X695000Y1053500D02*
Y1056500D01*
X563499Y1099000D02*
X566499D01*
X564999Y1097500D02*
Y1100500D01*
X555499Y1099000D02*
X558499D01*
X556999Y1097500D02*
Y1100500D01*
X638500Y1185000D02*
X641500D01*
X640000Y1183500D02*
Y1186500D01*
X663500Y1185000D02*
X666500D01*
X665000Y1183500D02*
Y1186500D01*
X688500Y1185000D02*
X691500D01*
X690000Y1183500D02*
Y1186500D01*
X711000Y1185000D02*
X714000D01*
X712500Y1183500D02*
Y1186500D01*
X736000Y1185000D02*
X739000D01*
X737500Y1183500D02*
Y1186500D01*
X751000Y1045500D02*
X754000D01*
X752500Y1044000D02*
Y1047000D01*
X622500Y1187000D02*
X625500D01*
X624000Y1185500D02*
Y1188500D01*
X486500Y1100000D02*
X489500D01*
X488000Y1098500D02*
Y1101500D01*
X486500Y1131000D02*
X489500D01*
X488000Y1129500D02*
Y1132500D01*
X600001Y1140000D02*
X603001D01*
X601501Y1138500D02*
Y1141500D01*
X638749Y1058000D02*
X641749D01*
X640249Y1056500D02*
Y1059500D01*
X406500Y312000D02*
X409500D01*
X408000Y310500D02*
Y313500D01*
X398500Y312000D02*
X401500D01*
X400000Y310500D02*
Y313500D01*
X285500Y1067997D02*
X288500D01*
X287000Y1066497D02*
Y1069497D01*
X271500Y1067997D02*
X274500D01*
X273000Y1066497D02*
Y1069497D01*
X309500Y1064000D02*
X312500D01*
X311000Y1062500D02*
Y1065500D01*
X359500Y877667D02*
X362500D01*
X361000Y876167D02*
Y879167D01*
X228500Y1070000D02*
X231500D01*
X230000Y1068500D02*
Y1071500D01*
X235499Y1076998D02*
X238500D01*
X236999Y1075498D02*
Y1078498D01*
X291500Y1019500D02*
X294500D01*
X293000Y1018000D02*
Y1021000D01*
X291500Y1046500D02*
X294500D01*
X293000Y1045000D02*
Y1048000D01*
X481500Y462000D02*
X484500D01*
X483000Y460500D02*
Y463500D01*
X309500Y238000D02*
X312500D01*
X311000Y236500D02*
Y239500D01*
X327500Y203000D02*
X330500D01*
X329000Y201500D02*
Y204500D01*
X304500Y186998D02*
X307500D01*
X306000Y185498D02*
Y188498D01*
X314500Y186998D02*
X317500D01*
X316000Y185498D02*
Y188498D01*
X309502Y144000D02*
X312502D01*
X311002Y142500D02*
Y145500D01*
X309502Y123000D02*
X312502D01*
X311002Y121500D02*
Y124500D01*
X309502Y134000D02*
X312502D01*
X311002Y132500D02*
Y135500D01*
X146500Y364000D02*
X149500D01*
X148000Y362500D02*
Y365500D01*
X354500Y189000D02*
X357500D01*
X356000Y187500D02*
Y190500D01*
X362500Y202000D02*
X365500D01*
X364000Y200500D02*
Y203500D01*
X362500Y189000D02*
X365500D01*
X364000Y187500D02*
Y190500D01*
X345500Y202000D02*
X348500D01*
X347000Y200500D02*
Y203500D01*
X345500Y189000D02*
X348500D01*
X347000Y187500D02*
Y190500D01*
X98500Y260000D02*
X101500D01*
X100000Y258500D02*
Y261500D01*
X95500Y250000D02*
X98500D01*
X97000Y248500D02*
Y251500D01*
X186500Y362000D02*
X189500D01*
X188000Y360500D02*
Y363500D01*
X178500Y362000D02*
X181500D01*
X180000Y360500D02*
Y363500D01*
X125500Y307000D02*
X128500D01*
X127000Y305500D02*
Y308500D01*
X133500Y299000D02*
X136500D01*
X135000Y297500D02*
Y300500D01*
X128500Y227000D02*
X131500D01*
X130000Y225500D02*
Y228500D01*
X206500Y510000D02*
X209500D01*
X208000Y508500D02*
Y511500D01*
X214500Y518000D02*
X217500D01*
X216000Y516500D02*
Y519500D01*
X428500Y725000D02*
X431500D01*
X430000Y723500D02*
Y726500D01*
X414500Y683000D02*
X417500D01*
X416000Y681500D02*
Y684500D01*
X209500Y709000D02*
X212500D01*
X211000Y707500D02*
Y710500D01*
X209500Y700000D02*
X212500D01*
X211000Y698500D02*
Y701500D01*
X209500Y691000D02*
X212500D01*
X211000Y689500D02*
Y692500D01*
X503500Y986000D02*
X506500D01*
X505000Y984500D02*
Y987500D01*
X492500Y986000D02*
X495500D01*
X494000Y984500D02*
Y987500D01*
X479500Y986000D02*
X482500D01*
X481000Y984500D02*
Y987500D01*
X466500Y986000D02*
X469500D01*
X468000Y984500D02*
Y987500D01*
X358500Y1000000D02*
X361500D01*
X360000Y998500D02*
Y1001500D01*
X587500Y1069500D02*
X590500D01*
X589000Y1068000D02*
Y1071000D01*
X765500Y1006000D02*
X768500D01*
X767000Y1004500D02*
Y1007500D01*
X775500Y1006000D02*
X778500D01*
X777000Y1004500D02*
Y1007500D01*
X779500Y984000D02*
X782500D01*
X781000Y982500D02*
Y985500D01*
X767500Y983000D02*
X770500D01*
X769000Y981500D02*
Y984500D01*
X542500Y683000D02*
X545500D01*
X544000Y681500D02*
Y684500D01*
X541500Y895000D02*
X544500D01*
X543000Y893500D02*
Y896500D01*
X510500Y872000D02*
X513500D01*
X512000Y870500D02*
Y873500D01*
X416500Y872000D02*
X419500D01*
X418000Y870500D02*
Y873500D01*
X397499Y885998D02*
X400499D01*
X398999Y884498D02*
Y887498D01*
X452500Y893000D02*
X455500D01*
X454000Y891500D02*
Y894500D01*
X369500Y953000D02*
X372500D01*
X371000Y951500D02*
Y954500D01*
X378500Y953000D02*
X381500D01*
X380000Y951500D02*
Y954500D01*
X386500Y953000D02*
X389500D01*
X388000Y951500D02*
Y954500D01*
X468500Y953000D02*
X471500D01*
X470000Y951500D02*
Y954500D01*
X478500Y953000D02*
X481500D01*
X480000Y951500D02*
Y954500D01*
X488500Y953000D02*
X491500D01*
X490000Y951500D02*
Y954500D01*
X349250Y990250D02*
X352250D01*
X350750Y988750D02*
Y991750D01*
X425500Y1073000D02*
X428500D01*
X427000Y1071500D02*
Y1074500D01*
X622399Y1127000D02*
X625399D01*
X623899Y1125500D02*
Y1128500D01*
X622499Y1115998D02*
X625499D01*
X623999Y1114498D02*
Y1117498D01*
X799500Y1078000D02*
X802500D01*
X801000Y1076500D02*
Y1079500D01*
X320500Y830000D02*
X323500D01*
X322000Y828500D02*
Y831500D01*
X413500Y859000D02*
X416500D01*
X415000Y857500D02*
Y860500D01*
X518500Y842000D02*
X521500D01*
X520000Y840500D02*
Y843500D01*
X129500Y795000D02*
X132500D01*
X131000Y793500D02*
Y796500D01*
X129500Y804998D02*
X132500D01*
X131000Y803498D02*
Y806498D01*
X460500Y816000D02*
X463500D01*
X462000Y814500D02*
Y817500D01*
X438500Y854000D02*
X441500D01*
X440000Y852500D02*
Y855500D01*
X445499Y860998D02*
X448499D01*
X446999Y859498D02*
Y862498D01*
X687500Y722000D02*
X690500D01*
X689000Y720500D02*
Y723500D01*
X704250Y808367D02*
X707250D01*
X705750Y806867D02*
Y809867D01*
X704499Y817998D02*
X707499D01*
X705999Y816498D02*
Y819498D01*
X704499Y827998D02*
X707499D01*
X705999Y826498D02*
Y829498D01*
X704499Y837998D02*
X707499D01*
X705999Y836498D02*
Y839498D01*
X512000Y888000D02*
X515000D01*
X513500Y886500D02*
Y889500D01*
X733500Y874000D02*
X736500D01*
X735000Y872500D02*
Y875500D01*
X770500Y1098000D02*
X773500D01*
X772000Y1096500D02*
Y1099500D01*
X770500Y1085000D02*
X773500D01*
X772000Y1083500D02*
Y1086500D01*
X770500Y1072000D02*
X773500D01*
X772000Y1070500D02*
Y1073500D01*
X770500Y1059000D02*
X773500D01*
X772000Y1057500D02*
Y1060500D01*
X769500Y1124000D02*
X772500D01*
X771000Y1122500D02*
Y1125500D01*
X761063Y1101998D02*
X764063D01*
X762563Y1100498D02*
Y1103498D01*
X753500Y1079000D02*
X756500D01*
X755000Y1077500D02*
Y1080500D01*
X622500Y1103000D02*
X625500D01*
X624000Y1101500D02*
Y1104500D01*
X699500Y169000D02*
X702500D01*
X701000Y167500D02*
Y170500D01*
X681500Y144000D02*
X684500D01*
X683000Y142500D02*
Y145500D01*
X722500Y351000D02*
X725500D01*
X724000Y349500D02*
Y352500D01*
X408773Y272727D02*
X411773D01*
X410273Y271227D02*
Y274227D01*
X430499Y363999D02*
X433499D01*
X431999Y362499D02*
Y365499D01*
X472500Y246000D02*
X475500D01*
X474000Y244500D02*
Y247500D01*
X468500Y237000D02*
X471500D01*
X470000Y235500D02*
Y238500D01*
X452500Y213000D02*
X455500D01*
X454000Y211500D02*
Y214500D01*
X477500Y224000D02*
X480500D01*
X479000Y222500D02*
Y225500D01*
X484500Y177000D02*
X487500D01*
X486000Y175500D02*
Y178500D01*
X476502Y146002D02*
X479502D01*
X478002Y144502D02*
Y147502D01*
X508500Y177000D02*
X511500D01*
X510000Y175500D02*
Y178500D01*
X728500Y423000D02*
X731500D01*
X730000Y421500D02*
Y424500D01*
X707500Y497000D02*
X710500D01*
X709000Y495500D02*
Y498500D01*
X725500Y107000D02*
X728500D01*
X727000Y105500D02*
Y108500D01*
X734900Y97600D02*
X737900D01*
X736400Y96100D02*
Y99100D01*
X668500Y91000D02*
X671500D01*
X670000Y89500D02*
Y92500D01*
X675500Y120000D02*
X678500D01*
X677000Y118500D02*
Y121500D01*
X528250Y117000D02*
X531250D01*
X529750Y115500D02*
Y118500D01*
X468500Y861000D02*
X471500D01*
X470000Y859500D02*
Y862500D01*
X502500Y845000D02*
X505500D01*
X504000Y843500D02*
Y846500D01*
X542500Y879000D02*
X545500D01*
X544000Y877500D02*
Y880500D01*
X566500Y745000D02*
X569500D01*
X568000Y743500D02*
Y746500D01*
X558500Y751997D02*
X561500D01*
X560000Y750497D02*
Y753497D01*
X383500Y890000D02*
X386500D01*
X385000Y888500D02*
Y891500D01*
X366500Y849000D02*
X369500D01*
X368000Y847500D02*
Y850500D01*
X373500Y859000D02*
X376500D01*
X375000Y857500D02*
Y860500D01*
X383499Y821998D02*
X386499D01*
X384999Y820498D02*
Y823498D01*
X327500Y837000D02*
X330500D01*
X329000Y835500D02*
Y838500D01*
X123500Y812998D02*
X126500D01*
X125000Y811498D02*
Y814498D01*
X139500Y809000D02*
X142500D01*
X141000Y807500D02*
Y810500D01*
X148500Y823000D02*
X151500D01*
X150000Y821500D02*
Y824500D01*
X188500Y748000D02*
X191500D01*
X190000Y746500D02*
Y749500D01*
X179500Y749000D02*
X182500D01*
X181000Y747500D02*
Y750500D01*
X189750Y714000D02*
X192750D01*
X191250Y712500D02*
Y715500D01*
X197750Y714000D02*
X200750D01*
X199250Y712500D02*
Y715500D01*
X390500Y350000D02*
X393500D01*
X392000Y348500D02*
Y351500D01*
X383500Y363000D02*
X386500D01*
X385000Y361500D02*
Y364500D01*
X675500Y1137000D02*
X678500D01*
X677000Y1135500D02*
Y1138500D01*
X343500Y370000D02*
X346500D01*
X345000Y368500D02*
Y371500D01*
X343500Y362000D02*
X346500D01*
X345000Y360500D02*
Y363500D01*
X128500Y245000D02*
X131500D01*
X130000Y243500D02*
Y246500D01*
X584500Y428000D02*
X587500D01*
X586000Y426500D02*
Y429500D01*
X176500Y255000D02*
X179500D01*
X178000Y253500D02*
Y256500D01*
X165500Y255000D02*
X168500D01*
X167000Y253500D02*
Y256500D01*
X358500Y730000D02*
X361500D01*
X360000Y728500D02*
Y731500D01*
X338500Y743000D02*
X341500D01*
X340000Y741500D02*
Y744500D01*
X381500Y812000D02*
X384500D01*
X383000Y810500D02*
Y813500D01*
X397500Y876000D02*
X400500D01*
X399000Y874500D02*
Y877500D01*
X391499Y812998D02*
X394499D01*
X392999Y811498D02*
Y814498D01*
X390500Y984000D02*
X393500D01*
X392000Y982500D02*
Y985500D01*
X390500Y1019000D02*
X393500D01*
X392000Y1017500D02*
Y1020500D01*
X730500Y823000D02*
X733500D01*
X732000Y821500D02*
Y824500D01*
X478502Y966002D02*
X481502D01*
X480002Y964502D02*
Y967502D01*
X488502Y966002D02*
X491502D01*
X490002Y964502D02*
Y967502D01*
X498500Y966000D02*
X501500D01*
X500000Y964500D02*
Y967500D01*
X304499Y951998D02*
X307499D01*
X305999Y950498D02*
Y953498D01*
X318500Y981000D02*
X321500D01*
X320000Y979500D02*
Y982500D01*
X328500Y981000D02*
X331500D01*
X330000Y979500D02*
Y982500D01*
X308502Y1002002D02*
X311502D01*
X310002Y1000502D02*
Y1003502D01*
X293500Y1002000D02*
X296500D01*
X295000Y1000500D02*
Y1003500D01*
X284500Y995000D02*
X287500D01*
X286000Y993500D02*
Y996500D01*
X655500Y1136000D02*
X658500D01*
X657000Y1134500D02*
Y1137500D01*
X678500Y560000D02*
X681500D01*
X680000Y558500D02*
Y561500D01*
X373500Y869000D02*
X376500D01*
X375000Y867500D02*
Y870500D01*
X550500Y768000D02*
X553500D01*
X552000Y766500D02*
Y769500D01*
X634500Y852000D02*
X637500D01*
X636000Y850500D02*
Y853500D01*
X678500Y585000D02*
X681500D01*
X680000Y583500D02*
Y586500D01*
X701500Y864000D02*
X704500D01*
X703000Y862500D02*
Y865500D01*
X762500Y1112000D02*
X765500D01*
X764000Y1110500D02*
Y1113500D01*
X137500Y828000D02*
X140500D01*
X139000Y826500D02*
Y829500D01*
X658500Y622000D02*
X661500D01*
X660000Y620500D02*
Y623500D01*
X581500Y304000D02*
X584500D01*
X583000Y302500D02*
Y305500D01*
X608499Y298999D02*
X611499D01*
X609999Y297499D02*
Y300499D01*
X221493Y133593D02*
X224494D01*
X222994Y132093D02*
Y135093D01*
X221493Y153593D02*
X224494D01*
X222994Y152093D02*
Y155093D01*
X216493Y163593D02*
X219494D01*
X217994Y162093D02*
Y165093D01*
X231493Y153593D02*
X234494D01*
X232994Y152093D02*
Y155093D01*
X226494Y163593D02*
X229494D01*
X227994Y162093D02*
Y165093D01*
X231493Y173593D02*
X234494D01*
X232994Y172093D02*
Y175093D01*
X241493Y153593D02*
X244494D01*
X242994Y152093D02*
Y155093D01*
X236494Y163593D02*
X239494D01*
X237994Y162093D02*
Y165093D01*
X251494Y153593D02*
X254494D01*
X252994Y152093D02*
Y155093D01*
X261494Y133593D02*
X264494D01*
X262994Y132093D02*
Y135093D01*
X261494Y153593D02*
X264494D01*
X262994Y152093D02*
Y155093D01*
X281494Y173593D02*
X284494D01*
X282994Y172093D02*
Y175093D01*
X291494Y173593D02*
X294494D01*
X292994Y172093D02*
Y175093D01*
X216493Y243593D02*
X219494D01*
X217994Y242093D02*
Y245093D01*
X221493Y253593D02*
X224494D01*
X222994Y252093D02*
Y255093D01*
X231493Y213593D02*
X234494D01*
X232994Y212093D02*
Y215093D01*
X226494Y223593D02*
X229494D01*
X227994Y222093D02*
Y225093D01*
X231493Y233593D02*
X234494D01*
X232994Y232093D02*
Y235093D01*
X226494Y243593D02*
X229494D01*
X227994Y242093D02*
Y245093D01*
X231493Y253593D02*
X234494D01*
X232994Y252093D02*
Y255093D01*
X236494Y223593D02*
X239494D01*
X237994Y222093D02*
Y225093D01*
X236494Y243593D02*
X239494D01*
X237994Y242093D02*
Y245093D01*
X281494Y213593D02*
X284494D01*
X282994Y212093D02*
Y215093D01*
X281494Y233593D02*
X284494D01*
X282994Y232093D02*
Y235093D01*
X276494Y243593D02*
X279494D01*
X277994Y242093D02*
Y245093D01*
X281494Y253593D02*
X284494D01*
X282994Y252093D02*
Y255093D01*
X291494Y213593D02*
X294494D01*
X292994Y212093D02*
Y215093D01*
X286494Y223593D02*
X289494D01*
X287994Y222093D02*
Y225093D01*
X291494Y233593D02*
X294494D01*
X292994Y232093D02*
Y235093D01*
X286494Y243593D02*
X289494D01*
X287994Y242093D02*
Y245093D01*
X291494Y253593D02*
X294494D01*
X292994Y252093D02*
Y255093D01*
X296494Y223593D02*
X299494D01*
X297994Y222093D02*
Y225093D01*
X296494Y243593D02*
X299494D01*
X297994Y242093D02*
Y245093D01*
X301494Y253593D02*
X304494D01*
X302994Y252093D02*
Y255093D01*
X311494Y253593D02*
X314494D01*
X312994Y252093D02*
Y255093D01*
X321494Y253593D02*
X324494D01*
X322994Y252093D02*
Y255093D01*
X331494Y253593D02*
X334494D01*
X332994Y252093D02*
Y255093D01*
X71494Y173593D02*
X74493D01*
X72993Y172093D02*
Y175093D01*
X81494Y173593D02*
X84494D01*
X82993Y172093D02*
Y175093D01*
X76494Y183593D02*
X79493D01*
X77993Y182093D02*
Y185093D01*
X91494Y133593D02*
X94494D01*
X92993Y132093D02*
Y135093D01*
X86494Y143593D02*
X89494D01*
X87993Y142093D02*
Y145093D01*
X91494Y153593D02*
X94494D01*
X92993Y152093D02*
Y155093D01*
X86494Y163593D02*
X89494D01*
X87993Y162093D02*
Y165093D01*
X91494Y173593D02*
X94494D01*
X92993Y172093D02*
Y175093D01*
X86494Y183593D02*
X89494D01*
X87993Y182093D02*
Y185093D01*
X91494Y193593D02*
X94494D01*
X92993Y192093D02*
Y195093D01*
X101494Y133593D02*
X104494D01*
X102993Y132093D02*
Y135093D01*
X96494Y143593D02*
X99494D01*
X97993Y142093D02*
Y145093D01*
X101494Y153593D02*
X104494D01*
X102993Y152093D02*
Y155093D01*
X96494Y163593D02*
X99494D01*
X97993Y162093D02*
Y165093D01*
X101494Y173593D02*
X104494D01*
X102993Y172093D02*
Y175093D01*
X96494Y183593D02*
X99494D01*
X97993Y182093D02*
Y185093D01*
X96494Y203593D02*
X99494D01*
X97993Y202093D02*
Y205093D01*
X111494Y133593D02*
X114494D01*
X112993Y132093D02*
Y135093D01*
X106494Y143593D02*
X109494D01*
X107993Y142093D02*
Y145093D01*
X106494Y163593D02*
X109494D01*
X107993Y162093D02*
Y165093D01*
X111494Y173593D02*
X114494D01*
X112993Y172093D02*
Y175093D01*
X121494Y133593D02*
X124494D01*
X122993Y132093D02*
Y135093D01*
X121494Y173593D02*
X124494D01*
X122993Y172093D02*
Y175093D01*
X141494Y133593D02*
X144494D01*
X142993Y132093D02*
Y135093D01*
X136494Y183593D02*
X139494D01*
X137993Y182093D02*
Y185093D01*
X136494Y203593D02*
X139494D01*
X137993Y202093D02*
Y205093D01*
X151494Y133593D02*
X154494D01*
X152993Y132093D02*
Y135093D01*
X161493Y133593D02*
X164494D01*
X162994Y132093D02*
Y135093D01*
X156494Y143593D02*
X159494D01*
X157993Y142093D02*
Y145093D01*
X161493Y153593D02*
X164494D01*
X162994Y152093D02*
Y155093D01*
X171493Y133593D02*
X174494D01*
X172994Y132093D02*
Y135093D01*
X171493Y153593D02*
X174494D01*
X172994Y152093D02*
Y155093D01*
X181493Y133593D02*
X184494D01*
X182994Y132093D02*
Y135093D01*
X3992Y63592D02*
X6992D01*
X5492Y62092D02*
Y65092D01*
X10242Y76092D02*
X13242D01*
X11742Y74592D02*
Y77592D01*
X3992Y88592D02*
X6992D01*
X5492Y87092D02*
Y90092D01*
X10242Y101092D02*
X13242D01*
X11742Y99592D02*
Y102592D01*
X3992Y113592D02*
X6992D01*
X5492Y112092D02*
Y115092D01*
X10242Y126092D02*
X13242D01*
X11742Y124592D02*
Y127592D01*
X3992Y138592D02*
X6992D01*
X5492Y137092D02*
Y140092D01*
X10242Y151092D02*
X13242D01*
X11742Y149592D02*
Y152592D01*
X3992Y163592D02*
X6992D01*
X5492Y162092D02*
Y165092D01*
X10242Y176092D02*
X13242D01*
X11742Y174592D02*
Y177592D01*
X3992Y188592D02*
X6992D01*
X5492Y187092D02*
Y190092D01*
X10242Y201092D02*
X13242D01*
X11742Y199592D02*
Y202592D01*
X3992Y213592D02*
X6992D01*
X5492Y212092D02*
Y215092D01*
X10242Y226092D02*
X13242D01*
X11742Y224592D02*
Y227592D01*
X3992Y238592D02*
X6992D01*
X5492Y237092D02*
Y240092D01*
X10242Y251092D02*
X13242D01*
X11742Y249592D02*
Y252592D01*
X3992Y263592D02*
X6992D01*
X5492Y262092D02*
Y265092D01*
X10242Y276092D02*
X13242D01*
X11742Y274592D02*
Y277592D01*
X3992Y288592D02*
X6992D01*
X5492Y287092D02*
Y290092D01*
X10242Y301092D02*
X13242D01*
X11742Y299592D02*
Y302592D01*
X3992Y313592D02*
X6992D01*
X5492Y312092D02*
Y315092D01*
X10242Y326092D02*
X13242D01*
X11742Y324592D02*
Y327592D01*
X3992Y338592D02*
X6992D01*
X5492Y337092D02*
Y340092D01*
X10242Y351092D02*
X13242D01*
X11742Y349592D02*
Y352592D01*
X3992Y363592D02*
X6992D01*
X5492Y362092D02*
Y365092D01*
X10242Y376092D02*
X13242D01*
X11742Y374592D02*
Y377592D01*
X3992Y388592D02*
X6992D01*
X5492Y387092D02*
Y390092D01*
X10242Y401092D02*
X13242D01*
X11742Y399592D02*
Y402592D01*
X3992Y413592D02*
X6992D01*
X5492Y412092D02*
Y415092D01*
X10242Y426092D02*
X13242D01*
X11742Y424592D02*
Y427592D01*
X3992Y438592D02*
X6992D01*
X5492Y437092D02*
Y440092D01*
X10242Y451092D02*
X13242D01*
X11742Y449592D02*
Y452592D01*
X3992Y463592D02*
X6992D01*
X5492Y462092D02*
Y465092D01*
X10242Y476092D02*
X13242D01*
X11742Y474592D02*
Y477592D01*
X3992Y488592D02*
X6992D01*
X5492Y487092D02*
Y490092D01*
X10242Y501092D02*
X13242D01*
X11742Y499592D02*
Y502592D01*
X3992Y513592D02*
X6992D01*
X5492Y512092D02*
Y515092D01*
X10242Y526092D02*
X13242D01*
X11742Y524592D02*
Y527592D01*
X3992Y538592D02*
X6992D01*
X5492Y537092D02*
Y540092D01*
X10242Y551092D02*
X13242D01*
X11742Y549592D02*
Y552592D01*
X3992Y563592D02*
X6992D01*
X5492Y562092D02*
Y565092D01*
X10242Y576092D02*
X13242D01*
X11742Y574592D02*
Y577592D01*
X3992Y588592D02*
X6992D01*
X5492Y587092D02*
Y590092D01*
X10242Y601092D02*
X13242D01*
X11742Y599592D02*
Y602592D01*
X3992Y613592D02*
X6992D01*
X5492Y612092D02*
Y615092D01*
X10242Y626092D02*
X13242D01*
X11742Y624592D02*
Y627592D01*
X3992Y638592D02*
X6992D01*
X5492Y637092D02*
Y640092D01*
X10242Y651092D02*
X13242D01*
X11742Y649592D02*
Y652592D01*
X3992Y663592D02*
X6992D01*
X5492Y662092D02*
Y665092D01*
X10242Y676092D02*
X13242D01*
X11742Y674592D02*
Y677592D01*
X3992Y688592D02*
X6992D01*
X5492Y687092D02*
Y690092D01*
X10242Y701092D02*
X13242D01*
X11742Y699592D02*
Y702592D01*
X3992Y713592D02*
X6992D01*
X5492Y712092D02*
Y715092D01*
X10242Y726092D02*
X13242D01*
X11742Y724592D02*
Y727592D01*
X3992Y738592D02*
X6992D01*
X5492Y737092D02*
Y740092D01*
X10242Y751092D02*
X13242D01*
X11742Y749592D02*
Y752592D01*
X3992Y763592D02*
X6992D01*
X5492Y762092D02*
Y765092D01*
X10242Y776092D02*
X13242D01*
X11742Y774592D02*
Y777592D01*
X3992Y788592D02*
X6992D01*
X5492Y787092D02*
Y790092D01*
X3992Y813592D02*
X6992D01*
X5492Y812092D02*
Y815092D01*
X3992Y838592D02*
X6992D01*
X5492Y837092D02*
Y840092D01*
X3992Y863592D02*
X6992D01*
X5492Y862092D02*
Y865092D01*
X10242Y876092D02*
X13242D01*
X11742Y874592D02*
Y877592D01*
X3992Y888592D02*
X6992D01*
X5492Y887092D02*
Y890092D01*
X10242Y901092D02*
X13242D01*
X11742Y899592D02*
Y902592D01*
X3992Y913592D02*
X6992D01*
X5492Y912092D02*
Y915092D01*
X10242Y926092D02*
X13242D01*
X11742Y924592D02*
Y927592D01*
X3992Y938592D02*
X6992D01*
X5492Y937092D02*
Y940092D01*
X10242Y951092D02*
X13242D01*
X11742Y949592D02*
Y952592D01*
X3992Y963592D02*
X6992D01*
X5492Y962092D02*
Y965092D01*
X10242Y976092D02*
X13242D01*
X11742Y974592D02*
Y977592D01*
X3992Y988592D02*
X6992D01*
X5492Y987092D02*
Y990092D01*
X10242Y1001092D02*
X13242D01*
X11742Y999592D02*
Y1002592D01*
X3992Y1013592D02*
X6992D01*
X5492Y1012092D02*
Y1015092D01*
X10242Y1026092D02*
X13242D01*
X11742Y1024592D02*
Y1027592D01*
X3992Y1038592D02*
X6992D01*
X5492Y1037092D02*
Y1040092D01*
X10242Y1051092D02*
X13242D01*
X11742Y1049592D02*
Y1052592D01*
X3992Y1063592D02*
X6992D01*
X5492Y1062092D02*
Y1065092D01*
X10242Y1076092D02*
X13242D01*
X11742Y1074592D02*
Y1077592D01*
X3992Y1088592D02*
X6992D01*
X5492Y1087092D02*
Y1090092D01*
X10242Y1101092D02*
X13242D01*
X11742Y1099592D02*
Y1102592D01*
X3992Y1113592D02*
X6992D01*
X5492Y1112092D02*
Y1115092D01*
X10242Y1126092D02*
X13242D01*
X11742Y1124592D02*
Y1127592D01*
X3992Y1138592D02*
X6992D01*
X5492Y1137092D02*
Y1140092D01*
X16492Y63592D02*
X19492D01*
X17992Y62092D02*
Y65092D01*
X22742Y76092D02*
X25742D01*
X24242Y74592D02*
Y77592D01*
X16492Y88592D02*
X19492D01*
X17992Y87092D02*
Y90092D01*
X22742Y101092D02*
X25742D01*
X24242Y99592D02*
Y102592D01*
X16492Y113592D02*
X19492D01*
X17992Y112092D02*
Y115092D01*
X22742Y126092D02*
X25742D01*
X24242Y124592D02*
Y127592D01*
X16492Y138592D02*
X19492D01*
X17992Y137092D02*
Y140092D01*
X22742Y151092D02*
X25742D01*
X24242Y149592D02*
Y152592D01*
X16492Y163592D02*
X19492D01*
X17992Y162092D02*
Y165092D01*
X22742Y176092D02*
X25742D01*
X24242Y174592D02*
Y177592D01*
X16492Y863592D02*
X19492D01*
X17992Y862092D02*
Y865092D01*
X22742Y876092D02*
X25742D01*
X24242Y874592D02*
Y877592D01*
X16492Y888592D02*
X19492D01*
X17992Y887092D02*
Y890092D01*
X22742Y901092D02*
X25742D01*
X24242Y899592D02*
Y902592D01*
X16492Y913592D02*
X19492D01*
X17992Y912092D02*
Y915092D01*
X22742Y926092D02*
X25742D01*
X24242Y924592D02*
Y927592D01*
X16492Y938592D02*
X19492D01*
X17992Y937092D02*
Y940092D01*
X22742Y951092D02*
X25742D01*
X24242Y949592D02*
Y952592D01*
X16492Y963592D02*
X19492D01*
X17992Y962092D02*
Y965092D01*
X22742Y976092D02*
X25742D01*
X24242Y974592D02*
Y977592D01*
X16492Y988592D02*
X19492D01*
X17992Y987092D02*
Y990092D01*
X22742Y1001092D02*
X25742D01*
X24242Y999592D02*
Y1002592D01*
X16492Y1013592D02*
X19492D01*
X17992Y1012092D02*
Y1015092D01*
X22742Y1026092D02*
X25742D01*
X24242Y1024592D02*
Y1027592D01*
X16492Y1038592D02*
X19492D01*
X17992Y1037092D02*
Y1040092D01*
X22742Y1051092D02*
X25742D01*
X24242Y1049592D02*
Y1052592D01*
X16492Y1063592D02*
X19492D01*
X17992Y1062092D02*
Y1065092D01*
X22742Y1076092D02*
X25742D01*
X24242Y1074592D02*
Y1077592D01*
X16492Y1088592D02*
X19492D01*
X17992Y1087092D02*
Y1090092D01*
X22742Y1101092D02*
X25742D01*
X24242Y1099592D02*
Y1102592D01*
X16492Y1113592D02*
X19492D01*
X17992Y1112092D02*
Y1115092D01*
X22742Y1126092D02*
X25742D01*
X24242Y1124592D02*
Y1127592D01*
X35242Y76092D02*
X38242D01*
X36742Y74592D02*
Y77592D01*
X28992Y113592D02*
X31992D01*
X30492Y112092D02*
Y115092D01*
X35242Y126092D02*
X38242D01*
X36742Y124592D02*
Y127592D01*
X28992Y138592D02*
X31992D01*
X30492Y137092D02*
Y140092D01*
X35242Y151092D02*
X38242D01*
X36742Y149592D02*
Y152592D01*
X28992Y163592D02*
X31992D01*
X30492Y162092D02*
Y165092D01*
X35242Y876092D02*
X38242D01*
X36742Y874592D02*
Y877592D01*
X28992Y888592D02*
X31992D01*
X30492Y887092D02*
Y890092D01*
X35242Y901092D02*
X38242D01*
X36742Y899592D02*
Y902592D01*
X28992Y913592D02*
X31992D01*
X30492Y912092D02*
Y915092D01*
X35242Y926092D02*
X38242D01*
X36742Y924592D02*
Y927592D01*
X28992Y938592D02*
X31992D01*
X30492Y937092D02*
Y940092D01*
X35242Y951092D02*
X38242D01*
X36742Y949592D02*
Y952592D01*
X28992Y963592D02*
X31992D01*
X30492Y962092D02*
Y965092D01*
X35242Y976092D02*
X38242D01*
X36742Y974592D02*
Y977592D01*
X28992Y988592D02*
X31992D01*
X30492Y987092D02*
Y990092D01*
X35242Y1001092D02*
X38242D01*
X36742Y999592D02*
Y1002592D01*
X28992Y1013592D02*
X31992D01*
X30492Y1012092D02*
Y1015092D01*
X35242Y1026092D02*
X38242D01*
X36742Y1024592D02*
Y1027592D01*
X28992Y1038592D02*
X31992D01*
X30492Y1037092D02*
Y1040092D01*
X35242Y1051092D02*
X38242D01*
X36742Y1049592D02*
Y1052592D01*
X28992Y1063592D02*
X31992D01*
X30492Y1062092D02*
Y1065092D01*
X35242Y1076092D02*
X38242D01*
X36742Y1074592D02*
Y1077592D01*
X28992Y1088592D02*
X31992D01*
X30492Y1087092D02*
Y1090092D01*
X35242Y1101092D02*
X38242D01*
X36742Y1099592D02*
Y1102592D01*
X28992Y1113592D02*
X31992D01*
X30492Y1112092D02*
Y1115092D01*
X35242Y1126092D02*
X38242D01*
X36742Y1124592D02*
Y1127592D01*
X41492Y113592D02*
X44492D01*
X42992Y112092D02*
Y115092D01*
X41492Y913592D02*
X44492D01*
X42992Y912092D02*
Y915092D01*
X47742Y926092D02*
X50742D01*
X49242Y924592D02*
Y927592D01*
X41492Y938592D02*
X44492D01*
X42992Y937092D02*
Y940092D01*
X47742Y951092D02*
X50742D01*
X49242Y949592D02*
Y952592D01*
X41492Y963592D02*
X44492D01*
X42992Y962092D02*
Y965092D01*
X47742Y976092D02*
X50742D01*
X49242Y974592D02*
Y977592D01*
X41492Y988592D02*
X44492D01*
X42992Y987092D02*
Y990092D01*
X47742Y1001092D02*
X50742D01*
X49242Y999592D02*
Y1002592D01*
X41492Y1013592D02*
X44492D01*
X42992Y1012092D02*
Y1015092D01*
X47742Y1026092D02*
X50742D01*
X49242Y1024592D02*
Y1027592D01*
X41492Y1038592D02*
X44492D01*
X42992Y1037092D02*
Y1040092D01*
X47742Y1051092D02*
X50742D01*
X49242Y1049592D02*
Y1052592D01*
X41492Y1063592D02*
X44492D01*
X42992Y1062092D02*
Y1065092D01*
X47742Y1076092D02*
X50742D01*
X49242Y1074592D02*
Y1077592D01*
X41492Y1088592D02*
X44492D01*
X42992Y1087092D02*
Y1090092D01*
X47742Y1101092D02*
X50742D01*
X49242Y1099592D02*
Y1102592D01*
X41492Y1113592D02*
X44492D01*
X42992Y1112092D02*
Y1115092D01*
X47742Y1126092D02*
X50742D01*
X49242Y1124592D02*
Y1127592D01*
X60242Y51092D02*
X63242D01*
X61742Y49592D02*
Y52592D01*
X53992Y63592D02*
X56992D01*
X55492Y62092D02*
Y65092D01*
X53992Y113592D02*
X56992D01*
X55492Y112092D02*
Y115092D01*
X53992Y938592D02*
X56992D01*
X55492Y937092D02*
Y940092D01*
X53992Y963592D02*
X56992D01*
X55492Y962092D02*
Y965092D01*
X53992Y988592D02*
X56992D01*
X55492Y987092D02*
Y990092D01*
X53992Y1013592D02*
X56992D01*
X55492Y1012092D02*
Y1015092D01*
X53992Y1038592D02*
X56992D01*
X55492Y1037092D02*
Y1040092D01*
X53992Y1063592D02*
X56992D01*
X55492Y1062092D02*
Y1065092D01*
X53992Y1088592D02*
X56992D01*
X55492Y1087092D02*
Y1090092D01*
X60242Y1101092D02*
X63242D01*
X61742Y1099592D02*
Y1102592D01*
X53992Y1113592D02*
X56992D01*
X55492Y1112092D02*
Y1115092D01*
X60242Y1126092D02*
X63242D01*
X61742Y1124592D02*
Y1127592D01*
X53992Y1138592D02*
X56992D01*
X55492Y1137092D02*
Y1140092D01*
X66492Y13592D02*
X69492D01*
X67992Y12092D02*
Y15092D01*
X72742Y26092D02*
X75742D01*
X74242Y24592D02*
Y27592D01*
X66492Y38592D02*
X69492D01*
X67992Y37092D02*
Y40092D01*
X72742Y51092D02*
X75742D01*
X74242Y49592D02*
Y52592D01*
X66492Y113592D02*
X69492D01*
X67992Y112092D02*
Y115092D01*
X72742Y1126092D02*
X75742D01*
X74242Y1124592D02*
Y1127592D01*
X66492Y1138592D02*
X69492D01*
X67992Y1137092D02*
Y1140092D01*
X72742Y1151092D02*
X75742D01*
X74242Y1149592D02*
Y1152592D01*
X66492Y1163592D02*
X69492D01*
X67992Y1162092D02*
Y1165092D01*
X72742Y1176092D02*
X75742D01*
X74242Y1174592D02*
Y1177592D01*
X66492Y1188592D02*
X69492D01*
X67992Y1187092D02*
Y1190092D01*
X78992Y13592D02*
X81992D01*
X80492Y12092D02*
Y15092D01*
X85242Y26092D02*
X88242D01*
X86742Y24592D02*
Y27592D01*
X78992Y38592D02*
X81992D01*
X80492Y37092D02*
Y40092D01*
X78992Y1138592D02*
X81992D01*
X80492Y1137092D02*
Y1140092D01*
X78992Y1163592D02*
X81992D01*
X80492Y1162092D02*
Y1165092D01*
X78992Y1188592D02*
X81992D01*
X80492Y1187092D02*
Y1190092D01*
X91492Y13592D02*
X94492D01*
X92992Y12092D02*
Y15092D01*
X97742Y26092D02*
X100742D01*
X99242Y24592D02*
Y27592D01*
X91492Y38592D02*
X94492D01*
X92992Y37092D02*
Y40092D01*
X103992Y13592D02*
X106992D01*
X105492Y12092D02*
Y15092D01*
X110242Y26092D02*
X113242D01*
X111742Y24592D02*
Y27592D01*
X116492Y13592D02*
X119492D01*
X117992Y12092D02*
Y15092D01*
X122742Y1151092D02*
X125742D01*
X124242Y1149592D02*
Y1152592D01*
X116492Y1188592D02*
X119492D01*
X117992Y1187092D02*
Y1190092D01*
X128992Y13592D02*
X131992D01*
X130492Y12092D02*
Y15092D01*
X128992Y1138592D02*
X131992D01*
X130492Y1137092D02*
Y1140092D01*
X135242Y1151092D02*
X138242D01*
X136742Y1149592D02*
Y1152592D01*
X128992Y1188592D02*
X131992D01*
X130492Y1187092D02*
Y1190092D01*
X141492Y13592D02*
X144492D01*
X142992Y12092D02*
Y15092D01*
X141492Y1188592D02*
X144492D01*
X142992Y1187092D02*
Y1190092D01*
X153992Y13592D02*
X156992D01*
X155492Y12092D02*
Y15092D01*
X153992Y88592D02*
X156992D01*
X155492Y87092D02*
Y90092D01*
X160242Y1176092D02*
X163242D01*
X161742Y1174592D02*
Y1177592D01*
X153992Y1188592D02*
X156992D01*
X155492Y1187092D02*
Y1190092D01*
X166492Y13592D02*
X169492D01*
X167992Y12092D02*
Y15092D01*
X166492Y1088592D02*
X169492D01*
X167992Y1087092D02*
Y1090092D01*
X166492Y1188592D02*
X169492D01*
X167992Y1187092D02*
Y1190092D01*
X178992Y13592D02*
X181992D01*
X180492Y12092D02*
Y15092D01*
X185242Y101092D02*
X188242D01*
X186742Y99592D02*
Y102592D01*
X178992Y1188592D02*
X181992D01*
X180492Y1187092D02*
Y1190092D01*
X191492Y13592D02*
X194492D01*
X192992Y12092D02*
Y15092D01*
X197742Y76092D02*
X200742D01*
X199242Y74592D02*
Y77592D01*
X191492Y88592D02*
X194492D01*
X192992Y87092D02*
Y90092D01*
X197742Y101092D02*
X200742D01*
X199242Y99592D02*
Y102592D01*
X197742Y1126092D02*
X200742D01*
X199242Y1124592D02*
Y1127592D01*
X191492Y1138592D02*
X194492D01*
X192992Y1137092D02*
Y1140092D01*
X197742Y1151092D02*
X200742D01*
X199242Y1149592D02*
Y1152592D01*
X191492Y1188592D02*
X194492D01*
X192992Y1187092D02*
Y1190092D01*
X203992Y13592D02*
X206992D01*
X205492Y12092D02*
Y15092D01*
X210242Y76092D02*
X213242D01*
X211742Y74592D02*
Y77592D01*
X203992Y88592D02*
X206992D01*
X205492Y87092D02*
Y90092D01*
X210242Y101092D02*
X213242D01*
X211742Y99592D02*
Y102592D01*
X203992Y1188592D02*
X206992D01*
X205492Y1187092D02*
Y1190092D01*
X216492Y13592D02*
X219492D01*
X217992Y12092D02*
Y15092D01*
X222742Y76092D02*
X225742D01*
X224242Y74592D02*
Y77592D01*
X216492Y1188592D02*
X219492D01*
X217992Y1187092D02*
Y1190092D01*
X228992Y13592D02*
X231992D01*
X230492Y12092D02*
Y15092D01*
X241492Y13592D02*
X244492D01*
X242992Y12092D02*
Y15092D01*
X247742Y51092D02*
X250742D01*
X249242Y49592D02*
Y52592D01*
X247742Y1126092D02*
X250742D01*
X249242Y1124592D02*
Y1127592D01*
X241492Y1138592D02*
X244492D01*
X242992Y1137092D02*
Y1140092D01*
X247742Y1151092D02*
X250742D01*
X249242Y1149592D02*
Y1152592D01*
X241492Y1163592D02*
X244492D01*
X242992Y1162092D02*
Y1165092D01*
X247742Y1176092D02*
X250742D01*
X249242Y1174592D02*
Y1177592D01*
X241492Y1188592D02*
X244492D01*
X242992Y1187092D02*
Y1190092D01*
X253992Y13592D02*
X256992D01*
X255492Y12092D02*
Y15092D01*
X260242Y51092D02*
X263242D01*
X261742Y49592D02*
Y52592D01*
X253992Y63592D02*
X256992D01*
X255492Y62092D02*
Y65092D01*
X260242Y76092D02*
X263242D01*
X261742Y74592D02*
Y77592D01*
X260242Y101092D02*
X263242D01*
X261742Y99592D02*
Y102592D01*
X260242Y1126092D02*
X263242D01*
X261742Y1124592D02*
Y1127592D01*
X253992Y1138592D02*
X256992D01*
X255492Y1137092D02*
Y1140092D01*
X260242Y1151092D02*
X263242D01*
X261742Y1149592D02*
Y1152592D01*
X253992Y1163592D02*
X256992D01*
X255492Y1162092D02*
Y1165092D01*
X260242Y1176092D02*
X263242D01*
X261742Y1174592D02*
Y1177592D01*
X253992Y1188592D02*
X256992D01*
X255492Y1187092D02*
Y1190092D01*
X266492Y13592D02*
X269492D01*
X267992Y12092D02*
Y15092D01*
X266492Y63592D02*
X269492D01*
X267992Y62092D02*
Y65092D01*
X266492Y88592D02*
X269492D01*
X267992Y87092D02*
Y90092D01*
X272742Y101092D02*
X275742D01*
X274242Y99592D02*
Y102592D01*
X266492Y1113592D02*
X269492D01*
X267992Y1112092D02*
Y1115092D01*
X272742Y1126092D02*
X275742D01*
X274242Y1124592D02*
Y1127592D01*
X266492Y1138592D02*
X269492D01*
X267992Y1137092D02*
Y1140092D01*
X272742Y1151092D02*
X275742D01*
X274242Y1149592D02*
Y1152592D01*
X266492Y1163592D02*
X269492D01*
X267992Y1162092D02*
Y1165092D01*
X272742Y1176092D02*
X275742D01*
X274242Y1174592D02*
Y1177592D01*
X266492Y1188592D02*
X269492D01*
X267992Y1187092D02*
Y1190092D01*
X278992Y13592D02*
X281992D01*
X280492Y12092D02*
Y15092D01*
X285242Y26092D02*
X288242D01*
X286742Y24592D02*
Y27592D01*
X285242Y101092D02*
X288242D01*
X286742Y99592D02*
Y102592D01*
X278992Y1113592D02*
X281992D01*
X280492Y1112092D02*
Y1115092D01*
X285242Y1126092D02*
X288242D01*
X286742Y1124592D02*
Y1127592D01*
X278992Y1138592D02*
X281992D01*
X280492Y1137092D02*
Y1140092D01*
X285242Y1151092D02*
X288242D01*
X286742Y1149592D02*
Y1152592D01*
X278992Y1163592D02*
X281992D01*
X280492Y1162092D02*
Y1165092D01*
X285242Y1176092D02*
X288242D01*
X286742Y1174592D02*
Y1177592D01*
X278992Y1188592D02*
X281992D01*
X280492Y1187092D02*
Y1190092D01*
X291492Y13592D02*
X294492D01*
X292992Y12092D02*
Y15092D01*
X297742Y26092D02*
X300742D01*
X299242Y24592D02*
Y27592D01*
X297742Y51092D02*
X300742D01*
X299242Y49592D02*
Y52592D01*
X297742Y76092D02*
X300742D01*
X299242Y74592D02*
Y77592D01*
X291492Y88592D02*
X294492D01*
X292992Y87092D02*
Y90092D01*
X297742Y101092D02*
X300742D01*
X299242Y99592D02*
Y102592D01*
X291492Y1113592D02*
X294492D01*
X292992Y1112092D02*
Y1115092D01*
X297742Y1126092D02*
X300742D01*
X299242Y1124592D02*
Y1127592D01*
X291492Y1163592D02*
X294492D01*
X292992Y1162092D02*
Y1165092D01*
X297742Y1176092D02*
X300742D01*
X299242Y1174592D02*
Y1177592D01*
X291492Y1188592D02*
X294492D01*
X292992Y1187092D02*
Y1190092D01*
X303992Y13592D02*
X306992D01*
X305492Y12092D02*
Y15092D01*
X310242Y26092D02*
X313242D01*
X311742Y24592D02*
Y27592D01*
X303992Y38592D02*
X306992D01*
X305492Y37092D02*
Y40092D01*
X310242Y51092D02*
X313242D01*
X311742Y49592D02*
Y52592D01*
X303992Y63592D02*
X306992D01*
X305492Y62092D02*
Y65092D01*
X310242Y76092D02*
X313242D01*
X311742Y74592D02*
Y77592D01*
X303992Y88592D02*
X306992D01*
X305492Y87092D02*
Y90092D01*
X310242Y101092D02*
X313242D01*
X311742Y99592D02*
Y102592D01*
X310242Y1176092D02*
X313242D01*
X311742Y1174592D02*
Y1177592D01*
X303992Y1188592D02*
X306992D01*
X305492Y1187092D02*
Y1190092D01*
X316492Y13592D02*
X319492D01*
X317992Y12092D02*
Y15092D01*
X322742Y26092D02*
X325742D01*
X324242Y24592D02*
Y27592D01*
X316492Y38592D02*
X319492D01*
X317992Y37092D02*
Y40092D01*
X322742Y51092D02*
X325742D01*
X324242Y49592D02*
Y52592D01*
X316492Y63592D02*
X319492D01*
X317992Y62092D02*
Y65092D01*
X322742Y1176092D02*
X325742D01*
X324242Y1174592D02*
Y1177592D01*
X316492Y1188592D02*
X319492D01*
X317992Y1187092D02*
Y1190092D01*
X328992Y13592D02*
X331992D01*
X330492Y12092D02*
Y15092D01*
X335242Y26092D02*
X338242D01*
X336742Y24592D02*
Y27592D01*
X328992Y38592D02*
X331992D01*
X330492Y37092D02*
Y40092D01*
X335242Y51092D02*
X338242D01*
X336742Y49592D02*
Y52592D01*
X328992Y63592D02*
X331992D01*
X330492Y62092D02*
Y65092D01*
X335242Y151092D02*
X338242D01*
X336742Y149592D02*
Y152592D01*
X328992Y163592D02*
X331992D01*
X330492Y162092D02*
Y165092D01*
X335242Y451092D02*
X338242D01*
X336742Y449592D02*
Y452592D01*
X328992Y463592D02*
X331992D01*
X330492Y462092D02*
Y465092D01*
X335242Y476092D02*
X338242D01*
X336742Y474592D02*
Y477592D01*
X328992Y488592D02*
X331992D01*
X330492Y487092D02*
Y490092D01*
X335242Y501092D02*
X338242D01*
X336742Y499592D02*
Y502592D01*
X328992Y513592D02*
X331992D01*
X330492Y512092D02*
Y515092D01*
X335242Y526092D02*
X338242D01*
X336742Y524592D02*
Y527592D01*
X328992Y538592D02*
X331992D01*
X330492Y537092D02*
Y540092D01*
X335242Y551092D02*
X338242D01*
X336742Y549592D02*
Y552592D01*
X328992Y1113592D02*
X331992D01*
X330492Y1112092D02*
Y1115092D01*
X328992Y1163592D02*
X331992D01*
X330492Y1162092D02*
Y1165092D01*
X335242Y1176092D02*
X338242D01*
X336742Y1174592D02*
Y1177592D01*
X328992Y1188592D02*
X331992D01*
X330492Y1187092D02*
Y1190092D01*
X341492Y13592D02*
X344492D01*
X342992Y12092D02*
Y15092D01*
X347742Y26092D02*
X350742D01*
X349242Y24592D02*
Y27592D01*
X341492Y38592D02*
X344492D01*
X342992Y37092D02*
Y40092D01*
X347742Y51092D02*
X350742D01*
X349242Y49592D02*
Y52592D01*
X341492Y63592D02*
X344492D01*
X342992Y62092D02*
Y65092D01*
X347742Y126092D02*
X350742D01*
X349242Y124592D02*
Y127592D01*
X347742Y151092D02*
X350742D01*
X349242Y149592D02*
Y152592D01*
X341492Y163592D02*
X344492D01*
X342992Y162092D02*
Y165092D01*
X347742Y451092D02*
X350742D01*
X349242Y449592D02*
Y452592D01*
X341492Y463592D02*
X344492D01*
X342992Y462092D02*
Y465092D01*
X341492Y1163592D02*
X344492D01*
X342992Y1162092D02*
Y1165092D01*
X347742Y1176092D02*
X350742D01*
X349242Y1174592D02*
Y1177592D01*
X341492Y1188592D02*
X344492D01*
X342992Y1187092D02*
Y1190092D01*
X353992Y13592D02*
X356992D01*
X355492Y12092D02*
Y15092D01*
X360242Y26092D02*
X363242D01*
X361742Y24592D02*
Y27592D01*
X353992Y38592D02*
X356992D01*
X355492Y37092D02*
Y40092D01*
X360242Y51092D02*
X363242D01*
X361742Y49592D02*
Y52592D01*
X353992Y63592D02*
X356992D01*
X355492Y62092D02*
Y65092D01*
X360242Y76092D02*
X363242D01*
X361742Y74592D02*
Y77592D01*
X353992Y113592D02*
X356992D01*
X355492Y112092D02*
Y115092D01*
X360242Y126092D02*
X363242D01*
X361742Y124592D02*
Y127592D01*
X353992Y138592D02*
X356992D01*
X355492Y137092D02*
Y140092D01*
X360242Y151092D02*
X363242D01*
X361742Y149592D02*
Y152592D01*
X353992Y163592D02*
X356992D01*
X355492Y162092D02*
Y165092D01*
X360242Y451092D02*
X363242D01*
X361742Y449592D02*
Y452592D01*
X353992Y463592D02*
X356992D01*
X355492Y462092D02*
Y465092D01*
X353992Y488592D02*
X356992D01*
X355492Y487092D02*
Y490092D01*
X353992Y1163592D02*
X356992D01*
X355492Y1162092D02*
Y1165092D01*
X360242Y1176092D02*
X363242D01*
X361742Y1174592D02*
Y1177592D01*
X353992Y1188592D02*
X356992D01*
X355492Y1187092D02*
Y1190092D01*
X366492Y13592D02*
X369492D01*
X367992Y12092D02*
Y15092D01*
X372742Y26092D02*
X375742D01*
X374242Y24592D02*
Y27592D01*
X366492Y38592D02*
X369492D01*
X367992Y37092D02*
Y40092D01*
X372742Y51092D02*
X375742D01*
X374242Y49592D02*
Y52592D01*
X366492Y63592D02*
X369492D01*
X367992Y62092D02*
Y65092D01*
X372742Y76092D02*
X375742D01*
X374242Y74592D02*
Y77592D01*
X366492Y113592D02*
X369492D01*
X367992Y112092D02*
Y115092D01*
X372742Y126092D02*
X375742D01*
X374242Y124592D02*
Y127592D01*
X366492Y138592D02*
X369492D01*
X367992Y137092D02*
Y140092D01*
X372742Y151092D02*
X375742D01*
X374242Y149592D02*
Y152592D01*
X366492Y163592D02*
X369492D01*
X367992Y162092D02*
Y165092D01*
X372742Y451092D02*
X375742D01*
X374242Y449592D02*
Y452592D01*
X366492Y463592D02*
X369492D01*
X367992Y462092D02*
Y465092D01*
X366492Y1163592D02*
X369492D01*
X367992Y1162092D02*
Y1165092D01*
X372742Y1176092D02*
X375742D01*
X374242Y1174592D02*
Y1177592D01*
X366492Y1188592D02*
X369492D01*
X367992Y1187092D02*
Y1190092D01*
X378992Y13592D02*
X381992D01*
X380492Y12092D02*
Y15092D01*
X385242Y26092D02*
X388242D01*
X386742Y24592D02*
Y27592D01*
X378992Y38592D02*
X381992D01*
X380492Y37092D02*
Y40092D01*
X385242Y51092D02*
X388242D01*
X386742Y49592D02*
Y52592D01*
X378992Y63592D02*
X381992D01*
X380492Y62092D02*
Y65092D01*
X385242Y76092D02*
X388242D01*
X386742Y74592D02*
Y77592D01*
X378992Y113592D02*
X381992D01*
X380492Y112092D02*
Y115092D01*
X385242Y126092D02*
X388242D01*
X386742Y124592D02*
Y127592D01*
X378992Y138592D02*
X381992D01*
X380492Y137092D02*
Y140092D01*
X385242Y151092D02*
X388242D01*
X386742Y149592D02*
Y152592D01*
X378992Y163592D02*
X381992D01*
X380492Y162092D02*
Y165092D01*
X385242Y451092D02*
X388242D01*
X386742Y449592D02*
Y452592D01*
X378992Y463592D02*
X381992D01*
X380492Y462092D02*
Y465092D01*
X385242Y476092D02*
X388242D01*
X386742Y474592D02*
Y477592D01*
X378992Y1163592D02*
X381992D01*
X380492Y1162092D02*
Y1165092D01*
X385242Y1176092D02*
X388242D01*
X386742Y1174592D02*
Y1177592D01*
X378992Y1188592D02*
X381992D01*
X380492Y1187092D02*
Y1190092D01*
X391492Y13592D02*
X394492D01*
X392992Y12092D02*
Y15092D01*
X397742Y26092D02*
X400742D01*
X399242Y24592D02*
Y27592D01*
X391492Y38592D02*
X394492D01*
X392992Y37092D02*
Y40092D01*
X397742Y51092D02*
X400742D01*
X399242Y49592D02*
Y52592D01*
X391492Y63592D02*
X394492D01*
X392992Y62092D02*
Y65092D01*
X391492Y113592D02*
X394492D01*
X392992Y112092D02*
Y115092D01*
X397742Y126092D02*
X400742D01*
X399242Y124592D02*
Y127592D01*
X391492Y138592D02*
X394492D01*
X392992Y137092D02*
Y140092D01*
X397742Y151092D02*
X400742D01*
X399242Y149592D02*
Y152592D01*
X391492Y163592D02*
X394492D01*
X392992Y162092D02*
Y165092D01*
X397742Y451092D02*
X400742D01*
X399242Y449592D02*
Y452592D01*
X391492Y463592D02*
X394492D01*
X392992Y462092D02*
Y465092D01*
X397742Y476092D02*
X400742D01*
X399242Y474592D02*
Y477592D01*
X391492Y1163592D02*
X394492D01*
X392992Y1162092D02*
Y1165092D01*
X397742Y1176092D02*
X400742D01*
X399242Y1174592D02*
Y1177592D01*
X391492Y1188592D02*
X394492D01*
X392992Y1187092D02*
Y1190092D01*
X403992Y13592D02*
X406992D01*
X405492Y12092D02*
Y15092D01*
X410242Y26092D02*
X413242D01*
X411742Y24592D02*
Y27592D01*
X403992Y38592D02*
X406992D01*
X405492Y37092D02*
Y40092D01*
X410242Y51092D02*
X413242D01*
X411742Y49592D02*
Y52592D01*
X403992Y63592D02*
X406992D01*
X405492Y62092D02*
Y65092D01*
X403992Y138592D02*
X406992D01*
X405492Y137092D02*
Y140092D01*
X403992Y163592D02*
X406992D01*
X405492Y162092D02*
Y165092D01*
X403992Y463592D02*
X406992D01*
X405492Y462092D02*
Y465092D01*
X410242Y551092D02*
X413242D01*
X411742Y549592D02*
Y552592D01*
X403992Y1163592D02*
X406992D01*
X405492Y1162092D02*
Y1165092D01*
X410242Y1176092D02*
X413242D01*
X411742Y1174592D02*
Y1177592D01*
X403992Y1188592D02*
X406992D01*
X405492Y1187092D02*
Y1190092D01*
X416492Y13592D02*
X419492D01*
X417992Y12092D02*
Y15092D01*
X422742Y26092D02*
X425742D01*
X424242Y24592D02*
Y27592D01*
X416492Y38592D02*
X419492D01*
X417992Y37092D02*
Y40092D01*
X422742Y51092D02*
X425742D01*
X424242Y49592D02*
Y52592D01*
X416492Y488592D02*
X419492D01*
X417992Y487092D02*
Y490092D01*
X422742Y501092D02*
X425742D01*
X424242Y499592D02*
Y502592D01*
X416492Y513592D02*
X419492D01*
X417992Y512092D02*
Y515092D01*
X422742Y526092D02*
X425742D01*
X424242Y524592D02*
Y527592D01*
X416492Y538592D02*
X419492D01*
X417992Y537092D02*
Y540092D01*
X422742Y551092D02*
X425742D01*
X424242Y549592D02*
Y552592D01*
X416492Y1163592D02*
X419492D01*
X417992Y1162092D02*
Y1165092D01*
X422742Y1176092D02*
X425742D01*
X424242Y1174592D02*
Y1177592D01*
X416492Y1188592D02*
X419492D01*
X417992Y1187092D02*
Y1190092D01*
X428992Y13592D02*
X431992D01*
X430492Y12092D02*
Y15092D01*
X435242Y26092D02*
X438242D01*
X436742Y24592D02*
Y27592D01*
X428992Y38592D02*
X431992D01*
X430492Y37092D02*
Y40092D01*
X435242Y51092D02*
X438242D01*
X436742Y49592D02*
Y52592D01*
X428992Y1113592D02*
X431992D01*
X430492Y1112092D02*
Y1115092D01*
X435242Y1176092D02*
X438242D01*
X436742Y1174592D02*
Y1177592D01*
X428992Y1188592D02*
X431992D01*
X430492Y1187092D02*
Y1190092D01*
X441492Y13592D02*
X444492D01*
X442992Y12092D02*
Y15092D01*
X447742Y26092D02*
X450742D01*
X449242Y24592D02*
Y27592D01*
X441492Y38592D02*
X444492D01*
X442992Y37092D02*
Y40092D01*
X447742Y51092D02*
X450742D01*
X449242Y49592D02*
Y52592D01*
X441492Y63592D02*
X444492D01*
X442992Y62092D02*
Y65092D01*
X447742Y76092D02*
X450742D01*
X449242Y74592D02*
Y77592D01*
X441492Y113592D02*
X444492D01*
X442992Y112092D02*
Y115092D01*
X447742Y1176092D02*
X450742D01*
X449242Y1174592D02*
Y1177592D01*
X441492Y1188592D02*
X444492D01*
X442992Y1187092D02*
Y1190092D01*
X453992Y13592D02*
X456992D01*
X455492Y12092D02*
Y15092D01*
X460242Y26092D02*
X463242D01*
X461742Y24592D02*
Y27592D01*
X453992Y38592D02*
X456992D01*
X455492Y37092D02*
Y40092D01*
X460242Y51092D02*
X463242D01*
X461742Y49592D02*
Y52592D01*
X453992Y63592D02*
X456992D01*
X455492Y62092D02*
Y65092D01*
X460242Y76092D02*
X463242D01*
X461742Y74592D02*
Y77592D01*
X453992Y113592D02*
X456992D01*
X455492Y112092D02*
Y115092D01*
X460242Y201092D02*
X463242D01*
X461742Y199592D02*
Y202592D01*
X460242Y1176092D02*
X463242D01*
X461742Y1174592D02*
Y1177592D01*
X453992Y1188592D02*
X456992D01*
X455492Y1187092D02*
Y1190092D01*
X466492Y13592D02*
X469492D01*
X467992Y12092D02*
Y15092D01*
X472742Y26092D02*
X475742D01*
X474242Y24592D02*
Y27592D01*
X466492Y38592D02*
X469492D01*
X467992Y37092D02*
Y40092D01*
X472742Y51092D02*
X475742D01*
X474242Y49592D02*
Y52592D01*
X466492Y63592D02*
X469492D01*
X467992Y62092D02*
Y65092D01*
X472742Y76092D02*
X475742D01*
X474242Y74592D02*
Y77592D01*
X466492Y113592D02*
X469492D01*
X467992Y112092D02*
Y115092D01*
X472742Y1101092D02*
X475742D01*
X474242Y1099592D02*
Y1102592D01*
X466492Y1113592D02*
X469492D01*
X467992Y1112092D02*
Y1115092D01*
X472742Y1151092D02*
X475742D01*
X474242Y1149592D02*
Y1152592D01*
X466492Y1163592D02*
X469492D01*
X467992Y1162092D02*
Y1165092D01*
X472742Y1176092D02*
X475742D01*
X474242Y1174592D02*
Y1177592D01*
X466492Y1188592D02*
X469492D01*
X467992Y1187092D02*
Y1190092D01*
X478992Y13592D02*
X481992D01*
X480492Y12092D02*
Y15092D01*
X485242Y26092D02*
X488242D01*
X486742Y24592D02*
Y27592D01*
X478992Y38592D02*
X481992D01*
X480492Y37092D02*
Y40092D01*
X485242Y51092D02*
X488242D01*
X486742Y49592D02*
Y52592D01*
X478992Y63592D02*
X481992D01*
X480492Y62092D02*
Y65092D01*
X478992Y113592D02*
X481992D01*
X480492Y112092D02*
Y115092D01*
X485242Y1151092D02*
X488242D01*
X486742Y1149592D02*
Y1152592D01*
X478992Y1163592D02*
X481992D01*
X480492Y1162092D02*
Y1165092D01*
X485242Y1176092D02*
X488242D01*
X486742Y1174592D02*
Y1177592D01*
X478992Y1188592D02*
X481992D01*
X480492Y1187092D02*
Y1190092D01*
X491492Y13592D02*
X494492D01*
X492992Y12092D02*
Y15092D01*
X497742Y26092D02*
X500742D01*
X499242Y24592D02*
Y27592D01*
X491492Y38592D02*
X494492D01*
X492992Y37092D02*
Y40092D01*
X497742Y51092D02*
X500742D01*
X499242Y49592D02*
Y52592D01*
X491492Y63592D02*
X494492D01*
X492992Y62092D02*
Y65092D01*
X491492Y113592D02*
X494492D01*
X492992Y112092D02*
Y115092D01*
X497742Y126092D02*
X500742D01*
X499242Y124592D02*
Y127592D01*
X497742Y1101092D02*
X500742D01*
X499242Y1099592D02*
Y1102592D01*
X497742Y1151092D02*
X500742D01*
X499242Y1149592D02*
Y1152592D01*
X491492Y1163592D02*
X494492D01*
X492992Y1162092D02*
Y1165092D01*
X491492Y1188592D02*
X494492D01*
X492992Y1187092D02*
Y1190092D01*
X503992Y13592D02*
X506992D01*
X505492Y12092D02*
Y15092D01*
X510242Y26092D02*
X513242D01*
X511742Y24592D02*
Y27592D01*
X503992Y38592D02*
X506992D01*
X505492Y37092D02*
Y40092D01*
X510242Y51092D02*
X513242D01*
X511742Y49592D02*
Y52592D01*
X503992Y63592D02*
X506992D01*
X505492Y62092D02*
Y65092D01*
X503992Y113592D02*
X506992D01*
X505492Y112092D02*
Y115092D01*
X510242Y126092D02*
X513242D01*
X511742Y124592D02*
Y127592D01*
X516492Y13592D02*
X519492D01*
X517992Y12092D02*
Y15092D01*
X522742Y26092D02*
X525742D01*
X524242Y24592D02*
Y27592D01*
X516492Y38592D02*
X519492D01*
X517992Y37092D02*
Y40092D01*
X522742Y51092D02*
X525742D01*
X524242Y49592D02*
Y52592D01*
X516492Y63592D02*
X519492D01*
X517992Y62092D02*
Y65092D01*
X522742Y76092D02*
X525742D01*
X524242Y74592D02*
Y77592D01*
X516492Y113592D02*
X519492D01*
X517992Y112092D02*
Y115092D01*
X522742Y1101092D02*
X525742D01*
X524242Y1099592D02*
Y1102592D01*
X528992Y13592D02*
X531992D01*
X530492Y12092D02*
Y15092D01*
X535242Y26092D02*
X538242D01*
X536742Y24592D02*
Y27592D01*
X528992Y38592D02*
X531992D01*
X530492Y37092D02*
Y40092D01*
X535242Y51092D02*
X538242D01*
X536742Y49592D02*
Y52592D01*
X528992Y63592D02*
X531992D01*
X530492Y62092D02*
Y65092D01*
X535242Y76092D02*
X538242D01*
X536742Y74592D02*
Y77592D01*
X528992Y88592D02*
X531992D01*
X530492Y87092D02*
Y90092D01*
X535242Y101092D02*
X538242D01*
X536742Y99592D02*
Y102592D01*
X535242Y1101092D02*
X538242D01*
X536742Y1099592D02*
Y1102592D01*
X541492Y13592D02*
X544492D01*
X542992Y12092D02*
Y15092D01*
X541492Y38592D02*
X544492D01*
X542992Y37092D02*
Y40092D01*
X547742Y51092D02*
X550742D01*
X549242Y49592D02*
Y52592D01*
X541492Y63592D02*
X544492D01*
X542992Y62092D02*
Y65092D01*
X541492Y1188592D02*
X544492D01*
X542992Y1187092D02*
Y1190092D01*
X560242Y51092D02*
X563242D01*
X561742Y49592D02*
Y52592D01*
X553992Y1188592D02*
X556992D01*
X555492Y1187092D02*
Y1190092D01*
X566492Y1188592D02*
X569492D01*
X567992Y1187092D02*
Y1190092D01*
X578992Y13592D02*
X581992D01*
X580492Y12092D02*
Y15092D01*
X585242Y26092D02*
X588242D01*
X586742Y24592D02*
Y27592D01*
X578992Y1138592D02*
X581992D01*
X580492Y1137092D02*
Y1140092D01*
X578992Y1188592D02*
X581992D01*
X580492Y1187092D02*
Y1190092D01*
X591492Y13592D02*
X594492D01*
X592992Y12092D02*
Y15092D01*
X610242Y51092D02*
X613242D01*
X611742Y49592D02*
Y52592D01*
X610242Y101092D02*
X613242D01*
X611742Y99592D02*
Y102592D01*
X610242Y976092D02*
X613242D01*
X611742Y974592D02*
Y977592D01*
X622742Y51092D02*
X625742D01*
X624242Y49592D02*
Y52592D01*
X622742Y101092D02*
X625742D01*
X624242Y99592D02*
Y102592D01*
X616492Y113592D02*
X619492D01*
X617992Y112092D02*
Y115092D01*
X628992Y13592D02*
X631992D01*
X630492Y12092D02*
Y15092D01*
X635242Y26092D02*
X638242D01*
X636742Y24592D02*
Y27592D01*
X628992Y38592D02*
X631992D01*
X630492Y37092D02*
Y40092D01*
X635242Y51092D02*
X638242D01*
X636742Y49592D02*
Y52592D01*
X628992Y63592D02*
X631992D01*
X630492Y62092D02*
Y65092D01*
X635242Y76092D02*
X638242D01*
X636742Y74592D02*
Y77592D01*
X628992Y88592D02*
X631992D01*
X630492Y87092D02*
Y90092D01*
X641492Y13592D02*
X644492D01*
X642992Y12092D02*
Y15092D01*
X647742Y26092D02*
X650742D01*
X649242Y24592D02*
Y27592D01*
X641492Y38592D02*
X644492D01*
X642992Y37092D02*
Y40092D01*
X647742Y51092D02*
X650742D01*
X649242Y49592D02*
Y52592D01*
X641492Y63592D02*
X644492D01*
X642992Y62092D02*
Y65092D01*
X647742Y76092D02*
X650742D01*
X649242Y74592D02*
Y77592D01*
X641492Y88592D02*
X644492D01*
X642992Y87092D02*
Y90092D01*
X653992Y13592D02*
X656992D01*
X655492Y12092D02*
Y15092D01*
X660242Y26092D02*
X663242D01*
X661742Y24592D02*
Y27592D01*
X653992Y38592D02*
X656992D01*
X655492Y37092D02*
Y40092D01*
X660242Y51092D02*
X663242D01*
X661742Y49592D02*
Y52592D01*
X653992Y63592D02*
X656992D01*
X655492Y62092D02*
Y65092D01*
X660242Y76092D02*
X663242D01*
X661742Y74592D02*
Y77592D01*
X660242Y126092D02*
X663242D01*
X661742Y124592D02*
Y127592D01*
X666492Y13592D02*
X669492D01*
X667992Y12092D02*
Y15092D01*
X666492Y38592D02*
X669492D01*
X667992Y37092D02*
Y40092D01*
X672742Y51092D02*
X675742D01*
X674242Y49592D02*
Y52592D01*
X666492Y63592D02*
X669492D01*
X667992Y62092D02*
Y65092D01*
X685242Y51092D02*
X688242D01*
X686742Y49592D02*
Y52592D01*
X685242Y126092D02*
X688242D01*
X686742Y124592D02*
Y127592D01*
X697742Y126092D02*
X700742D01*
X699242Y124592D02*
Y127592D01*
X703992Y13592D02*
X706992D01*
X705492Y12092D02*
Y15092D01*
X710242Y26092D02*
X713242D01*
X711742Y24592D02*
Y27592D01*
X703992Y113592D02*
X706992D01*
X705492Y112092D02*
Y115092D01*
X716492Y13592D02*
X719492D01*
X717992Y12092D02*
Y15092D01*
X716492Y113592D02*
X719492D01*
X717992Y112092D02*
Y115092D01*
X722742Y126092D02*
X725742D01*
X724242Y124592D02*
Y127592D01*
X722742Y1076092D02*
X725742D01*
X724242Y1074592D02*
Y1077592D01*
X722742Y1126092D02*
X725742D01*
X724242Y1124592D02*
Y1127592D01*
X735242Y51092D02*
X738242D01*
X736742Y49592D02*
Y52592D01*
X728992Y113592D02*
X731992D01*
X730492Y112092D02*
Y115092D01*
X735242Y126092D02*
X738242D01*
X736742Y124592D02*
Y127592D01*
X728992Y1063592D02*
X731992D01*
X730492Y1062092D02*
Y1065092D01*
X735242Y1076092D02*
X738242D01*
X736742Y1074592D02*
Y1077592D01*
X747742Y51092D02*
X750742D01*
X749242Y49592D02*
Y52592D01*
X747742Y101092D02*
X750742D01*
X749242Y99592D02*
Y102592D01*
X741492Y113592D02*
X744492D01*
X742992Y112092D02*
Y115092D01*
X747742Y126092D02*
X750742D01*
X749242Y124592D02*
Y127592D01*
X741492Y1063592D02*
X744492D01*
X742992Y1062092D02*
Y1065092D01*
X753992Y13592D02*
X756992D01*
X755492Y12092D02*
Y15092D01*
X760242Y26092D02*
X763242D01*
X761742Y24592D02*
Y27592D01*
X753992Y38592D02*
X756992D01*
X755492Y37092D02*
Y40092D01*
X760242Y51092D02*
X763242D01*
X761742Y49592D02*
Y52592D01*
X753992Y63592D02*
X756992D01*
X755492Y62092D02*
Y65092D01*
X760242Y76092D02*
X763242D01*
X761742Y74592D02*
Y77592D01*
X753992Y88592D02*
X756992D01*
X755492Y87092D02*
Y90092D01*
X760242Y101092D02*
X763242D01*
X761742Y99592D02*
Y102592D01*
X753992Y113592D02*
X756992D01*
X755492Y112092D02*
Y115092D01*
X766492Y13592D02*
X769492D01*
X767992Y12092D02*
Y15092D01*
X772742Y26092D02*
X775742D01*
X774242Y24592D02*
Y27592D01*
X766492Y38592D02*
X769492D01*
X767992Y37092D02*
Y40092D01*
X772742Y51092D02*
X775742D01*
X774242Y49592D02*
Y52592D01*
X766492Y63592D02*
X769492D01*
X767992Y62092D02*
Y65092D01*
X772742Y76092D02*
X775742D01*
X774242Y74592D02*
Y77592D01*
X766492Y88592D02*
X769492D01*
X767992Y87092D02*
Y90092D01*
X772742Y101092D02*
X775742D01*
X774242Y99592D02*
Y102592D01*
X766492Y113592D02*
X769492D01*
X767992Y112092D02*
Y115092D01*
X772742Y1176092D02*
X775742D01*
X774242Y1174592D02*
Y1177592D01*
X778992Y63592D02*
X781992D01*
X780492Y62092D02*
Y65092D01*
X785242Y76092D02*
X788242D01*
X786742Y74592D02*
Y77592D01*
X778992Y88592D02*
X781992D01*
X780492Y87092D02*
Y90092D01*
X785242Y101092D02*
X788242D01*
X786742Y99592D02*
Y102592D01*
X778992Y1188592D02*
X781992D01*
X780492Y1187092D02*
Y1190092D01*
X791492Y63592D02*
X794492D01*
X792992Y62092D02*
Y65092D01*
X797742Y76092D02*
X800742D01*
X799242Y74592D02*
Y77592D01*
X791492Y88592D02*
X794492D01*
X792992Y87092D02*
Y90092D01*
X797742Y101092D02*
X800742D01*
X799242Y99592D02*
Y102592D01*
X791492Y113592D02*
X794492D01*
X792992Y112092D02*
Y115092D01*
X810242Y76092D02*
X813242D01*
X811742Y74592D02*
Y77592D01*
X803992Y88592D02*
X806992D01*
X805492Y87092D02*
Y90092D01*
X810242Y101092D02*
X813242D01*
X811742Y99592D02*
Y102592D01*
X803992Y113592D02*
X806992D01*
X805492Y112092D02*
Y115092D01*
X810242Y126092D02*
X813242D01*
X811742Y124592D02*
Y127592D01*
X810242Y1126092D02*
X813242D01*
X811742Y1124592D02*
Y1127592D01*
X822742Y76092D02*
X825742D01*
X824242Y74592D02*
Y77592D01*
X816492Y88592D02*
X819492D01*
X817992Y87092D02*
Y90092D01*
X822742Y101092D02*
X825742D01*
X824242Y99592D02*
Y102592D01*
X816492Y113592D02*
X819492D01*
X817992Y112092D02*
Y115092D01*
X822742Y126092D02*
X825742D01*
X824242Y124592D02*
Y127592D01*
X828992Y63592D02*
X831992D01*
X830492Y62092D02*
Y65092D01*
X828992Y88592D02*
X831992D01*
X830492Y87092D02*
Y90092D01*
X828992Y113592D02*
X831992D01*
X830492Y112092D02*
Y115092D01*
X828992Y1138592D02*
X831992D01*
X830492Y1137092D02*
Y1140092D01*
X831500Y921000D02*
X834500D01*
X833000Y919500D02*
Y922500D01*
M02*
