G04 Layer_Color=16711935*
%FSLAX44Y44*%
%MOMM*%
G71*
G01*
G75*
%ADD22C,1.0000*%
%ADD46C,1.6000*%
%ADD49C,1.3000*%
%ADD55C,1.9000*%
%ADD61C,2.0000*%
%ADD112R,0.9000X1.0000*%
%ADD113R,1.4000X1.1000*%
%ADD114R,1.0000X0.9000*%
%ADD117R,0.9000X1.7000*%
%ADD119R,1.2000X1.8000*%
%ADD127R,2.7162X2.8432*%
%ADD133R,1.8000X1.2000*%
%ADD134R,1.6000X1.6000*%
%ADD135C,1.7000*%
%ADD136R,1.6000X1.6000*%
%ADD137C,1.4000*%
%ADD138C,1.5200*%
%ADD139C,6.1000*%
%ADD140C,4.1000*%
%ADD141C,2.6000*%
%ADD142C,2.0000*%
%ADD143R,2.0000X2.0000*%
%ADD144C,2.9000*%
%ADD145R,1.5200X1.5200*%
%ADD146C,3.1000*%
%ADD147O,3.6000X1.4000*%
%ADD148O,1.4000X3.6000*%
%ADD149C,3.3500*%
%ADD150R,0.6000X0.4000*%
%ADD151R,0.4000X0.6000*%
%ADD152R,3.3000X3.3000*%
%ADD153R,0.6000X0.4000*%
%ADD154R,1.1000X1.4000*%
%ADD155R,0.9000X2.1000*%
%ADD156O,0.5000X1.4500*%
%ADD157R,1.1000X2.5000*%
%ADD158R,3.4000X2.5000*%
%ADD159R,2.7000X4.3000*%
%ADD160R,1.9000X1.5000*%
%ADD161R,1.5000X2.0000*%
%ADD162R,0.9000X1.6000*%
%ADD163R,1.1500X0.9000*%
%ADD164R,1.3000X0.6000*%
%ADD165R,0.8100X0.8100*%
%ADD166R,0.8100X0.4600*%
%ADD167R,0.4600X0.8100*%
%ADD168R,1.0600X1.0600*%
%ADD169R,1.6000X3.1000*%
%ADD170R,6.3000X5.5000*%
%ADD171R,1.2000X0.7000*%
G36*
X825208Y757500D02*
X825764Y757431D01*
X826320Y757326D01*
X826771Y757222D01*
X827153Y757118D01*
X827465Y757014D01*
X827639Y756945D01*
X827708Y756910D01*
X828229Y756632D01*
X828715Y756354D01*
X829167Y756076D01*
X829549Y755799D01*
X829861Y755556D01*
X830070Y755347D01*
X830243Y755208D01*
X830278Y755174D01*
X830660Y754757D01*
X831007Y754306D01*
X831285Y753854D01*
X831528Y753472D01*
X831736Y753125D01*
X831875Y752847D01*
X831945Y752674D01*
X831979Y752604D01*
X832188Y752049D01*
X832326Y751493D01*
X832431Y750972D01*
X832500Y750486D01*
X832535Y750070D01*
X832570Y749757D01*
Y749549D01*
Y749514D01*
Y749479D01*
X832535Y748854D01*
X832465Y748299D01*
X832396Y747778D01*
X832257Y747292D01*
X832153Y746910D01*
X832083Y746632D01*
X832014Y746459D01*
X831979Y746389D01*
X831736Y745868D01*
X831458Y745382D01*
X831181Y744931D01*
X830903Y744584D01*
X830660Y744271D01*
X830451Y744028D01*
X830312Y743889D01*
X830278Y743854D01*
X829861Y743472D01*
X829410Y743125D01*
X828958Y742813D01*
X828576Y742570D01*
X828229Y742361D01*
X827952Y742222D01*
X827778Y742153D01*
X827708Y742118D01*
X827153Y741910D01*
X826597Y741771D01*
X826077Y741632D01*
X825590Y741563D01*
X825174Y741528D01*
X824861Y741493D01*
X813195D01*
X812986Y741528D01*
X812778Y741563D01*
X812466Y741702D01*
X812327Y741806D01*
X812223Y741875D01*
X812188Y741910D01*
X812153Y741945D01*
X812014Y742118D01*
X811875Y742292D01*
X811771Y742639D01*
X811736Y742778D01*
X811702Y742917D01*
Y742986D01*
Y743021D01*
X811736Y743229D01*
X811771Y743438D01*
X811910Y743785D01*
X812014Y743924D01*
X812084Y744028D01*
X812118Y744063D01*
X812153Y744097D01*
X812327Y744236D01*
X812500Y744340D01*
X812848Y744479D01*
X812986Y744514D01*
X813091Y744549D01*
X818299D01*
X818021Y744931D01*
X817778Y745313D01*
X817535Y745695D01*
X817361Y746042D01*
X817222Y746354D01*
X817118Y746597D01*
X817084Y746736D01*
X817049Y746806D01*
X816875Y747292D01*
X816771Y747743D01*
X816667Y748195D01*
X816632Y748611D01*
X816597Y748958D01*
X816563Y749236D01*
Y749410D01*
Y749479D01*
X816597Y750104D01*
X816667Y750660D01*
X816771Y751215D01*
X816875Y751667D01*
X817014Y752049D01*
X817118Y752361D01*
X817188Y752535D01*
X817222Y752604D01*
X817466Y753125D01*
X817743Y753611D01*
X818021Y754063D01*
X818299Y754445D01*
X818542Y754757D01*
X818750Y754965D01*
X818889Y755139D01*
X818924Y755174D01*
X819340Y755556D01*
X819792Y755903D01*
X820209Y756181D01*
X820625Y756458D01*
X820972Y756632D01*
X821250Y756806D01*
X821424Y756875D01*
X821459Y756910D01*
X821493D01*
X822049Y757118D01*
X822604Y757257D01*
X823125Y757396D01*
X823577Y757465D01*
X823993Y757500D01*
X824306Y757535D01*
X824583D01*
X825208Y757500D01*
D02*
G37*
G36*
X825035Y739375D02*
X825625Y739306D01*
X826146Y739202D01*
X826632Y739098D01*
X827014Y738993D01*
X827327Y738889D01*
X827500Y738820D01*
X827535Y738785D01*
X827570D01*
X828090Y738507D01*
X828576Y738229D01*
X829028Y737917D01*
X829410Y737639D01*
X829722Y737396D01*
X829931Y737188D01*
X830104Y737049D01*
X830139Y737014D01*
X830521Y736598D01*
X830868Y736146D01*
X831146Y735729D01*
X831424Y735313D01*
X831597Y735000D01*
X831771Y734723D01*
X831840Y734549D01*
X831875Y734480D01*
X832083Y733924D01*
X832222Y733368D01*
X832361Y732848D01*
X832431Y732396D01*
X832465Y731980D01*
X832500Y731667D01*
Y731459D01*
Y731424D01*
Y731389D01*
X832465Y730799D01*
X832396Y730243D01*
X832326Y729757D01*
X832188Y729306D01*
X832083Y728924D01*
X832014Y728612D01*
X831945Y728438D01*
X831910Y728368D01*
X831667Y727813D01*
X831389Y727327D01*
X831076Y726875D01*
X830799Y726459D01*
X830556Y726146D01*
X830347Y725903D01*
X830174Y725764D01*
X830139Y725695D01*
X829965Y725556D01*
X829792Y725417D01*
X829479Y725313D01*
X829340Y725278D01*
X829236Y725244D01*
X829132D01*
X828924Y725278D01*
X828750Y725313D01*
X828438Y725452D01*
X828299Y725556D01*
X828195Y725625D01*
X828160Y725660D01*
X828125Y725695D01*
X827986Y725868D01*
X827882Y726042D01*
X827743Y726355D01*
Y726493D01*
X827708Y726598D01*
Y726667D01*
Y726702D01*
Y726910D01*
X827778Y727118D01*
X827917Y727431D01*
X828056Y727639D01*
X828090Y727674D01*
X828125Y727709D01*
X828403Y727987D01*
X828611Y728264D01*
X828820Y728577D01*
X828993Y728820D01*
X829097Y729063D01*
X829201Y729237D01*
X829236Y729375D01*
X829271Y729410D01*
X829479Y730139D01*
X829549Y730452D01*
X829583Y730764D01*
Y731007D01*
X829618Y731216D01*
Y731355D01*
Y731389D01*
X829583Y731980D01*
X829549Y732257D01*
X829479Y732500D01*
X829445Y732674D01*
X829410Y732848D01*
X829375Y732952D01*
Y732986D01*
X829167Y733542D01*
X829028Y733785D01*
X828924Y733993D01*
X828820Y734167D01*
X828715Y734306D01*
X828681Y734410D01*
X828646Y734445D01*
X828264Y734896D01*
X827917Y735278D01*
X827743Y735417D01*
X827639Y735521D01*
X827570Y735591D01*
X827535Y735625D01*
X827014Y735938D01*
X826528Y736146D01*
X826354Y736216D01*
X826181Y736285D01*
X826077Y736320D01*
X826042D01*
Y724862D01*
X826007Y724619D01*
X825972Y724445D01*
X825799Y724098D01*
X825729Y723959D01*
X825660Y723855D01*
X825625Y723820D01*
X825590Y723785D01*
X825417Y723646D01*
X825243Y723507D01*
X824896Y723403D01*
X824722Y723369D01*
X824618Y723334D01*
X824514D01*
X823889Y723369D01*
X823334Y723438D01*
X822778Y723542D01*
X822327Y723646D01*
X821945Y723785D01*
X821632Y723889D01*
X821459Y723959D01*
X821389Y723994D01*
X820868Y724237D01*
X820382Y724514D01*
X819931Y724827D01*
X819584Y725105D01*
X819271Y725348D01*
X819028Y725556D01*
X818889Y725695D01*
X818854Y725730D01*
X818472Y726146D01*
X818125Y726563D01*
X817847Y727014D01*
X817604Y727396D01*
X817396Y727743D01*
X817257Y728021D01*
X817188Y728195D01*
X817153Y728264D01*
X816945Y728820D01*
X816771Y729375D01*
X816667Y729896D01*
X816563Y730348D01*
X816528Y730764D01*
X816493Y731077D01*
Y731285D01*
Y731320D01*
Y731355D01*
X816528Y731980D01*
X816597Y732570D01*
X816702Y733125D01*
X816806Y733577D01*
X816910Y733993D01*
X817014Y734271D01*
X817084Y734480D01*
X817118Y734514D01*
Y734549D01*
X817361Y735070D01*
X817639Y735556D01*
X817917Y736007D01*
X818195Y736354D01*
X818438Y736667D01*
X818646Y736875D01*
X818785Y737049D01*
X818820Y737084D01*
X819236Y737466D01*
X819653Y737813D01*
X820104Y738091D01*
X820486Y738334D01*
X820834Y738542D01*
X821111Y738681D01*
X821285Y738750D01*
X821354Y738785D01*
X821910Y738993D01*
X822465Y739132D01*
X822986Y739271D01*
X823438Y739341D01*
X823854Y739375D01*
X824167Y739410D01*
X824445D01*
X825035Y739375D01*
D02*
G37*
G36*
X818403Y722292D02*
X818577Y722257D01*
X818716Y722223D01*
X818750Y722188D01*
X832500Y716424D01*
Y713126D01*
X818750Y707362D01*
X818542Y707292D01*
X818368Y707223D01*
X818229D01*
X817917Y707258D01*
X817639Y707362D01*
X817466Y707466D01*
X817396Y707501D01*
X817118Y707744D01*
X816910Y707952D01*
X816806Y708160D01*
X816771Y708195D01*
Y708230D01*
X816702Y708473D01*
X816667Y708646D01*
Y708785D01*
Y708820D01*
X816702Y709133D01*
X816806Y709410D01*
X816910Y709619D01*
X816945Y709653D01*
Y709688D01*
X817153Y709931D01*
X817361Y710105D01*
X817535Y710209D01*
X817570Y710244D01*
X817604D01*
X828611Y714792D01*
X817604Y719306D01*
X817327Y719480D01*
X817118Y719688D01*
X816979Y719827D01*
X816945Y719862D01*
Y719896D01*
X816771Y720174D01*
X816702Y720452D01*
X816667Y720660D01*
Y720695D01*
Y720730D01*
Y720938D01*
X816702Y721112D01*
X816736Y721250D01*
X816771Y721320D01*
X816945Y721632D01*
X817153Y721841D01*
X817327Y722014D01*
X817361Y722049D01*
X817396D01*
X817674Y722223D01*
X817952Y722292D01*
X818160Y722327D01*
X818229D01*
X818403Y722292D01*
D02*
G37*
G36*
X825035Y705313D02*
X825625Y705244D01*
X826146Y705139D01*
X826632Y705035D01*
X827014Y704931D01*
X827327Y704827D01*
X827500Y704758D01*
X827535Y704723D01*
X827570D01*
X828090Y704445D01*
X828576Y704167D01*
X829028Y703855D01*
X829410Y703577D01*
X829722Y703334D01*
X829931Y703126D01*
X830104Y702987D01*
X830139Y702952D01*
X830521Y702535D01*
X830868Y702084D01*
X831146Y701667D01*
X831424Y701251D01*
X831597Y700938D01*
X831771Y700660D01*
X831840Y700487D01*
X831875Y700417D01*
X832083Y699862D01*
X832222Y699306D01*
X832361Y698785D01*
X832431Y698334D01*
X832465Y697917D01*
X832500Y697605D01*
Y697397D01*
Y697362D01*
Y697327D01*
X832465Y696737D01*
X832396Y696181D01*
X832326Y695695D01*
X832188Y695244D01*
X832083Y694862D01*
X832014Y694549D01*
X831945Y694376D01*
X831910Y694306D01*
X831667Y693751D01*
X831389Y693265D01*
X831076Y692813D01*
X830799Y692397D01*
X830556Y692084D01*
X830347Y691841D01*
X830174Y691702D01*
X830139Y691633D01*
X829965Y691494D01*
X829792Y691355D01*
X829479Y691251D01*
X829340Y691216D01*
X829236Y691181D01*
X829132D01*
X828924Y691216D01*
X828750Y691251D01*
X828438Y691390D01*
X828299Y691494D01*
X828195Y691563D01*
X828160Y691598D01*
X828125Y691633D01*
X827986Y691806D01*
X827882Y691980D01*
X827743Y692292D01*
Y692431D01*
X827708Y692535D01*
Y692605D01*
Y692640D01*
Y692848D01*
X827778Y693056D01*
X827917Y693369D01*
X828056Y693577D01*
X828090Y693612D01*
X828125Y693647D01*
X828403Y693924D01*
X828611Y694202D01*
X828820Y694515D01*
X828993Y694758D01*
X829097Y695001D01*
X829201Y695174D01*
X829236Y695313D01*
X829271Y695348D01*
X829479Y696077D01*
X829549Y696390D01*
X829583Y696702D01*
Y696945D01*
X829618Y697153D01*
Y697292D01*
Y697327D01*
X829583Y697917D01*
X829549Y698195D01*
X829479Y698438D01*
X829445Y698612D01*
X829410Y698785D01*
X829375Y698890D01*
Y698924D01*
X829167Y699480D01*
X829028Y699723D01*
X828924Y699931D01*
X828820Y700105D01*
X828715Y700244D01*
X828681Y700348D01*
X828646Y700383D01*
X828264Y700834D01*
X827917Y701216D01*
X827743Y701355D01*
X827639Y701459D01*
X827570Y701528D01*
X827535Y701563D01*
X827014Y701876D01*
X826528Y702084D01*
X826354Y702153D01*
X826181Y702223D01*
X826077Y702258D01*
X826042D01*
Y690799D01*
X826007Y690556D01*
X825972Y690383D01*
X825799Y690036D01*
X825729Y689897D01*
X825660Y689792D01*
X825625Y689758D01*
X825590Y689723D01*
X825417Y689584D01*
X825243Y689445D01*
X824896Y689341D01*
X824722Y689306D01*
X824618Y689272D01*
X824514D01*
X823889Y689306D01*
X823334Y689376D01*
X822778Y689480D01*
X822327Y689584D01*
X821945Y689723D01*
X821632Y689827D01*
X821459Y689897D01*
X821389Y689931D01*
X820868Y690174D01*
X820382Y690452D01*
X819931Y690765D01*
X819584Y691042D01*
X819271Y691285D01*
X819028Y691494D01*
X818889Y691633D01*
X818854Y691667D01*
X818472Y692084D01*
X818125Y692501D01*
X817847Y692952D01*
X817604Y693334D01*
X817396Y693681D01*
X817257Y693959D01*
X817188Y694133D01*
X817153Y694202D01*
X816945Y694758D01*
X816771Y695313D01*
X816667Y695834D01*
X816563Y696285D01*
X816528Y696702D01*
X816493Y697015D01*
Y697223D01*
Y697258D01*
Y697292D01*
X816528Y697917D01*
X816597Y698508D01*
X816702Y699063D01*
X816806Y699515D01*
X816910Y699931D01*
X817014Y700209D01*
X817084Y700417D01*
X817118Y700452D01*
Y700487D01*
X817361Y701008D01*
X817639Y701494D01*
X817917Y701945D01*
X818195Y702292D01*
X818438Y702605D01*
X818646Y702813D01*
X818785Y702987D01*
X818820Y703021D01*
X819236Y703403D01*
X819653Y703751D01*
X820104Y704028D01*
X820486Y704271D01*
X820834Y704480D01*
X821111Y704619D01*
X821285Y704688D01*
X821354Y704723D01*
X821910Y704931D01*
X822465Y705070D01*
X822986Y705209D01*
X823438Y705278D01*
X823854Y705313D01*
X824167Y705348D01*
X824445D01*
X825035Y705313D01*
D02*
G37*
G36*
X832500Y685140D02*
X812882D01*
X812674Y685209D01*
X812361Y685348D01*
X812153Y685487D01*
X812084Y685522D01*
Y685556D01*
X811945Y685695D01*
X811841Y685869D01*
X811702Y686251D01*
Y686390D01*
X811667Y686529D01*
Y686598D01*
Y686633D01*
Y686841D01*
X811736Y687015D01*
X811875Y687362D01*
X811945Y687501D01*
X812014Y687605D01*
X812049Y687640D01*
X812084Y687674D01*
X812223Y687813D01*
X812396Y687917D01*
X812743Y688056D01*
X812882Y688091D01*
X813021Y688126D01*
X832500D01*
Y685140D01*
D02*
G37*
G36*
X825208Y683056D02*
X825764Y682987D01*
X826320Y682883D01*
X826771Y682779D01*
X827153Y682674D01*
X827465Y682570D01*
X827639Y682501D01*
X827708Y682466D01*
X828229Y682188D01*
X828715Y681911D01*
X829167Y681633D01*
X829549Y681355D01*
X829861Y681112D01*
X830070Y680904D01*
X830243Y680765D01*
X830278Y680730D01*
X830660Y680313D01*
X831007Y679862D01*
X831285Y679445D01*
X831528Y679029D01*
X831736Y678716D01*
X831875Y678438D01*
X831945Y678265D01*
X831979Y678195D01*
X832188Y677640D01*
X832326Y677084D01*
X832431Y676563D01*
X832500Y676077D01*
X832535Y675661D01*
X832570Y675348D01*
Y675140D01*
Y675105D01*
Y675070D01*
X832535Y674480D01*
X832465Y673890D01*
X832396Y673369D01*
X832257Y672918D01*
X832153Y672536D01*
X832083Y672223D01*
X832014Y672050D01*
X831979Y671980D01*
X831736Y671425D01*
X831458Y670939D01*
X831181Y670522D01*
X830903Y670140D01*
X830660Y669827D01*
X830451Y669584D01*
X830312Y669445D01*
X830278Y669411D01*
X829861Y669029D01*
X829410Y668682D01*
X828958Y668369D01*
X828576Y668126D01*
X828229Y667918D01*
X827952Y667779D01*
X827778Y667709D01*
X827708Y667675D01*
X827153Y667466D01*
X826597Y667327D01*
X826077Y667189D01*
X825590Y667119D01*
X825174Y667084D01*
X824861Y667050D01*
X824583D01*
X823993Y667084D01*
X823403Y667154D01*
X822882Y667258D01*
X822431Y667362D01*
X822049Y667466D01*
X821736Y667570D01*
X821563Y667640D01*
X821493Y667675D01*
X820938Y667918D01*
X820452Y668195D01*
X820035Y668508D01*
X819653Y668786D01*
X819340Y669029D01*
X819097Y669237D01*
X818959Y669376D01*
X818924Y669411D01*
X818542Y669827D01*
X818195Y670279D01*
X817917Y670695D01*
X817674Y671112D01*
X817466Y671459D01*
X817327Y671737D01*
X817257Y671911D01*
X817222Y671945D01*
Y671980D01*
X817014Y672536D01*
X816841Y673091D01*
X816736Y673612D01*
X816632Y674063D01*
X816597Y674480D01*
X816563Y674793D01*
Y675001D01*
Y675036D01*
Y675070D01*
X816597Y675591D01*
X816632Y676112D01*
X816702Y676563D01*
X816806Y676980D01*
X816910Y677293D01*
X816979Y677570D01*
X817014Y677709D01*
X817049Y677779D01*
X817222Y678230D01*
X817431Y678647D01*
X817639Y679029D01*
X817847Y679341D01*
X818021Y679619D01*
X818160Y679827D01*
X818264Y679966D01*
X818299Y680001D01*
X813195D01*
X812986Y680036D01*
X812778Y680070D01*
X812466Y680244D01*
X812327Y680348D01*
X812223Y680418D01*
X812188Y680452D01*
X812153Y680487D01*
X812014Y680661D01*
X811875Y680834D01*
X811771Y681181D01*
X811736Y681320D01*
X811702Y681424D01*
Y681494D01*
Y681529D01*
X811736Y681772D01*
X811771Y681980D01*
X811910Y682327D01*
X812014Y682466D01*
X812084Y682570D01*
X812118Y682605D01*
X812153Y682640D01*
X812327Y682779D01*
X812500Y682883D01*
X812848Y683022D01*
X812986Y683056D01*
X813091Y683091D01*
X824583D01*
X825208Y683056D01*
D02*
G37*
G36*
X825139Y665001D02*
X825729Y664932D01*
X826250Y664827D01*
X826736Y664723D01*
X827118Y664619D01*
X827431Y664515D01*
X827604Y664446D01*
X827674Y664411D01*
X828195Y664133D01*
X828681Y663855D01*
X829132Y663577D01*
X829514Y663300D01*
X829826Y663057D01*
X830035Y662848D01*
X830208Y662710D01*
X830243Y662675D01*
X830625Y662258D01*
X830972Y661807D01*
X831250Y661355D01*
X831493Y660973D01*
X831701Y660626D01*
X831840Y660348D01*
X831910Y660175D01*
X831945Y660105D01*
X832153Y659550D01*
X832292Y658994D01*
X832396Y658473D01*
X832465Y657987D01*
X832500Y657571D01*
X832535Y657258D01*
Y657050D01*
Y657015D01*
Y656980D01*
X832500Y656355D01*
X832431Y655800D01*
X832361Y655244D01*
X832222Y654793D01*
X832118Y654411D01*
X832049Y654099D01*
X831979Y653925D01*
X831945Y653855D01*
X831701Y653335D01*
X831424Y652849D01*
X831146Y652397D01*
X830868Y652050D01*
X830625Y651737D01*
X830417Y651494D01*
X830278Y651356D01*
X830243Y651321D01*
X829826Y650939D01*
X829375Y650592D01*
X828924Y650279D01*
X828542Y650036D01*
X828195Y649828D01*
X827917Y649689D01*
X827743Y649619D01*
X827674Y649585D01*
X827118Y649376D01*
X826563Y649203D01*
X826042Y649099D01*
X825556Y648994D01*
X825139Y648960D01*
X824792Y648925D01*
X824514D01*
X823924Y648960D01*
X823334Y649029D01*
X822813Y649133D01*
X822361Y649237D01*
X821979Y649342D01*
X821667Y649446D01*
X821493Y649515D01*
X821424Y649550D01*
X820868Y649793D01*
X820382Y650071D01*
X819965Y650383D01*
X819584Y650661D01*
X819271Y650904D01*
X819028Y651112D01*
X818889Y651251D01*
X818854Y651286D01*
X818472Y651703D01*
X818125Y652154D01*
X817847Y652571D01*
X817604Y652987D01*
X817396Y653335D01*
X817257Y653612D01*
X817188Y653786D01*
X817153Y653821D01*
Y653855D01*
X816945Y654411D01*
X816771Y654967D01*
X816667Y655487D01*
X816563Y655974D01*
X816528Y656390D01*
X816493Y656703D01*
Y656911D01*
Y656946D01*
Y656980D01*
X816528Y657605D01*
X816597Y658161D01*
X816702Y658717D01*
X816806Y659168D01*
X816945Y659550D01*
X817049Y659862D01*
X817118Y660036D01*
X817153Y660105D01*
X817396Y660626D01*
X817674Y661112D01*
X817952Y661564D01*
X818229Y661946D01*
X818472Y662258D01*
X818681Y662466D01*
X818820Y662640D01*
X818854Y662675D01*
X819271Y663057D01*
X819688Y663404D01*
X820139Y663682D01*
X820521Y663960D01*
X820868Y664133D01*
X821146Y664307D01*
X821320Y664376D01*
X821389Y664411D01*
X821945Y664619D01*
X822500Y664758D01*
X823021Y664897D01*
X823507Y664966D01*
X823924Y665001D01*
X824236Y665036D01*
X824514D01*
X825139Y665001D01*
D02*
G37*
G36*
Y646911D02*
X825695Y646842D01*
X826250Y646738D01*
X826702Y646633D01*
X827118Y646529D01*
X827396Y646425D01*
X827604Y646356D01*
X827639Y646321D01*
X827674D01*
X828195Y646043D01*
X828681Y645765D01*
X829132Y645488D01*
X829514Y645210D01*
X829826Y644967D01*
X830035Y644758D01*
X830208Y644619D01*
X830243Y644585D01*
X830625Y644168D01*
X830972Y643717D01*
X831250Y643265D01*
X831493Y642883D01*
X831701Y642536D01*
X831840Y642258D01*
X831910Y642085D01*
X831945Y642015D01*
X832153Y641460D01*
X832292Y640904D01*
X832396Y640383D01*
X832465Y639897D01*
X832500Y639481D01*
X832535Y639168D01*
Y638960D01*
Y638925D01*
Y638890D01*
X832500Y638369D01*
X832465Y637849D01*
X832396Y637397D01*
X832326Y637015D01*
X832257Y636668D01*
X832188Y636390D01*
X832118Y636251D01*
Y636182D01*
X831945Y635731D01*
X831736Y635279D01*
X831528Y634897D01*
X831320Y634585D01*
X831111Y634307D01*
X830972Y634099D01*
X830868Y633960D01*
X830833Y633925D01*
X832535D01*
Y630835D01*
X824514D01*
X823889Y630870D01*
X823334Y630939D01*
X822778Y631043D01*
X822327Y631147D01*
X821945Y631251D01*
X821632Y631356D01*
X821459Y631425D01*
X821389Y631460D01*
X820868Y631703D01*
X820382Y631981D01*
X819931Y632293D01*
X819584Y632571D01*
X819271Y632814D01*
X819028Y633022D01*
X818889Y633161D01*
X818854Y633196D01*
X818472Y633613D01*
X818125Y634064D01*
X817813Y634481D01*
X817570Y634897D01*
X817361Y635245D01*
X817222Y635522D01*
X817153Y635696D01*
X817118Y635731D01*
Y635765D01*
X816910Y636321D01*
X816771Y636876D01*
X816632Y637397D01*
X816563Y637883D01*
X816528Y638300D01*
X816493Y638613D01*
Y638821D01*
Y638856D01*
Y638890D01*
X816528Y639515D01*
X816597Y640071D01*
X816702Y640626D01*
X816806Y641078D01*
X816910Y641460D01*
X817014Y641772D01*
X817084Y641946D01*
X817118Y642015D01*
X817361Y642536D01*
X817639Y643022D01*
X817952Y643474D01*
X818229Y643856D01*
X818472Y644168D01*
X818681Y644376D01*
X818820Y644550D01*
X818854Y644585D01*
X819271Y644967D01*
X819688Y645314D01*
X820139Y645592D01*
X820521Y645869D01*
X820868Y646043D01*
X821146Y646217D01*
X821320Y646286D01*
X821389Y646321D01*
X821945Y646529D01*
X822500Y646668D01*
X823021Y646807D01*
X823507Y646876D01*
X823924Y646911D01*
X824236Y646946D01*
X824514D01*
X825139Y646911D01*
D02*
G37*
G36*
X832535Y625731D02*
X824306D01*
X823924Y625696D01*
X823577Y625661D01*
X823264Y625592D01*
X822986Y625522D01*
X822743Y625453D01*
X822570Y625418D01*
X822465Y625349D01*
X822431D01*
X821840Y625002D01*
X821563Y624828D01*
X821354Y624620D01*
X821181Y624481D01*
X821042Y624342D01*
X820972Y624272D01*
X820938Y624238D01*
X820521Y623682D01*
X820209Y623161D01*
X820104Y622953D01*
X820035Y622779D01*
X819965Y622675D01*
Y622640D01*
X819827Y622293D01*
X819757Y621946D01*
X819688Y621634D01*
X819618Y621356D01*
Y621113D01*
X819584Y620904D01*
Y620766D01*
Y620731D01*
X819549Y620488D01*
X819514Y620314D01*
X819340Y619967D01*
X819271Y619828D01*
X819202Y619724D01*
X819167Y619689D01*
X819132Y619655D01*
X818959Y619516D01*
X818750Y619377D01*
X818403Y619272D01*
X818264Y619238D01*
X818125Y619203D01*
X818021D01*
X817778Y619238D01*
X817604Y619272D01*
X817257Y619411D01*
X817118Y619516D01*
X817014Y619585D01*
X816979Y619620D01*
X816945Y619655D01*
X816806Y619828D01*
X816667Y620002D01*
X816563Y620349D01*
X816528Y620522D01*
X816493Y620627D01*
Y620696D01*
Y620731D01*
X816528Y621356D01*
X816563Y621911D01*
X816632Y622467D01*
X816736Y622918D01*
X816841Y623335D01*
X816910Y623613D01*
X816945Y623821D01*
X816979Y623856D01*
Y623890D01*
X817188Y624411D01*
X817396Y624897D01*
X817639Y625349D01*
X817882Y625731D01*
X818091Y626043D01*
X818264Y626252D01*
X818403Y626425D01*
X818438Y626460D01*
X818820Y626842D01*
X819202Y627189D01*
X819584Y627502D01*
X819965Y627745D01*
X820313Y627953D01*
X820556Y628092D01*
X820729Y628196D01*
X820799Y628231D01*
X821320Y628439D01*
X821875Y628578D01*
X822431Y628717D01*
X822917Y628786D01*
X823334Y628821D01*
X823681Y628856D01*
X832535D01*
Y625731D01*
D02*
G37*
G36*
X825208Y617780D02*
X825764Y617710D01*
X826320Y617606D01*
X826771Y617502D01*
X827153Y617397D01*
X827465Y617293D01*
X827639Y617224D01*
X827708Y617189D01*
X828229Y616911D01*
X828715Y616634D01*
X829167Y616356D01*
X829549Y616078D01*
X829861Y615835D01*
X830070Y615627D01*
X830243Y615488D01*
X830278Y615453D01*
X830660Y615037D01*
X831007Y614585D01*
X831285Y614134D01*
X831528Y613752D01*
X831736Y613405D01*
X831875Y613127D01*
X831945Y612953D01*
X831979Y612884D01*
X832188Y612328D01*
X832326Y611773D01*
X832431Y611252D01*
X832500Y610766D01*
X832535Y610349D01*
X832570Y610037D01*
Y609828D01*
Y609794D01*
Y609759D01*
X832535Y609134D01*
X832465Y608578D01*
X832396Y608057D01*
X832257Y607571D01*
X832153Y607189D01*
X832083Y606912D01*
X832014Y606738D01*
X831979Y606669D01*
X831736Y606148D01*
X831458Y605662D01*
X831181Y605210D01*
X830903Y604863D01*
X830660Y604551D01*
X830451Y604307D01*
X830312Y604169D01*
X830278Y604134D01*
X829861Y603752D01*
X829410Y603405D01*
X828958Y603092D01*
X828576Y602849D01*
X828229Y602641D01*
X827952Y602502D01*
X827778Y602433D01*
X827708Y602398D01*
X827153Y602189D01*
X826597Y602051D01*
X826077Y601912D01*
X825590Y601842D01*
X825174Y601808D01*
X824861Y601773D01*
X813195D01*
X812986Y601808D01*
X812778Y601842D01*
X812466Y601981D01*
X812327Y602085D01*
X812223Y602155D01*
X812188Y602189D01*
X812153Y602224D01*
X812014Y602398D01*
X811875Y602571D01*
X811771Y602919D01*
X811736Y603057D01*
X811702Y603196D01*
Y603266D01*
Y603301D01*
X811736Y603509D01*
X811771Y603717D01*
X811910Y604064D01*
X812014Y604203D01*
X812084Y604307D01*
X812118Y604342D01*
X812153Y604377D01*
X812327Y604516D01*
X812500Y604620D01*
X812848Y604759D01*
X812986Y604794D01*
X813091Y604828D01*
X818299D01*
X818021Y605210D01*
X817778Y605592D01*
X817535Y605974D01*
X817361Y606321D01*
X817222Y606634D01*
X817118Y606877D01*
X817084Y607016D01*
X817049Y607085D01*
X816875Y607571D01*
X816771Y608023D01*
X816667Y608474D01*
X816632Y608891D01*
X816597Y609238D01*
X816563Y609516D01*
Y609689D01*
Y609759D01*
X816597Y610384D01*
X816667Y610939D01*
X816771Y611495D01*
X816875Y611946D01*
X817014Y612328D01*
X817118Y612641D01*
X817188Y612814D01*
X817222Y612884D01*
X817466Y613405D01*
X817743Y613891D01*
X818021Y614342D01*
X818299Y614724D01*
X818542Y615037D01*
X818750Y615245D01*
X818889Y615418D01*
X818924Y615453D01*
X819340Y615835D01*
X819792Y616182D01*
X820209Y616460D01*
X820625Y616738D01*
X820972Y616911D01*
X821250Y617085D01*
X821424Y617155D01*
X821459Y617189D01*
X821493D01*
X822049Y617397D01*
X822604Y617536D01*
X823125Y617675D01*
X823577Y617745D01*
X823993Y617780D01*
X824306Y617814D01*
X824583D01*
X825208Y617780D01*
D02*
G37*
G36*
X820920Y552461D02*
X820935Y552422D01*
X820926Y552382D01*
X820911Y552368D01*
X820911D01*
X820673Y552146D01*
X820463Y551946D01*
Y551946D01*
X820255Y551744D01*
X820254Y551744D01*
X820254Y551744D01*
X820254Y551744D01*
X820254Y551744D01*
X820254Y551743D01*
X820254Y551743D01*
X820254D01*
X820047Y551540D01*
X820047Y551540D01*
X820047Y551540D01*
X820047Y551540D01*
X820047Y551540D01*
X820047Y551540D01*
X820047D01*
X819840Y551332D01*
X819840Y551332D01*
Y551332D01*
X819610Y551097D01*
X819610Y551097D01*
X819610Y551097D01*
X819610Y551097D01*
X819610Y551097D01*
X819610Y551097D01*
X819610D01*
X819380Y550858D01*
X819380Y550858D01*
X819152Y550616D01*
X819152Y550617D01*
X818925Y550372D01*
X818925Y550372D01*
X818925Y550372D01*
X818701Y550125D01*
X818701Y550125D01*
X818701D01*
X818477Y549874D01*
X818477Y549874D01*
X818477D01*
X818256Y549621D01*
X818256Y549621D01*
X818256D01*
X818035Y549364D01*
X818036Y549365D01*
X817817Y549105D01*
X817817Y549105D01*
X817817D01*
X817600Y548844D01*
X817600Y548844D01*
X817600D01*
X817384Y548579D01*
X817385Y548579D01*
X817171Y548311D01*
X817170Y548311D01*
X817170D01*
X816959Y548041D01*
X816959Y548041D01*
X816958Y548041D01*
X816958Y548040D01*
X816958Y548040D01*
X816958Y548040D01*
X816958Y548040D01*
X816749Y547768D01*
X816748Y547767D01*
X816748D01*
X816748Y547767D01*
X816748Y547767D01*
X816748Y547767D01*
X816540Y547492D01*
X816539Y547491D01*
X816540Y547492D01*
X816332Y547213D01*
X816332Y547212D01*
X816128Y546932D01*
X816127Y546932D01*
X816127D01*
X815923Y546647D01*
X815924Y546648D01*
X815721Y546361D01*
X815722Y546361D01*
X815521Y546071D01*
X815521Y546072D01*
X815323Y545779D01*
X815323Y545779D01*
X815104Y545451D01*
X815104Y545452D01*
X814888Y545121D01*
X814674Y544787D01*
X814674Y544787D01*
X814462Y544449D01*
X814462Y544449D01*
X814462D01*
X814253Y544110D01*
X814252Y544109D01*
X814252Y544110D01*
X814045Y543766D01*
X813840Y543419D01*
X813840Y543420D01*
X813637Y543070D01*
X813637Y543070D01*
X813437Y542717D01*
X813437Y542718D01*
X813238Y542361D01*
X813238Y542361D01*
X813024Y541968D01*
X813023Y541967D01*
X813023Y541967D01*
X812811Y541570D01*
X812811Y541569D01*
X812811Y541569D01*
X812811Y541569D01*
X812811Y541569D01*
X812601Y541167D01*
X812601Y541168D01*
X812395Y540762D01*
X812191Y540353D01*
X812191Y540353D01*
Y540353D01*
X811991Y539942D01*
X811991Y539942D01*
Y539942D01*
X811990Y539941D01*
X811775Y539488D01*
X811775Y539488D01*
X811775Y539488D01*
X811775Y539487D01*
X811775Y539487D01*
X811775Y539487D01*
X811775Y539487D01*
X811775Y539487D01*
X811563Y539031D01*
X811563Y539031D01*
X811563D01*
X811355Y538569D01*
X811355Y538569D01*
X811150Y538104D01*
X810949Y537635D01*
X810949Y537634D01*
X810735Y537123D01*
X810735Y537122D01*
X810735Y537122D01*
X810735Y537122D01*
X810735Y537122D01*
X810735Y537122D01*
X810735Y537121D01*
X810526Y536606D01*
X810526Y536605D01*
X810526Y536606D01*
X810321Y536084D01*
X810106Y535518D01*
X809895Y534946D01*
X809896Y534947D01*
X809690Y534370D01*
X809690Y534370D01*
X809690Y534370D01*
Y534370D01*
Y534370D01*
X809477Y533749D01*
X809477Y533749D01*
Y533749D01*
X809269Y533120D01*
X809269Y533120D01*
X809269Y533120D01*
X809269Y533120D01*
X809269Y533120D01*
Y533120D01*
X809068Y532488D01*
X809068Y532488D01*
X809068D01*
X808859Y531806D01*
X808860Y531806D01*
X808659Y531119D01*
X808454Y530382D01*
X808246Y529597D01*
X808047Y528803D01*
X808047Y528804D01*
X807847Y527958D01*
X807847Y527959D01*
X807649Y527061D01*
X807649Y527062D01*
X807454Y526111D01*
X807263Y525105D01*
X807263Y525105D01*
Y525105D01*
X807081Y524046D01*
X807081Y524045D01*
X807081D01*
X806907Y522927D01*
X806907Y522926D01*
X806885Y522774D01*
X806842Y522470D01*
X806800Y522166D01*
X806760Y521861D01*
X806741Y521709D01*
X806741Y521709D01*
X806740Y521708D01*
X806740Y521707D01*
X806740Y521707D01*
X806740Y521706D01*
X806740Y521706D01*
X806720Y521547D01*
X806681Y521227D01*
X806643Y520906D01*
X806607Y520586D01*
X806590Y520426D01*
Y520426D01*
X806590Y520425D01*
X806590Y520425D01*
X806590Y520424D01*
X806590Y520424D01*
X806590Y520423D01*
X806590D01*
X806571Y520251D01*
X806536Y519905D01*
X806502Y519559D01*
X806470Y519213D01*
X806455Y519040D01*
X806455Y519039D01*
X806455Y519039D01*
X806455Y519038D01*
X806455Y519038D01*
X806455Y519037D01*
X806455D01*
X806439Y518844D01*
X806407Y518457D01*
X806378Y518070D01*
X806351Y517683D01*
X806338Y517490D01*
Y517490D01*
X806338Y517490D01*
X806338Y517489D01*
X806338Y517488D01*
X806338Y517488D01*
X806338Y517487D01*
X806325Y517274D01*
X806300Y516847D01*
X806278Y516421D01*
X806259Y515994D01*
X806250Y515780D01*
Y515780D01*
X806242Y515546D01*
X806227Y515078D01*
X806215Y514609D01*
X806206Y514140D01*
X806203Y513906D01*
Y513906D01*
X806198Y513060D01*
X806200Y512498D01*
X806218Y511376D01*
X806255Y510253D01*
X806311Y509131D01*
X806345Y508571D01*
X806375Y508144D01*
X806442Y507289D01*
X806520Y506436D01*
X806609Y505584D01*
X806657Y505158D01*
X806657Y505157D01*
X806697Y504823D01*
X806782Y504158D01*
X806873Y503493D01*
X806971Y502830D01*
X807023Y502499D01*
Y502498D01*
X807023Y502498D01*
X807023Y502497D01*
X807023Y502497D01*
X807023Y502497D01*
X807056Y502289D01*
X807124Y501875D01*
X807195Y501461D01*
X807269Y501048D01*
X807306Y500841D01*
X807309Y500826D01*
X807302Y500797D01*
X807283Y500773D01*
X807256Y500760D01*
X806512D01*
X806491Y500767D01*
X806474Y500779D01*
X806461Y500797D01*
X806458Y500807D01*
X806241Y501520D01*
X806241Y501520D01*
X806241Y501521D01*
X806240Y501521D01*
X806240Y501521D01*
X806240Y501522D01*
X806026Y502257D01*
X806026Y502257D01*
X806026Y502257D01*
X806026Y502258D01*
X806026Y502258D01*
X806026Y502258D01*
X805815Y503020D01*
X805815Y503021D01*
X805603Y503826D01*
X805603Y503827D01*
X805396Y504658D01*
X805396Y504659D01*
X805192Y505534D01*
X805192Y505535D01*
D01*
X805191Y505536D01*
X805192Y505535D01*
X805192Y505535D01*
X805192Y505534D01*
Y505534D01*
X805192Y505535D01*
X805191Y505536D01*
X804987Y506474D01*
X804987Y506475D01*
X804987Y506475D01*
X804987Y506475D01*
X804987Y506474D01*
X804987Y506475D01*
X804987Y506475D01*
X804987Y506475D01*
X804987Y506475D01*
X804987Y506476D01*
X804987Y506475D01*
Y506476D01*
X804987Y506476D01*
X804987Y506476D01*
X804788Y507463D01*
X804788Y507464D01*
X804593Y508517D01*
X804593Y508517D01*
X804593Y508518D01*
X804593Y508518D01*
X804593Y508518D01*
Y508518D01*
X804568Y508658D01*
X804520Y508939D01*
X804473Y509219D01*
X804427Y509500D01*
X804405Y509641D01*
X804381Y509792D01*
X804335Y510095D01*
X804290Y510398D01*
X804246Y510701D01*
X804225Y510853D01*
X804202Y511015D01*
X804159Y511341D01*
X804117Y511667D01*
X804076Y511992D01*
X804057Y512156D01*
X804036Y512332D01*
X803996Y512686D01*
X803957Y513040D01*
X803921Y513394D01*
X803904Y513571D01*
X803904D01*
X803885Y513765D01*
X803849Y514153D01*
X803816Y514540D01*
X803784Y514929D01*
X803770Y515123D01*
X803770D01*
X803754Y515336D01*
X803725Y515764D01*
X803698Y516191D01*
X803675Y516619D01*
X803664Y516833D01*
X803652Y517069D01*
X803632Y517542D01*
X803615Y518015D01*
X803602Y518489D01*
X803596Y518725D01*
X803592Y518918D01*
X803586Y519302D01*
X803582Y519686D01*
X803580Y520070D01*
X803580Y520262D01*
X803580Y520514D01*
X803583Y521018D01*
X803590Y521522D01*
X803601Y522025D01*
X803609Y522277D01*
X803615Y522499D01*
X803631Y522942D01*
X803649Y523386D01*
X803670Y523829D01*
X803682Y524050D01*
X803693Y524247D01*
X803717Y524640D01*
X803743Y525033D01*
X803771Y525426D01*
X803786Y525622D01*
X803786Y525622D01*
X803800Y525804D01*
X803830Y526166D01*
X803862Y526528D01*
X803896Y526890D01*
X803914Y527071D01*
X803930Y527237D01*
X803965Y527569D01*
X804001Y527901D01*
X804039Y528232D01*
X804059Y528398D01*
X804059D01*
X804059Y528398D01*
X804059Y528398D01*
X804059Y528399D01*
X804059Y528399D01*
X804059Y528400D01*
X804059Y528400D01*
X804078Y528555D01*
X804116Y528866D01*
X804156Y529176D01*
X804197Y529487D01*
X804219Y529642D01*
Y529642D01*
X804239Y529787D01*
X804280Y530078D01*
X804323Y530368D01*
X804367Y530658D01*
X804390Y530803D01*
X804390Y530803D01*
X804390Y530803D01*
X804390Y530803D01*
Y530804D01*
X804390Y530804D01*
Y530804D01*
X804569Y531884D01*
X804569Y531884D01*
X804569Y531884D01*
X804569Y531884D01*
X804569Y531885D01*
D01*
X804569Y531884D01*
X804569Y531884D01*
X804569Y531884D01*
D01*
X804569Y531885D01*
X804569D01*
X804569Y531885D01*
X804569Y531885D01*
X804569Y531886D01*
X804569Y531886D01*
X804751Y532885D01*
X804751Y532886D01*
X804751Y532886D01*
X804751Y532886D01*
X804751Y532886D01*
X804751Y532887D01*
X804751Y532887D01*
X804751Y532887D01*
X804751D01*
X804941Y533845D01*
X804941Y533845D01*
X804941Y533845D01*
X804941Y533845D01*
X804941Y533845D01*
X804941Y533846D01*
Y533846D01*
X805129Y534727D01*
X805129Y534728D01*
Y534728D01*
X805321Y535569D01*
X805321Y535569D01*
X805321Y535570D01*
X805322Y535570D01*
X805322Y535571D01*
X805322Y535571D01*
X805322Y535571D01*
X805515Y536368D01*
X805516Y536371D01*
X805719Y537164D01*
X805719Y537164D01*
D01*
X805719Y537164D01*
X805719Y537164D01*
D01*
X805719Y537164D01*
X805719D01*
X805719Y537164D01*
X805719D01*
X805719Y537165D01*
X805719Y537165D01*
X805923Y537918D01*
X805923Y537918D01*
X805923Y537919D01*
X805923Y537919D01*
Y537919D01*
X805924Y537919D01*
X805923Y537919D01*
X805923Y537919D01*
X805923Y537918D01*
D01*
Y537918D01*
Y537918D01*
D01*
X805923Y537918D01*
X805923D01*
X805923Y537918D01*
X805923Y537918D01*
X805923Y537918D01*
X805923D01*
X805923Y537918D01*
X805923Y537919D01*
X805923Y537919D01*
X805924Y537920D01*
X806126Y538633D01*
X806127Y538633D01*
X806127Y538634D01*
X806127Y538634D01*
X806127Y538634D01*
X806127Y538635D01*
X806328Y539310D01*
X806328Y539310D01*
X806328Y539310D01*
X806328Y539311D01*
X806328Y539311D01*
X806328Y539311D01*
X806328Y539311D01*
X806328Y539311D01*
X806328Y539310D01*
X806328Y539310D01*
X806328Y539311D01*
Y539311D01*
X806328Y539311D01*
X806328Y539311D01*
X806328Y539311D01*
Y539311D01*
X806536Y539982D01*
X806536Y539982D01*
Y539982D01*
X806741Y540616D01*
X806741Y540616D01*
X806741Y540616D01*
X806741Y540617D01*
X806742Y540617D01*
X806742Y540617D01*
X806941Y541212D01*
X806941Y541212D01*
X806941Y541213D01*
X806942Y541213D01*
X806942Y541214D01*
X806942Y541214D01*
Y541214D01*
X807148Y541805D01*
X807148Y541806D01*
X807148Y541806D01*
X807148Y541807D01*
X807148Y541807D01*
X807148Y541807D01*
X807347Y542361D01*
X807348Y542362D01*
X807348Y542362D01*
X807348Y542363D01*
X807348Y542362D01*
D01*
X807348Y542363D01*
X807348Y542363D01*
X807348Y542363D01*
X807348Y542363D01*
X807553Y542914D01*
X807553Y542914D01*
X807553Y542915D01*
X807553Y542915D01*
X807553Y542915D01*
X807553Y542915D01*
Y542915D01*
X807763Y543461D01*
X807763Y543462D01*
X807763Y543462D01*
X807763Y543462D01*
X807763Y543462D01*
Y543462D01*
Y543462D01*
X807763Y543462D01*
X807763Y543462D01*
X807764D01*
X807763Y543462D01*
X807764Y543463D01*
X807966Y543974D01*
X807966Y543975D01*
X807966Y543974D01*
X807966Y543974D01*
X807966Y543975D01*
X807966Y543975D01*
X807966Y543975D01*
X807967Y543975D01*
X807967Y543975D01*
Y543975D01*
X808173Y544482D01*
X808173Y544482D01*
X808173Y544483D01*
X808173Y544483D01*
X808173Y544483D01*
X808173Y544483D01*
X808173Y544483D01*
X808173Y544483D01*
X808173Y544483D01*
X808173Y544483D01*
X808173Y544483D01*
X808173Y544483D01*
X808173Y544483D01*
X808173Y544483D01*
X808173Y544483D01*
Y544483D01*
X808173Y544483D01*
X808174Y544483D01*
Y544483D01*
X808385Y544987D01*
X808385Y544988D01*
Y544988D01*
X808587Y545458D01*
X808587Y545458D01*
X808588Y545458D01*
X808588Y545459D01*
X808588Y545459D01*
X808588Y545459D01*
X808588Y545459D01*
X808793Y545923D01*
X808794Y545924D01*
X808794Y545925D01*
X808793Y545923D01*
X808794Y545925D01*
X809004Y546387D01*
X809004Y546387D01*
X809004Y546388D01*
X809005Y546388D01*
X809005Y546388D01*
X809005Y546388D01*
X809204Y546817D01*
Y546817D01*
X809205Y546818D01*
X809204Y546818D01*
X809204Y546817D01*
X809205Y546818D01*
X809408Y547244D01*
X809408Y547244D01*
X809408Y547245D01*
X809408Y547245D01*
X809408Y547245D01*
X809409Y547245D01*
Y547245D01*
X809614Y547667D01*
X809614Y547667D01*
X809614Y547667D01*
X809615Y547667D01*
X809615Y547667D01*
X809614Y547667D01*
X809614Y547667D01*
X809615Y547669D01*
X809824Y548086D01*
X809824Y548087D01*
X809824Y548087D01*
X809824Y548087D01*
X809825Y548088D01*
X809825Y548088D01*
X809825Y548088D01*
X809825Y548088D01*
X810023Y548475D01*
X810023Y548475D01*
X810023Y548475D01*
X810023Y548475D01*
X810023Y548476D01*
X810023Y548476D01*
Y548476D01*
X810224Y548860D01*
X810225Y548861D01*
Y548861D01*
X810428Y549242D01*
X810428Y549242D01*
X810428Y549243D01*
X810429Y549243D01*
X810429Y549243D01*
X810429Y549244D01*
X810429Y549244D01*
X810634Y549620D01*
X810635Y549621D01*
X810635Y549621D01*
X810634Y549620D01*
X810635Y549621D01*
X810844Y549996D01*
X810844Y549996D01*
Y549996D01*
X811056Y550368D01*
X811056Y550368D01*
X811056Y550369D01*
X811056Y550369D01*
X811056Y550369D01*
X811057Y550369D01*
X811057D01*
X811254Y550709D01*
X811255Y550711D01*
X811456Y551050D01*
X811456Y551050D01*
X811456Y551050D01*
X811456Y551051D01*
X811456Y551051D01*
X811457Y551051D01*
X811457D01*
X811658Y551385D01*
X811659Y551386D01*
X811659Y551386D01*
X811659Y551386D01*
X811659Y551386D01*
X811659Y551386D01*
X811659Y551387D01*
X811659Y551387D01*
X811659Y551387D01*
X811660Y551387D01*
X811660Y551387D01*
X811659Y551387D01*
X811659Y551387D01*
X811659Y551387D01*
X811659Y551386D01*
X811659Y551386D01*
X811659Y551387D01*
X811660Y551387D01*
X811660Y551387D01*
X811660Y551387D01*
X811660Y551387D01*
X811660Y551387D01*
Y551387D01*
X811864Y551719D01*
X811865Y551720D01*
Y551721D01*
X812072Y552051D01*
X812072Y552051D01*
Y552051D01*
X812282Y552378D01*
X812282Y552378D01*
Y552378D01*
X812331Y552453D01*
X812335Y552461D01*
X812348Y552472D01*
X812362Y552480D01*
X812379Y552484D01*
X820886D01*
X820920Y552461D01*
D02*
G37*
G36*
X809825Y548088D02*
X809825Y548087D01*
X809825Y548087D01*
X809824Y548087D01*
X809825Y548087D01*
X809825Y548088D01*
X809825Y548088D01*
D02*
G37*
G36*
X809615Y547668D02*
X809615Y547668D01*
X809615Y547668D01*
X809615Y547668D01*
X809615Y547667D01*
X809615Y547668D01*
X809615Y547668D01*
X809615Y547669D01*
X809615Y547669D01*
X809615D01*
X809615Y547668D01*
D02*
G37*
G36*
X807764Y543462D02*
D01*
X807764Y543463D01*
X807764Y543462D01*
D02*
G37*
G36*
X807553Y542914D02*
X807553Y542914D01*
X807553Y542914D01*
X807553Y542914D01*
X807553Y542914D01*
D01*
X807553Y542914D01*
X807553Y542914D01*
X807553Y542914D01*
X807553Y542914D01*
X807553Y542914D01*
X807553Y542914D01*
X807553Y542914D01*
D02*
G37*
G36*
X807553Y542914D02*
X807553Y542914D01*
X807553Y542914D01*
X807553Y542914D01*
D02*
G37*
G36*
X806127Y538633D02*
D01*
X806126Y538633D01*
X806126Y538633D01*
X806126D01*
X806126Y538633D01*
X806126Y538633D01*
X806126Y538633D01*
D01*
X806127Y538634D01*
X806127Y538634D01*
X806127Y538634D01*
X806127Y538633D01*
D02*
G37*
G36*
X805719Y537164D02*
X805719Y537164D01*
D01*
X805719Y537164D01*
D02*
G37*
G36*
X827310Y546485D02*
X827753Y546439D01*
X828180Y546363D01*
X828561Y546256D01*
X828928Y546149D01*
X829279Y546012D01*
X829584Y545874D01*
X829859Y545737D01*
X830119Y545599D01*
X830332Y545462D01*
X830516Y545325D01*
X830683Y545218D01*
X830806Y545111D01*
X830882Y545034D01*
X830943Y544989D01*
X830958Y544973D01*
X831233Y544683D01*
X831462Y544363D01*
X831676Y544042D01*
X831844Y543707D01*
X831996Y543371D01*
X832118Y543050D01*
X832225Y542729D01*
X832302Y542409D01*
X832378Y542119D01*
X832424Y541859D01*
X832454Y541615D01*
X832469Y541417D01*
X832485Y541233D01*
X832500Y541111D01*
Y541035D01*
Y541004D01*
Y537509D01*
X832485Y537234D01*
X832439Y537005D01*
X832378Y536791D01*
X832302Y536623D01*
X832225Y536486D01*
X832164Y536394D01*
X832118Y536333D01*
X832103Y536318D01*
X831935Y536181D01*
X831752Y536074D01*
X831554Y535997D01*
X831370Y535936D01*
X831202Y535906D01*
X831065Y535891D01*
X816700D01*
X816639Y535921D01*
X816593Y535982D01*
X816563Y536043D01*
Y536059D01*
Y536074D01*
Y538409D01*
X816578Y538470D01*
X816593Y538516D01*
X816655Y538577D01*
X816731Y538608D01*
X822318D01*
X822181Y538715D01*
X822074Y538806D01*
X821967Y538913D01*
X821891Y539005D01*
X821875Y539035D01*
X821860Y539050D01*
X821723Y539249D01*
X821600Y539432D01*
X821540Y539509D01*
X821509Y539570D01*
X821494Y539615D01*
X821478Y539631D01*
X821402Y539753D01*
X821341Y539905D01*
X821234Y540180D01*
X821204Y540302D01*
X821173Y540394D01*
X821143Y540455D01*
Y540485D01*
X821066Y540898D01*
X821036Y541096D01*
X821020Y541279D01*
X821005Y541432D01*
Y541554D01*
Y541630D01*
Y541661D01*
X821020Y542043D01*
X821081Y542409D01*
X821158Y542760D01*
X821265Y543096D01*
X821387Y543401D01*
X821524Y543691D01*
X821662Y543951D01*
X821814Y544195D01*
X821967Y544409D01*
X822120Y544592D01*
X822257Y544760D01*
X822379Y544897D01*
X822486Y545004D01*
X822562Y545080D01*
X822623Y545126D01*
X822639Y545141D01*
X822959Y545386D01*
X823280Y545584D01*
X823631Y545767D01*
X823982Y545920D01*
X824333Y546057D01*
X824684Y546164D01*
X825020Y546256D01*
X825340Y546332D01*
X825646Y546393D01*
X825936Y546424D01*
X826195Y546454D01*
X826409Y546485D01*
X826592D01*
X826714Y546500D01*
X826836D01*
X827310Y546485D01*
D02*
G37*
G36*
X827279Y533937D02*
X827753Y533891D01*
X828180Y533815D01*
X828592Y533708D01*
X828974Y533601D01*
X829325Y533463D01*
X829645Y533326D01*
X829935Y533189D01*
X830210Y533051D01*
X830424Y532914D01*
X830622Y532776D01*
X830790Y532670D01*
X830912Y532563D01*
X831004Y532486D01*
X831065Y532441D01*
X831080Y532425D01*
X831355Y532135D01*
X831599Y531815D01*
X831813Y531479D01*
X831996Y531158D01*
X832149Y530807D01*
X832286Y530471D01*
X832378Y530151D01*
X832469Y529830D01*
X832531Y529540D01*
X832576Y529265D01*
X832622Y529021D01*
X832637Y528807D01*
X832653Y528639D01*
X832668Y528502D01*
Y528426D01*
Y528395D01*
X832653Y527983D01*
X832622Y527602D01*
X832561Y527266D01*
X832500Y526960D01*
X832454Y526716D01*
X832424Y526609D01*
X832393Y526518D01*
X832378Y526457D01*
X832363Y526411D01*
X832347Y526380D01*
Y526365D01*
X832210Y526029D01*
X832073Y525739D01*
X831951Y525495D01*
X831813Y525281D01*
X831706Y525113D01*
X831615Y524991D01*
X831554Y524930D01*
X831538Y524899D01*
X831355Y524701D01*
X831172Y524518D01*
X830989Y524365D01*
X830836Y524228D01*
X830699Y524121D01*
X830592Y524029D01*
X830531Y523984D01*
X830500Y523968D01*
X830302Y523831D01*
X830119Y523724D01*
X829966Y523633D01*
X829813Y523571D01*
X829706Y523510D01*
X829630Y523480D01*
X829569Y523449D01*
X829554D01*
X829416Y523404D01*
X829294Y523358D01*
X829187Y523327D01*
X829096Y523312D01*
X829019Y523297D01*
X828928D01*
X828867Y523312D01*
X828806Y523327D01*
X828760Y523404D01*
X828729Y523480D01*
Y523495D01*
Y523510D01*
Y525815D01*
X828745Y525877D01*
X828760Y525922D01*
X828821Y525999D01*
X828897Y526044D01*
X828913Y526060D01*
X828928D01*
X829172Y526166D01*
X829401Y526289D01*
X829584Y526457D01*
X829752Y526624D01*
X829890Y526808D01*
X829996Y527006D01*
X830088Y527205D01*
X830164Y527403D01*
X830226Y527586D01*
X830271Y527769D01*
X830302Y527937D01*
X830332Y528090D01*
Y528212D01*
X830348Y528304D01*
Y528365D01*
Y528380D01*
X830332Y528594D01*
X830317Y528792D01*
X830226Y529174D01*
X830103Y529494D01*
X829966Y529769D01*
X829829Y529983D01*
X829768Y530075D01*
X829722Y530151D01*
X829661Y530212D01*
X829630Y530258D01*
X829615Y530273D01*
X829600Y530288D01*
X829294Y530548D01*
X828989Y530746D01*
X828668Y530899D01*
X828363Y531021D01*
X828088Y531097D01*
X827966Y531128D01*
X827875Y531158D01*
X827783Y531174D01*
X827722D01*
X827691Y531189D01*
X827676D01*
Y524548D01*
X827661Y524289D01*
X827615Y524075D01*
X827554Y523877D01*
X827462Y523709D01*
X827356Y523571D01*
X827249Y523449D01*
X827127Y523358D01*
X826989Y523281D01*
X826867Y523220D01*
X826745Y523175D01*
X826638Y523144D01*
X826531Y523113D01*
X826440D01*
X826379Y523098D01*
X826318D01*
X825905Y523113D01*
X825508Y523159D01*
X825127Y523220D01*
X824776Y523312D01*
X824440Y523419D01*
X824135Y523541D01*
X823845Y523663D01*
X823585Y523800D01*
X823341Y523938D01*
X823142Y524060D01*
X822959Y524182D01*
X822806Y524289D01*
X822684Y524365D01*
X822608Y524441D01*
X822547Y524487D01*
X822532Y524503D01*
X822257Y524777D01*
X822013Y525067D01*
X821814Y525388D01*
X821631Y525709D01*
X821478Y526044D01*
X821356Y526365D01*
X821249Y526685D01*
X821173Y526991D01*
X821112Y527296D01*
X821051Y527571D01*
X821020Y527815D01*
X821005Y528029D01*
X820990Y528197D01*
X820975Y528334D01*
Y528410D01*
Y528441D01*
X820990Y528884D01*
X821051Y529311D01*
X821127Y529708D01*
X821234Y530090D01*
X821356Y530441D01*
X821494Y530777D01*
X821631Y531082D01*
X821784Y531342D01*
X821936Y531586D01*
X822074Y531815D01*
X822211Y531998D01*
X822333Y532150D01*
X822440Y532273D01*
X822516Y532349D01*
X822578Y532410D01*
X822593Y532425D01*
X822898Y532700D01*
X823234Y532929D01*
X823570Y533128D01*
X823921Y533311D01*
X824272Y533448D01*
X824623Y533586D01*
X824959Y533677D01*
X825295Y533753D01*
X825600Y533830D01*
X825890Y533876D01*
X826134Y533906D01*
X826363Y533921D01*
X826546Y533937D01*
X826669Y533952D01*
X826791D01*
X827279Y533937D01*
D02*
G37*
G36*
X831355Y518366D02*
X831569Y518290D01*
X831737Y518198D01*
X831889Y518106D01*
X832011Y518015D01*
X832103Y517938D01*
X832179Y517877D01*
X832210Y517832D01*
X832225Y517816D01*
X832317Y517679D01*
X832378Y517511D01*
X832439Y517358D01*
X832469Y517191D01*
X832485Y517053D01*
X832500Y516946D01*
Y516870D01*
Y516839D01*
Y515588D01*
X832485Y515389D01*
X832454Y515206D01*
X832393Y515038D01*
X832317Y514885D01*
X832241Y514748D01*
X832134Y514626D01*
X831920Y514427D01*
X831721Y514275D01*
X831538Y514183D01*
X831462Y514153D01*
X831401Y514122D01*
X831370Y514107D01*
X831355D01*
X821356Y510825D01*
X821280Y510810D01*
X821234Y510825D01*
X821173Y510886D01*
X821143Y510962D01*
Y510977D01*
Y510993D01*
Y513466D01*
X821158Y513527D01*
X821173Y513573D01*
X821234Y513649D01*
X821311Y513695D01*
X821326Y513710D01*
X821341D01*
X829508Y516183D01*
X821341Y518717D01*
X821280Y518747D01*
X821219Y518778D01*
X821173Y518854D01*
X821143Y518931D01*
Y518946D01*
Y518961D01*
Y521511D01*
X821158Y521587D01*
X821173Y521633D01*
X821204Y521663D01*
X821249Y521679D01*
X821356D01*
X831355Y518366D01*
D02*
G37*
G36*
X804987Y506474D02*
Y506474D01*
X804987Y506474D01*
X804987Y506474D01*
D02*
G37*
G36*
X827279Y509375D02*
X827753Y509329D01*
X828180Y509252D01*
X828592Y509146D01*
X828974Y509039D01*
X829325Y508901D01*
X829645Y508764D01*
X829935Y508627D01*
X830210Y508489D01*
X830424Y508352D01*
X830622Y508214D01*
X830790Y508107D01*
X830912Y508001D01*
X831004Y507924D01*
X831065Y507879D01*
X831080Y507863D01*
X831355Y507573D01*
X831599Y507253D01*
X831813Y506917D01*
X831996Y506596D01*
X832149Y506245D01*
X832286Y505909D01*
X832378Y505589D01*
X832469Y505268D01*
X832531Y504978D01*
X832576Y504703D01*
X832622Y504459D01*
X832637Y504245D01*
X832653Y504077D01*
X832668Y503940D01*
Y503864D01*
Y503833D01*
X832653Y503421D01*
X832622Y503039D01*
X832561Y502704D01*
X832500Y502398D01*
X832454Y502154D01*
X832424Y502047D01*
X832393Y501956D01*
X832378Y501894D01*
X832363Y501849D01*
X832347Y501818D01*
Y501803D01*
X832210Y501467D01*
X832073Y501177D01*
X831951Y500933D01*
X831813Y500719D01*
X831706Y500551D01*
X831615Y500429D01*
X831554Y500368D01*
X831538Y500337D01*
X831355Y500139D01*
X831172Y499956D01*
X830989Y499803D01*
X830836Y499666D01*
X830699Y499559D01*
X830592Y499467D01*
X830531Y499422D01*
X830500Y499406D01*
X830302Y499269D01*
X830119Y499162D01*
X829966Y499070D01*
X829813Y499009D01*
X829706Y498948D01*
X829630Y498918D01*
X829569Y498887D01*
X829554D01*
X829416Y498841D01*
X829294Y498796D01*
X829187Y498765D01*
X829096Y498750D01*
X829019Y498735D01*
X828928D01*
X828867Y498750D01*
X828806Y498765D01*
X828760Y498841D01*
X828729Y498918D01*
Y498933D01*
Y498948D01*
Y501253D01*
X828745Y501314D01*
X828760Y501360D01*
X828821Y501437D01*
X828897Y501482D01*
X828913Y501498D01*
X828928D01*
X829172Y501604D01*
X829401Y501727D01*
X829584Y501894D01*
X829752Y502062D01*
X829890Y502246D01*
X829996Y502444D01*
X830088Y502643D01*
X830164Y502841D01*
X830226Y503024D01*
X830271Y503207D01*
X830302Y503375D01*
X830332Y503528D01*
Y503650D01*
X830348Y503742D01*
Y503803D01*
Y503818D01*
X830332Y504032D01*
X830317Y504230D01*
X830226Y504612D01*
X830103Y504932D01*
X829966Y505207D01*
X829829Y505421D01*
X829768Y505512D01*
X829722Y505589D01*
X829661Y505650D01*
X829630Y505696D01*
X829615Y505711D01*
X829600Y505726D01*
X829294Y505986D01*
X828989Y506184D01*
X828668Y506337D01*
X828363Y506459D01*
X828088Y506535D01*
X827966Y506566D01*
X827875Y506596D01*
X827783Y506612D01*
X827722D01*
X827691Y506627D01*
X827676D01*
Y499986D01*
X827661Y499727D01*
X827615Y499513D01*
X827554Y499315D01*
X827462Y499147D01*
X827356Y499009D01*
X827249Y498887D01*
X827127Y498796D01*
X826989Y498719D01*
X826867Y498658D01*
X826745Y498613D01*
X826638Y498582D01*
X826531Y498551D01*
X826440D01*
X826379Y498536D01*
X826318D01*
X825905Y498551D01*
X825508Y498597D01*
X825127Y498658D01*
X824776Y498750D01*
X824440Y498857D01*
X824135Y498979D01*
X823845Y499101D01*
X823585Y499238D01*
X823341Y499376D01*
X823142Y499498D01*
X822959Y499620D01*
X822806Y499727D01*
X822684Y499803D01*
X822608Y499879D01*
X822547Y499925D01*
X822532Y499941D01*
X822257Y500215D01*
X822013Y500505D01*
X821814Y500826D01*
X821631Y501147D01*
X821478Y501482D01*
X821356Y501803D01*
X821249Y502123D01*
X821173Y502429D01*
X821112Y502734D01*
X821051Y503009D01*
X821020Y503253D01*
X821005Y503467D01*
X820990Y503635D01*
X820975Y503772D01*
Y503848D01*
Y503879D01*
X820990Y504322D01*
X821051Y504749D01*
X821127Y505146D01*
X821234Y505528D01*
X821356Y505879D01*
X821494Y506215D01*
X821631Y506520D01*
X821784Y506780D01*
X821936Y507024D01*
X822074Y507253D01*
X822211Y507436D01*
X822333Y507589D01*
X822440Y507711D01*
X822516Y507787D01*
X822578Y507848D01*
X822593Y507863D01*
X822898Y508138D01*
X823234Y508367D01*
X823570Y508565D01*
X823921Y508749D01*
X824272Y508886D01*
X824623Y509024D01*
X824959Y509115D01*
X825295Y509191D01*
X825600Y509268D01*
X825890Y509314D01*
X826134Y509344D01*
X826363Y509359D01*
X826546Y509375D01*
X826669Y509390D01*
X826791D01*
X827279Y509375D01*
D02*
G37*
G36*
X832363Y496597D02*
X832408Y496582D01*
X832469Y496521D01*
X832500Y496460D01*
Y496429D01*
Y494002D01*
X832485Y493941D01*
X832469Y493880D01*
X832393Y493834D01*
X832332Y493804D01*
X816761D01*
X816700Y493819D01*
X816639Y493834D01*
X816593Y493895D01*
X816563Y493972D01*
Y493987D01*
Y494002D01*
Y496429D01*
X816578Y496491D01*
X816593Y496536D01*
X816655Y496582D01*
X816731Y496613D01*
X832302D01*
X832363Y496597D01*
D02*
G37*
G36*
X827279Y491835D02*
X827753Y491789D01*
X828180Y491712D01*
X828592Y491606D01*
X828974Y491499D01*
X829325Y491361D01*
X829645Y491224D01*
X829935Y491087D01*
X830210Y490949D01*
X830424Y490812D01*
X830622Y490675D01*
X830790Y490568D01*
X830912Y490461D01*
X831004Y490384D01*
X831065Y490339D01*
X831080Y490323D01*
X831355Y490033D01*
X831599Y489713D01*
X831813Y489377D01*
X831996Y489056D01*
X832149Y488705D01*
X832286Y488369D01*
X832378Y488049D01*
X832469Y487728D01*
X832531Y487438D01*
X832576Y487163D01*
X832622Y486919D01*
X832637Y486706D01*
X832653Y486538D01*
X832668Y486400D01*
Y486324D01*
Y486293D01*
X832653Y485881D01*
X832622Y485499D01*
X832561Y485164D01*
X832500Y484858D01*
X832454Y484614D01*
X832424Y484507D01*
X832393Y484416D01*
X832378Y484355D01*
X832363Y484309D01*
X832347Y484278D01*
Y484263D01*
X832210Y483927D01*
X832073Y483637D01*
X831951Y483393D01*
X831813Y483179D01*
X831706Y483011D01*
X831615Y482889D01*
X831554Y482828D01*
X831538Y482798D01*
X831355Y482599D01*
X831172Y482416D01*
X830989Y482263D01*
X830836Y482126D01*
X830699Y482019D01*
X830592Y481927D01*
X830531Y481882D01*
X830500Y481866D01*
X830302Y481729D01*
X830119Y481622D01*
X829966Y481530D01*
X829813Y481469D01*
X829706Y481408D01*
X829630Y481378D01*
X829569Y481347D01*
X829554D01*
X829416Y481301D01*
X829294Y481256D01*
X829187Y481225D01*
X829096Y481210D01*
X829019Y481195D01*
X828928D01*
X828867Y481210D01*
X828806Y481225D01*
X828760Y481301D01*
X828729Y481378D01*
Y481393D01*
Y481408D01*
Y483713D01*
X828745Y483774D01*
X828760Y483820D01*
X828821Y483897D01*
X828897Y483942D01*
X828913Y483958D01*
X828928D01*
X829172Y484064D01*
X829401Y484187D01*
X829584Y484355D01*
X829752Y484523D01*
X829890Y484706D01*
X829996Y484904D01*
X830088Y485103D01*
X830164Y485301D01*
X830226Y485484D01*
X830271Y485667D01*
X830302Y485835D01*
X830332Y485988D01*
Y486110D01*
X830348Y486202D01*
Y486263D01*
Y486278D01*
X830332Y486492D01*
X830317Y486690D01*
X830226Y487072D01*
X830103Y487392D01*
X829966Y487667D01*
X829829Y487881D01*
X829768Y487972D01*
X829722Y488049D01*
X829661Y488110D01*
X829630Y488156D01*
X829615Y488171D01*
X829600Y488186D01*
X829294Y488446D01*
X828989Y488644D01*
X828668Y488797D01*
X828363Y488919D01*
X828088Y488995D01*
X827966Y489026D01*
X827875Y489056D01*
X827783Y489072D01*
X827722D01*
X827691Y489087D01*
X827676D01*
Y482446D01*
X827661Y482187D01*
X827615Y481973D01*
X827554Y481775D01*
X827462Y481607D01*
X827356Y481469D01*
X827249Y481347D01*
X827127Y481256D01*
X826989Y481179D01*
X826867Y481118D01*
X826745Y481073D01*
X826638Y481042D01*
X826531Y481012D01*
X826440D01*
X826379Y480996D01*
X826318D01*
X825905Y481012D01*
X825508Y481057D01*
X825127Y481118D01*
X824776Y481210D01*
X824440Y481317D01*
X824135Y481439D01*
X823845Y481561D01*
X823585Y481698D01*
X823341Y481836D01*
X823142Y481958D01*
X822959Y482080D01*
X822806Y482187D01*
X822684Y482263D01*
X822608Y482340D01*
X822547Y482385D01*
X822532Y482401D01*
X822257Y482675D01*
X822013Y482965D01*
X821814Y483286D01*
X821631Y483607D01*
X821478Y483942D01*
X821356Y484263D01*
X821249Y484584D01*
X821173Y484889D01*
X821112Y485194D01*
X821051Y485469D01*
X821020Y485713D01*
X821005Y485927D01*
X820990Y486095D01*
X820975Y486232D01*
Y486309D01*
Y486339D01*
X820990Y486782D01*
X821051Y487209D01*
X821127Y487606D01*
X821234Y487988D01*
X821356Y488339D01*
X821494Y488675D01*
X821631Y488980D01*
X821784Y489240D01*
X821936Y489484D01*
X822074Y489713D01*
X822211Y489896D01*
X822333Y490049D01*
X822440Y490171D01*
X822516Y490247D01*
X822578Y490308D01*
X822593Y490323D01*
X822898Y490598D01*
X823234Y490827D01*
X823570Y491026D01*
X823921Y491209D01*
X824272Y491346D01*
X824623Y491483D01*
X824959Y491575D01*
X825295Y491651D01*
X825600Y491728D01*
X825890Y491774D01*
X826134Y491804D01*
X826363Y491819D01*
X826546Y491835D01*
X826669Y491850D01*
X826791D01*
X827279Y491835D01*
D02*
G37*
G36*
X832363Y479058D02*
X832408Y479042D01*
X832469Y478981D01*
X832500Y478920D01*
Y478890D01*
Y476493D01*
X832485Y476432D01*
X832469Y476401D01*
X832393Y476340D01*
X832332Y476325D01*
X826028D01*
X825631Y476294D01*
X825279Y476233D01*
X824974Y476127D01*
X824730Y476004D01*
X824531Y475897D01*
X824394Y475791D01*
X824303Y475730D01*
X824272Y475699D01*
X824058Y475440D01*
X823906Y475165D01*
X823783Y474875D01*
X823707Y474615D01*
X823661Y474371D01*
X823646Y474264D01*
Y474173D01*
X823631Y474112D01*
Y474050D01*
Y474020D01*
Y474005D01*
Y473058D01*
X823615Y472997D01*
X823600Y472951D01*
X823524Y472890D01*
X823463Y472875D01*
X821280D01*
X821219Y472906D01*
X821173Y472967D01*
X821143Y473028D01*
Y473043D01*
Y473058D01*
Y474203D01*
X821158Y474600D01*
X821204Y474982D01*
X821265Y475333D01*
X821341Y475669D01*
X821448Y475974D01*
X821555Y476264D01*
X821677Y476539D01*
X821784Y476783D01*
X821906Y476997D01*
X822028Y477180D01*
X822135Y477348D01*
X822242Y477485D01*
X822318Y477592D01*
X822379Y477668D01*
X822425Y477714D01*
X822440Y477729D01*
X822684Y477958D01*
X822959Y478172D01*
X823234Y478355D01*
X823524Y478508D01*
X823829Y478630D01*
X824119Y478737D01*
X824409Y478829D01*
X824684Y478905D01*
X824944Y478966D01*
X825188Y478996D01*
X825402Y479027D01*
X825600Y479058D01*
X825753D01*
X825860Y479073D01*
X832302D01*
X832363Y479058D01*
D02*
G37*
G36*
X832500Y409593D02*
X827764Y408916D01*
Y409333D01*
X828128Y409437D01*
X828458Y409576D01*
X828770Y409714D01*
X829065Y409853D01*
X829325Y410009D01*
X829568Y410148D01*
X829776Y410304D01*
X829985Y410443D01*
X830158Y410599D01*
X830297Y410721D01*
X830436Y410842D01*
X830522Y410946D01*
X830609Y411033D01*
X830661Y411102D01*
X830696Y411137D01*
X830713Y411154D01*
X830887Y411397D01*
X831025Y411657D01*
X831147Y411935D01*
X831268Y412195D01*
X831442Y412768D01*
X831546Y413288D01*
X831581Y413548D01*
X831615Y413774D01*
X831633Y413982D01*
X831650Y414156D01*
X831667Y414294D01*
Y414416D01*
Y414485D01*
Y414502D01*
Y415387D01*
Y415613D01*
X831633Y415804D01*
X831615Y415960D01*
X831581Y416099D01*
X831546Y416203D01*
X831528Y416272D01*
X831494Y416307D01*
Y416324D01*
X831355Y416497D01*
X831216Y416619D01*
X831095Y416688D01*
X831077Y416706D01*
X831060D01*
X830991Y416723D01*
X830921Y416740D01*
X830713Y416758D01*
X830453Y416792D01*
X830193D01*
X829950Y416810D01*
X825335D01*
X825353Y416428D01*
X825387Y416116D01*
X825422Y415821D01*
X825474Y415595D01*
X825543Y415422D01*
X825578Y415283D01*
X825613Y415214D01*
X825630Y415179D01*
X825752Y414971D01*
X825925Y414780D01*
X826098Y414607D01*
X826272Y414468D01*
X826445Y414346D01*
X826584Y414260D01*
X826688Y414208D01*
X826706Y414190D01*
X826723D01*
X827053Y414034D01*
X827400Y413913D01*
X827747Y413826D01*
X828076Y413739D01*
X828354Y413687D01*
X828493Y413670D01*
X828597Y413652D01*
X828683Y413635D01*
X828753Y413618D01*
X828805D01*
Y413219D01*
X820981D01*
Y413618D01*
X821293Y413652D01*
X821588Y413704D01*
X821883Y413756D01*
X822126Y413826D01*
X822369Y413895D01*
X822577Y413965D01*
X822785Y414034D01*
X822959Y414104D01*
X823115Y414173D01*
X823253Y414242D01*
X823357Y414294D01*
X823444Y414346D01*
X823531Y414381D01*
X823583Y414416D01*
X823600Y414450D01*
X823618D01*
X823774Y414572D01*
X823913Y414728D01*
X824034Y414884D01*
X824121Y415040D01*
X824294Y415387D01*
X824398Y415717D01*
X824450Y416029D01*
X824468Y416168D01*
X824485Y416289D01*
X824502Y416376D01*
Y416446D01*
Y416497D01*
Y416515D01*
Y416810D01*
X818431D01*
Y415248D01*
Y414936D01*
Y414659D01*
X818448Y414398D01*
X818465Y414173D01*
X818483Y413965D01*
X818500Y413774D01*
X818517Y413600D01*
X818535Y413462D01*
X818552Y413323D01*
X818569Y413219D01*
X818587Y413132D01*
X818604Y413063D01*
X818622Y412976D01*
X818639Y412941D01*
X818778Y412560D01*
X818934Y412247D01*
X819107Y411952D01*
X819281Y411727D01*
X819437Y411553D01*
X819558Y411414D01*
X819645Y411345D01*
X819680Y411310D01*
X819818Y411206D01*
X819975Y411102D01*
X820339Y410911D01*
X820721Y410755D01*
X821085Y410634D01*
X821432Y410530D01*
X821588Y410478D01*
X821727Y410443D01*
X821831Y410426D01*
X821918Y410408D01*
X821970Y410391D01*
X821987D01*
Y409992D01*
X817563D01*
Y422500D01*
X817962D01*
Y422014D01*
X817980Y421754D01*
X818014Y421529D01*
X818066Y421338D01*
X818118Y421164D01*
X818170Y421043D01*
X818222Y420939D01*
X818257Y420887D01*
X818275Y420869D01*
X818361Y420765D01*
X818448Y420678D01*
X818656Y420557D01*
X818743Y420522D01*
X818812Y420488D01*
X818864Y420470D01*
X818882D01*
X818934Y420453D01*
X819003D01*
X819177Y420436D01*
X819367Y420418D01*
X819576Y420401D01*
X830331D01*
X830505Y420418D01*
X830644D01*
X830887Y420436D01*
X831077Y420453D01*
X831199Y420488D01*
X831286Y420505D01*
X831338Y420522D01*
X831355D01*
X831477Y420592D01*
X831598Y420661D01*
X831685Y420731D01*
X831754Y420800D01*
X831806Y420869D01*
X831841Y420921D01*
X831876Y420956D01*
Y420973D01*
X831945Y421129D01*
X831997Y421303D01*
X832049Y421476D01*
X832066Y421650D01*
X832084Y421789D01*
X832101Y421910D01*
Y421979D01*
Y422014D01*
Y422500D01*
X832500D01*
Y409593D01*
D02*
G37*
G36*
X818014Y407424D02*
X818084Y407164D01*
X818153Y406956D01*
X818240Y406800D01*
X818326Y406678D01*
X818379Y406609D01*
X818431Y406557D01*
X818448Y406540D01*
X818535Y406470D01*
X818656Y406401D01*
X818812Y406314D01*
X818986Y406210D01*
X819194Y406123D01*
X819402Y406019D01*
X819836Y405811D01*
X820269Y405620D01*
X820460Y405533D01*
X820617Y405464D01*
X820755Y405395D01*
X820877Y405343D01*
X820946Y405325D01*
X820964Y405308D01*
X832830Y400190D01*
Y399826D01*
X821432Y394691D01*
X821068Y394535D01*
X820738Y394379D01*
X820426Y394222D01*
X820165Y394101D01*
X819923Y393980D01*
X819714Y393858D01*
X819524Y393754D01*
X819367Y393667D01*
X819229Y393581D01*
X819125Y393511D01*
X819038Y393459D01*
X818968Y393407D01*
X818916Y393372D01*
X818882Y393338D01*
X818847Y393320D01*
X818587Y393077D01*
X818396Y392817D01*
X818240Y392574D01*
X818118Y392349D01*
X818049Y392158D01*
X817997Y392002D01*
X817962Y391898D01*
Y391880D01*
Y391863D01*
X817563D01*
Y396755D01*
X817962D01*
Y396478D01*
X817997Y396235D01*
X818014Y396009D01*
X818049Y395836D01*
X818084Y395697D01*
X818118Y395593D01*
X818136Y395523D01*
X818153Y395506D01*
X818275Y395281D01*
X818396Y395107D01*
X818500Y395020D01*
X818535Y394986D01*
X818552D01*
X818743Y394882D01*
X818934Y394830D01*
X819003Y394812D01*
X819125D01*
X819367Y394830D01*
X819593Y394864D01*
X819680Y394899D01*
X819766Y394916D01*
X819818Y394934D01*
X819836D01*
X819923Y394968D01*
X820027Y395003D01*
X820252Y395090D01*
X820512Y395194D01*
X820790Y395315D01*
X821033Y395420D01*
X821241Y395506D01*
X821310Y395541D01*
X821380Y395576D01*
X821414Y395593D01*
X821432D01*
X828059Y398542D01*
X820617Y401717D01*
X820408Y401804D01*
X820218Y401890D01*
X820044Y401960D01*
X819888Y402029D01*
X819766Y402081D01*
X819645Y402116D01*
X819454Y402203D01*
X819315Y402255D01*
X819229Y402289D01*
X819194Y402307D01*
X819177D01*
X818986Y402359D01*
X818830Y402376D01*
X818743Y402393D01*
X818708D01*
X818587Y402376D01*
X818500Y402359D01*
X818344Y402272D01*
X818257Y402185D01*
X818222Y402168D01*
Y402151D01*
X818136Y401994D01*
X818066Y401786D01*
X818032Y401561D01*
X817997Y401353D01*
X817980Y401144D01*
X817962Y400971D01*
Y400901D01*
Y400849D01*
Y400832D01*
Y400815D01*
Y400589D01*
X817563D01*
Y407719D01*
X817962D01*
X818014Y407424D01*
D02*
G37*
G36*
X832500Y386485D02*
X832101D01*
X832084Y386693D01*
X832066Y386884D01*
X832049Y387058D01*
X832032Y387214D01*
X831980Y387474D01*
X831945Y387665D01*
X831893Y387804D01*
X831876Y387890D01*
X831841Y387942D01*
Y387960D01*
X831719Y388133D01*
X831581Y388255D01*
X831424Y388341D01*
X831268Y388393D01*
X831130Y388428D01*
X831025Y388463D01*
X830921D01*
X830731Y388446D01*
X830522Y388411D01*
X830331Y388359D01*
X830123Y388307D01*
X829967Y388255D01*
X829828Y388203D01*
X829742Y388168D01*
X829707Y388151D01*
X828250Y387509D01*
Y382270D01*
X830123Y381454D01*
X830366Y381350D01*
X830557Y381281D01*
X830713Y381211D01*
X830817Y381177D01*
X830887Y381142D01*
X830921D01*
X830956Y381124D01*
X831112Y381090D01*
X831234Y381055D01*
X831355D01*
X831477Y381073D01*
X831581Y381090D01*
X831737Y381177D01*
X831823Y381263D01*
X831858Y381281D01*
Y381298D01*
X831945Y381454D01*
X831997Y381645D01*
X832066Y382044D01*
X832084Y382235D01*
X832101Y382391D01*
Y382495D01*
Y382512D01*
Y382530D01*
Y382825D01*
X832500D01*
Y375608D01*
X832101D01*
X832066Y375851D01*
X832014Y376059D01*
X831962Y376232D01*
X831893Y376389D01*
X831823Y376510D01*
X831771Y376597D01*
X831737Y376649D01*
X831719Y376666D01*
X831615Y376753D01*
X831494Y376857D01*
X831338Y376961D01*
X831181Y377065D01*
X830817Y377273D01*
X830436Y377481D01*
X830089Y377655D01*
X829932Y377742D01*
X829794Y377794D01*
X829672Y377863D01*
X829585Y377898D01*
X829533Y377915D01*
X829516Y377933D01*
X817251Y383310D01*
Y383519D01*
X829186Y388862D01*
X829499Y389001D01*
X829776Y389139D01*
X830019Y389261D01*
X830262Y389382D01*
X830470Y389504D01*
X830644Y389608D01*
X830817Y389695D01*
X830956Y389781D01*
X831077Y389868D01*
X831181Y389937D01*
X831268Y390007D01*
X831320Y390059D01*
X831407Y390128D01*
X831442Y390146D01*
X831633Y390354D01*
X831771Y390562D01*
X831893Y390788D01*
X831980Y390996D01*
X832032Y391186D01*
X832066Y391325D01*
X832101Y391429D01*
Y391447D01*
Y391464D01*
X832500D01*
Y386485D01*
D02*
G37*
G36*
X825873Y374497D02*
X826515Y374445D01*
X827105Y374359D01*
X827382Y374324D01*
X827625Y374272D01*
X827868Y374237D01*
X828076Y374203D01*
X828250Y374151D01*
X828406Y374116D01*
X828527Y374081D01*
X828631Y374064D01*
X828683Y374047D01*
X828701D01*
X829152Y373908D01*
X829533Y373752D01*
X829880Y373613D01*
X830158Y373491D01*
X830401Y373370D01*
X830557Y373283D01*
X830661Y373214D01*
X830678Y373196D01*
X830696D01*
X831060Y372936D01*
X831372Y372676D01*
X831650Y372416D01*
X831876Y372190D01*
X832049Y371982D01*
X832170Y371809D01*
X832240Y371704D01*
X832274Y371687D01*
Y371670D01*
X832448Y371323D01*
X832587Y370993D01*
X832673Y370664D01*
X832743Y370351D01*
X832778Y370091D01*
X832795Y369987D01*
Y369883D01*
X832812Y369813D01*
Y369762D01*
Y369727D01*
Y369709D01*
X832795Y369362D01*
X832743Y369050D01*
X832673Y368755D01*
X832587Y368495D01*
X832517Y368270D01*
X832448Y368113D01*
X832396Y368009D01*
X832379Y367975D01*
X832188Y367680D01*
X831997Y367402D01*
X831789Y367159D01*
X831598Y366951D01*
X831424Y366778D01*
X831286Y366639D01*
X831199Y366569D01*
X831164Y366535D01*
X830869Y366309D01*
X830540Y366101D01*
X830210Y365928D01*
X829898Y365789D01*
X829638Y365685D01*
X829516Y365633D01*
X829412Y365598D01*
X829343Y365563D01*
X829273Y365546D01*
X829239Y365528D01*
X829221D01*
X828475Y365320D01*
X827747Y365164D01*
X827035Y365043D01*
X826706Y365008D01*
X826393Y364973D01*
X826116Y364939D01*
X825856Y364921D01*
X825613Y364904D01*
X825422D01*
X825266Y364887D01*
X824589D01*
X824138Y364921D01*
X823722Y364956D01*
X823306Y365008D01*
X822906Y365060D01*
X822542Y365130D01*
X822195Y365182D01*
X821866Y365251D01*
X821571Y365320D01*
X821310Y365390D01*
X821085Y365459D01*
X820894Y365511D01*
X820738Y365563D01*
X820617Y365598D01*
X820547Y365615D01*
X820530Y365633D01*
X819992Y365858D01*
X819524Y366101D01*
X819125Y366379D01*
X818951Y366517D01*
X818778Y366656D01*
X818639Y366778D01*
X818517Y366899D01*
X818396Y367003D01*
X818309Y367090D01*
X818240Y367177D01*
X818188Y367229D01*
X818170Y367263D01*
X818153Y367281D01*
X817997Y367489D01*
X817858Y367714D01*
X817737Y367923D01*
X817633Y368131D01*
X817477Y368547D01*
X817355Y368911D01*
X817320Y369085D01*
X817303Y369241D01*
X817286Y369380D01*
X817268Y369484D01*
X817251Y369588D01*
Y369657D01*
Y369692D01*
Y369709D01*
X817268Y369952D01*
X817286Y370178D01*
X817390Y370629D01*
X817529Y371045D01*
X817702Y371409D01*
X817789Y371566D01*
X817876Y371704D01*
X817945Y371826D01*
X818014Y371930D01*
X818066Y372017D01*
X818118Y372086D01*
X818136Y372121D01*
X818153Y372138D01*
X818326Y372346D01*
X818517Y372537D01*
X818934Y372884D01*
X819367Y373179D01*
X819784Y373422D01*
X819975Y373509D01*
X820165Y373595D01*
X820322Y373682D01*
X820460Y373734D01*
X820582Y373786D01*
X820668Y373804D01*
X820721Y373838D01*
X820738D01*
X821519Y374064D01*
X822299Y374237D01*
X823045Y374341D01*
X823410Y374393D01*
X823739Y374428D01*
X824051Y374463D01*
X824329Y374480D01*
X824589Y374497D01*
X824797D01*
X824971Y374515D01*
X825214D01*
X825873Y374497D01*
D02*
G37*
G36*
X820148Y362388D02*
X820027Y362094D01*
X819940Y361833D01*
X819888Y361608D01*
X819836Y361400D01*
X819818Y361244D01*
X819801Y361122D01*
Y361035D01*
Y361018D01*
Y360896D01*
X819836Y360775D01*
X819888Y360584D01*
X819923Y360515D01*
X819957Y360463D01*
X819975Y360428D01*
X819992Y360411D01*
X820131Y360237D01*
X820269Y360116D01*
X820374Y360047D01*
X820408Y360029D01*
X820426D01*
X820478Y360012D01*
X820547Y359994D01*
X820738Y359960D01*
X820946Y359942D01*
X821172D01*
X821380Y359925D01*
X829950D01*
X830175Y359942D01*
X830366D01*
X830522Y359960D01*
X830678Y359977D01*
X830817Y359994D01*
X830921D01*
X831095Y360029D01*
X831216Y360064D01*
X831286Y360081D01*
X831303D01*
X831442Y360151D01*
X831563Y360220D01*
X831667Y360324D01*
X831754Y360411D01*
X831823Y360498D01*
X831876Y360567D01*
X831893Y360619D01*
X831910Y360636D01*
X831980Y360810D01*
X832032Y361018D01*
X832066Y361244D01*
X832084Y361469D01*
X832101Y361677D01*
X832118Y361851D01*
Y361920D01*
Y361972D01*
Y361990D01*
Y362007D01*
Y362388D01*
X832500D01*
Y354512D01*
X832118D01*
Y354859D01*
X832101Y355154D01*
X832084Y355415D01*
X832049Y355623D01*
X831997Y355796D01*
X831945Y355935D01*
X831910Y356039D01*
X831893Y356091D01*
X831876Y356108D01*
X831771Y356247D01*
X831667Y356351D01*
X831563Y356438D01*
X831477Y356507D01*
X831390Y356559D01*
X831320Y356594D01*
X831268Y356612D01*
X831251D01*
X831164Y356629D01*
X831060Y356646D01*
X830817Y356664D01*
X830522Y356698D01*
X830210D01*
X829932Y356716D01*
X817251D01*
Y357080D01*
X819766Y362579D01*
X820148Y362388D01*
D02*
G37*
G36*
X828458Y345804D02*
X826185D01*
Y352222D01*
X828458D01*
Y345804D01*
D02*
G37*
G36*
X832500Y337182D02*
X832101D01*
Y337528D01*
X832066Y337841D01*
X832049Y338084D01*
X832014Y338274D01*
X831980Y338413D01*
X831962Y338517D01*
X831927Y338569D01*
Y338587D01*
X831858Y338708D01*
X831771Y338830D01*
X831685Y338916D01*
X831598Y338986D01*
X831528Y339038D01*
X831477Y339072D01*
X831442Y339107D01*
X831424D01*
X831355Y339124D01*
X831268Y339159D01*
X831060Y339194D01*
X830800Y339211D01*
X830540Y339229D01*
X830297Y339246D01*
X825699D01*
Y338274D01*
X832500Y333469D01*
Y328750D01*
X832101D01*
X832084Y328976D01*
X832032Y329167D01*
X831980Y329357D01*
X831910Y329514D01*
X831841Y329635D01*
X831789Y329722D01*
X831754Y329791D01*
X831737Y329809D01*
X831615Y329930D01*
X831442Y330086D01*
X831251Y330260D01*
X831043Y330416D01*
X830835Y330572D01*
X830678Y330693D01*
X830609Y330745D01*
X830557Y330780D01*
X830540Y330815D01*
X830522D01*
X825457Y334406D01*
X825318Y333920D01*
X825144Y333486D01*
X824971Y333122D01*
X824797Y332827D01*
X824659Y332584D01*
X824537Y332411D01*
X824485Y332359D01*
X824450Y332307D01*
X824416Y332272D01*
X824208Y332064D01*
X823982Y331873D01*
X823756Y331717D01*
X823531Y331578D01*
X823306Y331457D01*
X823080Y331370D01*
X822854Y331283D01*
X822646Y331231D01*
X822455Y331179D01*
X822265Y331144D01*
X822108Y331110D01*
X821970Y331092D01*
X821848Y331075D01*
X821449D01*
X821206Y331110D01*
X820755Y331196D01*
X820356Y331335D01*
X820009Y331474D01*
X819853Y331543D01*
X819714Y331613D01*
X819610Y331682D01*
X819506Y331752D01*
X819437Y331804D01*
X819385Y331838D01*
X819350Y331856D01*
X819333Y331873D01*
X818986Y332185D01*
X818691Y332532D01*
X818448Y332879D01*
X818257Y333209D01*
X818118Y333486D01*
X818066Y333625D01*
X818014Y333729D01*
X817980Y333816D01*
X817962Y333885D01*
X817945Y333920D01*
Y333937D01*
X817876Y334180D01*
X817823Y334458D01*
X817771Y334770D01*
X817719Y335082D01*
X817650Y335742D01*
X817615Y336384D01*
X817598Y336678D01*
X817581Y336973D01*
Y337234D01*
X817563Y337442D01*
Y337633D01*
Y337771D01*
Y337858D01*
Y337893D01*
Y344815D01*
X817962D01*
Y344468D01*
X817997Y344173D01*
X818014Y343930D01*
X818049Y343756D01*
X818084Y343618D01*
X818118Y343514D01*
X818136Y343462D01*
X818153Y343444D01*
X818222Y343306D01*
X818309Y343201D01*
X818396Y343097D01*
X818483Y343028D01*
X818552Y342976D01*
X818604Y342941D01*
X818639Y342906D01*
X818656D01*
X818726Y342872D01*
X818812Y342854D01*
X819020Y342820D01*
X819263Y342785D01*
X819524Y342768D01*
X819766Y342750D01*
X830314D01*
X830488Y342768D01*
X830644D01*
X830782Y342785D01*
X830921Y342802D01*
X831112Y342820D01*
X831268Y342854D01*
X831355Y342889D01*
X831407Y342906D01*
X831424D01*
X831528Y342976D01*
X831633Y343045D01*
X831771Y343219D01*
X831841Y343306D01*
X831876Y343375D01*
X831893Y343410D01*
X831910Y343427D01*
X831980Y343583D01*
X832014Y343791D01*
X832049Y344034D01*
X832084Y344260D01*
Y344468D01*
X832101Y344641D01*
Y344711D01*
Y344763D01*
Y344797D01*
Y344815D01*
X832500D01*
Y337182D01*
D02*
G37*
G36*
Y319643D02*
X828180Y318792D01*
Y319191D01*
X828440Y319330D01*
X828666Y319452D01*
X828839Y319556D01*
X828978Y319643D01*
X829082Y319712D01*
X829152Y319764D01*
X829186Y319799D01*
X829204Y319816D01*
X829343Y320007D01*
X829447Y320198D01*
X829481Y320284D01*
X829516Y320336D01*
X829533Y320388D01*
Y320406D01*
X829551Y320475D01*
X829568Y320579D01*
X829585Y320788D01*
X829603Y321048D01*
Y321308D01*
X829620Y321551D01*
Y321759D01*
Y321828D01*
Y321898D01*
Y321932D01*
Y321950D01*
Y325177D01*
X828961Y324500D01*
X828336Y323893D01*
X827747Y323338D01*
X827191Y322835D01*
X826688Y322383D01*
X826220Y321984D01*
X825804Y321638D01*
X825422Y321343D01*
X825075Y321082D01*
X824780Y320874D01*
X824537Y320683D01*
X824329Y320545D01*
X824156Y320440D01*
X824034Y320371D01*
X823965Y320336D01*
X823947Y320319D01*
X823670Y320180D01*
X823392Y320042D01*
X822837Y319833D01*
X822334Y319695D01*
X822108Y319643D01*
X821883Y319590D01*
X821692Y319556D01*
X821501Y319521D01*
X821345Y319504D01*
X821224D01*
X821102Y319486D01*
X820964D01*
X820668Y319504D01*
X820356Y319573D01*
X820061Y319660D01*
X819801Y319747D01*
X819576Y319851D01*
X819402Y319937D01*
X819333Y319972D01*
X819281Y320007D01*
X819263Y320024D01*
X819246D01*
X818916Y320232D01*
X818622Y320475D01*
X818379Y320718D01*
X818170Y320944D01*
X817997Y321152D01*
X817876Y321325D01*
X817841Y321395D01*
X817806Y321447D01*
X817789Y321464D01*
Y321481D01*
X817615Y321846D01*
X817477Y322193D01*
X817390Y322557D01*
X817320Y322869D01*
X817286Y323147D01*
X817268Y323268D01*
X817251Y323372D01*
Y323459D01*
Y323511D01*
Y323546D01*
Y323563D01*
X817268Y323858D01*
X817303Y324136D01*
X817338Y324413D01*
X817407Y324674D01*
X817581Y325142D01*
X817667Y325350D01*
X817754Y325558D01*
X817858Y325732D01*
X817945Y325888D01*
X818032Y326027D01*
X818118Y326148D01*
X818188Y326235D01*
X818222Y326304D01*
X818257Y326339D01*
X818275Y326356D01*
X818483Y326582D01*
X818691Y326790D01*
X819194Y327154D01*
X819697Y327467D01*
X820218Y327709D01*
X820443Y327813D01*
X820668Y327918D01*
X820877Y327987D01*
X821050Y328056D01*
X821189Y328091D01*
X821310Y328126D01*
X821380Y328161D01*
X821397D01*
X821536Y327761D01*
X821241Y327571D01*
X820981Y327380D01*
X820755Y327172D01*
X820547Y326946D01*
X820391Y326738D01*
X820252Y326512D01*
X820131Y326304D01*
X820044Y326096D01*
X819975Y325888D01*
X819923Y325714D01*
X819888Y325541D01*
X819853Y325402D01*
Y325281D01*
X819836Y325194D01*
Y325142D01*
Y325125D01*
Y324934D01*
X819871Y324743D01*
X819957Y324413D01*
X820079Y324118D01*
X820218Y323858D01*
X820374Y323650D01*
X820495Y323494D01*
X820582Y323407D01*
X820599Y323372D01*
X820617D01*
X820911Y323130D01*
X821241Y322956D01*
X821553Y322817D01*
X821866Y322730D01*
X822126Y322678D01*
X822247Y322661D01*
X822351D01*
X822421Y322644D01*
X822542D01*
X822837Y322661D01*
X823132Y322678D01*
X823722Y322783D01*
X824260Y322921D01*
X824520Y322991D01*
X824763Y323078D01*
X824971Y323164D01*
X825179Y323234D01*
X825353Y323303D01*
X825509Y323372D01*
X825630Y323424D01*
X825717Y323476D01*
X825769Y323494D01*
X825786Y323511D01*
X825942Y323598D01*
X826133Y323702D01*
X826550Y323962D01*
X827001Y324274D01*
X827504Y324639D01*
X828024Y325020D01*
X828562Y325437D01*
X829117Y325853D01*
X829655Y326287D01*
X830175Y326703D01*
X830661Y327085D01*
X831112Y327449D01*
X831494Y327779D01*
X831667Y327918D01*
X831823Y328039D01*
X831945Y328143D01*
X832066Y328247D01*
X832153Y328317D01*
X832222Y328369D01*
X832257Y328403D01*
X832274Y328421D01*
X832500D01*
Y319643D01*
D02*
G37*
G36*
X21846Y293986D02*
X21929Y293972D01*
X22068Y293931D01*
X22234Y293861D01*
X22429Y293778D01*
X22664Y293639D01*
X22928Y293459D01*
Y292890D01*
X22900Y292863D01*
X22831Y292807D01*
X22720Y292710D01*
X22581Y292613D01*
X22442Y292516D01*
X22304Y292419D01*
X22193Y292363D01*
X22096Y292336D01*
X22040D01*
X21971Y292322D01*
X21902D01*
X21818Y292308D01*
X21749Y292280D01*
X21693Y292253D01*
X21666Y292211D01*
X21638Y292225D01*
X21583Y292266D01*
X21499Y292350D01*
X21416Y292447D01*
X21319Y292572D01*
X21236Y292710D01*
X21180Y292877D01*
X21153Y293071D01*
Y293085D01*
Y293112D01*
Y293154D01*
X21166Y293209D01*
X21180Y293362D01*
X21236Y293528D01*
X21305Y293709D01*
X21416Y293847D01*
X21485Y293917D01*
X21569Y293958D01*
X21652Y293986D01*
X21763Y294000D01*
X21777D01*
X21846Y293986D01*
D02*
G37*
G36*
X22137Y290977D02*
X22193Y290963D01*
X22262Y290935D01*
X22359Y290893D01*
X22456Y290838D01*
X22470Y290824D01*
X22512Y290810D01*
X22567Y290769D01*
X22636Y290713D01*
X22706Y290658D01*
X22761Y290588D01*
X22803Y290519D01*
X22817Y290436D01*
Y290422D01*
Y290408D01*
X22803Y290366D01*
Y290311D01*
X22789Y290186D01*
X22761Y290034D01*
X22747Y289867D01*
X22720Y289715D01*
X22706Y289590D01*
Y289548D01*
Y289507D01*
X22692Y289493D01*
X22636Y289451D01*
X22553Y289382D01*
X22442Y289312D01*
X22304Y289243D01*
X22123Y289174D01*
X21929Y289132D01*
X21693Y289118D01*
X21583D01*
X21472Y289132D01*
X21347Y289160D01*
Y289174D01*
X21333Y289188D01*
X21291Y289271D01*
X21236Y289410D01*
X21180Y289562D01*
X21111Y289756D01*
X21056Y289937D01*
X21014Y290131D01*
X21000Y290311D01*
Y290325D01*
X21028Y290366D01*
X21069Y290450D01*
X21111Y290519D01*
X21166Y290588D01*
X21180Y290602D01*
X21194Y290616D01*
X21263Y290699D01*
X21319Y290783D01*
X21347Y290824D01*
X21361Y290838D01*
X21374D01*
X21416Y290866D01*
X21485Y290893D01*
X21583Y290921D01*
X21680Y290949D01*
X21790Y290977D01*
X21915Y290991D01*
X22026Y291004D01*
X22054D01*
X22137Y290977D01*
D02*
G37*
G36*
X25701Y290269D02*
X25743Y290256D01*
X25812Y290242D01*
X25826D01*
X25840Y290228D01*
X25909Y290214D01*
X25979Y290200D01*
X26020D01*
Y290186D01*
X26034Y290145D01*
X26062Y290075D01*
X26117Y289964D01*
Y289950D01*
X26131Y289923D01*
X26159Y289839D01*
X26173Y289729D01*
X26187Y289618D01*
Y289604D01*
Y289548D01*
X26173Y289479D01*
X26159Y289382D01*
X26131Y289271D01*
X26076Y289160D01*
X26020Y289035D01*
X25937Y288924D01*
X25923Y288910D01*
X25896Y288883D01*
X25854Y288827D01*
X25785Y288772D01*
X25715Y288716D01*
X25618Y288661D01*
X25521Y288633D01*
X25424Y288619D01*
X25341D01*
X25285Y288633D01*
X25147Y288661D01*
X24980Y288716D01*
X24814Y288799D01*
X24675Y288938D01*
X24620Y289021D01*
X24578Y289132D01*
X24550Y289243D01*
X24536Y289382D01*
Y289396D01*
Y289437D01*
X24550Y289493D01*
X24578Y289562D01*
X24620Y289659D01*
X24689Y289756D01*
X24772Y289867D01*
X24897Y289978D01*
X24911Y289992D01*
X24966Y290020D01*
X25036Y290075D01*
X25119Y290131D01*
X25230Y290186D01*
X25355Y290242D01*
X25466Y290269D01*
X25590Y290283D01*
X25632D01*
X25701Y290269D01*
D02*
G37*
G36*
X31221Y287759D02*
X31290Y287745D01*
X31387Y287704D01*
X31484Y287634D01*
X31609Y287537D01*
X31720Y287399D01*
X31845Y287204D01*
Y287191D01*
X31873Y287149D01*
X31901Y287066D01*
X31942Y286941D01*
X31970Y286872D01*
X31998Y286775D01*
X32039Y286650D01*
X32081Y286525D01*
X32122Y286372D01*
X32178Y286206D01*
X32233Y286026D01*
X32289Y285818D01*
Y285804D01*
X32303Y285748D01*
X32331Y285665D01*
X32358Y285554D01*
X32386Y285429D01*
X32428Y285277D01*
X32469Y285110D01*
X32511Y284930D01*
X32580Y284556D01*
X32650Y284181D01*
X32705Y283821D01*
X32719Y283654D01*
Y283515D01*
Y278509D01*
Y278495D01*
Y278481D01*
X32705Y278454D01*
X32691Y278398D01*
X32677Y278329D01*
X32650Y278218D01*
X32608Y278079D01*
Y278065D01*
X32594Y278010D01*
X32580Y277940D01*
X32552Y277857D01*
X32538Y277774D01*
X32525Y277691D01*
X32511Y277621D01*
X32497Y277580D01*
Y277566D01*
Y277552D01*
X32483Y277469D01*
Y277358D01*
X32469Y277192D01*
X32441Y277011D01*
X32414Y276803D01*
X32344Y276373D01*
Y276359D01*
X32331Y276318D01*
X32317Y276262D01*
X32303Y276179D01*
X32275Y276068D01*
X32233Y275943D01*
X32192Y275805D01*
X32150Y275638D01*
X32081Y275472D01*
X32011Y275278D01*
X31831Y274876D01*
X31595Y274418D01*
X31471Y274182D01*
X31318Y273946D01*
X31304Y273932D01*
X31277Y273891D01*
X31235Y273822D01*
X31165Y273724D01*
X31096Y273613D01*
X30999Y273503D01*
X30777Y273225D01*
X30514Y272934D01*
X30222Y272656D01*
X30070Y272532D01*
X29917Y272407D01*
X29751Y272310D01*
X29598Y272241D01*
X29585D01*
X29557Y272227D01*
X29515Y272199D01*
X29446Y272171D01*
X29363Y272129D01*
X29266Y272088D01*
X29141Y272033D01*
X28988Y271977D01*
X28960Y271963D01*
X28891Y271949D01*
X28808Y271922D01*
X28683Y271880D01*
X28572Y271838D01*
X28447Y271811D01*
X28350Y271797D01*
X28298Y271786D01*
X28267Y271797D01*
X28198D01*
X28142Y271811D01*
X28073D01*
X27990Y271824D01*
X27893Y271838D01*
X27782Y271852D01*
X27643Y271866D01*
X27490Y271880D01*
X27310Y271894D01*
X27296Y271908D01*
X27269Y271922D01*
X27213Y271977D01*
X27144Y272046D01*
X27116Y272033D01*
X27060Y272019D01*
X27033D01*
X26977Y272033D01*
X26866Y272046D01*
X26741Y272088D01*
X26589Y272171D01*
X26409Y272282D01*
X26228Y272421D01*
X26131Y272518D01*
X26034Y272629D01*
X25937Y272823D01*
X25923Y272837D01*
X25896Y272878D01*
X25840Y272934D01*
X25798Y272948D01*
X25812D01*
X25840Y272962D01*
X25896Y273003D01*
X25965Y273086D01*
Y273100D01*
X25951Y273114D01*
X25923Y273156D01*
X25882Y273211D01*
X25785Y273350D01*
X25660Y273516D01*
Y273503D01*
X25632Y273461D01*
X25604Y273405D01*
X25563Y273322D01*
X25549D01*
X25535Y273336D01*
X25507Y273364D01*
X25452Y273392D01*
X25396Y273447D01*
X25327Y273530D01*
X25230Y273627D01*
X25216D01*
X25230Y273641D01*
X25258Y273669D01*
X25341Y273738D01*
X25396Y273766D01*
X25466Y273822D01*
Y274002D01*
X25452Y274016D01*
X25438Y274043D01*
X25382Y274085D01*
X25327Y274154D01*
X25258Y274251D01*
X25161Y274349D01*
X25050Y274473D01*
X24911Y274626D01*
X24897Y274612D01*
X24869Y274570D01*
X24842Y274515D01*
X24828Y274432D01*
Y274418D01*
X24842Y274362D01*
X24855Y274307D01*
X24883Y274265D01*
X24869Y274279D01*
X24814Y274307D01*
X24745Y274362D01*
X24661Y274418D01*
X24578Y274501D01*
X24509Y274598D01*
X24453Y274695D01*
X24425Y274792D01*
X24439D01*
X24467Y274820D01*
X24509Y274848D01*
X24578Y274903D01*
Y274889D01*
X24592Y274848D01*
X24634Y274792D01*
X24689Y274709D01*
X24869D01*
X24883Y274737D01*
X24897Y274778D01*
Y274834D01*
X23579Y277316D01*
Y277330D01*
X23607Y277386D01*
X23621Y277413D01*
X23635Y277455D01*
Y277469D01*
X23621Y277497D01*
X23579Y277552D01*
X23524Y277635D01*
X22969Y279300D01*
Y279313D01*
X22956Y279341D01*
X22942Y279383D01*
X22914Y279452D01*
X22858Y279605D01*
X22775Y279799D01*
X22664Y280007D01*
X22553Y280215D01*
X22429Y280395D01*
X22359Y280464D01*
X22290Y280534D01*
X22276Y280520D01*
X22248Y280464D01*
X22207Y280381D01*
X22193Y280298D01*
Y280284D01*
X22207Y280256D01*
Y280229D01*
X22220Y280173D01*
X22248Y280090D01*
X22290Y279993D01*
X22331Y279854D01*
Y279840D01*
X22345Y279785D01*
X22373Y279729D01*
X22387Y279646D01*
X22415Y279563D01*
X22429Y279494D01*
X22442Y279438D01*
Y279397D01*
Y279383D01*
Y279327D01*
X22429Y279244D01*
X22401Y279161D01*
X22387Y279188D01*
X22359Y279258D01*
X22304Y279397D01*
X22220Y279577D01*
X22123Y279813D01*
X21999Y280090D01*
X21860Y280437D01*
X21693Y280825D01*
Y280853D01*
Y280922D01*
X21680Y281047D01*
Y281130D01*
X21666Y281227D01*
Y281241D01*
X21652Y281255D01*
X21638Y281297D01*
X21624Y281352D01*
X21569Y281491D01*
X21499Y281685D01*
X21430Y281907D01*
X21347Y282156D01*
X21263Y282420D01*
X21180Y282683D01*
Y282711D01*
X21153Y282780D01*
X21125Y282905D01*
X21083Y283058D01*
X21042Y283252D01*
X20986Y283460D01*
X20931Y283696D01*
X20875Y283959D01*
X20750Y284500D01*
X20653Y285055D01*
X20612Y285332D01*
X20584Y285582D01*
X20570Y285818D01*
X20556Y286026D01*
Y286040D01*
Y286053D01*
X20570Y286109D01*
X20584Y286164D01*
X20598Y286234D01*
X20639Y286331D01*
X20681Y286442D01*
X20750Y286580D01*
X20764Y286594D01*
X20778Y286636D01*
X20820Y286705D01*
X20861Y286788D01*
X20972Y286955D01*
X21042Y287038D01*
X21097Y287094D01*
X21111D01*
X21125Y287121D01*
X21166Y287135D01*
X21222Y287163D01*
X21291Y287191D01*
X21361Y287204D01*
X21569Y287232D01*
X21583D01*
X21624Y287218D01*
X21680Y287204D01*
X21749Y287149D01*
X21846Y287080D01*
X21943Y286969D01*
X22040Y286802D01*
X22082Y286705D01*
X22137Y286594D01*
Y286567D01*
X22109Y286511D01*
Y286497D01*
X22096Y286483D01*
X22082Y286428D01*
Y286414D01*
X22096Y286345D01*
X22123Y286261D01*
X22179Y286150D01*
Y286137D01*
Y286123D01*
X22193Y286040D01*
X22207Y285915D01*
X22234Y285762D01*
X22248Y285596D01*
X22276Y285415D01*
X22304Y285249D01*
X22331Y285096D01*
Y285069D01*
X22345Y285013D01*
X22373Y284902D01*
X22401Y284791D01*
X22429Y284653D01*
X22470Y284500D01*
X22512Y284361D01*
X22567Y284237D01*
X22595D01*
X22636Y284251D01*
X22692D01*
X22831Y284264D01*
X23025Y284292D01*
X23247Y284320D01*
X23496Y284348D01*
X23760Y284375D01*
X24051Y284403D01*
X24620Y284472D01*
X24897Y284500D01*
X25161Y284528D01*
X25396Y284556D01*
X25590Y284569D01*
X25743Y284583D01*
X25896D01*
X25951Y284569D01*
X26007D01*
X26062Y284556D01*
X26131D01*
X26214Y284542D01*
X26326Y284528D01*
X26450Y284514D01*
X26603Y284500D01*
X26769Y284472D01*
X26963Y284459D01*
X27185Y284431D01*
X27199D01*
X27255Y284417D01*
X27338D01*
X27435Y284403D01*
X27560Y284389D01*
X27712Y284375D01*
X28031Y284348D01*
X28378Y284320D01*
X28725Y284278D01*
X28877D01*
X29016Y284264D01*
X29141Y284251D01*
X29266D01*
X29321Y284237D01*
X29390Y284195D01*
X29488Y284140D01*
X29501D01*
X29543Y284153D01*
X29598Y284167D01*
X29668Y284181D01*
X29709D01*
X29765Y284167D01*
X29834Y284153D01*
X29862D01*
X29904Y284140D01*
X29987Y284126D01*
X30042Y284112D01*
X30111Y284084D01*
X30209Y284070D01*
X30306Y284042D01*
X30431Y284015D01*
X30569Y283973D01*
X30736Y283932D01*
X30916Y283890D01*
Y283876D01*
X30944Y283821D01*
X30971Y283737D01*
X31027Y283640D01*
Y283654D01*
X31055Y283668D01*
X31096Y283751D01*
X31138Y283862D01*
X31165Y283987D01*
Y284015D01*
X31152Y284070D01*
X31138Y284126D01*
X31124Y284195D01*
X31110Y284278D01*
X31082Y284375D01*
X31055Y284500D01*
X31027Y284653D01*
X30985Y284819D01*
X30944Y285027D01*
X30888Y285263D01*
X30833Y285526D01*
X30486Y287052D01*
Y287066D01*
Y287080D01*
X30500Y287121D01*
X30528Y287177D01*
X30569Y287246D01*
X30625Y287329D01*
X30694Y287426D01*
X30805Y287523D01*
X30819Y287537D01*
X30847Y287565D01*
X30888Y287607D01*
X30944Y287648D01*
X31068Y287731D01*
X31124Y287759D01*
X31165Y287773D01*
X31179D01*
X31221Y287759D01*
D02*
G37*
G36*
X22512Y279036D02*
X22539Y279008D01*
X22567Y278967D01*
X22595Y278911D01*
Y278842D01*
X22567D01*
X22539Y278870D01*
X22525Y278897D01*
X22498Y278939D01*
X22470Y278994D01*
X22429Y279064D01*
X22456D01*
X22512Y279036D01*
D02*
G37*
G36*
X22997Y277899D02*
X22983D01*
X22969Y277913D01*
X22956Y277940D01*
X22928Y277996D01*
X22900Y278051D01*
X22858Y278148D01*
X22817Y278273D01*
X23052D01*
X22997Y277899D01*
D02*
G37*
G36*
X23108Y277677D02*
X23177Y277635D01*
X23247Y277580D01*
X23330Y277483D01*
X23427Y277358D01*
X23510Y277205D01*
X23579Y276997D01*
X23857Y276138D01*
X23843Y276124D01*
X23815Y276082D01*
X23774Y276026D01*
X23760Y275971D01*
Y275985D01*
X23746Y276013D01*
X23732Y276040D01*
X23704Y276096D01*
X23677Y276179D01*
X23635Y276276D01*
Y276290D01*
X23621Y276318D01*
X23579Y276415D01*
X23524Y276526D01*
X23510Y276567D01*
Y276595D01*
Y276609D01*
Y276651D01*
Y276706D01*
Y276762D01*
X23496Y276886D01*
X23482Y276942D01*
X23469Y276970D01*
Y276956D01*
X23455Y276928D01*
X23441Y276859D01*
X23427Y276762D01*
Y276775D01*
X23399Y276803D01*
X23372Y276873D01*
X23330Y276970D01*
X23274Y277094D01*
X23205Y277261D01*
X23136Y277455D01*
X23052Y277705D01*
X23066D01*
X23108Y277677D01*
D02*
G37*
G36*
X23954Y275749D02*
X23968Y275708D01*
X23996Y275638D01*
X24023Y275569D01*
X24065Y275500D01*
X24093Y275430D01*
X24132Y275391D01*
X24093Y275361D01*
Y275375D01*
X24079Y275403D01*
X24051Y275444D01*
X23982Y275527D01*
X23968Y275513D01*
X23954Y275500D01*
X23940Y275472D01*
Y275763D01*
X23954Y275749D01*
D02*
G37*
G36*
X30431Y272365D02*
X30528Y272351D01*
X30625Y272324D01*
X30722Y272268D01*
X30805Y272213D01*
X30874Y272129D01*
X30888Y272116D01*
X30902Y272074D01*
X30930Y272019D01*
X30985Y271922D01*
X31041Y271811D01*
X31110Y271658D01*
X31193Y271492D01*
X31277Y271297D01*
X31374Y271062D01*
X31484Y270812D01*
X31609Y270521D01*
X31734Y270202D01*
X31859Y269855D01*
X31998Y269481D01*
X32136Y269079D01*
X32289Y268635D01*
Y268621D01*
Y268607D01*
Y268565D01*
X32303Y268510D01*
X32317Y268371D01*
X32331Y268191D01*
Y268177D01*
X32344Y268149D01*
X32358Y268108D01*
X32372Y268038D01*
X32400Y267955D01*
X32414Y267858D01*
X32441Y267733D01*
X32483Y267608D01*
X32552Y267303D01*
X32636Y266957D01*
X32719Y266568D01*
X32816Y266138D01*
X32899Y265681D01*
X32982Y265209D01*
X33066Y264710D01*
X33135Y264197D01*
X33204Y263684D01*
X33246Y263184D01*
X33273Y262685D01*
X33287Y262200D01*
Y262158D01*
X33273Y262130D01*
X33260Y262089D01*
X33246Y262033D01*
X33232Y261950D01*
Y261936D01*
Y261908D01*
X33218Y261825D01*
X33204Y261728D01*
X33190Y261687D01*
Y261673D01*
Y261659D01*
Y261631D01*
Y261590D01*
X33177Y261520D01*
X33163Y261451D01*
X33149Y261354D01*
X33135Y261229D01*
X33093Y261104D01*
X33066Y260965D01*
X33010Y260813D01*
X32885Y260452D01*
X32802Y260258D01*
X32705Y260050D01*
X32580Y259828D01*
X32455Y259606D01*
X32441D01*
X32428Y259579D01*
X32386Y259565D01*
X32331Y259523D01*
X32206Y259454D01*
X32053Y259357D01*
X31873Y259273D01*
X31706Y259190D01*
X31554Y259135D01*
X31429Y259121D01*
X31346D01*
X31277Y259135D01*
X31193Y259149D01*
X31096Y259176D01*
X30874Y259246D01*
X30749Y259287D01*
X30611Y259357D01*
X30458Y259426D01*
X30306Y259523D01*
X30153Y259634D01*
X30001Y259759D01*
X29834Y259911D01*
X29682Y260078D01*
X29668Y260106D01*
X29640Y260133D01*
X29612Y260175D01*
X29557Y260230D01*
X29501Y260300D01*
X29446Y260397D01*
X29363Y260508D01*
X29266Y260633D01*
X29169Y260785D01*
X29044Y260965D01*
X28905Y261160D01*
X28766Y261395D01*
X28600Y261645D01*
X28420Y261922D01*
X28225Y262241D01*
X28212D01*
X28184Y262227D01*
X28156Y262200D01*
X28128Y262158D01*
X28101Y262103D01*
X28073Y262020D01*
X28045Y261908D01*
Y261881D01*
X28031Y261825D01*
X28017Y261728D01*
X28004Y261631D01*
X27990Y261520D01*
X27976Y261423D01*
X27962Y261354D01*
X27948Y261326D01*
Y261312D01*
X27934Y261284D01*
X27893Y261201D01*
X27837Y261118D01*
X27809Y261090D01*
X27796Y261076D01*
Y261063D01*
Y261049D01*
X27809Y261021D01*
X27837Y260993D01*
Y260979D01*
X27851Y260965D01*
Y260910D01*
Y260896D01*
X27837Y260841D01*
X27823Y260757D01*
X27768Y260660D01*
Y260646D01*
Y260633D01*
X27740Y260549D01*
X27698Y260425D01*
X27643Y260272D01*
X27546Y260064D01*
X27407Y259828D01*
X27227Y259579D01*
X27005Y259301D01*
X26991Y259287D01*
X26977Y259273D01*
X26894Y259176D01*
X26769Y259052D01*
X26603Y258899D01*
X26409Y258746D01*
X26214Y258608D01*
X25993Y258483D01*
X25896Y258441D01*
X25785Y258414D01*
X25771D01*
X25729Y258400D01*
X25660Y258386D01*
X25577Y258372D01*
X25369Y258344D01*
X25147Y258330D01*
X25105D01*
X25050Y258344D01*
X24980Y258358D01*
X24883Y258386D01*
X24786Y258428D01*
X24675Y258483D01*
X24550Y258552D01*
Y258566D01*
X24523Y258580D01*
X24495Y258622D01*
X24453Y258677D01*
X24398Y258746D01*
X24328Y258830D01*
X24162Y259038D01*
X24148D01*
X24134Y259052D01*
X24093Y259079D01*
X24037Y259107D01*
X23912Y259204D01*
X23746Y259329D01*
X23732Y259357D01*
X23691Y259412D01*
X23635Y259509D01*
X23566Y259634D01*
X23482Y259787D01*
X23385Y259967D01*
X23274Y260147D01*
X23177Y260341D01*
X22956Y260744D01*
X22858Y260938D01*
X22775Y261132D01*
X22706Y261298D01*
X22650Y261451D01*
X22609Y261576D01*
X22595Y261673D01*
Y261687D01*
X22609Y261728D01*
X22636Y261784D01*
X22706Y261881D01*
X22539Y262047D01*
X22512Y262075D01*
X22456Y262130D01*
X22401Y262214D01*
X22387Y262241D01*
X22373Y262269D01*
Y262297D01*
X22401Y262366D01*
Y262380D01*
X22415Y262394D01*
X22429Y262408D01*
Y262422D01*
Y262435D01*
X22401Y262491D01*
X22373Y262519D01*
X22331Y262560D01*
X22276Y262602D01*
X22207Y262644D01*
Y263226D01*
X22331Y263101D01*
X22345Y263115D01*
X22387Y263171D01*
X22415Y263268D01*
X22429Y263337D01*
Y263420D01*
Y263434D01*
Y263448D01*
X22415Y263531D01*
X22387Y263670D01*
X22331Y263822D01*
X22304Y263795D01*
X22262Y263739D01*
X22220Y263684D01*
X22165Y263628D01*
Y263642D01*
X22151Y263656D01*
X22096Y263739D01*
X22040Y263878D01*
X21957Y264016D01*
X21888Y264183D01*
X21818Y264335D01*
X21763Y264474D01*
X21749Y264585D01*
Y264599D01*
X21763Y264641D01*
X21777Y264696D01*
Y264710D01*
X21790Y264751D01*
X21804Y264793D01*
Y264821D01*
X21790Y264862D01*
X21777Y264904D01*
X21749Y264946D01*
X21721Y265015D01*
X21680Y265112D01*
Y265126D01*
X21666Y265154D01*
X21624Y265251D01*
X21583Y265348D01*
X21569Y265389D01*
Y265403D01*
Y265417D01*
Y265445D01*
X21583Y265487D01*
X21596Y265542D01*
X21652Y265667D01*
X21693Y265709D01*
X21749Y265750D01*
X21735Y265764D01*
X21721Y265792D01*
X21666Y265875D01*
X21596Y265958D01*
X21583Y266000D01*
X21569Y266014D01*
Y266027D01*
X21583Y266069D01*
X21596Y266124D01*
X21610Y266138D01*
X21624Y266166D01*
X21638Y266208D01*
Y266236D01*
Y266249D01*
Y266277D01*
X21610Y266360D01*
X21583Y266416D01*
X21541Y266457D01*
X21485Y266485D01*
X21416Y266499D01*
X21388D01*
X21347Y266485D01*
X21291Y266471D01*
X20556Y269855D01*
X20570Y269883D01*
X20584Y269952D01*
X20612Y270063D01*
X20639Y270188D01*
X20681Y270313D01*
X20709Y270424D01*
X20736Y270507D01*
X20750Y270562D01*
Y270576D01*
X20778Y270618D01*
X20806Y270687D01*
X20847Y270757D01*
X20903Y270840D01*
X20972Y270923D01*
X21069Y270992D01*
X21166Y271048D01*
X21180D01*
X21222Y271034D01*
X21513D01*
X21596Y271048D01*
X21693D01*
X21804Y271062D01*
X21929Y271075D01*
X21943D01*
X21971Y271089D01*
X22012D01*
X22082Y271103D01*
X22165Y271131D01*
X22262Y271145D01*
X22387Y271159D01*
X22512Y271187D01*
X22664Y271200D01*
X22831Y271228D01*
X23011Y271242D01*
X23205Y271256D01*
X23413Y271270D01*
X23621Y271284D01*
X24107Y271297D01*
X24162D01*
X24204Y271311D01*
X24259D01*
X24328Y271325D01*
X24425Y271339D01*
X24467D01*
X24523Y271353D01*
X24578D01*
X24689Y271367D01*
X24717Y271381D01*
X24855D01*
X24994Y271367D01*
X25188D01*
X25424Y271339D01*
X25701Y271311D01*
X26034Y271284D01*
X26409Y271228D01*
X26464D01*
X26534Y271242D01*
X26631Y271270D01*
X26644D01*
X26700Y271256D01*
X26783Y271242D01*
X26922Y271214D01*
X27005Y271200D01*
X27102Y271187D01*
X27227Y271173D01*
X27352Y271145D01*
X27490Y271131D01*
X27657Y271103D01*
X27837Y271075D01*
X28031Y271048D01*
X28073D01*
X28128Y271034D01*
X28198Y271020D01*
X28364Y271006D01*
X28572Y270979D01*
X28766Y270951D01*
X28960Y270937D01*
X29044Y270923D01*
X29113Y270909D01*
X29266D01*
X29321Y270923D01*
X29446Y270965D01*
X29585Y271034D01*
Y271048D01*
X29571Y271075D01*
X29557Y271131D01*
Y271187D01*
X29543Y271270D01*
X29529Y271367D01*
X29515Y271589D01*
Y271602D01*
Y271616D01*
Y271658D01*
X29529Y271714D01*
X29557Y271838D01*
X29612Y271977D01*
X29695Y272129D01*
X29834Y272254D01*
X29931Y272310D01*
X30028Y272351D01*
X30139Y272365D01*
X30278Y272379D01*
X30347D01*
X30431Y272365D01*
D02*
G37*
G36*
X22137Y257027D02*
X22193Y257013D01*
X22262Y256985D01*
X22359Y256944D01*
X22456Y256888D01*
X22470Y256874D01*
X22512Y256860D01*
X22567Y256819D01*
X22636Y256763D01*
X22706Y256708D01*
X22761Y256639D01*
X22803Y256569D01*
X22817Y256486D01*
Y256472D01*
Y256458D01*
X22803Y256417D01*
Y256361D01*
X22789Y256236D01*
X22761Y256084D01*
X22747Y255917D01*
X22720Y255765D01*
X22706Y255640D01*
Y255598D01*
Y255557D01*
X22692Y255543D01*
X22636Y255501D01*
X22553Y255432D01*
X22442Y255363D01*
X22304Y255293D01*
X22123Y255224D01*
X21929Y255182D01*
X21693Y255168D01*
X21583D01*
X21472Y255182D01*
X21347Y255210D01*
Y255224D01*
X21333Y255238D01*
X21291Y255321D01*
X21236Y255460D01*
X21180Y255612D01*
X21111Y255806D01*
X21056Y255987D01*
X21014Y256181D01*
X21000Y256361D01*
Y256375D01*
X21028Y256417D01*
X21069Y256500D01*
X21111Y256569D01*
X21166Y256639D01*
X21180Y256652D01*
X21194Y256666D01*
X21263Y256749D01*
X21319Y256833D01*
X21347Y256874D01*
X21361Y256888D01*
X21374D01*
X21416Y256916D01*
X21485Y256944D01*
X21583Y256971D01*
X21680Y256999D01*
X21790Y257027D01*
X21915Y257041D01*
X22026Y257055D01*
X22054D01*
X22137Y257027D01*
D02*
G37*
G36*
X25701Y256320D02*
X25743Y256306D01*
X25812Y256292D01*
X25826D01*
X25840Y256278D01*
X25909Y256264D01*
X25979Y256250D01*
X26020D01*
Y256236D01*
X26034Y256195D01*
X26062Y256125D01*
X26117Y256014D01*
Y256001D01*
X26131Y255973D01*
X26159Y255890D01*
X26173Y255779D01*
X26187Y255668D01*
Y255654D01*
Y255598D01*
X26173Y255529D01*
X26159Y255432D01*
X26131Y255321D01*
X26076Y255210D01*
X26020Y255085D01*
X25937Y254974D01*
X25923Y254960D01*
X25896Y254933D01*
X25854Y254877D01*
X25785Y254822D01*
X25715Y254766D01*
X25618Y254711D01*
X25521Y254683D01*
X25424Y254669D01*
X25341D01*
X25285Y254683D01*
X25147Y254711D01*
X24980Y254766D01*
X24814Y254849D01*
X24675Y254988D01*
X24620Y255071D01*
X24578Y255182D01*
X24550Y255293D01*
X24536Y255432D01*
Y255446D01*
Y255487D01*
X24550Y255543D01*
X24578Y255612D01*
X24620Y255709D01*
X24689Y255806D01*
X24772Y255917D01*
X24897Y256028D01*
X24911Y256042D01*
X24966Y256070D01*
X25036Y256125D01*
X25119Y256181D01*
X25230Y256236D01*
X25355Y256292D01*
X25466Y256320D01*
X25590Y256333D01*
X25632D01*
X25701Y256320D01*
D02*
G37*
G36*
X21846Y253463D02*
X21929Y253449D01*
X22068Y253407D01*
X22234Y253338D01*
X22429Y253255D01*
X22664Y253116D01*
X22928Y252936D01*
Y252367D01*
X22900Y252339D01*
X22831Y252284D01*
X22720Y252187D01*
X22581Y252090D01*
X22442Y251993D01*
X22304Y251896D01*
X22193Y251840D01*
X22096Y251812D01*
X22040D01*
X21971Y251798D01*
X21902D01*
X21818Y251785D01*
X21749Y251757D01*
X21693Y251729D01*
X21666Y251688D01*
X21638Y251701D01*
X21583Y251743D01*
X21499Y251826D01*
X21416Y251923D01*
X21319Y252048D01*
X21236Y252187D01*
X21180Y252353D01*
X21153Y252547D01*
Y252561D01*
Y252589D01*
Y252631D01*
X21166Y252686D01*
X21180Y252839D01*
X21236Y253005D01*
X21305Y253185D01*
X21416Y253324D01*
X21485Y253393D01*
X21569Y253435D01*
X21652Y253463D01*
X21763Y253477D01*
X21777D01*
X21846Y253463D01*
D02*
G37*
G36*
X29571Y243519D02*
X29709Y243505D01*
X29890Y243477D01*
X30084Y243436D01*
X30292Y243353D01*
X30486Y243256D01*
X30680Y243117D01*
X30694Y243103D01*
X30749Y243061D01*
X30819Y242978D01*
X30930Y242853D01*
X31068Y242673D01*
X31152Y242576D01*
X31249Y242451D01*
X31346Y242326D01*
X31457Y242174D01*
X31568Y242021D01*
X31693Y241841D01*
Y241827D01*
X31706Y241799D01*
X31720Y241758D01*
X31734Y241716D01*
X31748Y241647D01*
X31776Y241564D01*
X31790Y241467D01*
X31831Y241342D01*
X31859Y241189D01*
X31901Y241009D01*
X31942Y240815D01*
X31998Y240579D01*
X32053Y240302D01*
X32109Y239996D01*
Y239983D01*
X32122Y239913D01*
X32136Y239830D01*
X32164Y239705D01*
X32192Y239566D01*
X32220Y239400D01*
X32247Y239220D01*
X32275Y239026D01*
X32331Y238624D01*
X32386Y238221D01*
X32414Y238027D01*
X32428Y237861D01*
X32441Y237708D01*
Y237570D01*
Y237556D01*
Y237500D01*
Y237431D01*
Y237334D01*
Y237195D01*
Y237056D01*
X32428Y236890D01*
Y236696D01*
X32414Y236502D01*
Y236280D01*
X32386Y235822D01*
X32344Y235337D01*
X32303Y234851D01*
X32289Y234837D01*
X32261Y234782D01*
X32220Y234685D01*
X32164Y234546D01*
Y234532D01*
Y234518D01*
Y234477D01*
X32150Y234421D01*
X32122Y234283D01*
X32067Y234088D01*
X31984Y233867D01*
X31845Y233589D01*
X31762Y233451D01*
X31665Y233298D01*
X31554Y233132D01*
X31415Y232965D01*
X31401Y232951D01*
X31387Y232924D01*
X31346Y232882D01*
X31290Y232813D01*
X31152Y232674D01*
X30971Y232494D01*
X30763Y232299D01*
X30528Y232133D01*
X30278Y231980D01*
X30167Y231939D01*
X30042Y231897D01*
X30015Y231883D01*
X29987Y231870D01*
X29945Y231856D01*
X29890Y231828D01*
X29820Y231800D01*
X29806D01*
X29793Y231786D01*
X29709Y231745D01*
X29640Y231703D01*
X29612Y231689D01*
X29543D01*
X29515Y231675D01*
X29446D01*
X29376Y231661D01*
X29279Y231648D01*
X29266D01*
X29238Y231634D01*
X29182D01*
X29127Y231620D01*
X29016Y231606D01*
X28877D01*
X28836Y231620D01*
X28766Y231634D01*
X28697Y231648D01*
X28600Y231675D01*
X28489Y231717D01*
X28378Y231759D01*
X28239Y231814D01*
X28087Y231883D01*
X27934Y231967D01*
X27754Y232064D01*
X27560Y232175D01*
X27366Y232299D01*
X27144Y232452D01*
X27130Y232466D01*
X27102Y232494D01*
X27047Y232549D01*
X26963Y232660D01*
X26866Y232799D01*
X26811Y232896D01*
X26755Y232993D01*
X26686Y233118D01*
X26617Y233256D01*
X26534Y233409D01*
X26450Y233575D01*
X26436Y233589D01*
X26395Y233617D01*
X26339Y233686D01*
X26256Y233769D01*
X26159Y233894D01*
X26048Y234047D01*
X25909Y234241D01*
X25771Y234463D01*
Y234491D01*
X25743Y234560D01*
X25701Y234671D01*
X25660Y234823D01*
X25590Y235018D01*
X25507Y235267D01*
X25396Y235545D01*
X25285Y235864D01*
X25271Y235877D01*
X25258Y235919D01*
X25216Y235989D01*
X25161Y236086D01*
X25105Y236210D01*
X25022Y236363D01*
X24925Y236543D01*
X24828Y236751D01*
Y236793D01*
X24814Y236848D01*
X24800Y236904D01*
Y236973D01*
X24786Y237043D01*
X24758Y237140D01*
X24745Y237264D01*
X24717Y237403D01*
X24703Y237556D01*
X24661Y237750D01*
X24634Y237958D01*
X24592Y238194D01*
Y238207D01*
X24578Y238235D01*
Y238291D01*
X24564Y238360D01*
X24523Y238540D01*
X24481Y238734D01*
X24412Y238929D01*
X24342Y239109D01*
X24301Y239178D01*
X24259Y239234D01*
X24218Y239261D01*
X24162Y239275D01*
X24148D01*
X24107Y239261D01*
X24051Y239220D01*
X23954Y239164D01*
X23829Y239053D01*
X23760Y238970D01*
X23677Y238887D01*
X23579Y238776D01*
X23482Y238651D01*
X23372Y238512D01*
X23247Y238346D01*
Y238332D01*
X23219Y238318D01*
X23191Y238277D01*
X23163Y238221D01*
X23066Y238097D01*
X22969Y237930D01*
X22845Y237750D01*
X22747Y237583D01*
X22650Y237431D01*
X22595Y237306D01*
Y237292D01*
X22581Y237264D01*
X22553Y237223D01*
X22525Y237167D01*
X22498Y237084D01*
X22442Y236973D01*
X22387Y236848D01*
X22331Y236710D01*
X22248Y236543D01*
X22165Y236363D01*
X22068Y236155D01*
X21971Y235919D01*
X21860Y235669D01*
X21735Y235406D01*
X21596Y235101D01*
X21444Y234782D01*
X21042Y233561D01*
Y233548D01*
X21028Y233520D01*
X21000Y233492D01*
X20972Y233437D01*
X20903Y233312D01*
X20806Y233159D01*
X20667Y233007D01*
X20529Y232868D01*
X20362Y232771D01*
X20279Y232743D01*
X20182Y232729D01*
X20168D01*
X20140Y232757D01*
X20071Y232826D01*
X19988Y232951D01*
X19960Y233021D01*
X19946Y233118D01*
X19960Y233146D01*
Y233187D01*
X19974Y233229D01*
X19988Y233298D01*
X20001Y233395D01*
Y233409D01*
X20015Y233437D01*
Y233492D01*
X20029Y233534D01*
X20043Y233659D01*
Y233700D01*
Y233728D01*
Y233742D01*
Y233769D01*
Y233825D01*
Y233894D01*
X20057Y233978D01*
X20071Y234088D01*
X20099Y234324D01*
X20140Y234602D01*
X20210Y234907D01*
X20307Y235212D01*
X20431Y235531D01*
X20445Y235559D01*
X20459Y235586D01*
X20473Y235628D01*
X20487Y235683D01*
X20529Y235753D01*
X20556Y235836D01*
X20612Y235947D01*
X20667Y236072D01*
X20736Y236238D01*
X20820Y236418D01*
X20917Y236626D01*
X21028Y236862D01*
X21153Y237140D01*
X21166Y237153D01*
X21194Y237195D01*
X21236Y237278D01*
X21305Y237375D01*
X21388Y237514D01*
X21499Y237680D01*
X21624Y237875D01*
X21763Y238097D01*
X21777Y238124D01*
X21818Y238180D01*
X21888Y238277D01*
X21971Y238388D01*
X22068Y238512D01*
X22179Y238637D01*
X22304Y238762D01*
X22415Y238859D01*
Y238873D01*
Y238915D01*
X22429Y238998D01*
X22456Y239109D01*
X22470Y239123D01*
X22525Y239164D01*
X22609Y239234D01*
X22720Y239359D01*
X22789Y239442D01*
X22858Y239525D01*
X22942Y239636D01*
X23039Y239761D01*
X23136Y239899D01*
X23233Y240052D01*
X23344Y240218D01*
X23469Y240413D01*
Y240426D01*
X23496Y240454D01*
X23524Y240496D01*
X23566Y240551D01*
X23663Y240704D01*
X23788Y240856D01*
X23940Y241023D01*
X24079Y241175D01*
X24162Y241231D01*
X24231Y241272D01*
X24301Y241300D01*
X24356Y241314D01*
X24384Y241300D01*
X24425Y241286D01*
X24481Y241259D01*
X24578Y241231D01*
X24689Y241189D01*
X24842Y241120D01*
X25036Y241050D01*
Y241037D01*
X25050Y240981D01*
X25064Y240912D01*
X25091Y240801D01*
X25119Y240662D01*
X25161Y240482D01*
X25202Y240288D01*
X25258Y240066D01*
X25313Y239830D01*
X25369Y239553D01*
X25438Y239261D01*
X25521Y238942D01*
X25590Y238596D01*
X25687Y238235D01*
X25771Y237861D01*
X25868Y237458D01*
Y237445D01*
X25882Y237403D01*
X25896Y237348D01*
X25909Y237237D01*
X25951Y237098D01*
X25993Y236904D01*
X26048Y236668D01*
X26076Y236529D01*
X26117Y236377D01*
X26131Y236349D01*
Y236321D01*
X26159Y236266D01*
X26173Y236210D01*
X26214Y236127D01*
X26256Y236044D01*
X26298Y235933D01*
X26367Y235808D01*
X26436Y235669D01*
X26520Y235517D01*
X26631Y235337D01*
X26741Y235142D01*
X26866Y234935D01*
X27019Y234699D01*
X27185Y234449D01*
X27199Y234435D01*
X27241Y234380D01*
X27296Y234296D01*
X27380Y234186D01*
X27477Y234047D01*
X27601Y233908D01*
X27865Y233589D01*
X28170Y233270D01*
X28336Y233132D01*
X28503Y232993D01*
X28655Y232882D01*
X28822Y232799D01*
X28974Y232743D01*
X29127Y232729D01*
X29155D01*
X29238Y232743D01*
X29376Y232757D01*
X29543Y232799D01*
X29737Y232882D01*
X29945Y232993D01*
X30153Y233132D01*
X30264Y233229D01*
X30375Y233340D01*
X30389D01*
X30403Y233367D01*
X30472Y233451D01*
X30569Y233575D01*
X30680Y233742D01*
X30805Y233964D01*
X30930Y234213D01*
X31027Y234491D01*
X31096Y234810D01*
X31110Y234823D01*
X31124Y234879D01*
X31152Y234935D01*
X31179Y235018D01*
X31221Y235184D01*
X31249Y235254D01*
Y235295D01*
Y235323D01*
Y235364D01*
Y235406D01*
Y235489D01*
Y235572D01*
X31263Y235683D01*
Y235822D01*
Y235836D01*
Y235905D01*
Y235989D01*
Y236099D01*
Y236349D01*
Y236474D01*
Y236585D01*
X31277Y237445D01*
Y237458D01*
Y237486D01*
X31263Y237528D01*
X31249Y237542D01*
X31207D01*
X31179Y237556D01*
X31165Y237570D01*
Y237583D01*
Y237597D01*
Y237680D01*
Y237805D01*
Y237930D01*
Y237944D01*
Y238013D01*
Y238097D01*
Y238194D01*
X31152Y238402D01*
X31138Y238499D01*
X31124Y238568D01*
Y238582D01*
X31096Y238637D01*
X31068Y238721D01*
X31027Y238845D01*
X30971Y238998D01*
X30888Y239206D01*
X30791Y239442D01*
X30680Y239719D01*
Y239733D01*
X30666Y239788D01*
X30638Y239872D01*
X30611Y239996D01*
X30569Y240149D01*
X30528Y240315D01*
X30472Y240510D01*
X30403Y240732D01*
X30389Y240759D01*
X30361Y240815D01*
X30320Y240898D01*
X30264Y241009D01*
X30195Y241106D01*
X30111Y241203D01*
X30028Y241286D01*
X29945Y241328D01*
X29931D01*
X29890Y241342D01*
X29806Y241369D01*
X29709Y241397D01*
X29571Y241425D01*
X29418Y241467D01*
X29238Y241508D01*
X29030Y241550D01*
X28808Y241605D01*
X28558Y241647D01*
X28295Y241702D01*
X28004Y241744D01*
X27712Y241786D01*
X27393Y241827D01*
X27060Y241869D01*
X26714Y241896D01*
X26644D01*
X26547Y241882D01*
X26256D01*
X26062Y241869D01*
X25271D01*
X25258Y241882D01*
X25188Y241896D01*
X25077Y241938D01*
X24911Y242007D01*
X24883D01*
X24800Y242035D01*
X24675Y242049D01*
X24509Y242077D01*
X24328Y242104D01*
X24134Y242132D01*
X23926Y242146D01*
X23732Y242160D01*
X23469D01*
X23025Y242104D01*
X22914D01*
X22831Y242091D01*
X22082D01*
X21902Y242118D01*
X21693Y242146D01*
X21485Y242188D01*
X21319Y242271D01*
X21236Y242313D01*
X21180Y242368D01*
X21153Y242437D01*
X21139Y242507D01*
Y242521D01*
X21153Y242548D01*
X21166Y242576D01*
X21180Y242631D01*
X21208Y242715D01*
X21250Y242812D01*
Y242826D01*
X21263Y242853D01*
X21291Y242909D01*
X21305Y242964D01*
X21347Y243089D01*
X21361Y243131D01*
Y243158D01*
X21402D01*
X21444Y243172D01*
X21513Y243186D01*
X21596Y243200D01*
X21707D01*
X21832Y243214D01*
X21985Y243228D01*
X22151Y243242D01*
X22345Y243256D01*
X22567Y243269D01*
X22803Y243283D01*
X23066Y243297D01*
X23344D01*
X23649Y243311D01*
X24009D01*
X24065Y243297D01*
X24148D01*
X24218Y243283D01*
X24301D01*
X24398Y243269D01*
X24509Y243256D01*
X24634Y243242D01*
X24786Y243228D01*
X24952Y243214D01*
X25147Y243186D01*
X25161D01*
X25216Y243172D01*
X25285D01*
X25396Y243158D01*
X25521Y243145D01*
X25660Y243131D01*
X25826Y243117D01*
X26007Y243089D01*
X26381Y243048D01*
X26769Y242992D01*
X27158Y242950D01*
X27352Y242923D01*
X27518Y242895D01*
X27546Y242881D01*
X27601Y242867D01*
X27712Y242840D01*
X27851Y242798D01*
X28017Y242756D01*
X28212Y242701D01*
X28433Y242645D01*
X28669Y242590D01*
X29016D01*
X29030Y242604D01*
X29071Y242645D01*
X29099Y242701D01*
X29127Y242729D01*
X29113Y242756D01*
X29099Y242784D01*
X29085Y242826D01*
X29058Y242881D01*
X29016Y242950D01*
Y242964D01*
X29002Y242978D01*
X28974Y243061D01*
X28933Y243145D01*
X28919Y243186D01*
Y243214D01*
Y243242D01*
X28947Y243297D01*
X28974Y243325D01*
X29030Y243367D01*
X29085Y243422D01*
X29169Y243463D01*
X29182D01*
X29196Y243477D01*
X29266Y243491D01*
X29363Y243519D01*
X29446Y243533D01*
X29515D01*
X29571Y243519D01*
D02*
G37*
G36*
X23524Y231883D02*
X23649D01*
X23940Y231828D01*
X24079Y231800D01*
X24190Y231745D01*
X24218Y231731D01*
X24273Y231689D01*
X24384Y231620D01*
X24509Y231523D01*
X24675Y231398D01*
X24842Y231245D01*
X25036Y231051D01*
X25230Y230816D01*
X25424Y230538D01*
X25618Y230233D01*
X25785Y229886D01*
X25951Y229498D01*
X26076Y229054D01*
X26187Y228569D01*
X26242Y228042D01*
X26270Y227459D01*
Y227446D01*
Y227418D01*
Y227362D01*
X26256Y227279D01*
Y227196D01*
X26242Y227099D01*
X26214Y226863D01*
X26145Y226613D01*
X26062Y226350D01*
X25951Y226100D01*
X25785Y225878D01*
X25771Y225865D01*
X25715Y225809D01*
X25646Y225726D01*
X25535Y225629D01*
X25396Y225504D01*
X25244Y225365D01*
X25064Y225227D01*
X24869Y225074D01*
X24855D01*
X24842Y225060D01*
X24800D01*
X24745Y225046D01*
X24675Y225032D01*
X24606D01*
X24398Y225019D01*
X24148D01*
X23982Y225032D01*
X23954D01*
X23871Y225046D01*
X23760Y225060D01*
X23621Y225088D01*
X23482Y225130D01*
X23344Y225185D01*
X23233Y225254D01*
X23163Y225338D01*
Y225351D01*
Y225421D01*
X23150Y225532D01*
Y225601D01*
Y225698D01*
X23136Y225795D01*
X23122Y225920D01*
X23108Y226059D01*
X23094Y226211D01*
X23080Y226378D01*
X23052Y226572D01*
X23025Y226780D01*
X22997Y227016D01*
X22817Y228291D01*
X22803Y228305D01*
X22789Y228361D01*
X22775Y228444D01*
X22747Y228555D01*
X22706Y228721D01*
X22692Y228832D01*
X22664Y228943D01*
X22678Y228957D01*
X22692Y228985D01*
X22706Y229027D01*
Y229068D01*
X22720Y229137D01*
X22734Y229221D01*
Y229332D01*
X22720Y229345D01*
X22678Y229387D01*
X22650Y229415D01*
X22623Y229443D01*
X22609D01*
X22581Y229415D01*
X22539Y229359D01*
X22512Y229318D01*
X22470Y229248D01*
X22429Y229179D01*
X22387Y229082D01*
X22345Y228957D01*
X22290Y228805D01*
X22220Y228638D01*
X22165Y228444D01*
X22082Y228208D01*
X22012Y227945D01*
Y227931D01*
Y227875D01*
X21999Y227792D01*
Y227667D01*
X21985Y227529D01*
X21971Y227376D01*
X21943Y227196D01*
X21929Y227016D01*
Y227002D01*
Y226974D01*
X21915Y226932D01*
X21902Y226877D01*
X21874Y226738D01*
X21832Y226572D01*
X21777Y226405D01*
X21693Y226267D01*
X21652Y226211D01*
X21596Y226170D01*
X21541Y226142D01*
X21485Y226128D01*
X21472Y226142D01*
X21444Y226156D01*
X21416Y226197D01*
X21361Y226253D01*
X21305Y226350D01*
X21222Y226489D01*
X21125Y226669D01*
X21111Y226683D01*
X21083Y226710D01*
X21042Y226752D01*
X21000Y226808D01*
X20931Y226877D01*
X20847Y226960D01*
Y226988D01*
Y227043D01*
X20834Y227127D01*
X20820Y227210D01*
Y227307D01*
X20806Y227390D01*
X20792Y227446D01*
Y227459D01*
Y227473D01*
Y227501D01*
Y227556D01*
X20806Y227654D01*
Y227778D01*
X20820Y227945D01*
X20834Y228056D01*
Y228181D01*
X20889Y228930D01*
Y228943D01*
Y228971D01*
X20903Y229027D01*
X20917Y229110D01*
X20944Y229207D01*
X20986Y229345D01*
X21042Y229498D01*
X21125Y229692D01*
X21139Y229720D01*
X21153Y229748D01*
X21180Y229803D01*
X21222Y229886D01*
X21277Y229997D01*
X21361Y230136D01*
X21444Y230302D01*
X21458Y230330D01*
X21485Y230399D01*
X21541Y230524D01*
X21624Y230663D01*
X21735Y230843D01*
X21874Y231024D01*
X22040Y231218D01*
X22248Y231412D01*
X22276Y231426D01*
X22345Y231481D01*
X22456Y231565D01*
X22595Y231648D01*
X22761Y231745D01*
X22942Y231814D01*
X23136Y231870D01*
X23316Y231897D01*
X23413D01*
X23524Y231883D01*
D02*
G37*
G36*
X25271Y224297D02*
X25313Y224284D01*
X25369Y224256D01*
X25507Y224186D01*
X25674Y224103D01*
X25826Y224006D01*
X25965Y223895D01*
X26020Y223840D01*
X26062Y223784D01*
X26090Y223729D01*
X26104Y223673D01*
X26076Y223646D01*
X26034Y223604D01*
X25979Y223562D01*
X25923Y223521D01*
X25854Y223465D01*
X25757Y223396D01*
X25646Y223313D01*
X25507Y223216D01*
X25341Y223091D01*
X25147Y222966D01*
X24925Y222813D01*
X24675Y222647D01*
X24661Y222633D01*
X24620Y222605D01*
X24550Y222564D01*
X24453Y222495D01*
X24342Y222425D01*
X24218Y222342D01*
X23968Y222162D01*
X23704Y221968D01*
X23579Y221884D01*
X23469Y221801D01*
X23385Y221732D01*
X23302Y221662D01*
X23261Y221621D01*
X23247Y221593D01*
Y221565D01*
X23261Y221524D01*
X23288Y221468D01*
X23330Y221371D01*
X23385Y221260D01*
X23469Y221108D01*
X23579Y220914D01*
X23593Y220886D01*
X23635Y220816D01*
X23691Y220719D01*
X23760Y220608D01*
X23843Y220484D01*
X23926Y220359D01*
X23996Y220262D01*
X24065Y220179D01*
X24079Y220151D01*
X24107Y220095D01*
X24162Y219998D01*
X24245Y219846D01*
X24342Y219665D01*
X24481Y219457D01*
X24620Y219208D01*
X24800Y218930D01*
X24814Y218916D01*
X24828Y218903D01*
X24869Y218861D01*
X24925Y218792D01*
X24994Y218708D01*
X25064Y218611D01*
X25161Y218487D01*
X25271Y218334D01*
Y218320D01*
X25285Y218306D01*
X25299Y218265D01*
X25327Y218209D01*
X25355Y218140D01*
X25382Y218057D01*
X25452Y217862D01*
X25549Y217613D01*
X25646Y217308D01*
X25757Y216961D01*
X25868Y216587D01*
X25854Y216573D01*
X25826Y216545D01*
X25785Y216490D01*
X25729Y216434D01*
X25577Y216337D01*
X25493Y216309D01*
X25410Y216295D01*
X25382D01*
X25299Y216309D01*
X25174Y216365D01*
X25105Y216406D01*
X25036Y216462D01*
X25022Y216476D01*
X25008Y216503D01*
X24952Y216573D01*
X24869Y216670D01*
X24758Y216822D01*
X24689Y216919D01*
X24606Y217017D01*
X24523Y217141D01*
X24412Y217280D01*
X24287Y217446D01*
X24162Y217613D01*
X24093D01*
X24023Y217627D01*
X23940Y217641D01*
X23926Y217654D01*
X23912Y217682D01*
X23871Y217738D01*
X23815Y217793D01*
X23760Y217876D01*
X23691Y217987D01*
X23510Y218223D01*
X23302Y218500D01*
X23066Y218819D01*
X22817Y219152D01*
X22567Y219513D01*
X22304Y219860D01*
X22054Y220220D01*
X21818Y220539D01*
X21610Y220844D01*
X21430Y221108D01*
X21361Y221219D01*
X21305Y221330D01*
X21250Y221413D01*
X21208Y221482D01*
X21194Y221538D01*
X21180Y221565D01*
Y221593D01*
X21194Y221621D01*
X21222Y221676D01*
X21250Y221746D01*
X21291Y221829D01*
X21361Y221954D01*
X21458Y222092D01*
X21472Y222106D01*
X21499Y222162D01*
X21555Y222231D01*
X21610Y222314D01*
X21666Y222397D01*
X21735Y222467D01*
X21790Y222536D01*
X21832Y222578D01*
X21846Y222592D01*
X21902Y222619D01*
X21999Y222675D01*
X22109Y222744D01*
X22262Y222827D01*
X22429Y222911D01*
X22623Y223022D01*
X22831Y223132D01*
X23066Y223257D01*
X23302Y223382D01*
X23801Y223618D01*
X24315Y223867D01*
X24814Y224076D01*
X24828Y224089D01*
X24855Y224103D01*
X24911Y224145D01*
X24980Y224200D01*
X25008Y224214D01*
X25064Y224256D01*
X25147Y224297D01*
X25230Y224311D01*
X25244D01*
X25271Y224297D01*
D02*
G37*
G36*
X21846Y215477D02*
X21929Y215463D01*
X22068Y215422D01*
X22234Y215352D01*
X22429Y215269D01*
X22664Y215130D01*
X22928Y214950D01*
Y214382D01*
X22900Y214354D01*
X22831Y214298D01*
X22720Y214201D01*
X22581Y214104D01*
X22442Y214007D01*
X22304Y213910D01*
X22193Y213855D01*
X22096Y213827D01*
X22040D01*
X21971Y213813D01*
X21902D01*
X21818Y213799D01*
X21749Y213771D01*
X21693Y213744D01*
X21666Y213702D01*
X21638Y213716D01*
X21583Y213757D01*
X21499Y213841D01*
X21416Y213938D01*
X21319Y214062D01*
X21236Y214201D01*
X21180Y214368D01*
X21153Y214562D01*
Y214576D01*
Y214603D01*
Y214645D01*
X21166Y214701D01*
X21180Y214853D01*
X21236Y215019D01*
X21305Y215200D01*
X21416Y215338D01*
X21485Y215408D01*
X21569Y215449D01*
X21652Y215477D01*
X21763Y215491D01*
X21777D01*
X21846Y215477D01*
D02*
G37*
G36*
X30431Y213092D02*
X30528Y213078D01*
X30625Y213050D01*
X30722Y212995D01*
X30805Y212939D01*
X30874Y212856D01*
X30888Y212842D01*
X30902Y212801D01*
X30930Y212745D01*
X30985Y212648D01*
X31041Y212537D01*
X31110Y212384D01*
X31193Y212218D01*
X31277Y212024D01*
X31374Y211788D01*
X31484Y211539D01*
X31609Y211247D01*
X31734Y210928D01*
X31859Y210582D01*
X31998Y210207D01*
X32136Y209805D01*
X32289Y209361D01*
Y209347D01*
Y209333D01*
Y209292D01*
X32303Y209236D01*
X32317Y209098D01*
X32331Y208917D01*
Y208904D01*
X32344Y208876D01*
X32358Y208834D01*
X32372Y208765D01*
X32400Y208682D01*
X32414Y208584D01*
X32441Y208460D01*
X32483Y208335D01*
X32552Y208030D01*
X32636Y207683D01*
X32719Y207295D01*
X32816Y206865D01*
X32899Y206407D01*
X32982Y205936D01*
X33066Y205436D01*
X33135Y204923D01*
X33204Y204410D01*
X33246Y203911D01*
X33273Y203412D01*
X33287Y202926D01*
Y202885D01*
X33273Y202857D01*
X33260Y202815D01*
X33246Y202760D01*
X33232Y202677D01*
Y202663D01*
Y202635D01*
X33218Y202552D01*
X33204Y202455D01*
X33190Y202413D01*
Y202399D01*
Y202385D01*
Y202358D01*
Y202316D01*
X33177Y202247D01*
X33163Y202177D01*
X33149Y202080D01*
X33135Y201955D01*
X33093Y201831D01*
X33066Y201692D01*
X33010Y201539D01*
X32885Y201179D01*
X32802Y200985D01*
X32705Y200777D01*
X32580Y200555D01*
X32455Y200333D01*
X32441D01*
X32428Y200305D01*
X32386Y200291D01*
X32331Y200250D01*
X32206Y200180D01*
X32053Y200083D01*
X31873Y200000D01*
X31706Y199917D01*
X31554Y199861D01*
X31429Y199847D01*
X31346D01*
X31277Y199861D01*
X31193Y199875D01*
X31096Y199903D01*
X30874Y199972D01*
X30749Y200014D01*
X30611Y200083D01*
X30458Y200152D01*
X30306Y200250D01*
X30153Y200361D01*
X30001Y200485D01*
X29834Y200638D01*
X29682Y200804D01*
X29668Y200832D01*
X29640Y200860D01*
X29612Y200901D01*
X29557Y200957D01*
X29501Y201026D01*
X29446Y201123D01*
X29363Y201234D01*
X29266Y201359D01*
X29169Y201512D01*
X29044Y201692D01*
X28905Y201886D01*
X28766Y202122D01*
X28600Y202372D01*
X28420Y202649D01*
X28225Y202968D01*
X28212D01*
X28184Y202954D01*
X28156Y202926D01*
X28128Y202885D01*
X28101Y202829D01*
X28073Y202746D01*
X28045Y202635D01*
Y202607D01*
X28031Y202552D01*
X28017Y202455D01*
X28004Y202358D01*
X27990Y202247D01*
X27976Y202150D01*
X27962Y202080D01*
X27948Y202052D01*
Y202039D01*
X27934Y202011D01*
X27893Y201928D01*
X27837Y201845D01*
X27809Y201817D01*
X27796Y201803D01*
Y201789D01*
Y201775D01*
X27809Y201747D01*
X27837Y201720D01*
Y201706D01*
X27851Y201692D01*
Y201637D01*
Y201623D01*
X27837Y201567D01*
X27823Y201484D01*
X27768Y201387D01*
Y201373D01*
Y201359D01*
X27740Y201276D01*
X27698Y201151D01*
X27643Y200998D01*
X27546Y200791D01*
X27407Y200555D01*
X27227Y200305D01*
X27005Y200028D01*
X26991Y200014D01*
X26977Y200000D01*
X26894Y199903D01*
X26769Y199778D01*
X26603Y199625D01*
X26409Y199473D01*
X26214Y199334D01*
X25993Y199209D01*
X25896Y199168D01*
X25785Y199140D01*
X25771D01*
X25729Y199126D01*
X25660Y199112D01*
X25577Y199098D01*
X25369Y199071D01*
X25147Y199057D01*
X25105D01*
X25050Y199071D01*
X24980Y199085D01*
X24883Y199112D01*
X24786Y199154D01*
X24675Y199209D01*
X24550Y199279D01*
Y199293D01*
X24523Y199307D01*
X24495Y199348D01*
X24453Y199404D01*
X24398Y199473D01*
X24328Y199556D01*
X24162Y199764D01*
X24148D01*
X24134Y199778D01*
X24093Y199806D01*
X24037Y199834D01*
X23912Y199931D01*
X23746Y200056D01*
X23732Y200083D01*
X23691Y200139D01*
X23635Y200236D01*
X23566Y200361D01*
X23482Y200513D01*
X23385Y200693D01*
X23274Y200874D01*
X23177Y201068D01*
X22956Y201470D01*
X22858Y201664D01*
X22775Y201858D01*
X22706Y202025D01*
X22650Y202177D01*
X22609Y202302D01*
X22595Y202399D01*
Y202413D01*
X22609Y202455D01*
X22636Y202510D01*
X22706Y202607D01*
X22539Y202774D01*
X22512Y202801D01*
X22456Y202857D01*
X22401Y202940D01*
X22387Y202968D01*
X22373Y202996D01*
Y203023D01*
X22401Y203093D01*
Y203106D01*
X22415Y203120D01*
X22429Y203134D01*
Y203148D01*
Y203162D01*
X22401Y203217D01*
X22373Y203245D01*
X22331Y203287D01*
X22276Y203328D01*
X22207Y203370D01*
Y203953D01*
X22331Y203828D01*
X22345Y203841D01*
X22387Y203897D01*
X22415Y203994D01*
X22429Y204063D01*
Y204147D01*
Y204160D01*
Y204174D01*
X22415Y204258D01*
X22387Y204396D01*
X22331Y204549D01*
X22304Y204521D01*
X22262Y204466D01*
X22220Y204410D01*
X22165Y204355D01*
Y204368D01*
X22151Y204382D01*
X22096Y204466D01*
X22040Y204604D01*
X21957Y204743D01*
X21888Y204909D01*
X21818Y205062D01*
X21763Y205201D01*
X21749Y205312D01*
Y205325D01*
X21763Y205367D01*
X21777Y205422D01*
Y205436D01*
X21790Y205478D01*
X21804Y205520D01*
Y205547D01*
X21790Y205589D01*
X21777Y205631D01*
X21749Y205672D01*
X21721Y205742D01*
X21680Y205839D01*
Y205852D01*
X21666Y205880D01*
X21624Y205977D01*
X21583Y206074D01*
X21569Y206116D01*
Y206130D01*
Y206144D01*
Y206171D01*
X21583Y206213D01*
X21596Y206269D01*
X21652Y206393D01*
X21693Y206435D01*
X21749Y206476D01*
X21735Y206490D01*
X21721Y206518D01*
X21666Y206601D01*
X21596Y206684D01*
X21583Y206726D01*
X21569Y206740D01*
Y206754D01*
X21583Y206796D01*
X21596Y206851D01*
X21610Y206865D01*
X21624Y206893D01*
X21638Y206934D01*
Y206962D01*
Y206976D01*
Y207003D01*
X21610Y207087D01*
X21583Y207142D01*
X21541Y207184D01*
X21485Y207211D01*
X21416Y207225D01*
X21388D01*
X21347Y207211D01*
X21291Y207198D01*
X20556Y210582D01*
X20570Y210609D01*
X20584Y210679D01*
X20612Y210790D01*
X20639Y210914D01*
X20681Y211039D01*
X20709Y211150D01*
X20736Y211233D01*
X20750Y211289D01*
Y211303D01*
X20778Y211344D01*
X20806Y211414D01*
X20847Y211483D01*
X20903Y211566D01*
X20972Y211649D01*
X21069Y211719D01*
X21166Y211774D01*
X21180D01*
X21222Y211760D01*
X21513D01*
X21596Y211774D01*
X21693D01*
X21804Y211788D01*
X21929Y211802D01*
X21943D01*
X21971Y211816D01*
X22012D01*
X22082Y211830D01*
X22165Y211857D01*
X22262Y211871D01*
X22387Y211885D01*
X22512Y211913D01*
X22664Y211927D01*
X22831Y211954D01*
X23011Y211968D01*
X23205Y211982D01*
X23413Y211996D01*
X23621Y212010D01*
X24107Y212024D01*
X24162D01*
X24204Y212038D01*
X24259D01*
X24328Y212052D01*
X24425Y212066D01*
X24467D01*
X24523Y212079D01*
X24578D01*
X24689Y212093D01*
X24717Y212107D01*
X24855D01*
X24994Y212093D01*
X25188D01*
X25424Y212066D01*
X25701Y212038D01*
X26034Y212010D01*
X26409Y211954D01*
X26464D01*
X26534Y211968D01*
X26631Y211996D01*
X26644D01*
X26700Y211982D01*
X26783Y211968D01*
X26922Y211941D01*
X27005Y211927D01*
X27102Y211913D01*
X27227Y211899D01*
X27352Y211871D01*
X27490Y211857D01*
X27657Y211830D01*
X27837Y211802D01*
X28031Y211774D01*
X28073D01*
X28128Y211760D01*
X28198Y211747D01*
X28364Y211733D01*
X28572Y211705D01*
X28766Y211677D01*
X28960Y211663D01*
X29044Y211649D01*
X29113Y211636D01*
X29266D01*
X29321Y211649D01*
X29446Y211691D01*
X29585Y211760D01*
Y211774D01*
X29571Y211802D01*
X29557Y211857D01*
Y211913D01*
X29543Y211996D01*
X29529Y212093D01*
X29515Y212315D01*
Y212329D01*
Y212343D01*
Y212384D01*
X29529Y212440D01*
X29557Y212565D01*
X29612Y212703D01*
X29695Y212856D01*
X29834Y212981D01*
X29931Y213036D01*
X30028Y213078D01*
X30139Y213092D01*
X30278Y213106D01*
X30347D01*
X30431Y213092D01*
D02*
G37*
%LPC*%
G36*
X824757Y754688D02*
X824583D01*
X824202Y754653D01*
X823820Y754618D01*
X823472Y754549D01*
X823160Y754479D01*
X822917Y754410D01*
X822743Y754375D01*
X822604Y754306D01*
X822570D01*
X821910Y753958D01*
X821632Y753785D01*
X821389Y753576D01*
X821215Y753438D01*
X821077Y753299D01*
X820972Y753229D01*
X820938Y753195D01*
X820452Y752639D01*
X820104Y752083D01*
X820000Y751875D01*
X819896Y751702D01*
X819827Y751563D01*
Y751528D01*
X819688Y751146D01*
X819584Y750799D01*
X819514Y750452D01*
X819445Y750139D01*
Y749896D01*
X819410Y749688D01*
Y749549D01*
Y749514D01*
Y749132D01*
X819479Y748750D01*
X819549Y748403D01*
X819618Y748090D01*
X819688Y747847D01*
X819757Y747674D01*
X819792Y747535D01*
X819827Y747500D01*
X820000Y747153D01*
X820174Y746840D01*
X820347Y746528D01*
X820521Y746285D01*
X820695Y746111D01*
X820834Y745972D01*
X820903Y745868D01*
X820938Y745834D01*
X821493Y745382D01*
X822014Y745000D01*
X822222Y744896D01*
X822396Y744792D01*
X822535Y744757D01*
X822570Y744722D01*
X822917Y744584D01*
X823264Y744479D01*
X823611Y744410D01*
X823924Y744340D01*
X824202D01*
X824410Y744306D01*
X824965D01*
X825347Y744375D01*
X825695Y744445D01*
X826007Y744514D01*
X826250Y744584D01*
X826424Y744653D01*
X826563Y744688D01*
X826597Y744722D01*
X827257Y745070D01*
X827535Y745243D01*
X827778Y745417D01*
X827986Y745590D01*
X828125Y745729D01*
X828229Y745799D01*
X828264Y745834D01*
X828715Y746389D01*
X829063Y746910D01*
X829201Y747153D01*
X829306Y747327D01*
X829340Y747465D01*
X829375Y747500D01*
X829514Y747847D01*
X829618Y748195D01*
X829688Y748542D01*
X829722Y748854D01*
X829757Y749132D01*
X829792Y749340D01*
Y749479D01*
Y749514D01*
X829757Y749896D01*
X829722Y750278D01*
X829653Y750625D01*
X829583Y750903D01*
X829514Y751181D01*
X829445Y751354D01*
X829375Y751493D01*
Y751528D01*
X829028Y752188D01*
X828854Y752465D01*
X828646Y752708D01*
X828507Y752917D01*
X828368Y753056D01*
X828299Y753160D01*
X828264Y753195D01*
X827708Y753646D01*
X827153Y753993D01*
X826945Y754132D01*
X826771Y754236D01*
X826632Y754271D01*
X826597Y754306D01*
X826250Y754445D01*
X825903Y754514D01*
X825556Y754583D01*
X825243Y754653D01*
X824965D01*
X824757Y754688D01*
D02*
G37*
G36*
X822952Y736320D02*
X822396Y736111D01*
X822153Y735973D01*
X821945Y735868D01*
X821771Y735764D01*
X821632Y735660D01*
X821563Y735625D01*
X821528Y735591D01*
X821077Y735209D01*
X820695Y734861D01*
X820556Y734688D01*
X820452Y734584D01*
X820417Y734514D01*
X820382Y734480D01*
X820035Y733993D01*
X819792Y733507D01*
X819688Y733334D01*
X819618Y733195D01*
X819584Y733091D01*
Y733056D01*
X819410Y732466D01*
X819375Y732153D01*
X819340Y731910D01*
X819306Y731667D01*
Y731493D01*
Y731389D01*
Y731355D01*
X819340Y730730D01*
X819375Y730486D01*
X819445Y730209D01*
X819479Y730035D01*
X819549Y729862D01*
X819584Y729757D01*
Y729723D01*
X819827Y729167D01*
X819965Y728924D01*
X820070Y728716D01*
X820209Y728542D01*
X820278Y728403D01*
X820347Y728334D01*
X820382Y728299D01*
X820764Y727848D01*
X821146Y727500D01*
X821285Y727362D01*
X821424Y727257D01*
X821493Y727223D01*
X821528Y727188D01*
X822014Y726875D01*
X822500Y726632D01*
X822674Y726563D01*
X822813Y726493D01*
X822917Y726459D01*
X822952D01*
Y736320D01*
D02*
G37*
G36*
Y702258D02*
X822396Y702049D01*
X822153Y701910D01*
X821945Y701806D01*
X821771Y701702D01*
X821632Y701598D01*
X821563Y701563D01*
X821528Y701528D01*
X821077Y701146D01*
X820695Y700799D01*
X820556Y700626D01*
X820452Y700521D01*
X820417Y700452D01*
X820382Y700417D01*
X820035Y699931D01*
X819792Y699445D01*
X819688Y699272D01*
X819618Y699133D01*
X819584Y699028D01*
Y698994D01*
X819410Y698403D01*
X819375Y698091D01*
X819340Y697848D01*
X819306Y697605D01*
Y697431D01*
Y697327D01*
Y697292D01*
X819340Y696667D01*
X819375Y696424D01*
X819445Y696147D01*
X819479Y695973D01*
X819549Y695799D01*
X819584Y695695D01*
Y695660D01*
X819827Y695105D01*
X819965Y694862D01*
X820070Y694654D01*
X820209Y694480D01*
X820278Y694341D01*
X820347Y694272D01*
X820382Y694237D01*
X820764Y693785D01*
X821146Y693438D01*
X821285Y693299D01*
X821424Y693195D01*
X821493Y693160D01*
X821528Y693126D01*
X822014Y692813D01*
X822500Y692570D01*
X822674Y692501D01*
X822813Y692431D01*
X822917Y692397D01*
X822952D01*
Y702258D01*
D02*
G37*
G36*
X824757Y680244D02*
X824583D01*
X824202Y680209D01*
X823820Y680175D01*
X823472Y680105D01*
X823160Y680036D01*
X822917Y679966D01*
X822743Y679931D01*
X822604Y679862D01*
X822570D01*
X821910Y679515D01*
X821632Y679341D01*
X821389Y679133D01*
X821215Y678994D01*
X821077Y678855D01*
X820972Y678786D01*
X820938Y678751D01*
X820452Y678195D01*
X820104Y677640D01*
X820000Y677431D01*
X819896Y677258D01*
X819827Y677119D01*
Y677084D01*
X819688Y676702D01*
X819584Y676355D01*
X819514Y676008D01*
X819445Y675695D01*
Y675452D01*
X819410Y675244D01*
Y675105D01*
Y675070D01*
Y674688D01*
X819479Y674307D01*
X819549Y673959D01*
X819618Y673647D01*
X819688Y673404D01*
X819757Y673230D01*
X819792Y673091D01*
X819827Y673057D01*
X820000Y672709D01*
X820174Y672397D01*
X820347Y672084D01*
X820521Y671841D01*
X820695Y671668D01*
X820834Y671529D01*
X820903Y671425D01*
X820938Y671390D01*
X821493Y670939D01*
X822014Y670557D01*
X822222Y670452D01*
X822396Y670348D01*
X822535Y670314D01*
X822570Y670279D01*
X822917Y670140D01*
X823264Y670036D01*
X823611Y669966D01*
X823924Y669897D01*
X824202D01*
X824410Y669862D01*
X824965D01*
X825347Y669932D01*
X825695Y670001D01*
X826007Y670070D01*
X826250Y670140D01*
X826424Y670209D01*
X826563Y670244D01*
X826597Y670279D01*
X827257Y670626D01*
X827535Y670800D01*
X827778Y670973D01*
X827986Y671147D01*
X828125Y671286D01*
X828229Y671355D01*
X828264Y671390D01*
X828715Y671945D01*
X829063Y672466D01*
X829201Y672709D01*
X829306Y672883D01*
X829340Y673022D01*
X829375Y673057D01*
X829514Y673404D01*
X829618Y673751D01*
X829688Y674098D01*
X829722Y674411D01*
X829757Y674688D01*
X829792Y674897D01*
Y675036D01*
Y675070D01*
X829757Y675452D01*
X829722Y675834D01*
X829653Y676182D01*
X829583Y676459D01*
X829514Y676737D01*
X829445Y676911D01*
X829375Y677050D01*
Y677084D01*
X829028Y677744D01*
X828854Y678022D01*
X828646Y678265D01*
X828507Y678473D01*
X828368Y678612D01*
X828299Y678716D01*
X828264Y678751D01*
X827708Y679202D01*
X827153Y679550D01*
X826945Y679688D01*
X826771Y679793D01*
X826632Y679827D01*
X826597Y679862D01*
X826250Y680001D01*
X825903Y680070D01*
X825556Y680140D01*
X825243Y680209D01*
X824965D01*
X824757Y680244D01*
D02*
G37*
G36*
X824688Y662189D02*
X824514D01*
X824132Y662154D01*
X823750Y662119D01*
X823438Y662050D01*
X823125Y661980D01*
X822882Y661911D01*
X822709Y661842D01*
X822570Y661772D01*
X822535D01*
X821875Y661425D01*
X821597Y661251D01*
X821354Y661043D01*
X821181Y660904D01*
X821042Y660765D01*
X820938Y660696D01*
X820903Y660661D01*
X820417Y660105D01*
X820070Y659550D01*
X819931Y659342D01*
X819827Y659168D01*
X819792Y659029D01*
X819757Y658994D01*
X819618Y658612D01*
X819514Y658265D01*
X819445Y657918D01*
X819375Y657605D01*
Y657362D01*
X819340Y657154D01*
Y657015D01*
Y656980D01*
Y656599D01*
X819410Y656217D01*
X819479Y655869D01*
X819549Y655557D01*
X819618Y655314D01*
X819688Y655140D01*
X819722Y655001D01*
X819757Y654967D01*
X819931Y654619D01*
X820104Y654307D01*
X820313Y653994D01*
X820486Y653751D01*
X820660Y653578D01*
X820764Y653439D01*
X820868Y653335D01*
X820903Y653300D01*
X821459Y652849D01*
X821979Y652467D01*
X822188Y652362D01*
X822361Y652258D01*
X822500Y652224D01*
X822535Y652189D01*
X822882Y652050D01*
X823229Y651946D01*
X823577Y651876D01*
X823889Y651807D01*
X824132D01*
X824340Y651772D01*
X824896D01*
X825278Y651842D01*
X825625Y651911D01*
X825938Y651981D01*
X826181Y652050D01*
X826389Y652119D01*
X826528Y652154D01*
X826563Y652189D01*
X827222Y652536D01*
X827500Y652710D01*
X827743Y652883D01*
X827917Y653057D01*
X828056Y653196D01*
X828160Y653265D01*
X828195Y653300D01*
X828646Y653855D01*
X828993Y654376D01*
X829132Y654619D01*
X829236Y654793D01*
X829271Y654932D01*
X829306Y654967D01*
X829445Y655314D01*
X829549Y655661D01*
X829618Y656008D01*
X829653Y656321D01*
X829688Y656599D01*
X829722Y656807D01*
Y656946D01*
Y656980D01*
X829688Y657362D01*
X829653Y657744D01*
X829583Y658092D01*
X829514Y658369D01*
X829445Y658647D01*
X829375Y658821D01*
X829306Y658960D01*
Y658994D01*
X828958Y659654D01*
X828785Y659932D01*
X828576Y660175D01*
X828438Y660383D01*
X828299Y660522D01*
X828229Y660626D01*
X828195Y660661D01*
X827639Y661112D01*
X827118Y661460D01*
X826910Y661598D01*
X826702Y661703D01*
X826597Y661737D01*
X826563Y661772D01*
X826181Y661911D01*
X825833Y662015D01*
X825486Y662085D01*
X825174Y662119D01*
X824896Y662154D01*
X824688Y662189D01*
D02*
G37*
G36*
X824757Y644099D02*
X824583D01*
X824202Y644064D01*
X823820Y644029D01*
X823472Y643960D01*
X823160Y643890D01*
X822917Y643821D01*
X822743Y643786D01*
X822604Y643717D01*
X822570D01*
X821910Y643370D01*
X821632Y643196D01*
X821389Y642988D01*
X821215Y642849D01*
X821077Y642710D01*
X820972Y642640D01*
X820938Y642606D01*
X820452Y642050D01*
X820104Y641495D01*
X820000Y641286D01*
X819896Y641113D01*
X819827Y640974D01*
Y640939D01*
X819688Y640557D01*
X819584Y640210D01*
X819514Y639863D01*
X819445Y639550D01*
Y639307D01*
X819410Y639099D01*
Y638960D01*
Y638925D01*
Y638543D01*
X819479Y638161D01*
X819549Y637814D01*
X819618Y637501D01*
X819688Y637258D01*
X819757Y637085D01*
X819792Y636946D01*
X819827Y636911D01*
X820000Y636564D01*
X820174Y636251D01*
X820347Y635939D01*
X820521Y635696D01*
X820695Y635522D01*
X820834Y635383D01*
X820903Y635279D01*
X820938Y635245D01*
X821493Y634793D01*
X822014Y634411D01*
X822222Y634307D01*
X822396Y634203D01*
X822535Y634168D01*
X822570Y634133D01*
X822917Y633995D01*
X823264Y633890D01*
X823611Y633821D01*
X823924Y633751D01*
X824202D01*
X824410Y633717D01*
X824965D01*
X825347Y633786D01*
X825695Y633856D01*
X826007Y633925D01*
X826250Y633995D01*
X826424Y634064D01*
X826563Y634099D01*
X826597Y634133D01*
X827257Y634481D01*
X827535Y634654D01*
X827778Y634828D01*
X827986Y635001D01*
X828125Y635140D01*
X828229Y635210D01*
X828264Y635245D01*
X828715Y635800D01*
X829063Y636321D01*
X829201Y636564D01*
X829306Y636738D01*
X829340Y636876D01*
X829375Y636911D01*
X829514Y637258D01*
X829618Y637606D01*
X829688Y637953D01*
X829722Y638265D01*
X829757Y638543D01*
X829792Y638751D01*
Y638890D01*
Y638925D01*
X829757Y639307D01*
X829722Y639689D01*
X829653Y640036D01*
X829583Y640314D01*
X829514Y640592D01*
X829445Y640765D01*
X829375Y640904D01*
Y640939D01*
X829028Y641599D01*
X828854Y641876D01*
X828646Y642120D01*
X828507Y642328D01*
X828368Y642467D01*
X828299Y642571D01*
X828264Y642606D01*
X827708Y643057D01*
X827153Y643404D01*
X826945Y643543D01*
X826771Y643647D01*
X826632Y643682D01*
X826597Y643717D01*
X826250Y643856D01*
X825903Y643925D01*
X825556Y643994D01*
X825243Y644064D01*
X824965D01*
X824757Y644099D01*
D02*
G37*
G36*
Y614967D02*
X824583D01*
X824202Y614932D01*
X823820Y614898D01*
X823472Y614828D01*
X823160Y614759D01*
X822917Y614689D01*
X822743Y614655D01*
X822604Y614585D01*
X822570D01*
X821910Y614238D01*
X821632Y614064D01*
X821389Y613856D01*
X821215Y613717D01*
X821077Y613578D01*
X820972Y613509D01*
X820938Y613474D01*
X820452Y612918D01*
X820104Y612363D01*
X820000Y612155D01*
X819896Y611981D01*
X819827Y611842D01*
Y611807D01*
X819688Y611425D01*
X819584Y611078D01*
X819514Y610731D01*
X819445Y610419D01*
Y610175D01*
X819410Y609967D01*
Y609828D01*
Y609794D01*
Y609412D01*
X819479Y609030D01*
X819549Y608682D01*
X819618Y608370D01*
X819688Y608127D01*
X819757Y607953D01*
X819792Y607814D01*
X819827Y607780D01*
X820000Y607432D01*
X820174Y607120D01*
X820347Y606807D01*
X820521Y606564D01*
X820695Y606391D01*
X820834Y606252D01*
X820903Y606148D01*
X820938Y606113D01*
X821493Y605662D01*
X822014Y605280D01*
X822222Y605176D01*
X822396Y605071D01*
X822535Y605037D01*
X822570Y605002D01*
X822917Y604863D01*
X823264Y604759D01*
X823611Y604689D01*
X823924Y604620D01*
X824202D01*
X824410Y604585D01*
X824965D01*
X825347Y604655D01*
X825695Y604724D01*
X826007Y604794D01*
X826250Y604863D01*
X826424Y604932D01*
X826563Y604967D01*
X826597Y605002D01*
X827257Y605349D01*
X827535Y605523D01*
X827778Y605696D01*
X827986Y605870D01*
X828125Y606009D01*
X828229Y606078D01*
X828264Y606113D01*
X828715Y606669D01*
X829063Y607189D01*
X829201Y607432D01*
X829306Y607606D01*
X829340Y607745D01*
X829375Y607780D01*
X829514Y608127D01*
X829618Y608474D01*
X829688Y608821D01*
X829722Y609134D01*
X829757Y609412D01*
X829792Y609620D01*
Y609759D01*
Y609794D01*
X829757Y610175D01*
X829722Y610557D01*
X829653Y610905D01*
X829583Y611182D01*
X829514Y611460D01*
X829445Y611634D01*
X829375Y611773D01*
Y611807D01*
X829028Y612467D01*
X828854Y612745D01*
X828646Y612988D01*
X828507Y613196D01*
X828368Y613335D01*
X828299Y613439D01*
X828264Y613474D01*
X827708Y613925D01*
X827153Y614273D01*
X826945Y614412D01*
X826771Y614516D01*
X826632Y614550D01*
X826597Y614585D01*
X826250Y614724D01*
X825903Y614793D01*
X825556Y614863D01*
X825243Y614932D01*
X824965D01*
X824757Y614967D01*
D02*
G37*
G36*
X811659Y551386D02*
X811658Y551385D01*
Y551385D01*
X811659Y551386D01*
D02*
G37*
G36*
X811255Y550711D02*
X811255Y550710D01*
X811254Y550709D01*
Y550709D01*
X811255Y550711D01*
D02*
G37*
G36*
X809824Y548087D02*
X809824Y548086D01*
Y548086D01*
X809824Y548087D01*
D02*
G37*
G36*
X807966Y543974D02*
X807966Y543974D01*
Y543974D01*
X807966Y543974D01*
D02*
G37*
%LPD*%
G36*
X807553Y542915D02*
X807553Y542914D01*
X807553Y542915D01*
X807553Y542915D01*
D02*
G37*
%LPC*%
G36*
X807348Y542362D02*
X807348Y542362D01*
X807348Y542361D01*
X807348Y542362D01*
X807348Y542362D01*
X807348Y542362D01*
D02*
G37*
G36*
X807348Y542361D02*
X807347Y542361D01*
Y542361D01*
X807348Y542361D01*
D02*
G37*
G36*
X805924Y537920D02*
X805924Y537919D01*
X805924Y537919D01*
X805924Y537920D01*
D02*
G37*
G36*
X805516Y536371D02*
X805515Y536369D01*
X805515Y536368D01*
Y536368D01*
X805515Y536369D01*
X805515Y536370D01*
X805516Y536371D01*
D02*
G37*
G36*
X806455Y519037D02*
D01*
Y519037D01*
Y519037D01*
D02*
G37*
G36*
X806657Y505158D02*
X806657D01*
X806657Y505157D01*
X806657Y505157D01*
X806657Y505157D01*
X806657Y505158D01*
X806657Y505158D01*
X806657Y505158D01*
D02*
G37*
G36*
X806127Y538634D02*
X806127Y538634D01*
X806127Y538634D01*
X806127Y538634D01*
D02*
G37*
G36*
X806127Y538634D02*
X806127Y538633D01*
X806126Y538633D01*
X806127Y538633D01*
X806127Y538633D01*
Y538633D01*
X806127Y538634D01*
D02*
G37*
G36*
X826913Y543829D02*
X826760D01*
X826485Y543813D01*
X826211Y543798D01*
X825966Y543768D01*
X825722Y543722D01*
X825508Y543676D01*
X825310Y543615D01*
X825127Y543554D01*
X824959Y543493D01*
X824806Y543432D01*
X824669Y543371D01*
X824562Y543310D01*
X824470Y543264D01*
X824394Y543218D01*
X824348Y543187D01*
X824318Y543157D01*
X824303D01*
X824135Y543019D01*
X823997Y542882D01*
X823875Y542714D01*
X823768Y542562D01*
X823677Y542394D01*
X823600Y542241D01*
X823493Y541920D01*
X823417Y541646D01*
X823402Y541524D01*
X823387Y541417D01*
X823371Y541325D01*
Y541264D01*
Y541218D01*
Y541203D01*
X823387Y540974D01*
X823402Y540760D01*
X823509Y540379D01*
X823631Y540043D01*
X823783Y539768D01*
X823951Y539554D01*
X824012Y539463D01*
X824073Y539386D01*
X824135Y539341D01*
X824180Y539295D01*
X824196Y539280D01*
X824211Y539264D01*
X824379Y539142D01*
X824547Y539020D01*
X824928Y538852D01*
X825325Y538715D01*
X825722Y538638D01*
X825905Y538608D01*
X826073Y538577D01*
X826211Y538562D01*
X826348D01*
X826455Y538547D01*
X830103D01*
Y540913D01*
X830088Y541157D01*
X830058Y541401D01*
X830027Y541615D01*
X829966Y541829D01*
X829905Y542027D01*
X829829Y542195D01*
X829737Y542363D01*
X829661Y542500D01*
X829584Y542638D01*
X829493Y542745D01*
X829416Y542836D01*
X829355Y542928D01*
X829294Y542989D01*
X829249Y543035D01*
X829233Y543050D01*
X829218Y543065D01*
X829035Y543203D01*
X828852Y543310D01*
X828653Y543416D01*
X828455Y543508D01*
X828043Y543645D01*
X827646Y543737D01*
X827462Y543768D01*
X827294Y543783D01*
X827142Y543798D01*
X827020Y543813D01*
X826913Y543829D01*
D02*
G37*
G36*
X825753Y531174D02*
X825325Y531097D01*
X824944Y530975D01*
X824623Y530838D01*
X824348Y530685D01*
X824119Y530548D01*
X824028Y530471D01*
X823967Y530426D01*
X823906Y530364D01*
X823860Y530334D01*
X823845Y530319D01*
X823829Y530303D01*
X823707Y530166D01*
X823585Y530013D01*
X823402Y529708D01*
X823280Y529388D01*
X823188Y529113D01*
X823127Y528853D01*
X823112Y528746D01*
Y528655D01*
X823096Y528578D01*
Y528517D01*
Y528487D01*
Y528472D01*
X823112Y528243D01*
X823127Y528029D01*
X823219Y527647D01*
X823341Y527327D01*
X823478Y527052D01*
X823615Y526823D01*
X823677Y526747D01*
X823738Y526670D01*
X823783Y526624D01*
X823829Y526579D01*
X823845Y526548D01*
X823860D01*
X824150Y526319D01*
X824470Y526136D01*
X824791Y526014D01*
X825081Y525922D01*
X825356Y525861D01*
X825463Y525846D01*
X825554Y525831D01*
X825646D01*
X825707Y525815D01*
X825753D01*
Y531174D01*
D02*
G37*
G36*
Y506612D02*
X825325Y506535D01*
X824944Y506413D01*
X824623Y506276D01*
X824348Y506123D01*
X824119Y505986D01*
X824028Y505909D01*
X823967Y505863D01*
X823906Y505802D01*
X823860Y505772D01*
X823845Y505757D01*
X823829Y505741D01*
X823707Y505604D01*
X823585Y505451D01*
X823402Y505146D01*
X823280Y504826D01*
X823188Y504551D01*
X823127Y504291D01*
X823112Y504184D01*
Y504093D01*
X823096Y504016D01*
Y503955D01*
Y503925D01*
Y503910D01*
X823112Y503681D01*
X823127Y503467D01*
X823219Y503085D01*
X823341Y502765D01*
X823478Y502490D01*
X823615Y502261D01*
X823677Y502185D01*
X823738Y502108D01*
X823783Y502062D01*
X823829Y502017D01*
X823845Y501986D01*
X823860D01*
X824150Y501757D01*
X824470Y501574D01*
X824791Y501452D01*
X825081Y501360D01*
X825356Y501299D01*
X825463Y501284D01*
X825554Y501269D01*
X825646D01*
X825707Y501253D01*
X825753D01*
Y506612D01*
D02*
G37*
G36*
Y489072D02*
X825325Y488995D01*
X824944Y488873D01*
X824623Y488736D01*
X824348Y488583D01*
X824119Y488446D01*
X824028Y488369D01*
X823967Y488324D01*
X823906Y488262D01*
X823860Y488232D01*
X823845Y488217D01*
X823829Y488201D01*
X823707Y488064D01*
X823585Y487911D01*
X823402Y487606D01*
X823280Y487285D01*
X823188Y487011D01*
X823127Y486751D01*
X823112Y486644D01*
Y486553D01*
X823096Y486477D01*
Y486415D01*
Y486385D01*
Y486370D01*
X823112Y486141D01*
X823127Y485927D01*
X823219Y485545D01*
X823341Y485225D01*
X823478Y484950D01*
X823615Y484721D01*
X823677Y484645D01*
X823738Y484568D01*
X823783Y484523D01*
X823829Y484477D01*
X823845Y484446D01*
X823860D01*
X824150Y484217D01*
X824470Y484034D01*
X824791Y483912D01*
X825081Y483820D01*
X825356Y483759D01*
X825463Y483744D01*
X825554Y483729D01*
X825646D01*
X825707Y483713D01*
X825753D01*
Y489072D01*
D02*
G37*
G36*
X827434Y387144D02*
X822334Y384854D01*
X827434Y382617D01*
Y387144D01*
D02*
G37*
G36*
X827226Y371184D02*
X824485D01*
X824069Y371167D01*
X822924D01*
X822594Y371149D01*
X822004D01*
X821744Y371132D01*
X821258D01*
X821050Y371115D01*
X820859D01*
X820530Y371097D01*
X820252Y371080D01*
X820044D01*
X819888Y371063D01*
X819766D01*
X819697Y371045D01*
X819645D01*
X819315Y370976D01*
X819020Y370906D01*
X818795Y370820D01*
X818604Y370716D01*
X818465Y370646D01*
X818361Y370577D01*
X818309Y370525D01*
X818292Y370507D01*
X818205Y370403D01*
X818136Y370265D01*
X818084Y370143D01*
X818049Y370022D01*
X818032Y369918D01*
X818014Y369831D01*
Y369779D01*
Y369762D01*
X818032Y369536D01*
X818066Y369362D01*
X818136Y369206D01*
X818188Y369067D01*
X818257Y368981D01*
X818326Y368911D01*
X818361Y368877D01*
X818379Y368859D01*
X818483Y368790D01*
X818622Y368721D01*
X818934Y368599D01*
X819263Y368512D01*
X819610Y368443D01*
X819923Y368391D01*
X820079Y368374D01*
X820200Y368356D01*
X820304D01*
X820374Y368339D01*
X820512D01*
X820599Y368322D01*
X821102D01*
X821432Y368304D01*
X822178D01*
X822976Y368287D01*
X825023D01*
X829759Y368339D01*
X830210Y368374D01*
X830609Y368443D01*
X830939Y368530D01*
X831199Y368616D01*
X831407Y368721D01*
X831546Y368790D01*
X831633Y368842D01*
X831667Y368859D01*
X831789Y368981D01*
X831876Y369102D01*
X831927Y369241D01*
X831962Y369380D01*
X831997Y369501D01*
X832014Y369605D01*
Y369675D01*
Y369692D01*
X831997Y369866D01*
X831980Y370039D01*
X831927Y370178D01*
X831876Y370282D01*
X831841Y370386D01*
X831789Y370455D01*
X831771Y370490D01*
X831754Y370507D01*
X831633Y370611D01*
X831477Y370698D01*
X831303Y370785D01*
X831130Y370854D01*
X830973Y370906D01*
X830835Y370941D01*
X830748Y370976D01*
X830713D01*
X830488Y371011D01*
X830227Y371045D01*
X829915Y371080D01*
X829603Y371097D01*
X829256Y371115D01*
X828892Y371132D01*
X828180Y371149D01*
X827851Y371167D01*
X827521D01*
X827226Y371184D01*
D02*
G37*
G36*
X824919Y339246D02*
X818396D01*
Y338084D01*
Y337754D01*
X818431Y337459D01*
X818465Y337182D01*
X818517Y336921D01*
X818587Y336696D01*
X818656Y336488D01*
X818726Y336297D01*
X818795Y336123D01*
X818882Y335967D01*
X818951Y335846D01*
X819020Y335742D01*
X819090Y335655D01*
X819142Y335586D01*
X819177Y335533D01*
X819194Y335516D01*
X819211Y335499D01*
X819367Y335360D01*
X819558Y335238D01*
X819940Y335030D01*
X820374Y334892D01*
X820773Y334805D01*
X821137Y334735D01*
X821310Y334718D01*
X821449D01*
X821571Y334701D01*
X821727D01*
X822143Y334718D01*
X822525Y334770D01*
X822854Y334840D01*
X823115Y334926D01*
X823340Y335013D01*
X823496Y335082D01*
X823600Y335135D01*
X823635Y335152D01*
X823895Y335325D01*
X824103Y335516D01*
X824277Y335724D01*
X824416Y335915D01*
X824520Y336089D01*
X824589Y336227D01*
X824624Y336314D01*
X824641Y336331D01*
Y336349D01*
X824693Y336505D01*
X824728Y336661D01*
X824797Y337025D01*
X824849Y337390D01*
X824884Y337771D01*
X824902Y338101D01*
Y338240D01*
X824919Y338379D01*
Y338483D01*
Y338552D01*
Y338604D01*
Y338621D01*
Y339246D01*
D02*
G37*
G36*
X31221Y283238D02*
X31193D01*
X31096Y283224D01*
X30985Y283183D01*
X30847Y283099D01*
X30833Y283072D01*
X30777Y283016D01*
X30680Y282919D01*
X30569Y282808D01*
X30542Y282794D01*
X30486Y282780D01*
X30403Y282753D01*
X30278Y282725D01*
X30153Y282697D01*
X30015Y282683D01*
X29862Y282656D01*
X29640D01*
X29571Y282670D01*
X29474Y282683D01*
X29390D01*
X29307Y282697D01*
X29196Y282711D01*
X29085Y282725D01*
X28933Y282739D01*
X28780Y282767D01*
X28600Y282780D01*
X28392Y282808D01*
X28336D01*
X28267Y282822D01*
X28170Y282836D01*
X28059Y282850D01*
X27920Y282864D01*
X27629Y282891D01*
X27310Y282933D01*
X26991Y282961D01*
X26700Y282988D01*
X26575D01*
X26464Y283002D01*
X24176Y283113D01*
X24148D01*
X24093Y283099D01*
X23996Y283086D01*
X23926Y283072D01*
X23843D01*
X23746Y283044D01*
X23621Y283030D01*
X23482Y283002D01*
X23330Y282988D01*
X23150Y282947D01*
X22942Y282919D01*
Y282905D01*
X22928Y282891D01*
X22914Y282822D01*
X22900Y282739D01*
X22886Y282683D01*
Y282656D01*
Y282628D01*
X22900Y282586D01*
X22914Y282517D01*
X22942Y282434D01*
X22969Y282309D01*
X23011Y282170D01*
X23052Y282004D01*
X23122Y281796D01*
X23205Y281546D01*
X23302Y281269D01*
X23413Y280950D01*
X23538Y280589D01*
X23691Y280173D01*
X23857Y279715D01*
X23871Y279688D01*
X23898Y279618D01*
X23940Y279508D01*
X23996Y279355D01*
X24065Y279175D01*
X24134Y278967D01*
X24218Y278745D01*
X24315Y278495D01*
X24509Y277996D01*
X24717Y277483D01*
X24814Y277247D01*
X24911Y277025D01*
X24994Y276831D01*
X25077Y276651D01*
X25091Y276637D01*
X25105Y276581D01*
X25147Y276498D01*
X25202Y276401D01*
X25285Y276262D01*
X25369Y276110D01*
X25466Y275930D01*
X25590Y275735D01*
X25715Y275527D01*
X25854Y275305D01*
X26187Y274820D01*
X26575Y274321D01*
X27005Y273808D01*
Y273794D01*
X27033Y273780D01*
X27102Y273710D01*
X27199Y273613D01*
X27338Y273489D01*
X27490Y273378D01*
X27657Y273281D01*
X27837Y273211D01*
X27920Y273183D01*
X28031D01*
X28115Y273197D01*
X28239Y273211D01*
X28364Y273225D01*
X28503Y273239D01*
X28614Y273253D01*
X28697Y273267D01*
X28739D01*
Y273281D01*
X28752Y273295D01*
X28780Y273322D01*
X28808Y273336D01*
X28822D01*
X28836Y273350D01*
X28877Y273364D01*
X28933Y273378D01*
X29071Y273447D01*
X29252Y273558D01*
X29349Y273627D01*
X29460Y273710D01*
X29585Y273822D01*
X29709Y273932D01*
X29848Y274071D01*
X29987Y274224D01*
X30125Y274390D01*
X30278Y274584D01*
Y274598D01*
X30306Y274612D01*
X30320Y274654D01*
X30361Y274709D01*
X30444Y274834D01*
X30555Y275028D01*
X30666Y275236D01*
X30777Y275486D01*
X30888Y275763D01*
X30971Y276054D01*
Y276068D01*
X30985Y276110D01*
X30999Y276179D01*
X31027Y276276D01*
X31041Y276401D01*
X31068Y276553D01*
X31110Y276734D01*
X31138Y276956D01*
X31179Y277205D01*
X31221Y277483D01*
X31249Y277788D01*
X31290Y278134D01*
X31332Y278509D01*
X31374Y278911D01*
X31415Y279355D01*
X31443Y279840D01*
Y279854D01*
X31457Y279882D01*
X31484Y279965D01*
X31512Y280048D01*
X31526Y280090D01*
Y280104D01*
Y280118D01*
X31512Y280173D01*
X31484Y280256D01*
X31415Y280381D01*
Y280395D01*
Y280437D01*
Y280520D01*
Y280617D01*
Y280742D01*
X31401Y280881D01*
Y281061D01*
X31387Y281241D01*
Y281449D01*
X31374Y281671D01*
X31346Y281907D01*
X31332Y282156D01*
X31290Y282683D01*
X31221Y283238D01*
D02*
G37*
G36*
X21804Y282115D02*
Y282101D01*
X21818Y282045D01*
X21832Y281976D01*
X21846Y281893D01*
X21860Y281699D01*
X21874Y281616D01*
Y281546D01*
Y281532D01*
Y281518D01*
X21888Y281546D01*
X21902Y281602D01*
X21915Y281643D01*
X21929Y281699D01*
X21943Y281726D01*
X21957Y281782D01*
X21971Y281851D01*
Y281865D01*
Y281879D01*
Y281893D01*
Y281921D01*
X21957Y281990D01*
X21902Y282073D01*
X21860Y282101D01*
X21804Y282115D01*
D02*
G37*
G36*
X30195Y269730D02*
X30181D01*
X30153Y269716D01*
X30084Y269703D01*
X30001Y269675D01*
X29904Y269647D01*
X29779Y269619D01*
X29640Y269578D01*
X29474Y269536D01*
X29460D01*
X29404Y269508D01*
X29321Y269494D01*
X29238Y269467D01*
X29141Y269439D01*
X29058Y269425D01*
X28988Y269398D01*
X28933D01*
X28877Y269411D01*
X28808Y269425D01*
X28725Y269439D01*
X28642Y269453D01*
X28558Y269467D01*
X28503Y269481D01*
X28378D01*
X28309Y269494D01*
X28212D01*
X28073Y269508D01*
X27906Y269522D01*
X27782D01*
X27740Y269508D01*
X27685D01*
X27574Y269467D01*
X27463Y269384D01*
Y269162D01*
Y269148D01*
X27477Y269106D01*
X27490Y269065D01*
X27504Y268981D01*
X27546Y268857D01*
X27587Y268704D01*
X27643Y268510D01*
Y268482D01*
X27671Y268427D01*
X27698Y268344D01*
X27726Y268232D01*
X27768Y268094D01*
X27796Y267941D01*
X27879Y267636D01*
Y267622D01*
X27893Y267608D01*
X27934Y267539D01*
X27990Y267428D01*
X28073Y267290D01*
Y267276D01*
Y267262D01*
Y267178D01*
X28087Y267068D01*
X28115Y266901D01*
X28128Y266873D01*
X28142Y266818D01*
X28170Y266721D01*
X28225Y266596D01*
X28267Y266444D01*
X28336Y266277D01*
X28392Y266083D01*
X28461Y265889D01*
X28614Y265487D01*
X28752Y265084D01*
X28822Y264904D01*
X28877Y264738D01*
X28933Y264599D01*
X28974Y264488D01*
X28988Y264474D01*
X29002Y264419D01*
X29030Y264349D01*
X29071Y264252D01*
X29127Y264128D01*
X29196Y263975D01*
X29266Y263808D01*
X29349Y263628D01*
X29543Y263240D01*
X29765Y262810D01*
X30015Y262366D01*
X30292Y261936D01*
X30306Y261922D01*
X30333Y261881D01*
X30361Y261825D01*
X30417Y261742D01*
X30486Y261659D01*
X30555Y261548D01*
X30722Y261326D01*
X30902Y261104D01*
X30985Y260993D01*
X31068Y260910D01*
X31152Y260827D01*
X31221Y260771D01*
X31290Y260730D01*
X31346Y260716D01*
X31360D01*
X31374Y260730D01*
X31415Y260744D01*
X31471Y260799D01*
X31526Y260882D01*
X31595Y260993D01*
X31665Y261160D01*
X31693Y261271D01*
X31734Y261381D01*
Y261409D01*
X31748Y261465D01*
X31776Y261562D01*
X31804Y261687D01*
X31817Y261825D01*
X31845Y261964D01*
X31859Y262103D01*
Y262241D01*
Y262255D01*
Y262283D01*
Y262325D01*
Y262394D01*
Y262477D01*
X31845Y262574D01*
Y262685D01*
X31831Y262810D01*
X31817Y262962D01*
X31804Y263129D01*
X31790Y263309D01*
X31776Y263489D01*
X31748Y263697D01*
X31720Y263919D01*
X31651Y264405D01*
X31568Y264932D01*
X31457Y265500D01*
X31318Y266124D01*
X31152Y266776D01*
X30971Y267470D01*
X30749Y268191D01*
X30486Y268954D01*
X30195Y269730D01*
D02*
G37*
G36*
X21957Y264751D02*
X21943Y264738D01*
X21902Y264724D01*
X21860Y264696D01*
X21804Y264682D01*
Y264433D01*
X22082Y264502D01*
X22068Y264516D01*
X22054Y264571D01*
X22012Y264655D01*
X21957Y264751D01*
D02*
G37*
G36*
X22914Y262172D02*
X22900D01*
X22872Y262144D01*
X22803Y262089D01*
X22761Y262047D01*
X22706Y261992D01*
X22734D01*
X22789Y261978D01*
X22858Y261950D01*
X22928Y261895D01*
Y262158D01*
X22914Y262172D01*
D02*
G37*
G36*
X25216Y269800D02*
X22734D01*
X22706Y269786D01*
X22650Y269772D01*
X22567Y269730D01*
X22470Y269689D01*
X22359Y269619D01*
X22276Y269536D01*
X22220Y269439D01*
X22193Y269328D01*
Y269300D01*
X22207Y269259D01*
X22220Y269203D01*
X22234Y269106D01*
X22276Y268967D01*
X22318Y268801D01*
X22373Y268579D01*
Y268565D01*
X22387Y268538D01*
X22401Y268510D01*
X22415Y268454D01*
X22442Y268316D01*
X22484Y268149D01*
X22539Y267983D01*
X22581Y267817D01*
X22609Y267664D01*
X22623Y267608D01*
X22636Y267567D01*
Y267553D01*
Y267539D01*
X22650Y267498D01*
X22664Y267442D01*
X22678Y267373D01*
X22692Y267290D01*
X22734Y267068D01*
X22803Y266804D01*
X22872Y266499D01*
X22956Y266152D01*
X23052Y265750D01*
X23163Y265334D01*
X23288Y264862D01*
X23427Y264377D01*
X23579Y263864D01*
X23746Y263337D01*
X23926Y262782D01*
X24120Y262227D01*
X24328Y261659D01*
X24342Y261631D01*
X24398Y261562D01*
X24481Y261465D01*
X24578Y261326D01*
Y261312D01*
X24606Y261271D01*
X24634Y261201D01*
X24675Y261132D01*
X24717Y261035D01*
X24772Y260924D01*
X24911Y260688D01*
X25064Y260452D01*
X25147Y260341D01*
X25230Y260244D01*
X25327Y260161D01*
X25410Y260106D01*
X25493Y260064D01*
X25577Y260050D01*
X25590D01*
X25618Y260064D01*
X25674Y260078D01*
X25743Y260106D01*
X25826Y260175D01*
X25923Y260258D01*
X26020Y260383D01*
X26117Y260549D01*
X26214Y260757D01*
X26270Y260882D01*
X26312Y261035D01*
X26367Y261187D01*
X26409Y261354D01*
X26450Y261534D01*
X26492Y261742D01*
X26520Y261964D01*
X26561Y262200D01*
X26589Y262463D01*
X26617Y262741D01*
X26631Y263032D01*
X26644Y263351D01*
X26658Y263697D01*
Y264058D01*
Y264072D01*
Y264086D01*
X26644Y264128D01*
X26631Y264197D01*
X26603Y264280D01*
X26561Y264405D01*
X26520Y264571D01*
Y264585D01*
X26492Y264641D01*
X26478Y264724D01*
X26450Y264807D01*
X26423Y264904D01*
X26409Y264973D01*
X26381Y265043D01*
Y265070D01*
Y265098D01*
X26367Y265168D01*
X26353Y265209D01*
Y265278D01*
X26339Y265362D01*
X26312Y265459D01*
X26298Y265584D01*
X26270Y265736D01*
X26242Y265903D01*
X26201Y266097D01*
X26159Y266319D01*
X26117Y266582D01*
Y266596D01*
Y266624D01*
X26104Y266665D01*
X26090Y266721D01*
X26062Y266873D01*
X26034Y267068D01*
X26007Y267290D01*
X25979Y267525D01*
X25965Y267761D01*
X25951Y267983D01*
Y268011D01*
X25937Y268038D01*
Y268080D01*
X25923Y268135D01*
X25909Y268205D01*
Y268219D01*
X25896Y268232D01*
X25882Y268302D01*
X25868Y268371D01*
X25854Y268399D01*
Y268413D01*
Y268440D01*
X25868Y268482D01*
X25882Y268538D01*
X25896Y268607D01*
X25909Y268704D01*
X25937Y268815D01*
X25965Y268940D01*
Y268954D01*
X25979Y268995D01*
Y269051D01*
X25993Y269134D01*
X26007Y269314D01*
X26020Y269494D01*
Y269508D01*
Y269536D01*
Y269633D01*
X26007D01*
X25965Y269647D01*
X25896D01*
X25812Y269675D01*
X25701Y269689D01*
X25563Y269716D01*
X25396Y269758D01*
X25216Y269800D01*
D02*
G37*
G36*
X24190Y229775D02*
X24176D01*
X24134Y229762D01*
X24079Y229748D01*
X24065Y229706D01*
Y227459D01*
Y227446D01*
Y227418D01*
Y227390D01*
Y227335D01*
X24079Y227196D01*
X24093Y227043D01*
X24120Y226891D01*
X24162Y226738D01*
X24218Y226613D01*
X24259Y226558D01*
X24301Y226530D01*
X24315D01*
X24356Y226544D01*
X24412Y226558D01*
X24495Y226586D01*
X24675Y226641D01*
X24842Y226683D01*
X24855Y226697D01*
X24869Y226710D01*
X24897Y226738D01*
X24939Y226794D01*
X24980Y226863D01*
X25036Y226946D01*
X25091Y227071D01*
Y227085D01*
Y227113D01*
X25077Y227154D01*
Y227210D01*
Y227279D01*
X25064Y227376D01*
X25036Y227584D01*
X25008Y227848D01*
X24966Y228153D01*
X24911Y228472D01*
X24855Y228818D01*
Y228832D01*
X24842Y228860D01*
X24828Y228916D01*
X24814Y228985D01*
X24772Y229068D01*
X24731Y229165D01*
X24661Y229290D01*
X24578Y229415D01*
X24564Y229429D01*
X24536Y229470D01*
X24495Y229526D01*
X24439Y229595D01*
X24370Y229664D01*
X24315Y229720D01*
X24245Y229762D01*
X24190Y229775D01*
D02*
G37*
G36*
X30195Y210457D02*
X30181D01*
X30153Y210443D01*
X30084Y210429D01*
X30001Y210401D01*
X29904Y210373D01*
X29779Y210346D01*
X29640Y210304D01*
X29474Y210263D01*
X29460D01*
X29404Y210235D01*
X29321Y210221D01*
X29238Y210193D01*
X29141Y210166D01*
X29058Y210152D01*
X28988Y210124D01*
X28933D01*
X28877Y210138D01*
X28808Y210152D01*
X28725Y210166D01*
X28642Y210179D01*
X28558Y210193D01*
X28503Y210207D01*
X28378D01*
X28309Y210221D01*
X28212D01*
X28073Y210235D01*
X27906Y210249D01*
X27782D01*
X27740Y210235D01*
X27685D01*
X27574Y210193D01*
X27463Y210110D01*
Y209888D01*
Y209874D01*
X27477Y209833D01*
X27490Y209791D01*
X27504Y209708D01*
X27546Y209583D01*
X27587Y209431D01*
X27643Y209236D01*
Y209209D01*
X27671Y209153D01*
X27698Y209070D01*
X27726Y208959D01*
X27768Y208820D01*
X27796Y208668D01*
X27879Y208363D01*
Y208349D01*
X27893Y208335D01*
X27934Y208265D01*
X27990Y208155D01*
X28073Y208016D01*
Y208002D01*
Y207988D01*
Y207905D01*
X28087Y207794D01*
X28115Y207628D01*
X28128Y207600D01*
X28142Y207544D01*
X28170Y207447D01*
X28225Y207323D01*
X28267Y207170D01*
X28336Y207003D01*
X28392Y206809D01*
X28461Y206615D01*
X28614Y206213D01*
X28752Y205811D01*
X28822Y205631D01*
X28877Y205464D01*
X28933Y205325D01*
X28974Y205215D01*
X28988Y205201D01*
X29002Y205145D01*
X29030Y205076D01*
X29071Y204979D01*
X29127Y204854D01*
X29196Y204701D01*
X29266Y204535D01*
X29349Y204355D01*
X29543Y203966D01*
X29765Y203536D01*
X30015Y203093D01*
X30292Y202663D01*
X30306Y202649D01*
X30333Y202607D01*
X30361Y202552D01*
X30417Y202469D01*
X30486Y202385D01*
X30555Y202274D01*
X30722Y202052D01*
X30902Y201831D01*
X30985Y201720D01*
X31068Y201637D01*
X31152Y201553D01*
X31221Y201498D01*
X31290Y201456D01*
X31346Y201442D01*
X31360D01*
X31374Y201456D01*
X31415Y201470D01*
X31471Y201525D01*
X31526Y201609D01*
X31595Y201720D01*
X31665Y201886D01*
X31693Y201997D01*
X31734Y202108D01*
Y202136D01*
X31748Y202191D01*
X31776Y202288D01*
X31804Y202413D01*
X31817Y202552D01*
X31845Y202691D01*
X31859Y202829D01*
Y202968D01*
Y202982D01*
Y203009D01*
Y203051D01*
Y203120D01*
Y203204D01*
X31845Y203301D01*
Y203412D01*
X31831Y203536D01*
X31817Y203689D01*
X31804Y203855D01*
X31790Y204036D01*
X31776Y204216D01*
X31748Y204424D01*
X31720Y204646D01*
X31651Y205131D01*
X31568Y205658D01*
X31457Y206227D01*
X31318Y206851D01*
X31152Y207503D01*
X30971Y208196D01*
X30749Y208917D01*
X30486Y209680D01*
X30195Y210457D01*
D02*
G37*
G36*
X21957Y205478D02*
X21943Y205464D01*
X21902Y205450D01*
X21860Y205422D01*
X21804Y205409D01*
Y205159D01*
X22082Y205228D01*
X22068Y205242D01*
X22054Y205298D01*
X22012Y205381D01*
X21957Y205478D01*
D02*
G37*
G36*
X22914Y202899D02*
X22900D01*
X22872Y202871D01*
X22803Y202815D01*
X22761Y202774D01*
X22706Y202718D01*
X22734D01*
X22789Y202704D01*
X22858Y202677D01*
X22928Y202621D01*
Y202885D01*
X22914Y202899D01*
D02*
G37*
G36*
X25216Y210526D02*
X22734D01*
X22706Y210512D01*
X22650Y210498D01*
X22567Y210457D01*
X22470Y210415D01*
X22359Y210346D01*
X22276Y210263D01*
X22220Y210166D01*
X22193Y210055D01*
Y210027D01*
X22207Y209985D01*
X22220Y209930D01*
X22234Y209833D01*
X22276Y209694D01*
X22318Y209528D01*
X22373Y209306D01*
Y209292D01*
X22387Y209264D01*
X22401Y209236D01*
X22415Y209181D01*
X22442Y209042D01*
X22484Y208876D01*
X22539Y208709D01*
X22581Y208543D01*
X22609Y208390D01*
X22623Y208335D01*
X22636Y208293D01*
Y208279D01*
Y208265D01*
X22650Y208224D01*
X22664Y208169D01*
X22678Y208099D01*
X22692Y208016D01*
X22734Y207794D01*
X22803Y207530D01*
X22872Y207225D01*
X22956Y206879D01*
X23052Y206476D01*
X23163Y206061D01*
X23288Y205589D01*
X23427Y205104D01*
X23579Y204590D01*
X23746Y204063D01*
X23926Y203509D01*
X24120Y202954D01*
X24328Y202385D01*
X24342Y202358D01*
X24398Y202288D01*
X24481Y202191D01*
X24578Y202052D01*
Y202039D01*
X24606Y201997D01*
X24634Y201928D01*
X24675Y201858D01*
X24717Y201761D01*
X24772Y201650D01*
X24911Y201415D01*
X25064Y201179D01*
X25147Y201068D01*
X25230Y200971D01*
X25327Y200888D01*
X25410Y200832D01*
X25493Y200791D01*
X25577Y200777D01*
X25590D01*
X25618Y200791D01*
X25674Y200804D01*
X25743Y200832D01*
X25826Y200901D01*
X25923Y200985D01*
X26020Y201110D01*
X26117Y201276D01*
X26214Y201484D01*
X26270Y201609D01*
X26312Y201761D01*
X26367Y201914D01*
X26409Y202080D01*
X26450Y202260D01*
X26492Y202469D01*
X26520Y202691D01*
X26561Y202926D01*
X26589Y203190D01*
X26617Y203467D01*
X26631Y203758D01*
X26644Y204077D01*
X26658Y204424D01*
Y204785D01*
Y204798D01*
Y204812D01*
X26644Y204854D01*
X26631Y204923D01*
X26603Y205007D01*
X26561Y205131D01*
X26520Y205298D01*
Y205312D01*
X26492Y205367D01*
X26478Y205450D01*
X26450Y205534D01*
X26423Y205631D01*
X26409Y205700D01*
X26381Y205769D01*
Y205797D01*
Y205825D01*
X26367Y205894D01*
X26353Y205936D01*
Y206005D01*
X26339Y206088D01*
X26312Y206185D01*
X26298Y206310D01*
X26270Y206463D01*
X26242Y206629D01*
X26201Y206823D01*
X26159Y207045D01*
X26117Y207309D01*
Y207323D01*
Y207350D01*
X26104Y207392D01*
X26090Y207447D01*
X26062Y207600D01*
X26034Y207794D01*
X26007Y208016D01*
X25979Y208252D01*
X25965Y208487D01*
X25951Y208709D01*
Y208737D01*
X25937Y208765D01*
Y208806D01*
X25923Y208862D01*
X25909Y208931D01*
Y208945D01*
X25896Y208959D01*
X25882Y209028D01*
X25868Y209098D01*
X25854Y209125D01*
Y209139D01*
Y209167D01*
X25868Y209209D01*
X25882Y209264D01*
X25896Y209333D01*
X25909Y209431D01*
X25937Y209541D01*
X25965Y209666D01*
Y209680D01*
X25979Y209722D01*
Y209777D01*
X25993Y209860D01*
X26007Y210041D01*
X26020Y210221D01*
Y210235D01*
Y210263D01*
Y210360D01*
X26007D01*
X25965Y210373D01*
X25896D01*
X25812Y210401D01*
X25701Y210415D01*
X25563Y210443D01*
X25396Y210485D01*
X25216Y210526D01*
D02*
G37*
%LPD*%
D22*
X534999Y1148498D02*
D03*
X578999D02*
D03*
D46*
X493700Y1030702D02*
D03*
X468300D02*
D03*
X493700Y1056102D02*
D03*
X549300Y975000D02*
D03*
X102298Y933299D02*
D03*
X127698D02*
D03*
X153098D02*
D03*
X178498D02*
D03*
X203898D02*
D03*
X229298D02*
D03*
X254698D02*
D03*
X280098D02*
D03*
X356298Y907899D02*
D03*
X381698D02*
D03*
X407098D02*
D03*
X432498D02*
D03*
X457898D02*
D03*
X483298D02*
D03*
X508698D02*
D03*
X534098D02*
D03*
X584898D02*
D03*
X610298D02*
D03*
X635698D02*
D03*
X305498Y933299D02*
D03*
X330898D02*
D03*
X356298D02*
D03*
X381698D02*
D03*
X407098D02*
D03*
X432498D02*
D03*
X457898D02*
D03*
X483298D02*
D03*
X508698D02*
D03*
X534098D02*
D03*
X559498D02*
D03*
X584898D02*
D03*
X610298D02*
D03*
X635698D02*
D03*
X127698Y907899D02*
D03*
X153098D02*
D03*
X178498D02*
D03*
X203898D02*
D03*
X229298D02*
D03*
X254698D02*
D03*
X280098D02*
D03*
X305498D02*
D03*
X661098D02*
D03*
X686498D02*
D03*
X711898D02*
D03*
X737298D02*
D03*
X661098Y933299D02*
D03*
X686498D02*
D03*
X711898D02*
D03*
X737298D02*
D03*
X788299Y831901D02*
D03*
Y806501D02*
D03*
Y781101D02*
D03*
Y755701D02*
D03*
Y730301D02*
D03*
Y704901D02*
D03*
Y679501D02*
D03*
Y654101D02*
D03*
X762899Y577901D02*
D03*
Y552501D02*
D03*
Y527101D02*
D03*
Y501701D02*
D03*
Y476301D02*
D03*
Y450901D02*
D03*
Y425501D02*
D03*
Y400101D02*
D03*
Y349301D02*
D03*
Y323901D02*
D03*
Y298501D02*
D03*
X788299Y628701D02*
D03*
Y603301D02*
D03*
Y577901D02*
D03*
Y552501D02*
D03*
Y527101D02*
D03*
Y501701D02*
D03*
Y476301D02*
D03*
Y450901D02*
D03*
Y425501D02*
D03*
Y400101D02*
D03*
Y374701D02*
D03*
Y349301D02*
D03*
Y323901D02*
D03*
Y298501D02*
D03*
X762899Y806501D02*
D03*
Y781101D02*
D03*
Y755701D02*
D03*
Y730301D02*
D03*
Y704901D02*
D03*
Y679501D02*
D03*
Y654101D02*
D03*
Y628701D02*
D03*
Y273101D02*
D03*
Y247701D02*
D03*
Y222301D02*
D03*
Y196901D02*
D03*
X788299Y273101D02*
D03*
Y247701D02*
D03*
Y222301D02*
D03*
Y196901D02*
D03*
X77099Y831901D02*
D03*
Y806501D02*
D03*
Y781101D02*
D03*
Y755701D02*
D03*
Y730301D02*
D03*
Y704901D02*
D03*
Y679501D02*
D03*
Y654101D02*
D03*
X51699Y577901D02*
D03*
Y552501D02*
D03*
Y527101D02*
D03*
Y501701D02*
D03*
Y476301D02*
D03*
Y450901D02*
D03*
Y425501D02*
D03*
Y400101D02*
D03*
Y349301D02*
D03*
Y323901D02*
D03*
Y298501D02*
D03*
X77099Y628701D02*
D03*
Y603301D02*
D03*
Y577901D02*
D03*
Y552501D02*
D03*
Y527101D02*
D03*
Y501701D02*
D03*
Y476301D02*
D03*
Y450901D02*
D03*
Y425501D02*
D03*
Y400101D02*
D03*
Y374701D02*
D03*
Y349301D02*
D03*
Y323901D02*
D03*
Y298501D02*
D03*
X51699Y806501D02*
D03*
Y781101D02*
D03*
Y755701D02*
D03*
Y730301D02*
D03*
Y704901D02*
D03*
Y679501D02*
D03*
Y654101D02*
D03*
Y628701D02*
D03*
Y273101D02*
D03*
Y247701D02*
D03*
Y222301D02*
D03*
Y196901D02*
D03*
X77099Y273101D02*
D03*
Y247701D02*
D03*
Y222301D02*
D03*
Y196901D02*
D03*
X207200Y1071100D02*
D03*
X194500Y1045700D02*
D03*
X169100D02*
D03*
X118300D02*
D03*
X131000Y1071100D02*
D03*
X156400D02*
D03*
X181800D02*
D03*
X143700Y1045700D02*
D03*
D49*
X343499Y1093898D02*
D03*
D55*
X825000Y1064200D02*
D03*
Y1115000D02*
D03*
Y1089600D02*
D03*
Y1013400D02*
D03*
Y988000D02*
D03*
Y962600D02*
D03*
Y1038800D02*
D03*
Y937200D02*
D03*
D61*
X455000Y739200D02*
D03*
X390000Y289200D02*
D03*
D112*
X778998Y1059000D02*
D03*
X792998D02*
D03*
Y1124000D02*
D03*
X778998D02*
D03*
X792998Y1098000D02*
D03*
X778998D02*
D03*
X792998Y1111000D02*
D03*
X778998D02*
D03*
X792998Y1085000D02*
D03*
X778998D02*
D03*
X792998Y1072000D02*
D03*
X778998D02*
D03*
X170002Y364000D02*
D03*
X156002D02*
D03*
X483502Y207002D02*
D03*
X497502D02*
D03*
X483502Y194002D02*
D03*
X497502D02*
D03*
X440000Y145000D02*
D03*
X454000D02*
D03*
X440002Y158000D02*
D03*
X454002D02*
D03*
X609002Y328000D02*
D03*
X595001D02*
D03*
X609002Y354000D02*
D03*
X595002D02*
D03*
X594998Y367000D02*
D03*
X608998D02*
D03*
X594998Y341000D02*
D03*
X608998D02*
D03*
X336002Y134000D02*
D03*
X322002D02*
D03*
X500002Y506000D02*
D03*
X486002D02*
D03*
X427002Y1062000D02*
D03*
X441002D02*
D03*
X125002Y80000D02*
D03*
X139002D02*
D03*
X596998Y294000D02*
D03*
X582998D02*
D03*
X468000Y131000D02*
D03*
X482000D02*
D03*
X567002Y107000D02*
D03*
X553002D02*
D03*
X667002D02*
D03*
X653002D02*
D03*
D113*
X91000Y75000D02*
D03*
Y59000D02*
D03*
X174000Y75000D02*
D03*
Y59000D02*
D03*
X494000Y446000D02*
D03*
Y462000D02*
D03*
X438000Y255000D02*
D03*
Y239000D02*
D03*
X543000Y532000D02*
D03*
Y516000D02*
D03*
D114*
X691000Y485002D02*
D03*
Y471002D02*
D03*
X175750Y1145598D02*
D03*
Y1159598D02*
D03*
X144750D02*
D03*
Y1145598D02*
D03*
X406000Y966002D02*
D03*
Y980002D02*
D03*
X444000Y966002D02*
D03*
Y980002D02*
D03*
X425000D02*
D03*
Y966002D02*
D03*
X660000Y1008000D02*
D03*
Y1022000D02*
D03*
X678750Y1008002D02*
D03*
Y1022002D02*
D03*
X716750Y1008000D02*
D03*
Y1022000D02*
D03*
X753750Y982005D02*
D03*
Y996005D02*
D03*
X735750Y1008000D02*
D03*
Y1022000D02*
D03*
X753750Y1008002D02*
D03*
Y1022002D02*
D03*
X660000Y996003D02*
D03*
Y982003D02*
D03*
X678750Y996005D02*
D03*
Y982005D02*
D03*
X693000Y996003D02*
D03*
Y982003D02*
D03*
X716750Y996003D02*
D03*
Y982003D02*
D03*
X735750Y996003D02*
D03*
Y982003D02*
D03*
X641000Y472002D02*
D03*
Y458002D02*
D03*
X658000Y481002D02*
D03*
Y467002D02*
D03*
X674000Y493002D02*
D03*
Y479002D02*
D03*
X709000Y489002D02*
D03*
Y475002D02*
D03*
X691000Y459002D02*
D03*
Y445002D02*
D03*
X674000Y463002D02*
D03*
Y449002D02*
D03*
X658000Y455000D02*
D03*
Y441000D02*
D03*
X641000Y446002D02*
D03*
Y432002D02*
D03*
Y420002D02*
D03*
Y406002D02*
D03*
X627000Y429002D02*
D03*
Y415002D02*
D03*
X614000Y414998D02*
D03*
Y428998D02*
D03*
X658000Y429000D02*
D03*
Y415000D02*
D03*
X691000Y433002D02*
D03*
Y419002D02*
D03*
X709000Y437002D02*
D03*
Y423002D02*
D03*
X674000Y437002D02*
D03*
Y423002D02*
D03*
X548000Y396998D02*
D03*
Y382998D02*
D03*
X566000Y396998D02*
D03*
Y382998D02*
D03*
X443000Y383002D02*
D03*
Y397002D02*
D03*
Y371002D02*
D03*
Y357002D02*
D03*
X456000Y371002D02*
D03*
Y357002D02*
D03*
X427000Y281998D02*
D03*
Y267998D02*
D03*
X440000D02*
D03*
Y281998D02*
D03*
X508000Y280002D02*
D03*
Y266002D02*
D03*
X724000Y378998D02*
D03*
Y364998D02*
D03*
X723000Y295002D02*
D03*
Y309002D02*
D03*
X516000Y617998D02*
D03*
Y631998D02*
D03*
X217000Y189498D02*
D03*
Y203498D02*
D03*
X156750Y1090602D02*
D03*
Y1104602D02*
D03*
X143750D02*
D03*
Y1090602D02*
D03*
X789000Y1010998D02*
D03*
Y1024998D02*
D03*
X419000Y617998D02*
D03*
Y631998D02*
D03*
X337000Y617998D02*
D03*
Y631998D02*
D03*
X709000Y463003D02*
D03*
Y449003D02*
D03*
X531000Y445000D02*
D03*
Y459000D02*
D03*
X469000Y356998D02*
D03*
Y370998D02*
D03*
X482000Y356998D02*
D03*
Y370998D02*
D03*
X495000Y356998D02*
D03*
Y370998D02*
D03*
X467000Y284998D02*
D03*
Y298998D02*
D03*
X480000Y284998D02*
D03*
Y298998D02*
D03*
X493000Y284998D02*
D03*
Y298998D02*
D03*
X443000Y409002D02*
D03*
Y423002D02*
D03*
X456000Y409002D02*
D03*
Y423002D02*
D03*
D117*
X356000Y204000D02*
D03*
Y238000D02*
D03*
D119*
X496500Y224000D02*
D03*
X469500D02*
D03*
X496000Y177002D02*
D03*
X469000D02*
D03*
D127*
X117505Y197000D02*
D03*
X164495D02*
D03*
D133*
X188000Y144500D02*
D03*
Y117500D02*
D03*
X772000Y1023500D02*
D03*
Y996500D02*
D03*
X513500Y473247D02*
D03*
Y446247D02*
D03*
X401000Y644500D02*
D03*
Y617500D02*
D03*
X355000Y644500D02*
D03*
Y617500D02*
D03*
X535000Y618500D02*
D03*
Y645500D02*
D03*
X543000Y547500D02*
D03*
Y574500D02*
D03*
D134*
X468300Y1056102D02*
D03*
X762899Y603301D02*
D03*
Y374701D02*
D03*
Y831901D02*
D03*
X51699Y603301D02*
D03*
Y374701D02*
D03*
Y831901D02*
D03*
D135*
X44600Y90000D02*
D03*
X70000D02*
D03*
X230000Y1180300D02*
D03*
Y1160000D02*
D03*
X95500D02*
D03*
Y1180300D02*
D03*
D136*
X574700Y975000D02*
D03*
X330898Y907899D02*
D03*
X559498D02*
D03*
X102298D02*
D03*
D137*
X368500Y1093898D02*
D03*
D138*
X388500D02*
D03*
Y1120098D02*
D03*
X368500D02*
D03*
X343499D02*
D03*
D139*
X32000Y1170000D02*
D03*
X808000D02*
D03*
Y32000D02*
D03*
X32000D02*
D03*
D140*
X60000Y140000D02*
D03*
X780000D02*
D03*
X60000Y890000D02*
D03*
X780000D02*
D03*
D141*
X585000Y50000D02*
D03*
X559600Y75400D02*
D03*
X610400D02*
D03*
Y24600D02*
D03*
X559600D02*
D03*
X685600D02*
D03*
X736400D02*
D03*
Y75400D02*
D03*
X685600D02*
D03*
X711000Y50000D02*
D03*
X85300Y1104100D02*
D03*
X240200D02*
D03*
D142*
X149500Y59000D02*
D03*
D143*
X114500D02*
D03*
D144*
X444199Y1090398D02*
D03*
Y1147200D02*
D03*
X312800D02*
D03*
Y1090398D02*
D03*
D145*
X413499Y1093898D02*
D03*
Y1120098D02*
D03*
D146*
X504298Y90000D02*
D03*
X335298D02*
D03*
D147*
X237000Y96000D02*
D03*
Y38001D02*
D03*
D148*
X285000Y66000D02*
D03*
D149*
X105600Y1134600D02*
D03*
X219900D02*
D03*
D150*
X325000Y1019500D02*
D03*
Y1024500D02*
D03*
Y1014500D02*
D03*
X339000Y1024500D02*
D03*
Y1019500D02*
D03*
Y1014500D02*
D03*
Y1041500D02*
D03*
Y1046500D02*
D03*
Y1051500D02*
D03*
X325000Y1041500D02*
D03*
Y1051500D02*
D03*
Y1046500D02*
D03*
D151*
X549500Y1076500D02*
D03*
X554500D02*
D03*
X524500Y1029500D02*
D03*
X529500D02*
D03*
X534500D02*
D03*
X539500D02*
D03*
X544500D02*
D03*
X549500D02*
D03*
X554500D02*
D03*
X559500D02*
D03*
Y1076500D02*
D03*
X544500D02*
D03*
X539500D02*
D03*
X534500D02*
D03*
X529500D02*
D03*
X524500D02*
D03*
D152*
X542000Y1053000D02*
D03*
D153*
X565500Y1035500D02*
D03*
Y1040500D02*
D03*
Y1045500D02*
D03*
Y1050500D02*
D03*
Y1055500D02*
D03*
Y1060500D02*
D03*
Y1065500D02*
D03*
Y1070500D02*
D03*
X518500Y1040500D02*
D03*
Y1045500D02*
D03*
Y1050500D02*
D03*
Y1055500D02*
D03*
Y1060500D02*
D03*
Y1065500D02*
D03*
Y1070500D02*
D03*
Y1035500D02*
D03*
D154*
X778000Y1043000D02*
D03*
X794000D02*
D03*
X454000Y224000D02*
D03*
X438000D02*
D03*
X483000Y618000D02*
D03*
X499000D02*
D03*
X304000D02*
D03*
X320000D02*
D03*
X435000D02*
D03*
X451000D02*
D03*
X321000Y238000D02*
D03*
X337000D02*
D03*
D155*
X120000Y157500D02*
D03*
X144000D02*
D03*
X120000Y100500D02*
D03*
X144000D02*
D03*
D156*
X711250Y309250D02*
D03*
X704750D02*
D03*
X698250D02*
D03*
X691750D02*
D03*
X685250D02*
D03*
X678750D02*
D03*
X672250D02*
D03*
X665750D02*
D03*
X659250D02*
D03*
X652750D02*
D03*
X711250Y364750D02*
D03*
X704750D02*
D03*
X698250D02*
D03*
X691750D02*
D03*
X685250D02*
D03*
X678750D02*
D03*
X672250D02*
D03*
X665750D02*
D03*
X659250D02*
D03*
X652750D02*
D03*
X571000Y302000D02*
D03*
X564500D02*
D03*
X558000D02*
D03*
X551500D02*
D03*
X545000D02*
D03*
X538500D02*
D03*
X532000D02*
D03*
X525500D02*
D03*
X519000D02*
D03*
X512500D02*
D03*
X571000Y357500D02*
D03*
X564500D02*
D03*
X558000D02*
D03*
X551500D02*
D03*
X545000D02*
D03*
X538500D02*
D03*
X532000D02*
D03*
X525500D02*
D03*
X519000D02*
D03*
X512500D02*
D03*
D157*
X470000Y590000D02*
D03*
X493000D02*
D03*
X516000D02*
D03*
D158*
X493000Y532000D02*
D03*
D159*
X195000Y238000D02*
D03*
X259000D02*
D03*
D160*
X640249Y1044251D02*
D03*
X697150D02*
D03*
D161*
X624249Y1174251D02*
D03*
X755750Y1185749D02*
D03*
D162*
X632149Y1147250D02*
D03*
X643150D02*
D03*
X654150Y1149249D02*
D03*
X665149Y1147250D02*
D03*
X676149Y1149249D02*
D03*
X687150Y1147250D02*
D03*
X698151Y1143250D02*
D03*
X709149Y1147250D02*
D03*
D163*
X495750Y158002D02*
D03*
X469250D02*
D03*
Y146002D02*
D03*
X495750D02*
D03*
D164*
X490000Y247000D02*
D03*
Y266000D02*
D03*
X461000D02*
D03*
Y256500D02*
D03*
Y247000D02*
D03*
D165*
X649250Y259750D02*
D03*
Y139250D02*
D03*
X529750D02*
D03*
Y259750D02*
D03*
D166*
X649250Y248500D02*
D03*
Y241500D02*
D03*
Y234500D02*
D03*
Y227500D02*
D03*
Y220500D02*
D03*
Y213500D02*
D03*
Y206500D02*
D03*
Y199500D02*
D03*
Y192500D02*
D03*
Y185500D02*
D03*
Y178500D02*
D03*
Y171500D02*
D03*
Y164500D02*
D03*
Y157500D02*
D03*
Y150500D02*
D03*
X529750D02*
D03*
Y157500D02*
D03*
Y164500D02*
D03*
Y171500D02*
D03*
Y178500D02*
D03*
Y185500D02*
D03*
Y192500D02*
D03*
Y199500D02*
D03*
Y206500D02*
D03*
Y213500D02*
D03*
Y220500D02*
D03*
Y227500D02*
D03*
Y234500D02*
D03*
Y241500D02*
D03*
Y248500D02*
D03*
D167*
X638500Y139250D02*
D03*
X540500Y259750D02*
D03*
X631500Y139250D02*
D03*
X624500D02*
D03*
X617500D02*
D03*
X610500D02*
D03*
X603500D02*
D03*
X596500D02*
D03*
X589500D02*
D03*
X582500D02*
D03*
X575500D02*
D03*
X568500D02*
D03*
X561500D02*
D03*
X554500D02*
D03*
X547500D02*
D03*
X540500D02*
D03*
X547500Y259750D02*
D03*
X554500D02*
D03*
X561500D02*
D03*
X568500D02*
D03*
X575500D02*
D03*
X582500D02*
D03*
X589500D02*
D03*
X596500D02*
D03*
X603500D02*
D03*
X610500D02*
D03*
X617500D02*
D03*
X624500D02*
D03*
X631500D02*
D03*
X638500D02*
D03*
D168*
X628000Y224000D02*
D03*
Y210000D02*
D03*
Y189000D02*
D03*
Y175000D02*
D03*
Y161000D02*
D03*
X614000D02*
D03*
X600000D02*
D03*
X614000Y238000D02*
D03*
Y224000D02*
D03*
Y210000D02*
D03*
X600000Y238000D02*
D03*
Y224000D02*
D03*
Y210000D02*
D03*
Y189000D02*
D03*
X614000D02*
D03*
Y175000D02*
D03*
X600000D02*
D03*
X579000Y238000D02*
D03*
X565000D02*
D03*
X551000D02*
D03*
X579000Y224000D02*
D03*
Y210000D02*
D03*
X565000Y224000D02*
D03*
Y210000D02*
D03*
X551000Y224000D02*
D03*
Y210000D02*
D03*
X579000Y189000D02*
D03*
X565000D02*
D03*
X551000D02*
D03*
X579000Y175000D02*
D03*
Y161000D02*
D03*
X565000Y175000D02*
D03*
Y161000D02*
D03*
X551000Y175000D02*
D03*
Y161000D02*
D03*
X628000Y238000D02*
D03*
D169*
X355000Y590250D02*
D03*
X401000D02*
D03*
D170*
X378000Y520750D02*
D03*
D171*
X279500Y1041500D02*
D03*
Y1051500D02*
D03*
X306500Y1041500D02*
D03*
Y1051500D02*
D03*
X279500Y1014500D02*
D03*
Y1024500D02*
D03*
X306500Y1014500D02*
D03*
Y1024500D02*
D03*
M02*
