G04 Layer_Color=8388736*
%FSLAX44Y44*%
%MOMM*%
G71*
G01*
G75*
%ADD49C,1.3000*%
%ADD61C,2.0000*%
%ADD65C,1.6000*%
%ADD113R,0.9000X1.0000*%
%ADD114R,1.4000X1.1000*%
%ADD115R,1.0000X0.9000*%
%ADD116R,2.1000X2.6000*%
%ADD117R,0.6000X2.3500*%
%ADD118R,0.9000X1.7000*%
%ADD119O,0.8000X2.6000*%
%ADD120R,1.2000X1.8000*%
%ADD121R,1.2000X0.7500*%
%ADD122R,1.0000X0.7500*%
%ADD123R,2.5000X1.3000*%
%ADD124C,1.1000*%
%ADD125R,0.8000X2.1000*%
%ADD126R,3.1000X2.5000*%
%ADD127R,2.9000X2.0000*%
%ADD128R,2.7162X2.8432*%
%ADD129R,3.1000X0.8000*%
%ADD130C,5.1000*%
%ADD131R,0.6000X2.4000*%
%ADD132R,2.4000X0.6000*%
%ADD133R,2.4000X2.4000*%
%ADD134R,1.8000X1.2000*%
%ADD135R,1.6000X1.6000*%
%ADD136C,1.9000*%
%ADD137C,1.7000*%
%ADD138C,1.0000*%
%ADD139R,1.6000X1.6000*%
%ADD140C,1.4000*%
%ADD141C,1.5200*%
%ADD142C,6.1000*%
%ADD143C,4.1000*%
%ADD144C,2.6000*%
%ADD145C,2.0000*%
%ADD146R,2.0000X2.0000*%
%ADD147C,2.9000*%
%ADD148R,1.5200X1.5200*%
%ADD149C,3.1000*%
%ADD150O,3.6000X1.4000*%
%ADD151O,1.4000X3.6000*%
%ADD152C,3.3500*%
%ADD153C,1.7000*%
D49*
X343499Y1093898D02*
D03*
D61*
X455000Y739200D02*
D03*
X390000Y289200D02*
D03*
D65*
X493700Y1030702D02*
D03*
X468300D02*
D03*
X493700Y1056102D02*
D03*
X549300Y975000D02*
D03*
X102298Y933299D02*
D03*
X127698D02*
D03*
X153098D02*
D03*
X178498D02*
D03*
X203898D02*
D03*
X229298D02*
D03*
X254698D02*
D03*
X280098D02*
D03*
X356298Y907899D02*
D03*
X381698D02*
D03*
X407098D02*
D03*
X432498D02*
D03*
X457898D02*
D03*
X483298D02*
D03*
X508698D02*
D03*
X534098D02*
D03*
X584898D02*
D03*
X610298D02*
D03*
X635698D02*
D03*
X305498Y933299D02*
D03*
X330898D02*
D03*
X356298D02*
D03*
X381698D02*
D03*
X407098D02*
D03*
X432498D02*
D03*
X457898D02*
D03*
X483298D02*
D03*
X508698D02*
D03*
X534098D02*
D03*
X559498D02*
D03*
X584898D02*
D03*
X610298D02*
D03*
X635698D02*
D03*
X127698Y907899D02*
D03*
X153098D02*
D03*
X178498D02*
D03*
X203898D02*
D03*
X229298D02*
D03*
X254698D02*
D03*
X280098D02*
D03*
X305498D02*
D03*
X661098D02*
D03*
X686498D02*
D03*
X711898D02*
D03*
X737298D02*
D03*
X661098Y933299D02*
D03*
X686498D02*
D03*
X711898D02*
D03*
X737298D02*
D03*
X788299Y831901D02*
D03*
Y806501D02*
D03*
Y781101D02*
D03*
Y755701D02*
D03*
Y730301D02*
D03*
Y704901D02*
D03*
Y679501D02*
D03*
Y654101D02*
D03*
X762899Y577901D02*
D03*
Y552501D02*
D03*
Y527101D02*
D03*
Y501701D02*
D03*
Y476301D02*
D03*
Y450901D02*
D03*
Y425501D02*
D03*
Y400101D02*
D03*
Y349301D02*
D03*
Y323901D02*
D03*
Y298501D02*
D03*
X788299Y628701D02*
D03*
Y603301D02*
D03*
Y577901D02*
D03*
Y552501D02*
D03*
Y527101D02*
D03*
Y501701D02*
D03*
Y476301D02*
D03*
Y450901D02*
D03*
Y425501D02*
D03*
Y400101D02*
D03*
Y374701D02*
D03*
Y349301D02*
D03*
Y323901D02*
D03*
Y298501D02*
D03*
X762899Y806501D02*
D03*
Y781101D02*
D03*
Y755701D02*
D03*
Y730301D02*
D03*
Y704901D02*
D03*
Y679501D02*
D03*
Y654101D02*
D03*
Y628701D02*
D03*
Y273101D02*
D03*
Y247701D02*
D03*
Y222301D02*
D03*
Y196901D02*
D03*
X788299Y273101D02*
D03*
Y247701D02*
D03*
Y222301D02*
D03*
Y196901D02*
D03*
X77099Y831901D02*
D03*
Y806501D02*
D03*
Y781101D02*
D03*
Y755701D02*
D03*
Y730301D02*
D03*
Y704901D02*
D03*
Y679501D02*
D03*
Y654101D02*
D03*
X51699Y577901D02*
D03*
Y552501D02*
D03*
Y527101D02*
D03*
Y501701D02*
D03*
Y476301D02*
D03*
Y450901D02*
D03*
Y425501D02*
D03*
Y400101D02*
D03*
Y349301D02*
D03*
Y323901D02*
D03*
Y298501D02*
D03*
X77099Y628701D02*
D03*
Y603301D02*
D03*
Y577901D02*
D03*
Y552501D02*
D03*
Y527101D02*
D03*
Y501701D02*
D03*
Y476301D02*
D03*
Y450901D02*
D03*
Y425501D02*
D03*
Y400101D02*
D03*
Y374701D02*
D03*
Y349301D02*
D03*
Y323901D02*
D03*
Y298501D02*
D03*
X51699Y806501D02*
D03*
Y781101D02*
D03*
Y755701D02*
D03*
Y730301D02*
D03*
Y704901D02*
D03*
Y679501D02*
D03*
Y654101D02*
D03*
Y628701D02*
D03*
Y273101D02*
D03*
Y247701D02*
D03*
Y222301D02*
D03*
Y196901D02*
D03*
X77099Y273101D02*
D03*
Y247701D02*
D03*
Y222301D02*
D03*
Y196901D02*
D03*
X207200Y1071100D02*
D03*
X194500Y1045700D02*
D03*
X169100D02*
D03*
X118300D02*
D03*
X131000Y1071100D02*
D03*
X156400D02*
D03*
X181800D02*
D03*
X143700Y1045700D02*
D03*
D113*
X319002Y1064000D02*
D03*
X333002D02*
D03*
X609002Y1078000D02*
D03*
X595002D02*
D03*
X319002Y1002000D02*
D03*
X333002D02*
D03*
X595002Y1094000D02*
D03*
X609002D02*
D03*
X607998Y1027000D02*
D03*
X593998D02*
D03*
X152002Y227000D02*
D03*
X138002D02*
D03*
X689998Y156000D02*
D03*
X675998D02*
D03*
X689998Y182000D02*
D03*
X675998D02*
D03*
X689998Y195000D02*
D03*
X675998D02*
D03*
X689998Y208000D02*
D03*
X675998D02*
D03*
X689998Y169000D02*
D03*
X675998D02*
D03*
X609998Y248000D02*
D03*
X623998D02*
D03*
D114*
X377000Y1046000D02*
D03*
Y1062000D02*
D03*
X580000Y1078000D02*
D03*
Y1094000D02*
D03*
X377000Y991998D02*
D03*
Y1007998D02*
D03*
X579000Y997000D02*
D03*
Y1013000D02*
D03*
Y1043000D02*
D03*
Y1027000D02*
D03*
D115*
X392000Y1062998D02*
D03*
Y1048998D02*
D03*
X481000Y1010002D02*
D03*
Y996002D02*
D03*
X468000Y1010002D02*
D03*
Y996002D02*
D03*
X529000Y1036002D02*
D03*
Y1022002D02*
D03*
X516000Y1036002D02*
D03*
Y1022002D02*
D03*
X628000Y1007998D02*
D03*
Y1021998D02*
D03*
X494000Y995998D02*
D03*
Y1009998D02*
D03*
X516000Y995998D02*
D03*
Y1009998D02*
D03*
X487999Y1108497D02*
D03*
Y1122497D02*
D03*
X392000Y1008998D02*
D03*
Y994998D02*
D03*
X641000Y1008002D02*
D03*
Y1022002D02*
D03*
X529000Y1009998D02*
D03*
Y995998D02*
D03*
X406000Y966002D02*
D03*
Y980002D02*
D03*
X425000Y966002D02*
D03*
Y980002D02*
D03*
X444000Y966002D02*
D03*
Y980002D02*
D03*
X287000Y1089998D02*
D03*
Y1075998D02*
D03*
X273000Y1089998D02*
D03*
Y1075998D02*
D03*
X737500Y1162998D02*
D03*
Y1176998D02*
D03*
X712500D02*
D03*
Y1162998D02*
D03*
X690000D02*
D03*
Y1176998D02*
D03*
X640000D02*
D03*
Y1162998D02*
D03*
X665000Y1176998D02*
D03*
Y1162998D02*
D03*
X329000Y225002D02*
D03*
Y211002D02*
D03*
X207000Y132002D02*
D03*
Y146002D02*
D03*
D116*
X512499Y1177500D02*
D03*
X601501D02*
D03*
X512499Y1122500D02*
D03*
X601501D02*
D03*
D117*
X541001D02*
D03*
X548999D02*
D03*
X557000D02*
D03*
X564998D02*
D03*
X572999D02*
D03*
D118*
X601000Y975000D02*
D03*
Y1009000D02*
D03*
D119*
X444050Y1053500D02*
D03*
X431350D02*
D03*
X418650D02*
D03*
X405950D02*
D03*
X444050Y1004500D02*
D03*
X431350D02*
D03*
X418650D02*
D03*
X405950D02*
D03*
D120*
X305500Y1046500D02*
D03*
X332500D02*
D03*
X305000Y1019500D02*
D03*
X332000D02*
D03*
X605500Y1060000D02*
D03*
X578500D02*
D03*
D121*
X542625Y1007000D02*
D03*
D122*
X563375Y1016500D02*
D03*
Y997500D02*
D03*
D123*
X645000Y1090500D02*
D03*
X735000D02*
D03*
X645000Y1045500D02*
D03*
X735000D02*
D03*
D124*
X603000Y119000D02*
D03*
X506000Y194000D02*
D03*
Y212000D02*
D03*
X586000Y142000D02*
D03*
D125*
X171950Y171500D02*
D03*
X184650D02*
D03*
X197350D02*
D03*
X210050D02*
D03*
Y227500D02*
D03*
X171950D02*
D03*
X184650D02*
D03*
X197350D02*
D03*
D126*
X191000Y199500D02*
D03*
D127*
X260000Y215500D02*
D03*
Y174500D02*
D03*
D128*
X245505Y133000D02*
D03*
X292495D02*
D03*
D129*
X107998Y117250D02*
D03*
X155998D02*
D03*
D130*
X419798Y90000D02*
D03*
D131*
X384000Y328200D02*
D03*
X392000D02*
D03*
X400000D02*
D03*
X408000D02*
D03*
X584000D02*
D03*
X576000D02*
D03*
X568000D02*
D03*
X560000D02*
D03*
X552000D02*
D03*
X544000D02*
D03*
X536000D02*
D03*
X528000D02*
D03*
X520000D02*
D03*
X512000D02*
D03*
X504000D02*
D03*
X496000D02*
D03*
X488000D02*
D03*
X480000D02*
D03*
X472000D02*
D03*
X464000D02*
D03*
X456000D02*
D03*
X448000D02*
D03*
X440000D02*
D03*
X432000D02*
D03*
X424000D02*
D03*
X416000D02*
D03*
X360000D02*
D03*
X352000D02*
D03*
X344000D02*
D03*
X336000D02*
D03*
X328000D02*
D03*
X320000D02*
D03*
X312000D02*
D03*
X304000D02*
D03*
X296000D02*
D03*
X288000D02*
D03*
X280000D02*
D03*
X272000D02*
D03*
X264000D02*
D03*
X256000Y700200D02*
D03*
X264000D02*
D03*
X272000D02*
D03*
X296000D02*
D03*
X304000D02*
D03*
X312000D02*
D03*
X320000D02*
D03*
X328000D02*
D03*
X336000D02*
D03*
X344000D02*
D03*
X352000D02*
D03*
X360000D02*
D03*
X368000D02*
D03*
X376000D02*
D03*
X384000D02*
D03*
X392000D02*
D03*
X400000D02*
D03*
X408000D02*
D03*
X416000D02*
D03*
X424000D02*
D03*
X432000D02*
D03*
X440000D02*
D03*
X448000D02*
D03*
X456000D02*
D03*
X464000D02*
D03*
X472000D02*
D03*
X480000D02*
D03*
X488000D02*
D03*
X496000D02*
D03*
X504000D02*
D03*
X512000D02*
D03*
X520000D02*
D03*
X528000D02*
D03*
X536000D02*
D03*
X544000D02*
D03*
X552000D02*
D03*
X560000D02*
D03*
X568000D02*
D03*
X576000D02*
D03*
X584000D02*
D03*
X256000Y328200D02*
D03*
X376000D02*
D03*
X368000D02*
D03*
X288000Y700200D02*
D03*
X280000D02*
D03*
D132*
X234000Y350200D02*
D03*
Y358200D02*
D03*
Y366200D02*
D03*
Y374200D02*
D03*
Y382200D02*
D03*
Y390200D02*
D03*
Y398200D02*
D03*
Y406200D02*
D03*
Y414200D02*
D03*
Y422200D02*
D03*
Y430200D02*
D03*
Y438200D02*
D03*
Y446200D02*
D03*
Y454200D02*
D03*
Y462200D02*
D03*
Y470200D02*
D03*
Y478200D02*
D03*
Y486200D02*
D03*
Y494200D02*
D03*
Y502200D02*
D03*
Y510200D02*
D03*
Y518200D02*
D03*
Y526200D02*
D03*
Y534200D02*
D03*
Y542200D02*
D03*
Y550200D02*
D03*
Y558200D02*
D03*
Y566200D02*
D03*
Y574200D02*
D03*
Y582200D02*
D03*
Y590200D02*
D03*
Y598200D02*
D03*
Y606200D02*
D03*
Y614200D02*
D03*
Y622200D02*
D03*
Y630200D02*
D03*
Y638200D02*
D03*
Y646200D02*
D03*
Y654200D02*
D03*
Y662200D02*
D03*
Y670200D02*
D03*
Y678200D02*
D03*
X606000Y350200D02*
D03*
Y358200D02*
D03*
Y366200D02*
D03*
Y374200D02*
D03*
Y382200D02*
D03*
Y390200D02*
D03*
Y398200D02*
D03*
Y406200D02*
D03*
Y414200D02*
D03*
Y422200D02*
D03*
Y430200D02*
D03*
Y438200D02*
D03*
Y446200D02*
D03*
Y454200D02*
D03*
Y462200D02*
D03*
Y470200D02*
D03*
Y478200D02*
D03*
Y486200D02*
D03*
Y494200D02*
D03*
Y502200D02*
D03*
Y510200D02*
D03*
Y518200D02*
D03*
Y526200D02*
D03*
Y534200D02*
D03*
Y542200D02*
D03*
Y550200D02*
D03*
Y558200D02*
D03*
Y566200D02*
D03*
Y574200D02*
D03*
Y582200D02*
D03*
Y590200D02*
D03*
Y598200D02*
D03*
Y606200D02*
D03*
Y614200D02*
D03*
Y622200D02*
D03*
Y630200D02*
D03*
Y638200D02*
D03*
Y646200D02*
D03*
Y654200D02*
D03*
Y662200D02*
D03*
Y670200D02*
D03*
Y678200D02*
D03*
D133*
Y700200D02*
D03*
Y328200D02*
D03*
X234000Y700200D02*
D03*
X234000Y328200D02*
D03*
D134*
X188000Y144500D02*
D03*
Y117500D02*
D03*
X311000Y223500D02*
D03*
Y196500D02*
D03*
D135*
X468300Y1056102D02*
D03*
X762899Y603301D02*
D03*
Y374701D02*
D03*
Y831901D02*
D03*
X51699Y603301D02*
D03*
Y374701D02*
D03*
Y831901D02*
D03*
D136*
X825000Y1064200D02*
D03*
Y1115000D02*
D03*
Y1089600D02*
D03*
Y1013400D02*
D03*
Y988000D02*
D03*
Y962600D02*
D03*
Y1038800D02*
D03*
Y937200D02*
D03*
D137*
X44600Y90000D02*
D03*
X70000D02*
D03*
D138*
X534999Y1148498D02*
D03*
X578999D02*
D03*
D139*
X574700Y975000D02*
D03*
X330898Y907899D02*
D03*
X559498D02*
D03*
X102298D02*
D03*
D140*
X368500Y1093898D02*
D03*
D141*
X388500D02*
D03*
Y1120098D02*
D03*
X368500D02*
D03*
X343499D02*
D03*
D142*
X32000Y1170000D02*
D03*
X808000D02*
D03*
Y32000D02*
D03*
X32000D02*
D03*
D143*
X60000Y140000D02*
D03*
X780000D02*
D03*
X60000Y890000D02*
D03*
X780000D02*
D03*
D144*
X585000Y50000D02*
D03*
X559600Y75400D02*
D03*
X610400D02*
D03*
Y24600D02*
D03*
X559600D02*
D03*
X685600D02*
D03*
X736400D02*
D03*
Y75400D02*
D03*
X685600D02*
D03*
X711000Y50000D02*
D03*
X85300Y1104100D02*
D03*
X240200D02*
D03*
D145*
X149500Y59000D02*
D03*
D146*
X114500D02*
D03*
D147*
X444199Y1090398D02*
D03*
Y1147200D02*
D03*
X312800D02*
D03*
Y1090398D02*
D03*
D148*
X413499Y1093898D02*
D03*
Y1120098D02*
D03*
D149*
X504298Y90000D02*
D03*
X335298D02*
D03*
D150*
X237000Y96000D02*
D03*
Y38001D02*
D03*
D151*
X285000Y66000D02*
D03*
D152*
X105600Y1134600D02*
D03*
X219900D02*
D03*
D153*
X230000Y1180300D02*
D03*
Y1160000D02*
D03*
X95500D02*
D03*
Y1180300D02*
D03*
M02*
