M48
;Layer_Color=9474304
;FILE_FORMAT=4:4
METRIC,LZ
;TYPE=PLATED
T1F00S00C0.2500
T2F00S00C0.3000
T3F00S00C0.3500
T5F00S00C0.8900
T6F00S00C0.9000
T7F00S00C0.9200
T8F00S00C0.9500
T9F00S00C1.0200
T10F00S00C1.1500
T11F00S00C1.4000
T12F00S00C1.6000
T13F00S00C1.6300
T14F00S00C1.7000
T15F00S00C1.8000
T16F00S00C2.3000
T17F00S00C3.2000
T18F00S00C3.2500
;TYPE=NON_PLATED
T19F00S00C0.9000
T20F00S00C1.1500
%
T01
X003185Y010195
Y010465
X003455Y010465
Y010195
T02
X00005492Y00063592
X00017992
X00011742Y00076092
X00024242
X00036742
X00017992Y00088592
X00005492
X00011742Y00101092
X00024242
X00017992Y00113592
X00005492
X00011742Y00126092
X00024242
X00036742
X00030492Y00113592
X00042992
X00055492
X00067992
X00092993Y00133593
X00087993Y00143593
X00092993Y00153593
X00087993Y00163593
X00092993Y00173593
X00082993
X00072993
X00077993Y00183593
X00087993
X00092993Y00193593
X00024242Y00176092
X00011742
X00005492Y00163592
X00017992
X00030492
X00024242Y00151092
X00011742
X00005492Y00138592
X00017992
X00030492
X00036742Y00151092
X00005492Y00188592
X00011742Y00201092
X00005492Y00213592
X00011742Y00226092
X00005492Y00238592
X00011742Y00251092
X00005492Y00263592
X00011742Y00276092
X00005492Y00288592
X00011742Y00301092
X00005492Y00313592
X00011742Y00326092
X00005492Y00338592
X00055492Y00063592
X00061742Y00051092
X00074242
X00067992Y00038592
X00080492
X00092992
X00086742Y00026092
X00074242
X00067992Y00013592
X00080492
X00092992
X00105492
X00117992
X00130492
X00142992
X00155492
X00167992
X00180492
X00192992
X00205492
X00217992
X00230492
X00242992
X00255492
X00267992
X00280492
X00292992
X00305492
X00317992
X00330492
X00342992
X00355492
X00367992
X00380492
X00392992
X00405492
X00417992
X00430492
X00442992
X00455492
X00467992
X00480492
X00474242Y00026092
X00461742
X00449242
X00436742
X00424242
X00411742
X00399242
X00386742
X00374242
X00361742
X00349242
X00336742
X00324242
X00311742
X00299242
X00286742
X00305492Y00038592
X00317992
X00330492
X00342992
X00355492
X00367992
X00380492
X00392992
X00405492
X00417992
X00430492
X00442992
X00455492
X00467992
X00480492
X00474242Y00051092
X00461742
X00449242
X00436742
X00424242
X00411742
X00399242
X00386742
X00374242
X00361742
X00349242
X00336742
X00324242
X00311742
X00299242
X00305492Y00063592
X00317992
X00330492
X00342992
X00355492
X00367992
X00380492
X00392992
X00405492
X00386742Y00076092
X00374242
X00361742
X00355492Y00113592
X00367992
X00380492
X00392992
X00386742Y00126092
X00374242
X00361742
X00349242
X00355492Y00138592
X00367992
X00380492
X00392992
X00405492
X00399242Y00126092
Y00151092
X00386742
X00374242
X00361742
X00349242
X00336742
X00330492Y00163592
X00342992
X00355492
X00367992
X00380492
X00392992
X00405492
X00432Y00158
Y00145
X0046Y00131
X00455492Y00113592
X00442992
X00467992
X00480492
X0049Y00131
X00478002Y00146002
X00486Y00177
X00475003Y00194
Y00207
X00461742Y00201092
X00454Y00213
X00479Y00224
X0047Y00237
X00474Y00246
X004515Y002565
X00427Y00255
X00410273Y00272727
X00408Y00312
X004
X00344Y003094
X00331Y00309
X00332994Y00253593
X00322994
X00312994
X00302994
X00292994
X00282994
X00277994Y00243593
X00287994
X00297994
X00292994Y00233593
X00282994
X00287994Y00223593
X00297994
X00292994Y00213593
X00282994
Y00173593
X00292994
X00306Y00186998
X00316
X00329Y00203
X00347Y00202
Y00189
X00356
X00364
X00364Y00202
X00311Y00238
X00237994Y00243593
X00227994
X00217994
X00222994Y00253593
X00232994
Y00233593
X00227994Y00223593
X00237994
X00232994Y00213593
X00218Y002275
X00201Y002095
X00191
Y001995
Y001895
X00201
Y001995
X00181
Y001895
Y002095
X00164Y002275
X00167Y00255
X00178
X0013Y00245
X0013Y00227
X00137993Y00203593
Y00183593
X00144Y00171
X00122993Y00173593
X00112993
X00102993
X00097993Y00163593
X00107993
X00102993Y00153593
X00097993Y00143593
X00107993
X00112993Y00133593
X00102993
X00108Y00127
X00122993Y00133593
X00142993
X00152993
X00162994
X00172994
X00182994
X00172Y001445
X00172994Y00153593
X00162994
X00157993Y00143593
X00144Y00144
X00156Y00124
X00175002Y00117252
X00186742Y00101092
X00199242
X00211742
X00205492Y00088592
X00192992
X00199242Y00076092
X00211742
X00224242
X00261742
X00255492Y00063592
X00267992
X00261742Y00051092
X00249242
X00267992Y00088592
X00261742Y00101092
X00274242
X00286742
X00299242
X00311742
X00305492Y00088592
X00292992
X00299242Y00076092
X00311742
X00311002Y00123
Y00134
Y00144
X00262994Y00153593
X00252994
X00242994
X00232994
X00222994
X00217994Y00163593
X00227994
X00237994
X00232994Y00173593
X00219Y00176
X0019735Y0015635
X00207Y00124
X00222994Y00133593
X00262994
X00155492Y00088592
X00111742Y00026092
X00099242
X00097993Y00183593
Y00203593
X00097Y0025
X001Y0026
X00127Y00307
X00135Y00299
X00218Y0032
X00226Y00313
X00235
X00243
X00456Y00288
X0048Y00276
X00459502Y00181998
Y00172998
X00461742Y00076092
X00449242
X00442992Y00063592
X00455492
X00467992
X00480492
X00474242Y00076092
X00486742Y00051092
Y00026092
X00499242
X00511742
X00524242
X00536742
X00530492Y00013592
X00517992
X00505492
X00492992
Y00038592
X00505492
X00517992
X00530492
X00542992
X00536742Y00051092
X00524242
X00511742
X00499242
X00492992Y00063592
X00505492
X00517992
X00530492
X00542992
X00536742Y00076092
X00524242
X00530492Y00088592
X00544Y0009
X00536742Y00101092
X0053Y00104
X0052975Y00117
X005295Y001305
X00521Y00139
Y0015
X00519999Y00171
X0051Y00177
X00508783Y00193783
X00517Y00199
X00518Y00189
X00542Y00189
Y00175
Y00161
X00551Y00152
X00565
X00579
X0059Y00161
Y00175
Y00189
X0059Y00201
X006
X00614
X00628
X00641308Y001995
X00637Y00189
Y00175
Y00161
X0064Y00151
X00628Y00152
X00614
X006
X0060325Y001305
X0059Y00129
Y00114
X00576Y00119
X00562999Y00119
X00554Y00122
X0055425Y001305
X00573Y0013
X0062425Y001305
X00624Y0012
X00617992Y00113592
X00611742Y00101092
X00624242
X00631Y00098
X00630492Y00088592
X00642992
X0065Y00091
X00649242Y00076092
X00636742
X00630492Y00063592
X00642992
X00655492
X00667992
X00661742Y00051092
X00649242
X00636742
X00624242
X00611742
X00630492Y00038592
X00642992
X00655492
X00667992
X00661742Y00026092
X00649242
X00636742
X00630492Y00013592
X00642992
X00655492
X00667992
X00705492
X00717992
X00711742Y00026092
X00686742Y00051092
X00674242
X00661742Y00076092
X0067Y00091
X00677Y0012
X00692
X00686742Y00126092
X00699242
X00705492Y00113592
X00717992
X00714Y0012
X00724242Y00126092
X00736742
X00749242
X00742992Y00113592
X00730492
X00727Y00107
X007364Y000976
X00749242Y00101092
X00761742
X00774242
X00786742
X00799242
X00811742
X00824242
X00817992Y00088592
X00805492
X00792992
X00780492
X00767992
X00755492
X00761742Y00076092
X00774242
X00786742
X00799242
X00811742
X00824242
X00830492Y00063592
Y00088592
Y00113592
X00817992
X00805492
X00792992
X00767992
X00755492
Y00063592
X00767992
X00780492
X00792992
X00774242Y00051092
X00761742
X00749242
X00736742
X00755492Y00038592
X00767992
X00761742Y00026092
X00774242
X00767992Y00013592
X00755492
X00592992
X00580492
X00586742Y00026092
X00561742Y00051092
X00549242
X00542992Y00013592
X00517992Y00113592
X00505492
X00492992
X00499242Y00126092
X00511742
X00506Y00158
X00509Y00212
X00542Y00205
X00551Y00201
X00565
X00579
X00579Y00247
X0059Y00246959
X006
X00565Y00247
X00551
X0054Y00247
X00521Y00259
X00523Y00271
X00517Y0028
X00505Y00294
X00565Y00284
X00583Y00304
X00602Y00313
X00614
X00622Y0032
Y00334
X00645999Y00313999
X00609999Y00298999
X00634999Y00249
X00659Y00214
X00659999Y00199
X00667999Y00193
X00666Y00182
X00665999Y00171
X00659Y00164
X00659Y00139
X00661742Y00126092
X00657Y0012
X00649Y001305
X00683Y00144
X00701Y00169
X00723Y00287
Y00317
X00811742Y00126092
X00824242
X00599Y00099
X00587Y00354
X00588Y0039
Y004
X00566Y00405
Y00375
X00586Y00428
X0059Y00446
X00583Y0047
X0059Y00486
X00557Y00492
X00547Y00506
X0054
X00518Y00483
X00509
X00494Y00471
Y00433
X00505
X00513
X00521
X00531
Y00467
X005Y00402
X005065Y003575
X00495Y00349
X00639Y00372
X00647Y00365
X00641Y00398
X00658Y00399
X00674
X0069Y00406
X00709Y00415
X0073Y00423
X00733Y00379
X00737Y00365
Y00348
X00724Y00351
X00709Y00497
X00691
X00672Y00501
X00658Y00496
X00633Y00494
X00633Y00472
X00674Y00471
X00642499Y00534499
X00630999Y00548999
X00636Y00558
X00623Y00566
Y00526
X00646Y00588
X00640999Y00606999
X0063Y0062
X00633Y00638
X0063Y00669149
X00640999Y00667999
X00622Y00662399
X00623Y00692
Y007
Y00708
X00615Y00727
X00666Y007
Y00688
X00710751Y00690751
X00711Y00668
X00716Y0064
X0072Y0062
Y006
X0068Y00585
Y0056
X0066Y00622
X0059Y00622
X00581Y00643
X00573999Y00650999
X00582399Y0067
X00568Y00683
X0056Y00677
X00544Y00683
X00536Y00677
X00528Y00683
X00512Y00677
X00504Y00683
X00496Y00717
X0052
X0053Y00656
X00541
X00516Y00641
X00537Y00586
X00548
X00704Y00707
X00689Y00722
X00472Y00717
X0044
X0043Y00725
X00432Y00677
X00448
X00456Y00683
X00468Y00677
X0048Y00683
X00488Y00677
X00483Y0063
X00463Y00621
Y00614
X0046Y00598
Y0059
Y00582
X00451Y00606
Y0063
X00419Y0064
X00406Y00654
X00396
X00392Y00677
X004Y00683
X00416
X00376
X00368Y00677
X00344Y00683
X00336Y00677
X0032Y00683
X00312Y00717
X00328
X0036
Y0073
X0034Y00743
X00384Y00717
X0036Y00654
X0035
X00337Y0064
X00304Y0063
X00292Y00622
Y00615
X00304Y00606
X00336742Y00551092
X00330492Y00538592
X00336742Y00526092
X00348Y00522
Y00532
Y00542
X00363
Y00532
Y00522
Y00512
Y00502
Y00492
Y00482
Y00472
X00367992Y00463592
X00355492
X00342992
X00330492
X00336742Y00451092
X00349242
X00361742
X00374242
X00386742
X00399242
X00392992Y00463592
X00393Y00472
Y00482
Y00492
Y00502
Y00512
Y00522
Y00532
Y00542
X00408
Y00532
Y00522
Y00512
Y00502
Y00492
Y00482
Y00472
X00405492Y00463592
X00399242Y00476092
X00386742
X00378Y00472
Y00482
Y00492
Y00502
Y00512
Y00522
Y00532
Y00542
X00411742Y00551092
X00424242
X00417992Y00538592
X00424242Y00526092
X00417992Y00513592
X00424242Y00501092
X00417992Y00488592
X00445Y00463
X0046
X00467999Y00454999
X00475Y0044
X00483Y00462
X00478Y00506
X00445Y00446
X00435Y00435
X00432Y0042
X00423999Y00412999
X00432Y00398
X00456Y00401
Y00349
X00443
X00469
X00431999Y00363999
X00385Y00363
X00392Y0035
X00345Y00362
Y0037
X00316Y00379
X00296
X00288Y00389
X0028Y00398
X00272Y00405
X00264Y00413
X00256Y0042
X0025125Y0043175
X0018Y00446
Y00463
Y00487
Y00502
X00178Y00534
X0017Y00542
Y00558
Y00574
Y0059
X00178Y00599
X00159Y00606
X00211Y00691
Y007
Y00709
X0019925Y00714
X0019125
X00137Y00743
X00208Y0051
X00216Y00518
X0019Y00478
X00188Y00362
X0018
X00148Y00364
X00112Y00371
X00099Y00363
X00304Y00367
X00336742Y00476092
X00348Y00472
Y00482
Y00492
Y00502
Y00512
X00330492Y00513592
X00336742Y00501092
X00330492Y00488592
X00355492
X00380492Y00463592
X00005492
X00011742Y00451092
X00005492Y00438592
X00011742Y00426092
X00005492Y00413592
X00011742Y00401092
X00005492Y00388592
X00011742Y00376092
X00005492Y00363592
X00011742Y00351092
Y00476092
X00005492Y00488592
X00011742Y00501092
X00005492Y00513592
X00011742Y00526092
X00005492Y00538592
X00011742Y00551092
X00005492Y00563592
X00011742Y00576092
X00005492Y00588592
X00011742Y00601092
X00005492Y00613592
X00011742Y00626092
X00005492Y00638592
X00011742Y00651092
X00005492Y00663592
X00011742Y00676092
X00005492Y00688592
X00011742Y00701092
X00005492Y00713592
X00011742Y00726092
X00005492Y00738592
X00011742Y00751092
X00005492Y00763592
X00011742Y00776092
X00005492Y00788592
Y00813592
Y00838592
Y00863592
X00017992
X00011742Y00876092
X00024242
X00036742
X00030492Y00888592
X00017992
X00005492
X00011742Y00901092
X00024242
X00036742
X00030492Y00913592
X00017992
X00005492
X00011742Y00926092
X00024242
X00036742
X00049242
X00042992Y00913592
Y00938592
X00030492
X00017992
X00005492
X00011742Y00951092
X00024242
X00036742
X00049242
X00042992Y00963592
X00030492
X00017992
X00005492
X00011742Y00976092
X00024242
X00036742
X00049242
X00042992Y00988592
X00030492
X00017992
X00005492
X00011742Y01001092
X00024242
X00036742
X00049242
X00042992Y01013592
X00030492
X00017992
X00005492
X00011742Y01026092
X00024242
X00036742
X00049242
X00042992Y01038592
X00030492
X00017992
X00005492
X00011742Y01051092
X00024242
X00036742
X00049242
X00042992Y01063592
X00030492
X00017992
X00005492
X00011742Y01076092
X00024242
X00036742
X00049242
X00042992Y01088592
X00030492
X00017992
X00005492
X00011742Y01101092
X00024242
X00036742
X00049242
X00061742
X00055492Y01088592
Y01063592
Y01038592
Y01013592
Y00988592
Y00963592
Y00938592
Y01113592
X00042992
X00030492
X00017992
X00005492
X00011742Y01126092
X00024242
X00036742
X00049242
X00061742
X00074242
X00067992Y01138592
X00055492
X00080492
X00005492
X00130492
X0014475Y011356
X0014375Y011136
X0015675
X00167992Y01088592
X0017575Y011356
X00192992Y01138592
X00199242Y01126092
X00249242
X00261742
X00274242
X00286742
X00299242
X00292992Y01113592
X00280492
X00267992
Y01138592
X00255492
X00242992
X00280492
X00330492Y01113592
X00311Y01064
X00287Y01067997
X00273
X00293Y010465
Y010195
X00295Y01002
X00310002Y01002002
X0032Y00981
X0033
X0035075Y0099025
X0036Y01
X00392Y00984
X00406Y00988
X00425Y0098855
X0044405Y0098805
X00468Y00986
X00481
X00480002Y00966002
X00490002
X0049Y00953
X0048
X0047
X00454Y00893
X00446999Y00860998
X0044Y00854
X00415Y00859
X00418Y00872
X00399Y00876
X00398999Y00885998
X00385Y0089
X00375Y00869
Y00859
X00368Y00849
X00347Y00851
X00354Y00866
X00361Y00877667
X00329Y00837
X00322Y0083
X00384999Y00821998
X00383Y00812
X00392999Y00812998
X00462Y00816
X00459Y0079
X00489997Y0077
X0043Y00755
X0047Y00861
X00388Y00953
X0038
X00371
X00305999Y00951998
X00286Y00995
X00392Y01019
X00392Y01041
X00431Y01038
X00427Y01073
X00412
X00430492Y01113592
X00467992
X00474242Y01101092
X00488Y011
Y01131
X00236999Y01076998
X0023Y0107
X0015Y00823
X00139Y00828
X00141Y00809
X00131Y00804998
X00131Y00795
X00125Y00812998
X00181Y00749
X0019Y00748
X00499Y00762
X00552Y00768
X0056Y00751997
X00568Y00745
X0052Y00842
X00504Y00845
X00512Y00872
X005135Y00888
X00543Y00895
X00544Y00879
X00636Y00852
X00667Y00854
X00687
X00703Y00864
X00705999Y00837998
Y00827998
Y00817998
X0070575Y00808367
X00732Y00823
X00735Y00874
X00769Y00983
X00781Y00984
X00777Y01006
X00767
X00789Y01003
X00754Y0103
X007525Y010455
X00742992Y01063592
X00730492
X00724242Y01076092
X00736742
X00755Y01079
X00772Y01085
Y01098
X00762563Y01101998
X00764Y01112
X00771Y01124
X00811742Y01126092
X00830492Y01138592
X00801Y01078
X00804Y01053
X00812
X00772Y01059
Y01072
X00736Y0103
X00719
X00677
X00662
X00616Y01027
X00617002Y01055
Y01065
X00617003Y01078
Y01094
X00624Y01103
X00623999Y01115998
X00623899Y01127
X00601501Y0114
X00580492Y01138592
X00564999Y01099
X00556999
X00536742Y01101092
X00524242
X00533999Y01114
Y01122
Y0113
X005345Y01083002
X00566999Y01080998
X00589Y010695
Y0106
X00640249Y01058
X00695Y01055
X00677Y01137
X00657Y01136
X00724242Y01126092
X00641Y01
X00628
X00615999Y00997998
X00635Y00991
X00611742Y00976092
X00516Y00986
X00505
X00494Y00986
X005Y00966
X00507Y01022
X00499242Y01101092
X00833Y00921
X00774242Y01176092
X00780492Y01188592
X007375Y01185
X007125
X0069
X00665
X0064
X00624Y01187
X00580492Y01188592
X00567992
X00555492
X00542992
X00492992
Y01163592
X00499242Y01151092
X00486742
X00474242
X00467992Y01163592
X00480492
X00474242Y01176092
X00461742
X00449242
X00436742
X00424242
X00411742
X00399242
X00386742
X00374242
X00361742
X00349242
X00336742
X00324242
X00311742
X00299242
X00286742
X00274242
X00261742
X00249242
X00242992Y01163592
X00255492
X00267992
X00280492
X00292992
X00286742Y01151092
X00274242
X00261742
X00249242
X00242992Y01188592
X00255492
X00267992
X00280492
X00292992
X00305492
X00317992
X00330492
X00342992
X00355492
X00367992
X00380492
X00392992
X00405492
X00417992
X00430492
X00442992
X00455492
X00467992
X00480492
X00486742Y01176092
X00417992Y01163592
X00405492
X00392992
X00380492
X00367992
X00355492
X00342992
X00330492
X00217992Y01188592
X00205492
X00192992
X00180492
X00167992
X00155492
X00142992
X00130492
X00117992
X00124242Y01151092
X00136742
X00161742Y01176092
X00199242Y01151092
X00074242
X00067992Y01163592
X00080492
X00074242Y01176092
X00067992Y01188592
X00080492
T03
X00534Y01046
Y01059
X00542Y01053
X0055Y01059
Y01046
T05
X001183Y010457
X001437
X001691
X001945
X002072Y010711
X001818
X001564
X00131
T06
X00051699Y00196901
Y00222301
Y00247701
Y00273101
Y00298501
Y00323901
X00077099
Y00298501
Y00273101
Y00247701
Y00222301
Y00196901
X00762899
Y00222301
Y00247701
Y00273101
Y00298501
Y00323901
X00788299
Y00298501
Y00273101
Y00247701
Y00222301
Y00196901
Y00349301
X00762899
Y00374701
Y00400101
Y00425501
Y00450901
Y00476301
Y00501701
Y00527101
Y00552501
Y00577901
Y00603301
X00788299
Y00628701
Y00654101
Y00679501
Y00704901
Y00730301
X00762899
Y00704901
Y00679501
Y00654101
Y00628701
X00788299Y00577901
Y00552501
Y00527101
Y00501701
Y00476301
Y00450901
Y00425501
Y00400101
Y00374701
X00077099
X00051699
Y00400101
Y00425501
Y00450901
Y00476301
Y00501701
Y00527101
Y00552501
Y00577901
Y00603301
X00077099
Y00628701
Y00654101
Y00679501
Y00704901
Y00730301
X00051699
Y00704901
Y00679501
Y00654101
Y00628701
X00077099Y00577901
Y00552501
Y00527101
Y00501701
Y00476301
Y00450901
Y00425501
Y00400101
Y00349301
X00051699
Y00755701
X00077099
Y00781101
Y00806501
Y00831901
X00051699
Y00806501
Y00781101
X00102298Y00907899
Y00933299
X00127698
X00153098
X00178498
X00203898
X00229298
X00254698
X00280098
X00305498
X00330898
Y00907899
X00356298
X00381698
X00407098
X00432498
X00457898
X00483298
Y00933299
X00457898
X00432498
X00407098
X00381698
X00356298
X00305498Y00907899
X00280098
X00254698
X00229298
X00203898
X00178498
X00153098
X00127698
X004683Y01030702
Y01056102
X004937
Y01030702
X005493Y00975
X005747
X00584898Y00933299
Y00907899
X00559498
X00534098
X00508698
Y00933299
X00534098
X00559498
X00610298
Y00907899
X00635698
Y00933299
X00661098
Y00907899
X00686498
X00711898
X00737298
Y00933299
X00711898
X00686498
X00762899Y00831901
X00788299
Y00806501
Y00781101
Y00755701
X00762899
Y00781101
Y00806501
T07
X00343499Y01093898
X003685
X003885
X00413499
Y01120098
X003885
X003685
X00343499
T08
X000446Y0009
X0007
X00825Y009372
Y009626
Y00988
Y010134
Y010388
Y010642
Y010896
Y01115
T09
X0023Y0116
Y011803
X000955
Y0116
T10
X00455Y007392
T11
X001145Y00059
X001495
T12
X00585Y0005
X00711
T13
X000853Y011041
X002402
T14
X005596Y000246
Y000754
X006104
Y000246
X006856
X007364
Y000754
X006856
T15
X00335298Y0009
X00504298
T16
X003128Y01090398
X00444199
Y011472
X003128
T17
X00032Y00032
X0006Y0014
X0078
X00808Y00032
X0006Y0089
X0078
X00808Y0117
X00032
T18
X001056Y011346
X002199
T19
X00534999Y01148498
X00578999
T20
X0039Y002892
M30
