G04 Layer_Physical_Order=3*
G04 Layer_Color=32768*
%FSLAX44Y44*%
%MOMM*%
G71*
G01*
G75*
%ADD10C,0.2000*%
%ADD36C,0.4500*%
%ADD39C,0.5000*%
%ADD57C,1.9000*%
%ADD67C,1.8900*%
%ADD68C,2.0200*%
%ADD69C,2.6300*%
%ADD70C,4.2500*%
G04:AMPARAMS|DCode=71|XSize=2.3mm|YSize=2.3mm|CornerRadius=0mm|HoleSize=0mm|Usage=FLASHONLY|Rotation=0.000|XOffset=0mm|YOffset=0mm|HoleType=Round|Shape=Relief|Width=0.4mm|Gap=0.35mm|Entries=4|*
%AMTHD71*
7,0,0,2.3000,1.6000,0.4000,45*
%
%ADD71THD71*%
%ADD72O,4.0000X1.8000*%
%ADD73O,1.8000X4.0000*%
%ADD74C,2.1500*%
%ADD75C,2.8000*%
G04:AMPARAMS|DCode=76|XSize=2.32mm|YSize=2.32mm|CornerRadius=0mm|HoleSize=0mm|Usage=FLASHONLY|Rotation=0.000|XOffset=0mm|YOffset=0mm|HoleType=Round|Shape=Relief|Width=0.4mm|Gap=0.35mm|Entries=4|*
%AMTHD76*
7,0,0,2.3200,1.6200,0.4000,45*
%
%ADD76THD76*%
%ADD77C,1.9200*%
%ADD78C,3.3000*%
%ADD79C,2.6000*%
G04:AMPARAMS|DCode=80|XSize=3.1mm|YSize=3.1mm|CornerRadius=0mm|HoleSize=0mm|Usage=FLASHONLY|Rotation=0.000|XOffset=0mm|YOffset=0mm|HoleType=Round|Shape=Relief|Width=0.4mm|Gap=0.35mm|Entries=4|*
%AMTHD80*
7,0,0,3.1000,2.4000,0.4000,45*
%
%ADD80THD80*%
%ADD81C,2.4000*%
%ADD82C,1.9500*%
G04:AMPARAMS|DCode=83|XSize=2.35mm|YSize=2.35mm|CornerRadius=0mm|HoleSize=0mm|Usage=FLASHONLY|Rotation=0.000|XOffset=0mm|YOffset=0mm|HoleType=Round|Shape=Relief|Width=0.4mm|Gap=0.35mm|Entries=4|*
%AMTHD83*
7,0,0,2.3500,1.6500,0.4000,45*
%
%ADD83THD83*%
%ADD84C,1.3000*%
%ADD85C,1.2500*%
D10*
X497500Y947500D02*
Y960000D01*
X462500D02*
X497500D01*
X462500Y947500D02*
X497500D01*
X462500D02*
Y960000D01*
X472500D02*
Y972500D01*
Y960000D02*
X507500D01*
X472500Y972500D02*
X507500D01*
Y960000D02*
Y972500D01*
D36*
X437000Y603000D02*
Y643000D01*
Y603000D02*
X465000D01*
X494000D01*
Y623000D01*
Y643000D01*
X438000D02*
X494000D01*
X315000Y595000D02*
Y642000D01*
X281000Y595000D02*
X315000D01*
X281000D02*
Y642000D01*
X315000D01*
X154000Y136000D02*
X198000D01*
X154000D02*
Y150000D01*
X134000D02*
X154000D01*
X134000Y128000D02*
Y150000D01*
X81000Y100000D02*
Y169000D01*
X64399D02*
X81000D01*
X64399D02*
Y209000D01*
X80000D01*
X134000D01*
Y180000D02*
Y209000D01*
Y164000D02*
Y180000D01*
Y164000D02*
X155000D01*
Y167000D01*
X209000D01*
X218000Y136000D02*
Y137000D01*
X198000Y136000D02*
X218000D01*
X134000Y100000D02*
Y128000D01*
X81000Y100000D02*
X134000D01*
X298000Y186000D02*
Y211000D01*
X327000D01*
X340000D01*
Y254000D01*
Y260000D01*
X212000D02*
X340000D01*
X209000D02*
X212000D01*
X209000Y193000D02*
Y260000D01*
Y155000D02*
Y193000D01*
Y155000D02*
X216000D01*
X218000D01*
Y110000D02*
Y155000D01*
Y110000D02*
X280000D01*
Y160000D01*
X298000D01*
Y180000D01*
Y186000D01*
X225000D02*
X298000D01*
X225000D02*
Y193000D01*
X209000D02*
X225000D01*
X340000Y211000D02*
X374000D01*
Y182000D02*
Y211000D01*
X340000Y182000D02*
X374000D01*
X340000D02*
Y211000D01*
D39*
X615000Y1200000D02*
G03*
X747000Y1200000I66000J237445D01*
G01*
X0Y0D02*
X840000D01*
Y1200000D01*
X747000D02*
X840000D01*
X0D02*
X615000D01*
X0Y0D02*
Y1200000D01*
D57*
X77099Y222301D02*
D03*
Y247701D02*
D03*
Y273101D02*
D03*
X51699Y196901D02*
D03*
Y222301D02*
D03*
Y247701D02*
D03*
Y273101D02*
D03*
Y628701D02*
D03*
Y654101D02*
D03*
Y679501D02*
D03*
Y704901D02*
D03*
Y730301D02*
D03*
Y755701D02*
D03*
Y781101D02*
D03*
Y806501D02*
D03*
Y831901D02*
D03*
X77099Y323901D02*
D03*
Y349301D02*
D03*
Y400101D02*
D03*
Y425501D02*
D03*
Y450901D02*
D03*
Y476301D02*
D03*
Y501701D02*
D03*
Y527101D02*
D03*
Y552501D02*
D03*
Y577901D02*
D03*
Y603301D02*
D03*
Y628701D02*
D03*
X51699Y298501D02*
D03*
Y323901D02*
D03*
Y349301D02*
D03*
Y374701D02*
D03*
Y400101D02*
D03*
Y425501D02*
D03*
Y450901D02*
D03*
Y476301D02*
D03*
Y501701D02*
D03*
Y527101D02*
D03*
Y552501D02*
D03*
Y577901D02*
D03*
Y603301D02*
D03*
X77099Y654101D02*
D03*
Y679501D02*
D03*
Y704901D02*
D03*
Y730301D02*
D03*
Y755701D02*
D03*
Y781101D02*
D03*
Y806501D02*
D03*
X788299Y222301D02*
D03*
Y247701D02*
D03*
Y273101D02*
D03*
X762899Y196901D02*
D03*
Y222301D02*
D03*
Y247701D02*
D03*
Y273101D02*
D03*
Y628701D02*
D03*
Y654101D02*
D03*
Y679501D02*
D03*
Y704901D02*
D03*
Y730301D02*
D03*
Y755701D02*
D03*
Y781101D02*
D03*
Y806501D02*
D03*
Y831901D02*
D03*
X788299Y298501D02*
D03*
Y323901D02*
D03*
Y349301D02*
D03*
Y374701D02*
D03*
Y400101D02*
D03*
Y425501D02*
D03*
Y450901D02*
D03*
Y476301D02*
D03*
Y501701D02*
D03*
Y527101D02*
D03*
Y552501D02*
D03*
Y577901D02*
D03*
Y603301D02*
D03*
Y628701D02*
D03*
X762899Y298501D02*
D03*
Y323901D02*
D03*
Y349301D02*
D03*
Y374701D02*
D03*
Y400101D02*
D03*
Y425501D02*
D03*
Y450901D02*
D03*
Y476301D02*
D03*
Y501701D02*
D03*
Y527101D02*
D03*
Y552501D02*
D03*
Y577901D02*
D03*
Y603301D02*
D03*
X788299Y654101D02*
D03*
Y679501D02*
D03*
Y704901D02*
D03*
Y730301D02*
D03*
Y755701D02*
D03*
Y781101D02*
D03*
Y806501D02*
D03*
X737298Y933299D02*
D03*
X711898D02*
D03*
X686498D02*
D03*
X661098D02*
D03*
X737298Y907899D02*
D03*
X711898D02*
D03*
X686498D02*
D03*
X661098D02*
D03*
X305498D02*
D03*
X280098D02*
D03*
X229298D02*
D03*
X203898D02*
D03*
X178498D02*
D03*
X127698D02*
D03*
X102298D02*
D03*
X610298Y933299D02*
D03*
X584898D02*
D03*
X559498D02*
D03*
X534098D02*
D03*
X483298D02*
D03*
X457898D02*
D03*
X432498D02*
D03*
X407098D02*
D03*
X356298D02*
D03*
X330898D02*
D03*
X305498D02*
D03*
X610298Y907899D02*
D03*
X584898D02*
D03*
X559498D02*
D03*
X534098D02*
D03*
X483298D02*
D03*
X457898D02*
D03*
X432498D02*
D03*
X407098D02*
D03*
X356298D02*
D03*
X330898D02*
D03*
X280098Y933299D02*
D03*
X229298D02*
D03*
X203898D02*
D03*
X178498D02*
D03*
X153098D02*
D03*
X127698D02*
D03*
X102298D02*
D03*
X549300Y975000D02*
D03*
X574700D02*
D03*
X578999Y1148498D02*
D03*
X534999D02*
D03*
X468300Y1056102D02*
D03*
Y1030702D02*
D03*
X493700D02*
D03*
D67*
X143700Y1045700D02*
D03*
X181800Y1071100D02*
D03*
X156400D02*
D03*
X131000D02*
D03*
X118300Y1045700D02*
D03*
X169100D02*
D03*
X194500D02*
D03*
X207200Y1071100D02*
D03*
D68*
X95500Y1180300D02*
D03*
Y1160000D02*
D03*
X230000D02*
D03*
Y1180300D02*
D03*
D69*
X240200Y1104100D02*
D03*
X85300D02*
D03*
D70*
X219900Y1134600D02*
D03*
X105600D02*
D03*
D71*
X77099Y196901D02*
D03*
Y298501D02*
D03*
Y374701D02*
D03*
Y831901D02*
D03*
X788299Y196901D02*
D03*
Y831901D02*
D03*
X254698Y907899D02*
D03*
X153098D02*
D03*
X635698Y933299D02*
D03*
X508698D02*
D03*
X381698D02*
D03*
X635698Y907899D02*
D03*
X508698D02*
D03*
X381698D02*
D03*
X254698Y933299D02*
D03*
X493700Y1056102D02*
D03*
D72*
X237000Y38001D02*
D03*
Y96000D02*
D03*
D73*
X285000Y66000D02*
D03*
D74*
X390000Y289200D02*
D03*
X455000Y739200D02*
D03*
D75*
X335298Y90000D02*
D03*
X504298D02*
D03*
D76*
X343499Y1120098D02*
D03*
Y1093898D02*
D03*
D77*
X368500Y1120098D02*
D03*
X388500D02*
D03*
X413499D02*
D03*
Y1093898D02*
D03*
X388500D02*
D03*
X368500D02*
D03*
D78*
X312800Y1090398D02*
D03*
Y1147200D02*
D03*
X444199D02*
D03*
Y1090398D02*
D03*
D79*
X711000Y50000D02*
D03*
X585000D02*
D03*
D80*
X685600Y75400D02*
D03*
X736400D02*
D03*
Y24600D02*
D03*
X685600D02*
D03*
X559600D02*
D03*
X610400D02*
D03*
Y75400D02*
D03*
X559600D02*
D03*
D81*
X114500Y59000D02*
D03*
X149500D02*
D03*
D82*
X70000Y90000D02*
D03*
X44600D02*
D03*
X825000Y1038800D02*
D03*
Y962600D02*
D03*
Y988000D02*
D03*
Y1013400D02*
D03*
Y1089600D02*
D03*
Y1064200D02*
D03*
D83*
Y937200D02*
D03*
Y1115000D02*
D03*
D84*
X182994Y133593D02*
D03*
X172994D02*
D03*
X157993Y143593D02*
D03*
X162994Y133593D02*
D03*
X152993D02*
D03*
X137993Y203593D02*
D03*
Y183593D02*
D03*
X142993Y133593D02*
D03*
X583000Y304000D02*
D03*
X764000Y1112000D02*
D03*
X286000Y995000D02*
D03*
X295000Y1002000D02*
D03*
X330000Y981000D02*
D03*
X320000D02*
D03*
X305999Y951998D02*
D03*
X392000Y1019000D02*
D03*
X392999Y812998D02*
D03*
X399000Y876000D02*
D03*
X586000Y428000D02*
D03*
X130000Y245000D02*
D03*
X345000Y362000D02*
D03*
Y370000D02*
D03*
X677000Y1137000D02*
D03*
X385000Y363000D02*
D03*
X392000Y350000D02*
D03*
X199250Y714000D02*
D03*
X191250D02*
D03*
X181000Y749000D02*
D03*
X190000Y748000D02*
D03*
X150000Y823000D02*
D03*
X141000Y809000D02*
D03*
X125000Y812998D02*
D03*
X329000Y837000D02*
D03*
X384999Y821998D02*
D03*
X375000Y859000D02*
D03*
X368000Y849000D02*
D03*
X385000Y890000D02*
D03*
X560000Y751997D02*
D03*
X568000Y745000D02*
D03*
X544000Y879000D02*
D03*
X504000Y845000D02*
D03*
X470000Y861000D02*
D03*
X709000Y497000D02*
D03*
X730000Y423000D02*
D03*
X510000Y177000D02*
D03*
X478002Y146002D02*
D03*
X486000Y177000D02*
D03*
X724000Y351000D02*
D03*
X683000Y144000D02*
D03*
X701000Y169000D02*
D03*
X624000Y1103000D02*
D03*
X755000Y1079000D02*
D03*
X762563Y1101998D02*
D03*
X771000Y1124000D02*
D03*
X772000Y1059000D02*
D03*
Y1072000D02*
D03*
Y1085000D02*
D03*
Y1098000D02*
D03*
X735000Y874000D02*
D03*
X513500Y888000D02*
D03*
X705999Y837998D02*
D03*
Y827998D02*
D03*
Y817998D02*
D03*
X705750Y808367D02*
D03*
X689000Y722000D02*
D03*
X446999Y860998D02*
D03*
X440000Y854000D02*
D03*
X462000Y816000D02*
D03*
X131000Y804998D02*
D03*
X131000Y795000D02*
D03*
X520000Y842000D02*
D03*
X415000Y859000D02*
D03*
X322000Y830000D02*
D03*
X623999Y1115998D02*
D03*
X623899Y1127000D02*
D03*
X427000Y1073000D02*
D03*
X350750Y990250D02*
D03*
X388000Y953000D02*
D03*
X380000D02*
D03*
X371000D02*
D03*
X454000Y893000D02*
D03*
X398999Y885998D02*
D03*
X418000Y872000D02*
D03*
X512000D02*
D03*
X543000Y895000D02*
D03*
X544000Y683000D02*
D03*
X769000Y983000D02*
D03*
X781000Y984000D02*
D03*
X589000Y1069500D02*
D03*
X360000Y1000000D02*
D03*
X468000Y986000D02*
D03*
X481000D02*
D03*
X505000D02*
D03*
X135000Y299000D02*
D03*
X127000Y307000D02*
D03*
X180000Y362000D02*
D03*
X188000D02*
D03*
X97000Y250000D02*
D03*
X100000Y260000D02*
D03*
X483000Y462000D02*
D03*
X236999Y1076998D02*
D03*
X230000Y1070000D02*
D03*
X361000Y877667D02*
D03*
X400000Y312000D02*
D03*
X408000D02*
D03*
X640249Y1058000D02*
D03*
X601501Y1140000D02*
D03*
X488000Y1131000D02*
D03*
X624000Y1187000D02*
D03*
X737500Y1185000D02*
D03*
X712500D02*
D03*
X690000D02*
D03*
X665000D02*
D03*
X640000D02*
D03*
X556999Y1099000D02*
D03*
X564999D02*
D03*
X695000Y1055000D02*
D03*
X812000Y1053000D02*
D03*
X804000D02*
D03*
X615999Y997998D02*
D03*
X635000Y991000D02*
D03*
X687000Y854000D02*
D03*
X628000Y1000000D02*
D03*
X344000Y309400D02*
D03*
X509000Y212000D02*
D03*
X508783Y193783D02*
D03*
X518000Y189000D02*
D03*
X517000Y199000D02*
D03*
X723000Y317000D02*
D03*
X645999Y313999D02*
D03*
X505000Y294000D02*
D03*
X659000Y164000D02*
D03*
X658000Y399000D02*
D03*
X540000Y506000D02*
D03*
X547000D02*
D03*
X583000Y470000D02*
D03*
X175750Y1135600D02*
D03*
X144750D02*
D03*
X451000Y606000D02*
D03*
X164000Y227500D02*
D03*
X641000Y398000D02*
D03*
X565000Y284000D02*
D03*
X690000Y406000D02*
D03*
X674000Y399000D02*
D03*
X672000Y501000D02*
D03*
X691000Y497000D02*
D03*
X658000Y496000D02*
D03*
X633000Y472000D02*
D03*
X642499Y534499D02*
D03*
X630999Y548999D02*
D03*
X646000Y588000D02*
D03*
X640999Y606999D02*
D03*
X630000Y620000D02*
D03*
X494000Y433000D02*
D03*
X505000D02*
D03*
X513000D02*
D03*
X521000D02*
D03*
X531000D02*
D03*
X218000Y227500D02*
D03*
X674000Y471000D02*
D03*
X633000Y494000D02*
D03*
X623000Y526000D02*
D03*
Y566000D02*
D03*
X709000Y415000D02*
D03*
X665999Y171000D02*
D03*
X590000Y446000D02*
D03*
Y486000D02*
D03*
Y622000D02*
D03*
X622000Y662399D02*
D03*
X582399Y670000D02*
D03*
X615000Y727000D02*
D03*
X456000Y683000D02*
D03*
X581000Y643000D02*
D03*
X573999Y650999D02*
D03*
X534500Y1083002D02*
D03*
X573000Y130000D02*
D03*
X590000Y129000D02*
D03*
X666000Y182000D02*
D03*
X667999Y193000D02*
D03*
X659999Y199000D02*
D03*
X634999Y249000D02*
D03*
X480000Y683000D02*
D03*
X488000Y677000D02*
D03*
X468000D02*
D03*
X448000D02*
D03*
X504000Y683000D02*
D03*
X512000Y677000D02*
D03*
X528000Y683000D02*
D03*
X536000Y677000D02*
D03*
X560000D02*
D03*
X568000Y683000D02*
D03*
X432000Y677000D02*
D03*
X400000Y683000D02*
D03*
X392000Y677000D02*
D03*
X376000Y683000D02*
D03*
X368000Y677000D02*
D03*
X344000Y683000D02*
D03*
X336000Y677000D02*
D03*
X320000Y683000D02*
D03*
X328000Y717000D02*
D03*
X360000D02*
D03*
X384000D02*
D03*
X440000D02*
D03*
X520000D02*
D03*
X496000D02*
D03*
X472000D02*
D03*
X459000Y790000D02*
D03*
X430000Y755000D02*
D03*
X489997Y770000D02*
D03*
X499000Y762000D02*
D03*
X347000Y851000D02*
D03*
X354000Y866000D02*
D03*
X456000Y288000D02*
D03*
X432000Y145000D02*
D03*
X460000Y131000D02*
D03*
X427000Y255000D02*
D03*
X170000Y542000D02*
D03*
Y558000D02*
D03*
Y574000D02*
D03*
X180000Y502000D02*
D03*
Y487000D02*
D03*
X178000Y534000D02*
D03*
X170000Y590000D02*
D03*
X178000Y599000D02*
D03*
X159000Y606000D02*
D03*
X180000Y463000D02*
D03*
X190000Y478000D02*
D03*
X137000Y743000D02*
D03*
X312000Y717000D02*
D03*
X456000Y349000D02*
D03*
X443000D02*
D03*
X639000Y372000D02*
D03*
X588000Y390000D02*
D03*
Y400000D02*
D03*
X494000Y471000D02*
D03*
X566000Y375000D02*
D03*
X456000Y401000D02*
D03*
X432000Y398000D02*
D03*
X331000Y309000D02*
D03*
X432000Y420000D02*
D03*
X467999Y454999D02*
D03*
X423999Y412999D02*
D03*
X256000Y420000D02*
D03*
X264000Y413000D02*
D03*
X272000Y405000D02*
D03*
X280000Y398000D02*
D03*
X288000Y389000D02*
D03*
X296000Y379000D02*
D03*
X304000Y367000D02*
D03*
X316000Y379000D02*
D03*
X112000Y371000D02*
D03*
X99000Y363000D02*
D03*
X180000Y446000D02*
D03*
X251250Y431750D02*
D03*
X500000Y402000D02*
D03*
X435000Y435000D02*
D03*
X475000Y440000D02*
D03*
X445000Y446000D02*
D03*
X460000Y463000D02*
D03*
X445000D02*
D03*
X737000Y348000D02*
D03*
Y365000D02*
D03*
X589000Y1060000D02*
D03*
X566999Y1080998D02*
D03*
X507000Y1022000D02*
D03*
X412000Y1073000D02*
D03*
X406000Y988000D02*
D03*
X444050Y988050D02*
D03*
X425000Y988550D02*
D03*
X662000Y1030000D02*
D03*
X677000D02*
D03*
X719000D02*
D03*
X736000D02*
D03*
X754000D02*
D03*
X636000Y558000D02*
D03*
X704000Y707000D02*
D03*
X710751Y690751D02*
D03*
X711000Y668000D02*
D03*
X716000Y640000D02*
D03*
X667000Y854000D02*
D03*
X640999Y667999D02*
D03*
X630000Y669149D02*
D03*
X633000Y638000D02*
D03*
D85*
X345500Y1046500D02*
D03*
Y1019500D02*
D03*
M02*
