G04 Layer_Color=16711935*
%FSLAX44Y44*%
%MOMM*%
G71*
G01*
G75*
%ADD60C,1.3000*%
%ADD63C,1.6000*%
%ADD115R,0.9000X1.0000*%
%ADD116R,1.1000X1.4000*%
%ADD117R,1.0000X0.9000*%
%ADD118R,1.2000X1.8000*%
%ADD122R,1.8000X1.2000*%
%ADD130R,1.4000X1.1000*%
%ADD141C,6.1000*%
%ADD142C,4.1000*%
%ADD143C,1.7000*%
%ADD144C,2.6000*%
%ADD145C,1.0000*%
%ADD146C,2.0000*%
%ADD147R,2.0000X2.0000*%
%ADD148R,1.6000X1.6000*%
%ADD149O,3.6000X1.4000*%
%ADD150O,1.4000X3.6000*%
%ADD151C,2.9000*%
%ADD152R,1.5200X1.5200*%
%ADD153C,1.5200*%
%ADD154C,1.4000*%
%ADD155C,3.3500*%
%ADD156C,1.7000*%
%ADD157C,3.1000*%
%ADD158O,0.5000X1.4500*%
%ADD159R,2.8432X2.7162*%
%ADD160R,0.4000X0.6000*%
%ADD161R,0.7000X1.2000*%
%ADD162R,0.9000X1.7000*%
%ADD163R,1.1000X2.5000*%
%ADD164R,3.4000X2.5000*%
%ADD165R,2.7000X4.3000*%
%ADD166R,1.7000X0.9000*%
%ADD167R,1.9000X1.5000*%
%ADD168R,1.5000X2.0000*%
%ADD169R,0.9000X1.6000*%
%ADD170R,1.1500X0.9000*%
%ADD171R,1.3000X0.6000*%
%ADD172R,0.8100X0.8100*%
%ADD173R,0.8100X0.4600*%
%ADD174R,0.4600X0.8100*%
%ADD175R,1.0600X1.0600*%
%ADD176R,3.3000X3.3000*%
%ADD177R,0.4000X0.6000*%
%ADD178R,0.6000X0.4000*%
%ADD179R,1.6000X3.1000*%
%ADD180R,6.3000X5.5000*%
G36*
X826362Y906299D02*
X826417Y906257D01*
X826501Y906174D01*
X826584Y906077D01*
X826681Y905952D01*
X826764Y905813D01*
X826820Y905647D01*
X826847Y905453D01*
Y905439D01*
Y905411D01*
Y905369D01*
X826834Y905314D01*
X826820Y905161D01*
X826764Y904995D01*
X826695Y904815D01*
X826584Y904676D01*
X826515Y904607D01*
X826431Y904565D01*
X826348Y904537D01*
X826237Y904523D01*
X826223D01*
X826154Y904537D01*
X826071Y904551D01*
X825932Y904593D01*
X825766Y904662D01*
X825572Y904745D01*
X825336Y904884D01*
X825072Y905064D01*
Y905633D01*
X825100Y905661D01*
X825169Y905716D01*
X825280Y905813D01*
X825419Y905910D01*
X825558Y906007D01*
X825696Y906105D01*
X825807Y906160D01*
X825904Y906188D01*
X825960D01*
X826029Y906201D01*
X826099D01*
X826182Y906215D01*
X826251Y906243D01*
X826307Y906271D01*
X826334Y906312D01*
X826362Y906299D01*
D02*
G37*
G36*
X819164Y926380D02*
X819234Y926366D01*
X819303Y926352D01*
X819400Y926325D01*
X819511Y926283D01*
X819622Y926241D01*
X819761Y926186D01*
X819913Y926117D01*
X820066Y926033D01*
X820246Y925936D01*
X820440Y925825D01*
X820634Y925701D01*
X820856Y925548D01*
X820870Y925534D01*
X820898Y925506D01*
X820953Y925451D01*
X821037Y925340D01*
X821134Y925201D01*
X821189Y925104D01*
X821245Y925007D01*
X821314Y924882D01*
X821383Y924744D01*
X821467Y924591D01*
X821550Y924425D01*
X821564Y924411D01*
X821605Y924383D01*
X821661Y924314D01*
X821744Y924230D01*
X821841Y924106D01*
X821952Y923953D01*
X822091Y923759D01*
X822229Y923537D01*
Y923509D01*
X822257Y923440D01*
X822299Y923329D01*
X822340Y923176D01*
X822410Y922982D01*
X822493Y922733D01*
X822604Y922455D01*
X822715Y922136D01*
X822729Y922122D01*
X822742Y922081D01*
X822784Y922011D01*
X822840Y921914D01*
X822895Y921790D01*
X822978Y921637D01*
X823075Y921457D01*
X823172Y921249D01*
Y921207D01*
X823186Y921152D01*
X823200Y921096D01*
Y921027D01*
X823214Y920957D01*
X823242Y920860D01*
X823255Y920736D01*
X823283Y920597D01*
X823297Y920444D01*
X823339Y920250D01*
X823366Y920042D01*
X823408Y919806D01*
Y919793D01*
X823422Y919765D01*
Y919709D01*
X823436Y919640D01*
X823477Y919460D01*
X823519Y919266D01*
X823588Y919071D01*
X823658Y918891D01*
X823699Y918822D01*
X823741Y918766D01*
X823783Y918739D01*
X823838Y918725D01*
X823852D01*
X823894Y918739D01*
X823949Y918780D01*
X824046Y918836D01*
X824171Y918947D01*
X824240Y919030D01*
X824323Y919113D01*
X824420Y919224D01*
X824518Y919349D01*
X824629Y919488D01*
X824753Y919654D01*
Y919668D01*
X824781Y919682D01*
X824809Y919723D01*
X824837Y919779D01*
X824934Y919903D01*
X825031Y920070D01*
X825155Y920250D01*
X825253Y920417D01*
X825350Y920569D01*
X825405Y920694D01*
Y920708D01*
X825419Y920736D01*
X825447Y920777D01*
X825474Y920833D01*
X825502Y920916D01*
X825558Y921027D01*
X825613Y921152D01*
X825669Y921290D01*
X825752Y921457D01*
X825835Y921637D01*
X825932Y921845D01*
X826029Y922081D01*
X826140Y922330D01*
X826265Y922594D01*
X826404Y922899D01*
X826556Y923218D01*
X826958Y924438D01*
Y924452D01*
X826972Y924480D01*
X827000Y924508D01*
X827028Y924563D01*
X827097Y924688D01*
X827194Y924841D01*
X827333Y924993D01*
X827471Y925132D01*
X827638Y925229D01*
X827721Y925257D01*
X827818Y925271D01*
X827832D01*
X827860Y925243D01*
X827929Y925173D01*
X828012Y925049D01*
X828040Y924979D01*
X828054Y924882D01*
X828040Y924855D01*
Y924813D01*
X828026Y924771D01*
X828012Y924702D01*
X827999Y924605D01*
Y924591D01*
X827985Y924563D01*
Y924508D01*
X827971Y924466D01*
X827957Y924341D01*
Y924300D01*
Y924272D01*
Y924258D01*
Y924230D01*
Y924175D01*
Y924106D01*
X827943Y924022D01*
X827929Y923912D01*
X827901Y923676D01*
X827860Y923398D01*
X827791Y923093D01*
X827693Y922788D01*
X827569Y922469D01*
X827555Y922441D01*
X827541Y922414D01*
X827527Y922372D01*
X827513Y922317D01*
X827471Y922247D01*
X827444Y922164D01*
X827388Y922053D01*
X827333Y921928D01*
X827263Y921762D01*
X827180Y921582D01*
X827083Y921374D01*
X826972Y921138D01*
X826847Y920860D01*
X826834Y920847D01*
X826806Y920805D01*
X826764Y920722D01*
X826695Y920625D01*
X826612Y920486D01*
X826501Y920320D01*
X826376Y920125D01*
X826237Y919903D01*
X826223Y919876D01*
X826182Y919820D01*
X826112Y919723D01*
X826029Y919612D01*
X825932Y919488D01*
X825821Y919363D01*
X825696Y919238D01*
X825585Y919141D01*
Y919127D01*
Y919085D01*
X825572Y919002D01*
X825544Y918891D01*
X825530Y918877D01*
X825474Y918836D01*
X825391Y918766D01*
X825280Y918642D01*
X825211Y918558D01*
X825142Y918475D01*
X825058Y918364D01*
X824961Y918239D01*
X824864Y918101D01*
X824767Y917948D01*
X824656Y917782D01*
X824531Y917588D01*
Y917574D01*
X824504Y917546D01*
X824476Y917504D01*
X824434Y917449D01*
X824337Y917296D01*
X824212Y917144D01*
X824060Y916977D01*
X823921Y916825D01*
X823838Y916769D01*
X823769Y916728D01*
X823699Y916700D01*
X823644Y916686D01*
X823616Y916700D01*
X823575Y916714D01*
X823519Y916741D01*
X823422Y916769D01*
X823311Y916811D01*
X823158Y916880D01*
X822964Y916950D01*
Y916963D01*
X822950Y917019D01*
X822937Y917088D01*
X822909Y917199D01*
X822881Y917338D01*
X822840Y917518D01*
X822798Y917712D01*
X822742Y917934D01*
X822687Y918170D01*
X822632Y918447D01*
X822562Y918739D01*
X822479Y919057D01*
X822410Y919404D01*
X822312Y919765D01*
X822229Y920139D01*
X822132Y920542D01*
Y920555D01*
X822118Y920597D01*
X822104Y920652D01*
X822091Y920763D01*
X822049Y920902D01*
X822007Y921096D01*
X821952Y921332D01*
X821924Y921471D01*
X821883Y921623D01*
X821869Y921651D01*
Y921679D01*
X821841Y921734D01*
X821827Y921790D01*
X821786Y921873D01*
X821744Y921956D01*
X821702Y922067D01*
X821633Y922192D01*
X821564Y922330D01*
X821480Y922483D01*
X821369Y922663D01*
X821258Y922858D01*
X821134Y923065D01*
X820981Y923301D01*
X820815Y923551D01*
X820801Y923565D01*
X820759Y923620D01*
X820704Y923704D01*
X820620Y923814D01*
X820524Y923953D01*
X820399Y924092D01*
X820135Y924411D01*
X819830Y924730D01*
X819664Y924868D01*
X819497Y925007D01*
X819345Y925118D01*
X819178Y925201D01*
X819026Y925257D01*
X818873Y925271D01*
X818845D01*
X818762Y925257D01*
X818624Y925243D01*
X818457Y925201D01*
X818263Y925118D01*
X818055Y925007D01*
X817847Y924868D01*
X817736Y924771D01*
X817625Y924660D01*
X817611D01*
X817597Y924633D01*
X817528Y924549D01*
X817431Y924425D01*
X817320Y924258D01*
X817195Y924036D01*
X817070Y923787D01*
X816973Y923509D01*
X816904Y923190D01*
X816890Y923176D01*
X816876Y923121D01*
X816848Y923065D01*
X816821Y922982D01*
X816779Y922816D01*
X816751Y922747D01*
Y922705D01*
Y922677D01*
Y922636D01*
Y922594D01*
Y922511D01*
Y922428D01*
X816737Y922317D01*
Y922178D01*
Y922164D01*
Y922095D01*
Y922011D01*
Y921901D01*
Y921651D01*
Y921526D01*
Y921415D01*
X816723Y920555D01*
Y920542D01*
Y920514D01*
X816737Y920472D01*
X816751Y920458D01*
X816793D01*
X816821Y920444D01*
X816834Y920431D01*
Y920417D01*
Y920403D01*
Y920320D01*
Y920195D01*
Y920070D01*
Y920056D01*
Y919987D01*
Y919903D01*
Y919806D01*
X816848Y919598D01*
X816862Y919501D01*
X816876Y919432D01*
Y919418D01*
X816904Y919363D01*
X816932Y919279D01*
X816973Y919155D01*
X817029Y919002D01*
X817112Y918794D01*
X817209Y918558D01*
X817320Y918281D01*
Y918267D01*
X817334Y918212D01*
X817362Y918128D01*
X817389Y918003D01*
X817431Y917851D01*
X817472Y917685D01*
X817528Y917490D01*
X817597Y917269D01*
X817611Y917241D01*
X817639Y917185D01*
X817680Y917102D01*
X817736Y916991D01*
X817805Y916894D01*
X817888Y916797D01*
X817972Y916714D01*
X818055Y916672D01*
X818069D01*
X818110Y916658D01*
X818194Y916631D01*
X818291Y916603D01*
X818429Y916575D01*
X818582Y916534D01*
X818762Y916492D01*
X818970Y916450D01*
X819192Y916395D01*
X819442Y916353D01*
X819705Y916298D01*
X819996Y916256D01*
X820288Y916215D01*
X820607Y916173D01*
X820939Y916131D01*
X821286Y916104D01*
X821356D01*
X821453Y916117D01*
X821744D01*
X821938Y916131D01*
X822729D01*
X822742Y916117D01*
X822812Y916104D01*
X822923Y916062D01*
X823089Y915993D01*
X823117D01*
X823200Y915965D01*
X823325Y915951D01*
X823491Y915923D01*
X823672Y915896D01*
X823866Y915868D01*
X824074Y915854D01*
X824268Y915840D01*
X824531D01*
X824975Y915896D01*
X825086D01*
X825169Y915909D01*
X825918D01*
X826099Y915882D01*
X826307Y915854D01*
X826515Y915812D01*
X826681Y915729D01*
X826764Y915687D01*
X826820Y915632D01*
X826847Y915563D01*
X826861Y915493D01*
Y915480D01*
X826847Y915452D01*
X826834Y915424D01*
X826820Y915369D01*
X826792Y915285D01*
X826750Y915188D01*
Y915174D01*
X826737Y915147D01*
X826709Y915091D01*
X826695Y915036D01*
X826653Y914911D01*
X826639Y914869D01*
Y914842D01*
X826598D01*
X826556Y914828D01*
X826487Y914814D01*
X826404Y914800D01*
X826293D01*
X826168Y914786D01*
X826015Y914772D01*
X825849Y914758D01*
X825655Y914744D01*
X825433Y914731D01*
X825197Y914717D01*
X824934Y914703D01*
X824656D01*
X824351Y914689D01*
X823991D01*
X823935Y914703D01*
X823852D01*
X823783Y914717D01*
X823699D01*
X823602Y914731D01*
X823491Y914744D01*
X823366Y914758D01*
X823214Y914772D01*
X823047Y914786D01*
X822853Y914814D01*
X822840D01*
X822784Y914828D01*
X822715D01*
X822604Y914842D01*
X822479Y914855D01*
X822340Y914869D01*
X822174Y914883D01*
X821993Y914911D01*
X821619Y914952D01*
X821231Y915008D01*
X820842Y915050D01*
X820648Y915077D01*
X820482Y915105D01*
X820454Y915119D01*
X820399Y915133D01*
X820288Y915161D01*
X820149Y915202D01*
X819983Y915244D01*
X819788Y915299D01*
X819566Y915355D01*
X819331Y915410D01*
X818984D01*
X818970Y915396D01*
X818929Y915355D01*
X818901Y915299D01*
X818873Y915272D01*
X818887Y915244D01*
X818901Y915216D01*
X818915Y915174D01*
X818942Y915119D01*
X818984Y915050D01*
Y915036D01*
X818998Y915022D01*
X819026Y914939D01*
X819067Y914855D01*
X819081Y914814D01*
Y914786D01*
Y914758D01*
X819053Y914703D01*
X819026Y914675D01*
X818970Y914633D01*
X818915Y914578D01*
X818831Y914536D01*
X818818D01*
X818804Y914523D01*
X818734Y914509D01*
X818637Y914481D01*
X818554Y914467D01*
X818485D01*
X818429Y914481D01*
X818291Y914495D01*
X818110Y914523D01*
X817916Y914564D01*
X817708Y914647D01*
X817514Y914744D01*
X817320Y914883D01*
X817306Y914897D01*
X817251Y914939D01*
X817181Y915022D01*
X817070Y915147D01*
X816932Y915327D01*
X816848Y915424D01*
X816751Y915549D01*
X816654Y915674D01*
X816543Y915826D01*
X816432Y915979D01*
X816308Y916159D01*
Y916173D01*
X816294Y916201D01*
X816280Y916242D01*
X816266Y916284D01*
X816252Y916353D01*
X816224Y916436D01*
X816210Y916534D01*
X816169Y916658D01*
X816141Y916811D01*
X816099Y916991D01*
X816058Y917185D01*
X816002Y917421D01*
X815947Y917698D01*
X815891Y918003D01*
Y918017D01*
X815878Y918087D01*
X815864Y918170D01*
X815836Y918295D01*
X815808Y918434D01*
X815780Y918600D01*
X815753Y918780D01*
X815725Y918974D01*
X815669Y919377D01*
X815614Y919779D01*
X815586Y919973D01*
X815572Y920139D01*
X815559Y920292D01*
Y920431D01*
Y920444D01*
Y920500D01*
Y920569D01*
Y920666D01*
Y920805D01*
Y920944D01*
X815572Y921110D01*
Y921304D01*
X815586Y921498D01*
Y921720D01*
X815614Y922178D01*
X815656Y922663D01*
X815697Y923149D01*
X815711Y923163D01*
X815739Y923218D01*
X815780Y923315D01*
X815836Y923454D01*
Y923468D01*
Y923482D01*
Y923523D01*
X815850Y923579D01*
X815878Y923717D01*
X815933Y923912D01*
X816016Y924133D01*
X816155Y924411D01*
X816238Y924549D01*
X816335Y924702D01*
X816446Y924868D01*
X816585Y925035D01*
X816599Y925049D01*
X816613Y925076D01*
X816654Y925118D01*
X816710Y925187D01*
X816848Y925326D01*
X817029Y925506D01*
X817237Y925701D01*
X817472Y925867D01*
X817722Y926020D01*
X817833Y926061D01*
X817958Y926103D01*
X817986Y926117D01*
X818013Y926130D01*
X818055Y926144D01*
X818110Y926172D01*
X818180Y926200D01*
X818194D01*
X818207Y926214D01*
X818291Y926255D01*
X818360Y926297D01*
X818388Y926311D01*
X818457D01*
X818485Y926325D01*
X818554D01*
X818624Y926339D01*
X818721Y926352D01*
X818734D01*
X818762Y926366D01*
X818818D01*
X818873Y926380D01*
X818984Y926394D01*
X819123D01*
X819164Y926380D01*
D02*
G37*
G36*
X826528Y902818D02*
X826653Y902790D01*
Y902776D01*
X826667Y902762D01*
X826709Y902679D01*
X826764Y902540D01*
X826820Y902388D01*
X826889Y902194D01*
X826945Y902013D01*
X826986Y901819D01*
X827000Y901639D01*
Y901625D01*
X826972Y901583D01*
X826931Y901500D01*
X826889Y901431D01*
X826834Y901361D01*
X826820Y901348D01*
X826806Y901334D01*
X826737Y901251D01*
X826681Y901167D01*
X826653Y901126D01*
X826639Y901112D01*
X826626D01*
X826584Y901084D01*
X826515Y901056D01*
X826417Y901029D01*
X826320Y901001D01*
X826209Y900973D01*
X826085Y900959D01*
X825974Y900945D01*
X825946D01*
X825863Y900973D01*
X825807Y900987D01*
X825738Y901015D01*
X825641Y901056D01*
X825544Y901112D01*
X825530Y901126D01*
X825488Y901140D01*
X825433Y901181D01*
X825363Y901237D01*
X825294Y901292D01*
X825239Y901361D01*
X825197Y901431D01*
X825183Y901514D01*
Y901528D01*
Y901542D01*
X825197Y901583D01*
Y901639D01*
X825211Y901764D01*
X825239Y901916D01*
X825253Y902083D01*
X825280Y902235D01*
X825294Y902360D01*
Y902402D01*
Y902443D01*
X825308Y902457D01*
X825363Y902499D01*
X825447Y902568D01*
X825558Y902637D01*
X825696Y902707D01*
X825877Y902776D01*
X826071Y902818D01*
X826307Y902831D01*
X826417D01*
X826528Y902818D01*
D02*
G37*
G36*
X822715Y903317D02*
X822853Y903289D01*
X823020Y903234D01*
X823186Y903150D01*
X823325Y903012D01*
X823380Y902929D01*
X823422Y902818D01*
X823450Y902707D01*
X823464Y902568D01*
Y902554D01*
Y902513D01*
X823450Y902457D01*
X823422Y902388D01*
X823380Y902291D01*
X823311Y902194D01*
X823228Y902083D01*
X823103Y901972D01*
X823089Y901958D01*
X823034Y901930D01*
X822964Y901875D01*
X822881Y901819D01*
X822770Y901764D01*
X822645Y901708D01*
X822534Y901680D01*
X822410Y901667D01*
X822368D01*
X822299Y901680D01*
X822257Y901694D01*
X822188Y901708D01*
X822174D01*
X822160Y901722D01*
X822091Y901736D01*
X822021Y901750D01*
X821980D01*
Y901764D01*
X821966Y901805D01*
X821938Y901875D01*
X821883Y901985D01*
Y901999D01*
X821869Y902027D01*
X821841Y902110D01*
X821827Y902221D01*
X821813Y902332D01*
Y902346D01*
Y902402D01*
X821827Y902471D01*
X821841Y902568D01*
X821869Y902679D01*
X821924Y902790D01*
X821980Y902915D01*
X822063Y903026D01*
X822077Y903039D01*
X822104Y903067D01*
X822146Y903123D01*
X822215Y903178D01*
X822285Y903234D01*
X822382Y903289D01*
X822479Y903317D01*
X822576Y903331D01*
X822659D01*
X822715Y903317D01*
D02*
G37*
G36*
X826362Y944284D02*
X826417Y944243D01*
X826501Y944159D01*
X826584Y944062D01*
X826681Y943938D01*
X826764Y943799D01*
X826820Y943632D01*
X826847Y943438D01*
Y943424D01*
Y943397D01*
Y943355D01*
X826834Y943299D01*
X826820Y943147D01*
X826764Y942980D01*
X826695Y942800D01*
X826584Y942662D01*
X826515Y942592D01*
X826431Y942551D01*
X826348Y942523D01*
X826237Y942509D01*
X826223D01*
X826154Y942523D01*
X826071Y942537D01*
X825932Y942578D01*
X825766Y942648D01*
X825572Y942731D01*
X825336Y942870D01*
X825072Y943050D01*
Y943618D01*
X825100Y943646D01*
X825169Y943702D01*
X825280Y943799D01*
X825419Y943896D01*
X825558Y943993D01*
X825696Y944090D01*
X825807Y944146D01*
X825904Y944173D01*
X825960D01*
X826029Y944187D01*
X826099D01*
X826182Y944201D01*
X826251Y944229D01*
X826307Y944256D01*
X826334Y944298D01*
X826362Y944284D01*
D02*
G37*
G36*
X824629Y955975D02*
X824726Y955947D01*
X824823Y955906D01*
X824934Y955823D01*
X825031Y955698D01*
X825058Y955629D01*
X825086Y955531D01*
X825114Y955434D01*
Y955310D01*
Y954741D01*
Y954727D01*
X825100Y954699D01*
X825086Y954672D01*
X825058Y954616D01*
X825003Y954533D01*
X824948Y954436D01*
X824864Y954311D01*
X824850Y954297D01*
X824823Y954242D01*
X824767Y954172D01*
X824712Y954089D01*
X824601Y953909D01*
X824573Y953839D01*
X824545Y953784D01*
Y953770D01*
X824531Y953742D01*
X824504Y953701D01*
X824490Y953645D01*
X824462Y953562D01*
X824420Y953479D01*
X824337Y953257D01*
X824254Y953007D01*
X824171Y952716D01*
X824088Y952397D01*
X824018Y952078D01*
Y952050D01*
X824004Y951995D01*
X823977Y951884D01*
X823949Y951745D01*
X823921Y951579D01*
X823894Y951385D01*
X823852Y951163D01*
X823810Y950927D01*
X823783Y950677D01*
X823741Y950414D01*
X823672Y949873D01*
X823630Y949360D01*
X823616Y949110D01*
Y948875D01*
Y948847D01*
X823630Y948791D01*
X823658Y948722D01*
X823727Y948625D01*
X823616Y948486D01*
Y948459D01*
X823644Y948389D01*
X823685Y948278D01*
X823769Y948126D01*
X823824Y948043D01*
X823894Y947959D01*
X823977Y947876D01*
X824074Y947779D01*
X824199Y947682D01*
X824337Y947585D01*
X824490Y947502D01*
X824670Y947405D01*
X824684Y947391D01*
X824712Y947363D01*
X824767Y947321D01*
X824837Y947266D01*
X824920Y947183D01*
X825031Y947100D01*
X825155Y946989D01*
X825308Y946878D01*
X825336D01*
X825405Y946850D01*
X825530Y946822D01*
X825683Y946780D01*
X825696D01*
X825710Y946767D01*
X825752Y946753D01*
X825807Y946725D01*
X825877Y946683D01*
X825946Y946642D01*
X826154Y946517D01*
X826168Y946503D01*
X826196Y946461D01*
X826251Y946392D01*
X826334Y946295D01*
X826445Y946170D01*
X826556Y946032D01*
X826709Y945865D01*
X826875Y945671D01*
X826861Y945657D01*
X826847Y945629D01*
X826820Y945574D01*
X826778Y945505D01*
X826667Y945352D01*
X826556Y945172D01*
X826542Y945158D01*
X826515Y945130D01*
X826473Y945089D01*
X826417Y945033D01*
X826334Y944978D01*
X826251Y944936D01*
X826154Y944908D01*
X826043Y944894D01*
X825891D01*
X825793Y944908D01*
X825599Y944936D01*
X825516Y944950D01*
X825461Y944978D01*
X825447Y944992D01*
X825419Y945019D01*
X825363Y945075D01*
X825280Y945144D01*
X825100Y945310D01*
X824892Y945491D01*
X824878Y945505D01*
X824823Y945546D01*
X824739Y945615D01*
X824629Y945699D01*
X824490Y945782D01*
X824351Y945879D01*
X824199Y945976D01*
X824046Y946059D01*
X824032Y946073D01*
X823991D01*
X823977Y946059D01*
X823949Y946046D01*
X823880Y946032D01*
X823796Y946018D01*
X823685Y945990D01*
X823519Y945962D01*
X823477D01*
X823408Y945948D01*
X823366D01*
X823283Y945962D01*
X823186Y946018D01*
X823131Y946046D01*
X823089Y946101D01*
Y946115D01*
X823061Y946143D01*
X823047Y946198D01*
X823006Y946267D01*
X822937Y946448D01*
X822840Y946642D01*
X822826Y946669D01*
X822798Y946725D01*
X822756Y946808D01*
X822701Y946919D01*
X822632Y947030D01*
X822562Y947127D01*
X822493Y947224D01*
X822410Y947294D01*
X822396Y947308D01*
X822354Y947335D01*
X822285Y947377D01*
X822160Y947446D01*
X822091Y947502D01*
X821993Y947557D01*
X821883Y947613D01*
X821758Y947696D01*
X821619Y947779D01*
X821453Y947876D01*
X821439Y947890D01*
X821425Y947904D01*
X821383Y947945D01*
X821328Y948001D01*
X821272Y948056D01*
X821189Y948140D01*
X821078Y948237D01*
X820967Y948334D01*
X820953Y948348D01*
X820912Y948362D01*
X820842Y948403D01*
X820745Y948472D01*
X820620Y948542D01*
X820482Y948625D01*
X820302Y948736D01*
X820094Y948861D01*
X819872Y948999D01*
X819622Y949152D01*
X819345Y949332D01*
X819053Y949513D01*
X818721Y949721D01*
X818374Y949942D01*
X817999Y950178D01*
X817611Y950428D01*
X817583D01*
X817514Y950456D01*
X817389Y950483D01*
X817237Y950525D01*
X815656Y951468D01*
X815572D01*
X815462Y951482D01*
X815323Y951510D01*
X814643Y952009D01*
Y952023D01*
X814629Y952037D01*
X814602Y952106D01*
X814574Y952175D01*
Y952189D01*
X814560Y952203D01*
Y952217D01*
X814574Y952286D01*
X814615Y952411D01*
X814699Y952550D01*
X814754Y952619D01*
X814824Y952702D01*
X814921Y952785D01*
X815018Y952869D01*
X815143Y952952D01*
X815295Y953035D01*
X815462Y953104D01*
X815656Y953174D01*
X815669D01*
X815711Y953188D01*
X815794Y953215D01*
X815850Y953243D01*
X815919Y953257D01*
X816016Y953285D01*
X816127Y953326D01*
X816252Y953368D01*
X816404Y953410D01*
X816571Y953465D01*
X816765Y953534D01*
X816779D01*
X816793Y953548D01*
X816834Y953562D01*
X816890Y953576D01*
X817042Y953632D01*
X817237Y953687D01*
X817472Y953756D01*
X817736Y953839D01*
X818027Y953923D01*
X818318Y954006D01*
X818332D01*
X818388Y954020D01*
X818457Y954034D01*
X818568Y954047D01*
X818693Y954061D01*
X818845Y954089D01*
X819012Y954117D01*
X819192Y954145D01*
X819594Y954228D01*
X820038Y954311D01*
X820482Y954394D01*
X820926Y954491D01*
X820939D01*
X820967Y954505D01*
X821023Y954519D01*
X821092Y954533D01*
X821189Y954561D01*
X821300Y954588D01*
X821439Y954630D01*
X821591Y954686D01*
X821772Y954741D01*
X821952Y954796D01*
X822160Y954880D01*
X822396Y954963D01*
X822645Y955046D01*
X822895Y955157D01*
X823186Y955268D01*
X823477Y955393D01*
X823505Y955407D01*
X823533Y955434D01*
X823588Y955476D01*
X823658Y955518D01*
X823755Y955587D01*
X823880Y955656D01*
X824018Y955740D01*
X824032Y955753D01*
X824074Y955781D01*
X824143Y955823D01*
X824226Y955864D01*
X824407Y955947D01*
X824476Y955975D01*
X824545Y955989D01*
X824573D01*
X824629Y955975D01*
D02*
G37*
G36*
X824018Y932968D02*
X824046D01*
X824129Y932954D01*
X824240Y932940D01*
X824379Y932912D01*
X824518Y932870D01*
X824656Y932815D01*
X824767Y932746D01*
X824837Y932662D01*
Y932649D01*
Y932579D01*
X824850Y932468D01*
Y932399D01*
Y932302D01*
X824864Y932205D01*
X824878Y932080D01*
X824892Y931941D01*
X824906Y931789D01*
X824920Y931622D01*
X824948Y931428D01*
X824975Y931220D01*
X825003Y930984D01*
X825183Y929708D01*
X825197Y929695D01*
X825211Y929639D01*
X825225Y929556D01*
X825253Y929445D01*
X825294Y929279D01*
X825308Y929168D01*
X825336Y929057D01*
X825322Y929043D01*
X825308Y929015D01*
X825294Y928973D01*
Y928932D01*
X825280Y928863D01*
X825266Y928779D01*
Y928668D01*
X825280Y928654D01*
X825322Y928613D01*
X825350Y928585D01*
X825377Y928557D01*
X825391D01*
X825419Y928585D01*
X825461Y928641D01*
X825488Y928682D01*
X825530Y928752D01*
X825572Y928821D01*
X825613Y928918D01*
X825655Y929043D01*
X825710Y929195D01*
X825780Y929362D01*
X825835Y929556D01*
X825918Y929792D01*
X825988Y930055D01*
Y930069D01*
Y930125D01*
X826002Y930208D01*
Y930333D01*
X826015Y930471D01*
X826029Y930624D01*
X826057Y930804D01*
X826071Y930984D01*
Y930998D01*
Y931026D01*
X826085Y931068D01*
X826099Y931123D01*
X826126Y931262D01*
X826168Y931428D01*
X826223Y931595D01*
X826307Y931733D01*
X826348Y931789D01*
X826404Y931830D01*
X826459Y931858D01*
X826515Y931872D01*
X826528Y931858D01*
X826556Y931844D01*
X826584Y931803D01*
X826639Y931747D01*
X826695Y931650D01*
X826778Y931511D01*
X826875Y931331D01*
X826889Y931317D01*
X826917Y931290D01*
X826958Y931248D01*
X827000Y931192D01*
X827069Y931123D01*
X827152Y931040D01*
Y931012D01*
Y930957D01*
X827166Y930873D01*
X827180Y930790D01*
Y930693D01*
X827194Y930610D01*
X827208Y930555D01*
Y930527D01*
Y930499D01*
Y930443D01*
X827194Y930346D01*
Y930222D01*
X827180Y930055D01*
X827166Y929944D01*
Y929819D01*
X827111Y929071D01*
Y929057D01*
Y929029D01*
X827097Y928973D01*
X827083Y928890D01*
X827056Y928793D01*
X827014Y928654D01*
X826958Y928502D01*
X826875Y928308D01*
X826861Y928280D01*
X826847Y928252D01*
X826820Y928197D01*
X826778Y928114D01*
X826723Y928003D01*
X826639Y927864D01*
X826556Y927698D01*
X826542Y927670D01*
X826515Y927600D01*
X826459Y927476D01*
X826376Y927337D01*
X826265Y927157D01*
X826126Y926976D01*
X825960Y926782D01*
X825752Y926588D01*
X825724Y926574D01*
X825655Y926519D01*
X825544Y926435D01*
X825405Y926352D01*
X825239Y926255D01*
X825058Y926186D01*
X824864Y926130D01*
X824684Y926103D01*
X824587D01*
X824476Y926117D01*
X824351D01*
X824060Y926172D01*
X823921Y926200D01*
X823810Y926255D01*
X823783Y926269D01*
X823727Y926311D01*
X823616Y926380D01*
X823491Y926477D01*
X823325Y926602D01*
X823158Y926755D01*
X822964Y926949D01*
X822770Y927184D01*
X822576Y927462D01*
X822382Y927767D01*
X822215Y928114D01*
X822049Y928502D01*
X821924Y928946D01*
X821813Y929431D01*
X821758Y929958D01*
X821730Y930541D01*
Y930555D01*
Y930582D01*
Y930638D01*
X821744Y930721D01*
Y930804D01*
X821758Y930901D01*
X821786Y931137D01*
X821855Y931387D01*
X821938Y931650D01*
X822049Y931900D01*
X822215Y932122D01*
X822229Y932135D01*
X822285Y932191D01*
X822354Y932274D01*
X822465Y932371D01*
X822604Y932496D01*
X822756Y932635D01*
X822937Y932773D01*
X823131Y932926D01*
X823145D01*
X823158Y932940D01*
X823200D01*
X823255Y932954D01*
X823325Y932968D01*
X823394D01*
X823602Y932981D01*
X823852D01*
X824018Y932968D01*
D02*
G37*
G36*
X822701Y941691D02*
X822826Y941635D01*
X822895Y941594D01*
X822964Y941538D01*
X822978Y941524D01*
X822992Y941497D01*
X823047Y941427D01*
X823131Y941330D01*
X823242Y941178D01*
X823311Y941081D01*
X823394Y940984D01*
X823477Y940859D01*
X823588Y940720D01*
X823713Y940554D01*
X823838Y940387D01*
X823907D01*
X823977Y940373D01*
X824060Y940359D01*
X824074Y940346D01*
X824088Y940318D01*
X824129Y940262D01*
X824185Y940207D01*
X824240Y940124D01*
X824309Y940013D01*
X824490Y939777D01*
X824698Y939500D01*
X824934Y939181D01*
X825183Y938848D01*
X825433Y938487D01*
X825696Y938140D01*
X825946Y937780D01*
X826182Y937461D01*
X826390Y937156D01*
X826570Y936892D01*
X826639Y936781D01*
X826695Y936670D01*
X826750Y936587D01*
X826792Y936518D01*
X826806Y936462D01*
X826820Y936435D01*
Y936407D01*
X826806Y936379D01*
X826778Y936324D01*
X826750Y936254D01*
X826709Y936171D01*
X826639Y936046D01*
X826542Y935908D01*
X826528Y935894D01*
X826501Y935838D01*
X826445Y935769D01*
X826390Y935686D01*
X826334Y935602D01*
X826265Y935533D01*
X826209Y935464D01*
X826168Y935422D01*
X826154Y935408D01*
X826099Y935381D01*
X826002Y935325D01*
X825891Y935256D01*
X825738Y935173D01*
X825572Y935089D01*
X825377Y934978D01*
X825169Y934867D01*
X824934Y934743D01*
X824698Y934618D01*
X824199Y934382D01*
X823685Y934133D01*
X823186Y933924D01*
X823172Y933911D01*
X823145Y933897D01*
X823089Y933855D01*
X823020Y933800D01*
X822992Y933786D01*
X822937Y933744D01*
X822853Y933703D01*
X822770Y933689D01*
X822756D01*
X822729Y933703D01*
X822687Y933716D01*
X822632Y933744D01*
X822493Y933813D01*
X822326Y933897D01*
X822174Y933994D01*
X822035Y934105D01*
X821980Y934160D01*
X821938Y934216D01*
X821910Y934271D01*
X821896Y934327D01*
X821924Y934354D01*
X821966Y934396D01*
X822021Y934438D01*
X822077Y934479D01*
X822146Y934535D01*
X822243Y934604D01*
X822354Y934687D01*
X822493Y934784D01*
X822659Y934909D01*
X822853Y935034D01*
X823075Y935186D01*
X823325Y935353D01*
X823339Y935367D01*
X823380Y935395D01*
X823450Y935436D01*
X823547Y935506D01*
X823658Y935575D01*
X823783Y935658D01*
X824032Y935838D01*
X824296Y936032D01*
X824420Y936116D01*
X824531Y936199D01*
X824615Y936268D01*
X824698Y936338D01*
X824739Y936379D01*
X824753Y936407D01*
Y936435D01*
X824739Y936476D01*
X824712Y936532D01*
X824670Y936629D01*
X824615Y936740D01*
X824531Y936892D01*
X824420Y937086D01*
X824407Y937114D01*
X824365Y937184D01*
X824309Y937281D01*
X824240Y937392D01*
X824157Y937516D01*
X824074Y937641D01*
X824004Y937738D01*
X823935Y937822D01*
X823921Y937849D01*
X823894Y937905D01*
X823838Y938002D01*
X823755Y938154D01*
X823658Y938335D01*
X823519Y938543D01*
X823380Y938792D01*
X823200Y939070D01*
X823186Y939083D01*
X823172Y939097D01*
X823131Y939139D01*
X823075Y939208D01*
X823006Y939292D01*
X822937Y939389D01*
X822840Y939513D01*
X822729Y939666D01*
Y939680D01*
X822715Y939694D01*
X822701Y939735D01*
X822673Y939791D01*
X822645Y939860D01*
X822618Y939943D01*
X822548Y940137D01*
X822451Y940387D01*
X822354Y940692D01*
X822243Y941039D01*
X822132Y941413D01*
X822146Y941427D01*
X822174Y941455D01*
X822215Y941510D01*
X822271Y941566D01*
X822423Y941663D01*
X822507Y941691D01*
X822590Y941705D01*
X822618D01*
X822701Y941691D01*
D02*
G37*
G36*
X822950Y899656D02*
X823020Y899642D01*
X823117Y899614D01*
X823214Y899572D01*
X823325Y899517D01*
X823450Y899448D01*
Y899434D01*
X823477Y899420D01*
X823505Y899378D01*
X823547Y899323D01*
X823602Y899253D01*
X823672Y899170D01*
X823838Y898962D01*
X823852D01*
X823866Y898948D01*
X823907Y898921D01*
X823963Y898893D01*
X824088Y898796D01*
X824254Y898671D01*
X824268Y898643D01*
X824309Y898588D01*
X824365Y898491D01*
X824434Y898366D01*
X824518Y898213D01*
X824615Y898033D01*
X824726Y897853D01*
X824823Y897659D01*
X825045Y897256D01*
X825142Y897062D01*
X825225Y896868D01*
X825294Y896702D01*
X825350Y896549D01*
X825391Y896424D01*
X825405Y896327D01*
Y896313D01*
X825391Y896272D01*
X825363Y896216D01*
X825294Y896119D01*
X825461Y895953D01*
X825488Y895925D01*
X825544Y895870D01*
X825599Y895786D01*
X825613Y895759D01*
X825627Y895731D01*
Y895703D01*
X825599Y895634D01*
Y895620D01*
X825585Y895606D01*
X825572Y895592D01*
Y895578D01*
Y895564D01*
X825599Y895509D01*
X825627Y895481D01*
X825669Y895440D01*
X825724Y895398D01*
X825793Y895357D01*
Y894774D01*
X825669Y894899D01*
X825655Y894885D01*
X825613Y894829D01*
X825585Y894732D01*
X825572Y894663D01*
Y894580D01*
Y894566D01*
Y894552D01*
X825585Y894469D01*
X825613Y894330D01*
X825669Y894178D01*
X825696Y894205D01*
X825738Y894261D01*
X825780Y894316D01*
X825835Y894372D01*
Y894358D01*
X825849Y894344D01*
X825904Y894261D01*
X825960Y894122D01*
X826043Y893984D01*
X826112Y893817D01*
X826182Y893664D01*
X826237Y893526D01*
X826251Y893415D01*
Y893401D01*
X826237Y893359D01*
X826223Y893304D01*
Y893290D01*
X826209Y893249D01*
X826196Y893207D01*
Y893179D01*
X826209Y893138D01*
X826223Y893096D01*
X826251Y893054D01*
X826279Y892985D01*
X826320Y892888D01*
Y892874D01*
X826334Y892846D01*
X826376Y892749D01*
X826417Y892652D01*
X826431Y892610D01*
Y892597D01*
Y892583D01*
Y892555D01*
X826417Y892513D01*
X826404Y892458D01*
X826348Y892333D01*
X826307Y892291D01*
X826251Y892250D01*
X826265Y892236D01*
X826279Y892208D01*
X826334Y892125D01*
X826404Y892042D01*
X826417Y892000D01*
X826431Y891986D01*
Y891973D01*
X826417Y891931D01*
X826404Y891876D01*
X826390Y891862D01*
X826376Y891834D01*
X826362Y891792D01*
Y891765D01*
Y891751D01*
Y891723D01*
X826390Y891640D01*
X826417Y891584D01*
X826459Y891543D01*
X826515Y891515D01*
X826584Y891501D01*
X826612D01*
X826653Y891515D01*
X826709Y891529D01*
X827444Y888145D01*
X827430Y888117D01*
X827416Y888048D01*
X827388Y887937D01*
X827361Y887812D01*
X827319Y887687D01*
X827291Y887576D01*
X827263Y887493D01*
X827250Y887438D01*
Y887424D01*
X827222Y887382D01*
X827194Y887313D01*
X827152Y887243D01*
X827097Y887160D01*
X827028Y887077D01*
X826931Y887008D01*
X826834Y886952D01*
X826820D01*
X826778Y886966D01*
X826487D01*
X826404Y886952D01*
X826307D01*
X826196Y886938D01*
X826071Y886925D01*
X826057D01*
X826029Y886911D01*
X825988D01*
X825918Y886897D01*
X825835Y886869D01*
X825738Y886855D01*
X825613Y886841D01*
X825488Y886814D01*
X825336Y886800D01*
X825169Y886772D01*
X824989Y886758D01*
X824795Y886744D01*
X824587Y886730D01*
X824379Y886716D01*
X823894Y886703D01*
X823838D01*
X823796Y886689D01*
X823741D01*
X823672Y886675D01*
X823575Y886661D01*
X823533D01*
X823477Y886647D01*
X823422D01*
X823311Y886633D01*
X823283Y886619D01*
X823145D01*
X823006Y886633D01*
X822812D01*
X822576Y886661D01*
X822299Y886689D01*
X821966Y886716D01*
X821591Y886772D01*
X821536D01*
X821467Y886758D01*
X821369Y886730D01*
X821356D01*
X821300Y886744D01*
X821217Y886758D01*
X821078Y886786D01*
X820995Y886800D01*
X820898Y886814D01*
X820773Y886827D01*
X820648Y886855D01*
X820510Y886869D01*
X820343Y886897D01*
X820163Y886925D01*
X819969Y886952D01*
X819927D01*
X819872Y886966D01*
X819802Y886980D01*
X819636Y886994D01*
X819428Y887021D01*
X819234Y887049D01*
X819040Y887063D01*
X818956Y887077D01*
X818887Y887091D01*
X818734D01*
X818679Y887077D01*
X818554Y887035D01*
X818416Y886966D01*
Y886952D01*
X818429Y886925D01*
X818443Y886869D01*
Y886814D01*
X818457Y886730D01*
X818471Y886633D01*
X818485Y886411D01*
Y886397D01*
Y886384D01*
Y886342D01*
X818471Y886286D01*
X818443Y886162D01*
X818388Y886023D01*
X818305Y885871D01*
X818166Y885746D01*
X818069Y885690D01*
X817972Y885649D01*
X817861Y885635D01*
X817722Y885621D01*
X817653D01*
X817570Y885635D01*
X817472Y885649D01*
X817375Y885676D01*
X817278Y885732D01*
X817195Y885787D01*
X817126Y885871D01*
X817112Y885884D01*
X817098Y885926D01*
X817070Y885981D01*
X817015Y886078D01*
X816959Y886189D01*
X816890Y886342D01*
X816807Y886508D01*
X816723Y886703D01*
X816626Y886938D01*
X816516Y887188D01*
X816391Y887479D01*
X816266Y887798D01*
X816141Y888145D01*
X816002Y888519D01*
X815864Y888922D01*
X815711Y889365D01*
Y889379D01*
Y889393D01*
Y889435D01*
X815697Y889490D01*
X815683Y889629D01*
X815669Y889809D01*
Y889823D01*
X815656Y889851D01*
X815642Y889892D01*
X815628Y889962D01*
X815600Y890045D01*
X815586Y890142D01*
X815559Y890267D01*
X815517Y890392D01*
X815448Y890697D01*
X815364Y891043D01*
X815281Y891432D01*
X815184Y891862D01*
X815101Y892319D01*
X815018Y892791D01*
X814934Y893290D01*
X814865Y893803D01*
X814796Y894316D01*
X814754Y894816D01*
X814726Y895315D01*
X814713Y895800D01*
Y895842D01*
X814726Y895870D01*
X814740Y895911D01*
X814754Y895967D01*
X814768Y896050D01*
Y896064D01*
Y896092D01*
X814782Y896175D01*
X814796Y896272D01*
X814810Y896313D01*
Y896327D01*
Y896341D01*
Y896369D01*
Y896410D01*
X814824Y896480D01*
X814837Y896549D01*
X814851Y896646D01*
X814865Y896771D01*
X814907Y896896D01*
X814934Y897035D01*
X814990Y897187D01*
X815115Y897548D01*
X815198Y897742D01*
X815295Y897950D01*
X815420Y898172D01*
X815545Y898394D01*
X815559D01*
X815572Y898421D01*
X815614Y898435D01*
X815669Y898477D01*
X815794Y898546D01*
X815947Y898643D01*
X816127Y898727D01*
X816294Y898810D01*
X816446Y898865D01*
X816571Y898879D01*
X816654D01*
X816723Y898865D01*
X816807Y898851D01*
X816904Y898824D01*
X817126Y898754D01*
X817251Y898713D01*
X817389Y898643D01*
X817542Y898574D01*
X817694Y898477D01*
X817847Y898366D01*
X817999Y898241D01*
X818166Y898089D01*
X818318Y897922D01*
X818332Y897894D01*
X818360Y897867D01*
X818388Y897825D01*
X818443Y897770D01*
X818499Y897700D01*
X818554Y897603D01*
X818637Y897492D01*
X818734Y897367D01*
X818831Y897215D01*
X818956Y897035D01*
X819095Y896840D01*
X819234Y896605D01*
X819400Y896355D01*
X819580Y896078D01*
X819775Y895759D01*
X819788D01*
X819816Y895772D01*
X819844Y895800D01*
X819872Y895842D01*
X819899Y895897D01*
X819927Y895981D01*
X819955Y896092D01*
Y896119D01*
X819969Y896175D01*
X819983Y896272D01*
X819996Y896369D01*
X820010Y896480D01*
X820024Y896577D01*
X820038Y896646D01*
X820052Y896674D01*
Y896688D01*
X820066Y896716D01*
X820107Y896799D01*
X820163Y896882D01*
X820191Y896910D01*
X820204Y896924D01*
Y896937D01*
Y896951D01*
X820191Y896979D01*
X820163Y897007D01*
Y897021D01*
X820149Y897035D01*
Y897090D01*
Y897104D01*
X820163Y897159D01*
X820177Y897243D01*
X820232Y897340D01*
Y897354D01*
Y897367D01*
X820260Y897451D01*
X820302Y897575D01*
X820357Y897728D01*
X820454Y897936D01*
X820593Y898172D01*
X820773Y898421D01*
X820995Y898699D01*
X821009Y898713D01*
X821023Y898727D01*
X821106Y898824D01*
X821231Y898948D01*
X821397Y899101D01*
X821591Y899253D01*
X821786Y899392D01*
X822007Y899517D01*
X822104Y899559D01*
X822215Y899586D01*
X822229D01*
X822271Y899600D01*
X822340Y899614D01*
X822423Y899628D01*
X822632Y899656D01*
X822853Y899669D01*
X822895D01*
X822950Y899656D01*
D02*
G37*
G36*
X822715Y869367D02*
X822853Y869339D01*
X823020Y869284D01*
X823186Y869201D01*
X823325Y869062D01*
X823380Y868979D01*
X823422Y868868D01*
X823450Y868757D01*
X823464Y868618D01*
Y868604D01*
Y868563D01*
X823450Y868507D01*
X823422Y868438D01*
X823380Y868341D01*
X823311Y868244D01*
X823228Y868133D01*
X823103Y868022D01*
X823089Y868008D01*
X823034Y867980D01*
X822964Y867925D01*
X822881Y867869D01*
X822770Y867814D01*
X822645Y867758D01*
X822534Y867731D01*
X822410Y867717D01*
X822368D01*
X822299Y867731D01*
X822257Y867745D01*
X822188Y867758D01*
X822174D01*
X822160Y867772D01*
X822091Y867786D01*
X822021Y867800D01*
X821980D01*
Y867814D01*
X821966Y867855D01*
X821938Y867925D01*
X821883Y868036D01*
Y868050D01*
X821869Y868077D01*
X821841Y868160D01*
X821827Y868271D01*
X821813Y868382D01*
Y868396D01*
Y868452D01*
X821827Y868521D01*
X821841Y868618D01*
X821869Y868729D01*
X821924Y868840D01*
X821980Y868965D01*
X822063Y869076D01*
X822077Y869090D01*
X822104Y869117D01*
X822146Y869173D01*
X822215Y869228D01*
X822285Y869284D01*
X822382Y869339D01*
X822479Y869367D01*
X822576Y869381D01*
X822659D01*
X822715Y869367D01*
D02*
G37*
G36*
X825461Y879130D02*
X825474Y879103D01*
X825502Y879061D01*
X825530Y879006D01*
X825572Y878936D01*
X825544D01*
X825488Y878964D01*
X825461Y878992D01*
X825433Y879033D01*
X825405Y879089D01*
Y879158D01*
X825433D01*
X825461Y879130D01*
D02*
G37*
G36*
X826362Y865775D02*
X826417Y865733D01*
X826501Y865650D01*
X826584Y865553D01*
X826681Y865428D01*
X826764Y865290D01*
X826820Y865123D01*
X826847Y864929D01*
Y864915D01*
Y864888D01*
Y864846D01*
X826834Y864790D01*
X826820Y864638D01*
X826764Y864472D01*
X826695Y864291D01*
X826584Y864153D01*
X826515Y864083D01*
X826431Y864042D01*
X826348Y864014D01*
X826237Y864000D01*
X826223D01*
X826154Y864014D01*
X826071Y864028D01*
X825932Y864069D01*
X825766Y864139D01*
X825572Y864222D01*
X825336Y864361D01*
X825072Y864541D01*
Y865109D01*
X825100Y865137D01*
X825169Y865193D01*
X825280Y865290D01*
X825419Y865387D01*
X825558Y865484D01*
X825696Y865581D01*
X825807Y865637D01*
X825904Y865664D01*
X825960D01*
X826029Y865678D01*
X826099D01*
X826182Y865692D01*
X826251Y865720D01*
X826307Y865747D01*
X826334Y865789D01*
X826362Y865775D01*
D02*
G37*
G36*
X826528Y868868D02*
X826653Y868840D01*
Y868826D01*
X826667Y868812D01*
X826709Y868729D01*
X826764Y868590D01*
X826820Y868438D01*
X826889Y868244D01*
X826945Y868063D01*
X826986Y867869D01*
X827000Y867689D01*
Y867675D01*
X826972Y867634D01*
X826931Y867550D01*
X826889Y867481D01*
X826834Y867412D01*
X826820Y867398D01*
X826806Y867384D01*
X826737Y867301D01*
X826681Y867217D01*
X826653Y867176D01*
X826639Y867162D01*
X826626D01*
X826584Y867134D01*
X826515Y867106D01*
X826417Y867079D01*
X826320Y867051D01*
X826209Y867023D01*
X826085Y867009D01*
X825974Y866996D01*
X825946D01*
X825863Y867023D01*
X825807Y867037D01*
X825738Y867065D01*
X825641Y867106D01*
X825544Y867162D01*
X825530Y867176D01*
X825488Y867190D01*
X825433Y867231D01*
X825363Y867287D01*
X825294Y867342D01*
X825239Y867412D01*
X825197Y867481D01*
X825183Y867564D01*
Y867578D01*
Y867592D01*
X825197Y867634D01*
Y867689D01*
X825211Y867814D01*
X825239Y867966D01*
X825253Y868133D01*
X825280Y868285D01*
X825294Y868410D01*
Y868452D01*
Y868493D01*
X825308Y868507D01*
X825363Y868549D01*
X825447Y868618D01*
X825558Y868688D01*
X825696Y868757D01*
X825877Y868826D01*
X826071Y868868D01*
X826307Y868882D01*
X826417D01*
X826528Y868868D01*
D02*
G37*
G36*
X823907Y882625D02*
X823921Y882598D01*
X823949Y882556D01*
X824018Y882473D01*
X824032Y882487D01*
X824046Y882500D01*
X824060Y882528D01*
Y882237D01*
X824046Y882251D01*
X824032Y882292D01*
X824004Y882362D01*
X823977Y882431D01*
X823935Y882500D01*
X823907Y882570D01*
X823868Y882609D01*
X823907Y882639D01*
Y882625D01*
D02*
G37*
G36*
X819733Y886203D02*
X819802D01*
X819858Y886189D01*
X819927D01*
X820010Y886176D01*
X820107Y886162D01*
X820218Y886148D01*
X820357Y886134D01*
X820510Y886120D01*
X820690Y886106D01*
X820704Y886092D01*
X820732Y886078D01*
X820787Y886023D01*
X820856Y885954D01*
X820884Y885967D01*
X820939Y885981D01*
X820967D01*
X821023Y885967D01*
X821134Y885954D01*
X821258Y885912D01*
X821411Y885829D01*
X821591Y885718D01*
X821772Y885579D01*
X821869Y885482D01*
X821966Y885371D01*
X822063Y885177D01*
X822077Y885163D01*
X822104Y885122D01*
X822160Y885066D01*
X822202Y885052D01*
X822188D01*
X822160Y885038D01*
X822104Y884997D01*
X822035Y884913D01*
Y884900D01*
X822049Y884886D01*
X822077Y884844D01*
X822118Y884789D01*
X822215Y884650D01*
X822340Y884484D01*
Y884498D01*
X822368Y884539D01*
X822396Y884595D01*
X822437Y884678D01*
X822451D01*
X822465Y884664D01*
X822493Y884636D01*
X822548Y884608D01*
X822604Y884553D01*
X822673Y884470D01*
X822770Y884373D01*
X822784D01*
X822770Y884359D01*
X822742Y884331D01*
X822659Y884262D01*
X822604Y884234D01*
X822534Y884178D01*
Y883998D01*
X822548Y883984D01*
X822562Y883957D01*
X822618Y883915D01*
X822673Y883846D01*
X822742Y883749D01*
X822840Y883652D01*
X822950Y883527D01*
X823089Y883374D01*
X823103Y883388D01*
X823131Y883430D01*
X823158Y883485D01*
X823172Y883568D01*
Y883582D01*
X823158Y883638D01*
X823145Y883693D01*
X823117Y883735D01*
X823131Y883721D01*
X823186Y883693D01*
X823255Y883638D01*
X823339Y883582D01*
X823422Y883499D01*
X823491Y883402D01*
X823547Y883305D01*
X823575Y883208D01*
X823561D01*
X823533Y883180D01*
X823491Y883152D01*
X823422Y883097D01*
Y883111D01*
X823408Y883152D01*
X823366Y883208D01*
X823311Y883291D01*
X823131D01*
X823117Y883263D01*
X823103Y883222D01*
Y883166D01*
X824420Y880684D01*
Y880670D01*
X824393Y880614D01*
X824379Y880587D01*
X824365Y880545D01*
Y880531D01*
X824379Y880503D01*
X824420Y880448D01*
X824476Y880365D01*
X825031Y878700D01*
Y878687D01*
X825045Y878659D01*
X825058Y878617D01*
X825086Y878548D01*
X825142Y878395D01*
X825225Y878201D01*
X825336Y877993D01*
X825447Y877785D01*
X825572Y877605D01*
X825641Y877536D01*
X825710Y877466D01*
X825724Y877480D01*
X825752Y877536D01*
X825793Y877619D01*
X825807Y877702D01*
Y877716D01*
X825793Y877744D01*
Y877771D01*
X825780Y877827D01*
X825752Y877910D01*
X825710Y878007D01*
X825669Y878146D01*
Y878160D01*
X825655Y878215D01*
X825627Y878271D01*
X825613Y878354D01*
X825585Y878437D01*
X825572Y878506D01*
X825558Y878562D01*
Y878603D01*
Y878617D01*
Y878673D01*
X825572Y878756D01*
X825599Y878839D01*
X825613Y878811D01*
X825641Y878742D01*
X825696Y878603D01*
X825780Y878423D01*
X825877Y878187D01*
X826002Y877910D01*
X826140Y877563D01*
X826307Y877175D01*
Y877147D01*
Y877078D01*
X826320Y876953D01*
Y876870D01*
X826334Y876773D01*
Y876759D01*
X826348Y876745D01*
X826362Y876703D01*
X826376Y876648D01*
X826431Y876509D01*
X826501Y876315D01*
X826570Y876093D01*
X826653Y875844D01*
X826737Y875580D01*
X826820Y875317D01*
Y875289D01*
X826847Y875219D01*
X826875Y875095D01*
X826917Y874942D01*
X826958Y874748D01*
X827014Y874540D01*
X827069Y874304D01*
X827125Y874041D01*
X827250Y873500D01*
X827347Y872945D01*
X827388Y872668D01*
X827416Y872418D01*
X827430Y872182D01*
X827444Y871974D01*
Y871961D01*
Y871947D01*
X827430Y871891D01*
X827416Y871836D01*
X827402Y871766D01*
X827361Y871669D01*
X827319Y871558D01*
X827250Y871420D01*
X827236Y871406D01*
X827222Y871364D01*
X827180Y871295D01*
X827139Y871212D01*
X827028Y871045D01*
X826958Y870962D01*
X826903Y870907D01*
X826889D01*
X826875Y870879D01*
X826834Y870865D01*
X826778Y870837D01*
X826709Y870809D01*
X826639Y870796D01*
X826431Y870768D01*
X826417D01*
X826376Y870782D01*
X826320Y870796D01*
X826251Y870851D01*
X826154Y870920D01*
X826057Y871031D01*
X825960Y871198D01*
X825918Y871295D01*
X825863Y871406D01*
Y871433D01*
X825891Y871489D01*
Y871503D01*
X825904Y871517D01*
X825918Y871572D01*
Y871586D01*
X825904Y871655D01*
X825877Y871739D01*
X825821Y871850D01*
Y871863D01*
Y871877D01*
X825807Y871961D01*
X825793Y872085D01*
X825766Y872238D01*
X825752Y872404D01*
X825724Y872585D01*
X825696Y872751D01*
X825669Y872904D01*
Y872931D01*
X825655Y872987D01*
X825627Y873098D01*
X825599Y873209D01*
X825572Y873347D01*
X825530Y873500D01*
X825488Y873639D01*
X825433Y873763D01*
X825405D01*
X825363Y873749D01*
X825308D01*
X825169Y873736D01*
X824975Y873708D01*
X824753Y873680D01*
X824504Y873652D01*
X824240Y873625D01*
X823949Y873597D01*
X823380Y873528D01*
X823103Y873500D01*
X822840Y873472D01*
X822604Y873444D01*
X822410Y873430D01*
X822257Y873417D01*
X822104D01*
X822049Y873430D01*
X821993D01*
X821938Y873444D01*
X821869D01*
X821786Y873458D01*
X821674Y873472D01*
X821550Y873486D01*
X821397Y873500D01*
X821231Y873528D01*
X821037Y873541D01*
X820815Y873569D01*
X820801D01*
X820745Y873583D01*
X820662D01*
X820565Y873597D01*
X820440Y873611D01*
X820288Y873625D01*
X819969Y873652D01*
X819622Y873680D01*
X819275Y873722D01*
X819123D01*
X818984Y873736D01*
X818859Y873749D01*
X818734D01*
X818679Y873763D01*
X818610Y873805D01*
X818512Y873860D01*
X818499D01*
X818457Y873847D01*
X818402Y873833D01*
X818332Y873819D01*
X818291D01*
X818235Y873833D01*
X818166Y873847D01*
X818138D01*
X818096Y873860D01*
X818013Y873874D01*
X817958Y873888D01*
X817888Y873916D01*
X817791Y873930D01*
X817694Y873958D01*
X817570Y873985D01*
X817431Y874027D01*
X817264Y874069D01*
X817084Y874110D01*
Y874124D01*
X817056Y874179D01*
X817029Y874263D01*
X816973Y874360D01*
Y874346D01*
X816945Y874332D01*
X816904Y874249D01*
X816862Y874138D01*
X816834Y874013D01*
Y873985D01*
X816848Y873930D01*
X816862Y873874D01*
X816876Y873805D01*
X816890Y873722D01*
X816918Y873625D01*
X816945Y873500D01*
X816973Y873347D01*
X817015Y873181D01*
X817056Y872973D01*
X817112Y872737D01*
X817167Y872474D01*
X817514Y870948D01*
Y870934D01*
Y870920D01*
X817500Y870879D01*
X817472Y870823D01*
X817431Y870754D01*
X817375Y870671D01*
X817306Y870574D01*
X817195Y870477D01*
X817181Y870463D01*
X817153Y870435D01*
X817112Y870393D01*
X817056Y870352D01*
X816932Y870268D01*
X816876Y870241D01*
X816834Y870227D01*
X816821D01*
X816779Y870241D01*
X816710Y870255D01*
X816613Y870296D01*
X816516Y870366D01*
X816391Y870463D01*
X816280Y870601D01*
X816155Y870796D01*
Y870809D01*
X816127Y870851D01*
X816099Y870934D01*
X816058Y871059D01*
X816030Y871128D01*
X816002Y871225D01*
X815961Y871350D01*
X815919Y871475D01*
X815878Y871628D01*
X815822Y871794D01*
X815767Y871974D01*
X815711Y872182D01*
Y872196D01*
X815697Y872252D01*
X815669Y872335D01*
X815642Y872446D01*
X815614Y872571D01*
X815572Y872723D01*
X815531Y872890D01*
X815489Y873070D01*
X815420Y873444D01*
X815350Y873819D01*
X815295Y874179D01*
X815281Y874346D01*
Y874484D01*
Y879491D01*
Y879505D01*
Y879519D01*
X815295Y879547D01*
X815309Y879602D01*
X815323Y879671D01*
X815350Y879782D01*
X815392Y879921D01*
Y879935D01*
X815406Y879990D01*
X815420Y880060D01*
X815448Y880143D01*
X815462Y880226D01*
X815475Y880309D01*
X815489Y880379D01*
X815503Y880420D01*
Y880434D01*
Y880448D01*
X815517Y880531D01*
Y880642D01*
X815531Y880808D01*
X815559Y880989D01*
X815586Y881197D01*
X815656Y881627D01*
Y881641D01*
X815669Y881682D01*
X815683Y881738D01*
X815697Y881821D01*
X815725Y881932D01*
X815767Y882057D01*
X815808Y882195D01*
X815850Y882362D01*
X815919Y882528D01*
X815988Y882722D01*
X816169Y883124D01*
X816404Y883582D01*
X816529Y883818D01*
X816682Y884054D01*
X816696Y884068D01*
X816723Y884109D01*
X816765Y884178D01*
X816834Y884276D01*
X816904Y884387D01*
X817001Y884498D01*
X817223Y884775D01*
X817486Y885066D01*
X817777Y885343D01*
X817930Y885468D01*
X818083Y885593D01*
X818249Y885690D01*
X818402Y885760D01*
X818416D01*
X818443Y885773D01*
X818485Y885801D01*
X818554Y885829D01*
X818637Y885871D01*
X818734Y885912D01*
X818859Y885967D01*
X819012Y886023D01*
X819040Y886037D01*
X819109Y886051D01*
X819192Y886078D01*
X819317Y886120D01*
X819428Y886162D01*
X819553Y886189D01*
X819650Y886203D01*
X819702Y886214D01*
X819733Y886203D01*
D02*
G37*
G36*
X825031Y880087D02*
X825045Y880060D01*
X825072Y880004D01*
X825100Y879949D01*
X825142Y879852D01*
X825183Y879727D01*
X824948D01*
X825003Y880101D01*
X825017D01*
X825031Y880087D01*
D02*
G37*
G36*
X824240Y882015D02*
X824254Y881987D01*
X824268Y881960D01*
X824296Y881904D01*
X824323Y881821D01*
X824365Y881724D01*
Y881710D01*
X824379Y881682D01*
X824420Y881585D01*
X824476Y881474D01*
X824490Y881433D01*
Y881405D01*
Y881391D01*
Y881349D01*
Y881294D01*
Y881238D01*
X824504Y881114D01*
X824518Y881058D01*
X824531Y881030D01*
Y881044D01*
X824545Y881072D01*
X824559Y881141D01*
X824573Y881238D01*
Y881225D01*
X824601Y881197D01*
X824629Y881127D01*
X824670Y881030D01*
X824726Y880906D01*
X824795Y880739D01*
X824864Y880545D01*
X824948Y880295D01*
X824934D01*
X824892Y880323D01*
X824823Y880365D01*
X824753Y880420D01*
X824670Y880517D01*
X824573Y880642D01*
X824490Y880795D01*
X824420Y881003D01*
X824143Y881862D01*
X824157Y881876D01*
X824185Y881918D01*
X824226Y881973D01*
X824240Y882029D01*
Y882015D01*
D02*
G37*
G36*
X193000Y543457D02*
X146262D01*
X145929Y543541D01*
X145596Y543624D01*
X144762Y543957D01*
X144346Y544207D01*
X144012Y544540D01*
X143929Y544624D01*
X143846Y544707D01*
X143679Y544957D01*
X143513Y545290D01*
X143179Y546123D01*
X143013Y546540D01*
Y547040D01*
Y547123D01*
Y547290D01*
X143096Y547623D01*
Y547956D01*
X143429Y548873D01*
X143679Y549289D01*
X144012Y549622D01*
Y549706D01*
X144179Y549789D01*
X144679Y550122D01*
X145429Y550456D01*
X145929Y550622D01*
X193000D01*
Y543457D01*
D02*
G37*
G36*
X174338Y540625D02*
X174755Y540541D01*
X175588Y540291D01*
X176004Y539958D01*
X176421Y539625D01*
X176504Y539542D01*
X176588Y539458D01*
X176754Y539208D01*
X176921Y538875D01*
X177337Y538042D01*
X177421Y537626D01*
X177504Y537042D01*
Y509549D01*
X177587D01*
X177837Y509633D01*
X178254Y509799D01*
X178670Y509966D01*
X179837Y510466D01*
X181086Y511216D01*
X181170Y511299D01*
X181336Y511466D01*
X181586Y511716D01*
X182003Y512049D01*
X182836Y512965D01*
X183752Y514048D01*
X183836Y514132D01*
X183919Y514381D01*
X184169Y514715D01*
X184419Y515131D01*
X184669Y515631D01*
X185002Y516214D01*
X185502Y517547D01*
Y517631D01*
X185585Y517881D01*
X185669Y518297D01*
X185752Y518714D01*
X185919Y519297D01*
X186002Y519963D01*
X186085Y521380D01*
Y521463D01*
Y521796D01*
X186002Y522296D01*
Y522879D01*
X185919Y523629D01*
X185752Y524379D01*
X185252Y526129D01*
X185169Y526212D01*
X185085Y526545D01*
X184835Y526962D01*
X184585Y527545D01*
X184169Y528128D01*
X183669Y528878D01*
X183169Y529544D01*
X182503Y530211D01*
X182419Y530294D01*
X182336Y530377D01*
X182003Y530877D01*
X181670Y531627D01*
X181503Y532127D01*
Y532627D01*
Y532710D01*
Y532877D01*
X181586Y533127D01*
Y533460D01*
X181919Y534210D01*
X182169Y534626D01*
X182503Y535043D01*
X182586Y535126D01*
X182669Y535210D01*
X182919Y535376D01*
X183253Y535626D01*
X184002Y535959D01*
X184419Y536043D01*
X184919Y536126D01*
X185169D01*
X185419Y536043D01*
X185752Y535959D01*
X186502Y535709D01*
X186918Y535376D01*
X187335Y535043D01*
X187418Y534876D01*
X187835Y534543D01*
X188335Y533960D01*
X188918Y533210D01*
X189584Y532210D01*
X190334Y531127D01*
X191000Y529961D01*
X191584Y528628D01*
X191667Y528461D01*
X191834Y528045D01*
X192000Y527295D01*
X192250Y526378D01*
X192583Y525295D01*
X192750Y524129D01*
X192917Y522796D01*
X193000Y521380D01*
Y521296D01*
Y521213D01*
Y520713D01*
X192917Y519963D01*
X192833Y518964D01*
X192667Y517881D01*
X192334Y516631D01*
X192000Y515298D01*
X191500Y513965D01*
X191417Y513798D01*
X191250Y513382D01*
X190834Y512715D01*
X190417Y511965D01*
X189751Y510966D01*
X189084Y509966D01*
X188251Y508883D01*
X187335Y507883D01*
X187251Y507800D01*
X186835Y507467D01*
X186335Y506967D01*
X185585Y506384D01*
X184669Y505717D01*
X183586Y504967D01*
X182419Y504301D01*
X181170Y503634D01*
X181086D01*
X181003Y503551D01*
X180586Y503384D01*
X179837Y503134D01*
X178920Y502884D01*
X177754Y502635D01*
X176504Y502384D01*
X175088Y502218D01*
X173672Y502135D01*
X173005D01*
X172255Y502218D01*
X171256Y502301D01*
X170173Y502468D01*
X168923Y502801D01*
X167590Y503134D01*
X166257Y503634D01*
X166090Y503717D01*
X165674Y503884D01*
X165007Y504217D01*
X164174Y504717D01*
X163258Y505300D01*
X162175Y505967D01*
X161175Y506800D01*
X160175Y507716D01*
X160092Y507800D01*
X159759Y508216D01*
X159259Y508716D01*
X158675Y509466D01*
X158009Y510299D01*
X157343Y511382D01*
X156676Y512549D01*
X156093Y513798D01*
Y513882D01*
X156010Y513965D01*
X155843Y514465D01*
X155593Y515131D01*
X155343Y516131D01*
X155093Y517214D01*
X154843Y518547D01*
X154677Y519963D01*
X154593Y521463D01*
Y521546D01*
Y521630D01*
Y522130D01*
X154677Y522879D01*
X154760Y523879D01*
X155010Y524962D01*
X155260Y526212D01*
X155676Y527545D01*
X156176Y528878D01*
X156259Y529044D01*
X156426Y529461D01*
X156759Y530127D01*
X157259Y530961D01*
X157842Y531877D01*
X158509Y532960D01*
X159342Y533960D01*
X160258Y534959D01*
X160342Y535043D01*
X160675Y535376D01*
X161258Y535876D01*
X162008Y536459D01*
X162841Y537126D01*
X163924Y537876D01*
X165091Y538542D01*
X166340Y539125D01*
X166507Y539208D01*
X166923Y539375D01*
X167673Y539625D01*
X168590Y539958D01*
X169673Y540208D01*
X171006Y540458D01*
X172339Y540625D01*
X173838Y540708D01*
X174088D01*
X174338Y540625D01*
D02*
G37*
G36*
X159509Y497469D02*
X160008Y497303D01*
X193000Y483473D01*
Y475558D01*
X160008Y461728D01*
X159925Y461645D01*
X159592Y461562D01*
X159175Y461478D01*
X158759Y461395D01*
X158592D01*
X158092Y461478D01*
X157426Y461645D01*
X156759Y462062D01*
X156676D01*
X156593Y462145D01*
X156176Y462561D01*
X155676Y463061D01*
X155260Y463811D01*
X155176Y463978D01*
X155093Y464311D01*
X155010Y464728D01*
Y465227D01*
Y465311D01*
Y465394D01*
X155093Y465894D01*
X155260Y466560D01*
X155676Y467227D01*
Y467310D01*
X155759Y467393D01*
X156093Y467727D01*
X156593Y468227D01*
X157259Y468643D01*
X183669Y479474D01*
X157259Y490388D01*
X157176D01*
X157093Y490471D01*
X156676Y490721D01*
X156176Y491137D01*
X155676Y491721D01*
Y491804D01*
X155593Y491887D01*
X155343Y492387D01*
X155093Y493054D01*
X155010Y493803D01*
Y493887D01*
Y494220D01*
X155093Y494636D01*
X155260Y495220D01*
Y495303D01*
X155343Y495386D01*
X155593Y495886D01*
X156093Y496386D01*
X156759Y496969D01*
X156926Y497053D01*
X157343Y497303D01*
X158009Y497552D01*
X158759Y497636D01*
X159092D01*
X159509Y497469D01*
D02*
G37*
G36*
X175338Y637433D02*
X176338Y637350D01*
X177504Y637100D01*
X178754Y636850D01*
X180087Y636434D01*
X181420Y635934D01*
X181586Y635850D01*
X182003Y635684D01*
X182669Y635350D01*
X183502Y634851D01*
X184419Y634267D01*
X185502Y633518D01*
X186585Y632685D01*
X187585Y631768D01*
X187668Y631685D01*
X188001Y631352D01*
X188501Y630768D01*
X189084Y630019D01*
X189751Y629185D01*
X190417Y628102D01*
X191084Y626936D01*
X191667Y625686D01*
X191750Y625520D01*
X191917Y625103D01*
X192084Y624353D01*
X192334Y623437D01*
X192667Y622354D01*
X192833Y621021D01*
X193000Y619688D01*
X193083Y618188D01*
Y618105D01*
Y618022D01*
Y617522D01*
X193000Y616772D01*
X192917Y615772D01*
X192750Y614606D01*
X192500Y613356D01*
X192167Y612023D01*
X191667Y610690D01*
X191584Y610523D01*
X191417Y610107D01*
X191084Y609440D01*
X190584Y608607D01*
X190001Y607691D01*
X189334Y606608D01*
X188501Y605525D01*
X187585Y604525D01*
X187501Y604442D01*
X187085Y604109D01*
X186585Y603609D01*
X185835Y603025D01*
X184919Y602359D01*
X183836Y601692D01*
X182669Y601026D01*
X181420Y600359D01*
X181253Y600276D01*
X180836Y600109D01*
X180087Y599860D01*
X179170Y599610D01*
X178004Y599360D01*
X176754Y599110D01*
X175338Y598943D01*
X173838Y598860D01*
X173172D01*
X172422Y598943D01*
X171422Y599026D01*
X170256Y599193D01*
X169006Y599526D01*
X167673Y599860D01*
X166340Y600359D01*
X166173Y600443D01*
X165757Y600609D01*
X165091Y601026D01*
X164257Y601442D01*
X163341Y602109D01*
X162258Y602775D01*
X161258Y603609D01*
X160258Y604525D01*
X160175Y604608D01*
X159842Y605025D01*
X159342Y605525D01*
X158759Y606275D01*
X158092Y607191D01*
X157426Y608274D01*
X156759Y609440D01*
X156176Y610690D01*
X156093Y610857D01*
X155926Y611273D01*
X155676Y612023D01*
X155343Y612940D01*
X155093Y614023D01*
X154843Y615356D01*
X154677Y616689D01*
X154593Y618188D01*
Y618271D01*
Y618355D01*
Y618855D01*
X154677Y619604D01*
X154760Y620604D01*
X155010Y621771D01*
X155260Y623020D01*
X155676Y624353D01*
X156176Y625686D01*
Y625770D01*
X156259Y625853D01*
X156426Y626269D01*
X156759Y626936D01*
X157259Y627769D01*
X157842Y628769D01*
X158509Y629769D01*
X159342Y630852D01*
X160258Y631851D01*
X160342Y631935D01*
X160675Y632268D01*
X161258Y632768D01*
X162008Y633351D01*
X162924Y634017D01*
X163924Y634767D01*
X165091Y635434D01*
X166423Y636017D01*
X166590Y636100D01*
X167007Y636267D01*
X167757Y636517D01*
X168673Y636767D01*
X169756Y637017D01*
X171006Y637267D01*
X172422Y637433D01*
X173838Y637517D01*
X174505D01*
X175338Y637433D01*
D02*
G37*
G36*
X193083Y673507D02*
X189001D01*
X189084Y673424D01*
X189334Y673091D01*
X189667Y672591D01*
X190167Y671925D01*
X190667Y671175D01*
X191167Y670258D01*
X191667Y669175D01*
X192084Y668092D01*
Y667925D01*
X192250Y667592D01*
X192417Y666926D01*
X192583Y666093D01*
X192750Y665176D01*
X192917Y664093D01*
X193000Y662843D01*
X193083Y661594D01*
Y661510D01*
Y661427D01*
Y660927D01*
X193000Y660178D01*
X192917Y659178D01*
X192750Y658011D01*
X192500Y656762D01*
X192167Y655429D01*
X191667Y654096D01*
X191584Y653929D01*
X191417Y653512D01*
X191084Y652846D01*
X190584Y652013D01*
X190001Y651096D01*
X189334Y650013D01*
X188501Y648930D01*
X187585Y647931D01*
X187501Y647847D01*
X187085Y647514D01*
X186585Y647014D01*
X185835Y646431D01*
X184919Y645764D01*
X183836Y645098D01*
X182669Y644432D01*
X181420Y643765D01*
X181336D01*
X181253Y643682D01*
X180753Y643515D01*
X180087Y643265D01*
X179087Y643015D01*
X178004Y642765D01*
X176671Y642515D01*
X175338Y642349D01*
X173838Y642265D01*
X173172D01*
X172422Y642349D01*
X171422Y642432D01*
X170256Y642599D01*
X169006Y642932D01*
X167673Y643265D01*
X166340Y643765D01*
X166173Y643848D01*
X165757Y644015D01*
X165091Y644432D01*
X164257Y644848D01*
X163341Y645515D01*
X162258Y646181D01*
X161258Y647014D01*
X160258Y647931D01*
X160175Y648014D01*
X159842Y648430D01*
X159342Y648930D01*
X158759Y649680D01*
X158092Y650597D01*
X157343Y651680D01*
X156676Y652846D01*
X156093Y654096D01*
X156010Y654262D01*
X155843Y654679D01*
X155593Y655429D01*
X155343Y656345D01*
X155093Y657428D01*
X154843Y658761D01*
X154677Y660094D01*
X154593Y661594D01*
Y661677D01*
Y661760D01*
Y662260D01*
X154677Y663010D01*
X154760Y664010D01*
X154926Y665176D01*
X155260Y666426D01*
X155593Y667759D01*
X156093Y669092D01*
Y669175D01*
X156176Y669258D01*
X156343Y669675D01*
X156676Y670341D01*
X157176Y671175D01*
X157759Y672174D01*
X158509Y673174D01*
X159342Y674257D01*
X160258Y675257D01*
X160342Y675340D01*
X160675Y675674D01*
X161258Y676173D01*
X162008Y676757D01*
X162841Y677423D01*
X163924Y678173D01*
X165091Y678839D01*
X166340Y679423D01*
X166507Y679506D01*
X166923Y679672D01*
X167673Y679922D01*
X168590Y680172D01*
X169673Y680422D01*
X171006Y680672D01*
X172339Y680839D01*
X173838Y680922D01*
X193083D01*
Y673507D01*
D02*
G37*
G36*
X175421Y593944D02*
X176421Y593861D01*
X177587Y593694D01*
X178837Y593361D01*
X180170Y593028D01*
X181503Y592528D01*
X181670Y592445D01*
X182086Y592278D01*
X182753Y591945D01*
X183586Y591445D01*
X184502Y590862D01*
X185585Y590112D01*
X186668Y589279D01*
X187668Y588363D01*
X187751Y588279D01*
X188085Y587946D01*
X188584Y587363D01*
X189168Y586613D01*
X189834Y585696D01*
X190501Y584697D01*
X191167Y583530D01*
X191750Y582197D01*
X191834Y582031D01*
X192000Y581614D01*
X192167Y580864D01*
X192417Y579948D01*
X192750Y578865D01*
X192917Y577615D01*
X193083Y576199D01*
X193167Y574783D01*
Y574699D01*
Y574616D01*
Y574116D01*
X193083Y573366D01*
X193000Y572367D01*
X192833Y571200D01*
X192583Y569951D01*
X192250Y568618D01*
X191750Y567285D01*
X191667Y567118D01*
X191500Y566701D01*
X191167Y566035D01*
X190667Y565285D01*
X190084Y564285D01*
X189418Y563286D01*
X188584Y562203D01*
X187668Y561203D01*
X187585Y561119D01*
X187168Y560786D01*
X186668Y560286D01*
X185919Y559703D01*
X185002Y559037D01*
X183919Y558370D01*
X182753Y557704D01*
X181503Y557037D01*
X181336Y556954D01*
X180920Y556787D01*
X180170Y556537D01*
X179254Y556287D01*
X178171Y556037D01*
X176838Y555788D01*
X175504Y555621D01*
X174005Y555538D01*
X146429D01*
X146179Y555621D01*
X145845Y555704D01*
X145012Y556037D01*
X144596Y556287D01*
X144179Y556621D01*
X144096Y556704D01*
X144012Y556787D01*
X143846Y557037D01*
X143596Y557370D01*
X143263Y558204D01*
X143179Y558703D01*
X143096Y559287D01*
Y559370D01*
Y559537D01*
X143179Y559786D01*
X143263Y560120D01*
X143513Y560953D01*
X143846Y561369D01*
X144179Y561786D01*
X144263Y561869D01*
X144346Y561953D01*
X144596Y562119D01*
X144929Y562369D01*
X145679Y562786D01*
X146179Y562869D01*
X146678Y562952D01*
X158925D01*
X158842Y563036D01*
X158592Y563369D01*
X158259Y563869D01*
X157842Y564535D01*
X157343Y565285D01*
X156843Y566202D01*
X156343Y567201D01*
X155926Y568284D01*
X155843Y568451D01*
X155759Y568784D01*
X155593Y569451D01*
X155343Y570201D01*
X155093Y571200D01*
X154926Y572283D01*
X154843Y573533D01*
X154760Y574783D01*
Y574866D01*
Y574949D01*
Y575449D01*
X154843Y576199D01*
X154926Y577199D01*
X155176Y578282D01*
X155426Y579532D01*
X155843Y580864D01*
X156343Y582197D01*
Y582281D01*
X156426Y582364D01*
X156593Y582781D01*
X156926Y583447D01*
X157426Y584280D01*
X158009Y585280D01*
X158675Y586280D01*
X159509Y587363D01*
X160425Y588363D01*
X160508Y588446D01*
X160842Y588779D01*
X161425Y589279D01*
X162175Y589862D01*
X163091Y590529D01*
X164091Y591278D01*
X165257Y591945D01*
X166590Y592528D01*
X166757Y592611D01*
X167173Y592778D01*
X167923Y593028D01*
X168839Y593278D01*
X169923Y593528D01*
X171172Y593778D01*
X172589Y593944D01*
X174005Y594028D01*
X174671D01*
X175421Y593944D01*
D02*
G37*
G36*
Y415323D02*
X176421Y415240D01*
X177587Y415074D01*
X178837Y414740D01*
X180170Y414407D01*
X181503Y413907D01*
X181670Y413824D01*
X182086Y413657D01*
X182753Y413324D01*
X183586Y412824D01*
X184502Y412241D01*
X185585Y411491D01*
X186668Y410658D01*
X187668Y409742D01*
X187751Y409658D01*
X188085Y409325D01*
X188584Y408742D01*
X189168Y407992D01*
X189834Y407159D01*
X190501Y406076D01*
X191167Y404910D01*
X191750Y403660D01*
X191834Y403493D01*
X192000Y403077D01*
X192167Y402410D01*
X192417Y401494D01*
X192750Y400327D01*
X192917Y399078D01*
X193083Y397745D01*
X193167Y396245D01*
Y396162D01*
Y396078D01*
Y395579D01*
X193083Y394829D01*
X193000Y393829D01*
X192833Y392663D01*
X192583Y391413D01*
X192250Y390080D01*
X191750Y388747D01*
X191667Y388580D01*
X191500Y388164D01*
X191167Y387497D01*
X190667Y386664D01*
X190084Y385748D01*
X189418Y384665D01*
X188584Y383582D01*
X187668Y382582D01*
X187585Y382499D01*
X187168Y382165D01*
X186668Y381665D01*
X185919Y381082D01*
X185002Y380416D01*
X183919Y379749D01*
X182753Y379083D01*
X181503Y378416D01*
X181336Y378333D01*
X180920Y378166D01*
X180170Y377916D01*
X179254Y377667D01*
X178171Y377416D01*
X176838Y377167D01*
X175504Y377000D01*
X174005Y376917D01*
X173338D01*
X172589Y377000D01*
X171589Y377083D01*
X170506Y377250D01*
X169256Y377583D01*
X167923Y377916D01*
X166590Y378416D01*
X166507D01*
X166423Y378500D01*
X166007Y378666D01*
X165340Y379083D01*
X164507Y379499D01*
X163507Y380166D01*
X162508Y380832D01*
X161425Y381665D01*
X160425Y382582D01*
X160342Y382665D01*
X160008Y383082D01*
X159509Y383582D01*
X158925Y384331D01*
X158259Y385248D01*
X157592Y386331D01*
X156926Y387497D01*
X156343Y388747D01*
X156259Y388914D01*
X156093Y389330D01*
X155843Y390080D01*
X155510Y390996D01*
X155260Y392080D01*
X155010Y393412D01*
X154843Y394745D01*
X154760Y396245D01*
Y396412D01*
Y396828D01*
X154843Y397495D01*
X154926Y398328D01*
X155010Y399328D01*
X155260Y400411D01*
X155510Y401494D01*
X155926Y402660D01*
X156010Y402827D01*
X156093Y403160D01*
X156343Y403743D01*
X156676Y404493D01*
X157093Y405326D01*
X157676Y406242D01*
X158259Y407159D01*
X158925Y408075D01*
X146429D01*
X146179Y408159D01*
X145845Y408242D01*
X145012Y408575D01*
X144596Y408825D01*
X144179Y409158D01*
X144096Y409242D01*
X144012Y409325D01*
X143846Y409575D01*
X143596Y409908D01*
X143263Y410741D01*
X143179Y411241D01*
X143096Y411741D01*
Y411824D01*
Y411991D01*
X143179Y412324D01*
X143263Y412658D01*
X143513Y413491D01*
X143846Y413907D01*
X144179Y414324D01*
X144263Y414407D01*
X144346Y414490D01*
X144596Y414657D01*
X144929Y414907D01*
X145679Y415240D01*
X146179Y415323D01*
X146678Y415407D01*
X174671D01*
X175421Y415323D01*
D02*
G37*
G36*
X174338Y458896D02*
X174755Y458812D01*
X175588Y458562D01*
X176004Y458229D01*
X176421Y457896D01*
X176504Y457813D01*
X176588Y457729D01*
X176754Y457479D01*
X176921Y457146D01*
X177337Y456313D01*
X177421Y455896D01*
X177504Y455313D01*
Y427820D01*
X177587D01*
X177837Y427904D01*
X178254Y428070D01*
X178670Y428237D01*
X179837Y428737D01*
X181086Y429487D01*
X181170Y429570D01*
X181336Y429737D01*
X181586Y429986D01*
X182003Y430320D01*
X182836Y431236D01*
X183752Y432319D01*
X183836Y432402D01*
X183919Y432652D01*
X184169Y432986D01*
X184419Y433402D01*
X184669Y433902D01*
X185002Y434485D01*
X185502Y435818D01*
Y435902D01*
X185585Y436152D01*
X185669Y436568D01*
X185752Y436985D01*
X185919Y437568D01*
X186002Y438234D01*
X186085Y439651D01*
Y439734D01*
Y440067D01*
X186002Y440567D01*
Y441150D01*
X185919Y441900D01*
X185752Y442650D01*
X185252Y444399D01*
X185169Y444483D01*
X185085Y444816D01*
X184835Y445233D01*
X184585Y445816D01*
X184169Y446399D01*
X183669Y447149D01*
X183169Y447815D01*
X182503Y448482D01*
X182419Y448565D01*
X182336Y448648D01*
X182003Y449148D01*
X181670Y449898D01*
X181503Y450398D01*
Y450898D01*
Y450981D01*
Y451148D01*
X181586Y451398D01*
Y451731D01*
X181919Y452481D01*
X182169Y452897D01*
X182503Y453314D01*
X182586Y453397D01*
X182669Y453480D01*
X182919Y453647D01*
X183253Y453897D01*
X184002Y454230D01*
X184419Y454314D01*
X184919Y454397D01*
X185169D01*
X185419Y454314D01*
X185752Y454230D01*
X186502Y453980D01*
X186918Y453647D01*
X187335Y453314D01*
X187418Y453147D01*
X187835Y452814D01*
X188335Y452231D01*
X188918Y451481D01*
X189584Y450481D01*
X190334Y449398D01*
X191000Y448232D01*
X191584Y446899D01*
X191667Y446732D01*
X191834Y446316D01*
X192000Y445566D01*
X192250Y444649D01*
X192583Y443566D01*
X192750Y442400D01*
X192917Y441067D01*
X193000Y439651D01*
Y439567D01*
Y439484D01*
Y438984D01*
X192917Y438234D01*
X192833Y437235D01*
X192667Y436152D01*
X192334Y434902D01*
X192000Y433569D01*
X191500Y432236D01*
X191417Y432069D01*
X191250Y431653D01*
X190834Y430986D01*
X190417Y430236D01*
X189751Y429237D01*
X189084Y428237D01*
X188251Y427154D01*
X187335Y426154D01*
X187251Y426071D01*
X186835Y425737D01*
X186335Y425238D01*
X185585Y424654D01*
X184669Y423988D01*
X183586Y423238D01*
X182419Y422572D01*
X181170Y421905D01*
X181086D01*
X181003Y421822D01*
X180586Y421655D01*
X179837Y421405D01*
X178920Y421155D01*
X177754Y420905D01*
X176504Y420656D01*
X175088Y420489D01*
X173672Y420406D01*
X173005D01*
X172255Y420489D01*
X171256Y420572D01*
X170173Y420739D01*
X168923Y421072D01*
X167590Y421405D01*
X166257Y421905D01*
X166090Y421988D01*
X165674Y422155D01*
X165007Y422488D01*
X164174Y422988D01*
X163258Y423571D01*
X162175Y424238D01*
X161175Y425071D01*
X160175Y425987D01*
X160092Y426071D01*
X159759Y426487D01*
X159259Y426987D01*
X158675Y427737D01*
X158009Y428570D01*
X157343Y429653D01*
X156676Y430820D01*
X156093Y432069D01*
Y432152D01*
X156010Y432236D01*
X155843Y432736D01*
X155593Y433402D01*
X155343Y434402D01*
X155093Y435485D01*
X154843Y436818D01*
X154677Y438234D01*
X154593Y439734D01*
Y439817D01*
Y439901D01*
Y440400D01*
X154677Y441150D01*
X154760Y442150D01*
X155010Y443233D01*
X155260Y444483D01*
X155676Y445816D01*
X156176Y447149D01*
X156259Y447315D01*
X156426Y447732D01*
X156759Y448398D01*
X157259Y449231D01*
X157842Y450148D01*
X158509Y451231D01*
X159342Y452231D01*
X160258Y453231D01*
X160342Y453314D01*
X160675Y453647D01*
X161258Y454147D01*
X162008Y454730D01*
X162841Y455397D01*
X163924Y456146D01*
X165091Y456813D01*
X166340Y457396D01*
X166507Y457479D01*
X166923Y457646D01*
X167673Y457896D01*
X168590Y458229D01*
X169673Y458479D01*
X171006Y458729D01*
X172339Y458896D01*
X173838Y458979D01*
X174088D01*
X174338Y458896D01*
D02*
G37*
G36*
X175421Y750571D02*
X176421Y750488D01*
X177587Y750321D01*
X178837Y749988D01*
X180170Y749655D01*
X181503Y749155D01*
X181670Y749071D01*
X182086Y748905D01*
X182753Y748571D01*
X183586Y748072D01*
X184502Y747488D01*
X185585Y746739D01*
X186668Y745906D01*
X187668Y744989D01*
X187751Y744906D01*
X188085Y744573D01*
X188584Y743989D01*
X189168Y743240D01*
X189834Y742406D01*
X190501Y741323D01*
X191167Y740157D01*
X191750Y738907D01*
X191834Y738741D01*
X192000Y738324D01*
X192167Y737658D01*
X192417Y736741D01*
X192750Y735575D01*
X192917Y734325D01*
X193083Y732992D01*
X193167Y731492D01*
Y731409D01*
Y731326D01*
Y730826D01*
X193083Y730076D01*
X193000Y729077D01*
X192833Y727910D01*
X192583Y726660D01*
X192250Y725328D01*
X191750Y723995D01*
X191667Y723828D01*
X191500Y723411D01*
X191167Y722745D01*
X190667Y721912D01*
X190084Y720995D01*
X189418Y719912D01*
X188584Y718829D01*
X187668Y717829D01*
X187585Y717746D01*
X187168Y717413D01*
X186668Y716913D01*
X185919Y716330D01*
X185002Y715663D01*
X183919Y714997D01*
X182753Y714330D01*
X181503Y713664D01*
X181336Y713580D01*
X180920Y713414D01*
X180170Y713164D01*
X179254Y712914D01*
X178171Y712664D01*
X176838Y712414D01*
X175504Y712247D01*
X174005Y712164D01*
X173338D01*
X172589Y712247D01*
X171589Y712331D01*
X170506Y712497D01*
X169256Y712831D01*
X167923Y713164D01*
X166590Y713664D01*
X166507D01*
X166423Y713747D01*
X166007Y713914D01*
X165340Y714330D01*
X164507Y714747D01*
X163507Y715413D01*
X162508Y716080D01*
X161425Y716913D01*
X160425Y717829D01*
X160342Y717913D01*
X160008Y718329D01*
X159509Y718829D01*
X158925Y719579D01*
X158259Y720495D01*
X157592Y721578D01*
X156926Y722745D01*
X156343Y723995D01*
X156259Y724161D01*
X156093Y724578D01*
X155843Y725328D01*
X155510Y726244D01*
X155260Y727327D01*
X155010Y728660D01*
X154843Y729993D01*
X154760Y731492D01*
Y731659D01*
Y732076D01*
X154843Y732742D01*
X154926Y733575D01*
X155010Y734575D01*
X155260Y735658D01*
X155510Y736741D01*
X155926Y737908D01*
X156010Y738074D01*
X156093Y738407D01*
X156343Y738991D01*
X156676Y739740D01*
X157093Y740574D01*
X157676Y741490D01*
X158259Y742406D01*
X158925Y743323D01*
X146429D01*
X146179Y743406D01*
X145845Y743490D01*
X145012Y743823D01*
X144596Y744073D01*
X144179Y744406D01*
X144096Y744489D01*
X144012Y744573D01*
X143846Y744822D01*
X143596Y745156D01*
X143263Y745989D01*
X143179Y746489D01*
X143096Y746989D01*
Y747072D01*
Y747238D01*
X143179Y747572D01*
X143263Y747905D01*
X143513Y748738D01*
X143846Y749155D01*
X144179Y749571D01*
X144263Y749655D01*
X144346Y749738D01*
X144596Y749904D01*
X144929Y750154D01*
X145679Y750488D01*
X146179Y750571D01*
X146678Y750654D01*
X174671D01*
X175421Y750571D01*
D02*
G37*
G36*
X158842Y708748D02*
X159175Y708665D01*
X160008Y708415D01*
X160508Y708082D01*
X160925Y707749D01*
X161008Y707665D01*
X161091Y707582D01*
X161258Y707332D01*
X161425Y706999D01*
X161841Y706166D01*
X161925Y705749D01*
X162008Y705166D01*
Y705083D01*
Y704749D01*
X162091Y704249D01*
Y703666D01*
X162258Y703000D01*
X162425Y702250D01*
X162591Y701417D01*
X162924Y700584D01*
Y700500D01*
X163091Y700250D01*
X163258Y699834D01*
X163507Y699334D01*
X164257Y698084D01*
X165257Y696751D01*
X165340Y696668D01*
X165507Y696501D01*
X165840Y696168D01*
X166257Y695835D01*
X166757Y695335D01*
X167423Y694919D01*
X168839Y694085D01*
X168923D01*
X169173Y693919D01*
X169589Y693836D01*
X170173Y693669D01*
X170839Y693502D01*
X171589Y693336D01*
X172422Y693252D01*
X173338Y693169D01*
X193083D01*
Y685671D01*
X171839D01*
X171006Y685754D01*
X170006Y685838D01*
X168839Y686004D01*
X167507Y686337D01*
X166173Y686671D01*
X164924Y687171D01*
X164757Y687254D01*
X164341Y687504D01*
X163757Y687837D01*
X162924Y688337D01*
X162008Y688920D01*
X161091Y689670D01*
X160175Y690503D01*
X159259Y691420D01*
X159175Y691503D01*
X158842Y691919D01*
X158426Y692419D01*
X157926Y693169D01*
X157343Y694085D01*
X156759Y695169D01*
X156259Y696335D01*
X155759Y697585D01*
Y697668D01*
X155676Y697751D01*
X155593Y698251D01*
X155426Y698918D01*
X155176Y699917D01*
X154926Y701000D01*
X154760Y702333D01*
X154677Y703666D01*
X154593Y705166D01*
Y705249D01*
Y705416D01*
X154677Y705666D01*
X154760Y706082D01*
X155010Y706916D01*
X155343Y707332D01*
X155676Y707749D01*
X155759Y707832D01*
X155843Y707915D01*
X156093Y708082D01*
X156426Y708332D01*
X157259Y708665D01*
X157676Y708748D01*
X158259Y708832D01*
X158509D01*
X158842Y708748D01*
D02*
G37*
%LPC*%
G36*
X174921Y743906D02*
X173588D01*
X173088Y743823D01*
X172422D01*
X171672Y743656D01*
X170839Y743490D01*
X170006Y743240D01*
X169173Y742906D01*
X169090Y742823D01*
X168756Y742740D01*
X168340Y742490D01*
X167840Y742240D01*
X166590Y741323D01*
X165257Y740240D01*
X165174Y740157D01*
X165007Y739907D01*
X164674Y739574D01*
X164257Y739157D01*
X163841Y738574D01*
X163424Y737824D01*
X163008Y737074D01*
X162591Y736241D01*
X162508Y736158D01*
X162425Y735825D01*
X162258Y735408D01*
X162091Y734825D01*
X161925Y734075D01*
X161758Y733242D01*
X161591Y732326D01*
Y731409D01*
Y731326D01*
Y730993D01*
X161675Y730493D01*
Y729910D01*
X161841Y729160D01*
X162008Y728327D01*
X162258Y727494D01*
X162591Y726577D01*
Y726494D01*
X162758Y726161D01*
X163008Y725744D01*
X163258Y725244D01*
X164091Y723911D01*
X165257Y722578D01*
X165340Y722495D01*
X165590Y722328D01*
X165924Y721995D01*
X166340Y721662D01*
X166923Y721162D01*
X167590Y720745D01*
X169173Y719912D01*
X169256D01*
X169589Y719746D01*
X170006Y719662D01*
X170589Y719496D01*
X171339Y719329D01*
X172172Y719162D01*
X173088Y719079D01*
X174005Y718996D01*
X174421D01*
X174921Y719079D01*
X175588D01*
X176338Y719246D01*
X177171Y719412D01*
X178004Y719579D01*
X178837Y719912D01*
X178920Y719995D01*
X179254Y720079D01*
X179670Y720329D01*
X180170Y720662D01*
X181503Y721495D01*
X182836Y722578D01*
X182919Y722662D01*
X183086Y722911D01*
X183419Y723245D01*
X183752Y723745D01*
X184252Y724328D01*
X184669Y724994D01*
X185502Y726577D01*
Y726660D01*
X185669Y726994D01*
X185835Y727410D01*
X186002Y728077D01*
X186168Y728743D01*
X186335Y729576D01*
X186418Y730493D01*
X186502Y731409D01*
Y731492D01*
Y731826D01*
X186418Y732326D01*
X186335Y732992D01*
X186252Y733742D01*
X186085Y734575D01*
X185835Y735408D01*
X185502Y736241D01*
X185419Y736325D01*
X185335Y736658D01*
X185085Y737074D01*
X184752Y737658D01*
X183919Y738907D01*
X182836Y740240D01*
X182753Y740324D01*
X182503Y740490D01*
X182169Y740824D01*
X181670Y741240D01*
X181086Y741657D01*
X180420Y742073D01*
X178837Y742906D01*
X178754Y742990D01*
X178420Y743073D01*
X178004Y743240D01*
X177421Y743406D01*
X176671Y743573D01*
X175838Y743739D01*
X174921Y743906D01*
D02*
G37*
G36*
X174755Y630685D02*
X173422D01*
X172922Y630602D01*
X172339D01*
X171589Y630435D01*
X170756Y630269D01*
X169923Y630019D01*
X169090Y629685D01*
X169006Y629602D01*
X168673Y629519D01*
X168256Y629269D01*
X167757Y629019D01*
X166507Y628102D01*
X165174Y627019D01*
X165091Y626936D01*
X164841Y626686D01*
X164591Y626353D01*
X164174Y625936D01*
X163757Y625353D01*
X163258Y624603D01*
X162841Y623853D01*
X162425Y623020D01*
X162341Y622937D01*
X162258Y622604D01*
X162091Y622187D01*
X161925Y621604D01*
X161758Y620854D01*
X161591Y620021D01*
X161425Y619105D01*
Y618188D01*
Y618105D01*
Y617772D01*
X161508Y617272D01*
Y616689D01*
X161675Y615939D01*
X161841Y615106D01*
X162091Y614273D01*
X162425Y613356D01*
X162508Y613273D01*
X162591Y612940D01*
X162841Y612523D01*
X163174Y612023D01*
X164007Y610690D01*
X165174Y609357D01*
X165257Y609274D01*
X165507Y609107D01*
X165840Y608774D01*
X166257Y608441D01*
X166840Y607941D01*
X167507Y607524D01*
X169090Y606691D01*
X169173D01*
X169506Y606525D01*
X169923Y606358D01*
X170506Y606191D01*
X171256Y606025D01*
X172005Y605858D01*
X172922Y605775D01*
X173838Y605691D01*
X174255D01*
X174755Y605775D01*
X175421Y605858D01*
X176171Y605941D01*
X177004Y606108D01*
X177837Y606358D01*
X178754Y606691D01*
X178837Y606774D01*
X179087Y606858D01*
X179587Y607108D01*
X180087Y607441D01*
X181336Y608274D01*
X182669Y609357D01*
X182753Y609440D01*
X182919Y609690D01*
X183253Y610024D01*
X183586Y610523D01*
X184086Y611107D01*
X184502Y611773D01*
X185335Y613356D01*
Y613439D01*
X185502Y613773D01*
X185669Y614189D01*
X185835Y614856D01*
X186002Y615522D01*
X186168Y616355D01*
X186252Y617272D01*
X186335Y618188D01*
Y618271D01*
Y618605D01*
X186252Y619105D01*
X186168Y619771D01*
X186085Y620521D01*
X185919Y621354D01*
X185669Y622187D01*
X185335Y623020D01*
X185252Y623104D01*
X185169Y623437D01*
X184919Y623853D01*
X184585Y624437D01*
X183752Y625686D01*
X182669Y627019D01*
X182586Y627103D01*
X182336Y627269D01*
X182003Y627603D01*
X181586Y628019D01*
X181003Y628436D01*
X180337Y628852D01*
X178754Y629685D01*
X178670Y629769D01*
X178337Y629852D01*
X177837Y630019D01*
X177254Y630185D01*
X176504Y630352D01*
X175671Y630518D01*
X174755Y630685D01*
D02*
G37*
G36*
X820080Y884817D02*
X819969D01*
X819885Y884803D01*
X819761Y884789D01*
X819636Y884775D01*
X819497Y884761D01*
X819386Y884747D01*
X819303Y884733D01*
X819261D01*
Y884719D01*
X819248Y884706D01*
X819220Y884678D01*
X819192Y884664D01*
X819178D01*
X819164Y884650D01*
X819123Y884636D01*
X819067Y884622D01*
X818929Y884553D01*
X818748Y884442D01*
X818651Y884373D01*
X818540Y884289D01*
X818416Y884178D01*
X818291Y884068D01*
X818152Y883929D01*
X818013Y883776D01*
X817875Y883610D01*
X817722Y883416D01*
Y883402D01*
X817694Y883388D01*
X817680Y883346D01*
X817639Y883291D01*
X817556Y883166D01*
X817445Y882972D01*
X817334Y882764D01*
X817223Y882514D01*
X817112Y882237D01*
X817029Y881946D01*
Y881932D01*
X817015Y881890D01*
X817001Y881821D01*
X816973Y881724D01*
X816959Y881599D01*
X816932Y881446D01*
X816890Y881266D01*
X816862Y881044D01*
X816821Y880795D01*
X816779Y880517D01*
X816751Y880212D01*
X816710Y879865D01*
X816668Y879491D01*
X816626Y879089D01*
X816585Y878645D01*
X816557Y878160D01*
Y878146D01*
X816543Y878118D01*
X816516Y878035D01*
X816488Y877952D01*
X816474Y877910D01*
Y877896D01*
Y877882D01*
X816488Y877827D01*
X816516Y877744D01*
X816585Y877619D01*
Y877605D01*
Y877563D01*
Y877480D01*
Y877383D01*
Y877258D01*
X816599Y877120D01*
Y876939D01*
X816613Y876759D01*
Y876551D01*
X816626Y876329D01*
X816654Y876093D01*
X816668Y875844D01*
X816710Y875317D01*
X816779Y874762D01*
X816807D01*
X816904Y874776D01*
X817015Y874817D01*
X817153Y874901D01*
X817167Y874928D01*
X817223Y874984D01*
X817320Y875081D01*
X817431Y875192D01*
X817458Y875206D01*
X817514Y875219D01*
X817597Y875247D01*
X817722Y875275D01*
X817847Y875303D01*
X817986Y875317D01*
X818138Y875344D01*
X818360D01*
X818429Y875331D01*
X818526Y875317D01*
X818610D01*
X818693Y875303D01*
X818804Y875289D01*
X818915Y875275D01*
X819067Y875261D01*
X819220Y875233D01*
X819400Y875219D01*
X819608Y875192D01*
X819664D01*
X819733Y875178D01*
X819830Y875164D01*
X819941Y875150D01*
X820080Y875136D01*
X820371Y875109D01*
X820690Y875067D01*
X821009Y875039D01*
X821300Y875012D01*
X821425D01*
X821536Y874998D01*
X823824Y874887D01*
X823852D01*
X823907Y874901D01*
X824004Y874914D01*
X824074Y874928D01*
X824157D01*
X824254Y874956D01*
X824379Y874970D01*
X824518Y874998D01*
X824670Y875012D01*
X824850Y875053D01*
X825058Y875081D01*
Y875095D01*
X825072Y875109D01*
X825086Y875178D01*
X825100Y875261D01*
X825114Y875317D01*
Y875344D01*
Y875372D01*
X825100Y875414D01*
X825086Y875483D01*
X825058Y875566D01*
X825031Y875691D01*
X824989Y875830D01*
X824948Y875996D01*
X824878Y876204D01*
X824795Y876454D01*
X824698Y876731D01*
X824587Y877050D01*
X824462Y877411D01*
X824309Y877827D01*
X824143Y878285D01*
X824129Y878312D01*
X824101Y878382D01*
X824060Y878493D01*
X824004Y878645D01*
X823935Y878825D01*
X823866Y879033D01*
X823783Y879255D01*
X823685Y879505D01*
X823491Y880004D01*
X823283Y880517D01*
X823186Y880753D01*
X823089Y880975D01*
X823006Y881169D01*
X822923Y881349D01*
X822909Y881363D01*
X822895Y881419D01*
X822853Y881502D01*
X822798Y881599D01*
X822715Y881738D01*
X822632Y881890D01*
X822534Y882070D01*
X822410Y882265D01*
X822285Y882473D01*
X822146Y882695D01*
X821813Y883180D01*
X821425Y883679D01*
X820995Y884192D01*
Y884206D01*
X820967Y884220D01*
X820898Y884289D01*
X820801Y884387D01*
X820662Y884511D01*
X820510Y884622D01*
X820343Y884719D01*
X820163Y884789D01*
X820080Y884817D01*
D02*
G37*
G36*
X826126Y876482D02*
X826112Y876454D01*
X826099Y876398D01*
X826085Y876357D01*
X826071Y876301D01*
X826057Y876273D01*
X826043Y876218D01*
X826029Y876149D01*
Y876135D01*
Y876121D01*
Y876107D01*
Y876079D01*
X826043Y876010D01*
X826099Y875927D01*
X826140Y875899D01*
X826196Y875885D01*
Y875899D01*
X826182Y875955D01*
X826168Y876024D01*
X826154Y876107D01*
X826140Y876301D01*
X826126Y876385D01*
Y876454D01*
Y876468D01*
Y876482D01*
D02*
G37*
G36*
X174921Y674007D02*
X173588D01*
X173088Y673924D01*
X172422D01*
X171672Y673757D01*
X170839Y673591D01*
X170006Y673341D01*
X169173Y673008D01*
X169090Y672924D01*
X168756Y672841D01*
X168340Y672591D01*
X167840Y672341D01*
X166590Y671425D01*
X165257Y670341D01*
X165174Y670258D01*
X165007Y670008D01*
X164674Y669675D01*
X164257Y669258D01*
X163841Y668675D01*
X163424Y667925D01*
X163008Y667176D01*
X162591Y666343D01*
X162508Y666259D01*
X162425Y665926D01*
X162258Y665509D01*
X162091Y664926D01*
X161925Y664176D01*
X161758Y663343D01*
X161591Y662427D01*
Y661510D01*
Y661427D01*
Y661094D01*
X161675Y660594D01*
Y660011D01*
X161841Y659261D01*
X162008Y658428D01*
X162258Y657595D01*
X162591Y656678D01*
Y656595D01*
X162758Y656262D01*
X163008Y655845D01*
X163258Y655345D01*
X164091Y654012D01*
X165257Y652679D01*
X165340Y652596D01*
X165590Y652430D01*
X165924Y652096D01*
X166340Y651763D01*
X166923Y651263D01*
X167590Y650846D01*
X169173Y650013D01*
X169256D01*
X169589Y649847D01*
X170006Y649763D01*
X170589Y649597D01*
X171339Y649430D01*
X172172Y649264D01*
X173088Y649180D01*
X174005Y649097D01*
X174421D01*
X174921Y649180D01*
X175588D01*
X176338Y649347D01*
X177171Y649513D01*
X178004Y649680D01*
X178837Y650013D01*
X178920Y650097D01*
X179254Y650180D01*
X179670Y650430D01*
X180170Y650763D01*
X181503Y651596D01*
X182836Y652679D01*
X182919Y652763D01*
X183086Y653013D01*
X183419Y653346D01*
X183752Y653846D01*
X184252Y654429D01*
X184669Y655095D01*
X185502Y656678D01*
Y656762D01*
X185669Y657095D01*
X185835Y657512D01*
X186002Y658178D01*
X186168Y658845D01*
X186335Y659678D01*
X186418Y660594D01*
X186502Y661510D01*
Y661594D01*
Y661927D01*
X186418Y662427D01*
X186335Y663093D01*
X186252Y663843D01*
X186085Y664676D01*
X185835Y665509D01*
X185502Y666343D01*
X185419Y666426D01*
X185335Y666759D01*
X185085Y667176D01*
X184752Y667759D01*
X183919Y669008D01*
X182836Y670341D01*
X182753Y670425D01*
X182503Y670592D01*
X182169Y670925D01*
X181670Y671341D01*
X181086Y671758D01*
X180420Y672174D01*
X178837Y673008D01*
X178754Y673091D01*
X178420Y673174D01*
X178004Y673341D01*
X177421Y673507D01*
X176671Y673674D01*
X175838Y673841D01*
X174921Y674007D01*
D02*
G37*
G36*
Y587280D02*
X173588D01*
X173088Y587196D01*
X172422D01*
X171672Y587029D01*
X170839Y586863D01*
X170006Y586613D01*
X169173Y586280D01*
X169090Y586196D01*
X168756Y586113D01*
X168340Y585863D01*
X167840Y585613D01*
X166590Y584697D01*
X165257Y583614D01*
X165174Y583530D01*
X165007Y583280D01*
X164674Y582947D01*
X164257Y582531D01*
X163841Y581948D01*
X163424Y581198D01*
X163008Y580448D01*
X162591Y579615D01*
X162508Y579532D01*
X162425Y579198D01*
X162258Y578782D01*
X162091Y578199D01*
X161925Y577449D01*
X161758Y576615D01*
X161591Y575699D01*
Y574783D01*
Y574699D01*
Y574366D01*
X161675Y573866D01*
Y573283D01*
X161841Y572533D01*
X162008Y571700D01*
X162258Y570867D01*
X162591Y569951D01*
Y569867D01*
X162758Y569534D01*
X163008Y569118D01*
X163258Y568618D01*
X164091Y567285D01*
X165257Y565952D01*
X165340Y565868D01*
X165590Y565702D01*
X165924Y565368D01*
X166340Y565035D01*
X166923Y564535D01*
X167590Y564119D01*
X169173Y563286D01*
X169256D01*
X169589Y563119D01*
X170006Y563036D01*
X170589Y562869D01*
X171339Y562702D01*
X172172Y562536D01*
X173088Y562453D01*
X174005Y562369D01*
X174421D01*
X174921Y562453D01*
X175588D01*
X176338Y562619D01*
X177171Y562786D01*
X178004Y562952D01*
X178837Y563286D01*
X178920Y563369D01*
X179254Y563452D01*
X179670Y563702D01*
X180170Y564035D01*
X181503Y564869D01*
X182836Y565952D01*
X182919Y566035D01*
X183086Y566285D01*
X183419Y566618D01*
X183752Y567118D01*
X184252Y567701D01*
X184669Y568368D01*
X185502Y569951D01*
Y570034D01*
X185669Y570367D01*
X185835Y570784D01*
X186002Y571450D01*
X186168Y572117D01*
X186335Y572950D01*
X186418Y573866D01*
X186502Y574783D01*
Y574866D01*
Y575199D01*
X186418Y575699D01*
X186335Y576366D01*
X186252Y577115D01*
X186085Y577948D01*
X185835Y578782D01*
X185502Y579615D01*
X185419Y579698D01*
X185335Y580031D01*
X185085Y580448D01*
X184752Y581031D01*
X183919Y582281D01*
X182836Y583614D01*
X182753Y583697D01*
X182503Y583864D01*
X182169Y584197D01*
X181670Y584613D01*
X181086Y585030D01*
X180420Y585447D01*
X178837Y586280D01*
X178754Y586363D01*
X178420Y586446D01*
X178004Y586613D01*
X177421Y586780D01*
X176671Y586946D01*
X175838Y587113D01*
X174921Y587280D01*
D02*
G37*
G36*
X823699Y931470D02*
X823685D01*
X823644Y931456D01*
X823588Y931442D01*
X823505Y931414D01*
X823325Y931359D01*
X823158Y931317D01*
X823145Y931303D01*
X823131Y931290D01*
X823103Y931262D01*
X823061Y931206D01*
X823020Y931137D01*
X822964Y931054D01*
X822909Y930929D01*
Y930915D01*
Y930887D01*
X822923Y930846D01*
Y930790D01*
Y930721D01*
X822937Y930624D01*
X822964Y930416D01*
X822992Y930152D01*
X823034Y929847D01*
X823089Y929528D01*
X823145Y929182D01*
Y929168D01*
X823158Y929140D01*
X823172Y929084D01*
X823186Y929015D01*
X823228Y928932D01*
X823269Y928835D01*
X823339Y928710D01*
X823422Y928585D01*
X823436Y928571D01*
X823464Y928530D01*
X823505Y928474D01*
X823561Y928405D01*
X823630Y928335D01*
X823685Y928280D01*
X823755Y928238D01*
X823810Y928225D01*
X823824D01*
X823866Y928238D01*
X823921Y928252D01*
X823935Y928294D01*
Y930541D01*
Y930555D01*
Y930582D01*
Y930610D01*
Y930665D01*
X823921Y930804D01*
X823907Y930957D01*
X823880Y931109D01*
X823838Y931262D01*
X823783Y931387D01*
X823741Y931442D01*
X823699Y931470D01*
D02*
G37*
G36*
X170089Y451481D02*
X170006D01*
X169756Y451398D01*
X169423Y451231D01*
X169006Y451064D01*
X167840Y450481D01*
X166673Y449731D01*
X166590Y449648D01*
X166423Y449565D01*
X166090Y449315D01*
X165757Y448982D01*
X164841Y448148D01*
X163924Y447065D01*
X163841Y446982D01*
X163674Y446815D01*
X163507Y446482D01*
X163174Y446066D01*
X162924Y445566D01*
X162591Y444983D01*
X162008Y443650D01*
Y443566D01*
X161925Y443316D01*
X161758Y442900D01*
X161675Y442483D01*
X161508Y441817D01*
X161425Y441233D01*
X161341Y439734D01*
Y439651D01*
Y439401D01*
Y438984D01*
X161425Y438401D01*
X161508Y437818D01*
X161591Y437068D01*
X162008Y435652D01*
Y435568D01*
X162091Y435318D01*
X162258Y434985D01*
X162508Y434569D01*
X163091Y433402D01*
X163924Y432236D01*
X164007Y432152D01*
X164091Y431986D01*
X164341Y431736D01*
X164674Y431319D01*
X165590Y430486D01*
X166673Y429570D01*
X166757Y429487D01*
X166923Y429403D01*
X167257Y429153D01*
X167673Y428903D01*
X168173Y428653D01*
X168756Y428320D01*
X170089Y427820D01*
Y451481D01*
D02*
G37*
G36*
X822742Y953590D02*
X822729D01*
X822715Y953576D01*
X822687D01*
X822632Y953548D01*
X822562Y953521D01*
X822479Y953479D01*
X822354Y953423D01*
X821980Y953229D01*
X821966D01*
X821938Y953215D01*
X821883Y953202D01*
X821799Y953188D01*
X821702Y953174D01*
X821578Y953146D01*
X821439Y953118D01*
X821272Y953091D01*
X821106Y953049D01*
X820898Y953007D01*
X820690Y952966D01*
X820454Y952924D01*
X820204Y952869D01*
X819941Y952813D01*
X819664Y952758D01*
X819372Y952702D01*
X819359D01*
X819345Y952688D01*
X819275Y952619D01*
X819095D01*
X818984Y952605D01*
X818873D01*
X818734Y952591D01*
X818582Y952578D01*
X818568D01*
X818540Y952564D01*
X818499D01*
X818416Y952550D01*
X818332Y952522D01*
X818207Y952508D01*
X818055Y952467D01*
X817888Y952439D01*
X817875D01*
X817819Y952425D01*
X817750Y952397D01*
X817667Y952356D01*
X817556Y952300D01*
X817445Y952217D01*
X817334Y952134D01*
X817237Y952023D01*
X817251Y952009D01*
X817306Y951967D01*
X817403Y951898D01*
X817556Y951815D01*
X817736Y951704D01*
X817986Y951579D01*
X818124Y951510D01*
X818277Y951440D01*
X818457Y951371D01*
X818637Y951288D01*
X818651D01*
X818679Y951274D01*
X818721Y951260D01*
X818776Y951232D01*
X818915Y951149D01*
X818998Y951080D01*
X819081Y951010D01*
X819483Y950650D01*
X819511Y950636D01*
X819594Y950594D01*
X819733Y950525D01*
X819913Y950414D01*
X820149Y950289D01*
X820413Y950137D01*
X820732Y949956D01*
X821078Y949748D01*
X821092Y949734D01*
X821148Y949679D01*
X821231Y949582D01*
X821342Y949471D01*
X821356D01*
X821369Y949457D01*
X821425Y949429D01*
X821508Y949402D01*
X821619Y949332D01*
X821786Y949263D01*
X821993Y949152D01*
X822118Y949097D01*
X822257Y949027D01*
X822271Y949055D01*
X822285Y949097D01*
X822299Y949194D01*
X822312Y949263D01*
X822326Y949346D01*
X822340Y949443D01*
X822368Y949554D01*
X822382Y949693D01*
X822410Y949845D01*
X822437Y950026D01*
X822465Y950234D01*
Y950248D01*
Y950275D01*
Y950317D01*
X822479Y950386D01*
Y950483D01*
X822493Y950580D01*
X822507Y950705D01*
Y950858D01*
X822534Y951010D01*
X822548Y951191D01*
X822562Y951385D01*
X822590Y951607D01*
X822618Y951829D01*
X822659Y952078D01*
X822687Y952356D01*
X822729Y952633D01*
X822742Y952647D01*
X822756Y952702D01*
X822784Y952785D01*
X822826Y952883D01*
X822895Y953091D01*
X822909Y953188D01*
X822923Y953271D01*
Y953521D01*
X822895Y953534D01*
X822853Y953562D01*
X822784Y953576D01*
X822742Y953590D01*
D02*
G37*
G36*
X174921Y408658D02*
X173588D01*
X173088Y408575D01*
X172422D01*
X171672Y408409D01*
X170839Y408242D01*
X170006Y407992D01*
X169173Y407659D01*
X169090Y407575D01*
X168756Y407492D01*
X168340Y407242D01*
X167840Y406992D01*
X166590Y406076D01*
X165257Y404993D01*
X165174Y404910D01*
X165007Y404660D01*
X164674Y404326D01*
X164257Y403910D01*
X163841Y403327D01*
X163424Y402577D01*
X163008Y401827D01*
X162591Y400994D01*
X162508Y400910D01*
X162425Y400577D01*
X162258Y400161D01*
X162091Y399577D01*
X161925Y398828D01*
X161758Y397995D01*
X161591Y397078D01*
Y396162D01*
Y396078D01*
Y395745D01*
X161675Y395245D01*
Y394662D01*
X161841Y393912D01*
X162008Y393079D01*
X162258Y392246D01*
X162591Y391330D01*
Y391246D01*
X162758Y390913D01*
X163008Y390496D01*
X163258Y389997D01*
X164091Y388664D01*
X165257Y387331D01*
X165340Y387247D01*
X165590Y387081D01*
X165924Y386748D01*
X166340Y386414D01*
X166923Y385914D01*
X167590Y385498D01*
X169173Y384665D01*
X169256D01*
X169589Y384498D01*
X170006Y384415D01*
X170589Y384248D01*
X171339Y384081D01*
X172172Y383915D01*
X173088Y383832D01*
X174005Y383748D01*
X174421D01*
X174921Y383832D01*
X175588D01*
X176338Y383998D01*
X177171Y384165D01*
X178004Y384331D01*
X178837Y384665D01*
X178920Y384748D01*
X179254Y384831D01*
X179670Y385081D01*
X180170Y385415D01*
X181503Y386248D01*
X182836Y387331D01*
X182919Y387414D01*
X183086Y387664D01*
X183419Y387997D01*
X183752Y388497D01*
X184252Y389080D01*
X184669Y389747D01*
X185502Y391330D01*
Y391413D01*
X185669Y391746D01*
X185835Y392163D01*
X186002Y392829D01*
X186168Y393496D01*
X186335Y394329D01*
X186418Y395245D01*
X186502Y396162D01*
Y396245D01*
Y396578D01*
X186418Y397078D01*
X186335Y397745D01*
X186252Y398494D01*
X186085Y399328D01*
X185835Y400161D01*
X185502Y400994D01*
X185419Y401077D01*
X185335Y401410D01*
X185085Y401827D01*
X184752Y402410D01*
X183919Y403660D01*
X182836Y404993D01*
X182753Y405076D01*
X182503Y405243D01*
X182169Y405576D01*
X181670Y405993D01*
X181086Y406409D01*
X180420Y406826D01*
X178837Y407659D01*
X178754Y407742D01*
X178420Y407825D01*
X178004Y407992D01*
X177421Y408159D01*
X176671Y408325D01*
X175838Y408492D01*
X174921Y408658D01*
D02*
G37*
G36*
X170089Y533210D02*
X170006D01*
X169756Y533127D01*
X169423Y532960D01*
X169006Y532793D01*
X167840Y532210D01*
X166673Y531460D01*
X166590Y531377D01*
X166423Y531294D01*
X166090Y531044D01*
X165757Y530711D01*
X164841Y529878D01*
X163924Y528794D01*
X163841Y528711D01*
X163674Y528545D01*
X163507Y528211D01*
X163174Y527795D01*
X162924Y527295D01*
X162591Y526712D01*
X162008Y525379D01*
Y525295D01*
X161925Y525045D01*
X161758Y524629D01*
X161675Y524212D01*
X161508Y523546D01*
X161425Y522963D01*
X161341Y521463D01*
Y521380D01*
Y521130D01*
Y520713D01*
X161425Y520130D01*
X161508Y519547D01*
X161591Y518797D01*
X162008Y517381D01*
Y517297D01*
X162091Y517048D01*
X162258Y516714D01*
X162508Y516298D01*
X163091Y515131D01*
X163924Y513965D01*
X164007Y513882D01*
X164091Y513715D01*
X164341Y513465D01*
X164674Y513049D01*
X165590Y512215D01*
X166673Y511299D01*
X166757Y511216D01*
X166923Y511132D01*
X167257Y510882D01*
X167673Y510632D01*
X168173Y510382D01*
X168756Y510049D01*
X170089Y509549D01*
Y533210D01*
D02*
G37*
G36*
X816654Y897284D02*
X816640D01*
X816626Y897270D01*
X816585Y897256D01*
X816529Y897201D01*
X816474Y897118D01*
X816404Y897007D01*
X816335Y896840D01*
X816308Y896729D01*
X816266Y896618D01*
Y896591D01*
X816252Y896535D01*
X816224Y896438D01*
X816197Y896313D01*
X816183Y896175D01*
X816155Y896036D01*
X816141Y895897D01*
Y895759D01*
Y895745D01*
Y895717D01*
Y895675D01*
Y895606D01*
Y895523D01*
X816155Y895426D01*
Y895315D01*
X816169Y895190D01*
X816183Y895038D01*
X816197Y894871D01*
X816210Y894691D01*
X816224Y894510D01*
X816252Y894303D01*
X816280Y894081D01*
X816349Y893595D01*
X816432Y893068D01*
X816543Y892500D01*
X816682Y891876D01*
X816848Y891224D01*
X817029Y890530D01*
X817251Y889809D01*
X817514Y889046D01*
X817805Y888270D01*
X817819D01*
X817847Y888284D01*
X817916Y888297D01*
X817999Y888325D01*
X818096Y888353D01*
X818221Y888381D01*
X818360Y888422D01*
X818526Y888464D01*
X818540D01*
X818596Y888492D01*
X818679Y888505D01*
X818762Y888533D01*
X818859Y888561D01*
X818942Y888575D01*
X819012Y888603D01*
X819067D01*
X819123Y888589D01*
X819192Y888575D01*
X819275Y888561D01*
X819359Y888547D01*
X819442Y888533D01*
X819497Y888519D01*
X819622D01*
X819691Y888505D01*
X819788D01*
X819927Y888492D01*
X820094Y888478D01*
X820218D01*
X820260Y888492D01*
X820315D01*
X820426Y888533D01*
X820537Y888616D01*
Y888838D01*
Y888852D01*
X820524Y888894D01*
X820510Y888935D01*
X820496Y889019D01*
X820454Y889143D01*
X820413Y889296D01*
X820357Y889490D01*
Y889518D01*
X820329Y889573D01*
X820302Y889657D01*
X820274Y889768D01*
X820232Y889906D01*
X820204Y890059D01*
X820121Y890364D01*
Y890378D01*
X820107Y890392D01*
X820066Y890461D01*
X820010Y890572D01*
X819927Y890711D01*
Y890724D01*
Y890738D01*
Y890822D01*
X819913Y890932D01*
X819885Y891099D01*
X819872Y891127D01*
X819858Y891182D01*
X819830Y891279D01*
X819775Y891404D01*
X819733Y891556D01*
X819664Y891723D01*
X819608Y891917D01*
X819539Y892111D01*
X819386Y892513D01*
X819248Y892916D01*
X819178Y893096D01*
X819123Y893262D01*
X819067Y893401D01*
X819026Y893512D01*
X819012Y893526D01*
X818998Y893581D01*
X818970Y893651D01*
X818929Y893748D01*
X818873Y893873D01*
X818804Y894025D01*
X818734Y894192D01*
X818651Y894372D01*
X818457Y894760D01*
X818235Y895190D01*
X817986Y895634D01*
X817708Y896064D01*
X817694Y896078D01*
X817667Y896119D01*
X817639Y896175D01*
X817583Y896258D01*
X817514Y896341D01*
X817445Y896452D01*
X817278Y896674D01*
X817098Y896896D01*
X817015Y897007D01*
X816932Y897090D01*
X816848Y897173D01*
X816779Y897229D01*
X816710Y897270D01*
X816654Y897284D01*
D02*
G37*
G36*
X822423Y897950D02*
X822410D01*
X822382Y897936D01*
X822326Y897922D01*
X822257Y897894D01*
X822174Y897825D01*
X822077Y897742D01*
X821980Y897617D01*
X821883Y897451D01*
X821786Y897243D01*
X821730Y897118D01*
X821688Y896965D01*
X821633Y896813D01*
X821591Y896646D01*
X821550Y896466D01*
X821508Y896258D01*
X821480Y896036D01*
X821439Y895800D01*
X821411Y895537D01*
X821383Y895259D01*
X821369Y894968D01*
X821356Y894649D01*
X821342Y894303D01*
Y893942D01*
Y893928D01*
Y893914D01*
X821356Y893873D01*
X821369Y893803D01*
X821397Y893720D01*
X821439Y893595D01*
X821480Y893429D01*
Y893415D01*
X821508Y893359D01*
X821522Y893276D01*
X821550Y893193D01*
X821578Y893096D01*
X821591Y893027D01*
X821619Y892957D01*
Y892930D01*
Y892902D01*
X821633Y892832D01*
X821647Y892791D01*
Y892721D01*
X821661Y892638D01*
X821688Y892541D01*
X821702Y892416D01*
X821730Y892264D01*
X821758Y892097D01*
X821799Y891903D01*
X821841Y891681D01*
X821883Y891418D01*
Y891404D01*
Y891376D01*
X821896Y891335D01*
X821910Y891279D01*
X821938Y891127D01*
X821966Y890932D01*
X821993Y890711D01*
X822021Y890475D01*
X822035Y890239D01*
X822049Y890017D01*
Y889989D01*
X822063Y889962D01*
Y889920D01*
X822077Y889865D01*
X822091Y889795D01*
Y889781D01*
X822104Y889768D01*
X822118Y889698D01*
X822132Y889629D01*
X822146Y889601D01*
Y889587D01*
Y889559D01*
X822132Y889518D01*
X822118Y889462D01*
X822104Y889393D01*
X822091Y889296D01*
X822063Y889185D01*
X822035Y889060D01*
Y889046D01*
X822021Y889005D01*
Y888949D01*
X822007Y888866D01*
X821993Y888686D01*
X821980Y888505D01*
Y888492D01*
Y888464D01*
Y888367D01*
X821993D01*
X822035Y888353D01*
X822104D01*
X822188Y888325D01*
X822299Y888311D01*
X822437Y888284D01*
X822604Y888242D01*
X822784Y888200D01*
X825266D01*
X825294Y888214D01*
X825350Y888228D01*
X825433Y888270D01*
X825530Y888311D01*
X825641Y888381D01*
X825724Y888464D01*
X825780Y888561D01*
X825807Y888672D01*
Y888700D01*
X825793Y888741D01*
X825780Y888797D01*
X825766Y888894D01*
X825724Y889033D01*
X825683Y889199D01*
X825627Y889421D01*
Y889435D01*
X825613Y889462D01*
X825599Y889490D01*
X825585Y889546D01*
X825558Y889684D01*
X825516Y889851D01*
X825461Y890017D01*
X825419Y890183D01*
X825391Y890336D01*
X825377Y890392D01*
X825363Y890433D01*
Y890447D01*
Y890461D01*
X825350Y890502D01*
X825336Y890558D01*
X825322Y890627D01*
X825308Y890711D01*
X825266Y890932D01*
X825197Y891196D01*
X825128Y891501D01*
X825045Y891848D01*
X824948Y892250D01*
X824837Y892666D01*
X824712Y893138D01*
X824573Y893623D01*
X824420Y894136D01*
X824254Y894663D01*
X824074Y895218D01*
X823880Y895772D01*
X823672Y896341D01*
X823658Y896369D01*
X823602Y896438D01*
X823519Y896535D01*
X823422Y896674D01*
Y896688D01*
X823394Y896729D01*
X823366Y896799D01*
X823325Y896868D01*
X823283Y896965D01*
X823228Y897076D01*
X823089Y897312D01*
X822937Y897548D01*
X822853Y897659D01*
X822770Y897756D01*
X822673Y897839D01*
X822590Y897894D01*
X822507Y897936D01*
X822423Y897950D01*
D02*
G37*
G36*
X825072Y896105D02*
Y895842D01*
X825086Y895828D01*
X825100D01*
X825128Y895856D01*
X825197Y895911D01*
X825239Y895953D01*
X825294Y896008D01*
X825266D01*
X825211Y896022D01*
X825142Y896050D01*
X825072Y896105D01*
D02*
G37*
G36*
X826196Y893567D02*
X825918Y893498D01*
X825932Y893484D01*
X825946Y893429D01*
X825988Y893345D01*
X826043Y893249D01*
X826057Y893262D01*
X826099Y893276D01*
X826140Y893304D01*
X826196Y893318D01*
Y893567D01*
D02*
G37*
%LPD*%
D60*
X450001Y106102D02*
D03*
D63*
X317700Y1080198D02*
D03*
Y1054798D02*
D03*
X292300Y1080198D02*
D03*
X206750Y1046100D02*
D03*
X181350D02*
D03*
X155950D02*
D03*
X130550D02*
D03*
X143250Y1071500D02*
D03*
X168650D02*
D03*
X194050D02*
D03*
X219450D02*
D03*
D115*
X500002Y506000D02*
D03*
X486002D02*
D03*
X531002Y282000D02*
D03*
X517002D02*
D03*
X667002Y107000D02*
D03*
X653002D02*
D03*
X567002D02*
D03*
X553002D02*
D03*
X736998Y362000D02*
D03*
X722998D02*
D03*
X736998Y309000D02*
D03*
X722998D02*
D03*
X777002Y1070000D02*
D03*
X791002D02*
D03*
X811002D02*
D03*
X825002D02*
D03*
X623998Y354000D02*
D03*
X637998D02*
D03*
X146002Y298000D02*
D03*
X132002D02*
D03*
X161998Y84000D02*
D03*
X147998D02*
D03*
X464998Y146000D02*
D03*
X478998D02*
D03*
X495002Y207000D02*
D03*
X509002D02*
D03*
X495002Y220000D02*
D03*
X509002D02*
D03*
X609002Y328000D02*
D03*
X595001D02*
D03*
X594998Y341000D02*
D03*
X608998D02*
D03*
X825002Y1095000D02*
D03*
X811002D02*
D03*
X811002Y1108000D02*
D03*
X825002D02*
D03*
X811002Y1120000D02*
D03*
X825002D02*
D03*
X777002D02*
D03*
X791002D02*
D03*
D116*
X435000Y618000D02*
D03*
X451000D02*
D03*
X304000D02*
D03*
X320000D02*
D03*
X483000D02*
D03*
X499000D02*
D03*
X466000Y235000D02*
D03*
X450000D02*
D03*
X720000Y1025000D02*
D03*
X736000D02*
D03*
D117*
X516000Y617998D02*
D03*
Y631998D02*
D03*
X157000Y1159998D02*
D03*
Y1145998D02*
D03*
X567000Y396998D02*
D03*
Y382998D02*
D03*
X691000Y433002D02*
D03*
Y419002D02*
D03*
X658000Y429000D02*
D03*
Y415000D02*
D03*
X641000Y420002D02*
D03*
Y406002D02*
D03*
X674000Y437002D02*
D03*
Y423002D02*
D03*
X691000Y459002D02*
D03*
Y445002D02*
D03*
X674000Y463002D02*
D03*
Y449002D02*
D03*
X658000Y455000D02*
D03*
Y441000D02*
D03*
X641000Y446002D02*
D03*
Y432002D02*
D03*
X627000Y429002D02*
D03*
Y415002D02*
D03*
X337000Y617998D02*
D03*
Y631998D02*
D03*
X419000Y617998D02*
D03*
Y631998D02*
D03*
X188000Y1145998D02*
D03*
Y1159998D02*
D03*
X232000Y189498D02*
D03*
Y203498D02*
D03*
X382000Y151000D02*
D03*
Y137000D02*
D03*
X445000Y151000D02*
D03*
Y137000D02*
D03*
X465000Y159002D02*
D03*
Y173002D02*
D03*
X465500Y198998D02*
D03*
Y184998D02*
D03*
X434000Y254002D02*
D03*
Y268002D02*
D03*
X434000Y280000D02*
D03*
Y294000D02*
D03*
X447000Y295998D02*
D03*
Y309998D02*
D03*
X460000Y295998D02*
D03*
Y309998D02*
D03*
X473000Y295998D02*
D03*
Y309998D02*
D03*
X486000Y295998D02*
D03*
Y309998D02*
D03*
X583000Y297998D02*
D03*
Y283998D02*
D03*
X456000Y356998D02*
D03*
Y370998D02*
D03*
X469000Y356998D02*
D03*
Y370998D02*
D03*
X495000Y356998D02*
D03*
Y370998D02*
D03*
X482000Y356998D02*
D03*
Y370998D02*
D03*
X548000Y396998D02*
D03*
Y382998D02*
D03*
X603000Y365000D02*
D03*
Y379000D02*
D03*
X266000Y420002D02*
D03*
Y434002D02*
D03*
X292000Y405002D02*
D03*
Y419002D02*
D03*
X279000Y416002D02*
D03*
Y430002D02*
D03*
X531000Y439000D02*
D03*
Y453000D02*
D03*
X614000Y414998D02*
D03*
Y428998D02*
D03*
X691000Y485002D02*
D03*
Y471002D02*
D03*
X658000Y481002D02*
D03*
Y467002D02*
D03*
X641000Y472002D02*
D03*
Y458002D02*
D03*
X709000Y437002D02*
D03*
Y423002D02*
D03*
X709000Y463003D02*
D03*
Y449003D02*
D03*
X709000Y489002D02*
D03*
Y475002D02*
D03*
X674000Y493002D02*
D03*
Y479002D02*
D03*
X789000Y981998D02*
D03*
Y995998D02*
D03*
Y1021998D02*
D03*
Y1007998D02*
D03*
X682000Y1012998D02*
D03*
Y1026998D02*
D03*
X668000Y987002D02*
D03*
Y1001002D02*
D03*
X650000D02*
D03*
Y987002D02*
D03*
X631000Y1001002D02*
D03*
Y987002D02*
D03*
X612000Y1001002D02*
D03*
Y987002D02*
D03*
X591000Y1001002D02*
D03*
Y987002D02*
D03*
X572250Y1001000D02*
D03*
Y987000D02*
D03*
X572250Y1012997D02*
D03*
Y1026997D02*
D03*
X591000Y1012998D02*
D03*
Y1026998D02*
D03*
X668000Y1012998D02*
D03*
Y1026998D02*
D03*
X650000Y1012998D02*
D03*
Y1026998D02*
D03*
X631000Y1012998D02*
D03*
Y1026998D02*
D03*
X484000Y1068002D02*
D03*
Y1054002D02*
D03*
X449000Y1050998D02*
D03*
Y1036998D02*
D03*
X156000Y1105002D02*
D03*
Y1091002D02*
D03*
X169000D02*
D03*
Y1105002D02*
D03*
X303000Y244998D02*
D03*
Y258998D02*
D03*
D118*
X507500Y190000D02*
D03*
X480500D02*
D03*
X507500Y237000D02*
D03*
X480500D02*
D03*
D122*
X355000Y644500D02*
D03*
Y617500D02*
D03*
X401000Y644500D02*
D03*
Y617500D02*
D03*
X232000Y144500D02*
D03*
Y117500D02*
D03*
X209000Y144500D02*
D03*
Y117500D02*
D03*
X513500Y467247D02*
D03*
Y440247D02*
D03*
X700000Y1025500D02*
D03*
Y998500D02*
D03*
X535000Y618500D02*
D03*
Y645500D02*
D03*
X543000Y547500D02*
D03*
Y574500D02*
D03*
D130*
X494000Y440000D02*
D03*
Y456000D02*
D03*
X122000Y100000D02*
D03*
Y84000D02*
D03*
X189000Y100000D02*
D03*
Y84000D02*
D03*
X275000Y272000D02*
D03*
Y288000D02*
D03*
X450000Y267000D02*
D03*
Y251000D02*
D03*
X543000Y532000D02*
D03*
Y516000D02*
D03*
X433000Y1052498D02*
D03*
Y1036498D02*
D03*
X416000Y1052498D02*
D03*
Y1036498D02*
D03*
D141*
X32000Y1168000D02*
D03*
X808000D02*
D03*
Y32000D02*
D03*
X32000D02*
D03*
D142*
X64400Y158600D02*
D03*
X775600D02*
D03*
X64400Y920600D02*
D03*
X775600D02*
D03*
D143*
X93000Y84400D02*
D03*
Y59000D02*
D03*
X758000Y1095200D02*
D03*
Y1146000D02*
D03*
Y1120600D02*
D03*
Y1069800D02*
D03*
Y1171400D02*
D03*
X732600Y1120600D02*
D03*
Y1095200D02*
D03*
Y1069800D02*
D03*
Y1146000D02*
D03*
Y1171400D02*
D03*
D144*
X585000Y50000D02*
D03*
X559600Y75400D02*
D03*
X610400D02*
D03*
Y24600D02*
D03*
X559600D02*
D03*
X685600D02*
D03*
X736400D02*
D03*
Y75400D02*
D03*
X685600D02*
D03*
X711000Y50000D02*
D03*
X97550Y1104500D02*
D03*
X252450D02*
D03*
D145*
X347999Y1148498D02*
D03*
X392000D02*
D03*
D146*
X172000Y60000D02*
D03*
D147*
X137000D02*
D03*
D148*
X292300Y1054798D02*
D03*
D149*
X260000Y38001D02*
D03*
Y96000D02*
D03*
D150*
X308000Y66000D02*
D03*
D151*
X349300Y109602D02*
D03*
Y52800D02*
D03*
X480700D02*
D03*
Y109602D02*
D03*
D152*
X380001Y106102D02*
D03*
Y79902D02*
D03*
D153*
X405000Y106102D02*
D03*
Y79902D02*
D03*
X425000D02*
D03*
X450001D02*
D03*
D154*
X425000Y106102D02*
D03*
D155*
X117850Y1135000D02*
D03*
X232150D02*
D03*
D156*
X242250Y1180700D02*
D03*
Y1160400D02*
D03*
X107750D02*
D03*
Y1180700D02*
D03*
D157*
X696000Y1095000D02*
D03*
X484000D02*
D03*
D158*
X711250Y309250D02*
D03*
X704750D02*
D03*
X698250D02*
D03*
X691750D02*
D03*
X685250D02*
D03*
X678750D02*
D03*
X672250D02*
D03*
X665750D02*
D03*
X659250D02*
D03*
X652750D02*
D03*
X711250Y364750D02*
D03*
X704750D02*
D03*
X698250D02*
D03*
X691750D02*
D03*
X685250D02*
D03*
X678750D02*
D03*
X672250D02*
D03*
X665750D02*
D03*
X659250D02*
D03*
X652750D02*
D03*
X571000Y302000D02*
D03*
X564500D02*
D03*
X558000D02*
D03*
X551500D02*
D03*
X545000D02*
D03*
X538500D02*
D03*
X532000D02*
D03*
X525500D02*
D03*
X519000D02*
D03*
X512500D02*
D03*
X571000Y357500D02*
D03*
X564500D02*
D03*
X558000D02*
D03*
X551500D02*
D03*
X545000D02*
D03*
X538500D02*
D03*
X532000D02*
D03*
X525500D02*
D03*
X519000D02*
D03*
X512500D02*
D03*
D159*
X167000Y175495D02*
D03*
Y128505D02*
D03*
X122000Y175495D02*
D03*
Y128505D02*
D03*
D160*
X400000Y151000D02*
D03*
X405000D02*
D03*
X395000D02*
D03*
X405000Y137000D02*
D03*
X400000D02*
D03*
X395000D02*
D03*
X422000D02*
D03*
X427000D02*
D03*
X432000D02*
D03*
X422000Y151000D02*
D03*
X432000D02*
D03*
X427000D02*
D03*
D161*
X395000Y196500D02*
D03*
X405000D02*
D03*
X395000Y169500D02*
D03*
X405000D02*
D03*
X422000Y196500D02*
D03*
X432000D02*
D03*
X422000Y169500D02*
D03*
X432000D02*
D03*
D162*
X418000Y983000D02*
D03*
Y1017000D02*
D03*
D163*
X470000Y590000D02*
D03*
X493000D02*
D03*
X516000D02*
D03*
D164*
X493000Y532000D02*
D03*
D165*
X210000Y238000D02*
D03*
X274000D02*
D03*
D166*
X218000Y288000D02*
D03*
X252000D02*
D03*
D167*
X540249Y1044251D02*
D03*
X597150D02*
D03*
D168*
X524249Y1174251D02*
D03*
X655750Y1185749D02*
D03*
D169*
X532149Y1147250D02*
D03*
X543150D02*
D03*
X554150Y1149249D02*
D03*
X565149Y1147250D02*
D03*
X576149Y1149249D02*
D03*
X587150Y1147250D02*
D03*
X598151Y1143250D02*
D03*
X609149Y1147250D02*
D03*
D170*
X507250Y172000D02*
D03*
X480750D02*
D03*
Y160000D02*
D03*
X507250D02*
D03*
D171*
X501000Y260000D02*
D03*
Y279000D02*
D03*
X472000D02*
D03*
Y269500D02*
D03*
Y260000D02*
D03*
D172*
X649250Y259750D02*
D03*
Y139250D02*
D03*
X529750D02*
D03*
Y259750D02*
D03*
D173*
X649250Y248500D02*
D03*
Y241500D02*
D03*
Y234500D02*
D03*
Y227500D02*
D03*
Y220500D02*
D03*
Y213500D02*
D03*
Y206500D02*
D03*
Y199500D02*
D03*
Y192500D02*
D03*
Y185500D02*
D03*
Y178500D02*
D03*
Y171500D02*
D03*
Y164500D02*
D03*
Y157500D02*
D03*
Y150500D02*
D03*
X529750D02*
D03*
Y157500D02*
D03*
Y164500D02*
D03*
Y171500D02*
D03*
Y178500D02*
D03*
Y185500D02*
D03*
Y192500D02*
D03*
Y199500D02*
D03*
Y206500D02*
D03*
Y213500D02*
D03*
Y220500D02*
D03*
Y227500D02*
D03*
Y234500D02*
D03*
Y241500D02*
D03*
Y248500D02*
D03*
D174*
X638500Y139250D02*
D03*
X540500Y259750D02*
D03*
X631500Y139250D02*
D03*
X624500D02*
D03*
X617500D02*
D03*
X610500D02*
D03*
X603500D02*
D03*
X596500D02*
D03*
X589500D02*
D03*
X582500D02*
D03*
X575500D02*
D03*
X568500D02*
D03*
X561500D02*
D03*
X554500D02*
D03*
X547500D02*
D03*
X540500D02*
D03*
X547500Y259750D02*
D03*
X554500D02*
D03*
X561500D02*
D03*
X568500D02*
D03*
X575500D02*
D03*
X582500D02*
D03*
X589500D02*
D03*
X596500D02*
D03*
X603500D02*
D03*
X610500D02*
D03*
X617500D02*
D03*
X624500D02*
D03*
X631500D02*
D03*
X638500D02*
D03*
D175*
X628000Y224000D02*
D03*
Y210000D02*
D03*
Y189000D02*
D03*
Y175000D02*
D03*
Y161000D02*
D03*
X614000D02*
D03*
X600000D02*
D03*
X614000Y238000D02*
D03*
Y224000D02*
D03*
Y210000D02*
D03*
X600000Y238000D02*
D03*
Y224000D02*
D03*
Y210000D02*
D03*
Y189000D02*
D03*
X614000D02*
D03*
Y175000D02*
D03*
X600000D02*
D03*
X579000Y238000D02*
D03*
X565000D02*
D03*
X551000D02*
D03*
X579000Y224000D02*
D03*
Y210000D02*
D03*
X565000Y224000D02*
D03*
Y210000D02*
D03*
X551000Y224000D02*
D03*
Y210000D02*
D03*
X579000Y189000D02*
D03*
X565000D02*
D03*
X551000D02*
D03*
X579000Y175000D02*
D03*
Y161000D02*
D03*
X565000Y175000D02*
D03*
Y161000D02*
D03*
X551000Y175000D02*
D03*
Y161000D02*
D03*
X628000Y238000D02*
D03*
D176*
X364000Y1065498D02*
D03*
D177*
X346500Y1041998D02*
D03*
X351500D02*
D03*
X356500D02*
D03*
X361500D02*
D03*
X366500D02*
D03*
X371500D02*
D03*
X376500D02*
D03*
X381500D02*
D03*
Y1088998D02*
D03*
X376500D02*
D03*
X371500D02*
D03*
X366500D02*
D03*
X361500D02*
D03*
X356500D02*
D03*
X351500D02*
D03*
X346500D02*
D03*
D178*
X387500Y1047998D02*
D03*
Y1052998D02*
D03*
Y1057998D02*
D03*
Y1062998D02*
D03*
Y1067998D02*
D03*
Y1072998D02*
D03*
Y1077998D02*
D03*
Y1082998D02*
D03*
X340500Y1052998D02*
D03*
Y1057998D02*
D03*
Y1062998D02*
D03*
Y1067998D02*
D03*
Y1072998D02*
D03*
Y1077998D02*
D03*
Y1082998D02*
D03*
Y1047998D02*
D03*
D179*
X355000Y590250D02*
D03*
X401000D02*
D03*
D180*
X378000Y520750D02*
D03*
M02*
