G04 Layer_Color=16711935*
%FSLAX44Y44*%
%MOMM*%
G71*
G01*
G75*
%ADD16C,1.0000*%
%ADD43C,1.6000*%
%ADD52C,2.0000*%
%ADD53C,1.9000*%
%ADD57C,1.3000*%
%ADD113R,1.0000X0.9000*%
%ADD114R,0.9000X1.0000*%
%ADD115R,1.4000X1.1000*%
%ADD116R,1.2000X1.8000*%
%ADD118R,1.8000X1.2000*%
%ADD123R,2.7162X2.8432*%
%ADD126R,0.9000X1.7000*%
%ADD134C,3.1000*%
%ADD135C,1.7000*%
%ADD136C,6.1000*%
%ADD137C,4.1000*%
%ADD138C,2.6000*%
%ADD139R,1.6000X1.6000*%
%ADD140R,1.6000X1.6000*%
%ADD141C,2.0000*%
%ADD142R,2.0000X2.0000*%
%ADD143O,3.6000X1.4000*%
%ADD144O,1.4000X3.6000*%
%ADD145C,1.4000*%
%ADD146C,1.5200*%
%ADD147C,2.9000*%
%ADD148R,1.5200X1.5200*%
%ADD149C,3.3500*%
%ADD150R,0.6000X0.4000*%
%ADD151R,1.1000X1.4000*%
%ADD152O,0.5000X1.4500*%
%ADD153R,1.2000X0.7000*%
%ADD154R,0.9000X2.1000*%
%ADD155R,1.1000X2.5000*%
%ADD156R,3.4000X2.5000*%
%ADD157R,2.7000X4.3000*%
%ADD158R,1.9000X1.5000*%
%ADD159R,1.5000X2.0000*%
%ADD160R,0.9000X1.6000*%
%ADD161R,1.1500X0.9000*%
%ADD162R,1.3000X0.6000*%
%ADD163R,0.8100X0.8100*%
%ADD164R,0.8100X0.4600*%
%ADD165R,0.4600X0.8100*%
%ADD166R,1.0600X1.0600*%
%ADD167R,0.4000X0.6000*%
%ADD168R,3.3000X3.3000*%
%ADD169R,0.6000X0.4000*%
%ADD170R,1.6000X3.1000*%
%ADD171R,6.3000X5.5000*%
G36*
X825208Y757500D02*
X825764Y757431D01*
X826320Y757326D01*
X826771Y757222D01*
X827153Y757118D01*
X827465Y757014D01*
X827639Y756945D01*
X827708Y756910D01*
X828229Y756632D01*
X828715Y756354D01*
X829167Y756076D01*
X829549Y755799D01*
X829861Y755556D01*
X830070Y755347D01*
X830243Y755208D01*
X830278Y755174D01*
X830660Y754757D01*
X831007Y754306D01*
X831285Y753854D01*
X831528Y753472D01*
X831736Y753125D01*
X831875Y752847D01*
X831945Y752674D01*
X831979Y752604D01*
X832188Y752049D01*
X832326Y751493D01*
X832431Y750972D01*
X832500Y750486D01*
X832535Y750070D01*
X832570Y749757D01*
Y749549D01*
Y749514D01*
Y749479D01*
X832535Y748854D01*
X832465Y748299D01*
X832396Y747778D01*
X832257Y747292D01*
X832153Y746910D01*
X832083Y746632D01*
X832014Y746459D01*
X831979Y746389D01*
X831736Y745868D01*
X831458Y745382D01*
X831181Y744931D01*
X830903Y744584D01*
X830660Y744271D01*
X830451Y744028D01*
X830312Y743889D01*
X830278Y743854D01*
X829861Y743472D01*
X829410Y743125D01*
X828958Y742813D01*
X828576Y742570D01*
X828229Y742361D01*
X827952Y742222D01*
X827778Y742153D01*
X827708Y742118D01*
X827153Y741910D01*
X826597Y741771D01*
X826077Y741632D01*
X825590Y741563D01*
X825174Y741528D01*
X824861Y741493D01*
X813195D01*
X812986Y741528D01*
X812778Y741563D01*
X812466Y741702D01*
X812327Y741806D01*
X812223Y741875D01*
X812188Y741910D01*
X812153Y741945D01*
X812014Y742118D01*
X811875Y742292D01*
X811771Y742639D01*
X811736Y742778D01*
X811702Y742917D01*
Y742986D01*
Y743021D01*
X811736Y743229D01*
X811771Y743438D01*
X811910Y743785D01*
X812014Y743924D01*
X812084Y744028D01*
X812118Y744063D01*
X812153Y744097D01*
X812327Y744236D01*
X812500Y744340D01*
X812848Y744479D01*
X812986Y744514D01*
X813091Y744549D01*
X818299D01*
X818021Y744931D01*
X817778Y745313D01*
X817535Y745695D01*
X817361Y746042D01*
X817222Y746354D01*
X817118Y746597D01*
X817084Y746736D01*
X817049Y746806D01*
X816875Y747292D01*
X816771Y747743D01*
X816667Y748195D01*
X816632Y748611D01*
X816597Y748958D01*
X816563Y749236D01*
Y749410D01*
Y749479D01*
X816597Y750104D01*
X816667Y750660D01*
X816771Y751215D01*
X816875Y751667D01*
X817014Y752049D01*
X817118Y752361D01*
X817188Y752535D01*
X817222Y752604D01*
X817466Y753125D01*
X817743Y753611D01*
X818021Y754063D01*
X818299Y754445D01*
X818542Y754757D01*
X818750Y754965D01*
X818889Y755139D01*
X818924Y755174D01*
X819340Y755556D01*
X819792Y755903D01*
X820209Y756181D01*
X820625Y756458D01*
X820972Y756632D01*
X821250Y756806D01*
X821424Y756875D01*
X821459Y756910D01*
X821493D01*
X822049Y757118D01*
X822604Y757257D01*
X823125Y757396D01*
X823577Y757465D01*
X823993Y757500D01*
X824306Y757535D01*
X824583D01*
X825208Y757500D01*
D02*
G37*
G36*
X825035Y739375D02*
X825625Y739306D01*
X826146Y739202D01*
X826632Y739098D01*
X827014Y738993D01*
X827327Y738889D01*
X827500Y738820D01*
X827535Y738785D01*
X827570D01*
X828090Y738507D01*
X828576Y738229D01*
X829028Y737917D01*
X829410Y737639D01*
X829722Y737396D01*
X829931Y737188D01*
X830104Y737049D01*
X830139Y737014D01*
X830521Y736598D01*
X830868Y736146D01*
X831146Y735729D01*
X831424Y735313D01*
X831597Y735000D01*
X831771Y734723D01*
X831840Y734549D01*
X831875Y734480D01*
X832083Y733924D01*
X832222Y733368D01*
X832361Y732848D01*
X832431Y732396D01*
X832465Y731980D01*
X832500Y731667D01*
Y731459D01*
Y731424D01*
Y731389D01*
X832465Y730799D01*
X832396Y730243D01*
X832326Y729757D01*
X832188Y729306D01*
X832083Y728924D01*
X832014Y728612D01*
X831945Y728438D01*
X831910Y728368D01*
X831667Y727813D01*
X831389Y727327D01*
X831076Y726875D01*
X830799Y726459D01*
X830556Y726146D01*
X830347Y725903D01*
X830174Y725764D01*
X830139Y725695D01*
X829965Y725556D01*
X829792Y725417D01*
X829479Y725313D01*
X829340Y725278D01*
X829236Y725244D01*
X829132D01*
X828924Y725278D01*
X828750Y725313D01*
X828438Y725452D01*
X828299Y725556D01*
X828195Y725625D01*
X828160Y725660D01*
X828125Y725695D01*
X827986Y725868D01*
X827882Y726042D01*
X827743Y726355D01*
Y726493D01*
X827708Y726598D01*
Y726667D01*
Y726702D01*
Y726910D01*
X827778Y727118D01*
X827917Y727431D01*
X828056Y727639D01*
X828090Y727674D01*
X828125Y727709D01*
X828403Y727987D01*
X828611Y728264D01*
X828820Y728577D01*
X828993Y728820D01*
X829097Y729063D01*
X829201Y729237D01*
X829236Y729375D01*
X829271Y729410D01*
X829479Y730139D01*
X829549Y730452D01*
X829583Y730764D01*
Y731007D01*
X829618Y731216D01*
Y731355D01*
Y731389D01*
X829583Y731980D01*
X829549Y732257D01*
X829479Y732500D01*
X829445Y732674D01*
X829410Y732848D01*
X829375Y732952D01*
Y732986D01*
X829167Y733542D01*
X829028Y733785D01*
X828924Y733993D01*
X828820Y734167D01*
X828715Y734306D01*
X828681Y734410D01*
X828646Y734445D01*
X828264Y734896D01*
X827917Y735278D01*
X827743Y735417D01*
X827639Y735521D01*
X827570Y735591D01*
X827535Y735625D01*
X827014Y735938D01*
X826528Y736146D01*
X826354Y736216D01*
X826181Y736285D01*
X826077Y736320D01*
X826042D01*
Y724862D01*
X826007Y724619D01*
X825972Y724445D01*
X825799Y724098D01*
X825729Y723959D01*
X825660Y723855D01*
X825625Y723820D01*
X825590Y723785D01*
X825417Y723646D01*
X825243Y723507D01*
X824896Y723403D01*
X824722Y723369D01*
X824618Y723334D01*
X824514D01*
X823889Y723369D01*
X823334Y723438D01*
X822778Y723542D01*
X822327Y723646D01*
X821945Y723785D01*
X821632Y723889D01*
X821459Y723959D01*
X821389Y723994D01*
X820868Y724237D01*
X820382Y724514D01*
X819931Y724827D01*
X819584Y725105D01*
X819271Y725348D01*
X819028Y725556D01*
X818889Y725695D01*
X818854Y725730D01*
X818472Y726146D01*
X818125Y726563D01*
X817847Y727014D01*
X817604Y727396D01*
X817396Y727743D01*
X817257Y728021D01*
X817188Y728195D01*
X817153Y728264D01*
X816945Y728820D01*
X816771Y729375D01*
X816667Y729896D01*
X816563Y730348D01*
X816528Y730764D01*
X816493Y731077D01*
Y731285D01*
Y731320D01*
Y731355D01*
X816528Y731980D01*
X816597Y732570D01*
X816702Y733125D01*
X816806Y733577D01*
X816910Y733993D01*
X817014Y734271D01*
X817084Y734480D01*
X817118Y734514D01*
Y734549D01*
X817361Y735070D01*
X817639Y735556D01*
X817917Y736007D01*
X818195Y736354D01*
X818438Y736667D01*
X818646Y736875D01*
X818785Y737049D01*
X818820Y737084D01*
X819236Y737466D01*
X819653Y737813D01*
X820104Y738091D01*
X820486Y738334D01*
X820834Y738542D01*
X821111Y738681D01*
X821285Y738750D01*
X821354Y738785D01*
X821910Y738993D01*
X822465Y739132D01*
X822986Y739271D01*
X823438Y739341D01*
X823854Y739375D01*
X824167Y739410D01*
X824445D01*
X825035Y739375D01*
D02*
G37*
G36*
X818403Y722292D02*
X818577Y722257D01*
X818716Y722223D01*
X818750Y722188D01*
X832500Y716424D01*
Y713126D01*
X818750Y707362D01*
X818542Y707292D01*
X818368Y707223D01*
X818229D01*
X817917Y707258D01*
X817639Y707362D01*
X817466Y707466D01*
X817396Y707501D01*
X817118Y707744D01*
X816910Y707952D01*
X816806Y708160D01*
X816771Y708195D01*
Y708230D01*
X816702Y708473D01*
X816667Y708646D01*
Y708785D01*
Y708820D01*
X816702Y709133D01*
X816806Y709410D01*
X816910Y709619D01*
X816945Y709653D01*
Y709688D01*
X817153Y709931D01*
X817361Y710105D01*
X817535Y710209D01*
X817570Y710244D01*
X817604D01*
X828611Y714792D01*
X817604Y719306D01*
X817327Y719480D01*
X817118Y719688D01*
X816979Y719827D01*
X816945Y719862D01*
Y719896D01*
X816771Y720174D01*
X816702Y720452D01*
X816667Y720660D01*
Y720695D01*
Y720730D01*
Y720938D01*
X816702Y721112D01*
X816736Y721250D01*
X816771Y721320D01*
X816945Y721632D01*
X817153Y721841D01*
X817327Y722014D01*
X817361Y722049D01*
X817396D01*
X817674Y722223D01*
X817952Y722292D01*
X818160Y722327D01*
X818229D01*
X818403Y722292D01*
D02*
G37*
G36*
X825035Y705313D02*
X825625Y705244D01*
X826146Y705139D01*
X826632Y705035D01*
X827014Y704931D01*
X827327Y704827D01*
X827500Y704758D01*
X827535Y704723D01*
X827570D01*
X828090Y704445D01*
X828576Y704167D01*
X829028Y703855D01*
X829410Y703577D01*
X829722Y703334D01*
X829931Y703126D01*
X830104Y702987D01*
X830139Y702952D01*
X830521Y702535D01*
X830868Y702084D01*
X831146Y701667D01*
X831424Y701251D01*
X831597Y700938D01*
X831771Y700660D01*
X831840Y700487D01*
X831875Y700417D01*
X832083Y699862D01*
X832222Y699306D01*
X832361Y698785D01*
X832431Y698334D01*
X832465Y697917D01*
X832500Y697605D01*
Y697397D01*
Y697362D01*
Y697327D01*
X832465Y696737D01*
X832396Y696181D01*
X832326Y695695D01*
X832188Y695244D01*
X832083Y694862D01*
X832014Y694549D01*
X831945Y694376D01*
X831910Y694306D01*
X831667Y693751D01*
X831389Y693265D01*
X831076Y692813D01*
X830799Y692397D01*
X830556Y692084D01*
X830347Y691841D01*
X830174Y691702D01*
X830139Y691633D01*
X829965Y691494D01*
X829792Y691355D01*
X829479Y691251D01*
X829340Y691216D01*
X829236Y691181D01*
X829132D01*
X828924Y691216D01*
X828750Y691251D01*
X828438Y691390D01*
X828299Y691494D01*
X828195Y691563D01*
X828160Y691598D01*
X828125Y691633D01*
X827986Y691806D01*
X827882Y691980D01*
X827743Y692292D01*
Y692431D01*
X827708Y692535D01*
Y692605D01*
Y692640D01*
Y692848D01*
X827778Y693056D01*
X827917Y693369D01*
X828056Y693577D01*
X828090Y693612D01*
X828125Y693647D01*
X828403Y693924D01*
X828611Y694202D01*
X828820Y694515D01*
X828993Y694758D01*
X829097Y695001D01*
X829201Y695174D01*
X829236Y695313D01*
X829271Y695348D01*
X829479Y696077D01*
X829549Y696390D01*
X829583Y696702D01*
Y696945D01*
X829618Y697153D01*
Y697292D01*
Y697327D01*
X829583Y697917D01*
X829549Y698195D01*
X829479Y698438D01*
X829445Y698612D01*
X829410Y698785D01*
X829375Y698890D01*
Y698924D01*
X829167Y699480D01*
X829028Y699723D01*
X828924Y699931D01*
X828820Y700105D01*
X828715Y700244D01*
X828681Y700348D01*
X828646Y700383D01*
X828264Y700834D01*
X827917Y701216D01*
X827743Y701355D01*
X827639Y701459D01*
X827570Y701528D01*
X827535Y701563D01*
X827014Y701876D01*
X826528Y702084D01*
X826354Y702153D01*
X826181Y702223D01*
X826077Y702258D01*
X826042D01*
Y690799D01*
X826007Y690556D01*
X825972Y690383D01*
X825799Y690036D01*
X825729Y689897D01*
X825660Y689792D01*
X825625Y689758D01*
X825590Y689723D01*
X825417Y689584D01*
X825243Y689445D01*
X824896Y689341D01*
X824722Y689306D01*
X824618Y689272D01*
X824514D01*
X823889Y689306D01*
X823334Y689376D01*
X822778Y689480D01*
X822327Y689584D01*
X821945Y689723D01*
X821632Y689827D01*
X821459Y689897D01*
X821389Y689931D01*
X820868Y690174D01*
X820382Y690452D01*
X819931Y690765D01*
X819584Y691042D01*
X819271Y691285D01*
X819028Y691494D01*
X818889Y691633D01*
X818854Y691667D01*
X818472Y692084D01*
X818125Y692501D01*
X817847Y692952D01*
X817604Y693334D01*
X817396Y693681D01*
X817257Y693959D01*
X817188Y694133D01*
X817153Y694202D01*
X816945Y694758D01*
X816771Y695313D01*
X816667Y695834D01*
X816563Y696285D01*
X816528Y696702D01*
X816493Y697015D01*
Y697223D01*
Y697258D01*
Y697292D01*
X816528Y697917D01*
X816597Y698508D01*
X816702Y699063D01*
X816806Y699515D01*
X816910Y699931D01*
X817014Y700209D01*
X817084Y700417D01*
X817118Y700452D01*
Y700487D01*
X817361Y701008D01*
X817639Y701494D01*
X817917Y701945D01*
X818195Y702292D01*
X818438Y702605D01*
X818646Y702813D01*
X818785Y702987D01*
X818820Y703021D01*
X819236Y703403D01*
X819653Y703751D01*
X820104Y704028D01*
X820486Y704271D01*
X820834Y704480D01*
X821111Y704619D01*
X821285Y704688D01*
X821354Y704723D01*
X821910Y704931D01*
X822465Y705070D01*
X822986Y705209D01*
X823438Y705278D01*
X823854Y705313D01*
X824167Y705348D01*
X824445D01*
X825035Y705313D01*
D02*
G37*
G36*
X832500Y685140D02*
X812882D01*
X812674Y685209D01*
X812361Y685348D01*
X812153Y685487D01*
X812084Y685522D01*
Y685556D01*
X811945Y685695D01*
X811841Y685869D01*
X811702Y686251D01*
Y686390D01*
X811667Y686529D01*
Y686598D01*
Y686633D01*
Y686841D01*
X811736Y687015D01*
X811875Y687362D01*
X811945Y687501D01*
X812014Y687605D01*
X812049Y687640D01*
X812084Y687674D01*
X812223Y687813D01*
X812396Y687917D01*
X812743Y688056D01*
X812882Y688091D01*
X813021Y688126D01*
X832500D01*
Y685140D01*
D02*
G37*
G36*
X825208Y683056D02*
X825764Y682987D01*
X826320Y682883D01*
X826771Y682779D01*
X827153Y682674D01*
X827465Y682570D01*
X827639Y682501D01*
X827708Y682466D01*
X828229Y682188D01*
X828715Y681911D01*
X829167Y681633D01*
X829549Y681355D01*
X829861Y681112D01*
X830070Y680904D01*
X830243Y680765D01*
X830278Y680730D01*
X830660Y680313D01*
X831007Y679862D01*
X831285Y679445D01*
X831528Y679029D01*
X831736Y678716D01*
X831875Y678438D01*
X831945Y678265D01*
X831979Y678195D01*
X832188Y677640D01*
X832326Y677084D01*
X832431Y676563D01*
X832500Y676077D01*
X832535Y675661D01*
X832570Y675348D01*
Y675140D01*
Y675105D01*
Y675070D01*
X832535Y674480D01*
X832465Y673890D01*
X832396Y673369D01*
X832257Y672918D01*
X832153Y672536D01*
X832083Y672223D01*
X832014Y672050D01*
X831979Y671980D01*
X831736Y671425D01*
X831458Y670939D01*
X831181Y670522D01*
X830903Y670140D01*
X830660Y669827D01*
X830451Y669584D01*
X830312Y669445D01*
X830278Y669411D01*
X829861Y669029D01*
X829410Y668682D01*
X828958Y668369D01*
X828576Y668126D01*
X828229Y667918D01*
X827952Y667779D01*
X827778Y667709D01*
X827708Y667675D01*
X827153Y667466D01*
X826597Y667327D01*
X826077Y667189D01*
X825590Y667119D01*
X825174Y667084D01*
X824861Y667050D01*
X824583D01*
X823993Y667084D01*
X823403Y667154D01*
X822882Y667258D01*
X822431Y667362D01*
X822049Y667466D01*
X821736Y667570D01*
X821563Y667640D01*
X821493Y667675D01*
X820938Y667918D01*
X820452Y668195D01*
X820035Y668508D01*
X819653Y668786D01*
X819340Y669029D01*
X819097Y669237D01*
X818959Y669376D01*
X818924Y669411D01*
X818542Y669827D01*
X818195Y670279D01*
X817917Y670695D01*
X817674Y671112D01*
X817466Y671459D01*
X817327Y671737D01*
X817257Y671911D01*
X817222Y671945D01*
Y671980D01*
X817014Y672536D01*
X816841Y673091D01*
X816736Y673612D01*
X816632Y674063D01*
X816597Y674480D01*
X816563Y674793D01*
Y675001D01*
Y675036D01*
Y675070D01*
X816597Y675591D01*
X816632Y676112D01*
X816702Y676563D01*
X816806Y676980D01*
X816910Y677293D01*
X816979Y677570D01*
X817014Y677709D01*
X817049Y677779D01*
X817222Y678230D01*
X817431Y678647D01*
X817639Y679029D01*
X817847Y679341D01*
X818021Y679619D01*
X818160Y679827D01*
X818264Y679966D01*
X818299Y680001D01*
X813195D01*
X812986Y680036D01*
X812778Y680070D01*
X812466Y680244D01*
X812327Y680348D01*
X812223Y680418D01*
X812188Y680452D01*
X812153Y680487D01*
X812014Y680661D01*
X811875Y680834D01*
X811771Y681181D01*
X811736Y681320D01*
X811702Y681424D01*
Y681494D01*
Y681529D01*
X811736Y681772D01*
X811771Y681980D01*
X811910Y682327D01*
X812014Y682466D01*
X812084Y682570D01*
X812118Y682605D01*
X812153Y682640D01*
X812327Y682779D01*
X812500Y682883D01*
X812848Y683022D01*
X812986Y683056D01*
X813091Y683091D01*
X824583D01*
X825208Y683056D01*
D02*
G37*
G36*
X825139Y665001D02*
X825729Y664932D01*
X826250Y664827D01*
X826736Y664723D01*
X827118Y664619D01*
X827431Y664515D01*
X827604Y664446D01*
X827674Y664411D01*
X828195Y664133D01*
X828681Y663855D01*
X829132Y663577D01*
X829514Y663300D01*
X829826Y663057D01*
X830035Y662848D01*
X830208Y662710D01*
X830243Y662675D01*
X830625Y662258D01*
X830972Y661807D01*
X831250Y661355D01*
X831493Y660973D01*
X831701Y660626D01*
X831840Y660348D01*
X831910Y660175D01*
X831945Y660105D01*
X832153Y659550D01*
X832292Y658994D01*
X832396Y658473D01*
X832465Y657987D01*
X832500Y657571D01*
X832535Y657258D01*
Y657050D01*
Y657015D01*
Y656980D01*
X832500Y656355D01*
X832431Y655800D01*
X832361Y655244D01*
X832222Y654793D01*
X832118Y654411D01*
X832049Y654099D01*
X831979Y653925D01*
X831945Y653855D01*
X831701Y653335D01*
X831424Y652849D01*
X831146Y652397D01*
X830868Y652050D01*
X830625Y651737D01*
X830417Y651494D01*
X830278Y651356D01*
X830243Y651321D01*
X829826Y650939D01*
X829375Y650592D01*
X828924Y650279D01*
X828542Y650036D01*
X828195Y649828D01*
X827917Y649689D01*
X827743Y649619D01*
X827674Y649585D01*
X827118Y649376D01*
X826563Y649203D01*
X826042Y649099D01*
X825556Y648994D01*
X825139Y648960D01*
X824792Y648925D01*
X824514D01*
X823924Y648960D01*
X823334Y649029D01*
X822813Y649133D01*
X822361Y649237D01*
X821979Y649342D01*
X821667Y649446D01*
X821493Y649515D01*
X821424Y649550D01*
X820868Y649793D01*
X820382Y650071D01*
X819965Y650383D01*
X819584Y650661D01*
X819271Y650904D01*
X819028Y651112D01*
X818889Y651251D01*
X818854Y651286D01*
X818472Y651703D01*
X818125Y652154D01*
X817847Y652571D01*
X817604Y652987D01*
X817396Y653335D01*
X817257Y653612D01*
X817188Y653786D01*
X817153Y653821D01*
Y653855D01*
X816945Y654411D01*
X816771Y654967D01*
X816667Y655487D01*
X816563Y655974D01*
X816528Y656390D01*
X816493Y656703D01*
Y656911D01*
Y656946D01*
Y656980D01*
X816528Y657605D01*
X816597Y658161D01*
X816702Y658717D01*
X816806Y659168D01*
X816945Y659550D01*
X817049Y659862D01*
X817118Y660036D01*
X817153Y660105D01*
X817396Y660626D01*
X817674Y661112D01*
X817952Y661564D01*
X818229Y661946D01*
X818472Y662258D01*
X818681Y662466D01*
X818820Y662640D01*
X818854Y662675D01*
X819271Y663057D01*
X819688Y663404D01*
X820139Y663682D01*
X820521Y663960D01*
X820868Y664133D01*
X821146Y664307D01*
X821320Y664376D01*
X821389Y664411D01*
X821945Y664619D01*
X822500Y664758D01*
X823021Y664897D01*
X823507Y664966D01*
X823924Y665001D01*
X824236Y665036D01*
X824514D01*
X825139Y665001D01*
D02*
G37*
G36*
Y646911D02*
X825695Y646842D01*
X826250Y646738D01*
X826702Y646633D01*
X827118Y646529D01*
X827396Y646425D01*
X827604Y646356D01*
X827639Y646321D01*
X827674D01*
X828195Y646043D01*
X828681Y645765D01*
X829132Y645488D01*
X829514Y645210D01*
X829826Y644967D01*
X830035Y644758D01*
X830208Y644619D01*
X830243Y644585D01*
X830625Y644168D01*
X830972Y643717D01*
X831250Y643265D01*
X831493Y642883D01*
X831701Y642536D01*
X831840Y642258D01*
X831910Y642085D01*
X831945Y642015D01*
X832153Y641460D01*
X832292Y640904D01*
X832396Y640383D01*
X832465Y639897D01*
X832500Y639481D01*
X832535Y639168D01*
Y638960D01*
Y638925D01*
Y638890D01*
X832500Y638369D01*
X832465Y637849D01*
X832396Y637397D01*
X832326Y637015D01*
X832257Y636668D01*
X832188Y636390D01*
X832118Y636251D01*
Y636182D01*
X831945Y635731D01*
X831736Y635279D01*
X831528Y634897D01*
X831320Y634585D01*
X831111Y634307D01*
X830972Y634099D01*
X830868Y633960D01*
X830833Y633925D01*
X832535D01*
Y630835D01*
X824514D01*
X823889Y630870D01*
X823334Y630939D01*
X822778Y631043D01*
X822327Y631147D01*
X821945Y631251D01*
X821632Y631356D01*
X821459Y631425D01*
X821389Y631460D01*
X820868Y631703D01*
X820382Y631981D01*
X819931Y632293D01*
X819584Y632571D01*
X819271Y632814D01*
X819028Y633022D01*
X818889Y633161D01*
X818854Y633196D01*
X818472Y633613D01*
X818125Y634064D01*
X817813Y634481D01*
X817570Y634897D01*
X817361Y635245D01*
X817222Y635522D01*
X817153Y635696D01*
X817118Y635731D01*
Y635765D01*
X816910Y636321D01*
X816771Y636876D01*
X816632Y637397D01*
X816563Y637883D01*
X816528Y638300D01*
X816493Y638613D01*
Y638821D01*
Y638856D01*
Y638890D01*
X816528Y639515D01*
X816597Y640071D01*
X816702Y640626D01*
X816806Y641078D01*
X816910Y641460D01*
X817014Y641772D01*
X817084Y641946D01*
X817118Y642015D01*
X817361Y642536D01*
X817639Y643022D01*
X817952Y643474D01*
X818229Y643856D01*
X818472Y644168D01*
X818681Y644376D01*
X818820Y644550D01*
X818854Y644585D01*
X819271Y644967D01*
X819688Y645314D01*
X820139Y645592D01*
X820521Y645869D01*
X820868Y646043D01*
X821146Y646217D01*
X821320Y646286D01*
X821389Y646321D01*
X821945Y646529D01*
X822500Y646668D01*
X823021Y646807D01*
X823507Y646876D01*
X823924Y646911D01*
X824236Y646946D01*
X824514D01*
X825139Y646911D01*
D02*
G37*
G36*
X832535Y625731D02*
X824306D01*
X823924Y625696D01*
X823577Y625661D01*
X823264Y625592D01*
X822986Y625522D01*
X822743Y625453D01*
X822570Y625418D01*
X822465Y625349D01*
X822431D01*
X821840Y625002D01*
X821563Y624828D01*
X821354Y624620D01*
X821181Y624481D01*
X821042Y624342D01*
X820972Y624272D01*
X820938Y624238D01*
X820521Y623682D01*
X820209Y623161D01*
X820104Y622953D01*
X820035Y622779D01*
X819965Y622675D01*
Y622640D01*
X819827Y622293D01*
X819757Y621946D01*
X819688Y621634D01*
X819618Y621356D01*
Y621113D01*
X819584Y620904D01*
Y620766D01*
Y620731D01*
X819549Y620488D01*
X819514Y620314D01*
X819340Y619967D01*
X819271Y619828D01*
X819202Y619724D01*
X819167Y619689D01*
X819132Y619655D01*
X818959Y619516D01*
X818750Y619377D01*
X818403Y619272D01*
X818264Y619238D01*
X818125Y619203D01*
X818021D01*
X817778Y619238D01*
X817604Y619272D01*
X817257Y619411D01*
X817118Y619516D01*
X817014Y619585D01*
X816979Y619620D01*
X816945Y619655D01*
X816806Y619828D01*
X816667Y620002D01*
X816563Y620349D01*
X816528Y620522D01*
X816493Y620627D01*
Y620696D01*
Y620731D01*
X816528Y621356D01*
X816563Y621911D01*
X816632Y622467D01*
X816736Y622918D01*
X816841Y623335D01*
X816910Y623613D01*
X816945Y623821D01*
X816979Y623856D01*
Y623890D01*
X817188Y624411D01*
X817396Y624897D01*
X817639Y625349D01*
X817882Y625731D01*
X818091Y626043D01*
X818264Y626252D01*
X818403Y626425D01*
X818438Y626460D01*
X818820Y626842D01*
X819202Y627189D01*
X819584Y627502D01*
X819965Y627745D01*
X820313Y627953D01*
X820556Y628092D01*
X820729Y628196D01*
X820799Y628231D01*
X821320Y628439D01*
X821875Y628578D01*
X822431Y628717D01*
X822917Y628786D01*
X823334Y628821D01*
X823681Y628856D01*
X832535D01*
Y625731D01*
D02*
G37*
G36*
X825208Y617780D02*
X825764Y617710D01*
X826320Y617606D01*
X826771Y617502D01*
X827153Y617397D01*
X827465Y617293D01*
X827639Y617224D01*
X827708Y617189D01*
X828229Y616911D01*
X828715Y616634D01*
X829167Y616356D01*
X829549Y616078D01*
X829861Y615835D01*
X830070Y615627D01*
X830243Y615488D01*
X830278Y615453D01*
X830660Y615037D01*
X831007Y614585D01*
X831285Y614134D01*
X831528Y613752D01*
X831736Y613405D01*
X831875Y613127D01*
X831945Y612953D01*
X831979Y612884D01*
X832188Y612328D01*
X832326Y611773D01*
X832431Y611252D01*
X832500Y610766D01*
X832535Y610349D01*
X832570Y610037D01*
Y609828D01*
Y609794D01*
Y609759D01*
X832535Y609134D01*
X832465Y608578D01*
X832396Y608057D01*
X832257Y607571D01*
X832153Y607189D01*
X832083Y606912D01*
X832014Y606738D01*
X831979Y606669D01*
X831736Y606148D01*
X831458Y605662D01*
X831181Y605210D01*
X830903Y604863D01*
X830660Y604551D01*
X830451Y604307D01*
X830312Y604169D01*
X830278Y604134D01*
X829861Y603752D01*
X829410Y603405D01*
X828958Y603092D01*
X828576Y602849D01*
X828229Y602641D01*
X827952Y602502D01*
X827778Y602433D01*
X827708Y602398D01*
X827153Y602189D01*
X826597Y602051D01*
X826077Y601912D01*
X825590Y601842D01*
X825174Y601808D01*
X824861Y601773D01*
X813195D01*
X812986Y601808D01*
X812778Y601842D01*
X812466Y601981D01*
X812327Y602085D01*
X812223Y602155D01*
X812188Y602189D01*
X812153Y602224D01*
X812014Y602398D01*
X811875Y602571D01*
X811771Y602919D01*
X811736Y603057D01*
X811702Y603196D01*
Y603266D01*
Y603301D01*
X811736Y603509D01*
X811771Y603717D01*
X811910Y604064D01*
X812014Y604203D01*
X812084Y604307D01*
X812118Y604342D01*
X812153Y604377D01*
X812327Y604516D01*
X812500Y604620D01*
X812848Y604759D01*
X812986Y604794D01*
X813091Y604828D01*
X818299D01*
X818021Y605210D01*
X817778Y605592D01*
X817535Y605974D01*
X817361Y606321D01*
X817222Y606634D01*
X817118Y606877D01*
X817084Y607016D01*
X817049Y607085D01*
X816875Y607571D01*
X816771Y608023D01*
X816667Y608474D01*
X816632Y608891D01*
X816597Y609238D01*
X816563Y609516D01*
Y609689D01*
Y609759D01*
X816597Y610384D01*
X816667Y610939D01*
X816771Y611495D01*
X816875Y611946D01*
X817014Y612328D01*
X817118Y612641D01*
X817188Y612814D01*
X817222Y612884D01*
X817466Y613405D01*
X817743Y613891D01*
X818021Y614342D01*
X818299Y614724D01*
X818542Y615037D01*
X818750Y615245D01*
X818889Y615418D01*
X818924Y615453D01*
X819340Y615835D01*
X819792Y616182D01*
X820209Y616460D01*
X820625Y616738D01*
X820972Y616911D01*
X821250Y617085D01*
X821424Y617155D01*
X821459Y617189D01*
X821493D01*
X822049Y617397D01*
X822604Y617536D01*
X823125Y617675D01*
X823577Y617745D01*
X823993Y617780D01*
X824306Y617814D01*
X824583D01*
X825208Y617780D01*
D02*
G37*
G36*
X821420Y543961D02*
X821435Y543922D01*
X821426Y543882D01*
X821411Y543868D01*
X821411D01*
X821173Y543646D01*
X820963Y543446D01*
Y543446D01*
X820755Y543244D01*
X820754Y543244D01*
X820754Y543244D01*
X820754Y543244D01*
X820754Y543243D01*
X820754Y543243D01*
X820754Y543243D01*
X820754D01*
X820547Y543040D01*
X820547Y543040D01*
X820547Y543040D01*
X820547Y543040D01*
X820547Y543040D01*
X820547Y543040D01*
X820547D01*
X820340Y542832D01*
X820340Y542832D01*
Y542832D01*
X820110Y542598D01*
X820110Y542597D01*
X820110Y542597D01*
X820110Y542597D01*
X820110Y542597D01*
X820109Y542597D01*
X820109D01*
X819880Y542358D01*
X819880Y542359D01*
X819652Y542117D01*
X819652Y542117D01*
X819425Y541872D01*
X819425Y541872D01*
X819425Y541872D01*
X819201Y541625D01*
X819201Y541625D01*
X819201D01*
X818977Y541374D01*
X818977Y541374D01*
X818977D01*
X818756Y541121D01*
X818756Y541121D01*
X818756D01*
X818535Y540864D01*
X818536Y540865D01*
X818317Y540605D01*
X818317Y540605D01*
X818317D01*
X818100Y540344D01*
X818100Y540344D01*
X818100D01*
X817884Y540079D01*
X817885Y540079D01*
X817671Y539811D01*
X817670Y539810D01*
X817670D01*
X817459Y539541D01*
X817459Y539540D01*
X817458Y539540D01*
X817458Y539540D01*
X817458Y539540D01*
X817458Y539540D01*
X817458Y539540D01*
X817249Y539268D01*
X817248Y539267D01*
X817248D01*
X817248Y539267D01*
X817248Y539267D01*
X817248Y539267D01*
X817040Y538992D01*
X817039Y538991D01*
X817040Y538992D01*
X816832Y538713D01*
X816832Y538712D01*
X816628Y538433D01*
X816627Y538432D01*
X816627D01*
X816423Y538147D01*
X816424Y538148D01*
X816221Y537860D01*
X816222Y537861D01*
X816021Y537571D01*
X816021Y537571D01*
X815823Y537279D01*
X815823Y537280D01*
X815604Y536951D01*
X815604Y536952D01*
X815388Y536621D01*
X815174Y536287D01*
X815174Y536287D01*
X814962Y535949D01*
X814962Y535949D01*
X814962D01*
X814753Y535610D01*
X814752Y535609D01*
X814753Y535610D01*
X814545Y535266D01*
X814340Y534919D01*
X814340Y534920D01*
X814137Y534570D01*
X814137Y534570D01*
X813936Y534217D01*
X813937Y534218D01*
X813738Y533862D01*
X813738Y533861D01*
X813524Y533468D01*
X813523Y533467D01*
X813523Y533467D01*
X813311Y533069D01*
X813311Y533069D01*
X813311Y533069D01*
X813311Y533069D01*
X813311Y533069D01*
X813101Y532667D01*
X813102Y532668D01*
X812895Y532262D01*
X812691Y531853D01*
X812691Y531852D01*
Y531852D01*
X812491Y531442D01*
X812491Y531442D01*
Y531442D01*
X812490Y531441D01*
X812275Y530988D01*
X812275Y530988D01*
X812275Y530988D01*
X812275Y530988D01*
X812275Y530987D01*
X812275Y530987D01*
X812275Y530987D01*
X812275Y530987D01*
X812063Y530531D01*
X812063Y530531D01*
X812063D01*
X811854Y530069D01*
X811855Y530070D01*
X811650Y529604D01*
X811449Y529134D01*
X811449Y529134D01*
X811236Y528623D01*
X811235Y528622D01*
X811235Y528622D01*
X811235Y528622D01*
X811235Y528622D01*
X811235Y528621D01*
X811235Y528621D01*
X811026Y528106D01*
X811026Y528105D01*
X811026Y528106D01*
X810821Y527584D01*
X810606Y527018D01*
X810395Y526446D01*
X810396Y526447D01*
X810190Y525870D01*
X810190Y525870D01*
X810190Y525870D01*
Y525870D01*
Y525870D01*
X809977Y525249D01*
X809977Y525248D01*
Y525248D01*
X809769Y524620D01*
X809769Y524620D01*
X809769Y524620D01*
X809769Y524620D01*
X809769Y524620D01*
Y524620D01*
X809568Y523988D01*
X809568Y523988D01*
X809568D01*
X809360Y523306D01*
X809360Y523306D01*
X809159Y522619D01*
X808954Y521883D01*
X808746Y521097D01*
X808547Y520303D01*
X808547Y520304D01*
X808347Y519458D01*
X808347Y519459D01*
X808149Y518561D01*
X808149Y518562D01*
X807953Y517611D01*
X807763Y516605D01*
X807763Y516605D01*
Y516605D01*
X807580Y515546D01*
X807580Y515546D01*
X807580D01*
X807407Y514427D01*
X807407Y514426D01*
X807385Y514274D01*
X807342Y513970D01*
X807300Y513666D01*
X807260Y513361D01*
X807241Y513209D01*
X807241Y513209D01*
X807241Y513208D01*
X807240Y513207D01*
X807240Y513207D01*
X807240Y513206D01*
X807240Y513206D01*
X807220Y513046D01*
X807181Y512727D01*
X807143Y512406D01*
X807107Y512086D01*
X807090Y511926D01*
Y511926D01*
X807090Y511926D01*
X807090Y511925D01*
X807090Y511924D01*
X807090Y511924D01*
X807090Y511923D01*
X807090D01*
X807071Y511750D01*
X807036Y511405D01*
X807002Y511059D01*
X806970Y510713D01*
X806955Y510540D01*
X806955Y510540D01*
X806955Y510539D01*
X806955Y510538D01*
X806955Y510537D01*
X806955Y510537D01*
X806955D01*
X806938Y510344D01*
X806907Y509957D01*
X806878Y509570D01*
X806851Y509183D01*
X806838Y508990D01*
Y508990D01*
X806838Y508989D01*
X806838Y508989D01*
X806838Y508988D01*
X806838Y508988D01*
X806838Y508987D01*
X806825Y508774D01*
X806800Y508347D01*
X806778Y507921D01*
X806759Y507494D01*
X806750Y507280D01*
Y507280D01*
X806742Y507046D01*
X806727Y506577D01*
X806715Y506109D01*
X806706Y505640D01*
X806703Y505406D01*
Y505406D01*
X806697Y504560D01*
X806700Y503998D01*
X806718Y502876D01*
X806755Y501753D01*
X806811Y500631D01*
X806845Y500071D01*
X806875Y499644D01*
X806942Y498789D01*
X807020Y497936D01*
X807109Y497084D01*
X807157Y496658D01*
X807157Y496656D01*
X807197Y496324D01*
X807282Y495658D01*
X807373Y494994D01*
X807471Y494330D01*
X807523Y493998D01*
Y493998D01*
X807523Y493998D01*
X807523Y493997D01*
X807523Y493997D01*
X807523Y493997D01*
X807556Y493789D01*
X807624Y493375D01*
X807695Y492961D01*
X807768Y492548D01*
X807806Y492341D01*
X807809Y492326D01*
X807802Y492297D01*
X807783Y492273D01*
X807756Y492260D01*
X807012D01*
X806991Y492267D01*
X806974Y492280D01*
X806961Y492297D01*
X806958Y492308D01*
X806741Y493020D01*
X806741Y493020D01*
X806741Y493021D01*
X806740Y493021D01*
X806740Y493022D01*
X806740Y493022D01*
X806526Y493757D01*
X806526Y493757D01*
X806526Y493757D01*
X806526Y493758D01*
X806526Y493758D01*
X806526Y493758D01*
X806315Y494520D01*
X806314Y494521D01*
X806103Y495326D01*
X806103Y495327D01*
X805897Y496157D01*
X805896Y496158D01*
X805692Y497034D01*
X805692Y497035D01*
X805692D01*
X805692Y497036D01*
X805692Y497035D01*
Y497035D01*
X805692Y497034D01*
Y497034D01*
X805692Y497035D01*
X805692Y497036D01*
X805487Y497974D01*
X805487Y497975D01*
X805487Y497976D01*
X805487Y497975D01*
X805487Y497974D01*
X805487Y497975D01*
X805487Y497975D01*
X805487Y497975D01*
X805487Y497975D01*
X805487Y497976D01*
X805487Y497976D01*
Y497976D01*
X805487Y497976D01*
X805487Y497976D01*
X805288Y498963D01*
X805288Y498964D01*
X805093Y500017D01*
X805093Y500017D01*
X805093Y500018D01*
X805093Y500018D01*
X805093Y500018D01*
Y500018D01*
X805068Y500158D01*
X805020Y500438D01*
X804973Y500719D01*
X804928Y501000D01*
X804905Y501141D01*
X804881Y501292D01*
X804835Y501595D01*
X804790Y501898D01*
X804746Y502201D01*
X804725Y502353D01*
X804702Y502515D01*
X804659Y502841D01*
X804617Y503167D01*
X804576Y503493D01*
X804557Y503656D01*
X804536Y503832D01*
X804496Y504186D01*
X804457Y504540D01*
X804421Y504894D01*
X804404Y505071D01*
X804404D01*
X804385Y505265D01*
X804349Y505653D01*
X804316Y506040D01*
X804284Y506428D01*
X804270Y506623D01*
X804270D01*
X804254Y506836D01*
X804225Y507263D01*
X804198Y507691D01*
X804175Y508119D01*
X804164Y508333D01*
X804152Y508569D01*
X804132Y509042D01*
X804115Y509515D01*
X804102Y509989D01*
X804097Y510225D01*
X804092Y510418D01*
X804086Y510802D01*
X804082Y511186D01*
X804080Y511570D01*
X804080Y511762D01*
X804080Y512014D01*
X804083Y512518D01*
X804090Y513022D01*
X804101Y513526D01*
X804109Y513777D01*
X804115Y513999D01*
X804131Y514442D01*
X804149Y514885D01*
X804170Y515329D01*
X804182Y515550D01*
X804193Y515747D01*
X804217Y516140D01*
X804243Y516533D01*
X804271Y516926D01*
X804286Y517122D01*
X804286Y517122D01*
X804300Y517304D01*
X804330Y517666D01*
X804362Y518028D01*
X804396Y518390D01*
X804414Y518571D01*
X804430Y518737D01*
X804465Y519069D01*
X804501Y519401D01*
X804539Y519732D01*
X804559Y519898D01*
X804559D01*
X804559Y519898D01*
X804559Y519898D01*
X804559Y519899D01*
X804559Y519899D01*
X804559Y519900D01*
X804559Y519900D01*
X804577Y520055D01*
X804616Y520366D01*
X804656Y520676D01*
X804697Y520987D01*
X804719Y521142D01*
Y521142D01*
X804739Y521287D01*
X804781Y521578D01*
X804823Y521868D01*
X804867Y522158D01*
X804890Y522303D01*
X804890Y522303D01*
X804890Y522303D01*
X804890Y522304D01*
Y522304D01*
X804890Y522304D01*
Y522304D01*
X805069Y523383D01*
X805069Y523384D01*
X805069Y523384D01*
X805069Y523384D01*
X805069Y523385D01*
X805069D01*
X805069Y523384D01*
X805069Y523384D01*
X805069Y523384D01*
D01*
X805069Y523385D01*
D01*
X805069Y523385D01*
X805069Y523385D01*
X805069Y523386D01*
X805069Y523386D01*
X805251Y524385D01*
X805251Y524386D01*
X805251Y524386D01*
X805251Y524386D01*
X805251Y524386D01*
X805251Y524387D01*
X805251Y524387D01*
X805251Y524387D01*
X805251D01*
X805441Y525345D01*
X805441Y525345D01*
X805441Y525345D01*
X805441Y525345D01*
X805441Y525345D01*
X805441Y525346D01*
Y525346D01*
X805629Y526227D01*
X805629Y526228D01*
Y526228D01*
X805821Y527069D01*
X805821Y527069D01*
X805821Y527070D01*
X805822Y527070D01*
X805822Y527071D01*
X805822Y527071D01*
X805822Y527071D01*
X806015Y527868D01*
X806016Y527871D01*
X806219Y528664D01*
X806219Y528664D01*
D01*
X806219Y528664D01*
X806219Y528664D01*
D01*
X806219Y528664D01*
X806219D01*
X806219Y528665D01*
D01*
X806219Y528665D01*
X806219Y528665D01*
X806423Y529418D01*
X806423Y529418D01*
X806423Y529419D01*
X806423Y529419D01*
Y529419D01*
X806424Y529419D01*
X806423Y529419D01*
X806423Y529419D01*
X806423Y529418D01*
D01*
Y529418D01*
Y529418D01*
D01*
X806423Y529418D01*
X806423D01*
X806423Y529418D01*
X806423Y529418D01*
X806423Y529418D01*
X806423D01*
X806423Y529418D01*
X806423Y529419D01*
X806423Y529419D01*
X806424Y529420D01*
X806626Y530133D01*
X806627Y530133D01*
X806627Y530134D01*
X806627Y530134D01*
X806627Y530134D01*
X806627Y530135D01*
X806828Y530810D01*
X806828Y530810D01*
X806828Y530810D01*
X806828Y530811D01*
X806828Y530811D01*
X806828Y530811D01*
X806828Y530811D01*
X806828Y530811D01*
X806828Y530811D01*
X806828Y530810D01*
X806828Y530811D01*
Y530811D01*
X806828Y530811D01*
X806828Y530811D01*
X806828Y530811D01*
Y530811D01*
X807036Y531482D01*
X807036Y531483D01*
Y531483D01*
X807241Y532116D01*
X807241Y532116D01*
X807241Y532116D01*
X807241Y532117D01*
X807242Y532117D01*
X807242Y532118D01*
X807441Y532712D01*
X807441Y532712D01*
X807441Y532713D01*
X807441Y532713D01*
X807442Y532714D01*
X807442Y532714D01*
Y532714D01*
X807648Y533305D01*
X807648Y533306D01*
X807648Y533306D01*
X807648Y533307D01*
X807648Y533307D01*
X807648Y533307D01*
X807847Y533861D01*
X807848Y533862D01*
X807848Y533862D01*
X807848Y533863D01*
X807848Y533862D01*
D01*
X807848Y533863D01*
X807848Y533863D01*
X807848Y533863D01*
X807848Y533863D01*
X808053Y534414D01*
X808053Y534414D01*
X808053Y534414D01*
X808053Y534414D01*
X808053Y534415D01*
X808053Y534415D01*
Y534415D01*
X808263Y534962D01*
X808263Y534962D01*
X808263Y534962D01*
X808263Y534962D01*
X808263Y534962D01*
Y534962D01*
Y534962D01*
X808263Y534962D01*
X808263Y534962D01*
X808263D01*
X808263Y534962D01*
X808264Y534963D01*
X808466Y535474D01*
X808466Y535475D01*
X808466Y535474D01*
X808466Y535475D01*
X808466Y535475D01*
X808466Y535475D01*
X808466Y535475D01*
X808466Y535475D01*
X808466Y535475D01*
Y535475D01*
X808673Y535982D01*
X808673Y535983D01*
X808673Y535983D01*
X808673Y535983D01*
X808673Y535983D01*
X808673Y535983D01*
X808673Y535983D01*
X808673Y535983D01*
X808673Y535983D01*
X808673Y535983D01*
X808673Y535983D01*
X808673Y535983D01*
X808673Y535983D01*
X808673Y535983D01*
X808673Y535983D01*
Y535983D01*
X808673Y535983D01*
X808673Y535983D01*
Y535984D01*
X808885Y536487D01*
X808885Y536488D01*
Y536488D01*
X809087Y536958D01*
X809088Y536958D01*
X809088Y536958D01*
X809088Y536959D01*
X809088Y536959D01*
X809088Y536959D01*
X809088Y536959D01*
X809294Y537423D01*
X809294Y537424D01*
X809294Y537425D01*
X809294Y537423D01*
X809294Y537425D01*
X809504Y537887D01*
X809504Y537887D01*
X809504Y537888D01*
X809504Y537888D01*
X809505Y537888D01*
X809505Y537888D01*
X809704Y538317D01*
Y538317D01*
X809705Y538318D01*
X809705Y538317D01*
X809704Y538317D01*
X809705Y538318D01*
X809908Y538744D01*
X809908Y538744D01*
X809908Y538745D01*
X809908Y538745D01*
X809909Y538745D01*
X809909Y538745D01*
Y538745D01*
X810114Y539167D01*
X810114Y539167D01*
X810115Y539167D01*
X810115Y539167D01*
X810115Y539167D01*
X810115Y539167D01*
X810114Y539167D01*
X810115Y539169D01*
X810324Y539586D01*
X810324Y539587D01*
X810324Y539587D01*
X810324Y539587D01*
X810325Y539588D01*
X810325Y539588D01*
X810325Y539588D01*
X810325Y539588D01*
X810523Y539975D01*
X810523Y539975D01*
X810523Y539975D01*
X810523Y539975D01*
X810523Y539976D01*
X810523Y539976D01*
Y539976D01*
X810724Y540360D01*
X810724Y540361D01*
Y540361D01*
X810928Y540742D01*
X810928Y540742D01*
X810928Y540743D01*
X810929Y540743D01*
X810929Y540743D01*
X810929Y540744D01*
X810929Y540744D01*
X811134Y541120D01*
X811135Y541121D01*
X811135Y541121D01*
X811134Y541120D01*
X811135Y541121D01*
X811344Y541496D01*
X811344Y541497D01*
Y541497D01*
X811556Y541868D01*
X811556Y541868D01*
X811556Y541869D01*
X811556Y541869D01*
X811556Y541869D01*
X811556Y541870D01*
X811556D01*
X811754Y542209D01*
X811755Y542211D01*
X811956Y542550D01*
X811956Y542550D01*
X811956Y542550D01*
X811956Y542551D01*
X811956Y542551D01*
X811956Y542551D01*
X811956D01*
X812158Y542886D01*
X812159Y542886D01*
X812159Y542886D01*
X812159Y542886D01*
X812159Y542887D01*
X812159Y542886D01*
X812159Y542887D01*
X812159Y542887D01*
X812159Y542887D01*
X812160Y542887D01*
X812160Y542887D01*
X812159Y542887D01*
X812159Y542887D01*
X812159Y542887D01*
X812159Y542887D01*
X812159Y542887D01*
X812159Y542887D01*
X812160Y542887D01*
X812160Y542887D01*
X812160Y542887D01*
X812160Y542887D01*
X812160Y542887D01*
Y542887D01*
X812364Y543219D01*
X812365Y543220D01*
Y543220D01*
X812572Y543550D01*
X812572Y543551D01*
Y543551D01*
X812782Y543878D01*
X812782Y543878D01*
Y543878D01*
X812831Y543953D01*
X812835Y543960D01*
X812848Y543972D01*
X812862Y543980D01*
X812879Y543984D01*
X821386D01*
X821420Y543961D01*
D02*
G37*
G36*
X810325Y539588D02*
X810325Y539587D01*
X810324Y539587D01*
X810324Y539587D01*
X810325Y539587D01*
X810325Y539588D01*
X810325Y539588D01*
D02*
G37*
G36*
X810115Y539169D02*
X810115Y539168D01*
X810115Y539168D01*
X810115Y539168D01*
X810115Y539167D01*
X810115Y539168D01*
X810115Y539169D01*
X810115Y539169D01*
X810115Y539169D01*
X810115D01*
X810115Y539169D01*
D02*
G37*
G36*
X808263Y534962D02*
D01*
X808264Y534963D01*
X808263Y534962D01*
D02*
G37*
G36*
X808053Y534414D02*
X808053Y534414D01*
X808053Y534414D01*
X808053Y534414D01*
X808053Y534414D01*
D01*
X808053Y534414D01*
X808053Y534414D01*
X808053Y534414D01*
X808053Y534414D01*
X808053Y534414D01*
X808053Y534414D01*
X808053Y534414D01*
D02*
G37*
G36*
X808053Y534414D02*
X808053Y534414D01*
X808053Y534414D01*
X808053Y534414D01*
D02*
G37*
G36*
X806627Y530133D02*
D01*
X806627Y530133D01*
X806626Y530133D01*
X806626D01*
X806626Y530133D01*
X806627Y530133D01*
X806627Y530133D01*
D01*
X806627Y530134D01*
X806627Y530134D01*
X806627Y530134D01*
X806627Y530133D01*
D02*
G37*
G36*
X806219Y528664D02*
X806219Y528665D01*
X806219D01*
X806219Y528664D01*
D02*
G37*
G36*
X827810Y536985D02*
X828252Y536939D01*
X828680Y536863D01*
X829062Y536756D01*
X829428Y536649D01*
X829779Y536511D01*
X830084Y536374D01*
X830359Y536237D01*
X830619Y536099D01*
X830832Y535962D01*
X831015Y535825D01*
X831183Y535718D01*
X831306Y535611D01*
X831382Y535535D01*
X831443Y535489D01*
X831458Y535474D01*
X831733Y535183D01*
X831962Y534863D01*
X832176Y534542D01*
X832344Y534207D01*
X832496Y533871D01*
X832618Y533550D01*
X832725Y533229D01*
X832802Y532909D01*
X832878Y532619D01*
X832924Y532359D01*
X832954Y532115D01*
X832970Y531917D01*
X832985Y531734D01*
X833000Y531611D01*
Y531535D01*
Y531505D01*
Y528009D01*
X832985Y527734D01*
X832939Y527505D01*
X832878Y527291D01*
X832802Y527123D01*
X832725Y526986D01*
X832664Y526894D01*
X832618Y526833D01*
X832603Y526818D01*
X832435Y526681D01*
X832252Y526574D01*
X832054Y526497D01*
X831870Y526436D01*
X831702Y526406D01*
X831565Y526391D01*
X817200D01*
X817139Y526421D01*
X817094Y526482D01*
X817063Y526543D01*
Y526558D01*
Y526574D01*
Y528909D01*
X817078Y528970D01*
X817094Y529016D01*
X817154Y529077D01*
X817231Y529108D01*
X822818D01*
X822681Y529215D01*
X822574Y529306D01*
X822467Y529413D01*
X822391Y529505D01*
X822375Y529535D01*
X822360Y529551D01*
X822223Y529749D01*
X822101Y529932D01*
X822039Y530009D01*
X822009Y530070D01*
X821994Y530115D01*
X821978Y530131D01*
X821902Y530253D01*
X821841Y530405D01*
X821734Y530680D01*
X821704Y530802D01*
X821673Y530894D01*
X821643Y530955D01*
Y530985D01*
X821566Y531398D01*
X821536Y531596D01*
X821520Y531779D01*
X821505Y531932D01*
Y532054D01*
Y532130D01*
Y532161D01*
X821520Y532542D01*
X821581Y532909D01*
X821658Y533260D01*
X821765Y533596D01*
X821887Y533901D01*
X822024Y534191D01*
X822162Y534451D01*
X822314Y534695D01*
X822467Y534909D01*
X822619Y535092D01*
X822757Y535260D01*
X822879Y535397D01*
X822986Y535504D01*
X823062Y535580D01*
X823123Y535626D01*
X823139Y535641D01*
X823459Y535886D01*
X823780Y536084D01*
X824131Y536267D01*
X824482Y536420D01*
X824833Y536557D01*
X825184Y536664D01*
X825520Y536756D01*
X825841Y536832D01*
X826146Y536893D01*
X826436Y536924D01*
X826695Y536954D01*
X826909Y536985D01*
X827092D01*
X827214Y537000D01*
X827337D01*
X827810Y536985D01*
D02*
G37*
G36*
X827779Y524437D02*
X828252Y524391D01*
X828680Y524314D01*
X829092Y524208D01*
X829474Y524101D01*
X829825Y523963D01*
X830145Y523826D01*
X830435Y523689D01*
X830710Y523551D01*
X830924Y523414D01*
X831122Y523276D01*
X831290Y523170D01*
X831412Y523063D01*
X831504Y522986D01*
X831565Y522941D01*
X831580Y522925D01*
X831855Y522635D01*
X832099Y522315D01*
X832313Y521979D01*
X832496Y521658D01*
X832649Y521307D01*
X832786Y520971D01*
X832878Y520651D01*
X832970Y520330D01*
X833030Y520040D01*
X833076Y519765D01*
X833122Y519521D01*
X833137Y519307D01*
X833153Y519140D01*
X833168Y519002D01*
Y518926D01*
Y518895D01*
X833153Y518483D01*
X833122Y518102D01*
X833061Y517766D01*
X833000Y517460D01*
X832954Y517216D01*
X832924Y517109D01*
X832893Y517018D01*
X832878Y516956D01*
X832863Y516911D01*
X832847Y516880D01*
Y516865D01*
X832710Y516529D01*
X832573Y516239D01*
X832450Y515995D01*
X832313Y515781D01*
X832206Y515613D01*
X832115Y515491D01*
X832054Y515430D01*
X832038Y515400D01*
X831855Y515201D01*
X831672Y515018D01*
X831489Y514865D01*
X831336Y514728D01*
X831199Y514621D01*
X831092Y514529D01*
X831031Y514484D01*
X831000Y514468D01*
X830802Y514331D01*
X830619Y514224D01*
X830466Y514132D01*
X830313Y514071D01*
X830206Y514010D01*
X830130Y513980D01*
X830069Y513949D01*
X830054D01*
X829916Y513904D01*
X829794Y513858D01*
X829687Y513827D01*
X829596Y513812D01*
X829520Y513797D01*
X829428D01*
X829367Y513812D01*
X829306Y513827D01*
X829260Y513904D01*
X829230Y513980D01*
Y513995D01*
Y514010D01*
Y516315D01*
X829245Y516376D01*
X829260Y516422D01*
X829321Y516499D01*
X829397Y516544D01*
X829413Y516560D01*
X829428D01*
X829672Y516666D01*
X829901Y516789D01*
X830084Y516956D01*
X830252Y517124D01*
X830390Y517308D01*
X830497Y517506D01*
X830588Y517705D01*
X830664Y517903D01*
X830725Y518086D01*
X830771Y518269D01*
X830802Y518437D01*
X830832Y518590D01*
Y518712D01*
X830848Y518804D01*
Y518865D01*
Y518880D01*
X830832Y519094D01*
X830817Y519292D01*
X830725Y519674D01*
X830603Y519994D01*
X830466Y520269D01*
X830329Y520483D01*
X830267Y520574D01*
X830222Y520651D01*
X830161Y520712D01*
X830130Y520758D01*
X830115Y520773D01*
X830100Y520788D01*
X829794Y521048D01*
X829489Y521246D01*
X829168Y521399D01*
X828863Y521521D01*
X828588Y521597D01*
X828466Y521628D01*
X828375Y521658D01*
X828283Y521674D01*
X828222D01*
X828191Y521689D01*
X828176D01*
Y515048D01*
X828161Y514789D01*
X828115Y514575D01*
X828054Y514377D01*
X827962Y514209D01*
X827856Y514071D01*
X827749Y513949D01*
X827627Y513858D01*
X827489Y513781D01*
X827367Y513720D01*
X827245Y513675D01*
X827138Y513644D01*
X827031Y513613D01*
X826940D01*
X826879Y513598D01*
X826817D01*
X826405Y513613D01*
X826009Y513659D01*
X825627Y513720D01*
X825276Y513812D01*
X824940Y513919D01*
X824635Y514041D01*
X824344Y514163D01*
X824085Y514300D01*
X823841Y514438D01*
X823642Y514560D01*
X823459Y514682D01*
X823307Y514789D01*
X823184Y514865D01*
X823108Y514941D01*
X823047Y514987D01*
X823032Y515003D01*
X822757Y515277D01*
X822513Y515567D01*
X822314Y515888D01*
X822131Y516208D01*
X821978Y516544D01*
X821856Y516865D01*
X821749Y517186D01*
X821673Y517491D01*
X821612Y517796D01*
X821551Y518071D01*
X821520Y518315D01*
X821505Y518529D01*
X821490Y518697D01*
X821475Y518834D01*
Y518910D01*
Y518941D01*
X821490Y519384D01*
X821551Y519811D01*
X821627Y520208D01*
X821734Y520590D01*
X821856Y520941D01*
X821994Y521277D01*
X822131Y521582D01*
X822284Y521842D01*
X822436Y522086D01*
X822574Y522315D01*
X822711Y522498D01*
X822833Y522650D01*
X822940Y522773D01*
X823016Y522849D01*
X823077Y522910D01*
X823093Y522925D01*
X823398Y523200D01*
X823734Y523429D01*
X824070Y523628D01*
X824421Y523811D01*
X824772Y523948D01*
X825123Y524086D01*
X825459Y524177D01*
X825795Y524253D01*
X826100Y524330D01*
X826390Y524375D01*
X826634Y524406D01*
X826863Y524421D01*
X827047Y524437D01*
X827169Y524452D01*
X827291D01*
X827779Y524437D01*
D02*
G37*
G36*
X831855Y508866D02*
X832069Y508790D01*
X832237Y508698D01*
X832389Y508606D01*
X832512Y508515D01*
X832603Y508438D01*
X832679Y508377D01*
X832710Y508332D01*
X832725Y508316D01*
X832817Y508179D01*
X832878Y508011D01*
X832939Y507858D01*
X832970Y507691D01*
X832985Y507553D01*
X833000Y507446D01*
Y507370D01*
Y507339D01*
Y506088D01*
X832985Y505889D01*
X832954Y505706D01*
X832893Y505538D01*
X832817Y505385D01*
X832740Y505248D01*
X832634Y505126D01*
X832420Y504927D01*
X832222Y504775D01*
X832038Y504683D01*
X831962Y504653D01*
X831901Y504622D01*
X831870Y504607D01*
X831855D01*
X821856Y501325D01*
X821780Y501310D01*
X821734Y501325D01*
X821673Y501386D01*
X821643Y501462D01*
Y501477D01*
Y501493D01*
Y503966D01*
X821658Y504027D01*
X821673Y504073D01*
X821734Y504149D01*
X821811Y504195D01*
X821826Y504210D01*
X821841D01*
X830008Y506683D01*
X821841Y509217D01*
X821780Y509248D01*
X821719Y509278D01*
X821673Y509354D01*
X821643Y509431D01*
Y509446D01*
Y509461D01*
Y512011D01*
X821658Y512087D01*
X821673Y512133D01*
X821704Y512163D01*
X821749Y512178D01*
X821856D01*
X831855Y508866D01*
D02*
G37*
G36*
X805487Y497974D02*
Y497974D01*
X805487Y497974D01*
X805487Y497974D01*
D02*
G37*
G36*
X827779Y499875D02*
X828252Y499829D01*
X828680Y499752D01*
X829092Y499646D01*
X829474Y499539D01*
X829825Y499401D01*
X830145Y499264D01*
X830435Y499127D01*
X830710Y498989D01*
X830924Y498852D01*
X831122Y498714D01*
X831290Y498607D01*
X831412Y498501D01*
X831504Y498424D01*
X831565Y498379D01*
X831580Y498363D01*
X831855Y498073D01*
X832099Y497753D01*
X832313Y497417D01*
X832496Y497096D01*
X832649Y496745D01*
X832786Y496409D01*
X832878Y496089D01*
X832970Y495768D01*
X833030Y495478D01*
X833076Y495203D01*
X833122Y494959D01*
X833137Y494745D01*
X833153Y494577D01*
X833168Y494440D01*
Y494364D01*
Y494333D01*
X833153Y493921D01*
X833122Y493539D01*
X833061Y493204D01*
X833000Y492898D01*
X832954Y492654D01*
X832924Y492547D01*
X832893Y492456D01*
X832878Y492394D01*
X832863Y492349D01*
X832847Y492318D01*
Y492303D01*
X832710Y491967D01*
X832573Y491677D01*
X832450Y491433D01*
X832313Y491219D01*
X832206Y491051D01*
X832115Y490929D01*
X832054Y490868D01*
X832038Y490837D01*
X831855Y490639D01*
X831672Y490456D01*
X831489Y490303D01*
X831336Y490166D01*
X831199Y490059D01*
X831092Y489967D01*
X831031Y489921D01*
X831000Y489906D01*
X830802Y489769D01*
X830619Y489662D01*
X830466Y489570D01*
X830313Y489509D01*
X830206Y489448D01*
X830130Y489418D01*
X830069Y489387D01*
X830054D01*
X829916Y489341D01*
X829794Y489296D01*
X829687Y489265D01*
X829596Y489250D01*
X829520Y489235D01*
X829428D01*
X829367Y489250D01*
X829306Y489265D01*
X829260Y489341D01*
X829230Y489418D01*
Y489433D01*
Y489448D01*
Y491753D01*
X829245Y491814D01*
X829260Y491860D01*
X829321Y491937D01*
X829397Y491982D01*
X829413Y491998D01*
X829428D01*
X829672Y492104D01*
X829901Y492227D01*
X830084Y492394D01*
X830252Y492562D01*
X830390Y492746D01*
X830497Y492944D01*
X830588Y493143D01*
X830664Y493341D01*
X830725Y493524D01*
X830771Y493707D01*
X830802Y493875D01*
X830832Y494028D01*
Y494150D01*
X830848Y494242D01*
Y494303D01*
Y494318D01*
X830832Y494532D01*
X830817Y494730D01*
X830725Y495112D01*
X830603Y495432D01*
X830466Y495707D01*
X830329Y495921D01*
X830267Y496012D01*
X830222Y496089D01*
X830161Y496150D01*
X830130Y496196D01*
X830115Y496211D01*
X830100Y496226D01*
X829794Y496486D01*
X829489Y496684D01*
X829168Y496837D01*
X828863Y496959D01*
X828588Y497035D01*
X828466Y497066D01*
X828375Y497096D01*
X828283Y497112D01*
X828222D01*
X828191Y497127D01*
X828176D01*
Y490486D01*
X828161Y490227D01*
X828115Y490013D01*
X828054Y489815D01*
X827962Y489647D01*
X827856Y489509D01*
X827749Y489387D01*
X827627Y489296D01*
X827489Y489219D01*
X827367Y489158D01*
X827245Y489113D01*
X827138Y489082D01*
X827031Y489051D01*
X826940D01*
X826879Y489036D01*
X826817D01*
X826405Y489051D01*
X826009Y489097D01*
X825627Y489158D01*
X825276Y489250D01*
X824940Y489357D01*
X824635Y489479D01*
X824344Y489601D01*
X824085Y489738D01*
X823841Y489876D01*
X823642Y489998D01*
X823459Y490120D01*
X823307Y490227D01*
X823184Y490303D01*
X823108Y490379D01*
X823047Y490425D01*
X823032Y490440D01*
X822757Y490715D01*
X822513Y491005D01*
X822314Y491326D01*
X822131Y491646D01*
X821978Y491982D01*
X821856Y492303D01*
X821749Y492623D01*
X821673Y492929D01*
X821612Y493234D01*
X821551Y493509D01*
X821520Y493753D01*
X821505Y493967D01*
X821490Y494135D01*
X821475Y494272D01*
Y494348D01*
Y494379D01*
X821490Y494822D01*
X821551Y495249D01*
X821627Y495646D01*
X821734Y496028D01*
X821856Y496379D01*
X821994Y496715D01*
X822131Y497020D01*
X822284Y497279D01*
X822436Y497524D01*
X822574Y497753D01*
X822711Y497936D01*
X822833Y498088D01*
X822940Y498211D01*
X823016Y498287D01*
X823077Y498348D01*
X823093Y498363D01*
X823398Y498638D01*
X823734Y498867D01*
X824070Y499066D01*
X824421Y499249D01*
X824772Y499386D01*
X825123Y499524D01*
X825459Y499615D01*
X825795Y499691D01*
X826100Y499768D01*
X826390Y499813D01*
X826634Y499844D01*
X826863Y499859D01*
X827047Y499875D01*
X827169Y499890D01*
X827291D01*
X827779Y499875D01*
D02*
G37*
G36*
X832863Y487097D02*
X832908Y487082D01*
X832970Y487021D01*
X833000Y486960D01*
Y486930D01*
Y484502D01*
X832985Y484441D01*
X832970Y484380D01*
X832893Y484334D01*
X832832Y484304D01*
X817261D01*
X817200Y484319D01*
X817139Y484334D01*
X817094Y484395D01*
X817063Y484472D01*
Y484487D01*
Y484502D01*
Y486930D01*
X817078Y486991D01*
X817094Y487036D01*
X817154Y487082D01*
X817231Y487113D01*
X832802D01*
X832863Y487097D01*
D02*
G37*
G36*
X827779Y482335D02*
X828252Y482289D01*
X828680Y482212D01*
X829092Y482106D01*
X829474Y481999D01*
X829825Y481861D01*
X830145Y481724D01*
X830435Y481587D01*
X830710Y481449D01*
X830924Y481312D01*
X831122Y481175D01*
X831290Y481068D01*
X831412Y480961D01*
X831504Y480884D01*
X831565Y480839D01*
X831580Y480823D01*
X831855Y480533D01*
X832099Y480213D01*
X832313Y479877D01*
X832496Y479556D01*
X832649Y479205D01*
X832786Y478869D01*
X832878Y478549D01*
X832970Y478228D01*
X833030Y477938D01*
X833076Y477663D01*
X833122Y477419D01*
X833137Y477205D01*
X833153Y477038D01*
X833168Y476900D01*
Y476824D01*
Y476793D01*
X833153Y476381D01*
X833122Y475999D01*
X833061Y475664D01*
X833000Y475358D01*
X832954Y475114D01*
X832924Y475007D01*
X832893Y474916D01*
X832878Y474855D01*
X832863Y474809D01*
X832847Y474778D01*
Y474763D01*
X832710Y474427D01*
X832573Y474137D01*
X832450Y473893D01*
X832313Y473679D01*
X832206Y473511D01*
X832115Y473389D01*
X832054Y473328D01*
X832038Y473298D01*
X831855Y473099D01*
X831672Y472916D01*
X831489Y472763D01*
X831336Y472626D01*
X831199Y472519D01*
X831092Y472427D01*
X831031Y472382D01*
X831000Y472366D01*
X830802Y472229D01*
X830619Y472122D01*
X830466Y472030D01*
X830313Y471969D01*
X830206Y471908D01*
X830130Y471878D01*
X830069Y471847D01*
X830054D01*
X829916Y471801D01*
X829794Y471756D01*
X829687Y471725D01*
X829596Y471710D01*
X829520Y471695D01*
X829428D01*
X829367Y471710D01*
X829306Y471725D01*
X829260Y471801D01*
X829230Y471878D01*
Y471893D01*
Y471908D01*
Y474213D01*
X829245Y474274D01*
X829260Y474320D01*
X829321Y474397D01*
X829397Y474442D01*
X829413Y474458D01*
X829428D01*
X829672Y474565D01*
X829901Y474687D01*
X830084Y474855D01*
X830252Y475023D01*
X830390Y475206D01*
X830497Y475404D01*
X830588Y475603D01*
X830664Y475801D01*
X830725Y475984D01*
X830771Y476167D01*
X830802Y476335D01*
X830832Y476488D01*
Y476610D01*
X830848Y476702D01*
Y476763D01*
Y476778D01*
X830832Y476992D01*
X830817Y477190D01*
X830725Y477572D01*
X830603Y477892D01*
X830466Y478167D01*
X830329Y478381D01*
X830267Y478473D01*
X830222Y478549D01*
X830161Y478610D01*
X830130Y478656D01*
X830115Y478671D01*
X830100Y478686D01*
X829794Y478946D01*
X829489Y479144D01*
X829168Y479297D01*
X828863Y479419D01*
X828588Y479495D01*
X828466Y479526D01*
X828375Y479556D01*
X828283Y479572D01*
X828222D01*
X828191Y479587D01*
X828176D01*
Y472946D01*
X828161Y472687D01*
X828115Y472473D01*
X828054Y472275D01*
X827962Y472107D01*
X827856Y471969D01*
X827749Y471847D01*
X827627Y471756D01*
X827489Y471679D01*
X827367Y471618D01*
X827245Y471572D01*
X827138Y471542D01*
X827031Y471511D01*
X826940D01*
X826879Y471496D01*
X826817D01*
X826405Y471511D01*
X826009Y471557D01*
X825627Y471618D01*
X825276Y471710D01*
X824940Y471817D01*
X824635Y471939D01*
X824344Y472061D01*
X824085Y472198D01*
X823841Y472336D01*
X823642Y472458D01*
X823459Y472580D01*
X823307Y472687D01*
X823184Y472763D01*
X823108Y472840D01*
X823047Y472885D01*
X823032Y472901D01*
X822757Y473175D01*
X822513Y473465D01*
X822314Y473786D01*
X822131Y474107D01*
X821978Y474442D01*
X821856Y474763D01*
X821749Y475084D01*
X821673Y475389D01*
X821612Y475694D01*
X821551Y475969D01*
X821520Y476213D01*
X821505Y476427D01*
X821490Y476595D01*
X821475Y476732D01*
Y476809D01*
Y476839D01*
X821490Y477282D01*
X821551Y477709D01*
X821627Y478106D01*
X821734Y478488D01*
X821856Y478839D01*
X821994Y479175D01*
X822131Y479480D01*
X822284Y479739D01*
X822436Y479984D01*
X822574Y480213D01*
X822711Y480396D01*
X822833Y480549D01*
X822940Y480671D01*
X823016Y480747D01*
X823077Y480808D01*
X823093Y480823D01*
X823398Y481098D01*
X823734Y481327D01*
X824070Y481526D01*
X824421Y481709D01*
X824772Y481846D01*
X825123Y481983D01*
X825459Y482075D01*
X825795Y482151D01*
X826100Y482228D01*
X826390Y482274D01*
X826634Y482304D01*
X826863Y482319D01*
X827047Y482335D01*
X827169Y482350D01*
X827291D01*
X827779Y482335D01*
D02*
G37*
G36*
X832863Y469557D02*
X832908Y469542D01*
X832970Y469481D01*
X833000Y469420D01*
Y469390D01*
Y466993D01*
X832985Y466932D01*
X832970Y466901D01*
X832893Y466840D01*
X832832Y466825D01*
X826527D01*
X826131Y466794D01*
X825779Y466733D01*
X825474Y466627D01*
X825230Y466504D01*
X825032Y466398D01*
X824894Y466291D01*
X824802Y466230D01*
X824772Y466199D01*
X824558Y465940D01*
X824406Y465665D01*
X824284Y465375D01*
X824207Y465115D01*
X824161Y464871D01*
X824146Y464764D01*
Y464673D01*
X824131Y464612D01*
Y464550D01*
Y464520D01*
Y464505D01*
Y463558D01*
X824116Y463497D01*
X824100Y463451D01*
X824024Y463390D01*
X823963Y463375D01*
X821780D01*
X821719Y463405D01*
X821673Y463467D01*
X821643Y463528D01*
Y463543D01*
Y463558D01*
Y464703D01*
X821658Y465100D01*
X821704Y465482D01*
X821765Y465833D01*
X821841Y466169D01*
X821948Y466474D01*
X822055Y466764D01*
X822177Y467039D01*
X822284Y467283D01*
X822406Y467497D01*
X822528Y467680D01*
X822635Y467848D01*
X822742Y467985D01*
X822818Y468092D01*
X822879Y468168D01*
X822925Y468214D01*
X822940Y468229D01*
X823184Y468458D01*
X823459Y468672D01*
X823734Y468855D01*
X824024Y469008D01*
X824329Y469130D01*
X824619Y469237D01*
X824909Y469328D01*
X825184Y469405D01*
X825444Y469466D01*
X825688Y469496D01*
X825902Y469527D01*
X826100Y469557D01*
X826253D01*
X826360Y469573D01*
X832802D01*
X832863Y469557D01*
D02*
G37*
G36*
X830000Y397093D02*
X825264Y396416D01*
Y396833D01*
X825628Y396937D01*
X825958Y397076D01*
X826270Y397214D01*
X826565Y397353D01*
X826825Y397509D01*
X827068Y397648D01*
X827276Y397804D01*
X827485Y397943D01*
X827658Y398099D01*
X827797Y398221D01*
X827936Y398342D01*
X828022Y398446D01*
X828109Y398533D01*
X828161Y398602D01*
X828196Y398637D01*
X828213Y398654D01*
X828387Y398897D01*
X828525Y399157D01*
X828647Y399435D01*
X828768Y399695D01*
X828942Y400268D01*
X829046Y400788D01*
X829081Y401048D01*
X829115Y401274D01*
X829133Y401482D01*
X829150Y401656D01*
X829167Y401794D01*
Y401916D01*
Y401985D01*
Y402002D01*
Y402887D01*
Y403113D01*
X829133Y403304D01*
X829115Y403460D01*
X829081Y403599D01*
X829046Y403703D01*
X829028Y403772D01*
X828994Y403807D01*
Y403824D01*
X828855Y403997D01*
X828716Y404119D01*
X828595Y404188D01*
X828577Y404206D01*
X828560D01*
X828491Y404223D01*
X828421Y404240D01*
X828213Y404258D01*
X827953Y404292D01*
X827693D01*
X827450Y404310D01*
X822835D01*
X822852Y403928D01*
X822887Y403616D01*
X822922Y403321D01*
X822974Y403095D01*
X823043Y402922D01*
X823078Y402783D01*
X823113Y402714D01*
X823130Y402679D01*
X823251Y402471D01*
X823425Y402280D01*
X823598Y402107D01*
X823772Y401968D01*
X823945Y401846D01*
X824084Y401760D01*
X824188Y401708D01*
X824206Y401690D01*
X824223D01*
X824553Y401534D01*
X824900Y401413D01*
X825247Y401326D01*
X825576Y401239D01*
X825854Y401187D01*
X825993Y401170D01*
X826097Y401152D01*
X826183Y401135D01*
X826253Y401118D01*
X826305D01*
Y400719D01*
X818481D01*
Y401118D01*
X818793Y401152D01*
X819088Y401204D01*
X819383Y401256D01*
X819626Y401326D01*
X819869Y401395D01*
X820077Y401465D01*
X820285Y401534D01*
X820459Y401604D01*
X820615Y401673D01*
X820753Y401742D01*
X820857Y401794D01*
X820944Y401846D01*
X821031Y401881D01*
X821083Y401916D01*
X821100Y401950D01*
X821118D01*
X821274Y402072D01*
X821413Y402228D01*
X821534Y402384D01*
X821621Y402540D01*
X821794Y402887D01*
X821898Y403217D01*
X821950Y403529D01*
X821968Y403668D01*
X821985Y403789D01*
X822002Y403876D01*
Y403946D01*
Y403997D01*
Y404015D01*
Y404310D01*
X815931D01*
Y402748D01*
Y402436D01*
Y402159D01*
X815948Y401898D01*
X815965Y401673D01*
X815983Y401465D01*
X816000Y401274D01*
X816017Y401100D01*
X816035Y400962D01*
X816052Y400823D01*
X816069Y400719D01*
X816087Y400632D01*
X816104Y400563D01*
X816121Y400476D01*
X816139Y400441D01*
X816278Y400060D01*
X816434Y399747D01*
X816607Y399452D01*
X816781Y399227D01*
X816937Y399053D01*
X817058Y398914D01*
X817145Y398845D01*
X817180Y398810D01*
X817318Y398706D01*
X817475Y398602D01*
X817839Y398411D01*
X818221Y398255D01*
X818585Y398134D01*
X818932Y398030D01*
X819088Y397978D01*
X819227Y397943D01*
X819331Y397926D01*
X819418Y397908D01*
X819470Y397891D01*
X819487D01*
Y397492D01*
X815063D01*
Y410000D01*
X815462D01*
Y409514D01*
X815480Y409254D01*
X815514Y409029D01*
X815566Y408838D01*
X815618Y408664D01*
X815670Y408543D01*
X815722Y408439D01*
X815757Y408387D01*
X815775Y408369D01*
X815861Y408265D01*
X815948Y408178D01*
X816156Y408057D01*
X816243Y408022D01*
X816312Y407988D01*
X816364Y407970D01*
X816382D01*
X816434Y407953D01*
X816503D01*
X816677Y407936D01*
X816867Y407918D01*
X817076Y407901D01*
X827831D01*
X828005Y407918D01*
X828144D01*
X828387Y407936D01*
X828577Y407953D01*
X828699Y407988D01*
X828786Y408005D01*
X828838Y408022D01*
X828855D01*
X828976Y408092D01*
X829098Y408161D01*
X829185Y408231D01*
X829254Y408300D01*
X829306Y408369D01*
X829341Y408421D01*
X829376Y408456D01*
Y408473D01*
X829445Y408629D01*
X829497Y408803D01*
X829549Y408976D01*
X829566Y409150D01*
X829584Y409289D01*
X829601Y409410D01*
Y409479D01*
Y409514D01*
Y410000D01*
X830000D01*
Y397093D01*
D02*
G37*
G36*
X815514Y394924D02*
X815584Y394664D01*
X815653Y394456D01*
X815740Y394300D01*
X815826Y394178D01*
X815879Y394109D01*
X815931Y394057D01*
X815948Y394040D01*
X816035Y393970D01*
X816156Y393901D01*
X816312Y393814D01*
X816486Y393710D01*
X816694Y393623D01*
X816902Y393519D01*
X817336Y393311D01*
X817769Y393120D01*
X817960Y393033D01*
X818117Y392964D01*
X818255Y392895D01*
X818377Y392843D01*
X818446Y392825D01*
X818463Y392808D01*
X830330Y387690D01*
Y387326D01*
X818932Y382191D01*
X818568Y382035D01*
X818238Y381879D01*
X817926Y381722D01*
X817665Y381601D01*
X817422Y381480D01*
X817214Y381358D01*
X817023Y381254D01*
X816867Y381167D01*
X816729Y381081D01*
X816625Y381011D01*
X816538Y380959D01*
X816468Y380907D01*
X816416Y380872D01*
X816382Y380838D01*
X816347Y380820D01*
X816087Y380577D01*
X815896Y380317D01*
X815740Y380074D01*
X815618Y379849D01*
X815549Y379658D01*
X815497Y379502D01*
X815462Y379398D01*
Y379380D01*
Y379363D01*
X815063D01*
Y384255D01*
X815462D01*
Y383978D01*
X815497Y383735D01*
X815514Y383509D01*
X815549Y383336D01*
X815584Y383197D01*
X815618Y383093D01*
X815636Y383023D01*
X815653Y383006D01*
X815775Y382781D01*
X815896Y382607D01*
X816000Y382520D01*
X816035Y382486D01*
X816052D01*
X816243Y382382D01*
X816434Y382330D01*
X816503Y382312D01*
X816625D01*
X816867Y382330D01*
X817093Y382364D01*
X817180Y382399D01*
X817266Y382416D01*
X817318Y382434D01*
X817336D01*
X817422Y382468D01*
X817527Y382503D01*
X817752Y382590D01*
X818012Y382694D01*
X818290Y382815D01*
X818533Y382920D01*
X818741Y383006D01*
X818810Y383041D01*
X818880Y383076D01*
X818914Y383093D01*
X818932D01*
X825559Y386042D01*
X818117Y389217D01*
X817908Y389304D01*
X817718Y389390D01*
X817544Y389460D01*
X817388Y389529D01*
X817266Y389581D01*
X817145Y389616D01*
X816954Y389703D01*
X816815Y389755D01*
X816729Y389789D01*
X816694Y389807D01*
X816677D01*
X816486Y389859D01*
X816330Y389876D01*
X816243Y389893D01*
X816208D01*
X816087Y389876D01*
X816000Y389859D01*
X815844Y389772D01*
X815757Y389685D01*
X815722Y389668D01*
Y389651D01*
X815636Y389494D01*
X815566Y389286D01*
X815532Y389061D01*
X815497Y388853D01*
X815480Y388644D01*
X815462Y388471D01*
Y388401D01*
Y388349D01*
Y388332D01*
Y388315D01*
Y388089D01*
X815063D01*
Y395219D01*
X815462D01*
X815514Y394924D01*
D02*
G37*
G36*
X830000Y373985D02*
X829601D01*
X829584Y374193D01*
X829566Y374384D01*
X829549Y374558D01*
X829532Y374714D01*
X829480Y374974D01*
X829445Y375165D01*
X829393Y375304D01*
X829376Y375390D01*
X829341Y375442D01*
Y375460D01*
X829219Y375633D01*
X829081Y375755D01*
X828924Y375841D01*
X828768Y375893D01*
X828630Y375928D01*
X828525Y375963D01*
X828421D01*
X828231Y375946D01*
X828022Y375911D01*
X827831Y375859D01*
X827623Y375807D01*
X827467Y375755D01*
X827328Y375703D01*
X827242Y375668D01*
X827207Y375651D01*
X825750Y375009D01*
Y369770D01*
X827623Y368954D01*
X827866Y368850D01*
X828057Y368781D01*
X828213Y368711D01*
X828317Y368677D01*
X828387Y368642D01*
X828421D01*
X828456Y368624D01*
X828612Y368590D01*
X828734Y368555D01*
X828855D01*
X828976Y368573D01*
X829081Y368590D01*
X829237Y368677D01*
X829323Y368763D01*
X829358Y368781D01*
Y368798D01*
X829445Y368954D01*
X829497Y369145D01*
X829566Y369544D01*
X829584Y369735D01*
X829601Y369891D01*
Y369995D01*
Y370012D01*
Y370030D01*
Y370325D01*
X830000D01*
Y363108D01*
X829601D01*
X829566Y363351D01*
X829514Y363559D01*
X829462Y363732D01*
X829393Y363889D01*
X829323Y364010D01*
X829271Y364097D01*
X829237Y364149D01*
X829219Y364166D01*
X829115Y364253D01*
X828994Y364357D01*
X828838Y364461D01*
X828681Y364565D01*
X828317Y364773D01*
X827936Y364981D01*
X827589Y365155D01*
X827432Y365242D01*
X827294Y365294D01*
X827172Y365363D01*
X827085Y365398D01*
X827033Y365415D01*
X827016Y365433D01*
X814751Y370810D01*
Y371019D01*
X826686Y376362D01*
X826999Y376501D01*
X827276Y376639D01*
X827519Y376761D01*
X827762Y376882D01*
X827970Y377004D01*
X828144Y377108D01*
X828317Y377195D01*
X828456Y377281D01*
X828577Y377368D01*
X828681Y377437D01*
X828768Y377507D01*
X828820Y377559D01*
X828907Y377628D01*
X828942Y377646D01*
X829133Y377854D01*
X829271Y378062D01*
X829393Y378288D01*
X829480Y378496D01*
X829532Y378686D01*
X829566Y378825D01*
X829601Y378929D01*
Y378947D01*
Y378964D01*
X830000D01*
Y373985D01*
D02*
G37*
G36*
X823373Y361997D02*
X824015Y361945D01*
X824605Y361859D01*
X824882Y361824D01*
X825125Y361772D01*
X825368Y361737D01*
X825576Y361703D01*
X825750Y361651D01*
X825906Y361616D01*
X826027Y361581D01*
X826131Y361564D01*
X826183Y361547D01*
X826201D01*
X826652Y361408D01*
X827033Y361252D01*
X827380Y361113D01*
X827658Y360991D01*
X827901Y360870D01*
X828057Y360783D01*
X828161Y360714D01*
X828178Y360696D01*
X828196D01*
X828560Y360436D01*
X828872Y360176D01*
X829150Y359916D01*
X829376Y359690D01*
X829549Y359482D01*
X829670Y359309D01*
X829740Y359204D01*
X829774Y359187D01*
Y359170D01*
X829948Y358823D01*
X830087Y358493D01*
X830173Y358164D01*
X830243Y357851D01*
X830278Y357591D01*
X830295Y357487D01*
Y357383D01*
X830312Y357313D01*
Y357262D01*
Y357227D01*
Y357209D01*
X830295Y356862D01*
X830243Y356550D01*
X830173Y356255D01*
X830087Y355995D01*
X830017Y355770D01*
X829948Y355613D01*
X829896Y355509D01*
X829879Y355475D01*
X829688Y355180D01*
X829497Y354902D01*
X829289Y354659D01*
X829098Y354451D01*
X828924Y354278D01*
X828786Y354139D01*
X828699Y354069D01*
X828664Y354035D01*
X828369Y353809D01*
X828040Y353601D01*
X827710Y353428D01*
X827398Y353289D01*
X827138Y353185D01*
X827016Y353133D01*
X826912Y353098D01*
X826843Y353063D01*
X826773Y353046D01*
X826739Y353028D01*
X826721D01*
X825975Y352820D01*
X825247Y352664D01*
X824535Y352543D01*
X824206Y352508D01*
X823893Y352473D01*
X823616Y352439D01*
X823356Y352421D01*
X823113Y352404D01*
X822922D01*
X822766Y352387D01*
X822089D01*
X821638Y352421D01*
X821222Y352456D01*
X820805Y352508D01*
X820406Y352560D01*
X820042Y352630D01*
X819695Y352682D01*
X819365Y352751D01*
X819071Y352820D01*
X818810Y352890D01*
X818585Y352959D01*
X818394Y353011D01*
X818238Y353063D01*
X818117Y353098D01*
X818047Y353115D01*
X818030Y353133D01*
X817492Y353358D01*
X817023Y353601D01*
X816625Y353879D01*
X816451Y354017D01*
X816278Y354156D01*
X816139Y354278D01*
X816017Y354399D01*
X815896Y354503D01*
X815809Y354590D01*
X815740Y354677D01*
X815688Y354729D01*
X815670Y354763D01*
X815653Y354781D01*
X815497Y354989D01*
X815358Y355214D01*
X815237Y355423D01*
X815133Y355631D01*
X814976Y356047D01*
X814855Y356411D01*
X814820Y356585D01*
X814803Y356741D01*
X814786Y356880D01*
X814768Y356984D01*
X814751Y357088D01*
Y357157D01*
Y357192D01*
Y357209D01*
X814768Y357452D01*
X814786Y357678D01*
X814890Y358129D01*
X815029Y358545D01*
X815202Y358909D01*
X815289Y359066D01*
X815376Y359204D01*
X815445Y359326D01*
X815514Y359430D01*
X815566Y359517D01*
X815618Y359586D01*
X815636Y359621D01*
X815653Y359638D01*
X815826Y359846D01*
X816017Y360037D01*
X816434Y360384D01*
X816867Y360679D01*
X817284Y360922D01*
X817475Y361009D01*
X817665Y361095D01*
X817822Y361182D01*
X817960Y361234D01*
X818082Y361286D01*
X818168Y361304D01*
X818221Y361338D01*
X818238D01*
X819019Y361564D01*
X819799Y361737D01*
X820545Y361841D01*
X820910Y361893D01*
X821239Y361928D01*
X821551Y361963D01*
X821829Y361980D01*
X822089Y361997D01*
X822297D01*
X822471Y362015D01*
X822714D01*
X823373Y361997D01*
D02*
G37*
G36*
X817648Y349888D02*
X817527Y349594D01*
X817440Y349333D01*
X817388Y349108D01*
X817336Y348900D01*
X817318Y348744D01*
X817301Y348622D01*
Y348535D01*
Y348518D01*
Y348396D01*
X817336Y348275D01*
X817388Y348084D01*
X817422Y348015D01*
X817457Y347963D01*
X817475Y347928D01*
X817492Y347911D01*
X817631Y347737D01*
X817769Y347616D01*
X817874Y347547D01*
X817908Y347529D01*
X817926D01*
X817978Y347512D01*
X818047Y347494D01*
X818238Y347460D01*
X818446Y347442D01*
X818672D01*
X818880Y347425D01*
X827450D01*
X827675Y347442D01*
X827866D01*
X828022Y347460D01*
X828178Y347477D01*
X828317Y347494D01*
X828421D01*
X828595Y347529D01*
X828716Y347564D01*
X828786Y347581D01*
X828803D01*
X828942Y347651D01*
X829063Y347720D01*
X829167Y347824D01*
X829254Y347911D01*
X829323Y347998D01*
X829376Y348067D01*
X829393Y348119D01*
X829410Y348136D01*
X829480Y348310D01*
X829532Y348518D01*
X829566Y348744D01*
X829584Y348969D01*
X829601Y349177D01*
X829618Y349351D01*
Y349420D01*
Y349472D01*
Y349490D01*
Y349507D01*
Y349888D01*
X830000D01*
Y342012D01*
X829618D01*
Y342359D01*
X829601Y342654D01*
X829584Y342915D01*
X829549Y343123D01*
X829497Y343296D01*
X829445Y343435D01*
X829410Y343539D01*
X829393Y343591D01*
X829376Y343608D01*
X829271Y343747D01*
X829167Y343851D01*
X829063Y343938D01*
X828976Y344007D01*
X828890Y344059D01*
X828820Y344094D01*
X828768Y344112D01*
X828751D01*
X828664Y344129D01*
X828560Y344146D01*
X828317Y344164D01*
X828022Y344198D01*
X827710D01*
X827432Y344216D01*
X814751D01*
Y344580D01*
X817266Y350079D01*
X817648Y349888D01*
D02*
G37*
G36*
X825958Y333304D02*
X823685D01*
Y339722D01*
X825958D01*
Y333304D01*
D02*
G37*
G36*
X830000Y324682D02*
X829601D01*
Y325028D01*
X829566Y325341D01*
X829549Y325584D01*
X829514Y325774D01*
X829480Y325913D01*
X829462Y326017D01*
X829427Y326069D01*
Y326087D01*
X829358Y326208D01*
X829271Y326330D01*
X829185Y326416D01*
X829098Y326486D01*
X829028Y326538D01*
X828976Y326572D01*
X828942Y326607D01*
X828924D01*
X828855Y326624D01*
X828768Y326659D01*
X828560Y326694D01*
X828300Y326711D01*
X828040Y326729D01*
X827797Y326746D01*
X823199D01*
Y325774D01*
X830000Y320969D01*
Y316250D01*
X829601D01*
X829584Y316476D01*
X829532Y316667D01*
X829480Y316857D01*
X829410Y317014D01*
X829341Y317135D01*
X829289Y317222D01*
X829254Y317291D01*
X829237Y317309D01*
X829115Y317430D01*
X828942Y317586D01*
X828751Y317760D01*
X828543Y317916D01*
X828335Y318072D01*
X828178Y318193D01*
X828109Y318245D01*
X828057Y318280D01*
X828040Y318315D01*
X828022D01*
X822957Y321906D01*
X822818Y321420D01*
X822644Y320986D01*
X822471Y320622D01*
X822297Y320327D01*
X822159Y320084D01*
X822037Y319911D01*
X821985Y319859D01*
X821950Y319807D01*
X821916Y319772D01*
X821708Y319564D01*
X821482Y319373D01*
X821256Y319217D01*
X821031Y319078D01*
X820805Y318957D01*
X820580Y318870D01*
X820354Y318783D01*
X820146Y318731D01*
X819955Y318679D01*
X819765Y318644D01*
X819608Y318610D01*
X819470Y318592D01*
X819348Y318575D01*
X818949D01*
X818706Y318610D01*
X818255Y318696D01*
X817856Y318835D01*
X817509Y318974D01*
X817353Y319043D01*
X817214Y319113D01*
X817110Y319182D01*
X817006Y319252D01*
X816937Y319304D01*
X816885Y319338D01*
X816850Y319356D01*
X816833Y319373D01*
X816486Y319685D01*
X816191Y320032D01*
X815948Y320379D01*
X815757Y320709D01*
X815618Y320986D01*
X815566Y321125D01*
X815514Y321229D01*
X815480Y321316D01*
X815462Y321385D01*
X815445Y321420D01*
Y321437D01*
X815376Y321680D01*
X815323Y321958D01*
X815271Y322270D01*
X815219Y322582D01*
X815150Y323242D01*
X815115Y323884D01*
X815098Y324178D01*
X815080Y324473D01*
Y324734D01*
X815063Y324942D01*
Y325133D01*
Y325271D01*
Y325358D01*
Y325393D01*
Y332315D01*
X815462D01*
Y331968D01*
X815497Y331673D01*
X815514Y331430D01*
X815549Y331256D01*
X815584Y331118D01*
X815618Y331014D01*
X815636Y330962D01*
X815653Y330944D01*
X815722Y330806D01*
X815809Y330701D01*
X815896Y330597D01*
X815983Y330528D01*
X816052Y330476D01*
X816104Y330441D01*
X816139Y330406D01*
X816156D01*
X816226Y330372D01*
X816312Y330354D01*
X816520Y330320D01*
X816763Y330285D01*
X817023Y330268D01*
X817266Y330250D01*
X827814D01*
X827988Y330268D01*
X828144D01*
X828282Y330285D01*
X828421Y330302D01*
X828612Y330320D01*
X828768Y330354D01*
X828855Y330389D01*
X828907Y330406D01*
X828924D01*
X829028Y330476D01*
X829133Y330545D01*
X829271Y330719D01*
X829341Y330806D01*
X829376Y330875D01*
X829393Y330910D01*
X829410Y330927D01*
X829480Y331083D01*
X829514Y331291D01*
X829549Y331534D01*
X829584Y331760D01*
Y331968D01*
X829601Y332141D01*
Y332211D01*
Y332263D01*
Y332297D01*
Y332315D01*
X830000D01*
Y324682D01*
D02*
G37*
G36*
X828803Y316077D02*
X829028Y316007D01*
X829219Y315921D01*
X829376Y315799D01*
X829514Y315678D01*
X829601Y315591D01*
X829670Y315522D01*
X829688Y315487D01*
X829792Y315313D01*
X829896Y315123D01*
X830052Y314689D01*
X830156Y314238D01*
X830226Y313787D01*
X830260Y313561D01*
X830278Y313370D01*
X830295Y313197D01*
Y313041D01*
X830312Y312902D01*
Y312815D01*
Y312746D01*
Y312729D01*
X830295Y312208D01*
X830243Y311722D01*
X830156Y311254D01*
X830052Y310820D01*
X829931Y310421D01*
X829792Y310040D01*
X829653Y309710D01*
X829497Y309398D01*
X829341Y309120D01*
X829202Y308877D01*
X829063Y308669D01*
X828942Y308513D01*
X828838Y308374D01*
X828751Y308270D01*
X828699Y308218D01*
X828681Y308201D01*
X828369Y307906D01*
X828040Y307646D01*
X827710Y307420D01*
X827380Y307212D01*
X827033Y307056D01*
X826704Y306917D01*
X826392Y306796D01*
X826079Y306709D01*
X825802Y306639D01*
X825542Y306587D01*
X825299Y306553D01*
X825108Y306518D01*
X824934D01*
X824813Y306501D01*
X824709D01*
X824206Y306535D01*
X823755Y306605D01*
X823373Y306726D01*
X823026Y306848D01*
X822887Y306917D01*
X822766Y306969D01*
X822662Y307038D01*
X822558Y307090D01*
X822488Y307125D01*
X822436Y307160D01*
X822419Y307195D01*
X822402D01*
X822072Y307472D01*
X821777Y307784D01*
X821517Y308114D01*
X821291Y308426D01*
X821100Y308704D01*
X821031Y308843D01*
X820962Y308947D01*
X820927Y309034D01*
X820892Y309103D01*
X820857Y309138D01*
Y309155D01*
X820632Y308808D01*
X820406Y308496D01*
X820181Y308253D01*
X819973Y308045D01*
X819799Y307889D01*
X819643Y307767D01*
X819556Y307698D01*
X819522Y307680D01*
X819227Y307524D01*
X818949Y307403D01*
X818672Y307333D01*
X818429Y307264D01*
X818221Y307229D01*
X818064Y307212D01*
X817926D01*
X817700Y307229D01*
X817475Y307247D01*
X817249Y307299D01*
X817041Y307368D01*
X816659Y307524D01*
X816347Y307715D01*
X816069Y307906D01*
X815965Y307993D01*
X815879Y308062D01*
X815809Y308131D01*
X815740Y308166D01*
X815722Y308201D01*
X815705Y308218D01*
X815532Y308409D01*
X815393Y308617D01*
X815254Y308825D01*
X815150Y309051D01*
X814976Y309467D01*
X814872Y309883D01*
X814838Y310074D01*
X814803Y310231D01*
X814786Y310387D01*
X814768Y310525D01*
X814751Y310630D01*
Y310716D01*
Y310768D01*
Y310786D01*
X814768Y311063D01*
X814786Y311341D01*
X814890Y311861D01*
X815046Y312330D01*
X815133Y312538D01*
X815219Y312729D01*
X815306Y312902D01*
X815393Y313076D01*
X815462Y313214D01*
X815549Y313319D01*
X815601Y313423D01*
X815653Y313492D01*
X815670Y313527D01*
X815688Y313544D01*
X815861Y313769D01*
X816069Y313978D01*
X816503Y314377D01*
X816972Y314724D01*
X817405Y315019D01*
X817613Y315140D01*
X817822Y315244D01*
X817995Y315331D01*
X818151Y315418D01*
X818273Y315470D01*
X818359Y315522D01*
X818429Y315539D01*
X818446Y315556D01*
X818602Y315157D01*
X818307Y314949D01*
X818064Y314741D01*
X817839Y314515D01*
X817648Y314290D01*
X817492Y314064D01*
X817353Y313856D01*
X817249Y313648D01*
X817162Y313440D01*
X817093Y313249D01*
X817041Y313076D01*
X817006Y312937D01*
X816972Y312798D01*
Y312694D01*
X816954Y312607D01*
Y312555D01*
Y312538D01*
X816989Y312191D01*
X817058Y311861D01*
X817162Y311584D01*
X817284Y311341D01*
X817405Y311150D01*
X817509Y311011D01*
X817579Y310924D01*
X817613Y310890D01*
X817874Y310664D01*
X818134Y310491D01*
X818394Y310369D01*
X818654Y310300D01*
X818862Y310248D01*
X819036Y310231D01*
X819105Y310213D01*
X819192D01*
X819435Y310231D01*
X819678Y310265D01*
X819886Y310335D01*
X820094Y310387D01*
X820250Y310456D01*
X820389Y310525D01*
X820459Y310560D01*
X820493Y310578D01*
X820719Y310716D01*
X820910Y310855D01*
X821083Y310994D01*
X821222Y311115D01*
X821326Y311237D01*
X821395Y311323D01*
X821447Y311393D01*
X821465Y311410D01*
X821517Y311514D01*
X821586Y311618D01*
X821690Y311879D01*
X821812Y312174D01*
X821916Y312451D01*
X822002Y312729D01*
X822037Y312833D01*
X822072Y312937D01*
X822089Y313024D01*
X822107Y313093D01*
X822124Y313128D01*
Y313145D01*
X822506D01*
X822610Y312781D01*
X822714Y312434D01*
X822852Y312104D01*
X822991Y311809D01*
X823130Y311532D01*
X823286Y311271D01*
X823425Y311046D01*
X823564Y310838D01*
X823720Y310664D01*
X823841Y310491D01*
X823963Y310369D01*
X824067Y310248D01*
X824154Y310161D01*
X824223Y310109D01*
X824258Y310074D01*
X824275Y310057D01*
X824518Y309866D01*
X824761Y309710D01*
X825004Y309554D01*
X825247Y309433D01*
X825472Y309328D01*
X825715Y309242D01*
X826131Y309120D01*
X826322Y309068D01*
X826513Y309034D01*
X826669Y309016D01*
X826791Y308999D01*
X826895Y308981D01*
X827051D01*
X827398Y308999D01*
X827727Y309068D01*
X828005Y309172D01*
X828231Y309276D01*
X828421Y309380D01*
X828560Y309485D01*
X828647Y309554D01*
X828681Y309571D01*
X828890Y309797D01*
X829046Y310040D01*
X829167Y310282D01*
X829237Y310491D01*
X829289Y310681D01*
X829306Y310838D01*
X829323Y310942D01*
Y310959D01*
Y310977D01*
X829306Y311150D01*
X829289Y311323D01*
X829185Y311688D01*
X829046Y312017D01*
X828890Y312330D01*
X828734Y312607D01*
X828664Y312711D01*
X828595Y312798D01*
X828543Y312885D01*
X828491Y312937D01*
X828473Y312971D01*
X828456Y312989D01*
X828300Y313180D01*
X828161Y313353D01*
X828040Y313509D01*
X827936Y313631D01*
X827762Y313856D01*
X827641Y314012D01*
X827554Y314134D01*
X827519Y314186D01*
X827485Y314221D01*
Y314238D01*
X827398Y314481D01*
X827346Y314689D01*
X827328Y314776D01*
Y314845D01*
Y314897D01*
Y314914D01*
X827346Y315088D01*
X827380Y315244D01*
X827450Y315400D01*
X827502Y315522D01*
X827571Y315626D01*
X827641Y315695D01*
X827675Y315747D01*
X827693Y315765D01*
X827831Y315886D01*
X827988Y315973D01*
X828126Y316025D01*
X828265Y316059D01*
X828387Y316094D01*
X828473Y316112D01*
X828560D01*
X828803Y316077D01*
D02*
G37*
G36*
X22664Y280664D02*
X22817D01*
X22845Y280650D01*
X22886D01*
X22969Y280623D01*
X23025Y280581D01*
X23066Y280526D01*
X23094Y280484D01*
X23122Y280387D01*
Y280359D01*
Y280345D01*
Y280331D01*
Y280317D01*
X22734Y274493D01*
Y274410D01*
X22720Y274285D01*
X22706Y274160D01*
X22692Y274021D01*
X22664Y273897D01*
X22650Y273799D01*
X22636Y273730D01*
Y273716D01*
Y273702D01*
X22539Y273064D01*
X22609Y272648D01*
X22623Y272510D01*
X22636Y272399D01*
X22650Y272329D01*
X22664Y272260D01*
Y272218D01*
Y272191D01*
Y272177D01*
Y272107D01*
Y272010D01*
X22650Y271830D01*
Y271747D01*
X22636Y271677D01*
Y271622D01*
Y271608D01*
X22609Y271206D01*
Y271178D01*
X22623Y271109D01*
X22650Y271026D01*
X22664Y270942D01*
X22692Y270845D01*
X22706Y270776D01*
X22720Y270721D01*
Y270693D01*
X22761Y270526D01*
X22789Y270402D01*
X22817Y270305D01*
X22831Y270221D01*
X22845Y270180D01*
X22858Y270152D01*
Y270124D01*
X22942Y269805D01*
X23039Y269500D01*
X23150Y269237D01*
X23274Y268987D01*
X23372Y268793D01*
X23469Y268640D01*
X23496Y268585D01*
X23524Y268543D01*
X23552Y268529D01*
Y268515D01*
X23663Y268377D01*
X23774Y268252D01*
X23885Y268141D01*
X23996Y268044D01*
X24093Y267961D01*
X24204Y267891D01*
X24398Y267794D01*
X24564Y267739D01*
X24703Y267711D01*
X24786Y267697D01*
X25022D01*
X25188Y267711D01*
X25327Y267725D01*
X25438Y267739D01*
X25507D01*
X25549Y267753D01*
X25577Y267767D01*
X25590D01*
X25951Y267947D01*
X26256Y268155D01*
X26520Y268363D01*
X26728Y268557D01*
X26894Y268737D01*
X27005Y268876D01*
X27047Y268932D01*
X27074Y268973D01*
X27102Y269001D01*
Y269015D01*
X27296Y269320D01*
X27380Y269472D01*
X27449Y269597D01*
X27518Y269708D01*
X27560Y269805D01*
X27587Y269861D01*
X27601Y269875D01*
X27879Y270388D01*
X28142Y270873D01*
X28364Y271317D01*
X28572Y271733D01*
X28752Y272107D01*
X28905Y272468D01*
X29044Y272773D01*
X29155Y273064D01*
X29252Y273300D01*
X29335Y273522D01*
X29404Y273702D01*
X29446Y273855D01*
X29488Y273966D01*
X29515Y274049D01*
X29529Y274104D01*
Y274118D01*
X29585Y274368D01*
X29640Y274604D01*
X29695Y274812D01*
X29737Y275006D01*
X29793Y275186D01*
X29820Y275339D01*
X29862Y275491D01*
X29890Y275616D01*
X29917Y275727D01*
X29945Y275824D01*
X29959Y275907D01*
X29973Y275977D01*
X29987Y276018D01*
X30001Y276060D01*
Y276088D01*
X30084Y276393D01*
X30111Y276532D01*
X30153Y276642D01*
X30181Y276753D01*
X30209Y276823D01*
X30236Y276878D01*
Y276892D01*
X30292Y277294D01*
X30333Y277641D01*
X30361Y277932D01*
X30375Y278168D01*
X30389Y278362D01*
X30403Y278487D01*
Y278570D01*
Y278598D01*
X30486Y278764D01*
X30569Y278889D01*
X30625Y278958D01*
X30638Y278986D01*
X30736Y279042D01*
X30819Y279083D01*
X30971Y279139D01*
X31027D01*
X31068Y279153D01*
X31110D01*
X31221Y279139D01*
X31332Y279097D01*
X31415Y279056D01*
X31498Y279000D01*
X31568Y278931D01*
X31623Y278889D01*
X31651Y278848D01*
X31665Y278834D01*
X31748Y278709D01*
X31817Y278584D01*
X31859Y278473D01*
X31901Y278362D01*
X31914Y278265D01*
X31928Y278196D01*
Y278140D01*
Y278126D01*
Y278099D01*
X31914Y278057D01*
X31901Y278001D01*
X31873Y277932D01*
X31859Y277863D01*
X31831Y277807D01*
X31817Y277766D01*
Y277752D01*
X31776Y277641D01*
X31748Y277544D01*
X31734Y277488D01*
X31720Y277447D01*
X31706Y277419D01*
Y277405D01*
Y277391D01*
X31374Y275145D01*
X31332Y275006D01*
X31304Y274895D01*
X31277Y274812D01*
X31249Y274742D01*
X31235Y274687D01*
X31221Y274645D01*
X31207Y274632D01*
Y274618D01*
X31124Y274257D01*
X31027Y273883D01*
X30902Y273480D01*
X30763Y273078D01*
X30458Y272246D01*
X30306Y271844D01*
X30153Y271442D01*
X30001Y271081D01*
X29862Y270735D01*
X29723Y270429D01*
X29612Y270166D01*
X29515Y269944D01*
X29474Y269847D01*
X29446Y269778D01*
X29418Y269722D01*
X29390Y269681D01*
X29376Y269653D01*
Y269639D01*
X29293Y269459D01*
X29182Y269264D01*
X28947Y268890D01*
X28697Y268515D01*
X28447Y268183D01*
X28323Y268030D01*
X28212Y267891D01*
X28101Y267767D01*
X28017Y267670D01*
X27948Y267572D01*
X27879Y267517D01*
X27851Y267475D01*
X27837Y267461D01*
X27685Y267309D01*
X27546Y267156D01*
X27421Y267032D01*
X27296Y266921D01*
X27088Y266740D01*
X26908Y266602D01*
X26769Y266505D01*
X26672Y266435D01*
X26603Y266408D01*
X26589Y266394D01*
X26256Y266255D01*
X25965Y266158D01*
X25715Y266075D01*
X25521Y266033D01*
X25369Y266005D01*
X25258Y265991D01*
X25213Y265980D01*
X25202Y265991D01*
X25161Y266005D01*
X25091Y266019D01*
X25036Y266047D01*
X24966Y266061D01*
X24911Y266075D01*
X24869Y266089D01*
X24855D01*
X24731Y266102D01*
X24620Y266116D01*
X24509D01*
X24425Y266130D01*
X24273D01*
X23857Y266408D01*
X23482Y266699D01*
X23163Y266976D01*
X22872Y267253D01*
X22761Y267378D01*
X22650Y267489D01*
X22567Y267586D01*
X22484Y267683D01*
X22429Y267753D01*
X22387Y267808D01*
X22359Y267836D01*
X22345Y267850D01*
X22262Y267975D01*
X22179Y268127D01*
X22026Y268432D01*
X21971Y268571D01*
X21915Y268682D01*
X21888Y268765D01*
X21874Y268779D01*
Y268793D01*
X21860D01*
X21777Y268807D01*
X21707Y268848D01*
X21652Y268918D01*
X21610Y268987D01*
X21583Y269056D01*
X21555Y269126D01*
X21541Y269167D01*
Y269181D01*
X21472Y269528D01*
X21416Y269819D01*
X21361Y270069D01*
X21319Y270263D01*
X21291Y270415D01*
X21263Y270526D01*
X21250Y270596D01*
Y270610D01*
X21194Y270915D01*
X21153Y271192D01*
X21111Y271442D01*
X21097Y271650D01*
X21083Y271830D01*
X21069Y271955D01*
Y272038D01*
Y272066D01*
Y272246D01*
Y272399D01*
Y272496D01*
X21083Y272579D01*
Y272634D01*
Y272662D01*
Y272690D01*
Y272704D01*
X21097Y272731D01*
X21125Y272801D01*
X21139Y272884D01*
X21153Y272898D01*
Y272912D01*
X21180Y272981D01*
X21208Y273037D01*
X21222Y273120D01*
X21236Y273148D01*
Y273161D01*
X21222Y273189D01*
X21208Y273231D01*
X21194Y273272D01*
X21180Y273286D01*
X21153Y273370D01*
X21139Y273411D01*
X21125Y273439D01*
Y273466D01*
X21139Y273522D01*
X21166Y273633D01*
X21180Y273688D01*
X21194Y273730D01*
X21208Y273758D01*
Y273772D01*
X21222Y274035D01*
X21236Y274285D01*
X21250Y274507D01*
X21263Y274701D01*
X21277Y274881D01*
Y275047D01*
X21291Y275186D01*
Y275311D01*
X21305Y275422D01*
Y275505D01*
Y275588D01*
X21319Y275644D01*
Y275686D01*
Y275713D01*
Y275741D01*
Y275769D01*
X21333Y275810D01*
X21374Y275907D01*
X21402Y275991D01*
X21416Y276018D01*
Y276032D01*
X21444Y276115D01*
X21472Y276185D01*
X21485Y276240D01*
X21499Y276268D01*
X21513Y276310D01*
Y276323D01*
X21499Y276351D01*
X21485Y276420D01*
X21472Y276504D01*
X21458Y276518D01*
Y276532D01*
X21444Y276601D01*
X21430Y276642D01*
X21416Y276712D01*
Y276740D01*
X21430Y276947D01*
X21444Y277183D01*
X21485Y277447D01*
X21527Y277738D01*
X21652Y278334D01*
X21790Y278917D01*
X21860Y279208D01*
X21929Y279472D01*
X21999Y279707D01*
X22054Y279915D01*
X22096Y280082D01*
X22137Y280220D01*
X22151Y280304D01*
X22165Y280317D01*
Y280331D01*
X22220Y280415D01*
X22262Y280498D01*
X22345Y280595D01*
X22387Y280664D01*
X22401Y280678D01*
X22553D01*
X22664Y280664D01*
D02*
G37*
G36*
X21693Y265256D02*
X21749Y265229D01*
X21818Y265201D01*
X21902Y265187D01*
X21971D01*
X22040Y265173D01*
X22096D01*
X22193Y265145D01*
X22304Y265090D01*
X22442Y264993D01*
X22581Y264896D01*
X22720Y264799D01*
X22831Y264702D01*
X22900Y264646D01*
X22928Y264618D01*
Y264050D01*
X22664Y263870D01*
X22429Y263731D01*
X22234Y263648D01*
X22068Y263578D01*
X21929Y263537D01*
X21846Y263523D01*
X21777Y263509D01*
X21763D01*
X21652Y263523D01*
X21569Y263551D01*
X21485Y263592D01*
X21416Y263662D01*
X21305Y263800D01*
X21236Y263981D01*
X21180Y264147D01*
X21166Y264300D01*
X21153Y264355D01*
Y264397D01*
Y264424D01*
Y264438D01*
X21180Y264632D01*
X21236Y264799D01*
X21319Y264937D01*
X21416Y265062D01*
X21499Y265159D01*
X21583Y265243D01*
X21638Y265284D01*
X21666Y265298D01*
X21693Y265256D01*
D02*
G37*
G36*
X25493Y262691D02*
X25577Y262663D01*
X25729Y262566D01*
X25785Y262511D01*
X25826Y262455D01*
X25854Y262427D01*
X25868Y262413D01*
X25757Y262039D01*
X25646Y261692D01*
X25549Y261387D01*
X25452Y261138D01*
X25382Y260943D01*
X25355Y260860D01*
X25327Y260791D01*
X25299Y260735D01*
X25285Y260694D01*
X25271Y260680D01*
Y260666D01*
X25161Y260513D01*
X25064Y260389D01*
X24994Y260292D01*
X24925Y260208D01*
X24869Y260139D01*
X24828Y260097D01*
X24814Y260084D01*
X24800Y260070D01*
X24620Y259792D01*
X24481Y259543D01*
X24342Y259335D01*
X24245Y259154D01*
X24162Y259002D01*
X24107Y258905D01*
X24079Y258849D01*
X24065Y258822D01*
X23996Y258738D01*
X23926Y258641D01*
X23843Y258516D01*
X23760Y258392D01*
X23691Y258281D01*
X23635Y258184D01*
X23593Y258114D01*
X23579Y258086D01*
X23469Y257892D01*
X23385Y257740D01*
X23330Y257629D01*
X23288Y257532D01*
X23261Y257476D01*
X23247Y257435D01*
Y257407D01*
X23261Y257379D01*
X23302Y257338D01*
X23385Y257268D01*
X23469Y257199D01*
X23579Y257116D01*
X23704Y257033D01*
X23968Y256838D01*
X24218Y256658D01*
X24342Y256575D01*
X24453Y256506D01*
X24550Y256436D01*
X24620Y256395D01*
X24661Y256367D01*
X24675Y256353D01*
X24925Y256187D01*
X25147Y256034D01*
X25341Y255909D01*
X25507Y255784D01*
X25646Y255687D01*
X25757Y255604D01*
X25854Y255535D01*
X25923Y255479D01*
X25979Y255438D01*
X26034Y255396D01*
X26076Y255354D01*
X26104Y255327D01*
X26090Y255271D01*
X26062Y255216D01*
X26020Y255160D01*
X25965Y255105D01*
X25826Y254994D01*
X25674Y254897D01*
X25507Y254813D01*
X25369Y254744D01*
X25313Y254716D01*
X25271Y254703D01*
X25244Y254689D01*
X25230D01*
X25147Y254703D01*
X25064Y254744D01*
X25008Y254786D01*
X24980Y254800D01*
X24911Y254855D01*
X24855Y254897D01*
X24828Y254911D01*
X24814Y254925D01*
X24315Y255133D01*
X23801Y255382D01*
X23302Y255618D01*
X23066Y255743D01*
X22831Y255868D01*
X22623Y255979D01*
X22429Y256089D01*
X22262Y256173D01*
X22109Y256256D01*
X21999Y256325D01*
X21902Y256381D01*
X21846Y256408D01*
X21832Y256422D01*
X21790Y256464D01*
X21735Y256533D01*
X21666Y256603D01*
X21610Y256686D01*
X21555Y256769D01*
X21499Y256838D01*
X21472Y256894D01*
X21458Y256908D01*
X21361Y257046D01*
X21291Y257171D01*
X21250Y257254D01*
X21222Y257324D01*
X21194Y257379D01*
X21180Y257407D01*
Y257435D01*
X21194Y257462D01*
X21208Y257518D01*
X21250Y257587D01*
X21305Y257670D01*
X21361Y257781D01*
X21430Y257892D01*
X21610Y258156D01*
X21818Y258461D01*
X22054Y258780D01*
X22304Y259140D01*
X22567Y259487D01*
X22817Y259848D01*
X23066Y260181D01*
X23302Y260500D01*
X23510Y260777D01*
X23691Y261013D01*
X23760Y261124D01*
X23815Y261207D01*
X23871Y261262D01*
X23912Y261318D01*
X23926Y261346D01*
X23940Y261359D01*
X24023Y261373D01*
X24093Y261387D01*
X24162D01*
X24287Y261554D01*
X24412Y261720D01*
X24523Y261859D01*
X24606Y261984D01*
X24689Y262081D01*
X24758Y262178D01*
X24869Y262330D01*
X24952Y262427D01*
X25008Y262497D01*
X25022Y262524D01*
X25036Y262538D01*
X25105Y262594D01*
X25174Y262635D01*
X25299Y262691D01*
X25382Y262705D01*
X25410D01*
X25493Y262691D01*
D02*
G37*
G36*
X24606Y253968D02*
X24675D01*
X24745Y253954D01*
X24800Y253940D01*
X24842D01*
X24855Y253926D01*
X24869D01*
X25064Y253773D01*
X25244Y253635D01*
X25396Y253496D01*
X25535Y253371D01*
X25646Y253274D01*
X25715Y253191D01*
X25771Y253136D01*
X25785Y253122D01*
X25951Y252900D01*
X26062Y252650D01*
X26145Y252387D01*
X26214Y252137D01*
X26242Y251901D01*
X26256Y251804D01*
Y251721D01*
X26270Y251638D01*
Y251582D01*
Y251555D01*
Y251541D01*
X26242Y250958D01*
X26187Y250431D01*
X26076Y249946D01*
X25951Y249502D01*
X25785Y249114D01*
X25618Y248767D01*
X25424Y248462D01*
X25230Y248184D01*
X25036Y247949D01*
X24842Y247754D01*
X24675Y247602D01*
X24509Y247477D01*
X24384Y247380D01*
X24273Y247311D01*
X24218Y247269D01*
X24190Y247255D01*
X24079Y247200D01*
X23940Y247172D01*
X23649Y247117D01*
X23524D01*
X23413Y247103D01*
X23316D01*
X23136Y247130D01*
X22942Y247186D01*
X22761Y247255D01*
X22595Y247352D01*
X22456Y247435D01*
X22345Y247519D01*
X22276Y247574D01*
X22248Y247588D01*
X22040Y247782D01*
X21874Y247976D01*
X21735Y248157D01*
X21624Y248337D01*
X21541Y248476D01*
X21485Y248601D01*
X21458Y248670D01*
X21444Y248698D01*
X21361Y248864D01*
X21277Y249003D01*
X21222Y249114D01*
X21180Y249197D01*
X21153Y249252D01*
X21139Y249280D01*
X21125Y249308D01*
X21042Y249502D01*
X20986Y249655D01*
X20944Y249793D01*
X20917Y249890D01*
X20903Y249974D01*
X20889Y250029D01*
Y250057D01*
Y250070D01*
X20834Y250819D01*
Y250944D01*
X20820Y251055D01*
X20806Y251222D01*
Y251346D01*
X20792Y251444D01*
Y251499D01*
Y251527D01*
Y251555D01*
X20806Y251610D01*
X20820Y251693D01*
Y251790D01*
X20834Y251873D01*
X20847Y251957D01*
Y252012D01*
Y252040D01*
X20931Y252123D01*
X21000Y252192D01*
X21042Y252248D01*
X21083Y252290D01*
X21111Y252317D01*
X21125Y252331D01*
X21222Y252511D01*
X21305Y252650D01*
X21361Y252747D01*
X21416Y252803D01*
X21444Y252844D01*
X21472Y252858D01*
X21485Y252872D01*
X21541Y252858D01*
X21596Y252830D01*
X21652Y252789D01*
X21693Y252733D01*
X21777Y252595D01*
X21832Y252428D01*
X21874Y252262D01*
X21902Y252123D01*
X21915Y252068D01*
X21929Y252026D01*
Y251998D01*
Y251984D01*
X21943Y251804D01*
X21971Y251624D01*
X21985Y251471D01*
X21999Y251333D01*
Y251208D01*
X22012Y251124D01*
Y251069D01*
Y251055D01*
X22082Y250792D01*
X22165Y250556D01*
X22220Y250362D01*
X22290Y250195D01*
X22345Y250043D01*
X22387Y249918D01*
X22429Y249821D01*
X22470Y249752D01*
X22512Y249682D01*
X22539Y249641D01*
X22581Y249585D01*
X22609Y249557D01*
X22623D01*
X22650Y249585D01*
X22678Y249613D01*
X22720Y249655D01*
X22734Y249668D01*
Y249779D01*
X22720Y249862D01*
X22706Y249932D01*
Y249974D01*
X22692Y250015D01*
X22678Y250043D01*
X22664Y250057D01*
X22692Y250168D01*
X22706Y250279D01*
X22747Y250445D01*
X22775Y250556D01*
X22789Y250639D01*
X22803Y250695D01*
X22817Y250709D01*
X22997Y251984D01*
X23025Y252220D01*
X23052Y252428D01*
X23080Y252622D01*
X23094Y252789D01*
X23108Y252941D01*
X23122Y253080D01*
X23136Y253205D01*
X23150Y253302D01*
Y253399D01*
Y253468D01*
X23163Y253579D01*
Y253649D01*
Y253662D01*
X23233Y253746D01*
X23344Y253815D01*
X23482Y253871D01*
X23621Y253912D01*
X23760Y253940D01*
X23871Y253954D01*
X23954Y253968D01*
X23982D01*
X24148Y253981D01*
X24398D01*
X24606Y253968D01*
D02*
G37*
G36*
X29127Y247380D02*
X29182Y247366D01*
X29238D01*
X29266Y247352D01*
X29279D01*
X29376Y247339D01*
X29446Y247325D01*
X29515D01*
X29543Y247311D01*
X29612D01*
X29640Y247297D01*
X29709Y247255D01*
X29793Y247214D01*
X29806Y247200D01*
X29820D01*
X29890Y247172D01*
X29945Y247144D01*
X29987Y247130D01*
X30015Y247117D01*
X30042Y247103D01*
X30167Y247061D01*
X30278Y247020D01*
X30528Y246867D01*
X30763Y246700D01*
X30971Y246506D01*
X31152Y246326D01*
X31290Y246187D01*
X31346Y246118D01*
X31387Y246076D01*
X31401Y246049D01*
X31415Y246035D01*
X31554Y245868D01*
X31665Y245702D01*
X31762Y245549D01*
X31845Y245411D01*
X31984Y245133D01*
X32067Y244911D01*
X32122Y244717D01*
X32150Y244579D01*
X32164Y244523D01*
Y244482D01*
Y244468D01*
Y244454D01*
X32220Y244315D01*
X32261Y244218D01*
X32289Y244163D01*
X32303Y244149D01*
X32344Y243663D01*
X32386Y243178D01*
X32414Y242720D01*
Y242498D01*
X32428Y242304D01*
Y242110D01*
X32441Y241944D01*
Y241805D01*
Y241666D01*
Y241569D01*
Y241500D01*
Y241444D01*
Y241430D01*
Y241292D01*
X32428Y241139D01*
X32414Y240973D01*
X32386Y240779D01*
X32331Y240376D01*
X32275Y239974D01*
X32247Y239780D01*
X32220Y239600D01*
X32192Y239433D01*
X32164Y239295D01*
X32136Y239170D01*
X32122Y239087D01*
X32109Y239017D01*
Y239004D01*
X32053Y238699D01*
X31998Y238421D01*
X31942Y238185D01*
X31901Y237991D01*
X31859Y237811D01*
X31831Y237658D01*
X31790Y237533D01*
X31776Y237436D01*
X31748Y237353D01*
X31734Y237284D01*
X31720Y237242D01*
X31706Y237201D01*
X31693Y237173D01*
Y237159D01*
X31568Y236979D01*
X31457Y236826D01*
X31346Y236674D01*
X31249Y236549D01*
X31152Y236424D01*
X31068Y236327D01*
X30930Y236147D01*
X30819Y236022D01*
X30749Y235939D01*
X30694Y235897D01*
X30680Y235883D01*
X30486Y235744D01*
X30292Y235647D01*
X30084Y235564D01*
X29890Y235523D01*
X29709Y235495D01*
X29571Y235481D01*
X29515Y235467D01*
X29446D01*
X29363Y235481D01*
X29266Y235509D01*
X29196Y235523D01*
X29182Y235536D01*
X29169D01*
X29085Y235578D01*
X29030Y235634D01*
X28974Y235675D01*
X28947Y235703D01*
X28919Y235758D01*
Y235786D01*
Y235814D01*
X28933Y235855D01*
X28974Y235939D01*
X29002Y236022D01*
X29016Y236036D01*
Y236050D01*
X29058Y236119D01*
X29085Y236174D01*
X29099Y236216D01*
X29113Y236244D01*
X29127Y236271D01*
X29099Y236299D01*
X29071Y236355D01*
X29030Y236396D01*
X29016Y236410D01*
X28669D01*
X28433Y236355D01*
X28212Y236299D01*
X28017Y236244D01*
X27851Y236202D01*
X27712Y236161D01*
X27601Y236133D01*
X27546Y236119D01*
X27518Y236105D01*
X27352Y236077D01*
X27158Y236050D01*
X26769Y236008D01*
X26381Y235952D01*
X26007Y235911D01*
X25826Y235883D01*
X25660Y235869D01*
X25521Y235855D01*
X25396Y235842D01*
X25285Y235828D01*
X25216D01*
X25161Y235814D01*
X25147D01*
X24952Y235786D01*
X24786Y235772D01*
X24634Y235758D01*
X24509Y235744D01*
X24398Y235731D01*
X24301Y235717D01*
X24218D01*
X24148Y235703D01*
X24065D01*
X24009Y235689D01*
X23649D01*
X23344Y235703D01*
X23066D01*
X22803Y235717D01*
X22567Y235731D01*
X22345Y235744D01*
X22151Y235758D01*
X21985Y235772D01*
X21832Y235786D01*
X21707Y235800D01*
X21596D01*
X21513Y235814D01*
X21444Y235828D01*
X21402Y235842D01*
X21361D01*
Y235869D01*
X21347Y235911D01*
X21305Y236036D01*
X21291Y236091D01*
X21263Y236147D01*
X21250Y236174D01*
Y236188D01*
X21208Y236285D01*
X21180Y236369D01*
X21166Y236424D01*
X21153Y236452D01*
X21139Y236479D01*
Y236493D01*
X21153Y236563D01*
X21180Y236632D01*
X21236Y236688D01*
X21319Y236729D01*
X21485Y236812D01*
X21693Y236854D01*
X21902Y236882D01*
X22082Y236909D01*
X22831D01*
X22914Y236896D01*
X23025D01*
X23469Y236840D01*
X23732D01*
X23926Y236854D01*
X24134Y236868D01*
X24328Y236896D01*
X24509Y236923D01*
X24675Y236951D01*
X24800Y236965D01*
X24883Y236993D01*
X24911D01*
X25077Y237062D01*
X25188Y237104D01*
X25258Y237118D01*
X25271Y237131D01*
X26062D01*
X26256Y237118D01*
X26547D01*
X26644Y237104D01*
X26714D01*
X27060Y237131D01*
X27393Y237173D01*
X27712Y237215D01*
X28004Y237256D01*
X28295Y237298D01*
X28558Y237353D01*
X28808Y237395D01*
X29030Y237450D01*
X29238Y237492D01*
X29418Y237533D01*
X29571Y237575D01*
X29709Y237603D01*
X29806Y237631D01*
X29890Y237658D01*
X29931Y237672D01*
X29945D01*
X30028Y237714D01*
X30111Y237797D01*
X30195Y237894D01*
X30264Y237991D01*
X30320Y238102D01*
X30361Y238185D01*
X30389Y238241D01*
X30403Y238269D01*
X30472Y238490D01*
X30528Y238685D01*
X30569Y238851D01*
X30611Y239004D01*
X30638Y239128D01*
X30666Y239212D01*
X30680Y239267D01*
Y239281D01*
X30791Y239558D01*
X30888Y239794D01*
X30971Y240002D01*
X31027Y240155D01*
X31068Y240280D01*
X31096Y240363D01*
X31124Y240418D01*
Y240432D01*
X31138Y240501D01*
X31152Y240598D01*
X31165Y240807D01*
Y240903D01*
Y240987D01*
Y241056D01*
Y241070D01*
Y241195D01*
Y241320D01*
Y241403D01*
Y241417D01*
Y241430D01*
X31179Y241444D01*
X31207Y241458D01*
X31249D01*
X31263Y241472D01*
X31277Y241514D01*
Y241542D01*
Y241555D01*
X31263Y242415D01*
Y242526D01*
Y242651D01*
Y242901D01*
Y243011D01*
Y243095D01*
Y243164D01*
Y243178D01*
Y243317D01*
X31249Y243428D01*
Y243511D01*
Y243594D01*
Y243636D01*
Y243677D01*
Y243705D01*
Y243747D01*
X31221Y243816D01*
X31179Y243982D01*
X31152Y244065D01*
X31124Y244121D01*
X31110Y244177D01*
X31096Y244190D01*
X31027Y244509D01*
X30930Y244787D01*
X30805Y245036D01*
X30680Y245258D01*
X30569Y245425D01*
X30472Y245549D01*
X30403Y245633D01*
X30389Y245660D01*
X30375D01*
X30264Y245771D01*
X30153Y245868D01*
X29945Y246007D01*
X29737Y246118D01*
X29543Y246201D01*
X29376Y246243D01*
X29238Y246257D01*
X29155Y246271D01*
X29127D01*
X28974Y246257D01*
X28822Y246201D01*
X28655Y246118D01*
X28503Y246007D01*
X28336Y245868D01*
X28170Y245730D01*
X27865Y245411D01*
X27601Y245092D01*
X27477Y244953D01*
X27380Y244814D01*
X27296Y244704D01*
X27241Y244620D01*
X27199Y244565D01*
X27185Y244551D01*
X27019Y244301D01*
X26866Y244065D01*
X26741Y243857D01*
X26631Y243663D01*
X26520Y243483D01*
X26436Y243330D01*
X26367Y243192D01*
X26298Y243067D01*
X26256Y242956D01*
X26214Y242873D01*
X26173Y242790D01*
X26159Y242734D01*
X26131Y242679D01*
Y242651D01*
X26117Y242623D01*
X26076Y242471D01*
X26048Y242332D01*
X25993Y242096D01*
X25951Y241902D01*
X25909Y241763D01*
X25896Y241652D01*
X25882Y241597D01*
X25868Y241555D01*
Y241542D01*
X25771Y241139D01*
X25687Y240765D01*
X25590Y240404D01*
X25521Y240058D01*
X25438Y239739D01*
X25369Y239447D01*
X25313Y239170D01*
X25258Y238934D01*
X25202Y238712D01*
X25161Y238518D01*
X25119Y238338D01*
X25091Y238199D01*
X25064Y238088D01*
X25050Y238019D01*
X25036Y237963D01*
Y237950D01*
X24842Y237880D01*
X24689Y237811D01*
X24578Y237769D01*
X24481Y237742D01*
X24425Y237714D01*
X24384Y237700D01*
X24356Y237686D01*
X24301Y237700D01*
X24231Y237728D01*
X24162Y237769D01*
X24079Y237825D01*
X23940Y237977D01*
X23788Y238144D01*
X23663Y238296D01*
X23566Y238449D01*
X23524Y238504D01*
X23496Y238546D01*
X23469Y238574D01*
Y238587D01*
X23344Y238782D01*
X23233Y238948D01*
X23136Y239101D01*
X23039Y239239D01*
X22942Y239364D01*
X22858Y239475D01*
X22789Y239558D01*
X22720Y239641D01*
X22609Y239766D01*
X22525Y239836D01*
X22470Y239877D01*
X22456Y239891D01*
X22429Y240002D01*
X22415Y240085D01*
Y240127D01*
Y240141D01*
X22304Y240238D01*
X22179Y240363D01*
X22068Y240487D01*
X21971Y240612D01*
X21888Y240723D01*
X21818Y240820D01*
X21777Y240876D01*
X21763Y240903D01*
X21624Y241125D01*
X21499Y241320D01*
X21388Y241486D01*
X21305Y241625D01*
X21236Y241722D01*
X21194Y241805D01*
X21166Y241847D01*
X21153Y241861D01*
X21028Y242138D01*
X20917Y242374D01*
X20820Y242582D01*
X20736Y242762D01*
X20667Y242928D01*
X20612Y243053D01*
X20556Y243164D01*
X20529Y243247D01*
X20487Y243317D01*
X20473Y243372D01*
X20459Y243414D01*
X20445Y243441D01*
X20431Y243469D01*
X20307Y243788D01*
X20210Y244093D01*
X20140Y244398D01*
X20099Y244676D01*
X20071Y244911D01*
X20057Y245022D01*
X20043Y245106D01*
Y245175D01*
Y245231D01*
Y245258D01*
Y245272D01*
Y245300D01*
Y245341D01*
X20029Y245466D01*
X20015Y245508D01*
Y245563D01*
X20001Y245591D01*
Y245605D01*
X19988Y245702D01*
X19974Y245771D01*
X19960Y245813D01*
Y245855D01*
X19946Y245882D01*
X19960Y245979D01*
X19988Y246049D01*
X20071Y246173D01*
X20140Y246243D01*
X20168Y246271D01*
X20182D01*
X20279Y246257D01*
X20362Y246229D01*
X20529Y246132D01*
X20667Y245993D01*
X20806Y245841D01*
X20903Y245688D01*
X20972Y245563D01*
X21000Y245508D01*
X21028Y245480D01*
X21042Y245452D01*
Y245438D01*
X21444Y244218D01*
X21596Y243899D01*
X21735Y243594D01*
X21860Y243330D01*
X21971Y243081D01*
X22068Y242845D01*
X22165Y242637D01*
X22248Y242457D01*
X22331Y242290D01*
X22387Y242152D01*
X22442Y242027D01*
X22498Y241916D01*
X22525Y241833D01*
X22553Y241777D01*
X22581Y241736D01*
X22595Y241708D01*
Y241694D01*
X22650Y241569D01*
X22747Y241417D01*
X22845Y241250D01*
X22969Y241070D01*
X23066Y240903D01*
X23163Y240779D01*
X23191Y240723D01*
X23219Y240682D01*
X23247Y240668D01*
Y240654D01*
X23372Y240487D01*
X23482Y240349D01*
X23579Y240224D01*
X23677Y240113D01*
X23760Y240030D01*
X23829Y239947D01*
X23954Y239836D01*
X24051Y239780D01*
X24107Y239739D01*
X24148Y239725D01*
X24162D01*
X24218Y239739D01*
X24259Y239766D01*
X24301Y239822D01*
X24342Y239891D01*
X24412Y240071D01*
X24481Y240266D01*
X24523Y240460D01*
X24564Y240640D01*
X24578Y240709D01*
Y240765D01*
X24592Y240793D01*
Y240807D01*
X24634Y241042D01*
X24661Y241250D01*
X24703Y241444D01*
X24717Y241597D01*
X24745Y241736D01*
X24758Y241861D01*
X24786Y241957D01*
X24800Y242027D01*
Y242096D01*
X24814Y242152D01*
X24828Y242207D01*
Y242249D01*
X24925Y242457D01*
X25022Y242637D01*
X25105Y242790D01*
X25161Y242914D01*
X25216Y243011D01*
X25258Y243081D01*
X25271Y243123D01*
X25285Y243136D01*
X25396Y243455D01*
X25507Y243733D01*
X25590Y243982D01*
X25660Y244177D01*
X25701Y244329D01*
X25743Y244440D01*
X25771Y244509D01*
Y244537D01*
X25909Y244759D01*
X26048Y244953D01*
X26159Y245106D01*
X26256Y245231D01*
X26339Y245314D01*
X26395Y245383D01*
X26436Y245411D01*
X26450Y245425D01*
X26534Y245591D01*
X26617Y245744D01*
X26686Y245882D01*
X26755Y246007D01*
X26811Y246104D01*
X26866Y246201D01*
X26963Y246340D01*
X27047Y246451D01*
X27102Y246506D01*
X27130Y246534D01*
X27144Y246548D01*
X27366Y246700D01*
X27560Y246825D01*
X27754Y246936D01*
X27934Y247033D01*
X28087Y247117D01*
X28239Y247186D01*
X28378Y247241D01*
X28489Y247283D01*
X28600Y247325D01*
X28697Y247352D01*
X28766Y247366D01*
X28836Y247380D01*
X28877Y247394D01*
X29016D01*
X29127Y247380D01*
D02*
G37*
G36*
X21693Y227271D02*
X21749Y227243D01*
X21818Y227215D01*
X21902Y227202D01*
X21971D01*
X22040Y227188D01*
X22096D01*
X22193Y227160D01*
X22304Y227104D01*
X22442Y227007D01*
X22581Y226910D01*
X22720Y226813D01*
X22831Y226716D01*
X22900Y226661D01*
X22928Y226633D01*
Y226064D01*
X22664Y225884D01*
X22429Y225745D01*
X22234Y225662D01*
X22068Y225593D01*
X21929Y225551D01*
X21846Y225537D01*
X21777Y225523D01*
X21763D01*
X21652Y225537D01*
X21569Y225565D01*
X21485Y225607D01*
X21416Y225676D01*
X21305Y225815D01*
X21236Y225995D01*
X21180Y226161D01*
X21166Y226314D01*
X21153Y226369D01*
Y226411D01*
Y226439D01*
Y226453D01*
X21180Y226647D01*
X21236Y226813D01*
X21319Y226952D01*
X21416Y227077D01*
X21499Y227174D01*
X21583Y227257D01*
X21638Y227299D01*
X21666Y227313D01*
X21693Y227271D01*
D02*
G37*
G36*
X25521Y224317D02*
X25618Y224289D01*
X25715Y224234D01*
X25785Y224178D01*
X25854Y224123D01*
X25896Y224067D01*
X25923Y224040D01*
X25937Y224026D01*
X26020Y223915D01*
X26076Y223790D01*
X26131Y223679D01*
X26159Y223568D01*
X26173Y223471D01*
X26187Y223402D01*
Y223346D01*
Y223332D01*
X26173Y223221D01*
X26159Y223110D01*
X26131Y223027D01*
X26117Y222999D01*
Y222986D01*
X26062Y222875D01*
X26034Y222805D01*
X26020Y222764D01*
Y222750D01*
X25979D01*
X25909Y222736D01*
X25840Y222722D01*
X25826Y222708D01*
X25812D01*
X25743Y222694D01*
X25701Y222680D01*
X25632Y222667D01*
X25590D01*
X25466Y222680D01*
X25355Y222708D01*
X25230Y222764D01*
X25119Y222819D01*
X25036Y222875D01*
X24966Y222930D01*
X24911Y222958D01*
X24897Y222972D01*
X24772Y223083D01*
X24689Y223194D01*
X24620Y223291D01*
X24578Y223388D01*
X24550Y223457D01*
X24536Y223513D01*
Y223554D01*
Y223568D01*
X24550Y223707D01*
X24578Y223818D01*
X24620Y223929D01*
X24675Y224012D01*
X24814Y224151D01*
X24980Y224234D01*
X25147Y224289D01*
X25285Y224317D01*
X25341Y224331D01*
X25424D01*
X25521Y224317D01*
D02*
G37*
G36*
X21929Y223818D02*
X22123Y223776D01*
X22304Y223707D01*
X22442Y223637D01*
X22553Y223568D01*
X22636Y223499D01*
X22692Y223457D01*
X22706Y223443D01*
Y223402D01*
Y223360D01*
X22720Y223235D01*
X22747Y223083D01*
X22761Y222916D01*
X22789Y222764D01*
X22803Y222639D01*
Y222583D01*
X22817Y222542D01*
Y222528D01*
Y222514D01*
X22803Y222431D01*
X22761Y222362D01*
X22706Y222292D01*
X22636Y222237D01*
X22567Y222181D01*
X22512Y222140D01*
X22470Y222126D01*
X22456Y222112D01*
X22359Y222056D01*
X22262Y222015D01*
X22193Y221987D01*
X22137Y221973D01*
X22054Y221945D01*
X22026D01*
X21915Y221959D01*
X21790Y221973D01*
X21680Y222001D01*
X21583Y222029D01*
X21485Y222056D01*
X21416Y222084D01*
X21374Y222112D01*
X21361D01*
X21347Y222126D01*
X21319Y222167D01*
X21263Y222250D01*
X21194Y222334D01*
X21180Y222348D01*
X21166Y222362D01*
X21111Y222431D01*
X21069Y222500D01*
X21028Y222583D01*
X21000Y222625D01*
Y222639D01*
X21014Y222819D01*
X21056Y223013D01*
X21111Y223194D01*
X21180Y223388D01*
X21236Y223540D01*
X21291Y223679D01*
X21333Y223762D01*
X21347Y223776D01*
Y223790D01*
X21472Y223818D01*
X21583Y223832D01*
X21693D01*
X21929Y223818D01*
D02*
G37*
G36*
X25369Y220656D02*
X25577Y220628D01*
X25660Y220614D01*
X25729Y220600D01*
X25771Y220586D01*
X25785D01*
X25896Y220559D01*
X25993Y220517D01*
X26214Y220392D01*
X26409Y220254D01*
X26603Y220101D01*
X26769Y219948D01*
X26894Y219824D01*
X26977Y219727D01*
X26991Y219713D01*
X27005Y219699D01*
X27227Y219421D01*
X27407Y219172D01*
X27546Y218936D01*
X27643Y218728D01*
X27698Y218575D01*
X27740Y218451D01*
X27768Y218367D01*
Y218354D01*
Y218340D01*
X27823Y218243D01*
X27837Y218159D01*
X27851Y218104D01*
Y218090D01*
Y218034D01*
X27837Y218021D01*
Y218007D01*
X27809Y217979D01*
X27796Y217951D01*
Y217938D01*
Y217924D01*
X27809Y217910D01*
X27837Y217882D01*
X27893Y217799D01*
X27934Y217716D01*
X27948Y217688D01*
Y217674D01*
X27962Y217646D01*
X27976Y217577D01*
X27990Y217480D01*
X28004Y217369D01*
X28017Y217272D01*
X28031Y217175D01*
X28045Y217119D01*
Y217092D01*
X28073Y216980D01*
X28101Y216897D01*
X28128Y216842D01*
X28156Y216800D01*
X28184Y216772D01*
X28212Y216759D01*
X28225D01*
X28420Y217078D01*
X28600Y217355D01*
X28766Y217605D01*
X28905Y217840D01*
X29044Y218034D01*
X29169Y218215D01*
X29266Y218367D01*
X29363Y218492D01*
X29446Y218603D01*
X29501Y218700D01*
X29557Y218770D01*
X29612Y218825D01*
X29640Y218867D01*
X29668Y218894D01*
X29682Y218922D01*
X29834Y219088D01*
X30001Y219241D01*
X30153Y219366D01*
X30306Y219477D01*
X30458Y219574D01*
X30611Y219643D01*
X30749Y219713D01*
X30874Y219754D01*
X31096Y219824D01*
X31193Y219851D01*
X31277Y219865D01*
X31346Y219879D01*
X31429D01*
X31554Y219865D01*
X31706Y219810D01*
X31873Y219727D01*
X32053Y219643D01*
X32206Y219546D01*
X32331Y219477D01*
X32386Y219435D01*
X32428Y219421D01*
X32441Y219394D01*
X32455D01*
X32580Y219172D01*
X32705Y218950D01*
X32802Y218742D01*
X32885Y218548D01*
X33010Y218187D01*
X33066Y218034D01*
X33093Y217896D01*
X33135Y217771D01*
X33149Y217646D01*
X33163Y217549D01*
X33177Y217480D01*
X33190Y217411D01*
Y217369D01*
Y217341D01*
Y217327D01*
Y217313D01*
X33204Y217272D01*
X33218Y217175D01*
X33232Y217092D01*
Y217064D01*
Y217050D01*
X33246Y216967D01*
X33260Y216911D01*
X33273Y216870D01*
X33287Y216842D01*
Y216800D01*
X33273Y216315D01*
X33246Y215816D01*
X33204Y215316D01*
X33135Y214803D01*
X33066Y214290D01*
X32982Y213791D01*
X32899Y213319D01*
X32816Y212862D01*
X32719Y212432D01*
X32636Y212043D01*
X32552Y211697D01*
X32483Y211392D01*
X32441Y211267D01*
X32414Y211142D01*
X32400Y211045D01*
X32372Y210962D01*
X32358Y210892D01*
X32344Y210851D01*
X32331Y210823D01*
Y210809D01*
X32317Y210629D01*
X32303Y210490D01*
X32289Y210435D01*
Y210393D01*
Y210379D01*
Y210365D01*
X32136Y209921D01*
X31998Y209519D01*
X31859Y209145D01*
X31734Y208798D01*
X31609Y208479D01*
X31484Y208188D01*
X31374Y207938D01*
X31277Y207703D01*
X31193Y207508D01*
X31110Y207342D01*
X31041Y207190D01*
X30985Y207078D01*
X30930Y206981D01*
X30902Y206926D01*
X30888Y206884D01*
X30874Y206870D01*
X30805Y206787D01*
X30722Y206732D01*
X30625Y206676D01*
X30528Y206649D01*
X30431Y206635D01*
X30347Y206621D01*
X30278D01*
X30139Y206635D01*
X30028Y206649D01*
X29931Y206690D01*
X29834Y206746D01*
X29695Y206870D01*
X29612Y207023D01*
X29557Y207162D01*
X29529Y207286D01*
X29515Y207342D01*
Y207384D01*
Y207397D01*
Y207411D01*
X29529Y207633D01*
X29543Y207730D01*
X29557Y207813D01*
Y207869D01*
X29571Y207924D01*
X29585Y207952D01*
Y207966D01*
X29446Y208035D01*
X29321Y208077D01*
X29266Y208091D01*
X29113D01*
X29044Y208077D01*
X28960Y208063D01*
X28766Y208049D01*
X28572Y208022D01*
X28364Y207994D01*
X28198Y207980D01*
X28128Y207966D01*
X28073Y207952D01*
X28031D01*
X27837Y207924D01*
X27657Y207897D01*
X27490Y207869D01*
X27352Y207855D01*
X27227Y207827D01*
X27102Y207813D01*
X27005Y207800D01*
X26922Y207786D01*
X26783Y207758D01*
X26700Y207744D01*
X26644Y207730D01*
X26631D01*
X26534Y207758D01*
X26464Y207772D01*
X26409D01*
X26034Y207717D01*
X25701Y207689D01*
X25424Y207661D01*
X25188Y207633D01*
X24994D01*
X24855Y207619D01*
X24717D01*
X24689Y207633D01*
X24578Y207647D01*
X24523D01*
X24467Y207661D01*
X24425D01*
X24328Y207675D01*
X24259Y207689D01*
X24204D01*
X24162Y207703D01*
X24107D01*
X23621Y207717D01*
X23413Y207730D01*
X23205Y207744D01*
X23011Y207758D01*
X22831Y207772D01*
X22664Y207800D01*
X22512Y207813D01*
X22387Y207841D01*
X22262Y207855D01*
X22165Y207869D01*
X22082Y207897D01*
X22012Y207911D01*
X21971D01*
X21943Y207924D01*
X21929D01*
X21804Y207938D01*
X21693Y207952D01*
X21596D01*
X21513Y207966D01*
X21222D01*
X21180Y207952D01*
X21166D01*
X21069Y208008D01*
X20972Y208077D01*
X20903Y208160D01*
X20847Y208243D01*
X20806Y208313D01*
X20778Y208382D01*
X20750Y208424D01*
Y208438D01*
X20736Y208493D01*
X20709Y208576D01*
X20681Y208687D01*
X20639Y208812D01*
X20612Y208937D01*
X20584Y209048D01*
X20570Y209117D01*
X20556Y209145D01*
X21291Y212529D01*
X21347Y212515D01*
X21388Y212501D01*
X21416D01*
X21485Y212515D01*
X21541Y212543D01*
X21583Y212584D01*
X21610Y212640D01*
X21638Y212723D01*
Y212751D01*
Y212764D01*
Y212792D01*
X21624Y212834D01*
X21610Y212862D01*
X21596Y212875D01*
X21583Y212931D01*
X21569Y212973D01*
Y212986D01*
X21583Y213000D01*
X21596Y213042D01*
X21666Y213125D01*
X21721Y213208D01*
X21735Y213236D01*
X21749Y213250D01*
X21693Y213291D01*
X21652Y213333D01*
X21596Y213458D01*
X21583Y213513D01*
X21569Y213555D01*
Y213583D01*
Y213597D01*
Y213610D01*
X21583Y213652D01*
X21624Y213749D01*
X21666Y213846D01*
X21680Y213874D01*
Y213888D01*
X21721Y213985D01*
X21749Y214054D01*
X21777Y214096D01*
X21790Y214137D01*
X21804Y214179D01*
Y214207D01*
X21790Y214249D01*
X21777Y214290D01*
Y214304D01*
X21763Y214359D01*
X21749Y214401D01*
Y214415D01*
X21763Y214526D01*
X21818Y214664D01*
X21888Y214817D01*
X21957Y214984D01*
X22040Y215122D01*
X22096Y215261D01*
X22151Y215344D01*
X22165Y215358D01*
Y215372D01*
X22220Y215316D01*
X22262Y215261D01*
X22304Y215205D01*
X22331Y215178D01*
X22387Y215330D01*
X22415Y215469D01*
X22429Y215552D01*
Y215566D01*
Y215580D01*
Y215663D01*
X22415Y215732D01*
X22387Y215830D01*
X22345Y215885D01*
X22331Y215899D01*
X22207Y215774D01*
Y216357D01*
X22276Y216398D01*
X22331Y216440D01*
X22373Y216481D01*
X22401Y216509D01*
X22429Y216565D01*
Y216578D01*
Y216592D01*
X22415Y216606D01*
X22401Y216620D01*
Y216634D01*
X22373Y216703D01*
Y216731D01*
X22387Y216759D01*
X22401Y216786D01*
X22456Y216870D01*
X22512Y216925D01*
X22539Y216953D01*
X22706Y217119D01*
X22636Y217216D01*
X22609Y217272D01*
X22595Y217313D01*
Y217327D01*
X22609Y217424D01*
X22650Y217549D01*
X22706Y217702D01*
X22775Y217868D01*
X22858Y218062D01*
X22956Y218256D01*
X23177Y218659D01*
X23274Y218853D01*
X23385Y219033D01*
X23482Y219213D01*
X23566Y219366D01*
X23635Y219491D01*
X23691Y219588D01*
X23732Y219643D01*
X23746Y219671D01*
X23912Y219796D01*
X24037Y219893D01*
X24093Y219921D01*
X24134Y219948D01*
X24148Y219962D01*
X24162D01*
X24328Y220170D01*
X24398Y220254D01*
X24453Y220323D01*
X24495Y220378D01*
X24523Y220420D01*
X24550Y220434D01*
Y220448D01*
X24675Y220517D01*
X24786Y220572D01*
X24883Y220614D01*
X24980Y220642D01*
X25050Y220656D01*
X25105Y220669D01*
X25147D01*
X25369Y220656D01*
D02*
G37*
G36*
X28350Y207203D02*
X28447Y207190D01*
X28572Y207162D01*
X28683Y207120D01*
X28808Y207078D01*
X28891Y207051D01*
X28960Y207037D01*
X28988Y207023D01*
X29141Y206968D01*
X29266Y206912D01*
X29363Y206870D01*
X29446Y206829D01*
X29515Y206801D01*
X29557Y206773D01*
X29585Y206759D01*
X29598D01*
X29751Y206690D01*
X29917Y206593D01*
X30070Y206468D01*
X30222Y206343D01*
X30514Y206066D01*
X30777Y205775D01*
X30999Y205497D01*
X31096Y205387D01*
X31165Y205276D01*
X31235Y205179D01*
X31277Y205109D01*
X31304Y205068D01*
X31318Y205054D01*
X31471Y204818D01*
X31595Y204582D01*
X31831Y204125D01*
X32011Y203722D01*
X32081Y203528D01*
X32150Y203362D01*
X32192Y203195D01*
X32233Y203057D01*
X32275Y202932D01*
X32303Y202821D01*
X32317Y202738D01*
X32331Y202682D01*
X32344Y202641D01*
Y202627D01*
X32414Y202197D01*
X32441Y201989D01*
X32469Y201808D01*
X32483Y201642D01*
Y201531D01*
X32497Y201448D01*
Y201434D01*
Y201420D01*
X32511Y201379D01*
X32525Y201309D01*
X32538Y201226D01*
X32552Y201143D01*
X32580Y201060D01*
X32594Y200990D01*
X32608Y200935D01*
Y200921D01*
X32650Y200782D01*
X32677Y200671D01*
X32691Y200602D01*
X32705Y200546D01*
X32719Y200519D01*
Y200505D01*
Y200491D01*
Y195485D01*
Y195346D01*
X32705Y195179D01*
X32650Y194819D01*
X32580Y194444D01*
X32511Y194070D01*
X32469Y193890D01*
X32428Y193723D01*
X32386Y193571D01*
X32358Y193446D01*
X32331Y193335D01*
X32303Y193252D01*
X32289Y193196D01*
Y193182D01*
X32233Y192974D01*
X32178Y192794D01*
X32122Y192628D01*
X32081Y192475D01*
X32039Y192350D01*
X31998Y192225D01*
X31970Y192128D01*
X31942Y192059D01*
X31901Y191934D01*
X31873Y191851D01*
X31845Y191809D01*
Y191796D01*
X31720Y191601D01*
X31609Y191463D01*
X31484Y191366D01*
X31387Y191296D01*
X31290Y191255D01*
X31221Y191241D01*
X31179Y191227D01*
X31165D01*
X31124Y191241D01*
X31068Y191269D01*
X30944Y191352D01*
X30888Y191393D01*
X30847Y191435D01*
X30819Y191463D01*
X30805Y191477D01*
X30694Y191574D01*
X30625Y191671D01*
X30569Y191754D01*
X30528Y191823D01*
X30500Y191879D01*
X30486Y191920D01*
Y191934D01*
Y191948D01*
X30833Y193474D01*
X30888Y193737D01*
X30944Y193973D01*
X30985Y194181D01*
X31027Y194347D01*
X31055Y194500D01*
X31082Y194625D01*
X31110Y194722D01*
X31124Y194805D01*
X31138Y194874D01*
X31152Y194930D01*
X31165Y194985D01*
Y195013D01*
X31138Y195138D01*
X31096Y195249D01*
X31055Y195332D01*
X31027Y195346D01*
Y195360D01*
X30971Y195263D01*
X30944Y195179D01*
X30916Y195124D01*
Y195110D01*
X30736Y195068D01*
X30569Y195027D01*
X30431Y194985D01*
X30306Y194958D01*
X30209Y194930D01*
X30111Y194916D01*
X30042Y194888D01*
X29987Y194874D01*
X29904Y194860D01*
X29862Y194847D01*
X29834D01*
X29765Y194833D01*
X29709Y194819D01*
X29668D01*
X29598Y194833D01*
X29543Y194847D01*
X29501Y194860D01*
X29488D01*
X29390Y194805D01*
X29321Y194763D01*
X29266Y194750D01*
X29141D01*
X29016Y194736D01*
X28877Y194722D01*
X28725D01*
X28378Y194680D01*
X28031Y194652D01*
X27712Y194625D01*
X27560Y194611D01*
X27435Y194597D01*
X27338Y194583D01*
X27255D01*
X27199Y194569D01*
X27185D01*
X26963Y194541D01*
X26769Y194528D01*
X26603Y194500D01*
X26450Y194486D01*
X26326Y194472D01*
X26214Y194458D01*
X26131Y194444D01*
X26062D01*
X26007Y194431D01*
X25951D01*
X25896Y194417D01*
X25743D01*
X25590Y194431D01*
X25396Y194444D01*
X25161Y194472D01*
X24897Y194500D01*
X24620Y194528D01*
X24051Y194597D01*
X23760Y194625D01*
X23496Y194652D01*
X23247Y194680D01*
X23025Y194708D01*
X22831Y194736D01*
X22692Y194750D01*
X22636D01*
X22595Y194763D01*
X22567D01*
X22512Y194639D01*
X22470Y194500D01*
X22429Y194347D01*
X22401Y194209D01*
X22373Y194098D01*
X22345Y193987D01*
X22331Y193931D01*
Y193904D01*
X22304Y193751D01*
X22276Y193585D01*
X22248Y193404D01*
X22234Y193238D01*
X22207Y193085D01*
X22193Y192960D01*
X22179Y192877D01*
Y192863D01*
Y192850D01*
X22123Y192739D01*
X22096Y192655D01*
X22082Y192586D01*
Y192572D01*
X22096Y192517D01*
X22109Y192503D01*
Y192489D01*
X22137Y192433D01*
Y192406D01*
X22082Y192295D01*
X22040Y192198D01*
X21943Y192031D01*
X21846Y191920D01*
X21749Y191851D01*
X21680Y191796D01*
X21624Y191782D01*
X21583Y191768D01*
X21569D01*
X21361Y191796D01*
X21291Y191809D01*
X21222Y191837D01*
X21166Y191865D01*
X21125Y191879D01*
X21111Y191907D01*
X21097D01*
X21042Y191962D01*
X20972Y192045D01*
X20861Y192212D01*
X20820Y192295D01*
X20778Y192364D01*
X20764Y192406D01*
X20750Y192420D01*
X20681Y192558D01*
X20639Y192669D01*
X20598Y192766D01*
X20584Y192836D01*
X20570Y192891D01*
X20556Y192947D01*
Y192960D01*
Y192974D01*
X20570Y193182D01*
X20584Y193418D01*
X20612Y193668D01*
X20653Y193945D01*
X20750Y194500D01*
X20875Y195041D01*
X20931Y195304D01*
X20986Y195540D01*
X21042Y195748D01*
X21083Y195942D01*
X21125Y196095D01*
X21153Y196220D01*
X21180Y196289D01*
Y196317D01*
X21263Y196580D01*
X21347Y196844D01*
X21430Y197093D01*
X21499Y197315D01*
X21569Y197509D01*
X21624Y197648D01*
X21638Y197703D01*
X21652Y197745D01*
X21666Y197759D01*
Y197773D01*
X21680Y197870D01*
Y197953D01*
X21693Y198078D01*
Y198147D01*
Y198175D01*
X21860Y198563D01*
X21999Y198910D01*
X22123Y199187D01*
X22220Y199423D01*
X22304Y199603D01*
X22359Y199742D01*
X22387Y199811D01*
X22401Y199839D01*
X22429Y199756D01*
X22442Y199673D01*
Y199617D01*
Y199603D01*
Y199562D01*
X22429Y199506D01*
X22415Y199437D01*
X22387Y199354D01*
X22373Y199271D01*
X22345Y199215D01*
X22331Y199160D01*
Y199146D01*
X22290Y199007D01*
X22248Y198910D01*
X22220Y198827D01*
X22207Y198771D01*
Y198744D01*
X22193Y198716D01*
Y198702D01*
X22207Y198619D01*
X22248Y198536D01*
X22276Y198480D01*
X22290Y198466D01*
X22359Y198536D01*
X22429Y198605D01*
X22553Y198785D01*
X22664Y198993D01*
X22775Y199201D01*
X22858Y199395D01*
X22914Y199548D01*
X22942Y199617D01*
X22956Y199659D01*
X22969Y199687D01*
Y199701D01*
X23524Y201365D01*
X23579Y201448D01*
X23621Y201503D01*
X23635Y201531D01*
Y201545D01*
X23621Y201587D01*
X23607Y201614D01*
X23579Y201670D01*
Y201684D01*
X24897Y204166D01*
Y204222D01*
X24883Y204263D01*
X24869Y204291D01*
X24689D01*
X24634Y204208D01*
X24592Y204152D01*
X24578Y204111D01*
Y204097D01*
X24509Y204152D01*
X24467Y204180D01*
X24439Y204208D01*
X24425D01*
X24453Y204305D01*
X24509Y204402D01*
X24578Y204499D01*
X24661Y204582D01*
X24745Y204638D01*
X24814Y204693D01*
X24869Y204721D01*
X24883Y204735D01*
X24855Y204693D01*
X24842Y204638D01*
X24828Y204582D01*
Y204568D01*
X24842Y204485D01*
X24869Y204430D01*
X24897Y204388D01*
X24911Y204374D01*
X25050Y204527D01*
X25161Y204652D01*
X25258Y204749D01*
X25327Y204846D01*
X25382Y204915D01*
X25438Y204957D01*
X25452Y204984D01*
X25466Y204998D01*
Y205179D01*
X25396Y205234D01*
X25341Y205262D01*
X25258Y205331D01*
X25230Y205359D01*
X25216Y205373D01*
X25230D01*
X25327Y205470D01*
X25396Y205553D01*
X25452Y205609D01*
X25507Y205636D01*
X25535Y205664D01*
X25549Y205678D01*
X25563D01*
X25604Y205595D01*
X25632Y205539D01*
X25660Y205497D01*
Y205484D01*
X25785Y205650D01*
X25882Y205789D01*
X25923Y205844D01*
X25951Y205886D01*
X25965Y205900D01*
Y205914D01*
X25896Y205997D01*
X25840Y206038D01*
X25812Y206052D01*
X25798D01*
X25840Y206066D01*
X25896Y206122D01*
X25923Y206163D01*
X25937Y206177D01*
X26034Y206371D01*
X26131Y206482D01*
X26228Y206579D01*
X26409Y206718D01*
X26589Y206829D01*
X26741Y206912D01*
X26866Y206954D01*
X26977Y206968D01*
X27033Y206981D01*
X27060D01*
X27116Y206968D01*
X27144Y206954D01*
X27213Y207023D01*
X27269Y207078D01*
X27296Y207092D01*
X27310Y207106D01*
X27490Y207120D01*
X27643Y207134D01*
X27782Y207148D01*
X27893Y207162D01*
X27990Y207176D01*
X28073Y207190D01*
X28142D01*
X28198Y207203D01*
X28267D01*
X28298Y207214D01*
X28350Y207203D01*
D02*
G37*
G36*
X24132Y203609D02*
X24093Y203570D01*
X24065Y203500D01*
X24023Y203431D01*
X23996Y203362D01*
X23968Y203292D01*
X23954Y203251D01*
X23940Y203237D01*
Y203528D01*
X23954Y203500D01*
X23968Y203487D01*
X23982Y203473D01*
X24051Y203556D01*
X24079Y203598D01*
X24093Y203625D01*
Y203639D01*
X24132Y203609D01*
D02*
G37*
G36*
X23774Y202973D02*
X23815Y202918D01*
X23843Y202876D01*
X23857Y202862D01*
X23579Y202003D01*
X23510Y201795D01*
X23427Y201642D01*
X23330Y201517D01*
X23247Y201420D01*
X23177Y201365D01*
X23108Y201323D01*
X23066Y201295D01*
X23052D01*
X23136Y201545D01*
X23205Y201739D01*
X23274Y201906D01*
X23330Y202030D01*
X23372Y202127D01*
X23399Y202197D01*
X23427Y202225D01*
Y202238D01*
X23441Y202141D01*
X23455Y202072D01*
X23469Y202044D01*
Y202030D01*
X23482Y202058D01*
X23496Y202114D01*
X23510Y202238D01*
Y202294D01*
Y202349D01*
Y202391D01*
Y202405D01*
Y202433D01*
X23524Y202474D01*
X23579Y202585D01*
X23621Y202682D01*
X23635Y202710D01*
Y202724D01*
X23677Y202821D01*
X23704Y202904D01*
X23732Y202960D01*
X23746Y202987D01*
X23760Y203015D01*
Y203029D01*
X23774Y202973D01*
D02*
G37*
G36*
X23052Y200727D02*
X22817D01*
X22858Y200852D01*
X22900Y200949D01*
X22928Y201004D01*
X22956Y201060D01*
X22969Y201087D01*
X22983Y201101D01*
X22997D01*
X23052Y200727D01*
D02*
G37*
G36*
X22595Y200089D02*
X22567Y200033D01*
X22539Y199992D01*
X22512Y199964D01*
X22456Y199936D01*
X22429D01*
X22470Y200006D01*
X22498Y200061D01*
X22525Y200103D01*
X22539Y200130D01*
X22567Y200158D01*
X22595D01*
Y200089D01*
D02*
G37*
G36*
X25521Y190367D02*
X25618Y190339D01*
X25715Y190284D01*
X25785Y190228D01*
X25854Y190173D01*
X25896Y190117D01*
X25923Y190090D01*
X25937Y190076D01*
X26020Y189965D01*
X26076Y189840D01*
X26131Y189729D01*
X26159Y189618D01*
X26173Y189521D01*
X26187Y189452D01*
Y189396D01*
Y189382D01*
X26173Y189272D01*
X26159Y189160D01*
X26131Y189077D01*
X26117Y189050D01*
Y189036D01*
X26062Y188925D01*
X26034Y188855D01*
X26020Y188814D01*
Y188800D01*
X25979D01*
X25909Y188786D01*
X25840Y188772D01*
X25826Y188758D01*
X25812D01*
X25743Y188745D01*
X25701Y188731D01*
X25632Y188717D01*
X25590D01*
X25466Y188731D01*
X25355Y188758D01*
X25230Y188814D01*
X25119Y188869D01*
X25036Y188925D01*
X24966Y188980D01*
X24911Y189008D01*
X24897Y189022D01*
X24772Y189133D01*
X24689Y189244D01*
X24620Y189341D01*
X24578Y189438D01*
X24550Y189507D01*
X24536Y189563D01*
Y189604D01*
Y189618D01*
X24550Y189757D01*
X24578Y189868D01*
X24620Y189979D01*
X24675Y190062D01*
X24814Y190201D01*
X24980Y190284D01*
X25147Y190339D01*
X25285Y190367D01*
X25341Y190381D01*
X25424D01*
X25521Y190367D01*
D02*
G37*
G36*
X21929Y189868D02*
X22123Y189826D01*
X22304Y189757D01*
X22442Y189688D01*
X22553Y189618D01*
X22636Y189549D01*
X22692Y189507D01*
X22706Y189493D01*
Y189452D01*
Y189410D01*
X22720Y189285D01*
X22747Y189133D01*
X22761Y188966D01*
X22789Y188814D01*
X22803Y188689D01*
Y188633D01*
X22817Y188592D01*
Y188578D01*
Y188564D01*
X22803Y188481D01*
X22761Y188412D01*
X22706Y188342D01*
X22636Y188287D01*
X22567Y188231D01*
X22512Y188190D01*
X22470Y188176D01*
X22456Y188162D01*
X22359Y188106D01*
X22262Y188065D01*
X22193Y188037D01*
X22137Y188023D01*
X22054Y187996D01*
X22026D01*
X21915Y188009D01*
X21790Y188023D01*
X21680Y188051D01*
X21583Y188079D01*
X21485Y188106D01*
X21416Y188134D01*
X21374Y188162D01*
X21361D01*
X21347Y188176D01*
X21319Y188218D01*
X21263Y188301D01*
X21194Y188384D01*
X21180Y188398D01*
X21166Y188412D01*
X21111Y188481D01*
X21069Y188550D01*
X21028Y188633D01*
X21000Y188675D01*
Y188689D01*
X21014Y188869D01*
X21056Y189063D01*
X21111Y189244D01*
X21180Y189438D01*
X21236Y189590D01*
X21291Y189729D01*
X21333Y189812D01*
X21347Y189826D01*
Y189840D01*
X21472Y189868D01*
X21583Y189882D01*
X21693D01*
X21929Y189868D01*
D02*
G37*
G36*
X21693Y186747D02*
X21749Y186720D01*
X21818Y186692D01*
X21902Y186678D01*
X21971D01*
X22040Y186664D01*
X22096D01*
X22193Y186637D01*
X22304Y186581D01*
X22442Y186484D01*
X22581Y186387D01*
X22720Y186290D01*
X22831Y186193D01*
X22900Y186137D01*
X22928Y186110D01*
Y185541D01*
X22664Y185361D01*
X22429Y185222D01*
X22234Y185139D01*
X22068Y185069D01*
X21929Y185028D01*
X21846Y185014D01*
X21777Y185000D01*
X21763D01*
X21652Y185014D01*
X21569Y185042D01*
X21485Y185083D01*
X21416Y185153D01*
X21305Y185291D01*
X21236Y185471D01*
X21180Y185638D01*
X21166Y185791D01*
X21153Y185846D01*
Y185888D01*
Y185915D01*
Y185929D01*
X21180Y186123D01*
X21236Y186290D01*
X21319Y186429D01*
X21416Y186553D01*
X21499Y186650D01*
X21583Y186734D01*
X21638Y186775D01*
X21666Y186789D01*
X21693Y186747D01*
D02*
G37*
%LPC*%
G36*
X824757Y754688D02*
X824583D01*
X824202Y754653D01*
X823820Y754618D01*
X823472Y754549D01*
X823160Y754479D01*
X822917Y754410D01*
X822743Y754375D01*
X822604Y754306D01*
X822570D01*
X821910Y753958D01*
X821632Y753785D01*
X821389Y753576D01*
X821215Y753438D01*
X821077Y753299D01*
X820972Y753229D01*
X820938Y753195D01*
X820452Y752639D01*
X820104Y752083D01*
X820000Y751875D01*
X819896Y751702D01*
X819827Y751563D01*
Y751528D01*
X819688Y751146D01*
X819584Y750799D01*
X819514Y750452D01*
X819445Y750139D01*
Y749896D01*
X819410Y749688D01*
Y749549D01*
Y749514D01*
Y749132D01*
X819479Y748750D01*
X819549Y748403D01*
X819618Y748090D01*
X819688Y747847D01*
X819757Y747674D01*
X819792Y747535D01*
X819827Y747500D01*
X820000Y747153D01*
X820174Y746840D01*
X820347Y746528D01*
X820521Y746285D01*
X820695Y746111D01*
X820834Y745972D01*
X820903Y745868D01*
X820938Y745834D01*
X821493Y745382D01*
X822014Y745000D01*
X822222Y744896D01*
X822396Y744792D01*
X822535Y744757D01*
X822570Y744722D01*
X822917Y744584D01*
X823264Y744479D01*
X823611Y744410D01*
X823924Y744340D01*
X824202D01*
X824410Y744306D01*
X824965D01*
X825347Y744375D01*
X825695Y744445D01*
X826007Y744514D01*
X826250Y744584D01*
X826424Y744653D01*
X826563Y744688D01*
X826597Y744722D01*
X827257Y745070D01*
X827535Y745243D01*
X827778Y745417D01*
X827986Y745590D01*
X828125Y745729D01*
X828229Y745799D01*
X828264Y745834D01*
X828715Y746389D01*
X829063Y746910D01*
X829201Y747153D01*
X829306Y747327D01*
X829340Y747465D01*
X829375Y747500D01*
X829514Y747847D01*
X829618Y748195D01*
X829688Y748542D01*
X829722Y748854D01*
X829757Y749132D01*
X829792Y749340D01*
Y749479D01*
Y749514D01*
X829757Y749896D01*
X829722Y750278D01*
X829653Y750625D01*
X829583Y750903D01*
X829514Y751181D01*
X829445Y751354D01*
X829375Y751493D01*
Y751528D01*
X829028Y752188D01*
X828854Y752465D01*
X828646Y752708D01*
X828507Y752917D01*
X828368Y753056D01*
X828299Y753160D01*
X828264Y753195D01*
X827708Y753646D01*
X827153Y753993D01*
X826945Y754132D01*
X826771Y754236D01*
X826632Y754271D01*
X826597Y754306D01*
X826250Y754445D01*
X825903Y754514D01*
X825556Y754583D01*
X825243Y754653D01*
X824965D01*
X824757Y754688D01*
D02*
G37*
G36*
X822952Y736320D02*
X822396Y736111D01*
X822153Y735973D01*
X821945Y735868D01*
X821771Y735764D01*
X821632Y735660D01*
X821563Y735625D01*
X821528Y735591D01*
X821077Y735209D01*
X820695Y734861D01*
X820556Y734688D01*
X820452Y734584D01*
X820417Y734514D01*
X820382Y734480D01*
X820035Y733993D01*
X819792Y733507D01*
X819688Y733334D01*
X819618Y733195D01*
X819584Y733091D01*
Y733056D01*
X819410Y732466D01*
X819375Y732153D01*
X819340Y731910D01*
X819306Y731667D01*
Y731493D01*
Y731389D01*
Y731355D01*
X819340Y730730D01*
X819375Y730486D01*
X819445Y730209D01*
X819479Y730035D01*
X819549Y729862D01*
X819584Y729757D01*
Y729723D01*
X819827Y729167D01*
X819965Y728924D01*
X820070Y728716D01*
X820209Y728542D01*
X820278Y728403D01*
X820347Y728334D01*
X820382Y728299D01*
X820764Y727848D01*
X821146Y727500D01*
X821285Y727362D01*
X821424Y727257D01*
X821493Y727223D01*
X821528Y727188D01*
X822014Y726875D01*
X822500Y726632D01*
X822674Y726563D01*
X822813Y726493D01*
X822917Y726459D01*
X822952D01*
Y736320D01*
D02*
G37*
G36*
Y702258D02*
X822396Y702049D01*
X822153Y701910D01*
X821945Y701806D01*
X821771Y701702D01*
X821632Y701598D01*
X821563Y701563D01*
X821528Y701528D01*
X821077Y701146D01*
X820695Y700799D01*
X820556Y700626D01*
X820452Y700521D01*
X820417Y700452D01*
X820382Y700417D01*
X820035Y699931D01*
X819792Y699445D01*
X819688Y699272D01*
X819618Y699133D01*
X819584Y699028D01*
Y698994D01*
X819410Y698403D01*
X819375Y698091D01*
X819340Y697848D01*
X819306Y697605D01*
Y697431D01*
Y697327D01*
Y697292D01*
X819340Y696667D01*
X819375Y696424D01*
X819445Y696147D01*
X819479Y695973D01*
X819549Y695799D01*
X819584Y695695D01*
Y695660D01*
X819827Y695105D01*
X819965Y694862D01*
X820070Y694654D01*
X820209Y694480D01*
X820278Y694341D01*
X820347Y694272D01*
X820382Y694237D01*
X820764Y693785D01*
X821146Y693438D01*
X821285Y693299D01*
X821424Y693195D01*
X821493Y693160D01*
X821528Y693126D01*
X822014Y692813D01*
X822500Y692570D01*
X822674Y692501D01*
X822813Y692431D01*
X822917Y692397D01*
X822952D01*
Y702258D01*
D02*
G37*
G36*
X824757Y680244D02*
X824583D01*
X824202Y680209D01*
X823820Y680175D01*
X823472Y680105D01*
X823160Y680036D01*
X822917Y679966D01*
X822743Y679931D01*
X822604Y679862D01*
X822570D01*
X821910Y679515D01*
X821632Y679341D01*
X821389Y679133D01*
X821215Y678994D01*
X821077Y678855D01*
X820972Y678786D01*
X820938Y678751D01*
X820452Y678195D01*
X820104Y677640D01*
X820000Y677431D01*
X819896Y677258D01*
X819827Y677119D01*
Y677084D01*
X819688Y676702D01*
X819584Y676355D01*
X819514Y676008D01*
X819445Y675695D01*
Y675452D01*
X819410Y675244D01*
Y675105D01*
Y675070D01*
Y674688D01*
X819479Y674307D01*
X819549Y673959D01*
X819618Y673647D01*
X819688Y673404D01*
X819757Y673230D01*
X819792Y673091D01*
X819827Y673057D01*
X820000Y672709D01*
X820174Y672397D01*
X820347Y672084D01*
X820521Y671841D01*
X820695Y671668D01*
X820834Y671529D01*
X820903Y671425D01*
X820938Y671390D01*
X821493Y670939D01*
X822014Y670557D01*
X822222Y670452D01*
X822396Y670348D01*
X822535Y670314D01*
X822570Y670279D01*
X822917Y670140D01*
X823264Y670036D01*
X823611Y669966D01*
X823924Y669897D01*
X824202D01*
X824410Y669862D01*
X824965D01*
X825347Y669932D01*
X825695Y670001D01*
X826007Y670070D01*
X826250Y670140D01*
X826424Y670209D01*
X826563Y670244D01*
X826597Y670279D01*
X827257Y670626D01*
X827535Y670800D01*
X827778Y670973D01*
X827986Y671147D01*
X828125Y671286D01*
X828229Y671355D01*
X828264Y671390D01*
X828715Y671945D01*
X829063Y672466D01*
X829201Y672709D01*
X829306Y672883D01*
X829340Y673022D01*
X829375Y673057D01*
X829514Y673404D01*
X829618Y673751D01*
X829688Y674098D01*
X829722Y674411D01*
X829757Y674688D01*
X829792Y674897D01*
Y675036D01*
Y675070D01*
X829757Y675452D01*
X829722Y675834D01*
X829653Y676182D01*
X829583Y676459D01*
X829514Y676737D01*
X829445Y676911D01*
X829375Y677050D01*
Y677084D01*
X829028Y677744D01*
X828854Y678022D01*
X828646Y678265D01*
X828507Y678473D01*
X828368Y678612D01*
X828299Y678716D01*
X828264Y678751D01*
X827708Y679202D01*
X827153Y679550D01*
X826945Y679688D01*
X826771Y679793D01*
X826632Y679827D01*
X826597Y679862D01*
X826250Y680001D01*
X825903Y680070D01*
X825556Y680140D01*
X825243Y680209D01*
X824965D01*
X824757Y680244D01*
D02*
G37*
G36*
X824688Y662189D02*
X824514D01*
X824132Y662154D01*
X823750Y662119D01*
X823438Y662050D01*
X823125Y661980D01*
X822882Y661911D01*
X822709Y661842D01*
X822570Y661772D01*
X822535D01*
X821875Y661425D01*
X821597Y661251D01*
X821354Y661043D01*
X821181Y660904D01*
X821042Y660765D01*
X820938Y660696D01*
X820903Y660661D01*
X820417Y660105D01*
X820070Y659550D01*
X819931Y659342D01*
X819827Y659168D01*
X819792Y659029D01*
X819757Y658994D01*
X819618Y658612D01*
X819514Y658265D01*
X819445Y657918D01*
X819375Y657605D01*
Y657362D01*
X819340Y657154D01*
Y657015D01*
Y656980D01*
Y656599D01*
X819410Y656217D01*
X819479Y655869D01*
X819549Y655557D01*
X819618Y655314D01*
X819688Y655140D01*
X819722Y655001D01*
X819757Y654967D01*
X819931Y654619D01*
X820104Y654307D01*
X820313Y653994D01*
X820486Y653751D01*
X820660Y653578D01*
X820764Y653439D01*
X820868Y653335D01*
X820903Y653300D01*
X821459Y652849D01*
X821979Y652467D01*
X822188Y652362D01*
X822361Y652258D01*
X822500Y652224D01*
X822535Y652189D01*
X822882Y652050D01*
X823229Y651946D01*
X823577Y651876D01*
X823889Y651807D01*
X824132D01*
X824340Y651772D01*
X824896D01*
X825278Y651842D01*
X825625Y651911D01*
X825938Y651981D01*
X826181Y652050D01*
X826389Y652119D01*
X826528Y652154D01*
X826563Y652189D01*
X827222Y652536D01*
X827500Y652710D01*
X827743Y652883D01*
X827917Y653057D01*
X828056Y653196D01*
X828160Y653265D01*
X828195Y653300D01*
X828646Y653855D01*
X828993Y654376D01*
X829132Y654619D01*
X829236Y654793D01*
X829271Y654932D01*
X829306Y654967D01*
X829445Y655314D01*
X829549Y655661D01*
X829618Y656008D01*
X829653Y656321D01*
X829688Y656599D01*
X829722Y656807D01*
Y656946D01*
Y656980D01*
X829688Y657362D01*
X829653Y657744D01*
X829583Y658092D01*
X829514Y658369D01*
X829445Y658647D01*
X829375Y658821D01*
X829306Y658960D01*
Y658994D01*
X828958Y659654D01*
X828785Y659932D01*
X828576Y660175D01*
X828438Y660383D01*
X828299Y660522D01*
X828229Y660626D01*
X828195Y660661D01*
X827639Y661112D01*
X827118Y661460D01*
X826910Y661598D01*
X826702Y661703D01*
X826597Y661737D01*
X826563Y661772D01*
X826181Y661911D01*
X825833Y662015D01*
X825486Y662085D01*
X825174Y662119D01*
X824896Y662154D01*
X824688Y662189D01*
D02*
G37*
G36*
X824757Y644099D02*
X824583D01*
X824202Y644064D01*
X823820Y644029D01*
X823472Y643960D01*
X823160Y643890D01*
X822917Y643821D01*
X822743Y643786D01*
X822604Y643717D01*
X822570D01*
X821910Y643370D01*
X821632Y643196D01*
X821389Y642988D01*
X821215Y642849D01*
X821077Y642710D01*
X820972Y642640D01*
X820938Y642606D01*
X820452Y642050D01*
X820104Y641495D01*
X820000Y641286D01*
X819896Y641113D01*
X819827Y640974D01*
Y640939D01*
X819688Y640557D01*
X819584Y640210D01*
X819514Y639863D01*
X819445Y639550D01*
Y639307D01*
X819410Y639099D01*
Y638960D01*
Y638925D01*
Y638543D01*
X819479Y638161D01*
X819549Y637814D01*
X819618Y637501D01*
X819688Y637258D01*
X819757Y637085D01*
X819792Y636946D01*
X819827Y636911D01*
X820000Y636564D01*
X820174Y636251D01*
X820347Y635939D01*
X820521Y635696D01*
X820695Y635522D01*
X820834Y635383D01*
X820903Y635279D01*
X820938Y635245D01*
X821493Y634793D01*
X822014Y634411D01*
X822222Y634307D01*
X822396Y634203D01*
X822535Y634168D01*
X822570Y634133D01*
X822917Y633995D01*
X823264Y633890D01*
X823611Y633821D01*
X823924Y633751D01*
X824202D01*
X824410Y633717D01*
X824965D01*
X825347Y633786D01*
X825695Y633856D01*
X826007Y633925D01*
X826250Y633995D01*
X826424Y634064D01*
X826563Y634099D01*
X826597Y634133D01*
X827257Y634481D01*
X827535Y634654D01*
X827778Y634828D01*
X827986Y635001D01*
X828125Y635140D01*
X828229Y635210D01*
X828264Y635245D01*
X828715Y635800D01*
X829063Y636321D01*
X829201Y636564D01*
X829306Y636738D01*
X829340Y636876D01*
X829375Y636911D01*
X829514Y637258D01*
X829618Y637606D01*
X829688Y637953D01*
X829722Y638265D01*
X829757Y638543D01*
X829792Y638751D01*
Y638890D01*
Y638925D01*
X829757Y639307D01*
X829722Y639689D01*
X829653Y640036D01*
X829583Y640314D01*
X829514Y640592D01*
X829445Y640765D01*
X829375Y640904D01*
Y640939D01*
X829028Y641599D01*
X828854Y641876D01*
X828646Y642120D01*
X828507Y642328D01*
X828368Y642467D01*
X828299Y642571D01*
X828264Y642606D01*
X827708Y643057D01*
X827153Y643404D01*
X826945Y643543D01*
X826771Y643647D01*
X826632Y643682D01*
X826597Y643717D01*
X826250Y643856D01*
X825903Y643925D01*
X825556Y643994D01*
X825243Y644064D01*
X824965D01*
X824757Y644099D01*
D02*
G37*
G36*
Y614967D02*
X824583D01*
X824202Y614932D01*
X823820Y614898D01*
X823472Y614828D01*
X823160Y614759D01*
X822917Y614689D01*
X822743Y614655D01*
X822604Y614585D01*
X822570D01*
X821910Y614238D01*
X821632Y614064D01*
X821389Y613856D01*
X821215Y613717D01*
X821077Y613578D01*
X820972Y613509D01*
X820938Y613474D01*
X820452Y612918D01*
X820104Y612363D01*
X820000Y612155D01*
X819896Y611981D01*
X819827Y611842D01*
Y611807D01*
X819688Y611425D01*
X819584Y611078D01*
X819514Y610731D01*
X819445Y610419D01*
Y610175D01*
X819410Y609967D01*
Y609828D01*
Y609794D01*
Y609412D01*
X819479Y609030D01*
X819549Y608682D01*
X819618Y608370D01*
X819688Y608127D01*
X819757Y607953D01*
X819792Y607814D01*
X819827Y607780D01*
X820000Y607432D01*
X820174Y607120D01*
X820347Y606807D01*
X820521Y606564D01*
X820695Y606391D01*
X820834Y606252D01*
X820903Y606148D01*
X820938Y606113D01*
X821493Y605662D01*
X822014Y605280D01*
X822222Y605176D01*
X822396Y605071D01*
X822535Y605037D01*
X822570Y605002D01*
X822917Y604863D01*
X823264Y604759D01*
X823611Y604689D01*
X823924Y604620D01*
X824202D01*
X824410Y604585D01*
X824965D01*
X825347Y604655D01*
X825695Y604724D01*
X826007Y604794D01*
X826250Y604863D01*
X826424Y604932D01*
X826563Y604967D01*
X826597Y605002D01*
X827257Y605349D01*
X827535Y605523D01*
X827778Y605696D01*
X827986Y605870D01*
X828125Y606009D01*
X828229Y606078D01*
X828264Y606113D01*
X828715Y606669D01*
X829063Y607189D01*
X829201Y607432D01*
X829306Y607606D01*
X829340Y607745D01*
X829375Y607780D01*
X829514Y608127D01*
X829618Y608474D01*
X829688Y608821D01*
X829722Y609134D01*
X829757Y609412D01*
X829792Y609620D01*
Y609759D01*
Y609794D01*
X829757Y610175D01*
X829722Y610557D01*
X829653Y610905D01*
X829583Y611182D01*
X829514Y611460D01*
X829445Y611634D01*
X829375Y611773D01*
Y611807D01*
X829028Y612467D01*
X828854Y612745D01*
X828646Y612988D01*
X828507Y613196D01*
X828368Y613335D01*
X828299Y613439D01*
X828264Y613474D01*
X827708Y613925D01*
X827153Y614273D01*
X826945Y614412D01*
X826771Y614516D01*
X826632Y614550D01*
X826597Y614585D01*
X826250Y614724D01*
X825903Y614793D01*
X825556Y614863D01*
X825243Y614932D01*
X824965D01*
X824757Y614967D01*
D02*
G37*
G36*
X812159Y542886D02*
X812158Y542886D01*
Y542885D01*
X812159Y542886D01*
D02*
G37*
G36*
X811755Y542211D02*
X811755Y542210D01*
X811754Y542209D01*
Y542209D01*
X811755Y542211D01*
D02*
G37*
G36*
X810324Y539587D02*
X810324Y539586D01*
Y539586D01*
X810324Y539587D01*
D02*
G37*
G36*
X808466Y535474D02*
X808466Y535474D01*
Y535474D01*
X808466Y535474D01*
D02*
G37*
%LPD*%
G36*
X808053Y534414D02*
X808053Y534414D01*
X808053Y534415D01*
X808053Y534414D01*
D02*
G37*
%LPC*%
G36*
X807848Y533862D02*
X807848Y533862D01*
X807848Y533861D01*
X807848Y533862D01*
X807848Y533862D01*
X807848Y533862D01*
D02*
G37*
G36*
X807848Y533861D02*
X807847Y533861D01*
Y533861D01*
X807848Y533861D01*
D02*
G37*
G36*
X806424Y529420D02*
X806424Y529419D01*
X806424Y529419D01*
X806424Y529420D01*
D02*
G37*
G36*
X806016Y527870D02*
X806015Y527869D01*
X806015Y527868D01*
Y527868D01*
X806015Y527869D01*
X806015Y527870D01*
X806016Y527870D01*
D02*
G37*
G36*
X806955Y510537D02*
D01*
Y510537D01*
Y510537D01*
D02*
G37*
G36*
X807157Y496658D02*
X807157D01*
X807157Y496656D01*
X807157Y496657D01*
X807157Y496657D01*
X807157Y496658D01*
X807157Y496658D01*
X807157Y496658D01*
D02*
G37*
G36*
X806627Y530134D02*
X806627Y530134D01*
X806627Y530134D01*
X806627Y530134D01*
D02*
G37*
G36*
X806627Y530134D02*
X806627Y530134D01*
X806627Y530133D01*
X806627Y530133D01*
X806627Y530134D01*
Y530134D01*
X806627Y530134D01*
D02*
G37*
G36*
X827413Y534329D02*
X827260D01*
X826985Y534313D01*
X826711Y534298D01*
X826466Y534268D01*
X826222Y534222D01*
X826009Y534176D01*
X825810Y534115D01*
X825627Y534054D01*
X825459Y533993D01*
X825306Y533932D01*
X825169Y533871D01*
X825062Y533810D01*
X824970Y533764D01*
X824894Y533718D01*
X824848Y533687D01*
X824818Y533657D01*
X824802D01*
X824635Y533520D01*
X824497Y533382D01*
X824375Y533214D01*
X824268Y533061D01*
X824177Y532894D01*
X824100Y532741D01*
X823993Y532420D01*
X823917Y532146D01*
X823902Y532024D01*
X823887Y531917D01*
X823871Y531825D01*
Y531764D01*
Y531718D01*
Y531703D01*
X823887Y531474D01*
X823902Y531260D01*
X824009Y530879D01*
X824131Y530543D01*
X824284Y530268D01*
X824451Y530054D01*
X824512Y529963D01*
X824574Y529886D01*
X824635Y529841D01*
X824680Y529795D01*
X824696Y529780D01*
X824711Y529764D01*
X824879Y529642D01*
X825047Y529520D01*
X825428Y529352D01*
X825825Y529215D01*
X826222Y529138D01*
X826405Y529108D01*
X826573Y529077D01*
X826711Y529062D01*
X826848D01*
X826955Y529047D01*
X830603D01*
Y531413D01*
X830588Y531657D01*
X830557Y531901D01*
X830527Y532115D01*
X830466Y532329D01*
X830405Y532527D01*
X830329Y532695D01*
X830237Y532863D01*
X830161Y533000D01*
X830084Y533138D01*
X829993Y533245D01*
X829916Y533336D01*
X829855Y533428D01*
X829794Y533489D01*
X829749Y533535D01*
X829733Y533550D01*
X829718Y533565D01*
X829535Y533703D01*
X829352Y533810D01*
X829153Y533916D01*
X828955Y534008D01*
X828542Y534145D01*
X828146Y534237D01*
X827962Y534268D01*
X827794Y534283D01*
X827642Y534298D01*
X827520Y534313D01*
X827413Y534329D01*
D02*
G37*
G36*
X826253Y521674D02*
X825825Y521597D01*
X825444Y521475D01*
X825123Y521338D01*
X824848Y521185D01*
X824619Y521048D01*
X824528Y520971D01*
X824467Y520926D01*
X824406Y520864D01*
X824360Y520834D01*
X824344Y520819D01*
X824329Y520803D01*
X824207Y520666D01*
X824085Y520513D01*
X823902Y520208D01*
X823780Y519888D01*
X823688Y519613D01*
X823627Y519353D01*
X823612Y519246D01*
Y519155D01*
X823596Y519078D01*
Y519017D01*
Y518987D01*
Y518972D01*
X823612Y518743D01*
X823627Y518529D01*
X823719Y518147D01*
X823841Y517827D01*
X823978Y517552D01*
X824116Y517323D01*
X824177Y517247D01*
X824238Y517170D01*
X824284Y517124D01*
X824329Y517079D01*
X824344Y517048D01*
X824360D01*
X824650Y516819D01*
X824970Y516636D01*
X825291Y516514D01*
X825581Y516422D01*
X825856Y516361D01*
X825963Y516346D01*
X826054Y516331D01*
X826146D01*
X826207Y516315D01*
X826253D01*
Y521674D01*
D02*
G37*
G36*
Y497112D02*
X825825Y497035D01*
X825444Y496913D01*
X825123Y496776D01*
X824848Y496623D01*
X824619Y496486D01*
X824528Y496409D01*
X824467Y496363D01*
X824406Y496302D01*
X824360Y496272D01*
X824344Y496257D01*
X824329Y496241D01*
X824207Y496104D01*
X824085Y495951D01*
X823902Y495646D01*
X823780Y495326D01*
X823688Y495051D01*
X823627Y494791D01*
X823612Y494684D01*
Y494593D01*
X823596Y494516D01*
Y494455D01*
Y494425D01*
Y494410D01*
X823612Y494181D01*
X823627Y493967D01*
X823719Y493585D01*
X823841Y493265D01*
X823978Y492990D01*
X824116Y492761D01*
X824177Y492685D01*
X824238Y492608D01*
X824284Y492562D01*
X824329Y492517D01*
X824344Y492486D01*
X824360D01*
X824650Y492257D01*
X824970Y492074D01*
X825291Y491952D01*
X825581Y491860D01*
X825856Y491799D01*
X825963Y491784D01*
X826054Y491769D01*
X826146D01*
X826207Y491753D01*
X826253D01*
Y497112D01*
D02*
G37*
G36*
Y479572D02*
X825825Y479495D01*
X825444Y479373D01*
X825123Y479236D01*
X824848Y479083D01*
X824619Y478946D01*
X824528Y478869D01*
X824467Y478824D01*
X824406Y478763D01*
X824360Y478732D01*
X824344Y478717D01*
X824329Y478702D01*
X824207Y478564D01*
X824085Y478411D01*
X823902Y478106D01*
X823780Y477785D01*
X823688Y477511D01*
X823627Y477251D01*
X823612Y477144D01*
Y477053D01*
X823596Y476977D01*
Y476915D01*
Y476885D01*
Y476870D01*
X823612Y476641D01*
X823627Y476427D01*
X823719Y476045D01*
X823841Y475725D01*
X823978Y475450D01*
X824116Y475221D01*
X824177Y475145D01*
X824238Y475068D01*
X824284Y475023D01*
X824329Y474977D01*
X824344Y474946D01*
X824360D01*
X824650Y474717D01*
X824970Y474534D01*
X825291Y474412D01*
X825581Y474320D01*
X825856Y474259D01*
X825963Y474244D01*
X826054Y474229D01*
X826146D01*
X826207Y474213D01*
X826253D01*
Y479572D01*
D02*
G37*
G36*
X824934Y374644D02*
X819834Y372354D01*
X824934Y370117D01*
Y374644D01*
D02*
G37*
G36*
X824726Y358684D02*
X821985D01*
X821569Y358667D01*
X820424D01*
X820094Y358649D01*
X819504D01*
X819244Y358632D01*
X818758D01*
X818550Y358615D01*
X818359D01*
X818030Y358597D01*
X817752Y358580D01*
X817544D01*
X817388Y358563D01*
X817266D01*
X817197Y358545D01*
X817145D01*
X816815Y358476D01*
X816520Y358406D01*
X816295Y358320D01*
X816104Y358216D01*
X815965Y358146D01*
X815861Y358077D01*
X815809Y358025D01*
X815792Y358007D01*
X815705Y357903D01*
X815636Y357765D01*
X815584Y357643D01*
X815549Y357522D01*
X815532Y357418D01*
X815514Y357331D01*
Y357279D01*
Y357262D01*
X815532Y357036D01*
X815566Y356862D01*
X815636Y356706D01*
X815688Y356567D01*
X815757Y356481D01*
X815826Y356411D01*
X815861Y356377D01*
X815879Y356359D01*
X815983Y356290D01*
X816121Y356221D01*
X816434Y356099D01*
X816763Y356012D01*
X817110Y355943D01*
X817422Y355891D01*
X817579Y355874D01*
X817700Y355856D01*
X817804D01*
X817874Y355839D01*
X818012D01*
X818099Y355822D01*
X818602D01*
X818932Y355804D01*
X819678D01*
X820476Y355787D01*
X822523D01*
X827259Y355839D01*
X827710Y355874D01*
X828109Y355943D01*
X828439Y356030D01*
X828699Y356116D01*
X828907Y356221D01*
X829046Y356290D01*
X829133Y356342D01*
X829167Y356359D01*
X829289Y356481D01*
X829376Y356602D01*
X829427Y356741D01*
X829462Y356880D01*
X829497Y357001D01*
X829514Y357105D01*
Y357175D01*
Y357192D01*
X829497Y357366D01*
X829480Y357539D01*
X829427Y357678D01*
X829376Y357782D01*
X829341Y357886D01*
X829289Y357955D01*
X829271Y357990D01*
X829254Y358007D01*
X829133Y358111D01*
X828976Y358198D01*
X828803Y358285D01*
X828630Y358354D01*
X828473Y358406D01*
X828335Y358441D01*
X828248Y358476D01*
X828213D01*
X827988Y358511D01*
X827727Y358545D01*
X827415Y358580D01*
X827103Y358597D01*
X826756Y358615D01*
X826392Y358632D01*
X825680Y358649D01*
X825351Y358667D01*
X825021D01*
X824726Y358684D01*
D02*
G37*
G36*
X822419Y326746D02*
X815896D01*
Y325584D01*
Y325254D01*
X815931Y324959D01*
X815965Y324682D01*
X816017Y324421D01*
X816087Y324196D01*
X816156Y323988D01*
X816226Y323797D01*
X816295Y323623D01*
X816382Y323467D01*
X816451Y323346D01*
X816520Y323242D01*
X816590Y323155D01*
X816642Y323086D01*
X816677Y323033D01*
X816694Y323016D01*
X816711Y322999D01*
X816867Y322860D01*
X817058Y322738D01*
X817440Y322530D01*
X817874Y322392D01*
X818273Y322305D01*
X818637Y322235D01*
X818810Y322218D01*
X818949D01*
X819071Y322201D01*
X819227D01*
X819643Y322218D01*
X820025Y322270D01*
X820354Y322340D01*
X820615Y322426D01*
X820840Y322513D01*
X820996Y322582D01*
X821100Y322635D01*
X821135Y322652D01*
X821395Y322825D01*
X821603Y323016D01*
X821777Y323224D01*
X821916Y323415D01*
X822020Y323589D01*
X822089Y323727D01*
X822124Y323814D01*
X822141Y323831D01*
Y323849D01*
X822193Y324005D01*
X822228Y324161D01*
X822297Y324525D01*
X822349Y324890D01*
X822384Y325271D01*
X822402Y325601D01*
Y325740D01*
X822419Y325879D01*
Y325983D01*
Y326052D01*
Y326104D01*
Y326121D01*
Y326746D01*
D02*
G37*
G36*
X24315Y252470D02*
X24301D01*
X24259Y252442D01*
X24218Y252387D01*
X24162Y252262D01*
X24120Y252109D01*
X24093Y251957D01*
X24079Y251804D01*
X24065Y251665D01*
Y251610D01*
Y251582D01*
Y251555D01*
Y251541D01*
Y249294D01*
X24079Y249252D01*
X24134Y249238D01*
X24176Y249225D01*
X24190D01*
X24245Y249238D01*
X24315Y249280D01*
X24370Y249335D01*
X24439Y249405D01*
X24495Y249474D01*
X24536Y249530D01*
X24564Y249571D01*
X24578Y249585D01*
X24661Y249710D01*
X24731Y249835D01*
X24772Y249932D01*
X24814Y250015D01*
X24828Y250084D01*
X24842Y250140D01*
X24855Y250168D01*
Y250182D01*
X24911Y250528D01*
X24966Y250847D01*
X25008Y251152D01*
X25036Y251416D01*
X25064Y251624D01*
X25077Y251721D01*
Y251790D01*
Y251846D01*
X25091Y251887D01*
Y251915D01*
Y251929D01*
X25036Y252054D01*
X24980Y252137D01*
X24939Y252206D01*
X24897Y252262D01*
X24869Y252290D01*
X24855Y252303D01*
X24842Y252317D01*
X24675Y252359D01*
X24495Y252414D01*
X24412Y252442D01*
X24356Y252456D01*
X24315Y252470D01*
D02*
G37*
G36*
X22928Y217105D02*
X22858Y217050D01*
X22789Y217022D01*
X22734Y217008D01*
X22706D01*
X22761Y216953D01*
X22803Y216911D01*
X22872Y216856D01*
X22900Y216828D01*
X22914D01*
X22928Y216842D01*
Y217105D01*
D02*
G37*
G36*
X21804Y214567D02*
Y214318D01*
X21860Y214304D01*
X21902Y214276D01*
X21943Y214262D01*
X21957Y214249D01*
X22012Y214345D01*
X22054Y214429D01*
X22068Y214484D01*
X22082Y214498D01*
X21804Y214567D01*
D02*
G37*
G36*
X31360Y218284D02*
X31346D01*
X31290Y218270D01*
X31221Y218229D01*
X31152Y218173D01*
X31068Y218090D01*
X30985Y218007D01*
X30902Y217896D01*
X30722Y217674D01*
X30555Y217452D01*
X30486Y217341D01*
X30417Y217258D01*
X30361Y217175D01*
X30333Y217119D01*
X30306Y217078D01*
X30292Y217064D01*
X30015Y216634D01*
X29765Y216190D01*
X29543Y215760D01*
X29349Y215372D01*
X29266Y215191D01*
X29196Y215025D01*
X29127Y214872D01*
X29071Y214748D01*
X29030Y214651D01*
X29002Y214581D01*
X28988Y214526D01*
X28974Y214512D01*
X28933Y214401D01*
X28877Y214262D01*
X28822Y214096D01*
X28752Y213916D01*
X28614Y213513D01*
X28461Y213111D01*
X28392Y212917D01*
X28336Y212723D01*
X28267Y212556D01*
X28225Y212404D01*
X28170Y212279D01*
X28142Y212182D01*
X28128Y212127D01*
X28115Y212099D01*
X28087Y211932D01*
X28073Y211821D01*
Y211738D01*
Y211724D01*
Y211710D01*
X27990Y211572D01*
X27934Y211461D01*
X27893Y211392D01*
X27879Y211378D01*
Y211364D01*
X27796Y211059D01*
X27768Y210906D01*
X27726Y210767D01*
X27698Y210657D01*
X27671Y210573D01*
X27643Y210518D01*
Y210490D01*
X27587Y210296D01*
X27546Y210143D01*
X27504Y210019D01*
X27490Y209935D01*
X27477Y209894D01*
X27463Y209852D01*
Y209838D01*
Y209616D01*
X27574Y209533D01*
X27685Y209492D01*
X27740D01*
X27782Y209478D01*
X27906D01*
X28073Y209492D01*
X28212Y209506D01*
X28309D01*
X28378Y209519D01*
X28503D01*
X28558Y209533D01*
X28642Y209547D01*
X28725Y209561D01*
X28808Y209575D01*
X28877Y209589D01*
X28933Y209603D01*
X28988D01*
X29058Y209575D01*
X29141Y209561D01*
X29238Y209533D01*
X29321Y209506D01*
X29404Y209492D01*
X29460Y209464D01*
X29474D01*
X29640Y209422D01*
X29779Y209381D01*
X29904Y209353D01*
X30001Y209325D01*
X30084Y209297D01*
X30153Y209284D01*
X30181Y209270D01*
X30195D01*
X30486Y210046D01*
X30749Y210809D01*
X30971Y211530D01*
X31152Y212224D01*
X31318Y212875D01*
X31457Y213500D01*
X31568Y214068D01*
X31651Y214595D01*
X31720Y215081D01*
X31748Y215303D01*
X31776Y215511D01*
X31790Y215691D01*
X31804Y215871D01*
X31817Y216038D01*
X31831Y216190D01*
X31845Y216315D01*
Y216426D01*
X31859Y216523D01*
Y216606D01*
Y216675D01*
Y216717D01*
Y216745D01*
Y216759D01*
Y216897D01*
X31845Y217036D01*
X31817Y217175D01*
X31804Y217313D01*
X31776Y217438D01*
X31748Y217535D01*
X31734Y217591D01*
Y217619D01*
X31693Y217729D01*
X31665Y217840D01*
X31595Y218007D01*
X31526Y218118D01*
X31471Y218201D01*
X31415Y218256D01*
X31374Y218270D01*
X31360Y218284D01*
D02*
G37*
G36*
X25590Y218950D02*
X25577D01*
X25493Y218936D01*
X25410Y218894D01*
X25327Y218839D01*
X25230Y218756D01*
X25147Y218659D01*
X25064Y218548D01*
X24911Y218312D01*
X24772Y218076D01*
X24717Y217965D01*
X24675Y217868D01*
X24634Y217799D01*
X24606Y217729D01*
X24578Y217688D01*
Y217674D01*
X24481Y217535D01*
X24398Y217438D01*
X24342Y217369D01*
X24328Y217341D01*
X24120Y216772D01*
X23926Y216218D01*
X23746Y215663D01*
X23579Y215136D01*
X23427Y214623D01*
X23288Y214137D01*
X23163Y213666D01*
X23052Y213250D01*
X22956Y212848D01*
X22872Y212501D01*
X22803Y212196D01*
X22734Y211932D01*
X22692Y211710D01*
X22678Y211627D01*
X22664Y211558D01*
X22650Y211502D01*
X22636Y211461D01*
Y211447D01*
Y211433D01*
X22623Y211392D01*
X22609Y211336D01*
X22581Y211184D01*
X22539Y211017D01*
X22484Y210851D01*
X22442Y210684D01*
X22415Y210546D01*
X22401Y210490D01*
X22387Y210462D01*
X22373Y210435D01*
Y210421D01*
X22318Y210199D01*
X22276Y210033D01*
X22234Y209894D01*
X22220Y209797D01*
X22207Y209741D01*
X22193Y209700D01*
Y209672D01*
X22220Y209561D01*
X22276Y209464D01*
X22359Y209381D01*
X22470Y209311D01*
X22567Y209270D01*
X22650Y209228D01*
X22706Y209214D01*
X22734Y209200D01*
X25216D01*
X25396Y209242D01*
X25563Y209284D01*
X25701Y209311D01*
X25812Y209325D01*
X25896Y209353D01*
X25965D01*
X26007Y209367D01*
X26020D01*
Y209464D01*
Y209492D01*
Y209506D01*
X26007Y209686D01*
X25993Y209866D01*
X25979Y209949D01*
Y210005D01*
X25965Y210046D01*
Y210060D01*
X25937Y210185D01*
X25909Y210296D01*
X25896Y210393D01*
X25882Y210462D01*
X25868Y210518D01*
X25854Y210560D01*
Y210587D01*
Y210601D01*
X25868Y210629D01*
X25882Y210698D01*
X25896Y210767D01*
X25909Y210781D01*
Y210795D01*
X25923Y210865D01*
X25937Y210920D01*
Y210962D01*
X25951Y210989D01*
Y211017D01*
X25965Y211239D01*
X25979Y211475D01*
X26007Y211710D01*
X26034Y211932D01*
X26062Y212127D01*
X26090Y212279D01*
X26104Y212335D01*
X26117Y212376D01*
Y212404D01*
Y212418D01*
X26159Y212681D01*
X26201Y212903D01*
X26242Y213097D01*
X26270Y213264D01*
X26298Y213416D01*
X26312Y213541D01*
X26339Y213638D01*
X26353Y213722D01*
Y213791D01*
X26367Y213832D01*
X26381Y213902D01*
Y213930D01*
Y213957D01*
X26409Y214027D01*
X26423Y214096D01*
X26450Y214193D01*
X26478Y214276D01*
X26492Y214359D01*
X26520Y214415D01*
Y214429D01*
X26561Y214595D01*
X26603Y214720D01*
X26631Y214803D01*
X26644Y214872D01*
X26658Y214914D01*
Y214928D01*
Y214942D01*
Y215303D01*
X26644Y215649D01*
X26631Y215968D01*
X26617Y216259D01*
X26589Y216537D01*
X26561Y216800D01*
X26520Y217036D01*
X26492Y217258D01*
X26450Y217466D01*
X26409Y217646D01*
X26367Y217813D01*
X26312Y217965D01*
X26270Y218118D01*
X26214Y218243D01*
X26117Y218451D01*
X26020Y218617D01*
X25923Y218742D01*
X25826Y218825D01*
X25743Y218894D01*
X25674Y218922D01*
X25618Y218936D01*
X25590Y218950D01*
D02*
G37*
G36*
X21874Y197482D02*
Y197468D01*
Y197454D01*
Y197384D01*
X21860Y197301D01*
X21846Y197107D01*
X21832Y197024D01*
X21818Y196955D01*
X21804Y196899D01*
Y196885D01*
X21860Y196899D01*
X21902Y196927D01*
X21957Y197010D01*
X21971Y197079D01*
Y197107D01*
Y197121D01*
Y197135D01*
Y197149D01*
X21957Y197218D01*
X21943Y197274D01*
X21929Y197301D01*
X21915Y197357D01*
X21902Y197398D01*
X21888Y197454D01*
X21874Y197482D01*
D02*
G37*
G36*
X28031Y205816D02*
X27920D01*
X27837Y205789D01*
X27657Y205719D01*
X27490Y205622D01*
X27338Y205511D01*
X27199Y205387D01*
X27102Y205289D01*
X27033Y205220D01*
X27005Y205206D01*
Y205192D01*
X26575Y204679D01*
X26187Y204180D01*
X25854Y203695D01*
X25715Y203473D01*
X25590Y203265D01*
X25466Y203071D01*
X25369Y202890D01*
X25285Y202738D01*
X25202Y202599D01*
X25147Y202502D01*
X25105Y202419D01*
X25091Y202363D01*
X25077Y202349D01*
X24994Y202169D01*
X24911Y201975D01*
X24814Y201753D01*
X24717Y201517D01*
X24509Y201004D01*
X24315Y200505D01*
X24218Y200255D01*
X24134Y200033D01*
X24065Y199825D01*
X23996Y199645D01*
X23940Y199492D01*
X23898Y199382D01*
X23871Y199312D01*
X23857Y199284D01*
X23691Y198827D01*
X23538Y198411D01*
X23413Y198050D01*
X23302Y197731D01*
X23205Y197454D01*
X23122Y197204D01*
X23052Y196996D01*
X23011Y196830D01*
X22969Y196691D01*
X22942Y196566D01*
X22914Y196483D01*
X22900Y196414D01*
X22886Y196372D01*
Y196344D01*
Y196317D01*
X22900Y196261D01*
X22914Y196178D01*
X22928Y196109D01*
X22942Y196095D01*
Y196081D01*
X23150Y196053D01*
X23330Y196012D01*
X23482Y195998D01*
X23621Y195970D01*
X23746Y195956D01*
X23843Y195928D01*
X23926D01*
X23996Y195914D01*
X24093Y195901D01*
X24148Y195887D01*
X24176D01*
X26464Y195998D01*
X26575Y196012D01*
X26700D01*
X26991Y196039D01*
X27310Y196067D01*
X27629Y196109D01*
X27920Y196136D01*
X28059Y196150D01*
X28170Y196164D01*
X28267Y196178D01*
X28336Y196192D01*
X28392D01*
X28600Y196220D01*
X28780Y196233D01*
X28933Y196261D01*
X29085Y196275D01*
X29196Y196289D01*
X29307Y196303D01*
X29390Y196317D01*
X29474D01*
X29571Y196331D01*
X29640Y196344D01*
X29862D01*
X30015Y196317D01*
X30153Y196303D01*
X30278Y196275D01*
X30403Y196247D01*
X30486Y196220D01*
X30542Y196206D01*
X30569Y196192D01*
X30680Y196081D01*
X30777Y195984D01*
X30833Y195928D01*
X30847Y195901D01*
X30985Y195817D01*
X31096Y195776D01*
X31193Y195762D01*
X31221D01*
X31290Y196317D01*
X31332Y196844D01*
X31346Y197093D01*
X31374Y197329D01*
X31387Y197551D01*
Y197759D01*
X31401Y197939D01*
Y198120D01*
X31415Y198258D01*
Y198383D01*
Y198480D01*
Y198563D01*
Y198605D01*
Y198619D01*
X31484Y198744D01*
X31512Y198827D01*
X31526Y198882D01*
Y198896D01*
Y198910D01*
X31512Y198952D01*
X31484Y199035D01*
X31457Y199118D01*
X31443Y199146D01*
Y199160D01*
X31415Y199645D01*
X31374Y200089D01*
X31332Y200491D01*
X31290Y200865D01*
X31249Y201212D01*
X31221Y201517D01*
X31179Y201795D01*
X31138Y202044D01*
X31110Y202266D01*
X31068Y202446D01*
X31041Y202599D01*
X31027Y202724D01*
X30999Y202821D01*
X30985Y202890D01*
X30971Y202932D01*
Y202946D01*
X30888Y203237D01*
X30777Y203514D01*
X30666Y203764D01*
X30555Y203972D01*
X30444Y204166D01*
X30361Y204291D01*
X30320Y204346D01*
X30306Y204388D01*
X30278Y204402D01*
Y204416D01*
X30125Y204610D01*
X29987Y204776D01*
X29848Y204929D01*
X29709Y205068D01*
X29585Y205179D01*
X29460Y205289D01*
X29349Y205373D01*
X29252Y205442D01*
X29071Y205553D01*
X28933Y205622D01*
X28877Y205636D01*
X28836Y205650D01*
X28822Y205664D01*
X28808D01*
X28780Y205678D01*
X28752Y205706D01*
X28739Y205719D01*
Y205733D01*
X28697D01*
X28614Y205747D01*
X28503Y205761D01*
X28364Y205775D01*
X28239Y205789D01*
X28115Y205803D01*
X28031Y205816D01*
D02*
G37*
%LPD*%
D16*
X534999Y1148498D02*
D03*
X578999D02*
D03*
D43*
X102298Y933299D02*
D03*
X127698D02*
D03*
X153098D02*
D03*
X178498D02*
D03*
X203898D02*
D03*
X229298D02*
D03*
X254698D02*
D03*
X280098D02*
D03*
X356298Y907899D02*
D03*
X381698D02*
D03*
X407098D02*
D03*
X432498D02*
D03*
X457898D02*
D03*
X483298D02*
D03*
X508698D02*
D03*
X534098D02*
D03*
X584898D02*
D03*
X610298D02*
D03*
X635698D02*
D03*
X305498Y933299D02*
D03*
X330898D02*
D03*
X356298D02*
D03*
X381698D02*
D03*
X407098D02*
D03*
X432498D02*
D03*
X457898D02*
D03*
X483298D02*
D03*
X508698D02*
D03*
X534098D02*
D03*
X559498D02*
D03*
X584898D02*
D03*
X610298D02*
D03*
X635698D02*
D03*
X127698Y907899D02*
D03*
X153098D02*
D03*
X178498D02*
D03*
X203898D02*
D03*
X229298D02*
D03*
X254698D02*
D03*
X280098D02*
D03*
X305498D02*
D03*
X661098D02*
D03*
X686498D02*
D03*
X711898D02*
D03*
X737298D02*
D03*
X661098Y933299D02*
D03*
X686498D02*
D03*
X711898D02*
D03*
X737298D02*
D03*
X77099Y831901D02*
D03*
Y806501D02*
D03*
Y781101D02*
D03*
Y755701D02*
D03*
Y730301D02*
D03*
Y704901D02*
D03*
Y679501D02*
D03*
Y654101D02*
D03*
X51699Y577901D02*
D03*
Y552501D02*
D03*
Y527101D02*
D03*
Y501701D02*
D03*
Y476301D02*
D03*
Y450901D02*
D03*
Y425501D02*
D03*
Y400101D02*
D03*
Y349301D02*
D03*
Y323901D02*
D03*
Y298501D02*
D03*
X77099Y628701D02*
D03*
Y603301D02*
D03*
Y577901D02*
D03*
Y552501D02*
D03*
Y527101D02*
D03*
Y501701D02*
D03*
Y476301D02*
D03*
Y450901D02*
D03*
Y425501D02*
D03*
Y400101D02*
D03*
Y374701D02*
D03*
Y349301D02*
D03*
Y323901D02*
D03*
Y298501D02*
D03*
X51699Y806501D02*
D03*
Y781101D02*
D03*
Y755701D02*
D03*
Y730301D02*
D03*
Y704901D02*
D03*
Y679501D02*
D03*
Y654101D02*
D03*
Y628701D02*
D03*
Y273101D02*
D03*
Y247701D02*
D03*
Y222301D02*
D03*
Y196901D02*
D03*
X77099Y273101D02*
D03*
Y247701D02*
D03*
Y222301D02*
D03*
Y196901D02*
D03*
X788299Y831901D02*
D03*
Y806501D02*
D03*
Y781101D02*
D03*
Y755701D02*
D03*
Y730301D02*
D03*
Y704901D02*
D03*
Y679501D02*
D03*
Y654101D02*
D03*
X762899Y577901D02*
D03*
Y552501D02*
D03*
Y527101D02*
D03*
Y501701D02*
D03*
Y476301D02*
D03*
Y450901D02*
D03*
Y425501D02*
D03*
Y400101D02*
D03*
Y349301D02*
D03*
Y323901D02*
D03*
Y298501D02*
D03*
X788299Y628701D02*
D03*
Y603301D02*
D03*
Y577901D02*
D03*
Y552501D02*
D03*
Y527101D02*
D03*
Y501701D02*
D03*
Y476301D02*
D03*
Y450901D02*
D03*
Y425501D02*
D03*
Y400101D02*
D03*
Y374701D02*
D03*
Y349301D02*
D03*
Y323901D02*
D03*
Y298501D02*
D03*
X762899Y806501D02*
D03*
Y781101D02*
D03*
Y755701D02*
D03*
Y730301D02*
D03*
Y704901D02*
D03*
Y679501D02*
D03*
Y654101D02*
D03*
Y628701D02*
D03*
Y273101D02*
D03*
Y247701D02*
D03*
Y222301D02*
D03*
Y196901D02*
D03*
X788299Y273101D02*
D03*
Y247701D02*
D03*
Y222301D02*
D03*
Y196901D02*
D03*
X207200Y1071100D02*
D03*
X194500Y1045700D02*
D03*
X169100D02*
D03*
X118300D02*
D03*
X131000Y1071100D02*
D03*
X156400D02*
D03*
X181800D02*
D03*
X143700Y1045700D02*
D03*
X549300Y975000D02*
D03*
X493700Y1030702D02*
D03*
X468300D02*
D03*
X493700Y1056102D02*
D03*
D52*
X455000Y739200D02*
D03*
X390000Y289200D02*
D03*
D53*
X825000Y1064200D02*
D03*
Y1115000D02*
D03*
Y1089600D02*
D03*
Y1013400D02*
D03*
Y988000D02*
D03*
Y962600D02*
D03*
Y1038800D02*
D03*
Y937200D02*
D03*
D57*
X343499Y1093898D02*
D03*
D113*
X691000Y485002D02*
D03*
Y471002D02*
D03*
X175750Y1145598D02*
D03*
Y1159598D02*
D03*
X144750D02*
D03*
Y1145598D02*
D03*
X406000Y966002D02*
D03*
Y980002D02*
D03*
X444000Y966002D02*
D03*
Y980002D02*
D03*
X425000D02*
D03*
Y966002D02*
D03*
X660000Y1008000D02*
D03*
Y1022000D02*
D03*
X678750Y1008002D02*
D03*
Y1022002D02*
D03*
X716750Y1008000D02*
D03*
Y1022000D02*
D03*
X753750Y982005D02*
D03*
Y996005D02*
D03*
X735750Y1008000D02*
D03*
Y1022000D02*
D03*
X753750Y1008002D02*
D03*
Y1022002D02*
D03*
X660000Y996003D02*
D03*
Y982003D02*
D03*
X678750Y996005D02*
D03*
Y982005D02*
D03*
X693000Y996003D02*
D03*
Y982003D02*
D03*
X716750Y996003D02*
D03*
Y982003D02*
D03*
X735750Y996003D02*
D03*
Y982003D02*
D03*
X641000Y472002D02*
D03*
Y458002D02*
D03*
X658000Y481002D02*
D03*
Y467002D02*
D03*
X674000Y493002D02*
D03*
Y479002D02*
D03*
X709000Y489002D02*
D03*
Y475002D02*
D03*
X691000Y459002D02*
D03*
Y445002D02*
D03*
X674000Y463002D02*
D03*
Y449002D02*
D03*
X658000Y455000D02*
D03*
Y441000D02*
D03*
X641000Y446002D02*
D03*
Y432002D02*
D03*
Y420002D02*
D03*
Y406002D02*
D03*
X627000Y429002D02*
D03*
Y415002D02*
D03*
X614000Y414998D02*
D03*
Y428998D02*
D03*
X658000Y429000D02*
D03*
Y415000D02*
D03*
X691000Y433002D02*
D03*
Y419002D02*
D03*
X709000Y437002D02*
D03*
Y423002D02*
D03*
X674000Y437002D02*
D03*
Y423002D02*
D03*
X548000Y396998D02*
D03*
Y382998D02*
D03*
X566000Y396998D02*
D03*
Y382998D02*
D03*
X443000Y383002D02*
D03*
Y397002D02*
D03*
Y371002D02*
D03*
Y357002D02*
D03*
X456000Y371002D02*
D03*
Y357002D02*
D03*
X427000Y281998D02*
D03*
Y267998D02*
D03*
X440000D02*
D03*
Y281998D02*
D03*
X508000Y280002D02*
D03*
Y266002D02*
D03*
X724000Y378998D02*
D03*
Y364998D02*
D03*
X723000Y295002D02*
D03*
Y309002D02*
D03*
X516000Y617998D02*
D03*
Y631998D02*
D03*
X217000Y189498D02*
D03*
Y203498D02*
D03*
X156750Y1090602D02*
D03*
Y1104602D02*
D03*
X143750D02*
D03*
Y1090602D02*
D03*
X789000Y1010998D02*
D03*
Y1024998D02*
D03*
X419000Y617998D02*
D03*
Y631998D02*
D03*
X337000Y617998D02*
D03*
Y631998D02*
D03*
X709000Y463003D02*
D03*
Y449003D02*
D03*
X531000Y445000D02*
D03*
Y459000D02*
D03*
X469000Y356998D02*
D03*
Y370998D02*
D03*
X482000Y356998D02*
D03*
Y370998D02*
D03*
X495000Y356998D02*
D03*
Y370998D02*
D03*
X467000Y284998D02*
D03*
Y298998D02*
D03*
X480000Y284998D02*
D03*
Y298998D02*
D03*
X493000Y284998D02*
D03*
Y298998D02*
D03*
X443000Y409002D02*
D03*
Y423002D02*
D03*
X456000Y409002D02*
D03*
Y423002D02*
D03*
D114*
X778998Y1059000D02*
D03*
X792998D02*
D03*
Y1124000D02*
D03*
X778998D02*
D03*
X792998Y1098000D02*
D03*
X778998D02*
D03*
X792998Y1111000D02*
D03*
X778998D02*
D03*
X792998Y1085000D02*
D03*
X778998D02*
D03*
X792998Y1072000D02*
D03*
X778998D02*
D03*
X170002Y364000D02*
D03*
X156002D02*
D03*
X483502Y207002D02*
D03*
X497502D02*
D03*
X483502Y194002D02*
D03*
X497502D02*
D03*
X440000Y145000D02*
D03*
X454000D02*
D03*
X440002Y158000D02*
D03*
X454002D02*
D03*
X609002Y328000D02*
D03*
X595001D02*
D03*
X609002Y354000D02*
D03*
X595002D02*
D03*
X594998Y367000D02*
D03*
X608998D02*
D03*
X594998Y341000D02*
D03*
X608998D02*
D03*
X336002Y134000D02*
D03*
X322002D02*
D03*
X500002Y506000D02*
D03*
X486002D02*
D03*
X427002Y1062000D02*
D03*
X441002D02*
D03*
X125002Y80000D02*
D03*
X139002D02*
D03*
X596998Y294000D02*
D03*
X582998D02*
D03*
X468000Y131000D02*
D03*
X482000D02*
D03*
X567002Y107000D02*
D03*
X553002D02*
D03*
X667002D02*
D03*
X653002D02*
D03*
D115*
X91000Y75000D02*
D03*
Y59000D02*
D03*
X174000Y75000D02*
D03*
Y59000D02*
D03*
X494000Y446000D02*
D03*
Y462000D02*
D03*
X438000Y255000D02*
D03*
Y239000D02*
D03*
X543000Y532000D02*
D03*
Y516000D02*
D03*
D116*
X496500Y224000D02*
D03*
X469500D02*
D03*
X496000Y177002D02*
D03*
X469000D02*
D03*
D118*
X535000Y618500D02*
D03*
Y645500D02*
D03*
X188000Y144500D02*
D03*
Y117500D02*
D03*
X772000Y1023500D02*
D03*
Y996500D02*
D03*
X513500Y473247D02*
D03*
Y446247D02*
D03*
X401000Y644500D02*
D03*
Y617500D02*
D03*
X355000Y644500D02*
D03*
Y617500D02*
D03*
X543000Y547500D02*
D03*
Y574500D02*
D03*
D123*
X117505Y197000D02*
D03*
X164495D02*
D03*
D126*
X356000Y204000D02*
D03*
Y238000D02*
D03*
D134*
X504298Y90000D02*
D03*
X335298D02*
D03*
D135*
X70000Y90000D02*
D03*
X44600D02*
D03*
X230000Y1180300D02*
D03*
Y1160000D02*
D03*
X95500D02*
D03*
Y1180300D02*
D03*
D136*
X32000Y1170000D02*
D03*
X808000D02*
D03*
Y32000D02*
D03*
X32000D02*
D03*
D137*
X60000Y140000D02*
D03*
X780000D02*
D03*
X60000Y890000D02*
D03*
X780000D02*
D03*
D138*
X585000Y50000D02*
D03*
X559600Y75400D02*
D03*
X610400D02*
D03*
Y24600D02*
D03*
X559600D02*
D03*
X685600D02*
D03*
X736400D02*
D03*
Y75400D02*
D03*
X685600D02*
D03*
X711000Y50000D02*
D03*
X85300Y1104100D02*
D03*
X240200D02*
D03*
D139*
X330898Y907899D02*
D03*
X559498D02*
D03*
X102298D02*
D03*
X574700Y975000D02*
D03*
D140*
X51699Y603301D02*
D03*
Y374701D02*
D03*
Y831901D02*
D03*
X762899Y603301D02*
D03*
Y374701D02*
D03*
Y831901D02*
D03*
X468300Y1056102D02*
D03*
D141*
X149500Y59000D02*
D03*
D142*
X114500D02*
D03*
D143*
X237000Y96000D02*
D03*
Y38001D02*
D03*
D144*
X285000Y66000D02*
D03*
D145*
X368500Y1093898D02*
D03*
D146*
X388500D02*
D03*
Y1120098D02*
D03*
X368500D02*
D03*
X343499D02*
D03*
D147*
X444199Y1090398D02*
D03*
Y1147200D02*
D03*
X312800D02*
D03*
Y1090398D02*
D03*
D148*
X413499Y1093898D02*
D03*
Y1120098D02*
D03*
D149*
X105600Y1134600D02*
D03*
X219900D02*
D03*
D150*
X325000Y1019500D02*
D03*
Y1024500D02*
D03*
Y1014500D02*
D03*
X339000Y1024500D02*
D03*
Y1019500D02*
D03*
Y1014500D02*
D03*
Y1041500D02*
D03*
Y1046500D02*
D03*
Y1051500D02*
D03*
X325000Y1041500D02*
D03*
Y1051500D02*
D03*
Y1046500D02*
D03*
D151*
X778000Y1043000D02*
D03*
X794000D02*
D03*
X454000Y224000D02*
D03*
X438000D02*
D03*
X483000Y618000D02*
D03*
X499000D02*
D03*
X304000D02*
D03*
X320000D02*
D03*
X435000D02*
D03*
X451000D02*
D03*
X321000Y238000D02*
D03*
X337000D02*
D03*
D152*
X711250Y309250D02*
D03*
X704750D02*
D03*
X698250D02*
D03*
X691750D02*
D03*
X685250D02*
D03*
X678750D02*
D03*
X672250D02*
D03*
X665750D02*
D03*
X659250D02*
D03*
X652750D02*
D03*
X711250Y364750D02*
D03*
X704750D02*
D03*
X698250D02*
D03*
X691750D02*
D03*
X685250D02*
D03*
X678750D02*
D03*
X672250D02*
D03*
X665750D02*
D03*
X659250D02*
D03*
X652750D02*
D03*
X571000Y302000D02*
D03*
X564500D02*
D03*
X558000D02*
D03*
X551500D02*
D03*
X545000D02*
D03*
X538500D02*
D03*
X532000D02*
D03*
X525500D02*
D03*
X519000D02*
D03*
X512500D02*
D03*
X571000Y357500D02*
D03*
X564500D02*
D03*
X558000D02*
D03*
X551500D02*
D03*
X545000D02*
D03*
X538500D02*
D03*
X532000D02*
D03*
X525500D02*
D03*
X519000D02*
D03*
X512500D02*
D03*
D153*
X279500Y1014500D02*
D03*
Y1024500D02*
D03*
X306500Y1014500D02*
D03*
Y1024500D02*
D03*
X279500Y1041500D02*
D03*
Y1051500D02*
D03*
X306500Y1041500D02*
D03*
Y1051500D02*
D03*
D154*
X120000Y157500D02*
D03*
X144000D02*
D03*
X120000Y100500D02*
D03*
X144000D02*
D03*
D155*
X470000Y590000D02*
D03*
X493000D02*
D03*
X516000D02*
D03*
D156*
X493000Y532000D02*
D03*
D157*
X195000Y238000D02*
D03*
X259000D02*
D03*
D158*
X640249Y1044251D02*
D03*
X697150D02*
D03*
D159*
X624249Y1174251D02*
D03*
X755750Y1185749D02*
D03*
D160*
X632149Y1147250D02*
D03*
X643150D02*
D03*
X654150Y1149249D02*
D03*
X665149Y1147250D02*
D03*
X676149Y1149249D02*
D03*
X687150Y1147250D02*
D03*
X698151Y1143250D02*
D03*
X709149Y1147250D02*
D03*
D161*
X495750Y158002D02*
D03*
X469250D02*
D03*
Y146002D02*
D03*
X495750D02*
D03*
D162*
X490000Y247000D02*
D03*
Y266000D02*
D03*
X461000D02*
D03*
Y256500D02*
D03*
Y247000D02*
D03*
D163*
X649250Y259750D02*
D03*
Y139250D02*
D03*
X529750D02*
D03*
Y259750D02*
D03*
D164*
X649250Y248500D02*
D03*
Y241500D02*
D03*
Y234500D02*
D03*
Y227500D02*
D03*
Y220500D02*
D03*
Y213500D02*
D03*
Y206500D02*
D03*
Y199500D02*
D03*
Y192500D02*
D03*
Y185500D02*
D03*
Y178500D02*
D03*
Y171500D02*
D03*
Y164500D02*
D03*
Y157500D02*
D03*
Y150500D02*
D03*
X529750D02*
D03*
Y157500D02*
D03*
Y164500D02*
D03*
Y171500D02*
D03*
Y178500D02*
D03*
Y185500D02*
D03*
Y192500D02*
D03*
Y199500D02*
D03*
Y206500D02*
D03*
Y213500D02*
D03*
Y220500D02*
D03*
Y227500D02*
D03*
Y234500D02*
D03*
Y241500D02*
D03*
Y248500D02*
D03*
D165*
X638500Y139250D02*
D03*
X540500Y259750D02*
D03*
X631500Y139250D02*
D03*
X624500D02*
D03*
X617500D02*
D03*
X610500D02*
D03*
X603500D02*
D03*
X596500D02*
D03*
X589500D02*
D03*
X582500D02*
D03*
X575500D02*
D03*
X568500D02*
D03*
X561500D02*
D03*
X554500D02*
D03*
X547500D02*
D03*
X540500D02*
D03*
X547500Y259750D02*
D03*
X554500D02*
D03*
X561500D02*
D03*
X568500D02*
D03*
X575500D02*
D03*
X582500D02*
D03*
X589500D02*
D03*
X596500D02*
D03*
X603500D02*
D03*
X610500D02*
D03*
X617500D02*
D03*
X624500D02*
D03*
X631500D02*
D03*
X638500D02*
D03*
D166*
X628000Y224000D02*
D03*
Y210000D02*
D03*
Y189000D02*
D03*
Y175000D02*
D03*
Y161000D02*
D03*
X614000D02*
D03*
X600000D02*
D03*
X614000Y238000D02*
D03*
Y224000D02*
D03*
Y210000D02*
D03*
X600000Y238000D02*
D03*
Y224000D02*
D03*
Y210000D02*
D03*
Y189000D02*
D03*
X614000D02*
D03*
Y175000D02*
D03*
X600000D02*
D03*
X579000Y238000D02*
D03*
X565000D02*
D03*
X551000D02*
D03*
X579000Y224000D02*
D03*
Y210000D02*
D03*
X565000Y224000D02*
D03*
Y210000D02*
D03*
X551000Y224000D02*
D03*
Y210000D02*
D03*
X579000Y189000D02*
D03*
X565000D02*
D03*
X551000D02*
D03*
X579000Y175000D02*
D03*
Y161000D02*
D03*
X565000Y175000D02*
D03*
Y161000D02*
D03*
X551000Y175000D02*
D03*
Y161000D02*
D03*
X628000Y238000D02*
D03*
D167*
X549500Y1076500D02*
D03*
X554500D02*
D03*
X524500Y1029500D02*
D03*
X529500D02*
D03*
X534500D02*
D03*
X539500D02*
D03*
X544500D02*
D03*
X549500D02*
D03*
X554500D02*
D03*
X559500D02*
D03*
Y1076500D02*
D03*
X544500D02*
D03*
X539500D02*
D03*
X534500D02*
D03*
X529500D02*
D03*
X524500D02*
D03*
D168*
X542000Y1053000D02*
D03*
D169*
X565500Y1035500D02*
D03*
Y1040500D02*
D03*
Y1045500D02*
D03*
Y1050500D02*
D03*
Y1055500D02*
D03*
Y1060500D02*
D03*
Y1065500D02*
D03*
Y1070500D02*
D03*
X518500Y1040500D02*
D03*
Y1045500D02*
D03*
Y1050500D02*
D03*
Y1055500D02*
D03*
Y1060500D02*
D03*
Y1065500D02*
D03*
Y1070500D02*
D03*
Y1035500D02*
D03*
D170*
X355000Y590250D02*
D03*
X401000D02*
D03*
D171*
X378000Y520750D02*
D03*
M02*
