M48
;Layer_Color=9474304
;FILE_FORMAT=4:4
METRIC,LZ
;TYPE=PLATED
T1F00S00C0.2500
T2F00S00C0.3000
T3F00S00C0.3500
T5F00S00C0.8900
T6F00S00C0.9000
T7F00S00C0.9200
T8F00S00C0.9500
T9F00S00C1.0200
T10F00S00C1.4000
T11F00S00C1.6000
T12F00S00C1.6300
T13F00S00C1.7000
T14F00S00C1.8000
T15F00S00C2.3000
T16F00S00C3.2000
T17F00S00C3.2500
;TYPE=NON_PLATED
T18F00S00C0.9000
T19F00S00C1.5000
%
T01
X004Y001305
X00427
X00427Y001575
X004
T02
X00005991Y00075591
X00021991
X00037991
X00053991
X00069991
X00077991Y00091591
X00061991
X00045991
X00029991
X00013991
X00005991Y00107591
X00021991
X00037991
X00053991
X00069991
X00085991
X00093991Y00123591
X00077991
X00061991
X00045991
X00029991
X00013991
X00005991Y00139591
X00021991
X00037991
X00029991Y00155591
X00013991
X00005991Y00171591
X00021991
X00037991
X00039Y00206
Y00237
X00041Y00261999
X00045Y00284999
X00005991Y00299591
Y00267591
Y00235591
X00018Y00218
X00005991Y00203591
X00013991Y00187591
X00061991
X000809Y001874
X000939
X00085991Y00171591
X00093991Y00155591
X00085991Y00139591
X000799Y002131
X0009Y00231
Y00307
X00005991Y00331591
X00061991Y00059591
X00069991Y00043591
X00085991
X00093991Y00027591
X00077991
X00069991Y00011591
X00085991
X00101991
X00117991
X00133991
X00149991
X00165991
X00181991
X00197991
X00213991
X00229991
X00245991
X00261991
X00277991
X00293991
X00309991
X00325991
X00341991
X00357991
X00373991
X00389991
X00405991
X00421991
X00437991
X00453991
X00469991
X00485991
X00477991Y00027591
X00461991
X00445991
X00429991
X00413991
X00397991
X00381991
X00365991
X00349991
X00333991
X00317991
X00301991
X00285991
X00293991Y00043591
X00285991Y00059591
X00269991
X00277991Y00075591
X00285991Y00091591
X00301991
X00317991
X00333991
X00325991Y00075591
Y00043591
X00309991Y00123591
X00317991Y00139591
X00301991
X00293991Y00155591
X00277991
X00261991
X00253991Y00139591
Y00171591
X00233Y00176
X00216Y001895
Y001995
Y002095
X00206
Y001995
Y001895
X00196
Y001995
Y002095
X00181991Y00203591
X00179Y002275
X00165991Y00235591
X00149991
X00157991Y00219591
X00117Y00222
X00108
X00141Y00185
Y00176
Y00167
X00132Y00158
X00123
X00114
X00167Y00152
X00186Y00137
Y00129
X00189Y00109
X00174Y00109
X00165991Y00107591
X00209Y00106
X0022Y00106
X0023
X00221991Y00091591
X00205991
X00213991Y00075591
X00229991
X00245991
X00217Y00154
X00208
X00233Y002275
X00241Y00241
Y0025
X00219Y00263
X0021
X00201
X00203Y00279
X00192
X00218
X00232
X002338Y00313799
X002438
X002238
X00215Y0032
X00154Y00298
X00132Y00307
X00118Y00298
X00109
X001Y00307
X00115Y003324
Y003404
X00177Y002475
X00291Y00245
Y00253
Y00236
Y00228
X00339Y0023
X00341Y00192
X00339Y00161
X00317991Y00171591
X00301991
X00309991Y00155591
X00382Y00159002
X00382Y00129
X00445Y00129
X00471999Y00132
X00445Y00159002
X00452Y0021
X004615Y00211046
X004805Y00207
X004805Y0022
X00481Y00251
X00434Y00245
X00423999Y00245
X00417Y00257
X00412Y00267
X0039Y00272
X00413Y00294
X00416999Y00306999
X00424Y0031
X00408Y00312
X004
X0045Y00276
X00303Y00267
X00344Y00347
X00125991Y00027591
X00109991
X00101991Y00043591
X00501991
X00517991
X00533991
X00549991
X00541991Y00027591
X00525991
X00509991
X00493991
X00501991Y00011591
X00517991
X00533991
X00581991
X00597991
X00589991Y00027591
X00613991Y00043591
X00629991
X00645991
X00661991
X00677991
X00669991Y00059591
X00653991
X00637991
X00621991
X00629991Y00075591
X00645991
X00661991
X00669991Y00091591
X0065Y00091
X00637991Y00091591
X00631Y00098
X00621991Y00091591
X00613991Y00107591
X00624Y0012
X0062425Y001305
X0060325
X0059Y00129
Y00114
X00576Y00119
X00562999Y00119
X00554Y00122
X0055425Y001305
X00573Y0013
X00579Y00152
X00565
X00551
X00542Y00161
Y00175
Y00189
X00542Y00205
X00551Y00201
X00565
X00579
X00588Y00189
Y00175
Y00161
X006Y00152
X00614
X00628
X0064Y00151
X00637Y00161
Y00175
Y00189
X00641308Y001995
X00628Y00201
X00614
X006
X00603042Y00246959
X00634999Y00249
X00659Y00214
X00659999Y00199
X00667999Y00193
X00666Y00182
X00665999Y00171
X00659Y00164
X00659Y00139
X00649Y001305
X00657Y0012
X00669991Y00123591
X00692Y0012
X00701991Y00123591
X00714Y0012
X00733991Y00123591
X0074999
X00765991
X00781991
X0079799
X0081399
X0082999
X00821991Y00107591
X00805991
X0078999
X00773991
X00757991
X00741991
X00725991
X0074999Y00091591
X00765991
X00781991
X0079799
X0081399
X0082999
X00821991Y00075591
X00805991
X0078999
X00773991
X00757991
X00765991Y00059591
X0074999
X00741991Y00043591
X00757991
X00773991
X00781991Y00059591
X00765991Y00027591
X00757991Y00011591
X00773991
X00709991
X00717991Y00027591
X00653991
X00637991
X00629991Y00011591
X00645991
X00661991
X00599Y00099
X00544Y0009
X00525991Y00091591
X00509991
X00493991
X00501991Y00075591
X00517991
X00533991
X00541991Y00059591
X00525991
X00509991
X00517991Y00107591
X0053Y00104
X00525991Y00123591
X005295Y001305
X0052Y0014
Y00151
X00516Y00172
X00494Y00173
Y00186
Y0016
X00496002Y00146003
Y00137003
X00505Y00133
X0052Y00192
Y00203
X0052Y00213
X00529Y00273
X00505Y00294
X00565Y00284
X00583Y00305
X00605Y00312
X00613999Y00313999
X00622Y0032
X00632
X00645999Y00313999
X00691Y00342
X00717Y00322
X00723999Y00194
X00737Y00182
X00701Y00169
X00694Y00156
X0081399Y00155591
X0082999
X00821991Y00139591
X00805991
Y00171591
X00821991
X0082999Y00187591
X0082Y001966
X0081Y001876
X008
X00791
Y00213
X008
X0081
X0082Y00222
X0082999Y00059591
X00817Y00387
X00788
X00768Y00388
X00771Y00407
X00741Y00413
X00709Y00415
X0069Y00406
X00674Y00399
X00658
X00641Y00398
X00636Y00371
X00645999Y00366999
X00588999Y00382999
X00589Y00401
X00588Y00411
X00577Y00419
X00567Y00405
X005645Y00375179
X00579Y00358
X005065Y003575
X00495Y00349
X00494Y00427
X00505
X00513
X00521
X00531
X0053Y00477
X00518
X00509
X00497Y00467
X0056Y0046
X00582Y00454
X0059Y00446
X00583Y0047
X0059Y00486
X00633Y00494
X00633Y00472
X00674Y00471
X00672Y00501
X00658Y00496
X00691Y00497
X007Y00515
X00642499Y00534499
X00630999Y00548999
X00635Y00565
X00623Y00566
Y00526
X00646Y00588
X00640999Y00606999
X0063Y0062
X00637Y00643
X00631Y0066995
X00622Y00662399
X00623Y00692
Y007
Y00708
X00615Y00727
X00647999Y00684999
X00648Y00675
X00582399Y0067
X00581Y00659
X00573999Y00650999
X00581Y00643
X0059Y00622
X00574Y00681
X0056Y0068
X00548Y00675
X00534Y00676
X00523999Y00679999
X00514Y0068
X00501
X00514999Y00718998
X0053Y00656
X00541
X00516Y00641
X00537Y00586
X00548
X00547Y00506
X0054
X00725Y00643
Y00665
X00724Y0069
Y00715
X00732Y00375
X00730999Y00350999
X0048Y00402
X00473Y00429
X00479Y00435
X00489Y00467
X00478Y00506
X00408Y00502
Y00512
Y00522
Y00532
Y00542
X00393
Y00532
Y00522
Y00512
Y00502
Y00492
Y00482
Y00472
X00408
Y00482
Y00492
X00378
Y00482
Y00472
X00363
Y00482
Y00492
Y00502
Y00512
Y00522
Y00532
Y00542
X00378
Y00532
Y00522
Y00512
Y00502
X00348
Y00492
Y00482
Y00472
Y00512
Y00522
Y00532
Y00542
X002508Y005342
X0025Y00518
X002508Y005022
Y004862
X00253Y00474
X002508Y004622
X00257999Y00454999
X00261Y00444999
X002508Y004462
X00277Y00454
X00286999Y00448999
X00299Y00442
X00290999Y00429999
X00317Y0043
X00315Y00414
X00323Y00381
X00302Y00385
X00304Y00375
X0028825Y00385
X00292Y00395
X00277Y00398
X00266Y00399
X00256Y00409
X0035Y00387
X00348Y0037
Y00362
X00384Y00352
X00392
X00435Y00372
X00431066Y00431249
X00439Y0044
X00411999Y00415999
X004Y00422
X0046Y00582
Y0059
Y00598
X00451Y00606
X00463Y00614
Y00621
X00451Y0063
X00483
X00478Y0068
X00467999Y00676999
X00458Y0068
X00448Y00676
X00427Y00679
X00403Y0068
X00388999Y00679999
X00379Y0068
X00362
X00347Y0068
X00336Y00674
X0032Y006804
X00304Y00667
X00296
X00288Y00676
X0028
X00292Y00622
Y00615
X00304Y00606
Y0063
X00337Y0064
X0035Y00654
X0036
X00396
X00406
X00419Y0064
X00445Y00722
X00462Y0072
X00491Y00726
Y00677
X00383999Y00717999
X0036Y00728999
X00328Y00732
X00312Y0072
X00227Y00716
X00217Y00708
Y007
Y00692
X00212Y00606
X002508Y005982
X00253Y00587
X002508Y005742
Y005582
X00213Y00539
X0021825Y0051795
X0021925Y0051045
X0015Y00391
X00142Y00397999
X00127Y00392
X00126Y00402999
X00118Y00409999
X00114Y00358999
X00125Y00359
X00089Y00435999
X00069Y00425
X0007Y00451
X0002
X00005991Y00459591
X00013991Y00475591
X00005991Y00491591
X00013991Y00507591
X00005991Y00523591
X00013991Y00539591
X00005991Y00555591
X00013991Y00571591
X00005991Y00587591
X00013991Y00603591
X00005991Y00619591
X00013991Y00635591
X00005991Y00651591
X00013991Y00667591
X00005991Y00683591
X00013991Y00699591
X00005991Y00715591
X00013991Y00731591
X00058Y0073
X000575Y007047
X00058Y006792
X00061991Y00667591
X000575Y006539
X00058Y006284
Y00603
X0002Y00425
X00005991Y00427591
X00013991Y00411591
X0002Y00399
Y00389
X00018Y00374999
X00005991Y00363591
Y00395591
Y00747591
X00013991Y00763591
X00005991Y00779591
X00013991Y00795591
X00005991Y00811591
X00013991Y00827591
X00005991Y00843591
X00013991Y00859591
X00029991
X00021991Y00875591
X00005991
X00013991Y00891591
X00005991Y00907591
X00021991
X00013991Y00923591
X00005991Y00939591
X00021991
X00029991Y00955591
X00013991
X00005991Y00971591
X00021991
X00037991
X00053991
X00069991
X00061991Y00987591
X00045991
X00029991
X00013991
X00005991Y01003591
X00021991
X00037991
X00053991
X00069991
X00077991Y01019591
X00061991
X00045991
X00029991
X00013991
X00005991Y01035591
X00021991
X00037991
X00053991
X00069991
X00085991
X00077991Y01051591
X00061991
X00045991
X00029991
X00013991
X00005991Y01067591
X00021991
X00037991
X00053991
X00069991
X00085991
X00077991Y01083591
X00061991
X00045991
X00029991
X00013991
X00005991Y01099591
X00021991
X00037991
X00053991
X00069991
X00077991Y01115591
X00061991
X00045991
X00029991
X00013991
X00005991Y01131591
X00021991
X00037991
X00053991
X00069991
X00085991
X000932Y009042
Y008912
X00053991Y00875591
X00037991
X00057Y008314
X0009Y00823
X00056Y00781
X000575Y007555
X00128Y00794
X0011Y00832
X001Y0084
Y00823
X001279Y008779
X001371Y008849
X001439Y008951
X001371Y009049
X001281Y009131
X001531
X001539Y008759
X001394Y00949
Y00957
X001279Y009645
X001274Y00975
X00102
Y00966
X00114Y00957
Y00949
X00117991Y01035591
Y01067591
X00156Y01114
X00169
X00157Y01136
X00188
X00197991Y01131591
X00221991Y01115591
X00205991Y01083591
X00237991Y01051591
X00229991Y01035591
X00276Y0102
X00305Y01032
X00331Y0104
X00368Y01032
X00398Y01057
X00406
X00404Y0107
X00412
X00423
X00429Y01064
X00437Y01064
X00449Y01059
X00484Y01042
X00458Y00964
X00418Y00969
X00426Y00979
Y00988
X00409
Y00979
X00382Y00966
X0038195Y0092705
Y0091405
X00407Y00914
Y00928
X00433Y00927
X00432Y00914
X00458
X004835Y009135
X00484Y00927
X00462Y00854
X00451
X00441
X00406Y0086
X00382Y00875
X003565Y008705
X003434Y0087
X003311Y008739
X00357Y00857
X00349Y00839
X00331Y00822
X00322Y00814
X0037Y00824
X00378Y00848
X00454Y0079
X00432999Y00751999
X00199Y00748
X00208Y00791
X00203Y00801
X00194Y00809
X00211Y00817998
X00265Y00888
Y00904
X0025495Y0091405
Y0092705
X00265Y00937
Y00954
X00255Y00966
X00305Y00978
X003Y01092898
X00309991Y01099591
X00325991
X00345Y01101
X00347Y01114
Y01122
Y0113
X00324Y01139
X00292999Y01128998
X00261991Y01131591
X00356Y01096
X0037Y01097498
X00378
X00423Y011
X00435Y011155
X00444
X00437991Y01131591
X00415Y01139
X00554Y01137
X00545Y01031
X00537
X00572Y01036
X006Y01027
X00597Y01055
X00631Y01036
X0065
X00695Y01036
X00705
X00712Y01046
X00748Y0103
X00759
X0076825Y0101725
X0076Y01007
X00780998Y00995998
X00781Y00982
X00804002Y00995998
X00803Y01022
X00805Y0104
X00799Y0107
X00833
Y01095
Y0112
X00799
X00705Y00989
X00695
X00682Y01002
X00648999Y00945998
X00651Y00927
X00652999Y00916998
X00687Y00913
X00692Y00858
X007118Y00876
X007372
X00655Y00861
X0069Y00806
X00699
X00695Y00757
X00727Y00756
X00562999Y00752999
X00559Y0077
X00496999Y00762998
X005Y00747
X00518Y00837
X00536Y00828
X00548Y00876
X00518Y00888
Y00901
X005
Y00888
X00534Y00914
X00535Y00927
X00509Y00965
X0052Y01161
X00528
X00554
X00576Y01162
X00674Y0118
Y01188
X00445991Y01147591
X00398Y01186
X00342Y01185749
X00261991Y01163591
X00253991Y01147591
X00205991
X00173991Y01179591
X00093991
X00077991
X00069991Y01163591
X00085991
X00093991Y01147591
X00077991
X00061991
T03
X00356Y01058498
Y01071498
X00364Y01065498
X00372Y01071498
Y01058498
T05
X0013055Y010461
X0015595
X0018135
X0020675
X0019405Y010715
X0016865
X0014325
X0021945
T06
X002923Y01054798
X003177
Y01080198
X002923
T07
X00380001Y00079902
X00405
X00425
X00450001
Y00106102
X00425
X00405
X00380001
T08
X00093Y00059
Y000844
X007326Y010698
X00758
Y010952
Y011206
X007326
Y010952
Y01146
X00758
Y011714
X007326
T09
X0010775Y011604
Y011807
X0024225
Y011604
T10
X00137Y0006
X00172
T11
X00585Y0005
X00711
T12
X0009755Y011045
X0025245
T13
X005596Y000246
Y000754
X006104
Y000246
X006856
X007364
Y000754
X006856
T14
X00484Y01095
X00696
T15
X003493Y000528
Y00109602
X004807
Y000528
T16
X00032Y00032
X000644Y001586
X007756
X00808Y00032
X000644Y009206
X007756
X00808Y01168
X00032
T17
X0011785Y01135
X0023215
T18
X00347999Y01148498
X00392
T19
X0039Y002892
X00455Y007392
M30
