G04 Layer_Physical_Order=1*
G04 Layer_Color=3162822*
%FSLAX44Y44*%
%MOMM*%
G71*
G01*
G75*
%ADD10C,1.0000*%
%ADD11C,1.0000*%
%ADD12C,0.4500*%
%ADD13C,0.2500*%
%ADD14C,0.3500*%
%ADD15C,0.8000*%
%ADD16C,0.2000*%
%ADD17C,0.3000*%
%ADD18R,1.9000X1.9000*%
%ADD19C,1.9000*%
%ADD20C,1.6900*%
%ADD21R,1.6900X1.6900*%
%ADD22C,4.7600*%
%ADD23C,1.5000*%
%ADD24R,1.5000X1.5000*%
%ADD25C,6.0000*%
%ADD26C,0.6000*%
G36*
X1790140Y1246808D02*
X1789628Y1246372D01*
X1785539Y1241584D01*
X1782249Y1236216D01*
X1779840Y1230399D01*
X1778370Y1224277D01*
X1777876Y1218000D01*
X1778370Y1211723D01*
X1779840Y1205601D01*
X1782249Y1199784D01*
X1785539Y1194416D01*
X1789628Y1189628D01*
X1794416Y1185539D01*
X1799784Y1182250D01*
X1805601Y1179840D01*
X1811723Y1178370D01*
X1818000Y1177876D01*
X1824277Y1178370D01*
X1830399Y1179840D01*
X1836216Y1182250D01*
X1841584Y1185539D01*
X1846372Y1189628D01*
X1846808Y1190140D01*
X1848000Y1189700D01*
Y60300D01*
X1846808Y59860D01*
X1846372Y60372D01*
X1841584Y64461D01*
X1836216Y67751D01*
X1830399Y70160D01*
X1824277Y71630D01*
X1818000Y72124D01*
X1811723Y71630D01*
X1805601Y70160D01*
X1799784Y67751D01*
X1794416Y64461D01*
X1789628Y60372D01*
X1785539Y55584D01*
X1782249Y50216D01*
X1779840Y44399D01*
X1778370Y38277D01*
X1777876Y32000D01*
X1778370Y25723D01*
X1779840Y19601D01*
X1782249Y13784D01*
X1785539Y8416D01*
X1789628Y3628D01*
X1790140Y3192D01*
X1789700Y2000D01*
X60300D01*
X59860Y3192D01*
X60372Y3628D01*
X64461Y8416D01*
X67751Y13784D01*
X70160Y19601D01*
X71630Y25723D01*
X72124Y32000D01*
X71630Y38277D01*
X70160Y44399D01*
X67751Y50216D01*
X64461Y55584D01*
X60372Y60372D01*
X55584Y64461D01*
X50216Y67751D01*
X44399Y70160D01*
X38277Y71630D01*
X32000Y72124D01*
X25723Y71630D01*
X19601Y70160D01*
X13784Y67751D01*
X8416Y64461D01*
X3628Y60372D01*
X3192Y59860D01*
X2000Y60300D01*
Y1189700D01*
X3192Y1190140D01*
X3628Y1189628D01*
X8416Y1185539D01*
X13784Y1182250D01*
X19601Y1179840D01*
X25723Y1178370D01*
X32000Y1177876D01*
X38277Y1178370D01*
X44399Y1179840D01*
X50216Y1182250D01*
X55584Y1185539D01*
X60372Y1189628D01*
X64461Y1194416D01*
X67751Y1199784D01*
X70160Y1205601D01*
X71630Y1211723D01*
X72124Y1218000D01*
X71630Y1224277D01*
X70160Y1230399D01*
X67751Y1236216D01*
X64461Y1241584D01*
X60372Y1246372D01*
X59860Y1246808D01*
X60300Y1248000D01*
X1789700D01*
X1790140Y1246808D01*
D02*
G37*
%LPC*%
G36*
X1127501Y92783D02*
X1126608Y92665D01*
X1123445Y91355D01*
X1120730Y89272D01*
X1118646Y86556D01*
X1117336Y83394D01*
X1117218Y82500D01*
X1127501D01*
Y92783D01*
D02*
G37*
G36*
X1132501D02*
Y82500D01*
X1142784D01*
X1142667Y83394D01*
X1141357Y86556D01*
X1139273Y89272D01*
X1136557Y91355D01*
X1133395Y92665D01*
X1132501Y92783D01*
D02*
G37*
G36*
X932501D02*
Y82500D01*
X942784D01*
X942667Y83394D01*
X941357Y86556D01*
X939273Y89272D01*
X936557Y91355D01*
X933395Y92665D01*
X932501Y92783D01*
D02*
G37*
G36*
X1212001Y92000D02*
X1188001D01*
Y68000D01*
X1212001D01*
Y92000D01*
D02*
G37*
G36*
X927501Y92783D02*
X926608Y92665D01*
X923445Y91355D01*
X920730Y89272D01*
X918646Y86556D01*
X917336Y83394D01*
X917218Y82500D01*
X927501D01*
Y92783D01*
D02*
G37*
G36*
X658450Y141845D02*
X655591Y141468D01*
X652928Y140365D01*
X650640Y138610D01*
X648885Y136322D01*
X647782Y133659D01*
X647405Y130800D01*
X647782Y127942D01*
X648885Y125278D01*
X650640Y122990D01*
X652928Y121235D01*
X655591Y120132D01*
X658450Y119755D01*
X661309Y120132D01*
X663972Y121235D01*
X666260Y122990D01*
X668015Y125278D01*
X669118Y127942D01*
X669494Y130800D01*
X669118Y133659D01*
X668015Y136322D01*
X666260Y138610D01*
X663972Y140365D01*
X661309Y141468D01*
X658450Y141845D01*
D02*
G37*
G36*
X686150D02*
X683291Y141468D01*
X680628Y140365D01*
X678340Y138610D01*
X676585Y136322D01*
X675482Y133659D01*
X675106Y130800D01*
X675482Y127942D01*
X676585Y125278D01*
X678340Y122990D01*
X680628Y121235D01*
X683291Y120132D01*
X686150Y119755D01*
X689008Y120132D01*
X691672Y121235D01*
X693960Y122990D01*
X695715Y125278D01*
X696818Y127942D01*
X697194Y130800D01*
X696818Y133659D01*
X695715Y136322D01*
X693960Y138610D01*
X691672Y140365D01*
X689008Y141468D01*
X686150Y141845D01*
D02*
G37*
G36*
X824950Y176898D02*
X819960Y176506D01*
X815093Y175337D01*
X810469Y173422D01*
X806201Y170806D01*
X802394Y167556D01*
X799144Y163749D01*
X796528Y159481D01*
X794613Y154857D01*
X793444Y149990D01*
X793052Y145000D01*
X793444Y140010D01*
X794613Y135143D01*
X796528Y130519D01*
X799144Y126251D01*
X802394Y122444D01*
X806201Y119194D01*
X810469Y116578D01*
X815093Y114663D01*
X819960Y113494D01*
X824950Y113102D01*
X829940Y113494D01*
X834807Y114663D01*
X839432Y116578D01*
X843699Y119194D01*
X847505Y122444D01*
X850756Y126251D01*
X853372Y130519D01*
X855287Y135143D01*
X856456Y140010D01*
X856848Y145000D01*
X856456Y149990D01*
X855287Y154857D01*
X853372Y159481D01*
X850756Y163749D01*
X847505Y167556D01*
X843699Y170806D01*
X839432Y173422D01*
X834807Y175337D01*
X829940Y176506D01*
X824950Y176898D01*
D02*
G37*
G36*
X110000Y168069D02*
X70000Y168069D01*
X67912Y167794D01*
X65965Y166988D01*
X64294Y165706D01*
X63012Y164035D01*
X62206Y162088D01*
X61931Y160000D01*
X61931Y95000D01*
X62206Y92912D01*
X63012Y90965D01*
X64294Y89294D01*
X65965Y88012D01*
X67912Y87206D01*
X70000Y86931D01*
X110000Y86931D01*
X112088Y87206D01*
X114035Y88012D01*
X115706Y89294D01*
X116988Y90965D01*
X117794Y92912D01*
X118069Y95000D01*
X118069Y160000D01*
X117794Y162088D01*
X116988Y164035D01*
X115706Y165706D01*
X114035Y166988D01*
X112088Y167794D01*
X110000Y168069D01*
D02*
G37*
G36*
X30000Y107565D02*
X28042Y107307D01*
X26218Y106551D01*
X24651Y105349D01*
X23449Y103782D01*
X22693Y101958D01*
X22435Y100000D01*
X22693Y98042D01*
X23449Y96218D01*
X24651Y94651D01*
X26218Y93449D01*
X28042Y92693D01*
X30000Y92435D01*
X31958Y92693D01*
X33782Y93449D01*
X35349Y94651D01*
X36551Y96218D01*
X37307Y98042D01*
X37565Y100000D01*
X37307Y101958D01*
X36551Y103782D01*
X35349Y105349D01*
X33782Y106551D01*
X31958Y107307D01*
X30000Y107565D01*
D02*
G37*
G36*
X1012001Y92000D02*
X988001D01*
Y68000D01*
X1012001D01*
Y92000D01*
D02*
G37*
G36*
X1625000Y183069D02*
X1350000D01*
X1347912Y182794D01*
X1345966Y181988D01*
X1344294Y180706D01*
X1343012Y179035D01*
X1342206Y177088D01*
X1341931Y175000D01*
Y50000D01*
X1342206Y47912D01*
X1343012Y45965D01*
X1344294Y44294D01*
X1345966Y43012D01*
X1347912Y42206D01*
X1350000Y41931D01*
X1625000D01*
X1627088Y42206D01*
X1629034Y43012D01*
X1630706Y44294D01*
X1631988Y45965D01*
X1632794Y47912D01*
X1633069Y50000D01*
Y175000D01*
X1632794Y177088D01*
X1631988Y179035D01*
X1630706Y180706D01*
X1629034Y181988D01*
X1627088Y182794D01*
X1625000Y183069D01*
D02*
G37*
G36*
X927501Y77500D02*
X917218D01*
X917336Y76606D01*
X918646Y73444D01*
X920730Y70728D01*
X923445Y68644D01*
X926608Y67335D01*
X927501Y67217D01*
Y77500D01*
D02*
G37*
G36*
X1067000Y57700D02*
X1047000D01*
Y37700D01*
X1067000D01*
Y57700D01*
D02*
G37*
G36*
X1057000Y32386D02*
X1054389Y32043D01*
X1051957Y31035D01*
X1049868Y29432D01*
X1048265Y27343D01*
X1047257Y24911D01*
X1046914Y22300D01*
X1047257Y19690D01*
X1048265Y17257D01*
X1049868Y15168D01*
X1051957Y13565D01*
X1054389Y12557D01*
X1057000Y12214D01*
X1059611Y12557D01*
X1062043Y13565D01*
X1064132Y15168D01*
X1065735Y17257D01*
X1066743Y19690D01*
X1067086Y22300D01*
X1066743Y24911D01*
X1065735Y27343D01*
X1064132Y29432D01*
X1062043Y31035D01*
X1059611Y32043D01*
X1057000Y32386D01*
D02*
G37*
G36*
X1750000Y37565D02*
X1748042Y37307D01*
X1746218Y36551D01*
X1744651Y35349D01*
X1743449Y33782D01*
X1742693Y31958D01*
X1742435Y30000D01*
X1742693Y28042D01*
X1743449Y26218D01*
X1744651Y24651D01*
X1746218Y23449D01*
X1748042Y22693D01*
X1750000Y22435D01*
X1751958Y22693D01*
X1753782Y23449D01*
X1755349Y24651D01*
X1756551Y26218D01*
X1757307Y28042D01*
X1757565Y30000D01*
X1757307Y31958D01*
X1756551Y33782D01*
X1755349Y35349D01*
X1753782Y36551D01*
X1751958Y37307D01*
X1750000Y37565D01*
D02*
G37*
G36*
X965000Y92104D02*
X961867Y91691D01*
X958948Y90482D01*
X956441Y88559D01*
X954518Y86052D01*
X953309Y83133D01*
X952896Y80000D01*
X953309Y76867D01*
X954518Y73948D01*
X956441Y71441D01*
X958948Y69518D01*
X961867Y68309D01*
X965000Y67896D01*
X968133Y68309D01*
X971052Y69518D01*
X973559Y71441D01*
X975482Y73948D01*
X976691Y76867D01*
X977104Y80000D01*
X976691Y83133D01*
X975482Y86052D01*
X973559Y88559D01*
X971052Y90482D01*
X968133Y91691D01*
X965000Y92104D01*
D02*
G37*
G36*
X1165000D02*
X1161867Y91691D01*
X1158948Y90482D01*
X1156441Y88559D01*
X1154518Y86052D01*
X1153309Y83133D01*
X1152896Y80000D01*
X1153309Y76867D01*
X1154518Y73948D01*
X1156441Y71441D01*
X1158948Y69518D01*
X1161867Y68309D01*
X1165000Y67896D01*
X1168133Y68309D01*
X1171052Y69518D01*
X1173559Y71441D01*
X1175482Y73948D01*
X1176691Y76867D01*
X1177104Y80000D01*
X1176691Y83133D01*
X1175482Y86052D01*
X1173559Y88559D01*
X1171052Y90482D01*
X1168133Y91691D01*
X1165000Y92104D01*
D02*
G37*
G36*
X1142784Y77500D02*
X1132501D01*
Y67217D01*
X1133395Y67335D01*
X1136557Y68644D01*
X1139273Y70728D01*
X1141357Y73444D01*
X1142667Y76606D01*
X1142784Y77500D01*
D02*
G37*
G36*
X942784D02*
X932501D01*
Y67217D01*
X933395Y67335D01*
X936557Y68644D01*
X939273Y70728D01*
X941357Y73444D01*
X942667Y76606D01*
X942784Y77500D01*
D02*
G37*
G36*
X1127501D02*
X1117218D01*
X1117336Y76606D01*
X1118646Y73444D01*
X1120730Y70728D01*
X1123445Y68644D01*
X1126608Y67335D01*
X1127501Y67217D01*
Y77500D01*
D02*
G37*
G36*
X713850Y141845D02*
X710992Y141468D01*
X708328Y140365D01*
X706040Y138610D01*
X704285Y136322D01*
X703182Y133659D01*
X702805Y130800D01*
X703182Y127942D01*
X704285Y125278D01*
X706040Y122990D01*
X708328Y121235D01*
X710992Y120132D01*
X713850Y119755D01*
X716709Y120132D01*
X719372Y121235D01*
X721660Y122990D01*
X723415Y125278D01*
X724518Y127942D01*
X724894Y130800D01*
X724518Y133659D01*
X723415Y136322D01*
X721660Y138610D01*
X719372Y140365D01*
X716709Y141468D01*
X713850Y141845D01*
D02*
G37*
G36*
X1810000Y928069D02*
X1710000D01*
X1707912Y927794D01*
X1705966Y926988D01*
X1704294Y925706D01*
X1703012Y924035D01*
X1702206Y922088D01*
X1701931Y920000D01*
Y775000D01*
X1702206Y772912D01*
X1703012Y770965D01*
X1704294Y769294D01*
X1705966Y768012D01*
X1707912Y767206D01*
X1710000Y766931D01*
X1810000D01*
X1812088Y767206D01*
X1814034Y768012D01*
X1815706Y769294D01*
X1816988Y770965D01*
X1817794Y772912D01*
X1818069Y775000D01*
Y920000D01*
X1817794Y922088D01*
X1816988Y924035D01*
X1815706Y925706D01*
X1814034Y926988D01*
X1812088Y927794D01*
X1810000Y928069D01*
D02*
G37*
G36*
X542999Y989832D02*
X540454Y989497D01*
X538082Y988515D01*
X536045Y986952D01*
X534482Y984915D01*
X533500Y982543D01*
X533165Y979998D01*
X533166Y979990D01*
Y855000D01*
X533501Y852455D01*
X534483Y850083D01*
X536046Y848046D01*
X538083Y846483D01*
X540455Y845501D01*
X543000Y845166D01*
X545545Y845501D01*
X547917Y846483D01*
X549874Y847985D01*
X550989Y848546D01*
X551045D01*
X553081Y846983D01*
X555453Y846001D01*
X557998Y845666D01*
X560544Y846001D01*
X562915Y846983D01*
X564952Y848546D01*
X566515Y850583D01*
X567497Y852955D01*
X567832Y855500D01*
Y970987D01*
X567834Y971000D01*
X567499Y973545D01*
X566517Y975917D01*
X564954Y977954D01*
X562917Y979517D01*
X560545Y980499D01*
X558000Y980834D01*
X555455Y980499D01*
X554104Y979940D01*
X553965Y979946D01*
X552735Y980747D01*
X552499Y982542D01*
X551517Y984914D01*
X549954Y986951D01*
X549954Y986951D01*
X549953Y986952D01*
X547916Y988515D01*
X545544Y989497D01*
X542999Y989832D01*
D02*
G37*
G36*
X850000Y648069D02*
X550000D01*
X547912Y647794D01*
X545965Y646988D01*
X544294Y645706D01*
X543012Y644035D01*
X542206Y642088D01*
X541931Y640000D01*
X541931Y450000D01*
X542206Y447912D01*
X543012Y445965D01*
X544294Y444294D01*
X545965Y443012D01*
X547912Y442206D01*
X550000Y441931D01*
X850000D01*
X852088Y442206D01*
X854035Y443012D01*
X855706Y444294D01*
X856988Y445965D01*
X857794Y447912D01*
X858069Y450000D01*
X858069Y640000D01*
X857794Y642088D01*
X856988Y644035D01*
X855706Y645706D01*
X854035Y646988D01*
X852088Y647794D01*
X850000Y648069D01*
D02*
G37*
G36*
X1503000Y805337D02*
X823998D01*
X821323Y804985D01*
X818829Y803952D01*
X816688Y802309D01*
X815045Y800168D01*
X814012Y797674D01*
X813682Y795165D01*
X812324Y794986D01*
X809831Y793953D01*
X807690Y792310D01*
X806047Y790169D01*
X805014Y787676D01*
X804662Y785000D01*
X805014Y782324D01*
X806047Y779831D01*
X807690Y777690D01*
X809831Y776047D01*
X812324Y775014D01*
X815000Y774662D01*
X824704D01*
X825012Y772323D01*
X826045Y769829D01*
X827688Y767688D01*
X829829Y766045D01*
X832322Y765012D01*
X834998Y764660D01*
X835010Y764662D01*
X1493000D01*
X1495676Y765014D01*
X1498169Y766047D01*
X1500310Y767690D01*
X1501953Y769831D01*
X1502986Y772324D01*
X1503338Y775000D01*
X1502986Y777676D01*
X1501953Y780169D01*
X1500310Y782310D01*
X1498904Y783390D01*
X1499335Y784660D01*
X1503000D01*
X1505676Y785012D01*
X1508170Y786045D01*
X1510311Y787688D01*
X1511954Y789829D01*
X1512986Y792323D01*
X1513339Y794998D01*
X1512986Y797674D01*
X1511954Y800168D01*
X1510311Y802309D01*
X1508170Y803952D01*
X1505676Y804985D01*
X1503000Y805337D01*
D02*
G37*
G36*
X1040000Y1142338D02*
X1037324Y1141986D01*
X1034831Y1140953D01*
X1032690Y1139310D01*
X1031047Y1137169D01*
X1030014Y1134676D01*
X1029662Y1132000D01*
Y1004000D01*
X1030014Y1001324D01*
X1031047Y998831D01*
X1032690Y996690D01*
X1052690Y976690D01*
X1054831Y975047D01*
X1057324Y974014D01*
X1057797Y973952D01*
X1058205Y972749D01*
X1056569Y971112D01*
X1027636D01*
X1027467Y972395D01*
X1026157Y975558D01*
X1024073Y978273D01*
X1021358Y980357D01*
X1018195Y981667D01*
X1014802Y982114D01*
X1011408Y981667D01*
X1008246Y980357D01*
X1005530Y978273D01*
X1003606Y975767D01*
X1002337Y975950D01*
Y1026002D01*
X1001984Y1028678D01*
X1000951Y1031171D01*
X999308Y1033312D01*
X984310Y1048310D01*
X982169Y1049953D01*
X979676Y1050986D01*
X977000Y1051338D01*
X975293Y1051114D01*
X974338Y1051951D01*
Y1086662D01*
X1001000D01*
X1003676Y1087014D01*
X1006169Y1088047D01*
X1008310Y1089690D01*
X1009953Y1091831D01*
X1010986Y1094324D01*
X1011338Y1097000D01*
X1010986Y1099676D01*
X1009953Y1102169D01*
X1008310Y1104310D01*
X1006169Y1105953D01*
X1003676Y1106986D01*
X1001000Y1107338D01*
X970000D01*
X967324Y1106986D01*
X964831Y1105953D01*
X962690Y1104310D01*
X956690Y1098310D01*
X955047Y1096169D01*
X954014Y1093676D01*
X953662Y1091000D01*
Y1051951D01*
X952707Y1051114D01*
X951000Y1051338D01*
X948324Y1050986D01*
X945831Y1049953D01*
X943690Y1048310D01*
X942047Y1046169D01*
X941014Y1043676D01*
X940662Y1041000D01*
Y1035000D01*
X941014Y1032324D01*
X942047Y1029831D01*
X943690Y1027690D01*
X949690Y1021690D01*
X951831Y1020047D01*
X954324Y1019014D01*
X957000Y1018662D01*
X971662D01*
Y861000D01*
X972014Y858324D01*
X973047Y855831D01*
X974690Y853690D01*
X976831Y852047D01*
X979324Y851014D01*
X982000Y850662D01*
X984676Y851014D01*
X986997Y851975D01*
X989322Y851012D01*
X991998Y850660D01*
X994674Y851012D01*
X997167Y852045D01*
X999308Y853688D01*
X1000951Y855829D01*
X1001984Y858323D01*
X1002337Y860998D01*
Y958096D01*
X1002785Y958318D01*
X1003606Y958437D01*
X1005530Y955930D01*
X1012730Y948730D01*
X1012730Y948730D01*
X1012731Y948728D01*
X1012731Y948728D01*
X1015447Y946645D01*
X1018610Y945335D01*
X1022003Y944888D01*
X1022003Y944888D01*
X1025888D01*
Y839112D01*
X642112D01*
Y1021000D01*
X642112Y1021000D01*
X641665Y1024394D01*
X640356Y1027556D01*
X638272Y1030272D01*
X623272Y1045272D01*
X620556Y1047355D01*
X617394Y1048665D01*
X614000Y1049112D01*
X614000Y1049112D01*
X339000D01*
X335606Y1048665D01*
X332444Y1047355D01*
X329728Y1045272D01*
X329728Y1045272D01*
X318728Y1034272D01*
X316644Y1031556D01*
X315335Y1028394D01*
X314888Y1025000D01*
X314888Y1025000D01*
Y421000D01*
X314888Y421000D01*
X315335Y417606D01*
X316644Y414444D01*
X318728Y411728D01*
X322728Y407728D01*
X322728Y407728D01*
X326728Y403728D01*
X326728Y403728D01*
X329444Y401645D01*
X332606Y400335D01*
X336000Y399888D01*
X591888D01*
Y386053D01*
X590933Y385216D01*
X590000Y385338D01*
X587324Y384986D01*
X584831Y383953D01*
X582690Y382310D01*
X581047Y380169D01*
X580014Y377676D01*
X579662Y375000D01*
Y201865D01*
X571135Y193338D01*
X479000D01*
X476324Y192986D01*
X473831Y191953D01*
X471690Y190310D01*
X464690Y183310D01*
X463047Y181169D01*
X462014Y178676D01*
X461662Y176000D01*
Y162000D01*
X462014Y159324D01*
X463047Y156831D01*
X464690Y154690D01*
X466831Y153047D01*
X469324Y152014D01*
X472000Y151662D01*
X474676Y152014D01*
X477169Y153047D01*
X479310Y154690D01*
X480953Y156831D01*
X481986Y159324D01*
X482338Y162000D01*
Y171718D01*
X483282Y172662D01*
X556989D01*
X557333Y171439D01*
X556301Y170806D01*
X552495Y167556D01*
X549244Y163749D01*
X546628Y159481D01*
X544713Y154857D01*
X543544Y149990D01*
X543152Y145000D01*
X543544Y140010D01*
X544713Y135143D01*
X546628Y130519D01*
X549244Y126251D01*
X552495Y122444D01*
X556301Y119194D01*
X560569Y116578D01*
X565193Y114663D01*
X570060Y113494D01*
X575050Y113102D01*
X580040Y113494D01*
X584907Y114663D01*
X589532Y116578D01*
X593799Y119194D01*
X597606Y122444D01*
X600856Y126251D01*
X603472Y130519D01*
X605387Y135143D01*
X606556Y140010D01*
X606948Y145000D01*
X606556Y149990D01*
X605387Y154857D01*
X603472Y159481D01*
X600856Y163749D01*
X597606Y167556D01*
X593799Y170806D01*
X589532Y173422D01*
X584907Y175337D01*
X584129Y175524D01*
X583784Y176746D01*
X597310Y190273D01*
X598953Y192414D01*
X599986Y194907D01*
X600033Y195265D01*
X601337Y195437D01*
X601483Y195083D01*
X603046Y193046D01*
X605083Y191483D01*
X607455Y190501D01*
X609908Y190178D01*
X611166Y190000D01*
X611501Y187455D01*
X612483Y185083D01*
X614046Y183046D01*
X616083Y181483D01*
X618455Y180501D01*
X621000Y180166D01*
X665599D01*
X666085Y178993D01*
X665346Y178254D01*
X663783Y176217D01*
X662801Y173845D01*
X662633Y172573D01*
X662466Y171300D01*
X662466Y171300D01*
Y164072D01*
X661632Y162059D01*
X661255Y159200D01*
X661632Y156341D01*
X662735Y153678D01*
X664490Y151390D01*
X666778Y149635D01*
X669442Y148532D01*
X672300Y148155D01*
X675158Y148532D01*
X677822Y149635D01*
X680110Y151390D01*
X681865Y153678D01*
X682968Y156341D01*
X683344Y159200D01*
X682968Y162059D01*
X682134Y164072D01*
Y167227D01*
X684073Y169166D01*
X692914D01*
X693345Y167896D01*
X692190Y167010D01*
X690435Y164722D01*
X689332Y162059D01*
X688956Y159200D01*
X689332Y156341D01*
X690435Y153678D01*
X692190Y151390D01*
X694478Y149635D01*
X697141Y148532D01*
X700000Y148155D01*
X702859Y148532D01*
X705522Y149635D01*
X707810Y151390D01*
X709565Y153678D01*
X710668Y156341D01*
X711044Y159200D01*
X710668Y162059D01*
X709565Y164722D01*
X707810Y167010D01*
X706655Y167896D01*
X707086Y169166D01*
X710000D01*
X712545Y169501D01*
X714917Y170483D01*
X716000Y171314D01*
X717083Y170483D01*
X719455Y169501D01*
X720817Y169322D01*
X721173Y167994D01*
X719890Y167010D01*
X718135Y164722D01*
X717032Y162059D01*
X716656Y159200D01*
X717032Y156341D01*
X718135Y153678D01*
X719890Y151390D01*
X722178Y149635D01*
X724842Y148532D01*
X727700Y148155D01*
X730558Y148532D01*
X733222Y149635D01*
X735510Y151390D01*
X737265Y153678D01*
X738368Y156341D01*
X738744Y159200D01*
X738368Y162059D01*
X737265Y164722D01*
X735510Y167010D01*
X734238Y167985D01*
X734741Y169200D01*
X735000Y169166D01*
X737545Y169501D01*
X739917Y170483D01*
X741954Y172046D01*
X743517Y174083D01*
X744499Y176455D01*
X744834Y179000D01*
Y185000D01*
X744834Y185000D01*
X744499Y187545D01*
X743517Y189917D01*
X741954Y191954D01*
X741954Y191954D01*
X730193Y203715D01*
X730679Y204888D01*
X1093000D01*
X1093000Y204888D01*
X1096394Y205335D01*
X1099556Y206644D01*
X1102272Y208728D01*
X1118272Y224728D01*
X1118272Y224728D01*
X1120356Y227444D01*
X1121665Y230606D01*
X1122112Y234000D01*
Y254888D01*
X1176000D01*
X1179394Y255335D01*
X1182556Y256644D01*
X1185272Y258728D01*
X1187355Y261444D01*
X1188665Y264606D01*
X1189112Y268000D01*
X1188665Y271394D01*
X1187355Y274556D01*
X1185272Y277272D01*
X1182556Y279356D01*
X1179394Y280665D01*
X1176000Y281112D01*
X1115000D01*
X1115000Y281112D01*
X1111606Y280665D01*
X1108444Y279356D01*
X1105728Y277272D01*
X1105728Y277272D01*
X1099728Y271272D01*
X1097645Y268556D01*
X1096335Y265394D01*
X1095888Y262000D01*
X1095888Y262000D01*
Y239431D01*
X1087569Y231112D01*
X995804D01*
X994925Y232382D01*
X995184Y234350D01*
Y273650D01*
X994849Y276195D01*
X993867Y278567D01*
X992304Y280604D01*
X992304Y280604D01*
X974834Y298073D01*
Y320000D01*
X974569Y322014D01*
X975772Y322607D01*
X981690Y316690D01*
X983831Y315047D01*
X986324Y314014D01*
X989000Y313662D01*
X991676Y314014D01*
X993110Y314608D01*
X994166Y313902D01*
Y299000D01*
X994501Y296455D01*
X995483Y294083D01*
X997046Y292046D01*
X999083Y290483D01*
X1001455Y289501D01*
X1004000Y289166D01*
X1006545Y289501D01*
X1008917Y290483D01*
X1010954Y292046D01*
X1012517Y294083D01*
X1013499Y296455D01*
X1013834Y299000D01*
Y325000D01*
X1013834Y325000D01*
X1013499Y327545D01*
X1012517Y329917D01*
X1010954Y331954D01*
X1010954Y331954D01*
X983954Y358954D01*
X981917Y360517D01*
X979545Y361499D01*
X978273Y361667D01*
X977000Y361834D01*
X977000Y361834D01*
X839518D01*
X839032Y363008D01*
X840686Y364662D01*
X1120000D01*
X1122676Y365014D01*
X1125169Y366047D01*
X1127310Y367690D01*
X1157282Y397662D01*
X1475000D01*
X1477676Y398014D01*
X1480169Y399047D01*
X1482310Y400690D01*
X1487310Y405689D01*
X1488953Y407831D01*
X1489986Y410324D01*
X1490338Y413000D01*
Y421000D01*
X1489986Y423676D01*
X1488953Y426169D01*
X1487310Y428310D01*
X1485169Y429953D01*
X1482676Y430986D01*
X1480000Y431338D01*
X1477324Y430986D01*
X1475000Y430023D01*
X1472676Y430986D01*
X1470000Y431338D01*
X1467324Y430986D01*
X1464831Y429953D01*
X1462690Y428310D01*
X1461718Y427338D01*
X1149272D01*
X1146596Y426986D01*
X1144103Y425953D01*
X1141962Y424310D01*
X1111990Y394338D01*
X820004D01*
X817328Y393986D01*
X814835Y392953D01*
X812693Y391310D01*
X791191Y369809D01*
X789548Y367667D01*
X788813Y365891D01*
X787342Y365565D01*
X782936Y369972D01*
Y386302D01*
X782601Y388847D01*
X781618Y391219D01*
X780056Y393256D01*
X778019Y394818D01*
X775647Y395801D01*
X773102Y396136D01*
X770557Y395801D01*
X768185Y394818D01*
X766148Y393256D01*
X764585Y391219D01*
X763603Y388847D01*
X763268Y386302D01*
Y369512D01*
X762094Y369026D01*
X748810Y382310D01*
X746669Y383953D01*
X744176Y384986D01*
X741500Y385338D01*
X641000D01*
X638324Y384986D01*
X635831Y383953D01*
X633690Y382310D01*
X632047Y380169D01*
X631014Y377676D01*
X630662Y375000D01*
X631014Y372324D01*
X632047Y369831D01*
X633690Y367690D01*
X635831Y366047D01*
X638324Y365014D01*
X641000Y364662D01*
X737218D01*
X756570Y345309D01*
X756084Y344136D01*
X747702D01*
X745157Y343801D01*
X742785Y342818D01*
X740748Y341256D01*
X739185Y339219D01*
X738203Y336847D01*
X737938Y334834D01*
X735677D01*
X729256Y341256D01*
X727219Y342818D01*
X724847Y343801D01*
X722302Y344136D01*
X719757Y343801D01*
X717385Y342818D01*
X715348Y341256D01*
X713785Y339219D01*
X712803Y336847D01*
X712468Y334302D01*
X712803Y331757D01*
X713785Y329385D01*
X715348Y327348D01*
X724650Y318046D01*
X724650Y318046D01*
X726687Y316483D01*
X729058Y315501D01*
X731604Y315166D01*
X942166D01*
Y299000D01*
X942501Y296455D01*
X943483Y294083D01*
X945046Y292046D01*
X947083Y290483D01*
X949455Y289501D01*
X952000Y289166D01*
X954545Y289501D01*
X956052Y290125D01*
X956483Y289083D01*
X958046Y287046D01*
X975516Y269576D01*
Y234350D01*
X975775Y232382D01*
X974896Y231112D01*
X618112D01*
Y399888D01*
X958000D01*
X958000Y399888D01*
X961394Y400335D01*
X964556Y401645D01*
X967272Y403728D01*
X976772Y413228D01*
X976772Y413228D01*
X978856Y415944D01*
X980165Y419106D01*
X980612Y422500D01*
Y443888D01*
X997000D01*
X1000394Y444335D01*
X1003556Y445644D01*
X1006272Y447728D01*
X1008355Y450444D01*
X1009665Y453606D01*
X1010112Y457000D01*
X1009665Y460394D01*
X1008355Y463556D01*
X1006272Y466272D01*
X1003556Y468355D01*
X1000394Y469665D01*
X997000Y470112D01*
X974000D01*
X970606Y469665D01*
X967444Y468355D01*
X964728Y466272D01*
X964728Y466272D01*
X958228Y459772D01*
X956144Y457056D01*
X954835Y453894D01*
X954388Y450500D01*
X954388Y450500D01*
Y427931D01*
X952569Y426112D01*
X540230D01*
X539822Y427315D01*
X540310Y427690D01*
X541953Y429831D01*
X542986Y432324D01*
X543338Y435000D01*
X542986Y437676D01*
X541953Y440169D01*
X540310Y442310D01*
X524310Y458310D01*
X522169Y459953D01*
X519676Y460986D01*
X517000Y461338D01*
X382282D01*
X373310Y470310D01*
X371169Y471953D01*
X368676Y472986D01*
X366000Y473338D01*
X363324Y472986D01*
X360831Y471953D01*
X358690Y470310D01*
X357047Y468169D01*
X356014Y465676D01*
X355662Y463000D01*
X356014Y460324D01*
X357047Y457831D01*
X358690Y455690D01*
X370690Y443690D01*
X372831Y442047D01*
X375324Y441014D01*
X378000Y440662D01*
X512718D01*
X525690Y427690D01*
X526178Y427315D01*
X525770Y426112D01*
X341431D01*
X341272Y426272D01*
X341272Y426272D01*
X341112Y426431D01*
Y1019569D01*
X344431Y1022888D01*
X608569D01*
X615888Y1015569D01*
Y826000D01*
Y771975D01*
X614618Y771349D01*
X613665Y772080D01*
X611415Y773012D01*
X609000Y773330D01*
X536000D01*
X533585Y773012D01*
X532999Y772769D01*
X532199Y773812D01*
X533080Y774960D01*
X534012Y777210D01*
X534330Y779625D01*
Y782375D01*
X534012Y784790D01*
X533303Y786500D01*
X534012Y788210D01*
X534330Y790625D01*
Y793375D01*
X534012Y795790D01*
X533303Y797500D01*
X534012Y799210D01*
X534330Y801625D01*
Y804375D01*
X534012Y806790D01*
X533303Y808500D01*
X534012Y810210D01*
X534330Y812625D01*
Y815375D01*
X534012Y817790D01*
X533080Y820040D01*
X531597Y821972D01*
X530222Y823347D01*
X529330Y824032D01*
Y825000D01*
X529012Y827415D01*
X528080Y829665D01*
X526597Y831597D01*
X519597Y838597D01*
X517665Y840080D01*
X515415Y841012D01*
X513000Y841330D01*
X509966D01*
X509080Y843468D01*
X507597Y845400D01*
X502401Y850597D01*
X500468Y852080D01*
X498218Y853012D01*
X495803Y853330D01*
X493389Y853012D01*
X492615Y852691D01*
X491208Y853483D01*
X491137Y853942D01*
X500597Y863403D01*
X502080Y865335D01*
X503012Y867585D01*
X503330Y870000D01*
X503012Y872415D01*
X502080Y874665D01*
X500597Y876597D01*
X498665Y878080D01*
X496415Y879012D01*
X494000Y879330D01*
X491585Y879012D01*
X489335Y878080D01*
X487403Y876597D01*
X476850Y866044D01*
X475580Y866570D01*
Y875385D01*
X488597Y888403D01*
X490080Y890335D01*
X491012Y892585D01*
X491330Y895000D01*
X491012Y897415D01*
X490080Y899665D01*
X488597Y901597D01*
X486665Y903080D01*
X484415Y904012D01*
X482000Y904330D01*
X479585Y904012D01*
X477335Y903080D01*
X475403Y901597D01*
X463355Y889550D01*
X462665Y890080D01*
X460415Y891012D01*
X458000Y891330D01*
X455585Y891012D01*
X453335Y890080D01*
X451403Y888597D01*
X449920Y886665D01*
X448988Y884415D01*
X448670Y882000D01*
Y823000D01*
X448988Y820585D01*
X449920Y818335D01*
X451403Y816403D01*
X460670Y807135D01*
Y764615D01*
X459880Y764102D01*
X459431Y763927D01*
X457290Y764814D01*
X454875Y765131D01*
X452125D01*
X449710Y764814D01*
X448000Y764105D01*
X446290Y764814D01*
X443875Y765131D01*
X441125D01*
X438710Y764814D01*
X438086Y764555D01*
X436614Y765320D01*
X436527Y765530D01*
X435044Y767463D01*
X434327Y768180D01*
X434330Y768202D01*
X434012Y770616D01*
X433080Y772867D01*
X431597Y774799D01*
X429665Y776282D01*
X427415Y777214D01*
X425000Y777531D01*
X422585Y777214D01*
X420335Y776282D01*
X419099Y775333D01*
X418440Y775840D01*
X416189Y776772D01*
X413775Y777089D01*
X411830D01*
X409415Y776772D01*
X407165Y775840D01*
X405233Y774357D01*
X403288Y772412D01*
X401806Y770480D01*
X401097Y768770D01*
X399387Y768061D01*
X397455Y766579D01*
X395510Y764634D01*
X394028Y762702D01*
X393096Y760452D01*
X392778Y758037D01*
Y756093D01*
X393096Y753678D01*
X394028Y751428D01*
X394711Y750537D01*
X394382Y749310D01*
X393710Y749032D01*
X392600Y748180D01*
X391330Y748806D01*
Y777000D01*
X391012Y779415D01*
X390080Y781665D01*
X388597Y783597D01*
X386665Y785080D01*
X384415Y786012D01*
X382000Y786330D01*
X379585Y786012D01*
X377335Y785080D01*
X375403Y783597D01*
X373920Y781665D01*
X372988Y779415D01*
X372670Y777000D01*
Y659865D01*
X362403Y649597D01*
X360920Y647665D01*
X359988Y645415D01*
X359670Y643000D01*
Y583000D01*
X359988Y580585D01*
X360920Y578335D01*
X362403Y576403D01*
X372670Y566135D01*
Y498330D01*
X369000D01*
X366585Y498012D01*
X364335Y497080D01*
X362403Y495597D01*
X360920Y493665D01*
X359988Y491415D01*
X359670Y489000D01*
X359988Y486585D01*
X360920Y484335D01*
X362403Y482403D01*
X364335Y480920D01*
X366585Y479988D01*
X369000Y479670D01*
X378000D01*
X380415Y479988D01*
X382665Y480920D01*
X384597Y482403D01*
X388597Y486403D01*
X390080Y488335D01*
X391012Y490585D01*
X391330Y493000D01*
Y558805D01*
X392600Y559331D01*
X392778Y559153D01*
X394710Y557670D01*
X396960Y556738D01*
X399375Y556420D01*
X403390D01*
X403403Y556403D01*
X405403Y554403D01*
X407335Y552920D01*
X409585Y551988D01*
X412000Y551670D01*
X430000D01*
X432415Y551988D01*
X434665Y552920D01*
X436597Y554403D01*
X436644Y554450D01*
X437335Y553920D01*
X439585Y552988D01*
X442000Y552670D01*
X456000D01*
X458415Y552988D01*
X460665Y553920D01*
X462597Y555403D01*
X465597Y558403D01*
X467080Y560335D01*
X468012Y562585D01*
X468330Y565000D01*
Y580420D01*
X469625D01*
X472040Y580738D01*
X474290Y581670D01*
X476222Y583153D01*
X477597Y584528D01*
X478400Y585574D01*
X479670Y585143D01*
Y562865D01*
X463004Y546199D01*
X461522Y544267D01*
X460590Y542016D01*
X460272Y539602D01*
X460590Y537187D01*
X461522Y534937D01*
X463004Y533004D01*
X464937Y531522D01*
X467187Y530590D01*
X469602Y530272D01*
X472016Y530590D01*
X474267Y531522D01*
X476199Y533004D01*
X495597Y552403D01*
X497080Y554335D01*
X498012Y556585D01*
X498330Y559000D01*
Y628135D01*
X523865Y653670D01*
X767000D01*
X769415Y653988D01*
X771665Y654920D01*
X773597Y656403D01*
X799347Y682153D01*
X800830Y684085D01*
X801762Y686335D01*
X802080Y688750D01*
Y721796D01*
X801762Y724211D01*
X800830Y726461D01*
X799830Y727764D01*
Y739800D01*
X799512Y742215D01*
X798580Y744465D01*
X797098Y746397D01*
X795165Y747880D01*
X792915Y748812D01*
X790500Y749130D01*
X788086Y748812D01*
X785835Y747880D01*
X783903Y746397D01*
X782421Y744465D01*
X781489Y742215D01*
X781171Y739800D01*
Y724045D01*
X781489Y721631D01*
X782421Y719381D01*
X783052Y718558D01*
X783047Y718458D01*
X782486Y717262D01*
X780585Y717012D01*
X778335Y716080D01*
X776903Y714981D01*
X776000Y714716D01*
X775097Y714981D01*
X773665Y716080D01*
X771415Y717012D01*
X769000Y717330D01*
X766585Y717012D01*
X764335Y716080D01*
X762403Y714597D01*
X761635Y713596D01*
X760365D01*
X759597Y714597D01*
X757665Y716080D01*
X755415Y717012D01*
X753000Y717330D01*
X750585Y717012D01*
X748335Y716080D01*
X746403Y714597D01*
X746134Y714247D01*
X744864D01*
X744596Y714596D01*
X742663Y716078D01*
X740413Y717010D01*
X737999Y717328D01*
X735584Y717010D01*
X733334Y716078D01*
X731401Y714596D01*
X730496Y713691D01*
X729229Y713774D01*
X728597Y714597D01*
X726665Y716080D01*
X724415Y717012D01*
X722000Y717330D01*
X719585Y717012D01*
X717335Y716080D01*
X715903Y714981D01*
X714597Y714597D01*
X712665Y716080D01*
X710415Y717012D01*
X708000Y717330D01*
X705585Y717012D01*
X703335Y716080D01*
X701500Y714672D01*
X699830Y715953D01*
Y739800D01*
X699512Y742215D01*
X698580Y744465D01*
X697098Y746397D01*
X695165Y747880D01*
X692915Y748812D01*
X690501Y749130D01*
X688086Y748812D01*
X685836Y747880D01*
X683904Y746397D01*
X682421Y744465D01*
X681489Y742215D01*
X681171Y739800D01*
Y722873D01*
X680030Y721827D01*
X679200Y721893D01*
X678597Y722678D01*
X676665Y724161D01*
X674415Y725093D01*
X672635Y725327D01*
X672179Y726668D01*
X677098Y731587D01*
X678580Y733519D01*
X679513Y735769D01*
X679830Y738184D01*
Y739800D01*
X679513Y742215D01*
X678580Y744465D01*
X677098Y746397D01*
X675166Y747880D01*
X672915Y748812D01*
X671348Y749018D01*
X671080Y749665D01*
X669597Y751597D01*
X667665Y753080D01*
X665415Y754012D01*
X663000Y754330D01*
X660585Y754012D01*
X658335Y753080D01*
X656403Y751597D01*
X654920Y749665D01*
X653988Y747415D01*
X653670Y745000D01*
Y741619D01*
X647880Y735829D01*
X647232Y735881D01*
X646414Y737198D01*
X646691Y737867D01*
X647104Y741000D01*
X646691Y744133D01*
X645482Y747052D01*
X643559Y749558D01*
X642112Y750668D01*
Y812888D01*
X1501569D01*
X1524888Y789569D01*
Y669431D01*
X1505728Y650272D01*
X1503645Y647556D01*
X1502632Y645112D01*
X1455000D01*
X1451606Y644665D01*
X1448444Y643355D01*
X1445728Y641272D01*
X1443645Y638556D01*
X1442335Y635394D01*
X1441888Y632000D01*
X1442335Y628606D01*
X1443645Y625444D01*
X1445728Y622728D01*
X1448444Y620644D01*
X1451606Y619335D01*
X1455000Y618888D01*
X1501888D01*
Y597000D01*
X1502335Y593606D01*
X1503645Y590444D01*
X1505728Y587728D01*
X1508444Y585644D01*
X1511606Y584335D01*
X1515000Y583888D01*
X1518394Y584335D01*
X1521556Y585644D01*
X1524272Y587728D01*
X1526355Y590444D01*
X1527665Y593606D01*
X1528112Y597000D01*
Y632000D01*
Y635569D01*
X1547272Y654728D01*
X1547272Y654728D01*
X1549355Y657444D01*
X1550665Y660606D01*
X1551112Y664000D01*
Y795000D01*
X1550665Y798394D01*
X1549355Y801556D01*
X1547272Y804272D01*
X1547272Y804272D01*
X1516272Y835272D01*
X1513556Y837355D01*
X1510394Y838665D01*
X1507000Y839112D01*
X1507000Y839112D01*
X1052112D01*
Y944888D01*
X1062000D01*
X1062000Y944888D01*
X1065394Y945335D01*
X1068556Y946645D01*
X1071272Y948728D01*
X1084272Y961728D01*
X1084272Y961728D01*
X1086356Y964444D01*
X1087665Y967606D01*
X1088112Y971000D01*
Y1023000D01*
X1087665Y1026394D01*
X1086356Y1029556D01*
X1084272Y1032272D01*
X1084272Y1032272D01*
X1080272Y1036272D01*
X1077556Y1038355D01*
X1074394Y1039665D01*
X1071000Y1040112D01*
X1071000Y1040112D01*
X1051750D01*
X1051293Y1040052D01*
X1050338Y1040889D01*
Y1132000D01*
X1049986Y1134676D01*
X1048953Y1137169D01*
X1047310Y1139310D01*
X1045169Y1140953D01*
X1042676Y1141986D01*
X1040000Y1142338D01*
D02*
G37*
G36*
X1268000Y1158124D02*
X1261723Y1157630D01*
X1255601Y1156160D01*
X1249784Y1153751D01*
X1244416Y1150461D01*
X1239629Y1146372D01*
X1235539Y1141584D01*
X1232250Y1136216D01*
X1229840Y1130399D01*
X1228371Y1124277D01*
X1227877Y1118000D01*
X1228371Y1111723D01*
X1229840Y1105601D01*
X1232250Y1099784D01*
X1235539Y1094416D01*
X1239629Y1089628D01*
X1244416Y1085539D01*
X1249784Y1082250D01*
X1255601Y1079840D01*
X1261723Y1078370D01*
X1268000Y1077876D01*
X1274277Y1078370D01*
X1280399Y1079840D01*
X1286216Y1082250D01*
X1291584Y1085539D01*
X1296372Y1089628D01*
X1300461Y1094416D01*
X1303751Y1099784D01*
X1306160Y1105601D01*
X1307630Y1111723D01*
X1308124Y1118000D01*
X1307630Y1124277D01*
X1306160Y1130399D01*
X1303751Y1136216D01*
X1300461Y1141584D01*
X1296372Y1146372D01*
X1291584Y1150461D01*
X1286216Y1153751D01*
X1280399Y1156160D01*
X1274277Y1157630D01*
X1268000Y1158124D01*
D02*
G37*
G36*
X30000Y1167565D02*
X28042Y1167307D01*
X26218Y1166551D01*
X24651Y1165349D01*
X23449Y1163782D01*
X22693Y1161958D01*
X22435Y1160000D01*
X22693Y1158042D01*
X23449Y1156218D01*
X24651Y1154651D01*
X26218Y1153449D01*
X28042Y1152693D01*
X30000Y1152435D01*
X31958Y1152693D01*
X33782Y1153449D01*
X35349Y1154651D01*
X36551Y1156218D01*
X37307Y1158042D01*
X37565Y1160000D01*
X37307Y1161958D01*
X36551Y1163782D01*
X35349Y1165349D01*
X33782Y1166551D01*
X31958Y1167307D01*
X30000Y1167565D01*
D02*
G37*
G36*
X598000Y1008834D02*
X595455Y1008499D01*
X593083Y1007517D01*
X591046Y1005954D01*
X591045Y1005952D01*
X589482Y1003915D01*
X588499Y1001544D01*
X588388Y1000696D01*
X587579Y1000059D01*
X587001Y999896D01*
X585545Y1000499D01*
X583000Y1000834D01*
X580455Y1000499D01*
X578083Y999517D01*
X576046Y997954D01*
X574483Y995917D01*
X573501Y993545D01*
X573166Y991000D01*
X573166Y991000D01*
Y855000D01*
X573501Y852455D01*
X574483Y850083D01*
X576046Y848046D01*
X578083Y846483D01*
X580455Y845501D01*
X583000Y845166D01*
X585545Y845501D01*
X587917Y846483D01*
X589874Y847985D01*
X590989Y848546D01*
X591045D01*
X593081Y846983D01*
X595453Y846001D01*
X597998Y845666D01*
X600544Y846001D01*
X602915Y846983D01*
X604952Y848546D01*
X606515Y850583D01*
X607497Y852955D01*
X607832Y855500D01*
Y998988D01*
X607834Y999000D01*
X607499Y1001545D01*
X606517Y1003917D01*
X604954Y1005954D01*
X602917Y1007517D01*
X600545Y1008499D01*
X598000Y1008834D01*
D02*
G37*
G36*
X132000Y1158124D02*
X125723Y1157630D01*
X119601Y1156160D01*
X113784Y1153751D01*
X108416Y1150461D01*
X103628Y1146372D01*
X99539Y1141584D01*
X96250Y1136216D01*
X93840Y1130399D01*
X92370Y1124277D01*
X91876Y1118000D01*
X92370Y1111723D01*
X93840Y1105601D01*
X96250Y1099784D01*
X99539Y1094416D01*
X103628Y1089628D01*
X108416Y1085539D01*
X113784Y1082250D01*
X119601Y1079840D01*
X125723Y1078370D01*
X132000Y1077876D01*
X138277Y1078370D01*
X144399Y1079840D01*
X150216Y1082250D01*
X155584Y1085539D01*
X160372Y1089628D01*
X164461Y1094416D01*
X167750Y1099784D01*
X170160Y1105601D01*
X171630Y1111723D01*
X172124Y1118000D01*
X171630Y1124277D01*
X170160Y1130399D01*
X167750Y1136216D01*
X164461Y1141584D01*
X160372Y1146372D01*
X155584Y1150461D01*
X150216Y1153751D01*
X144399Y1156160D01*
X138277Y1157630D01*
X132000Y1158124D01*
D02*
G37*
G36*
X1268000Y382124D02*
X1261723Y381630D01*
X1255601Y380160D01*
X1249784Y377751D01*
X1244416Y374461D01*
X1239629Y370372D01*
X1235539Y365584D01*
X1232250Y360216D01*
X1229840Y354399D01*
X1228371Y348277D01*
X1227877Y342000D01*
X1228371Y335723D01*
X1229840Y329601D01*
X1232250Y323784D01*
X1235539Y318416D01*
X1239629Y313628D01*
X1244416Y309539D01*
X1249784Y306250D01*
X1255601Y303840D01*
X1261723Y302370D01*
X1268000Y301876D01*
X1274277Y302370D01*
X1280399Y303840D01*
X1286216Y306250D01*
X1291584Y309539D01*
X1296372Y313628D01*
X1300461Y318416D01*
X1303751Y323784D01*
X1306160Y329601D01*
X1307630Y335723D01*
X1308124Y342000D01*
X1307630Y348277D01*
X1306160Y354399D01*
X1303751Y360216D01*
X1300461Y365584D01*
X1296372Y370372D01*
X1291584Y374461D01*
X1286216Y377751D01*
X1280399Y380160D01*
X1274277Y381630D01*
X1268000Y382124D01*
D02*
G37*
G36*
X655550Y170150D02*
X633650D01*
Y148250D01*
X655550D01*
Y170150D01*
D02*
G37*
G36*
X752900Y170924D02*
X752280Y170842D01*
X749373Y169638D01*
X746877Y167723D01*
X744962Y165227D01*
X743757Y162320D01*
X743676Y161700D01*
X752900D01*
Y170924D01*
D02*
G37*
G36*
X767124Y156700D02*
X757900D01*
Y147476D01*
X758520Y147558D01*
X761426Y148762D01*
X763923Y150677D01*
X765838Y153174D01*
X767042Y156080D01*
X767124Y156700D01*
D02*
G37*
G36*
X741550Y141845D02*
X738691Y141468D01*
X736028Y140365D01*
X733740Y138610D01*
X731985Y136322D01*
X730882Y133659D01*
X730506Y130800D01*
X730882Y127942D01*
X731985Y125278D01*
X733740Y122990D01*
X736028Y121235D01*
X738691Y120132D01*
X741550Y119755D01*
X744408Y120132D01*
X747072Y121235D01*
X749360Y122990D01*
X751115Y125278D01*
X752218Y127942D01*
X752595Y130800D01*
X752218Y133659D01*
X751115Y136322D01*
X749360Y138610D01*
X747072Y140365D01*
X744408Y141468D01*
X741550Y141845D01*
D02*
G37*
G36*
X752900Y156700D02*
X743676D01*
X743757Y156080D01*
X744962Y153174D01*
X746877Y150677D01*
X749373Y148762D01*
X752280Y147558D01*
X752900Y147476D01*
Y156700D01*
D02*
G37*
G36*
X757900Y170924D02*
Y161700D01*
X767124D01*
X767042Y162320D01*
X765838Y165227D01*
X763923Y167723D01*
X761426Y169638D01*
X758520Y170842D01*
X757900Y170924D01*
D02*
G37*
G36*
X132000Y382124D02*
X125723Y381630D01*
X119601Y380160D01*
X113784Y377751D01*
X108416Y374461D01*
X103628Y370372D01*
X99539Y365584D01*
X96250Y360216D01*
X93840Y354399D01*
X92370Y348277D01*
X91876Y342000D01*
X92370Y335723D01*
X93840Y329601D01*
X96250Y323784D01*
X99539Y318416D01*
X103628Y313628D01*
X108416Y309539D01*
X113784Y306250D01*
X119601Y303840D01*
X125723Y302370D01*
X132000Y301876D01*
X138277Y302370D01*
X144399Y303840D01*
X150216Y306250D01*
X155584Y309539D01*
X160372Y313628D01*
X164461Y318416D01*
X167750Y323784D01*
X170160Y329601D01*
X171630Y335723D01*
X172124Y342000D01*
X171630Y348277D01*
X170160Y354399D01*
X167750Y360216D01*
X164461Y365584D01*
X160372Y370372D01*
X155584Y374461D01*
X150216Y377751D01*
X144399Y380160D01*
X138277Y381630D01*
X132000Y382124D01*
D02*
G37*
G36*
X659000Y321834D02*
X656455Y321499D01*
X654083Y320517D01*
X652046Y318954D01*
X650483Y316917D01*
X649501Y314545D01*
X649166Y312000D01*
X649501Y309455D01*
X650483Y307083D01*
X652046Y305046D01*
X660046Y297046D01*
X660046Y297046D01*
X662083Y295483D01*
X664455Y294501D01*
X665727Y294333D01*
X667000Y294166D01*
X667000Y294166D01*
X696000D01*
X698545Y294501D01*
X700917Y295483D01*
X702954Y297046D01*
X704517Y299083D01*
X705499Y301455D01*
X705834Y304000D01*
X705499Y306545D01*
X704517Y308917D01*
X702954Y310954D01*
X700917Y312517D01*
X698545Y313499D01*
X696000Y313834D01*
X671073D01*
X665954Y318954D01*
X663917Y320517D01*
X661545Y321499D01*
X659000Y321834D01*
D02*
G37*
G36*
X1146000Y321338D02*
X1143324Y320986D01*
X1140831Y319953D01*
X1138690Y318310D01*
X1137047Y316169D01*
X1136014Y313676D01*
X1135662Y311000D01*
X1136014Y308324D01*
X1137047Y305831D01*
X1138690Y303690D01*
X1149690Y292690D01*
X1151831Y291047D01*
X1154324Y290014D01*
X1157000Y289662D01*
X1203000D01*
X1205676Y290014D01*
X1208169Y291047D01*
X1210310Y292690D01*
X1211953Y294831D01*
X1212986Y297324D01*
X1213338Y300000D01*
X1212986Y302676D01*
X1211953Y305169D01*
X1210310Y307310D01*
X1208169Y308953D01*
X1205676Y309986D01*
X1203000Y310338D01*
X1161282D01*
X1153310Y318310D01*
X1151169Y319953D01*
X1148676Y320986D01*
X1146000Y321338D01*
D02*
G37*
%LPD*%
G36*
X393710Y694372D02*
X395960Y693440D01*
X396670Y693346D01*
Y686000D01*
X396988Y683585D01*
X397920Y681335D01*
X399403Y679403D01*
X408636Y670170D01*
X408228Y668967D01*
X408145Y668956D01*
X405895Y668024D01*
X403963Y666542D01*
X402018Y664597D01*
X400535Y662665D01*
X399827Y660955D01*
X398117Y660246D01*
X396184Y658764D01*
X394240Y656819D01*
X392757Y654887D01*
X392328Y653850D01*
X391090Y654181D01*
X391330Y656000D01*
Y694598D01*
X392600Y695224D01*
X393710Y694372D01*
D02*
G37*
G36*
X615888Y756025D02*
Y748837D01*
X614518Y747052D01*
X613309Y744133D01*
X612896Y741000D01*
X613309Y737867D01*
X613923Y736386D01*
X613217Y735330D01*
X547220D01*
X529330Y753220D01*
Y755858D01*
X530600Y756484D01*
X531335Y755920D01*
X533585Y754988D01*
X536000Y754670D01*
X609000D01*
X611415Y754988D01*
X613665Y755920D01*
X614618Y756651D01*
X615888Y756025D01*
D02*
G37*
G36*
X1013407Y2389887D02*
X1013628Y2389628D01*
X1018416Y2385539D01*
X1023784Y2382250D01*
X1029601Y2379840D01*
X1035723Y2378371D01*
X1042000Y2377876D01*
X1048277Y2378371D01*
X1054399Y2379840D01*
X1060216Y2382250D01*
X1065584Y2385539D01*
X1070372Y2389628D01*
X1074461Y2394416D01*
X1077750Y2399784D01*
X1080160Y2405601D01*
X1081630Y2411723D01*
X1082124Y2418000D01*
X1081630Y2424277D01*
X1080160Y2430399D01*
X1077750Y2436216D01*
X1074461Y2441584D01*
X1070372Y2446372D01*
X1070113Y2446593D01*
X1070632Y2448000D01*
X1789368D01*
X1789887Y2446593D01*
X1789628Y2446372D01*
X1785539Y2441584D01*
X1782249Y2436216D01*
X1779840Y2430399D01*
X1778370Y2424277D01*
X1777876Y2418000D01*
X1778370Y2411723D01*
X1779840Y2405601D01*
X1782249Y2399784D01*
X1785539Y2394416D01*
X1789628Y2389628D01*
X1794416Y2385539D01*
X1799784Y2382250D01*
X1805601Y2379840D01*
X1811723Y2378371D01*
X1818000Y2377876D01*
X1824277Y2378371D01*
X1830399Y2379840D01*
X1836216Y2382250D01*
X1841584Y2385539D01*
X1846372Y2389628D01*
X1846593Y2389887D01*
X1848000Y2389368D01*
Y1310632D01*
X1846593Y1310113D01*
X1846372Y1310372D01*
X1841584Y1314461D01*
X1836216Y1317750D01*
X1830399Y1320160D01*
X1824277Y1321630D01*
X1818000Y1322124D01*
X1811723Y1321630D01*
X1805601Y1320160D01*
X1799784Y1317750D01*
X1794416Y1314461D01*
X1789628Y1310372D01*
X1785539Y1305584D01*
X1782249Y1300216D01*
X1779840Y1294399D01*
X1778370Y1288277D01*
X1777876Y1282000D01*
X1778370Y1275723D01*
X1779840Y1269601D01*
X1782249Y1263784D01*
X1785539Y1258416D01*
X1789628Y1253628D01*
X1789887Y1253407D01*
X1789368Y1252000D01*
X1070632D01*
X1070113Y1253407D01*
X1070372Y1253628D01*
X1074461Y1258416D01*
X1077750Y1263784D01*
X1080160Y1269601D01*
X1081630Y1275723D01*
X1082124Y1282000D01*
X1081630Y1288277D01*
X1080160Y1294399D01*
X1077750Y1300216D01*
X1074461Y1305584D01*
X1070372Y1310372D01*
X1065584Y1314461D01*
X1060216Y1317750D01*
X1054399Y1320160D01*
X1048277Y1321630D01*
X1042000Y1322124D01*
X1035723Y1321630D01*
X1029601Y1320160D01*
X1023784Y1317750D01*
X1018416Y1314461D01*
X1013628Y1310372D01*
X1013407Y1310113D01*
X1012000Y1310632D01*
Y2389368D01*
X1013407Y2389887D01*
D02*
G37*
%LPC*%
G36*
X1513409Y2175000D02*
Y2131000D01*
X1513770Y2128259D01*
X1514828Y2125704D01*
X1516511Y2123511D01*
X1532514Y2107509D01*
X1534707Y2105826D01*
X1537262Y2104768D01*
X1540003Y2104407D01*
X1680004D01*
X1681616D01*
X1693409Y2092613D01*
Y2056000D01*
X1693770Y2053259D01*
X1694828Y2050705D01*
X1696511Y2048511D01*
X1703512Y2041511D01*
X1705705Y2039828D01*
X1708259Y2038770D01*
X1711000Y2038409D01*
X1731613D01*
X1736808Y2033215D01*
Y1802323D01*
X1736145Y1801911D01*
X1735308Y1801696D01*
X1733909Y1802769D01*
X1732023Y1803550D01*
X1730000Y1803817D01*
X1523002D01*
X1520979Y1803550D01*
X1519093Y1802769D01*
X1517475Y1801527D01*
X1517473Y1801526D01*
X1516231Y1799907D01*
X1515450Y1798022D01*
X1515184Y1795999D01*
X1515450Y1793976D01*
X1516231Y1792090D01*
X1517473Y1790471D01*
X1519092Y1789229D01*
X1520978Y1788448D01*
X1522279Y1788277D01*
X1522450Y1786976D01*
X1523231Y1785090D01*
X1524473Y1783471D01*
X1526092Y1782229D01*
X1527978Y1781448D01*
X1528204Y1781153D01*
X1528184Y1780999D01*
X1528450Y1778976D01*
X1529231Y1777090D01*
X1530473Y1775471D01*
X1532092Y1774229D01*
X1533978Y1773448D01*
X1534261Y1773411D01*
X1534450Y1771977D01*
X1535231Y1770091D01*
X1536473Y1768472D01*
X1538092Y1767230D01*
X1539977Y1766449D01*
X1540261Y1766412D01*
X1540450Y1764977D01*
X1541230Y1763091D01*
X1542473Y1761472D01*
X1544092Y1760230D01*
X1545977Y1759449D01*
X1548000Y1759183D01*
X1698000D01*
X1700024Y1759449D01*
X1701909Y1760230D01*
X1703528Y1761472D01*
X1704770Y1763091D01*
X1705551Y1764977D01*
X1705772Y1766656D01*
X1707159Y1767230D01*
X1708778Y1768472D01*
X1710020Y1770091D01*
X1710801Y1771977D01*
X1710960Y1773182D01*
X1728000D01*
X1730023Y1773448D01*
X1731909Y1774229D01*
X1733528Y1775471D01*
X1734770Y1777090D01*
X1735308Y1778389D01*
X1736808Y1778090D01*
Y1519000D01*
X1737169Y1516259D01*
X1738227Y1513705D01*
X1739910Y1511511D01*
X1742103Y1509828D01*
X1744657Y1508770D01*
X1747398Y1508409D01*
X1750139Y1508770D01*
X1752694Y1509828D01*
X1754887Y1511511D01*
X1756570Y1513705D01*
X1757628Y1516259D01*
X1757989Y1519000D01*
Y2037602D01*
X1757628Y2040343D01*
X1756570Y2042897D01*
X1754887Y2045090D01*
X1743489Y2056488D01*
X1741295Y2058172D01*
X1738741Y2059230D01*
X1736000Y2059590D01*
X1726918D01*
X1726311Y2061091D01*
X1727038Y2062846D01*
X1727321Y2065000D01*
Y2105953D01*
X1754484Y2133116D01*
X1755806Y2134839D01*
X1756638Y2136846D01*
X1756921Y2139000D01*
Y2298400D01*
X1756638Y2300554D01*
X1755806Y2302560D01*
X1754484Y2304284D01*
X1740884Y2317884D01*
X1739161Y2319206D01*
X1737154Y2320038D01*
X1735000Y2320321D01*
X1633000D01*
X1630846Y2320038D01*
X1628840Y2319206D01*
X1627116Y2317884D01*
X1625794Y2316160D01*
X1624962Y2314154D01*
X1624679Y2312000D01*
Y2299000D01*
X1624962Y2296846D01*
X1625794Y2294839D01*
X1627116Y2293116D01*
X1628840Y2291794D01*
X1630846Y2290962D01*
X1633000Y2290679D01*
X1635154Y2290962D01*
X1637161Y2291794D01*
X1638884Y2293116D01*
X1640206Y2294839D01*
X1641038Y2296846D01*
X1641321Y2299000D01*
Y2303679D01*
X1731553D01*
X1740279Y2294953D01*
Y2142447D01*
X1713116Y2115284D01*
X1711794Y2113560D01*
X1710963Y2111554D01*
X1710679Y2109400D01*
Y2107258D01*
X1709293Y2106684D01*
X1693491Y2122486D01*
X1691298Y2124169D01*
X1688744Y2125227D01*
X1686003Y2125588D01*
X1680004D01*
X1544389D01*
X1534591Y2135387D01*
Y2175000D01*
X1534230Y2177741D01*
X1533172Y2180295D01*
X1531489Y2182489D01*
X1529295Y2184172D01*
X1526741Y2185230D01*
X1524000Y2185591D01*
X1521259Y2185230D01*
X1518705Y2184172D01*
X1516511Y2182489D01*
X1514828Y2180295D01*
X1513770Y2177741D01*
X1513409Y2175000D01*
D02*
G37*
G36*
X1752353Y1280000D02*
X1752935Y1277074D01*
X1754593Y1274593D01*
X1757074Y1272935D01*
X1760000Y1272353D01*
X1762926Y1272935D01*
X1765407Y1274593D01*
X1767065Y1277074D01*
X1767647Y1280000D01*
X1767065Y1282926D01*
X1765407Y1285407D01*
X1762926Y1287065D01*
X1760000Y1287647D01*
X1757074Y1287065D01*
X1754593Y1285407D01*
X1752935Y1282926D01*
X1752353Y1280000D01*
D02*
G37*
G36*
X1812353Y2360000D02*
X1812935Y2357074D01*
X1814593Y2354593D01*
X1817074Y2352935D01*
X1820000Y2352353D01*
X1822926Y2352935D01*
X1825407Y2354593D01*
X1827065Y2357074D01*
X1827647Y2360000D01*
X1827065Y2362926D01*
X1825407Y2365407D01*
X1822926Y2367065D01*
X1820000Y2367647D01*
X1817074Y2367065D01*
X1814593Y2365407D01*
X1812935Y2362926D01*
X1812353Y2360000D01*
D02*
G37*
G36*
X1092353Y1280000D02*
X1092935Y1277074D01*
X1094593Y1274593D01*
X1097074Y1272935D01*
X1100000Y1272353D01*
X1102926Y1272935D01*
X1105407Y1274593D01*
X1107065Y1277074D01*
X1107647Y1280000D01*
X1107065Y1282926D01*
X1105407Y1285407D01*
X1102926Y1287065D01*
X1100000Y1287647D01*
X1097074Y1287065D01*
X1094593Y1285407D01*
X1092935Y1282926D01*
X1092353Y1280000D01*
D02*
G37*
G36*
X1129679Y1604602D02*
Y1588000D01*
X1129962Y1585846D01*
X1130794Y1583839D01*
X1132116Y1582116D01*
X1133839Y1580793D01*
X1135846Y1579962D01*
X1138000Y1579679D01*
X1140154Y1579962D01*
X1142161Y1580793D01*
X1143884Y1582116D01*
X1145207Y1583839D01*
X1146038Y1585846D01*
X1146321Y1588000D01*
Y1601155D01*
X1177095Y1631929D01*
X1193598D01*
X1194172Y1630543D01*
X1157314Y1593686D01*
X1155992Y1591962D01*
X1155161Y1589955D01*
X1154877Y1587802D01*
X1155161Y1585648D01*
X1155992Y1583641D01*
X1157314Y1581918D01*
X1159038Y1580595D01*
X1161045Y1579764D01*
X1163198Y1579480D01*
X1165352Y1579764D01*
X1167359Y1580595D01*
X1169082Y1581918D01*
X1212093Y1624929D01*
X1307193D01*
X1307450Y1622977D01*
X1308230Y1621091D01*
X1309473Y1619473D01*
X1310794Y1618459D01*
X1310532Y1617196D01*
X1310403Y1616959D01*
X1290142D01*
X1288119Y1616693D01*
X1286234Y1615912D01*
X1284615Y1614669D01*
X1284473Y1614527D01*
X1283230Y1612908D01*
X1282450Y1611023D01*
X1282183Y1609000D01*
X1282450Y1606977D01*
X1283230Y1605091D01*
X1283825Y1604317D01*
X1283085Y1602817D01*
X1264000D01*
X1261977Y1602550D01*
X1260092Y1601770D01*
X1258473Y1600527D01*
X1257231Y1598908D01*
X1256450Y1597023D01*
X1256183Y1595000D01*
X1256450Y1592977D01*
X1257231Y1591091D01*
X1258473Y1589473D01*
X1258676Y1589317D01*
X1258167Y1587817D01*
X1240000D01*
X1237977Y1587550D01*
X1236092Y1586770D01*
X1234473Y1585527D01*
X1233231Y1583908D01*
X1232450Y1582023D01*
X1232183Y1580000D01*
X1232450Y1577977D01*
X1233231Y1576091D01*
X1234473Y1574473D01*
X1236092Y1573230D01*
X1237977Y1572449D01*
X1240000Y1572183D01*
X1243291D01*
X1243450Y1570977D01*
X1244230Y1569091D01*
X1245473Y1567473D01*
X1247092Y1566230D01*
X1248977Y1565449D01*
X1251000Y1565183D01*
X1351454D01*
X1353477Y1565449D01*
X1354258Y1565773D01*
X1355363Y1566230D01*
X1356982Y1567473D01*
X1359073Y1569564D01*
X1360473Y1569473D01*
X1362092Y1568230D01*
X1363977Y1567449D01*
X1366000Y1567183D01*
X1385071D01*
X1385849Y1567285D01*
X1386473Y1566472D01*
X1388092Y1565230D01*
X1389977Y1564449D01*
X1392000Y1564183D01*
X1413000D01*
X1415023Y1564449D01*
X1415804Y1564773D01*
X1416909Y1565230D01*
X1418528Y1566472D01*
X1421824Y1569769D01*
X1423321Y1569671D01*
X1423473Y1569473D01*
X1423473Y1569472D01*
X1425092Y1568230D01*
X1426978Y1567449D01*
X1429001Y1567182D01*
X1606001D01*
X1608024Y1567449D01*
X1609909Y1568230D01*
X1611528Y1569472D01*
X1612770Y1571091D01*
X1613551Y1572976D01*
X1613723Y1574278D01*
X1615023Y1574449D01*
X1616909Y1575230D01*
X1618528Y1576472D01*
X1619770Y1578091D01*
X1620551Y1579977D01*
X1620722Y1581278D01*
X1622023Y1581449D01*
X1623909Y1582230D01*
X1625527Y1583472D01*
X1626770Y1585091D01*
X1627551Y1586977D01*
X1627693Y1588057D01*
X1628773Y1588199D01*
X1629554Y1588523D01*
X1630659Y1588980D01*
X1632278Y1590222D01*
X1632527Y1590473D01*
X1633770Y1592091D01*
X1634551Y1593977D01*
X1634722Y1595277D01*
X1636024Y1595449D01*
X1637909Y1596230D01*
X1639528Y1597472D01*
X1640770Y1599091D01*
X1641551Y1600976D01*
X1641817Y1602999D01*
X1641551Y1605022D01*
X1640770Y1606908D01*
X1639528Y1608526D01*
X1637909Y1609769D01*
X1636024Y1610550D01*
X1634001Y1610816D01*
X1610799D01*
X1609810Y1611944D01*
X1609817Y1612000D01*
X1609551Y1614023D01*
X1608770Y1615908D01*
X1607527Y1617527D01*
X1605909Y1618770D01*
X1604720Y1619262D01*
X1604817Y1620000D01*
X1604551Y1622023D01*
X1603770Y1623908D01*
X1602527Y1625527D01*
X1600909Y1626770D01*
X1600668Y1626869D01*
X1600817Y1628000D01*
X1600551Y1630023D01*
X1599770Y1631908D01*
X1598528Y1633527D01*
X1596909Y1634769D01*
X1595786Y1635234D01*
X1595551Y1637023D01*
X1594770Y1638908D01*
X1593528Y1640527D01*
X1591957Y1641732D01*
X1591875Y1642130D01*
X1591798Y1642972D01*
X1592890Y1644183D01*
X1646000D01*
X1648023Y1644449D01*
X1649909Y1645230D01*
X1651528Y1646472D01*
X1652770Y1648091D01*
X1653551Y1649977D01*
X1653817Y1652000D01*
X1653551Y1654023D01*
X1653331Y1654554D01*
X1654528Y1655473D01*
X1654528Y1655473D01*
X1655770Y1657092D01*
X1656551Y1658977D01*
X1656710Y1660183D01*
X1657000D01*
X1659024Y1660450D01*
X1660909Y1661230D01*
X1662528Y1662473D01*
X1663770Y1664092D01*
X1664551Y1665977D01*
X1664740Y1667411D01*
X1665024Y1667449D01*
X1666909Y1668230D01*
X1668528Y1669472D01*
X1669770Y1671091D01*
X1670551Y1672976D01*
X1670723Y1674278D01*
X1672024Y1674449D01*
X1673909Y1675231D01*
X1675528Y1676473D01*
X1676770Y1678092D01*
X1677551Y1679977D01*
X1677722Y1681278D01*
X1679024Y1681449D01*
X1680909Y1682230D01*
X1682528Y1683473D01*
X1683770Y1685092D01*
X1684551Y1686977D01*
X1684722Y1688278D01*
X1686024Y1688450D01*
X1687909Y1689230D01*
X1689528Y1690473D01*
X1690770Y1692092D01*
X1691551Y1693977D01*
X1691772Y1695655D01*
X1693159Y1696230D01*
X1694778Y1697472D01*
X1696020Y1699091D01*
X1696801Y1700976D01*
X1697067Y1702999D01*
X1696801Y1705022D01*
X1696020Y1706908D01*
X1694778Y1708527D01*
X1693159Y1709769D01*
X1691274Y1710550D01*
X1689250Y1710816D01*
X1590710D01*
X1590551Y1712023D01*
X1589770Y1713908D01*
X1588528Y1715527D01*
X1586909Y1716770D01*
X1585023Y1717550D01*
X1584740Y1717588D01*
X1584551Y1719022D01*
X1583770Y1720907D01*
X1582528Y1722526D01*
X1580909Y1723768D01*
X1579024Y1724550D01*
X1577722Y1724721D01*
X1577551Y1726022D01*
X1576770Y1727907D01*
X1575528Y1729526D01*
X1573909Y1730768D01*
X1572024Y1731549D01*
X1571740Y1731587D01*
X1571551Y1733022D01*
X1570770Y1734907D01*
X1569528Y1736526D01*
X1567909Y1737769D01*
X1566024Y1738549D01*
X1564723Y1738721D01*
X1564551Y1740022D01*
X1563770Y1741907D01*
X1562528Y1743526D01*
X1560909Y1744769D01*
X1559024Y1745549D01*
X1557723Y1745721D01*
X1557551Y1747022D01*
X1556770Y1748907D01*
X1555528Y1750526D01*
X1553909Y1751768D01*
X1552024Y1752549D01*
X1550001Y1752816D01*
X1488999D01*
X1486976Y1752549D01*
X1485091Y1751768D01*
X1483472Y1750526D01*
X1463707Y1730762D01*
X1462321Y1731336D01*
Y1817052D01*
X1484384Y1839114D01*
X1485706Y1840838D01*
X1486538Y1842844D01*
X1486821Y1844998D01*
X1486538Y1847152D01*
X1485706Y1849159D01*
X1484384Y1850882D01*
X1482661Y1852204D01*
X1480654Y1853036D01*
X1478571Y1853310D01*
Y1891301D01*
X1484384Y1897114D01*
X1485706Y1898837D01*
X1486538Y1900844D01*
X1486821Y1902998D01*
X1486538Y1905152D01*
X1485706Y1907159D01*
X1484384Y1908882D01*
X1482661Y1910204D01*
X1480654Y1911036D01*
X1478500Y1911319D01*
X1476346Y1911036D01*
X1474339Y1910204D01*
X1472616Y1908882D01*
X1464366Y1900632D01*
X1463044Y1898909D01*
X1462212Y1896902D01*
X1461929Y1894748D01*
Y1850094D01*
X1441116Y1829282D01*
X1439794Y1827558D01*
X1438963Y1825551D01*
X1438679Y1823398D01*
Y1688346D01*
X1415153Y1664820D01*
X1406775D01*
X1406628Y1665000D01*
Y2240000D01*
X1406123Y2242536D01*
X1404686Y2244686D01*
X1402536Y2246123D01*
X1400000Y2246627D01*
X1275000D01*
X1272464Y2246123D01*
X1270314Y2244686D01*
X1268877Y2242536D01*
X1268373Y2240000D01*
Y1665000D01*
X1268877Y1662464D01*
X1270314Y1660314D01*
X1272464Y1658877D01*
X1275000Y1658372D01*
X1387432D01*
X1388006Y1656987D01*
X1386553Y1655534D01*
X1368814D01*
X1366660Y1655251D01*
X1364653Y1654419D01*
X1362930Y1653097D01*
X1358404Y1648571D01*
X1173648D01*
X1171495Y1648288D01*
X1169488Y1647456D01*
X1167764Y1646134D01*
X1132116Y1610486D01*
X1130794Y1608762D01*
X1129962Y1606755D01*
X1129679Y1604602D01*
D02*
G37*
%LPD*%
G36*
X1491027Y1663425D02*
X1492270Y1665044D01*
X1493051Y1666929D01*
X1493317Y1668952D01*
Y1687584D01*
X1494001Y1688183D01*
X1512086D01*
X1512825Y1686683D01*
X1512231Y1685909D01*
X1511450Y1684023D01*
X1511184Y1682000D01*
X1511450Y1679977D01*
X1512231Y1678092D01*
X1513473Y1676473D01*
X1515092Y1675231D01*
X1516977Y1674449D01*
X1519000Y1674183D01*
X1537086D01*
X1537825Y1672683D01*
X1537231Y1671909D01*
X1536450Y1670023D01*
X1536184Y1668000D01*
X1536450Y1665977D01*
X1537231Y1664092D01*
X1538473Y1662473D01*
X1540092Y1661230D01*
X1541977Y1660450D01*
X1544000Y1660183D01*
X1563167D01*
X1563676Y1658683D01*
X1563473Y1658527D01*
X1562231Y1656909D01*
X1561450Y1655023D01*
X1561184Y1653000D01*
X1561306Y1652067D01*
X1560087Y1650567D01*
X1480129D01*
X1479555Y1651953D01*
X1491027Y1663425D01*
D02*
G37*
G36*
X3407Y2389887D02*
X3628Y2389628D01*
X8416Y2385540D01*
X13784Y2382250D01*
X19601Y2379840D01*
X25723Y2378371D01*
X32000Y2377876D01*
X38277Y2378371D01*
X44399Y2379840D01*
X50216Y2382250D01*
X55584Y2385540D01*
X60372Y2389628D01*
X64461Y2394416D01*
X67750Y2399784D01*
X70160Y2405601D01*
X71630Y2411723D01*
X72124Y2418000D01*
X71630Y2424277D01*
X70160Y2430399D01*
X67750Y2436216D01*
X64461Y2441584D01*
X60372Y2446372D01*
X60113Y2446593D01*
X60633Y2448000D01*
X779368D01*
X779887Y2446593D01*
X779628Y2446372D01*
X775539Y2441584D01*
X772250Y2436216D01*
X769840Y2430399D01*
X768370Y2424277D01*
X767876Y2418000D01*
X768370Y2411723D01*
X769840Y2405601D01*
X772250Y2399784D01*
X775539Y2394416D01*
X779628Y2389628D01*
X784416Y2385540D01*
X789784Y2382250D01*
X795601Y2379840D01*
X801723Y2378371D01*
X808000Y2377876D01*
X814277Y2378371D01*
X820399Y2379840D01*
X826216Y2382250D01*
X831584Y2385540D01*
X836372Y2389628D01*
X836593Y2389887D01*
X838000Y2389368D01*
Y1310632D01*
X836593Y1310113D01*
X836372Y1310372D01*
X831584Y1314461D01*
X826216Y1317751D01*
X820399Y1320160D01*
X814277Y1321630D01*
X808000Y1322124D01*
X801723Y1321630D01*
X795601Y1320160D01*
X789784Y1317751D01*
X784416Y1314461D01*
X779628Y1310372D01*
X775539Y1305584D01*
X772250Y1300216D01*
X769840Y1294399D01*
X768370Y1288277D01*
X767876Y1282000D01*
X768370Y1275723D01*
X769840Y1269601D01*
X772250Y1263784D01*
X775539Y1258416D01*
X779628Y1253628D01*
X779887Y1253407D01*
X779368Y1252000D01*
X60632D01*
X60113Y1253407D01*
X60372Y1253628D01*
X64461Y1258416D01*
X67750Y1263784D01*
X70160Y1269601D01*
X71630Y1275723D01*
X72124Y1282000D01*
X71630Y1288277D01*
X70160Y1294399D01*
X67750Y1300216D01*
X64461Y1305584D01*
X60372Y1310372D01*
X55584Y1314461D01*
X50216Y1317751D01*
X44399Y1320160D01*
X38277Y1321630D01*
X32000Y1322124D01*
X25723Y1321630D01*
X19601Y1320160D01*
X13784Y1317751D01*
X8416Y1314461D01*
X3628Y1310372D01*
X3407Y1310113D01*
X2000Y1310632D01*
Y2389368D01*
X3407Y2389887D01*
D02*
G37*
%LPC*%
G36*
X503410Y2175000D02*
Y2131000D01*
X503770Y2128259D01*
X504828Y2125705D01*
X506511Y2123511D01*
X522514Y2107509D01*
X524707Y2105826D01*
X527262Y2104768D01*
X530003Y2104407D01*
X670004D01*
X671616D01*
X683410Y2092613D01*
Y2056000D01*
X683770Y2053259D01*
X684828Y2050705D01*
X686511Y2048511D01*
X693511Y2041511D01*
X695705Y2039828D01*
X698259Y2038770D01*
X701000Y2038409D01*
X721613D01*
X726808Y2033215D01*
Y1802323D01*
X726145Y1801911D01*
X725308Y1801696D01*
X723908Y1802769D01*
X722023Y1803550D01*
X720000Y1803817D01*
X513002D01*
X510979Y1803550D01*
X509093Y1802769D01*
X507475Y1801527D01*
X507473Y1801526D01*
X506231Y1799907D01*
X505450Y1798022D01*
X505184Y1795999D01*
X505450Y1793976D01*
X506231Y1792090D01*
X507473Y1790471D01*
X509092Y1789229D01*
X510978Y1788448D01*
X512279Y1788277D01*
X512450Y1786976D01*
X513231Y1785090D01*
X514473Y1783471D01*
X516092Y1782229D01*
X517978Y1781448D01*
X518204Y1781153D01*
X518184Y1780999D01*
X518450Y1778976D01*
X519231Y1777090D01*
X520473Y1775471D01*
X522092Y1774229D01*
X523978Y1773448D01*
X524261Y1773411D01*
X524450Y1771977D01*
X525230Y1770091D01*
X526473Y1768472D01*
X528092Y1767230D01*
X529977Y1766449D01*
X530261Y1766412D01*
X530450Y1764977D01*
X531231Y1763091D01*
X532473Y1761472D01*
X534092Y1760230D01*
X535977Y1759449D01*
X538000Y1759183D01*
X688000D01*
X690024Y1759449D01*
X691909Y1760230D01*
X693528Y1761472D01*
X694770Y1763091D01*
X695551Y1764977D01*
X695772Y1766656D01*
X697159Y1767230D01*
X698778Y1768472D01*
X700020Y1770091D01*
X700801Y1771977D01*
X700960Y1773182D01*
X718000D01*
X720023Y1773448D01*
X721909Y1774229D01*
X723528Y1775471D01*
X724770Y1777090D01*
X725308Y1778389D01*
X726808Y1778090D01*
Y1519000D01*
X727169Y1516259D01*
X728227Y1513705D01*
X729910Y1511511D01*
X732103Y1509828D01*
X734657Y1508770D01*
X737398Y1508409D01*
X740139Y1508770D01*
X742694Y1509828D01*
X744887Y1511511D01*
X746570Y1513705D01*
X747628Y1516259D01*
X747989Y1519000D01*
Y2037602D01*
X747628Y2040343D01*
X746570Y2042897D01*
X744887Y2045090D01*
X733489Y2056489D01*
X731295Y2058172D01*
X728741Y2059230D01*
X726000Y2059590D01*
X716917D01*
X716311Y2061091D01*
X717038Y2062846D01*
X717321Y2065000D01*
Y2105953D01*
X744484Y2133116D01*
X745806Y2134839D01*
X746638Y2136846D01*
X746921Y2139000D01*
Y2298400D01*
X746638Y2300554D01*
X745806Y2302560D01*
X744484Y2304284D01*
X730884Y2317884D01*
X729161Y2319206D01*
X727154Y2320038D01*
X725000Y2320321D01*
X623000D01*
X620846Y2320038D01*
X618839Y2319206D01*
X617116Y2317884D01*
X615794Y2316160D01*
X614962Y2314154D01*
X614679Y2312000D01*
Y2299000D01*
X614962Y2296846D01*
X615794Y2294839D01*
X617116Y2293116D01*
X618839Y2291794D01*
X620846Y2290962D01*
X623000Y2290679D01*
X625154Y2290962D01*
X627161Y2291794D01*
X628884Y2293116D01*
X630206Y2294839D01*
X631038Y2296846D01*
X631321Y2299000D01*
Y2303679D01*
X721553D01*
X730279Y2294953D01*
Y2142447D01*
X703116Y2115284D01*
X701794Y2113561D01*
X700963Y2111554D01*
X700679Y2109400D01*
Y2107258D01*
X699293Y2106684D01*
X683491Y2122486D01*
X681298Y2124169D01*
X678744Y2125227D01*
X676003Y2125588D01*
X670004D01*
X534389D01*
X524591Y2135387D01*
Y2175000D01*
X524230Y2177741D01*
X523172Y2180295D01*
X521489Y2182489D01*
X519295Y2184172D01*
X516741Y2185230D01*
X514000Y2185591D01*
X511259Y2185230D01*
X508705Y2184172D01*
X506511Y2182489D01*
X504828Y2180295D01*
X503770Y2177741D01*
X503410Y2175000D01*
D02*
G37*
G36*
X742353Y1280000D02*
X742935Y1277074D01*
X744593Y1274593D01*
X747074Y1272935D01*
X750000Y1272353D01*
X752926Y1272935D01*
X755407Y1274593D01*
X757065Y1277074D01*
X757647Y1280000D01*
X757065Y1282926D01*
X755407Y1285407D01*
X752926Y1287065D01*
X750000Y1287647D01*
X747074Y1287065D01*
X744593Y1285407D01*
X742935Y1282926D01*
X742353Y1280000D01*
D02*
G37*
G36*
X802353Y2360000D02*
X802935Y2357074D01*
X804593Y2354593D01*
X807074Y2352935D01*
X810000Y2352353D01*
X812926Y2352935D01*
X815407Y2354593D01*
X817065Y2357074D01*
X817647Y2360000D01*
X817065Y2362926D01*
X815407Y2365407D01*
X812926Y2367065D01*
X810000Y2367647D01*
X807074Y2367065D01*
X804593Y2365407D01*
X802935Y2362926D01*
X802353Y2360000D01*
D02*
G37*
G36*
X82353Y1280000D02*
X82935Y1277074D01*
X84593Y1274593D01*
X87074Y1272935D01*
X90000Y1272353D01*
X92927Y1272935D01*
X95407Y1274593D01*
X97065Y1277074D01*
X97647Y1280000D01*
X97065Y1282926D01*
X95407Y1285407D01*
X92927Y1287065D01*
X90000Y1287647D01*
X87074Y1287065D01*
X84593Y1285407D01*
X82935Y1282926D01*
X82353Y1280000D01*
D02*
G37*
G36*
X119679Y1604602D02*
Y1588000D01*
X119962Y1585846D01*
X120794Y1583839D01*
X122116Y1582116D01*
X123840Y1580793D01*
X125846Y1579962D01*
X128000Y1579679D01*
X130154Y1579962D01*
X132161Y1580793D01*
X133884Y1582116D01*
X135206Y1583839D01*
X136038Y1585846D01*
X136321Y1588000D01*
Y1601155D01*
X167095Y1631929D01*
X183598D01*
X184172Y1630543D01*
X147314Y1593686D01*
X145992Y1591962D01*
X145161Y1589955D01*
X144877Y1587802D01*
X145161Y1585648D01*
X145992Y1583641D01*
X147314Y1581918D01*
X149038Y1580595D01*
X151045Y1579764D01*
X153198Y1579480D01*
X155352Y1579764D01*
X157359Y1580595D01*
X159082Y1581918D01*
X202093Y1624929D01*
X297193D01*
X297450Y1622977D01*
X298230Y1621091D01*
X299473Y1619473D01*
X300794Y1618459D01*
X300532Y1617196D01*
X300403Y1616959D01*
X280142D01*
X278119Y1616693D01*
X276234Y1615912D01*
X274615Y1614669D01*
X274473Y1614527D01*
X273230Y1612908D01*
X272450Y1611023D01*
X272183Y1609000D01*
X272450Y1606977D01*
X273230Y1605091D01*
X273825Y1604317D01*
X273085Y1602817D01*
X254000D01*
X251977Y1602550D01*
X250092Y1601770D01*
X248473Y1600527D01*
X247230Y1598908D01*
X246450Y1597023D01*
X246183Y1595000D01*
X246450Y1592977D01*
X247230Y1591091D01*
X248473Y1589473D01*
X248676Y1589317D01*
X248167Y1587817D01*
X230000D01*
X227977Y1587550D01*
X226092Y1586770D01*
X224473Y1585527D01*
X223230Y1583908D01*
X222450Y1582023D01*
X222183Y1580000D01*
X222450Y1577977D01*
X223230Y1576091D01*
X224473Y1574473D01*
X226092Y1573230D01*
X227977Y1572449D01*
X230000Y1572183D01*
X233291D01*
X233450Y1570977D01*
X234230Y1569091D01*
X235473Y1567473D01*
X237092Y1566230D01*
X238977Y1565449D01*
X241000Y1565183D01*
X341454D01*
X343477Y1565449D01*
X344258Y1565773D01*
X345363Y1566230D01*
X346982Y1567473D01*
X349073Y1569564D01*
X350473Y1569473D01*
X352092Y1568230D01*
X353977Y1567449D01*
X356000Y1567183D01*
X375071D01*
X375849Y1567285D01*
X376473Y1566472D01*
X378092Y1565230D01*
X379977Y1564449D01*
X382000Y1564183D01*
X403000D01*
X405023Y1564449D01*
X405804Y1564773D01*
X406908Y1565230D01*
X408527Y1566472D01*
X411824Y1569769D01*
X413321Y1569671D01*
X413473Y1569473D01*
X413473Y1569472D01*
X415092Y1568230D01*
X416978Y1567449D01*
X419001Y1567182D01*
X596001D01*
X598024Y1567449D01*
X599909Y1568230D01*
X601528Y1569472D01*
X602770Y1571091D01*
X603551Y1572976D01*
X603722Y1574278D01*
X605023Y1574449D01*
X606908Y1575230D01*
X608527Y1576472D01*
X609770Y1578091D01*
X610551Y1579977D01*
X610722Y1581278D01*
X612023Y1581449D01*
X613909Y1582230D01*
X615527Y1583472D01*
X616770Y1585091D01*
X617551Y1586977D01*
X617693Y1588057D01*
X618773Y1588199D01*
X619554Y1588523D01*
X620659Y1588980D01*
X622277Y1590222D01*
X622528Y1590473D01*
X623770Y1592092D01*
X624551Y1593977D01*
X624722Y1595277D01*
X626024Y1595449D01*
X627909Y1596230D01*
X629528Y1597472D01*
X630770Y1599091D01*
X631551Y1600976D01*
X631817Y1602999D01*
X631551Y1605022D01*
X630770Y1606908D01*
X629528Y1608527D01*
X627909Y1609769D01*
X626024Y1610550D01*
X624001Y1610816D01*
X600799D01*
X599810Y1611944D01*
X599817Y1612000D01*
X599551Y1614023D01*
X598770Y1615908D01*
X597528Y1617527D01*
X595909Y1618770D01*
X594720Y1619262D01*
X594817Y1620000D01*
X594551Y1622023D01*
X593770Y1623908D01*
X592528Y1625527D01*
X590909Y1626770D01*
X590668Y1626869D01*
X590817Y1628000D01*
X590551Y1630023D01*
X589770Y1631908D01*
X588527Y1633527D01*
X586909Y1634769D01*
X585786Y1635234D01*
X585551Y1637023D01*
X584770Y1638908D01*
X583527Y1640527D01*
X581957Y1641732D01*
X581875Y1642130D01*
X581798Y1642972D01*
X582890Y1644183D01*
X636000D01*
X638023Y1644449D01*
X639908Y1645230D01*
X641527Y1646472D01*
X642770Y1648091D01*
X643551Y1649977D01*
X643817Y1652000D01*
X643551Y1654023D01*
X643331Y1654554D01*
X644528Y1655473D01*
X644528Y1655473D01*
X645770Y1657092D01*
X646551Y1658977D01*
X646710Y1660183D01*
X647000D01*
X649024Y1660450D01*
X650909Y1661230D01*
X652528Y1662473D01*
X653770Y1664092D01*
X654551Y1665977D01*
X654740Y1667411D01*
X655024Y1667449D01*
X656909Y1668230D01*
X658528Y1669472D01*
X659770Y1671091D01*
X660551Y1672976D01*
X660723Y1674278D01*
X662024Y1674450D01*
X663909Y1675231D01*
X665528Y1676473D01*
X666770Y1678092D01*
X667551Y1679977D01*
X667722Y1681278D01*
X669024Y1681449D01*
X670909Y1682231D01*
X672528Y1683473D01*
X673770Y1685092D01*
X674551Y1686977D01*
X674722Y1688278D01*
X676024Y1688450D01*
X677909Y1689230D01*
X679528Y1690473D01*
X680770Y1692092D01*
X681551Y1693977D01*
X681772Y1695655D01*
X683159Y1696230D01*
X684778Y1697472D01*
X686020Y1699091D01*
X686801Y1700976D01*
X687067Y1702999D01*
X686801Y1705022D01*
X686020Y1706908D01*
X684778Y1708527D01*
X683159Y1709769D01*
X681274Y1710550D01*
X679250Y1710816D01*
X580709D01*
X580551Y1712023D01*
X579770Y1713908D01*
X578527Y1715527D01*
X576908Y1716770D01*
X575023Y1717550D01*
X574740Y1717588D01*
X574551Y1719022D01*
X573770Y1720907D01*
X572528Y1722526D01*
X570909Y1723769D01*
X569024Y1724550D01*
X567723Y1724721D01*
X567551Y1726022D01*
X566770Y1727907D01*
X565528Y1729526D01*
X563909Y1730768D01*
X562024Y1731550D01*
X561740Y1731587D01*
X561551Y1733022D01*
X560770Y1734907D01*
X559528Y1736526D01*
X557909Y1737769D01*
X556024Y1738549D01*
X554723Y1738721D01*
X554551Y1740022D01*
X553770Y1741907D01*
X552528Y1743526D01*
X550909Y1744769D01*
X549024Y1745549D01*
X547723Y1745721D01*
X547551Y1747022D01*
X546770Y1748907D01*
X545528Y1750526D01*
X543909Y1751768D01*
X542024Y1752549D01*
X540001Y1752816D01*
X478999D01*
X476976Y1752549D01*
X475091Y1751768D01*
X473472Y1750526D01*
X453707Y1730762D01*
X452321Y1731336D01*
Y1817052D01*
X474384Y1839114D01*
X475706Y1840838D01*
X476538Y1842844D01*
X476821Y1844998D01*
X476538Y1847152D01*
X475706Y1849159D01*
X474384Y1850882D01*
X472660Y1852204D01*
X470654Y1853036D01*
X468571Y1853310D01*
Y1891301D01*
X474384Y1897114D01*
X475706Y1898837D01*
X476538Y1900844D01*
X476821Y1902998D01*
X476538Y1905152D01*
X475706Y1907159D01*
X474384Y1908882D01*
X472660Y1910204D01*
X470654Y1911036D01*
X468500Y1911319D01*
X466346Y1911036D01*
X464339Y1910204D01*
X462616Y1908882D01*
X454366Y1900632D01*
X453044Y1898909D01*
X452212Y1896902D01*
X451929Y1894748D01*
Y1850094D01*
X431116Y1829282D01*
X429794Y1827558D01*
X428962Y1825551D01*
X428679Y1823398D01*
Y1688346D01*
X405153Y1664820D01*
X396775D01*
X396628Y1665000D01*
Y2240000D01*
X396123Y2242536D01*
X394686Y2244686D01*
X392536Y2246123D01*
X390000Y2246627D01*
X265000D01*
X262464Y2246123D01*
X260314Y2244686D01*
X258877Y2242536D01*
X258373Y2240000D01*
Y1665000D01*
X258877Y1662464D01*
X260314Y1660314D01*
X262464Y1658877D01*
X265000Y1658373D01*
X377432D01*
X378006Y1656987D01*
X376553Y1655534D01*
X358814D01*
X356660Y1655251D01*
X354653Y1654419D01*
X352930Y1653097D01*
X348404Y1648571D01*
X163648D01*
X161495Y1648288D01*
X159488Y1647456D01*
X157764Y1646134D01*
X122116Y1610486D01*
X120794Y1608762D01*
X119962Y1606755D01*
X119679Y1604602D01*
D02*
G37*
%LPD*%
G36*
X481027Y1663425D02*
X482270Y1665044D01*
X483050Y1666929D01*
X483317Y1668952D01*
Y1687584D01*
X484000Y1688183D01*
X502085D01*
X502825Y1686683D01*
X502231Y1685909D01*
X501450Y1684023D01*
X501184Y1682000D01*
X501450Y1679977D01*
X502231Y1678092D01*
X503473Y1676473D01*
X505092Y1675231D01*
X506977Y1674450D01*
X509000Y1674183D01*
X527085D01*
X527825Y1672683D01*
X527231Y1671909D01*
X526450Y1670023D01*
X526184Y1668000D01*
X526450Y1665977D01*
X527231Y1664092D01*
X528473Y1662473D01*
X530092Y1661230D01*
X531977Y1660450D01*
X534000Y1660183D01*
X553167D01*
X553676Y1658683D01*
X553473Y1658527D01*
X552231Y1656909D01*
X551450Y1655023D01*
X551184Y1653000D01*
X551306Y1652067D01*
X550087Y1650567D01*
X470129D01*
X469555Y1651953D01*
X481027Y1663425D01*
D02*
G37*
D10*
X1750000Y30000D02*
D03*
X30000Y100000D02*
D03*
Y1160000D02*
D03*
X1820000Y2360000D02*
D03*
X1760000Y1280000D02*
D03*
X1100000D02*
D03*
X810000Y2360000D02*
D03*
X750000Y1280000D02*
D03*
X90000D02*
D03*
D11*
X654000Y218000D02*
X1093000D01*
X336000Y413000D02*
X367000D01*
X612000Y218000D02*
X654000D01*
X605000Y225000D02*
X612000Y218000D01*
X605000Y225000D02*
Y413000D01*
X1014802Y965202D02*
Y969002D01*
Y965202D02*
X1022002Y958002D01*
X1039000Y958000D02*
X1062000D01*
X1022003D02*
X1039000D01*
X1062000D02*
X1075000Y971000D01*
X1058500Y1027000D02*
X1066000D01*
X1051750D02*
X1058500D01*
X1066000D02*
X1071000D01*
X1075000Y1023000D01*
X1039000Y826000D02*
Y958000D01*
X1075000Y971000D02*
Y1023000D01*
X1022002Y958002D02*
X1022003Y958000D01*
X1109000Y262000D02*
X1115000Y268000D01*
X1109000Y234000D02*
Y262000D01*
X1115000Y268000D02*
X1176000D01*
X1093000Y218000D02*
X1109000Y234000D01*
X629000Y750000D02*
Y826000D01*
X1507000D02*
X1538000Y795000D01*
X1469000Y632000D02*
X1515000D01*
X1455000D02*
X1456000D01*
X1469000D01*
X629000Y826000D02*
X1039000D01*
X1507000D01*
X1515000Y597000D02*
Y632000D01*
Y641000D01*
X1538000Y664000D01*
Y795000D01*
X328000Y1025000D02*
X339000Y1036000D01*
X614000D02*
X629000Y1021000D01*
Y826000D02*
Y1021000D01*
X503000Y1036000D02*
X614000D01*
X339000D02*
X485000D01*
X494000D01*
X503000D01*
X974000Y457000D02*
X997000D01*
X967500Y450500D02*
X974000Y457000D01*
X605000Y413000D02*
X958000D01*
X967500Y422500D01*
Y450500D01*
X367000Y413000D02*
X375000D01*
X605000D01*
X328000Y421000D02*
Y1025000D01*
Y421000D02*
X332000Y417000D01*
X336000Y413000D01*
X629000Y742000D02*
Y750000D01*
D12*
X590000Y197583D02*
Y375000D01*
X575417Y183000D02*
X590000Y197583D01*
X479000Y183000D02*
X575417D01*
X472000Y176000D02*
X479000Y183000D01*
X472000Y162000D02*
Y176000D01*
X1040000Y1004000D02*
Y1132000D01*
Y1004000D02*
X1060000Y984000D01*
X982000Y861000D02*
Y1023272D01*
X964000Y1041000D02*
Y1091000D01*
X823998Y794998D02*
X1503000D01*
X835000Y775000D02*
X1493000D01*
X834998Y774998D02*
X835000Y775000D01*
X815000Y785000D02*
X1482000D01*
X798502Y362498D02*
X820004Y384000D01*
X1116272D01*
X1149272Y417000D01*
X1466000D01*
X1470000Y421000D01*
X1480000Y413000D02*
Y421000D01*
X1475000Y408000D02*
X1480000Y413000D01*
X1153000Y408000D02*
X1475000D01*
X969500Y343500D02*
X989000Y324000D01*
X970000Y1097000D02*
X1001000D01*
X964000Y1091000D02*
X970000Y1097000D01*
X976272Y1029000D02*
X982000Y1023272D01*
X951000Y1035000D02*
Y1041000D01*
X957000Y1029000D02*
X976272D01*
X951000Y1035000D02*
X957000Y1029000D01*
X977000Y1041000D02*
X991998Y1026002D01*
Y860998D02*
Y1026002D01*
X1120000Y375000D02*
X1153000Y408000D01*
X836404Y375000D02*
X1120000D01*
X823902Y362498D02*
X836404Y375000D01*
X1157000Y300000D02*
X1203000D01*
X1146000Y311000D02*
X1157000Y300000D01*
X773000Y343500D02*
X969500D01*
X741500Y375000D02*
X773000Y343500D01*
X641000Y375000D02*
X741500D01*
X856000Y908000D02*
Y936000D01*
Y908000D02*
X861000Y903000D01*
X882000D01*
X366000Y463000D02*
X378000Y451000D01*
X517000D01*
X533000Y435000D01*
X1696598Y1570598D02*
Y1580402D01*
X1653000Y1624000D01*
X1680000Y1651000D01*
Y1654000D01*
X1696598Y1637402D02*
X1680000Y1654000D01*
X1696598Y1580402D02*
Y1637402D01*
X686598Y1570598D02*
Y1580402D01*
X643000Y1624000D01*
X670000Y1651000D01*
Y1654000D01*
X686598Y1637402D02*
X670000Y1654000D01*
X686598Y1580402D02*
Y1637402D01*
D13*
X495803Y844000D02*
X501000Y838803D01*
X473000Y822142D02*
Y856000D01*
X466250Y821821D02*
Y879250D01*
X473000Y822142D02*
X480000Y815142D01*
X466250Y821821D02*
X475000Y813071D01*
X466250Y879250D02*
X482000Y895000D01*
X481000Y857000D02*
X494000Y870000D01*
X481000Y823000D02*
Y857000D01*
X465802Y742802D02*
X466000Y743000D01*
X463125Y742802D02*
X465802D01*
X461750Y741427D02*
X463125Y742802D01*
X461750Y731177D02*
Y741427D01*
X460375Y729802D02*
X461750Y731177D01*
X457625Y729802D02*
X460375D01*
X456250Y731177D02*
X457625Y729802D01*
X456250Y731177D02*
Y754427D01*
X454875Y755802D02*
X456250Y754427D01*
X452125Y755802D02*
X454875D01*
X450750Y754427D02*
X452125Y755802D01*
X450750Y731177D02*
Y754427D01*
X449375Y729802D02*
X450750Y731177D01*
X446625Y729802D02*
X449375D01*
X445250Y731177D02*
X446625Y729802D01*
X445250Y731177D02*
Y754427D01*
X443875Y755802D02*
X445250Y754427D01*
X441125Y755802D02*
X443875D01*
X439750Y754427D02*
X441125Y755802D01*
X439750Y736375D02*
Y754427D01*
X438375Y735000D02*
X439750Y736375D01*
X435625Y735000D02*
X438375D01*
X434250Y736375D02*
X435625Y735000D01*
X434250Y736375D02*
Y752153D01*
X432875Y753528D02*
X434250Y752153D01*
X430125Y753528D02*
X432875D01*
X428750Y752153D02*
X430125Y753528D01*
X428750Y744177D02*
Y752153D01*
X427375Y742802D02*
X428750Y744177D01*
X426000Y742802D02*
X427375D01*
X422000Y738802D02*
X426000Y742802D01*
X422000Y684000D02*
Y738802D01*
Y684000D02*
X430000Y676000D01*
X475000Y615000D02*
Y629000D01*
X514000Y668000D01*
X410000Y621000D02*
X448000Y659000D01*
X410000Y616625D02*
Y621000D01*
X387625Y598250D02*
X389807Y600432D01*
Y612639D01*
X447000Y678000D02*
X739000D01*
X433364Y664364D02*
X447000Y678000D01*
X433364Y662419D02*
Y664364D01*
Y662419D02*
X437884Y657899D01*
Y655955D02*
Y657899D01*
X435939Y654010D02*
X437884Y655955D01*
X433995Y654010D02*
X435939D01*
X424982Y663023D02*
X433995Y654010D01*
X423038Y663023D02*
X424982D01*
X421093Y661078D02*
X423038Y663023D01*
X421093Y659134D02*
Y661078D01*
Y659134D02*
X430106Y650121D01*
Y648177D02*
Y650121D01*
X428161Y646232D02*
X430106Y648177D01*
X426217Y646232D02*
X428161D01*
X412504Y659945D02*
X426217Y646232D01*
X410560Y659945D02*
X412504D01*
X408615Y658000D02*
X410560Y659945D01*
X408615Y656056D02*
Y658000D01*
Y656056D02*
X422328Y642343D01*
Y640398D02*
Y642343D01*
X420383Y638454D02*
X422328Y640398D01*
X418438Y638454D02*
X420383D01*
X404726Y652166D02*
X418438Y638454D01*
X402782Y652166D02*
X404726D01*
X400837Y650222D02*
X402782Y652166D01*
X400837Y648277D02*
Y650222D01*
Y648277D02*
X414549Y634565D01*
Y632620D02*
Y634565D01*
X412605Y630676D02*
X414549Y632620D01*
X410660Y630676D02*
X412605D01*
X396948Y644388D02*
X410660Y630676D01*
X395003Y644388D02*
X396948D01*
X393059Y642444D02*
X395003Y644388D01*
X393059Y640499D02*
Y642444D01*
Y640499D02*
X406771Y626787D01*
Y624842D02*
Y626787D01*
X404827Y622898D02*
X406771Y624842D01*
X402882Y622898D02*
X404827D01*
X389170Y636610D02*
X402882Y622898D01*
X387225Y636610D02*
X389170D01*
X385281Y634665D02*
X387225Y636610D01*
X385281Y632721D02*
Y634665D01*
Y632721D02*
X396556Y621446D01*
Y619502D02*
Y621446D01*
X394611Y617557D02*
X396556Y619502D01*
X392667Y617557D02*
X394611D01*
X381392Y628832D02*
X392667Y617557D01*
X379447Y628832D02*
X381392D01*
X377503Y626887D02*
X379447Y628832D01*
X377503Y624943D02*
Y626887D01*
Y624943D02*
X389807Y612639D01*
X377375Y598250D02*
X387625D01*
X376000Y596875D02*
X377375Y598250D01*
X376000Y590000D02*
Y596875D01*
X408625Y615250D02*
X410000Y616625D01*
X399375Y615250D02*
X408625D01*
X398000Y613875D02*
X399375Y615250D01*
X398000Y611125D02*
Y613875D01*
Y611125D02*
X399375Y609750D01*
X420625D01*
X422000Y608375D01*
Y605625D02*
Y608375D01*
X420625Y604250D02*
X422000Y605625D01*
X399375Y604250D02*
X420625D01*
X398000Y602875D02*
X399375Y604250D01*
X398000Y600125D02*
Y602875D01*
Y600125D02*
X399375Y598750D01*
X420625D01*
X422000Y597375D01*
Y594625D02*
Y597375D01*
X420625Y593250D02*
X422000Y594625D01*
X399375Y593250D02*
X420625D01*
X398000Y591875D02*
X399375Y593250D01*
X398000Y589125D02*
Y591875D01*
Y589125D02*
X399375Y587750D01*
X420625D01*
X422000Y586375D01*
Y583625D02*
Y586375D01*
X420625Y582250D02*
X422000Y583625D01*
X399375Y582250D02*
X420625D01*
X398000Y580875D02*
X399375Y582250D01*
X398000Y578125D02*
Y580875D01*
Y578125D02*
X399375Y576750D01*
X420625D01*
X422000Y575375D01*
Y572625D02*
Y575375D01*
X420625Y571250D02*
X422000Y572625D01*
X399375Y571250D02*
X420625D01*
X398000Y569875D02*
X399375Y571250D01*
X398000Y567125D02*
Y569875D01*
Y567125D02*
X399375Y565750D01*
X408625D01*
X410000Y564375D01*
Y563000D02*
Y564375D01*
Y563000D02*
X412000Y561000D01*
X430000D01*
X431999Y562999D01*
Y589999D01*
X442000Y562000D02*
X456000D01*
X438999Y565001D02*
X442000Y562000D01*
X438999Y565001D02*
Y615999D01*
X456000Y562000D02*
X459000Y565000D01*
Y582875D01*
X457625Y584250D02*
X459000Y582875D01*
X448375Y584250D02*
X457625D01*
X447000Y585625D02*
X448375Y584250D01*
X447000Y585625D02*
Y588375D01*
X448375Y589750D01*
X469625D01*
X471000Y591125D01*
Y593875D01*
X469625Y595250D02*
X471000Y593875D01*
X448375Y595250D02*
X469625D01*
X447000Y596625D02*
X448375Y595250D01*
X447000Y596625D02*
Y599375D01*
X448375Y600750D01*
X457625D01*
X459000Y602125D01*
Y604875D01*
X457625Y606250D02*
X459000Y604875D01*
X448375Y606250D02*
X457625D01*
X447000Y607625D02*
X448375Y606250D01*
X447000Y607625D02*
Y610375D01*
X448375Y611750D01*
X457625D01*
X459000Y613125D01*
Y615875D01*
X457625Y617250D02*
X459000Y615875D01*
X448375Y617250D02*
X457625D01*
X447000Y618625D02*
X448375Y617250D01*
X447000Y618625D02*
Y621375D01*
X448375Y622750D01*
X457625D01*
X459000Y624125D01*
Y631000D01*
X491000Y663000D02*
Y671000D01*
X489000Y673000D02*
X491000Y671000D01*
X461000Y673000D02*
X489000D01*
X453000Y651000D02*
X457000Y655000D01*
Y669000D02*
X461000Y673000D01*
X457000Y655000D02*
Y669000D01*
X459000Y631000D02*
X491000Y663000D01*
X467250Y630796D02*
X509454Y673000D01*
X467250Y604250D02*
Y630796D01*
X402108Y756093D02*
X406000Y752200D01*
Y742327D02*
Y752200D01*
Y686000D02*
X422000Y670000D01*
X406000Y686000D02*
Y701077D01*
X404625Y702452D02*
X406000Y701077D01*
X398375Y702452D02*
X404625D01*
X397000Y703827D02*
X398375Y702452D01*
X397000Y703827D02*
Y706577D01*
X398375Y707952D01*
X413625D01*
X415000Y709327D01*
Y712077D01*
X413625Y713452D02*
X415000Y712077D01*
X398375Y713452D02*
X413625D01*
X397000Y714827D02*
X398375Y713452D01*
X397000Y714827D02*
Y717577D01*
X398375Y718952D01*
X413625D01*
X415000Y720327D01*
Y723077D01*
X413625Y724452D02*
X415000Y723077D01*
X398375Y724452D02*
X413625D01*
X397000Y725827D02*
X398375Y724452D01*
X397000Y725827D02*
Y728577D01*
X398375Y729952D01*
X413625D01*
X415000Y731327D01*
Y734077D01*
X413625Y735452D02*
X415000Y734077D01*
X398375Y735452D02*
X413625D01*
X397000Y736827D02*
X398375Y735452D01*
X397000Y736827D02*
Y739577D01*
X398375Y740952D01*
X404625D01*
X406000Y742327D01*
X402108Y756093D02*
Y758037D01*
X404052Y759982D01*
X405997D01*
X416780Y749198D01*
X418724D01*
X420669Y751143D01*
Y753087D01*
X409886Y763871D02*
X420669Y753087D01*
X409886Y763871D02*
Y765815D01*
X411830Y767760D01*
X413775D01*
X424558Y756976D01*
X426503D01*
X428447Y758921D01*
Y760865D01*
X424028Y765285D02*
X428447Y760865D01*
X424028Y765285D02*
Y767229D01*
X425000Y768202D01*
X530000Y693000D02*
X693000D01*
X510000Y713000D02*
X530000Y693000D01*
X482000Y683000D02*
X713000D01*
X435000Y730000D02*
X482000Y683000D01*
X430000Y730000D02*
X435000D01*
X514000Y668000D02*
X764000D01*
X509454Y673000D02*
X759000D01*
X496000Y688000D02*
X702000D01*
X476000Y708000D02*
X496000Y688000D01*
X688250Y710704D02*
Y713250D01*
X681877Y704331D02*
X688250Y710704D01*
X536740Y704331D02*
X681877D01*
X475000Y766071D02*
X536740Y704331D01*
X677331Y709331D02*
X680000Y712000D01*
X538811Y709331D02*
X677331D01*
X480000Y768142D02*
X538811Y709331D01*
X671919Y716000D02*
X672000Y716081D01*
X539213Y716000D02*
X671919D01*
X490000Y765213D02*
X539213Y716000D01*
X670501Y738184D02*
Y739800D01*
X653317Y721000D02*
X670501Y738184D01*
X541284Y721000D02*
X653317D01*
X501000Y761284D02*
X541284Y721000D01*
X663000Y737754D02*
Y745000D01*
X651246Y726000D02*
X663000Y737754D01*
X543355Y726000D02*
X651246D01*
X520000Y749355D02*
X543355Y726000D01*
X685000Y698000D02*
X695000Y708000D01*
X536000Y698000D02*
X685000D01*
X470000Y764000D02*
X536000Y698000D01*
X693000Y693000D02*
X708000Y708000D01*
X702000Y688000D02*
X722000Y708000D01*
X713000Y683000D02*
X737999Y707999D01*
X739000Y678000D02*
X753000Y692000D01*
X759000Y673000D02*
X769000Y683000D01*
X764000Y668000D02*
X783000Y687000D01*
X767000Y663000D02*
X792750Y688750D01*
X520000Y663000D02*
X767000D01*
X489000Y632000D02*
X520000Y663000D01*
X688250Y713250D02*
X690501Y715501D01*
Y739800D01*
X430000Y692000D02*
Y717402D01*
X469602Y539602D02*
X489000Y559000D01*
Y632000D01*
X520000Y749355D02*
Y776875D01*
X521375Y778250D01*
X523625D01*
X525000Y779625D01*
Y782375D01*
X523625Y783750D02*
X525000Y782375D01*
X516375Y783750D02*
X523625D01*
X515000Y785125D02*
X516375Y783750D01*
X515000Y785125D02*
Y787875D01*
X516375Y789250D01*
X523625D01*
X525000Y790625D01*
Y793375D01*
X523625Y794750D02*
X525000Y793375D01*
X516375Y794750D02*
X523625D01*
X515000Y796125D02*
X516375Y794750D01*
X515000Y796125D02*
Y798875D01*
X516375Y800250D01*
X523625D01*
X525000Y801625D01*
Y804375D01*
X523625Y805750D02*
X525000Y804375D01*
X516375Y805750D02*
X523625D01*
X515000Y807125D02*
X516375Y805750D01*
X515000Y807125D02*
Y809875D01*
X516375Y811250D01*
X523625D01*
X525000Y812625D01*
Y815375D01*
X523625Y816750D02*
X525000Y815375D01*
X516375Y816750D02*
X523625D01*
X515000Y818125D02*
X516375Y816750D01*
X515000Y818125D02*
Y820875D01*
X516375Y822250D01*
X518625D01*
X520000Y823625D01*
Y825000D01*
X513000Y832000D02*
X520000Y825000D01*
X504000Y832000D02*
X513000D01*
X501000Y835000D02*
X504000Y832000D01*
X501000Y835000D02*
Y838803D01*
X496250Y823750D02*
X506375D01*
X488000Y832000D02*
X496250Y823750D01*
X501000Y761284D02*
Y776625D01*
X502625Y778250D01*
X506375D01*
X508000Y779875D01*
Y783125D01*
X506375Y784750D02*
X508000Y783125D01*
X502625Y784750D02*
X506375D01*
X501000Y786375D02*
X502625Y784750D01*
X501000Y786375D02*
Y789625D01*
X502625Y791250D01*
X506375D01*
X508000Y792875D01*
Y796125D01*
X506375Y797750D02*
X508000Y796125D01*
X502625Y797750D02*
X506375D01*
X501000Y799375D02*
X502625Y797750D01*
X501000Y799375D02*
Y802625D01*
X502625Y804250D01*
X506375D01*
X508000Y805875D01*
Y809125D01*
X506375Y810750D02*
X508000Y809125D01*
X502625Y810750D02*
X506375D01*
X501000Y812375D02*
X502625Y810750D01*
X501000Y812375D02*
Y815625D01*
X502625Y817250D01*
X506375D01*
X508000Y818875D01*
Y822125D01*
X506375Y823750D02*
X508000Y822125D01*
X486287Y817713D02*
X492750D01*
X481000Y823000D02*
X486287Y817713D01*
X492750D02*
X494000Y816463D01*
Y813963D02*
Y816463D01*
X492750Y812713D02*
X494000Y813963D01*
X487250Y812713D02*
X492750D01*
X486000Y811463D02*
X487250Y812713D01*
X486000Y808963D02*
Y811463D01*
Y808963D02*
X487250Y807713D01*
X492750D01*
X494000Y806463D01*
Y803963D02*
Y806463D01*
X492750Y802713D02*
X494000Y803963D01*
X487250Y802713D02*
X492750D01*
X486000Y801463D02*
X487250Y802713D01*
X486000Y798963D02*
Y801463D01*
Y798963D02*
X487250Y797713D01*
X492750D01*
X494000Y796463D01*
Y793963D02*
Y796463D01*
X492750Y792713D02*
X494000Y793963D01*
X487250Y792713D02*
X492750D01*
X486000Y791463D02*
X487250Y792713D01*
X486000Y788963D02*
Y791463D01*
Y788963D02*
X487250Y787713D01*
X492750D01*
X494000Y786463D01*
Y783963D02*
Y786463D01*
X492750Y782713D02*
X494000Y783963D01*
X487250Y782713D02*
X492750D01*
X486000Y781463D02*
X487250Y782713D01*
X486000Y778963D02*
Y781463D01*
Y778963D02*
X487250Y777713D01*
X492750D01*
X494000Y776463D01*
Y773963D02*
Y776463D01*
X492750Y772713D02*
X494000Y773963D01*
X491250Y772713D02*
X492750D01*
X490000Y771463D02*
X491250Y772713D01*
X490000Y765213D02*
Y771463D01*
X480000Y768142D02*
Y815142D01*
X475000Y766071D02*
Y813071D01*
X470000Y764000D02*
Y811000D01*
X458000Y823000D02*
X470000Y811000D01*
X753000Y692000D02*
Y708000D01*
X458000Y823000D02*
Y882000D01*
X769000Y683000D02*
Y708000D01*
X783000Y687000D02*
Y708000D01*
X792750Y688750D02*
Y721796D01*
X790500Y724045D02*
X792750Y721796D01*
X790500Y724045D02*
Y739800D01*
X536000Y764000D02*
X609000D01*
X369000Y643000D02*
X382000Y656000D01*
Y777000D01*
X369000Y583000D02*
Y643000D01*
Y583000D02*
X382000Y570000D01*
X369000Y489000D02*
X378000D01*
X382000Y493000D01*
Y570000D01*
X1698000Y1767000D02*
X1548000D01*
X1429001Y1574999D02*
X1429000Y1575000D01*
X1606001Y1574999D02*
X1429001D01*
X1677000Y1689000D02*
X1531000D01*
X1657000Y1668000D02*
X1544000D01*
X1684000Y1696000D02*
X1494000D01*
X1670000Y1682000D02*
X1519000D01*
X1663001Y1674999D02*
X1556000D01*
X1649000Y1661000D02*
X1649000Y1661000D01*
X1649000Y1661000D02*
X1577000D01*
X1290000Y1609000D02*
X1290142Y1609142D01*
X1550001Y1744999D02*
X1488999D01*
X1557001Y1737999D02*
X1489070D01*
X1564001Y1730999D02*
X1489141D01*
X1570001Y1723999D02*
X1489212D01*
X1570001Y1652000D02*
X1569000Y1653000D01*
X1646000Y1652000D02*
X1570001D01*
X1460500Y1716500D02*
X1488999Y1744999D01*
X1465500Y1714429D02*
X1489070Y1737999D01*
X1470500Y1712358D02*
X1489141Y1730999D01*
X1475500Y1710287D02*
X1489212Y1723999D01*
X1485500Y1705500D02*
X1490000Y1710000D01*
X1583000D02*
X1490000D01*
X1480500Y1707571D02*
X1489928Y1716999D01*
X1577001D02*
X1489928D01*
X1460500Y1679308D02*
Y1716500D01*
X1465500Y1677236D02*
Y1714429D01*
X1470500Y1675165D02*
Y1712358D01*
X1475500Y1673094D02*
Y1710287D01*
X1480500Y1671023D02*
Y1707571D01*
X1485500Y1668952D02*
Y1705500D01*
X1626750Y1595750D02*
X1627000Y1596000D01*
X1351454Y1573000D02*
X1251000D01*
X1350142Y1595000D02*
X1264000D01*
X1351383Y1580000D02*
X1240000D01*
X1413000Y1572000D02*
X1392000D01*
X1413000D02*
X1423000Y1582000D01*
X1613000D02*
X1423000D01*
X1412929Y1579000D02*
X1422929Y1589000D01*
X1620000D02*
X1422929D01*
X1412929Y1579000D02*
X1403000D01*
X1634001Y1602999D02*
X1422786D01*
X1385000Y1582000D02*
X1378000D01*
X1385071Y1575000D02*
X1366000D01*
X1626750Y1595750D02*
X1422608D01*
X1410787Y1591000D02*
X1422786Y1602999D01*
X1410787Y1591000D02*
X1394000D01*
X1385000Y1582000D02*
X1394000Y1591000D01*
X1412858Y1586000D02*
X1396071D01*
X1412858D02*
X1422608Y1595750D01*
X1385071Y1575000D02*
X1396071Y1586000D01*
X1409858Y1597142D02*
X1420715Y1607999D01*
X1409858Y1597142D02*
X1393071D01*
X1351454Y1573000D02*
X1367204Y1588750D01*
X1384679D02*
X1393071Y1597142D01*
X1384679Y1588750D02*
X1367204D01*
X1351383Y1580000D02*
X1365133Y1593750D01*
X1382608D02*
X1365133D01*
X1382608D02*
X1391536Y1602677D01*
X1408323D02*
X1391536D01*
X1408323D02*
X1418644Y1612999D01*
X1351312Y1587000D02*
X1277000D01*
X1351312D02*
X1363062Y1598750D01*
X1380537D02*
X1363062D01*
X1407287Y1608713D02*
X1416573Y1617999D01*
X1380537Y1598750D02*
X1390500Y1608713D01*
X1407287D02*
X1390500D01*
X1350142Y1595000D02*
X1358892Y1603750D01*
X1378466D02*
X1358892D01*
X1378466D02*
X1388429Y1613713D01*
X1405216D02*
X1388429D01*
X1405216D02*
X1414502Y1622999D01*
X1350071Y1602000D02*
X1302000D01*
X1350071D02*
X1356821Y1608750D01*
X1376395D02*
X1356821D01*
X1376395D02*
X1386358Y1618713D01*
X1403145D02*
X1386358D01*
X1403145D02*
X1412431Y1627999D01*
X1350142Y1609142D02*
X1354750Y1613750D01*
X1370000D02*
X1354750D01*
X1370000D02*
X1379963Y1623713D01*
X1401074D02*
X1379963D01*
X1401074D02*
X1410360Y1632999D01*
X1350142Y1609142D02*
X1290142D01*
X1399003Y1628713D02*
X1377892D01*
X1399003D02*
X1408289Y1637999D01*
X1367108Y1625000D02*
X1375821Y1633713D01*
X1396932D02*
X1375821D01*
X1396932D02*
X1406218Y1642999D01*
X1367108Y1625000D02*
X1315000D01*
X1367929Y1618750D02*
X1377892Y1628713D01*
X1367929Y1618750D02*
X1338750D01*
X1336000Y1616000D02*
X1338750Y1618750D01*
X1336000Y1616000D02*
X1327000D01*
X1728000Y1780999D02*
X1536001D01*
X1703250Y1774000D02*
X1542000D01*
X1689250Y1702999D02*
X1505000D01*
X1710000Y1788999D02*
X1530001D01*
X1523001Y1795999D02*
X1523002Y1796000D01*
X1730000D02*
X1523002D01*
X1593000Y1628000D02*
X1470000D01*
X1583729Y1642750D02*
X1466369D01*
X1602000Y1612000D02*
X1456454D01*
X1597000Y1620000D02*
X1477000D01*
X1424192Y1642999D02*
X1406218D01*
X1424192D02*
X1460500Y1679308D01*
X1426263Y1637999D02*
X1408289D01*
X1426263D02*
X1465500Y1677236D01*
X1428334Y1632999D02*
X1410360D01*
X1428334D02*
X1470500Y1675165D01*
X1430405Y1627999D02*
X1412431D01*
X1430405D02*
X1475500Y1673094D01*
X1432476Y1622999D02*
X1414502D01*
X1432476D02*
X1480500Y1671023D01*
X1434547Y1617999D02*
X1416573D01*
X1434547D02*
X1485500Y1668952D01*
X1436618Y1612999D02*
X1418644D01*
X1436618D02*
X1466369Y1642750D01*
X1588000Y1635000D02*
X1465690D01*
X1438689Y1607999D02*
X1420715D01*
X1438689D02*
X1465690Y1635000D01*
X688000Y1767000D02*
X538000D01*
X419001Y1574999D02*
X419000Y1575000D01*
X596001Y1574999D02*
X419001D01*
X667000Y1689000D02*
X521000D01*
X647000Y1668000D02*
X534000D01*
X674000Y1696000D02*
X484000D01*
X660000Y1682000D02*
X509000D01*
X653001Y1674999D02*
X546000D01*
X639000Y1661000D02*
X639000Y1661000D01*
X639000Y1661000D02*
X567000D01*
X280000Y1609000D02*
X280142Y1609142D01*
X540001Y1744999D02*
X478999D01*
X547001Y1737999D02*
X479070D01*
X554001Y1730999D02*
X479141D01*
X560001Y1723999D02*
X479212D01*
X560001Y1652000D02*
X559000Y1653000D01*
X636000Y1652000D02*
X560001D01*
X450500Y1716500D02*
X478999Y1744999D01*
X455500Y1714429D02*
X479070Y1737999D01*
X460500Y1712358D02*
X479141Y1730999D01*
X465500Y1710287D02*
X479212Y1723999D01*
X475500Y1705500D02*
X480000Y1710000D01*
X573000D02*
X480000D01*
X470500Y1707571D02*
X479928Y1716999D01*
X567001D02*
X479928D01*
X450500Y1679308D02*
Y1716500D01*
X455500Y1677236D02*
Y1714429D01*
X460500Y1675165D02*
Y1712358D01*
X465500Y1673094D02*
Y1710287D01*
X470500Y1671023D02*
Y1707571D01*
X475500Y1668952D02*
Y1705500D01*
X616750Y1595750D02*
X617000Y1596000D01*
X341454Y1573000D02*
X241000D01*
X340142Y1595000D02*
X254000D01*
X341383Y1580000D02*
X230000D01*
X403000Y1572000D02*
X382000D01*
X403000D02*
X413000Y1582000D01*
X603000D02*
X413000D01*
X402929Y1579000D02*
X412929Y1589000D01*
X610000D02*
X412929D01*
X402929Y1579000D02*
X393000D01*
X624001Y1602999D02*
X412786D01*
X375000Y1582000D02*
X368000D01*
X375071Y1575000D02*
X356000D01*
X616750Y1595750D02*
X412608D01*
X400787Y1591000D02*
X412786Y1602999D01*
X400787Y1591000D02*
X384000D01*
X375000Y1582000D02*
X384000Y1591000D01*
X402858Y1586000D02*
X386071D01*
X402858D02*
X412608Y1595750D01*
X375071Y1575000D02*
X386071Y1586000D01*
X399858Y1597142D02*
X410715Y1607999D01*
X399858Y1597142D02*
X383071D01*
X341454Y1573000D02*
X357204Y1588750D01*
X374679D02*
X383071Y1597142D01*
X374679Y1588750D02*
X357204D01*
X341383Y1580000D02*
X355133Y1593750D01*
X372608D02*
X355133D01*
X372608D02*
X381536Y1602677D01*
X398322D02*
X381536D01*
X398322D02*
X408644Y1612999D01*
X341312Y1587000D02*
X267000D01*
X341312D02*
X353062Y1598750D01*
X370537D02*
X353062D01*
X397287Y1608713D02*
X406573Y1617999D01*
X370537Y1598750D02*
X380500Y1608713D01*
X397287D02*
X380500D01*
X340142Y1595000D02*
X348892Y1603750D01*
X368466D02*
X348892D01*
X368466D02*
X378429Y1613713D01*
X395216D02*
X378429D01*
X395216D02*
X404502Y1622999D01*
X340071Y1602000D02*
X292000D01*
X340071D02*
X346821Y1608750D01*
X366395D02*
X346821D01*
X366395D02*
X376358Y1618713D01*
X393145D02*
X376358D01*
X393145D02*
X402431Y1627999D01*
X340142Y1609142D02*
X344750Y1613750D01*
X360000D02*
X344750D01*
X360000D02*
X369963Y1623713D01*
X391074D02*
X369963D01*
X391074D02*
X400360Y1632999D01*
X340142Y1609142D02*
X280142D01*
X389003Y1628713D02*
X367892D01*
X389003D02*
X398289Y1637999D01*
X357108Y1625000D02*
X365821Y1633713D01*
X386932D02*
X365821D01*
X386932D02*
X396218Y1642999D01*
X357108Y1625000D02*
X305000D01*
X357929Y1618750D02*
X367892Y1628713D01*
X357929Y1618750D02*
X328750D01*
X326000Y1616000D02*
X328750Y1618750D01*
X326000Y1616000D02*
X317000D01*
X718000Y1780999D02*
X526001D01*
X693250Y1774000D02*
X532000D01*
X679250Y1702999D02*
X495000D01*
X700000Y1788999D02*
X520001D01*
X513001Y1795999D02*
X513002Y1796000D01*
X720000D02*
X513002D01*
X583000Y1628000D02*
X460000D01*
X573729Y1642750D02*
X456369D01*
X592000Y1612000D02*
X446454D01*
X587000Y1620000D02*
X467000D01*
X414192Y1642999D02*
X396218D01*
X414192D02*
X450500Y1679308D01*
X416263Y1637999D02*
X398289D01*
X416263D02*
X455500Y1677236D01*
X418334Y1632999D02*
X400360D01*
X418334D02*
X460500Y1675165D01*
X420405Y1627999D02*
X402431D01*
X420405D02*
X465500Y1673094D01*
X422476Y1622999D02*
X404502D01*
X422476D02*
X470500Y1671023D01*
X424547Y1617999D02*
X406573D01*
X424547D02*
X475500Y1668952D01*
X426618Y1612999D02*
X408644D01*
X426618D02*
X456369Y1642750D01*
X578000Y1635000D02*
X455690D01*
X428689Y1607999D02*
X410715D01*
X428689D02*
X455690Y1635000D01*
D14*
X597998Y855500D02*
Y998998D01*
X583000Y855000D02*
Y991000D01*
X557998Y855500D02*
Y970998D01*
X543000Y855000D02*
Y979997D01*
X597998Y998998D02*
X598000Y999000D01*
X583000Y991000D02*
X583000Y991000D01*
X542999Y979998D02*
X543000Y979997D01*
X557998Y970998D02*
X558000Y971000D01*
X977000Y352000D02*
X1004000Y325000D01*
X787000Y352000D02*
X977000D01*
X773102Y365898D02*
X787000Y352000D01*
X965000Y294000D02*
X985350Y273650D01*
Y234350D02*
Y273650D01*
X965000Y294000D02*
Y299000D01*
X1004000D02*
Y325000D01*
X947000D02*
X952000Y320000D01*
X731604Y325000D02*
X947000D01*
X722302Y334302D02*
X731604Y325000D01*
X773102Y365898D02*
Y386302D01*
X952000Y299000D02*
Y320000D01*
X965000Y299000D02*
Y320000D01*
X950698Y334302D02*
X965000Y320000D01*
X747702Y334302D02*
X950698D01*
X680000Y179000D02*
X710000D01*
X672300Y171300D02*
X680000Y179000D01*
X672300Y159200D02*
Y171300D01*
X667000Y304000D02*
X696000D01*
X659000Y312000D02*
X667000Y304000D01*
X735000Y179000D02*
Y185000D01*
X610000Y200000D02*
X720000D01*
X735000Y185000D01*
X621000Y190000D02*
X717000D01*
X722000Y185000D01*
Y179000D02*
Y185000D01*
X1633000Y2299000D02*
Y2312000D01*
X1735000D02*
X1633000D01*
X1748600Y2298400D02*
X1735000Y2312000D01*
X1748600Y2139000D02*
Y2298400D01*
X1470250Y1894748D02*
X1478500Y1902998D01*
X1470250Y1846647D02*
Y1894748D01*
X1138000Y1588000D02*
Y1604602D01*
X1447000Y1823398D02*
X1470250Y1846647D01*
X1454000Y1820498D02*
X1478500Y1844998D01*
X1454000Y1682000D02*
Y1820498D01*
X1393000Y1640213D02*
X1402286Y1649499D01*
X1393000Y1640213D02*
X1371713D01*
X1390000Y1647213D02*
X1399286Y1656499D01*
X1390000Y1647213D02*
X1368814D01*
X1719000Y2109400D02*
X1748600Y2139000D01*
X1719000Y2065000D02*
Y2109400D01*
X1418600Y1656499D02*
X1399286D01*
X1418600D02*
X1447000Y1684899D01*
Y1823398D01*
X1421499Y1649499D02*
X1454000Y1682000D01*
X1421499Y1649499D02*
X1402286D01*
X1361851Y1640250D02*
X1368814Y1647213D01*
X1361851Y1640250D02*
X1173648D01*
X1138000Y1604602D02*
X1173648Y1640250D01*
X1364750Y1633250D02*
X1371713Y1640213D01*
X1364750Y1633250D02*
X1208647D01*
X1163198Y1587802D02*
X1208647Y1633250D01*
X623000Y2299000D02*
Y2312000D01*
X725000D02*
X623000D01*
X738600Y2298400D02*
X725000Y2312000D01*
X738600Y2139000D02*
Y2298400D01*
X460250Y1894748D02*
X468500Y1902998D01*
X460250Y1846648D02*
Y1894748D01*
X128000Y1588000D02*
Y1604602D01*
X437000Y1823398D02*
X460250Y1846648D01*
X444000Y1820498D02*
X468500Y1844998D01*
X444000Y1682000D02*
Y1820498D01*
X383000Y1640213D02*
X392286Y1649499D01*
X383000Y1640213D02*
X361713D01*
X380000Y1647213D02*
X389286Y1656499D01*
X380000Y1647213D02*
X358814D01*
X709000Y2109400D02*
X738600Y2139000D01*
X709000Y2065000D02*
Y2109400D01*
X408600Y1656499D02*
X389286D01*
X408600D02*
X437000Y1684899D01*
Y1823398D01*
X411499Y1649499D02*
X444000Y1682000D01*
X411499Y1649499D02*
X392286D01*
X351851Y1640250D02*
X358814Y1647213D01*
X351851Y1640250D02*
X163648D01*
X128000Y1604602D02*
X163648Y1640250D01*
X354750Y1633250D02*
X361713Y1640213D01*
X354750Y1633250D02*
X198647D01*
X153198Y1587802D02*
X198647Y1633250D01*
D15*
X625000Y741000D02*
X635000D01*
X1747398Y1519000D02*
Y2037602D01*
X1524000Y2131000D02*
Y2175000D01*
X1540003Y2114997D02*
X1524000Y2131000D01*
X1680004Y2114997D02*
X1540003D01*
X1711000Y2049000D02*
X1704000Y2056000D01*
Y2097000D01*
X1686003Y2114997D01*
X1680004D01*
X1747398Y2037602D02*
X1736000Y2049000D01*
X1711000D01*
X737398Y1519000D02*
Y2037602D01*
X514000Y2131000D02*
Y2175000D01*
X530003Y2114997D02*
X514000Y2131000D01*
X670004Y2114997D02*
X530003D01*
X701000Y2049000D02*
X694000Y2056000D01*
Y2097000D01*
X676003Y2114997D01*
X670004D01*
X737398Y2037602D02*
X726000Y2049000D01*
X701000D01*
D16*
X1478000Y1954000D02*
Y2016000D01*
X1471000Y1947000D02*
X1478000Y1954000D01*
X1456000Y1947000D02*
Y1994000D01*
X1478000Y2016000D01*
X468000Y1954000D02*
Y2016000D01*
X461000Y1947000D02*
X468000Y1954000D01*
X446000Y1947000D02*
Y1994000D01*
X468000Y2016000D01*
D17*
X845000Y2345000D02*
D03*
X1005000D02*
D03*
X990000D02*
D03*
X860000D02*
D03*
X845000Y1845000D02*
D03*
X860000D02*
D03*
X990000D02*
D03*
X1005000D02*
D03*
X845000Y1325000D02*
D03*
X860000D02*
D03*
X990000D02*
D03*
X1005000D02*
D03*
D18*
X1000001Y80000D02*
D03*
X1200001D02*
D03*
D19*
X965000D02*
D03*
X930001D02*
D03*
X1165000D02*
D03*
X1130001D02*
D03*
D20*
X755400Y159200D02*
D03*
X741550Y130800D02*
D03*
X727700Y159200D02*
D03*
X713850Y130800D02*
D03*
X700000Y159200D02*
D03*
X686150Y130800D02*
D03*
X672300Y159200D02*
D03*
X658450Y130800D02*
D03*
D21*
X644600Y159200D02*
D03*
D22*
X575050Y145000D02*
D03*
X824950D02*
D03*
D23*
X1057000Y22300D02*
D03*
D24*
Y47700D02*
D03*
D25*
X1268000Y342000D02*
D03*
Y1118000D02*
D03*
X132000D02*
D03*
Y342000D02*
D03*
X32000Y32000D02*
D03*
X1818000D02*
D03*
Y1218000D02*
D03*
X32000D02*
D03*
X1818000Y1282000D02*
D03*
X1042000D02*
D03*
Y2418000D02*
D03*
X1818000D02*
D03*
X808000Y1282000D02*
D03*
X32000D02*
D03*
Y2418000D02*
D03*
X808000D02*
D03*
D26*
X590000Y375000D02*
D03*
X472000Y162000D02*
D03*
X486000D02*
D03*
X495803Y844000D02*
D03*
X473000Y856000D02*
D03*
X494000Y870000D02*
D03*
X482000Y895000D02*
D03*
X466000Y743000D02*
D03*
X475000Y615000D02*
D03*
X467250Y604250D02*
D03*
X510000Y713000D02*
D03*
X680000Y712000D02*
D03*
X672000Y716081D02*
D03*
X695000Y708000D02*
D03*
X708000D02*
D03*
X430000Y730000D02*
D03*
Y692000D02*
D03*
Y676000D02*
D03*
X422000Y670000D02*
D03*
X430000Y717402D02*
D03*
X1058500Y1027000D02*
D03*
X1066000D02*
D03*
X598000Y999000D02*
D03*
X583000Y991000D02*
D03*
X597998Y855500D02*
D03*
X583000Y855000D02*
D03*
X542999Y979998D02*
D03*
X543000Y855000D02*
D03*
X558000Y971000D02*
D03*
X557998Y855500D02*
D03*
X1503000Y795000D02*
D03*
X1493000Y775000D02*
D03*
X1482000Y785000D02*
D03*
X834998Y774998D02*
D03*
X823998Y794998D02*
D03*
X815000Y785000D02*
D03*
X1480000Y421000D02*
D03*
X1470000D02*
D03*
X1060000Y984000D02*
D03*
X1040000Y1132000D02*
D03*
X1001000Y1097000D02*
D03*
X964000Y1041000D02*
D03*
X985350Y234350D02*
D03*
X951000Y1041000D02*
D03*
X977000D02*
D03*
X982000Y861000D02*
D03*
X991998Y860998D02*
D03*
X989000Y324000D02*
D03*
X952000Y299000D02*
D03*
X965000D02*
D03*
X978000Y298997D02*
D03*
X991000D02*
D03*
X1004000Y299000D02*
D03*
X823902Y362498D02*
D03*
X798502D02*
D03*
X773102Y386302D02*
D03*
X747702Y334302D02*
D03*
X722302D02*
D03*
X735000Y179000D02*
D03*
X722000D02*
D03*
X369000Y489000D02*
D03*
X469602Y539602D02*
D03*
X448000Y659000D02*
D03*
X376000Y590000D02*
D03*
X453000Y651000D02*
D03*
X458000Y883000D02*
D03*
X488000Y832000D02*
D03*
X438999Y615999D02*
D03*
X431999Y589999D02*
D03*
X425000Y768202D02*
D03*
X663000Y745000D02*
D03*
X655499Y739800D02*
D03*
X670501D02*
D03*
X680501D02*
D03*
X690501D02*
D03*
X722000Y708000D02*
D03*
X737999Y707999D02*
D03*
X710000Y179000D02*
D03*
X696000Y304000D02*
D03*
X659000Y312000D02*
D03*
X790500Y739800D02*
D03*
X800500D02*
D03*
X780500D02*
D03*
X769000Y708000D02*
D03*
X760500Y739800D02*
D03*
X740501D02*
D03*
X720501D02*
D03*
X700501D02*
D03*
X753000Y708000D02*
D03*
X783000D02*
D03*
X786000Y719000D02*
D03*
X801000D02*
D03*
X341000Y278000D02*
D03*
Y248000D02*
D03*
X336000Y311000D02*
D03*
X334000Y214000D02*
D03*
X344000Y222000D02*
D03*
X311000Y202000D02*
D03*
X302000Y202500D02*
D03*
X320000Y201500D02*
D03*
X610000Y200000D02*
D03*
X621000Y190000D02*
D03*
X654000Y248000D02*
D03*
X683000Y245000D02*
D03*
X654000Y218000D02*
D03*
X900000Y198000D02*
D03*
X911000D02*
D03*
X922000D02*
D03*
X1057000D02*
D03*
X1046000D02*
D03*
X1035000D02*
D03*
X1100000Y116000D02*
D03*
X1111000D02*
D03*
X1122000D02*
D03*
X1216000D02*
D03*
X1227000D02*
D03*
X1238000D02*
D03*
X945000Y216000D02*
D03*
Y186000D02*
D03*
X998000D02*
D03*
X1135000Y219000D02*
D03*
X1203000Y300000D02*
D03*
X1146000Y311000D02*
D03*
X1162000Y316000D02*
D03*
X1176000Y268000D02*
D03*
X635000Y741000D02*
D03*
X625000D02*
D03*
X629000Y750000D02*
D03*
X599000D02*
D03*
Y741000D02*
D03*
X536000Y764000D02*
D03*
X382000Y777000D02*
D03*
X1014802Y969002D02*
D03*
X1022002Y958002D02*
D03*
X1046000Y972000D02*
D03*
X494000Y1036000D02*
D03*
X1515000Y597000D02*
D03*
X1469000Y632000D02*
D03*
X1456000D02*
D03*
X1451000Y585000D02*
D03*
X1463000Y575000D02*
D03*
X1236000Y98000D02*
D03*
X683145Y320855D02*
D03*
X743145Y313145D02*
D03*
X641000Y375000D02*
D03*
X419598Y463402D02*
D03*
X468000Y386000D02*
D03*
X997000Y428000D02*
D03*
X1023646Y462646D02*
D03*
X997000Y457000D02*
D03*
X1023000Y513000D02*
D03*
X1036000D02*
D03*
X1048000D02*
D03*
X1011000D02*
D03*
X913000Y877000D02*
D03*
X856000Y936000D02*
D03*
X882000Y903000D02*
D03*
X848000Y932000D02*
D03*
X860000Y954000D02*
D03*
X609000Y764000D02*
D03*
X390000Y819000D02*
D03*
X367000D02*
D03*
Y946000D02*
D03*
X390000D02*
D03*
X367000Y692000D02*
D03*
X390000D02*
D03*
X367000Y565000D02*
D03*
X390000D02*
D03*
X366000Y463000D02*
D03*
X533000Y435000D02*
D03*
X300000Y301000D02*
D03*
X300000Y288000D02*
D03*
X1530000Y622000D02*
D03*
X485000Y1036000D02*
D03*
X503000D02*
D03*
X339000Y412602D02*
D03*
X367000Y413000D02*
D03*
X375000D02*
D03*
X332000Y417000D02*
D03*
X476000Y708000D02*
D03*
X1477000Y1620000D02*
D03*
X1456454Y1612000D02*
D03*
X1546000Y2185000D02*
D03*
X1645000Y2230000D02*
D03*
X1603000Y2180000D02*
D03*
X1621000D02*
D03*
X1612000D02*
D03*
X1634000Y2197000D02*
D03*
X1642000Y2299000D02*
D03*
X1633000Y2312000D02*
D03*
Y2299000D02*
D03*
Y2286000D02*
D03*
Y2273000D02*
D03*
X1645000Y2260000D02*
D03*
X1500000Y2200000D02*
D03*
X1524000Y2175000D02*
D03*
X1694004Y2169997D02*
D03*
X1731004D02*
D03*
X1719004D02*
D03*
X1706004D02*
D03*
X1706650Y2119643D02*
D03*
X1680004Y2084997D02*
D03*
X1680004Y2114997D02*
D03*
X1634001Y1602999D02*
D03*
X1627000Y1596000D02*
D03*
X1620000Y1589000D02*
D03*
X1613000Y1582000D02*
D03*
X1606001Y1574999D02*
D03*
X1544000Y1668000D02*
D03*
X1556000Y1675000D02*
D03*
X1569000Y1653000D02*
D03*
X1531000Y1689000D02*
D03*
X1519000Y1682000D02*
D03*
X1494000Y1696000D02*
D03*
X1429000Y1575000D02*
D03*
X1593000Y1628000D02*
D03*
X1649000Y1661000D02*
D03*
X1677000Y1689000D02*
D03*
X1657000Y1668000D02*
D03*
X1505000Y1703000D02*
D03*
X1684000Y1696000D02*
D03*
X1670000Y1682000D02*
D03*
X1663001Y1674999D02*
D03*
X1577000Y1661000D02*
D03*
X1583000Y1710000D02*
D03*
X1577001Y1716999D02*
D03*
X1570001Y1723999D02*
D03*
X1564001Y1730999D02*
D03*
X1557001Y1737999D02*
D03*
X1550001Y1744999D02*
D03*
X1544001Y1751999D02*
D03*
X1315000Y1625000D02*
D03*
X1290000Y1609000D02*
D03*
X1302000Y1602000D02*
D03*
X1264000Y1595000D02*
D03*
X1277000Y1587000D02*
D03*
X1240000Y1580000D02*
D03*
X1251000Y1573000D02*
D03*
X1536001Y1780999D02*
D03*
X1530001Y1788999D02*
D03*
X1523001Y1795999D02*
D03*
X1548000Y1767000D02*
D03*
X1542000Y1774000D02*
D03*
X1646000Y1652000D02*
D03*
X1478500Y1902998D02*
D03*
X1478500Y1844998D02*
D03*
X1163198Y1587802D02*
D03*
X1138000Y1588000D02*
D03*
X1366000Y1575000D02*
D03*
X1392000Y1572000D02*
D03*
X1403000Y1579000D02*
D03*
X1378000Y1582000D02*
D03*
X1327000Y1616000D02*
D03*
X1595000Y1540000D02*
D03*
Y1530000D02*
D03*
Y1520000D02*
D03*
X1747397Y1518801D02*
D03*
Y1528801D02*
D03*
X1740000Y2151702D02*
D03*
X1744795Y2075502D02*
D03*
X1719000Y2065000D02*
D03*
X1710000Y1788999D02*
D03*
X1703250Y1774000D02*
D03*
X1696000Y1766999D02*
D03*
X1689250Y1702999D02*
D03*
X1728000Y1780999D02*
D03*
X1730000Y1796000D02*
D03*
X1047800Y2266597D02*
D03*
X1696598Y1570598D02*
D03*
X1341000Y1520000D02*
D03*
Y1530000D02*
D03*
Y1540000D02*
D03*
X1468000Y1520000D02*
D03*
Y1530000D02*
D03*
Y1540000D02*
D03*
X1049000Y1605000D02*
D03*
X1484501Y2177500D02*
D03*
X1477499Y2047501D02*
D03*
X1478000Y2016000D02*
D03*
X1214000Y1540000D02*
D03*
Y1530000D02*
D03*
Y1520000D02*
D03*
X1470000Y1628000D02*
D03*
X1583729Y1642750D02*
D03*
X1588000Y1635000D02*
D03*
X1602000Y1612000D02*
D03*
X1597000Y1620000D02*
D03*
X1485000Y1652000D02*
D03*
X1773698Y1618302D02*
D03*
X1653000Y1624000D02*
D03*
X1680000Y1654000D02*
D03*
X1471000Y1947000D02*
D03*
X1456000D02*
D03*
X467000Y1620000D02*
D03*
X446454Y1612000D02*
D03*
X536000Y2185000D02*
D03*
X635000Y2230000D02*
D03*
X593000Y2180000D02*
D03*
X611000D02*
D03*
X602000D02*
D03*
X624000Y2197000D02*
D03*
X632000Y2299000D02*
D03*
X623000Y2312000D02*
D03*
Y2299000D02*
D03*
Y2286000D02*
D03*
Y2273000D02*
D03*
X635000Y2260000D02*
D03*
X490000Y2200000D02*
D03*
X514000Y2175000D02*
D03*
X684004Y2169997D02*
D03*
X721004D02*
D03*
X709004D02*
D03*
X696004D02*
D03*
X696650Y2119643D02*
D03*
X670004Y2084997D02*
D03*
X670004Y2114997D02*
D03*
X624001Y1602999D02*
D03*
X617000Y1596000D02*
D03*
X610000Y1589000D02*
D03*
X603000Y1582000D02*
D03*
X596001Y1574999D02*
D03*
X534000Y1668000D02*
D03*
X546000Y1675000D02*
D03*
X559000Y1653000D02*
D03*
X521000Y1689000D02*
D03*
X509000Y1682000D02*
D03*
X484000Y1696000D02*
D03*
X419000Y1575000D02*
D03*
X583000Y1628000D02*
D03*
X639000Y1661000D02*
D03*
X667000Y1689000D02*
D03*
X647000Y1668000D02*
D03*
X495000Y1703000D02*
D03*
X674000Y1696000D02*
D03*
X660000Y1682000D02*
D03*
X653001Y1674999D02*
D03*
X567000Y1661000D02*
D03*
X573000Y1710000D02*
D03*
X567001Y1716999D02*
D03*
X560001Y1723999D02*
D03*
X554001Y1730999D02*
D03*
X547001Y1737999D02*
D03*
X540001Y1744999D02*
D03*
X534001Y1751999D02*
D03*
X305000Y1625000D02*
D03*
X280000Y1609000D02*
D03*
X292000Y1602000D02*
D03*
X254000Y1595000D02*
D03*
X267000Y1587000D02*
D03*
X230000Y1580000D02*
D03*
X241000Y1573000D02*
D03*
X526001Y1780999D02*
D03*
X520001Y1788999D02*
D03*
X513001Y1795999D02*
D03*
X538000Y1767000D02*
D03*
X532000Y1774000D02*
D03*
X636000Y1652000D02*
D03*
X468500Y1902998D02*
D03*
X468500Y1844998D02*
D03*
X153198Y1587802D02*
D03*
X128000Y1588000D02*
D03*
X356000Y1575000D02*
D03*
X382000Y1572000D02*
D03*
X393000Y1579000D02*
D03*
X368000Y1582000D02*
D03*
X317000Y1616000D02*
D03*
X585000Y1540000D02*
D03*
Y1530000D02*
D03*
Y1520000D02*
D03*
X737397Y1518801D02*
D03*
Y1528801D02*
D03*
X730000Y2151702D02*
D03*
X734795Y2075502D02*
D03*
X709000Y2065000D02*
D03*
X700000Y1788999D02*
D03*
X693250Y1774000D02*
D03*
X686000Y1766999D02*
D03*
X679250Y1702999D02*
D03*
X718000Y1780999D02*
D03*
X720000Y1796000D02*
D03*
X37800Y2266597D02*
D03*
X686598Y1570598D02*
D03*
X331000Y1520000D02*
D03*
Y1530000D02*
D03*
Y1540000D02*
D03*
X458000Y1520000D02*
D03*
Y1530000D02*
D03*
Y1540000D02*
D03*
X39000Y1605000D02*
D03*
X474501Y2177500D02*
D03*
X467499Y2047501D02*
D03*
X468000Y2016000D02*
D03*
X204000Y1540000D02*
D03*
Y1530000D02*
D03*
Y1520000D02*
D03*
X460000Y1628000D02*
D03*
X573729Y1642750D02*
D03*
X578000Y1635000D02*
D03*
X592000Y1612000D02*
D03*
X587000Y1620000D02*
D03*
X475000Y1652000D02*
D03*
X763698Y1618302D02*
D03*
X643000Y1624000D02*
D03*
X670000Y1654000D02*
D03*
X461000Y1947000D02*
D03*
X446000D02*
D03*
M02*
