M48
;Layer_Color=9474304
;FILE_FORMAT=4:4
METRIC,LZ
;TYPE=PLATED
T1F00S00C0.3000
T2F00S00C0.9000
T3F00S00C1.0900
T4F00S00C1.4000
T5F00S00C3.2000
T6F00S00C3.2600
;TYPE=NON_PLATED
T7F00S00C0.3000
%
T01
X011Y00116
X01111
X01122
X01216
X01227
X01238
X01236Y00098
X01135Y00219
X01176Y00268
X01203Y003
X01162Y00316
X01146Y00311
X01004Y00299
X01035Y00198
X01046
X01057
X00998Y00186
X00945
Y00216
X00922Y00198
X00911
X009
X0098535Y0023435
X00991Y00298997
X00978
X00965Y00299
X00952
X00743145Y00313145
X00696Y00304
X00659Y00312
X00654Y00248
X00654Y00218
X00683Y00245
X0071Y00179
X00722
X00735
X00621Y0019
X0061Y002
X00486Y00162
X00472
X00344Y00222
X00334Y00214
X0032Y002015
X00311Y00202
X00302Y002025
X00341Y00248
Y00278
X00336Y00311
X003Y00301
X003Y00288
X00332Y00417
X00339Y00412602
X00367Y00413
X00375
X00366Y00463
X00369Y00489
X00419598Y00463402
X00468Y00386
X00533Y00435
X0059Y00375
X00469602Y00539602
X0046725Y0060425
X00475Y00615
X00438999Y00615999
X00431999Y00589999
X00376Y0059
X00367Y00565
X0039
Y00692
X00367
X0043
Y00676
X00422Y0067
X00448Y00659
X00453Y00651
X00476Y00708
X0051Y00713
X0068Y00712
X00695Y00708
X00708
X00722
X00737999Y00707999
X00753Y00708
X00769
X00783
X00773102Y00386302
X00798502Y00362498
X00823902
X00747702Y00334302
X00722302
X00683145Y00320855
X00641Y00375
X00989Y00324
X00997Y00428
Y00457
X01023646Y00462646
X01023Y00513
X01011
X01036
X01048
X01451Y00585
X01463Y00575
X01469Y00632
X01456
X0153Y00622
X01515Y00597
X0148Y00421
X0147
X01482Y00785
X01493Y00775
X01503Y00795
X0106Y00984
X01046Y00972
X01014802Y00969002
X01022002Y00958002
X010585Y01027
X01066
X01001Y01097
X00977Y01041
X00964
X00951
X0086Y00954
X00856Y00936
X00848Y00932
X00882Y00903
X00913Y00877
X00982Y00861
X00991998Y00860998
X00823998Y00794998
X00815Y00785
X00834998Y00774998
X008005Y007398
X007905
X007805
X007605
X00740501
X00720501
X00700501
X00690501
X00680501
X00670501
X00663Y00745
X00655499Y007398
X00635Y00741
X00625
X00629Y0075
X00609Y00764
X00672Y00716081
X00786Y00719
X00801
X00599Y00741
Y0075
X00536Y00764
X00466Y00743
X0043Y0073
Y00717402
X00425Y00768202
X00382Y00777
X0039Y00819
X00367
Y00946
X0039
X00458Y00883
X00482Y00895
X00494Y0087
X00495803Y00844
X00488Y00832
X00473Y00856
X00543Y00855
X00557998Y008555
X00583Y00855
X00597998Y008555
X00598Y00999
X00583Y00991
X00558Y00971
X00542999Y00979998
X00503Y01036
X00494
X00485
X0104Y01132
X01403Y01579
X01429Y01575
X01456454Y01612
X01477Y0162
X0147Y01628
X01485Y01652
X01494Y01696
X01505Y01703
X01519Y01682
X01531Y01689
X01544Y01668
X01556Y01675
X01577Y01661
X01569Y01653
X01583729Y0164275
X01588Y01635
X01593Y01628
X01597Y0162
X01602Y01612
X01627Y01596
X01634001Y01602999
X0162Y01589
X01613Y01582
X01606001Y01574999
X01595Y0154
Y0153
Y0152
X01468
Y0153
Y0154
X01696598Y01570598
X01747397Y01528801
Y01518801
X01773698Y01618302
X01653Y01624
X01646Y01652
X01649Y01661
X01657Y01668
X01663001Y01674999
X0167Y01682
X01677Y01689
X01684Y01696
X0168925Y01702999
X0168Y01654
X01696Y01766999
X0170325Y01774
X0171Y01788999
X01728Y01780999
X0173Y01796
X01530001Y01788999
X01536001Y01780999
X01542Y01774
X01548Y01767
X01544001Y01751999
X01550001Y01744999
X01557001Y01737999
X01564001Y01730999
X01570001Y01723999
X01577001Y01716999
X01583Y0171
X01523001Y01795999
X014785Y01844998
X014785Y01902998
X01392Y01572
X01378Y01582
X01366Y01575
X01341Y0154
Y0153
Y0152
X01327Y01616
X01315Y01625
X01302Y01602
X0129Y01609
X01277Y01587
X01264Y01595
X01251Y01573
X0124Y0158
X01214Y0154
Y0153
Y0152
X01163198Y01587802
X01138Y01588
X01049Y01605
X00763698Y01618302
X00737397Y01528801
Y01518801
X00686598Y01570598
X00624001Y01602999
X00617Y01596
X0061Y01589
X00643Y01624
X00636Y01652
X00639Y01661
X00647Y01668
X00653001Y01674999
X0066Y01682
X00667Y01689
X00674Y01696
X0067925Y01702999
X0067Y01654
X00686Y01766999
X0069325Y01774
X007Y01788999
X00718Y01780999
X0072Y01796
X00520001Y01788999
X00526001Y01780999
X00532Y01774
X00538Y01767
X00534001Y01751999
X00540001Y01744999
X00547001Y01737999
X00554001Y01730999
X00560001Y01723999
X00567001Y01716999
X00573Y0171
X00567Y01661
X00559Y01653
X00573729Y0164275
X00578Y01635
X00583Y01628
X00587Y0162
X00592Y01612
X00603Y01582
X00596001Y01574999
X00585Y0154
Y0153
Y0152
X00458
Y0153
Y0154
X00419Y01575
X00393Y01579
X00382Y01572
X00368Y01582
X00356Y01575
X00331Y0154
Y0153
Y0152
X00317Y01616
X00305Y01625
X00292Y01602
X0028Y01609
X00267Y01587
X00254Y01595
X00241Y01573
X0023Y0158
X00446454Y01612
X00467Y0162
X0046Y01628
X00475Y01652
X00484Y01696
X00495Y01703
X00509Y01682
X00521Y01689
X00534Y01668
X00546Y01675
X00513001Y01795999
X004685Y01844998
X004685Y01902998
X00204Y0154
Y0153
Y0152
X00153198Y01587802
X00128Y01588
X00039Y01605
X000378Y02266597
X0049Y022
X00474501Y021775
X00514Y02175
X00536Y02185
X00593Y0218
X00602
X00467499Y02047501
X00468Y02016
X00461Y01947
X00446
X00670004Y02084997
X00670004Y02114997
X0069665Y02119643
X00696004Y02169997
X00684004
X00709004
X00721004
X0073Y02151702
X00734795Y02075502
X00709Y02065
X00611Y0218
X00624Y02197
X00635Y0223
Y0226
X00623Y02273
Y02286
Y02299
X00632
X010478Y02266597
X015Y022
X01484501Y021775
X01524Y02175
X01546Y02185
X01603Y0218
X01612
X01621
X01634Y02197
X01645Y0223
Y0226
X01633Y02273
Y02286
Y02299
X01642
X01694004Y02169997
X01706004
X01719004
X01731004
X0174Y02151702
X0170665Y02119643
X01680004Y02114997
X01680004Y02084997
X01719Y02065
X01744795Y02075502
X01477499Y02047501
X01478Y02016
X01471Y01947
X01456
X01633Y02312
X00623Y02312
T02
X01057Y000223
Y000477
T03
X0065845Y001308
X0068615
X0071385
X0074155
X007554Y001592
X007277
X007
X006723
X006446
T04
X01130001Y0008
X01165
X01200001
X01000001
X00965
X00930001
T05
X01818Y00032
X00032
X00132Y00342
X01268
X00132Y01118
X00032Y01218
X00032Y01282
X00808
X01042Y01282
X01268Y01118
X01818Y01218
X01818Y01282
Y02418
X01042
X00808Y02418
X00032
T06
X0082495Y00145
X0057505
T07
X00845Y01325
X0086
X0099
X01005
Y01845
X0099
X0086
X00845
X01005Y02345
X0099
X0086
X00845
M30
