G04 Layer_Color=128*
%FSLAX44Y44*%
%MOMM*%
G71*
G01*
G75*
%ADD10C,1.0000*%
%ADD28R,0.8000X0.9000*%
%ADD29R,1.2000X2.4000*%
%ADD30O,0.7000X2.5000*%
%ADD31O,0.6000X1.9000*%
%ADD32R,0.9000X0.8000*%
%ADD33R,7.3000X0.9500*%
%ADD34R,2.7432X2.6162*%
%ADD35R,1.2000X2.0000*%
%ADD36R,2.6162X2.7432*%
%ADD37R,2.6000X1.1000*%
G04:AMPARAMS|DCode=38|XSize=0.25mm|YSize=0.7mm|CornerRadius=0.0625mm|HoleSize=0mm|Usage=FLASHONLY|Rotation=270.000|XOffset=0mm|YOffset=0mm|HoleType=Round|Shape=RoundedRectangle|*
%AMROUNDEDRECTD38*
21,1,0.2500,0.5750,0,0,270.0*
21,1,0.1250,0.7000,0,0,270.0*
1,1,0.1250,-0.2875,-0.0625*
1,1,0.1250,-0.2875,0.0625*
1,1,0.1250,0.2875,0.0625*
1,1,0.1250,0.2875,-0.0625*
%
%ADD38ROUNDEDRECTD38*%
%ADD39R,0.5600X2.1500*%
%ADD40R,1.1498X1.3995*%
%ADD41R,0.6500X1.1000*%
%ADD42R,0.6500X0.9000*%
%ADD43R,2.2000X0.6000*%
%ADD44R,2.6000X1.8000*%
%ADD45R,1.8034X1.0160*%
%ADD46R,1.8000X1.0000*%
%ADD47R,1.0160X1.8034*%
%ADD48R,1.0000X1.8000*%
%ADD49O,0.6000X2.3000*%
%ADD50R,0.3000X1.2000*%
%ADD51R,2.7000X4.1000*%
%ADD52R,2.7000X3.0000*%
%ADD54R,3.0000X2.7000*%
%ADD55R,1.2000X0.3000*%
%ADD56R,7.3000X0.9500*%
%ADD57R,2.6000X1.1000*%
%ADD58R,4.1000X2.7000*%
G36*
X433500Y236000D02*
X397000D01*
X402000Y236500D01*
X404500Y237000D01*
X406500Y237500D01*
X409500Y239000D01*
X413000Y241000D01*
X416500Y244000D01*
X419000Y247000D01*
X420000Y248500D01*
X422000Y252500D01*
X433500D01*
Y236000D01*
D02*
G37*
G36*
X374000Y248500D02*
X375500Y246500D01*
X377500Y244000D01*
X381000Y241000D01*
X383500Y239500D01*
X385500Y238500D01*
X391500Y236500D01*
X397000Y236000D01*
X360500D01*
Y252500D01*
X372000D01*
X374000Y248500D01*
D02*
G37*
G36*
X433500Y273500D02*
X422000D01*
X420500Y276500D01*
X418500Y279500D01*
X415500Y283000D01*
X411500Y286000D01*
X406500Y288500D01*
X402500Y289500D01*
X397000Y290000D01*
X433500D01*
Y273500D01*
D02*
G37*
G36*
X392000Y289500D02*
X390000Y289000D01*
X388000Y288500D01*
X385500Y287500D01*
X383500Y286500D01*
X381000Y285000D01*
X378500Y283000D01*
X378000Y282500D01*
X376000Y280000D01*
X373500Y276500D01*
X372000Y273500D01*
X360500D01*
Y290000D01*
X397000D01*
X392000Y289500D01*
D02*
G37*
G36*
X1738500Y2272000D02*
Y2255500D01*
X1727000D01*
X1725500Y2258500D01*
X1723500Y2261500D01*
X1720500Y2265000D01*
X1716500Y2268000D01*
X1711500Y2270500D01*
X1707500Y2271500D01*
X1702000Y2272000D01*
X1738500D01*
D02*
G37*
G36*
X1707000Y2218500D02*
X1709500Y2219000D01*
X1711500Y2219500D01*
X1714500Y2221000D01*
X1718000Y2223000D01*
X1721500Y2226000D01*
X1724000Y2229000D01*
X1725000Y2230500D01*
X1727000Y2234500D01*
X1738500D01*
Y2218000D01*
X1702000D01*
X1707000Y2218500D01*
D02*
G37*
G36*
X1702000Y2272000D02*
X1697000Y2271500D01*
X1695000Y2271000D01*
X1693000Y2270500D01*
X1690500Y2269500D01*
X1688500Y2268500D01*
X1686000Y2267000D01*
X1683500Y2265000D01*
X1683000Y2264500D01*
X1681000Y2262000D01*
X1678500Y2258500D01*
X1677000Y2255500D01*
X1665500D01*
Y2272000D01*
X1702000D01*
D02*
G37*
G36*
X1677000Y2234500D02*
X1679000Y2230500D01*
X1680500Y2228500D01*
X1682500Y2226000D01*
X1686000Y2223000D01*
X1688500Y2221500D01*
X1690500Y2220500D01*
X1696500Y2218500D01*
X1702000Y2218000D01*
X1665500D01*
Y2234500D01*
X1677000D01*
D02*
G37*
G36*
X728500Y2272000D02*
Y2255500D01*
X717000D01*
X715500Y2258500D01*
X713500Y2261500D01*
X710500Y2265000D01*
X706500Y2268000D01*
X701500Y2270500D01*
X697500Y2271500D01*
X692000Y2272000D01*
X728500D01*
D02*
G37*
G36*
X697000Y2218500D02*
X699500Y2219000D01*
X701500Y2219500D01*
X704500Y2221000D01*
X708000Y2223000D01*
X711500Y2226000D01*
X714000Y2229000D01*
X715000Y2230500D01*
X717000Y2234500D01*
X728500D01*
Y2218000D01*
X692000D01*
X697000Y2218500D01*
D02*
G37*
G36*
X692000Y2272000D02*
X687000Y2271500D01*
X685000Y2271000D01*
X683000Y2270500D01*
X680500Y2269500D01*
X678500Y2268500D01*
X676000Y2267000D01*
X673500Y2265000D01*
X673000Y2264500D01*
X671000Y2262000D01*
X668500Y2258500D01*
X667000Y2255500D01*
X655500D01*
Y2272000D01*
X692000D01*
D02*
G37*
G36*
X667000Y2234500D02*
X669000Y2230500D01*
X670500Y2228500D01*
X672500Y2226000D01*
X676000Y2223000D01*
X678500Y2221500D01*
X680500Y2220500D01*
X686500Y2218500D01*
X692000Y2218000D01*
X655500D01*
Y2234500D01*
X667000D01*
D02*
G37*
D10*
X90000Y30000D02*
D03*
X1820000Y100000D02*
D03*
Y1160000D02*
D03*
D28*
X307998Y288000D02*
D03*
X321998D02*
D03*
X336002Y288000D02*
D03*
X350002D02*
D03*
X349502Y302500D02*
D03*
X335502D02*
D03*
X322002D02*
D03*
X308002D02*
D03*
Y317500D02*
D03*
X322002D02*
D03*
X321998Y332500D02*
D03*
X307998D02*
D03*
X308002Y347500D02*
D03*
X322002D02*
D03*
X614998Y748500D02*
D03*
X628998D02*
D03*
X611998Y829000D02*
D03*
Y842000D02*
D03*
Y869000D02*
D03*
Y882500D02*
D03*
X597998D02*
D03*
Y869000D02*
D03*
X571998D02*
D03*
Y882500D02*
D03*
X557998D02*
D03*
Y869000D02*
D03*
Y842000D02*
D03*
Y829000D02*
D03*
X571998D02*
D03*
Y842000D02*
D03*
X597998D02*
D03*
Y829000D02*
D03*
X867998Y954000D02*
D03*
X881998D02*
D03*
X514498Y1420000D02*
D03*
Y1435000D02*
D03*
X484502Y1450000D02*
D03*
X470502D02*
D03*
Y1435000D02*
D03*
X484502D02*
D03*
Y1420000D02*
D03*
X470502D02*
D03*
Y1405000D02*
D03*
X484502D02*
D03*
Y1390000D02*
D03*
X470502D02*
D03*
X500499Y1420000D02*
D03*
Y1435000D02*
D03*
X722999Y2175000D02*
D03*
Y2188000D02*
D03*
X646002Y2273000D02*
D03*
Y2286000D02*
D03*
X632002D02*
D03*
Y2273000D02*
D03*
X612999Y2273000D02*
D03*
X613002Y2286000D02*
D03*
Y2299000D02*
D03*
X612999Y2312000D02*
D03*
X651999Y2188000D02*
D03*
X652000Y2175000D02*
D03*
X666000D02*
D03*
X665999Y2188000D02*
D03*
X682000Y2188000D02*
D03*
X682002Y2175000D02*
D03*
X696002D02*
D03*
X708998Y2175000D02*
D03*
Y2188000D02*
D03*
X696000D02*
D03*
X598998Y2273000D02*
D03*
X599002Y2286000D02*
D03*
Y2299000D02*
D03*
X598998Y2312000D02*
D03*
X528002Y2185000D02*
D03*
X514002D02*
D03*
X612999Y2325000D02*
D03*
X598998D02*
D03*
X1480502Y1435000D02*
D03*
X1494502D02*
D03*
Y1420000D02*
D03*
X1480502D02*
D03*
Y1405000D02*
D03*
X1494502D02*
D03*
Y1390000D02*
D03*
X1480502D02*
D03*
X1510499Y1420000D02*
D03*
X1524498D02*
D03*
Y1435000D02*
D03*
X1510499D02*
D03*
X1494502Y1450000D02*
D03*
X1480502D02*
D03*
X1706002Y2175000D02*
D03*
X1718999Y2175000D02*
D03*
Y2188000D02*
D03*
X1706000D02*
D03*
X1732999D02*
D03*
Y2175000D02*
D03*
X1656002Y2273000D02*
D03*
Y2286000D02*
D03*
X1642002D02*
D03*
Y2273000D02*
D03*
X1622999Y2273000D02*
D03*
X1623002Y2286000D02*
D03*
Y2299000D02*
D03*
X1622999Y2312000D02*
D03*
X1608999D02*
D03*
X1609002Y2299000D02*
D03*
Y2286000D02*
D03*
X1608999Y2273000D02*
D03*
X1661998Y2188000D02*
D03*
X1662000Y2175000D02*
D03*
X1676000D02*
D03*
X1675999Y2188000D02*
D03*
X1692000Y2188000D02*
D03*
X1692002Y2175000D02*
D03*
X1538002Y2185000D02*
D03*
X1524002D02*
D03*
X1608999Y2325000D02*
D03*
X1622999D02*
D03*
X1176002Y308000D02*
D03*
X1162002D02*
D03*
X1236002Y89000D02*
D03*
Y76000D02*
D03*
Y63000D02*
D03*
X1250002D02*
D03*
Y76000D02*
D03*
Y89000D02*
D03*
D29*
X472500Y30000D02*
D03*
X517500D02*
D03*
Y120000D02*
D03*
X472500D02*
D03*
D30*
X959950Y203500D02*
D03*
X972650D02*
D03*
X985350D02*
D03*
X998050D02*
D03*
X1149950Y235500D02*
D03*
X1162650D02*
D03*
X1175350D02*
D03*
X1188050D02*
D03*
Y284500D02*
D03*
X1175350D02*
D03*
X1162650D02*
D03*
X1049046Y445503D02*
D03*
X1149950Y284500D02*
D03*
X1036346Y445503D02*
D03*
X1023646D02*
D03*
X1010946D02*
D03*
X998050Y252500D02*
D03*
X985350D02*
D03*
X972650D02*
D03*
X959950D02*
D03*
X1049046Y494502D02*
D03*
X1036346D02*
D03*
X1023646D02*
D03*
X1010946D02*
D03*
X1706650Y2102500D02*
D03*
X1719350D02*
D03*
X1732050D02*
D03*
Y2151500D02*
D03*
X1719350D02*
D03*
X1706650D02*
D03*
X1693950D02*
D03*
Y2102500D02*
D03*
X722050D02*
D03*
Y2151500D02*
D03*
X709350D02*
D03*
X696650D02*
D03*
X683950D02*
D03*
Y2102500D02*
D03*
X696650D02*
D03*
X709350D02*
D03*
D31*
X670550Y231500D02*
D03*
X683250D02*
D03*
X695950D02*
D03*
X708650D02*
D03*
X721350D02*
D03*
X734050D02*
D03*
X746750D02*
D03*
X759450D02*
D03*
Y278500D02*
D03*
X746750D02*
D03*
X734050D02*
D03*
X721350D02*
D03*
X708650D02*
D03*
X695950D02*
D03*
X683250D02*
D03*
X670550D02*
D03*
D32*
X334000Y222002D02*
D03*
Y236002D02*
D03*
X472000Y141002D02*
D03*
X488000Y140998D02*
D03*
X575000Y188998D02*
D03*
Y202998D02*
D03*
X667500Y201998D02*
D03*
Y187998D02*
D03*
X682500D02*
D03*
Y201998D02*
D03*
X697500D02*
D03*
Y187998D02*
D03*
X712500D02*
D03*
Y201998D02*
D03*
X654000Y225998D02*
D03*
Y239998D02*
D03*
X727500Y202002D02*
D03*
X740000D02*
D03*
Y188002D02*
D03*
X727500D02*
D03*
X734000Y298998D02*
D03*
Y312998D02*
D03*
X709000D02*
D03*
Y298998D02*
D03*
X685000Y297998D02*
D03*
Y311998D02*
D03*
X670290Y312752D02*
D03*
Y298752D02*
D03*
X488000Y154998D02*
D03*
X472000Y155002D02*
D03*
X317000Y252998D02*
D03*
Y266998D02*
D03*
X302500Y266998D02*
D03*
Y252998D02*
D03*
X945000Y208002D02*
D03*
Y194002D02*
D03*
X972000Y176998D02*
D03*
Y162998D02*
D03*
X986000D02*
D03*
Y176998D02*
D03*
X1050000Y86002D02*
D03*
Y72002D02*
D03*
X1065000D02*
D03*
Y86002D02*
D03*
X1203000Y226998D02*
D03*
Y240998D02*
D03*
Y275998D02*
D03*
Y289998D02*
D03*
X1135000D02*
D03*
Y275998D02*
D03*
X1135000Y241002D02*
D03*
Y227002D02*
D03*
X1004000Y276002D02*
D03*
X991000Y275998D02*
D03*
X978000D02*
D03*
X965000Y276002D02*
D03*
X952000D02*
D03*
Y290002D02*
D03*
X965000D02*
D03*
X978000Y289998D02*
D03*
X991000D02*
D03*
X1004000Y290002D02*
D03*
X997000Y436000D02*
D03*
Y450000D02*
D03*
X1047500Y532998D02*
D03*
Y546998D02*
D03*
X1062500D02*
D03*
Y532998D02*
D03*
X1032500D02*
D03*
Y546998D02*
D03*
X1017500D02*
D03*
Y532998D02*
D03*
X1002500D02*
D03*
Y546998D02*
D03*
X987500D02*
D03*
Y532998D02*
D03*
X1420000Y693002D02*
D03*
Y707002D02*
D03*
X1435000D02*
D03*
Y693002D02*
D03*
X1450000D02*
D03*
Y707002D02*
D03*
X1465000D02*
D03*
Y693002D02*
D03*
X1480000D02*
D03*
Y707002D02*
D03*
X1495000Y706998D02*
D03*
Y692998D02*
D03*
X1510000D02*
D03*
Y706998D02*
D03*
X1545000Y707002D02*
D03*
Y693002D02*
D03*
X1560000D02*
D03*
Y707002D02*
D03*
X1575000D02*
D03*
Y693002D02*
D03*
X1590000D02*
D03*
Y707002D02*
D03*
X1605000D02*
D03*
Y693002D02*
D03*
X1620000D02*
D03*
Y707002D02*
D03*
X1635000D02*
D03*
Y693002D02*
D03*
X1650000D02*
D03*
Y707002D02*
D03*
X1665000D02*
D03*
Y693002D02*
D03*
X1680000D02*
D03*
Y707002D02*
D03*
X1050000Y1024000D02*
D03*
Y1010000D02*
D03*
X1050000Y997998D02*
D03*
Y983998D02*
D03*
X990000Y1016998D02*
D03*
X977000D02*
D03*
X964000D02*
D03*
X951000D02*
D03*
X938000D02*
D03*
Y1030998D02*
D03*
X951000D02*
D03*
X964000D02*
D03*
X977000D02*
D03*
X990000D02*
D03*
X1037000Y997998D02*
D03*
Y983998D02*
D03*
Y971998D02*
D03*
Y957998D02*
D03*
X848000Y923998D02*
D03*
Y909998D02*
D03*
X1492000Y1844998D02*
D03*
X1505000D02*
D03*
Y1858998D02*
D03*
X1492000D02*
D03*
Y1902998D02*
D03*
X1505000D02*
D03*
Y1916998D02*
D03*
X1492000D02*
D03*
X1680004Y2092997D02*
D03*
Y2106997D02*
D03*
X1634000Y2205002D02*
D03*
Y2219001D02*
D03*
X1619000Y2234998D02*
D03*
Y2248998D02*
D03*
X1605000D02*
D03*
Y2234998D02*
D03*
X1465000Y1916998D02*
D03*
X1452000D02*
D03*
Y1902998D02*
D03*
X1465000D02*
D03*
X1465000Y1858998D02*
D03*
X1452000D02*
D03*
Y1844998D02*
D03*
X1465000D02*
D03*
X624000Y2219001D02*
D03*
Y2205002D02*
D03*
X670004Y2106997D02*
D03*
Y2092997D02*
D03*
X609000Y2234998D02*
D03*
Y2248998D02*
D03*
X595000D02*
D03*
Y2234998D02*
D03*
X495000Y1916998D02*
D03*
X482000D02*
D03*
Y1902998D02*
D03*
X495000D02*
D03*
X455000D02*
D03*
X442000D02*
D03*
Y1916998D02*
D03*
X455000D02*
D03*
X455000Y1858998D02*
D03*
X442000D02*
D03*
Y1844998D02*
D03*
X455000D02*
D03*
X482000D02*
D03*
X495000D02*
D03*
Y1858998D02*
D03*
X482000D02*
D03*
D33*
X397000Y231250D02*
D03*
Y294750D02*
D03*
D34*
X911000Y133505D02*
D03*
Y180495D02*
D03*
X1046000Y133505D02*
D03*
X1111000D02*
D03*
X1227000D02*
D03*
Y180495D02*
D03*
X1111000D02*
D03*
X1046000D02*
D03*
D35*
X1156300Y125500D02*
D03*
X1181700D02*
D03*
Y200500D02*
D03*
X1156300D02*
D03*
D36*
X956505Y133000D02*
D03*
X1003495D02*
D03*
D37*
X311000Y212500D02*
D03*
Y239500D02*
D03*
D38*
X332250Y255500D02*
D03*
Y260500D02*
D03*
Y265500D02*
D03*
Y270500D02*
D03*
X349750D02*
D03*
Y265500D02*
D03*
Y260500D02*
D03*
Y255500D02*
D03*
X1636250Y2237500D02*
D03*
Y2242500D02*
D03*
Y2247500D02*
D03*
Y2252500D02*
D03*
X1653750D02*
D03*
Y2247500D02*
D03*
Y2242500D02*
D03*
Y2237500D02*
D03*
X643750D02*
D03*
Y2242500D02*
D03*
Y2247500D02*
D03*
Y2252500D02*
D03*
X626250D02*
D03*
Y2247500D02*
D03*
Y2242500D02*
D03*
Y2237500D02*
D03*
D39*
X341000Y263000D02*
D03*
X1645000Y2245000D02*
D03*
X635000D02*
D03*
D40*
X865999Y914002D02*
D03*
X882001D02*
D03*
Y935998D02*
D03*
X865999D02*
D03*
D41*
X1075000Y1029375D02*
D03*
D42*
X1065500Y1008625D02*
D03*
X1084500D02*
D03*
D43*
X653000Y832000D02*
D03*
Y842000D02*
D03*
Y852000D02*
D03*
Y862000D02*
D03*
D44*
X677000Y806000D02*
D03*
Y888000D02*
D03*
D45*
X353401Y412602D02*
D03*
Y438002D02*
D03*
Y463402D02*
D03*
X405401D02*
D03*
Y438002D02*
D03*
Y488802D02*
D03*
Y514202D02*
D03*
Y539602D02*
D03*
Y565002D02*
D03*
Y590402D02*
D03*
Y615802D02*
D03*
Y641202D02*
D03*
Y666602D02*
D03*
Y692002D02*
D03*
Y717402D02*
D03*
Y742802D02*
D03*
Y768202D02*
D03*
Y793602D02*
D03*
Y819002D02*
D03*
Y844402D02*
D03*
Y869802D02*
D03*
Y895202D02*
D03*
Y920602D02*
D03*
Y946002D02*
D03*
Y971402D02*
D03*
Y996802D02*
D03*
Y1022202D02*
D03*
Y1047602D02*
D03*
X353401D02*
D03*
Y1022202D02*
D03*
Y996802D02*
D03*
Y971402D02*
D03*
Y946002D02*
D03*
Y920602D02*
D03*
Y895202D02*
D03*
Y869802D02*
D03*
Y844402D02*
D03*
Y819002D02*
D03*
Y793602D02*
D03*
Y768202D02*
D03*
Y742802D02*
D03*
Y717402D02*
D03*
Y692002D02*
D03*
Y666602D02*
D03*
Y641202D02*
D03*
Y615802D02*
D03*
Y590402D02*
D03*
Y565002D02*
D03*
Y539602D02*
D03*
Y514202D02*
D03*
Y488802D02*
D03*
X1048400Y1618299D02*
D03*
Y1643699D02*
D03*
X1100400D02*
D03*
Y1669099D02*
D03*
Y1694499D02*
D03*
Y1719899D02*
D03*
Y1745299D02*
D03*
X1048400D02*
D03*
Y1719899D02*
D03*
Y1694499D02*
D03*
Y1669099D02*
D03*
Y1770699D02*
D03*
Y1796099D02*
D03*
Y1821499D02*
D03*
Y1846899D02*
D03*
Y1872299D02*
D03*
X1100400D02*
D03*
Y1846899D02*
D03*
Y1821499D02*
D03*
Y1796099D02*
D03*
Y1770699D02*
D03*
Y1897699D02*
D03*
Y1923099D02*
D03*
Y1948499D02*
D03*
Y1973899D02*
D03*
X1048400D02*
D03*
Y1948499D02*
D03*
Y1923099D02*
D03*
Y1897699D02*
D03*
Y1999299D02*
D03*
Y2024699D02*
D03*
Y2050099D02*
D03*
Y2075499D02*
D03*
X1100400D02*
D03*
Y2050099D02*
D03*
Y2024699D02*
D03*
Y1999299D02*
D03*
Y2100899D02*
D03*
Y2126299D02*
D03*
Y2151699D02*
D03*
Y2177099D02*
D03*
Y2202499D02*
D03*
X1048400D02*
D03*
Y2177099D02*
D03*
Y2151699D02*
D03*
Y2126299D02*
D03*
Y2100899D02*
D03*
Y2227899D02*
D03*
Y2253299D02*
D03*
X1100400D02*
D03*
Y2227899D02*
D03*
X801600Y2227902D02*
D03*
Y2253302D02*
D03*
X749600D02*
D03*
Y2227902D02*
D03*
Y2202502D02*
D03*
Y2177102D02*
D03*
Y2151702D02*
D03*
Y2126302D02*
D03*
Y2100902D02*
D03*
X801600D02*
D03*
Y2126302D02*
D03*
Y2151702D02*
D03*
Y2177102D02*
D03*
Y2202502D02*
D03*
Y2075502D02*
D03*
Y2050102D02*
D03*
Y2024702D02*
D03*
Y1999302D02*
D03*
X749600D02*
D03*
Y2024702D02*
D03*
Y2050102D02*
D03*
Y2075502D02*
D03*
Y1973902D02*
D03*
Y1948502D02*
D03*
Y1923102D02*
D03*
Y1897702D02*
D03*
X801600D02*
D03*
Y1923102D02*
D03*
Y1948502D02*
D03*
Y1973902D02*
D03*
Y1872302D02*
D03*
Y1846902D02*
D03*
Y1821502D02*
D03*
Y1796102D02*
D03*
Y1770702D02*
D03*
X749600D02*
D03*
Y1796102D02*
D03*
Y1821502D02*
D03*
Y1846902D02*
D03*
Y1872302D02*
D03*
Y1745302D02*
D03*
Y1719902D02*
D03*
Y1694502D02*
D03*
Y1669102D02*
D03*
X801600D02*
D03*
Y1694502D02*
D03*
Y1719902D02*
D03*
Y1745302D02*
D03*
Y1643702D02*
D03*
X749600D02*
D03*
Y1618302D02*
D03*
X90400Y2227899D02*
D03*
Y2253299D02*
D03*
Y2202499D02*
D03*
Y2177099D02*
D03*
Y2151699D02*
D03*
Y2126299D02*
D03*
Y2100899D02*
D03*
Y2075499D02*
D03*
Y2050099D02*
D03*
Y2024699D02*
D03*
Y1999299D02*
D03*
Y1973899D02*
D03*
Y1948499D02*
D03*
Y1923099D02*
D03*
Y1897699D02*
D03*
Y1872299D02*
D03*
Y1846899D02*
D03*
Y1821499D02*
D03*
Y1796099D02*
D03*
Y1770699D02*
D03*
Y1745299D02*
D03*
Y1719899D02*
D03*
Y1694499D02*
D03*
Y1669099D02*
D03*
Y1643699D02*
D03*
X38400Y1669099D02*
D03*
Y1694499D02*
D03*
Y1719899D02*
D03*
Y1745299D02*
D03*
Y1643699D02*
D03*
Y1618299D02*
D03*
Y1770699D02*
D03*
Y1796099D02*
D03*
Y1821499D02*
D03*
Y1846899D02*
D03*
Y1872299D02*
D03*
Y1897699D02*
D03*
Y1923099D02*
D03*
Y1948499D02*
D03*
Y1973899D02*
D03*
Y1999299D02*
D03*
Y2024699D02*
D03*
Y2050099D02*
D03*
Y2075499D02*
D03*
Y2100899D02*
D03*
Y2126299D02*
D03*
Y2151699D02*
D03*
Y2177099D02*
D03*
Y2202499D02*
D03*
Y2227899D02*
D03*
Y2253299D02*
D03*
X1759600Y1643702D02*
D03*
Y1618302D02*
D03*
X1811600Y1643702D02*
D03*
Y1669102D02*
D03*
Y1694502D02*
D03*
Y1719902D02*
D03*
Y1745302D02*
D03*
Y1770702D02*
D03*
Y1796102D02*
D03*
Y1821502D02*
D03*
Y1846902D02*
D03*
Y1872302D02*
D03*
Y1897702D02*
D03*
Y1923102D02*
D03*
Y1948502D02*
D03*
Y1973902D02*
D03*
Y1999302D02*
D03*
Y2024702D02*
D03*
Y2050102D02*
D03*
Y2075502D02*
D03*
Y2100902D02*
D03*
Y2126302D02*
D03*
Y2151702D02*
D03*
Y2177102D02*
D03*
Y2202502D02*
D03*
Y2227902D02*
D03*
Y2253302D02*
D03*
X1759600D02*
D03*
Y2227902D02*
D03*
Y2202502D02*
D03*
Y2177102D02*
D03*
Y2151702D02*
D03*
Y2126302D02*
D03*
Y2100902D02*
D03*
Y2075502D02*
D03*
Y2050102D02*
D03*
Y2024702D02*
D03*
Y1999302D02*
D03*
Y1973902D02*
D03*
Y1948502D02*
D03*
Y1923102D02*
D03*
Y1897702D02*
D03*
Y1872302D02*
D03*
Y1846902D02*
D03*
Y1821502D02*
D03*
Y1796102D02*
D03*
Y1770702D02*
D03*
Y1745302D02*
D03*
Y1719902D02*
D03*
Y1694502D02*
D03*
Y1669102D02*
D03*
D46*
X405401Y412602D02*
D03*
X1100400Y1618299D02*
D03*
X801600Y1618302D02*
D03*
X90400Y1618299D02*
D03*
X1811600Y1618302D02*
D03*
D47*
X493702Y348400D02*
D03*
X519102D02*
D03*
X544502D02*
D03*
X569902D02*
D03*
X595302D02*
D03*
X620702D02*
D03*
X646102D02*
D03*
X671502D02*
D03*
X696902D02*
D03*
X722302D02*
D03*
X747702D02*
D03*
X773102D02*
D03*
X798502D02*
D03*
X823902D02*
D03*
X849302D02*
D03*
X874702D02*
D03*
X900102D02*
D03*
X925502D02*
D03*
X950902D02*
D03*
X976302D02*
D03*
X1001702D02*
D03*
X1027102D02*
D03*
X1052502D02*
D03*
X1077902D02*
D03*
X1103302D02*
D03*
Y400400D02*
D03*
X1077902D02*
D03*
X1052502D02*
D03*
X1027102D02*
D03*
X1001702D02*
D03*
X976302D02*
D03*
X950902D02*
D03*
X925502D02*
D03*
X900102D02*
D03*
X874702D02*
D03*
X849302D02*
D03*
X823902D02*
D03*
X798502D02*
D03*
X773102D02*
D03*
X747702D02*
D03*
X722302D02*
D03*
X696902D02*
D03*
X671502D02*
D03*
X646102D02*
D03*
X620702D02*
D03*
X595302D02*
D03*
X569902D02*
D03*
X544502D02*
D03*
X519102D02*
D03*
X493702D02*
D03*
X468302D02*
D03*
X1052499Y1059600D02*
D03*
X1077899D02*
D03*
X1103299D02*
D03*
Y1111600D02*
D03*
X1077899D02*
D03*
X1052499D02*
D03*
X1027099D02*
D03*
X1001699D02*
D03*
X976299D02*
D03*
X950899D02*
D03*
Y1059600D02*
D03*
X976299D02*
D03*
X1001699D02*
D03*
X1027099D02*
D03*
X925499D02*
D03*
X900099D02*
D03*
X874699D02*
D03*
X849299D02*
D03*
Y1111600D02*
D03*
X874699D02*
D03*
X900099D02*
D03*
X925499D02*
D03*
X823899D02*
D03*
X798499D02*
D03*
X773099D02*
D03*
X747699D02*
D03*
X722299D02*
D03*
Y1059600D02*
D03*
X747699D02*
D03*
X773099D02*
D03*
X798499D02*
D03*
X823899D02*
D03*
X696899D02*
D03*
X671499D02*
D03*
X646099D02*
D03*
X620699D02*
D03*
Y1111600D02*
D03*
X646099D02*
D03*
X671499D02*
D03*
X696899D02*
D03*
X595299D02*
D03*
X569899D02*
D03*
X544499D02*
D03*
X519099D02*
D03*
Y1059600D02*
D03*
X544499D02*
D03*
X569899D02*
D03*
X595299D02*
D03*
X493699D02*
D03*
Y1111600D02*
D03*
X468299D02*
D03*
X737398Y1503401D02*
D03*
X711998Y1555401D02*
D03*
X686598D02*
D03*
X661198D02*
D03*
X635798D02*
D03*
Y1503401D02*
D03*
X661198D02*
D03*
X686598D02*
D03*
X711998D02*
D03*
X610398Y1555401D02*
D03*
X584998D02*
D03*
X559598D02*
D03*
X534198D02*
D03*
X508798D02*
D03*
Y1503401D02*
D03*
X534198D02*
D03*
X559598D02*
D03*
X584998D02*
D03*
X610398D02*
D03*
X483398Y1555401D02*
D03*
X457998D02*
D03*
X432598D02*
D03*
X407198D02*
D03*
Y1503401D02*
D03*
X432598D02*
D03*
X457998D02*
D03*
X483398D02*
D03*
X381798Y1555401D02*
D03*
X356398D02*
D03*
X330998D02*
D03*
X305598D02*
D03*
Y1503401D02*
D03*
X330998D02*
D03*
X356398D02*
D03*
X381798D02*
D03*
X280198Y1555401D02*
D03*
X254798D02*
D03*
X229398D02*
D03*
X203998D02*
D03*
X178598D02*
D03*
Y1503401D02*
D03*
X203998D02*
D03*
X229398D02*
D03*
X254798D02*
D03*
X280198D02*
D03*
X153198Y1555401D02*
D03*
X127798D02*
D03*
X102398D02*
D03*
Y1503401D02*
D03*
X127798D02*
D03*
X153198D02*
D03*
X1112398D02*
D03*
X1137798D02*
D03*
X1163198D02*
D03*
X1188598D02*
D03*
X1213998D02*
D03*
X1239398D02*
D03*
X1264798D02*
D03*
X1290198D02*
D03*
X1315598D02*
D03*
X1340998D02*
D03*
X1366398D02*
D03*
X1391798D02*
D03*
X1417198D02*
D03*
X1442598D02*
D03*
X1467998D02*
D03*
X1493398D02*
D03*
X1518798D02*
D03*
X1544198D02*
D03*
X1569598D02*
D03*
X1594998D02*
D03*
X1620398D02*
D03*
X1645798D02*
D03*
X1671198D02*
D03*
X1696598D02*
D03*
X1721998D02*
D03*
X1747398D02*
D03*
X1721998Y1555401D02*
D03*
X1696598D02*
D03*
X1671198D02*
D03*
X1645798D02*
D03*
X1620398D02*
D03*
X1594998D02*
D03*
X1569598D02*
D03*
X1544198D02*
D03*
X1518798D02*
D03*
X1493398D02*
D03*
X1467998D02*
D03*
X1442598D02*
D03*
X1417198D02*
D03*
X1391798D02*
D03*
X1366398D02*
D03*
X1340998D02*
D03*
X1315598D02*
D03*
X1290198D02*
D03*
X1264798D02*
D03*
X1239398D02*
D03*
X1213998D02*
D03*
X1188598D02*
D03*
X1163198D02*
D03*
X1137798D02*
D03*
X1112398D02*
D03*
D48*
X468302Y348400D02*
D03*
X468299Y1059600D02*
D03*
X737398Y1555401D02*
D03*
X1747398D02*
D03*
D49*
X913200Y901500D02*
D03*
X925900D02*
D03*
X938600D02*
D03*
X951300D02*
D03*
X964000D02*
D03*
X976700D02*
D03*
X989400D02*
D03*
X1002100D02*
D03*
X1014800D02*
D03*
Y992500D02*
D03*
X1002100D02*
D03*
X989400D02*
D03*
X976700D02*
D03*
X964000D02*
D03*
X951300D02*
D03*
X938600D02*
D03*
X925900D02*
D03*
X913200D02*
D03*
D50*
X612500Y729900D02*
D03*
X617501D02*
D03*
X622500D02*
D03*
X627501D02*
D03*
X632500D02*
D03*
X637501D02*
D03*
X642499D02*
D03*
X647501D02*
D03*
X652499D02*
D03*
X657501D02*
D03*
X662499D02*
D03*
X667501D02*
D03*
X672499D02*
D03*
X677501D02*
D03*
X682499D02*
D03*
X687501D02*
D03*
X692499D02*
D03*
X697501D02*
D03*
X702499D02*
D03*
X707501D02*
D03*
X712499D02*
D03*
X717501D02*
D03*
X722499D02*
D03*
X727501D02*
D03*
X732499D02*
D03*
X737501D02*
D03*
X742499D02*
D03*
X747501D02*
D03*
X752499D02*
D03*
X757501D02*
D03*
X762499D02*
D03*
X767501D02*
D03*
X772499D02*
D03*
X777501D02*
D03*
X782499D02*
D03*
X787501D02*
D03*
X792499D02*
D03*
X797501D02*
D03*
X802499D02*
D03*
X807500D02*
D03*
X1437500Y659900D02*
D03*
X1442500D02*
D03*
X1447500D02*
D03*
X1452500D02*
D03*
X1457500D02*
D03*
X1462500D02*
D03*
X1467500D02*
D03*
X1472500D02*
D03*
X1477500D02*
D03*
X1482500D02*
D03*
X1592500D02*
D03*
X1597500D02*
D03*
X1602500D02*
D03*
X1607500D02*
D03*
X1612500D02*
D03*
X1617500D02*
D03*
X1622500D02*
D03*
X1627500D02*
D03*
X1632500D02*
D03*
X1637500D02*
D03*
D51*
X593201Y705000D02*
D03*
X826799D02*
D03*
D52*
X1418200Y640100D02*
D03*
X1501800D02*
D03*
X1573200D02*
D03*
X1656800D02*
D03*
D54*
X418101Y1376200D02*
D03*
Y1459800D02*
D03*
X1428100Y1376200D02*
D03*
Y1459800D02*
D03*
D55*
X437900Y1395500D02*
D03*
Y1400500D02*
D03*
Y1405500D02*
D03*
Y1410500D02*
D03*
Y1415500D02*
D03*
Y1420500D02*
D03*
Y1425500D02*
D03*
Y1430500D02*
D03*
Y1435500D02*
D03*
Y1440500D02*
D03*
X484900Y1992499D02*
D03*
Y1997501D02*
D03*
Y2002499D02*
D03*
Y2007501D02*
D03*
Y2012499D02*
D03*
Y2017501D02*
D03*
Y2022499D02*
D03*
Y2027501D02*
D03*
Y2032499D02*
D03*
Y2037501D02*
D03*
Y2042499D02*
D03*
Y2047501D02*
D03*
Y2052499D02*
D03*
Y2057501D02*
D03*
Y2062499D02*
D03*
Y2067500D02*
D03*
Y2072499D02*
D03*
Y2077500D02*
D03*
Y2082499D02*
D03*
Y2087500D02*
D03*
Y2092499D02*
D03*
Y2097500D02*
D03*
Y2102499D02*
D03*
Y2107500D02*
D03*
Y2112499D02*
D03*
Y2117500D02*
D03*
Y2122499D02*
D03*
Y2127500D02*
D03*
Y2132499D02*
D03*
Y2137500D02*
D03*
Y2142499D02*
D03*
Y2147500D02*
D03*
Y2152499D02*
D03*
Y2157500D02*
D03*
Y2162499D02*
D03*
Y2167500D02*
D03*
Y2172499D02*
D03*
Y2177500D02*
D03*
Y2182499D02*
D03*
Y2187500D02*
D03*
X1447900Y1440500D02*
D03*
Y1435500D02*
D03*
Y1430500D02*
D03*
Y1425500D02*
D03*
Y1420500D02*
D03*
Y1415500D02*
D03*
Y1410500D02*
D03*
Y1405500D02*
D03*
Y1400500D02*
D03*
Y1395500D02*
D03*
X1494900Y1992499D02*
D03*
Y1997501D02*
D03*
Y2002499D02*
D03*
Y2007501D02*
D03*
Y2012499D02*
D03*
Y2017501D02*
D03*
Y2022499D02*
D03*
Y2027501D02*
D03*
Y2032499D02*
D03*
Y2037501D02*
D03*
Y2042499D02*
D03*
Y2047501D02*
D03*
Y2052499D02*
D03*
Y2057501D02*
D03*
Y2062499D02*
D03*
Y2067500D02*
D03*
Y2072499D02*
D03*
Y2077500D02*
D03*
Y2082499D02*
D03*
Y2087500D02*
D03*
Y2092499D02*
D03*
Y2097500D02*
D03*
Y2102499D02*
D03*
Y2107500D02*
D03*
Y2112499D02*
D03*
Y2117500D02*
D03*
Y2122499D02*
D03*
Y2127500D02*
D03*
Y2132499D02*
D03*
Y2137500D02*
D03*
Y2142499D02*
D03*
Y2147500D02*
D03*
Y2152499D02*
D03*
Y2157500D02*
D03*
Y2162499D02*
D03*
Y2167500D02*
D03*
Y2172499D02*
D03*
Y2177500D02*
D03*
Y2182499D02*
D03*
Y2187500D02*
D03*
D56*
X1702000Y2213250D02*
D03*
Y2276750D02*
D03*
X692000D02*
D03*
Y2213250D02*
D03*
D57*
X1612000Y2190500D02*
D03*
Y2217500D02*
D03*
X602000D02*
D03*
Y2190500D02*
D03*
D58*
X1470000Y1973201D02*
D03*
Y2206799D02*
D03*
X460000D02*
D03*
Y1973201D02*
D03*
M02*
