G04 Layer_Color=2752767*
%FSLAX44Y44*%
%MOMM*%
G71*
G01*
G75*
%ADD101C,0.1270*%
%ADD105C,0.1693*%
D101*
X839920Y2339920D02*
Y2350080D01*
X850080D01*
Y2339920D01*
X839920D01*
X999920D02*
Y2350080D01*
X1010080D01*
Y2339920D01*
X999920D01*
X984920D02*
Y2350080D01*
X995080D01*
Y2339920D01*
X984920D01*
X854920D02*
Y2350080D01*
X865080D01*
Y2339920D01*
X854920D01*
X839920Y1839920D02*
Y1850080D01*
X850080D01*
Y1839920D01*
X839920D01*
X854920D02*
Y1850080D01*
X865080D01*
Y1839920D01*
X854920D01*
X984920D02*
Y1850080D01*
X995080D01*
Y1839920D01*
X984920D01*
X999920D02*
Y1850080D01*
X1010080D01*
Y1839920D01*
X999920D01*
X839920Y1319920D02*
Y1330080D01*
X850080D01*
Y1319920D01*
X839920D01*
X854920D02*
Y1330080D01*
X865080D01*
Y1319920D01*
X854920D01*
X984920D02*
Y1330080D01*
X995080D01*
Y1319920D01*
X984920D01*
X999920D02*
Y1330080D01*
X1010080D01*
Y1319920D01*
X999920D01*
X755400Y154120D02*
X750320Y164280D01*
X760480D01*
X755400Y154120D01*
X741550Y125720D02*
X736470Y135880D01*
X746630D01*
X741550Y125720D01*
X727700Y154120D02*
X722620Y164280D01*
X732780D01*
X727700Y154120D01*
X713850Y125720D02*
X708770Y135880D01*
X718930D01*
X713850Y125720D01*
X700000Y154120D02*
X694920Y164280D01*
X705080D01*
X700000Y154120D01*
X686150Y125720D02*
X681070Y135880D01*
X691230D01*
X686150Y125720D01*
X672300Y154120D02*
X667220Y164280D01*
X677380D01*
X672300Y154120D01*
X658450Y125720D02*
X653370Y135880D01*
X663530D01*
X658450Y125720D01*
X644600Y154120D02*
X639520Y164280D01*
X649680D01*
X644600Y154120D01*
X575050Y139920D02*
X577590Y142460D01*
X580130D01*
X577590Y145000D01*
X580130Y147540D01*
X577590D01*
X575050Y150080D01*
X572510Y147540D01*
X569970D01*
X572510Y145000D01*
X569970Y142460D01*
X572510D01*
X575050Y139920D01*
X824950D02*
X827490Y142460D01*
X830030D01*
X827490Y145000D01*
X830030Y147540D01*
X827490D01*
X824950Y150080D01*
X822410Y147540D01*
X819870D01*
X822410Y145000D01*
X819870Y142460D01*
X822410D01*
X824950Y139920D01*
X1051920Y17220D02*
X1054460Y22300D01*
X1051920Y27380D01*
X1057000Y24840D01*
X1062080Y27380D01*
X1059540Y22300D01*
X1062080Y17220D01*
X1057000Y19760D01*
X1051920Y17220D01*
Y42620D02*
X1054460Y47700D01*
X1051920Y52780D01*
X1057000Y50240D01*
X1062080Y52780D01*
X1059540Y47700D01*
X1062080Y42620D01*
X1057000Y45160D01*
X1051920Y42620D01*
X1265460Y339460D02*
Y336920D01*
X1270540D01*
Y339460D01*
X1273080D01*
Y344540D01*
X1270540D01*
Y347080D01*
X1265460D01*
Y344540D01*
X1262920D01*
Y339460D01*
X1265460D01*
Y1115460D02*
Y1112920D01*
X1270540D01*
Y1115460D01*
X1273080D01*
Y1120540D01*
X1270540D01*
Y1123080D01*
X1265460D01*
Y1120540D01*
X1262920D01*
Y1115460D01*
X1265460D01*
X129460D02*
Y1112920D01*
X134540D01*
Y1115460D01*
X137080D01*
Y1120540D01*
X134540D01*
Y1123080D01*
X129460D01*
Y1120540D01*
X126920D01*
Y1115460D01*
X129460D01*
Y339460D02*
Y336920D01*
X134540D01*
Y339460D01*
X137080D01*
Y344540D01*
X134540D01*
Y347080D01*
X129460D01*
Y344540D01*
X126920D01*
Y339460D01*
X129460D01*
X29460Y29460D02*
Y26920D01*
X34540D01*
Y29460D01*
X37080D01*
Y34540D01*
X34540D01*
Y37080D01*
X29460D01*
Y34540D01*
X26920D01*
Y29460D01*
X29460D01*
X1815460D02*
Y26920D01*
X1820540D01*
Y29460D01*
X1823080D01*
Y34540D01*
X1820540D01*
Y37080D01*
X1815460D01*
Y34540D01*
X1812920D01*
Y29460D01*
X1815460D01*
Y1215460D02*
Y1212920D01*
X1820540D01*
Y1215460D01*
X1823080D01*
Y1220540D01*
X1820540D01*
Y1223080D01*
X1815460D01*
Y1220540D01*
X1812920D01*
Y1215460D01*
X1815460D01*
X29460D02*
Y1212920D01*
X34540D01*
Y1215460D01*
X37080D01*
Y1220540D01*
X34540D01*
Y1223080D01*
X29460D01*
Y1220540D01*
X26920D01*
Y1215460D01*
X29460D01*
X584920Y369920D02*
X587460D01*
X590000Y372460D01*
X592540Y369920D01*
X595080D01*
Y372460D01*
X592540Y375000D01*
X595080Y377540D01*
Y380080D01*
X592540D01*
X590000Y377540D01*
X587460Y380080D01*
X584920D01*
Y377540D01*
X587460Y375000D01*
X584920Y372460D01*
Y369920D01*
X466920Y156920D02*
X469460D01*
X472000Y159460D01*
X474540Y156920D01*
X477080D01*
Y159460D01*
X474540Y162000D01*
X477080Y164540D01*
Y167080D01*
X474540D01*
X472000Y164540D01*
X469460Y167080D01*
X466920D01*
Y164540D01*
X469460Y162000D01*
X466920Y159460D01*
Y156920D01*
X480920D02*
X483460D01*
X486000Y159460D01*
X488540Y156920D01*
X491080D01*
Y159460D01*
X488540Y162000D01*
X491080Y164540D01*
Y167080D01*
X488540D01*
X486000Y164540D01*
X483460Y167080D01*
X480920D01*
Y164540D01*
X483460Y162000D01*
X480920Y159460D01*
Y156920D01*
X490723Y838920D02*
X493263D01*
X495803Y841460D01*
X498343Y838920D01*
X500883D01*
Y841460D01*
X498343Y844000D01*
X500883Y846540D01*
Y849080D01*
X498343D01*
X495803Y846540D01*
X493263Y849080D01*
X490723D01*
Y846540D01*
X493263Y844000D01*
X490723Y841460D01*
Y838920D01*
X467920Y850920D02*
X470460D01*
X473000Y853460D01*
X475540Y850920D01*
X478080D01*
Y853460D01*
X475540Y856000D01*
X478080Y858540D01*
Y861080D01*
X475540D01*
X473000Y858540D01*
X470460Y861080D01*
X467920D01*
Y858540D01*
X470460Y856000D01*
X467920Y853460D01*
Y850920D01*
X488920Y864920D02*
X491460D01*
X494000Y867460D01*
X496540Y864920D01*
X499080D01*
Y867460D01*
X496540Y870000D01*
X499080Y872540D01*
Y875080D01*
X496540D01*
X494000Y872540D01*
X491460Y875080D01*
X488920D01*
Y872540D01*
X491460Y870000D01*
X488920Y867460D01*
Y864920D01*
X476920Y889920D02*
X479460D01*
X482000Y892460D01*
X484540Y889920D01*
X487080D01*
Y892460D01*
X484540Y895000D01*
X487080Y897540D01*
Y900080D01*
X484540D01*
X482000Y897540D01*
X479460Y900080D01*
X476920D01*
Y897540D01*
X479460Y895000D01*
X476920Y892460D01*
Y889920D01*
X460920Y737920D02*
X463460D01*
X466000Y740460D01*
X468540Y737920D01*
X471080D01*
Y740460D01*
X468540Y743000D01*
X471080Y745540D01*
Y748080D01*
X468540D01*
X466000Y745540D01*
X463460Y748080D01*
X460920D01*
Y745540D01*
X463460Y743000D01*
X460920Y740460D01*
Y737920D01*
X469920Y609920D02*
X472460D01*
X475000Y612460D01*
X477540Y609920D01*
X480080D01*
Y612460D01*
X477540Y615000D01*
X480080Y617540D01*
Y620080D01*
X477540D01*
X475000Y617540D01*
X472460Y620080D01*
X469920D01*
Y617540D01*
X472460Y615000D01*
X469920Y612460D01*
Y609920D01*
X462170Y599170D02*
X464710D01*
X467250Y601710D01*
X469790Y599170D01*
X472330D01*
Y601710D01*
X469790Y604250D01*
X472330Y606790D01*
Y609330D01*
X469790D01*
X467250Y606790D01*
X464710Y609330D01*
X462170D01*
Y606790D01*
X464710Y604250D01*
X462170Y601710D01*
Y599170D01*
X504920Y707920D02*
X507460D01*
X510000Y710460D01*
X512540Y707920D01*
X515080D01*
Y710460D01*
X512540Y713000D01*
X515080Y715540D01*
Y718080D01*
X512540D01*
X510000Y715540D01*
X507460Y718080D01*
X504920D01*
Y715540D01*
X507460Y713000D01*
X504920Y710460D01*
Y707920D01*
X674920Y706920D02*
X677460D01*
X680000Y709460D01*
X682540Y706920D01*
X685080D01*
Y709460D01*
X682540Y712000D01*
X685080Y714540D01*
Y717080D01*
X682540D01*
X680000Y714540D01*
X677460Y717080D01*
X674920D01*
Y714540D01*
X677460Y712000D01*
X674920Y709460D01*
Y706920D01*
X666920Y711001D02*
X669460D01*
X672000Y713541D01*
X674540Y711001D01*
X677080D01*
Y713541D01*
X674540Y716081D01*
X677080Y718621D01*
Y721161D01*
X674540D01*
X672000Y718621D01*
X669460Y721161D01*
X666920D01*
Y718621D01*
X669460Y716081D01*
X666920Y713541D01*
Y711001D01*
X689920Y702920D02*
X692460D01*
X695000Y705460D01*
X697540Y702920D01*
X700080D01*
Y705460D01*
X697540Y708000D01*
X700080Y710540D01*
Y713080D01*
X697540D01*
X695000Y710540D01*
X692460Y713080D01*
X689920D01*
Y710540D01*
X692460Y708000D01*
X689920Y705460D01*
Y702920D01*
X702920D02*
X705460D01*
X708000Y705460D01*
X710540Y702920D01*
X713080D01*
Y705460D01*
X710540Y708000D01*
X713080Y710540D01*
Y713080D01*
X710540D01*
X708000Y710540D01*
X705460Y713080D01*
X702920D01*
Y710540D01*
X705460Y708000D01*
X702920Y705460D01*
Y702920D01*
X424920Y724920D02*
X427460D01*
X430000Y727460D01*
X432540Y724920D01*
X435080D01*
Y727460D01*
X432540Y730000D01*
X435080Y732540D01*
Y735080D01*
X432540D01*
X430000Y732540D01*
X427460Y735080D01*
X424920D01*
Y732540D01*
X427460Y730000D01*
X424920Y727460D01*
Y724920D01*
Y686920D02*
X427460D01*
X430000Y689460D01*
X432540Y686920D01*
X435080D01*
Y689460D01*
X432540Y692000D01*
X435080Y694540D01*
Y697080D01*
X432540D01*
X430000Y694540D01*
X427460Y697080D01*
X424920D01*
Y694540D01*
X427460Y692000D01*
X424920Y689460D01*
Y686920D01*
Y670920D02*
X427460D01*
X430000Y673460D01*
X432540Y670920D01*
X435080D01*
Y673460D01*
X432540Y676000D01*
X435080Y678540D01*
Y681080D01*
X432540D01*
X430000Y678540D01*
X427460Y681080D01*
X424920D01*
Y678540D01*
X427460Y676000D01*
X424920Y673460D01*
Y670920D01*
X416920Y664920D02*
X419460D01*
X422000Y667460D01*
X424540Y664920D01*
X427080D01*
Y667460D01*
X424540Y670000D01*
X427080Y672540D01*
Y675080D01*
X424540D01*
X422000Y672540D01*
X419460Y675080D01*
X416920D01*
Y672540D01*
X419460Y670000D01*
X416920Y667460D01*
Y664920D01*
X424920Y712322D02*
X427460D01*
X430000Y714862D01*
X432540Y712322D01*
X435080D01*
Y714862D01*
X432540Y717402D01*
X435080Y719942D01*
Y722482D01*
X432540D01*
X430000Y719942D01*
X427460Y722482D01*
X424920D01*
Y719942D01*
X427460Y717402D01*
X424920Y714862D01*
Y712322D01*
X1053420Y1021920D02*
X1055960D01*
X1058500Y1024460D01*
X1061040Y1021920D01*
X1063580D01*
Y1024460D01*
X1061040Y1027000D01*
X1063580Y1029540D01*
Y1032080D01*
X1061040D01*
X1058500Y1029540D01*
X1055960Y1032080D01*
X1053420D01*
Y1029540D01*
X1055960Y1027000D01*
X1053420Y1024460D01*
Y1021920D01*
X1060920D02*
X1063460D01*
X1066000Y1024460D01*
X1068540Y1021920D01*
X1071080D01*
Y1024460D01*
X1068540Y1027000D01*
X1071080Y1029540D01*
Y1032080D01*
X1068540D01*
X1066000Y1029540D01*
X1063460Y1032080D01*
X1060920D01*
Y1029540D01*
X1063460Y1027000D01*
X1060920Y1024460D01*
Y1021920D01*
X592920Y993920D02*
X595460D01*
X598000Y996460D01*
X600540Y993920D01*
X603080D01*
Y996460D01*
X600540Y999000D01*
X603080Y1001540D01*
Y1004080D01*
X600540D01*
X598000Y1001540D01*
X595460Y1004080D01*
X592920D01*
Y1001540D01*
X595460Y999000D01*
X592920Y996460D01*
Y993920D01*
X577920Y985920D02*
X580460D01*
X583000Y988460D01*
X585540Y985920D01*
X588080D01*
Y988460D01*
X585540Y991000D01*
X588080Y993540D01*
Y996080D01*
X585540D01*
X583000Y993540D01*
X580460Y996080D01*
X577920D01*
Y993540D01*
X580460Y991000D01*
X577920Y988460D01*
Y985920D01*
X592918Y850420D02*
X595458D01*
X597998Y852960D01*
X600538Y850420D01*
X603078D01*
Y852960D01*
X600538Y855500D01*
X603078Y858040D01*
Y860580D01*
X600538D01*
X597998Y858040D01*
X595458Y860580D01*
X592918D01*
Y858040D01*
X595458Y855500D01*
X592918Y852960D01*
Y850420D01*
X577920Y849920D02*
X580460D01*
X583000Y852460D01*
X585540Y849920D01*
X588080D01*
Y852460D01*
X585540Y855000D01*
X588080Y857540D01*
Y860080D01*
X585540D01*
X583000Y857540D01*
X580460Y860080D01*
X577920D01*
Y857540D01*
X580460Y855000D01*
X577920Y852460D01*
Y849920D01*
X537919Y974918D02*
X540459D01*
X542999Y977458D01*
X545539Y974918D01*
X548079D01*
Y977458D01*
X545539Y979998D01*
X548079Y982538D01*
Y985078D01*
X545539D01*
X542999Y982538D01*
X540459Y985078D01*
X537919D01*
Y982538D01*
X540459Y979998D01*
X537919Y977458D01*
Y974918D01*
X537920Y849920D02*
X540460D01*
X543000Y852460D01*
X545540Y849920D01*
X548080D01*
Y852460D01*
X545540Y855000D01*
X548080Y857540D01*
Y860080D01*
X545540D01*
X543000Y857540D01*
X540460Y860080D01*
X537920D01*
Y857540D01*
X540460Y855000D01*
X537920Y852460D01*
Y849920D01*
X552920Y965920D02*
X555460D01*
X558000Y968460D01*
X560540Y965920D01*
X563080D01*
Y968460D01*
X560540Y971000D01*
X563080Y973540D01*
Y976080D01*
X560540D01*
X558000Y973540D01*
X555460Y976080D01*
X552920D01*
Y973540D01*
X555460Y971000D01*
X552920Y968460D01*
Y965920D01*
X552918Y850420D02*
X555458D01*
X557998Y852960D01*
X560538Y850420D01*
X563078D01*
Y852960D01*
X560538Y855500D01*
X563078Y858040D01*
Y860580D01*
X560538D01*
X557998Y858040D01*
X555458Y860580D01*
X552918D01*
Y858040D01*
X555458Y855500D01*
X552918Y852960D01*
Y850420D01*
X1497920Y789920D02*
X1500460D01*
X1503000Y792460D01*
X1505540Y789920D01*
X1508080D01*
Y792460D01*
X1505540Y795000D01*
X1508080Y797540D01*
Y800080D01*
X1505540D01*
X1503000Y797540D01*
X1500460Y800080D01*
X1497920D01*
Y797540D01*
X1500460Y795000D01*
X1497920Y792460D01*
Y789920D01*
X1487920Y769920D02*
X1490460D01*
X1493000Y772460D01*
X1495540Y769920D01*
X1498080D01*
Y772460D01*
X1495540Y775000D01*
X1498080Y777540D01*
Y780080D01*
X1495540D01*
X1493000Y777540D01*
X1490460Y780080D01*
X1487920D01*
Y777540D01*
X1490460Y775000D01*
X1487920Y772460D01*
Y769920D01*
X1476920Y779920D02*
X1479460D01*
X1482000Y782460D01*
X1484540Y779920D01*
X1487080D01*
Y782460D01*
X1484540Y785000D01*
X1487080Y787540D01*
Y790080D01*
X1484540D01*
X1482000Y787540D01*
X1479460Y790080D01*
X1476920D01*
Y787540D01*
X1479460Y785000D01*
X1476920Y782460D01*
Y779920D01*
X829918Y769918D02*
X832458D01*
X834998Y772458D01*
X837538Y769918D01*
X840078D01*
Y772458D01*
X837538Y774998D01*
X840078Y777538D01*
Y780079D01*
X837538D01*
X834998Y777538D01*
X832458Y780079D01*
X829918D01*
Y777538D01*
X832458Y774998D01*
X829918Y772458D01*
Y769918D01*
X818918Y789918D02*
X821458D01*
X823998Y792458D01*
X826538Y789918D01*
X829078D01*
Y792458D01*
X826538Y794998D01*
X829078Y797538D01*
Y800078D01*
X826538D01*
X823998Y797538D01*
X821458Y800078D01*
X818918D01*
Y797538D01*
X821458Y794998D01*
X818918Y792458D01*
Y789918D01*
X809920Y779920D02*
X812460D01*
X815000Y782460D01*
X817540Y779920D01*
X820080D01*
Y782460D01*
X817540Y785000D01*
X820080Y787540D01*
Y790080D01*
X817540D01*
X815000Y787540D01*
X812460Y790080D01*
X809920D01*
Y787540D01*
X812460Y785000D01*
X809920Y782460D01*
Y779920D01*
X1474920Y415920D02*
X1477460D01*
X1480000Y418460D01*
X1482540Y415920D01*
X1485080D01*
Y418460D01*
X1482540Y421000D01*
X1485080Y423540D01*
Y426080D01*
X1482540D01*
X1480000Y423540D01*
X1477460Y426080D01*
X1474920D01*
Y423540D01*
X1477460Y421000D01*
X1474920Y418460D01*
Y415920D01*
X1464920D02*
X1467460D01*
X1470000Y418460D01*
X1472540Y415920D01*
X1475080D01*
Y418460D01*
X1472540Y421000D01*
X1475080Y423540D01*
Y426080D01*
X1472540D01*
X1470000Y423540D01*
X1467460Y426080D01*
X1464920D01*
Y423540D01*
X1467460Y421000D01*
X1464920Y418460D01*
Y415920D01*
X1054920Y978920D02*
X1057460D01*
X1060000Y981460D01*
X1062540Y978920D01*
X1065080D01*
Y981460D01*
X1062540Y984000D01*
X1065080Y986540D01*
Y989080D01*
X1062540D01*
X1060000Y986540D01*
X1057460Y989080D01*
X1054920D01*
Y986540D01*
X1057460Y984000D01*
X1054920Y981460D01*
Y978920D01*
X1034920Y1126920D02*
X1037460D01*
X1040000Y1129460D01*
X1042540Y1126920D01*
X1045080D01*
Y1129460D01*
X1042540Y1132000D01*
X1045080Y1134540D01*
Y1137080D01*
X1042540D01*
X1040000Y1134540D01*
X1037460Y1137080D01*
X1034920D01*
Y1134540D01*
X1037460Y1132000D01*
X1034920Y1129460D01*
Y1126920D01*
X995920Y1091920D02*
X998460D01*
X1001000Y1094460D01*
X1003540Y1091920D01*
X1006080D01*
Y1094460D01*
X1003540Y1097000D01*
X1006080Y1099540D01*
Y1102080D01*
X1003540D01*
X1001000Y1099540D01*
X998460Y1102080D01*
X995920D01*
Y1099540D01*
X998460Y1097000D01*
X995920Y1094460D01*
Y1091920D01*
X958920Y1035920D02*
X961460D01*
X964000Y1038460D01*
X966540Y1035920D01*
X969080D01*
Y1038460D01*
X966540Y1041000D01*
X969080Y1043540D01*
Y1046080D01*
X966540D01*
X964000Y1043540D01*
X961460Y1046080D01*
X958920D01*
Y1043540D01*
X961460Y1041000D01*
X958920Y1038460D01*
Y1035920D01*
X980270Y229270D02*
X982810D01*
X985350Y231810D01*
X987890Y229270D01*
X990430D01*
Y231810D01*
X987890Y234350D01*
X990430Y236890D01*
Y239430D01*
X987890D01*
X985350Y236890D01*
X982810Y239430D01*
X980270D01*
Y236890D01*
X982810Y234350D01*
X980270Y231810D01*
Y229270D01*
X945920Y1035920D02*
X948460D01*
X951000Y1038460D01*
X953540Y1035920D01*
X956080D01*
Y1038460D01*
X953540Y1041000D01*
X956080Y1043540D01*
Y1046080D01*
X953540D01*
X951000Y1043540D01*
X948460Y1046080D01*
X945920D01*
Y1043540D01*
X948460Y1041000D01*
X945920Y1038460D01*
Y1035920D01*
X971920D02*
X974460D01*
X977000Y1038460D01*
X979540Y1035920D01*
X982080D01*
Y1038460D01*
X979540Y1041000D01*
X982080Y1043540D01*
Y1046080D01*
X979540D01*
X977000Y1043540D01*
X974460Y1046080D01*
X971920D01*
Y1043540D01*
X974460Y1041000D01*
X971920Y1038460D01*
Y1035920D01*
X976920Y855920D02*
X979460D01*
X982000Y858460D01*
X984540Y855920D01*
X987080D01*
Y858460D01*
X984540Y861000D01*
X987080Y863540D01*
Y866080D01*
X984540D01*
X982000Y863540D01*
X979460Y866080D01*
X976920D01*
Y863540D01*
X979460Y861000D01*
X976920Y858460D01*
Y855920D01*
X986918Y855918D02*
X989458D01*
X991998Y858458D01*
X994538Y855918D01*
X997078D01*
Y858458D01*
X994538Y860998D01*
X997078Y863538D01*
Y866078D01*
X994538D01*
X991998Y863538D01*
X989458Y866078D01*
X986918D01*
Y863538D01*
X989458Y860998D01*
X986918Y858458D01*
Y855918D01*
X983920Y318920D02*
X986460D01*
X989000Y321460D01*
X991540Y318920D01*
X994080D01*
Y321460D01*
X991540Y324000D01*
X994080Y326540D01*
Y329080D01*
X991540D01*
X989000Y326540D01*
X986460Y329080D01*
X983920D01*
Y326540D01*
X986460Y324000D01*
X983920Y321460D01*
Y318920D01*
X946920Y293920D02*
X949460D01*
X952000Y296460D01*
X954540Y293920D01*
X957080D01*
Y296460D01*
X954540Y299000D01*
X957080Y301540D01*
Y304080D01*
X954540D01*
X952000Y301540D01*
X949460Y304080D01*
X946920D01*
Y301540D01*
X949460Y299000D01*
X946920Y296460D01*
Y293920D01*
X959920D02*
X962460D01*
X965000Y296460D01*
X967540Y293920D01*
X970080D01*
Y296460D01*
X967540Y299000D01*
X970080Y301540D01*
Y304080D01*
X967540D01*
X965000Y301540D01*
X962460Y304080D01*
X959920D01*
Y301540D01*
X962460Y299000D01*
X959920Y296460D01*
Y293920D01*
X972920Y293917D02*
X975460D01*
X978000Y296457D01*
X980540Y293917D01*
X983080D01*
Y296457D01*
X980540Y298997D01*
X983080Y301537D01*
Y304077D01*
X980540D01*
X978000Y301537D01*
X975460Y304077D01*
X972920D01*
Y301537D01*
X975460Y298997D01*
X972920Y296457D01*
Y293917D01*
X985920D02*
X988460D01*
X991000Y296457D01*
X993540Y293917D01*
X996080D01*
Y296457D01*
X993540Y298997D01*
X996080Y301537D01*
Y304077D01*
X993540D01*
X991000Y301537D01*
X988460Y304077D01*
X985920D01*
Y301537D01*
X988460Y298997D01*
X985920Y296457D01*
Y293917D01*
X998920Y293920D02*
X1001460D01*
X1004000Y296460D01*
X1006540Y293920D01*
X1009080D01*
Y296460D01*
X1006540Y299000D01*
X1009080Y301540D01*
Y304080D01*
X1006540D01*
X1004000Y301540D01*
X1001460Y304080D01*
X998920D01*
Y301540D01*
X1001460Y299000D01*
X998920Y296460D01*
Y293920D01*
X818822Y357418D02*
X821362D01*
X823902Y359958D01*
X826442Y357418D01*
X828982D01*
Y359958D01*
X826442Y362498D01*
X828982Y365038D01*
Y367578D01*
X826442D01*
X823902Y365038D01*
X821362Y367578D01*
X818822D01*
Y365038D01*
X821362Y362498D01*
X818822Y359958D01*
Y357418D01*
X793422D02*
X795962D01*
X798502Y359958D01*
X801042Y357418D01*
X803582D01*
Y359958D01*
X801042Y362498D01*
X803582Y365038D01*
Y367578D01*
X801042D01*
X798502Y365038D01*
X795962Y367578D01*
X793422D01*
Y365038D01*
X795962Y362498D01*
X793422Y359958D01*
Y357418D01*
X768022Y381222D02*
X770562D01*
X773102Y383762D01*
X775642Y381222D01*
X778182D01*
Y383762D01*
X775642Y386302D01*
X778182Y388842D01*
Y391382D01*
X775642D01*
X773102Y388842D01*
X770562Y391382D01*
X768022D01*
Y388842D01*
X770562Y386302D01*
X768022Y383762D01*
Y381222D01*
X742622Y329222D02*
X745162D01*
X747702Y331762D01*
X750242Y329222D01*
X752782D01*
Y331762D01*
X750242Y334302D01*
X752782Y336842D01*
Y339382D01*
X750242D01*
X747702Y336842D01*
X745162Y339382D01*
X742622D01*
Y336842D01*
X745162Y334302D01*
X742622Y331762D01*
Y329222D01*
X717222D02*
X719762D01*
X722302Y331762D01*
X724842Y329222D01*
X727382D01*
Y331762D01*
X724842Y334302D01*
X727382Y336842D01*
Y339382D01*
X724842D01*
X722302Y336842D01*
X719762Y339382D01*
X717222D01*
Y336842D01*
X719762Y334302D01*
X717222Y331762D01*
Y329222D01*
X729920Y173920D02*
X732460D01*
X735000Y176460D01*
X737540Y173920D01*
X740080D01*
Y176460D01*
X737540Y179000D01*
X740080Y181540D01*
Y184080D01*
X737540D01*
X735000Y181540D01*
X732460Y184080D01*
X729920D01*
Y181540D01*
X732460Y179000D01*
X729920Y176460D01*
Y173920D01*
X716920D02*
X719460D01*
X722000Y176460D01*
X724540Y173920D01*
X727080D01*
Y176460D01*
X724540Y179000D01*
X727080Y181540D01*
Y184080D01*
X724540D01*
X722000Y181540D01*
X719460Y184080D01*
X716920D01*
Y181540D01*
X719460Y179000D01*
X716920Y176460D01*
Y173920D01*
X363920Y483920D02*
X366460D01*
X369000Y486460D01*
X371540Y483920D01*
X374080D01*
Y486460D01*
X371540Y489000D01*
X374080Y491540D01*
Y494080D01*
X371540D01*
X369000Y491540D01*
X366460Y494080D01*
X363920D01*
Y491540D01*
X366460Y489000D01*
X363920Y486460D01*
Y483920D01*
X464522Y534522D02*
X467062D01*
X469602Y537062D01*
X472142Y534522D01*
X474682D01*
Y537062D01*
X472142Y539602D01*
X474682Y542142D01*
Y544682D01*
X472142D01*
X469602Y542142D01*
X467062Y544682D01*
X464522D01*
Y542142D01*
X467062Y539602D01*
X464522Y537062D01*
Y534522D01*
X442920Y653920D02*
X445460D01*
X448000Y656460D01*
X450540Y653920D01*
X453080D01*
Y656460D01*
X450540Y659000D01*
X453080Y661540D01*
Y664080D01*
X450540D01*
X448000Y661540D01*
X445460Y664080D01*
X442920D01*
Y661540D01*
X445460Y659000D01*
X442920Y656460D01*
Y653920D01*
X370920Y584920D02*
X373460D01*
X376000Y587460D01*
X378540Y584920D01*
X381080D01*
Y587460D01*
X378540Y590000D01*
X381080Y592540D01*
Y595080D01*
X378540D01*
X376000Y592540D01*
X373460Y595080D01*
X370920D01*
Y592540D01*
X373460Y590000D01*
X370920Y587460D01*
Y584920D01*
X447920Y645920D02*
X450460D01*
X453000Y648460D01*
X455540Y645920D01*
X458080D01*
Y648460D01*
X455540Y651000D01*
X458080Y653540D01*
Y656080D01*
X455540D01*
X453000Y653540D01*
X450460Y656080D01*
X447920D01*
Y653540D01*
X450460Y651000D01*
X447920Y648460D01*
Y645920D01*
X452920Y877920D02*
X455460D01*
X458000Y880460D01*
X460540Y877920D01*
X463080D01*
Y880460D01*
X460540Y883000D01*
X463080Y885540D01*
Y888080D01*
X460540D01*
X458000Y885540D01*
X455460Y888080D01*
X452920D01*
Y885540D01*
X455460Y883000D01*
X452920Y880460D01*
Y877920D01*
X482920Y826920D02*
X485460D01*
X488000Y829460D01*
X490540Y826920D01*
X493080D01*
Y829460D01*
X490540Y832000D01*
X493080Y834540D01*
Y837080D01*
X490540D01*
X488000Y834540D01*
X485460Y837080D01*
X482920D01*
Y834540D01*
X485460Y832000D01*
X482920Y829460D01*
Y826920D01*
X433919Y610919D02*
X436459D01*
X438999Y613459D01*
X441539Y610919D01*
X444079D01*
Y613459D01*
X441539Y615999D01*
X444079Y618539D01*
Y621079D01*
X441539D01*
X438999Y618539D01*
X436459Y621079D01*
X433919D01*
Y618539D01*
X436459Y615999D01*
X433919Y613459D01*
Y610919D01*
X426919Y584919D02*
X429459D01*
X431999Y587459D01*
X434539Y584919D01*
X437079D01*
Y587459D01*
X434539Y589999D01*
X437079Y592539D01*
Y595079D01*
X434539D01*
X431999Y592539D01*
X429459Y595079D01*
X426919D01*
Y592539D01*
X429459Y589999D01*
X426919Y587459D01*
Y584919D01*
X419920Y763122D02*
X422460D01*
X425000Y765662D01*
X427540Y763122D01*
X430080D01*
Y765662D01*
X427540Y768202D01*
X430080Y770742D01*
Y773282D01*
X427540D01*
X425000Y770742D01*
X422460Y773282D01*
X419920D01*
Y770742D01*
X422460Y768202D01*
X419920Y765662D01*
Y763122D01*
X657920Y739920D02*
X660460D01*
X663000Y742460D01*
X665540Y739920D01*
X668080D01*
Y742460D01*
X665540Y745000D01*
X668080Y747540D01*
Y750080D01*
X665540D01*
X663000Y747540D01*
X660460Y750080D01*
X657920D01*
Y747540D01*
X660460Y745000D01*
X657920Y742460D01*
Y739920D01*
X650419Y734720D02*
X652960D01*
X655499Y737260D01*
X658039Y734720D01*
X660580D01*
Y737260D01*
X658039Y739800D01*
X660580Y742340D01*
Y744880D01*
X658039D01*
X655499Y742340D01*
X652960Y744880D01*
X650419D01*
Y742340D01*
X652960Y739800D01*
X650419Y737260D01*
Y734720D01*
X665421D02*
X667961D01*
X670501Y737260D01*
X673041Y734720D01*
X675581D01*
Y737260D01*
X673041Y739800D01*
X675581Y742340D01*
Y744880D01*
X673041D01*
X670501Y742340D01*
X667961Y744880D01*
X665421D01*
Y742340D01*
X667961Y739800D01*
X665421Y737260D01*
Y734720D01*
X675421D02*
X677961D01*
X680501Y737260D01*
X683041Y734720D01*
X685581D01*
Y737260D01*
X683041Y739800D01*
X685581Y742340D01*
Y744880D01*
X683041D01*
X680501Y742340D01*
X677961Y744880D01*
X675421D01*
Y742340D01*
X677961Y739800D01*
X675421Y737260D01*
Y734720D01*
X685421D02*
X687961D01*
X690501Y737260D01*
X693041Y734720D01*
X695581D01*
Y737260D01*
X693041Y739800D01*
X695581Y742340D01*
Y744880D01*
X693041D01*
X690501Y742340D01*
X687961Y744880D01*
X685421D01*
Y742340D01*
X687961Y739800D01*
X685421Y737260D01*
Y734720D01*
X716920Y702920D02*
X719460D01*
X722000Y705460D01*
X724540Y702920D01*
X727080D01*
Y705460D01*
X724540Y708000D01*
X727080Y710540D01*
Y713080D01*
X724540D01*
X722000Y710540D01*
X719460Y713080D01*
X716920D01*
Y710540D01*
X719460Y708000D01*
X716920Y705460D01*
Y702920D01*
X732918Y702919D02*
X735459D01*
X737999Y705459D01*
X740538Y702919D01*
X743079D01*
Y705459D01*
X740538Y707999D01*
X743079Y710539D01*
Y713079D01*
X740538D01*
X737999Y710539D01*
X735459Y713079D01*
X732918D01*
Y710539D01*
X735459Y707999D01*
X732918Y705459D01*
Y702919D01*
X704920Y173920D02*
X707460D01*
X710000Y176460D01*
X712540Y173920D01*
X715080D01*
Y176460D01*
X712540Y179000D01*
X715080Y181540D01*
Y184080D01*
X712540D01*
X710000Y181540D01*
X707460Y184080D01*
X704920D01*
Y181540D01*
X707460Y179000D01*
X704920Y176460D01*
Y173920D01*
X690920Y298920D02*
X693460D01*
X696000Y301460D01*
X698540Y298920D01*
X701080D01*
Y301460D01*
X698540Y304000D01*
X701080Y306540D01*
Y309080D01*
X698540D01*
X696000Y306540D01*
X693460Y309080D01*
X690920D01*
Y306540D01*
X693460Y304000D01*
X690920Y301460D01*
Y298920D01*
X653920Y306920D02*
X656460D01*
X659000Y309460D01*
X661540Y306920D01*
X664080D01*
Y309460D01*
X661540Y312000D01*
X664080Y314540D01*
Y317080D01*
X661540D01*
X659000Y314540D01*
X656460Y317080D01*
X653920D01*
Y314540D01*
X656460Y312000D01*
X653920Y309460D01*
Y306920D01*
X785421Y734720D02*
X787961D01*
X790500Y737260D01*
X793040Y734720D01*
X795581D01*
Y737260D01*
X793040Y739800D01*
X795581Y742340D01*
Y744880D01*
X793040D01*
X790500Y742340D01*
X787961Y744880D01*
X785421D01*
Y742340D01*
X787961Y739800D01*
X785421Y737260D01*
Y734720D01*
X795420D02*
X797960D01*
X800500Y737260D01*
X803040Y734720D01*
X805580D01*
Y737260D01*
X803040Y739800D01*
X805580Y742340D01*
Y744880D01*
X803040D01*
X800500Y742340D01*
X797960Y744880D01*
X795420D01*
Y742340D01*
X797960Y739800D01*
X795420Y737260D01*
Y734720D01*
X775421D02*
X777961D01*
X780500Y737260D01*
X783040Y734720D01*
X785581D01*
Y737260D01*
X783040Y739800D01*
X785581Y742340D01*
Y744880D01*
X783040D01*
X780500Y742340D01*
X777961Y744880D01*
X775421D01*
Y742340D01*
X777961Y739800D01*
X775421Y737260D01*
Y734720D01*
X763920Y702920D02*
X766460D01*
X769000Y705460D01*
X771540Y702920D01*
X774080D01*
Y705460D01*
X771540Y708000D01*
X774080Y710540D01*
Y713080D01*
X771540D01*
X769000Y710540D01*
X766460Y713080D01*
X763920D01*
Y710540D01*
X766460Y708000D01*
X763920Y705460D01*
Y702920D01*
X755421Y734720D02*
X757961D01*
X760500Y737260D01*
X763040Y734720D01*
X765581D01*
Y737260D01*
X763040Y739800D01*
X765581Y742340D01*
Y744880D01*
X763040D01*
X760500Y742340D01*
X757961Y744880D01*
X755421D01*
Y742340D01*
X757961Y739800D01*
X755421Y737260D01*
Y734720D01*
X735421D02*
X737961D01*
X740501Y737260D01*
X743041Y734720D01*
X745581D01*
Y737260D01*
X743041Y739800D01*
X745581Y742340D01*
Y744880D01*
X743041D01*
X740501Y742340D01*
X737961Y744880D01*
X735421D01*
Y742340D01*
X737961Y739800D01*
X735421Y737260D01*
Y734720D01*
X715421D02*
X717961D01*
X720501Y737260D01*
X723041Y734720D01*
X725581D01*
Y737260D01*
X723041Y739800D01*
X725581Y742340D01*
Y744880D01*
X723041D01*
X720501Y742340D01*
X717961Y744880D01*
X715421D01*
Y742340D01*
X717961Y739800D01*
X715421Y737260D01*
Y734720D01*
X695421D02*
X697961D01*
X700501Y737260D01*
X703041Y734720D01*
X705581D01*
Y737260D01*
X703041Y739800D01*
X705581Y742340D01*
Y744880D01*
X703041D01*
X700501Y742340D01*
X697961Y744880D01*
X695421D01*
Y742340D01*
X697961Y739800D01*
X695421Y737260D01*
Y734720D01*
X747920Y702920D02*
X750460D01*
X753000Y705460D01*
X755540Y702920D01*
X758080D01*
Y705460D01*
X755540Y708000D01*
X758080Y710540D01*
Y713080D01*
X755540D01*
X753000Y710540D01*
X750460Y713080D01*
X747920D01*
Y710540D01*
X750460Y708000D01*
X747920Y705460D01*
Y702920D01*
X777920D02*
X780460D01*
X783000Y705460D01*
X785540Y702920D01*
X788080D01*
Y705460D01*
X785540Y708000D01*
X788080Y710540D01*
Y713080D01*
X785540D01*
X783000Y710540D01*
X780460Y713080D01*
X777920D01*
Y710540D01*
X780460Y708000D01*
X777920Y705460D01*
Y702920D01*
X780920Y713920D02*
X783460D01*
X786000Y716460D01*
X788540Y713920D01*
X791080D01*
Y716460D01*
X788540Y719000D01*
X791080Y721540D01*
Y724080D01*
X788540D01*
X786000Y721540D01*
X783460Y724080D01*
X780920D01*
Y721540D01*
X783460Y719000D01*
X780920Y716460D01*
Y713920D01*
X795920D02*
X798460D01*
X801000Y716460D01*
X803540Y713920D01*
X806080D01*
Y716460D01*
X803540Y719000D01*
X806080Y721540D01*
Y724080D01*
X803540D01*
X801000Y721540D01*
X798460Y724080D01*
X795920D01*
Y721540D01*
X798460Y719000D01*
X795920Y716460D01*
Y713920D01*
X335920Y272920D02*
X338460D01*
X341000Y275460D01*
X343540Y272920D01*
X346080D01*
Y275460D01*
X343540Y278000D01*
X346080Y280540D01*
Y283080D01*
X343540D01*
X341000Y280540D01*
X338460Y283080D01*
X335920D01*
Y280540D01*
X338460Y278000D01*
X335920Y275460D01*
Y272920D01*
Y242920D02*
X338460D01*
X341000Y245460D01*
X343540Y242920D01*
X346080D01*
Y245460D01*
X343540Y248000D01*
X346080Y250540D01*
Y253080D01*
X343540D01*
X341000Y250540D01*
X338460Y253080D01*
X335920D01*
Y250540D01*
X338460Y248000D01*
X335920Y245460D01*
Y242920D01*
X330920Y305920D02*
X333460D01*
X336000Y308460D01*
X338540Y305920D01*
X341080D01*
Y308460D01*
X338540Y311000D01*
X341080Y313540D01*
Y316080D01*
X338540D01*
X336000Y313540D01*
X333460Y316080D01*
X330920D01*
Y313540D01*
X333460Y311000D01*
X330920Y308460D01*
Y305920D01*
X328920Y208920D02*
X331460D01*
X334000Y211460D01*
X336540Y208920D01*
X339080D01*
Y211460D01*
X336540Y214000D01*
X339080Y216540D01*
Y219080D01*
X336540D01*
X334000Y216540D01*
X331460Y219080D01*
X328920D01*
Y216540D01*
X331460Y214000D01*
X328920Y211460D01*
Y208920D01*
X338920Y216920D02*
X341460D01*
X344000Y219460D01*
X346540Y216920D01*
X349080D01*
Y219460D01*
X346540Y222000D01*
X349080Y224540D01*
Y227080D01*
X346540D01*
X344000Y224540D01*
X341460Y227080D01*
X338920D01*
Y224540D01*
X341460Y222000D01*
X338920Y219460D01*
Y216920D01*
X305920Y196920D02*
X308460D01*
X311000Y199460D01*
X313540Y196920D01*
X316080D01*
Y199460D01*
X313540Y202000D01*
X316080Y204540D01*
Y207080D01*
X313540D01*
X311000Y204540D01*
X308460Y207080D01*
X305920D01*
Y204540D01*
X308460Y202000D01*
X305920Y199460D01*
Y196920D01*
X296920Y197420D02*
X299460D01*
X302000Y199960D01*
X304540Y197420D01*
X307080D01*
Y199960D01*
X304540Y202500D01*
X307080Y205040D01*
Y207580D01*
X304540D01*
X302000Y205040D01*
X299460Y207580D01*
X296920D01*
Y205040D01*
X299460Y202500D01*
X296920Y199960D01*
Y197420D01*
X314920Y196420D02*
X317460D01*
X320000Y198960D01*
X322540Y196420D01*
X325080D01*
Y198960D01*
X322540Y201500D01*
X325080Y204040D01*
Y206580D01*
X322540D01*
X320000Y204040D01*
X317460Y206580D01*
X314920D01*
Y204040D01*
X317460Y201500D01*
X314920Y198960D01*
Y196420D01*
X604920Y194920D02*
X607460D01*
X610000Y197460D01*
X612540Y194920D01*
X615080D01*
Y197460D01*
X612540Y200000D01*
X615080Y202540D01*
Y205080D01*
X612540D01*
X610000Y202540D01*
X607460Y205080D01*
X604920D01*
Y202540D01*
X607460Y200000D01*
X604920Y197460D01*
Y194920D01*
X615920Y184920D02*
X618460D01*
X621000Y187460D01*
X623540Y184920D01*
X626080D01*
Y187460D01*
X623540Y190000D01*
X626080Y192540D01*
Y195080D01*
X623540D01*
X621000Y192540D01*
X618460Y195080D01*
X615920D01*
Y192540D01*
X618460Y190000D01*
X615920Y187460D01*
Y184920D01*
X648920Y242920D02*
X651460D01*
X654000Y245460D01*
X656540Y242920D01*
X659080D01*
Y245460D01*
X656540Y248000D01*
X659080Y250540D01*
Y253080D01*
X656540D01*
X654000Y250540D01*
X651460Y253080D01*
X648920D01*
Y250540D01*
X651460Y248000D01*
X648920Y245460D01*
Y242920D01*
X677920Y239920D02*
X680460D01*
X683000Y242460D01*
X685540Y239920D01*
X688080D01*
Y242460D01*
X685540Y245000D01*
X688080Y247540D01*
Y250080D01*
X685540D01*
X683000Y247540D01*
X680460Y250080D01*
X677920D01*
Y247540D01*
X680460Y245000D01*
X677920Y242460D01*
Y239920D01*
X648920Y212920D02*
X651460D01*
X654000Y215460D01*
X656540Y212920D01*
X659080D01*
Y215460D01*
X656540Y218000D01*
X659080Y220540D01*
Y223080D01*
X656540D01*
X654000Y220540D01*
X651460Y223080D01*
X648920D01*
Y220540D01*
X651460Y218000D01*
X648920Y215460D01*
Y212920D01*
X894920Y192920D02*
X897460D01*
X900000Y195460D01*
X902540Y192920D01*
X905080D01*
Y195460D01*
X902540Y198000D01*
X905080Y200540D01*
Y203080D01*
X902540D01*
X900000Y200540D01*
X897460Y203080D01*
X894920D01*
Y200540D01*
X897460Y198000D01*
X894920Y195460D01*
Y192920D01*
X905920D02*
X908460D01*
X911000Y195460D01*
X913540Y192920D01*
X916080D01*
Y195460D01*
X913540Y198000D01*
X916080Y200540D01*
Y203080D01*
X913540D01*
X911000Y200540D01*
X908460Y203080D01*
X905920D01*
Y200540D01*
X908460Y198000D01*
X905920Y195460D01*
Y192920D01*
X916920D02*
X919460D01*
X922000Y195460D01*
X924540Y192920D01*
X927080D01*
Y195460D01*
X924540Y198000D01*
X927080Y200540D01*
Y203080D01*
X924540D01*
X922000Y200540D01*
X919460Y203080D01*
X916920D01*
Y200540D01*
X919460Y198000D01*
X916920Y195460D01*
Y192920D01*
X1051920D02*
X1054460D01*
X1057000Y195460D01*
X1059540Y192920D01*
X1062080D01*
Y195460D01*
X1059540Y198000D01*
X1062080Y200540D01*
Y203080D01*
X1059540D01*
X1057000Y200540D01*
X1054460Y203080D01*
X1051920D01*
Y200540D01*
X1054460Y198000D01*
X1051920Y195460D01*
Y192920D01*
X1040920D02*
X1043460D01*
X1046000Y195460D01*
X1048540Y192920D01*
X1051080D01*
Y195460D01*
X1048540Y198000D01*
X1051080Y200540D01*
Y203080D01*
X1048540D01*
X1046000Y200540D01*
X1043460Y203080D01*
X1040920D01*
Y200540D01*
X1043460Y198000D01*
X1040920Y195460D01*
Y192920D01*
X1029920D02*
X1032460D01*
X1035000Y195460D01*
X1037540Y192920D01*
X1040080D01*
Y195460D01*
X1037540Y198000D01*
X1040080Y200540D01*
Y203080D01*
X1037540D01*
X1035000Y200540D01*
X1032460Y203080D01*
X1029920D01*
Y200540D01*
X1032460Y198000D01*
X1029920Y195460D01*
Y192920D01*
X1094920Y110920D02*
X1097460D01*
X1100000Y113460D01*
X1102540Y110920D01*
X1105080D01*
Y113460D01*
X1102540Y116000D01*
X1105080Y118540D01*
Y121080D01*
X1102540D01*
X1100000Y118540D01*
X1097460Y121080D01*
X1094920D01*
Y118540D01*
X1097460Y116000D01*
X1094920Y113460D01*
Y110920D01*
X1105920D02*
X1108460D01*
X1111000Y113460D01*
X1113540Y110920D01*
X1116080D01*
Y113460D01*
X1113540Y116000D01*
X1116080Y118540D01*
Y121080D01*
X1113540D01*
X1111000Y118540D01*
X1108460Y121080D01*
X1105920D01*
Y118540D01*
X1108460Y116000D01*
X1105920Y113460D01*
Y110920D01*
X1116920D02*
X1119460D01*
X1122000Y113460D01*
X1124540Y110920D01*
X1127080D01*
Y113460D01*
X1124540Y116000D01*
X1127080Y118540D01*
Y121080D01*
X1124540D01*
X1122000Y118540D01*
X1119460Y121080D01*
X1116920D01*
Y118540D01*
X1119460Y116000D01*
X1116920Y113460D01*
Y110920D01*
X1210920D02*
X1213460D01*
X1216000Y113460D01*
X1218540Y110920D01*
X1221080D01*
Y113460D01*
X1218540Y116000D01*
X1221080Y118540D01*
Y121080D01*
X1218540D01*
X1216000Y118540D01*
X1213460Y121080D01*
X1210920D01*
Y118540D01*
X1213460Y116000D01*
X1210920Y113460D01*
Y110920D01*
X1221920D02*
X1224460D01*
X1227000Y113460D01*
X1229540Y110920D01*
X1232080D01*
Y113460D01*
X1229540Y116000D01*
X1232080Y118540D01*
Y121080D01*
X1229540D01*
X1227000Y118540D01*
X1224460Y121080D01*
X1221920D01*
Y118540D01*
X1224460Y116000D01*
X1221920Y113460D01*
Y110920D01*
X1232920D02*
X1235460D01*
X1238000Y113460D01*
X1240540Y110920D01*
X1243080D01*
Y113460D01*
X1240540Y116000D01*
X1243080Y118540D01*
Y121080D01*
X1240540D01*
X1238000Y118540D01*
X1235460Y121080D01*
X1232920D01*
Y118540D01*
X1235460Y116000D01*
X1232920Y113460D01*
Y110920D01*
X939920Y210920D02*
X942460D01*
X945000Y213460D01*
X947540Y210920D01*
X950080D01*
Y213460D01*
X947540Y216000D01*
X950080Y218540D01*
Y221080D01*
X947540D01*
X945000Y218540D01*
X942460Y221080D01*
X939920D01*
Y218540D01*
X942460Y216000D01*
X939920Y213460D01*
Y210920D01*
Y180920D02*
X942460D01*
X945000Y183460D01*
X947540Y180920D01*
X950080D01*
Y183460D01*
X947540Y186000D01*
X950080Y188540D01*
Y191080D01*
X947540D01*
X945000Y188540D01*
X942460Y191080D01*
X939920D01*
Y188540D01*
X942460Y186000D01*
X939920Y183460D01*
Y180920D01*
X992920D02*
X995460D01*
X998000Y183460D01*
X1000540Y180920D01*
X1003080D01*
Y183460D01*
X1000540Y186000D01*
X1003080Y188540D01*
Y191080D01*
X1000540D01*
X998000Y188540D01*
X995460Y191080D01*
X992920D01*
Y188540D01*
X995460Y186000D01*
X992920Y183460D01*
Y180920D01*
X1129920Y213920D02*
X1132460D01*
X1135000Y216460D01*
X1137540Y213920D01*
X1140080D01*
Y216460D01*
X1137540Y219000D01*
X1140080Y221540D01*
Y224080D01*
X1137540D01*
X1135000Y221540D01*
X1132460Y224080D01*
X1129920D01*
Y221540D01*
X1132460Y219000D01*
X1129920Y216460D01*
Y213920D01*
X1197920Y294920D02*
X1200460D01*
X1203000Y297460D01*
X1205540Y294920D01*
X1208080D01*
Y297460D01*
X1205540Y300000D01*
X1208080Y302540D01*
Y305080D01*
X1205540D01*
X1203000Y302540D01*
X1200460Y305080D01*
X1197920D01*
Y302540D01*
X1200460Y300000D01*
X1197920Y297460D01*
Y294920D01*
X1140920Y305920D02*
X1143460D01*
X1146000Y308460D01*
X1148540Y305920D01*
X1151080D01*
Y308460D01*
X1148540Y311000D01*
X1151080Y313540D01*
Y316080D01*
X1148540D01*
X1146000Y313540D01*
X1143460Y316080D01*
X1140920D01*
Y313540D01*
X1143460Y311000D01*
X1140920Y308460D01*
Y305920D01*
X1156920Y310920D02*
X1159460D01*
X1162000Y313460D01*
X1164540Y310920D01*
X1167080D01*
Y313460D01*
X1164540Y316000D01*
X1167080Y318540D01*
Y321080D01*
X1164540D01*
X1162000Y318540D01*
X1159460Y321080D01*
X1156920D01*
Y318540D01*
X1159460Y316000D01*
X1156920Y313460D01*
Y310920D01*
X1170920Y262920D02*
X1173460D01*
X1176000Y265460D01*
X1178540Y262920D01*
X1181080D01*
Y265460D01*
X1178540Y268000D01*
X1181080Y270540D01*
Y273080D01*
X1178540D01*
X1176000Y270540D01*
X1173460Y273080D01*
X1170920D01*
Y270540D01*
X1173460Y268000D01*
X1170920Y265460D01*
Y262920D01*
X629920Y735920D02*
X632460D01*
X635000Y738460D01*
X637540Y735920D01*
X640080D01*
Y738460D01*
X637540Y741000D01*
X640080Y743540D01*
Y746080D01*
X637540D01*
X635000Y743540D01*
X632460Y746080D01*
X629920D01*
Y743540D01*
X632460Y741000D01*
X629920Y738460D01*
Y735920D01*
X619920D02*
X622460D01*
X625000Y738460D01*
X627540Y735920D01*
X630080D01*
Y738460D01*
X627540Y741000D01*
X630080Y743540D01*
Y746080D01*
X627540D01*
X625000Y743540D01*
X622460Y746080D01*
X619920D01*
Y743540D01*
X622460Y741000D01*
X619920Y738460D01*
Y735920D01*
X623920Y744920D02*
X626460D01*
X629000Y747460D01*
X631540Y744920D01*
X634080D01*
Y747460D01*
X631540Y750000D01*
X634080Y752540D01*
Y755080D01*
X631540D01*
X629000Y752540D01*
X626460Y755080D01*
X623920D01*
Y752540D01*
X626460Y750000D01*
X623920Y747460D01*
Y744920D01*
X593920D02*
X596460D01*
X599000Y747460D01*
X601540Y744920D01*
X604080D01*
Y747460D01*
X601540Y750000D01*
X604080Y752540D01*
Y755080D01*
X601540D01*
X599000Y752540D01*
X596460Y755080D01*
X593920D01*
Y752540D01*
X596460Y750000D01*
X593920Y747460D01*
Y744920D01*
Y735920D02*
X596460D01*
X599000Y738460D01*
X601540Y735920D01*
X604080D01*
Y738460D01*
X601540Y741000D01*
X604080Y743540D01*
Y746080D01*
X601540D01*
X599000Y743540D01*
X596460Y746080D01*
X593920D01*
Y743540D01*
X596460Y741000D01*
X593920Y738460D01*
Y735920D01*
X530920Y758920D02*
X533460D01*
X536000Y761460D01*
X538540Y758920D01*
X541080D01*
Y761460D01*
X538540Y764000D01*
X541080Y766540D01*
Y769080D01*
X538540D01*
X536000Y766540D01*
X533460Y769080D01*
X530920D01*
Y766540D01*
X533460Y764000D01*
X530920Y761460D01*
Y758920D01*
X376920Y771920D02*
X379460D01*
X382000Y774460D01*
X384540Y771920D01*
X387080D01*
Y774460D01*
X384540Y777000D01*
X387080Y779540D01*
Y782080D01*
X384540D01*
X382000Y779540D01*
X379460Y782080D01*
X376920D01*
Y779540D01*
X379460Y777000D01*
X376920Y774460D01*
Y771920D01*
X1009722Y963922D02*
X1012262D01*
X1014802Y966462D01*
X1017342Y963922D01*
X1019882D01*
Y966462D01*
X1017342Y969002D01*
X1019882Y971542D01*
Y974082D01*
X1017342D01*
X1014802Y971542D01*
X1012262Y974082D01*
X1009722D01*
Y971542D01*
X1012262Y969002D01*
X1009722Y966462D01*
Y963922D01*
X1016922Y952922D02*
X1019462D01*
X1022002Y955462D01*
X1024542Y952922D01*
X1027082D01*
Y955462D01*
X1024542Y958002D01*
X1027082Y960542D01*
Y963082D01*
X1024542D01*
X1022002Y960542D01*
X1019462Y963082D01*
X1016922D01*
Y960542D01*
X1019462Y958002D01*
X1016922Y955462D01*
Y952922D01*
X1040920Y966920D02*
X1043460D01*
X1046000Y969460D01*
X1048540Y966920D01*
X1051080D01*
Y969460D01*
X1048540Y972000D01*
X1051080Y974540D01*
Y977080D01*
X1048540D01*
X1046000Y974540D01*
X1043460Y977080D01*
X1040920D01*
Y974540D01*
X1043460Y972000D01*
X1040920Y969460D01*
Y966920D01*
X488920Y1030920D02*
X491460D01*
X494000Y1033460D01*
X496540Y1030920D01*
X499080D01*
Y1033460D01*
X496540Y1036000D01*
X499080Y1038540D01*
Y1041080D01*
X496540D01*
X494000Y1038540D01*
X491460Y1041080D01*
X488920D01*
Y1038540D01*
X491460Y1036000D01*
X488920Y1033460D01*
Y1030920D01*
X1509920Y591920D02*
X1512460D01*
X1515000Y594460D01*
X1517540Y591920D01*
X1520080D01*
Y594460D01*
X1517540Y597000D01*
X1520080Y599540D01*
Y602080D01*
X1517540D01*
X1515000Y599540D01*
X1512460Y602080D01*
X1509920D01*
Y599540D01*
X1512460Y597000D01*
X1509920Y594460D01*
Y591920D01*
X1463920Y626920D02*
X1466460D01*
X1469000Y629460D01*
X1471540Y626920D01*
X1474080D01*
Y629460D01*
X1471540Y632000D01*
X1474080Y634540D01*
Y637080D01*
X1471540D01*
X1469000Y634540D01*
X1466460Y637080D01*
X1463920D01*
Y634540D01*
X1466460Y632000D01*
X1463920Y629460D01*
Y626920D01*
X1450920D02*
X1453460D01*
X1456000Y629460D01*
X1458540Y626920D01*
X1461080D01*
Y629460D01*
X1458540Y632000D01*
X1461080Y634540D01*
Y637080D01*
X1458540D01*
X1456000Y634540D01*
X1453460Y637080D01*
X1450920D01*
Y634540D01*
X1453460Y632000D01*
X1450920Y629460D01*
Y626920D01*
X1445920Y579920D02*
X1448460D01*
X1451000Y582460D01*
X1453540Y579920D01*
X1456080D01*
Y582460D01*
X1453540Y585000D01*
X1456080Y587540D01*
Y590080D01*
X1453540D01*
X1451000Y587540D01*
X1448460Y590080D01*
X1445920D01*
Y587540D01*
X1448460Y585000D01*
X1445920Y582460D01*
Y579920D01*
X1457920Y569920D02*
X1460460D01*
X1463000Y572460D01*
X1465540Y569920D01*
X1468080D01*
Y572460D01*
X1465540Y575000D01*
X1468080Y577540D01*
Y580080D01*
X1465540D01*
X1463000Y577540D01*
X1460460Y580080D01*
X1457920D01*
Y577540D01*
X1460460Y575000D01*
X1457920Y572460D01*
Y569920D01*
X1230920Y92920D02*
X1233460D01*
X1236000Y95460D01*
X1238540Y92920D01*
X1241080D01*
Y95460D01*
X1238540Y98000D01*
X1241080Y100540D01*
Y103080D01*
X1238540D01*
X1236000Y100540D01*
X1233460Y103080D01*
X1230920D01*
Y100540D01*
X1233460Y98000D01*
X1230920Y95460D01*
Y92920D01*
X678065Y315775D02*
X680605D01*
X683145Y318315D01*
X685685Y315775D01*
X688225D01*
Y318315D01*
X685685Y320855D01*
X688225Y323395D01*
Y325935D01*
X685685D01*
X683145Y323395D01*
X680605Y325935D01*
X678065D01*
Y323395D01*
X680605Y320855D01*
X678065Y318315D01*
Y315775D01*
X738065Y308065D02*
X740605D01*
X743145Y310605D01*
X745685Y308065D01*
X748225D01*
Y310605D01*
X745685Y313145D01*
X748225Y315685D01*
Y318225D01*
X745685D01*
X743145Y315685D01*
X740605Y318225D01*
X738065D01*
Y315685D01*
X740605Y313145D01*
X738065Y310605D01*
Y308065D01*
X635920Y369920D02*
X638460D01*
X641000Y372460D01*
X643540Y369920D01*
X646080D01*
Y372460D01*
X643540Y375000D01*
X646080Y377540D01*
Y380080D01*
X643540D01*
X641000Y377540D01*
X638460Y380080D01*
X635920D01*
Y377540D01*
X638460Y375000D01*
X635920Y372460D01*
Y369920D01*
X414518Y458322D02*
X417058D01*
X419598Y460862D01*
X422138Y458322D01*
X424678D01*
Y460862D01*
X422138Y463402D01*
X424678Y465942D01*
Y468482D01*
X422138D01*
X419598Y465942D01*
X417058Y468482D01*
X414518D01*
Y465942D01*
X417058Y463402D01*
X414518Y460862D01*
Y458322D01*
X462920Y380920D02*
X465460D01*
X468000Y383460D01*
X470540Y380920D01*
X473080D01*
Y383460D01*
X470540Y386000D01*
X473080Y388540D01*
Y391080D01*
X470540D01*
X468000Y388540D01*
X465460Y391080D01*
X462920D01*
Y388540D01*
X465460Y386000D01*
X462920Y383460D01*
Y380920D01*
X991920Y422920D02*
X994460D01*
X997000Y425460D01*
X999540Y422920D01*
X1002080D01*
Y425460D01*
X999540Y428000D01*
X1002080Y430540D01*
Y433080D01*
X999540D01*
X997000Y430540D01*
X994460Y433080D01*
X991920D01*
Y430540D01*
X994460Y428000D01*
X991920Y425460D01*
Y422920D01*
X1018566Y457566D02*
X1021106D01*
X1023646Y460106D01*
X1026186Y457566D01*
X1028726D01*
Y460106D01*
X1026186Y462646D01*
X1028726Y465186D01*
Y467726D01*
X1026186D01*
X1023646Y465186D01*
X1021106Y467726D01*
X1018566D01*
Y465186D01*
X1021106Y462646D01*
X1018566Y460106D01*
Y457566D01*
X991920Y451920D02*
X994460D01*
X997000Y454460D01*
X999540Y451920D01*
X1002080D01*
Y454460D01*
X999540Y457000D01*
X1002080Y459540D01*
Y462080D01*
X999540D01*
X997000Y459540D01*
X994460Y462080D01*
X991920D01*
Y459540D01*
X994460Y457000D01*
X991920Y454460D01*
Y451920D01*
X1017920Y507920D02*
X1020460D01*
X1023000Y510460D01*
X1025540Y507920D01*
X1028080D01*
Y510460D01*
X1025540Y513000D01*
X1028080Y515540D01*
Y518080D01*
X1025540D01*
X1023000Y515540D01*
X1020460Y518080D01*
X1017920D01*
Y515540D01*
X1020460Y513000D01*
X1017920Y510460D01*
Y507920D01*
X1030920D02*
X1033460D01*
X1036000Y510460D01*
X1038540Y507920D01*
X1041080D01*
Y510460D01*
X1038540Y513000D01*
X1041080Y515540D01*
Y518080D01*
X1038540D01*
X1036000Y515540D01*
X1033460Y518080D01*
X1030920D01*
Y515540D01*
X1033460Y513000D01*
X1030920Y510460D01*
Y507920D01*
X1042920D02*
X1045460D01*
X1048000Y510460D01*
X1050540Y507920D01*
X1053080D01*
Y510460D01*
X1050540Y513000D01*
X1053080Y515540D01*
Y518080D01*
X1050540D01*
X1048000Y515540D01*
X1045460Y518080D01*
X1042920D01*
Y515540D01*
X1045460Y513000D01*
X1042920Y510460D01*
Y507920D01*
X1005920D02*
X1008460D01*
X1011000Y510460D01*
X1013540Y507920D01*
X1016080D01*
Y510460D01*
X1013540Y513000D01*
X1016080Y515540D01*
Y518080D01*
X1013540D01*
X1011000Y515540D01*
X1008460Y518080D01*
X1005920D01*
Y515540D01*
X1008460Y513000D01*
X1005920Y510460D01*
Y507920D01*
X907920Y871920D02*
X910460D01*
X913000Y874460D01*
X915540Y871920D01*
X918080D01*
Y874460D01*
X915540Y877000D01*
X918080Y879540D01*
Y882080D01*
X915540D01*
X913000Y879540D01*
X910460Y882080D01*
X907920D01*
Y879540D01*
X910460Y877000D01*
X907920Y874460D01*
Y871920D01*
X850920Y930920D02*
X853460D01*
X856000Y933460D01*
X858540Y930920D01*
X861080D01*
Y933460D01*
X858540Y936000D01*
X861080Y938540D01*
Y941080D01*
X858540D01*
X856000Y938540D01*
X853460Y941080D01*
X850920D01*
Y938540D01*
X853460Y936000D01*
X850920Y933460D01*
Y930920D01*
X876920Y897920D02*
X879460D01*
X882000Y900460D01*
X884540Y897920D01*
X887080D01*
Y900460D01*
X884540Y903000D01*
X887080Y905540D01*
Y908080D01*
X884540D01*
X882000Y905540D01*
X879460Y908080D01*
X876920D01*
Y905540D01*
X879460Y903000D01*
X876920Y900460D01*
Y897920D01*
X842920Y926920D02*
X845460D01*
X848000Y929460D01*
X850540Y926920D01*
X853080D01*
Y929460D01*
X850540Y932000D01*
X853080Y934540D01*
Y937080D01*
X850540D01*
X848000Y934540D01*
X845460Y937080D01*
X842920D01*
Y934540D01*
X845460Y932000D01*
X842920Y929460D01*
Y926920D01*
X854920Y948920D02*
X857460D01*
X860000Y951460D01*
X862540Y948920D01*
X865080D01*
Y951460D01*
X862540Y954000D01*
X865080Y956540D01*
Y959080D01*
X862540D01*
X860000Y956540D01*
X857460Y959080D01*
X854920D01*
Y956540D01*
X857460Y954000D01*
X854920Y951460D01*
Y948920D01*
X603920Y758920D02*
X606460D01*
X609000Y761460D01*
X611540Y758920D01*
X614080D01*
Y761460D01*
X611540Y764000D01*
X614080Y766540D01*
Y769080D01*
X611540D01*
X609000Y766540D01*
X606460Y769080D01*
X603920D01*
Y766540D01*
X606460Y764000D01*
X603920Y761460D01*
Y758920D01*
X384920Y813920D02*
X387460D01*
X390000Y816460D01*
X392540Y813920D01*
X395080D01*
Y816460D01*
X392540Y819000D01*
X395080Y821540D01*
Y824080D01*
X392540D01*
X390000Y821540D01*
X387460Y824080D01*
X384920D01*
Y821540D01*
X387460Y819000D01*
X384920Y816460D01*
Y813920D01*
X361920D02*
X364460D01*
X367000Y816460D01*
X369540Y813920D01*
X372080D01*
Y816460D01*
X369540Y819000D01*
X372080Y821540D01*
Y824080D01*
X369540D01*
X367000Y821540D01*
X364460Y824080D01*
X361920D01*
Y821540D01*
X364460Y819000D01*
X361920Y816460D01*
Y813920D01*
Y940920D02*
X364460D01*
X367000Y943460D01*
X369540Y940920D01*
X372080D01*
Y943460D01*
X369540Y946000D01*
X372080Y948540D01*
Y951080D01*
X369540D01*
X367000Y948540D01*
X364460Y951080D01*
X361920D01*
Y948540D01*
X364460Y946000D01*
X361920Y943460D01*
Y940920D01*
X384920D02*
X387460D01*
X390000Y943460D01*
X392540Y940920D01*
X395080D01*
Y943460D01*
X392540Y946000D01*
X395080Y948540D01*
Y951080D01*
X392540D01*
X390000Y948540D01*
X387460Y951080D01*
X384920D01*
Y948540D01*
X387460Y946000D01*
X384920Y943460D01*
Y940920D01*
X361920Y686920D02*
X364460D01*
X367000Y689460D01*
X369540Y686920D01*
X372080D01*
Y689460D01*
X369540Y692000D01*
X372080Y694540D01*
Y697080D01*
X369540D01*
X367000Y694540D01*
X364460Y697080D01*
X361920D01*
Y694540D01*
X364460Y692000D01*
X361920Y689460D01*
Y686920D01*
X384920D02*
X387460D01*
X390000Y689460D01*
X392540Y686920D01*
X395080D01*
Y689460D01*
X392540Y692000D01*
X395080Y694540D01*
Y697080D01*
X392540D01*
X390000Y694540D01*
X387460Y697080D01*
X384920D01*
Y694540D01*
X387460Y692000D01*
X384920Y689460D01*
Y686920D01*
X361920Y559920D02*
X364460D01*
X367000Y562460D01*
X369540Y559920D01*
X372080D01*
Y562460D01*
X369540Y565000D01*
X372080Y567540D01*
Y570080D01*
X369540D01*
X367000Y567540D01*
X364460Y570080D01*
X361920D01*
Y567540D01*
X364460Y565000D01*
X361920Y562460D01*
Y559920D01*
X384920D02*
X387460D01*
X390000Y562460D01*
X392540Y559920D01*
X395080D01*
Y562460D01*
X392540Y565000D01*
X395080Y567540D01*
Y570080D01*
X392540D01*
X390000Y567540D01*
X387460Y570080D01*
X384920D01*
Y567540D01*
X387460Y565000D01*
X384920Y562460D01*
Y559920D01*
X360920Y457920D02*
X363460D01*
X366000Y460460D01*
X368540Y457920D01*
X371080D01*
Y460460D01*
X368540Y463000D01*
X371080Y465540D01*
Y468080D01*
X368540D01*
X366000Y465540D01*
X363460Y468080D01*
X360920D01*
Y465540D01*
X363460Y463000D01*
X360920Y460460D01*
Y457920D01*
X527920Y429920D02*
X530460D01*
X533000Y432460D01*
X535540Y429920D01*
X538080D01*
Y432460D01*
X535540Y435000D01*
X538080Y437540D01*
Y440080D01*
X535540D01*
X533000Y437540D01*
X530460Y440080D01*
X527920D01*
Y437540D01*
X530460Y435000D01*
X527920Y432460D01*
Y429920D01*
X294920Y295920D02*
X297460D01*
X300000Y298460D01*
X302540Y295920D01*
X305080D01*
Y298460D01*
X302540Y301000D01*
X305080Y303540D01*
Y306080D01*
X302540D01*
X300000Y303540D01*
X297460Y306080D01*
X294920D01*
Y303540D01*
X297460Y301000D01*
X294920Y298460D01*
Y295920D01*
X294920Y282920D02*
X297460D01*
X300000Y285460D01*
X302540Y282920D01*
X305080D01*
Y285460D01*
X302540Y288000D01*
X305080Y290540D01*
Y293080D01*
X302540D01*
X300000Y290540D01*
X297460Y293080D01*
X294920D01*
Y290540D01*
X297460Y288000D01*
X294920Y285460D01*
Y282920D01*
X1524920Y616920D02*
X1527460D01*
X1530000Y619460D01*
X1532540Y616920D01*
X1535080D01*
Y619460D01*
X1532540Y622000D01*
X1535080Y624540D01*
Y627080D01*
X1532540D01*
X1530000Y624540D01*
X1527460Y627080D01*
X1524920D01*
Y624540D01*
X1527460Y622000D01*
X1524920Y619460D01*
Y616920D01*
X479920Y1030920D02*
X482460D01*
X485000Y1033460D01*
X487540Y1030920D01*
X490080D01*
Y1033460D01*
X487540Y1036000D01*
X490080Y1038540D01*
Y1041080D01*
X487540D01*
X485000Y1038540D01*
X482460Y1041080D01*
X479920D01*
Y1038540D01*
X482460Y1036000D01*
X479920Y1033460D01*
Y1030920D01*
X497920D02*
X500460D01*
X503000Y1033460D01*
X505540Y1030920D01*
X508080D01*
Y1033460D01*
X505540Y1036000D01*
X508080Y1038540D01*
Y1041080D01*
X505540D01*
X503000Y1038540D01*
X500460Y1041080D01*
X497920D01*
Y1038540D01*
X500460Y1036000D01*
X497920Y1033460D01*
Y1030920D01*
X333920Y407522D02*
X336460D01*
X339000Y410062D01*
X341540Y407522D01*
X344080D01*
Y410062D01*
X341540Y412602D01*
X344080Y415142D01*
Y417682D01*
X341540D01*
X339000Y415142D01*
X336460Y417682D01*
X333920D01*
Y415142D01*
X336460Y412602D01*
X333920Y410062D01*
Y407522D01*
X361920Y407920D02*
X364460D01*
X367000Y410460D01*
X369540Y407920D01*
X372080D01*
Y410460D01*
X369540Y413000D01*
X372080Y415540D01*
Y418080D01*
X369540D01*
X367000Y415540D01*
X364460Y418080D01*
X361920D01*
Y415540D01*
X364460Y413000D01*
X361920Y410460D01*
Y407920D01*
X369920D02*
X372460D01*
X375000Y410460D01*
X377540Y407920D01*
X380080D01*
Y410460D01*
X377540Y413000D01*
X380080Y415540D01*
Y418080D01*
X377540D01*
X375000Y415540D01*
X372460Y418080D01*
X369920D01*
Y415540D01*
X372460Y413000D01*
X369920Y410460D01*
Y407920D01*
X326920Y411920D02*
X329460D01*
X332000Y414460D01*
X334540Y411920D01*
X337080D01*
Y414460D01*
X334540Y417000D01*
X337080Y419540D01*
Y422080D01*
X334540D01*
X332000Y419540D01*
X329460Y422080D01*
X326920D01*
Y419540D01*
X329460Y417000D01*
X326920Y414460D01*
Y411920D01*
X470920Y702920D02*
X473460D01*
X476000Y705460D01*
X478540Y702920D01*
X481080D01*
Y705460D01*
X478540Y708000D01*
X481080Y710540D01*
Y713080D01*
X478540D01*
X476000Y710540D01*
X473460Y713080D01*
X470920D01*
Y710540D01*
X473460Y708000D01*
X470920Y705460D01*
Y702920D01*
X1815460Y1279460D02*
Y1276920D01*
X1820540D01*
Y1279460D01*
X1823080D01*
Y1284540D01*
X1820540D01*
Y1287080D01*
X1815460D01*
Y1284540D01*
X1812920D01*
Y1279460D01*
X1815460D01*
X1039460D02*
Y1276920D01*
X1044540D01*
Y1279460D01*
X1047080D01*
Y1284540D01*
X1044540D01*
Y1287080D01*
X1039460D01*
Y1284540D01*
X1036920D01*
Y1279460D01*
X1039460D01*
Y2415460D02*
Y2412920D01*
X1044540D01*
Y2415460D01*
X1047080D01*
Y2420540D01*
X1044540D01*
Y2423080D01*
X1039460D01*
Y2420540D01*
X1036920D01*
Y2415460D01*
X1039460D01*
X1815460D02*
Y2412920D01*
X1820540D01*
Y2415460D01*
X1823080D01*
Y2420540D01*
X1820540D01*
Y2423080D01*
X1815460D01*
Y2420540D01*
X1812920D01*
Y2415460D01*
X1815460D01*
X1471920Y1614920D02*
X1474460D01*
X1477000Y1617460D01*
X1479540Y1614920D01*
X1482080D01*
Y1617460D01*
X1479540Y1620000D01*
X1482080Y1622540D01*
Y1625080D01*
X1479540D01*
X1477000Y1622540D01*
X1474460Y1625080D01*
X1471920D01*
Y1622540D01*
X1474460Y1620000D01*
X1471920Y1617460D01*
Y1614920D01*
X1451374Y1606920D02*
X1453914D01*
X1456454Y1609460D01*
X1458994Y1606920D01*
X1461534D01*
Y1609460D01*
X1458994Y1612000D01*
X1461534Y1614540D01*
Y1617080D01*
X1458994D01*
X1456454Y1614540D01*
X1453914Y1617080D01*
X1451374D01*
Y1614540D01*
X1453914Y1612000D01*
X1451374Y1609460D01*
Y1606920D01*
X1540920Y2179920D02*
X1543460D01*
X1546000Y2182460D01*
X1548540Y2179920D01*
X1551080D01*
Y2182460D01*
X1548540Y2185000D01*
X1551080Y2187540D01*
Y2190080D01*
X1548540D01*
X1546000Y2187540D01*
X1543460Y2190080D01*
X1540920D01*
Y2187540D01*
X1543460Y2185000D01*
X1540920Y2182460D01*
Y2179920D01*
X1639920Y2224920D02*
X1642460D01*
X1645000Y2227460D01*
X1647540Y2224920D01*
X1650080D01*
Y2227460D01*
X1647540Y2230000D01*
X1650080Y2232540D01*
Y2235080D01*
X1647540D01*
X1645000Y2232540D01*
X1642460Y2235080D01*
X1639920D01*
Y2232540D01*
X1642460Y2230000D01*
X1639920Y2227460D01*
Y2224920D01*
X1597920Y2174920D02*
X1600460D01*
X1603000Y2177460D01*
X1605540Y2174920D01*
X1608080D01*
Y2177460D01*
X1605540Y2180000D01*
X1608080Y2182540D01*
Y2185080D01*
X1605540D01*
X1603000Y2182540D01*
X1600460Y2185080D01*
X1597920D01*
Y2182540D01*
X1600460Y2180000D01*
X1597920Y2177460D01*
Y2174920D01*
X1615920D02*
X1618460D01*
X1621000Y2177460D01*
X1623540Y2174920D01*
X1626080D01*
Y2177460D01*
X1623540Y2180000D01*
X1626080Y2182540D01*
Y2185080D01*
X1623540D01*
X1621000Y2182540D01*
X1618460Y2185080D01*
X1615920D01*
Y2182540D01*
X1618460Y2180000D01*
X1615920Y2177460D01*
Y2174920D01*
X1606920D02*
X1609460D01*
X1612000Y2177460D01*
X1614540Y2174920D01*
X1617080D01*
Y2177460D01*
X1614540Y2180000D01*
X1617080Y2182540D01*
Y2185080D01*
X1614540D01*
X1612000Y2182540D01*
X1609460Y2185080D01*
X1606920D01*
Y2182540D01*
X1609460Y2180000D01*
X1606920Y2177460D01*
Y2174920D01*
X1628920Y2191920D02*
X1631460D01*
X1634000Y2194460D01*
X1636540Y2191920D01*
X1639080D01*
Y2194460D01*
X1636540Y2197000D01*
X1639080Y2199540D01*
Y2202080D01*
X1636540D01*
X1634000Y2199540D01*
X1631460Y2202080D01*
X1628920D01*
Y2199540D01*
X1631460Y2197000D01*
X1628920Y2194460D01*
Y2191920D01*
X1636920Y2293920D02*
X1639460D01*
X1642000Y2296460D01*
X1644540Y2293920D01*
X1647080D01*
Y2296460D01*
X1644540Y2299000D01*
X1647080Y2301540D01*
Y2304080D01*
X1644540D01*
X1642000Y2301540D01*
X1639460Y2304080D01*
X1636920D01*
Y2301540D01*
X1639460Y2299000D01*
X1636920Y2296460D01*
Y2293920D01*
X1627920Y2306920D02*
X1630460D01*
X1633000Y2309460D01*
X1635540Y2306920D01*
X1638080D01*
Y2309460D01*
X1635540Y2312000D01*
X1638080Y2314540D01*
Y2317080D01*
X1635540D01*
X1633000Y2314540D01*
X1630460Y2317080D01*
X1627920D01*
Y2314540D01*
X1630460Y2312000D01*
X1627920Y2309460D01*
Y2306920D01*
Y2293920D02*
X1630460D01*
X1633000Y2296460D01*
X1635540Y2293920D01*
X1638080D01*
Y2296460D01*
X1635540Y2299000D01*
X1638080Y2301540D01*
Y2304080D01*
X1635540D01*
X1633000Y2301540D01*
X1630460Y2304080D01*
X1627920D01*
Y2301540D01*
X1630460Y2299000D01*
X1627920Y2296460D01*
Y2293920D01*
Y2280920D02*
X1630460D01*
X1633000Y2283460D01*
X1635540Y2280920D01*
X1638080D01*
Y2283460D01*
X1635540Y2286000D01*
X1638080Y2288540D01*
Y2291080D01*
X1635540D01*
X1633000Y2288540D01*
X1630460Y2291080D01*
X1627920D01*
Y2288540D01*
X1630460Y2286000D01*
X1627920Y2283460D01*
Y2280920D01*
Y2267920D02*
X1630460D01*
X1633000Y2270460D01*
X1635540Y2267920D01*
X1638080D01*
Y2270460D01*
X1635540Y2273000D01*
X1638080Y2275540D01*
Y2278080D01*
X1635540D01*
X1633000Y2275540D01*
X1630460Y2278080D01*
X1627920D01*
Y2275540D01*
X1630460Y2273000D01*
X1627920Y2270460D01*
Y2267920D01*
X1639920Y2254920D02*
X1642460D01*
X1645000Y2257460D01*
X1647540Y2254920D01*
X1650080D01*
Y2257460D01*
X1647540Y2260000D01*
X1650080Y2262540D01*
Y2265080D01*
X1647540D01*
X1645000Y2262540D01*
X1642460Y2265080D01*
X1639920D01*
Y2262540D01*
X1642460Y2260000D01*
X1639920Y2257460D01*
Y2254920D01*
X1494920Y2194920D02*
X1497460D01*
X1500000Y2197460D01*
X1502540Y2194920D01*
X1505080D01*
Y2197460D01*
X1502540Y2200000D01*
X1505080Y2202540D01*
Y2205080D01*
X1502540D01*
X1500000Y2202540D01*
X1497460Y2205080D01*
X1494920D01*
Y2202540D01*
X1497460Y2200000D01*
X1494920Y2197460D01*
Y2194920D01*
X1518920Y2169920D02*
X1521460D01*
X1524000Y2172460D01*
X1526540Y2169920D01*
X1529080D01*
Y2172460D01*
X1526540Y2175000D01*
X1529080Y2177540D01*
Y2180080D01*
X1526540D01*
X1524000Y2177540D01*
X1521460Y2180080D01*
X1518920D01*
Y2177540D01*
X1521460Y2175000D01*
X1518920Y2172460D01*
Y2169920D01*
X1688924Y2164917D02*
X1691464D01*
X1694004Y2167457D01*
X1696544Y2164917D01*
X1699084D01*
Y2167457D01*
X1696544Y2169997D01*
X1699084Y2172537D01*
Y2175077D01*
X1696544D01*
X1694004Y2172537D01*
X1691464Y2175077D01*
X1688924D01*
Y2172537D01*
X1691464Y2169997D01*
X1688924Y2167457D01*
Y2164917D01*
X1725924D02*
X1728464D01*
X1731004Y2167457D01*
X1733544Y2164917D01*
X1736084D01*
Y2167457D01*
X1733544Y2169997D01*
X1736084Y2172537D01*
Y2175077D01*
X1733544D01*
X1731004Y2172537D01*
X1728464Y2175077D01*
X1725924D01*
Y2172537D01*
X1728464Y2169997D01*
X1725924Y2167457D01*
Y2164917D01*
X1713924D02*
X1716464D01*
X1719004Y2167457D01*
X1721544Y2164917D01*
X1724084D01*
Y2167457D01*
X1721544Y2169997D01*
X1724084Y2172537D01*
Y2175077D01*
X1721544D01*
X1719004Y2172537D01*
X1716464Y2175077D01*
X1713924D01*
Y2172537D01*
X1716464Y2169997D01*
X1713924Y2167457D01*
Y2164917D01*
X1700924D02*
X1703464D01*
X1706004Y2167457D01*
X1708544Y2164917D01*
X1711084D01*
Y2167457D01*
X1708544Y2169997D01*
X1711084Y2172537D01*
Y2175077D01*
X1708544D01*
X1706004Y2172537D01*
X1703464Y2175077D01*
X1700924D01*
Y2172537D01*
X1703464Y2169997D01*
X1700924Y2167457D01*
Y2164917D01*
X1701570Y2114563D02*
X1704110D01*
X1706650Y2117103D01*
X1709190Y2114563D01*
X1711730D01*
Y2117103D01*
X1709190Y2119643D01*
X1711730Y2122183D01*
Y2124723D01*
X1709190D01*
X1706650Y2122183D01*
X1704110Y2124723D01*
X1701570D01*
Y2122183D01*
X1704110Y2119643D01*
X1701570Y2117103D01*
Y2114563D01*
X1674924Y2079917D02*
X1677464D01*
X1680004Y2082457D01*
X1682544Y2079917D01*
X1685084D01*
Y2082457D01*
X1682544Y2084997D01*
X1685084Y2087537D01*
Y2090077D01*
X1682544D01*
X1680004Y2087537D01*
X1677464Y2090077D01*
X1674924D01*
Y2087537D01*
X1677464Y2084997D01*
X1674924Y2082457D01*
Y2079917D01*
X1674924Y2109917D02*
X1677464D01*
X1680004Y2112457D01*
X1682544Y2109917D01*
X1685084D01*
Y2112457D01*
X1682544Y2114997D01*
X1685084Y2117537D01*
Y2120077D01*
X1682544D01*
X1680004Y2117537D01*
X1677464Y2120077D01*
X1674924D01*
Y2117537D01*
X1677464Y2114997D01*
X1674924Y2112457D01*
Y2109917D01*
X1628921Y1597919D02*
X1631461D01*
X1634001Y1600459D01*
X1636541Y1597919D01*
X1639081D01*
Y1600459D01*
X1636541Y1602999D01*
X1639081Y1605539D01*
Y1608079D01*
X1636541D01*
X1634001Y1605539D01*
X1631461Y1608079D01*
X1628921D01*
Y1605539D01*
X1631461Y1602999D01*
X1628921Y1600459D01*
Y1597919D01*
X1621920Y1590920D02*
X1624460D01*
X1627000Y1593460D01*
X1629540Y1590920D01*
X1632080D01*
Y1593460D01*
X1629540Y1596000D01*
X1632080Y1598540D01*
Y1601080D01*
X1629540D01*
X1627000Y1598540D01*
X1624460Y1601080D01*
X1621920D01*
Y1598540D01*
X1624460Y1596000D01*
X1621920Y1593460D01*
Y1590920D01*
X1614920Y1583920D02*
X1617460D01*
X1620000Y1586460D01*
X1622540Y1583920D01*
X1625080D01*
Y1586460D01*
X1622540Y1589000D01*
X1625080Y1591540D01*
Y1594080D01*
X1622540D01*
X1620000Y1591540D01*
X1617460Y1594080D01*
X1614920D01*
Y1591540D01*
X1617460Y1589000D01*
X1614920Y1586460D01*
Y1583920D01*
X1607920Y1576920D02*
X1610460D01*
X1613000Y1579460D01*
X1615540Y1576920D01*
X1618080D01*
Y1579460D01*
X1615540Y1582000D01*
X1618080Y1584540D01*
Y1587080D01*
X1615540D01*
X1613000Y1584540D01*
X1610460Y1587080D01*
X1607920D01*
Y1584540D01*
X1610460Y1582000D01*
X1607920Y1579460D01*
Y1576920D01*
X1600921Y1569919D02*
X1603461D01*
X1606001Y1572459D01*
X1608541Y1569919D01*
X1611081D01*
Y1572459D01*
X1608541Y1574999D01*
X1611081Y1577539D01*
Y1580079D01*
X1608541D01*
X1606001Y1577539D01*
X1603461Y1580079D01*
X1600921D01*
Y1577539D01*
X1603461Y1574999D01*
X1600921Y1572459D01*
Y1569919D01*
X1538920Y1662920D02*
X1541460D01*
X1544000Y1665460D01*
X1546540Y1662920D01*
X1549080D01*
Y1665460D01*
X1546540Y1668000D01*
X1549080Y1670540D01*
Y1673080D01*
X1546540D01*
X1544000Y1670540D01*
X1541460Y1673080D01*
X1538920D01*
Y1670540D01*
X1541460Y1668000D01*
X1538920Y1665460D01*
Y1662920D01*
X1550920Y1669920D02*
X1553460D01*
X1556000Y1672460D01*
X1558540Y1669920D01*
X1561080D01*
Y1672460D01*
X1558540Y1675000D01*
X1561080Y1677540D01*
Y1680080D01*
X1558540D01*
X1556000Y1677540D01*
X1553460Y1680080D01*
X1550920D01*
Y1677540D01*
X1553460Y1675000D01*
X1550920Y1672460D01*
Y1669920D01*
X1563920Y1647920D02*
X1566460D01*
X1569000Y1650460D01*
X1571540Y1647920D01*
X1574080D01*
Y1650460D01*
X1571540Y1653000D01*
X1574080Y1655540D01*
Y1658080D01*
X1571540D01*
X1569000Y1655540D01*
X1566460Y1658080D01*
X1563920D01*
Y1655540D01*
X1566460Y1653000D01*
X1563920Y1650460D01*
Y1647920D01*
X1525920Y1683920D02*
X1528460D01*
X1531000Y1686460D01*
X1533540Y1683920D01*
X1536080D01*
Y1686460D01*
X1533540Y1689000D01*
X1536080Y1691540D01*
Y1694080D01*
X1533540D01*
X1531000Y1691540D01*
X1528460Y1694080D01*
X1525920D01*
Y1691540D01*
X1528460Y1689000D01*
X1525920Y1686460D01*
Y1683920D01*
X1513920Y1676920D02*
X1516460D01*
X1519000Y1679460D01*
X1521540Y1676920D01*
X1524080D01*
Y1679460D01*
X1521540Y1682000D01*
X1524080Y1684540D01*
Y1687080D01*
X1521540D01*
X1519000Y1684540D01*
X1516460Y1687080D01*
X1513920D01*
Y1684540D01*
X1516460Y1682000D01*
X1513920Y1679460D01*
Y1676920D01*
X1488920Y1690920D02*
X1491460D01*
X1494000Y1693460D01*
X1496540Y1690920D01*
X1499080D01*
Y1693460D01*
X1496540Y1696000D01*
X1499080Y1698540D01*
Y1701080D01*
X1496540D01*
X1494000Y1698540D01*
X1491460Y1701080D01*
X1488920D01*
Y1698540D01*
X1491460Y1696000D01*
X1488920Y1693460D01*
Y1690920D01*
X1423920Y1569920D02*
X1426460D01*
X1429000Y1572460D01*
X1431540Y1569920D01*
X1434080D01*
Y1572460D01*
X1431540Y1575000D01*
X1434080Y1577540D01*
Y1580080D01*
X1431540D01*
X1429000Y1577540D01*
X1426460Y1580080D01*
X1423920D01*
Y1577540D01*
X1426460Y1575000D01*
X1423920Y1572460D01*
Y1569920D01*
X1587920Y1622920D02*
X1590460D01*
X1593000Y1625460D01*
X1595540Y1622920D01*
X1598080D01*
Y1625460D01*
X1595540Y1628000D01*
X1598080Y1630540D01*
Y1633080D01*
X1595540D01*
X1593000Y1630540D01*
X1590460Y1633080D01*
X1587920D01*
Y1630540D01*
X1590460Y1628000D01*
X1587920Y1625460D01*
Y1622920D01*
X1643920Y1655920D02*
X1646460D01*
X1649000Y1658460D01*
X1651540Y1655920D01*
X1654080D01*
Y1658460D01*
X1651540Y1661000D01*
X1654080Y1663540D01*
Y1666080D01*
X1651540D01*
X1649000Y1663540D01*
X1646460Y1666080D01*
X1643920D01*
Y1663540D01*
X1646460Y1661000D01*
X1643920Y1658460D01*
Y1655920D01*
X1671920Y1683920D02*
X1674460D01*
X1677000Y1686460D01*
X1679540Y1683920D01*
X1682080D01*
Y1686460D01*
X1679540Y1689000D01*
X1682080Y1691540D01*
Y1694080D01*
X1679540D01*
X1677000Y1691540D01*
X1674460Y1694080D01*
X1671920D01*
Y1691540D01*
X1674460Y1689000D01*
X1671920Y1686460D01*
Y1683920D01*
X1651920Y1662920D02*
X1654460D01*
X1657000Y1665460D01*
X1659540Y1662920D01*
X1662080D01*
Y1665460D01*
X1659540Y1668000D01*
X1662080Y1670540D01*
Y1673080D01*
X1659540D01*
X1657000Y1670540D01*
X1654460Y1673080D01*
X1651920D01*
Y1670540D01*
X1654460Y1668000D01*
X1651920Y1665460D01*
Y1662920D01*
X1499920Y1697920D02*
X1502460D01*
X1505000Y1700460D01*
X1507540Y1697920D01*
X1510080D01*
Y1700460D01*
X1507540Y1703000D01*
X1510080Y1705540D01*
Y1708080D01*
X1507540D01*
X1505000Y1705540D01*
X1502460Y1708080D01*
X1499920D01*
Y1705540D01*
X1502460Y1703000D01*
X1499920Y1700460D01*
Y1697920D01*
X1678920Y1690920D02*
X1681460D01*
X1684000Y1693460D01*
X1686540Y1690920D01*
X1689080D01*
Y1693460D01*
X1686540Y1696000D01*
X1689080Y1698540D01*
Y1701080D01*
X1686540D01*
X1684000Y1698540D01*
X1681460Y1701080D01*
X1678920D01*
Y1698540D01*
X1681460Y1696000D01*
X1678920Y1693460D01*
Y1690920D01*
X1664920Y1676920D02*
X1667460D01*
X1670000Y1679460D01*
X1672540Y1676920D01*
X1675080D01*
Y1679460D01*
X1672540Y1682000D01*
X1675080Y1684540D01*
Y1687080D01*
X1672540D01*
X1670000Y1684540D01*
X1667460Y1687080D01*
X1664920D01*
Y1684540D01*
X1667460Y1682000D01*
X1664920Y1679460D01*
Y1676920D01*
X1657921Y1669919D02*
X1660461D01*
X1663001Y1672459D01*
X1665541Y1669919D01*
X1668081D01*
Y1672459D01*
X1665541Y1674999D01*
X1668081Y1677539D01*
Y1680079D01*
X1665541D01*
X1663001Y1677539D01*
X1660461Y1680079D01*
X1657921D01*
Y1677539D01*
X1660461Y1674999D01*
X1657921Y1672459D01*
Y1669919D01*
X1571920Y1655920D02*
X1574460D01*
X1577000Y1658460D01*
X1579540Y1655920D01*
X1582080D01*
Y1658460D01*
X1579540Y1661000D01*
X1582080Y1663540D01*
Y1666080D01*
X1579540D01*
X1577000Y1663540D01*
X1574460Y1666080D01*
X1571920D01*
Y1663540D01*
X1574460Y1661000D01*
X1571920Y1658460D01*
Y1655920D01*
X1577920Y1704920D02*
X1580460D01*
X1583000Y1707460D01*
X1585540Y1704920D01*
X1588080D01*
Y1707460D01*
X1585540Y1710000D01*
X1588080Y1712540D01*
Y1715080D01*
X1585540D01*
X1583000Y1712540D01*
X1580460Y1715080D01*
X1577920D01*
Y1712540D01*
X1580460Y1710000D01*
X1577920Y1707460D01*
Y1704920D01*
X1571921Y1711919D02*
X1574461D01*
X1577001Y1714459D01*
X1579541Y1711919D01*
X1582081D01*
Y1714459D01*
X1579541Y1716999D01*
X1582081Y1719539D01*
Y1722079D01*
X1579541D01*
X1577001Y1719539D01*
X1574461Y1722079D01*
X1571921D01*
Y1719539D01*
X1574461Y1716999D01*
X1571921Y1714459D01*
Y1711919D01*
X1564921Y1718919D02*
X1567461D01*
X1570001Y1721459D01*
X1572541Y1718919D01*
X1575081D01*
Y1721459D01*
X1572541Y1723999D01*
X1575081Y1726539D01*
Y1729079D01*
X1572541D01*
X1570001Y1726539D01*
X1567461Y1729079D01*
X1564921D01*
Y1726539D01*
X1567461Y1723999D01*
X1564921Y1721459D01*
Y1718919D01*
X1558921Y1725919D02*
X1561461D01*
X1564001Y1728459D01*
X1566541Y1725919D01*
X1569081D01*
Y1728459D01*
X1566541Y1730999D01*
X1569081Y1733539D01*
Y1736079D01*
X1566541D01*
X1564001Y1733539D01*
X1561461Y1736079D01*
X1558921D01*
Y1733539D01*
X1561461Y1730999D01*
X1558921Y1728459D01*
Y1725919D01*
X1551921Y1732919D02*
X1554461D01*
X1557001Y1735459D01*
X1559541Y1732919D01*
X1562081D01*
Y1735459D01*
X1559541Y1737999D01*
X1562081Y1740539D01*
Y1743079D01*
X1559541D01*
X1557001Y1740539D01*
X1554461Y1743079D01*
X1551921D01*
Y1740539D01*
X1554461Y1737999D01*
X1551921Y1735459D01*
Y1732919D01*
X1544921Y1739919D02*
X1547461D01*
X1550001Y1742459D01*
X1552541Y1739919D01*
X1555081D01*
Y1742459D01*
X1552541Y1744999D01*
X1555081Y1747539D01*
Y1750079D01*
X1552541D01*
X1550001Y1747539D01*
X1547461Y1750079D01*
X1544921D01*
Y1747539D01*
X1547461Y1744999D01*
X1544921Y1742459D01*
Y1739919D01*
X1538921Y1746919D02*
X1541461D01*
X1544001Y1749459D01*
X1546541Y1746919D01*
X1549081D01*
Y1749459D01*
X1546541Y1751999D01*
X1549081Y1754539D01*
Y1757079D01*
X1546541D01*
X1544001Y1754539D01*
X1541461Y1757079D01*
X1538921D01*
Y1754539D01*
X1541461Y1751999D01*
X1538921Y1749459D01*
Y1746919D01*
X1309920Y1619920D02*
X1312460D01*
X1315000Y1622460D01*
X1317540Y1619920D01*
X1320080D01*
Y1622460D01*
X1317540Y1625000D01*
X1320080Y1627540D01*
Y1630080D01*
X1317540D01*
X1315000Y1627540D01*
X1312460Y1630080D01*
X1309920D01*
Y1627540D01*
X1312460Y1625000D01*
X1309920Y1622460D01*
Y1619920D01*
X1284920Y1603920D02*
X1287460D01*
X1290000Y1606460D01*
X1292540Y1603920D01*
X1295080D01*
Y1606460D01*
X1292540Y1609000D01*
X1295080Y1611540D01*
Y1614080D01*
X1292540D01*
X1290000Y1611540D01*
X1287460Y1614080D01*
X1284920D01*
Y1611540D01*
X1287460Y1609000D01*
X1284920Y1606460D01*
Y1603920D01*
X1296920Y1596920D02*
X1299460D01*
X1302000Y1599460D01*
X1304540Y1596920D01*
X1307080D01*
Y1599460D01*
X1304540Y1602000D01*
X1307080Y1604540D01*
Y1607080D01*
X1304540D01*
X1302000Y1604540D01*
X1299460Y1607080D01*
X1296920D01*
Y1604540D01*
X1299460Y1602000D01*
X1296920Y1599460D01*
Y1596920D01*
X1258920Y1589920D02*
X1261460D01*
X1264000Y1592460D01*
X1266540Y1589920D01*
X1269080D01*
Y1592460D01*
X1266540Y1595000D01*
X1269080Y1597540D01*
Y1600080D01*
X1266540D01*
X1264000Y1597540D01*
X1261460Y1600080D01*
X1258920D01*
Y1597540D01*
X1261460Y1595000D01*
X1258920Y1592460D01*
Y1589920D01*
X1271920Y1581920D02*
X1274460D01*
X1277000Y1584460D01*
X1279540Y1581920D01*
X1282080D01*
Y1584460D01*
X1279540Y1587000D01*
X1282080Y1589540D01*
Y1592080D01*
X1279540D01*
X1277000Y1589540D01*
X1274460Y1592080D01*
X1271920D01*
Y1589540D01*
X1274460Y1587000D01*
X1271920Y1584460D01*
Y1581920D01*
X1234920Y1574920D02*
X1237460D01*
X1240000Y1577460D01*
X1242540Y1574920D01*
X1245080D01*
Y1577460D01*
X1242540Y1580000D01*
X1245080Y1582540D01*
Y1585080D01*
X1242540D01*
X1240000Y1582540D01*
X1237460Y1585080D01*
X1234920D01*
Y1582540D01*
X1237460Y1580000D01*
X1234920Y1577460D01*
Y1574920D01*
X1245920Y1567920D02*
X1248460D01*
X1251000Y1570460D01*
X1253540Y1567920D01*
X1256080D01*
Y1570460D01*
X1253540Y1573000D01*
X1256080Y1575540D01*
Y1578080D01*
X1253540D01*
X1251000Y1575540D01*
X1248460Y1578080D01*
X1245920D01*
Y1575540D01*
X1248460Y1573000D01*
X1245920Y1570460D01*
Y1567920D01*
X1530921Y1775919D02*
X1533461D01*
X1536001Y1778459D01*
X1538541Y1775919D01*
X1541081D01*
Y1778459D01*
X1538541Y1780999D01*
X1541081Y1783539D01*
Y1786079D01*
X1538541D01*
X1536001Y1783539D01*
X1533461Y1786079D01*
X1530921D01*
Y1783539D01*
X1533461Y1780999D01*
X1530921Y1778459D01*
Y1775919D01*
X1524921Y1783919D02*
X1527461D01*
X1530001Y1786459D01*
X1532541Y1783919D01*
X1535081D01*
Y1786459D01*
X1532541Y1788999D01*
X1535081Y1791539D01*
Y1794079D01*
X1532541D01*
X1530001Y1791539D01*
X1527461Y1794079D01*
X1524921D01*
Y1791539D01*
X1527461Y1788999D01*
X1524921Y1786459D01*
Y1783919D01*
X1517921Y1790919D02*
X1520461D01*
X1523001Y1793459D01*
X1525541Y1790919D01*
X1528081D01*
Y1793459D01*
X1525541Y1795999D01*
X1528081Y1798539D01*
Y1801079D01*
X1525541D01*
X1523001Y1798539D01*
X1520461Y1801079D01*
X1517921D01*
Y1798539D01*
X1520461Y1795999D01*
X1517921Y1793459D01*
Y1790919D01*
X1542920Y1761920D02*
X1545460D01*
X1548000Y1764460D01*
X1550540Y1761920D01*
X1553080D01*
Y1764460D01*
X1550540Y1767000D01*
X1553080Y1769540D01*
Y1772080D01*
X1550540D01*
X1548000Y1769540D01*
X1545460Y1772080D01*
X1542920D01*
Y1769540D01*
X1545460Y1767000D01*
X1542920Y1764460D01*
Y1761920D01*
X1536920Y1768920D02*
X1539460D01*
X1542000Y1771460D01*
X1544540Y1768920D01*
X1547080D01*
Y1771460D01*
X1544540Y1774000D01*
X1547080Y1776540D01*
Y1779080D01*
X1544540D01*
X1542000Y1776540D01*
X1539460Y1779080D01*
X1536920D01*
Y1776540D01*
X1539460Y1774000D01*
X1536920Y1771460D01*
Y1768920D01*
X1640920Y1646920D02*
X1643460D01*
X1646000Y1649460D01*
X1648540Y1646920D01*
X1651080D01*
Y1649460D01*
X1648540Y1652000D01*
X1651080Y1654540D01*
Y1657080D01*
X1648540D01*
X1646000Y1654540D01*
X1643460Y1657080D01*
X1640920D01*
Y1654540D01*
X1643460Y1652000D01*
X1640920Y1649460D01*
Y1646920D01*
X1473420Y1897918D02*
X1475960D01*
X1478500Y1900458D01*
X1481040Y1897918D01*
X1483580D01*
Y1900458D01*
X1481040Y1902998D01*
X1483580Y1905538D01*
Y1908078D01*
X1481040D01*
X1478500Y1905538D01*
X1475960Y1908078D01*
X1473420D01*
Y1905538D01*
X1475960Y1902998D01*
X1473420Y1900458D01*
Y1897918D01*
X1473420Y1839918D02*
X1475960D01*
X1478500Y1842458D01*
X1481040Y1839918D01*
X1483580D01*
Y1842458D01*
X1481040Y1844998D01*
X1483580Y1847538D01*
Y1850078D01*
X1481040D01*
X1478500Y1847538D01*
X1475960Y1850078D01*
X1473420D01*
Y1847538D01*
X1475960Y1844998D01*
X1473420Y1842458D01*
Y1839918D01*
X1158118Y1582722D02*
X1160658D01*
X1163198Y1585262D01*
X1165738Y1582722D01*
X1168278D01*
Y1585262D01*
X1165738Y1587802D01*
X1168278Y1590342D01*
Y1592882D01*
X1165738D01*
X1163198Y1590342D01*
X1160658Y1592882D01*
X1158118D01*
Y1590342D01*
X1160658Y1587802D01*
X1158118Y1585262D01*
Y1582722D01*
X1132920Y1582920D02*
X1135460D01*
X1138000Y1585460D01*
X1140540Y1582920D01*
X1143080D01*
Y1585460D01*
X1140540Y1588000D01*
X1143080Y1590540D01*
Y1593080D01*
X1140540D01*
X1138000Y1590540D01*
X1135460Y1593080D01*
X1132920D01*
Y1590540D01*
X1135460Y1588000D01*
X1132920Y1585460D01*
Y1582920D01*
X1360920Y1569920D02*
X1363460D01*
X1366000Y1572460D01*
X1368540Y1569920D01*
X1371080D01*
Y1572460D01*
X1368540Y1575000D01*
X1371080Y1577540D01*
Y1580080D01*
X1368540D01*
X1366000Y1577540D01*
X1363460Y1580080D01*
X1360920D01*
Y1577540D01*
X1363460Y1575000D01*
X1360920Y1572460D01*
Y1569920D01*
X1386920Y1566920D02*
X1389460D01*
X1392000Y1569460D01*
X1394540Y1566920D01*
X1397080D01*
Y1569460D01*
X1394540Y1572000D01*
X1397080Y1574540D01*
Y1577080D01*
X1394540D01*
X1392000Y1574540D01*
X1389460Y1577080D01*
X1386920D01*
Y1574540D01*
X1389460Y1572000D01*
X1386920Y1569460D01*
Y1566920D01*
X1397920Y1573920D02*
X1400460D01*
X1403000Y1576460D01*
X1405540Y1573920D01*
X1408080D01*
Y1576460D01*
X1405540Y1579000D01*
X1408080Y1581540D01*
Y1584080D01*
X1405540D01*
X1403000Y1581540D01*
X1400460Y1584080D01*
X1397920D01*
Y1581540D01*
X1400460Y1579000D01*
X1397920Y1576460D01*
Y1573920D01*
X1372920Y1576920D02*
X1375460D01*
X1378000Y1579460D01*
X1380540Y1576920D01*
X1383080D01*
Y1579460D01*
X1380540Y1582000D01*
X1383080Y1584540D01*
Y1587080D01*
X1380540D01*
X1378000Y1584540D01*
X1375460Y1587080D01*
X1372920D01*
Y1584540D01*
X1375460Y1582000D01*
X1372920Y1579460D01*
Y1576920D01*
X1321920Y1610920D02*
X1324460D01*
X1327000Y1613460D01*
X1329540Y1610920D01*
X1332080D01*
Y1613460D01*
X1329540Y1616000D01*
X1332080Y1618540D01*
Y1621080D01*
X1329540D01*
X1327000Y1618540D01*
X1324460Y1621080D01*
X1321920D01*
Y1618540D01*
X1324460Y1616000D01*
X1321920Y1613460D01*
Y1610920D01*
X1589920Y1534920D02*
X1592460D01*
X1595000Y1537460D01*
X1597540Y1534920D01*
X1600080D01*
Y1537460D01*
X1597540Y1540000D01*
X1600080Y1542540D01*
Y1545080D01*
X1597540D01*
X1595000Y1542540D01*
X1592460Y1545080D01*
X1589920D01*
Y1542540D01*
X1592460Y1540000D01*
X1589920Y1537460D01*
Y1534920D01*
Y1524920D02*
X1592460D01*
X1595000Y1527460D01*
X1597540Y1524920D01*
X1600080D01*
Y1527460D01*
X1597540Y1530000D01*
X1600080Y1532540D01*
Y1535080D01*
X1597540D01*
X1595000Y1532540D01*
X1592460Y1535080D01*
X1589920D01*
Y1532540D01*
X1592460Y1530000D01*
X1589920Y1527460D01*
Y1524920D01*
Y1514920D02*
X1592460D01*
X1595000Y1517460D01*
X1597540Y1514920D01*
X1600080D01*
Y1517460D01*
X1597540Y1520000D01*
X1600080Y1522540D01*
Y1525080D01*
X1597540D01*
X1595000Y1522540D01*
X1592460Y1525080D01*
X1589920D01*
Y1522540D01*
X1592460Y1520000D01*
X1589920Y1517460D01*
Y1514920D01*
X1742317Y1513721D02*
X1744857D01*
X1747397Y1516261D01*
X1749937Y1513721D01*
X1752477D01*
Y1516261D01*
X1749937Y1518801D01*
X1752477Y1521341D01*
Y1523881D01*
X1749937D01*
X1747397Y1521341D01*
X1744857Y1523881D01*
X1742317D01*
Y1521341D01*
X1744857Y1518801D01*
X1742317Y1516261D01*
Y1513721D01*
Y1523721D02*
X1744857D01*
X1747397Y1526261D01*
X1749937Y1523721D01*
X1752477D01*
Y1526261D01*
X1749937Y1528801D01*
X1752477Y1531341D01*
Y1533881D01*
X1749937D01*
X1747397Y1531341D01*
X1744857Y1533881D01*
X1742317D01*
Y1531341D01*
X1744857Y1528801D01*
X1742317Y1526261D01*
Y1523721D01*
X1734920Y2146622D02*
X1737460D01*
X1740000Y2149162D01*
X1742540Y2146622D01*
X1745080D01*
Y2149162D01*
X1742540Y2151702D01*
X1745080Y2154242D01*
Y2156782D01*
X1742540D01*
X1740000Y2154242D01*
X1737460Y2156782D01*
X1734920D01*
Y2154242D01*
X1737460Y2151702D01*
X1734920Y2149162D01*
Y2146622D01*
X1739715Y2070422D02*
X1742255D01*
X1744795Y2072962D01*
X1747335Y2070422D01*
X1749875D01*
Y2072962D01*
X1747335Y2075502D01*
X1749875Y2078042D01*
Y2080582D01*
X1747335D01*
X1744795Y2078042D01*
X1742255Y2080582D01*
X1739715D01*
Y2078042D01*
X1742255Y2075502D01*
X1739715Y2072962D01*
Y2070422D01*
X1713920Y2059920D02*
X1716460D01*
X1719000Y2062460D01*
X1721540Y2059920D01*
X1724080D01*
Y2062460D01*
X1721540Y2065000D01*
X1724080Y2067540D01*
Y2070080D01*
X1721540D01*
X1719000Y2067540D01*
X1716460Y2070080D01*
X1713920D01*
Y2067540D01*
X1716460Y2065000D01*
X1713920Y2062460D01*
Y2059920D01*
X1704920Y1783919D02*
X1707460D01*
X1710000Y1786459D01*
X1712540Y1783919D01*
X1715080D01*
Y1786459D01*
X1712540Y1788999D01*
X1715080Y1791539D01*
Y1794079D01*
X1712540D01*
X1710000Y1791539D01*
X1707460Y1794079D01*
X1704920D01*
Y1791539D01*
X1707460Y1788999D01*
X1704920Y1786459D01*
Y1783919D01*
X1698170Y1768920D02*
X1700710D01*
X1703250Y1771460D01*
X1705791Y1768920D01*
X1708331D01*
Y1771460D01*
X1705791Y1774000D01*
X1708331Y1776540D01*
Y1779080D01*
X1705791D01*
X1703250Y1776540D01*
X1700710Y1779080D01*
X1698170D01*
Y1776540D01*
X1700710Y1774000D01*
X1698170Y1771460D01*
Y1768920D01*
X1690920Y1761919D02*
X1693460D01*
X1696000Y1764459D01*
X1698540Y1761919D01*
X1701080D01*
Y1764459D01*
X1698540Y1766999D01*
X1701080Y1769539D01*
Y1772079D01*
X1698540D01*
X1696000Y1769539D01*
X1693460Y1772079D01*
X1690920D01*
Y1769539D01*
X1693460Y1766999D01*
X1690920Y1764459D01*
Y1761919D01*
X1684171Y1697919D02*
X1686711D01*
X1689250Y1700459D01*
X1691790Y1697919D01*
X1694330D01*
Y1700459D01*
X1691790Y1702999D01*
X1694330Y1705539D01*
Y1708079D01*
X1691790D01*
X1689250Y1705539D01*
X1686711Y1708079D01*
X1684171D01*
Y1705539D01*
X1686711Y1702999D01*
X1684171Y1700459D01*
Y1697919D01*
X1722920Y1775919D02*
X1725460D01*
X1728000Y1778459D01*
X1730540Y1775919D01*
X1733080D01*
Y1778459D01*
X1730540Y1780999D01*
X1733080Y1783539D01*
Y1786079D01*
X1730540D01*
X1728000Y1783539D01*
X1725460Y1786079D01*
X1722920D01*
Y1783539D01*
X1725460Y1780999D01*
X1722920Y1778459D01*
Y1775919D01*
X1724920Y1790920D02*
X1727460D01*
X1730000Y1793460D01*
X1732540Y1790920D01*
X1735080D01*
Y1793460D01*
X1732540Y1796000D01*
X1735080Y1798540D01*
Y1801080D01*
X1732540D01*
X1730000Y1798540D01*
X1727460Y1801080D01*
X1724920D01*
Y1798540D01*
X1727460Y1796000D01*
X1724920Y1793460D01*
Y1790920D01*
X1042720Y2261517D02*
X1045260D01*
X1047800Y2264057D01*
X1050340Y2261517D01*
X1052880D01*
Y2264057D01*
X1050340Y2266597D01*
X1052880Y2269137D01*
Y2271677D01*
X1050340D01*
X1047800Y2269137D01*
X1045260Y2271677D01*
X1042720D01*
Y2269137D01*
X1045260Y2266597D01*
X1042720Y2264057D01*
Y2261517D01*
X1691518Y1565518D02*
X1694058D01*
X1696598Y1568058D01*
X1699138Y1565518D01*
X1701678D01*
Y1568058D01*
X1699138Y1570598D01*
X1701678Y1573138D01*
Y1575678D01*
X1699138D01*
X1696598Y1573138D01*
X1694058Y1575678D01*
X1691518D01*
Y1573138D01*
X1694058Y1570598D01*
X1691518Y1568058D01*
Y1565518D01*
X1335920Y1514920D02*
X1338460D01*
X1341000Y1517460D01*
X1343540Y1514920D01*
X1346080D01*
Y1517460D01*
X1343540Y1520000D01*
X1346080Y1522540D01*
Y1525080D01*
X1343540D01*
X1341000Y1522540D01*
X1338460Y1525080D01*
X1335920D01*
Y1522540D01*
X1338460Y1520000D01*
X1335920Y1517460D01*
Y1514920D01*
Y1524920D02*
X1338460D01*
X1341000Y1527460D01*
X1343540Y1524920D01*
X1346080D01*
Y1527460D01*
X1343540Y1530000D01*
X1346080Y1532540D01*
Y1535080D01*
X1343540D01*
X1341000Y1532540D01*
X1338460Y1535080D01*
X1335920D01*
Y1532540D01*
X1338460Y1530000D01*
X1335920Y1527460D01*
Y1524920D01*
Y1534920D02*
X1338460D01*
X1341000Y1537460D01*
X1343540Y1534920D01*
X1346080D01*
Y1537460D01*
X1343540Y1540000D01*
X1346080Y1542540D01*
Y1545080D01*
X1343540D01*
X1341000Y1542540D01*
X1338460Y1545080D01*
X1335920D01*
Y1542540D01*
X1338460Y1540000D01*
X1335920Y1537460D01*
Y1534920D01*
X1462920Y1514920D02*
X1465460D01*
X1468000Y1517460D01*
X1470540Y1514920D01*
X1473080D01*
Y1517460D01*
X1470540Y1520000D01*
X1473080Y1522540D01*
Y1525080D01*
X1470540D01*
X1468000Y1522540D01*
X1465460Y1525080D01*
X1462920D01*
Y1522540D01*
X1465460Y1520000D01*
X1462920Y1517460D01*
Y1514920D01*
Y1524920D02*
X1465460D01*
X1468000Y1527460D01*
X1470540Y1524920D01*
X1473080D01*
Y1527460D01*
X1470540Y1530000D01*
X1473080Y1532540D01*
Y1535080D01*
X1470540D01*
X1468000Y1532540D01*
X1465460Y1535080D01*
X1462920D01*
Y1532540D01*
X1465460Y1530000D01*
X1462920Y1527460D01*
Y1524920D01*
Y1534920D02*
X1465460D01*
X1468000Y1537460D01*
X1470540Y1534920D01*
X1473080D01*
Y1537460D01*
X1470540Y1540000D01*
X1473080Y1542540D01*
Y1545080D01*
X1470540D01*
X1468000Y1542540D01*
X1465460Y1545080D01*
X1462920D01*
Y1542540D01*
X1465460Y1540000D01*
X1462920Y1537460D01*
Y1534920D01*
X1043920Y1599920D02*
X1046460D01*
X1049000Y1602460D01*
X1051540Y1599920D01*
X1054080D01*
Y1602460D01*
X1051540Y1605000D01*
X1054080Y1607540D01*
Y1610080D01*
X1051540D01*
X1049000Y1607540D01*
X1046460Y1610080D01*
X1043920D01*
Y1607540D01*
X1046460Y1605000D01*
X1043920Y1602460D01*
Y1599920D01*
X1479421Y2172420D02*
X1481961D01*
X1484501Y2174960D01*
X1487041Y2172420D01*
X1489581D01*
Y2174960D01*
X1487041Y2177500D01*
X1489581Y2180040D01*
Y2182580D01*
X1487041D01*
X1484501Y2180040D01*
X1481961Y2182580D01*
X1479421D01*
Y2180040D01*
X1481961Y2177500D01*
X1479421Y2174960D01*
Y2172420D01*
X1472419Y2042421D02*
X1474959D01*
X1477499Y2044961D01*
X1480039Y2042421D01*
X1482579D01*
Y2044961D01*
X1480039Y2047501D01*
X1482579Y2050041D01*
Y2052581D01*
X1480039D01*
X1477499Y2050041D01*
X1474959Y2052581D01*
X1472419D01*
Y2050041D01*
X1474959Y2047501D01*
X1472419Y2044961D01*
Y2042421D01*
X1472920Y2010920D02*
X1475460D01*
X1478000Y2013460D01*
X1480540Y2010920D01*
X1483080D01*
Y2013460D01*
X1480540Y2016000D01*
X1483080Y2018540D01*
Y2021080D01*
X1480540D01*
X1478000Y2018540D01*
X1475460Y2021080D01*
X1472920D01*
Y2018540D01*
X1475460Y2016000D01*
X1472920Y2013460D01*
Y2010920D01*
X1208920Y1534920D02*
X1211460D01*
X1214000Y1537460D01*
X1216540Y1534920D01*
X1219080D01*
Y1537460D01*
X1216540Y1540000D01*
X1219080Y1542540D01*
Y1545080D01*
X1216540D01*
X1214000Y1542540D01*
X1211460Y1545080D01*
X1208920D01*
Y1542540D01*
X1211460Y1540000D01*
X1208920Y1537460D01*
Y1534920D01*
Y1524920D02*
X1211460D01*
X1214000Y1527460D01*
X1216540Y1524920D01*
X1219080D01*
Y1527460D01*
X1216540Y1530000D01*
X1219080Y1532540D01*
Y1535080D01*
X1216540D01*
X1214000Y1532540D01*
X1211460Y1535080D01*
X1208920D01*
Y1532540D01*
X1211460Y1530000D01*
X1208920Y1527460D01*
Y1524920D01*
Y1514920D02*
X1211460D01*
X1214000Y1517460D01*
X1216540Y1514920D01*
X1219080D01*
Y1517460D01*
X1216540Y1520000D01*
X1219080Y1522540D01*
Y1525080D01*
X1216540D01*
X1214000Y1522540D01*
X1211460Y1525080D01*
X1208920D01*
Y1522540D01*
X1211460Y1520000D01*
X1208920Y1517460D01*
Y1514920D01*
X1464920Y1622920D02*
X1467460D01*
X1470000Y1625460D01*
X1472540Y1622920D01*
X1475080D01*
Y1625460D01*
X1472540Y1628000D01*
X1475080Y1630540D01*
Y1633080D01*
X1472540D01*
X1470000Y1630540D01*
X1467460Y1633080D01*
X1464920D01*
Y1630540D01*
X1467460Y1628000D01*
X1464920Y1625460D01*
Y1622920D01*
X1578649Y1637670D02*
X1581189D01*
X1583729Y1640210D01*
X1586269Y1637670D01*
X1588809D01*
Y1640210D01*
X1586269Y1642750D01*
X1588809Y1645290D01*
Y1647830D01*
X1586269D01*
X1583729Y1645290D01*
X1581189Y1647830D01*
X1578649D01*
Y1645290D01*
X1581189Y1642750D01*
X1578649Y1640210D01*
Y1637670D01*
X1582920Y1629920D02*
X1585460D01*
X1588000Y1632460D01*
X1590540Y1629920D01*
X1593080D01*
Y1632460D01*
X1590540Y1635000D01*
X1593080Y1637540D01*
Y1640080D01*
X1590540D01*
X1588000Y1637540D01*
X1585460Y1640080D01*
X1582920D01*
Y1637540D01*
X1585460Y1635000D01*
X1582920Y1632460D01*
Y1629920D01*
X1596920Y1606920D02*
X1599460D01*
X1602000Y1609460D01*
X1604540Y1606920D01*
X1607080D01*
Y1609460D01*
X1604540Y1612000D01*
X1607080Y1614540D01*
Y1617080D01*
X1604540D01*
X1602000Y1614540D01*
X1599460Y1617080D01*
X1596920D01*
Y1614540D01*
X1599460Y1612000D01*
X1596920Y1609460D01*
Y1606920D01*
X1591920Y1614920D02*
X1594460D01*
X1597000Y1617460D01*
X1599540Y1614920D01*
X1602080D01*
Y1617460D01*
X1599540Y1620000D01*
X1602080Y1622540D01*
Y1625080D01*
X1599540D01*
X1597000Y1622540D01*
X1594460Y1625080D01*
X1591920D01*
Y1622540D01*
X1594460Y1620000D01*
X1591920Y1617460D01*
Y1614920D01*
X1479920Y1646920D02*
X1482460D01*
X1485000Y1649460D01*
X1487540Y1646920D01*
X1490080D01*
Y1649460D01*
X1487540Y1652000D01*
X1490080Y1654540D01*
Y1657080D01*
X1487540D01*
X1485000Y1654540D01*
X1482460Y1657080D01*
X1479920D01*
Y1654540D01*
X1482460Y1652000D01*
X1479920Y1649460D01*
Y1646920D01*
X1768618Y1613222D02*
X1771158D01*
X1773698Y1615762D01*
X1776238Y1613222D01*
X1778778D01*
Y1615762D01*
X1776238Y1618302D01*
X1778778Y1620842D01*
Y1623382D01*
X1776238D01*
X1773698Y1620842D01*
X1771158Y1623382D01*
X1768618D01*
Y1620842D01*
X1771158Y1618302D01*
X1768618Y1615762D01*
Y1613222D01*
X1647920Y1618920D02*
X1650460D01*
X1653000Y1621460D01*
X1655540Y1618920D01*
X1658080D01*
Y1621460D01*
X1655540Y1624000D01*
X1658080Y1626540D01*
Y1629080D01*
X1655540D01*
X1653000Y1626540D01*
X1650460Y1629080D01*
X1647920D01*
Y1626540D01*
X1650460Y1624000D01*
X1647920Y1621460D01*
Y1618920D01*
X1674920Y1648920D02*
X1677460D01*
X1680000Y1651460D01*
X1682540Y1648920D01*
X1685080D01*
Y1651460D01*
X1682540Y1654000D01*
X1685080Y1656540D01*
Y1659080D01*
X1682540D01*
X1680000Y1656540D01*
X1677460Y1659080D01*
X1674920D01*
Y1656540D01*
X1677460Y1654000D01*
X1674920Y1651460D01*
Y1648920D01*
X1465920Y1941920D02*
X1468460D01*
X1471000Y1944460D01*
X1473540Y1941920D01*
X1476080D01*
Y1944460D01*
X1473540Y1947000D01*
X1476080Y1949540D01*
Y1952080D01*
X1473540D01*
X1471000Y1949540D01*
X1468460Y1952080D01*
X1465920D01*
Y1949540D01*
X1468460Y1947000D01*
X1465920Y1944460D01*
Y1941920D01*
X1450920D02*
X1453460D01*
X1456000Y1944460D01*
X1458540Y1941920D01*
X1461080D01*
Y1944460D01*
X1458540Y1947000D01*
X1461080Y1949540D01*
Y1952080D01*
X1458540D01*
X1456000Y1949540D01*
X1453460Y1952080D01*
X1450920D01*
Y1949540D01*
X1453460Y1947000D01*
X1450920Y1944460D01*
Y1941920D01*
X805460Y1279460D02*
Y1276920D01*
X810540D01*
Y1279460D01*
X813080D01*
Y1284540D01*
X810540D01*
Y1287080D01*
X805460D01*
Y1284540D01*
X802920D01*
Y1279460D01*
X805460D01*
X29460D02*
Y1276920D01*
X34540D01*
Y1279460D01*
X37080D01*
Y1284540D01*
X34540D01*
Y1287080D01*
X29460D01*
Y1284540D01*
X26920D01*
Y1279460D01*
X29460D01*
Y2415460D02*
Y2412920D01*
X34540D01*
Y2415460D01*
X37080D01*
Y2420540D01*
X34540D01*
Y2423080D01*
X29460D01*
Y2420540D01*
X26920D01*
Y2415460D01*
X29460D01*
X805460D02*
Y2412920D01*
X810540D01*
Y2415460D01*
X813080D01*
Y2420540D01*
X810540D01*
Y2423080D01*
X805460D01*
Y2420540D01*
X802920D01*
Y2415460D01*
X805460D01*
X461920Y1614920D02*
X464460D01*
X467000Y1617460D01*
X469540Y1614920D01*
X472080D01*
Y1617460D01*
X469540Y1620000D01*
X472080Y1622540D01*
Y1625080D01*
X469540D01*
X467000Y1622540D01*
X464460Y1625080D01*
X461920D01*
Y1622540D01*
X464460Y1620000D01*
X461920Y1617460D01*
Y1614920D01*
X441374Y1606920D02*
X443914D01*
X446454Y1609460D01*
X448994Y1606920D01*
X451534D01*
Y1609460D01*
X448994Y1612000D01*
X451534Y1614540D01*
Y1617080D01*
X448994D01*
X446454Y1614540D01*
X443914Y1617080D01*
X441374D01*
Y1614540D01*
X443914Y1612000D01*
X441374Y1609460D01*
Y1606920D01*
X530920Y2179920D02*
X533460D01*
X536000Y2182460D01*
X538540Y2179920D01*
X541080D01*
Y2182460D01*
X538540Y2185000D01*
X541080Y2187540D01*
Y2190080D01*
X538540D01*
X536000Y2187540D01*
X533460Y2190080D01*
X530920D01*
Y2187540D01*
X533460Y2185000D01*
X530920Y2182460D01*
Y2179920D01*
X629920Y2224920D02*
X632460D01*
X635000Y2227460D01*
X637540Y2224920D01*
X640080D01*
Y2227460D01*
X637540Y2230000D01*
X640080Y2232540D01*
Y2235080D01*
X637540D01*
X635000Y2232540D01*
X632460Y2235080D01*
X629920D01*
Y2232540D01*
X632460Y2230000D01*
X629920Y2227460D01*
Y2224920D01*
X587920Y2174920D02*
X590460D01*
X593000Y2177460D01*
X595540Y2174920D01*
X598080D01*
Y2177460D01*
X595540Y2180000D01*
X598080Y2182540D01*
Y2185080D01*
X595540D01*
X593000Y2182540D01*
X590460Y2185080D01*
X587920D01*
Y2182540D01*
X590460Y2180000D01*
X587920Y2177460D01*
Y2174920D01*
X605920D02*
X608460D01*
X611000Y2177460D01*
X613540Y2174920D01*
X616080D01*
Y2177460D01*
X613540Y2180000D01*
X616080Y2182540D01*
Y2185080D01*
X613540D01*
X611000Y2182540D01*
X608460Y2185080D01*
X605920D01*
Y2182540D01*
X608460Y2180000D01*
X605920Y2177460D01*
Y2174920D01*
X596920D02*
X599460D01*
X602000Y2177460D01*
X604540Y2174920D01*
X607080D01*
Y2177460D01*
X604540Y2180000D01*
X607080Y2182540D01*
Y2185080D01*
X604540D01*
X602000Y2182540D01*
X599460Y2185080D01*
X596920D01*
Y2182540D01*
X599460Y2180000D01*
X596920Y2177460D01*
Y2174920D01*
X618920Y2191920D02*
X621460D01*
X624000Y2194460D01*
X626540Y2191920D01*
X629080D01*
Y2194460D01*
X626540Y2197000D01*
X629080Y2199540D01*
Y2202080D01*
X626540D01*
X624000Y2199540D01*
X621460Y2202080D01*
X618920D01*
Y2199540D01*
X621460Y2197000D01*
X618920Y2194460D01*
Y2191920D01*
X626920Y2293920D02*
X629460D01*
X632000Y2296460D01*
X634540Y2293920D01*
X637080D01*
Y2296460D01*
X634540Y2299000D01*
X637080Y2301540D01*
Y2304080D01*
X634540D01*
X632000Y2301540D01*
X629460Y2304080D01*
X626920D01*
Y2301540D01*
X629460Y2299000D01*
X626920Y2296460D01*
Y2293920D01*
X617920Y2306920D02*
X620460D01*
X623000Y2309460D01*
X625540Y2306920D01*
X628080D01*
Y2309460D01*
X625540Y2312000D01*
X628080Y2314540D01*
Y2317080D01*
X625540D01*
X623000Y2314540D01*
X620460Y2317080D01*
X617920D01*
Y2314540D01*
X620460Y2312000D01*
X617920Y2309460D01*
Y2306920D01*
Y2293920D02*
X620460D01*
X623000Y2296460D01*
X625540Y2293920D01*
X628080D01*
Y2296460D01*
X625540Y2299000D01*
X628080Y2301540D01*
Y2304080D01*
X625540D01*
X623000Y2301540D01*
X620460Y2304080D01*
X617920D01*
Y2301540D01*
X620460Y2299000D01*
X617920Y2296460D01*
Y2293920D01*
Y2280920D02*
X620460D01*
X623000Y2283460D01*
X625540Y2280920D01*
X628080D01*
Y2283460D01*
X625540Y2286000D01*
X628080Y2288540D01*
Y2291080D01*
X625540D01*
X623000Y2288540D01*
X620460Y2291080D01*
X617920D01*
Y2288540D01*
X620460Y2286000D01*
X617920Y2283460D01*
Y2280920D01*
Y2267920D02*
X620460D01*
X623000Y2270460D01*
X625540Y2267920D01*
X628080D01*
Y2270460D01*
X625540Y2273000D01*
X628080Y2275540D01*
Y2278080D01*
X625540D01*
X623000Y2275540D01*
X620460Y2278080D01*
X617920D01*
Y2275540D01*
X620460Y2273000D01*
X617920Y2270460D01*
Y2267920D01*
X629920Y2254920D02*
X632460D01*
X635000Y2257460D01*
X637540Y2254920D01*
X640080D01*
Y2257460D01*
X637540Y2260000D01*
X640080Y2262540D01*
Y2265080D01*
X637540D01*
X635000Y2262540D01*
X632460Y2265080D01*
X629920D01*
Y2262540D01*
X632460Y2260000D01*
X629920Y2257460D01*
Y2254920D01*
X484920Y2194920D02*
X487460D01*
X490000Y2197460D01*
X492540Y2194920D01*
X495080D01*
Y2197460D01*
X492540Y2200000D01*
X495080Y2202540D01*
Y2205080D01*
X492540D01*
X490000Y2202540D01*
X487460Y2205080D01*
X484920D01*
Y2202540D01*
X487460Y2200000D01*
X484920Y2197460D01*
Y2194920D01*
X508920Y2169920D02*
X511460D01*
X514000Y2172460D01*
X516540Y2169920D01*
X519080D01*
Y2172460D01*
X516540Y2175000D01*
X519080Y2177540D01*
Y2180080D01*
X516540D01*
X514000Y2177540D01*
X511460Y2180080D01*
X508920D01*
Y2177540D01*
X511460Y2175000D01*
X508920Y2172460D01*
Y2169920D01*
X678924Y2164917D02*
X681464D01*
X684004Y2167457D01*
X686544Y2164917D01*
X689084D01*
Y2167457D01*
X686544Y2169997D01*
X689084Y2172537D01*
Y2175077D01*
X686544D01*
X684004Y2172537D01*
X681464Y2175077D01*
X678924D01*
Y2172537D01*
X681464Y2169997D01*
X678924Y2167457D01*
Y2164917D01*
X715924D02*
X718464D01*
X721004Y2167457D01*
X723544Y2164917D01*
X726084D01*
Y2167457D01*
X723544Y2169997D01*
X726084Y2172537D01*
Y2175077D01*
X723544D01*
X721004Y2172537D01*
X718464Y2175077D01*
X715924D01*
Y2172537D01*
X718464Y2169997D01*
X715924Y2167457D01*
Y2164917D01*
X703924D02*
X706464D01*
X709004Y2167457D01*
X711544Y2164917D01*
X714084D01*
Y2167457D01*
X711544Y2169997D01*
X714084Y2172537D01*
Y2175077D01*
X711544D01*
X709004Y2172537D01*
X706464Y2175077D01*
X703924D01*
Y2172537D01*
X706464Y2169997D01*
X703924Y2167457D01*
Y2164917D01*
X690924D02*
X693464D01*
X696004Y2167457D01*
X698544Y2164917D01*
X701084D01*
Y2167457D01*
X698544Y2169997D01*
X701084Y2172537D01*
Y2175077D01*
X698544D01*
X696004Y2172537D01*
X693464Y2175077D01*
X690924D01*
Y2172537D01*
X693464Y2169997D01*
X690924Y2167457D01*
Y2164917D01*
X691570Y2114563D02*
X694110D01*
X696650Y2117103D01*
X699190Y2114563D01*
X701730D01*
Y2117103D01*
X699190Y2119643D01*
X701730Y2122183D01*
Y2124723D01*
X699190D01*
X696650Y2122183D01*
X694110Y2124723D01*
X691570D01*
Y2122183D01*
X694110Y2119643D01*
X691570Y2117103D01*
Y2114563D01*
X664924Y2079917D02*
X667464D01*
X670004Y2082457D01*
X672544Y2079917D01*
X675084D01*
Y2082457D01*
X672544Y2084997D01*
X675084Y2087537D01*
Y2090077D01*
X672544D01*
X670004Y2087537D01*
X667464Y2090077D01*
X664924D01*
Y2087537D01*
X667464Y2084997D01*
X664924Y2082457D01*
Y2079917D01*
X664924Y2109917D02*
X667464D01*
X670004Y2112457D01*
X672544Y2109917D01*
X675084D01*
Y2112457D01*
X672544Y2114997D01*
X675084Y2117537D01*
Y2120077D01*
X672544D01*
X670004Y2117537D01*
X667464Y2120077D01*
X664924D01*
Y2117537D01*
X667464Y2114997D01*
X664924Y2112457D01*
Y2109917D01*
X618921Y1597919D02*
X621460D01*
X624001Y1600459D01*
X626540Y1597919D01*
X629081D01*
Y1600459D01*
X626540Y1602999D01*
X629081Y1605539D01*
Y1608079D01*
X626540D01*
X624001Y1605539D01*
X621460Y1608079D01*
X618921D01*
Y1605539D01*
X621460Y1602999D01*
X618921Y1600459D01*
Y1597919D01*
X611920Y1590920D02*
X614460D01*
X617000Y1593460D01*
X619540Y1590920D01*
X622080D01*
Y1593460D01*
X619540Y1596000D01*
X622080Y1598540D01*
Y1601080D01*
X619540D01*
X617000Y1598540D01*
X614460Y1601080D01*
X611920D01*
Y1598540D01*
X614460Y1596000D01*
X611920Y1593460D01*
Y1590920D01*
X604920Y1583920D02*
X607460D01*
X610000Y1586460D01*
X612540Y1583920D01*
X615080D01*
Y1586460D01*
X612540Y1589000D01*
X615080Y1591540D01*
Y1594080D01*
X612540D01*
X610000Y1591540D01*
X607460Y1594080D01*
X604920D01*
Y1591540D01*
X607460Y1589000D01*
X604920Y1586460D01*
Y1583920D01*
X597920Y1576920D02*
X600460D01*
X603000Y1579460D01*
X605540Y1576920D01*
X608080D01*
Y1579460D01*
X605540Y1582000D01*
X608080Y1584540D01*
Y1587080D01*
X605540D01*
X603000Y1584540D01*
X600460Y1587080D01*
X597920D01*
Y1584540D01*
X600460Y1582000D01*
X597920Y1579460D01*
Y1576920D01*
X590921Y1569919D02*
X593461D01*
X596001Y1572459D01*
X598541Y1569919D01*
X601081D01*
Y1572459D01*
X598541Y1574999D01*
X601081Y1577539D01*
Y1580079D01*
X598541D01*
X596001Y1577539D01*
X593461Y1580079D01*
X590921D01*
Y1577539D01*
X593461Y1574999D01*
X590921Y1572459D01*
Y1569919D01*
X528920Y1662920D02*
X531460D01*
X534000Y1665460D01*
X536540Y1662920D01*
X539080D01*
Y1665460D01*
X536540Y1668000D01*
X539080Y1670540D01*
Y1673080D01*
X536540D01*
X534000Y1670540D01*
X531460Y1673080D01*
X528920D01*
Y1670540D01*
X531460Y1668000D01*
X528920Y1665460D01*
Y1662920D01*
X540920Y1669920D02*
X543460D01*
X546000Y1672460D01*
X548540Y1669920D01*
X551080D01*
Y1672460D01*
X548540Y1675000D01*
X551080Y1677540D01*
Y1680080D01*
X548540D01*
X546000Y1677540D01*
X543460Y1680080D01*
X540920D01*
Y1677540D01*
X543460Y1675000D01*
X540920Y1672460D01*
Y1669920D01*
X553920Y1647920D02*
X556460D01*
X559000Y1650460D01*
X561540Y1647920D01*
X564080D01*
Y1650460D01*
X561540Y1653000D01*
X564080Y1655540D01*
Y1658080D01*
X561540D01*
X559000Y1655540D01*
X556460Y1658080D01*
X553920D01*
Y1655540D01*
X556460Y1653000D01*
X553920Y1650460D01*
Y1647920D01*
X515920Y1683920D02*
X518460D01*
X521000Y1686460D01*
X523540Y1683920D01*
X526080D01*
Y1686460D01*
X523540Y1689000D01*
X526080Y1691540D01*
Y1694080D01*
X523540D01*
X521000Y1691540D01*
X518460Y1694080D01*
X515920D01*
Y1691540D01*
X518460Y1689000D01*
X515920Y1686460D01*
Y1683920D01*
X503920Y1676920D02*
X506460D01*
X509000Y1679460D01*
X511540Y1676920D01*
X514080D01*
Y1679460D01*
X511540Y1682000D01*
X514080Y1684540D01*
Y1687080D01*
X511540D01*
X509000Y1684540D01*
X506460Y1687080D01*
X503920D01*
Y1684540D01*
X506460Y1682000D01*
X503920Y1679460D01*
Y1676920D01*
X478920Y1690920D02*
X481460D01*
X484000Y1693460D01*
X486540Y1690920D01*
X489080D01*
Y1693460D01*
X486540Y1696000D01*
X489080Y1698540D01*
Y1701080D01*
X486540D01*
X484000Y1698540D01*
X481460Y1701080D01*
X478920D01*
Y1698540D01*
X481460Y1696000D01*
X478920Y1693460D01*
Y1690920D01*
X413920Y1569920D02*
X416460D01*
X419000Y1572460D01*
X421540Y1569920D01*
X424080D01*
Y1572460D01*
X421540Y1575000D01*
X424080Y1577540D01*
Y1580080D01*
X421540D01*
X419000Y1577540D01*
X416460Y1580080D01*
X413920D01*
Y1577540D01*
X416460Y1575000D01*
X413920Y1572460D01*
Y1569920D01*
X577920Y1622920D02*
X580460D01*
X583000Y1625460D01*
X585540Y1622920D01*
X588080D01*
Y1625460D01*
X585540Y1628000D01*
X588080Y1630540D01*
Y1633080D01*
X585540D01*
X583000Y1630540D01*
X580460Y1633080D01*
X577920D01*
Y1630540D01*
X580460Y1628000D01*
X577920Y1625460D01*
Y1622920D01*
X633920Y1655920D02*
X636460D01*
X639000Y1658460D01*
X641540Y1655920D01*
X644080D01*
Y1658460D01*
X641540Y1661000D01*
X644080Y1663540D01*
Y1666080D01*
X641540D01*
X639000Y1663540D01*
X636460Y1666080D01*
X633920D01*
Y1663540D01*
X636460Y1661000D01*
X633920Y1658460D01*
Y1655920D01*
X661920Y1683920D02*
X664460D01*
X667000Y1686460D01*
X669540Y1683920D01*
X672080D01*
Y1686460D01*
X669540Y1689000D01*
X672080Y1691540D01*
Y1694080D01*
X669540D01*
X667000Y1691540D01*
X664460Y1694080D01*
X661920D01*
Y1691540D01*
X664460Y1689000D01*
X661920Y1686460D01*
Y1683920D01*
X641920Y1662920D02*
X644460D01*
X647000Y1665460D01*
X649540Y1662920D01*
X652080D01*
Y1665460D01*
X649540Y1668000D01*
X652080Y1670540D01*
Y1673080D01*
X649540D01*
X647000Y1670540D01*
X644460Y1673080D01*
X641920D01*
Y1670540D01*
X644460Y1668000D01*
X641920Y1665460D01*
Y1662920D01*
X489920Y1697920D02*
X492460D01*
X495000Y1700460D01*
X497540Y1697920D01*
X500080D01*
Y1700460D01*
X497540Y1703000D01*
X500080Y1705540D01*
Y1708080D01*
X497540D01*
X495000Y1705540D01*
X492460Y1708080D01*
X489920D01*
Y1705540D01*
X492460Y1703000D01*
X489920Y1700460D01*
Y1697920D01*
X668920Y1690920D02*
X671460D01*
X674000Y1693460D01*
X676540Y1690920D01*
X679080D01*
Y1693460D01*
X676540Y1696000D01*
X679080Y1698540D01*
Y1701080D01*
X676540D01*
X674000Y1698540D01*
X671460Y1701080D01*
X668920D01*
Y1698540D01*
X671460Y1696000D01*
X668920Y1693460D01*
Y1690920D01*
X654920Y1676920D02*
X657460D01*
X660000Y1679460D01*
X662540Y1676920D01*
X665080D01*
Y1679460D01*
X662540Y1682000D01*
X665080Y1684540D01*
Y1687080D01*
X662540D01*
X660000Y1684540D01*
X657460Y1687080D01*
X654920D01*
Y1684540D01*
X657460Y1682000D01*
X654920Y1679460D01*
Y1676920D01*
X647921Y1669919D02*
X650461D01*
X653001Y1672459D01*
X655541Y1669919D01*
X658081D01*
Y1672459D01*
X655541Y1674999D01*
X658081Y1677539D01*
Y1680079D01*
X655541D01*
X653001Y1677539D01*
X650461Y1680079D01*
X647921D01*
Y1677539D01*
X650461Y1674999D01*
X647921Y1672459D01*
Y1669919D01*
X561920Y1655920D02*
X564460D01*
X567000Y1658460D01*
X569540Y1655920D01*
X572080D01*
Y1658460D01*
X569540Y1661000D01*
X572080Y1663540D01*
Y1666080D01*
X569540D01*
X567000Y1663540D01*
X564460Y1666080D01*
X561920D01*
Y1663540D01*
X564460Y1661000D01*
X561920Y1658460D01*
Y1655920D01*
X567920Y1704920D02*
X570460D01*
X573000Y1707460D01*
X575540Y1704920D01*
X578080D01*
Y1707460D01*
X575540Y1710000D01*
X578080Y1712540D01*
Y1715080D01*
X575540D01*
X573000Y1712540D01*
X570460Y1715080D01*
X567920D01*
Y1712540D01*
X570460Y1710000D01*
X567920Y1707460D01*
Y1704920D01*
X561921Y1711919D02*
X564461D01*
X567001Y1714459D01*
X569541Y1711919D01*
X572081D01*
Y1714459D01*
X569541Y1716999D01*
X572081Y1719539D01*
Y1722079D01*
X569541D01*
X567001Y1719539D01*
X564461Y1722079D01*
X561921D01*
Y1719539D01*
X564461Y1716999D01*
X561921Y1714459D01*
Y1711919D01*
X554921Y1718919D02*
X557461D01*
X560001Y1721459D01*
X562541Y1718919D01*
X565081D01*
Y1721459D01*
X562541Y1723999D01*
X565081Y1726539D01*
Y1729079D01*
X562541D01*
X560001Y1726539D01*
X557461Y1729079D01*
X554921D01*
Y1726539D01*
X557461Y1723999D01*
X554921Y1721459D01*
Y1718919D01*
X548921Y1725919D02*
X551461D01*
X554001Y1728459D01*
X556541Y1725919D01*
X559081D01*
Y1728459D01*
X556541Y1730999D01*
X559081Y1733539D01*
Y1736079D01*
X556541D01*
X554001Y1733539D01*
X551461Y1736079D01*
X548921D01*
Y1733539D01*
X551461Y1730999D01*
X548921Y1728459D01*
Y1725919D01*
X541921Y1732919D02*
X544461D01*
X547001Y1735459D01*
X549541Y1732919D01*
X552081D01*
Y1735459D01*
X549541Y1737999D01*
X552081Y1740539D01*
Y1743079D01*
X549541D01*
X547001Y1740539D01*
X544461Y1743079D01*
X541921D01*
Y1740539D01*
X544461Y1737999D01*
X541921Y1735459D01*
Y1732919D01*
X534921Y1739919D02*
X537461D01*
X540001Y1742459D01*
X542541Y1739919D01*
X545081D01*
Y1742459D01*
X542541Y1744999D01*
X545081Y1747539D01*
Y1750079D01*
X542541D01*
X540001Y1747539D01*
X537461Y1750079D01*
X534921D01*
Y1747539D01*
X537461Y1744999D01*
X534921Y1742459D01*
Y1739919D01*
X528921Y1746919D02*
X531461D01*
X534001Y1749459D01*
X536541Y1746919D01*
X539081D01*
Y1749459D01*
X536541Y1751999D01*
X539081Y1754539D01*
Y1757079D01*
X536541D01*
X534001Y1754539D01*
X531461Y1757079D01*
X528921D01*
Y1754539D01*
X531461Y1751999D01*
X528921Y1749459D01*
Y1746919D01*
X299920Y1619920D02*
X302460D01*
X305000Y1622460D01*
X307540Y1619920D01*
X310080D01*
Y1622460D01*
X307540Y1625000D01*
X310080Y1627540D01*
Y1630080D01*
X307540D01*
X305000Y1627540D01*
X302460Y1630080D01*
X299920D01*
Y1627540D01*
X302460Y1625000D01*
X299920Y1622460D01*
Y1619920D01*
X274920Y1603920D02*
X277460D01*
X280000Y1606460D01*
X282540Y1603920D01*
X285080D01*
Y1606460D01*
X282540Y1609000D01*
X285080Y1611540D01*
Y1614080D01*
X282540D01*
X280000Y1611540D01*
X277460Y1614080D01*
X274920D01*
Y1611540D01*
X277460Y1609000D01*
X274920Y1606460D01*
Y1603920D01*
X286920Y1596920D02*
X289460D01*
X292000Y1599460D01*
X294540Y1596920D01*
X297080D01*
Y1599460D01*
X294540Y1602000D01*
X297080Y1604540D01*
Y1607080D01*
X294540D01*
X292000Y1604540D01*
X289460Y1607080D01*
X286920D01*
Y1604540D01*
X289460Y1602000D01*
X286920Y1599460D01*
Y1596920D01*
X248920Y1589920D02*
X251460D01*
X254000Y1592460D01*
X256540Y1589920D01*
X259080D01*
Y1592460D01*
X256540Y1595000D01*
X259080Y1597540D01*
Y1600080D01*
X256540D01*
X254000Y1597540D01*
X251460Y1600080D01*
X248920D01*
Y1597540D01*
X251460Y1595000D01*
X248920Y1592460D01*
Y1589920D01*
X261920Y1581920D02*
X264460D01*
X267000Y1584460D01*
X269540Y1581920D01*
X272080D01*
Y1584460D01*
X269540Y1587000D01*
X272080Y1589540D01*
Y1592080D01*
X269540D01*
X267000Y1589540D01*
X264460Y1592080D01*
X261920D01*
Y1589540D01*
X264460Y1587000D01*
X261920Y1584460D01*
Y1581920D01*
X224920Y1574920D02*
X227460D01*
X230000Y1577460D01*
X232540Y1574920D01*
X235080D01*
Y1577460D01*
X232540Y1580000D01*
X235080Y1582540D01*
Y1585080D01*
X232540D01*
X230000Y1582540D01*
X227460Y1585080D01*
X224920D01*
Y1582540D01*
X227460Y1580000D01*
X224920Y1577460D01*
Y1574920D01*
X235920Y1567920D02*
X238460D01*
X241000Y1570460D01*
X243540Y1567920D01*
X246080D01*
Y1570460D01*
X243540Y1573000D01*
X246080Y1575540D01*
Y1578080D01*
X243540D01*
X241000Y1575540D01*
X238460Y1578080D01*
X235920D01*
Y1575540D01*
X238460Y1573000D01*
X235920Y1570460D01*
Y1567920D01*
X520921Y1775919D02*
X523461D01*
X526001Y1778459D01*
X528541Y1775919D01*
X531081D01*
Y1778459D01*
X528541Y1780999D01*
X531081Y1783539D01*
Y1786079D01*
X528541D01*
X526001Y1783539D01*
X523461Y1786079D01*
X520921D01*
Y1783539D01*
X523461Y1780999D01*
X520921Y1778459D01*
Y1775919D01*
X514921Y1783919D02*
X517461D01*
X520001Y1786459D01*
X522541Y1783919D01*
X525081D01*
Y1786459D01*
X522541Y1788999D01*
X525081Y1791539D01*
Y1794079D01*
X522541D01*
X520001Y1791539D01*
X517461Y1794079D01*
X514921D01*
Y1791539D01*
X517461Y1788999D01*
X514921Y1786459D01*
Y1783919D01*
X507921Y1790919D02*
X510461D01*
X513001Y1793459D01*
X515541Y1790919D01*
X518081D01*
Y1793459D01*
X515541Y1795999D01*
X518081Y1798539D01*
Y1801079D01*
X515541D01*
X513001Y1798539D01*
X510461Y1801079D01*
X507921D01*
Y1798539D01*
X510461Y1795999D01*
X507921Y1793459D01*
Y1790919D01*
X532920Y1761920D02*
X535460D01*
X538000Y1764460D01*
X540540Y1761920D01*
X543080D01*
Y1764460D01*
X540540Y1767000D01*
X543080Y1769540D01*
Y1772080D01*
X540540D01*
X538000Y1769540D01*
X535460Y1772080D01*
X532920D01*
Y1769540D01*
X535460Y1767000D01*
X532920Y1764460D01*
Y1761920D01*
X526920Y1768920D02*
X529460D01*
X532000Y1771460D01*
X534540Y1768920D01*
X537080D01*
Y1771460D01*
X534540Y1774000D01*
X537080Y1776540D01*
Y1779080D01*
X534540D01*
X532000Y1776540D01*
X529460Y1779080D01*
X526920D01*
Y1776540D01*
X529460Y1774000D01*
X526920Y1771460D01*
Y1768920D01*
X630920Y1646920D02*
X633460D01*
X636000Y1649460D01*
X638540Y1646920D01*
X641080D01*
Y1649460D01*
X638540Y1652000D01*
X641080Y1654540D01*
Y1657080D01*
X638540D01*
X636000Y1654540D01*
X633460Y1657080D01*
X630920D01*
Y1654540D01*
X633460Y1652000D01*
X630920Y1649460D01*
Y1646920D01*
X463420Y1897918D02*
X465960D01*
X468500Y1900458D01*
X471040Y1897918D01*
X473580D01*
Y1900458D01*
X471040Y1902998D01*
X473580Y1905538D01*
Y1908078D01*
X471040D01*
X468500Y1905538D01*
X465960Y1908078D01*
X463420D01*
Y1905538D01*
X465960Y1902998D01*
X463420Y1900458D01*
Y1897918D01*
X463420Y1839918D02*
X465960D01*
X468500Y1842458D01*
X471040Y1839918D01*
X473580D01*
Y1842458D01*
X471040Y1844998D01*
X473580Y1847538D01*
Y1850078D01*
X471040D01*
X468500Y1847538D01*
X465960Y1850078D01*
X463420D01*
Y1847538D01*
X465960Y1844998D01*
X463420Y1842458D01*
Y1839918D01*
X148118Y1582722D02*
X150658D01*
X153198Y1585262D01*
X155738Y1582722D01*
X158278D01*
Y1585262D01*
X155738Y1587802D01*
X158278Y1590342D01*
Y1592882D01*
X155738D01*
X153198Y1590342D01*
X150658Y1592882D01*
X148118D01*
Y1590342D01*
X150658Y1587802D01*
X148118Y1585262D01*
Y1582722D01*
X122920Y1582920D02*
X125460D01*
X128000Y1585460D01*
X130540Y1582920D01*
X133080D01*
Y1585460D01*
X130540Y1588000D01*
X133080Y1590540D01*
Y1593080D01*
X130540D01*
X128000Y1590540D01*
X125460Y1593080D01*
X122920D01*
Y1590540D01*
X125460Y1588000D01*
X122920Y1585460D01*
Y1582920D01*
X350920Y1569920D02*
X353460D01*
X356000Y1572460D01*
X358540Y1569920D01*
X361080D01*
Y1572460D01*
X358540Y1575000D01*
X361080Y1577540D01*
Y1580080D01*
X358540D01*
X356000Y1577540D01*
X353460Y1580080D01*
X350920D01*
Y1577540D01*
X353460Y1575000D01*
X350920Y1572460D01*
Y1569920D01*
X376920Y1566920D02*
X379460D01*
X382000Y1569460D01*
X384540Y1566920D01*
X387080D01*
Y1569460D01*
X384540Y1572000D01*
X387080Y1574540D01*
Y1577080D01*
X384540D01*
X382000Y1574540D01*
X379460Y1577080D01*
X376920D01*
Y1574540D01*
X379460Y1572000D01*
X376920Y1569460D01*
Y1566920D01*
X387920Y1573920D02*
X390460D01*
X393000Y1576460D01*
X395540Y1573920D01*
X398080D01*
Y1576460D01*
X395540Y1579000D01*
X398080Y1581540D01*
Y1584080D01*
X395540D01*
X393000Y1581540D01*
X390460Y1584080D01*
X387920D01*
Y1581540D01*
X390460Y1579000D01*
X387920Y1576460D01*
Y1573920D01*
X362920Y1576920D02*
X365460D01*
X368000Y1579460D01*
X370540Y1576920D01*
X373080D01*
Y1579460D01*
X370540Y1582000D01*
X373080Y1584540D01*
Y1587080D01*
X370540D01*
X368000Y1584540D01*
X365460Y1587080D01*
X362920D01*
Y1584540D01*
X365460Y1582000D01*
X362920Y1579460D01*
Y1576920D01*
X311920Y1610920D02*
X314460D01*
X317000Y1613460D01*
X319540Y1610920D01*
X322080D01*
Y1613460D01*
X319540Y1616000D01*
X322080Y1618540D01*
Y1621080D01*
X319540D01*
X317000Y1618540D01*
X314460Y1621080D01*
X311920D01*
Y1618540D01*
X314460Y1616000D01*
X311920Y1613460D01*
Y1610920D01*
X579920Y1534920D02*
X582460D01*
X585000Y1537460D01*
X587540Y1534920D01*
X590080D01*
Y1537460D01*
X587540Y1540000D01*
X590080Y1542540D01*
Y1545080D01*
X587540D01*
X585000Y1542540D01*
X582460Y1545080D01*
X579920D01*
Y1542540D01*
X582460Y1540000D01*
X579920Y1537460D01*
Y1534920D01*
Y1524920D02*
X582460D01*
X585000Y1527460D01*
X587540Y1524920D01*
X590080D01*
Y1527460D01*
X587540Y1530000D01*
X590080Y1532540D01*
Y1535080D01*
X587540D01*
X585000Y1532540D01*
X582460Y1535080D01*
X579920D01*
Y1532540D01*
X582460Y1530000D01*
X579920Y1527460D01*
Y1524920D01*
Y1514920D02*
X582460D01*
X585000Y1517460D01*
X587540Y1514920D01*
X590080D01*
Y1517460D01*
X587540Y1520000D01*
X590080Y1522540D01*
Y1525080D01*
X587540D01*
X585000Y1522540D01*
X582460Y1525080D01*
X579920D01*
Y1522540D01*
X582460Y1520000D01*
X579920Y1517460D01*
Y1514920D01*
X732317Y1513721D02*
X734857D01*
X737397Y1516261D01*
X739937Y1513721D01*
X742477D01*
Y1516261D01*
X739937Y1518801D01*
X742477Y1521341D01*
Y1523881D01*
X739937D01*
X737397Y1521341D01*
X734857Y1523881D01*
X732317D01*
Y1521341D01*
X734857Y1518801D01*
X732317Y1516261D01*
Y1513721D01*
Y1523721D02*
X734857D01*
X737397Y1526261D01*
X739937Y1523721D01*
X742477D01*
Y1526261D01*
X739937Y1528801D01*
X742477Y1531341D01*
Y1533881D01*
X739937D01*
X737397Y1531341D01*
X734857Y1533881D01*
X732317D01*
Y1531341D01*
X734857Y1528801D01*
X732317Y1526261D01*
Y1523721D01*
X724920Y2146622D02*
X727460D01*
X730000Y2149162D01*
X732540Y2146622D01*
X735080D01*
Y2149162D01*
X732540Y2151702D01*
X735080Y2154242D01*
Y2156782D01*
X732540D01*
X730000Y2154242D01*
X727460Y2156782D01*
X724920D01*
Y2154242D01*
X727460Y2151702D01*
X724920Y2149162D01*
Y2146622D01*
X729715Y2070422D02*
X732255D01*
X734795Y2072962D01*
X737335Y2070422D01*
X739875D01*
Y2072962D01*
X737335Y2075502D01*
X739875Y2078042D01*
Y2080582D01*
X737335D01*
X734795Y2078042D01*
X732255Y2080582D01*
X729715D01*
Y2078042D01*
X732255Y2075502D01*
X729715Y2072962D01*
Y2070422D01*
X703920Y2059920D02*
X706460D01*
X709000Y2062460D01*
X711540Y2059920D01*
X714080D01*
Y2062460D01*
X711540Y2065000D01*
X714080Y2067540D01*
Y2070080D01*
X711540D01*
X709000Y2067540D01*
X706460Y2070080D01*
X703920D01*
Y2067540D01*
X706460Y2065000D01*
X703920Y2062460D01*
Y2059920D01*
X694920Y1783919D02*
X697460D01*
X700000Y1786459D01*
X702540Y1783919D01*
X705080D01*
Y1786459D01*
X702540Y1788999D01*
X705080Y1791539D01*
Y1794079D01*
X702540D01*
X700000Y1791539D01*
X697460Y1794079D01*
X694920D01*
Y1791539D01*
X697460Y1788999D01*
X694920Y1786459D01*
Y1783919D01*
X688170Y1768920D02*
X690710D01*
X693250Y1771460D01*
X695790Y1768920D01*
X698330D01*
Y1771460D01*
X695790Y1774000D01*
X698330Y1776540D01*
Y1779080D01*
X695790D01*
X693250Y1776540D01*
X690710Y1779080D01*
X688170D01*
Y1776540D01*
X690710Y1774000D01*
X688170Y1771460D01*
Y1768920D01*
X680920Y1761919D02*
X683460D01*
X686000Y1764459D01*
X688540Y1761919D01*
X691080D01*
Y1764459D01*
X688540Y1766999D01*
X691080Y1769539D01*
Y1772079D01*
X688540D01*
X686000Y1769539D01*
X683460Y1772079D01*
X680920D01*
Y1769539D01*
X683460Y1766999D01*
X680920Y1764459D01*
Y1761919D01*
X674171Y1697919D02*
X676711D01*
X679250Y1700459D01*
X681790Y1697919D01*
X684331D01*
Y1700459D01*
X681790Y1702999D01*
X684331Y1705539D01*
Y1708079D01*
X681790D01*
X679250Y1705539D01*
X676711Y1708079D01*
X674171D01*
Y1705539D01*
X676711Y1702999D01*
X674171Y1700459D01*
Y1697919D01*
X712920Y1775919D02*
X715460D01*
X718000Y1778459D01*
X720540Y1775919D01*
X723080D01*
Y1778459D01*
X720540Y1780999D01*
X723080Y1783539D01*
Y1786079D01*
X720540D01*
X718000Y1783539D01*
X715460Y1786079D01*
X712920D01*
Y1783539D01*
X715460Y1780999D01*
X712920Y1778459D01*
Y1775919D01*
X714920Y1790920D02*
X717460D01*
X720000Y1793460D01*
X722540Y1790920D01*
X725080D01*
Y1793460D01*
X722540Y1796000D01*
X725080Y1798540D01*
Y1801080D01*
X722540D01*
X720000Y1798540D01*
X717460Y1801080D01*
X714920D01*
Y1798540D01*
X717460Y1796000D01*
X714920Y1793460D01*
Y1790920D01*
X32720Y2261517D02*
X35260D01*
X37800Y2264057D01*
X40340Y2261517D01*
X42880D01*
Y2264057D01*
X40340Y2266597D01*
X42880Y2269137D01*
Y2271677D01*
X40340D01*
X37800Y2269137D01*
X35260Y2271677D01*
X32720D01*
Y2269137D01*
X35260Y2266597D01*
X32720Y2264057D01*
Y2261517D01*
X681518Y1565518D02*
X684058D01*
X686598Y1568058D01*
X689138Y1565518D01*
X691678D01*
Y1568058D01*
X689138Y1570598D01*
X691678Y1573138D01*
Y1575678D01*
X689138D01*
X686598Y1573138D01*
X684058Y1575678D01*
X681518D01*
Y1573138D01*
X684058Y1570598D01*
X681518Y1568058D01*
Y1565518D01*
X325920Y1514920D02*
X328460D01*
X331000Y1517460D01*
X333540Y1514920D01*
X336080D01*
Y1517460D01*
X333540Y1520000D01*
X336080Y1522540D01*
Y1525080D01*
X333540D01*
X331000Y1522540D01*
X328460Y1525080D01*
X325920D01*
Y1522540D01*
X328460Y1520000D01*
X325920Y1517460D01*
Y1514920D01*
Y1524920D02*
X328460D01*
X331000Y1527460D01*
X333540Y1524920D01*
X336080D01*
Y1527460D01*
X333540Y1530000D01*
X336080Y1532540D01*
Y1535080D01*
X333540D01*
X331000Y1532540D01*
X328460Y1535080D01*
X325920D01*
Y1532540D01*
X328460Y1530000D01*
X325920Y1527460D01*
Y1524920D01*
Y1534920D02*
X328460D01*
X331000Y1537460D01*
X333540Y1534920D01*
X336080D01*
Y1537460D01*
X333540Y1540000D01*
X336080Y1542540D01*
Y1545080D01*
X333540D01*
X331000Y1542540D01*
X328460Y1545080D01*
X325920D01*
Y1542540D01*
X328460Y1540000D01*
X325920Y1537460D01*
Y1534920D01*
X452920Y1514920D02*
X455460D01*
X458000Y1517460D01*
X460540Y1514920D01*
X463080D01*
Y1517460D01*
X460540Y1520000D01*
X463080Y1522540D01*
Y1525080D01*
X460540D01*
X458000Y1522540D01*
X455460Y1525080D01*
X452920D01*
Y1522540D01*
X455460Y1520000D01*
X452920Y1517460D01*
Y1514920D01*
Y1524920D02*
X455460D01*
X458000Y1527460D01*
X460540Y1524920D01*
X463080D01*
Y1527460D01*
X460540Y1530000D01*
X463080Y1532540D01*
Y1535080D01*
X460540D01*
X458000Y1532540D01*
X455460Y1535080D01*
X452920D01*
Y1532540D01*
X455460Y1530000D01*
X452920Y1527460D01*
Y1524920D01*
Y1534920D02*
X455460D01*
X458000Y1537460D01*
X460540Y1534920D01*
X463080D01*
Y1537460D01*
X460540Y1540000D01*
X463080Y1542540D01*
Y1545080D01*
X460540D01*
X458000Y1542540D01*
X455460Y1545080D01*
X452920D01*
Y1542540D01*
X455460Y1540000D01*
X452920Y1537460D01*
Y1534920D01*
X33920Y1599920D02*
X36460D01*
X39000Y1602460D01*
X41540Y1599920D01*
X44080D01*
Y1602460D01*
X41540Y1605000D01*
X44080Y1607540D01*
Y1610080D01*
X41540D01*
X39000Y1607540D01*
X36460Y1610080D01*
X33920D01*
Y1607540D01*
X36460Y1605000D01*
X33920Y1602460D01*
Y1599920D01*
X469421Y2172420D02*
X471960D01*
X474501Y2174960D01*
X477040Y2172420D01*
X479580D01*
Y2174960D01*
X477040Y2177500D01*
X479580Y2180040D01*
Y2182580D01*
X477040D01*
X474501Y2180040D01*
X471960Y2182580D01*
X469421D01*
Y2180040D01*
X471960Y2177500D01*
X469421Y2174960D01*
Y2172420D01*
X462419Y2042421D02*
X464959D01*
X467499Y2044961D01*
X470039Y2042421D01*
X472579D01*
Y2044961D01*
X470039Y2047501D01*
X472579Y2050041D01*
Y2052581D01*
X470039D01*
X467499Y2050041D01*
X464959Y2052581D01*
X462419D01*
Y2050041D01*
X464959Y2047501D01*
X462419Y2044961D01*
Y2042421D01*
X462920Y2010920D02*
X465460D01*
X468000Y2013460D01*
X470540Y2010920D01*
X473080D01*
Y2013460D01*
X470540Y2016000D01*
X473080Y2018540D01*
Y2021080D01*
X470540D01*
X468000Y2018540D01*
X465460Y2021080D01*
X462920D01*
Y2018540D01*
X465460Y2016000D01*
X462920Y2013460D01*
Y2010920D01*
X198920Y1534920D02*
X201460D01*
X204000Y1537460D01*
X206540Y1534920D01*
X209080D01*
Y1537460D01*
X206540Y1540000D01*
X209080Y1542540D01*
Y1545080D01*
X206540D01*
X204000Y1542540D01*
X201460Y1545080D01*
X198920D01*
Y1542540D01*
X201460Y1540000D01*
X198920Y1537460D01*
Y1534920D01*
Y1524920D02*
X201460D01*
X204000Y1527460D01*
X206540Y1524920D01*
X209080D01*
Y1527460D01*
X206540Y1530000D01*
X209080Y1532540D01*
Y1535080D01*
X206540D01*
X204000Y1532540D01*
X201460Y1535080D01*
X198920D01*
Y1532540D01*
X201460Y1530000D01*
X198920Y1527460D01*
Y1524920D01*
Y1514920D02*
X201460D01*
X204000Y1517460D01*
X206540Y1514920D01*
X209080D01*
Y1517460D01*
X206540Y1520000D01*
X209080Y1522540D01*
Y1525080D01*
X206540D01*
X204000Y1522540D01*
X201460Y1525080D01*
X198920D01*
Y1522540D01*
X201460Y1520000D01*
X198920Y1517460D01*
Y1514920D01*
X454920Y1622920D02*
X457460D01*
X460000Y1625460D01*
X462540Y1622920D01*
X465080D01*
Y1625460D01*
X462540Y1628000D01*
X465080Y1630540D01*
Y1633080D01*
X462540D01*
X460000Y1630540D01*
X457460Y1633080D01*
X454920D01*
Y1630540D01*
X457460Y1628000D01*
X454920Y1625460D01*
Y1622920D01*
X568649Y1637670D02*
X571189D01*
X573729Y1640210D01*
X576269Y1637670D01*
X578809D01*
Y1640210D01*
X576269Y1642750D01*
X578809Y1645290D01*
Y1647830D01*
X576269D01*
X573729Y1645290D01*
X571189Y1647830D01*
X568649D01*
Y1645290D01*
X571189Y1642750D01*
X568649Y1640210D01*
Y1637670D01*
X572920Y1629920D02*
X575460D01*
X578000Y1632460D01*
X580540Y1629920D01*
X583080D01*
Y1632460D01*
X580540Y1635000D01*
X583080Y1637540D01*
Y1640080D01*
X580540D01*
X578000Y1637540D01*
X575460Y1640080D01*
X572920D01*
Y1637540D01*
X575460Y1635000D01*
X572920Y1632460D01*
Y1629920D01*
X586920Y1606920D02*
X589460D01*
X592000Y1609460D01*
X594540Y1606920D01*
X597080D01*
Y1609460D01*
X594540Y1612000D01*
X597080Y1614540D01*
Y1617080D01*
X594540D01*
X592000Y1614540D01*
X589460Y1617080D01*
X586920D01*
Y1614540D01*
X589460Y1612000D01*
X586920Y1609460D01*
Y1606920D01*
X581920Y1614920D02*
X584460D01*
X587000Y1617460D01*
X589540Y1614920D01*
X592080D01*
Y1617460D01*
X589540Y1620000D01*
X592080Y1622540D01*
Y1625080D01*
X589540D01*
X587000Y1622540D01*
X584460Y1625080D01*
X581920D01*
Y1622540D01*
X584460Y1620000D01*
X581920Y1617460D01*
Y1614920D01*
X469920Y1646920D02*
X472460D01*
X475000Y1649460D01*
X477540Y1646920D01*
X480080D01*
Y1649460D01*
X477540Y1652000D01*
X480080Y1654540D01*
Y1657080D01*
X477540D01*
X475000Y1654540D01*
X472460Y1657080D01*
X469920D01*
Y1654540D01*
X472460Y1652000D01*
X469920Y1649460D01*
Y1646920D01*
X758618Y1613222D02*
X761158D01*
X763698Y1615762D01*
X766238Y1613222D01*
X768778D01*
Y1615762D01*
X766238Y1618302D01*
X768778Y1620842D01*
Y1623382D01*
X766238D01*
X763698Y1620842D01*
X761158Y1623382D01*
X758618D01*
Y1620842D01*
X761158Y1618302D01*
X758618Y1615762D01*
Y1613222D01*
X637920Y1618920D02*
X640460D01*
X643000Y1621460D01*
X645540Y1618920D01*
X648080D01*
Y1621460D01*
X645540Y1624000D01*
X648080Y1626540D01*
Y1629080D01*
X645540D01*
X643000Y1626540D01*
X640460Y1629080D01*
X637920D01*
Y1626540D01*
X640460Y1624000D01*
X637920Y1621460D01*
Y1618920D01*
X664920Y1648920D02*
X667460D01*
X670000Y1651460D01*
X672540Y1648920D01*
X675080D01*
Y1651460D01*
X672540Y1654000D01*
X675080Y1656540D01*
Y1659080D01*
X672540D01*
X670000Y1656540D01*
X667460Y1659080D01*
X664920D01*
Y1656540D01*
X667460Y1654000D01*
X664920Y1651460D01*
Y1648920D01*
X455920Y1941920D02*
X458460D01*
X461000Y1944460D01*
X463540Y1941920D01*
X466080D01*
Y1944460D01*
X463540Y1947000D01*
X466080Y1949540D01*
Y1952080D01*
X463540D01*
X461000Y1949540D01*
X458460Y1952080D01*
X455920D01*
Y1949540D01*
X458460Y1947000D01*
X455920Y1944460D01*
Y1941920D01*
X440920D02*
X443460D01*
X446000Y1944460D01*
X448540Y1941920D01*
X451080D01*
Y1944460D01*
X448540Y1947000D01*
X451080Y1949540D01*
Y1952080D01*
X448540D01*
X446000Y1949540D01*
X443460Y1952080D01*
X440920D01*
Y1949540D01*
X443460Y1947000D01*
X440920Y1944460D01*
Y1941920D01*
D105*
X1005081Y80000D02*
G03*
X1005081Y80000I-5080J0D01*
G01*
X970080D02*
G03*
X970080Y80000I-5080J0D01*
G01*
X935081D02*
G03*
X935081Y80000I-5080J0D01*
G01*
X1205081D02*
G03*
X1205081Y80000I-5080J0D01*
G01*
X1170080D02*
G03*
X1170080Y80000I-5080J0D01*
G01*
X1135081D02*
G03*
X1135081Y80000I-5080J0D01*
G01*
M02*
