G04 Layer_Color=16711680*
%FSLAX44Y44*%
%MOMM*%
G71*
G01*
G75*
%ADD49C,0.2000*%
G36*
X8917Y1323597D02*
X9264Y1323562D01*
X9646Y1323493D01*
X10097Y1323423D01*
X10548Y1323354D01*
X11521Y1323041D01*
X11972Y1322868D01*
X12458Y1322625D01*
X12875Y1322382D01*
X13291Y1322034D01*
X13639Y1321687D01*
X13916Y1321270D01*
X13951Y1321236D01*
X14021Y1321166D01*
X14159Y1321028D01*
X14368Y1320819D01*
X14576Y1320576D01*
X14784Y1320298D01*
X15062Y1319951D01*
X15305Y1319569D01*
X15548Y1319118D01*
X15826Y1318666D01*
X16034Y1318145D01*
X16278Y1317555D01*
X16451Y1316965D01*
X16590Y1316305D01*
X16659Y1315646D01*
X16694Y1314916D01*
Y1314882D01*
Y1314743D01*
Y1314569D01*
X16659Y1314291D01*
X16625Y1313979D01*
X16590Y1313597D01*
X16521Y1313180D01*
X16451Y1312764D01*
X16208Y1311792D01*
X16034Y1311271D01*
X15861Y1310784D01*
X15618Y1310264D01*
X15340Y1309778D01*
X15028Y1309292D01*
X14680Y1308840D01*
X14646Y1308805D01*
X14576Y1308736D01*
X14472Y1308632D01*
X14298Y1308493D01*
X14090Y1308319D01*
X13847Y1308111D01*
X13534Y1307903D01*
X13222Y1307694D01*
X12840Y1307486D01*
X12389Y1307278D01*
X11937Y1307069D01*
X11416Y1306896D01*
X10861Y1306757D01*
X10271Y1306653D01*
X9646Y1306583D01*
X8951Y1306548D01*
X618D01*
Y1293979D01*
Y1293945D01*
Y1293875D01*
Y1293771D01*
X583Y1293597D01*
X479Y1293215D01*
X340Y1292799D01*
X62Y1292347D01*
X-146Y1292139D01*
X-354Y1291965D01*
X-632Y1291792D01*
X-944Y1291687D01*
X-1292Y1291618D01*
X-1708Y1291583D01*
X-1917D01*
X-2056Y1291618D01*
X-2438Y1291722D01*
X-2854Y1291896D01*
X-3063Y1292000D01*
X-3271Y1292174D01*
X-3479Y1292347D01*
X-3653Y1292590D01*
X-3792Y1292868D01*
X-3896Y1293181D01*
X-3965Y1293562D01*
X-4000Y1293979D01*
Y1323632D01*
X8639D01*
X8917Y1323597D01*
D02*
G37*
G36*
X188498Y1317972D02*
X188880Y1317868D01*
X189296Y1317729D01*
X189748Y1317451D01*
X189921Y1317243D01*
X190095Y1317034D01*
X190268Y1316757D01*
X190373Y1316444D01*
X190442Y1316097D01*
X190477Y1315680D01*
Y1315646D01*
Y1315576D01*
Y1315472D01*
X190442Y1315333D01*
X190338Y1314951D01*
X190199Y1314534D01*
X189886Y1314118D01*
X189713Y1313909D01*
X189470Y1313736D01*
X189227Y1313597D01*
X188880Y1313493D01*
X188532Y1313423D01*
X188116Y1313389D01*
X177387D01*
Y1308632D01*
X187664D01*
X187803Y1308597D01*
X188185Y1308493D01*
X188602Y1308354D01*
X189018Y1308076D01*
X189227Y1307868D01*
X189400Y1307660D01*
X189539Y1307382D01*
X189643Y1307069D01*
X189713Y1306722D01*
X189748Y1306305D01*
Y1306271D01*
Y1306201D01*
Y1306097D01*
X189713Y1305958D01*
X189643Y1305576D01*
X189470Y1305160D01*
X189192Y1304708D01*
X189018Y1304535D01*
X188775Y1304361D01*
X188532Y1304187D01*
X188220Y1304083D01*
X187873Y1304014D01*
X187456Y1303979D01*
X177387D01*
Y1296653D01*
X188324D01*
X188498Y1296618D01*
X188880Y1296514D01*
X189296Y1296375D01*
X189748Y1296097D01*
X189921Y1295889D01*
X190095Y1295681D01*
X190268Y1295403D01*
X190373Y1295090D01*
X190442Y1294743D01*
X190477Y1294326D01*
Y1294292D01*
Y1294222D01*
Y1294118D01*
X190442Y1293979D01*
X190338Y1293597D01*
X190199Y1293181D01*
X189886Y1292729D01*
X189713Y1292556D01*
X189470Y1292382D01*
X189227Y1292208D01*
X188880Y1292104D01*
X188532Y1292035D01*
X188116Y1292000D01*
X172873D01*
Y1318007D01*
X188324D01*
X188498Y1317972D01*
D02*
G37*
G36*
X61381Y1323632D02*
X61798Y1323597D01*
X62249Y1323527D01*
X62770Y1323458D01*
X63326Y1323354D01*
X63881Y1323215D01*
X64506Y1323041D01*
X65131Y1322868D01*
X65756Y1322625D01*
X66346Y1322312D01*
X66971Y1322000D01*
X67527Y1321618D01*
X68082Y1321166D01*
X68117Y1321132D01*
X68187Y1321062D01*
X68326Y1320923D01*
X68499Y1320715D01*
X68707Y1320472D01*
X68916Y1320159D01*
X69159Y1319812D01*
X69437Y1319430D01*
X69680Y1318979D01*
X69923Y1318493D01*
X70131Y1317937D01*
X70339Y1317382D01*
X70513Y1316757D01*
X70652Y1316097D01*
X70721Y1315368D01*
X70756Y1314639D01*
Y1314604D01*
Y1314465D01*
X70721Y1314257D01*
Y1313979D01*
X70652Y1313632D01*
X70582Y1313215D01*
X70478Y1312798D01*
X70374Y1312312D01*
X70200Y1311792D01*
X69992Y1311271D01*
X69749Y1310715D01*
X69437Y1310194D01*
X69089Y1309639D01*
X68673Y1309118D01*
X68187Y1308632D01*
X67631Y1308146D01*
X67666Y1308111D01*
X67770Y1308042D01*
X67944Y1307937D01*
X68187Y1307764D01*
X68464Y1307555D01*
X68742Y1307278D01*
X69089Y1306965D01*
X69402Y1306583D01*
X69749Y1306132D01*
X70062Y1305611D01*
X70339Y1305055D01*
X70617Y1304396D01*
X70860Y1303701D01*
X71034Y1302903D01*
X71138Y1302069D01*
X71173Y1301132D01*
Y1301097D01*
Y1301028D01*
Y1300923D01*
X71138Y1300750D01*
Y1300542D01*
X71103Y1300298D01*
X70999Y1299708D01*
X70860Y1299014D01*
X70652Y1298250D01*
X70305Y1297417D01*
X69888Y1296583D01*
X69367Y1295750D01*
X69055Y1295333D01*
X68673Y1294917D01*
X68291Y1294535D01*
X67874Y1294153D01*
X67388Y1293806D01*
X66867Y1293458D01*
X66312Y1293146D01*
X65721Y1292868D01*
X65062Y1292625D01*
X64367Y1292417D01*
X63603Y1292278D01*
X62805Y1292139D01*
X61937Y1292070D01*
X60999Y1292035D01*
X50201D01*
Y1323666D01*
X61069D01*
X61381Y1323632D01*
D02*
G37*
G36*
X117179Y1323666D02*
X117561Y1323562D01*
X117978Y1323389D01*
X118186Y1323284D01*
X118429Y1323111D01*
X118603Y1322902D01*
X118776Y1322694D01*
X118950Y1322382D01*
X119054Y1322069D01*
X119123Y1321687D01*
X119158Y1321270D01*
Y1293910D01*
Y1293875D01*
Y1293806D01*
Y1293701D01*
X119123Y1293562D01*
X119054Y1293181D01*
X118915Y1292764D01*
X118672Y1292312D01*
X118498Y1292139D01*
X118325Y1291965D01*
X118082Y1291792D01*
X117804Y1291687D01*
X117492Y1291618D01*
X117144Y1291583D01*
X117075D01*
X116901Y1291618D01*
X116658Y1291653D01*
X116311Y1291757D01*
X115929Y1291965D01*
X115547Y1292208D01*
X115131Y1292590D01*
X114922Y1292799D01*
X114714Y1293076D01*
X100339Y1315159D01*
Y1293979D01*
Y1293945D01*
Y1293875D01*
Y1293771D01*
X100304Y1293597D01*
X100200Y1293215D01*
X100061Y1292799D01*
X99749Y1292347D01*
X99575Y1292139D01*
X99332Y1291965D01*
X99089Y1291792D01*
X98742Y1291687D01*
X98394Y1291618D01*
X97978Y1291583D01*
X97770D01*
X97631Y1291618D01*
X97249Y1291722D01*
X96832Y1291896D01*
X96624Y1292000D01*
X96415Y1292174D01*
X96207Y1292347D01*
X96033Y1292590D01*
X95895Y1292868D01*
X95790Y1293181D01*
X95721Y1293562D01*
X95686Y1293979D01*
Y1321409D01*
Y1321444D01*
Y1321514D01*
Y1321618D01*
X95721Y1321757D01*
X95790Y1322139D01*
X95964Y1322555D01*
X96207Y1322972D01*
X96381Y1323180D01*
X96589Y1323354D01*
X96832Y1323493D01*
X97110Y1323597D01*
X97422Y1323666D01*
X97804Y1323701D01*
X97874D01*
X98047Y1323666D01*
X98325Y1323632D01*
X98638Y1323527D01*
X99019Y1323354D01*
X99436Y1323111D01*
X99853Y1322764D01*
X100235Y1322277D01*
X114506Y1300576D01*
Y1321270D01*
Y1321305D01*
Y1321375D01*
Y1321479D01*
X114540Y1321652D01*
X114644Y1322034D01*
X114783Y1322486D01*
X115061Y1322937D01*
X115235Y1323145D01*
X115478Y1323319D01*
X115721Y1323493D01*
X116033Y1323597D01*
X116380Y1323666D01*
X116797Y1323701D01*
X117005D01*
X117179Y1323666D01*
D02*
G37*
G36*
X33951Y1323875D02*
X34298Y1323840D01*
X34680Y1323805D01*
X35097Y1323770D01*
X36000Y1323632D01*
X36937Y1323458D01*
X37840Y1323180D01*
X38291Y1323007D01*
X38673Y1322833D01*
X38708D01*
X38777Y1322764D01*
X38881Y1322694D01*
X39055Y1322625D01*
X39263Y1322486D01*
X39472Y1322312D01*
X40027Y1321895D01*
X40305Y1321618D01*
X40617Y1321340D01*
X40965Y1320993D01*
X41277Y1320611D01*
X41624Y1320194D01*
X41937Y1319778D01*
X42249Y1319257D01*
X42562Y1318736D01*
Y1318701D01*
X42597Y1318632D01*
X42666Y1318528D01*
X42736Y1318389D01*
X42840Y1318007D01*
X42874Y1317590D01*
Y1317555D01*
Y1317416D01*
X42840Y1317243D01*
X42770Y1317034D01*
X42701Y1316757D01*
X42562Y1316479D01*
X42388Y1316201D01*
X42145Y1315923D01*
X42111Y1315889D01*
X42006Y1315819D01*
X41867Y1315715D01*
X41659Y1315611D01*
X41416Y1315472D01*
X41138Y1315368D01*
X40861Y1315298D01*
X40513Y1315264D01*
X40444D01*
X40305Y1315298D01*
X40062Y1315333D01*
X39784Y1315437D01*
X39472Y1315611D01*
X39124Y1315819D01*
X38812Y1316166D01*
X38499Y1316618D01*
X38465Y1316687D01*
X38361Y1316861D01*
X38152Y1317104D01*
X37909Y1317416D01*
X37597Y1317729D01*
X37180Y1318076D01*
X36763Y1318389D01*
X36242Y1318666D01*
X36208Y1318701D01*
X36034Y1318736D01*
X35791Y1318840D01*
X35444Y1318944D01*
X34992Y1319014D01*
X34472Y1319118D01*
X33812Y1319153D01*
X33083Y1319187D01*
X32805D01*
X32631Y1319153D01*
X32388Y1319118D01*
X32111Y1319048D01*
X31486Y1318875D01*
X31104Y1318736D01*
X30756Y1318597D01*
X30340Y1318389D01*
X29958Y1318145D01*
X29576Y1317868D01*
X29194Y1317521D01*
X28812Y1317173D01*
X28430Y1316722D01*
X28395Y1316687D01*
X28326Y1316583D01*
X28222Y1316409D01*
X28083Y1316166D01*
X27875Y1315854D01*
X27701Y1315472D01*
X27493Y1315021D01*
X27284Y1314500D01*
X27041Y1313909D01*
X26833Y1313250D01*
X26659Y1312555D01*
X26486Y1311757D01*
X26312Y1310889D01*
X26208Y1309986D01*
X26139Y1308979D01*
X26104Y1307937D01*
Y1307868D01*
Y1307694D01*
Y1307417D01*
X26139Y1307069D01*
X26173Y1306618D01*
X26208Y1306097D01*
X26277Y1305507D01*
X26381Y1304882D01*
X26486Y1304222D01*
X26625Y1303493D01*
X26833Y1302798D01*
X27041Y1302069D01*
X27284Y1301375D01*
X27562Y1300681D01*
X27909Y1299986D01*
X28291Y1299361D01*
X28326Y1299326D01*
X28395Y1299222D01*
X28500Y1299049D01*
X28673Y1298875D01*
X28916Y1298597D01*
X29159Y1298354D01*
X29472Y1298042D01*
X29819Y1297764D01*
X30166Y1297451D01*
X30618Y1297139D01*
X31069Y1296896D01*
X31555Y1296653D01*
X32076Y1296444D01*
X32631Y1296271D01*
X33187Y1296167D01*
X33812Y1296132D01*
X33986D01*
X34159Y1296167D01*
X34402Y1296201D01*
X34715Y1296236D01*
X35097Y1296306D01*
X35479Y1296410D01*
X35930Y1296549D01*
X36416Y1296722D01*
X36902Y1296965D01*
X37423Y1297243D01*
X37979Y1297556D01*
X38499Y1297937D01*
X39055Y1298389D01*
X39576Y1298910D01*
X40097Y1299500D01*
X40131Y1299535D01*
X40236Y1299639D01*
X40374Y1299778D01*
X40583Y1299951D01*
X40826Y1300090D01*
X41104Y1300229D01*
X41451Y1300333D01*
X41798Y1300368D01*
X41972D01*
X42145Y1300333D01*
X42354Y1300264D01*
X42631Y1300194D01*
X42909Y1300056D01*
X43222Y1299882D01*
X43499Y1299639D01*
X43534Y1299604D01*
X43604Y1299500D01*
X43742Y1299361D01*
X43881Y1299153D01*
X44020Y1298910D01*
X44159Y1298632D01*
X44229Y1298319D01*
X44263Y1297972D01*
Y1297937D01*
Y1297833D01*
X44229Y1297694D01*
X44194Y1297486D01*
X44124Y1297243D01*
X44020Y1297000D01*
X43881Y1296757D01*
X43673Y1296479D01*
X43638Y1296444D01*
X43569Y1296340D01*
X43430Y1296201D01*
X43291Y1296028D01*
X43083Y1295785D01*
X42805Y1295507D01*
X42215Y1294917D01*
X41520Y1294257D01*
X40756Y1293597D01*
X39923Y1293007D01*
X39506Y1292764D01*
X39090Y1292521D01*
X39055D01*
X38986Y1292486D01*
X38881Y1292417D01*
X38708Y1292347D01*
X38465Y1292278D01*
X38222Y1292174D01*
X37909Y1292070D01*
X37597Y1291965D01*
X37215Y1291861D01*
X36798Y1291757D01*
X35895Y1291583D01*
X34854Y1291445D01*
X33708Y1291410D01*
X33465D01*
X33187Y1291445D01*
X32805Y1291479D01*
X32354Y1291549D01*
X31833Y1291653D01*
X31243Y1291792D01*
X30618Y1291965D01*
X29923Y1292208D01*
X29229Y1292521D01*
X28500Y1292868D01*
X27770Y1293320D01*
X27041Y1293840D01*
X26312Y1294431D01*
X25618Y1295125D01*
X24958Y1295924D01*
X24923Y1295993D01*
X24819Y1296132D01*
X24645Y1296410D01*
X24402Y1296757D01*
X24159Y1297208D01*
X23847Y1297764D01*
X23534Y1298424D01*
X23222Y1299153D01*
X22909Y1299951D01*
X22597Y1300889D01*
X22284Y1301861D01*
X22041Y1302937D01*
X21798Y1304083D01*
X21625Y1305298D01*
X21521Y1306583D01*
X21486Y1307937D01*
Y1307972D01*
Y1308042D01*
Y1308146D01*
Y1308285D01*
Y1308493D01*
X21521Y1308736D01*
Y1308979D01*
X21555Y1309292D01*
X21590Y1309986D01*
X21694Y1310750D01*
X21798Y1311618D01*
X21972Y1312590D01*
X22180Y1313562D01*
X22423Y1314604D01*
X22736Y1315646D01*
X23118Y1316653D01*
X23569Y1317694D01*
X24090Y1318666D01*
X24680Y1319604D01*
X25375Y1320437D01*
X25409Y1320472D01*
X25514Y1320576D01*
X25687Y1320750D01*
X25930Y1320993D01*
X26243Y1321236D01*
X26625Y1321548D01*
X27041Y1321861D01*
X27527Y1322173D01*
X28083Y1322486D01*
X28673Y1322798D01*
X29298Y1323111D01*
X29993Y1323354D01*
X30687Y1323597D01*
X31451Y1323770D01*
X32250Y1323875D01*
X33083Y1323909D01*
X33673D01*
X33951Y1323875D01*
D02*
G37*
G36*
X135200Y1317937D02*
X135512Y1317903D01*
X135894Y1317833D01*
X136346Y1317764D01*
X136866Y1317625D01*
X137422Y1317451D01*
X137977Y1317208D01*
X138602Y1316930D01*
X139227Y1316583D01*
X139818Y1316166D01*
X140443Y1315680D01*
X141068Y1315125D01*
X141623Y1314465D01*
X142179Y1313701D01*
X142213Y1313666D01*
X142283Y1313528D01*
X142422Y1313319D01*
X142561Y1313041D01*
X142769Y1312659D01*
X142977Y1312243D01*
X143186Y1311757D01*
X143429Y1311201D01*
X143672Y1310576D01*
X143880Y1309882D01*
X144088Y1309153D01*
X144297Y1308354D01*
X144436Y1307555D01*
X144574Y1306687D01*
X144644Y1305750D01*
X144679Y1304812D01*
Y1304743D01*
Y1304569D01*
Y1304326D01*
X144644Y1303944D01*
X144609Y1303528D01*
X144540Y1303007D01*
X144470Y1302417D01*
X144366Y1301792D01*
X144227Y1301097D01*
X144054Y1300368D01*
X143845Y1299639D01*
X143568Y1298875D01*
X143290Y1298111D01*
X142943Y1297312D01*
X142526Y1296549D01*
X142075Y1295819D01*
X142040Y1295785D01*
X141936Y1295646D01*
X141797Y1295437D01*
X141554Y1295160D01*
X141276Y1294847D01*
X140929Y1294465D01*
X140547Y1294083D01*
X140095Y1293701D01*
X139575Y1293285D01*
X139019Y1292903D01*
X138429Y1292556D01*
X137769Y1292208D01*
X137075Y1291931D01*
X136346Y1291722D01*
X135582Y1291583D01*
X134748Y1291549D01*
X134540D01*
X134332Y1291583D01*
X134019Y1291618D01*
X133637Y1291687D01*
X133186Y1291792D01*
X132700Y1291896D01*
X132144Y1292104D01*
X131589Y1292312D01*
X130998Y1292590D01*
X130373Y1292937D01*
X129783Y1293354D01*
X129158Y1293875D01*
X128568Y1294431D01*
X127978Y1295090D01*
X127422Y1295854D01*
X127387Y1295889D01*
X127318Y1296028D01*
X127179Y1296236D01*
X127040Y1296549D01*
X126832Y1296896D01*
X126623Y1297347D01*
X126380Y1297833D01*
X126172Y1298424D01*
X125929Y1299049D01*
X125686Y1299743D01*
X125478Y1300472D01*
X125269Y1301271D01*
X125130Y1302104D01*
X124991Y1302972D01*
X124922Y1303875D01*
X124887Y1304812D01*
Y1304882D01*
Y1305055D01*
X124922Y1305298D01*
Y1305680D01*
X124957Y1306097D01*
X125026Y1306618D01*
X125096Y1307208D01*
X125234Y1307833D01*
X125373Y1308493D01*
X125547Y1309222D01*
X125755Y1309951D01*
X125998Y1310715D01*
X126311Y1311479D01*
X126658Y1312243D01*
X127075Y1313007D01*
X127526Y1313736D01*
X127561Y1313771D01*
X127665Y1313909D01*
X127839Y1314118D01*
X128047Y1314396D01*
X128325Y1314708D01*
X128672Y1315090D01*
X129089Y1315472D01*
X129540Y1315854D01*
X130026Y1316236D01*
X130582Y1316618D01*
X131172Y1317000D01*
X131797Y1317312D01*
X132491Y1317590D01*
X133186Y1317798D01*
X133950Y1317937D01*
X134748Y1317972D01*
X134957D01*
X135200Y1317937D01*
D02*
G37*
G36*
X167005Y1317972D02*
X167421Y1317868D01*
X167873Y1317694D01*
X168116Y1317590D01*
X168324Y1317416D01*
X168533Y1317208D01*
X168741Y1317000D01*
X168880Y1316687D01*
X169019Y1316375D01*
X169088Y1315993D01*
X169123Y1315576D01*
Y1315541D01*
Y1315472D01*
Y1315368D01*
X169088Y1315194D01*
X168984Y1314812D01*
X168810Y1314361D01*
X168671Y1314153D01*
X168498Y1313909D01*
X168324Y1313701D01*
X168081Y1313528D01*
X167769Y1313354D01*
X167456Y1313250D01*
X167074Y1313180D01*
X166623Y1313146D01*
X161206D01*
Y1293979D01*
Y1293945D01*
Y1293875D01*
Y1293771D01*
X161172Y1293597D01*
X161067Y1293215D01*
X160894Y1292764D01*
X160790Y1292556D01*
X160616Y1292312D01*
X160408Y1292104D01*
X160199Y1291931D01*
X159887Y1291757D01*
X159574Y1291653D01*
X159192Y1291583D01*
X158776Y1291549D01*
X158567D01*
X158394Y1291583D01*
X158012Y1291687D01*
X157595Y1291861D01*
X157352Y1291965D01*
X157144Y1292139D01*
X156936Y1292347D01*
X156762Y1292590D01*
X156588Y1292868D01*
X156484Y1293181D01*
X156415Y1293562D01*
X156380Y1293979D01*
Y1313146D01*
X150686D01*
X150512Y1313180D01*
X150130Y1313284D01*
X149713Y1313458D01*
X149470Y1313562D01*
X149262Y1313736D01*
X149054Y1313944D01*
X148880Y1314187D01*
X148706Y1314465D01*
X148602Y1314778D01*
X148533Y1315159D01*
X148498Y1315576D01*
Y1315611D01*
Y1315680D01*
Y1315784D01*
X148533Y1315958D01*
X148637Y1316340D01*
X148811Y1316791D01*
X148915Y1317034D01*
X149088Y1317243D01*
X149262Y1317451D01*
X149505Y1317625D01*
X149783Y1317798D01*
X150095Y1317903D01*
X150477Y1317972D01*
X150894Y1318007D01*
X166866D01*
X167005Y1317972D01*
D02*
G37*
%LPC*%
G36*
X60617Y1318944D02*
X54819D01*
Y1310542D01*
X61277D01*
X61555Y1310576D01*
X61867Y1310611D01*
X62249Y1310680D01*
X62666Y1310750D01*
X63117Y1310889D01*
X63603Y1311062D01*
X64089Y1311271D01*
X64541Y1311548D01*
X64957Y1311896D01*
X65339Y1312278D01*
X65687Y1312764D01*
X65930Y1313319D01*
X66069Y1313944D01*
X66138Y1314673D01*
Y1314708D01*
Y1314778D01*
Y1314882D01*
X66103Y1315021D01*
X66069Y1315368D01*
X65964Y1315854D01*
X65791Y1316340D01*
X65513Y1316861D01*
X65166Y1317382D01*
X64680Y1317833D01*
X64610Y1317868D01*
X64402Y1318007D01*
X64089Y1318180D01*
X63638Y1318389D01*
X63048Y1318597D01*
X62353Y1318770D01*
X61555Y1318909D01*
X60617Y1318944D01*
D02*
G37*
G36*
X8222Y1318979D02*
X618D01*
Y1311271D01*
X9090D01*
X9229Y1311305D01*
X9437Y1311340D01*
X9680Y1311375D01*
X9958Y1311479D01*
X10236Y1311583D01*
X10514Y1311722D01*
X10791Y1311930D01*
X11104Y1312173D01*
X11347Y1312451D01*
X11590Y1312798D01*
X11798Y1313215D01*
X11937Y1313701D01*
X12041Y1314291D01*
X12076Y1314916D01*
Y1314951D01*
Y1315090D01*
X12041Y1315298D01*
X12007Y1315541D01*
X11972Y1315854D01*
X11868Y1316201D01*
X11764Y1316583D01*
X11590Y1316965D01*
X11382Y1317312D01*
X11139Y1317694D01*
X10826Y1318041D01*
X10444Y1318354D01*
X9993Y1318597D01*
X9507Y1318805D01*
X8917Y1318944D01*
X8222Y1318979D01*
D02*
G37*
G36*
X134748Y1313354D02*
X134505D01*
X134332Y1313319D01*
X134123Y1313284D01*
X133880Y1313215D01*
X133325Y1313007D01*
X133012Y1312868D01*
X132700Y1312694D01*
X132353Y1312451D01*
X132040Y1312208D01*
X131693Y1311896D01*
X131380Y1311514D01*
X131068Y1311097D01*
X130755Y1310611D01*
Y1310576D01*
X130686Y1310507D01*
X130651Y1310368D01*
X130547Y1310194D01*
X130443Y1309951D01*
X130339Y1309673D01*
X130234Y1309326D01*
X130096Y1308979D01*
X129957Y1308562D01*
X129853Y1308111D01*
X129748Y1307660D01*
X129644Y1307139D01*
X129505Y1306028D01*
X129436Y1304812D01*
Y1304778D01*
Y1304673D01*
Y1304500D01*
X129471Y1304257D01*
Y1303944D01*
X129505Y1303597D01*
X129540Y1303215D01*
X129609Y1302798D01*
X129748Y1301896D01*
X129991Y1300889D01*
X130304Y1299917D01*
X130755Y1298944D01*
X130790Y1298910D01*
X130825Y1298840D01*
X130894Y1298701D01*
X131033Y1298528D01*
X131346Y1298076D01*
X131797Y1297590D01*
X132387Y1297069D01*
X133047Y1296618D01*
X133429Y1296444D01*
X133846Y1296306D01*
X134297Y1296236D01*
X134748Y1296201D01*
X134852D01*
X134991Y1296236D01*
X135165D01*
X135373Y1296271D01*
X135616Y1296340D01*
X136207Y1296549D01*
X136519Y1296687D01*
X136832Y1296861D01*
X137179Y1297104D01*
X137491Y1297347D01*
X137838Y1297660D01*
X138151Y1298042D01*
X138463Y1298458D01*
X138741Y1298944D01*
Y1298979D01*
X138811Y1299049D01*
X138880Y1299187D01*
X138950Y1299396D01*
X139054Y1299639D01*
X139193Y1299917D01*
X139297Y1300229D01*
X139436Y1300611D01*
X139575Y1301028D01*
X139679Y1301479D01*
X139922Y1302486D01*
X140061Y1303597D01*
X140130Y1304812D01*
Y1304847D01*
Y1304951D01*
Y1305160D01*
X140095Y1305403D01*
Y1305680D01*
X140061Y1306028D01*
X140026Y1306410D01*
X139957Y1306826D01*
X139818Y1307729D01*
X139575Y1308701D01*
X139262Y1309673D01*
X138845Y1310611D01*
Y1310646D01*
X138776Y1310715D01*
X138707Y1310854D01*
X138568Y1311028D01*
X138255Y1311479D01*
X137804Y1312000D01*
X137213Y1312486D01*
X136519Y1312937D01*
X136102Y1313111D01*
X135686Y1313250D01*
X135234Y1313319D01*
X134748Y1313354D01*
D02*
G37*
G36*
X60791Y1305819D02*
X54819D01*
Y1296757D01*
X61242D01*
X61520Y1296792D01*
X61867Y1296826D01*
X62284Y1296896D01*
X62770Y1297000D01*
X63256Y1297139D01*
X63777Y1297312D01*
X64298Y1297556D01*
X64784Y1297833D01*
X65270Y1298181D01*
X65687Y1298632D01*
X66034Y1299118D01*
X66312Y1299708D01*
X66485Y1300403D01*
X66555Y1301167D01*
Y1301236D01*
Y1301375D01*
X66520Y1301583D01*
X66451Y1301896D01*
X66381Y1302243D01*
X66242Y1302625D01*
X66069Y1303076D01*
X65826Y1303493D01*
X65513Y1303944D01*
X65166Y1304361D01*
X64680Y1304743D01*
X64124Y1305090D01*
X63464Y1305403D01*
X62701Y1305611D01*
X61798Y1305785D01*
X60791Y1305819D01*
D02*
G37*
%LPD*%
D49*
X1350000Y150000D02*
Y175000D01*
X1625000D01*
Y50000D02*
Y175000D01*
X1350000Y50000D02*
X1625000D01*
X1350000D02*
Y150000D01*
X75000Y105000D02*
X110000D01*
Y150000D01*
X75000D02*
X110000D01*
X75000Y105000D02*
Y150000D01*
X550000Y450000D02*
Y650000D01*
Y450000D02*
X850000D01*
Y650000D01*
X550000D02*
X850000D01*
M02*
