M48
;Layer_Color=9474304
;FILE_FORMAT=4:4
METRIC,LZ
;TYPE=PLATED
T1F00S00C0.3000
T2F00S00C0.9000
T3F00S00C1.0900
T4F00S00C1.4000
T5F00S00C3.2000
T6F00S00C3.2600
%
T01
X00302Y002025
X00311Y00202
X0032Y002015
X00334Y00214
X00344Y00222
X00341Y00248
Y00278
X00336Y00311
X003Y00301
X003Y00288
X00332Y00417
X00339Y00412602
X00367Y00413
X00375
X00468Y00386
X00641Y00375
X00659Y00312
X00683145Y00320855
X00696Y00304
X00743145Y00313145
X00747702Y00334302
X00722302
X00683Y00245
X00654Y00248
X00654Y00218
X00621Y0019
X0061Y002
X0071Y00179
X00722
X00735
X009Y00198
X00911
X00922
X00945Y00186
Y00216
X0098535Y0023435
X00998Y00186
X01035Y00198
X01046
X01057
X01135Y00219
X01122Y00116
X01111
X011
X01004Y00299
X00991Y00298997
X00978
X00965Y00299
X00952
X00989Y00324
X00997Y00428
X00823902Y00362498
X00798502
X00773102Y00386302
X01146Y00311
X01162Y00316
X01203Y003
X01176Y00268
X01216Y00116
X01227
X01238
X01236Y00098
X0147Y00421
X0148
X01463Y00575
X01451Y00585
X01456Y00632
X01469
X0153Y00622
X01515Y00597
X01493Y00775
X01482Y00785
X01503Y00795
X00823998Y00794998
X00815Y00785
X00834998Y00774998
X008005Y007398
X007905
X007805
X007605
X00753Y00708
X00769
X00783
X00786Y00719
X00801
X01011Y00513
X01023
X01036
X01048
X01023646Y00462646
X00997Y00457
X00533Y00435
X00419598Y00463402
X00366Y00463
X00369Y00489
X00367Y00565
X0039
X00376Y0059
X00431999Y00589999
X004454Y006036
X00438999Y00615999
X00474Y00628
X00453Y00651
X00448Y00659
X00425Y00677
X00432Y00686
X00438999Y00691999
X00439Y00718
X00454Y0073
X00463Y00705
X00432Y00743
X00443Y00756
X00425Y00768202
X00382Y00777
X0039Y00819
X00367
Y00692
X0039
X00536Y00764
X00609
X00599Y0075
Y00741
X00625
X00635
X00629Y0075
X00655499Y007398
X00663Y00745
X00670501Y007398
X00680501
X00690501
X00700501
X00720501
X00740501
X00737999Y00707999
X00722Y00708
X00708
X00695
X00679999Y00709999
X00673Y00716
X00469602Y00539602
X00488Y00832
X00495Y00844803
X00473Y00858
X00481Y0087
X00458Y00883
X00466Y00895
X0039Y00946
X00367
X00485Y01036
X00494
X00503
X00542999Y00979998
X00558Y00971
X00583Y00991
X00598Y00999
X00597998Y008335
X00583Y00833
X00557998Y008335
X00543Y00833
X00848Y00932
X00856Y00936
X0086Y00954
X00882Y00903
X00913Y00877
X00982Y00861
X00991998Y00860998
X01022002Y00958002
X01014802Y00969002
X01046Y00972
X0106Y00984
X0105Y01032
X01033
X00977Y01034
X00964
X00951
X01001Y01097
X0104Y01132
T02
X01057Y000223
Y000477
T03
X0065845Y001308
X0068615
X0071385
X0074155
X007277Y001592
X007
X006723
X006446
X007554
T04
X00930001Y0008
X00965
X01000001
X01130001
X01165
X01200001
T05
X01818Y00032
X00032
X00132Y00342
X01268
X00132Y01118
X00032Y01218
X01268Y01118
X01818Y01218
T06
X0057505Y00145
X0082495
M30
