G04 Layer_Physical_Order=1*
G04 Layer_Color=3162822*
%FSLAX44Y44*%
%MOMM*%
G71*
G01*
G75*
%ADD10C,1.0000*%
%ADD11C,1.0000*%
%ADD12C,0.8000*%
%ADD13C,0.4500*%
%ADD14C,0.2500*%
%ADD15C,0.3500*%
%ADD16C,6.0000*%
%ADD17R,1.5000X1.5000*%
%ADD18C,1.5000*%
%ADD19C,1.9000*%
%ADD20R,1.9000X1.9000*%
%ADD21C,4.7600*%
%ADD22R,1.6900X1.6900*%
%ADD23C,1.6900*%
%ADD24C,0.6000*%
G36*
X1790140Y1246808D02*
X1789628Y1246372D01*
X1785539Y1241584D01*
X1782249Y1236216D01*
X1779840Y1230399D01*
X1778370Y1224277D01*
X1777876Y1218000D01*
X1778370Y1211723D01*
X1779840Y1205601D01*
X1782249Y1199784D01*
X1785539Y1194416D01*
X1789628Y1189628D01*
X1794416Y1185539D01*
X1799784Y1182250D01*
X1805601Y1179840D01*
X1811723Y1178370D01*
X1818000Y1177876D01*
X1824277Y1178370D01*
X1830399Y1179840D01*
X1836216Y1182250D01*
X1841584Y1185539D01*
X1846372Y1189628D01*
X1846808Y1190140D01*
X1848000Y1189700D01*
Y60300D01*
X1846808Y59860D01*
X1846372Y60372D01*
X1841584Y64461D01*
X1836216Y67751D01*
X1830399Y70160D01*
X1824277Y71630D01*
X1818000Y72124D01*
X1811723Y71630D01*
X1805601Y70160D01*
X1799784Y67751D01*
X1794416Y64461D01*
X1789628Y60372D01*
X1785539Y55584D01*
X1782249Y50216D01*
X1779840Y44399D01*
X1778370Y38277D01*
X1777876Y32000D01*
X1778370Y25723D01*
X1779840Y19601D01*
X1782249Y13784D01*
X1785539Y8416D01*
X1789628Y3628D01*
X1790140Y3192D01*
X1789700Y2000D01*
X60300D01*
X59860Y3192D01*
X60372Y3628D01*
X64461Y8416D01*
X67751Y13784D01*
X70160Y19601D01*
X71630Y25723D01*
X72124Y32000D01*
X71630Y38277D01*
X70160Y44399D01*
X67751Y50216D01*
X64461Y55584D01*
X60372Y60372D01*
X55584Y64461D01*
X50216Y67751D01*
X44399Y70160D01*
X38277Y71630D01*
X32000Y72124D01*
X25723Y71630D01*
X19601Y70160D01*
X13784Y67751D01*
X8416Y64461D01*
X3628Y60372D01*
X3192Y59860D01*
X2000Y60300D01*
Y1189700D01*
X3192Y1190140D01*
X3628Y1189628D01*
X8416Y1185539D01*
X13784Y1182250D01*
X19601Y1179840D01*
X25723Y1178370D01*
X32000Y1177876D01*
X38277Y1178370D01*
X44399Y1179840D01*
X50216Y1182250D01*
X55584Y1185539D01*
X60372Y1189628D01*
X64461Y1194416D01*
X67751Y1199784D01*
X70160Y1205601D01*
X71630Y1211723D01*
X72124Y1218000D01*
X71630Y1224277D01*
X70160Y1230399D01*
X67751Y1236216D01*
X64461Y1241584D01*
X60372Y1246372D01*
X59860Y1246808D01*
X60300Y1248000D01*
X1789700D01*
X1790140Y1246808D01*
D02*
G37*
%LPC*%
G36*
X30000Y1167565D02*
X28042Y1167307D01*
X26218Y1166551D01*
X24651Y1165349D01*
X23449Y1163782D01*
X22693Y1161958D01*
X22435Y1160000D01*
X22693Y1158042D01*
X23449Y1156218D01*
X24651Y1154651D01*
X26218Y1153449D01*
X28042Y1152693D01*
X30000Y1152435D01*
X31958Y1152693D01*
X33782Y1153449D01*
X35349Y1154651D01*
X36551Y1156218D01*
X37307Y1158042D01*
X37565Y1160000D01*
X37307Y1161958D01*
X36551Y1163782D01*
X35349Y1165349D01*
X33782Y1166551D01*
X31958Y1167307D01*
X30000Y1167565D01*
D02*
G37*
G36*
X1268000Y1158124D02*
X1261723Y1157630D01*
X1255601Y1156160D01*
X1249784Y1153751D01*
X1244416Y1150461D01*
X1239629Y1146372D01*
X1235539Y1141584D01*
X1232250Y1136216D01*
X1229840Y1130399D01*
X1228371Y1124277D01*
X1227877Y1118000D01*
X1228371Y1111723D01*
X1229840Y1105601D01*
X1232250Y1099784D01*
X1235539Y1094416D01*
X1239629Y1089628D01*
X1244416Y1085539D01*
X1249784Y1082250D01*
X1255601Y1079840D01*
X1261723Y1078370D01*
X1268000Y1077876D01*
X1274277Y1078370D01*
X1280399Y1079840D01*
X1286216Y1082250D01*
X1291584Y1085539D01*
X1296372Y1089628D01*
X1300461Y1094416D01*
X1303751Y1099784D01*
X1306160Y1105601D01*
X1307630Y1111723D01*
X1308124Y1118000D01*
X1307630Y1124277D01*
X1306160Y1130399D01*
X1303751Y1136216D01*
X1300461Y1141584D01*
X1296372Y1146372D01*
X1291584Y1150461D01*
X1286216Y1153751D01*
X1280399Y1156160D01*
X1274277Y1157630D01*
X1268000Y1158124D01*
D02*
G37*
G36*
X132000D02*
X125723Y1157630D01*
X119601Y1156160D01*
X113784Y1153751D01*
X108416Y1150461D01*
X103628Y1146372D01*
X99539Y1141584D01*
X96250Y1136216D01*
X93840Y1130399D01*
X92370Y1124277D01*
X91876Y1118000D01*
X92370Y1111723D01*
X93840Y1105601D01*
X96250Y1099784D01*
X99539Y1094416D01*
X103628Y1089628D01*
X108416Y1085539D01*
X113784Y1082250D01*
X119601Y1079840D01*
X125723Y1078370D01*
X132000Y1077876D01*
X138277Y1078370D01*
X144399Y1079840D01*
X150216Y1082250D01*
X155584Y1085539D01*
X160372Y1089628D01*
X164461Y1094416D01*
X167750Y1099784D01*
X170160Y1105601D01*
X171630Y1111723D01*
X172124Y1118000D01*
X171630Y1124277D01*
X170160Y1130399D01*
X167750Y1136216D01*
X164461Y1141584D01*
X160372Y1146372D01*
X155584Y1150461D01*
X150216Y1153751D01*
X144399Y1156160D01*
X138277Y1157630D01*
X132000Y1158124D01*
D02*
G37*
G36*
X598000Y1008834D02*
X595455Y1008499D01*
X593083Y1007517D01*
X591046Y1005954D01*
X591045Y1005952D01*
X589482Y1003915D01*
X588499Y1001544D01*
X588388Y1000696D01*
X587579Y1000059D01*
X587001Y999896D01*
X585545Y1000499D01*
X583000Y1000834D01*
X580455Y1000499D01*
X578083Y999517D01*
X576046Y997954D01*
X574483Y995917D01*
X573501Y993545D01*
X573166Y991000D01*
X573166Y991000D01*
Y855000D01*
X573501Y852455D01*
X574483Y850083D01*
X576046Y848046D01*
X578083Y846483D01*
X580455Y845501D01*
X583000Y845166D01*
X585545Y845501D01*
X587917Y846483D01*
X589874Y847985D01*
X590989Y848546D01*
X591045D01*
X593081Y846983D01*
X595453Y846001D01*
X597998Y845666D01*
X600544Y846001D01*
X602915Y846983D01*
X604952Y848546D01*
X606515Y850583D01*
X607497Y852955D01*
X607832Y855500D01*
Y998988D01*
X607834Y999000D01*
X607499Y1001545D01*
X606517Y1003917D01*
X604954Y1005954D01*
X602917Y1007517D01*
X600545Y1008499D01*
X598000Y1008834D01*
D02*
G37*
G36*
X1040000Y1142338D02*
X1037324Y1141986D01*
X1034831Y1140953D01*
X1032690Y1139310D01*
X1031047Y1137169D01*
X1030014Y1134676D01*
X1029662Y1132000D01*
Y1004000D01*
X1030014Y1001324D01*
X1031047Y998831D01*
X1032690Y996690D01*
X1052690Y976690D01*
X1054831Y975047D01*
X1057324Y974014D01*
X1057797Y973952D01*
X1058205Y972749D01*
X1056569Y971112D01*
X1027636D01*
X1027467Y972395D01*
X1026157Y975558D01*
X1024073Y978273D01*
X1021358Y980357D01*
X1018195Y981667D01*
X1014802Y982114D01*
X1011408Y981667D01*
X1008246Y980357D01*
X1005530Y978273D01*
X1003606Y975767D01*
X1002337Y975950D01*
Y1026002D01*
X1001984Y1028678D01*
X1000951Y1031171D01*
X999308Y1033312D01*
X984310Y1048310D01*
X982169Y1049953D01*
X979676Y1050986D01*
X977000Y1051338D01*
X975293Y1051114D01*
X974338Y1051951D01*
Y1086662D01*
X1001000D01*
X1003676Y1087014D01*
X1006169Y1088047D01*
X1008310Y1089690D01*
X1009953Y1091831D01*
X1010986Y1094324D01*
X1011338Y1097000D01*
X1010986Y1099676D01*
X1009953Y1102169D01*
X1008310Y1104310D01*
X1006169Y1105953D01*
X1003676Y1106986D01*
X1001000Y1107338D01*
X970000D01*
X967324Y1106986D01*
X964831Y1105953D01*
X962690Y1104310D01*
X956690Y1098310D01*
X955047Y1096169D01*
X954014Y1093676D01*
X953662Y1091000D01*
Y1051951D01*
X952707Y1051114D01*
X951000Y1051338D01*
X948324Y1050986D01*
X945831Y1049953D01*
X943690Y1048310D01*
X942047Y1046169D01*
X941014Y1043676D01*
X940662Y1041000D01*
Y1035000D01*
X941014Y1032324D01*
X942047Y1029831D01*
X943690Y1027690D01*
X949690Y1021690D01*
X951831Y1020047D01*
X954324Y1019014D01*
X957000Y1018662D01*
X971662D01*
Y861000D01*
X972014Y858324D01*
X973047Y855831D01*
X974690Y853690D01*
X976831Y852047D01*
X979324Y851014D01*
X982000Y850662D01*
X984676Y851014D01*
X986997Y851975D01*
X989322Y851012D01*
X991998Y850660D01*
X994674Y851012D01*
X997167Y852045D01*
X999308Y853688D01*
X1000951Y855829D01*
X1001984Y858323D01*
X1002337Y860998D01*
Y958096D01*
X1002785Y958318D01*
X1003606Y958437D01*
X1005530Y955930D01*
X1012730Y948730D01*
X1012730Y948730D01*
X1012731Y948728D01*
X1012731Y948728D01*
X1015447Y946645D01*
X1018610Y945335D01*
X1022003Y944888D01*
X1022003Y944888D01*
X1025888D01*
Y839112D01*
X642112D01*
Y1021000D01*
X642112Y1021000D01*
X641665Y1024394D01*
X640356Y1027556D01*
X638272Y1030272D01*
X623272Y1045272D01*
X620556Y1047355D01*
X617394Y1048665D01*
X614000Y1049112D01*
X614000Y1049112D01*
X339000D01*
X335606Y1048665D01*
X332444Y1047355D01*
X329728Y1045272D01*
X329728Y1045272D01*
X318728Y1034272D01*
X316644Y1031556D01*
X315335Y1028394D01*
X314888Y1025000D01*
X314888Y1025000D01*
Y421000D01*
X314888Y421000D01*
X315335Y417606D01*
X316644Y414444D01*
X318728Y411728D01*
X322728Y407728D01*
X322728Y407728D01*
X326728Y403728D01*
X326728Y403728D01*
X329444Y401645D01*
X332606Y400335D01*
X336000Y399888D01*
X591888D01*
Y386053D01*
X590933Y385216D01*
X590000Y385338D01*
X587324Y384986D01*
X584831Y383953D01*
X582690Y382310D01*
X581047Y380169D01*
X580014Y377676D01*
X579662Y375000D01*
Y201865D01*
X571135Y193338D01*
X479000D01*
X476324Y192986D01*
X473831Y191953D01*
X471690Y190310D01*
X464690Y183310D01*
X463047Y181169D01*
X462014Y178676D01*
X461662Y176000D01*
Y162000D01*
X462014Y159324D01*
X463047Y156831D01*
X464690Y154690D01*
X466831Y153047D01*
X469324Y152014D01*
X472000Y151662D01*
X474676Y152014D01*
X477169Y153047D01*
X479310Y154690D01*
X480953Y156831D01*
X481986Y159324D01*
X482338Y162000D01*
Y171718D01*
X483282Y172662D01*
X556989D01*
X557333Y171439D01*
X556301Y170806D01*
X552495Y167556D01*
X549244Y163749D01*
X546628Y159481D01*
X544713Y154857D01*
X543544Y149990D01*
X543152Y145000D01*
X543544Y140010D01*
X544713Y135143D01*
X546628Y130519D01*
X549244Y126251D01*
X552495Y122444D01*
X556301Y119194D01*
X560569Y116578D01*
X565193Y114663D01*
X570060Y113494D01*
X575050Y113102D01*
X580040Y113494D01*
X584907Y114663D01*
X589532Y116578D01*
X593799Y119194D01*
X597606Y122444D01*
X600856Y126251D01*
X603472Y130519D01*
X605387Y135143D01*
X606556Y140010D01*
X606948Y145000D01*
X606556Y149990D01*
X605387Y154857D01*
X603472Y159481D01*
X600856Y163749D01*
X597606Y167556D01*
X593799Y170806D01*
X589532Y173422D01*
X584907Y175337D01*
X584129Y175524D01*
X583784Y176746D01*
X597310Y190273D01*
X598953Y192414D01*
X599986Y194907D01*
X600033Y195265D01*
X601337Y195437D01*
X601483Y195083D01*
X603046Y193046D01*
X605083Y191483D01*
X607455Y190501D01*
X609908Y190178D01*
X611166Y190000D01*
X611501Y187455D01*
X612483Y185083D01*
X614046Y183046D01*
X616083Y181483D01*
X618455Y180501D01*
X621000Y180166D01*
X665599D01*
X666085Y178993D01*
X665346Y178254D01*
X663783Y176217D01*
X662801Y173845D01*
X662633Y172573D01*
X662466Y171300D01*
X662466Y171300D01*
Y164072D01*
X661632Y162059D01*
X661255Y159200D01*
X661632Y156341D01*
X662735Y153678D01*
X664490Y151390D01*
X666778Y149635D01*
X669442Y148532D01*
X672300Y148155D01*
X675158Y148532D01*
X677822Y149635D01*
X680110Y151390D01*
X681865Y153678D01*
X682968Y156341D01*
X683344Y159200D01*
X682968Y162059D01*
X682134Y164072D01*
Y167227D01*
X684073Y169166D01*
X692914D01*
X693345Y167896D01*
X692190Y167010D01*
X690435Y164722D01*
X689332Y162059D01*
X688956Y159200D01*
X689332Y156341D01*
X690435Y153678D01*
X692190Y151390D01*
X694478Y149635D01*
X697141Y148532D01*
X700000Y148155D01*
X702859Y148532D01*
X705522Y149635D01*
X707810Y151390D01*
X709565Y153678D01*
X710668Y156341D01*
X711044Y159200D01*
X710668Y162059D01*
X709565Y164722D01*
X707810Y167010D01*
X706655Y167896D01*
X707086Y169166D01*
X710000D01*
X712545Y169501D01*
X714917Y170483D01*
X716000Y171314D01*
X717083Y170483D01*
X719455Y169501D01*
X720817Y169322D01*
X721173Y167994D01*
X719890Y167010D01*
X718135Y164722D01*
X717032Y162059D01*
X716656Y159200D01*
X717032Y156341D01*
X718135Y153678D01*
X719890Y151390D01*
X722178Y149635D01*
X724842Y148532D01*
X727700Y148155D01*
X730558Y148532D01*
X733222Y149635D01*
X735510Y151390D01*
X737265Y153678D01*
X738368Y156341D01*
X738744Y159200D01*
X738368Y162059D01*
X737265Y164722D01*
X735510Y167010D01*
X734238Y167985D01*
X734741Y169200D01*
X735000Y169166D01*
X737545Y169501D01*
X739917Y170483D01*
X741954Y172046D01*
X743517Y174083D01*
X744499Y176455D01*
X744834Y179000D01*
Y185000D01*
X744834Y185000D01*
X744499Y187545D01*
X743517Y189917D01*
X741954Y191954D01*
X741954Y191954D01*
X730193Y203715D01*
X730679Y204888D01*
X1093000D01*
X1093000Y204888D01*
X1096394Y205335D01*
X1099556Y206644D01*
X1102272Y208728D01*
X1118272Y224728D01*
X1118272Y224728D01*
X1120356Y227444D01*
X1121665Y230606D01*
X1122112Y234000D01*
Y254888D01*
X1176000D01*
X1179394Y255335D01*
X1182556Y256644D01*
X1185272Y258728D01*
X1187355Y261444D01*
X1188665Y264606D01*
X1189112Y268000D01*
X1188665Y271394D01*
X1187355Y274556D01*
X1185272Y277272D01*
X1182556Y279356D01*
X1179394Y280665D01*
X1176000Y281112D01*
X1115000D01*
X1115000Y281112D01*
X1111606Y280665D01*
X1108444Y279356D01*
X1105728Y277272D01*
X1105728Y277272D01*
X1099728Y271272D01*
X1097645Y268556D01*
X1096335Y265394D01*
X1095888Y262000D01*
X1095888Y262000D01*
Y239431D01*
X1087569Y231112D01*
X995804D01*
X994925Y232382D01*
X995184Y234350D01*
Y273650D01*
X994849Y276195D01*
X993867Y278567D01*
X992304Y280604D01*
X992304Y280604D01*
X974834Y298073D01*
Y320000D01*
X974569Y322014D01*
X975772Y322607D01*
X981690Y316690D01*
X983831Y315047D01*
X986324Y314014D01*
X989000Y313662D01*
X991676Y314014D01*
X993110Y314608D01*
X994166Y313902D01*
Y299000D01*
X994501Y296455D01*
X995483Y294083D01*
X997046Y292046D01*
X999083Y290483D01*
X1001455Y289501D01*
X1004000Y289166D01*
X1006545Y289501D01*
X1008917Y290483D01*
X1010954Y292046D01*
X1012517Y294083D01*
X1013499Y296455D01*
X1013834Y299000D01*
Y325000D01*
X1013834Y325000D01*
X1013499Y327545D01*
X1012517Y329917D01*
X1010954Y331954D01*
X1010954Y331954D01*
X983954Y358954D01*
X981917Y360517D01*
X979545Y361499D01*
X978273Y361667D01*
X977000Y361834D01*
X977000Y361834D01*
X839518D01*
X839032Y363008D01*
X840686Y364662D01*
X1120000D01*
X1122676Y365014D01*
X1125169Y366047D01*
X1127310Y367690D01*
X1157282Y397662D01*
X1475000D01*
X1477676Y398014D01*
X1480169Y399047D01*
X1482310Y400690D01*
X1487310Y405689D01*
X1488953Y407831D01*
X1489986Y410324D01*
X1490338Y413000D01*
Y421000D01*
X1489986Y423676D01*
X1488953Y426169D01*
X1487310Y428310D01*
X1485169Y429953D01*
X1482676Y430986D01*
X1480000Y431338D01*
X1477324Y430986D01*
X1475000Y430023D01*
X1472676Y430986D01*
X1470000Y431338D01*
X1467324Y430986D01*
X1464831Y429953D01*
X1462690Y428310D01*
X1461718Y427338D01*
X1149272D01*
X1146596Y426986D01*
X1144103Y425953D01*
X1141962Y424310D01*
X1111990Y394338D01*
X820004D01*
X817328Y393986D01*
X814835Y392953D01*
X812693Y391310D01*
X791191Y369809D01*
X789548Y367667D01*
X788813Y365891D01*
X787342Y365565D01*
X782936Y369972D01*
Y386302D01*
X782601Y388847D01*
X781618Y391219D01*
X780056Y393256D01*
X778019Y394818D01*
X775647Y395801D01*
X773102Y396136D01*
X770557Y395801D01*
X768185Y394818D01*
X766148Y393256D01*
X764585Y391219D01*
X763603Y388847D01*
X763268Y386302D01*
Y369512D01*
X762094Y369026D01*
X748810Y382310D01*
X746669Y383953D01*
X744176Y384986D01*
X741500Y385338D01*
X641000D01*
X638324Y384986D01*
X635831Y383953D01*
X633690Y382310D01*
X632047Y380169D01*
X631014Y377676D01*
X630662Y375000D01*
X631014Y372324D01*
X632047Y369831D01*
X633690Y367690D01*
X635831Y366047D01*
X638324Y365014D01*
X641000Y364662D01*
X737218D01*
X756570Y345309D01*
X756084Y344136D01*
X747702D01*
X745157Y343801D01*
X742785Y342818D01*
X740748Y341256D01*
X739185Y339219D01*
X738203Y336847D01*
X737938Y334834D01*
X735677D01*
X729256Y341256D01*
X727219Y342818D01*
X724847Y343801D01*
X722302Y344136D01*
X719757Y343801D01*
X717385Y342818D01*
X715348Y341256D01*
X713785Y339219D01*
X712803Y336847D01*
X712468Y334302D01*
X712803Y331757D01*
X713785Y329385D01*
X715348Y327348D01*
X724650Y318046D01*
X724650Y318046D01*
X726687Y316483D01*
X729058Y315501D01*
X731604Y315166D01*
X942166D01*
Y299000D01*
X942501Y296455D01*
X943483Y294083D01*
X945046Y292046D01*
X947083Y290483D01*
X949455Y289501D01*
X952000Y289166D01*
X954545Y289501D01*
X956052Y290125D01*
X956483Y289083D01*
X958046Y287046D01*
X975516Y269576D01*
Y234350D01*
X975775Y232382D01*
X974896Y231112D01*
X618112D01*
Y399888D01*
X958000D01*
X958000Y399888D01*
X961394Y400335D01*
X964556Y401645D01*
X967272Y403728D01*
X976772Y413228D01*
X976772Y413228D01*
X978856Y415944D01*
X980165Y419106D01*
X980612Y422500D01*
Y443888D01*
X997000D01*
X1000394Y444335D01*
X1003556Y445644D01*
X1006272Y447728D01*
X1008355Y450444D01*
X1009665Y453606D01*
X1010112Y457000D01*
X1009665Y460394D01*
X1008355Y463556D01*
X1006272Y466272D01*
X1003556Y468355D01*
X1000394Y469665D01*
X997000Y470112D01*
X974000D01*
X970606Y469665D01*
X967444Y468355D01*
X964728Y466272D01*
X964728Y466272D01*
X958228Y459772D01*
X956144Y457056D01*
X954835Y453894D01*
X954388Y450500D01*
X954388Y450500D01*
Y427931D01*
X952569Y426112D01*
X540230D01*
X539822Y427315D01*
X540310Y427690D01*
X541953Y429831D01*
X542986Y432324D01*
X543338Y435000D01*
X542986Y437676D01*
X541953Y440169D01*
X540310Y442310D01*
X524310Y458310D01*
X522169Y459953D01*
X519676Y460986D01*
X517000Y461338D01*
X382282D01*
X373310Y470310D01*
X371169Y471953D01*
X368676Y472986D01*
X366000Y473338D01*
X363324Y472986D01*
X360831Y471953D01*
X358690Y470310D01*
X357047Y468169D01*
X356014Y465676D01*
X355662Y463000D01*
X356014Y460324D01*
X357047Y457831D01*
X358690Y455690D01*
X370690Y443690D01*
X372831Y442047D01*
X375324Y441014D01*
X378000Y440662D01*
X512718D01*
X525690Y427690D01*
X526178Y427315D01*
X525770Y426112D01*
X341431D01*
X341272Y426272D01*
X341272Y426272D01*
X341112Y426431D01*
Y1019569D01*
X344431Y1022888D01*
X608569D01*
X615888Y1015569D01*
Y826000D01*
Y771975D01*
X614618Y771349D01*
X613665Y772080D01*
X611415Y773012D01*
X609000Y773330D01*
X536000D01*
X533585Y773012D01*
X532999Y772769D01*
X532199Y773812D01*
X533080Y774960D01*
X534012Y777210D01*
X534330Y779625D01*
Y782375D01*
X534012Y784790D01*
X533303Y786500D01*
X534012Y788210D01*
X534330Y790625D01*
Y793375D01*
X534012Y795790D01*
X533303Y797500D01*
X534012Y799210D01*
X534330Y801625D01*
Y804375D01*
X534012Y806790D01*
X533303Y808500D01*
X534012Y810210D01*
X534330Y812625D01*
Y815375D01*
X534012Y817790D01*
X533080Y820040D01*
X531597Y821972D01*
X530222Y823347D01*
X529330Y824032D01*
Y825000D01*
X529012Y827415D01*
X528080Y829665D01*
X526597Y831597D01*
X519597Y838597D01*
X517665Y840080D01*
X515415Y841012D01*
X513000Y841330D01*
X509966D01*
X509080Y843468D01*
X507597Y845400D01*
X502401Y850597D01*
X500468Y852080D01*
X498218Y853012D01*
X495803Y853330D01*
X493389Y853012D01*
X492615Y852691D01*
X491208Y853483D01*
X491137Y853942D01*
X500597Y863403D01*
X502080Y865335D01*
X503012Y867585D01*
X503330Y870000D01*
X503012Y872415D01*
X502080Y874665D01*
X500597Y876597D01*
X498665Y878080D01*
X496415Y879012D01*
X494000Y879330D01*
X491585Y879012D01*
X489335Y878080D01*
X487403Y876597D01*
X476850Y866044D01*
X475580Y866570D01*
Y875385D01*
X488597Y888403D01*
X490080Y890335D01*
X491012Y892585D01*
X491330Y895000D01*
X491012Y897415D01*
X490080Y899665D01*
X488597Y901597D01*
X486665Y903080D01*
X484415Y904012D01*
X482000Y904330D01*
X479585Y904012D01*
X477335Y903080D01*
X475403Y901597D01*
X463355Y889550D01*
X462665Y890080D01*
X460415Y891012D01*
X458000Y891330D01*
X455585Y891012D01*
X453335Y890080D01*
X451403Y888597D01*
X449920Y886665D01*
X448988Y884415D01*
X448670Y882000D01*
Y823000D01*
X448988Y820585D01*
X449920Y818335D01*
X451403Y816403D01*
X460670Y807135D01*
Y764615D01*
X459880Y764102D01*
X459431Y763927D01*
X457290Y764814D01*
X454875Y765131D01*
X452125D01*
X449710Y764814D01*
X448000Y764105D01*
X446290Y764814D01*
X443875Y765131D01*
X441125D01*
X438710Y764814D01*
X438086Y764555D01*
X436614Y765320D01*
X436527Y765530D01*
X435044Y767463D01*
X434327Y768180D01*
X434330Y768202D01*
X434012Y770616D01*
X433080Y772867D01*
X431597Y774799D01*
X429665Y776282D01*
X427415Y777214D01*
X425000Y777531D01*
X422585Y777214D01*
X420335Y776282D01*
X419099Y775333D01*
X418440Y775840D01*
X416189Y776772D01*
X413775Y777089D01*
X411830D01*
X409415Y776772D01*
X407165Y775840D01*
X405233Y774357D01*
X403288Y772412D01*
X401806Y770480D01*
X401097Y768770D01*
X399387Y768061D01*
X397455Y766579D01*
X395510Y764634D01*
X394028Y762702D01*
X393096Y760452D01*
X392778Y758037D01*
Y756093D01*
X393096Y753678D01*
X394028Y751428D01*
X394711Y750537D01*
X394382Y749310D01*
X393710Y749032D01*
X392600Y748180D01*
X391330Y748806D01*
Y777000D01*
X391012Y779415D01*
X390080Y781665D01*
X388597Y783597D01*
X386665Y785080D01*
X384415Y786012D01*
X382000Y786330D01*
X379585Y786012D01*
X377335Y785080D01*
X375403Y783597D01*
X373920Y781665D01*
X372988Y779415D01*
X372670Y777000D01*
Y659865D01*
X362403Y649597D01*
X360920Y647665D01*
X359988Y645415D01*
X359670Y643000D01*
Y583000D01*
X359988Y580585D01*
X360920Y578335D01*
X362403Y576403D01*
X372670Y566135D01*
Y498330D01*
X369000D01*
X366585Y498012D01*
X364335Y497080D01*
X362403Y495597D01*
X360920Y493665D01*
X359988Y491415D01*
X359670Y489000D01*
X359988Y486585D01*
X360920Y484335D01*
X362403Y482403D01*
X364335Y480920D01*
X366585Y479988D01*
X369000Y479670D01*
X378000D01*
X380415Y479988D01*
X382665Y480920D01*
X384597Y482403D01*
X388597Y486403D01*
X390080Y488335D01*
X391012Y490585D01*
X391330Y493000D01*
Y558805D01*
X392600Y559331D01*
X392778Y559153D01*
X394710Y557670D01*
X396960Y556738D01*
X399375Y556420D01*
X403390D01*
X403403Y556403D01*
X405403Y554403D01*
X407335Y552920D01*
X409585Y551988D01*
X412000Y551670D01*
X430000D01*
X432415Y551988D01*
X434665Y552920D01*
X436597Y554403D01*
X436644Y554450D01*
X437335Y553920D01*
X439585Y552988D01*
X442000Y552670D01*
X456000D01*
X458415Y552988D01*
X460665Y553920D01*
X462597Y555403D01*
X465597Y558403D01*
X467080Y560335D01*
X468012Y562585D01*
X468330Y565000D01*
Y580420D01*
X469625D01*
X472040Y580738D01*
X474290Y581670D01*
X476222Y583153D01*
X477597Y584528D01*
X478400Y585574D01*
X479670Y585143D01*
Y562865D01*
X463004Y546199D01*
X461522Y544267D01*
X460590Y542016D01*
X460272Y539602D01*
X460590Y537187D01*
X461522Y534937D01*
X463004Y533004D01*
X464937Y531522D01*
X467187Y530590D01*
X469602Y530272D01*
X472016Y530590D01*
X474267Y531522D01*
X476199Y533004D01*
X495597Y552403D01*
X497080Y554335D01*
X498012Y556585D01*
X498330Y559000D01*
Y628135D01*
X523865Y653670D01*
X767000D01*
X769415Y653988D01*
X771665Y654920D01*
X773597Y656403D01*
X799347Y682153D01*
X800830Y684085D01*
X801762Y686335D01*
X802080Y688750D01*
Y721796D01*
X801762Y724211D01*
X800830Y726461D01*
X799830Y727764D01*
Y739800D01*
X799512Y742215D01*
X798580Y744465D01*
X797098Y746397D01*
X795165Y747880D01*
X792915Y748812D01*
X790500Y749130D01*
X788086Y748812D01*
X785835Y747880D01*
X783903Y746397D01*
X782421Y744465D01*
X781489Y742215D01*
X781171Y739800D01*
Y724045D01*
X781489Y721631D01*
X782421Y719381D01*
X783052Y718558D01*
X783047Y718458D01*
X782486Y717262D01*
X780585Y717012D01*
X778335Y716080D01*
X776903Y714981D01*
X776000Y714716D01*
X775097Y714981D01*
X773665Y716080D01*
X771415Y717012D01*
X769000Y717330D01*
X766585Y717012D01*
X764335Y716080D01*
X762403Y714597D01*
X761635Y713596D01*
X760365D01*
X759597Y714597D01*
X757665Y716080D01*
X755415Y717012D01*
X753000Y717330D01*
X750585Y717012D01*
X748335Y716080D01*
X746403Y714597D01*
X746134Y714247D01*
X744864D01*
X744596Y714596D01*
X742663Y716078D01*
X740413Y717010D01*
X737999Y717328D01*
X735584Y717010D01*
X733334Y716078D01*
X731401Y714596D01*
X730496Y713691D01*
X729229Y713774D01*
X728597Y714597D01*
X726665Y716080D01*
X724415Y717012D01*
X722000Y717330D01*
X719585Y717012D01*
X717335Y716080D01*
X715903Y714981D01*
X714597Y714597D01*
X712665Y716080D01*
X710415Y717012D01*
X708000Y717330D01*
X705585Y717012D01*
X703335Y716080D01*
X701500Y714672D01*
X699830Y715953D01*
Y739800D01*
X699512Y742215D01*
X698580Y744465D01*
X697098Y746397D01*
X695165Y747880D01*
X692915Y748812D01*
X690501Y749130D01*
X688086Y748812D01*
X685836Y747880D01*
X683904Y746397D01*
X682421Y744465D01*
X681489Y742215D01*
X681171Y739800D01*
Y722873D01*
X680030Y721827D01*
X679200Y721893D01*
X678597Y722678D01*
X676665Y724161D01*
X674415Y725093D01*
X672635Y725327D01*
X672179Y726668D01*
X677098Y731587D01*
X678580Y733519D01*
X679513Y735769D01*
X679830Y738184D01*
Y739800D01*
X679513Y742215D01*
X678580Y744465D01*
X677098Y746397D01*
X675166Y747880D01*
X672915Y748812D01*
X671348Y749018D01*
X671080Y749665D01*
X669597Y751597D01*
X667665Y753080D01*
X665415Y754012D01*
X663000Y754330D01*
X660585Y754012D01*
X658335Y753080D01*
X656403Y751597D01*
X654920Y749665D01*
X653988Y747415D01*
X653670Y745000D01*
Y741619D01*
X647880Y735829D01*
X647232Y735881D01*
X646414Y737198D01*
X646691Y737867D01*
X647104Y741000D01*
X646691Y744133D01*
X645482Y747052D01*
X643559Y749558D01*
X642112Y750668D01*
Y812888D01*
X1501569D01*
X1524888Y789569D01*
Y669431D01*
X1505728Y650272D01*
X1503645Y647556D01*
X1502632Y645112D01*
X1455000D01*
X1451606Y644665D01*
X1448444Y643355D01*
X1445728Y641272D01*
X1443645Y638556D01*
X1442335Y635394D01*
X1441888Y632000D01*
X1442335Y628606D01*
X1443645Y625444D01*
X1445728Y622728D01*
X1448444Y620644D01*
X1451606Y619335D01*
X1455000Y618888D01*
X1501888D01*
Y597000D01*
X1502335Y593606D01*
X1503645Y590444D01*
X1505728Y587728D01*
X1508444Y585644D01*
X1511606Y584335D01*
X1515000Y583888D01*
X1518394Y584335D01*
X1521556Y585644D01*
X1524272Y587728D01*
X1526355Y590444D01*
X1527665Y593606D01*
X1528112Y597000D01*
Y632000D01*
Y635569D01*
X1547272Y654728D01*
X1547272Y654728D01*
X1549355Y657444D01*
X1550665Y660606D01*
X1551112Y664000D01*
Y795000D01*
X1550665Y798394D01*
X1549355Y801556D01*
X1547272Y804272D01*
X1547272Y804272D01*
X1516272Y835272D01*
X1513556Y837355D01*
X1510394Y838665D01*
X1507000Y839112D01*
X1507000Y839112D01*
X1052112D01*
Y944888D01*
X1062000D01*
X1062000Y944888D01*
X1065394Y945335D01*
X1068556Y946645D01*
X1071272Y948728D01*
X1084272Y961728D01*
X1084272Y961728D01*
X1086356Y964444D01*
X1087665Y967606D01*
X1088112Y971000D01*
Y1023000D01*
X1087665Y1026394D01*
X1086356Y1029556D01*
X1084272Y1032272D01*
X1084272Y1032272D01*
X1080272Y1036272D01*
X1077556Y1038355D01*
X1074394Y1039665D01*
X1071000Y1040112D01*
X1071000Y1040112D01*
X1051750D01*
X1051293Y1040052D01*
X1050338Y1040889D01*
Y1132000D01*
X1049986Y1134676D01*
X1048953Y1137169D01*
X1047310Y1139310D01*
X1045169Y1140953D01*
X1042676Y1141986D01*
X1040000Y1142338D01*
D02*
G37*
G36*
X542999Y989832D02*
X540454Y989497D01*
X538082Y988515D01*
X536045Y986952D01*
X534482Y984915D01*
X533500Y982543D01*
X533165Y979998D01*
X533166Y979990D01*
Y855000D01*
X533501Y852455D01*
X534483Y850083D01*
X536046Y848046D01*
X538083Y846483D01*
X540455Y845501D01*
X543000Y845166D01*
X545545Y845501D01*
X547917Y846483D01*
X549874Y847985D01*
X550989Y848546D01*
X551045D01*
X553081Y846983D01*
X555453Y846001D01*
X557998Y845666D01*
X560544Y846001D01*
X562915Y846983D01*
X564952Y848546D01*
X566515Y850583D01*
X567497Y852955D01*
X567832Y855500D01*
Y970987D01*
X567834Y971000D01*
X567499Y973545D01*
X566517Y975917D01*
X564954Y977954D01*
X562917Y979517D01*
X560545Y980499D01*
X558000Y980834D01*
X555455Y980499D01*
X554104Y979940D01*
X553965Y979946D01*
X552735Y980747D01*
X552499Y982542D01*
X551517Y984914D01*
X549954Y986951D01*
X549954Y986951D01*
X549953Y986952D01*
X547916Y988515D01*
X545544Y989497D01*
X542999Y989832D01*
D02*
G37*
G36*
X1810000Y928069D02*
X1710000D01*
X1707912Y927794D01*
X1705966Y926988D01*
X1704294Y925706D01*
X1703012Y924035D01*
X1702206Y922088D01*
X1701931Y920000D01*
Y775000D01*
X1702206Y772912D01*
X1703012Y770965D01*
X1704294Y769294D01*
X1705966Y768012D01*
X1707912Y767206D01*
X1710000Y766931D01*
X1810000D01*
X1812088Y767206D01*
X1814034Y768012D01*
X1815706Y769294D01*
X1816988Y770965D01*
X1817794Y772912D01*
X1818069Y775000D01*
Y920000D01*
X1817794Y922088D01*
X1816988Y924035D01*
X1815706Y925706D01*
X1814034Y926988D01*
X1812088Y927794D01*
X1810000Y928069D01*
D02*
G37*
G36*
X1503000Y805337D02*
X823998D01*
X821323Y804985D01*
X818829Y803952D01*
X816688Y802309D01*
X815045Y800168D01*
X814012Y797674D01*
X813682Y795165D01*
X812324Y794986D01*
X809831Y793953D01*
X807690Y792310D01*
X806047Y790169D01*
X805014Y787676D01*
X804662Y785000D01*
X805014Y782324D01*
X806047Y779831D01*
X807690Y777690D01*
X809831Y776047D01*
X812324Y775014D01*
X815000Y774662D01*
X824704D01*
X825012Y772323D01*
X826045Y769829D01*
X827688Y767688D01*
X829829Y766045D01*
X832322Y765012D01*
X834998Y764660D01*
X835010Y764662D01*
X1493000D01*
X1495676Y765014D01*
X1498169Y766047D01*
X1500310Y767690D01*
X1501953Y769831D01*
X1502986Y772324D01*
X1503338Y775000D01*
X1502986Y777676D01*
X1501953Y780169D01*
X1500310Y782310D01*
X1498904Y783390D01*
X1499335Y784660D01*
X1503000D01*
X1505676Y785012D01*
X1508170Y786045D01*
X1510311Y787688D01*
X1511954Y789829D01*
X1512986Y792323D01*
X1513339Y794998D01*
X1512986Y797674D01*
X1511954Y800168D01*
X1510311Y802309D01*
X1508170Y803952D01*
X1505676Y804985D01*
X1503000Y805337D01*
D02*
G37*
G36*
X850000Y648069D02*
X550000D01*
X547912Y647794D01*
X545965Y646988D01*
X544294Y645706D01*
X543012Y644035D01*
X542206Y642088D01*
X541931Y640000D01*
X541931Y450000D01*
X542206Y447912D01*
X543012Y445965D01*
X544294Y444294D01*
X545965Y443012D01*
X547912Y442206D01*
X550000Y441931D01*
X850000D01*
X852088Y442206D01*
X854035Y443012D01*
X855706Y444294D01*
X856988Y445965D01*
X857794Y447912D01*
X858069Y450000D01*
X858069Y640000D01*
X857794Y642088D01*
X856988Y644035D01*
X855706Y645706D01*
X854035Y646988D01*
X852088Y647794D01*
X850000Y648069D01*
D02*
G37*
G36*
X1268000Y382124D02*
X1261723Y381630D01*
X1255601Y380160D01*
X1249784Y377751D01*
X1244416Y374461D01*
X1239629Y370372D01*
X1235539Y365584D01*
X1232250Y360216D01*
X1229840Y354399D01*
X1228371Y348277D01*
X1227877Y342000D01*
X1228371Y335723D01*
X1229840Y329601D01*
X1232250Y323784D01*
X1235539Y318416D01*
X1239629Y313628D01*
X1244416Y309539D01*
X1249784Y306250D01*
X1255601Y303840D01*
X1261723Y302370D01*
X1268000Y301876D01*
X1274277Y302370D01*
X1280399Y303840D01*
X1286216Y306250D01*
X1291584Y309539D01*
X1296372Y313628D01*
X1300461Y318416D01*
X1303751Y323784D01*
X1306160Y329601D01*
X1307630Y335723D01*
X1308124Y342000D01*
X1307630Y348277D01*
X1306160Y354399D01*
X1303751Y360216D01*
X1300461Y365584D01*
X1296372Y370372D01*
X1291584Y374461D01*
X1286216Y377751D01*
X1280399Y380160D01*
X1274277Y381630D01*
X1268000Y382124D01*
D02*
G37*
G36*
X132000D02*
X125723Y381630D01*
X119601Y380160D01*
X113784Y377751D01*
X108416Y374461D01*
X103628Y370372D01*
X99539Y365584D01*
X96250Y360216D01*
X93840Y354399D01*
X92370Y348277D01*
X91876Y342000D01*
X92370Y335723D01*
X93840Y329601D01*
X96250Y323784D01*
X99539Y318416D01*
X103628Y313628D01*
X108416Y309539D01*
X113784Y306250D01*
X119601Y303840D01*
X125723Y302370D01*
X132000Y301876D01*
X138277Y302370D01*
X144399Y303840D01*
X150216Y306250D01*
X155584Y309539D01*
X160372Y313628D01*
X164461Y318416D01*
X167750Y323784D01*
X170160Y329601D01*
X171630Y335723D01*
X172124Y342000D01*
X171630Y348277D01*
X170160Y354399D01*
X167750Y360216D01*
X164461Y365584D01*
X160372Y370372D01*
X155584Y374461D01*
X150216Y377751D01*
X144399Y380160D01*
X138277Y381630D01*
X132000Y382124D01*
D02*
G37*
G36*
X659000Y321834D02*
X656455Y321499D01*
X654083Y320517D01*
X652046Y318954D01*
X650483Y316917D01*
X649501Y314545D01*
X649166Y312000D01*
X649501Y309455D01*
X650483Y307083D01*
X652046Y305046D01*
X660046Y297046D01*
X660046Y297046D01*
X662083Y295483D01*
X664455Y294501D01*
X665727Y294333D01*
X667000Y294166D01*
X667000Y294166D01*
X696000D01*
X698545Y294501D01*
X700917Y295483D01*
X702954Y297046D01*
X704517Y299083D01*
X705499Y301455D01*
X705834Y304000D01*
X705499Y306545D01*
X704517Y308917D01*
X702954Y310954D01*
X700917Y312517D01*
X698545Y313499D01*
X696000Y313834D01*
X671073D01*
X665954Y318954D01*
X663917Y320517D01*
X661545Y321499D01*
X659000Y321834D01*
D02*
G37*
G36*
X1146000Y321338D02*
X1143324Y320986D01*
X1140831Y319953D01*
X1138690Y318310D01*
X1137047Y316169D01*
X1136014Y313676D01*
X1135662Y311000D01*
X1136014Y308324D01*
X1137047Y305831D01*
X1138690Y303690D01*
X1149690Y292690D01*
X1151831Y291047D01*
X1154324Y290014D01*
X1157000Y289662D01*
X1203000D01*
X1205676Y290014D01*
X1208169Y291047D01*
X1210310Y292690D01*
X1211953Y294831D01*
X1212986Y297324D01*
X1213338Y300000D01*
X1212986Y302676D01*
X1211953Y305169D01*
X1210310Y307310D01*
X1208169Y308953D01*
X1205676Y309986D01*
X1203000Y310338D01*
X1161282D01*
X1153310Y318310D01*
X1151169Y319953D01*
X1148676Y320986D01*
X1146000Y321338D01*
D02*
G37*
G36*
X757900Y170924D02*
Y161700D01*
X767124D01*
X767042Y162320D01*
X765838Y165227D01*
X763923Y167723D01*
X761426Y169638D01*
X758520Y170842D01*
X757900Y170924D01*
D02*
G37*
G36*
X752900D02*
X752280Y170842D01*
X749373Y169638D01*
X746877Y167723D01*
X744962Y165227D01*
X743757Y162320D01*
X743676Y161700D01*
X752900D01*
Y170924D01*
D02*
G37*
G36*
X655550Y170150D02*
X633650D01*
Y148250D01*
X655550D01*
Y170150D01*
D02*
G37*
G36*
X767124Y156700D02*
X757900D01*
Y147476D01*
X758520Y147558D01*
X761426Y148762D01*
X763923Y150677D01*
X765838Y153174D01*
X767042Y156080D01*
X767124Y156700D01*
D02*
G37*
G36*
X752900D02*
X743676D01*
X743757Y156080D01*
X744962Y153174D01*
X746877Y150677D01*
X749373Y148762D01*
X752280Y147558D01*
X752900Y147476D01*
Y156700D01*
D02*
G37*
G36*
X741550Y141845D02*
X738691Y141468D01*
X736028Y140365D01*
X733740Y138610D01*
X731985Y136322D01*
X730882Y133659D01*
X730506Y130800D01*
X730882Y127942D01*
X731985Y125278D01*
X733740Y122990D01*
X736028Y121235D01*
X738691Y120132D01*
X741550Y119755D01*
X744408Y120132D01*
X747072Y121235D01*
X749360Y122990D01*
X751115Y125278D01*
X752218Y127942D01*
X752595Y130800D01*
X752218Y133659D01*
X751115Y136322D01*
X749360Y138610D01*
X747072Y140365D01*
X744408Y141468D01*
X741550Y141845D01*
D02*
G37*
G36*
X713850D02*
X710992Y141468D01*
X708328Y140365D01*
X706040Y138610D01*
X704285Y136322D01*
X703182Y133659D01*
X702805Y130800D01*
X703182Y127942D01*
X704285Y125278D01*
X706040Y122990D01*
X708328Y121235D01*
X710992Y120132D01*
X713850Y119755D01*
X716709Y120132D01*
X719372Y121235D01*
X721660Y122990D01*
X723415Y125278D01*
X724518Y127942D01*
X724894Y130800D01*
X724518Y133659D01*
X723415Y136322D01*
X721660Y138610D01*
X719372Y140365D01*
X716709Y141468D01*
X713850Y141845D01*
D02*
G37*
G36*
X686150D02*
X683291Y141468D01*
X680628Y140365D01*
X678340Y138610D01*
X676585Y136322D01*
X675482Y133659D01*
X675106Y130800D01*
X675482Y127942D01*
X676585Y125278D01*
X678340Y122990D01*
X680628Y121235D01*
X683291Y120132D01*
X686150Y119755D01*
X689008Y120132D01*
X691672Y121235D01*
X693960Y122990D01*
X695715Y125278D01*
X696818Y127942D01*
X697194Y130800D01*
X696818Y133659D01*
X695715Y136322D01*
X693960Y138610D01*
X691672Y140365D01*
X689008Y141468D01*
X686150Y141845D01*
D02*
G37*
G36*
X658450D02*
X655591Y141468D01*
X652928Y140365D01*
X650640Y138610D01*
X648885Y136322D01*
X647782Y133659D01*
X647405Y130800D01*
X647782Y127942D01*
X648885Y125278D01*
X650640Y122990D01*
X652928Y121235D01*
X655591Y120132D01*
X658450Y119755D01*
X661309Y120132D01*
X663972Y121235D01*
X666260Y122990D01*
X668015Y125278D01*
X669118Y127942D01*
X669494Y130800D01*
X669118Y133659D01*
X668015Y136322D01*
X666260Y138610D01*
X663972Y140365D01*
X661309Y141468D01*
X658450Y141845D01*
D02*
G37*
G36*
X824950Y176898D02*
X819960Y176506D01*
X815093Y175337D01*
X810469Y173422D01*
X806201Y170806D01*
X802394Y167556D01*
X799144Y163749D01*
X796528Y159481D01*
X794613Y154857D01*
X793444Y149990D01*
X793052Y145000D01*
X793444Y140010D01*
X794613Y135143D01*
X796528Y130519D01*
X799144Y126251D01*
X802394Y122444D01*
X806201Y119194D01*
X810469Y116578D01*
X815093Y114663D01*
X819960Y113494D01*
X824950Y113102D01*
X829940Y113494D01*
X834807Y114663D01*
X839432Y116578D01*
X843699Y119194D01*
X847505Y122444D01*
X850756Y126251D01*
X853372Y130519D01*
X855287Y135143D01*
X856456Y140010D01*
X856848Y145000D01*
X856456Y149990D01*
X855287Y154857D01*
X853372Y159481D01*
X850756Y163749D01*
X847505Y167556D01*
X843699Y170806D01*
X839432Y173422D01*
X834807Y175337D01*
X829940Y176506D01*
X824950Y176898D01*
D02*
G37*
G36*
X30000Y107565D02*
X28042Y107307D01*
X26218Y106551D01*
X24651Y105349D01*
X23449Y103782D01*
X22693Y101958D01*
X22435Y100000D01*
X22693Y98042D01*
X23449Y96218D01*
X24651Y94651D01*
X26218Y93449D01*
X28042Y92693D01*
X30000Y92435D01*
X31958Y92693D01*
X33782Y93449D01*
X35349Y94651D01*
X36551Y96218D01*
X37307Y98042D01*
X37565Y100000D01*
X37307Y101958D01*
X36551Y103782D01*
X35349Y105349D01*
X33782Y106551D01*
X31958Y107307D01*
X30000Y107565D01*
D02*
G37*
G36*
X110000Y168069D02*
X70000Y168069D01*
X67912Y167794D01*
X65965Y166988D01*
X64294Y165706D01*
X63012Y164035D01*
X62206Y162088D01*
X61931Y160000D01*
X61931Y95000D01*
X62206Y92912D01*
X63012Y90965D01*
X64294Y89294D01*
X65965Y88012D01*
X67912Y87206D01*
X70000Y86931D01*
X110000Y86931D01*
X112088Y87206D01*
X114035Y88012D01*
X115706Y89294D01*
X116988Y90965D01*
X117794Y92912D01*
X118069Y95000D01*
X118069Y160000D01*
X117794Y162088D01*
X116988Y164035D01*
X115706Y165706D01*
X114035Y166988D01*
X112088Y167794D01*
X110000Y168069D01*
D02*
G37*
G36*
X1132501Y92783D02*
Y82500D01*
X1142784D01*
X1142667Y83394D01*
X1141357Y86556D01*
X1139273Y89272D01*
X1136557Y91355D01*
X1133395Y92665D01*
X1132501Y92783D01*
D02*
G37*
G36*
X1127501D02*
X1126608Y92665D01*
X1123445Y91355D01*
X1120730Y89272D01*
X1118646Y86556D01*
X1117336Y83394D01*
X1117218Y82500D01*
X1127501D01*
Y92783D01*
D02*
G37*
G36*
X932501D02*
Y82500D01*
X942784D01*
X942667Y83394D01*
X941357Y86556D01*
X939273Y89272D01*
X936557Y91355D01*
X933395Y92665D01*
X932501Y92783D01*
D02*
G37*
G36*
X927501D02*
X926608Y92665D01*
X923445Y91355D01*
X920730Y89272D01*
X918646Y86556D01*
X917336Y83394D01*
X917218Y82500D01*
X927501D01*
Y92783D01*
D02*
G37*
G36*
X1212001Y92000D02*
X1188001D01*
Y68000D01*
X1212001D01*
Y92000D01*
D02*
G37*
G36*
X1012001D02*
X988001D01*
Y68000D01*
X1012001D01*
Y92000D01*
D02*
G37*
G36*
X1165000Y92104D02*
X1161867Y91691D01*
X1158948Y90482D01*
X1156441Y88559D01*
X1154518Y86052D01*
X1153309Y83133D01*
X1152896Y80000D01*
X1153309Y76867D01*
X1154518Y73948D01*
X1156441Y71441D01*
X1158948Y69518D01*
X1161867Y68309D01*
X1165000Y67896D01*
X1168133Y68309D01*
X1171052Y69518D01*
X1173559Y71441D01*
X1175482Y73948D01*
X1176691Y76867D01*
X1177104Y80000D01*
X1176691Y83133D01*
X1175482Y86052D01*
X1173559Y88559D01*
X1171052Y90482D01*
X1168133Y91691D01*
X1165000Y92104D01*
D02*
G37*
G36*
X965000D02*
X961867Y91691D01*
X958948Y90482D01*
X956441Y88559D01*
X954518Y86052D01*
X953309Y83133D01*
X952896Y80000D01*
X953309Y76867D01*
X954518Y73948D01*
X956441Y71441D01*
X958948Y69518D01*
X961867Y68309D01*
X965000Y67896D01*
X968133Y68309D01*
X971052Y69518D01*
X973559Y71441D01*
X975482Y73948D01*
X976691Y76867D01*
X977104Y80000D01*
X976691Y83133D01*
X975482Y86052D01*
X973559Y88559D01*
X971052Y90482D01*
X968133Y91691D01*
X965000Y92104D01*
D02*
G37*
G36*
X1142784Y77500D02*
X1132501D01*
Y67217D01*
X1133395Y67335D01*
X1136557Y68644D01*
X1139273Y70728D01*
X1141357Y73444D01*
X1142667Y76606D01*
X1142784Y77500D01*
D02*
G37*
G36*
X1127501D02*
X1117218D01*
X1117336Y76606D01*
X1118646Y73444D01*
X1120730Y70728D01*
X1123445Y68644D01*
X1126608Y67335D01*
X1127501Y67217D01*
Y77500D01*
D02*
G37*
G36*
X942784D02*
X932501D01*
Y67217D01*
X933395Y67335D01*
X936557Y68644D01*
X939273Y70728D01*
X941357Y73444D01*
X942667Y76606D01*
X942784Y77500D01*
D02*
G37*
G36*
X927501D02*
X917218D01*
X917336Y76606D01*
X918646Y73444D01*
X920730Y70728D01*
X923445Y68644D01*
X926608Y67335D01*
X927501Y67217D01*
Y77500D01*
D02*
G37*
G36*
X1625000Y183069D02*
X1350000D01*
X1347912Y182794D01*
X1345966Y181988D01*
X1344294Y180706D01*
X1343012Y179035D01*
X1342206Y177088D01*
X1341931Y175000D01*
Y50000D01*
X1342206Y47912D01*
X1343012Y45965D01*
X1344294Y44294D01*
X1345966Y43012D01*
X1347912Y42206D01*
X1350000Y41931D01*
X1625000D01*
X1627088Y42206D01*
X1629034Y43012D01*
X1630706Y44294D01*
X1631988Y45965D01*
X1632794Y47912D01*
X1633069Y50000D01*
Y175000D01*
X1632794Y177088D01*
X1631988Y179035D01*
X1630706Y180706D01*
X1629034Y181988D01*
X1627088Y182794D01*
X1625000Y183069D01*
D02*
G37*
G36*
X1067000Y57700D02*
X1047000D01*
Y37700D01*
X1067000D01*
Y57700D01*
D02*
G37*
G36*
X1750000Y37565D02*
X1748042Y37307D01*
X1746218Y36551D01*
X1744651Y35349D01*
X1743449Y33782D01*
X1742693Y31958D01*
X1742435Y30000D01*
X1742693Y28042D01*
X1743449Y26218D01*
X1744651Y24651D01*
X1746218Y23449D01*
X1748042Y22693D01*
X1750000Y22435D01*
X1751958Y22693D01*
X1753782Y23449D01*
X1755349Y24651D01*
X1756551Y26218D01*
X1757307Y28042D01*
X1757565Y30000D01*
X1757307Y31958D01*
X1756551Y33782D01*
X1755349Y35349D01*
X1753782Y36551D01*
X1751958Y37307D01*
X1750000Y37565D01*
D02*
G37*
G36*
X1057000Y32386D02*
X1054389Y32043D01*
X1051957Y31035D01*
X1049868Y29432D01*
X1048265Y27343D01*
X1047257Y24911D01*
X1046914Y22300D01*
X1047257Y19690D01*
X1048265Y17257D01*
X1049868Y15168D01*
X1051957Y13565D01*
X1054389Y12557D01*
X1057000Y12214D01*
X1059611Y12557D01*
X1062043Y13565D01*
X1064132Y15168D01*
X1065735Y17257D01*
X1066743Y19690D01*
X1067086Y22300D01*
X1066743Y24911D01*
X1065735Y27343D01*
X1064132Y29432D01*
X1062043Y31035D01*
X1059611Y32043D01*
X1057000Y32386D01*
D02*
G37*
%LPD*%
G36*
X615888Y756025D02*
Y748837D01*
X614518Y747052D01*
X613309Y744133D01*
X612896Y741000D01*
X613309Y737867D01*
X613923Y736386D01*
X613217Y735330D01*
X547220D01*
X529330Y753220D01*
Y755858D01*
X530600Y756484D01*
X531335Y755920D01*
X533585Y754988D01*
X536000Y754670D01*
X609000D01*
X611415Y754988D01*
X613665Y755920D01*
X614618Y756651D01*
X615888Y756025D01*
D02*
G37*
G36*
X393710Y694372D02*
X395960Y693440D01*
X396670Y693346D01*
Y686000D01*
X396988Y683585D01*
X397920Y681335D01*
X399403Y679403D01*
X408636Y670170D01*
X408228Y668967D01*
X408145Y668956D01*
X405895Y668024D01*
X403963Y666542D01*
X402018Y664597D01*
X400535Y662665D01*
X399827Y660955D01*
X398117Y660246D01*
X396184Y658764D01*
X394240Y656819D01*
X392757Y654887D01*
X392328Y653850D01*
X391090Y654181D01*
X391330Y656000D01*
Y694598D01*
X392600Y695224D01*
X393710Y694372D01*
D02*
G37*
D10*
X30000Y1160000D02*
D03*
Y100000D02*
D03*
X1750000Y30000D02*
D03*
D11*
X629000Y742000D02*
Y750000D01*
X332000Y417000D02*
X336000Y413000D01*
X328000Y421000D02*
X332000Y417000D01*
X328000Y421000D02*
Y1025000D01*
X375000Y413000D02*
X605000D01*
X367000D02*
X375000D01*
X967500Y422500D02*
Y450500D01*
X958000Y413000D02*
X967500Y422500D01*
X605000Y413000D02*
X958000D01*
X967500Y450500D02*
X974000Y457000D01*
X997000D01*
X494000Y1036000D02*
X503000D01*
X485000D02*
X494000D01*
X339000D02*
X485000D01*
X503000D02*
X614000D01*
X629000Y826000D02*
Y1021000D01*
X614000Y1036000D02*
X629000Y1021000D01*
X328000Y1025000D02*
X339000Y1036000D01*
X1538000Y664000D02*
Y795000D01*
X1515000Y641000D02*
X1538000Y664000D01*
X1515000Y632000D02*
Y641000D01*
Y597000D02*
Y632000D01*
X1039000Y826000D02*
X1507000D01*
X629000D02*
X1039000D01*
X1456000Y632000D02*
X1469000D01*
X1455000D02*
X1456000D01*
X1469000D02*
X1515000D01*
X1507000Y826000D02*
X1538000Y795000D01*
X629000Y750000D02*
Y826000D01*
X1093000Y218000D02*
X1109000Y234000D01*
X1115000Y268000D02*
X1176000D01*
X1109000Y234000D02*
Y262000D01*
X1115000Y268000D01*
X1022002Y958002D02*
X1022003Y958000D01*
X1075000Y971000D02*
Y1023000D01*
X1039000Y826000D02*
Y958000D01*
X1071000Y1027000D02*
X1075000Y1023000D01*
X1066000Y1027000D02*
X1071000D01*
X1051750D02*
X1058500D01*
X1066000D01*
X1062000Y958000D02*
X1075000Y971000D01*
X1022003Y958000D02*
X1039000D01*
X1062000D01*
X1014802Y965202D02*
X1022002Y958002D01*
X1014802Y965202D02*
Y969002D01*
X605000Y225000D02*
Y413000D01*
Y225000D02*
X612000Y218000D01*
X654000D01*
X336000Y413000D02*
X367000D01*
X654000Y218000D02*
X1093000D01*
D12*
X625000Y741000D02*
X635000D01*
D13*
X517000Y451000D02*
X533000Y435000D01*
X378000Y451000D02*
X517000D01*
X366000Y463000D02*
X378000Y451000D01*
X861000Y903000D02*
X882000D01*
X856000Y908000D02*
X861000Y903000D01*
X856000Y908000D02*
Y936000D01*
X641000Y375000D02*
X741500D01*
X773000Y343500D01*
X969500D01*
X1146000Y311000D02*
X1157000Y300000D01*
X1203000D01*
X823902Y362498D02*
X836404Y375000D01*
X1120000D01*
X1153000Y408000D01*
X991998Y860998D02*
Y1026002D01*
X977000Y1041000D02*
X991998Y1026002D01*
X951000Y1035000D02*
X957000Y1029000D01*
X976272D01*
X951000Y1035000D02*
Y1041000D01*
X976272Y1029000D02*
X982000Y1023272D01*
X964000Y1091000D02*
X970000Y1097000D01*
X1001000D01*
X969500Y343500D02*
X989000Y324000D01*
X1153000Y408000D02*
X1475000D01*
X1480000Y413000D01*
Y421000D01*
X1466000Y417000D02*
X1470000Y421000D01*
X1149272Y417000D02*
X1466000D01*
X1116272Y384000D02*
X1149272Y417000D01*
X820004Y384000D02*
X1116272D01*
X798502Y362498D02*
X820004Y384000D01*
X815000Y785000D02*
X1482000D01*
X834998Y774998D02*
X835000Y775000D01*
X1493000D01*
X823998Y794998D02*
X1503000D01*
X964000Y1041000D02*
Y1091000D01*
X982000Y861000D02*
Y1023272D01*
X1040000Y1004000D02*
X1060000Y984000D01*
X1040000Y1004000D02*
Y1132000D01*
X472000Y162000D02*
Y176000D01*
X479000Y183000D01*
X575417D01*
X590000Y197583D01*
Y375000D01*
D14*
X382000Y493000D02*
Y570000D01*
X378000Y489000D02*
X382000Y493000D01*
X369000Y489000D02*
X378000D01*
X369000Y583000D02*
X382000Y570000D01*
X369000Y583000D02*
Y643000D01*
X382000Y656000D02*
Y777000D01*
X369000Y643000D02*
X382000Y656000D01*
X536000Y764000D02*
X609000D01*
X790500Y724045D02*
Y739800D01*
Y724045D02*
X792750Y721796D01*
Y688750D02*
Y721796D01*
X783000Y687000D02*
Y708000D01*
X769000Y683000D02*
Y708000D01*
X458000Y823000D02*
Y882000D01*
X753000Y692000D02*
Y708000D01*
X458000Y823000D02*
X470000Y811000D01*
Y764000D02*
Y811000D01*
X475000Y766071D02*
Y813071D01*
X480000Y768142D02*
Y815142D01*
X490000Y765213D02*
Y771463D01*
X491250Y772713D01*
X492750D01*
X494000Y773963D01*
Y776463D01*
X492750Y777713D02*
X494000Y776463D01*
X487250Y777713D02*
X492750D01*
X486000Y778963D02*
X487250Y777713D01*
X486000Y778963D02*
Y781463D01*
X487250Y782713D01*
X492750D01*
X494000Y783963D01*
Y786463D01*
X492750Y787713D02*
X494000Y786463D01*
X487250Y787713D02*
X492750D01*
X486000Y788963D02*
X487250Y787713D01*
X486000Y788963D02*
Y791463D01*
X487250Y792713D01*
X492750D01*
X494000Y793963D01*
Y796463D01*
X492750Y797713D02*
X494000Y796463D01*
X487250Y797713D02*
X492750D01*
X486000Y798963D02*
X487250Y797713D01*
X486000Y798963D02*
Y801463D01*
X487250Y802713D01*
X492750D01*
X494000Y803963D01*
Y806463D01*
X492750Y807713D02*
X494000Y806463D01*
X487250Y807713D02*
X492750D01*
X486000Y808963D02*
X487250Y807713D01*
X486000Y808963D02*
Y811463D01*
X487250Y812713D01*
X492750D01*
X494000Y813963D01*
Y816463D01*
X492750Y817713D02*
X494000Y816463D01*
X481000Y823000D02*
X486287Y817713D01*
X492750D01*
X506375Y823750D02*
X508000Y822125D01*
Y818875D02*
Y822125D01*
X506375Y817250D02*
X508000Y818875D01*
X502625Y817250D02*
X506375D01*
X501000Y815625D02*
X502625Y817250D01*
X501000Y812375D02*
Y815625D01*
Y812375D02*
X502625Y810750D01*
X506375D01*
X508000Y809125D01*
Y805875D02*
Y809125D01*
X506375Y804250D02*
X508000Y805875D01*
X502625Y804250D02*
X506375D01*
X501000Y802625D02*
X502625Y804250D01*
X501000Y799375D02*
Y802625D01*
Y799375D02*
X502625Y797750D01*
X506375D01*
X508000Y796125D01*
Y792875D02*
Y796125D01*
X506375Y791250D02*
X508000Y792875D01*
X502625Y791250D02*
X506375D01*
X501000Y789625D02*
X502625Y791250D01*
X501000Y786375D02*
Y789625D01*
Y786375D02*
X502625Y784750D01*
X506375D01*
X508000Y783125D01*
Y779875D02*
Y783125D01*
X506375Y778250D02*
X508000Y779875D01*
X502625Y778250D02*
X506375D01*
X501000Y776625D02*
X502625Y778250D01*
X501000Y761284D02*
Y776625D01*
X488000Y832000D02*
X496250Y823750D01*
X506375D01*
X501000Y835000D02*
Y838803D01*
Y835000D02*
X504000Y832000D01*
X513000D01*
X520000Y825000D01*
Y823625D02*
Y825000D01*
X518625Y822250D02*
X520000Y823625D01*
X516375Y822250D02*
X518625D01*
X515000Y820875D02*
X516375Y822250D01*
X515000Y818125D02*
Y820875D01*
Y818125D02*
X516375Y816750D01*
X523625D01*
X525000Y815375D01*
Y812625D02*
Y815375D01*
X523625Y811250D02*
X525000Y812625D01*
X516375Y811250D02*
X523625D01*
X515000Y809875D02*
X516375Y811250D01*
X515000Y807125D02*
Y809875D01*
Y807125D02*
X516375Y805750D01*
X523625D01*
X525000Y804375D01*
Y801625D02*
Y804375D01*
X523625Y800250D02*
X525000Y801625D01*
X516375Y800250D02*
X523625D01*
X515000Y798875D02*
X516375Y800250D01*
X515000Y796125D02*
Y798875D01*
Y796125D02*
X516375Y794750D01*
X523625D01*
X525000Y793375D01*
Y790625D02*
Y793375D01*
X523625Y789250D02*
X525000Y790625D01*
X516375Y789250D02*
X523625D01*
X515000Y787875D02*
X516375Y789250D01*
X515000Y785125D02*
Y787875D01*
Y785125D02*
X516375Y783750D01*
X523625D01*
X525000Y782375D01*
Y779625D02*
Y782375D01*
X523625Y778250D02*
X525000Y779625D01*
X521375Y778250D02*
X523625D01*
X520000Y776875D02*
X521375Y778250D01*
X520000Y749355D02*
Y776875D01*
X489000Y559000D02*
Y632000D01*
X469602Y539602D02*
X489000Y559000D01*
X430000Y692000D02*
Y717402D01*
X690501Y715501D02*
Y739800D01*
X688250Y713250D02*
X690501Y715501D01*
X489000Y632000D02*
X520000Y663000D01*
X767000D01*
X792750Y688750D01*
X764000Y668000D02*
X783000Y687000D01*
X759000Y673000D02*
X769000Y683000D01*
X739000Y678000D02*
X753000Y692000D01*
X713000Y683000D02*
X737999Y707999D01*
X702000Y688000D02*
X722000Y708000D01*
X693000Y693000D02*
X708000Y708000D01*
X470000Y764000D02*
X536000Y698000D01*
X685000D01*
X695000Y708000D01*
X520000Y749355D02*
X543355Y726000D01*
X651246D01*
X663000Y737754D01*
Y745000D01*
X501000Y761284D02*
X541284Y721000D01*
X653317D01*
X670501Y738184D01*
Y739800D01*
X490000Y765213D02*
X539213Y716000D01*
X671919D01*
X672000Y716081D01*
X480000Y768142D02*
X538811Y709331D01*
X677331D01*
X680000Y712000D01*
X475000Y766071D02*
X536740Y704331D01*
X681877D01*
X688250Y710704D01*
Y713250D01*
X476000Y708000D02*
X496000Y688000D01*
X702000D01*
X509454Y673000D02*
X759000D01*
X514000Y668000D02*
X764000D01*
X430000Y730000D02*
X435000D01*
X482000Y683000D01*
X713000D01*
X510000Y713000D02*
X530000Y693000D01*
X693000D01*
X424028Y767229D02*
X425000Y768202D01*
X424028Y765285D02*
Y767229D01*
Y765285D02*
X428447Y760865D01*
Y758921D02*
Y760865D01*
X426503Y756976D02*
X428447Y758921D01*
X424558Y756976D02*
X426503D01*
X413775Y767760D02*
X424558Y756976D01*
X411830Y767760D02*
X413775D01*
X409886Y765815D02*
X411830Y767760D01*
X409886Y763871D02*
Y765815D01*
Y763871D02*
X420669Y753087D01*
Y751143D02*
Y753087D01*
X418724Y749198D02*
X420669Y751143D01*
X416780Y749198D02*
X418724D01*
X405997Y759982D02*
X416780Y749198D01*
X404052Y759982D02*
X405997D01*
X402108Y758037D02*
X404052Y759982D01*
X402108Y756093D02*
Y758037D01*
X404625Y740952D02*
X406000Y742327D01*
X398375Y740952D02*
X404625D01*
X397000Y739577D02*
X398375Y740952D01*
X397000Y736827D02*
Y739577D01*
Y736827D02*
X398375Y735452D01*
X413625D01*
X415000Y734077D01*
Y731327D02*
Y734077D01*
X413625Y729952D02*
X415000Y731327D01*
X398375Y729952D02*
X413625D01*
X397000Y728577D02*
X398375Y729952D01*
X397000Y725827D02*
Y728577D01*
Y725827D02*
X398375Y724452D01*
X413625D01*
X415000Y723077D01*
Y720327D02*
Y723077D01*
X413625Y718952D02*
X415000Y720327D01*
X398375Y718952D02*
X413625D01*
X397000Y717577D02*
X398375Y718952D01*
X397000Y714827D02*
Y717577D01*
Y714827D02*
X398375Y713452D01*
X413625D01*
X415000Y712077D01*
Y709327D02*
Y712077D01*
X413625Y707952D02*
X415000Y709327D01*
X398375Y707952D02*
X413625D01*
X397000Y706577D02*
X398375Y707952D01*
X397000Y703827D02*
Y706577D01*
Y703827D02*
X398375Y702452D01*
X404625D01*
X406000Y701077D01*
Y686000D02*
Y701077D01*
Y686000D02*
X422000Y670000D01*
X406000Y742327D02*
Y752200D01*
X402108Y756093D02*
X406000Y752200D01*
X467250Y604250D02*
Y630796D01*
X509454Y673000D01*
X459000Y631000D02*
X491000Y663000D01*
X457000Y655000D02*
Y669000D01*
X461000Y673000D01*
X453000Y651000D02*
X457000Y655000D01*
X461000Y673000D02*
X489000D01*
X491000Y671000D01*
Y663000D02*
Y671000D01*
X459000Y624125D02*
Y631000D01*
X457625Y622750D02*
X459000Y624125D01*
X448375Y622750D02*
X457625D01*
X447000Y621375D02*
X448375Y622750D01*
X447000Y618625D02*
Y621375D01*
Y618625D02*
X448375Y617250D01*
X457625D01*
X459000Y615875D01*
Y613125D02*
Y615875D01*
X457625Y611750D02*
X459000Y613125D01*
X448375Y611750D02*
X457625D01*
X447000Y610375D02*
X448375Y611750D01*
X447000Y607625D02*
Y610375D01*
Y607625D02*
X448375Y606250D01*
X457625D01*
X459000Y604875D01*
Y602125D02*
Y604875D01*
X457625Y600750D02*
X459000Y602125D01*
X448375Y600750D02*
X457625D01*
X447000Y599375D02*
X448375Y600750D01*
X447000Y596625D02*
Y599375D01*
Y596625D02*
X448375Y595250D01*
X469625D01*
X471000Y593875D01*
Y591125D02*
Y593875D01*
X469625Y589750D02*
X471000Y591125D01*
X448375Y589750D02*
X469625D01*
X447000Y588375D02*
X448375Y589750D01*
X447000Y585625D02*
Y588375D01*
Y585625D02*
X448375Y584250D01*
X457625D01*
X459000Y582875D01*
Y565000D02*
Y582875D01*
X456000Y562000D02*
X459000Y565000D01*
X438999Y565001D02*
Y615999D01*
Y565001D02*
X442000Y562000D01*
X456000D01*
X431999Y562999D02*
Y589999D01*
X430000Y561000D02*
X431999Y562999D01*
X412000Y561000D02*
X430000D01*
X410000Y563000D02*
X412000Y561000D01*
X410000Y563000D02*
Y564375D01*
X408625Y565750D02*
X410000Y564375D01*
X399375Y565750D02*
X408625D01*
X398000Y567125D02*
X399375Y565750D01*
X398000Y567125D02*
Y569875D01*
X399375Y571250D01*
X420625D01*
X422000Y572625D01*
Y575375D01*
X420625Y576750D02*
X422000Y575375D01*
X399375Y576750D02*
X420625D01*
X398000Y578125D02*
X399375Y576750D01*
X398000Y578125D02*
Y580875D01*
X399375Y582250D01*
X420625D01*
X422000Y583625D01*
Y586375D01*
X420625Y587750D02*
X422000Y586375D01*
X399375Y587750D02*
X420625D01*
X398000Y589125D02*
X399375Y587750D01*
X398000Y589125D02*
Y591875D01*
X399375Y593250D01*
X420625D01*
X422000Y594625D01*
Y597375D01*
X420625Y598750D02*
X422000Y597375D01*
X399375Y598750D02*
X420625D01*
X398000Y600125D02*
X399375Y598750D01*
X398000Y600125D02*
Y602875D01*
X399375Y604250D01*
X420625D01*
X422000Y605625D01*
Y608375D01*
X420625Y609750D02*
X422000Y608375D01*
X399375Y609750D02*
X420625D01*
X398000Y611125D02*
X399375Y609750D01*
X398000Y611125D02*
Y613875D01*
X399375Y615250D01*
X408625D01*
X410000Y616625D01*
X376000Y590000D02*
Y596875D01*
X377375Y598250D01*
X387625D01*
X377503Y624943D02*
X389807Y612639D01*
X377503Y624943D02*
Y626887D01*
X379447Y628832D01*
X381392D01*
X392667Y617557D01*
X394611D01*
X396556Y619502D01*
Y621446D01*
X385281Y632721D02*
X396556Y621446D01*
X385281Y632721D02*
Y634665D01*
X387225Y636610D01*
X389170D01*
X402882Y622898D01*
X404827D01*
X406771Y624842D01*
Y626787D01*
X393059Y640499D02*
X406771Y626787D01*
X393059Y640499D02*
Y642444D01*
X395003Y644388D01*
X396948D01*
X410660Y630676D01*
X412605D01*
X414549Y632620D01*
Y634565D01*
X400837Y648277D02*
X414549Y634565D01*
X400837Y648277D02*
Y650222D01*
X402782Y652166D01*
X404726D01*
X418438Y638454D01*
X420383D01*
X422328Y640398D01*
Y642343D01*
X408615Y656056D02*
X422328Y642343D01*
X408615Y656056D02*
Y658000D01*
X410560Y659945D01*
X412504D01*
X426217Y646232D01*
X428161D01*
X430106Y648177D01*
Y650121D01*
X421093Y659134D02*
X430106Y650121D01*
X421093Y659134D02*
Y661078D01*
X423038Y663023D01*
X424982D01*
X433995Y654010D01*
X435939D01*
X437884Y655955D01*
Y657899D01*
X433364Y662419D02*
X437884Y657899D01*
X433364Y662419D02*
Y664364D01*
X447000Y678000D01*
X739000D01*
X389807Y600432D02*
Y612639D01*
X387625Y598250D02*
X389807Y600432D01*
X410000Y616625D02*
Y621000D01*
X448000Y659000D01*
X475000Y629000D02*
X514000Y668000D01*
X475000Y615000D02*
Y629000D01*
X422000Y684000D02*
X430000Y676000D01*
X422000Y684000D02*
Y738802D01*
X426000Y742802D01*
X427375D01*
X428750Y744177D01*
Y752153D01*
X430125Y753528D01*
X432875D01*
X434250Y752153D01*
Y736375D02*
Y752153D01*
Y736375D02*
X435625Y735000D01*
X438375D01*
X439750Y736375D01*
Y754427D01*
X441125Y755802D01*
X443875D01*
X445250Y754427D01*
Y731177D02*
Y754427D01*
Y731177D02*
X446625Y729802D01*
X449375D01*
X450750Y731177D01*
Y754427D01*
X452125Y755802D01*
X454875D01*
X456250Y754427D01*
Y731177D02*
Y754427D01*
Y731177D02*
X457625Y729802D01*
X460375D01*
X461750Y731177D01*
Y741427D01*
X463125Y742802D01*
X465802D01*
X466000Y743000D01*
X481000Y823000D02*
Y857000D01*
X494000Y870000D01*
X466250Y879250D02*
X482000Y895000D01*
X466250Y821821D02*
X475000Y813071D01*
X473000Y822142D02*
X480000Y815142D01*
X466250Y821821D02*
Y879250D01*
X473000Y822142D02*
Y856000D01*
X495803Y844000D02*
X501000Y838803D01*
D15*
X722000Y179000D02*
Y185000D01*
X717000Y190000D02*
X722000Y185000D01*
X621000Y190000D02*
X717000D01*
X720000Y200000D02*
X735000Y185000D01*
X610000Y200000D02*
X720000D01*
X735000Y179000D02*
Y185000D01*
X659000Y312000D02*
X667000Y304000D01*
X696000D01*
X672300Y159200D02*
Y171300D01*
X680000Y179000D01*
X710000D01*
X747702Y334302D02*
X950698D01*
X965000Y320000D01*
Y299000D02*
Y320000D01*
X952000Y299000D02*
Y320000D01*
X773102Y365898D02*
Y386302D01*
X722302Y334302D02*
X731604Y325000D01*
X947000D01*
X952000Y320000D01*
X1004000Y299000D02*
Y325000D01*
X965000Y294000D02*
Y299000D01*
X985350Y234350D02*
Y273650D01*
X965000Y294000D02*
X985350Y273650D01*
X773102Y365898D02*
X787000Y352000D01*
X977000D01*
X1004000Y325000D01*
X557998Y970998D02*
X558000Y971000D01*
X542999Y979998D02*
X543000Y979997D01*
X583000Y991000D02*
X583000Y991000D01*
X597998Y998998D02*
X598000Y999000D01*
X543000Y855000D02*
Y979997D01*
X557998Y855500D02*
Y970998D01*
X583000Y855000D02*
Y991000D01*
X597998Y855500D02*
Y998998D01*
D16*
X32000Y1218000D02*
D03*
X1818000D02*
D03*
Y32000D02*
D03*
X32000D02*
D03*
X132000Y342000D02*
D03*
Y1118000D02*
D03*
X1268000D02*
D03*
Y342000D02*
D03*
D17*
X1057000Y47700D02*
D03*
D18*
Y22300D02*
D03*
D19*
X1130001Y80000D02*
D03*
X1165000D02*
D03*
X930001D02*
D03*
X965000D02*
D03*
D20*
X1200001D02*
D03*
X1000001D02*
D03*
D21*
X824950Y145000D02*
D03*
X575050D02*
D03*
D22*
X644600Y159200D02*
D03*
D23*
X658450Y130800D02*
D03*
X672300Y159200D02*
D03*
X686150Y130800D02*
D03*
X700000Y159200D02*
D03*
X713850Y130800D02*
D03*
X727700Y159200D02*
D03*
X741550Y130800D02*
D03*
X755400Y159200D02*
D03*
D24*
X476000Y708000D02*
D03*
X332000Y417000D02*
D03*
X375000Y413000D02*
D03*
X367000D02*
D03*
X339000Y412602D02*
D03*
X503000Y1036000D02*
D03*
X485000D02*
D03*
X1530000Y622000D02*
D03*
X300000Y288000D02*
D03*
X300000Y301000D02*
D03*
X533000Y435000D02*
D03*
X366000Y463000D02*
D03*
X390000Y565000D02*
D03*
X367000D02*
D03*
X390000Y692000D02*
D03*
X367000D02*
D03*
X390000Y946000D02*
D03*
X367000D02*
D03*
Y819000D02*
D03*
X390000D02*
D03*
X609000Y764000D02*
D03*
X860000Y954000D02*
D03*
X848000Y932000D02*
D03*
X882000Y903000D02*
D03*
X856000Y936000D02*
D03*
X913000Y877000D02*
D03*
X1011000Y513000D02*
D03*
X1048000D02*
D03*
X1036000D02*
D03*
X1023000D02*
D03*
X997000Y457000D02*
D03*
X1023646Y462646D02*
D03*
X997000Y428000D02*
D03*
X468000Y386000D02*
D03*
X419598Y463402D02*
D03*
X641000Y375000D02*
D03*
X743145Y313145D02*
D03*
X683145Y320855D02*
D03*
X1236000Y98000D02*
D03*
X1463000Y575000D02*
D03*
X1451000Y585000D02*
D03*
X1456000Y632000D02*
D03*
X1469000D02*
D03*
X1515000Y597000D02*
D03*
X494000Y1036000D02*
D03*
X1046000Y972000D02*
D03*
X1022002Y958002D02*
D03*
X1014802Y969002D02*
D03*
X382000Y777000D02*
D03*
X536000Y764000D02*
D03*
X599000Y741000D02*
D03*
Y750000D02*
D03*
X629000D02*
D03*
X625000Y741000D02*
D03*
X635000D02*
D03*
X1176000Y268000D02*
D03*
X1162000Y316000D02*
D03*
X1146000Y311000D02*
D03*
X1203000Y300000D02*
D03*
X1135000Y219000D02*
D03*
X998000Y186000D02*
D03*
X945000D02*
D03*
Y216000D02*
D03*
X1238000Y116000D02*
D03*
X1227000D02*
D03*
X1216000D02*
D03*
X1122000D02*
D03*
X1111000D02*
D03*
X1100000D02*
D03*
X1035000Y198000D02*
D03*
X1046000D02*
D03*
X1057000D02*
D03*
X922000D02*
D03*
X911000D02*
D03*
X900000D02*
D03*
X654000Y218000D02*
D03*
X683000Y245000D02*
D03*
X654000Y248000D02*
D03*
X621000Y190000D02*
D03*
X610000Y200000D02*
D03*
X320000Y201500D02*
D03*
X302000Y202500D02*
D03*
X311000Y202000D02*
D03*
X344000Y222000D02*
D03*
X334000Y214000D02*
D03*
X336000Y311000D02*
D03*
X341000Y248000D02*
D03*
Y278000D02*
D03*
X801000Y719000D02*
D03*
X786000D02*
D03*
X783000Y708000D02*
D03*
X753000D02*
D03*
X700501Y739800D02*
D03*
X720501D02*
D03*
X740501D02*
D03*
X760500D02*
D03*
X769000Y708000D02*
D03*
X780500Y739800D02*
D03*
X800500D02*
D03*
X790500D02*
D03*
X659000Y312000D02*
D03*
X696000Y304000D02*
D03*
X710000Y179000D02*
D03*
X737999Y707999D02*
D03*
X722000Y708000D02*
D03*
X690501Y739800D02*
D03*
X680501D02*
D03*
X670501D02*
D03*
X655499D02*
D03*
X663000Y745000D02*
D03*
X425000Y768202D02*
D03*
X431999Y589999D02*
D03*
X438999Y615999D02*
D03*
X488000Y832000D02*
D03*
X458000Y883000D02*
D03*
X453000Y651000D02*
D03*
X376000Y590000D02*
D03*
X448000Y659000D02*
D03*
X469602Y539602D02*
D03*
X369000Y489000D02*
D03*
X722000Y179000D02*
D03*
X735000D02*
D03*
X722302Y334302D02*
D03*
X747702D02*
D03*
X773102Y386302D02*
D03*
X798502Y362498D02*
D03*
X823902D02*
D03*
X1004000Y299000D02*
D03*
X991000Y298997D02*
D03*
X978000D02*
D03*
X965000Y299000D02*
D03*
X952000D02*
D03*
X989000Y324000D02*
D03*
X991998Y860998D02*
D03*
X982000Y861000D02*
D03*
X977000Y1041000D02*
D03*
X951000D02*
D03*
X985350Y234350D02*
D03*
X964000Y1041000D02*
D03*
X1001000Y1097000D02*
D03*
X1040000Y1132000D02*
D03*
X1060000Y984000D02*
D03*
X1470000Y421000D02*
D03*
X1480000D02*
D03*
X815000Y785000D02*
D03*
X823998Y794998D02*
D03*
X834998Y774998D02*
D03*
X1482000Y785000D02*
D03*
X1493000Y775000D02*
D03*
X1503000Y795000D02*
D03*
X557998Y855500D02*
D03*
X558000Y971000D02*
D03*
X543000Y855000D02*
D03*
X542999Y979998D02*
D03*
X583000Y855000D02*
D03*
X597998Y855500D02*
D03*
X583000Y991000D02*
D03*
X598000Y999000D02*
D03*
X1066000Y1027000D02*
D03*
X1058500D02*
D03*
X430000Y717402D02*
D03*
X422000Y670000D02*
D03*
X430000Y676000D02*
D03*
Y692000D02*
D03*
Y730000D02*
D03*
X708000Y708000D02*
D03*
X695000D02*
D03*
X672000Y716081D02*
D03*
X680000Y712000D02*
D03*
X510000Y713000D02*
D03*
X467250Y604250D02*
D03*
X475000Y615000D02*
D03*
X466000Y743000D02*
D03*
X482000Y895000D02*
D03*
X494000Y870000D02*
D03*
X473000Y856000D02*
D03*
X495803Y844000D02*
D03*
X486000Y162000D02*
D03*
X472000D02*
D03*
X590000Y375000D02*
D03*
M02*
