G04*
G04 #@! TF.GenerationSoftware,Altium Limited,Altium Designer,20.0.7 (75)*
G04*
G04 Layer_Physical_Order=2*
G04 Layer_Color=16711680*
%FSLAX44Y44*%
%MOMM*%
G71*
G01*
G75*
%ADD10C,0.2500*%
%ADD11C,0.4500*%
%ADD23C,1.0000*%
%ADD24C,0.1500*%
%ADD25C,0.6500*%
%ADD26C,1.5000*%
%ADD27C,0.3500*%
%ADD28C,1.5000*%
%ADD29R,1.5000X1.5000*%
%ADD30R,1.5000X1.5000*%
%ADD31C,1.9000*%
%ADD32R,1.9000X1.9000*%
%ADD33C,6.0000*%
%ADD34C,1.6900*%
%ADD35R,1.6900X1.6900*%
%ADD36C,4.7600*%
%ADD37C,0.6000*%
%ADD38R,0.9500X7.3000*%
%ADD39R,0.8000X0.9000*%
%ADD40R,1.1000X0.6500*%
%ADD41R,0.9000X0.6500*%
%ADD42R,0.9000X0.8000*%
%ADD43R,1.6500X1.3000*%
%ADD44R,0.3000X1.0000*%
%ADD45R,1.2000X2.4000*%
%ADD46O,0.7000X2.5000*%
%ADD47O,0.6000X2.3000*%
%ADD48R,1.1498X1.3995*%
%ADD49R,2.1500X0.5600*%
G04:AMPARAMS|DCode=50|XSize=0.25mm|YSize=0.7mm|CornerRadius=0.0625mm|HoleSize=0mm|Usage=FLASHONLY|Rotation=180.000|XOffset=0mm|YOffset=0mm|HoleType=Round|Shape=RoundedRectangle|*
%AMROUNDEDRECTD50*
21,1,0.2500,0.5750,0,0,180.0*
21,1,0.1250,0.7000,0,0,180.0*
1,1,0.1250,-0.0625,0.2875*
1,1,0.1250,0.0625,0.2875*
1,1,0.1250,0.0625,-0.2875*
1,1,0.1250,-0.0625,-0.2875*
%
%ADD50ROUNDEDRECTD50*%
%ADD51R,1.1000X2.6000*%
%ADD52R,2.6162X2.7432*%
%ADD53R,1.2000X2.0000*%
%ADD54R,2.7432X2.6162*%
%ADD55O,0.6000X1.9000*%
%ADD56C,1.0000*%
%ADD57C,0.8500*%
%ADD58C,2.5000*%
%ADD59C,0.8000*%
G36*
X902246Y700124D02*
X914020Y698730D01*
X925648Y696418D01*
X937058Y693199D01*
X948181Y689096D01*
X958948Y684133D01*
X969292Y678340D01*
X979149Y671753D01*
X988460Y664413D01*
X997166Y656366D01*
X1005213Y647660D01*
X1012553Y638349D01*
X1019140Y628492D01*
X1024932Y618148D01*
X1029896Y607381D01*
X1033999Y596258D01*
X1037218Y584848D01*
X1039530Y573220D01*
X1040924Y561446D01*
X1041374Y549992D01*
X1041322Y549600D01*
Y-549600D01*
X1041374Y-549992D01*
X1040924Y-561446D01*
X1039530Y-573220D01*
X1037218Y-584848D01*
X1033999Y-596258D01*
X1029896Y-607381D01*
X1024932Y-618148D01*
X1019140Y-628492D01*
X1012553Y-638349D01*
X1005213Y-647660D01*
X997166Y-656366D01*
X988460Y-664413D01*
X979149Y-671753D01*
X969292Y-678340D01*
X958948Y-684133D01*
X948181Y-689096D01*
X937058Y-693199D01*
X925648Y-696418D01*
X914020Y-698730D01*
X902246Y-700124D01*
X890792Y-700574D01*
X890400Y-700522D01*
X-890400D01*
X-890792Y-700574D01*
X-902246Y-700124D01*
X-914020Y-698730D01*
X-925648Y-696418D01*
X-937058Y-693199D01*
X-948181Y-689096D01*
X-958948Y-684133D01*
X-969292Y-678340D01*
X-979149Y-671753D01*
X-988460Y-664413D01*
X-997166Y-656366D01*
X-1005213Y-647660D01*
X-1012553Y-638349D01*
X-1019140Y-628492D01*
X-1024932Y-618148D01*
X-1029896Y-607381D01*
X-1033999Y-596258D01*
X-1037218Y-584848D01*
X-1039530Y-573220D01*
X-1040924Y-561446D01*
X-1041374Y-549992D01*
X-1041322Y-549600D01*
Y549600D01*
X-1041374Y549992D01*
X-1040924Y561446D01*
X-1039530Y573220D01*
X-1037218Y584848D01*
X-1033999Y596258D01*
X-1029896Y607381D01*
X-1024932Y618148D01*
X-1019140Y628492D01*
X-1012553Y638349D01*
X-1005213Y647660D01*
X-997166Y656366D01*
X-988460Y664413D01*
X-979149Y671753D01*
X-969292Y678340D01*
X-958948Y684133D01*
X-948181Y689096D01*
X-937058Y693199D01*
X-925648Y696418D01*
X-914020Y698730D01*
X-902246Y700124D01*
X-890792Y700574D01*
X-890400Y700522D01*
X890400D01*
X890792Y700574D01*
X902246Y700124D01*
D02*
G37*
%LPC*%
G36*
X892173Y567600D02*
X888627D01*
X885150Y566908D01*
X881874Y565551D01*
X878926Y563582D01*
X876419Y561074D01*
X874449Y558126D01*
X873092Y554850D01*
X872400Y551373D01*
Y547827D01*
X873092Y544350D01*
X874449Y541074D01*
X876419Y538126D01*
X878926Y535619D01*
X881874Y533649D01*
X885150Y532292D01*
X888627Y531600D01*
X892173D01*
X895650Y532292D01*
X898926Y533649D01*
X901874Y535619D01*
X904381Y538126D01*
X906351Y541074D01*
X907708Y544350D01*
X908400Y547827D01*
Y551373D01*
X907708Y554850D01*
X906351Y558126D01*
X904381Y561074D01*
X901874Y563582D01*
X898926Y565551D01*
X895650Y566908D01*
X892173Y567600D01*
D02*
G37*
G36*
X152899Y487421D02*
X149244Y486940D01*
X145838Y485529D01*
X142914Y483285D01*
X140950Y480727D01*
X140607Y480624D01*
X139790D01*
X139447Y480727D01*
X137484Y483285D01*
X134559Y485529D01*
X131153Y486940D01*
X127499Y487421D01*
X123844Y486940D01*
X120438Y485529D01*
X117514Y483285D01*
X115550Y480727D01*
X115207Y480624D01*
X114390D01*
X114047Y480727D01*
X112084Y483285D01*
X109159Y485529D01*
X105753Y486940D01*
X102099Y487421D01*
X98444Y486940D01*
X95038Y485529D01*
X92114Y483285D01*
X90150Y480727D01*
X89807Y480624D01*
X88990D01*
X88647Y480727D01*
X86684Y483285D01*
X83759Y485529D01*
X80353Y486940D01*
X76699Y487421D01*
X73044Y486940D01*
X69638Y485529D01*
X66714Y483285D01*
X64750Y480727D01*
X64407Y480624D01*
X63590D01*
X63247Y480727D01*
X61283Y483285D01*
X58359Y485529D01*
X54953Y486940D01*
X51299Y487421D01*
X47644Y486940D01*
X44238Y485529D01*
X41314Y483285D01*
X39351Y480727D01*
X39007Y480624D01*
X38190D01*
X37847Y480727D01*
X35884Y483285D01*
X32959Y485529D01*
X29553Y486940D01*
X25899Y487421D01*
X22244Y486940D01*
X18838Y485529D01*
X15914Y483285D01*
X13951Y480727D01*
X13607Y480624D01*
X12790D01*
X12447Y480727D01*
X10483Y483285D01*
X7559Y485529D01*
X4153Y486940D01*
X499Y487421D01*
X-3156Y486940D01*
X-6562Y485529D01*
X-9486Y483285D01*
X-11450Y480727D01*
X-11793Y480624D01*
X-12610D01*
X-12953Y480727D01*
X-14916Y483285D01*
X-17841Y485529D01*
X-21247Y486940D01*
X-24901Y487421D01*
X-28556Y486940D01*
X-31962Y485529D01*
X-34886Y483285D01*
X-36850Y480727D01*
X-37193Y480624D01*
X-38010D01*
X-38353Y480727D01*
X-40317Y483285D01*
X-43241Y485529D01*
X-46647Y486940D01*
X-50301Y487421D01*
X-53956Y486940D01*
X-57362Y485529D01*
X-60286Y483285D01*
X-62249Y480727D01*
X-62593Y480624D01*
X-63410D01*
X-63753Y480727D01*
X-65717Y483285D01*
X-68641Y485529D01*
X-72047Y486940D01*
X-75701Y487421D01*
X-79356Y486940D01*
X-82762Y485529D01*
X-85686Y483285D01*
X-87649Y480727D01*
X-87993Y480624D01*
X-88810D01*
X-89153Y480727D01*
X-91117Y483285D01*
X-94041Y485529D01*
X-97447Y486940D01*
X-101101Y487421D01*
X-104756Y486940D01*
X-108162Y485529D01*
X-111086Y483285D01*
X-113049Y480727D01*
X-113393Y480624D01*
X-114210D01*
X-114553Y480727D01*
X-116517Y483285D01*
X-119441Y485529D01*
X-122847Y486940D01*
X-126501Y487421D01*
X-130156Y486940D01*
X-133562Y485529D01*
X-136486Y483285D01*
X-138449Y480727D01*
X-138793Y480624D01*
X-139610D01*
X-139953Y480727D01*
X-141917Y483285D01*
X-144841Y485529D01*
X-148247Y486940D01*
X-151901Y487421D01*
X-155556Y486940D01*
X-158962Y485529D01*
X-161886Y483285D01*
X-163850Y480727D01*
X-164193Y480624D01*
X-165010D01*
X-165353Y480727D01*
X-167316Y483285D01*
X-170241Y485529D01*
X-173647Y486940D01*
X-177301Y487421D01*
X-180956Y486940D01*
X-184362Y485529D01*
X-187286Y483285D01*
X-189249Y480727D01*
X-189593Y480624D01*
X-190410D01*
X-190753Y480727D01*
X-192717Y483285D01*
X-195641Y485529D01*
X-199047Y486940D01*
X-202701Y487421D01*
X-206356Y486940D01*
X-209762Y485529D01*
X-212686Y483285D01*
X-214650Y480727D01*
X-214993Y480624D01*
X-215810D01*
X-216153Y480727D01*
X-218116Y483285D01*
X-221041Y485529D01*
X-224447Y486940D01*
X-228101Y487421D01*
X-231756Y486940D01*
X-235162Y485529D01*
X-238086Y483285D01*
X-240049Y480727D01*
X-240393Y480624D01*
X-241210D01*
X-241553Y480727D01*
X-243517Y483285D01*
X-246441Y485529D01*
X-249847Y486940D01*
X-253501Y487421D01*
X-257156Y486940D01*
X-260562Y485529D01*
X-263486Y483285D01*
X-265450Y480727D01*
X-265793Y480624D01*
X-266610D01*
X-266953Y480727D01*
X-268916Y483285D01*
X-271841Y485529D01*
X-275247Y486940D01*
X-278901Y487421D01*
X-282556Y486940D01*
X-285962Y485529D01*
X-288886Y483285D01*
X-290849Y480727D01*
X-291193Y480624D01*
X-292010D01*
X-292353Y480727D01*
X-294317Y483285D01*
X-297241Y485529D01*
X-300647Y486940D01*
X-304301Y487421D01*
X-307956Y486940D01*
X-311362Y485529D01*
X-314286Y483285D01*
X-316250Y480727D01*
X-316593Y480624D01*
X-317410D01*
X-317753Y480727D01*
X-319716Y483285D01*
X-322641Y485529D01*
X-326047Y486940D01*
X-329701Y487421D01*
X-333356Y486940D01*
X-336762Y485529D01*
X-339686Y483285D01*
X-341650Y480727D01*
X-341993Y480624D01*
X-342810D01*
X-343153Y480727D01*
X-345117Y483285D01*
X-348041Y485529D01*
X-351447Y486940D01*
X-355101Y487421D01*
X-358756Y486940D01*
X-362162Y485529D01*
X-365086Y483285D01*
X-367049Y480727D01*
X-367393Y480624D01*
X-368210D01*
X-368553Y480727D01*
X-370517Y483285D01*
X-373441Y485529D01*
X-376847Y486940D01*
X-380501Y487421D01*
X-384156Y486940D01*
X-387562Y485529D01*
X-390486Y483285D01*
X-392449Y480727D01*
X-392793Y480624D01*
X-393610D01*
X-393953Y480727D01*
X-395916Y483285D01*
X-398841Y485529D01*
X-402247Y486940D01*
X-405901Y487421D01*
X-409556Y486940D01*
X-412962Y485529D01*
X-415886Y483285D01*
X-417850Y480727D01*
X-418193Y480624D01*
X-419010D01*
X-419353Y480727D01*
X-421316Y483285D01*
X-424241Y485529D01*
X-427647Y486940D01*
X-431301Y487421D01*
X-434956Y486940D01*
X-438362Y485529D01*
X-441286Y483285D01*
X-443530Y480360D01*
X-444431Y478185D01*
X-445701Y478438D01*
Y484300D01*
X-454201D01*
Y473300D01*
X-456701D01*
Y470800D01*
X-467701D01*
Y462300D01*
X-461839D01*
X-461586Y461030D01*
X-463762Y460129D01*
X-466686Y457885D01*
X-468930Y454960D01*
X-470341Y451555D01*
X-470822Y447900D01*
X-470341Y444245D01*
X-468930Y440840D01*
X-466686Y437915D01*
X-463762Y435671D01*
X-460356Y434260D01*
X-456701Y433779D01*
X-453047Y434260D01*
X-449641Y435671D01*
X-446716Y437915D01*
X-446625Y438035D01*
X-445422Y437626D01*
Y422301D01*
X-444941Y418647D01*
X-443530Y415241D01*
X-441286Y412317D01*
X-434985Y406015D01*
X-432472Y404087D01*
X-432903Y402817D01*
X-480574D01*
X-505433Y427676D01*
Y435296D01*
X-505700Y437319D01*
X-506480Y439204D01*
X-507723Y440823D01*
X-508075Y441175D01*
X-508075Y441175D01*
X-512827Y445927D01*
X-514446Y447170D01*
X-516331Y447951D01*
X-518354Y448217D01*
X-577082D01*
X-577709Y448698D01*
X-580020Y449655D01*
X-582500Y449982D01*
X-584980Y449655D01*
X-587291Y448698D01*
X-589276Y447175D01*
X-590798Y445191D01*
X-591755Y442880D01*
X-592082Y440400D01*
X-591755Y437920D01*
X-590798Y435609D01*
X-589276Y433624D01*
X-587291Y432102D01*
X-584980Y431144D01*
X-582500Y430818D01*
X-580020Y431144D01*
X-577709Y432102D01*
X-577082Y432583D01*
X-569723D01*
X-569161Y431444D01*
X-570528Y429662D01*
X-571939Y426256D01*
X-572420Y422602D01*
X-571939Y418947D01*
X-571267Y417324D01*
X-571973Y416269D01*
X-584582D01*
X-585209Y416750D01*
X-587520Y417707D01*
X-590000Y418034D01*
X-592480Y417707D01*
X-594791Y416750D01*
X-596776Y415227D01*
X-598298Y413243D01*
X-599255Y410932D01*
X-599582Y408452D01*
X-599255Y405972D01*
X-598298Y403661D01*
X-596776Y401676D01*
X-594791Y400153D01*
X-592480Y399196D01*
X-590000Y398870D01*
X-587520Y399196D01*
X-585209Y400153D01*
X-584582Y400635D01*
X-572931D01*
X-572094Y399680D01*
X-572420Y397202D01*
X-571939Y393547D01*
X-571258Y391902D01*
X-571276Y391875D01*
X-572191Y390836D01*
X-573971Y390602D01*
X-575857Y389821D01*
X-577476Y388579D01*
X-584196Y381859D01*
X-584980Y381755D01*
X-587291Y380798D01*
X-589276Y379276D01*
X-590798Y377291D01*
X-591755Y374980D01*
X-592082Y372500D01*
X-591755Y370020D01*
X-590798Y367709D01*
X-590053Y366739D01*
X-590680Y365468D01*
X-592348D01*
X-594372Y365202D01*
X-596257Y364421D01*
X-597876Y363179D01*
X-609196Y351859D01*
X-609980Y351755D01*
X-612291Y350798D01*
X-614276Y349276D01*
X-615798Y347291D01*
X-616755Y344980D01*
X-617082Y342500D01*
X-616755Y340020D01*
X-615798Y337709D01*
X-614276Y335724D01*
X-612291Y334202D01*
X-609980Y333245D01*
X-607500Y332918D01*
X-605020Y333245D01*
X-602709Y334202D01*
X-600724Y335724D01*
X-599202Y337709D01*
X-598245Y340020D01*
X-598141Y340804D01*
X-589110Y349835D01*
X-572931D01*
X-572094Y348880D01*
X-572420Y346402D01*
X-571939Y342747D01*
X-571536Y341773D01*
X-572241Y340717D01*
X-584600D01*
X-586623Y340451D01*
X-588508Y339670D01*
X-590127Y338427D01*
X-599196Y329359D01*
X-599980Y329255D01*
X-602291Y328298D01*
X-604276Y326776D01*
X-605798Y324791D01*
X-606755Y322480D01*
X-607082Y320000D01*
X-606755Y317520D01*
X-605798Y315209D01*
X-604276Y313225D01*
X-602291Y311702D01*
X-599980Y310744D01*
X-597500Y310418D01*
X-595020Y310744D01*
X-592709Y311702D01*
X-590724Y313225D01*
X-589202Y315209D01*
X-588245Y317520D01*
X-588141Y318304D01*
X-581362Y325083D01*
X-569658D01*
X-569027Y324138D01*
X-569024Y323813D01*
X-569065Y323502D01*
X-558299D01*
X-547534D01*
X-547575Y323813D01*
X-547572Y324138D01*
X-546941Y325083D01*
X-544258D01*
X-543627Y324138D01*
X-543624Y323813D01*
X-543665Y323502D01*
X-532900D01*
X-522134D01*
X-522175Y323813D01*
X-522172Y324138D01*
X-521541Y325083D01*
X-508638D01*
X-502817Y319262D01*
Y310429D01*
X-502551Y308406D01*
X-502227Y307625D01*
X-501770Y306521D01*
X-500527Y304902D01*
X-487116Y291490D01*
X-487602Y290317D01*
X-518792D01*
X-519498Y291373D01*
X-519260Y291947D01*
X-518779Y295602D01*
X-519260Y299256D01*
X-520671Y302662D01*
X-522915Y305586D01*
X-525839Y307831D01*
X-529237Y309238D01*
X-529248Y309265D01*
X-529404Y310543D01*
X-527352Y311393D01*
X-525054Y313156D01*
X-523291Y315454D01*
X-522183Y318130D01*
X-522134Y318502D01*
X-532900D01*
X-543665D01*
X-543616Y318130D01*
X-542508Y315454D01*
X-540745Y313156D01*
X-538447Y311393D01*
X-536395Y310543D01*
X-536551Y309265D01*
X-536562Y309238D01*
X-539960Y307831D01*
X-542884Y305586D01*
X-544847Y303028D01*
X-545191Y302925D01*
X-546008D01*
X-546351Y303028D01*
X-548315Y305586D01*
X-551239Y307831D01*
X-554637Y309238D01*
X-554648Y309265D01*
X-554804Y310543D01*
X-552752Y311393D01*
X-550454Y313156D01*
X-548691Y315454D01*
X-547583Y318130D01*
X-547534Y318502D01*
X-558299D01*
X-569065D01*
X-569016Y318130D01*
X-567908Y315454D01*
X-566145Y313156D01*
X-563847Y311393D01*
X-561795Y310543D01*
X-561951Y309265D01*
X-561962Y309238D01*
X-565360Y307831D01*
X-568284Y305586D01*
X-570528Y302662D01*
X-571939Y299256D01*
X-572420Y295602D01*
X-571939Y291947D01*
X-571701Y291373D01*
X-572407Y290317D01*
X-584582D01*
X-585209Y290798D01*
X-587520Y291756D01*
X-590000Y292082D01*
X-592480Y291756D01*
X-594791Y290798D01*
X-596776Y289275D01*
X-598298Y287291D01*
X-599255Y284980D01*
X-599582Y282500D01*
X-599255Y280020D01*
X-598298Y277709D01*
X-596776Y275725D01*
X-594791Y274202D01*
X-592480Y273244D01*
X-590000Y272918D01*
X-587520Y273244D01*
X-585209Y274202D01*
X-584582Y274683D01*
X-572817D01*
X-571997Y273413D01*
X-572420Y270202D01*
X-571944Y266587D01*
X-571931Y266321D01*
X-572721Y265317D01*
X-632082D01*
X-632709Y265798D01*
X-635020Y266756D01*
X-637500Y267082D01*
X-639980Y266756D01*
X-642291Y265798D01*
X-644276Y264275D01*
X-645798Y262291D01*
X-646756Y259980D01*
X-647082Y257500D01*
X-646756Y255020D01*
X-645798Y252709D01*
X-644276Y250725D01*
X-642291Y249202D01*
X-639980Y248244D01*
X-637500Y247918D01*
X-635020Y248244D01*
X-632709Y249202D01*
X-632082Y249683D01*
X-572721D01*
X-571934Y248678D01*
X-571945Y248413D01*
X-572420Y244802D01*
X-571939Y241147D01*
X-571515Y240123D01*
X-572220Y239067D01*
X-624582D01*
X-625209Y239548D01*
X-627520Y240506D01*
X-630000Y240832D01*
X-632480Y240506D01*
X-634791Y239548D01*
X-636776Y238025D01*
X-638298Y236041D01*
X-639255Y233730D01*
X-639582Y231250D01*
X-639255Y228770D01*
X-638298Y226459D01*
X-636776Y224475D01*
X-634791Y222952D01*
X-632480Y221994D01*
X-630000Y221668D01*
X-627520Y221994D01*
X-625209Y222952D01*
X-624582Y223433D01*
X-573076D01*
X-572057Y222163D01*
X-572420Y219402D01*
X-572050Y216587D01*
X-573046Y215317D01*
X-617082D01*
X-617709Y215798D01*
X-620020Y216756D01*
X-622500Y217082D01*
X-624980Y216756D01*
X-627291Y215798D01*
X-629276Y214275D01*
X-630798Y212291D01*
X-631755Y209980D01*
X-632082Y207500D01*
X-631755Y205020D01*
X-630798Y202709D01*
X-629276Y200725D01*
X-627291Y199202D01*
X-624980Y198244D01*
X-622500Y197918D01*
X-620020Y198244D01*
X-617709Y199202D01*
X-617082Y199683D01*
X-569227D01*
X-568378Y198413D01*
X-569016Y196873D01*
X-569065Y196502D01*
X-558299D01*
Y191502D01*
X-569065D01*
X-569016Y191130D01*
X-568170Y189087D01*
X-568930Y187817D01*
X-609582D01*
X-610209Y188298D01*
X-612520Y189256D01*
X-615000Y189582D01*
X-617480Y189256D01*
X-619791Y188298D01*
X-621776Y186775D01*
X-623298Y184791D01*
X-624255Y182480D01*
X-624582Y180000D01*
X-624255Y177520D01*
X-623298Y175209D01*
X-621776Y173225D01*
X-619791Y171702D01*
X-617480Y170744D01*
X-615000Y170418D01*
X-612520Y170744D01*
X-610209Y171702D01*
X-609582Y172183D01*
X-572912D01*
X-572074Y171228D01*
X-572420Y168602D01*
X-571939Y164947D01*
X-570528Y161541D01*
X-568284Y158617D01*
X-565726Y156654D01*
X-565623Y156310D01*
Y155493D01*
X-565726Y155150D01*
X-568284Y153187D01*
X-570528Y150262D01*
X-571939Y146856D01*
X-572420Y143202D01*
X-571939Y139547D01*
X-570528Y136141D01*
X-568284Y133217D01*
X-565726Y131254D01*
X-565623Y130910D01*
Y130093D01*
X-565726Y129750D01*
X-568284Y127787D01*
X-570528Y124862D01*
X-571939Y121456D01*
X-572420Y117802D01*
X-571939Y114147D01*
X-570528Y110741D01*
X-568284Y107817D01*
X-565726Y105854D01*
X-565623Y105510D01*
Y104693D01*
X-565726Y104350D01*
X-568284Y102387D01*
X-570528Y99462D01*
X-571939Y96056D01*
X-572420Y92402D01*
X-571939Y88747D01*
X-570528Y85341D01*
X-568284Y82417D01*
X-565360Y80173D01*
X-561962Y78765D01*
X-561951Y78738D01*
X-561795Y77460D01*
X-563847Y76610D01*
X-566145Y74847D01*
X-567908Y72549D01*
X-569016Y69873D01*
X-569065Y69502D01*
X-558299D01*
X-547534D01*
X-547583Y69873D01*
X-548691Y72549D01*
X-550454Y74847D01*
X-552752Y76610D01*
X-554804Y77460D01*
X-554648Y78738D01*
X-554637Y78765D01*
X-551239Y80173D01*
X-548315Y82417D01*
X-546351Y84975D01*
X-546008Y85078D01*
X-545191D01*
X-544847Y84975D01*
X-542884Y82417D01*
X-539960Y80173D01*
X-536562Y78765D01*
X-536551Y78738D01*
X-536395Y77460D01*
X-538447Y76610D01*
X-540745Y74847D01*
X-542508Y72549D01*
X-543616Y69873D01*
X-543665Y69502D01*
X-532900D01*
X-522134D01*
X-522183Y69873D01*
X-523291Y72549D01*
X-525054Y74847D01*
X-527352Y76610D01*
X-529404Y77460D01*
X-529248Y78738D01*
X-529237Y78765D01*
X-525839Y80173D01*
X-522915Y82417D01*
X-521213Y84634D01*
X-490467D01*
X-489840Y84153D01*
X-487529Y83195D01*
X-485049Y82869D01*
X-482569Y83195D01*
X-480258Y84153D01*
X-478274Y85675D01*
X-476751Y87660D01*
X-475794Y89971D01*
X-475467Y92451D01*
X-475794Y94931D01*
X-476751Y97242D01*
X-478274Y99226D01*
X-480258Y100749D01*
X-482569Y101706D01*
X-485049Y102033D01*
X-487529Y101706D01*
X-489840Y100749D01*
X-490467Y100268D01*
X-521289D01*
X-522915Y102387D01*
X-525473Y104350D01*
X-525576Y104693D01*
Y105510D01*
X-525473Y105854D01*
X-522915Y107817D01*
X-521367Y109834D01*
X-490569D01*
X-489942Y109353D01*
X-487631Y108395D01*
X-485151Y108069D01*
X-482671Y108395D01*
X-480360Y109353D01*
X-478375Y110875D01*
X-476853Y112860D01*
X-475895Y115171D01*
X-475569Y117651D01*
X-475895Y120131D01*
X-476853Y122442D01*
X-478375Y124426D01*
X-480360Y125949D01*
X-482671Y126906D01*
X-485151Y127233D01*
X-487631Y126906D01*
X-489942Y125949D01*
X-490569Y125468D01*
X-521135D01*
X-522915Y127787D01*
X-525473Y129750D01*
X-525576Y130093D01*
Y130910D01*
X-525473Y131254D01*
X-522915Y133217D01*
X-521385Y135209D01*
X-490998D01*
X-490142Y134553D01*
X-487831Y133595D01*
X-485351Y133269D01*
X-482871Y133595D01*
X-480560Y134553D01*
X-478575Y136075D01*
X-477053Y138060D01*
X-476095Y140371D01*
X-475769Y142851D01*
X-476095Y145331D01*
X-477053Y147642D01*
X-478575Y149626D01*
X-480560Y151149D01*
X-482871Y152106D01*
X-485351Y152433D01*
X-487831Y152106D01*
X-490142Y151149D01*
X-490541Y150843D01*
X-521116D01*
X-522915Y153187D01*
X-525473Y155150D01*
X-525576Y155493D01*
Y156310D01*
X-525473Y156654D01*
X-522915Y158617D01*
X-521674Y160234D01*
X-490969D01*
X-490342Y159753D01*
X-488031Y158795D01*
X-485551Y158469D01*
X-483071Y158795D01*
X-480760Y159753D01*
X-478775Y161275D01*
X-477253Y163260D01*
X-476295Y165571D01*
X-475969Y168051D01*
X-476295Y170531D01*
X-477253Y172842D01*
X-478775Y174826D01*
X-480760Y176349D01*
X-483071Y177306D01*
X-485551Y177633D01*
X-488031Y177306D01*
X-490342Y176349D01*
X-490969Y175868D01*
X-501418D01*
X-501904Y177041D01*
X-489262Y189683D01*
X-457500D01*
X-455477Y189949D01*
X-453592Y190730D01*
X-451973Y191973D01*
X-431762Y212183D01*
X-350000D01*
X212990Y212183D01*
X215013Y212449D01*
X215794Y212773D01*
X216898Y213230D01*
X218517Y214473D01*
X246228Y242183D01*
X280084D01*
X280492Y240980D01*
X280224Y240776D01*
X278702Y238791D01*
X277753Y236500D01*
X276131D01*
Y215500D01*
Y202502D01*
X276000D01*
Y200772D01*
X276000Y199502D01*
X270500D01*
Y192002D01*
X265500D01*
Y199502D01*
X260000D01*
Y193155D01*
X259186Y192879D01*
X258730Y192810D01*
X256791Y194298D01*
X254480Y195256D01*
X252000Y195582D01*
X249520Y195256D01*
X247209Y194298D01*
X246394Y193673D01*
X245641Y193837D01*
X245135Y194052D01*
X244822Y196425D01*
X243865Y198736D01*
X242342Y200720D01*
X240358Y202243D01*
X238047Y203200D01*
X237607Y203258D01*
X237591Y203381D01*
X236634Y205692D01*
X235111Y207676D01*
X233126Y209199D01*
X230815Y210156D01*
X228335Y210483D01*
X225855Y210156D01*
X223544Y209199D01*
X222909Y208712D01*
X-78602Y207833D01*
X-79209Y208298D01*
X-81520Y209256D01*
X-84000Y209582D01*
X-86480Y209256D01*
X-88791Y208298D01*
X-90775Y206775D01*
X-92298Y204791D01*
X-93256Y202480D01*
X-93266Y202402D01*
X-93520Y202255D01*
X-96000Y202582D01*
X-98480Y202255D01*
X-100791Y201298D01*
X-102775Y199776D01*
X-104298Y197791D01*
X-105255Y195480D01*
X-105582Y193000D01*
X-105255Y190520D01*
X-104298Y188209D01*
X-102775Y186224D01*
X-102659Y186135D01*
Y184865D01*
X-102775Y184776D01*
X-104298Y182791D01*
X-105255Y180480D01*
X-105582Y178000D01*
X-105526Y177576D01*
X-106363Y176621D01*
X-160961D01*
X-161360Y179655D01*
X-162771Y183060D01*
X-165015Y185985D01*
X-167940Y188229D01*
X-171345Y189640D01*
X-175000Y190121D01*
X-178655Y189640D01*
X-182060Y188229D01*
X-184985Y185985D01*
X-187229Y183060D01*
X-188640Y179655D01*
X-189121Y176000D01*
Y162500D01*
X-188640Y158845D01*
X-187229Y155440D01*
X-184985Y152515D01*
X-182060Y150271D01*
X-178655Y148860D01*
X-175000Y148379D01*
X266500D01*
X266950Y148438D01*
X267904Y147601D01*
Y134100D01*
X328904D01*
Y157100D01*
X325814D01*
X325328Y158273D01*
X331527Y164473D01*
X332770Y166092D01*
X333354Y167502D01*
X337000D01*
Y174945D01*
X337252Y175166D01*
X411000D01*
X413545Y175501D01*
X414528Y175908D01*
X415917Y176483D01*
X417954Y178046D01*
X434075Y194167D01*
X496000D01*
Y193502D01*
X497548D01*
X497675Y193270D01*
X496923Y192000D01*
X494500D01*
Y189000D01*
X492500D01*
Y172000D01*
X492643D01*
X493492Y170730D01*
X493001Y169545D01*
X492666Y167000D01*
Y144834D01*
X443500D01*
Y147500D01*
X408500D01*
Y147500D01*
X393502D01*
Y116000D01*
X391503D01*
Y113000D01*
X387502D01*
Y125500D01*
X378502D01*
X369502D01*
Y111500D01*
X380503D01*
Y107500D01*
X388003D01*
Y102500D01*
X380503D01*
Y100556D01*
X358000D01*
X356303Y100333D01*
X354722Y99678D01*
X353364Y98636D01*
X350364Y95636D01*
X349322Y94278D01*
X348667Y92697D01*
X348444Y91000D01*
Y-3000D01*
X348667Y-4697D01*
X349322Y-6278D01*
X350364Y-7636D01*
X351722Y-8678D01*
X353303Y-9333D01*
X353881Y-9409D01*
X353798Y-10679D01*
X227736D01*
X225480Y-9744D01*
X223000Y-9418D01*
X220520Y-9744D01*
X218209Y-10702D01*
X216224Y-12225D01*
X214702Y-14209D01*
X213745Y-16520D01*
X213418Y-19000D01*
X213745Y-21480D01*
X214702Y-23791D01*
X216224Y-25775D01*
X218209Y-27298D01*
X220520Y-28256D01*
X223000Y-28582D01*
X225480Y-28256D01*
X227736Y-27321D01*
X232567D01*
X233608Y-28591D01*
X233422Y-30000D01*
Y-186241D01*
X232366Y-186947D01*
X232002Y-186796D01*
X229000Y-186401D01*
X225998Y-186796D01*
X223346Y-187895D01*
X221791Y-186702D01*
X219480Y-185744D01*
X217000Y-185418D01*
X214520Y-185744D01*
X212264Y-186679D01*
X-501264D01*
X-503520Y-185744D01*
X-506000Y-185418D01*
X-508480Y-185744D01*
X-510791Y-186702D01*
X-512775Y-188225D01*
X-514298Y-190209D01*
X-515256Y-192520D01*
X-515582Y-195000D01*
X-515256Y-197480D01*
X-514298Y-199791D01*
X-512775Y-201775D01*
X-510791Y-203298D01*
X-508480Y-204256D01*
X-506000Y-204582D01*
X-503520Y-204256D01*
X-501264Y-203321D01*
X-40285D01*
X-39724Y-204460D01*
X-40298Y-205209D01*
X-41255Y-207520D01*
X-41408Y-208680D01*
X-41520Y-208745D01*
X-44000Y-208418D01*
X-46480Y-208745D01*
X-48791Y-209702D01*
X-50775Y-211224D01*
X-52298Y-213209D01*
X-53256Y-215520D01*
X-53582Y-218000D01*
X-53256Y-220480D01*
X-52298Y-222791D01*
X-52199Y-222920D01*
X-52685Y-224093D01*
X-53953Y-224260D01*
X-57359Y-225671D01*
X-60283Y-227915D01*
X-62246Y-230473D01*
X-62589Y-230576D01*
X-63407D01*
X-63750Y-230473D01*
X-65713Y-227915D01*
X-68638Y-225671D01*
X-72043Y-224260D01*
X-75698Y-223779D01*
X-79353Y-224260D01*
X-82759Y-225671D01*
X-85683Y-227915D01*
X-87646Y-230473D01*
X-87989Y-230576D01*
X-88807D01*
X-89150Y-230473D01*
X-91113Y-227915D01*
X-94038Y-225671D01*
X-97443Y-224260D01*
X-101098Y-223779D01*
X-104753Y-224260D01*
X-108159Y-225671D01*
X-111083Y-227915D01*
X-113046Y-230473D01*
X-113389Y-230576D01*
X-114207D01*
X-114550Y-230473D01*
X-116513Y-227915D01*
X-119438Y-225671D01*
X-122843Y-224260D01*
X-126498Y-223779D01*
X-130153Y-224260D01*
X-133559Y-225671D01*
X-136483Y-227915D01*
X-138446Y-230473D01*
X-138789Y-230576D01*
X-139607D01*
X-139950Y-230473D01*
X-141913Y-227915D01*
X-144838Y-225671D01*
X-148243Y-224260D01*
X-151898Y-223779D01*
X-155553Y-224260D01*
X-158959Y-225671D01*
X-161883Y-227915D01*
X-163846Y-230473D01*
X-164189Y-230576D01*
X-165007D01*
X-165350Y-230473D01*
X-167313Y-227915D01*
X-170238Y-225671D01*
X-173643Y-224260D01*
X-177298Y-223779D01*
X-180953Y-224260D01*
X-184359Y-225671D01*
X-187283Y-227915D01*
X-189246Y-230473D01*
X-189589Y-230576D01*
X-190407D01*
X-190750Y-230473D01*
X-192713Y-227915D01*
X-195638Y-225671D01*
X-199043Y-224260D01*
X-202698Y-223779D01*
X-206353Y-224260D01*
X-209759Y-225671D01*
X-212683Y-227915D01*
X-214646Y-230473D01*
X-214989Y-230576D01*
X-215807D01*
X-216150Y-230473D01*
X-218113Y-227915D01*
X-221038Y-225671D01*
X-224443Y-224260D01*
X-228098Y-223779D01*
X-231753Y-224260D01*
X-235159Y-225671D01*
X-238083Y-227915D01*
X-240046Y-230473D01*
X-240389Y-230576D01*
X-241207D01*
X-241550Y-230473D01*
X-243513Y-227915D01*
X-246438Y-225671D01*
X-249843Y-224260D01*
X-253498Y-223779D01*
X-257153Y-224260D01*
X-260559Y-225671D01*
X-263483Y-227915D01*
X-265446Y-230473D01*
X-265789Y-230576D01*
X-266607D01*
X-266950Y-230473D01*
X-268913Y-227915D01*
X-271838Y-225671D01*
X-275243Y-224260D01*
X-278898Y-223779D01*
X-282553Y-224260D01*
X-285959Y-225671D01*
X-288883Y-227915D01*
X-290846Y-230473D01*
X-291189Y-230576D01*
X-292007D01*
X-292350Y-230473D01*
X-294313Y-227915D01*
X-297238Y-225671D01*
X-300643Y-224260D01*
X-304298Y-223779D01*
X-307953Y-224260D01*
X-311359Y-225671D01*
X-314283Y-227915D01*
X-316246Y-230473D01*
X-316589Y-230576D01*
X-317407D01*
X-317750Y-230473D01*
X-319713Y-227915D01*
X-322638Y-225671D01*
X-326043Y-224260D01*
X-329698Y-223779D01*
X-333353Y-224260D01*
X-336759Y-225671D01*
X-339683Y-227915D01*
X-341646Y-230473D01*
X-341989Y-230576D01*
X-342807D01*
X-343150Y-230473D01*
X-345113Y-227915D01*
X-348038Y-225671D01*
X-351443Y-224260D01*
X-355098Y-223779D01*
X-358753Y-224260D01*
X-362159Y-225671D01*
X-365083Y-227915D01*
X-367046Y-230473D01*
X-367389Y-230576D01*
X-368207D01*
X-368550Y-230473D01*
X-370513Y-227915D01*
X-373438Y-225671D01*
X-376843Y-224260D01*
X-380498Y-223779D01*
X-384153Y-224260D01*
X-387559Y-225671D01*
X-390483Y-227915D01*
X-392446Y-230473D01*
X-392789Y-230576D01*
X-393607D01*
X-393950Y-230473D01*
X-395913Y-227915D01*
X-398838Y-225671D01*
X-402243Y-224260D01*
X-405898Y-223779D01*
X-409553Y-224260D01*
X-412959Y-225671D01*
X-415883Y-227915D01*
X-417846Y-230473D01*
X-418189Y-230576D01*
X-419007D01*
X-419350Y-230473D01*
X-421313Y-227915D01*
X-424238Y-225671D01*
X-427643Y-224260D01*
X-431298Y-223779D01*
X-434953Y-224260D01*
X-438359Y-225671D01*
X-441283Y-227915D01*
X-443527Y-230840D01*
X-444428Y-233015D01*
X-445698Y-232762D01*
Y-226900D01*
X-454198D01*
Y-237900D01*
X-456698D01*
Y-240400D01*
X-467698D01*
Y-248900D01*
X-461836D01*
X-461583Y-250170D01*
X-463759Y-251071D01*
X-466683Y-253315D01*
X-468927Y-256240D01*
X-470338Y-259645D01*
X-470819Y-263300D01*
X-470338Y-266955D01*
X-468927Y-270360D01*
X-466683Y-273285D01*
X-463759Y-275529D01*
X-460353Y-276940D01*
X-456698Y-277421D01*
X-453043Y-276940D01*
X-449638Y-275529D01*
X-446713Y-273285D01*
X-444750Y-270727D01*
X-444407Y-270624D01*
X-443589D01*
X-443246Y-270727D01*
X-441283Y-273285D01*
X-438359Y-275529D01*
X-434953Y-276940D01*
X-431298Y-277421D01*
X-427643Y-276940D01*
X-424238Y-275529D01*
X-421313Y-273285D01*
X-419350Y-270727D01*
X-419007Y-270624D01*
X-418189D01*
X-417846Y-270727D01*
X-415883Y-273285D01*
X-412959Y-275529D01*
X-409553Y-276940D01*
X-405898Y-277421D01*
X-402243Y-276940D01*
X-398838Y-275529D01*
X-395913Y-273285D01*
X-393950Y-270727D01*
X-393607Y-270624D01*
X-392789D01*
X-392446Y-270727D01*
X-390483Y-273285D01*
X-387559Y-275529D01*
X-384153Y-276940D01*
X-380498Y-277421D01*
X-376843Y-276940D01*
X-373438Y-275529D01*
X-370513Y-273285D01*
X-368550Y-270727D01*
X-368207Y-270624D01*
X-367389D01*
X-367046Y-270727D01*
X-365083Y-273285D01*
X-362159Y-275529D01*
X-358753Y-276940D01*
X-355098Y-277421D01*
X-351443Y-276940D01*
X-348038Y-275529D01*
X-345113Y-273285D01*
X-343150Y-270727D01*
X-342807Y-270624D01*
X-341989D01*
X-341646Y-270727D01*
X-339683Y-273285D01*
X-336759Y-275529D01*
X-333353Y-276940D01*
X-329698Y-277421D01*
X-327619Y-277147D01*
X-323261Y-281506D01*
X-323747Y-282679D01*
X-448264D01*
X-450520Y-281744D01*
X-453000Y-281418D01*
X-455480Y-281744D01*
X-457736Y-282679D01*
X-492264D01*
X-494520Y-281744D01*
X-497000Y-281418D01*
X-499480Y-281744D01*
X-501791Y-282702D01*
X-503775Y-284224D01*
X-505298Y-286209D01*
X-506255Y-288520D01*
X-506582Y-291000D01*
X-506255Y-293480D01*
X-505298Y-295791D01*
X-503775Y-297775D01*
X-501791Y-299298D01*
X-499480Y-300256D01*
X-497000Y-300582D01*
X-494520Y-300256D01*
X-492264Y-299321D01*
X-457736D01*
X-455480Y-300256D01*
X-453000Y-300582D01*
X-450520Y-300256D01*
X-448264Y-299321D01*
X-320447D01*
X-302884Y-316884D01*
X-301161Y-318206D01*
X-299154Y-319038D01*
X-297000Y-319321D01*
X32667D01*
X34821Y-319038D01*
X36828Y-318206D01*
X38551Y-316884D01*
X48114Y-307321D01*
X65264D01*
X67520Y-308256D01*
X70000Y-308582D01*
X72480Y-308256D01*
X74791Y-307298D01*
X76775Y-305776D01*
X78298Y-303791D01*
X79255Y-301480D01*
X79582Y-299000D01*
X79255Y-296520D01*
X78298Y-294209D01*
X77841Y-293613D01*
X78476Y-292513D01*
X79000Y-292582D01*
X81480Y-292255D01*
X83791Y-291298D01*
X85775Y-289776D01*
X87298Y-287791D01*
X88256Y-285480D01*
X88582Y-283000D01*
X88256Y-280520D01*
X87298Y-278209D01*
X85775Y-276224D01*
X85143Y-275739D01*
Y-274469D01*
X86687Y-273285D01*
X88650Y-270727D01*
X88993Y-270624D01*
X89811D01*
X90154Y-270727D01*
X92117Y-273285D01*
X95041Y-275529D01*
X98447Y-276940D01*
X102102Y-277421D01*
X105757Y-276940D01*
X109162Y-275529D01*
X112087Y-273285D01*
X114050Y-270727D01*
X114393Y-270624D01*
X115211D01*
X115554Y-270727D01*
X117517Y-273285D01*
X120441Y-275529D01*
X123847Y-276940D01*
X127502Y-277421D01*
X131157Y-276940D01*
X134562Y-275529D01*
X137487Y-273285D01*
X139450Y-270727D01*
X139793Y-270624D01*
X140611D01*
X140954Y-270727D01*
X142917Y-273285D01*
X145841Y-275529D01*
X149247Y-276940D01*
X152902Y-277421D01*
X156557Y-276940D01*
X159962Y-275529D01*
X162887Y-273285D01*
X164850Y-270727D01*
X165193Y-270624D01*
X166011D01*
X166354Y-270727D01*
X168317Y-273285D01*
X171241Y-275529D01*
X174647Y-276940D01*
X178302Y-277421D01*
X181957Y-276940D01*
X185362Y-275529D01*
X188287Y-273285D01*
X190531Y-270360D01*
X191942Y-266955D01*
X192423Y-263300D01*
X191942Y-259645D01*
X190531Y-256240D01*
X188287Y-253315D01*
X185728Y-251352D01*
X185626Y-251009D01*
Y-250191D01*
X185728Y-249848D01*
X188287Y-247885D01*
X190531Y-244960D01*
X191942Y-241555D01*
X192423Y-237900D01*
X191942Y-234245D01*
X190531Y-230840D01*
X188287Y-227915D01*
X185362Y-225671D01*
X181957Y-224260D01*
X178302Y-223779D01*
X174647Y-224260D01*
X171241Y-225671D01*
X168317Y-227915D01*
X166623Y-230123D01*
X165198Y-230253D01*
X164501Y-229593D01*
Y-221903D01*
X167681Y-218722D01*
X220000D01*
X220062Y-218714D01*
X220123Y-218722D01*
X229000D01*
X232002Y-218327D01*
X232366Y-218176D01*
X233422Y-218882D01*
Y-240000D01*
X233422Y-240000D01*
X233731Y-242350D01*
X234638Y-244539D01*
X236081Y-246419D01*
X237961Y-247862D01*
X240150Y-248768D01*
X242500Y-249078D01*
X748750D01*
X751099Y-248768D01*
X753289Y-247862D01*
X755169Y-246419D01*
X756611Y-244539D01*
X757518Y-242350D01*
X757828Y-240000D01*
Y-30000D01*
X757518Y-27650D01*
X756611Y-25461D01*
X755169Y-23581D01*
X753289Y-22139D01*
X751099Y-21232D01*
X748750Y-20922D01*
X484292D01*
X483455Y-19967D01*
X483582Y-19000D01*
X483256Y-16520D01*
X482298Y-14209D01*
X480775Y-12225D01*
X478791Y-10702D01*
X476480Y-9744D01*
X474000Y-9418D01*
X473706Y-9457D01*
X472556Y-8327D01*
Y7500D01*
X472995Y8000D01*
X481498D01*
Y13500D01*
X473998D01*
Y18500D01*
X481498D01*
Y22000D01*
Y27500D01*
X473998D01*
Y31418D01*
X474000Y31418D01*
X476480Y31744D01*
X478306Y32500D01*
X481498D01*
Y35166D01*
X482298Y36209D01*
X483256Y38520D01*
X483450Y40000D01*
X484498D01*
Y54000D01*
X484502D01*
Y76000D01*
X484498D01*
Y90000D01*
X481498D01*
Y90500D01*
X473998D01*
Y95500D01*
X481498D01*
Y98998D01*
X481502D01*
Y104498D01*
X474002D01*
Y106998D01*
X471502D01*
Y114998D01*
X470502D01*
Y117998D01*
X449502D01*
Y114567D01*
X443500D01*
Y125166D01*
X498192D01*
X500738Y125501D01*
X503109Y126483D01*
X505146Y128046D01*
X509454Y132354D01*
X511017Y134390D01*
X511592Y135780D01*
X511999Y136762D01*
X512334Y139307D01*
Y167000D01*
X512197Y168045D01*
X513034Y169000D01*
X700500D01*
Y192000D01*
X670317D01*
Y281489D01*
X670051Y283512D01*
X669270Y285397D01*
X668027Y287016D01*
X559516Y395527D01*
X557897Y396770D01*
X556793Y397227D01*
X556012Y397551D01*
X553989Y397817D01*
X185000D01*
X182977Y397551D01*
X181092Y396770D01*
X179473Y395527D01*
X151762Y367817D01*
X-335000Y367817D01*
X-343478D01*
X-376189Y400527D01*
X-376295Y400609D01*
X-375864Y401879D01*
X-189039D01*
X-188640Y398845D01*
X-187229Y395440D01*
X-184985Y392515D01*
X-182060Y390271D01*
X-178655Y388860D01*
X-175000Y388379D01*
X-171345Y388860D01*
X-167940Y390271D01*
X-165015Y392515D01*
X-162771Y395440D01*
X-161360Y398845D01*
X-160879Y402500D01*
Y416000D01*
X-161360Y419655D01*
X-162771Y423060D01*
X-165015Y425985D01*
X-167940Y428229D01*
X-171345Y429640D01*
X-175000Y430121D01*
X-417181D01*
Y437626D01*
X-415978Y438035D01*
X-415886Y437915D01*
X-412962Y435671D01*
X-409556Y434260D01*
X-405901Y433779D01*
X-402247Y434260D01*
X-398841Y435671D01*
X-395916Y437915D01*
X-393953Y440474D01*
X-393610Y440576D01*
X-392793D01*
X-392449Y440474D01*
X-390486Y437915D01*
X-387562Y435671D01*
X-384156Y434260D01*
X-380501Y433779D01*
X-376847Y434260D01*
X-373441Y435671D01*
X-370517Y437915D01*
X-368553Y440474D01*
X-368210Y440576D01*
X-367393D01*
X-367049Y440474D01*
X-365086Y437915D01*
X-362162Y435671D01*
X-358756Y434260D01*
X-355101Y433779D01*
X-351447Y434260D01*
X-348041Y435671D01*
X-345117Y437915D01*
X-343153Y440474D01*
X-342810Y440576D01*
X-341993D01*
X-341650Y440474D01*
X-339686Y437915D01*
X-336762Y435671D01*
X-333356Y434260D01*
X-329701Y433779D01*
X-326047Y434260D01*
X-322641Y435671D01*
X-319716Y437915D01*
X-317753Y440474D01*
X-317410Y440576D01*
X-316593D01*
X-316250Y440474D01*
X-314286Y437915D01*
X-311362Y435671D01*
X-307956Y434260D01*
X-304301Y433779D01*
X-300647Y434260D01*
X-297241Y435671D01*
X-294317Y437915D01*
X-292353Y440474D01*
X-292010Y440576D01*
X-291193D01*
X-290849Y440474D01*
X-288886Y437915D01*
X-285962Y435671D01*
X-282556Y434260D01*
X-278901Y433779D01*
X-275247Y434260D01*
X-271841Y435671D01*
X-268916Y437915D01*
X-266953Y440474D01*
X-266610Y440576D01*
X-265793D01*
X-265450Y440474D01*
X-263486Y437915D01*
X-260562Y435671D01*
X-257156Y434260D01*
X-253501Y433779D01*
X-249847Y434260D01*
X-246441Y435671D01*
X-243517Y437915D01*
X-241553Y440474D01*
X-241210Y440576D01*
X-240393D01*
X-240049Y440474D01*
X-238086Y437915D01*
X-235162Y435671D01*
X-231756Y434260D01*
X-228101Y433779D01*
X-224447Y434260D01*
X-221041Y435671D01*
X-218116Y437915D01*
X-216153Y440474D01*
X-215810Y440576D01*
X-214993D01*
X-214650Y440474D01*
X-212686Y437915D01*
X-209762Y435671D01*
X-206356Y434260D01*
X-202701Y433779D01*
X-199047Y434260D01*
X-195641Y435671D01*
X-192717Y437915D01*
X-190753Y440474D01*
X-190410Y440576D01*
X-189593D01*
X-189249Y440474D01*
X-187286Y437915D01*
X-184362Y435671D01*
X-180956Y434260D01*
X-177301Y433779D01*
X-173647Y434260D01*
X-170241Y435671D01*
X-167316Y437915D01*
X-165353Y440474D01*
X-165010Y440576D01*
X-164193D01*
X-163850Y440474D01*
X-161886Y437915D01*
X-158962Y435671D01*
X-155556Y434260D01*
X-151901Y433779D01*
X-148247Y434260D01*
X-144841Y435671D01*
X-141917Y437915D01*
X-139953Y440474D01*
X-139610Y440576D01*
X-138793D01*
X-138449Y440474D01*
X-136486Y437915D01*
X-133562Y435671D01*
X-130156Y434260D01*
X-126501Y433779D01*
X-122847Y434260D01*
X-119441Y435671D01*
X-116517Y437915D01*
X-114553Y440474D01*
X-114210Y440576D01*
X-113393D01*
X-113049Y440474D01*
X-111086Y437915D01*
X-108162Y435671D01*
X-104756Y434260D01*
X-101101Y433779D01*
X-97447Y434260D01*
X-94041Y435671D01*
X-91117Y437915D01*
X-89153Y440474D01*
X-88810Y440576D01*
X-87993D01*
X-87649Y440474D01*
X-85686Y437915D01*
X-82762Y435671D01*
X-79356Y434260D01*
X-75701Y433779D01*
X-72047Y434260D01*
X-68641Y435671D01*
X-65717Y437915D01*
X-63753Y440474D01*
X-63410Y440576D01*
X-62593D01*
X-62249Y440474D01*
X-60286Y437915D01*
X-57362Y435671D01*
X-53956Y434260D01*
X-50301Y433779D01*
X-46647Y434260D01*
X-43241Y435671D01*
X-40317Y437915D01*
X-38353Y440474D01*
X-38010Y440576D01*
X-37193D01*
X-36850Y440474D01*
X-34886Y437915D01*
X-31962Y435671D01*
X-28556Y434260D01*
X-24901Y433779D01*
X-21247Y434260D01*
X-19037Y435176D01*
X-18396Y434066D01*
X-18776Y433775D01*
X-20298Y431791D01*
X-21256Y429480D01*
X-21582Y427000D01*
X-21256Y424520D01*
X-20298Y422209D01*
X-18776Y420224D01*
X-16791Y418702D01*
X-14480Y417744D01*
X-12000Y417418D01*
X-9520Y417744D01*
X-7209Y418702D01*
X-6582Y419183D01*
X3526D01*
X3744Y417520D01*
X4702Y415209D01*
X6224Y413224D01*
X8209Y411702D01*
X10520Y410745D01*
X11304Y410641D01*
X15473Y406473D01*
X17092Y405230D01*
X18977Y404450D01*
X21000Y404183D01*
X75582D01*
X76209Y403702D01*
X78520Y402744D01*
X81000Y402418D01*
X83480Y402744D01*
X85791Y403702D01*
X87775Y405224D01*
X89298Y407209D01*
X90255Y409520D01*
X90582Y412000D01*
X90743Y412183D01*
X95582D01*
X96209Y411702D01*
X98520Y410745D01*
X101000Y410418D01*
X103480Y410745D01*
X105791Y411702D01*
X107775Y413224D01*
X109298Y415209D01*
X110181Y417339D01*
X110584Y417773D01*
X111364Y418223D01*
X112520Y417744D01*
X115000Y417418D01*
X117480Y417744D01*
X119791Y418702D01*
X121776Y420224D01*
X123298Y422209D01*
X124256Y424520D01*
X124582Y427000D01*
X124256Y429480D01*
X123298Y431791D01*
X121776Y433775D01*
X122509Y434813D01*
X123844Y434260D01*
X127499Y433779D01*
X131153Y434260D01*
X134559Y435671D01*
X137484Y437915D01*
X139447Y440474D01*
X139790Y440576D01*
X140607D01*
X140950Y440474D01*
X142914Y437915D01*
X145838Y435671D01*
X149244Y434260D01*
X152899Y433779D01*
X156553Y434260D01*
X159959Y435671D01*
X162883Y437915D01*
X164847Y440474D01*
X165190Y440576D01*
X166007D01*
X166350Y440474D01*
X168314Y437915D01*
X171238Y435671D01*
X174644Y434260D01*
X178299Y433779D01*
X181953Y434260D01*
X185359Y435671D01*
X188284Y437915D01*
X190528Y440840D01*
X191938Y444245D01*
X192419Y447900D01*
X191938Y451555D01*
X190528Y454960D01*
X188284Y457885D01*
X185359Y460129D01*
X181961Y461536D01*
X181950Y461563D01*
X181794Y462842D01*
X183846Y463692D01*
X186144Y465455D01*
X187907Y467753D01*
X189015Y470428D01*
X189064Y470800D01*
X178299D01*
Y473300D01*
X175799D01*
Y484066D01*
X175427Y484017D01*
X172751Y482909D01*
X170453Y481145D01*
X168690Y478848D01*
X167840Y476796D01*
X166562Y476952D01*
X166535Y476963D01*
X165128Y480360D01*
X162883Y483285D01*
X159959Y485529D01*
X156553Y486940D01*
X152899Y487421D01*
D02*
G37*
G36*
X180799Y484066D02*
Y475800D01*
X189064D01*
X189015Y476172D01*
X187907Y478848D01*
X186144Y481145D01*
X183846Y482909D01*
X181170Y484017D01*
X180799Y484066D01*
D02*
G37*
G36*
X-459201Y484300D02*
X-467701D01*
Y475800D01*
X-459201D01*
Y484300D01*
D02*
G37*
G36*
X486500Y171500D02*
X477250D01*
Y164000D01*
X486500D01*
Y171500D01*
D02*
G37*
G36*
X472250D02*
X463000D01*
Y164000D01*
X472250D01*
Y171500D01*
D02*
G37*
G36*
X727000D02*
X717750D01*
Y164000D01*
X727000D01*
Y171500D01*
D02*
G37*
G36*
X712750D02*
X703500D01*
Y164000D01*
X712750D01*
Y171500D01*
D02*
G37*
G36*
X727000Y159000D02*
X717750D01*
Y151500D01*
X727000D01*
Y159000D01*
D02*
G37*
G36*
X712750D02*
X703500D01*
Y151500D01*
X712750D01*
Y159000D01*
D02*
G37*
G36*
X486500Y159000D02*
X477250D01*
Y151500D01*
X486500D01*
Y159000D01*
D02*
G37*
G36*
X472250D02*
X463000D01*
Y151500D01*
X472250D01*
Y159000D01*
D02*
G37*
G36*
X387502Y144500D02*
X381002D01*
Y130500D01*
X387502D01*
Y144500D01*
D02*
G37*
G36*
X376002D02*
X369502D01*
Y130500D01*
X376002D01*
Y144500D01*
D02*
G37*
G36*
X264904Y136600D02*
X255655D01*
Y129100D01*
X264904D01*
Y136600D01*
D02*
G37*
G36*
X250655D02*
X241404D01*
Y129100D01*
X250655D01*
Y136600D01*
D02*
G37*
G36*
X355405D02*
X346155D01*
Y129100D01*
X355405D01*
Y136600D01*
D02*
G37*
G36*
X341155D02*
X331904D01*
Y129100D01*
X341155D01*
Y136600D01*
D02*
G37*
G36*
X355405Y124100D02*
X346155D01*
Y116600D01*
X355405D01*
Y124100D01*
D02*
G37*
G36*
X341155D02*
X331904D01*
Y116600D01*
X341155D01*
Y124100D01*
D02*
G37*
G36*
X264904Y124100D02*
X255655D01*
Y116600D01*
X264904D01*
Y124100D01*
D02*
G37*
G36*
X250655D02*
X241404D01*
Y116600D01*
X250655D01*
Y124100D01*
D02*
G37*
G36*
X481502Y114998D02*
X476502D01*
Y109498D01*
X481502D01*
Y114998D01*
D02*
G37*
G36*
X-522134Y64502D02*
X-532900D01*
X-543665D01*
X-543616Y64130D01*
X-542508Y61454D01*
X-540745Y59156D01*
X-538447Y57393D01*
X-536395Y56543D01*
X-536551Y55265D01*
X-536562Y55238D01*
X-539960Y53831D01*
X-542884Y51586D01*
X-544847Y49028D01*
X-545191Y48925D01*
X-546008D01*
X-546351Y49028D01*
X-548315Y51586D01*
X-551239Y53831D01*
X-554637Y55238D01*
X-554648Y55265D01*
X-554804Y56543D01*
X-552752Y57393D01*
X-550454Y59156D01*
X-548691Y61454D01*
X-547583Y64130D01*
X-547534Y64502D01*
X-558299D01*
X-569065D01*
X-569016Y64130D01*
X-567908Y61454D01*
X-566145Y59156D01*
X-563847Y57393D01*
X-561795Y56543D01*
X-561951Y55265D01*
X-561962Y55238D01*
X-565360Y53831D01*
X-568284Y51586D01*
X-570528Y48662D01*
X-571939Y45256D01*
X-572420Y41602D01*
X-571939Y37947D01*
X-570528Y34541D01*
X-568284Y31617D01*
X-565726Y29654D01*
X-565623Y29310D01*
Y28493D01*
X-565726Y28150D01*
X-568284Y26186D01*
X-570528Y23262D01*
X-571939Y19856D01*
X-572420Y16202D01*
X-571939Y12547D01*
X-570528Y9141D01*
X-568284Y6217D01*
X-565726Y4254D01*
X-565623Y3910D01*
Y3093D01*
X-565726Y2750D01*
X-568284Y786D01*
X-570528Y-2138D01*
X-571939Y-5544D01*
X-572420Y-9198D01*
X-571939Y-12853D01*
X-570528Y-16259D01*
X-568284Y-19183D01*
X-565726Y-21146D01*
X-565623Y-21490D01*
Y-22307D01*
X-565726Y-22650D01*
X-568284Y-24613D01*
X-570528Y-27538D01*
X-571939Y-30944D01*
X-572420Y-34598D01*
X-571939Y-38253D01*
X-570528Y-41659D01*
X-568284Y-44583D01*
X-565360Y-46827D01*
X-561962Y-48235D01*
X-561951Y-48262D01*
X-561795Y-49540D01*
X-563847Y-50390D01*
X-566145Y-52153D01*
X-567908Y-54451D01*
X-569016Y-57127D01*
X-569065Y-57498D01*
X-558299D01*
X-547534D01*
X-547583Y-57127D01*
X-548691Y-54451D01*
X-550454Y-52153D01*
X-552752Y-50390D01*
X-554804Y-49540D01*
X-554648Y-48262D01*
X-554637Y-48235D01*
X-551239Y-46827D01*
X-548315Y-44583D01*
X-546351Y-42025D01*
X-546008Y-41922D01*
X-545191D01*
X-544847Y-42025D01*
X-542884Y-44583D01*
X-539960Y-46827D01*
X-536562Y-48235D01*
X-536551Y-48262D01*
X-536395Y-49540D01*
X-538447Y-50390D01*
X-540745Y-52153D01*
X-542508Y-54451D01*
X-543616Y-57127D01*
X-543665Y-57498D01*
X-532900D01*
X-522134D01*
X-522183Y-57127D01*
X-523291Y-54451D01*
X-525054Y-52153D01*
X-527352Y-50390D01*
X-529404Y-49540D01*
X-529248Y-48262D01*
X-529237Y-48235D01*
X-525839Y-46827D01*
X-522915Y-44583D01*
X-520671Y-41659D01*
X-519260Y-38253D01*
X-518779Y-34598D01*
X-519260Y-30944D01*
X-520671Y-27538D01*
X-522915Y-24613D01*
X-525473Y-22650D01*
X-525576Y-22307D01*
Y-21490D01*
X-525473Y-21146D01*
X-522915Y-19183D01*
X-520671Y-16259D01*
X-519260Y-12853D01*
X-518779Y-9198D01*
X-519260Y-5544D01*
X-520671Y-2138D01*
X-522915Y786D01*
X-525473Y2750D01*
X-525576Y3093D01*
Y3910D01*
X-525473Y4254D01*
X-522915Y6217D01*
X-520671Y9141D01*
X-519260Y12547D01*
X-518779Y16202D01*
X-519260Y19856D01*
X-520671Y23262D01*
X-522915Y26186D01*
X-525473Y28150D01*
X-525576Y28493D01*
Y29310D01*
X-525473Y29654D01*
X-522915Y31617D01*
X-520671Y34541D01*
X-519260Y37947D01*
X-518779Y41602D01*
X-519260Y45256D01*
X-520671Y48662D01*
X-522915Y51586D01*
X-525839Y53831D01*
X-529237Y55238D01*
X-529248Y55265D01*
X-529404Y56543D01*
X-527352Y57393D01*
X-525054Y59156D01*
X-523291Y61454D01*
X-522183Y64130D01*
X-522134Y64502D01*
D02*
G37*
G36*
X145934Y47648D02*
X143454Y47321D01*
X141143Y46364D01*
X139424Y45045D01*
X137791Y46298D01*
X135480Y47256D01*
X133000Y47582D01*
X130520Y47256D01*
X128209Y46298D01*
X126500Y44987D01*
X124791Y46298D01*
X122480Y47256D01*
X120000Y47582D01*
X117520Y47256D01*
X115209Y46298D01*
X113500Y44987D01*
X111791Y46298D01*
X109480Y47256D01*
X107000Y47582D01*
X104520Y47256D01*
X102209Y46298D01*
X100500Y44987D01*
X98791Y46298D01*
X96480Y47256D01*
X94000Y47582D01*
X91520Y47256D01*
X89209Y46298D01*
X87225Y44776D01*
X85702Y42791D01*
X84745Y40480D01*
X84484Y38498D01*
X83000D01*
Y17498D01*
Y8400D01*
X82045Y7563D01*
X81900Y7582D01*
X79420Y7255D01*
X77109Y6298D01*
X75550Y5102D01*
X73991Y6298D01*
X71680Y7255D01*
X69200Y7582D01*
X66720Y7255D01*
X64409Y6298D01*
X62425Y4775D01*
X60902Y2791D01*
X59945Y480D01*
X59618Y-2000D01*
Y-19000D01*
X59945Y-21480D01*
X60902Y-23791D01*
X62425Y-25775D01*
X64409Y-27298D01*
X66720Y-28256D01*
X69200Y-28582D01*
X71680Y-28256D01*
X73991Y-27298D01*
X75550Y-26102D01*
X77109Y-27298D01*
X79420Y-28256D01*
X81900Y-28582D01*
X84380Y-28256D01*
X86691Y-27298D01*
X88250Y-26102D01*
X89809Y-27298D01*
X92120Y-28256D01*
X94600Y-28582D01*
X97080Y-28256D01*
X99391Y-27298D01*
X100950Y-26102D01*
X102509Y-27298D01*
X104820Y-28256D01*
X107300Y-28582D01*
X109780Y-28256D01*
X112091Y-27298D01*
X113650Y-26102D01*
X115209Y-27298D01*
X117520Y-28256D01*
X120000Y-28582D01*
X122480Y-28256D01*
X124791Y-27298D01*
X126350Y-26102D01*
X127909Y-27298D01*
X130220Y-28256D01*
X132700Y-28582D01*
X135180Y-28256D01*
X137491Y-27298D01*
X139050Y-26102D01*
X140609Y-27298D01*
X142920Y-28256D01*
X145400Y-28582D01*
X147880Y-28256D01*
X150191Y-27298D01*
X151750Y-26102D01*
X153309Y-27298D01*
X155620Y-28256D01*
X158100Y-28582D01*
X160580Y-28256D01*
X162891Y-27298D01*
X164450Y-26102D01*
X166009Y-27298D01*
X168320Y-28256D01*
X170800Y-28582D01*
X173280Y-28256D01*
X175591Y-27298D01*
X177575Y-25775D01*
X179098Y-23791D01*
X180056Y-21480D01*
X180337Y-19341D01*
X182000Y-19561D01*
Y-20498D01*
X185000D01*
Y-21498D01*
X201000D01*
Y-20498D01*
X204000D01*
Y502D01*
X202384D01*
X202255Y1480D01*
X201753Y2694D01*
X202458Y3750D01*
X210625D01*
Y13250D01*
X232375D01*
Y32750D01*
X229144D01*
X228298Y34791D01*
X226775Y36776D01*
X224791Y38298D01*
X222480Y39255D01*
X220000Y39582D01*
X217520Y39255D01*
X215209Y38298D01*
X213225Y36776D01*
X211895Y35043D01*
X210828Y35264D01*
X210625Y35374D01*
Y42250D01*
X192179D01*
X191775Y42776D01*
X189791Y44298D01*
X187480Y45255D01*
X185000Y45582D01*
X182520Y45255D01*
X180209Y44298D01*
X178225Y42776D01*
X176702Y40791D01*
X175752Y38498D01*
X174000D01*
Y35502D01*
X170000D01*
Y38502D01*
X168246D01*
X167298Y40791D01*
X165776Y42776D01*
X163791Y44298D01*
X161480Y45255D01*
X159000Y45582D01*
X156520Y45255D01*
X154209Y44298D01*
X153528Y43775D01*
X152710Y44841D01*
X150725Y46364D01*
X148414Y47321D01*
X145934Y47648D01*
D02*
G37*
G36*
X-10496Y29496D02*
X-15996D01*
Y24496D01*
X-10496D01*
Y29496D01*
D02*
G37*
G36*
X-33496Y42080D02*
X-35976Y41753D01*
X-38287Y40796D01*
X-40271Y39273D01*
X-41794Y37288D01*
X-42751Y34978D01*
X-43078Y32497D01*
X-43079Y32496D01*
X-44496D01*
Y29496D01*
X-45996D01*
Y21996D01*
X-50996D01*
Y29496D01*
X-52496D01*
Y32496D01*
X-53912D01*
X-53914Y32497D01*
X-54240Y34978D01*
X-55198Y37288D01*
X-56720Y39273D01*
X-58705Y40796D01*
X-61016Y41753D01*
X-63496Y42080D01*
X-65976Y41753D01*
X-68287Y40796D01*
X-70271Y39273D01*
X-71794Y37288D01*
X-72751Y34978D01*
X-73078Y32497D01*
X-73079Y32496D01*
X-74496D01*
Y29496D01*
X-75996D01*
Y21996D01*
X-80996D01*
Y29496D01*
X-82496D01*
Y32496D01*
X-83912D01*
X-83914Y32497D01*
X-84240Y34978D01*
X-85198Y37288D01*
X-86720Y39273D01*
X-88705Y40796D01*
X-91016Y41753D01*
X-93496Y42080D01*
X-95976Y41753D01*
X-98287Y40796D01*
X-100271Y39273D01*
X-101794Y37288D01*
X-102751Y34978D01*
X-103078Y32497D01*
X-103079Y32496D01*
X-104496D01*
Y11496D01*
Y-2504D01*
X-86817D01*
Y-7502D01*
X-86533Y-9656D01*
X-85702Y-11663D01*
X-84380Y-13386D01*
X-81880Y-15886D01*
X-80156Y-17209D01*
X-79252Y-17584D01*
X-79793Y-18889D01*
X-80136Y-21500D01*
Y-39500D01*
X-79793Y-42111D01*
X-78785Y-44543D01*
X-77182Y-46632D01*
X-75093Y-48235D01*
X-72660Y-49243D01*
X-70050Y-49586D01*
X-67439Y-49243D01*
X-65007Y-48235D01*
X-63700Y-47232D01*
X-62393Y-48235D01*
X-59960Y-49243D01*
X-57350Y-49586D01*
X-54739Y-49243D01*
X-52307Y-48235D01*
X-51000Y-47232D01*
X-49693Y-48235D01*
X-47260Y-49243D01*
X-44650Y-49586D01*
X-42039Y-49243D01*
X-39607Y-48235D01*
X-37518Y-46632D01*
X-36271Y-45008D01*
X-35480Y-45615D01*
X-34450Y-46041D01*
Y-30500D01*
X-31950D01*
Y-28000D01*
X-24890D01*
Y-21500D01*
X-25130Y-19673D01*
X-25835Y-17970D01*
X-26958Y-16508D01*
X-28420Y-15386D01*
X-30123Y-14680D01*
X-31878Y-14449D01*
X-32035Y-14233D01*
X-32450Y-13224D01*
X-27612Y-8386D01*
X-26290Y-6663D01*
X-25458Y-4656D01*
X-25175Y-2504D01*
X-7496D01*
Y18496D01*
X-10496D01*
Y19496D01*
X-18496D01*
Y21996D01*
X-20996D01*
Y29496D01*
X-22496D01*
Y32496D01*
X-23912D01*
X-23914Y32497D01*
X-24240Y34978D01*
X-25198Y37288D01*
X-26720Y39273D01*
X-28705Y40796D01*
X-31016Y41753D01*
X-33496Y42080D01*
D02*
G37*
G36*
X201000Y-26498D02*
X195500D01*
Y-31498D01*
X201000D01*
Y-26498D01*
D02*
G37*
G36*
X190500D02*
X185000D01*
Y-31498D01*
X190500D01*
Y-26498D01*
D02*
G37*
G36*
X-24890Y-33000D02*
X-29450D01*
Y-46041D01*
X-28420Y-45615D01*
X-26958Y-44492D01*
X-25835Y-43030D01*
X-25130Y-41327D01*
X-24890Y-39500D01*
Y-33000D01*
D02*
G37*
G36*
X21498Y-41000D02*
X16498D01*
Y-46500D01*
X21498D01*
Y-41000D01*
D02*
G37*
G36*
X-31950Y-60414D02*
X-34560Y-60757D01*
X-36993Y-61765D01*
X-38300Y-62768D01*
X-39607Y-61765D01*
X-42039Y-60757D01*
X-44650Y-60414D01*
X-47260Y-60757D01*
X-49693Y-61765D01*
X-51782Y-63368D01*
X-53029Y-64992D01*
X-53820Y-64385D01*
X-54850Y-63959D01*
Y-79500D01*
Y-95041D01*
X-54591Y-94934D01*
X-53428Y-95827D01*
X-53582Y-97000D01*
X-53256Y-99480D01*
X-52298Y-101791D01*
X-50775Y-103776D01*
X-48791Y-105298D01*
X-46480Y-106256D01*
X-44000Y-106582D01*
X-41520Y-106256D01*
X-39209Y-105298D01*
X-38000Y-104370D01*
X-36791Y-105298D01*
X-34480Y-106256D01*
X-32000Y-106582D01*
X-29520Y-106256D01*
X-27209Y-105298D01*
X-25224Y-103776D01*
X-23702Y-101791D01*
X-22745Y-99480D01*
X-22418Y-97000D01*
X-22745Y-94520D01*
X-23182Y-93464D01*
X-22207Y-91110D01*
X-21864Y-88500D01*
Y-70500D01*
X-22207Y-67889D01*
X-23215Y-65457D01*
X-24818Y-63368D01*
X-26907Y-61765D01*
X-29339Y-60757D01*
X-31950Y-60414D01*
D02*
G37*
G36*
X1500Y-71502D02*
X-4000D01*
Y-76502D01*
X1500D01*
Y-71502D01*
D02*
G37*
G36*
X-522134Y-62498D02*
X-532900D01*
X-543665D01*
X-543616Y-62870D01*
X-542508Y-65546D01*
X-540745Y-67844D01*
X-538447Y-69607D01*
X-536395Y-70457D01*
X-536551Y-71735D01*
X-536562Y-71762D01*
X-539960Y-73169D01*
X-542884Y-75413D01*
X-544847Y-77972D01*
X-545191Y-78075D01*
X-546008D01*
X-546351Y-77972D01*
X-548315Y-75413D01*
X-551239Y-73169D01*
X-554637Y-71762D01*
X-554648Y-71735D01*
X-554804Y-70457D01*
X-552752Y-69607D01*
X-550454Y-67844D01*
X-548691Y-65546D01*
X-547583Y-62870D01*
X-547534Y-62498D01*
X-558299D01*
X-569065D01*
X-569016Y-62870D01*
X-567908Y-65546D01*
X-566145Y-67844D01*
X-563847Y-69607D01*
X-561795Y-70457D01*
X-561951Y-71735D01*
X-561962Y-71762D01*
X-565360Y-73169D01*
X-568284Y-75413D01*
X-570528Y-78338D01*
X-571939Y-81744D01*
X-572420Y-85398D01*
X-571939Y-89053D01*
X-570528Y-92459D01*
X-568284Y-95383D01*
X-565726Y-97346D01*
X-565623Y-97690D01*
Y-98507D01*
X-565726Y-98850D01*
X-568284Y-100814D01*
X-570528Y-103738D01*
X-571939Y-107144D01*
X-572420Y-110798D01*
X-571939Y-114453D01*
X-570528Y-117859D01*
X-568284Y-120783D01*
X-565726Y-122746D01*
X-565623Y-123090D01*
Y-123907D01*
X-565726Y-124250D01*
X-568284Y-126214D01*
X-570528Y-129138D01*
X-571939Y-132544D01*
X-572420Y-136198D01*
X-571939Y-139853D01*
X-570528Y-143259D01*
X-568284Y-146183D01*
X-565726Y-148146D01*
X-565623Y-148490D01*
Y-149307D01*
X-565726Y-149650D01*
X-568284Y-151614D01*
X-570528Y-154538D01*
X-571939Y-157944D01*
X-572420Y-161598D01*
X-571939Y-165253D01*
X-570528Y-168659D01*
X-568284Y-171583D01*
X-565726Y-173546D01*
X-565623Y-173890D01*
Y-174707D01*
X-565726Y-175050D01*
X-568284Y-177013D01*
X-570528Y-179938D01*
X-571939Y-183344D01*
X-572420Y-186998D01*
X-571939Y-190653D01*
X-570528Y-194059D01*
X-568284Y-196983D01*
X-568007Y-197196D01*
X-568416Y-198398D01*
X-572299D01*
Y-211481D01*
X-572420Y-212398D01*
Y-313701D01*
X-571939Y-317355D01*
X-570528Y-320761D01*
X-568284Y-323685D01*
X-529485Y-362485D01*
X-526560Y-364729D01*
X-523155Y-366140D01*
X-519500Y-366621D01*
X-290000D01*
X-290000Y-366621D01*
X7500D01*
X11155Y-366140D01*
X14560Y-364729D01*
X16367Y-363343D01*
X231627D01*
X242176Y-373892D01*
Y-386000D01*
X240502D01*
Y-389000D01*
X239502D01*
Y-397000D01*
X237002D01*
Y-399500D01*
X229502D01*
Y-401418D01*
X228446Y-402124D01*
X227561Y-401757D01*
X224950Y-401414D01*
X222339Y-401757D01*
X219907Y-402765D01*
X219688Y-402933D01*
X218462Y-402604D01*
X218298Y-402209D01*
X216775Y-400224D01*
X214791Y-398702D01*
X212480Y-397744D01*
X210000Y-397418D01*
X207520Y-397744D01*
X205209Y-398702D01*
X203225Y-400224D01*
X201702Y-402209D01*
X200752Y-404502D01*
X199000D01*
Y-425502D01*
Y-439502D01*
X221000D01*
Y-439502D01*
X221752Y-438999D01*
X222339Y-439243D01*
X224950Y-439586D01*
X227561Y-439243D01*
X229993Y-438235D01*
X232082Y-436632D01*
X233329Y-435008D01*
X234120Y-435615D01*
X235150Y-436041D01*
Y-420500D01*
X240150D01*
Y-436041D01*
X241180Y-435615D01*
X241971Y-435008D01*
X243218Y-436632D01*
X245307Y-438235D01*
X247740Y-439243D01*
X250350Y-439586D01*
X252961Y-439243D01*
X255393Y-438235D01*
X256700Y-437232D01*
X258007Y-438235D01*
X260439Y-439243D01*
X263050Y-439586D01*
X265661Y-439243D01*
X266248Y-438999D01*
X267000Y-439502D01*
Y-439502D01*
X289000D01*
Y-425502D01*
Y-404502D01*
X287516D01*
X287255Y-402520D01*
X286298Y-400209D01*
X284776Y-398224D01*
X282791Y-396702D01*
X280480Y-395745D01*
X278000Y-395418D01*
X275520Y-395745D01*
X273209Y-396702D01*
X271224Y-398224D01*
X269702Y-400209D01*
X269014Y-401870D01*
X268350Y-402515D01*
X267465Y-402505D01*
X265661Y-401757D01*
X263050Y-401414D01*
X262456Y-401492D01*
X261502Y-400654D01*
Y-386000D01*
X259827D01*
Y-373540D01*
X260392Y-372805D01*
X261475Y-370190D01*
X261844Y-367383D01*
X261475Y-364577D01*
X260392Y-361962D01*
X258669Y-359716D01*
X243785Y-344833D01*
X241540Y-343110D01*
X238925Y-342027D01*
X236118Y-341657D01*
X16367D01*
X14560Y-340271D01*
X11155Y-338860D01*
X7500Y-338379D01*
X7500Y-338379D01*
X-290000D01*
X-290000Y-338379D01*
X-513651D01*
X-544179Y-307852D01*
Y-222672D01*
X-542976Y-222264D01*
X-542884Y-222383D01*
X-539960Y-224627D01*
X-536554Y-226038D01*
X-532899Y-226519D01*
X-529245Y-226038D01*
X-525839Y-224627D01*
X-522915Y-222383D01*
X-520671Y-219459D01*
X-519260Y-216053D01*
X-518779Y-212398D01*
X-519260Y-208744D01*
X-520671Y-205338D01*
X-522915Y-202414D01*
X-525473Y-200450D01*
X-525576Y-200107D01*
Y-199290D01*
X-525473Y-198946D01*
X-522915Y-196983D01*
X-520671Y-194059D01*
X-519260Y-190653D01*
X-518779Y-186998D01*
X-519260Y-183344D01*
X-519455Y-182873D01*
X-518749Y-181817D01*
X-502418D01*
X-501791Y-182298D01*
X-499480Y-183256D01*
X-497000Y-183582D01*
X-494520Y-183256D01*
X-492209Y-182298D01*
X-490224Y-180776D01*
X-488702Y-178791D01*
X-487744Y-176480D01*
X-487418Y-174000D01*
X-487744Y-171520D01*
X-488702Y-169209D01*
X-490224Y-167225D01*
X-492209Y-165702D01*
X-494520Y-164744D01*
X-497000Y-164418D01*
X-499480Y-164744D01*
X-501791Y-165702D01*
X-502418Y-166183D01*
X-521749D01*
X-522455Y-165127D01*
X-522183Y-164470D01*
X-522134Y-164098D01*
X-532900D01*
Y-159098D01*
X-522134D01*
X-522183Y-158727D01*
X-523291Y-156051D01*
X-525054Y-153753D01*
X-527352Y-151990D01*
X-529404Y-151140D01*
X-529248Y-149862D01*
X-529237Y-149835D01*
X-525839Y-148427D01*
X-522915Y-146183D01*
X-520671Y-143259D01*
X-519260Y-139853D01*
X-518779Y-136198D01*
X-519260Y-132544D01*
X-519538Y-131873D01*
X-518832Y-130817D01*
X-511418D01*
X-510791Y-131298D01*
X-508480Y-132255D01*
X-506000Y-132582D01*
X-503520Y-132255D01*
X-501209Y-131298D01*
X-499225Y-129775D01*
X-497702Y-127791D01*
X-496744Y-125480D01*
X-496418Y-123000D01*
X-496744Y-120520D01*
X-497702Y-118209D01*
X-499225Y-116224D01*
X-501209Y-114702D01*
X-503520Y-113744D01*
X-506000Y-113418D01*
X-508480Y-113744D01*
X-510791Y-114702D01*
X-511418Y-115183D01*
X-518326D01*
X-519189Y-113913D01*
X-518779Y-110798D01*
X-519260Y-107144D01*
X-520671Y-103738D01*
X-522915Y-100814D01*
X-525473Y-98850D01*
X-525576Y-98507D01*
Y-97690D01*
X-525473Y-97346D01*
X-522915Y-95383D01*
X-520671Y-92459D01*
X-519260Y-89053D01*
X-518779Y-85398D01*
X-519260Y-81744D01*
X-520671Y-78338D01*
X-522915Y-75413D01*
X-525839Y-73169D01*
X-529237Y-71762D01*
X-529248Y-71735D01*
X-529404Y-70457D01*
X-527352Y-69607D01*
X-525054Y-67844D01*
X-523291Y-65546D01*
X-522183Y-62870D01*
X-522134Y-62498D01*
D02*
G37*
G36*
X-83996Y-58421D02*
X-86476Y-58747D01*
X-88787Y-59704D01*
X-90771Y-61227D01*
X-92294Y-63211D01*
X-92829Y-64503D01*
X-94996D01*
Y-85503D01*
X-91996D01*
Y-86503D01*
X-83996D01*
Y-89003D01*
X-81496D01*
Y-96503D01*
X-76048D01*
X-75093Y-97235D01*
X-72660Y-98243D01*
X-70050Y-98586D01*
X-67439Y-98243D01*
X-65007Y-97235D01*
X-62918Y-95632D01*
X-61671Y-94008D01*
X-60880Y-94614D01*
X-59850Y-95041D01*
Y-79500D01*
Y-63959D01*
X-60880Y-64385D01*
X-61671Y-64992D01*
X-62918Y-63368D01*
X-65007Y-61765D01*
X-67439Y-60757D01*
X-70050Y-60414D01*
X-72660Y-60757D01*
X-75093Y-61765D01*
X-76172Y-62593D01*
X-77220Y-61227D01*
X-79205Y-59704D01*
X-81516Y-58747D01*
X-83996Y-58421D01*
D02*
G37*
G36*
X-86496Y-91503D02*
X-91996D01*
Y-96503D01*
X-86496D01*
Y-91503D01*
D02*
G37*
G36*
X48498Y-38000D02*
X27498D01*
Y-41000D01*
X26498D01*
Y-49000D01*
X23998D01*
Y-51500D01*
X16498D01*
Y-56504D01*
X12750D01*
Y-64502D01*
X21999D01*
Y-69502D01*
X12750D01*
Y-70542D01*
X12000Y-71502D01*
X6500D01*
Y-79002D01*
X4000D01*
Y-81502D01*
X-4000D01*
Y-82502D01*
X-7000D01*
Y-103502D01*
X13678D01*
Y-103999D01*
X13961Y-106153D01*
X14793Y-108160D01*
X16115Y-109883D01*
X20616Y-114384D01*
X22339Y-115706D01*
X24346Y-116538D01*
X26500Y-116821D01*
X52500D01*
X54654Y-116538D01*
X56661Y-115706D01*
X58384Y-114384D01*
X61526Y-111242D01*
X62741Y-111574D01*
X62864Y-111673D01*
X62867Y-111697D01*
X63522Y-113278D01*
X64564Y-114636D01*
X65922Y-115678D01*
X66700Y-116000D01*
Y-101500D01*
X71700D01*
Y-116000D01*
X72478Y-115678D01*
X72901Y-115353D01*
X74160Y-115519D01*
X75125Y-116776D01*
X77109Y-118298D01*
X79420Y-119256D01*
X81900Y-119582D01*
X84380Y-119256D01*
X86691Y-118298D01*
X88250Y-117102D01*
X89809Y-118298D01*
X92120Y-119256D01*
X94600Y-119582D01*
X97080Y-119256D01*
X99391Y-118298D01*
X100950Y-117102D01*
X102509Y-118298D01*
X104820Y-119256D01*
X107300Y-119582D01*
X109780Y-119256D01*
X112091Y-118298D01*
X113650Y-117102D01*
X115209Y-118298D01*
X117520Y-119256D01*
X120000Y-119582D01*
X122480Y-119256D01*
X124791Y-118298D01*
X126350Y-117102D01*
X127909Y-118298D01*
X130220Y-119256D01*
X132700Y-119582D01*
X135180Y-119256D01*
X137491Y-118298D01*
X139050Y-117102D01*
X140609Y-118298D01*
X142920Y-119256D01*
X145400Y-119582D01*
X147356Y-119324D01*
X148406Y-120142D01*
X148535Y-120359D01*
X148844Y-122709D01*
X149802Y-125020D01*
X151325Y-127004D01*
X153309Y-128527D01*
X155620Y-129484D01*
X158100Y-129811D01*
X160580Y-129484D01*
X162891Y-128527D01*
X164450Y-127331D01*
X166009Y-128527D01*
X168320Y-129484D01*
X170800Y-129811D01*
X173280Y-129484D01*
X175591Y-128527D01*
X177575Y-127004D01*
X179098Y-125020D01*
X180056Y-122709D01*
X180382Y-120229D01*
X180056Y-117749D01*
X179121Y-115493D01*
Y-114736D01*
X180056Y-112480D01*
X180382Y-110000D01*
Y-93000D01*
X180056Y-90520D01*
X179098Y-88209D01*
X177575Y-86224D01*
X175591Y-84702D01*
X173280Y-83744D01*
X170800Y-83418D01*
X168320Y-83744D01*
X166009Y-84702D01*
X164450Y-85898D01*
X162891Y-84702D01*
X160580Y-83744D01*
X158100Y-83418D01*
X155620Y-83744D01*
X153309Y-84702D01*
X151750Y-85898D01*
X150191Y-84702D01*
X147880Y-83744D01*
X145400Y-83418D01*
X142920Y-83744D01*
X140609Y-84702D01*
X139050Y-85898D01*
X137491Y-84702D01*
X135180Y-83744D01*
X132700Y-83418D01*
X130220Y-83744D01*
X127909Y-84702D01*
X126350Y-85898D01*
X124791Y-84702D01*
X122480Y-83744D01*
X120000Y-83418D01*
X117520Y-83744D01*
X115209Y-84702D01*
X113650Y-85898D01*
X112091Y-84702D01*
X109780Y-83744D01*
X107300Y-83418D01*
X104820Y-83744D01*
X103977Y-84094D01*
X102921Y-83388D01*
Y-76600D01*
X102638Y-74446D01*
X101806Y-72439D01*
X100484Y-70716D01*
X90886Y-61118D01*
X89162Y-59795D01*
X87156Y-58964D01*
X85002Y-58681D01*
X50250D01*
Y-53504D01*
X48498D01*
Y-38000D01*
D02*
G37*
G36*
X-459198Y-226900D02*
X-467698D01*
Y-235400D01*
X-459198D01*
Y-226900D01*
D02*
G37*
G36*
X-183000Y-384502D02*
X-188500D01*
Y-389502D01*
X-183000D01*
Y-384502D01*
D02*
G37*
G36*
X-205000Y-381502D02*
X-227000D01*
Y-390718D01*
X-227955Y-391556D01*
X-229000Y-391418D01*
X-230730Y-391646D01*
X-232000Y-390690D01*
Y-385502D01*
X-237500D01*
Y-393002D01*
X-242500D01*
Y-385502D01*
X-243710D01*
Y-381748D01*
X-265710D01*
Y-383164D01*
X-266000Y-383418D01*
X-268480Y-383745D01*
X-270791Y-384702D01*
X-272775Y-386225D01*
X-274298Y-388209D01*
X-275256Y-390520D01*
X-275582Y-393000D01*
X-275256Y-395480D01*
X-274298Y-397791D01*
X-272775Y-399776D01*
X-270791Y-401298D01*
X-268480Y-402256D01*
X-266000Y-402582D01*
X-265710Y-403825D01*
Y-416748D01*
X-264615D01*
X-263771Y-418018D01*
X-264032Y-420000D01*
Y-433000D01*
X-263706Y-435480D01*
X-262748Y-437791D01*
X-261225Y-439775D01*
X-259241Y-441298D01*
X-256930Y-442256D01*
X-254450Y-442582D01*
X-251970Y-442256D01*
X-249659Y-441298D01*
X-248100Y-440102D01*
X-246541Y-441298D01*
X-244230Y-442256D01*
X-241750Y-442582D01*
X-239270Y-442256D01*
X-236959Y-441298D01*
X-235400Y-440102D01*
X-233841Y-441298D01*
X-231530Y-442256D01*
X-229050Y-442582D01*
X-226570Y-442256D01*
X-224259Y-441298D01*
X-222700Y-440102D01*
X-221141Y-441298D01*
X-218830Y-442256D01*
X-216350Y-442582D01*
X-213870Y-442256D01*
X-211559Y-441298D01*
X-210000Y-440102D01*
X-208441Y-441298D01*
X-206130Y-442256D01*
X-203650Y-442582D01*
X-201170Y-442256D01*
X-198859Y-441298D01*
X-197300Y-440102D01*
X-195741Y-441298D01*
X-193430Y-442256D01*
X-190950Y-442582D01*
X-188470Y-442256D01*
X-186159Y-441298D01*
X-184600Y-440102D01*
X-183041Y-441298D01*
X-180730Y-442256D01*
X-178250Y-442582D01*
X-175770Y-442256D01*
X-173459Y-441298D01*
X-171900Y-440102D01*
X-170341Y-441298D01*
X-168030Y-442256D01*
X-165550Y-442582D01*
X-163070Y-442256D01*
X-160759Y-441298D01*
X-158774Y-439775D01*
X-157252Y-437791D01*
X-156294Y-435480D01*
X-155968Y-433000D01*
Y-420000D01*
X-156294Y-417520D01*
X-157252Y-415209D01*
X-158774Y-413224D01*
X-160759Y-411702D01*
X-163070Y-410745D01*
X-165550Y-410418D01*
X-168030Y-410745D01*
X-170341Y-411702D01*
X-171900Y-412898D01*
X-173459Y-411702D01*
X-175770Y-410745D01*
X-178250Y-410418D01*
X-179045Y-410523D01*
X-180000Y-409685D01*
Y-395502D01*
X-183000D01*
Y-394502D01*
X-191000D01*
Y-392002D01*
X-193500D01*
Y-384502D01*
X-199000D01*
Y-386573D01*
X-200173Y-387059D01*
X-201114Y-386118D01*
X-202838Y-384795D01*
X-204845Y-383964D01*
X-205000Y-383943D01*
Y-381502D01*
D02*
G37*
G36*
X234502Y-389000D02*
X229502D01*
Y-394500D01*
X234502D01*
Y-389000D01*
D02*
G37*
G36*
X79000Y-396418D02*
X76520Y-396744D01*
X74209Y-397702D01*
X72224Y-399225D01*
X70702Y-401209D01*
X69745Y-403520D01*
X69616Y-404498D01*
X68000D01*
Y-407502D01*
X51000D01*
Y-404498D01*
X49384D01*
X49255Y-403520D01*
X48298Y-401209D01*
X46775Y-399225D01*
X44791Y-397702D01*
X42480Y-396744D01*
X40000Y-396418D01*
X37520Y-396744D01*
X35209Y-397702D01*
X33500Y-399013D01*
X31791Y-397702D01*
X29480Y-396744D01*
X27000Y-396418D01*
X24520Y-396744D01*
X22209Y-397702D01*
X20224Y-399225D01*
X18702Y-401209D01*
X17744Y-403520D01*
X17616Y-404498D01*
X16000D01*
Y-425498D01*
Y-439498D01*
X18679D01*
Y-451000D01*
X18962Y-453154D01*
X19794Y-455161D01*
X21116Y-456884D01*
X22616Y-458384D01*
X24339Y-459706D01*
X24864Y-459924D01*
Y-461500D01*
X25207Y-464110D01*
X26215Y-466543D01*
X27818Y-468632D01*
X29907Y-470235D01*
X32339Y-471243D01*
X34950Y-471586D01*
X37561Y-471243D01*
X39993Y-470235D01*
X41300Y-469232D01*
X42607Y-470235D01*
X45040Y-471243D01*
X47650Y-471586D01*
X49577Y-471333D01*
X50971Y-472188D01*
X51094Y-473130D01*
X52052Y-475441D01*
X53575Y-477425D01*
X55559Y-478948D01*
X57870Y-479906D01*
X60350Y-480232D01*
X62830Y-479906D01*
X65141Y-478948D01*
X67126Y-477425D01*
X68648Y-475441D01*
X69605Y-473130D01*
X69730Y-472188D01*
X71123Y-471333D01*
X73050Y-471586D01*
X75661Y-471243D01*
X78093Y-470235D01*
X80182Y-468632D01*
X81785Y-466543D01*
X82793Y-464110D01*
X83136Y-461500D01*
Y-443500D01*
X82803Y-440965D01*
X84270Y-439498D01*
X90000D01*
Y-425498D01*
Y-404498D01*
X88384D01*
X88256Y-403520D01*
X87298Y-401209D01*
X85775Y-399225D01*
X83791Y-397702D01*
X81480Y-396744D01*
X79000Y-396418D01*
D02*
G37*
G36*
X263050Y-450414D02*
X260439Y-450757D01*
X258007Y-451765D01*
X256700Y-452768D01*
X255393Y-451765D01*
X252961Y-450757D01*
X250350Y-450414D01*
X247740Y-450757D01*
X245307Y-451765D01*
X244000Y-452768D01*
X242693Y-451765D01*
X240261Y-450757D01*
X237650Y-450414D01*
X235040Y-450757D01*
X232607Y-451765D01*
X231300Y-452768D01*
X229993Y-451765D01*
X227561Y-450757D01*
X224950Y-450414D01*
X222339Y-450757D01*
X219907Y-451765D01*
X217818Y-453368D01*
X217718Y-453498D01*
X199000D01*
Y-474498D01*
X202000D01*
Y-475498D01*
X210000D01*
Y-477998D01*
X212500D01*
Y-485498D01*
X217715D01*
X217818Y-485632D01*
X219249Y-486730D01*
X218818Y-488000D01*
X218800D01*
Y-495675D01*
X189500D01*
X187216Y-495975D01*
X185087Y-496857D01*
X183259Y-498259D01*
X179759Y-501759D01*
X178357Y-503587D01*
X177803Y-504924D01*
X165784D01*
Y-544086D01*
X206216D01*
Y-513326D01*
X218800D01*
Y-521000D01*
X242930D01*
X243800Y-521000D01*
Y-521000D01*
X244200D01*
Y-521000D01*
X269200D01*
Y-513326D01*
X281784D01*
Y-544086D01*
X322216D01*
Y-504924D01*
X310552D01*
X310525Y-504716D01*
X309643Y-502587D01*
X308241Y-500759D01*
X305741Y-498259D01*
X303913Y-496857D01*
X301784Y-495975D01*
X299500Y-495675D01*
X269200D01*
Y-488502D01*
X289000D01*
Y-486827D01*
X317346D01*
X328175Y-497656D01*
Y-605000D01*
X314502D01*
Y-608000D01*
X313502D01*
Y-616000D01*
X308502D01*
Y-608000D01*
X303502D01*
Y-618000D01*
X300502D01*
X300502Y-618000D01*
Y-618000D01*
X299485Y-617413D01*
X299413Y-617357D01*
X297284Y-616475D01*
X295000Y-616175D01*
X291001D01*
Y-609000D01*
X283827D01*
Y-607001D01*
X283526Y-604717D01*
X282644Y-602588D01*
X281242Y-600761D01*
X279241Y-598759D01*
X277413Y-597357D01*
X275284Y-596475D01*
X273000Y-596175D01*
X270398D01*
X269200Y-596000D01*
Y-563000D01*
X244200D01*
Y-563000D01*
X243800D01*
Y-563000D01*
X218800D01*
Y-596000D01*
X222474D01*
Y-616300D01*
X222775Y-618584D01*
X223657Y-620713D01*
X224319Y-621576D01*
X224231Y-621864D01*
X223923Y-625000D01*
X224231Y-628136D01*
X225146Y-631153D01*
X226632Y-633932D01*
X228631Y-636368D01*
X231068Y-638368D01*
X233847Y-639854D01*
X236863Y-640769D01*
X240000Y-641077D01*
X243137Y-640769D01*
X243252Y-640733D01*
X250759Y-648241D01*
X252587Y-649643D01*
X254716Y-650525D01*
X257000Y-650826D01*
X300502D01*
Y-653000D01*
X335502D01*
Y-640000D01*
Y-624021D01*
X336413Y-623643D01*
X338241Y-622241D01*
X343241Y-617241D01*
X344643Y-615413D01*
X345525Y-613284D01*
X345826Y-611000D01*
Y-494000D01*
X345525Y-491716D01*
X344643Y-489587D01*
X343241Y-487759D01*
X327242Y-471761D01*
X325414Y-470359D01*
X323286Y-469477D01*
X321002Y-469176D01*
X289000D01*
Y-453502D01*
X270285D01*
X270182Y-453368D01*
X268093Y-451765D01*
X265661Y-450757D01*
X263050Y-450414D01*
D02*
G37*
G36*
X-165550Y-457418D02*
X-168030Y-457744D01*
X-170341Y-458702D01*
X-171900Y-459898D01*
X-173459Y-458702D01*
X-175770Y-457744D01*
X-178250Y-457418D01*
X-180730Y-457744D01*
X-183041Y-458702D01*
X-184600Y-459898D01*
X-186159Y-458702D01*
X-188470Y-457744D01*
X-190950Y-457418D01*
X-193430Y-457744D01*
X-195741Y-458702D01*
X-197300Y-459898D01*
X-198859Y-458702D01*
X-201170Y-457744D01*
X-203650Y-457418D01*
X-206130Y-457744D01*
X-208441Y-458702D01*
X-210000Y-459898D01*
X-211559Y-458702D01*
X-213870Y-457744D01*
X-216350Y-457418D01*
X-218830Y-457744D01*
X-221141Y-458702D01*
X-222700Y-459898D01*
X-224259Y-458702D01*
X-226570Y-457744D01*
X-229050Y-457418D01*
X-231530Y-457744D01*
X-233841Y-458702D01*
X-235826Y-460224D01*
X-236790Y-461481D01*
X-238049Y-461647D01*
X-238472Y-461322D01*
X-239250Y-461000D01*
Y-473500D01*
X-244250D01*
Y-461000D01*
X-245028Y-461322D01*
X-245451Y-461647D01*
X-246710Y-461481D01*
X-247675Y-460224D01*
X-249659Y-458702D01*
X-251970Y-457744D01*
X-254450Y-457418D01*
X-256930Y-457744D01*
X-259241Y-458702D01*
X-261225Y-460224D01*
X-261730Y-460882D01*
X-263000Y-460451D01*
Y-457502D01*
X-268500D01*
Y-465002D01*
X-271000D01*
Y-467502D01*
X-279000D01*
Y-468502D01*
X-282000D01*
Y-489502D01*
X-280247D01*
X-279298Y-491791D01*
X-277775Y-493775D01*
X-275791Y-495298D01*
X-273480Y-496255D01*
X-271000Y-496582D01*
X-269770Y-496420D01*
X-268500Y-497534D01*
Y-513502D01*
Y-527502D01*
X-263003D01*
X-262748Y-529444D01*
X-261916Y-531451D01*
X-260924Y-532744D01*
X-261046Y-533309D01*
X-263322Y-535178D01*
X-264180Y-536222D01*
X-265450Y-535768D01*
Y-530850D01*
X-295350D01*
Y-560750D01*
X-275729D01*
X-275275Y-562020D01*
X-277172Y-563578D01*
X-279041Y-565854D01*
X-280429Y-568451D01*
X-281284Y-571269D01*
X-281572Y-574200D01*
X-281284Y-577131D01*
X-280429Y-579949D01*
X-279041Y-582546D01*
X-277172Y-584822D01*
X-274896Y-586691D01*
X-272299Y-588079D01*
X-269481Y-588934D01*
X-266550Y-589222D01*
X-263619Y-588934D01*
X-260801Y-588079D01*
X-258204Y-586691D01*
X-255928Y-584822D01*
X-254059Y-582546D01*
X-253335Y-581191D01*
X-252065D01*
X-251341Y-582546D01*
X-249472Y-584822D01*
X-247196Y-586691D01*
X-244599Y-588079D01*
X-241781Y-588934D01*
X-238850Y-589222D01*
X-235919Y-588934D01*
X-233101Y-588079D01*
X-230504Y-586691D01*
X-228228Y-584822D01*
X-226359Y-582546D01*
X-225635Y-581191D01*
X-224365D01*
X-223641Y-582546D01*
X-221772Y-584822D01*
X-219496Y-586691D01*
X-216899Y-588079D01*
X-214081Y-588934D01*
X-211150Y-589222D01*
X-208219Y-588934D01*
X-205401Y-588079D01*
X-202804Y-586691D01*
X-200528Y-584822D01*
X-198659Y-582546D01*
X-197935Y-581191D01*
X-196665D01*
X-195941Y-582546D01*
X-194072Y-584822D01*
X-191796Y-586691D01*
X-189199Y-588079D01*
X-186381Y-588934D01*
X-183450Y-589222D01*
X-180519Y-588934D01*
X-177701Y-588079D01*
X-175104Y-586691D01*
X-172828Y-584822D01*
X-170959Y-582546D01*
X-169571Y-579949D01*
X-168716Y-577131D01*
X-168428Y-574200D01*
X-168716Y-571269D01*
X-169571Y-568451D01*
X-170959Y-565854D01*
X-172828Y-563578D01*
X-175104Y-561709D01*
X-177701Y-560321D01*
X-180519Y-559466D01*
X-183450Y-559178D01*
X-186381Y-559466D01*
X-189199Y-560321D01*
X-191796Y-561709D01*
X-194072Y-563578D01*
X-195941Y-565854D01*
X-196665Y-567209D01*
X-197935D01*
X-198659Y-565854D01*
X-200528Y-563578D01*
X-202804Y-561709D01*
X-205401Y-560321D01*
X-208219Y-559466D01*
X-211150Y-559178D01*
X-214081Y-559466D01*
X-216899Y-560321D01*
X-219496Y-561709D01*
X-221772Y-563578D01*
X-223641Y-565854D01*
X-224365Y-567209D01*
X-225635D01*
X-226359Y-565854D01*
X-228228Y-563578D01*
X-230504Y-561709D01*
X-233101Y-560321D01*
X-235919Y-559466D01*
X-238850Y-559178D01*
X-241781Y-559466D01*
X-244599Y-560321D01*
X-247196Y-561709D01*
X-249472Y-563578D01*
X-251341Y-565854D01*
X-252065Y-567209D01*
X-253335D01*
X-254059Y-565854D01*
X-255928Y-563578D01*
X-258204Y-561709D01*
X-260801Y-560321D01*
X-263619Y-559466D01*
X-265450Y-559286D01*
Y-555832D01*
X-264180Y-555377D01*
X-263322Y-556422D01*
X-261046Y-558291D01*
X-258449Y-559679D01*
X-255631Y-560534D01*
X-252700Y-560822D01*
X-249769Y-560534D01*
X-246951Y-559679D01*
X-244354Y-558291D01*
X-242078Y-556422D01*
X-240209Y-554146D01*
X-239485Y-552791D01*
X-238215D01*
X-237491Y-554146D01*
X-235622Y-556422D01*
X-233346Y-558291D01*
X-230749Y-559679D01*
X-227931Y-560534D01*
X-225000Y-560822D01*
X-222069Y-560534D01*
X-219251Y-559679D01*
X-216654Y-558291D01*
X-214378Y-556422D01*
X-212509Y-554146D01*
X-211785Y-552791D01*
X-210515D01*
X-209791Y-554146D01*
X-207922Y-556422D01*
X-205646Y-558291D01*
X-203049Y-559679D01*
X-200231Y-560534D01*
X-197300Y-560822D01*
X-194369Y-560534D01*
X-191551Y-559679D01*
X-188954Y-558291D01*
X-186678Y-556422D01*
X-184809Y-554146D01*
X-183421Y-551549D01*
X-182566Y-548731D01*
X-182559Y-548652D01*
X-181280Y-548631D01*
X-181243Y-548920D01*
X-180038Y-551827D01*
X-178123Y-554323D01*
X-175627Y-556238D01*
X-172720Y-557442D01*
X-172100Y-557524D01*
Y-545800D01*
Y-534076D01*
X-172720Y-534158D01*
X-175627Y-535362D01*
X-178123Y-537277D01*
X-180038Y-539773D01*
X-181243Y-542680D01*
X-181280Y-542969D01*
X-182559Y-542948D01*
X-182566Y-542869D01*
X-183421Y-540051D01*
X-184809Y-537454D01*
X-185473Y-536645D01*
X-184856Y-535535D01*
X-184500Y-535582D01*
X-182020Y-535256D01*
X-179709Y-534298D01*
X-177724Y-532775D01*
X-176202Y-530791D01*
X-175245Y-528480D01*
X-175115Y-527498D01*
X-174000D01*
Y-513498D01*
Y-492498D01*
X-176679D01*
X-176917Y-490687D01*
X-176259Y-489320D01*
X-175770Y-489255D01*
X-173459Y-488298D01*
X-171900Y-487102D01*
X-170341Y-488298D01*
X-168030Y-489255D01*
X-165550Y-489582D01*
X-163070Y-489255D01*
X-160759Y-488298D01*
X-158774Y-486776D01*
X-157252Y-484791D01*
X-156294Y-482480D01*
X-155968Y-480000D01*
Y-467000D01*
X-156294Y-464520D01*
X-157252Y-462209D01*
X-158774Y-460224D01*
X-160759Y-458702D01*
X-163070Y-457744D01*
X-165550Y-457418D01*
D02*
G37*
G36*
X-273500Y-457502D02*
X-279000D01*
Y-462502D01*
X-273500D01*
Y-457502D01*
D02*
G37*
G36*
X207500Y-480498D02*
X202000D01*
Y-485498D01*
X207500D01*
Y-480498D01*
D02*
G37*
G36*
X75550Y-485959D02*
Y-499000D01*
X80110D01*
Y-492500D01*
X79870Y-490673D01*
X79165Y-488970D01*
X78042Y-487508D01*
X76580Y-486385D01*
X75550Y-485959D01*
D02*
G37*
G36*
X-342000Y-494502D02*
X-347500D01*
Y-499502D01*
X-342000D01*
Y-494502D01*
D02*
G37*
G36*
X-352500D02*
X-358000D01*
Y-499502D01*
X-352500D01*
Y-494502D01*
D02*
G37*
G36*
X17500Y-513498D02*
X12000D01*
Y-518498D01*
X17500D01*
Y-513498D01*
D02*
G37*
G36*
X138216Y-507924D02*
X123500D01*
Y-522005D01*
X138216D01*
Y-507924D01*
D02*
G37*
G36*
X3216D02*
X-11500D01*
Y-522005D01*
X3216D01*
Y-507924D01*
D02*
G37*
G36*
X118500D02*
X103784D01*
Y-522005D01*
X118500D01*
Y-507924D01*
D02*
G37*
G36*
X-16500D02*
X-31216D01*
Y-522005D01*
X-16500D01*
Y-507924D01*
D02*
G37*
G36*
X138216Y-527005D02*
X123500D01*
Y-541086D01*
X138216D01*
Y-527005D01*
D02*
G37*
G36*
X118500D02*
X103784D01*
Y-541086D01*
X118500D01*
Y-527005D01*
D02*
G37*
G36*
X3216D02*
X-11500D01*
Y-541086D01*
X3216D01*
Y-527005D01*
D02*
G37*
G36*
X-16500D02*
X-31216D01*
Y-541086D01*
X-16500D01*
Y-527005D01*
D02*
G37*
G36*
X-167100Y-534076D02*
Y-543300D01*
X-157876D01*
X-157958Y-542680D01*
X-159162Y-539773D01*
X-161077Y-537277D01*
X-163573Y-535362D01*
X-166481Y-534158D01*
X-167100Y-534076D01*
D02*
G37*
G36*
X-429000Y-542502D02*
X-434500D01*
Y-547502D01*
X-429000D01*
Y-542502D01*
D02*
G37*
G36*
X-157876Y-548300D02*
X-167100D01*
Y-557524D01*
X-166481Y-557442D01*
X-163573Y-556238D01*
X-161077Y-554323D01*
X-159162Y-551827D01*
X-157958Y-548920D01*
X-157876Y-548300D01*
D02*
G37*
G36*
X20000Y-479418D02*
X17520Y-479744D01*
X15209Y-480702D01*
X13225Y-482225D01*
X11702Y-484209D01*
X10754Y-486498D01*
X9000D01*
Y-507498D01*
X12000D01*
Y-508498D01*
X20000D01*
Y-510998D01*
X22500D01*
Y-518498D01*
X28000D01*
Y-518498D01*
X28576Y-518214D01*
X29907Y-519235D01*
X32339Y-520243D01*
X34950Y-520586D01*
X35045Y-520574D01*
X36000Y-521411D01*
Y-533439D01*
X35714Y-533477D01*
X33586Y-534358D01*
X31758Y-535761D01*
X25264Y-542254D01*
X23862Y-544082D01*
X22980Y-546211D01*
X22680Y-548495D01*
Y-551784D01*
X11924D01*
Y-563175D01*
X6216D01*
Y-551914D01*
X-34216D01*
Y-591076D01*
X6216D01*
Y-580826D01*
X11924D01*
Y-592216D01*
X22680D01*
Y-595505D01*
X22980Y-597789D01*
X23862Y-599918D01*
X25264Y-601746D01*
X31174Y-607656D01*
Y-611575D01*
X31068Y-611632D01*
X28632Y-613632D01*
X26632Y-616068D01*
X25146Y-618847D01*
X24232Y-621864D01*
X23923Y-625000D01*
X24232Y-628136D01*
X25146Y-631153D01*
X26632Y-633932D01*
X28632Y-636368D01*
X31068Y-638368D01*
X31174Y-638425D01*
Y-640000D01*
X31475Y-642284D01*
X32357Y-644413D01*
X33759Y-646241D01*
X39759Y-652241D01*
X41587Y-653643D01*
X43716Y-654525D01*
X46000Y-654826D01*
X96000D01*
X98284Y-654525D01*
X100413Y-653643D01*
X102241Y-652241D01*
X112827Y-641654D01*
X114000Y-642141D01*
Y-643498D01*
X116978D01*
X117357Y-644413D01*
X118000Y-645251D01*
Y-671300D01*
X121884D01*
X122292Y-672503D01*
X122015Y-672715D01*
X119771Y-675640D01*
X118360Y-679045D01*
X117879Y-682700D01*
X118360Y-686355D01*
X119771Y-689760D01*
X122015Y-692685D01*
X124940Y-694929D01*
X128345Y-696340D01*
X132000Y-696821D01*
X135655Y-696340D01*
X139060Y-694929D01*
X141985Y-692685D01*
X142874Y-691525D01*
X146300D01*
X148584Y-691225D01*
X150713Y-690343D01*
X152541Y-688941D01*
X155241Y-686241D01*
X156643Y-684413D01*
X157525Y-682284D01*
X157825Y-680000D01*
Y-649000D01*
X157525Y-646716D01*
X156643Y-644587D01*
X155241Y-642759D01*
X151000Y-638519D01*
Y-629498D01*
Y-608498D01*
X148826D01*
Y-607000D01*
X148525Y-604716D01*
X147643Y-602587D01*
X146241Y-600759D01*
X142241Y-596759D01*
X140413Y-595357D01*
X138284Y-594475D01*
X136000Y-594174D01*
X104000D01*
X101716Y-594475D01*
X99587Y-595357D01*
X97759Y-596759D01*
X90759Y-603759D01*
X89357Y-605587D01*
X88475Y-607716D01*
X88306Y-609000D01*
X83827D01*
Y-592216D01*
X98076D01*
Y-580826D01*
X100784D01*
Y-591076D01*
X141216D01*
Y-551914D01*
X100784D01*
Y-563175D01*
X98076D01*
Y-551784D01*
X85321D01*
Y-548495D01*
X85020Y-546211D01*
X84138Y-544082D01*
X82736Y-542254D01*
X76242Y-535761D01*
X74414Y-534358D01*
X72286Y-533477D01*
X72000Y-533439D01*
Y-518703D01*
X73050Y-517560D01*
X73257Y-517533D01*
X74877Y-517320D01*
X76580Y-516614D01*
X78042Y-515492D01*
X79165Y-514030D01*
X79870Y-512327D01*
X80110Y-510500D01*
Y-504000D01*
X73050D01*
Y-501500D01*
X70550D01*
Y-485959D01*
X69520Y-486385D01*
X68729Y-486992D01*
X67482Y-485368D01*
X65393Y-483765D01*
X62961Y-482757D01*
X60350Y-482414D01*
X57740Y-482757D01*
X55307Y-483765D01*
X54000Y-484768D01*
X52693Y-483765D01*
X50261Y-482757D01*
X47650Y-482414D01*
X45040Y-482757D01*
X42607Y-483765D01*
X41300Y-484768D01*
X39993Y-483765D01*
X37561Y-482757D01*
X34950Y-482414D01*
X32339Y-482757D01*
X29907Y-483765D01*
X29062Y-484413D01*
X28298Y-484209D01*
X26776Y-482225D01*
X24791Y-480702D01*
X22480Y-479744D01*
X20000Y-479418D01*
D02*
G37*
G36*
X892173Y-531600D02*
X888627D01*
X885150Y-532292D01*
X881874Y-533649D01*
X878926Y-535619D01*
X876419Y-538126D01*
X874449Y-541074D01*
X873092Y-544350D01*
X872400Y-547827D01*
Y-551373D01*
X873092Y-554850D01*
X874449Y-558126D01*
X876419Y-561074D01*
X878926Y-563582D01*
X881874Y-565551D01*
X885150Y-566908D01*
X888627Y-567600D01*
X892173D01*
X895650Y-566908D01*
X898926Y-565551D01*
X901874Y-563582D01*
X904381Y-561074D01*
X906351Y-558126D01*
X907708Y-554850D01*
X908400Y-551373D01*
Y-547827D01*
X907708Y-544350D01*
X906351Y-541074D01*
X904381Y-538126D01*
X901874Y-535619D01*
X898926Y-533649D01*
X895650Y-532292D01*
X892173Y-531600D01*
D02*
G37*
G36*
X-888627D02*
X-892173D01*
X-895650Y-532292D01*
X-898926Y-533649D01*
X-901874Y-535619D01*
X-904381Y-538126D01*
X-906351Y-541074D01*
X-907708Y-544350D01*
X-908400Y-547827D01*
Y-551373D01*
X-907708Y-554850D01*
X-906351Y-558126D01*
X-904381Y-561074D01*
X-901874Y-563582D01*
X-898926Y-565551D01*
X-895650Y-566908D01*
X-892173Y-567600D01*
X-888627D01*
X-885150Y-566908D01*
X-881874Y-565551D01*
X-878926Y-563582D01*
X-876419Y-561074D01*
X-874449Y-558126D01*
X-873092Y-554850D01*
X-872400Y-551373D01*
Y-547827D01*
X-873092Y-544350D01*
X-874449Y-541074D01*
X-876419Y-538126D01*
X-878926Y-535619D01*
X-881874Y-533649D01*
X-885150Y-532292D01*
X-888627Y-531600D01*
D02*
G37*
G36*
X203216Y-554914D02*
X188500D01*
Y-568995D01*
X203216D01*
Y-554914D01*
D02*
G37*
G36*
X183500D02*
X168784D01*
Y-568995D01*
X183500D01*
Y-554914D01*
D02*
G37*
G36*
X319216D02*
X304500D01*
Y-568995D01*
X319216D01*
Y-554914D01*
D02*
G37*
G36*
X299500D02*
X284784D01*
Y-568995D01*
X299500D01*
Y-554914D01*
D02*
G37*
G36*
X-398000Y-569500D02*
X-405000D01*
Y-582500D01*
X-398000D01*
Y-569500D01*
D02*
G37*
G36*
X-410000D02*
X-417000D01*
Y-582500D01*
X-410000D01*
Y-569500D01*
D02*
G37*
G36*
X319216Y-573995D02*
X304500D01*
Y-588076D01*
X319216D01*
Y-573995D01*
D02*
G37*
G36*
X299500D02*
X284784D01*
Y-588076D01*
X299500D01*
Y-573995D01*
D02*
G37*
G36*
X203216Y-573995D02*
X188500D01*
Y-588076D01*
X203216D01*
Y-573995D01*
D02*
G37*
G36*
X183500D02*
X168784D01*
Y-588076D01*
X183500D01*
Y-573995D01*
D02*
G37*
G36*
X-398000Y-587500D02*
X-405000D01*
Y-600500D01*
X-398000D01*
Y-587500D01*
D02*
G37*
G36*
X-410000D02*
X-417000D01*
Y-600500D01*
X-410000D01*
Y-587500D01*
D02*
G37*
G36*
X207502Y-612217D02*
Y-622500D01*
X217784D01*
X217667Y-621606D01*
X216357Y-618444D01*
X214273Y-615728D01*
X211557Y-613644D01*
X208395Y-612335D01*
X207502Y-612217D01*
D02*
G37*
G36*
X7502Y-612217D02*
Y-622500D01*
X17784D01*
X17667Y-621606D01*
X16357Y-618444D01*
X14273Y-615728D01*
X11557Y-613644D01*
X8395Y-612335D01*
X7502Y-612217D01*
D02*
G37*
G36*
X2501Y-612217D02*
X1608Y-612335D01*
X-1555Y-613644D01*
X-4270Y-615728D01*
X-6354Y-618444D01*
X-7664Y-621606D01*
X-7782Y-622500D01*
X2501D01*
Y-612217D01*
D02*
G37*
G36*
X202502D02*
X201608Y-612335D01*
X198445Y-613644D01*
X195730Y-615728D01*
X193646Y-618444D01*
X192336Y-621606D01*
X192218Y-622500D01*
X202502D01*
Y-612217D01*
D02*
G37*
G36*
X217784Y-627500D02*
X207502D01*
Y-637783D01*
X208395Y-637665D01*
X211557Y-636355D01*
X214273Y-634272D01*
X216357Y-631556D01*
X217667Y-628394D01*
X217784Y-627500D01*
D02*
G37*
G36*
X17784D02*
X7502D01*
Y-637783D01*
X8395Y-637665D01*
X11557Y-636355D01*
X14273Y-634272D01*
X16357Y-631556D01*
X17667Y-628394D01*
X17784Y-627500D01*
D02*
G37*
G36*
X2501D02*
X-7782D01*
X-7664Y-628394D01*
X-6354Y-631556D01*
X-4270Y-634272D01*
X-1555Y-636355D01*
X1608Y-637665D01*
X2501Y-637783D01*
Y-627500D01*
D02*
G37*
G36*
X202502D02*
X192218D01*
X192336Y-628394D01*
X193646Y-631556D01*
X195730Y-634272D01*
X198445Y-636355D01*
X201608Y-637665D01*
X202502Y-637783D01*
Y-627500D01*
D02*
G37*
G36*
X-342000Y-504502D02*
X-350000D01*
X-358000D01*
Y-505502D01*
X-361000D01*
Y-526502D01*
X-360591D01*
Y-531611D01*
X-363748Y-532919D01*
X-367815Y-535411D01*
X-371442Y-538508D01*
X-374539Y-542135D01*
X-377031Y-546202D01*
X-378856Y-550608D01*
X-379969Y-555245D01*
X-380344Y-560000D01*
X-379969Y-564755D01*
X-378856Y-569392D01*
X-377031Y-573798D01*
X-374539Y-577865D01*
X-371442Y-581492D01*
X-369042Y-583541D01*
Y-614050D01*
X-369042Y-614050D01*
X-368675Y-617775D01*
X-367589Y-621356D01*
X-365824Y-624657D01*
X-363450Y-627550D01*
X-335000Y-656000D01*
X-335000Y-656000D01*
X-332107Y-658374D01*
X-328806Y-660139D01*
X-325225Y-661225D01*
X-321500Y-661592D01*
X-130500D01*
X-130500Y-661592D01*
X-126775Y-661225D01*
X-123194Y-660139D01*
X-119893Y-658374D01*
X-117000Y-656000D01*
X-86550Y-625550D01*
X-86550Y-625550D01*
X-84176Y-622657D01*
X-82411Y-619356D01*
X-81325Y-615775D01*
X-80958Y-612050D01*
X-80958Y-612050D01*
Y-583541D01*
X-78558Y-581492D01*
X-75461Y-577865D01*
X-72969Y-573798D01*
X-71144Y-569392D01*
X-70030Y-564755D01*
X-69656Y-560000D01*
X-70030Y-555245D01*
X-71144Y-550608D01*
X-72969Y-546202D01*
X-75461Y-542135D01*
X-78558Y-538508D01*
X-82185Y-535411D01*
X-86252Y-532919D01*
X-90658Y-531094D01*
X-95295Y-529981D01*
X-100050Y-529606D01*
X-104805Y-529981D01*
X-109442Y-531094D01*
X-113848Y-532919D01*
X-117915Y-535411D01*
X-121542Y-538508D01*
X-124639Y-542135D01*
X-127131Y-546202D01*
X-128956Y-550608D01*
X-130070Y-555245D01*
X-130444Y-560000D01*
X-130070Y-564755D01*
X-128956Y-569392D01*
X-127131Y-573798D01*
X-124639Y-577865D01*
X-121542Y-581492D01*
X-119142Y-583541D01*
Y-604142D01*
X-138408Y-623408D01*
X-313592D01*
X-330858Y-606142D01*
Y-583541D01*
X-328458Y-581492D01*
X-325361Y-577865D01*
X-322869Y-573798D01*
X-321044Y-569392D01*
X-319930Y-564755D01*
X-319556Y-560000D01*
X-319930Y-555245D01*
X-321044Y-550608D01*
X-322869Y-546202D01*
X-325361Y-542135D01*
X-328458Y-538508D01*
X-332085Y-535411D01*
X-336152Y-532919D01*
X-339409Y-531570D01*
Y-526502D01*
X-339000D01*
Y-505502D01*
X-342000D01*
Y-504502D01*
D02*
G37*
G36*
X-398000Y-659500D02*
X-405000D01*
Y-672500D01*
X-398000D01*
Y-659500D01*
D02*
G37*
G36*
X-410000D02*
X-417000D01*
Y-672500D01*
X-410000D01*
Y-659500D01*
D02*
G37*
G36*
X-398000Y-677500D02*
X-405000D01*
Y-690500D01*
X-398000D01*
Y-677500D01*
D02*
G37*
G36*
X-410000D02*
X-417000D01*
Y-690500D01*
X-410000D01*
Y-677500D01*
D02*
G37*
G36*
X-453000Y-531418D02*
X-455480Y-531744D01*
X-457791Y-532702D01*
X-459776Y-534225D01*
X-461298Y-536209D01*
X-462256Y-538520D01*
X-462384Y-539498D01*
X-464000D01*
Y-560498D01*
Y-566500D01*
X-465000D01*
Y-603500D01*
X-461825D01*
Y-656500D01*
X-465000D01*
Y-693500D01*
X-440000D01*
Y-656500D01*
X-444174D01*
Y-603500D01*
X-440000D01*
Y-574502D01*
X-426000D01*
Y-553502D01*
X-429000D01*
Y-552502D01*
X-437000D01*
Y-550002D01*
X-439500D01*
Y-542502D01*
X-442000D01*
Y-539498D01*
X-443616D01*
X-443745Y-538520D01*
X-444702Y-536209D01*
X-446225Y-534225D01*
X-448209Y-532702D01*
X-450520Y-531744D01*
X-453000Y-531418D01*
D02*
G37*
%LPD*%
G36*
X508270Y226675D02*
X507784Y225502D01*
X499000D01*
Y220502D01*
X507000D01*
Y215502D01*
X499000D01*
Y214502D01*
X496000D01*
Y213836D01*
X430002D01*
X427456Y213501D01*
X425084Y212518D01*
X423048Y210956D01*
X406927Y194834D01*
X337252D01*
X337000Y195055D01*
Y201500D01*
X337131D01*
Y215500D01*
Y236500D01*
X335247D01*
X334298Y238791D01*
X332775Y240776D01*
X332508Y240980D01*
X332916Y242183D01*
X492762D01*
X508270Y226675D01*
D02*
G37*
G36*
X449498Y82000D02*
Y68000D01*
X449502D01*
Y54000D01*
X452498D01*
Y53500D01*
X459998D01*
Y48500D01*
X452498D01*
Y47556D01*
X447000Y47556D01*
Y85000D01*
X445596D01*
X444800Y86921D01*
X444319Y87548D01*
Y89250D01*
X444313Y89291D01*
Y92125D01*
X444068Y93985D01*
X443350Y95718D01*
X443252Y95847D01*
Y98933D01*
X449498D01*
Y82000D01*
D02*
G37*
G36*
X403920Y93335D02*
X405403Y91403D01*
X405403Y91403D01*
X407335Y89920D01*
X409585Y88988D01*
X412000Y88670D01*
X416161D01*
Y86569D01*
X414500D01*
X412412Y86294D01*
X410466Y85488D01*
X408794Y84206D01*
X407512Y82535D01*
X407291Y82000D01*
X399000D01*
X397000Y80000D01*
Y3000D01*
X391000Y-3000D01*
X355000D01*
Y91000D01*
X358000Y94000D01*
X403645D01*
X403920Y93335D01*
D02*
G37*
G36*
X427000Y78500D02*
X431000D01*
Y46000D01*
X435750D01*
Y42000D01*
X439750D01*
Y1500D01*
X444500D01*
Y40807D01*
X445424Y41189D01*
X445614Y41000D01*
X462000Y41000D01*
X463500Y39500D01*
X463086Y38500D01*
X451998D01*
Y34000D01*
X459998D01*
Y26000D01*
X451998D01*
Y21500D01*
Y20000D01*
X459998D01*
Y16000D01*
X463998D01*
Y7500D01*
X466000D01*
Y-9166D01*
X410000D01*
Y74444D01*
X410378Y74545D01*
X410837Y74810D01*
X411325Y75012D01*
X411745Y75334D01*
X412203Y75598D01*
X412577Y75972D01*
X412996Y76294D01*
X413318Y76714D01*
X413692Y77088D01*
X413957Y77546D01*
X414279Y77965D01*
X414398Y78254D01*
X414500Y78387D01*
Y78500D01*
X416161D01*
X418250Y78775D01*
X419998Y79499D01*
X427000D01*
Y78500D01*
D02*
G37*
%LPC*%
G36*
X381000Y56333D02*
X380500Y55500D01*
X379500Y53500D01*
X377500Y47500D01*
X377364Y46000D01*
X381000D01*
Y56333D01*
D02*
G37*
G36*
Y82500D02*
X376250D01*
Y46000D01*
X377000D01*
Y78500D01*
X381000D01*
Y82500D01*
D02*
G37*
G36*
X368250D02*
X363500D01*
Y46000D01*
X368250D01*
Y82500D01*
D02*
G37*
G36*
X381000Y38000D02*
X377400D01*
X377500Y37000D01*
X378000Y34500D01*
X378500Y32500D01*
X380000Y29500D01*
X381000Y27750D01*
Y38000D01*
D02*
G37*
G36*
X377000D02*
X376250D01*
Y1500D01*
X381000D01*
Y5500D01*
X377000D01*
Y38000D01*
D02*
G37*
G36*
X368250D02*
X363500D01*
Y1500D01*
X368250D01*
Y38000D01*
D02*
G37*
G36*
X427000Y56333D02*
Y46000D01*
X430600D01*
X430500Y47000D01*
X430000Y49000D01*
X429500Y51000D01*
X428500Y53500D01*
X427500Y55500D01*
X427000Y56333D01*
D02*
G37*
G36*
X430636Y38000D02*
X427000D01*
Y27500D01*
X429500Y32500D01*
X430500Y36500D01*
X430636Y38000D01*
D02*
G37*
G36*
X455998Y12000D02*
X451998D01*
Y7500D01*
X455998D01*
Y12000D01*
D02*
G37*
G36*
X431750Y38000D02*
X431000D01*
Y5500D01*
X427000D01*
Y1500D01*
X431750D01*
Y38000D01*
D02*
G37*
%LPD*%
D10*
X268000Y200000D02*
Y211000D01*
X-431000D02*
X268000D01*
X-655998Y194002D02*
X-558299D01*
X-453000Y143000D02*
Y189000D01*
X-464000Y132000D02*
X-453000Y143000D01*
X-528191Y132000D02*
X-464000D01*
X-528240Y131952D02*
X-528191Y132000D01*
X-647952Y131952D02*
X-528240D01*
X-660000Y144000D02*
X-647952Y131952D01*
X-660000Y144000D02*
Y190000D01*
X-655998Y194002D01*
X-558299D02*
X-532899D01*
X268000Y211000D02*
Y237000D01*
X-453000Y189000D02*
X-431000Y211000D01*
X-84000Y185000D02*
X-83314Y185686D01*
X251686D01*
X252000Y186000D01*
X225000Y178936D02*
X244209D01*
X287000Y201500D02*
Y210998D01*
Y192002D02*
Y201500D01*
X228000Y193945D02*
X235567D01*
X225000Y200901D02*
X228335D01*
X313000Y224998D02*
Y234000D01*
X268000Y237000D02*
X275000Y244000D01*
X311000D01*
X313000Y242000D01*
Y234000D02*
Y242000D01*
X-531798Y167500D02*
X-531247Y168051D01*
X287000Y224998D02*
Y234000D01*
X184000Y63000D02*
X226000Y105000D01*
X172000Y51000D02*
X184000Y63000D01*
X240536D01*
X173465D02*
X184000D01*
X172000Y51000D02*
Y61536D01*
Y38000D02*
Y51000D01*
X242000Y23000D02*
Y61536D01*
X240536Y63000D02*
X242000Y61536D01*
X172000D02*
X173465Y63000D01*
X25700Y105000D02*
X226000D01*
X-18496D02*
X25700D01*
X-65000D02*
X-18496D01*
X-78496Y32497D02*
Y91504D01*
X-65000Y105000D01*
X-18496Y32497D02*
Y105000D01*
X226000D02*
X380002D01*
Y131747D01*
X412000Y98000D02*
X412000Y98000D01*
X429002D01*
X379000Y132749D02*
Y137000D01*
Y128498D02*
Y132749D01*
X380002Y131747D01*
X344000Y126945D02*
Y137911D01*
Y126945D02*
X345054Y128000D01*
X368002D01*
X379000Y137000D02*
X379002D01*
X368502D02*
X379000D01*
Y154000D01*
X462000Y162000D02*
X491535D01*
X387000D02*
X462000D01*
X673000Y169000D02*
Y170000D01*
Y168000D02*
Y169000D01*
X378502Y128000D02*
X379000Y128498D01*
Y154000D02*
X387000Y162000D01*
X491535D02*
X493000Y163465D01*
Y169000D01*
X672500Y170000D02*
Y180500D01*
X702000Y162000D02*
X713000D01*
X715250Y161500D02*
X725250D01*
X475000Y163000D02*
Y173000D01*
X462000Y162000D02*
X472000D01*
X637500Y170500D02*
Y180500D01*
X172000Y38000D02*
X172000Y38000D01*
Y28002D02*
Y38000D01*
X460002Y65000D02*
Y106998D01*
X459753Y106750D02*
X460002Y106998D01*
X436502Y106750D02*
X459753D01*
X326000Y224998D02*
Y234000D01*
X300000Y224998D02*
Y234000D01*
X20000Y-497002D02*
Y-489000D01*
X436502Y82130D02*
Y89250D01*
Y42752D02*
Y82130D01*
X-545898Y-174000D02*
X-497000D01*
X-558299Y-161598D02*
X-545898Y-174000D01*
X507000Y218002D02*
Y226000D01*
Y218002D02*
X507000Y218002D01*
X493000Y169000D02*
X497500Y173500D01*
Y180500D01*
X507500Y173500D02*
X512000Y169000D01*
X507500Y173500D02*
Y180500D01*
X507500Y180500D02*
X507500Y180500D01*
X507000Y195000D02*
X512500Y189500D01*
Y180500D02*
Y189500D01*
X502500Y167000D02*
Y180500D01*
X435750Y42000D02*
X436502Y42752D01*
X379000Y85000D02*
X383250Y89250D01*
X421502D01*
X379000Y66000D02*
Y85000D01*
X-546098Y-123000D02*
X-506000D01*
X-558299Y-110798D02*
X-546098Y-123000D01*
X473998Y30000D02*
X482000D01*
X473998Y30000D02*
X473998Y30000D01*
Y16000D02*
X482000D01*
X473998Y16000D02*
X473998Y16000D01*
X444002Y98000D02*
Y99002D01*
X252999Y126755D02*
Y139220D01*
X662500Y180500D02*
Y281489D01*
X185000Y390000D02*
X553989D01*
X657500Y180500D02*
Y279418D01*
X187071Y385000D02*
X551918D01*
X652500Y180500D02*
Y277347D01*
X189142Y380000D02*
X549847D01*
X647500Y180500D02*
Y275276D01*
X161213Y345000D02*
X191213Y375000D01*
X642500Y180500D02*
Y273205D01*
X163284Y340000D02*
X193284Y370000D01*
X632500Y180500D02*
Y276134D01*
X165355Y335000D02*
X195355Y365000D01*
X627500Y180500D02*
Y274063D01*
X197426Y360000D02*
X541563D01*
X622500Y180500D02*
Y271992D01*
X169498Y325000D02*
X199498Y355000D01*
X617500Y180500D02*
Y269921D01*
X201569Y350000D02*
X537421D01*
X612500Y180500D02*
Y267850D01*
X203640Y345000D02*
X535350D01*
X607500Y180500D02*
Y265779D01*
X205711Y340000D02*
X533279D01*
X602500Y180500D02*
Y263708D01*
X177782Y305000D02*
X207782Y335000D01*
X597500Y180500D02*
Y261637D01*
X179853Y300000D02*
X209853Y330000D01*
X592500Y180500D02*
Y259566D01*
X181924Y295000D02*
X211924Y325000D01*
X587500Y180500D02*
Y257495D01*
X183995Y290000D02*
X213995Y320000D01*
X582500Y180500D02*
Y255423D01*
X186066Y285000D02*
X216066Y315000D01*
X577500Y180500D02*
Y253353D01*
X188137Y280000D02*
X218137Y310000D01*
X572500Y180500D02*
Y251281D01*
X190208Y275000D02*
X220208Y305000D01*
X567500Y180500D02*
Y249210D01*
X192279Y270000D02*
X222279Y300000D01*
X562500Y180500D02*
Y247139D01*
X224350Y295000D02*
X514639D01*
X557500Y180500D02*
Y245068D01*
X226421Y290000D02*
X512568D01*
X552500Y180500D02*
Y242997D01*
X228493Y285000D02*
X510497D01*
X547500Y180500D02*
Y240926D01*
X230564Y280000D02*
X508426D01*
X542500Y180500D02*
Y238855D01*
X232635Y275000D02*
X506355D01*
X537500Y180500D02*
Y236784D01*
X234706Y270000D02*
X504284D01*
X532500Y180500D02*
Y234713D01*
X236777Y265000D02*
X502213D01*
X527500Y180500D02*
Y232642D01*
X238848Y260000D02*
X500142D01*
X522500Y180500D02*
Y230571D01*
X240919Y255000D02*
X498071D01*
X522500Y230571D01*
X500142Y260000D02*
X527500Y232642D01*
X502213Y265000D02*
X532500Y234713D01*
X504284Y270000D02*
X537500Y236784D01*
X506355Y275000D02*
X542500Y238855D01*
X508426Y280000D02*
X547500Y240926D01*
X510497Y285000D02*
X552500Y242997D01*
X512568Y290000D02*
X557500Y245068D01*
X514639Y295000D02*
X562500Y247139D01*
X516710Y300000D02*
X567500Y249210D01*
X222279Y300000D02*
X516710D01*
X518781Y305000D02*
X572500Y251281D01*
X220208Y305000D02*
X518781D01*
X520853Y310000D02*
X577500Y253353D01*
X218137Y310000D02*
X520853D01*
X522924Y315000D02*
X582500Y255423D01*
X216066Y315000D02*
X522924D01*
X524995Y320000D02*
X587500Y257495D01*
X213995Y320000D02*
X524995D01*
X527066Y325000D02*
X592500Y259566D01*
X211924Y325000D02*
X527066D01*
X529137Y330000D02*
X597500Y261637D01*
X209853Y330000D02*
X529137D01*
X531208Y335000D02*
X602500Y263708D01*
X207782Y335000D02*
X531208D01*
X533279Y340000D02*
X607500Y265779D01*
X535350Y345000D02*
X612500Y267850D01*
X537421Y350000D02*
X617500Y269921D01*
X539492Y355000D02*
X622500Y271992D01*
X199498Y355000D02*
X539492D01*
X541563Y360000D02*
X627500Y274063D01*
X543634Y365000D02*
X632500Y276134D01*
X195355Y365000D02*
X543634D01*
X545705Y370000D02*
X642500Y273205D01*
X193284Y370000D02*
X545705D01*
X547776Y375000D02*
X647500Y275276D01*
X191213Y375000D02*
X547776D01*
X549847Y380000D02*
X652500Y277347D01*
X551918Y385000D02*
X657500Y279418D01*
X553989Y390000D02*
X662500Y281489D01*
X517500Y180500D02*
Y228500D01*
X496000Y250000D02*
X517500Y228500D01*
X242990Y250000D02*
X496000D01*
X-137748Y-277252D02*
X-132000Y-283000D01*
X-137748Y-277252D02*
Y-252050D01*
X-151898Y-237900D02*
X-137748Y-252050D01*
X-132000Y-283000D02*
X79000D01*
X-44000Y-97000D02*
Y-80150D01*
X-44650Y-79500D02*
X-44000Y-80150D01*
X-44650Y-96350D02*
X-44000Y-97000D01*
X-32000D02*
X-31950Y-96950D01*
Y-79500D01*
X-32000Y-210000D02*
X99602D01*
X127502Y-237900D01*
X-44000Y-218000D02*
X82202D01*
X102102Y-237900D01*
X21000Y412000D02*
X81000D01*
X13000Y420000D02*
X21000Y412000D01*
X26000Y420000D02*
X101000D01*
X-12000Y427000D02*
X115000D01*
X-84000Y200000D02*
X225000Y200901D01*
X-96000Y193000D02*
X228000Y193945D01*
X-96000Y178000D02*
X225000Y178936D01*
X313000Y202000D02*
Y211873D01*
X313131Y212003D01*
X313000Y224998D02*
X313000Y224998D01*
X326000Y224998D02*
X326000Y224998D01*
X300000Y224998D02*
X300000Y224998D01*
X287000Y224998D02*
X287000Y224998D01*
X212990Y220000D02*
X242990Y250000D01*
X204706Y240000D02*
X234706Y270000D01*
X157071Y355000D02*
X187071Y385000D01*
X159142Y350000D02*
X189142Y380000D01*
X167426Y330000D02*
X197426Y360000D01*
X171569Y320000D02*
X201569Y350000D01*
X173640Y315000D02*
X203640Y345000D01*
X175711Y310000D02*
X205711Y340000D01*
X194350Y265000D02*
X224350Y295000D01*
X198492Y255000D02*
X228493Y285000D01*
X200564Y250000D02*
X230564Y280000D01*
X196421Y260000D02*
X226421Y290000D01*
X202635Y245000D02*
X232635Y275000D01*
X210919Y225000D02*
X240919Y255000D01*
X206777Y235000D02*
X236777Y265000D01*
X208848Y230000D02*
X238848Y260000D01*
X155000Y360000D02*
X185000Y390000D01*
X-532899Y168602D02*
X-531798Y167500D01*
X-532749Y117651D02*
X-485151D01*
X-532899Y117802D02*
X-532749Y117651D01*
X-532850Y92451D02*
X-485049D01*
X-532899Y92402D02*
X-532850Y92451D01*
X-559498Y-135000D02*
X-558299Y-136198D01*
X-531247Y168051D02*
X-485551D01*
X-520000Y432500D02*
X-518750Y431250D01*
X-532899Y143202D02*
X-532724Y143026D01*
X-485526D01*
X-485351Y142851D01*
X-607500Y342500D02*
X-592348Y357652D01*
X-582500Y372500D02*
X-571948Y383052D01*
X-590000Y408452D02*
X-511406D01*
X-597500Y320000D02*
X-584600Y332900D01*
X-630000Y231250D02*
X-456704D01*
X-447954Y240000D01*
X-357500D01*
X-510000Y197500D02*
X-505000Y202500D01*
X-460429D01*
X-357500Y225000D02*
X210919Y225000D01*
X-437929Y225000D02*
X-357500D01*
X-460429Y202500D02*
X-437929Y225000D01*
X-457500Y390000D02*
X-383787D01*
X-348787Y355000D01*
X-337500D01*
X157071Y355000D01*
X-350000Y285000D02*
X186066Y285000D01*
X-387500Y285000D02*
X-350000D01*
Y220000D02*
X212990Y220000D01*
X-435000Y220000D02*
X-350000D01*
X-332500Y335000D02*
X165355Y335000D01*
X-357145Y335000D02*
X-332500D01*
X-407500Y265000D02*
X194350Y265000D01*
X-350000Y295000D02*
X181924Y295000D01*
X-377500Y295000D02*
X-350000D01*
X-352500Y320000D02*
X171569Y320000D01*
X-363358Y320000D02*
X-352500D01*
X-350000Y315000D02*
X173640Y315000D01*
X-365429Y315000D02*
X-350000D01*
X-412071Y255000D02*
X198492Y255000D01*
X-412071Y255000D02*
X-412071Y255000D01*
X-412500Y255000D02*
X-412071D01*
X-345000Y280000D02*
X188137Y280000D01*
X-345000Y280000D02*
Y280000D01*
X-390000D02*
X-345000D01*
X-405602Y295602D02*
X-390000Y280000D01*
X-480173Y295602D02*
X-405602D01*
X-495000Y310429D02*
X-480173Y295602D01*
X-495000Y310429D02*
Y322500D01*
X-505400Y332900D02*
X-495000Y322500D01*
X-342500Y345000D02*
X161213Y345000D01*
X-352929Y345000D02*
X-342500D01*
X-335000Y330000D02*
X167426Y330000D01*
X-359216Y330000D02*
X-335000D01*
X-345000Y350000D02*
X159142Y350000D01*
X-350858Y350000D02*
X-345000D01*
X-385858Y385000D02*
X-350858Y350000D01*
X-487954Y385000D02*
X-385858D01*
X-355000Y300000D02*
X179853Y300000D01*
X-372500Y300000D02*
X-355000D01*
X-352500Y310000D02*
X175711Y310000D01*
X-367500Y310000D02*
X-352500D01*
X-357500Y250000D02*
X200564Y250000D01*
X-378750Y250000D02*
X-357500D01*
X-378750Y250000D02*
X-378750Y250000D01*
X-355000Y340000D02*
X-340000D01*
X163284Y340000D01*
X-335000Y360000D02*
X155000Y360000D01*
X-346716Y360000D02*
X-335000D01*
X-381716Y395000D02*
X-346716Y360000D01*
X-483812Y395000D02*
X-381716D01*
X-513250Y424438D02*
X-483812Y395000D01*
X-513250Y424438D02*
Y435296D01*
X-513602Y435648D02*
X-513250Y435296D01*
X-345000Y270000D02*
X192279Y270000D01*
X-345000Y270000D02*
Y270000D01*
X-397500D02*
X-345000D01*
X-520000Y424117D02*
Y430000D01*
Y424117D02*
X-485883Y390000D01*
X-457500D01*
X-427500Y272500D02*
X-415000D01*
X-407500Y265000D01*
X-412500Y302500D02*
X-405000D01*
X-387500Y285000D01*
X-357500Y240000D02*
X204706Y240000D01*
X-437500Y260000D02*
X-417500D01*
X-412500Y255000D01*
X-492500Y197500D02*
X-457500D01*
X-615000Y180000D02*
X-510000D01*
X-492500Y197500D01*
X-457500D02*
X-435000Y220000D01*
X-430000Y367500D02*
X-389645D01*
X-357145Y335000D01*
X-584600Y332900D02*
X-505400D01*
X-390000Y307500D02*
X-377500Y295000D01*
X-515552Y383052D02*
X-492500Y360000D01*
X-571948Y383052D02*
X-515552D01*
X-492500Y360000D02*
X-389216D01*
X-359216Y330000D01*
X-437500Y280000D02*
X-407500D01*
X-397500Y270000D01*
X-637500Y257500D02*
X-455000D01*
X-447500Y250000D02*
X-378750D01*
X-455000Y257500D02*
X-447500Y250000D01*
X-420000Y287500D02*
X-405000D01*
X-392500Y275000D02*
X-352500D01*
Y275000D02*
Y275000D01*
X-405000Y287500D02*
X-392500Y275000D01*
X-352500Y275000D02*
X190208Y275000D01*
X-590000Y282500D02*
X-449571D01*
X-432071Y265000D01*
X-415000D01*
X-410000Y260000D01*
X196421Y260000D01*
X-511406Y408452D02*
X-487954Y385000D01*
X-452500Y337500D02*
X-387929D01*
X-365429Y315000D01*
X-582500Y440400D02*
X-518354D01*
X-513602Y435648D01*
X-480000Y315000D02*
X-387500D01*
X-372500Y300000D01*
X-445000Y345000D02*
X-388358D01*
X-363358Y320000D01*
X-460000Y330000D02*
X-387500D01*
X-367500Y310000D01*
X-490000Y215000D02*
X-462071D01*
X-442071Y235000D01*
X-374179D01*
X-374179Y235000D01*
X-352500D01*
X206777Y235000D01*
X-495000Y380000D02*
X-387929D01*
X-500000Y385000D02*
X-495000Y380000D01*
X-387929D02*
X-352929Y345000D01*
X-592348Y357652D02*
X-507652D01*
X-490000Y312500D02*
Y340000D01*
Y312500D02*
X-480000Y302500D01*
X-460951Y309250D02*
X-404679D01*
X-480000Y302500D02*
X-467701D01*
X-460951Y309250D01*
X-404679D02*
X-385429Y290000D01*
X-352500D01*
X-507652Y357652D02*
X-490000Y340000D01*
X-352500Y290000D02*
X183995Y290000D01*
X-470000Y322500D02*
X-387929D01*
X-370429Y305000D01*
X-335000D01*
X177782Y305000D01*
X-510000Y385000D02*
Y397500D01*
Y385000D02*
X-500000Y375000D01*
X-390000D01*
X-355000Y340000D01*
X-622500Y207500D02*
X-462500D01*
X-440000Y230000D01*
X-376250D01*
X-376250Y230000D01*
X-355000D01*
X208848Y230000D01*
X-355000Y245000D02*
X202635Y245000D01*
X-452500Y245000D02*
X-355000D01*
X-452500Y245000D02*
X-452500Y245000D01*
X-345000Y325000D02*
X169498Y325000D01*
X-361287Y325000D02*
X-345000D01*
X-388787Y352500D02*
X-361287Y325000D01*
X-437500Y352500D02*
X-388787D01*
X313000Y192002D02*
Y202000D01*
Y192002D02*
X313000Y192002D01*
X300000Y201500D02*
Y210998D01*
Y192002D02*
Y201500D01*
X287000Y192002D02*
X287000Y192002D01*
X300000Y210998D02*
X300000Y210998D01*
X268000Y192002D02*
Y200000D01*
Y192002D02*
X268000Y192002D01*
X343655Y126600D02*
X344000Y126945D01*
X252999Y126755D02*
X253155Y126600D01*
X305623D02*
X340400D01*
X285825D02*
X305623D01*
X305905Y126882D01*
Y145600D01*
X281179Y126600D02*
X285825D01*
X253155D02*
X281179D01*
X280905Y126875D02*
X281179Y126600D01*
X280905Y126875D02*
Y145600D01*
X285825Y126600D02*
X285905Y126679D01*
Y145600D01*
X340400Y126600D02*
X341000Y126000D01*
X310905Y154904D02*
X326000Y170000D01*
Y178000D01*
X310905Y145600D02*
Y154904D01*
X300905D02*
X314000Y168000D01*
Y177000D01*
X300905Y145600D02*
Y154904D01*
X300000Y165000D02*
Y179000D01*
X295905Y160905D02*
X300000Y165000D01*
X295905Y145600D02*
Y160905D01*
X287000Y164000D02*
Y179000D01*
Y164000D02*
X290905Y160096D01*
Y145600D02*
Y160096D01*
X268000Y164000D02*
Y177000D01*
Y164000D02*
X275905Y156096D01*
Y145600D02*
Y156096D01*
X405502Y122000D02*
X419000D01*
X405502Y135000D02*
X419000D01*
X402003Y105000D02*
X403753Y106750D01*
X405502Y122000D02*
Y128000D01*
Y135000D01*
X421502Y106750D02*
Y111500D01*
X419000Y114002D02*
X421502Y111500D01*
X419000Y114002D02*
Y122000D01*
Y135000D01*
X403753Y106750D02*
X421502D01*
X431502Y113500D02*
X433000Y114998D01*
X431502Y106750D02*
Y113500D01*
X429002Y98000D02*
X444002D01*
X380002Y105000D02*
X388003D01*
X380002Y105000D02*
X380002Y105000D01*
X368002Y128000D02*
X378502D01*
X368002Y128000D02*
X368002Y128000D01*
X368502Y137000D02*
X368502Y137000D01*
X367502Y119000D02*
X367502Y119000D01*
X378002D01*
X-271000Y-487000D02*
X-271000Y-487000D01*
Y-479002D01*
Y-478998D01*
X-25000Y-507000D02*
X-25000Y-507000D01*
X-25000Y-515002D02*
Y-507000D01*
X-14000D02*
X-14000Y-507000D01*
X-14000Y-515002D02*
Y-507000D01*
X-3000D02*
X-3000Y-507000D01*
X-3000Y-515002D02*
Y-507000D01*
X132000Y-515002D02*
Y-507000D01*
X132000Y-507000D01*
X121000Y-515002D02*
Y-507000D01*
X121000Y-507000D01*
X110000Y-515002D02*
Y-507000D01*
X110000Y-507000D01*
X175000Y-589000D02*
Y-580998D01*
X175000Y-589000D02*
X175000Y-589000D01*
X186000D02*
Y-580998D01*
X186000Y-589000D02*
X186000Y-589000D01*
X197000D02*
Y-580998D01*
X197000Y-589000D02*
X197000Y-589000D01*
X291000D02*
Y-580998D01*
X291000Y-589000D02*
X291000Y-589000D01*
X302000D02*
Y-580998D01*
X302000Y-589000D02*
X302000Y-589000D01*
X313000D02*
Y-580998D01*
X313000Y-589000D02*
X313000Y-589000D01*
X20000Y-489000D02*
X20000Y-489000D01*
Y-519000D02*
X20000Y-519000D01*
X32998Y-496998D02*
X34950Y-498950D01*
Y-501500D02*
Y-498950D01*
X73000Y-519000D02*
Y-510998D01*
X73000Y-519000D02*
X73000Y-519000D01*
X210000Y-486000D02*
Y-477998D01*
X210000Y-486000D02*
X210000Y-486000D01*
X20000Y-510998D02*
X20000D01*
X20000Y-519000D02*
Y-510998D01*
Y-510998D01*
X-14000Y-524505D02*
X495D01*
X14002Y-510998D02*
X20000D01*
X495Y-524505D02*
X7000Y-518000D01*
X14002Y-510998D01*
X431502Y89250D02*
Y95500D01*
X429002Y98000D02*
X431502Y95500D01*
X-453000Y-563998D02*
X-437003D01*
D11*
X24951Y-126000D02*
X69000D01*
X1000D02*
X24951D01*
X-8000Y-117000D02*
X0Y-125000D01*
X-70996Y-102002D02*
X-62996D01*
X-78996D02*
X-70996D01*
X251002Y-397000D02*
Y-367383D01*
X145934Y28064D02*
Y38066D01*
X94000Y27998D02*
Y38000D01*
X120000Y27998D02*
Y38000D01*
X473998Y94500D02*
X482000D01*
X473998Y106998D02*
X482000D01*
X-453000Y-674500D02*
Y-563998D01*
X263050Y-464002D02*
X278000D01*
X210000Y-463998D02*
X224950D01*
X263050Y-429002D02*
X278000D01*
X78495Y-572000D02*
X121495D01*
X75001Y-571494D02*
X76495Y-570000D01*
Y-572000D02*
Y-570000D01*
X75001Y-625000D02*
Y-571494D01*
X158100Y-17500D02*
Y-10500D01*
X-325000Y-525000D02*
X-304000D01*
X-327000Y-523000D02*
X-325000Y-525000D01*
X-327000Y-523000D02*
Y-505000D01*
X-329998Y-502002D02*
X-327000Y-505000D01*
X-350000Y-502002D02*
X-329998D01*
X-295000Y-598000D02*
X-150000D01*
X-298000Y-595000D02*
X-295000Y-598000D01*
X-298000Y-595000D02*
Y-531000D01*
X-150000Y-598000D02*
X-145000Y-593000D01*
Y-552000D01*
X-151200Y-545800D02*
X-145000Y-552000D01*
X-169600Y-545800D02*
X-151200D01*
X433000Y122000D02*
Y135000D01*
X145869Y28130D02*
X146000Y27998D01*
X133000Y38000D02*
X133000Y38000D01*
X133000Y27998D02*
Y38000D01*
X185000Y14000D02*
X185000Y14000D01*
X145400Y13398D02*
X146000Y13998D01*
X145400Y-10500D02*
Y13398D01*
X132700Y13698D02*
X133000Y13998D01*
X132700Y-10500D02*
Y13698D01*
X120000Y13998D02*
X120000Y13998D01*
Y-10500D02*
Y13998D01*
X107000Y13998D02*
X107300Y13698D01*
Y-10500D02*
Y13698D01*
X94000Y13998D02*
X94600Y13398D01*
Y-10500D02*
Y13398D01*
X210000Y-429002D02*
X224950D01*
X263050D02*
Y-420500D01*
X250350D02*
Y-397652D01*
X237650Y-420500D02*
Y-397648D01*
X325002Y-616000D02*
X332000D01*
X337000Y-611000D01*
Y-494000D01*
X321002Y-478002D02*
X337000Y-494000D01*
X278000Y-478002D02*
X321002D01*
X224950Y-469500D02*
Y-463998D01*
X189500Y-504500D02*
X231300D01*
X186000Y-508000D02*
X189500Y-504500D01*
X186000Y-524505D02*
Y-508000D01*
X302000Y-524505D02*
Y-507000D01*
X299500Y-504500D02*
X302000Y-507000D01*
X256700Y-504500D02*
X299500D01*
X256700D02*
Y-492700D01*
X250350Y-486350D02*
X256700Y-492700D01*
X250350Y-486350D02*
Y-469500D01*
X231300Y-504500D02*
Y-493700D01*
X237650Y-487350D01*
Y-469500D01*
X325002Y-629000D02*
Y-616000D01*
Y-642000D02*
Y-629000D01*
X257000Y-642000D02*
X311002D01*
X240000Y-625000D02*
X257000Y-642000D01*
X299000Y-629000D02*
X311002D01*
X295000Y-625000D02*
X299000Y-629000D01*
X275001Y-625000D02*
X295000D01*
X275001D02*
Y-607001D01*
X273000Y-605000D02*
X275001Y-607001D01*
X260000Y-605000D02*
X273000D01*
X256700Y-601700D02*
X260000Y-605000D01*
X256700Y-601700D02*
Y-579500D01*
X231300Y-616300D02*
X240000Y-625000D01*
X231300Y-616300D02*
Y-579500D01*
X149000Y-680000D02*
Y-649000D01*
X140000Y-640000D02*
X149000Y-649000D01*
X140000Y-640000D02*
Y-632998D01*
X132000Y-682700D02*
X146300D01*
X149000Y-680000D01*
X132000Y-657300D02*
Y-647000D01*
X125000Y-640000D02*
X132000Y-647000D01*
X125000Y-640000D02*
Y-632998D01*
X112002Y-618998D02*
X125000D01*
X108000Y-623000D02*
X112002Y-618998D01*
X108000Y-634000D02*
Y-623000D01*
X96000Y-646000D02*
X108000Y-634000D01*
X46000Y-646000D02*
X96000D01*
X40000Y-640000D02*
X46000Y-646000D01*
X40000Y-640000D02*
Y-625000D01*
X97000Y-610000D02*
X104000Y-603000D01*
X75001Y-625000D02*
X95000D01*
X97000Y-623000D02*
Y-610000D01*
X95000Y-625000D02*
X97000Y-623000D01*
X104000Y-603000D02*
X136000D01*
X140000Y-607000D01*
Y-618998D02*
Y-607000D01*
X76495Y-570000D02*
Y-548495D01*
Y-572000D02*
X78495D01*
X40000Y-625000D02*
Y-604000D01*
X31505Y-595505D02*
X40000Y-604000D01*
X31505Y-595505D02*
Y-572000D01*
X70002Y-542002D02*
X76495Y-548495D01*
X61000Y-542002D02*
X70002D01*
X-14000Y-571495D02*
X-13495Y-572000D01*
X31505D01*
X37998Y-542002D02*
X47000D01*
X31505Y-548495D02*
X37998Y-542002D01*
X31505Y-572000D02*
Y-548495D01*
X60350Y-527352D02*
X61000Y-528002D01*
X60350Y-527352D02*
Y-501500D01*
X47000Y-528002D02*
X47650Y-527352D01*
Y-501500D01*
X107000Y38000D02*
X107000Y38000D01*
X107000Y27998D02*
Y38000D01*
X-271000Y-465002D02*
Y-457000D01*
X-271000Y-457000D01*
X-242000Y-460000D02*
X-242000Y-460000D01*
X-242000Y-468002D02*
Y-460000D01*
X237000Y-389000D02*
X237000Y-389000D01*
X237000Y-397002D02*
Y-389000D01*
X-271000Y-457000D02*
X-245000D01*
X-242000Y-460000D01*
X-283000Y-457000D02*
X-271000D01*
X-287000Y-461000D02*
X-283000Y-457000D01*
X-287000Y-520000D02*
Y-461000D01*
X-298000Y-531000D02*
X-287000Y-520000D01*
X278000Y-415002D02*
Y-405000D01*
X278000Y-405000D01*
X-304000Y-525000D02*
X-298000Y-531000D01*
X-83996Y-97002D02*
Y-89003D01*
Y-97002D02*
X-83996Y-97002D01*
X-57350Y-79500D02*
Y-62357D01*
X-83996Y-68003D02*
X-83996Y-68003D01*
X-83996Y-75002D02*
X-83996D01*
Y-76002D02*
Y-75002D01*
Y-68003D01*
Y-75002D02*
X-70996D01*
X-70050Y-75948D01*
Y-79500D02*
Y-75948D01*
X-57350Y-96357D02*
Y-79500D01*
X-62996Y-102002D02*
X-57350Y-96357D01*
X-83996Y-97002D02*
X-78996Y-102002D01*
X-79294Y-102301D02*
X-78996Y-102002D01*
X69200Y-125800D02*
Y-108500D01*
X69000Y-126000D02*
X69200Y-125800D01*
X12002Y-67002D02*
X21999D01*
X12000Y-67000D02*
X12002Y-67002D01*
X38000Y-100000D02*
X38002Y-99998D01*
Y-90001D01*
X4000Y-79002D02*
Y-71000D01*
X4000Y-71000D01*
X16000Y-49000D02*
X23998D01*
X16000Y-49000D02*
X16000Y-49000D01*
X-7002Y-79002D02*
X4000D01*
X-8000Y-80000D02*
X-7002Y-79002D01*
X-8000Y-117000D02*
Y-80000D01*
Y-56000D01*
X-1000Y-49000D01*
X16000D01*
X23998Y-65002D02*
Y-49000D01*
X21999Y-67002D02*
X23998Y-65002D01*
X482000Y94500D02*
X482000Y94500D01*
Y106998D02*
X482000Y106998D01*
X473998Y93998D02*
Y106995D01*
X474002Y106998D01*
X-453000Y-674500D02*
X-452500Y-675000D01*
X-437003Y-563998D02*
X-437000Y-564002D01*
D23*
X163123Y-207123D02*
X220000D01*
X229000D02*
Y-198000D01*
X220123Y-207123D02*
X229000D01*
X163000Y-207000D02*
X163123Y-207123D01*
X152902Y-217098D02*
X163000Y-207000D01*
X152902Y-237900D02*
Y-217098D01*
D24*
X90000Y-337000D02*
Y-251198D01*
X76702Y-237900D02*
X90000Y-251198D01*
X69200Y-125800D02*
X76951Y-133551D01*
Y-186249D02*
Y-133551D01*
X0Y-125000D02*
X1000Y-126000D01*
Y-186000D02*
Y-126000D01*
X0Y-125000D02*
X23951D01*
X-70117D02*
X0D01*
X23951D02*
X24951Y-126000D01*
X-70996Y-124121D02*
X-70117Y-125000D01*
X-70996Y-124121D02*
Y-102002D01*
X23998Y103298D02*
X25700Y105000D01*
X23998Y-49000D02*
Y103298D01*
X673000Y169000D02*
X695000D01*
X637566D02*
X673000D01*
X512000D02*
X637566D01*
X695000D02*
X702000Y162000D01*
D25*
X337252Y185000D02*
X345000D01*
X411000D02*
X430002Y204002D01*
X507000D01*
X345000Y185000D02*
X411000D01*
X433000Y135000D02*
X498192D01*
X502500Y139307D01*
Y167000D01*
D26*
X-55496Y162500D02*
X254888D01*
X-159234D02*
X-55496D01*
X-290000Y-352500D02*
X-165949D01*
X-290000Y-352500D02*
X-290000Y-352500D01*
X-165949D02*
X7500D01*
X7500Y-352500D01*
X-425000Y416000D02*
X-190766D01*
X254888Y162500D02*
X266500D01*
X-175000Y402500D02*
Y416000D01*
X-190766D02*
X-175000D01*
Y162500D02*
X-159234D01*
X-175000D02*
Y176000D01*
X-519500Y-352500D02*
X-290000D01*
X-558299Y-313701D02*
X-519500Y-352500D01*
X-431301Y422301D02*
X-425000Y416000D01*
X-431301Y422301D02*
Y447900D01*
X-558299Y-313701D02*
Y-212398D01*
D27*
X436000Y30000D02*
X459998D01*
X435750Y16000D02*
X459998D01*
X90000Y-394000D02*
X105000D01*
X70000D02*
X90000D01*
X94600Y-101500D02*
Y-76600D01*
X85002Y-67002D02*
X94600Y-76600D01*
X38001Y-67002D02*
X85002D01*
X-271000Y-479002D02*
X-254450D01*
X436000Y30000D02*
X436000Y30000D01*
X-497000Y-291000D02*
X-453000D01*
X507000Y195000D02*
Y204002D01*
X-506000Y-195000D02*
X217000D01*
X223000Y-19000D02*
X474000D01*
X459998Y16000D02*
Y30000D01*
X182151Y-9998D02*
X193000D01*
X171302D02*
X182151D01*
X193000Y-32997D02*
Y-23998D01*
Y-32997D02*
X193000Y-32997D01*
X193000Y-1000D02*
X193000Y-1000D01*
Y-9998D02*
Y-1000D01*
X220000Y23375D02*
Y30000D01*
Y23375D02*
X220375Y23000D01*
X185000Y36000D02*
X185000Y36000D01*
X185000Y27998D02*
Y36000D01*
X170800Y-10500D02*
X171302Y-9998D01*
X158997Y13998D02*
X185000D01*
Y14000D02*
X185500Y13500D01*
X199625D01*
X158100Y13102D02*
X158997Y13998D01*
X158100Y-10500D02*
Y13102D01*
X159000Y28002D02*
Y36000D01*
Y28002D02*
X159000Y28002D01*
X452000Y51000D02*
X452000Y51000D01*
X459998D01*
X473998Y41002D02*
Y51000D01*
Y79000D01*
Y41002D02*
X474000Y41000D01*
X16000Y-475000D02*
X40000D01*
X-297000Y-311000D02*
X32667D01*
X-317000Y-291000D02*
X-297000Y-311000D01*
X-453000Y-291000D02*
X-317000D01*
X32667Y-311000D02*
X44667Y-299000D01*
X70000D01*
X-179000Y-302000D02*
X27000D01*
X-200498Y-280502D02*
X-179000Y-302000D01*
X-200498Y-280502D02*
Y-265501D01*
X-292998Y-300000D02*
X-198000D01*
X-329698Y-263300D02*
X-292998Y-300000D01*
X-279598Y-288000D02*
X-208000D01*
X-304298Y-263300D02*
X-279598Y-288000D01*
X-184500Y-526000D02*
Y-516538D01*
X-202698Y-263300D02*
X-200498Y-265501D01*
X39000Y-293000D02*
X40000Y-292000D01*
X-167000Y-293000D02*
X39000D01*
X-177298Y-282702D02*
X-167000Y-293000D01*
X-177298Y-282702D02*
Y-263300D01*
X210000Y-407000D02*
X210000Y-407000D01*
X210000Y-415002D02*
Y-407000D01*
X170800Y-120229D02*
Y-101500D01*
X158100Y-120229D02*
Y-101500D01*
X326127Y212003D02*
X326131Y212000D01*
X313131Y212003D02*
X326127D01*
X326000Y202000D02*
X326000Y202000D01*
X-33496Y22041D02*
Y32497D01*
X-63496Y22041D02*
Y32497D01*
X326000Y192002D02*
Y202000D01*
X-254710Y-502252D02*
X-241710D01*
X-229000Y-528000D02*
Y-516542D01*
X-212500Y-525000D02*
Y-515962D01*
X-254710Y-527290D02*
Y-516252D01*
X-241750Y-426500D02*
Y-406292D01*
X-185000Y-502998D02*
Y-492500D01*
X-190950Y-486550D02*
X-185000Y-492500D01*
X-190950Y-486550D02*
Y-473500D01*
X-203650Y-486350D02*
Y-473500D01*
Y-486350D02*
X-197500Y-492500D01*
Y-502998D02*
Y-492500D01*
X-227500Y-503002D02*
X-212500D01*
X-216350Y-488650D02*
Y-473500D01*
Y-488650D02*
X-212500Y-492500D01*
Y-503002D02*
Y-492500D01*
X-197500Y-516998D02*
Y-516538D01*
Y-526000D02*
Y-516998D01*
X-18496Y22041D02*
Y32497D01*
X-93496Y22041D02*
Y32497D01*
X-78496Y22041D02*
Y32497D01*
X-48496Y22041D02*
Y32497D01*
X-31453Y-30003D02*
X-20996D01*
X-31950Y-30500D02*
X-31453Y-30003D01*
X-93496Y7996D02*
X-78496D01*
X-63496D02*
X-48496D01*
X-33496D02*
X-18496D01*
X-44650Y-13657D02*
X-33496Y-2503D01*
Y7996D01*
X-44650Y-30500D02*
Y-13657D01*
X-63496Y-7502D02*
Y7996D01*
Y-7502D02*
X-57350Y-13648D01*
Y-30500D02*
Y-13648D01*
X-78496Y-7502D02*
Y7996D01*
Y-7502D02*
X-75996Y-10002D01*
X-73496D01*
X-70050Y-13448D01*
Y-30500D02*
Y-13448D01*
X81900Y-101500D02*
Y-86900D01*
X78000Y-83000D02*
X81900Y-86900D01*
X62000Y-83000D02*
X78000D01*
X56000Y-89000D02*
X62000Y-83000D01*
X81900Y-108500D02*
Y-101500D01*
X94600Y-108500D02*
Y-101500D01*
X433000Y114998D02*
Y122000D01*
X60350Y-470650D02*
Y-452500D01*
X79000Y-433000D02*
Y-428998D01*
X73050Y-438950D02*
X79000Y-433000D01*
X73050Y-452500D02*
Y-438950D01*
X60350Y-452500D02*
Y-438650D01*
X66000Y-433000D01*
Y-429002D01*
X47998D02*
X48000Y-429000D01*
X47650Y-429350D02*
X47998Y-429002D01*
X53000D01*
X40003D02*
X47998D01*
X40000Y-428998D02*
X40003Y-429002D01*
X47650Y-452500D02*
Y-429350D01*
X28500Y-452500D02*
X34950D01*
X27000Y-451000D02*
X28500Y-452500D01*
X27000Y-451000D02*
Y-428998D01*
Y-414998D02*
Y-406000D01*
X27000Y-406000D02*
X27000Y-406000D01*
X40000Y-414998D02*
Y-406000D01*
X40000Y-406000D02*
X40000Y-406000D01*
X53000Y-415002D02*
Y-406003D01*
X53000Y-406003D02*
X53000Y-406003D01*
X66000Y-415002D02*
Y-406003D01*
X66000Y-406003D02*
X66000Y-406003D01*
X79000Y-406000D02*
X79000Y-406000D01*
Y-414998D02*
Y-406000D01*
X-197500Y-516538D02*
X-197210Y-516248D01*
X-254710Y-527290D02*
X-252000Y-530000D01*
Y-545100D02*
Y-530000D01*
X-252700Y-545800D02*
X-252000Y-545100D01*
X-225000Y-545800D02*
Y-532000D01*
X-229000Y-528000D02*
X-225000Y-532000D01*
X-229000Y-516542D02*
X-228710Y-516252D01*
X-241710Y-493710D02*
X-238000Y-490000D01*
X-241710Y-502252D02*
Y-493710D01*
X-229050Y-487050D02*
Y-473500D01*
X-232000Y-490000D02*
X-229050Y-487050D01*
X-238000Y-490000D02*
X-232000D01*
X-213210Y-515252D02*
X-212500Y-515962D01*
X-241710Y-516252D02*
X-228710D01*
X-254450Y-426500D02*
Y-406508D01*
X-254710Y-406248D02*
X-254450Y-406508D01*
X-241750Y-406292D02*
X-241710Y-406252D01*
X-216350Y-426500D02*
Y-406352D01*
X-216000Y-406002D01*
X-203650Y-426500D02*
Y-395350D01*
X-206998Y-392002D02*
X-203650Y-395350D01*
X-216000Y-392002D02*
X-206998D01*
X-190950Y-426500D02*
Y-406052D01*
X-191000Y-406002D02*
X-190950Y-406052D01*
X-229050Y-426500D02*
Y-401050D01*
X-229000Y-401000D01*
X-266000Y-393000D02*
X-255462D01*
X-254710Y-392248D01*
X-254450Y-479002D02*
Y-473500D01*
X-271000Y-479002D02*
X-271000D01*
X20000Y-496998D02*
X32998D01*
X-20505Y-518000D02*
X-14000Y-524505D01*
X-169600Y-545800D02*
Y-523600D01*
X-164000Y-518000D01*
X-35000Y-625000D02*
X5001D01*
X-53000Y-607000D02*
X-35000Y-625000D01*
X-53000Y-607000D02*
Y-518000D01*
X-20505D01*
X7000D02*
Y-484000D01*
X16000Y-475000D01*
X40000D02*
X44000Y-479000D01*
X73000Y-501450D02*
X73050Y-501500D01*
X73000Y-501450D02*
Y-479000D01*
X44000D02*
X73000D01*
X121000Y-524505D02*
X151505D01*
X155000Y-528000D01*
Y-562000D02*
Y-528000D01*
Y-562000D02*
X164495Y-571495D01*
X186000D01*
X208998Y-479000D02*
X210000Y-477998D01*
X110000Y-507000D02*
Y-479000D01*
X73000D02*
X110000D01*
X237650Y-437632D02*
Y-420500D01*
X235530Y-439752D02*
X237650Y-437632D01*
X110000Y-479000D02*
X194000D01*
X208998D01*
X194000D02*
Y-446000D01*
X200248Y-439752D01*
X235530D01*
X197000Y-616999D02*
Y-589000D01*
Y-616999D02*
X205001Y-625000D01*
X186000Y-571495D02*
X203505D01*
X219000Y-556000D01*
X268000D01*
X283495Y-571495D01*
X302000D01*
X311002Y-616000D02*
Y-607002D01*
X311000Y-607000D02*
X311002Y-607002D01*
X311000Y-607000D02*
Y-600000D01*
X307000Y-596000D02*
X311000Y-600000D01*
X305000Y-596000D02*
X307000D01*
X302000Y-593000D02*
X305000Y-596000D01*
X302000Y-593000D02*
Y-589000D01*
X53000Y-415002D02*
X66000D01*
X66000Y-406003D02*
Y-398000D01*
X70000Y-394000D01*
X110000Y-479000D02*
Y-399000D01*
X105000Y-394000D02*
X110000Y-399000D01*
X-241855Y-384145D02*
X-241710Y-384290D01*
Y-392252D02*
Y-384290D01*
X-189962Y-392000D02*
X-182000D01*
X-181855Y-391855D01*
X-151145D01*
X-147000Y-396000D01*
Y-517000D02*
Y-396000D01*
X-148000Y-518000D02*
X-147000Y-517000D01*
X-164000Y-518000D02*
X-148000D01*
X-53000D01*
X-241855Y-384145D02*
X-237710Y-380000D01*
X-194000D01*
X-191000Y-383000D01*
Y-392002D02*
Y-383000D01*
X-191000Y-392002D02*
X-191000Y-392002D01*
X21999Y-103999D02*
Y-88998D01*
Y-103999D02*
X26500Y-108500D01*
X52500D01*
X56000Y-105000D01*
Y-89000D01*
X37998Y-66999D02*
Y-49000D01*
Y-66999D02*
X38001Y-67002D01*
X4000Y-93002D02*
X9998D01*
X14002Y-88998D01*
X21999D01*
X-437000Y-549002D02*
Y-541000D01*
X-437000Y-541000D01*
X-453000Y-541000D02*
X-453000Y-541000D01*
Y-548998D02*
Y-541000D01*
D28*
X-558299Y-34598D02*
D03*
X-532899D02*
D03*
Y-59998D02*
D03*
X-558299D02*
D03*
X-532899Y-85398D02*
D03*
X-558299D02*
D03*
X-532899Y-110798D02*
D03*
X-558299D02*
D03*
X-532899Y-136198D02*
D03*
X-558299D02*
D03*
X-532899Y-161598D02*
D03*
X-558299D02*
D03*
X-532899Y-186998D02*
D03*
X-558299D02*
D03*
X-532899Y-212398D02*
D03*
Y-9198D02*
D03*
Y16202D02*
D03*
Y41602D02*
D03*
Y67002D02*
D03*
Y92402D02*
D03*
Y117802D02*
D03*
Y143202D02*
D03*
Y168602D02*
D03*
Y194002D02*
D03*
Y219402D02*
D03*
Y244802D02*
D03*
Y270202D02*
D03*
Y295602D02*
D03*
Y321002D02*
D03*
Y346402D02*
D03*
Y371802D02*
D03*
Y397202D02*
D03*
Y422602D02*
D03*
X-558299Y-9198D02*
D03*
Y16202D02*
D03*
Y41602D02*
D03*
Y67002D02*
D03*
Y92402D02*
D03*
Y117802D02*
D03*
Y143202D02*
D03*
Y168602D02*
D03*
Y194002D02*
D03*
Y219402D02*
D03*
Y244802D02*
D03*
Y270202D02*
D03*
Y295602D02*
D03*
Y321002D02*
D03*
Y346402D02*
D03*
Y371802D02*
D03*
Y397202D02*
D03*
Y422602D02*
D03*
X178299Y473300D02*
D03*
X152899D02*
D03*
X127499D02*
D03*
X102099D02*
D03*
X76699D02*
D03*
X51299D02*
D03*
X25899D02*
D03*
X499D02*
D03*
X-24901D02*
D03*
X-50301D02*
D03*
X-75701D02*
D03*
X-101101D02*
D03*
X-126501D02*
D03*
X-151901D02*
D03*
X-177301D02*
D03*
X-202701D02*
D03*
X-228101D02*
D03*
X-253501D02*
D03*
X178299Y447900D02*
D03*
X152899D02*
D03*
X127499D02*
D03*
X102099D02*
D03*
X76699D02*
D03*
X51299D02*
D03*
X25899D02*
D03*
X499D02*
D03*
X-24901D02*
D03*
X-50301D02*
D03*
X-75701D02*
D03*
X-101101D02*
D03*
X-126501D02*
D03*
X-151901D02*
D03*
X-177301D02*
D03*
X-202701D02*
D03*
X-228101D02*
D03*
X-253501D02*
D03*
X-456701D02*
D03*
X-431301Y473300D02*
D03*
Y447900D02*
D03*
X-405901Y473300D02*
D03*
Y447900D02*
D03*
X-380501Y473300D02*
D03*
Y447900D02*
D03*
X-355101Y473300D02*
D03*
Y447900D02*
D03*
X-329701Y473300D02*
D03*
Y447900D02*
D03*
X-304301Y473300D02*
D03*
Y447900D02*
D03*
X-278901D02*
D03*
Y473300D02*
D03*
X178302Y-237900D02*
D03*
X152902D02*
D03*
X127502D02*
D03*
X102102D02*
D03*
X76702D02*
D03*
X51302D02*
D03*
X25902D02*
D03*
X502D02*
D03*
X-24898D02*
D03*
X-50298D02*
D03*
X-75698D02*
D03*
X-101098D02*
D03*
X-126498D02*
D03*
X-151898D02*
D03*
X-177298D02*
D03*
X-202698D02*
D03*
X-228098D02*
D03*
X-253498D02*
D03*
X178302Y-263300D02*
D03*
X152902D02*
D03*
X127502D02*
D03*
X102102D02*
D03*
X76702D02*
D03*
X51302D02*
D03*
X25902D02*
D03*
X502D02*
D03*
X-24898D02*
D03*
X-50298D02*
D03*
X-75698D02*
D03*
X-101098D02*
D03*
X-126498D02*
D03*
X-151898D02*
D03*
X-177298D02*
D03*
X-202698D02*
D03*
X-228098D02*
D03*
X-253498D02*
D03*
X-456698D02*
D03*
X-431298Y-237900D02*
D03*
Y-263300D02*
D03*
X-405898Y-237900D02*
D03*
Y-263300D02*
D03*
X-380498Y-237900D02*
D03*
Y-263300D02*
D03*
X-355098Y-237900D02*
D03*
Y-263300D02*
D03*
X-329698Y-237900D02*
D03*
Y-263300D02*
D03*
X-304298Y-237900D02*
D03*
Y-263300D02*
D03*
X-278898D02*
D03*
Y-237900D02*
D03*
X132000Y-682700D02*
D03*
D29*
X-558299Y-212398D02*
D03*
X132000Y-657300D02*
D03*
D30*
X-456701Y473300D02*
D03*
X-456698Y-237900D02*
D03*
D31*
X205001Y-625000D02*
D03*
X240000D02*
D03*
X40000D02*
D03*
X5001D02*
D03*
D32*
X275001D02*
D03*
X75001D02*
D03*
D33*
X1000000Y-500000D02*
D03*
Y500000D02*
D03*
X-1000000D02*
D03*
X343000Y-283000D02*
D03*
Y493000D02*
D03*
X-793000D02*
D03*
Y-283000D02*
D03*
X-1000000Y-500000D02*
D03*
D34*
X-169600Y-545800D02*
D03*
X-183450Y-574200D02*
D03*
X-197300Y-545800D02*
D03*
X-211150Y-574200D02*
D03*
X-225000Y-545800D02*
D03*
X-238850Y-574200D02*
D03*
X-252700Y-545800D02*
D03*
X-266550Y-574200D02*
D03*
D35*
X-280400Y-545800D02*
D03*
D36*
X-349950Y-560000D02*
D03*
X-100050D02*
D03*
D37*
X252000Y186000D02*
D03*
X244209Y178936D02*
D03*
X235567Y193945D02*
D03*
X228335Y200901D02*
D03*
X287000Y201500D02*
D03*
X287000Y234000D02*
D03*
X90000Y-394000D02*
D03*
Y-337000D02*
D03*
X76951Y-186249D02*
D03*
X1000Y-186000D02*
D03*
X412000Y98000D02*
D03*
X344000Y137911D02*
D03*
X673000Y168000D02*
D03*
X637566Y169000D02*
D03*
X728000Y162000D02*
D03*
X702750Y161750D02*
D03*
X474750Y173250D02*
D03*
X461750Y161750D02*
D03*
X172000Y38000D02*
D03*
X942000Y623000D02*
D03*
Y523000D02*
D03*
Y423000D02*
D03*
Y323000D02*
D03*
Y223000D02*
D03*
Y123000D02*
D03*
Y23000D02*
D03*
Y-77000D02*
D03*
Y-177000D02*
D03*
Y-277000D02*
D03*
Y-377000D02*
D03*
Y-477000D02*
D03*
Y-577000D02*
D03*
Y-677000D02*
D03*
X842000Y623000D02*
D03*
Y523000D02*
D03*
Y423000D02*
D03*
Y323000D02*
D03*
Y223000D02*
D03*
Y123000D02*
D03*
Y23000D02*
D03*
Y-77000D02*
D03*
Y-177000D02*
D03*
Y-277000D02*
D03*
Y-377000D02*
D03*
Y-477000D02*
D03*
Y-577000D02*
D03*
Y-677000D02*
D03*
X742000Y623000D02*
D03*
Y523000D02*
D03*
Y423000D02*
D03*
Y323000D02*
D03*
Y223000D02*
D03*
Y123000D02*
D03*
Y23000D02*
D03*
Y-277000D02*
D03*
Y-377000D02*
D03*
Y-477000D02*
D03*
Y-577000D02*
D03*
Y-677000D02*
D03*
X642000Y623000D02*
D03*
Y523000D02*
D03*
Y423000D02*
D03*
Y323000D02*
D03*
Y123000D02*
D03*
Y23000D02*
D03*
Y-277000D02*
D03*
Y-377000D02*
D03*
Y-477000D02*
D03*
Y-577000D02*
D03*
Y-677000D02*
D03*
X542000Y623000D02*
D03*
Y523000D02*
D03*
Y423000D02*
D03*
Y123000D02*
D03*
Y23000D02*
D03*
Y-277000D02*
D03*
Y-377000D02*
D03*
Y-477000D02*
D03*
Y-577000D02*
D03*
Y-677000D02*
D03*
X442000Y623000D02*
D03*
Y523000D02*
D03*
Y423000D02*
D03*
Y223000D02*
D03*
Y-277000D02*
D03*
Y-377000D02*
D03*
Y-477000D02*
D03*
Y-577000D02*
D03*
Y-677000D02*
D03*
X342000Y623000D02*
D03*
Y423000D02*
D03*
Y23000D02*
D03*
Y-377000D02*
D03*
Y-477000D02*
D03*
Y-677000D02*
D03*
X242000Y623000D02*
D03*
Y523000D02*
D03*
Y423000D02*
D03*
Y23000D02*
D03*
Y-277000D02*
D03*
Y-677000D02*
D03*
X142000Y623000D02*
D03*
Y523000D02*
D03*
Y423000D02*
D03*
Y123000D02*
D03*
Y-277000D02*
D03*
Y-377000D02*
D03*
Y-477000D02*
D03*
X42000Y623000D02*
D03*
Y523000D02*
D03*
Y123000D02*
D03*
Y23000D02*
D03*
Y-177000D02*
D03*
Y-477000D02*
D03*
Y-677000D02*
D03*
X-58000Y623000D02*
D03*
Y523000D02*
D03*
Y423000D02*
D03*
Y-177000D02*
D03*
Y-377000D02*
D03*
Y-477000D02*
D03*
Y-577000D02*
D03*
Y-677000D02*
D03*
X-158000Y623000D02*
D03*
Y523000D02*
D03*
Y423000D02*
D03*
Y-377000D02*
D03*
Y-577000D02*
D03*
Y-677000D02*
D03*
X-258000Y623000D02*
D03*
Y523000D02*
D03*
Y123000D02*
D03*
Y23000D02*
D03*
Y-77000D02*
D03*
Y-177000D02*
D03*
Y-377000D02*
D03*
Y-677000D02*
D03*
X-358000Y623000D02*
D03*
Y523000D02*
D03*
Y123000D02*
D03*
Y23000D02*
D03*
Y-77000D02*
D03*
Y-177000D02*
D03*
Y-377000D02*
D03*
Y-477000D02*
D03*
Y-677000D02*
D03*
X-458000Y623000D02*
D03*
Y523000D02*
D03*
Y423000D02*
D03*
Y123000D02*
D03*
Y23000D02*
D03*
Y-77000D02*
D03*
Y-177000D02*
D03*
X-558000Y623000D02*
D03*
Y523000D02*
D03*
Y-377000D02*
D03*
Y-477000D02*
D03*
Y-577000D02*
D03*
Y-677000D02*
D03*
X-658000Y623000D02*
D03*
Y523000D02*
D03*
Y423000D02*
D03*
Y23000D02*
D03*
Y-77000D02*
D03*
Y-177000D02*
D03*
Y-277000D02*
D03*
Y-377000D02*
D03*
Y-477000D02*
D03*
Y-577000D02*
D03*
Y-677000D02*
D03*
X-758000Y623000D02*
D03*
Y523000D02*
D03*
Y423000D02*
D03*
Y323000D02*
D03*
Y223000D02*
D03*
Y123000D02*
D03*
Y23000D02*
D03*
Y-77000D02*
D03*
Y-177000D02*
D03*
Y-277000D02*
D03*
Y-377000D02*
D03*
Y-477000D02*
D03*
Y-577000D02*
D03*
Y-677000D02*
D03*
X-858000Y623000D02*
D03*
Y523000D02*
D03*
Y423000D02*
D03*
Y323000D02*
D03*
Y223000D02*
D03*
Y123000D02*
D03*
Y23000D02*
D03*
Y-77000D02*
D03*
Y-177000D02*
D03*
Y-277000D02*
D03*
Y-377000D02*
D03*
Y-477000D02*
D03*
Y-577000D02*
D03*
Y-677000D02*
D03*
X-958000Y623000D02*
D03*
Y523000D02*
D03*
Y423000D02*
D03*
Y323000D02*
D03*
Y223000D02*
D03*
Y123000D02*
D03*
Y23000D02*
D03*
Y-77000D02*
D03*
Y-177000D02*
D03*
Y-277000D02*
D03*
Y-377000D02*
D03*
Y-477000D02*
D03*
Y-577000D02*
D03*
Y-677000D02*
D03*
X-622000Y289000D02*
D03*
Y323000D02*
D03*
X-500Y-352500D02*
D03*
X15500D02*
D03*
X-298000D02*
D03*
X-282000D02*
D03*
X-165949Y-352500D02*
D03*
X-71496Y161496D02*
D03*
X-55496D02*
D03*
X193000Y162000D02*
D03*
X177000D02*
D03*
X254888Y162500D02*
D03*
X337252Y185000D02*
D03*
X-175000Y402500D02*
D03*
X-190766Y416000D02*
D03*
X-159234Y162500D02*
D03*
X-175000Y176000D02*
D03*
X436502Y82130D02*
D03*
X448000Y30000D02*
D03*
X229000Y-198000D02*
D03*
X-497000Y-291000D02*
D03*
Y-174000D02*
D03*
X507000Y226000D02*
D03*
X493000Y169000D02*
D03*
X512000D02*
D03*
X-506000Y-123000D02*
D03*
Y-195000D02*
D03*
X217000D02*
D03*
X223000Y-19000D02*
D03*
X474000D02*
D03*
X448000Y16000D02*
D03*
X185000Y162000D02*
D03*
X193000Y-32997D02*
D03*
X182151Y-9998D02*
D03*
X193000Y-1000D02*
D03*
X220000Y30000D02*
D03*
X185000Y36000D02*
D03*
X159000D02*
D03*
X-63496Y161496D02*
D03*
X-175000Y416000D02*
D03*
X482000Y30000D02*
D03*
Y16000D02*
D03*
X452000Y51000D02*
D03*
X474000Y41000D02*
D03*
X345000Y185000D02*
D03*
X268000Y164000D02*
D03*
X252999Y139220D02*
D03*
X-290000Y-352500D02*
D03*
X7500D02*
D03*
X-175000Y162500D02*
D03*
X70000Y-299000D02*
D03*
X-453000Y-291000D02*
D03*
X-198000Y-300000D02*
D03*
X-208000Y-288000D02*
D03*
X79000Y-283000D02*
D03*
X27000Y-302000D02*
D03*
X40000Y-292000D02*
D03*
X210000Y-407000D02*
D03*
X170800Y-120229D02*
D03*
X158100D02*
D03*
X-32000Y-97000D02*
D03*
X-44000D02*
D03*
X-32000Y-210000D02*
D03*
X-44000Y-218000D02*
D03*
X81000Y412000D02*
D03*
X101000Y420000D02*
D03*
X26000D02*
D03*
X13000D02*
D03*
X115000Y427000D02*
D03*
X-12000D02*
D03*
X145934Y38066D02*
D03*
X94000Y38000D02*
D03*
X313000Y234000D02*
D03*
X326000D02*
D03*
X300000D02*
D03*
X326000Y202000D02*
D03*
X-485551Y168051D02*
D03*
X-485351Y142851D02*
D03*
X-485151Y117651D02*
D03*
X-485049Y92451D02*
D03*
X-510000Y197500D02*
D03*
X-490000Y215000D02*
D03*
X-452500Y245000D02*
D03*
X-427500Y272500D02*
D03*
X-430000Y367500D02*
D03*
X-420000Y287500D02*
D03*
X-412500Y302500D02*
D03*
X-590000Y282500D02*
D03*
X-437500Y280000D02*
D03*
X-607500Y342500D02*
D03*
X-615000Y180000D02*
D03*
X-622500Y207500D02*
D03*
X-630000Y231250D02*
D03*
X-637500Y257500D02*
D03*
X-597500Y320000D02*
D03*
X-582500Y372500D02*
D03*
X-500000Y385000D02*
D03*
X-510000Y397500D02*
D03*
X-520000Y432500D02*
D03*
X-582500Y440400D02*
D03*
X-590000Y408452D02*
D03*
X-390000Y307500D02*
D03*
X-437500Y352500D02*
D03*
X-445000Y345000D02*
D03*
X-452500Y337500D02*
D03*
X-460000Y330000D02*
D03*
X-470000Y322500D02*
D03*
X-480000Y315000D02*
D03*
X-437500Y260000D02*
D03*
X-33496Y32497D02*
D03*
X-63496D02*
D03*
X-93496D02*
D03*
X-78496D02*
D03*
X-84000Y200000D02*
D03*
X-96000Y193000D02*
D03*
X-84000Y185000D02*
D03*
X-96000Y178000D02*
D03*
X313000Y202000D02*
D03*
X300000Y201500D02*
D03*
X268000Y200000D02*
D03*
X120000Y38000D02*
D03*
X-212500Y-525000D02*
D03*
X-18496Y32497D02*
D03*
X-48496D02*
D03*
X-20996Y-30003D02*
D03*
X60350Y-470650D02*
D03*
X107000Y38000D02*
D03*
X133000D02*
D03*
X27000Y-406000D02*
D03*
X40000D02*
D03*
X53000Y-406003D02*
D03*
X66000D02*
D03*
X79000Y-406000D02*
D03*
X-184500Y-526000D02*
D03*
X-197500D02*
D03*
X-229000Y-401000D02*
D03*
X-266000Y-393000D02*
D03*
X444002Y98000D02*
D03*
X380002Y105000D02*
D03*
X368002Y128000D02*
D03*
X368502Y137000D02*
D03*
X367502Y119000D02*
D03*
X-271000Y-457000D02*
D03*
X-242000Y-460000D02*
D03*
X-271000Y-487000D02*
D03*
X-25000Y-507000D02*
D03*
X-14000D02*
D03*
X-3000D02*
D03*
X132000D02*
D03*
X121000D02*
D03*
X110000D02*
D03*
X175000Y-589000D02*
D03*
X186000D02*
D03*
X197000D02*
D03*
X291000D02*
D03*
X302000D02*
D03*
X313000D02*
D03*
X20000Y-489000D02*
D03*
Y-519000D02*
D03*
X73000D02*
D03*
X210000Y-486000D02*
D03*
X278000Y-405000D02*
D03*
X237000Y-389000D02*
D03*
X311000Y-607000D02*
D03*
X-241855Y-384145D02*
D03*
X-181855Y-391855D02*
D03*
X-83996Y-97002D02*
D03*
X-57350Y-62357D02*
D03*
X-83996Y-68003D02*
D03*
X69000Y-126000D02*
D03*
X12000Y-67000D02*
D03*
X38000Y-100000D02*
D03*
X4000Y-71000D02*
D03*
X16000Y-49000D02*
D03*
X482000Y94500D02*
D03*
X482000Y106998D02*
D03*
X-437000Y-541000D02*
D03*
X-453000Y-541000D02*
D03*
D38*
X435750Y42000D02*
D03*
X372250D02*
D03*
D39*
X433000Y136500D02*
D03*
X419000D02*
D03*
X473998Y93000D02*
D03*
X459998D02*
D03*
X473998Y79000D02*
D03*
X459998D02*
D03*
X460002Y65000D02*
D03*
X474002D02*
D03*
X459998Y51000D02*
D03*
X473998D02*
D03*
X459998Y30000D02*
D03*
X473998D02*
D03*
X459998Y16000D02*
D03*
X473998D02*
D03*
X474002Y106998D02*
D03*
X460002D02*
D03*
X419000Y122000D02*
D03*
X433000D02*
D03*
X402003Y105000D02*
D03*
X388003D02*
D03*
X325002Y-616000D02*
D03*
X311002D02*
D03*
X325002Y-642000D02*
D03*
X311002D02*
D03*
X325002Y-629000D02*
D03*
X311002D02*
D03*
X251002Y-397000D02*
D03*
X237002D02*
D03*
X23998Y-49000D02*
D03*
X37998D02*
D03*
D40*
X220375Y23000D02*
D03*
D41*
X199625Y32500D02*
D03*
Y13500D02*
D03*
D42*
X193000Y-23998D02*
D03*
Y-9998D02*
D03*
X313131Y226003D02*
D03*
Y212003D02*
D03*
X326131Y212000D02*
D03*
Y226000D02*
D03*
X326000Y192002D02*
D03*
Y178002D02*
D03*
X313000Y192002D02*
D03*
Y178002D02*
D03*
X300000Y192002D02*
D03*
Y178002D02*
D03*
X287000Y192002D02*
D03*
Y178002D02*
D03*
X287131Y212000D02*
D03*
Y226000D02*
D03*
X300131Y212000D02*
D03*
Y226000D02*
D03*
X268000Y192002D02*
D03*
Y178002D02*
D03*
X140000Y-632998D02*
D03*
Y-618998D02*
D03*
X125000Y-632998D02*
D03*
Y-618998D02*
D03*
X-18496Y7996D02*
D03*
Y21996D02*
D03*
X-48496Y7996D02*
D03*
Y21996D02*
D03*
X-78496Y7996D02*
D03*
Y21996D02*
D03*
X-33496Y7996D02*
D03*
Y21996D02*
D03*
X-63496Y7996D02*
D03*
Y21996D02*
D03*
X-93496Y7996D02*
D03*
Y21996D02*
D03*
X-437000Y-564002D02*
D03*
Y-550002D02*
D03*
X-453000Y-549998D02*
D03*
Y-563998D02*
D03*
X-350000Y-502002D02*
D03*
Y-516002D02*
D03*
X107000Y13998D02*
D03*
Y27998D02*
D03*
X94000Y13998D02*
D03*
Y27998D02*
D03*
X133000Y13998D02*
D03*
Y27998D02*
D03*
X146000Y13998D02*
D03*
Y27998D02*
D03*
X185000Y13998D02*
D03*
Y27998D02*
D03*
X159000Y28002D02*
D03*
Y14002D02*
D03*
X172000Y28002D02*
D03*
Y14002D02*
D03*
X-254710Y-392248D02*
D03*
Y-406248D02*
D03*
X-240000Y-407002D02*
D03*
Y-393002D02*
D03*
X-212500Y-517002D02*
D03*
Y-503002D02*
D03*
X-227500Y-517002D02*
D03*
Y-503002D02*
D03*
X-242500Y-517002D02*
D03*
Y-503002D02*
D03*
X-257500Y-517002D02*
D03*
Y-503002D02*
D03*
X-185000Y-502998D02*
D03*
Y-516998D02*
D03*
X-197500Y-502998D02*
D03*
Y-516998D02*
D03*
X27000Y-414998D02*
D03*
Y-428998D02*
D03*
X40000Y-414998D02*
D03*
Y-428998D02*
D03*
X79000Y-414998D02*
D03*
Y-428998D02*
D03*
X53000Y-429002D02*
D03*
Y-415002D02*
D03*
X66000Y-429002D02*
D03*
Y-415002D02*
D03*
X47000Y-542002D02*
D03*
Y-528002D02*
D03*
X61000Y-542002D02*
D03*
Y-528002D02*
D03*
X210000Y-463998D02*
D03*
Y-477998D02*
D03*
X210000Y-429002D02*
D03*
Y-415002D02*
D03*
X278000Y-429002D02*
D03*
Y-415002D02*
D03*
Y-478002D02*
D03*
Y-464002D02*
D03*
X4000Y-93002D02*
D03*
Y-79002D02*
D03*
X20000Y-496998D02*
D03*
Y-510998D02*
D03*
X-216000Y-406002D02*
D03*
Y-392002D02*
D03*
X-191000Y-406002D02*
D03*
Y-392002D02*
D03*
X-271000Y-479002D02*
D03*
Y-465002D02*
D03*
X-83996Y-75002D02*
D03*
Y-89003D02*
D03*
X120000Y13998D02*
D03*
Y27998D02*
D03*
X507000Y204002D02*
D03*
Y218002D02*
D03*
D43*
X474750Y161500D02*
D03*
X715250D02*
D03*
X343655Y126600D02*
D03*
X253155D02*
D03*
D44*
X532500Y180500D02*
D03*
X542500D02*
D03*
X547500D02*
D03*
X562500D02*
D03*
X567500D02*
D03*
X582500D02*
D03*
X587500D02*
D03*
X602500D02*
D03*
X607500D02*
D03*
X622500D02*
D03*
X627500D02*
D03*
X652500D02*
D03*
X657500D02*
D03*
X662500D02*
D03*
X667500D02*
D03*
X672500D02*
D03*
X677500D02*
D03*
X682500D02*
D03*
X687500D02*
D03*
X692500D02*
D03*
X647500D02*
D03*
X642500D02*
D03*
X637500D02*
D03*
X632500D02*
D03*
X617500D02*
D03*
X612500D02*
D03*
X597500D02*
D03*
X592500D02*
D03*
X577500D02*
D03*
X572500D02*
D03*
X557500D02*
D03*
X552500D02*
D03*
X537500D02*
D03*
X527500D02*
D03*
X522500D02*
D03*
X517500D02*
D03*
X512500D02*
D03*
X507500D02*
D03*
X502500D02*
D03*
X497500D02*
D03*
X275905Y145600D02*
D03*
X280905D02*
D03*
X285905D02*
D03*
X320905D02*
D03*
X315905D02*
D03*
X310905D02*
D03*
X305905D02*
D03*
X300905D02*
D03*
X295905D02*
D03*
X290905D02*
D03*
D45*
X-452500Y-585000D02*
D03*
Y-675000D02*
D03*
X-407500Y-585000D02*
D03*
Y-675000D02*
D03*
D46*
X-70050Y-30500D02*
D03*
X-57350D02*
D03*
X-44650D02*
D03*
X-31950D02*
D03*
X-70050Y-79500D02*
D03*
X-57350D02*
D03*
X-44650D02*
D03*
X-31950D02*
D03*
X73050Y-501500D02*
D03*
X60350D02*
D03*
X47650D02*
D03*
X34950D02*
D03*
X73050Y-452500D02*
D03*
X60350D02*
D03*
X47650D02*
D03*
X34950D02*
D03*
X263050Y-469500D02*
D03*
X250350D02*
D03*
X237650D02*
D03*
X224950D02*
D03*
X263050Y-420500D02*
D03*
X250350D02*
D03*
X237650D02*
D03*
X224950D02*
D03*
D47*
X69200Y-10500D02*
D03*
X81900D02*
D03*
X94600D02*
D03*
X107300D02*
D03*
X120000D02*
D03*
X132700D02*
D03*
X145400D02*
D03*
X158100D02*
D03*
X170800D02*
D03*
X69200Y-101500D02*
D03*
X81900D02*
D03*
X94600D02*
D03*
X107300D02*
D03*
X120000D02*
D03*
X132700D02*
D03*
X145400D02*
D03*
X158100D02*
D03*
X170800D02*
D03*
D48*
X38001Y-88998D02*
D03*
X21999D02*
D03*
X38001Y-67002D02*
D03*
X21999D02*
D03*
D49*
X429002Y98000D02*
D03*
D50*
X436502Y106750D02*
D03*
X431502D02*
D03*
X426502D02*
D03*
X421502D02*
D03*
Y89250D02*
D03*
X426502D02*
D03*
X431502D02*
D03*
X436502D02*
D03*
D51*
X405502Y128000D02*
D03*
X378502D02*
D03*
D52*
X31505Y-572000D02*
D03*
X78495D02*
D03*
D53*
X231300Y-504500D02*
D03*
X256700D02*
D03*
X231300Y-579500D02*
D03*
X256700D02*
D03*
D54*
X186000Y-524505D02*
D03*
Y-571495D02*
D03*
X302000Y-524505D02*
D03*
Y-571495D02*
D03*
X121000D02*
D03*
Y-524505D02*
D03*
X-14000Y-571495D02*
D03*
Y-524505D02*
D03*
D55*
X-254450Y-426500D02*
D03*
X-241750D02*
D03*
X-229050D02*
D03*
X-216350D02*
D03*
X-203650D02*
D03*
X-190950D02*
D03*
X-178250D02*
D03*
X-165550D02*
D03*
X-254450Y-473500D02*
D03*
X-241750D02*
D03*
X-229050D02*
D03*
X-216350D02*
D03*
X-203650D02*
D03*
X-190950D02*
D03*
X-178250D02*
D03*
X-165550D02*
D03*
D56*
X-890400Y-549600D02*
D03*
X890400D02*
D03*
Y549600D02*
D03*
D57*
X236118Y-352500D02*
X251002Y-367383D01*
X7500Y-352500D02*
X236118D01*
D58*
X-130500Y-642500D02*
X-100050Y-612050D01*
X-321500Y-642500D02*
X-130500D01*
X-349950Y-614050D02*
X-321500Y-642500D01*
X-100050Y-612050D02*
Y-560000D01*
X-349950Y-614050D02*
Y-560000D01*
D59*
X-350000Y-559950D02*
X-349950Y-560000D01*
X-350000Y-559950D02*
Y-519000D01*
M02*
