G04*
G04 #@! TF.GenerationSoftware,Altium Limited,Altium Designer,19.1.8 (144)*
G04*
G04 Layer_Color=128*
%FSLAX44Y44*%
%MOMM*%
G71*
G01*
G75*
%ADD33R,0.9000X0.8000*%
%ADD34R,0.8000X0.9000*%
%ADD35R,1.2000X2.4000*%
%ADD36R,1.8034X1.0160*%
%ADD37R,1.8000X1.0000*%
%ADD38O,0.7000X2.5000*%
%ADD39R,0.3000X1.0000*%
%ADD40R,1.6500X1.3000*%
%ADD41R,0.3000X1.2000*%
%ADD43R,2.7000X4.1000*%
%ADD44O,0.6000X2.3000*%
%ADD45R,1.0160X1.8034*%
%ADD46R,1.0000X1.8000*%
%ADD47R,0.6500X0.9000*%
%ADD48R,0.6500X1.1000*%
%ADD49R,1.1498X1.3995*%
%ADD50R,0.5600X2.1500*%
G04:AMPARAMS|DCode=51|XSize=0.25mm|YSize=0.7mm|CornerRadius=0.0625mm|HoleSize=0mm|Usage=FLASHONLY|Rotation=270.000|XOffset=0mm|YOffset=0mm|HoleType=Round|Shape=RoundedRectangle|*
%AMROUNDEDRECTD51*
21,1,0.2500,0.5750,0,0,270.0*
21,1,0.1250,0.7000,0,0,270.0*
1,1,0.1250,-0.2875,-0.0625*
1,1,0.1250,-0.2875,0.0625*
1,1,0.1250,0.2875,0.0625*
1,1,0.1250,0.2875,-0.0625*
%
%ADD51ROUNDEDRECTD51*%
%ADD52R,2.6000X1.1000*%
%ADD53R,2.6162X2.7432*%
%ADD54R,1.2000X2.0000*%
%ADD55R,2.7432X2.6162*%
%ADD56R,7.3000X0.9500*%
%ADD57O,0.6000X1.9000*%
%ADD58C,1.0000*%
G36*
X-491500Y-351500D02*
X-503000D01*
X-504500Y-348500D01*
X-506500Y-345500D01*
X-509500Y-342000D01*
X-513500Y-339000D01*
X-518500Y-336500D01*
X-522500Y-335500D01*
X-528000Y-335000D01*
X-491500D01*
Y-351500D01*
D02*
G37*
G36*
X-533000Y-335500D02*
X-535000Y-336000D01*
X-537000Y-336500D01*
X-539500Y-337500D01*
X-541500Y-338500D01*
X-544000Y-340000D01*
X-546500Y-342000D01*
X-547000Y-342500D01*
X-549000Y-345000D01*
X-551500Y-348500D01*
X-553000Y-351500D01*
X-564500D01*
Y-335000D01*
X-528000D01*
X-533000Y-335500D01*
D02*
G37*
G36*
X-491500Y-389000D02*
X-528000D01*
X-523000Y-388500D01*
X-520500Y-388000D01*
X-518500Y-387500D01*
X-515500Y-386000D01*
X-512000Y-384000D01*
X-508500Y-381000D01*
X-506000Y-378000D01*
X-505000Y-376500D01*
X-503000Y-372500D01*
X-491500D01*
Y-389000D01*
D02*
G37*
G36*
X-551000Y-376500D02*
X-549500Y-378500D01*
X-547500Y-381000D01*
X-544000Y-384000D01*
X-541500Y-385500D01*
X-539500Y-386500D01*
X-533500Y-388500D01*
X-528000Y-389000D01*
X-564500D01*
Y-372500D01*
X-553000D01*
X-551000Y-376500D01*
D02*
G37*
D33*
X140000Y-632998D02*
D03*
Y-618998D02*
D03*
X125000Y-632998D02*
D03*
Y-618998D02*
D03*
X300000Y210998D02*
D03*
Y224998D02*
D03*
X287000Y210998D02*
D03*
Y224998D02*
D03*
X326000Y192002D02*
D03*
Y178002D02*
D03*
X313000Y192002D02*
D03*
Y178002D02*
D03*
X300000Y192002D02*
D03*
Y178002D02*
D03*
X287000Y192002D02*
D03*
Y178002D02*
D03*
X268000Y192002D02*
D03*
Y178002D02*
D03*
X137500Y-92002D02*
D03*
Y-78002D02*
D03*
X107500Y-92002D02*
D03*
Y-78002D02*
D03*
X77500Y-92002D02*
D03*
Y-78002D02*
D03*
X122500Y-92002D02*
D03*
Y-78002D02*
D03*
X92500Y-92002D02*
D03*
Y-78002D02*
D03*
X62500Y-92002D02*
D03*
Y-78002D02*
D03*
X-437000Y-564002D02*
D03*
Y-550002D02*
D03*
X-453000Y-549998D02*
D03*
Y-563998D02*
D03*
X-350000Y-502002D02*
D03*
Y-516002D02*
D03*
X26000Y391998D02*
D03*
Y405998D02*
D03*
X13000Y391998D02*
D03*
Y405998D02*
D03*
X52000Y391998D02*
D03*
Y405998D02*
D03*
X65000Y391998D02*
D03*
Y405998D02*
D03*
X125000Y385000D02*
D03*
Y399000D02*
D03*
X125000Y358998D02*
D03*
Y372998D02*
D03*
X112000Y358998D02*
D03*
Y372998D02*
D03*
Y332998D02*
D03*
Y346998D02*
D03*
X-608000Y-372002D02*
D03*
Y-358002D02*
D03*
X-622500Y-372002D02*
D03*
Y-358002D02*
D03*
X-591000Y-388998D02*
D03*
Y-402998D02*
D03*
X-254710Y-392248D02*
D03*
Y-406248D02*
D03*
X-240000Y-407002D02*
D03*
Y-393002D02*
D03*
X-212500Y-517002D02*
D03*
Y-503002D02*
D03*
X-227500Y-517002D02*
D03*
Y-503002D02*
D03*
X-242500Y-517002D02*
D03*
Y-503002D02*
D03*
X-257500Y-517002D02*
D03*
Y-503002D02*
D03*
X-185000Y-502998D02*
D03*
Y-516998D02*
D03*
X-197500Y-502998D02*
D03*
Y-516998D02*
D03*
X27000Y-414998D02*
D03*
Y-428998D02*
D03*
X40000Y-414998D02*
D03*
Y-428998D02*
D03*
X79000Y-414998D02*
D03*
Y-428998D02*
D03*
X53000Y-429002D02*
D03*
Y-415002D02*
D03*
X66000Y-429002D02*
D03*
Y-415002D02*
D03*
X47000Y-542002D02*
D03*
Y-528002D02*
D03*
X61000Y-542002D02*
D03*
Y-528002D02*
D03*
X210000Y-463998D02*
D03*
Y-477998D02*
D03*
X210000Y-429002D02*
D03*
Y-415002D02*
D03*
X278000Y-429002D02*
D03*
Y-415002D02*
D03*
Y-478002D02*
D03*
Y-464002D02*
D03*
X-77000Y284998D02*
D03*
Y298998D02*
D03*
X20000Y-496998D02*
D03*
Y-510998D02*
D03*
X-216000Y-406002D02*
D03*
Y-392002D02*
D03*
X-191000Y-406002D02*
D03*
Y-392002D02*
D03*
X-271000Y-479002D02*
D03*
Y-465002D02*
D03*
X72000Y-175000D02*
D03*
Y-189000D02*
D03*
X39000Y391998D02*
D03*
Y405998D02*
D03*
X520000Y200502D02*
D03*
Y214502D02*
D03*
D34*
X-616998Y-322500D02*
D03*
X-602998D02*
D03*
X-616998Y-307500D02*
D03*
X-602998D02*
D03*
X-603002Y-292500D02*
D03*
X-617002D02*
D03*
X-602998Y-277500D02*
D03*
X-616998D02*
D03*
X-574998Y-337000D02*
D03*
X-588998D02*
D03*
X-575498Y-322500D02*
D03*
X-589498D02*
D03*
X-617002Y-337000D02*
D03*
X-603002D02*
D03*
X325002Y-616000D02*
D03*
X311002D02*
D03*
X325002Y-642000D02*
D03*
X311002D02*
D03*
X325002Y-629000D02*
D03*
X311002D02*
D03*
X251002Y-397000D02*
D03*
X237002D02*
D03*
X-57002Y329000D02*
D03*
X-43002D02*
D03*
D35*
X-452500Y-585000D02*
D03*
Y-675000D02*
D03*
X-407500Y-585000D02*
D03*
Y-675000D02*
D03*
D36*
X-519599Y-34598D02*
D03*
Y-59998D02*
D03*
Y-85398D02*
D03*
Y-110798D02*
D03*
X-571599Y-34598D02*
D03*
Y-59998D02*
D03*
Y-85398D02*
D03*
Y-110798D02*
D03*
X-519599Y-186998D02*
D03*
Y-161598D02*
D03*
Y-136198D02*
D03*
X-571599D02*
D03*
Y-161598D02*
D03*
Y-186998D02*
D03*
Y-212398D02*
D03*
X-519599Y-9198D02*
D03*
Y16202D02*
D03*
Y41602D02*
D03*
Y67002D02*
D03*
Y92402D02*
D03*
Y117802D02*
D03*
Y143202D02*
D03*
Y168602D02*
D03*
Y194002D02*
D03*
Y219402D02*
D03*
Y244802D02*
D03*
Y270202D02*
D03*
Y295602D02*
D03*
Y321002D02*
D03*
Y346402D02*
D03*
X-571599Y-9198D02*
D03*
Y16202D02*
D03*
Y41602D02*
D03*
Y67002D02*
D03*
Y92402D02*
D03*
Y117802D02*
D03*
Y143202D02*
D03*
Y168602D02*
D03*
Y194002D02*
D03*
Y219402D02*
D03*
Y244802D02*
D03*
Y270202D02*
D03*
Y295602D02*
D03*
Y321002D02*
D03*
Y346402D02*
D03*
Y371802D02*
D03*
Y397202D02*
D03*
X-519599Y371802D02*
D03*
Y397202D02*
D03*
Y422602D02*
D03*
X-571599D02*
D03*
D37*
X-519599Y-212398D02*
D03*
D38*
X85946Y-130498D02*
D03*
X98646D02*
D03*
X111346D02*
D03*
X124046D02*
D03*
X85946Y-179498D02*
D03*
X98646D02*
D03*
X111346D02*
D03*
X124046D02*
D03*
X73050Y-501500D02*
D03*
X60350D02*
D03*
X47650D02*
D03*
X34950D02*
D03*
X73050Y-452500D02*
D03*
X60350D02*
D03*
X47650D02*
D03*
X34950D02*
D03*
X263050Y-469500D02*
D03*
X250350D02*
D03*
X237650D02*
D03*
X224950D02*
D03*
X263050Y-420500D02*
D03*
X250350D02*
D03*
X237650D02*
D03*
X224950D02*
D03*
D39*
X275905Y145600D02*
D03*
X280905D02*
D03*
X285905D02*
D03*
X320905D02*
D03*
X315905D02*
D03*
X310905D02*
D03*
X305905D02*
D03*
X300905D02*
D03*
X295905D02*
D03*
X290905D02*
D03*
D40*
X343655Y126600D02*
D03*
X253155D02*
D03*
D41*
X667456Y176800D02*
D03*
X662458D02*
D03*
X657456D02*
D03*
X647456D02*
D03*
X642458D02*
D03*
X637456D02*
D03*
X627456D02*
D03*
X622458D02*
D03*
X617456D02*
D03*
X552458D02*
D03*
X557456D02*
D03*
X562458D02*
D03*
X567456D02*
D03*
X577456D02*
D03*
X582458D02*
D03*
X587456D02*
D03*
X597456D02*
D03*
X602458D02*
D03*
X607456D02*
D03*
X682457D02*
D03*
X497457D02*
D03*
X502458D02*
D03*
X507457D02*
D03*
X512458D02*
D03*
X517457D02*
D03*
X522458D02*
D03*
X527457D02*
D03*
X532458D02*
D03*
X537457D02*
D03*
X542458D02*
D03*
X547456D02*
D03*
X572458D02*
D03*
X592458D02*
D03*
X612458D02*
D03*
X632458D02*
D03*
X652458D02*
D03*
X672458D02*
D03*
X677456D02*
D03*
X687456D02*
D03*
X692457D02*
D03*
D43*
X478158Y151900D02*
D03*
X711756D02*
D03*
D44*
X-11800Y367500D02*
D03*
X900D02*
D03*
X13600D02*
D03*
X26300D02*
D03*
X39000D02*
D03*
X51700D02*
D03*
X64400D02*
D03*
X77100D02*
D03*
X89800D02*
D03*
X-11800Y276500D02*
D03*
X900D02*
D03*
X13600D02*
D03*
X26300D02*
D03*
X39000D02*
D03*
X51700D02*
D03*
X64400D02*
D03*
X77100D02*
D03*
X89800D02*
D03*
D45*
X178302Y-224600D02*
D03*
Y-276600D02*
D03*
X152902D02*
D03*
X127502D02*
D03*
X152902Y-224600D02*
D03*
X127502D02*
D03*
X102102D02*
D03*
X76702D02*
D03*
X51302D02*
D03*
X25902D02*
D03*
X502D02*
D03*
X-24898D02*
D03*
X-50298D02*
D03*
X-75698D02*
D03*
X-101098D02*
D03*
X-126498D02*
D03*
X-151898D02*
D03*
X-177298D02*
D03*
X-202698D02*
D03*
X-228098D02*
D03*
X-253498D02*
D03*
X102102Y-276600D02*
D03*
X76702D02*
D03*
X51302D02*
D03*
X25902D02*
D03*
X502D02*
D03*
X-24898D02*
D03*
X-50298D02*
D03*
X-75698D02*
D03*
X-101098D02*
D03*
X-126498D02*
D03*
X-151898D02*
D03*
X-177298D02*
D03*
X-202698D02*
D03*
X-228098D02*
D03*
X-253498D02*
D03*
X-456698Y-224600D02*
D03*
X-431298D02*
D03*
X-405898D02*
D03*
X-380498D02*
D03*
Y-276600D02*
D03*
X-405898D02*
D03*
X-431298D02*
D03*
X-355098Y-224600D02*
D03*
X-329698D02*
D03*
X-304298D02*
D03*
X-278898D02*
D03*
X-355098Y-276600D02*
D03*
X-329698D02*
D03*
X-304298D02*
D03*
X-278898D02*
D03*
X178299Y486600D02*
D03*
Y434600D02*
D03*
X152899D02*
D03*
X127499D02*
D03*
X152899Y486600D02*
D03*
X127499D02*
D03*
X102099D02*
D03*
X76699D02*
D03*
X51299D02*
D03*
X25899D02*
D03*
X499D02*
D03*
X-24901D02*
D03*
X-50301D02*
D03*
X-75701D02*
D03*
X-101101D02*
D03*
X-126501D02*
D03*
X-151901D02*
D03*
X-177301D02*
D03*
X-202701D02*
D03*
X-228101D02*
D03*
X-253501D02*
D03*
X102099Y434600D02*
D03*
X76699D02*
D03*
X51299D02*
D03*
X25899D02*
D03*
X499D02*
D03*
X-24901D02*
D03*
X-50301D02*
D03*
X-75701D02*
D03*
X-101101D02*
D03*
X-126501D02*
D03*
X-151901D02*
D03*
X-177301D02*
D03*
X-202701D02*
D03*
X-228101D02*
D03*
X-253501D02*
D03*
X-456701Y486600D02*
D03*
X-431301D02*
D03*
X-405901D02*
D03*
X-380501D02*
D03*
Y434600D02*
D03*
X-405901D02*
D03*
X-431301D02*
D03*
X-355101Y486600D02*
D03*
X-329701D02*
D03*
X-304301D02*
D03*
X-278901D02*
D03*
X-355101Y434600D02*
D03*
X-329701D02*
D03*
X-304301D02*
D03*
X-278901D02*
D03*
D46*
X-456698Y-276600D02*
D03*
X-456701Y434600D02*
D03*
D47*
X159500Y383625D02*
D03*
X140500D02*
D03*
D48*
X150000Y404375D02*
D03*
D49*
X-42999Y289002D02*
D03*
X-59001D02*
D03*
X-42999Y310998D02*
D03*
X-59001D02*
D03*
D50*
X-584000Y-362000D02*
D03*
D51*
X-592750Y-354500D02*
D03*
Y-359500D02*
D03*
Y-364500D02*
D03*
Y-369500D02*
D03*
X-575250D02*
D03*
Y-364500D02*
D03*
Y-359500D02*
D03*
Y-354500D02*
D03*
D52*
X-614000Y-385500D02*
D03*
Y-412500D02*
D03*
D53*
X31505Y-572000D02*
D03*
X78495D02*
D03*
D54*
X231300Y-504500D02*
D03*
X256700D02*
D03*
X231300Y-579500D02*
D03*
X256700D02*
D03*
D55*
X186000Y-524505D02*
D03*
Y-571495D02*
D03*
X302000Y-524505D02*
D03*
Y-571495D02*
D03*
X121000D02*
D03*
Y-524505D02*
D03*
X-14000Y-571495D02*
D03*
Y-524505D02*
D03*
D56*
X-528000Y-393750D02*
D03*
Y-330250D02*
D03*
D57*
X-254450Y-426500D02*
D03*
X-241750D02*
D03*
X-229050D02*
D03*
X-216350D02*
D03*
X-203650D02*
D03*
X-190950D02*
D03*
X-178250D02*
D03*
X-165550D02*
D03*
X-254450Y-473500D02*
D03*
X-241750D02*
D03*
X-229050D02*
D03*
X-216350D02*
D03*
X-203650D02*
D03*
X-190950D02*
D03*
X-178250D02*
D03*
X-165550D02*
D03*
D58*
X-890400Y-549600D02*
D03*
X890400D02*
D03*
Y549600D02*
D03*
M02*
