G04*
G04 #@! TF.GenerationSoftware,Altium Limited,Altium Designer,20.0.7 (75)*
G04*
G04 Layer_Physical_Order=1*
G04 Layer_Color=3162822*
%FSLAX44Y44*%
%MOMM*%
G71*
G01*
G75*
%ADD10C,0.2500*%
%ADD11C,0.4500*%
%ADD23C,1.0000*%
%ADD24C,0.1500*%
%ADD25C,0.6500*%
%ADD26C,1.5000*%
%ADD27C,0.3500*%
%ADD28C,1.5000*%
%ADD29R,1.5000X1.5000*%
%ADD30R,1.5000X1.5000*%
%ADD31C,1.9000*%
%ADD32R,1.9000X1.9000*%
%ADD33C,6.0000*%
%ADD34C,1.6900*%
%ADD35R,1.6900X1.6900*%
%ADD36C,4.7600*%
%ADD37C,0.6000*%
G36*
X902246Y700124D02*
X914020Y698730D01*
X925648Y696418D01*
X937058Y693199D01*
X948181Y689096D01*
X958948Y684133D01*
X969292Y678340D01*
X979149Y671753D01*
X988460Y664413D01*
X997166Y656366D01*
X1005213Y647660D01*
X1012553Y638349D01*
X1019140Y628492D01*
X1024932Y618148D01*
X1029896Y607381D01*
X1033999Y596258D01*
X1037218Y584848D01*
X1039530Y573220D01*
X1040924Y561446D01*
X1041374Y549992D01*
X1041322Y549600D01*
Y-549600D01*
X1041374Y-549992D01*
X1040924Y-561446D01*
X1039530Y-573220D01*
X1037218Y-584848D01*
X1033999Y-596258D01*
X1029896Y-607381D01*
X1024932Y-618148D01*
X1019140Y-628492D01*
X1012553Y-638349D01*
X1005213Y-647660D01*
X997166Y-656366D01*
X988460Y-664413D01*
X979149Y-671753D01*
X969292Y-678340D01*
X958948Y-684133D01*
X948181Y-689096D01*
X937058Y-693199D01*
X925648Y-696418D01*
X914020Y-698730D01*
X902246Y-700124D01*
X890792Y-700574D01*
X890400Y-700522D01*
X-890400D01*
X-890792Y-700574D01*
X-902246Y-700124D01*
X-914020Y-698730D01*
X-925648Y-696418D01*
X-937058Y-693199D01*
X-948181Y-689096D01*
X-958948Y-684133D01*
X-969292Y-678340D01*
X-979149Y-671753D01*
X-988460Y-664413D01*
X-997166Y-656366D01*
X-1005213Y-647660D01*
X-1012553Y-638349D01*
X-1019140Y-628492D01*
X-1024932Y-618148D01*
X-1029896Y-607381D01*
X-1033999Y-596258D01*
X-1037218Y-584848D01*
X-1039530Y-573220D01*
X-1040924Y-561446D01*
X-1041374Y-549992D01*
X-1041322Y-549600D01*
Y549600D01*
X-1041374Y549992D01*
X-1040924Y561446D01*
X-1039530Y573220D01*
X-1037218Y584848D01*
X-1033999Y596258D01*
X-1029896Y607381D01*
X-1024932Y618148D01*
X-1019140Y628492D01*
X-1012553Y638349D01*
X-1005213Y647660D01*
X-997166Y656366D01*
X-988460Y664413D01*
X-979149Y671753D01*
X-969292Y678340D01*
X-958948Y684133D01*
X-948181Y689096D01*
X-937058Y693199D01*
X-925648Y696418D01*
X-914020Y698730D01*
X-902246Y700124D01*
X-890792Y700574D01*
X-890400Y700522D01*
X890400D01*
X890792Y700574D01*
X902246Y700124D01*
D02*
G37*
%LPC*%
G36*
X152899Y487421D02*
X149244Y486940D01*
X145838Y485529D01*
X142914Y483285D01*
X140950Y480727D01*
X140607Y480624D01*
X139790D01*
X139447Y480727D01*
X137484Y483285D01*
X134559Y485529D01*
X131153Y486940D01*
X127499Y487421D01*
X123844Y486940D01*
X120438Y485529D01*
X117514Y483285D01*
X115550Y480727D01*
X115207Y480624D01*
X114390D01*
X114047Y480727D01*
X112084Y483285D01*
X109159Y485529D01*
X105753Y486940D01*
X102099Y487421D01*
X98444Y486940D01*
X95038Y485529D01*
X92114Y483285D01*
X90150Y480727D01*
X89807Y480624D01*
X88990D01*
X88647Y480727D01*
X86684Y483285D01*
X83759Y485529D01*
X80353Y486940D01*
X76699Y487421D01*
X73044Y486940D01*
X69638Y485529D01*
X66714Y483285D01*
X64750Y480727D01*
X64407Y480624D01*
X63590D01*
X63247Y480727D01*
X61283Y483285D01*
X58359Y485529D01*
X54953Y486940D01*
X51299Y487421D01*
X47644Y486940D01*
X44238Y485529D01*
X41314Y483285D01*
X39351Y480727D01*
X39007Y480624D01*
X38190D01*
X37847Y480727D01*
X35884Y483285D01*
X32959Y485529D01*
X29553Y486940D01*
X25899Y487421D01*
X22244Y486940D01*
X18838Y485529D01*
X15914Y483285D01*
X13951Y480727D01*
X13607Y480624D01*
X12790D01*
X12447Y480727D01*
X10483Y483285D01*
X7559Y485529D01*
X4153Y486940D01*
X499Y487421D01*
X-3156Y486940D01*
X-6562Y485529D01*
X-9486Y483285D01*
X-11450Y480727D01*
X-11793Y480624D01*
X-12610D01*
X-12953Y480727D01*
X-14916Y483285D01*
X-17841Y485529D01*
X-21247Y486940D01*
X-24901Y487421D01*
X-28556Y486940D01*
X-31962Y485529D01*
X-34886Y483285D01*
X-36850Y480727D01*
X-37193Y480624D01*
X-38010D01*
X-38353Y480727D01*
X-40317Y483285D01*
X-43241Y485529D01*
X-46647Y486940D01*
X-50301Y487421D01*
X-53956Y486940D01*
X-57362Y485529D01*
X-60286Y483285D01*
X-62249Y480727D01*
X-62593Y480624D01*
X-63410D01*
X-63753Y480727D01*
X-65717Y483285D01*
X-68641Y485529D01*
X-72047Y486940D01*
X-75701Y487421D01*
X-79356Y486940D01*
X-82762Y485529D01*
X-85686Y483285D01*
X-87649Y480727D01*
X-87993Y480624D01*
X-88810D01*
X-89153Y480727D01*
X-91117Y483285D01*
X-94041Y485529D01*
X-97447Y486940D01*
X-101101Y487421D01*
X-104756Y486940D01*
X-108162Y485529D01*
X-111086Y483285D01*
X-113049Y480727D01*
X-113393Y480624D01*
X-114210D01*
X-114553Y480727D01*
X-116517Y483285D01*
X-119441Y485529D01*
X-122847Y486940D01*
X-126501Y487421D01*
X-130156Y486940D01*
X-133562Y485529D01*
X-136486Y483285D01*
X-138449Y480727D01*
X-138793Y480624D01*
X-139610D01*
X-139953Y480727D01*
X-141917Y483285D01*
X-144841Y485529D01*
X-148247Y486940D01*
X-151901Y487421D01*
X-155556Y486940D01*
X-158962Y485529D01*
X-161886Y483285D01*
X-163850Y480727D01*
X-164193Y480624D01*
X-165010D01*
X-165353Y480727D01*
X-167316Y483285D01*
X-170241Y485529D01*
X-173647Y486940D01*
X-177301Y487421D01*
X-180956Y486940D01*
X-184362Y485529D01*
X-187286Y483285D01*
X-189249Y480727D01*
X-189593Y480624D01*
X-190410D01*
X-190753Y480727D01*
X-192717Y483285D01*
X-195641Y485529D01*
X-199047Y486940D01*
X-202701Y487421D01*
X-206356Y486940D01*
X-209762Y485529D01*
X-212686Y483285D01*
X-214650Y480727D01*
X-214993Y480624D01*
X-215810D01*
X-216153Y480727D01*
X-218116Y483285D01*
X-221041Y485529D01*
X-224447Y486940D01*
X-228101Y487421D01*
X-231756Y486940D01*
X-235162Y485529D01*
X-238086Y483285D01*
X-240049Y480727D01*
X-240393Y480624D01*
X-241210D01*
X-241553Y480727D01*
X-243517Y483285D01*
X-246441Y485529D01*
X-249847Y486940D01*
X-253501Y487421D01*
X-257156Y486940D01*
X-260562Y485529D01*
X-263486Y483285D01*
X-265450Y480727D01*
X-265793Y480624D01*
X-266610D01*
X-266953Y480727D01*
X-268916Y483285D01*
X-271841Y485529D01*
X-275247Y486940D01*
X-278901Y487421D01*
X-282556Y486940D01*
X-285962Y485529D01*
X-288886Y483285D01*
X-290849Y480727D01*
X-291193Y480624D01*
X-292010D01*
X-292353Y480727D01*
X-294317Y483285D01*
X-297241Y485529D01*
X-300647Y486940D01*
X-304301Y487421D01*
X-307956Y486940D01*
X-311362Y485529D01*
X-314286Y483285D01*
X-316250Y480727D01*
X-316593Y480624D01*
X-317410D01*
X-317753Y480727D01*
X-319716Y483285D01*
X-322641Y485529D01*
X-326047Y486940D01*
X-329701Y487421D01*
X-333356Y486940D01*
X-336762Y485529D01*
X-339686Y483285D01*
X-341650Y480727D01*
X-341993Y480624D01*
X-342810D01*
X-343153Y480727D01*
X-345117Y483285D01*
X-348041Y485529D01*
X-351447Y486940D01*
X-355101Y487421D01*
X-358756Y486940D01*
X-362162Y485529D01*
X-365086Y483285D01*
X-367049Y480727D01*
X-367393Y480624D01*
X-368210D01*
X-368553Y480727D01*
X-370517Y483285D01*
X-373441Y485529D01*
X-376847Y486940D01*
X-380501Y487421D01*
X-384156Y486940D01*
X-387562Y485529D01*
X-390486Y483285D01*
X-392449Y480727D01*
X-392793Y480624D01*
X-393610D01*
X-393953Y480727D01*
X-395916Y483285D01*
X-398841Y485529D01*
X-402247Y486940D01*
X-405901Y487421D01*
X-409556Y486940D01*
X-412962Y485529D01*
X-415886Y483285D01*
X-417850Y480727D01*
X-418193Y480624D01*
X-419010D01*
X-419353Y480727D01*
X-421316Y483285D01*
X-424241Y485529D01*
X-427647Y486940D01*
X-431301Y487421D01*
X-434956Y486940D01*
X-438362Y485529D01*
X-441286Y483285D01*
X-443530Y480360D01*
X-444431Y478185D01*
X-445701Y478438D01*
Y484300D01*
X-454201D01*
Y473300D01*
X-456701D01*
Y470800D01*
X-467701D01*
Y462300D01*
X-461839D01*
X-461586Y461030D01*
X-463762Y460129D01*
X-466686Y457885D01*
X-468930Y454960D01*
X-470341Y451555D01*
X-470822Y447900D01*
X-470341Y444245D01*
X-468930Y440840D01*
X-466686Y437915D01*
X-463762Y435671D01*
X-460356Y434260D01*
X-456701Y433779D01*
X-453047Y434260D01*
X-449641Y435671D01*
X-446716Y437915D01*
X-444753Y440474D01*
X-444410Y440576D01*
X-443593D01*
X-443250Y440474D01*
X-441286Y437915D01*
X-438362Y435671D01*
X-434956Y434260D01*
X-431301Y433779D01*
X-427647Y434260D01*
X-424241Y435671D01*
X-421316Y437915D01*
X-419353Y440474D01*
X-419010Y440576D01*
X-418193D01*
X-417850Y440474D01*
X-415886Y437915D01*
X-412962Y435671D01*
X-409556Y434260D01*
X-405901Y433779D01*
X-402247Y434260D01*
X-398841Y435671D01*
X-395916Y437915D01*
X-393953Y440474D01*
X-393610Y440576D01*
X-392793D01*
X-392449Y440474D01*
X-390486Y437915D01*
X-387562Y435671D01*
X-384156Y434260D01*
X-380501Y433779D01*
X-376847Y434260D01*
X-373441Y435671D01*
X-370517Y437915D01*
X-368553Y440474D01*
X-368210Y440576D01*
X-367393D01*
X-367049Y440474D01*
X-365086Y437915D01*
X-362162Y435671D01*
X-358756Y434260D01*
X-355101Y433779D01*
X-351447Y434260D01*
X-348041Y435671D01*
X-345117Y437915D01*
X-343153Y440474D01*
X-342810Y440576D01*
X-341993D01*
X-341650Y440474D01*
X-339686Y437915D01*
X-336762Y435671D01*
X-333356Y434260D01*
X-329701Y433779D01*
X-326047Y434260D01*
X-322641Y435671D01*
X-319716Y437915D01*
X-317753Y440474D01*
X-317410Y440576D01*
X-316593D01*
X-316250Y440474D01*
X-314286Y437915D01*
X-311362Y435671D01*
X-307956Y434260D01*
X-304301Y433779D01*
X-300647Y434260D01*
X-297241Y435671D01*
X-294317Y437915D01*
X-292353Y440474D01*
X-292010Y440576D01*
X-291193D01*
X-290849Y440474D01*
X-288886Y437915D01*
X-285962Y435671D01*
X-282556Y434260D01*
X-278901Y433779D01*
X-275247Y434260D01*
X-271841Y435671D01*
X-268916Y437915D01*
X-266953Y440474D01*
X-266610Y440576D01*
X-265793D01*
X-265450Y440474D01*
X-263486Y437915D01*
X-260562Y435671D01*
X-257156Y434260D01*
X-253501Y433779D01*
X-249847Y434260D01*
X-246441Y435671D01*
X-243517Y437915D01*
X-241553Y440474D01*
X-241210Y440576D01*
X-240393D01*
X-240049Y440474D01*
X-238086Y437915D01*
X-235162Y435671D01*
X-231756Y434260D01*
X-228101Y433779D01*
X-224447Y434260D01*
X-221041Y435671D01*
X-218116Y437915D01*
X-216153Y440474D01*
X-215810Y440576D01*
X-214993D01*
X-214650Y440474D01*
X-212686Y437915D01*
X-209762Y435671D01*
X-206356Y434260D01*
X-202701Y433779D01*
X-199047Y434260D01*
X-195641Y435671D01*
X-192717Y437915D01*
X-190753Y440474D01*
X-190410Y440576D01*
X-189593D01*
X-189249Y440474D01*
X-187286Y437915D01*
X-184362Y435671D01*
X-180956Y434260D01*
X-177301Y433779D01*
X-173647Y434260D01*
X-170241Y435671D01*
X-167316Y437915D01*
X-165353Y440474D01*
X-165010Y440576D01*
X-164193D01*
X-163850Y440474D01*
X-161886Y437915D01*
X-158962Y435671D01*
X-155556Y434260D01*
X-151901Y433779D01*
X-148247Y434260D01*
X-144841Y435671D01*
X-141917Y437915D01*
X-139953Y440474D01*
X-139610Y440576D01*
X-138793D01*
X-138449Y440474D01*
X-136486Y437915D01*
X-133562Y435671D01*
X-130156Y434260D01*
X-126501Y433779D01*
X-122847Y434260D01*
X-121873Y434664D01*
X-120817Y433958D01*
Y210000D01*
X-120550Y207977D01*
X-120227Y207196D01*
X-119770Y206091D01*
X-118527Y204473D01*
X-105359Y191304D01*
X-105255Y190520D01*
X-104298Y188209D01*
X-102775Y186224D01*
X-102659Y186135D01*
Y184865D01*
X-102775Y184776D01*
X-104298Y182791D01*
X-105255Y180480D01*
X-105359Y179696D01*
X-154527Y130527D01*
X-155770Y128908D01*
X-156551Y127023D01*
X-156817Y125000D01*
Y-199000D01*
X-156551Y-201023D01*
X-155770Y-202908D01*
X-154527Y-204527D01*
X-147216Y-211839D01*
Y-223562D01*
X-148486Y-224228D01*
X-151898Y-223779D01*
X-155553Y-224260D01*
X-157386Y-225020D01*
X-158486Y-224385D01*
X-158498Y-224295D01*
X-158821Y-223514D01*
X-159278Y-222409D01*
X-160521Y-220791D01*
X-167183Y-214128D01*
Y148379D01*
X-159234D01*
X-155579Y148860D01*
X-152174Y150271D01*
X-149249Y152515D01*
X-147005Y155440D01*
X-145595Y158845D01*
X-145113Y162500D01*
X-145595Y166155D01*
X-147005Y169560D01*
X-149249Y172485D01*
X-152174Y174729D01*
X-155579Y176140D01*
X-159234Y176621D01*
X-160879D01*
Y402500D01*
Y416000D01*
X-161360Y419655D01*
X-162771Y423060D01*
X-165015Y425985D01*
X-167940Y428229D01*
X-171345Y429640D01*
X-175000Y430121D01*
X-190766D01*
X-194421Y429640D01*
X-197826Y428229D01*
X-200751Y425985D01*
X-202995Y423060D01*
X-204405Y419655D01*
X-204887Y416000D01*
X-204405Y412345D01*
X-202995Y408940D01*
X-200751Y406015D01*
X-197826Y403771D01*
X-194421Y402360D01*
X-190766Y401879D01*
X-189121D01*
Y176000D01*
Y162500D01*
X-188640Y158845D01*
X-187229Y155440D01*
X-184985Y152515D01*
X-182817Y150851D01*
Y-217366D01*
X-182551Y-219389D01*
X-181770Y-221275D01*
X-180527Y-222894D01*
X-180384Y-223037D01*
X-180793Y-224239D01*
X-180953Y-224260D01*
X-184359Y-225671D01*
X-187283Y-227915D01*
X-189246Y-230473D01*
X-189589Y-230576D01*
X-190407D01*
X-190750Y-230473D01*
X-192713Y-227915D01*
X-195638Y-225671D01*
X-199043Y-224260D01*
X-202698Y-223779D01*
X-206353Y-224260D01*
X-209759Y-225671D01*
X-212683Y-227915D01*
X-214646Y-230473D01*
X-214989Y-230576D01*
X-215807D01*
X-216150Y-230473D01*
X-218113Y-227915D01*
X-221038Y-225671D01*
X-224443Y-224260D01*
X-228098Y-223779D01*
X-231753Y-224260D01*
X-235159Y-225671D01*
X-238083Y-227915D01*
X-240046Y-230473D01*
X-240389Y-230576D01*
X-241207D01*
X-241550Y-230473D01*
X-243513Y-227915D01*
X-246438Y-225671D01*
X-249843Y-224260D01*
X-253498Y-223779D01*
X-257153Y-224260D01*
X-260559Y-225671D01*
X-263483Y-227915D01*
X-265446Y-230473D01*
X-265789Y-230576D01*
X-266607D01*
X-266950Y-230473D01*
X-268913Y-227915D01*
X-271838Y-225671D01*
X-275243Y-224260D01*
X-278898Y-223779D01*
X-282553Y-224260D01*
X-285959Y-225671D01*
X-288883Y-227915D01*
X-290846Y-230473D01*
X-291189Y-230576D01*
X-292007D01*
X-292350Y-230473D01*
X-294313Y-227915D01*
X-297238Y-225671D01*
X-300643Y-224260D01*
X-304298Y-223779D01*
X-307953Y-224260D01*
X-311359Y-225671D01*
X-314283Y-227915D01*
X-316246Y-230473D01*
X-316589Y-230576D01*
X-317407D01*
X-317750Y-230473D01*
X-319713Y-227915D01*
X-322638Y-225671D01*
X-326043Y-224260D01*
X-329698Y-223779D01*
X-333353Y-224260D01*
X-336759Y-225671D01*
X-339683Y-227915D01*
X-341646Y-230473D01*
X-341989Y-230576D01*
X-342807D01*
X-343150Y-230473D01*
X-345113Y-227915D01*
X-348038Y-225671D01*
X-351443Y-224260D01*
X-355098Y-223779D01*
X-358753Y-224260D01*
X-362159Y-225671D01*
X-365083Y-227915D01*
X-367046Y-230473D01*
X-367389Y-230576D01*
X-368207D01*
X-368550Y-230473D01*
X-370513Y-227915D01*
X-373438Y-225671D01*
X-376843Y-224260D01*
X-380498Y-223779D01*
X-384153Y-224260D01*
X-387559Y-225671D01*
X-390483Y-227915D01*
X-392446Y-230473D01*
X-392789Y-230576D01*
X-393607D01*
X-393950Y-230473D01*
X-395913Y-227915D01*
X-398838Y-225671D01*
X-402243Y-224260D01*
X-405898Y-223779D01*
X-409553Y-224260D01*
X-412959Y-225671D01*
X-415883Y-227915D01*
X-417846Y-230473D01*
X-418189Y-230576D01*
X-419007D01*
X-419350Y-230473D01*
X-421313Y-227915D01*
X-424238Y-225671D01*
X-427643Y-224260D01*
X-431298Y-223779D01*
X-434953Y-224260D01*
X-438359Y-225671D01*
X-441283Y-227915D01*
X-443527Y-230840D01*
X-444428Y-233015D01*
X-445698Y-232762D01*
Y-226900D01*
X-454198D01*
Y-237900D01*
X-456698D01*
Y-240400D01*
X-467698D01*
Y-248900D01*
X-461836D01*
X-461583Y-250170D01*
X-463759Y-251071D01*
X-466683Y-253315D01*
X-468927Y-256240D01*
X-470338Y-259645D01*
X-470819Y-263300D01*
X-470338Y-266955D01*
X-468927Y-270360D01*
X-466683Y-273285D01*
X-463759Y-275529D01*
X-460353Y-276940D01*
X-456698Y-277421D01*
X-453043Y-276940D01*
X-449638Y-275529D01*
X-446713Y-273285D01*
X-444750Y-270727D01*
X-444407Y-270624D01*
X-443589D01*
X-443246Y-270727D01*
X-441283Y-273285D01*
X-438359Y-275529D01*
X-434953Y-276940D01*
X-431298Y-277421D01*
X-427643Y-276940D01*
X-424238Y-275529D01*
X-421313Y-273285D01*
X-419350Y-270727D01*
X-419007Y-270624D01*
X-418189D01*
X-417846Y-270727D01*
X-415883Y-273285D01*
X-412959Y-275529D01*
X-409553Y-276940D01*
X-405898Y-277421D01*
X-402243Y-276940D01*
X-398838Y-275529D01*
X-395913Y-273285D01*
X-393950Y-270727D01*
X-393607Y-270624D01*
X-392789D01*
X-392446Y-270727D01*
X-390483Y-273285D01*
X-387559Y-275529D01*
X-384153Y-276940D01*
X-380498Y-277421D01*
X-376843Y-276940D01*
X-373438Y-275529D01*
X-370513Y-273285D01*
X-368550Y-270727D01*
X-368207Y-270624D01*
X-367389D01*
X-367046Y-270727D01*
X-365083Y-273285D01*
X-362159Y-275529D01*
X-358753Y-276940D01*
X-355098Y-277421D01*
X-351443Y-276940D01*
X-348038Y-275529D01*
X-345113Y-273285D01*
X-343150Y-270727D01*
X-342807Y-270624D01*
X-341989D01*
X-341646Y-270727D01*
X-339683Y-273285D01*
X-336759Y-275529D01*
X-333353Y-276940D01*
X-329698Y-277421D01*
X-326043Y-276940D01*
X-322638Y-275529D01*
X-319713Y-273285D01*
X-317750Y-270727D01*
X-317407Y-270624D01*
X-316589D01*
X-316246Y-270727D01*
X-314283Y-273285D01*
X-311359Y-275529D01*
X-307953Y-276940D01*
X-304298Y-277421D01*
X-300643Y-276940D01*
X-297238Y-275529D01*
X-294313Y-273285D01*
X-292350Y-270727D01*
X-292007Y-270624D01*
X-291189D01*
X-290846Y-270727D01*
X-288883Y-273285D01*
X-285959Y-275529D01*
X-282553Y-276940D01*
X-278898Y-277421D01*
X-275243Y-276940D01*
X-271838Y-275529D01*
X-268913Y-273285D01*
X-266950Y-270727D01*
X-266607Y-270624D01*
X-265789D01*
X-265446Y-270727D01*
X-263483Y-273285D01*
X-260559Y-275529D01*
X-257153Y-276940D01*
X-253498Y-277421D01*
X-249843Y-276940D01*
X-246438Y-275529D01*
X-243513Y-273285D01*
X-241550Y-270727D01*
X-241207Y-270624D01*
X-240389D01*
X-240046Y-270727D01*
X-238083Y-273285D01*
X-235159Y-275529D01*
X-231753Y-276940D01*
X-228098Y-277421D01*
X-224443Y-276940D01*
X-221038Y-275529D01*
X-218113Y-273285D01*
X-216150Y-270727D01*
X-215807Y-270624D01*
X-214989D01*
X-214646Y-270727D01*
X-212683Y-273285D01*
X-209759Y-275529D01*
X-206353Y-276940D01*
X-202698Y-277421D01*
X-199043Y-276940D01*
X-195638Y-275529D01*
X-192713Y-273285D01*
X-190750Y-270727D01*
X-190407Y-270624D01*
X-189589D01*
X-189246Y-270727D01*
X-187283Y-273285D01*
X-184359Y-275529D01*
X-180953Y-276940D01*
X-177298Y-277421D01*
X-174820Y-277095D01*
X-173865Y-277932D01*
Y-347211D01*
X-174247Y-347709D01*
X-175205Y-350020D01*
X-175531Y-352500D01*
X-175205Y-354980D01*
X-174247Y-357291D01*
X-172725Y-359276D01*
X-170740Y-360798D01*
X-168429Y-361755D01*
X-165949Y-362082D01*
X-163469Y-361755D01*
X-161158Y-360798D01*
X-159174Y-359276D01*
X-157651Y-357291D01*
X-156694Y-354980D01*
X-156367Y-352500D01*
X-156694Y-350020D01*
X-157651Y-347709D01*
X-158231Y-346953D01*
Y-276973D01*
X-157175Y-276268D01*
X-155553Y-276940D01*
X-151898Y-277421D01*
X-148243Y-276940D01*
X-144838Y-275529D01*
X-141913Y-273285D01*
X-139950Y-270727D01*
X-139607Y-270624D01*
X-138789D01*
X-138446Y-270727D01*
X-136483Y-273285D01*
X-133559Y-275529D01*
X-130153Y-276940D01*
X-126498Y-277421D01*
X-122843Y-276940D01*
X-119438Y-275529D01*
X-116513Y-273285D01*
X-114550Y-270727D01*
X-114207Y-270624D01*
X-113389D01*
X-113046Y-270727D01*
X-111083Y-273285D01*
X-108159Y-275529D01*
X-104753Y-276940D01*
X-101098Y-277421D01*
X-97443Y-276940D01*
X-94038Y-275529D01*
X-91113Y-273285D01*
X-89150Y-270727D01*
X-88807Y-270624D01*
X-87989D01*
X-87646Y-270727D01*
X-85683Y-273285D01*
X-82759Y-275529D01*
X-79353Y-276940D01*
X-75698Y-277421D01*
X-72043Y-276940D01*
X-68638Y-275529D01*
X-65713Y-273285D01*
X-63750Y-270727D01*
X-63407Y-270624D01*
X-62589D01*
X-62246Y-270727D01*
X-60283Y-273285D01*
X-57359Y-275529D01*
X-53953Y-276940D01*
X-50298Y-277421D01*
X-46643Y-276940D01*
X-43238Y-275529D01*
X-40313Y-273285D01*
X-38350Y-270727D01*
X-38007Y-270624D01*
X-37189D01*
X-36846Y-270727D01*
X-34883Y-273285D01*
X-31959Y-275529D01*
X-28553Y-276940D01*
X-24898Y-277421D01*
X-21243Y-276940D01*
X-17838Y-275529D01*
X-14913Y-273285D01*
X-12950Y-270727D01*
X-12607Y-270624D01*
X-11789D01*
X-11446Y-270727D01*
X-9483Y-273285D01*
X-6559Y-275529D01*
X-3153Y-276940D01*
X502Y-277421D01*
X4157Y-276940D01*
X7562Y-275529D01*
X10487Y-273285D01*
X12450Y-270727D01*
X12793Y-270624D01*
X13611D01*
X13954Y-270727D01*
X15917Y-273285D01*
X18841Y-275529D01*
X22247Y-276940D01*
X25902Y-277421D01*
X29557Y-276940D01*
X32962Y-275529D01*
X35887Y-273285D01*
X37850Y-270727D01*
X38193Y-270624D01*
X39011D01*
X39354Y-270727D01*
X41317Y-273285D01*
X44241Y-275529D01*
X47647Y-276940D01*
X51302Y-277421D01*
X54957Y-276940D01*
X58362Y-275529D01*
X60409Y-273959D01*
X61679Y-274585D01*
Y-294264D01*
X60745Y-296520D01*
X60418Y-299000D01*
X60745Y-301480D01*
X61702Y-303791D01*
X63225Y-305776D01*
X65209Y-307298D01*
X67520Y-308256D01*
X70000Y-308582D01*
X70679Y-309177D01*
Y-401264D01*
X69745Y-403520D01*
X69418Y-406000D01*
X69745Y-408480D01*
X70702Y-410791D01*
X72224Y-412775D01*
X74209Y-414298D01*
X76520Y-415256D01*
X79000Y-415582D01*
X81480Y-415256D01*
X83791Y-414298D01*
X85775Y-412775D01*
X87298Y-410791D01*
X88256Y-408480D01*
X88582Y-406000D01*
X88256Y-403520D01*
X87321Y-401264D01*
Y-287736D01*
X88256Y-285480D01*
X88582Y-283000D01*
X88256Y-280520D01*
X87298Y-278209D01*
X85775Y-276224D01*
X85143Y-275739D01*
Y-274469D01*
X86687Y-273285D01*
X88650Y-270727D01*
X88993Y-270624D01*
X89811D01*
X90154Y-270727D01*
X92117Y-273285D01*
X95041Y-275529D01*
X98447Y-276940D01*
X102102Y-277421D01*
X105757Y-276940D01*
X109162Y-275529D01*
X112087Y-273285D01*
X114050Y-270727D01*
X114393Y-270624D01*
X115211D01*
X115554Y-270727D01*
X117517Y-273285D01*
X120441Y-275529D01*
X123847Y-276940D01*
X127502Y-277421D01*
X131157Y-276940D01*
X134562Y-275529D01*
X137487Y-273285D01*
X139450Y-270727D01*
X139793Y-270624D01*
X140611D01*
X140954Y-270727D01*
X142917Y-273285D01*
X145841Y-275529D01*
X149247Y-276940D01*
X152902Y-277421D01*
X156557Y-276940D01*
X159962Y-275529D01*
X162887Y-273285D01*
X164850Y-270727D01*
X165193Y-270624D01*
X166011D01*
X166354Y-270727D01*
X168317Y-273285D01*
X171241Y-275529D01*
X174647Y-276940D01*
X178302Y-277421D01*
X181957Y-276940D01*
X185362Y-275529D01*
X185540Y-275393D01*
X186679Y-275954D01*
Y-392000D01*
X186962Y-394154D01*
X187794Y-396161D01*
X189116Y-397884D01*
X200767Y-409535D01*
X201702Y-411791D01*
X203225Y-413775D01*
X205209Y-415298D01*
X207520Y-416255D01*
X210000Y-416582D01*
X212480Y-416255D01*
X214791Y-415298D01*
X216775Y-413775D01*
X218298Y-411791D01*
X219256Y-409480D01*
X219582Y-407000D01*
X219452Y-406017D01*
X220655Y-405423D01*
X226116Y-410884D01*
X227839Y-412206D01*
X229846Y-413038D01*
X232000Y-413321D01*
X273264D01*
X275520Y-414255D01*
X278000Y-414582D01*
X280480Y-414255D01*
X282791Y-413298D01*
X284776Y-411776D01*
X286298Y-409791D01*
X287255Y-407480D01*
X287582Y-405000D01*
X287255Y-402520D01*
X286298Y-400209D01*
X284776Y-398224D01*
X282791Y-396702D01*
X280480Y-395745D01*
X278000Y-395418D01*
X275520Y-395745D01*
X273264Y-396679D01*
X235447D01*
X210321Y-371553D01*
Y-226101D01*
X210038Y-223947D01*
X209206Y-221940D01*
X207884Y-220217D01*
X179121Y-191454D01*
Y-124964D01*
X180056Y-122709D01*
X180382Y-120229D01*
X180056Y-117749D01*
X179098Y-115438D01*
X177575Y-113453D01*
X175591Y-111931D01*
X173280Y-110973D01*
X170800Y-110647D01*
X168320Y-110973D01*
X166009Y-111931D01*
X164450Y-113127D01*
X162891Y-111931D01*
X160580Y-110973D01*
X158100Y-110647D01*
X157321Y-109964D01*
Y22000D01*
X157038Y24154D01*
X156494Y25467D01*
X157386Y26630D01*
X159000Y26418D01*
X161480Y26744D01*
X163791Y27702D01*
X165776Y29225D01*
X167298Y31209D01*
X168256Y33520D01*
X168582Y36000D01*
X168256Y38480D01*
X167321Y40736D01*
Y41000D01*
X167038Y43154D01*
X166206Y45161D01*
X164884Y46884D01*
X123321Y88447D01*
Y422264D01*
X124256Y424520D01*
X124582Y427000D01*
X124256Y429480D01*
X123298Y431791D01*
X121776Y433775D01*
X122509Y434813D01*
X123844Y434260D01*
X127499Y433779D01*
X131153Y434260D01*
X134559Y435671D01*
X137484Y437915D01*
X139447Y440474D01*
X139790Y440576D01*
X140607D01*
X140950Y440474D01*
X142914Y437915D01*
X145838Y435671D01*
X149244Y434260D01*
X152899Y433779D01*
X156553Y434260D01*
X159959Y435671D01*
X162883Y437915D01*
X164847Y440474D01*
X165190Y440576D01*
X166007D01*
X166350Y440474D01*
X168314Y437915D01*
X171238Y435671D01*
X174644Y434260D01*
X178299Y433779D01*
X181953Y434260D01*
X185359Y435671D01*
X188284Y437915D01*
X190528Y440840D01*
X191938Y444245D01*
X192419Y447900D01*
X191938Y451555D01*
X190528Y454960D01*
X188284Y457885D01*
X185359Y460129D01*
X181961Y461536D01*
X181950Y461563D01*
X181794Y462842D01*
X183846Y463692D01*
X186144Y465455D01*
X187907Y467753D01*
X189015Y470428D01*
X189064Y470800D01*
X178299D01*
Y473300D01*
X175799D01*
Y484066D01*
X175427Y484017D01*
X172751Y482909D01*
X170453Y481145D01*
X168690Y478848D01*
X167840Y476796D01*
X166562Y476952D01*
X166535Y476963D01*
X165128Y480360D01*
X162883Y483285D01*
X159959Y485529D01*
X156553Y486940D01*
X152899Y487421D01*
D02*
G37*
G36*
X180799Y484066D02*
Y475800D01*
X189064D01*
X189015Y476172D01*
X187907Y478848D01*
X186144Y481145D01*
X183846Y482909D01*
X181170Y484017D01*
X180799Y484066D01*
D02*
G37*
G36*
X-459201Y484300D02*
X-467701D01*
Y475800D01*
X-459201D01*
Y484300D01*
D02*
G37*
G36*
X-582500Y449982D02*
X-584980Y449655D01*
X-587291Y448698D01*
X-589276Y447175D01*
X-590798Y445191D01*
X-591755Y442880D01*
X-592082Y440400D01*
X-591755Y437920D01*
X-590798Y435609D01*
X-590317Y434982D01*
Y417992D01*
X-592480Y417707D01*
X-594791Y416750D01*
X-596776Y415227D01*
X-598298Y413243D01*
X-599255Y410932D01*
X-599359Y410148D01*
X-669777Y339729D01*
X-671020Y338110D01*
X-671801Y336225D01*
X-672067Y334202D01*
Y133383D01*
X-671801Y131360D01*
X-671020Y129475D01*
X-669777Y127856D01*
X-622817Y80895D01*
Y-106642D01*
X-622551Y-108665D01*
X-622227Y-109446D01*
X-621770Y-110551D01*
X-620527Y-112170D01*
X-579669Y-153027D01*
X-578050Y-154270D01*
X-576165Y-155050D01*
X-574142Y-155317D01*
X-571994D01*
X-571288Y-156373D01*
X-571939Y-157944D01*
X-572420Y-161598D01*
X-571939Y-165253D01*
X-570528Y-168659D01*
X-568284Y-171583D01*
X-565726Y-173546D01*
X-565623Y-173890D01*
Y-174707D01*
X-565726Y-175050D01*
X-568284Y-177013D01*
X-570528Y-179938D01*
X-571939Y-183344D01*
X-572420Y-186998D01*
X-571939Y-190653D01*
X-570528Y-194059D01*
X-568284Y-196983D01*
X-568007Y-197196D01*
X-568416Y-198398D01*
X-572299D01*
Y-226398D01*
X-544299D01*
Y-222515D01*
X-543097Y-222106D01*
X-542884Y-222383D01*
X-539960Y-224627D01*
X-536554Y-226038D01*
X-532899Y-226519D01*
X-529245Y-226038D01*
X-525839Y-224627D01*
X-522915Y-222383D01*
X-520671Y-219459D01*
X-519260Y-216053D01*
X-518779Y-212398D01*
X-519260Y-208744D01*
X-520671Y-205338D01*
X-522915Y-202414D01*
X-525473Y-200450D01*
X-525576Y-200107D01*
Y-199290D01*
X-525473Y-198946D01*
X-522915Y-196983D01*
X-520671Y-194059D01*
X-519260Y-190653D01*
X-518779Y-186998D01*
X-519260Y-183344D01*
X-520671Y-179938D01*
X-522915Y-177013D01*
X-525839Y-174769D01*
X-529237Y-173362D01*
X-529248Y-173335D01*
X-529404Y-172057D01*
X-527352Y-171207D01*
X-525054Y-169444D01*
X-523291Y-167146D01*
X-522183Y-164470D01*
X-522134Y-164098D01*
X-532900D01*
Y-159098D01*
X-522134D01*
X-522183Y-158727D01*
X-523291Y-156051D01*
X-525054Y-153753D01*
X-527352Y-151990D01*
X-529404Y-151140D01*
X-529248Y-149862D01*
X-529237Y-149835D01*
X-525839Y-148427D01*
X-522915Y-146183D01*
X-520671Y-143259D01*
X-519260Y-139853D01*
X-518779Y-136198D01*
X-519260Y-132544D01*
X-520671Y-129138D01*
X-522915Y-126214D01*
X-525473Y-124250D01*
X-525576Y-123907D01*
Y-123090D01*
X-525473Y-122746D01*
X-522915Y-120783D01*
X-520671Y-117859D01*
X-519260Y-114453D01*
X-518779Y-110798D01*
X-519260Y-107144D01*
X-520671Y-103738D01*
X-522915Y-100814D01*
X-525473Y-98850D01*
X-525576Y-98507D01*
Y-97690D01*
X-525473Y-97346D01*
X-522915Y-95383D01*
X-520671Y-92459D01*
X-519260Y-89053D01*
X-518779Y-85398D01*
X-519260Y-81744D01*
X-520671Y-78338D01*
X-522915Y-75413D01*
X-525839Y-73169D01*
X-529237Y-71762D01*
X-529248Y-71735D01*
X-529404Y-70457D01*
X-527352Y-69607D01*
X-525054Y-67844D01*
X-523291Y-65546D01*
X-522183Y-62870D01*
X-522134Y-62498D01*
X-532900D01*
X-543665D01*
X-543616Y-62870D01*
X-542508Y-65546D01*
X-540745Y-67844D01*
X-538447Y-69607D01*
X-536395Y-70457D01*
X-536551Y-71735D01*
X-536562Y-71762D01*
X-539960Y-73169D01*
X-542884Y-75413D01*
X-544847Y-77972D01*
X-545191Y-78075D01*
X-546008D01*
X-546351Y-77972D01*
X-548315Y-75413D01*
X-551239Y-73169D01*
X-554637Y-71762D01*
X-554648Y-71735D01*
X-554804Y-70457D01*
X-552752Y-69607D01*
X-550454Y-67844D01*
X-548691Y-65546D01*
X-547583Y-62870D01*
X-547534Y-62498D01*
X-558299D01*
Y-57498D01*
X-547534D01*
X-547583Y-57127D01*
X-548691Y-54451D01*
X-550454Y-52153D01*
X-552752Y-50390D01*
X-554804Y-49540D01*
X-554648Y-48262D01*
X-554637Y-48235D01*
X-551239Y-46827D01*
X-548315Y-44583D01*
X-546351Y-42025D01*
X-546008Y-41922D01*
X-545191D01*
X-544847Y-42025D01*
X-542884Y-44583D01*
X-539960Y-46827D01*
X-536562Y-48235D01*
X-536551Y-48262D01*
X-536395Y-49540D01*
X-538447Y-50390D01*
X-540745Y-52153D01*
X-542508Y-54451D01*
X-543616Y-57127D01*
X-543665Y-57498D01*
X-532900D01*
X-522134D01*
X-522183Y-57127D01*
X-523291Y-54451D01*
X-525054Y-52153D01*
X-527352Y-50390D01*
X-529404Y-49540D01*
X-529248Y-48262D01*
X-529237Y-48235D01*
X-525839Y-46827D01*
X-522915Y-44583D01*
X-520671Y-41659D01*
X-519260Y-38253D01*
X-518779Y-34598D01*
X-519135Y-31889D01*
X-501223Y-13976D01*
X-501223Y-13976D01*
X-486973Y274D01*
X-485730Y1893D01*
X-484949Y3778D01*
X-484683Y5801D01*
Y82917D01*
X-482569Y83195D01*
X-480258Y84153D01*
X-478274Y85675D01*
X-476751Y87660D01*
X-475794Y89971D01*
X-475690Y90755D01*
X-472873Y93572D01*
X-471631Y95191D01*
X-470850Y97076D01*
X-470584Y99099D01*
Y126947D01*
X-461973Y135558D01*
X-460730Y137177D01*
X-459949Y139062D01*
X-459683Y141086D01*
Y186762D01*
X-401973Y244473D01*
X-400730Y246091D01*
X-399949Y247977D01*
X-399683Y250000D01*
Y286762D01*
X-388304Y298141D01*
X-387520Y298244D01*
X-385209Y299202D01*
X-383224Y300725D01*
X-381702Y302709D01*
X-380745Y305020D01*
X-380418Y307500D01*
X-380745Y309980D01*
X-381702Y312291D01*
X-383224Y314275D01*
X-385209Y315798D01*
X-387520Y316756D01*
X-390000Y317082D01*
X-392480Y316756D01*
X-394791Y315798D01*
X-396776Y314275D01*
X-398298Y312291D01*
X-399255Y309980D01*
X-399359Y309196D01*
X-402533Y306022D01*
X-403779Y306269D01*
X-404202Y307291D01*
X-405724Y309275D01*
X-407709Y310798D01*
X-410020Y311756D01*
X-412500Y312082D01*
X-414980Y311756D01*
X-417291Y310798D01*
X-419276Y309275D01*
X-420798Y307291D01*
X-420913Y307014D01*
X-422183Y307266D01*
Y362082D01*
X-421702Y362709D01*
X-420745Y365020D01*
X-420418Y367500D01*
X-420745Y369980D01*
X-421702Y372291D01*
X-423224Y374276D01*
X-425209Y375798D01*
X-427520Y376755D01*
X-430000Y377082D01*
X-432480Y376755D01*
X-434791Y375798D01*
X-436776Y374276D01*
X-438298Y372291D01*
X-439255Y369980D01*
X-439582Y367500D01*
X-439255Y365020D01*
X-438514Y363229D01*
X-439046Y362030D01*
X-439242Y361853D01*
X-439980Y361755D01*
X-442291Y360798D01*
X-444276Y359276D01*
X-445798Y357291D01*
X-446755Y354980D01*
X-446840Y354340D01*
X-447480Y354255D01*
X-449791Y353298D01*
X-451776Y351776D01*
X-453298Y349791D01*
X-454255Y347480D01*
X-454340Y346840D01*
X-454980Y346755D01*
X-457291Y345798D01*
X-459276Y344276D01*
X-460798Y342291D01*
X-461755Y339980D01*
X-461840Y339340D01*
X-462480Y339255D01*
X-464791Y338298D01*
X-466776Y336776D01*
X-468298Y334791D01*
X-469255Y332480D01*
X-469320Y331992D01*
X-470000Y332082D01*
X-472480Y331755D01*
X-474791Y330798D01*
X-476776Y329276D01*
X-478298Y327291D01*
X-479255Y324980D01*
X-479320Y324492D01*
X-480000Y324582D01*
X-482480Y324255D01*
X-484791Y323298D01*
X-486776Y321776D01*
X-488298Y319791D01*
X-489255Y317480D01*
X-489359Y316696D01*
X-490738Y315317D01*
X-521973D01*
X-522822Y316587D01*
X-522183Y318130D01*
X-522134Y318502D01*
X-532900D01*
X-543665D01*
X-543616Y318130D01*
X-542977Y316587D01*
X-543826Y315317D01*
X-546401D01*
X-547429Y315182D01*
X-548322Y316345D01*
X-547583Y318130D01*
X-547534Y318502D01*
X-558299D01*
X-569065D01*
X-569016Y318130D01*
X-567908Y315454D01*
X-566145Y313156D01*
X-563847Y311393D01*
X-561795Y310543D01*
X-561951Y309265D01*
X-561962Y309238D01*
X-565360Y307831D01*
X-568284Y305586D01*
X-570528Y302662D01*
X-571939Y299256D01*
X-572420Y295602D01*
X-571939Y291947D01*
X-570528Y288541D01*
X-568284Y285617D01*
X-565726Y283654D01*
X-565623Y283310D01*
Y282493D01*
X-565726Y282150D01*
X-568284Y280187D01*
X-570528Y277262D01*
X-571939Y273856D01*
X-572420Y270202D01*
X-571939Y266547D01*
X-570528Y263141D01*
X-568284Y260217D01*
X-565726Y258254D01*
X-565623Y257910D01*
Y257093D01*
X-565726Y256750D01*
X-568284Y254786D01*
X-570528Y251862D01*
X-571939Y248456D01*
X-572237Y246190D01*
X-573578Y245735D01*
X-574683Y246840D01*
Y367082D01*
X-574202Y367709D01*
X-573413Y369613D01*
X-572109Y369441D01*
X-571939Y368147D01*
X-570528Y364741D01*
X-568284Y361817D01*
X-565726Y359854D01*
X-565623Y359510D01*
Y358693D01*
X-565726Y358350D01*
X-568284Y356386D01*
X-570528Y353462D01*
X-571939Y350056D01*
X-572420Y346402D01*
X-571939Y342747D01*
X-570528Y339341D01*
X-568284Y336417D01*
X-565360Y334173D01*
X-561962Y332765D01*
X-561951Y332738D01*
X-561795Y331460D01*
X-563847Y330610D01*
X-566145Y328847D01*
X-567908Y326549D01*
X-569016Y323873D01*
X-569065Y323502D01*
X-558299D01*
X-547534D01*
X-547583Y323873D01*
X-548691Y326549D01*
X-550454Y328847D01*
X-552752Y330610D01*
X-554804Y331460D01*
X-554648Y332738D01*
X-554637Y332765D01*
X-551239Y334173D01*
X-548315Y336417D01*
X-546351Y338975D01*
X-546008Y339078D01*
X-545191D01*
X-544847Y338975D01*
X-542884Y336417D01*
X-539960Y334173D01*
X-536562Y332765D01*
X-536551Y332738D01*
X-536395Y331460D01*
X-538447Y330610D01*
X-540745Y328847D01*
X-542508Y326549D01*
X-543616Y323873D01*
X-543665Y323502D01*
X-532900D01*
X-522134D01*
X-522183Y323873D01*
X-523291Y326549D01*
X-525054Y328847D01*
X-527352Y330610D01*
X-529404Y331460D01*
X-529248Y332738D01*
X-529237Y332765D01*
X-525839Y334173D01*
X-522915Y336417D01*
X-520671Y339341D01*
X-519260Y342747D01*
X-518779Y346402D01*
X-519260Y350056D01*
X-520671Y353462D01*
X-522915Y356386D01*
X-525473Y358350D01*
X-525576Y358693D01*
Y359510D01*
X-525473Y359854D01*
X-522915Y361817D01*
X-520671Y364741D01*
X-519260Y368147D01*
X-518779Y371802D01*
X-519260Y375456D01*
X-519538Y376127D01*
X-518832Y377183D01*
X-505418D01*
X-504791Y376702D01*
X-502480Y375745D01*
X-500000Y375418D01*
X-497520Y375745D01*
X-495209Y376702D01*
X-493224Y378224D01*
X-491702Y380209D01*
X-490745Y382520D01*
X-490418Y385000D01*
X-490745Y387480D01*
X-491702Y389791D01*
X-493224Y391776D01*
X-495209Y393298D01*
X-497520Y394255D01*
X-499575Y394526D01*
X-500086Y394742D01*
X-500645Y395778D01*
X-500418Y397500D01*
X-500745Y399980D01*
X-501702Y402291D01*
X-503224Y404276D01*
X-505209Y405798D01*
X-507520Y406755D01*
X-508304Y406859D01*
X-515424Y413979D01*
X-517043Y415221D01*
X-518928Y416002D01*
X-519365Y416060D01*
X-520000Y417160D01*
X-519260Y418947D01*
X-518779Y422602D01*
X-518840Y423071D01*
X-517520Y423245D01*
X-515209Y424202D01*
X-513224Y425724D01*
X-511702Y427709D01*
X-510745Y430020D01*
X-510418Y432500D01*
X-510745Y434980D01*
X-511702Y437291D01*
X-513224Y439276D01*
X-515209Y440798D01*
X-517520Y441755D01*
X-518304Y441859D01*
X-522373Y445927D01*
X-523992Y447170D01*
X-525096Y447627D01*
X-525877Y447951D01*
X-527900Y448217D01*
X-569600D01*
X-571623Y447951D01*
X-573508Y447170D01*
X-574901Y446101D01*
X-575724Y447175D01*
X-577709Y448698D01*
X-580020Y449655D01*
X-582500Y449982D01*
D02*
G37*
G36*
X337500Y253825D02*
X290000D01*
X287716Y253525D01*
X285587Y252643D01*
X283759Y251241D01*
X280759Y248241D01*
X279357Y246413D01*
X278475Y244284D01*
X278174Y242000D01*
Y237518D01*
X277745Y236480D01*
X277418Y234000D01*
X277670Y232087D01*
X276796Y230817D01*
X246000D01*
X243977Y230550D01*
X242092Y229770D01*
X240473Y228527D01*
X222808Y210863D01*
X221566Y209244D01*
X220785Y207359D01*
X220675Y206523D01*
X220037Y205692D01*
X219080Y203381D01*
X218754Y200901D01*
X219080Y198421D01*
X220037Y196110D01*
X221560Y194125D01*
X223544Y192603D01*
X225855Y191645D01*
X226295Y191588D01*
X226311Y191465D01*
X227269Y189154D01*
X228791Y187169D01*
X230776Y185646D01*
X233087Y184689D01*
X234890Y184452D01*
X235008Y184368D01*
X235652Y183235D01*
X235661Y183123D01*
X234954Y181416D01*
X234627Y178936D01*
X234954Y176456D01*
X235911Y174145D01*
X237434Y172160D01*
X239418Y170638D01*
X241729Y169680D01*
X242299Y168692D01*
X241248Y166155D01*
X240767Y162500D01*
X241248Y158845D01*
X242659Y155440D01*
X244903Y152515D01*
X247827Y150271D01*
X251233Y148860D01*
X254888Y148379D01*
X266500D01*
X270155Y148860D01*
X273560Y150271D01*
X276485Y152515D01*
X277985Y154015D01*
X294849Y170879D01*
X345000D01*
X348655Y171360D01*
X352060Y172771D01*
X354985Y175015D01*
X357229Y177940D01*
X358640Y181345D01*
X359121Y185000D01*
X358640Y188655D01*
X357229Y192060D01*
X354985Y194985D01*
X353825Y195875D01*
Y237500D01*
X353525Y239784D01*
X352643Y241913D01*
X351241Y243741D01*
X343741Y251241D01*
X341913Y252643D01*
X339784Y253525D01*
X337500Y253825D01*
D02*
G37*
G36*
X434000Y92556D02*
X432303Y92333D01*
X430722Y91678D01*
X429364Y90636D01*
X424784Y86055D01*
X412886Y86055D01*
X411189Y85832D01*
X409608Y85177D01*
X408250Y84135D01*
X405364Y81249D01*
X404322Y79892D01*
X403667Y78310D01*
X403444Y76614D01*
X403444Y-2401D01*
X243000D01*
X243000Y-2401D01*
X239998Y-2796D01*
X237200Y-3955D01*
X234798Y-5798D01*
X234798Y-5798D01*
X228981Y-11615D01*
X227791Y-10702D01*
X225480Y-9744D01*
X223000Y-9418D01*
X220520Y-9744D01*
X218209Y-10702D01*
X216224Y-12225D01*
X214702Y-14209D01*
X213768Y-16465D01*
X211116Y-19116D01*
X209794Y-20839D01*
X208962Y-22846D01*
X208679Y-25000D01*
Y-190264D01*
X207745Y-192520D01*
X207418Y-195000D01*
X207745Y-197480D01*
X208702Y-199791D01*
X210224Y-201775D01*
X212209Y-203298D01*
X214520Y-204256D01*
X217000Y-204582D01*
X219321Y-204277D01*
X220798Y-206202D01*
X223200Y-208045D01*
X225998Y-209204D01*
X229000Y-209599D01*
X232002Y-209204D01*
X232366Y-209053D01*
X233422Y-209759D01*
Y-240000D01*
X233422Y-240000D01*
X233731Y-242350D01*
X234638Y-244539D01*
X236081Y-246419D01*
X237961Y-247862D01*
X240150Y-248768D01*
X242500Y-249078D01*
X748750D01*
X751099Y-248768D01*
X753289Y-247862D01*
X755169Y-246419D01*
X756611Y-244539D01*
X757518Y-242350D01*
X757828Y-240000D01*
Y-30000D01*
X757518Y-27650D01*
X756611Y-25461D01*
X755169Y-23581D01*
X753289Y-22139D01*
X751099Y-21232D01*
X748750Y-20922D01*
X484292D01*
X483455Y-19967D01*
X483582Y-19000D01*
X483256Y-16520D01*
X482298Y-14209D01*
X482071Y-13913D01*
Y35913D01*
X482298Y36209D01*
X483256Y38520D01*
X483582Y41000D01*
X483256Y43480D01*
X482298Y45791D01*
X480775Y47775D01*
X478791Y49298D01*
X476480Y50255D01*
X474000Y50582D01*
X471520Y50255D01*
X469209Y49298D01*
X467225Y47775D01*
X465973Y46144D01*
X465278Y46678D01*
X463697Y47333D01*
X462000Y47556D01*
X450454Y47556D01*
X449556Y48454D01*
X449556Y86000D01*
X449333Y87697D01*
X448678Y89278D01*
X447636Y90636D01*
X446278Y91678D01*
X444697Y92333D01*
X443000Y92556D01*
X434000Y92556D01*
D02*
G37*
G36*
X193000Y171834D02*
X177000D01*
X174455Y171499D01*
X172083Y170517D01*
X170046Y168954D01*
X168483Y166917D01*
X167501Y164545D01*
X167166Y162000D01*
X167501Y159455D01*
X168483Y157083D01*
X170046Y155046D01*
X172083Y153483D01*
X174455Y152501D01*
X175166Y152407D01*
Y36000D01*
Y29513D01*
Y-1000D01*
X175451Y-3165D01*
X175375Y-3223D01*
X173853Y-5207D01*
X172895Y-7518D01*
X172569Y-9998D01*
X172895Y-12478D01*
X173853Y-14789D01*
X175375Y-16774D01*
X177360Y-18297D01*
X179671Y-19254D01*
X182151Y-19580D01*
X184631Y-19254D01*
X186942Y-18297D01*
X188926Y-16774D01*
X190449Y-14789D01*
X191406Y-12478D01*
X191498Y-11782D01*
X192206Y-10859D01*
X192217Y-10834D01*
X193000D01*
X195545Y-10499D01*
X197917Y-9517D01*
X199954Y-7954D01*
X201517Y-5917D01*
X202499Y-3545D01*
X202834Y-1000D01*
X202499Y1545D01*
X201517Y3917D01*
X199954Y5954D01*
X197917Y7517D01*
X195545Y8499D01*
X194834Y8593D01*
Y21679D01*
X215264D01*
X217520Y20745D01*
X220000Y20418D01*
X222480Y20745D01*
X224791Y21702D01*
X226775Y23224D01*
X228298Y25209D01*
X229256Y27520D01*
X229582Y30000D01*
X229256Y32480D01*
X228298Y34791D01*
X226775Y36776D01*
X224791Y38298D01*
X222480Y39255D01*
X220000Y39582D01*
X217520Y39255D01*
X215264Y38321D01*
X194834D01*
Y152407D01*
X195545Y152501D01*
X197917Y153483D01*
X199954Y155046D01*
X201517Y157083D01*
X202499Y159455D01*
X202834Y162000D01*
X202499Y164545D01*
X201517Y166917D01*
X199954Y168954D01*
X197917Y170517D01*
X195545Y171499D01*
X193000Y171834D01*
D02*
G37*
G36*
X-459198Y-226900D02*
X-467698D01*
Y-235400D01*
X-459198D01*
Y-226900D01*
D02*
G37*
G36*
X40000Y-282418D02*
X37520Y-282745D01*
X35209Y-283702D01*
X33224Y-285224D01*
X31702Y-287209D01*
X30745Y-289520D01*
X30448Y-291771D01*
X29929Y-292293D01*
X29231Y-292712D01*
X27000Y-292418D01*
X24520Y-292745D01*
X22209Y-293702D01*
X20224Y-295224D01*
X18702Y-297209D01*
X17744Y-299520D01*
X17418Y-302000D01*
X17744Y-304480D01*
X18679Y-306736D01*
Y-342012D01*
X17409Y-342917D01*
X15500Y-342666D01*
X13575D01*
X13300Y-342455D01*
X10502Y-341296D01*
X7500Y-340901D01*
X4498Y-341296D01*
X1700Y-342455D01*
X1425Y-342666D01*
X-500D01*
X-3045Y-343001D01*
X-5417Y-343983D01*
X-7454Y-345546D01*
X-9017Y-347583D01*
X-9999Y-349955D01*
X-10334Y-352500D01*
X-9999Y-355045D01*
X-9017Y-357417D01*
X-7454Y-359454D01*
X-5417Y-361017D01*
X-4099Y-361562D01*
Y-420000D01*
X-4099Y-420000D01*
X-3704Y-423002D01*
X-2545Y-425800D01*
X-702Y-428202D01*
X8401Y-437304D01*
Y-489000D01*
X8796Y-492002D01*
X9955Y-494800D01*
X11798Y-497202D01*
X14200Y-499045D01*
X16998Y-500204D01*
X20000Y-500599D01*
X23002Y-500204D01*
X25800Y-499045D01*
X28202Y-497202D01*
X30045Y-494800D01*
X31204Y-492002D01*
X31599Y-489000D01*
Y-432500D01*
X31599Y-432500D01*
X31204Y-429498D01*
X30045Y-426700D01*
X28202Y-424298D01*
X28202Y-424298D01*
X19099Y-415195D01*
Y-413173D01*
X20369Y-412887D01*
X22209Y-414298D01*
X24520Y-415256D01*
X27000Y-415582D01*
X29480Y-415256D01*
X31169Y-414556D01*
X32733Y-415015D01*
X32794Y-415161D01*
X34116Y-416884D01*
X52029Y-434797D01*
Y-465914D01*
X51094Y-468170D01*
X50768Y-470650D01*
X51094Y-473130D01*
X52052Y-475441D01*
X53575Y-477425D01*
X55559Y-478948D01*
X57870Y-479906D01*
X60350Y-480232D01*
X62830Y-479906D01*
X65141Y-478948D01*
X67126Y-477425D01*
X68648Y-475441D01*
X69605Y-473130D01*
X69932Y-470650D01*
X69605Y-468170D01*
X68671Y-465914D01*
Y-431350D01*
X68388Y-429196D01*
X67556Y-427189D01*
X66234Y-425466D01*
X49253Y-408485D01*
X49255Y-408480D01*
X49582Y-406000D01*
X49255Y-403520D01*
X48321Y-401264D01*
Y-296736D01*
X49255Y-294480D01*
X49582Y-292000D01*
X49255Y-289520D01*
X48298Y-287209D01*
X46775Y-285224D01*
X44791Y-283702D01*
X42480Y-282745D01*
X40000Y-282418D01*
D02*
G37*
G36*
X-506000Y-113418D02*
X-508480Y-113744D01*
X-510791Y-114702D01*
X-512775Y-116224D01*
X-514298Y-118209D01*
X-515256Y-120520D01*
X-515582Y-123000D01*
X-515256Y-125480D01*
X-514321Y-127736D01*
Y-190264D01*
X-515256Y-192520D01*
X-515582Y-195000D01*
X-515256Y-197480D01*
X-514298Y-199791D01*
X-512775Y-201775D01*
X-510791Y-203298D01*
X-508480Y-204256D01*
X-506000Y-204582D01*
X-505321Y-205177D01*
Y-286264D01*
X-506255Y-288520D01*
X-506582Y-291000D01*
X-506255Y-293480D01*
X-505298Y-295791D01*
X-503775Y-297775D01*
X-501791Y-299298D01*
X-499480Y-300256D01*
X-497000Y-300582D01*
X-494520Y-300256D01*
X-492209Y-299298D01*
X-490224Y-297775D01*
X-488702Y-295791D01*
X-487744Y-293480D01*
X-487418Y-291000D01*
X-487744Y-288520D01*
X-488679Y-286264D01*
Y-178736D01*
X-487744Y-176480D01*
X-487418Y-174000D01*
X-487744Y-171520D01*
X-488702Y-169209D01*
X-490224Y-167225D01*
X-492209Y-165702D01*
X-494520Y-164744D01*
X-497000Y-164418D01*
X-497679Y-163823D01*
Y-127736D01*
X-496744Y-125480D01*
X-496418Y-123000D01*
X-496744Y-120520D01*
X-497702Y-118209D01*
X-499225Y-116224D01*
X-501209Y-114702D01*
X-503520Y-113744D01*
X-506000Y-113418D01*
D02*
G37*
G36*
X-266000Y-383418D02*
X-268480Y-383745D01*
X-270791Y-384702D01*
X-272775Y-386225D01*
X-274298Y-388209D01*
X-275256Y-390520D01*
X-275582Y-393000D01*
X-275256Y-395480D01*
X-274298Y-397791D01*
X-272775Y-399776D01*
X-270791Y-401298D01*
X-268535Y-402233D01*
X-263884Y-406884D01*
X-262161Y-408206D01*
X-260154Y-409038D01*
X-258000Y-409321D01*
X-233736D01*
X-231480Y-410256D01*
X-229000Y-410582D01*
X-226520Y-410256D01*
X-224209Y-409298D01*
X-222225Y-407775D01*
X-220702Y-405791D01*
X-219744Y-403480D01*
X-219418Y-401000D01*
X-219744Y-398520D01*
X-220702Y-396209D01*
X-222225Y-394225D01*
X-224209Y-392702D01*
X-226520Y-391744D01*
X-229000Y-391418D01*
X-231480Y-391744D01*
X-233736Y-392679D01*
X-254553D01*
X-256768Y-390465D01*
X-257702Y-388209D01*
X-259224Y-386225D01*
X-261209Y-384702D01*
X-263520Y-383745D01*
X-266000Y-383418D01*
D02*
G37*
G36*
X-290000Y-340901D02*
X-293002Y-341296D01*
X-295800Y-342455D01*
X-296075Y-342666D01*
X-298000D01*
X-300545Y-343001D01*
X-302917Y-343983D01*
X-304954Y-345546D01*
X-306517Y-347583D01*
X-307499Y-349955D01*
X-307834Y-352500D01*
X-307499Y-355045D01*
X-306517Y-357417D01*
X-304954Y-359454D01*
X-302917Y-361017D01*
X-301599Y-361562D01*
Y-468000D01*
X-301599Y-468000D01*
X-301204Y-471002D01*
X-300045Y-473800D01*
X-298202Y-476202D01*
X-279202Y-495202D01*
X-276800Y-497045D01*
X-274002Y-498204D01*
X-271000Y-498599D01*
X-267998Y-498204D01*
X-265200Y-497045D01*
X-262798Y-495202D01*
X-260955Y-492800D01*
X-259796Y-490002D01*
X-259401Y-487000D01*
X-259796Y-483998D01*
X-260955Y-481200D01*
X-262798Y-478798D01*
X-278401Y-463195D01*
Y-361562D01*
X-277083Y-361017D01*
X-275046Y-359454D01*
X-273483Y-357417D01*
X-272501Y-355045D01*
X-272166Y-352500D01*
X-272501Y-349955D01*
X-273483Y-347583D01*
X-275046Y-345546D01*
X-277083Y-343983D01*
X-279455Y-343001D01*
X-282000Y-342666D01*
X-283925D01*
X-284200Y-342455D01*
X-286998Y-341296D01*
X-290000Y-340901D01*
D02*
G37*
G36*
X-208000Y-278418D02*
X-210480Y-278745D01*
X-212791Y-279702D01*
X-214776Y-281224D01*
X-216298Y-283209D01*
X-217255Y-285520D01*
X-217582Y-288000D01*
X-217255Y-290480D01*
X-216321Y-292736D01*
Y-397000D01*
X-216038Y-399154D01*
X-215206Y-401161D01*
X-213884Y-402884D01*
X-205821Y-410947D01*
Y-516715D01*
X-206960Y-517276D01*
X-207709Y-516702D01*
X-210020Y-515745D01*
X-212500Y-515418D01*
X-214980Y-515745D01*
X-217236Y-516679D01*
X-244000D01*
X-246154Y-516962D01*
X-248161Y-517794D01*
X-249884Y-519116D01*
X-258584Y-527816D01*
X-259906Y-529539D01*
X-260738Y-531546D01*
X-260964Y-533265D01*
X-261046Y-533309D01*
X-263322Y-535178D01*
X-264180Y-536222D01*
X-265450Y-535768D01*
Y-530850D01*
X-295350D01*
Y-560750D01*
X-275729D01*
X-275275Y-562020D01*
X-277172Y-563578D01*
X-279041Y-565854D01*
X-280429Y-568451D01*
X-281284Y-571269D01*
X-281572Y-574200D01*
X-281284Y-577131D01*
X-280429Y-579949D01*
X-279041Y-582546D01*
X-277172Y-584822D01*
X-274896Y-586691D01*
X-272299Y-588079D01*
X-269481Y-588934D01*
X-266550Y-589222D01*
X-263619Y-588934D01*
X-260801Y-588079D01*
X-258204Y-586691D01*
X-255928Y-584822D01*
X-254059Y-582546D01*
X-253335Y-581191D01*
X-252065D01*
X-251341Y-582546D01*
X-249472Y-584822D01*
X-247196Y-586691D01*
X-244599Y-588079D01*
X-241781Y-588934D01*
X-238850Y-589222D01*
X-235919Y-588934D01*
X-233101Y-588079D01*
X-230504Y-586691D01*
X-228228Y-584822D01*
X-226359Y-582546D01*
X-225635Y-581191D01*
X-224365D01*
X-223641Y-582546D01*
X-221772Y-584822D01*
X-219496Y-586691D01*
X-216899Y-588079D01*
X-214081Y-588934D01*
X-211150Y-589222D01*
X-208219Y-588934D01*
X-205401Y-588079D01*
X-202804Y-586691D01*
X-200528Y-584822D01*
X-198659Y-582546D01*
X-197935Y-581191D01*
X-196665D01*
X-195941Y-582546D01*
X-194072Y-584822D01*
X-191796Y-586691D01*
X-189199Y-588079D01*
X-186381Y-588934D01*
X-183450Y-589222D01*
X-180519Y-588934D01*
X-177701Y-588079D01*
X-175104Y-586691D01*
X-172828Y-584822D01*
X-170959Y-582546D01*
X-169571Y-579949D01*
X-168716Y-577131D01*
X-168428Y-574200D01*
X-168716Y-571269D01*
X-169571Y-568451D01*
X-170959Y-565854D01*
X-172828Y-563578D01*
X-175104Y-561709D01*
X-177701Y-560321D01*
X-180519Y-559466D01*
X-183450Y-559178D01*
X-186381Y-559466D01*
X-189199Y-560321D01*
X-191796Y-561709D01*
X-194072Y-563578D01*
X-195941Y-565854D01*
X-196665Y-567209D01*
X-197935D01*
X-198659Y-565854D01*
X-200528Y-563578D01*
X-202804Y-561709D01*
X-205401Y-560321D01*
X-208219Y-559466D01*
X-211150Y-559178D01*
X-214081Y-559466D01*
X-216899Y-560321D01*
X-219496Y-561709D01*
X-221772Y-563578D01*
X-223641Y-565854D01*
X-224365Y-567209D01*
X-225635D01*
X-226359Y-565854D01*
X-228228Y-563578D01*
X-230504Y-561709D01*
X-233101Y-560321D01*
X-235919Y-559466D01*
X-238850Y-559178D01*
X-241781Y-559466D01*
X-244599Y-560321D01*
X-247196Y-561709D01*
X-249472Y-563578D01*
X-251341Y-565854D01*
X-252065Y-567209D01*
X-253335D01*
X-254059Y-565854D01*
X-255928Y-563578D01*
X-258204Y-561709D01*
X-260801Y-560321D01*
X-263619Y-559466D01*
X-265450Y-559286D01*
Y-555832D01*
X-264180Y-555377D01*
X-263322Y-556422D01*
X-261046Y-558291D01*
X-258449Y-559679D01*
X-255631Y-560534D01*
X-252700Y-560822D01*
X-249769Y-560534D01*
X-246951Y-559679D01*
X-244354Y-558291D01*
X-242078Y-556422D01*
X-240209Y-554146D01*
X-239485Y-552791D01*
X-238215D01*
X-237491Y-554146D01*
X-235622Y-556422D01*
X-233346Y-558291D01*
X-230749Y-559679D01*
X-227931Y-560534D01*
X-225000Y-560822D01*
X-222069Y-560534D01*
X-219251Y-559679D01*
X-216654Y-558291D01*
X-214378Y-556422D01*
X-212509Y-554146D01*
X-211785Y-552791D01*
X-210515D01*
X-209791Y-554146D01*
X-207922Y-556422D01*
X-205646Y-558291D01*
X-203049Y-559679D01*
X-200231Y-560534D01*
X-197300Y-560822D01*
X-194369Y-560534D01*
X-191551Y-559679D01*
X-188954Y-558291D01*
X-186678Y-556422D01*
X-184809Y-554146D01*
X-183421Y-551549D01*
X-182566Y-548731D01*
X-182559Y-548652D01*
X-181280Y-548631D01*
X-181243Y-548920D01*
X-180038Y-551827D01*
X-178123Y-554323D01*
X-175627Y-556238D01*
X-172720Y-557442D01*
X-172100Y-557524D01*
Y-545800D01*
Y-534076D01*
X-172720Y-534158D01*
X-175627Y-535362D01*
X-178123Y-537277D01*
X-180038Y-539773D01*
X-181243Y-542680D01*
X-181280Y-542969D01*
X-182559Y-542948D01*
X-182566Y-542869D01*
X-183421Y-540051D01*
X-184809Y-537454D01*
X-185473Y-536645D01*
X-184856Y-535535D01*
X-184500Y-535582D01*
X-182020Y-535256D01*
X-179709Y-534298D01*
X-177724Y-532775D01*
X-176202Y-530791D01*
X-175245Y-528480D01*
X-174918Y-526000D01*
X-175245Y-523520D01*
X-176179Y-521264D01*
Y-410500D01*
X-176462Y-408346D01*
X-177294Y-406339D01*
X-178616Y-404616D01*
X-189679Y-393553D01*
Y-304736D01*
X-188745Y-302480D01*
X-188418Y-300000D01*
X-188745Y-297520D01*
X-189702Y-295209D01*
X-191224Y-293225D01*
X-193209Y-291702D01*
X-195520Y-290744D01*
X-197571Y-290474D01*
X-198000Y-290418D01*
X-198578Y-289213D01*
X-198418Y-288000D01*
X-198745Y-285520D01*
X-199702Y-283209D01*
X-201224Y-281224D01*
X-203209Y-279702D01*
X-205520Y-278745D01*
X-208000Y-278418D01*
D02*
G37*
G36*
X-167100Y-534076D02*
Y-543300D01*
X-157876D01*
X-157958Y-542680D01*
X-159162Y-539773D01*
X-161077Y-537277D01*
X-163573Y-535362D01*
X-166481Y-534158D01*
X-167100Y-534076D01*
D02*
G37*
G36*
X-453000Y-281418D02*
X-455480Y-281744D01*
X-457791Y-282702D01*
X-459776Y-284224D01*
X-461298Y-286209D01*
X-462256Y-288520D01*
X-462582Y-291000D01*
X-462256Y-293480D01*
X-461825Y-294518D01*
Y-537482D01*
X-462256Y-538520D01*
X-462582Y-541000D01*
X-462256Y-543480D01*
X-461298Y-545791D01*
X-459776Y-547775D01*
X-457791Y-549298D01*
X-455480Y-550255D01*
X-453000Y-550582D01*
X-450520Y-550255D01*
X-448209Y-549298D01*
X-446225Y-547775D01*
X-444702Y-545791D01*
X-443745Y-543480D01*
X-443418Y-541000D01*
X-443745Y-538520D01*
X-444174Y-537482D01*
Y-294518D01*
X-443745Y-293480D01*
X-443418Y-291000D01*
X-443745Y-288520D01*
X-444702Y-286209D01*
X-446225Y-284224D01*
X-448209Y-282702D01*
X-450520Y-281744D01*
X-453000Y-281418D01*
D02*
G37*
G36*
X-157876Y-548300D02*
X-167100D01*
Y-557524D01*
X-166481Y-557442D01*
X-163573Y-556238D01*
X-161077Y-554323D01*
X-159162Y-551827D01*
X-157958Y-548920D01*
X-157876Y-548300D01*
D02*
G37*
G36*
X-100050Y-529606D02*
X-104805Y-529981D01*
X-109442Y-531094D01*
X-113848Y-532919D01*
X-117915Y-535411D01*
X-121542Y-538508D01*
X-124639Y-542135D01*
X-127131Y-546202D01*
X-128956Y-550608D01*
X-130070Y-555245D01*
X-130444Y-560000D01*
X-130070Y-564755D01*
X-128956Y-569392D01*
X-127131Y-573798D01*
X-124639Y-577865D01*
X-121542Y-581492D01*
X-117915Y-584589D01*
X-113848Y-587081D01*
X-109442Y-588906D01*
X-104805Y-590019D01*
X-100050Y-590394D01*
X-95295Y-590019D01*
X-90658Y-588906D01*
X-86252Y-587081D01*
X-82185Y-584589D01*
X-78558Y-581492D01*
X-75461Y-577865D01*
X-72969Y-573798D01*
X-71144Y-569392D01*
X-70030Y-564755D01*
X-69656Y-560000D01*
X-70030Y-555245D01*
X-71144Y-550608D01*
X-72969Y-546202D01*
X-75461Y-542135D01*
X-78558Y-538508D01*
X-82185Y-535411D01*
X-86252Y-532919D01*
X-90658Y-531094D01*
X-95295Y-529981D01*
X-100050Y-529606D01*
D02*
G37*
G36*
X-349950D02*
X-354705Y-529981D01*
X-359342Y-531094D01*
X-363748Y-532919D01*
X-367815Y-535411D01*
X-371442Y-538508D01*
X-374539Y-542135D01*
X-377031Y-546202D01*
X-378856Y-550608D01*
X-379969Y-555245D01*
X-380344Y-560000D01*
X-379969Y-564755D01*
X-378856Y-569392D01*
X-377031Y-573798D01*
X-374539Y-577865D01*
X-371442Y-581492D01*
X-367815Y-584589D01*
X-363748Y-587081D01*
X-359342Y-588906D01*
X-354705Y-590019D01*
X-349950Y-590394D01*
X-345195Y-590019D01*
X-340558Y-588906D01*
X-336152Y-587081D01*
X-332085Y-584589D01*
X-328458Y-581492D01*
X-325361Y-577865D01*
X-322869Y-573798D01*
X-321044Y-569392D01*
X-319930Y-564755D01*
X-319556Y-560000D01*
X-319930Y-555245D01*
X-321044Y-550608D01*
X-322869Y-546202D01*
X-325361Y-542135D01*
X-328458Y-538508D01*
X-332085Y-535411D01*
X-336152Y-532919D01*
X-340558Y-531094D01*
X-345195Y-529981D01*
X-349950Y-529606D01*
D02*
G37*
G36*
X207502Y-612217D02*
Y-622500D01*
X217784D01*
X217667Y-621606D01*
X216357Y-618444D01*
X214273Y-615728D01*
X211557Y-613644D01*
X208395Y-612335D01*
X207502Y-612217D01*
D02*
G37*
G36*
X7502Y-612217D02*
Y-622500D01*
X17784D01*
X17667Y-621606D01*
X16357Y-618444D01*
X14273Y-615728D01*
X11557Y-613644D01*
X8395Y-612335D01*
X7502Y-612217D01*
D02*
G37*
G36*
X2501Y-612217D02*
X1608Y-612335D01*
X-1555Y-613644D01*
X-4270Y-615728D01*
X-6354Y-618444D01*
X-7664Y-621606D01*
X-7782Y-622500D01*
X2501D01*
Y-612217D01*
D02*
G37*
G36*
X202502D02*
X201608Y-612335D01*
X198445Y-613644D01*
X195730Y-615728D01*
X193646Y-618444D01*
X192336Y-621606D01*
X192218Y-622500D01*
X202502D01*
Y-612217D01*
D02*
G37*
G36*
X217784Y-627500D02*
X207502D01*
Y-637783D01*
X208395Y-637665D01*
X211557Y-636355D01*
X214273Y-634272D01*
X216357Y-631556D01*
X217667Y-628394D01*
X217784Y-627500D01*
D02*
G37*
G36*
X17784D02*
X7502D01*
Y-637783D01*
X8395Y-637665D01*
X11557Y-636355D01*
X14273Y-634272D01*
X16357Y-631556D01*
X17667Y-628394D01*
X17784Y-627500D01*
D02*
G37*
G36*
X2501D02*
X-7782D01*
X-7664Y-628394D01*
X-6354Y-631556D01*
X-4270Y-634272D01*
X-1555Y-636355D01*
X1608Y-637665D01*
X2501Y-637783D01*
Y-627500D01*
D02*
G37*
G36*
X202502D02*
X192218D01*
X192336Y-628394D01*
X193646Y-631556D01*
X195730Y-634272D01*
X198445Y-636355D01*
X201608Y-637665D01*
X202502Y-637783D01*
Y-627500D01*
D02*
G37*
G36*
X291001Y-609000D02*
X259001D01*
Y-641000D01*
X291001D01*
Y-609000D01*
D02*
G37*
G36*
X91001D02*
X59001D01*
Y-641000D01*
X91001D01*
Y-609000D01*
D02*
G37*
G36*
X240000Y-608923D02*
X236863Y-609231D01*
X233847Y-610146D01*
X231068Y-611632D01*
X228631Y-613632D01*
X226632Y-616068D01*
X225146Y-618847D01*
X224231Y-621864D01*
X223923Y-625000D01*
X224231Y-628136D01*
X225146Y-631153D01*
X226632Y-633932D01*
X228631Y-636368D01*
X231068Y-638368D01*
X233847Y-639854D01*
X236863Y-640769D01*
X240000Y-641077D01*
X243137Y-640769D01*
X246153Y-639854D01*
X248932Y-638368D01*
X251369Y-636368D01*
X253368Y-633932D01*
X254854Y-631153D01*
X255769Y-628136D01*
X256077Y-625000D01*
X255769Y-621864D01*
X254854Y-618847D01*
X253368Y-616068D01*
X251369Y-613632D01*
X248932Y-611632D01*
X246153Y-610146D01*
X243137Y-609231D01*
X240000Y-608923D01*
D02*
G37*
G36*
X40000D02*
X36864Y-609231D01*
X33847Y-610146D01*
X31068Y-611632D01*
X28632Y-613632D01*
X26632Y-616068D01*
X25146Y-618847D01*
X24232Y-621864D01*
X23923Y-625000D01*
X24232Y-628136D01*
X25146Y-631153D01*
X26632Y-633932D01*
X28632Y-636368D01*
X31068Y-638368D01*
X33847Y-639854D01*
X36864Y-640769D01*
X40000Y-641077D01*
X43137Y-640769D01*
X46153Y-639854D01*
X48932Y-638368D01*
X51368Y-636368D01*
X53368Y-633932D01*
X54854Y-631153D01*
X55768Y-628136D01*
X56077Y-625000D01*
X55768Y-621864D01*
X54854Y-618847D01*
X53368Y-616068D01*
X51368Y-613632D01*
X48932Y-611632D01*
X46153Y-610146D01*
X43137Y-609231D01*
X40000Y-608923D01*
D02*
G37*
G36*
X146000Y-643300D02*
X118000D01*
Y-671300D01*
X121884D01*
X122292Y-672503D01*
X122015Y-672715D01*
X119771Y-675640D01*
X118360Y-679045D01*
X117879Y-682700D01*
X118360Y-686355D01*
X119771Y-689760D01*
X122015Y-692685D01*
X124940Y-694929D01*
X128345Y-696340D01*
X132000Y-696821D01*
X135655Y-696340D01*
X139060Y-694929D01*
X141985Y-692685D01*
X144229Y-689760D01*
X145640Y-686355D01*
X146121Y-682700D01*
X145640Y-679045D01*
X144229Y-675640D01*
X141985Y-672715D01*
X141708Y-672503D01*
X142116Y-671300D01*
X146000D01*
Y-643300D01*
D02*
G37*
%LPD*%
G36*
X39351Y440474D02*
X41314Y437915D01*
X44238Y435671D01*
X47644Y434260D01*
X51299Y433779D01*
X54953Y434260D01*
X58359Y435671D01*
X61283Y437915D01*
X63247Y440474D01*
X63590Y440576D01*
X64407D01*
X64750Y440474D01*
X66714Y437915D01*
X69638Y435671D01*
X73044Y434260D01*
X76699Y433779D01*
X80353Y434260D01*
X80623Y434372D01*
X81679Y433666D01*
Y422177D01*
X81000Y421582D01*
X78520Y421255D01*
X76209Y420298D01*
X74225Y418775D01*
X72702Y416791D01*
X71744Y414480D01*
X71418Y412000D01*
X71744Y409520D01*
X72679Y407264D01*
Y395000D01*
X72962Y392846D01*
X73794Y390839D01*
X75116Y389116D01*
X85679Y378553D01*
Y42736D01*
X84745Y40480D01*
X84418Y38000D01*
X84745Y35520D01*
X85702Y33209D01*
X87225Y31225D01*
X89209Y29702D01*
X91520Y28744D01*
X94000Y28418D01*
X96480Y28744D01*
X97815Y29297D01*
X99440Y28692D01*
X99794Y27839D01*
X101116Y26116D01*
X107116Y20116D01*
X108839Y18794D01*
X110846Y17962D01*
X113000Y17679D01*
X128825D01*
X131679Y14825D01*
Y-219000D01*
X131962Y-221154D01*
X132183Y-221687D01*
Y-223558D01*
X130913Y-224228D01*
X127502Y-223779D01*
X123847Y-224260D01*
X120441Y-225671D01*
X117517Y-227915D01*
X115554Y-230473D01*
X115211Y-230576D01*
X114393D01*
X114050Y-230473D01*
X112087Y-227915D01*
X109162Y-225671D01*
X105757Y-224260D01*
X102102Y-223779D01*
X98447Y-224260D01*
X95041Y-225671D01*
X92117Y-227915D01*
X89873Y-230840D01*
X88466Y-234237D01*
X88438Y-234248D01*
X87160Y-234405D01*
X86310Y-232353D01*
X84547Y-230055D01*
X82249Y-228292D01*
X79573Y-227183D01*
X79202Y-227134D01*
Y-237900D01*
X74202D01*
Y-227134D01*
X73830Y-227183D01*
X71154Y-228292D01*
X68857Y-230055D01*
X67093Y-232353D01*
X66243Y-234405D01*
X64965Y-234248D01*
X64938Y-234237D01*
X63531Y-230840D01*
X61287Y-227915D01*
X58362Y-225671D01*
X54957Y-224260D01*
X51302Y-223779D01*
X47647Y-224260D01*
X44241Y-225671D01*
X41317Y-227915D01*
X39354Y-230473D01*
X39011Y-230576D01*
X38193D01*
X37850Y-230473D01*
X35887Y-227915D01*
X32962Y-225671D01*
X29557Y-224260D01*
X25902Y-223779D01*
X22247Y-224260D01*
X18841Y-225671D01*
X15917Y-227915D01*
X13673Y-230840D01*
X12266Y-234237D01*
X12238Y-234248D01*
X10960Y-234405D01*
X10110Y-232353D01*
X8347Y-230055D01*
X6049Y-228292D01*
X3373Y-227183D01*
X3002Y-227134D01*
Y-237900D01*
X-1998D01*
Y-227134D01*
X-2370Y-227183D01*
X-5046Y-228292D01*
X-7343Y-230055D01*
X-9107Y-232353D01*
X-9957Y-234405D01*
X-11235Y-234248D01*
X-11262Y-234237D01*
X-12669Y-230840D01*
X-14913Y-227915D01*
X-17838Y-225671D01*
X-21243Y-224260D01*
X-24898Y-223779D01*
X-28553Y-224260D01*
X-31959Y-225671D01*
X-34883Y-227915D01*
X-36846Y-230473D01*
X-37189Y-230576D01*
X-38007D01*
X-38350Y-230473D01*
X-40188Y-228078D01*
X-40116Y-226674D01*
X-39209Y-226298D01*
X-37225Y-224776D01*
X-35702Y-222791D01*
X-34745Y-220480D01*
X-34592Y-219320D01*
X-34480Y-219256D01*
X-32000Y-219582D01*
X-29520Y-219256D01*
X-27209Y-218298D01*
X-25224Y-216775D01*
X-23702Y-214791D01*
X-22745Y-212480D01*
X-22418Y-210000D01*
X-22745Y-207520D01*
X-23702Y-205209D01*
X-24183Y-204582D01*
Y-102418D01*
X-23702Y-101791D01*
X-22745Y-99480D01*
X-22418Y-97000D01*
X-22745Y-94520D01*
X-23702Y-92209D01*
X-25224Y-90225D01*
X-27209Y-88702D01*
X-29520Y-87745D01*
X-32000Y-87418D01*
X-34480Y-87745D01*
X-36791Y-88702D01*
X-38000Y-89629D01*
X-39209Y-88702D01*
X-41520Y-87745D01*
X-44000Y-87418D01*
X-46480Y-87745D01*
X-48791Y-88702D01*
X-50775Y-90225D01*
X-52298Y-92209D01*
X-53256Y-94520D01*
X-53582Y-97000D01*
X-53256Y-99480D01*
X-52298Y-101791D01*
X-51817Y-102418D01*
Y-212582D01*
X-52298Y-213209D01*
X-53256Y-215520D01*
X-53582Y-218000D01*
X-53256Y-220480D01*
X-52298Y-222791D01*
X-52199Y-222920D01*
X-52685Y-224093D01*
X-53953Y-224260D01*
X-57359Y-225671D01*
X-60283Y-227915D01*
X-62246Y-230473D01*
X-62589Y-230576D01*
X-63407D01*
X-63750Y-230473D01*
X-65713Y-227915D01*
X-68638Y-225671D01*
X-72043Y-224260D01*
X-75698Y-223779D01*
X-79353Y-224260D01*
X-82759Y-225671D01*
X-85683Y-227915D01*
X-87646Y-230473D01*
X-87989Y-230576D01*
X-88807D01*
X-89150Y-230473D01*
X-91113Y-227915D01*
X-94038Y-225671D01*
X-97443Y-224260D01*
X-101098Y-223779D01*
X-104753Y-224260D01*
X-106127Y-224830D01*
X-107042Y-224218D01*
X-107197Y-223898D01*
X-107450Y-221977D01*
X-108230Y-220092D01*
X-109473Y-218473D01*
X-135183Y-192762D01*
X-135183Y116762D01*
X-78473Y173473D01*
X-77230Y175091D01*
X-76449Y176977D01*
X-76183Y179000D01*
Y179582D01*
X-75702Y180209D01*
X-74745Y182520D01*
X-74418Y185000D01*
X-74745Y187480D01*
X-75702Y189791D01*
X-77224Y191775D01*
X-77341Y191865D01*
Y192905D01*
X-77151Y193320D01*
X-75702Y195209D01*
X-74745Y197520D01*
X-74418Y200000D01*
X-74745Y202480D01*
X-75702Y204791D01*
X-77224Y206775D01*
X-79209Y208298D01*
X-81520Y209256D01*
X-84000Y209582D01*
X-86480Y209256D01*
X-88791Y208298D01*
X-89418Y207817D01*
X-91762D01*
X-100183Y216238D01*
Y410762D01*
X-93290Y417655D01*
X-80528D01*
X-78505Y417921D01*
X-76620Y418702D01*
X-75001Y419944D01*
X-70174Y424771D01*
X-68932Y426390D01*
X-68151Y428275D01*
X-67884Y430299D01*
Y436251D01*
X-65717Y437915D01*
X-63753Y440474D01*
X-63410Y440576D01*
X-62593D01*
X-62249Y440474D01*
X-60286Y437915D01*
X-57362Y435671D01*
X-53956Y434260D01*
X-50301Y433779D01*
X-46647Y434260D01*
X-43241Y435671D01*
X-40317Y437915D01*
X-38353Y440474D01*
X-38010Y440576D01*
X-37193D01*
X-36850Y440474D01*
X-34886Y437915D01*
X-31962Y435671D01*
X-28556Y434260D01*
X-24901Y433779D01*
X-21247Y434260D01*
X-20873Y434415D01*
X-19817Y433710D01*
Y432418D01*
X-20298Y431791D01*
X-21256Y429480D01*
X-21582Y427000D01*
X-21256Y424520D01*
X-20298Y422209D01*
X-18776Y420224D01*
X-16791Y418702D01*
X-14480Y417744D01*
X-12000Y417418D01*
X-9520Y417744D01*
X-7209Y418702D01*
X-5224Y420224D01*
X-3702Y422209D01*
X-2745Y424520D01*
X-2418Y427000D01*
X-2745Y429480D01*
X-3702Y431791D01*
X-4157Y432384D01*
X-3990Y433661D01*
X-2913Y434228D01*
X499Y433779D01*
X3913Y434229D01*
X5183Y433570D01*
Y425418D01*
X4702Y424791D01*
X3744Y422480D01*
X3418Y420000D01*
X3744Y417520D01*
X4702Y415209D01*
X6224Y413224D01*
X8209Y411702D01*
X10520Y410745D01*
X13000Y410418D01*
X15480Y410745D01*
X17791Y411702D01*
X19500Y413013D01*
X21209Y411702D01*
X23520Y410745D01*
X26000Y410418D01*
X28480Y410745D01*
X30791Y411702D01*
X32775Y413224D01*
X34298Y415209D01*
X35255Y417520D01*
X35582Y420000D01*
X35255Y422480D01*
X34298Y424791D01*
X33716Y425550D01*
Y436251D01*
X35884Y437915D01*
X37847Y440474D01*
X38190Y440576D01*
X39007D01*
X39351Y440474D01*
D02*
G37*
%LPC*%
G36*
X-55496Y171330D02*
X-71496D01*
X-74041Y170995D01*
X-76413Y170012D01*
X-78450Y168450D01*
X-80012Y166413D01*
X-80995Y164041D01*
X-81330Y161496D01*
X-80995Y158951D01*
X-80012Y156579D01*
X-78450Y154542D01*
X-76413Y152979D01*
X-74041Y151997D01*
X-73330Y151903D01*
Y58823D01*
X-93496D01*
X-95780Y58522D01*
X-97908Y57641D01*
X-99736Y56238D01*
X-101139Y54410D01*
X-102021Y52282D01*
X-102321Y49998D01*
Y36016D01*
X-102751Y34978D01*
X-103078Y32497D01*
X-102751Y30017D01*
X-102321Y28979D01*
Y-46504D01*
X-102021Y-48788D01*
X-101139Y-50917D01*
X-99736Y-52745D01*
X-92821Y-59660D01*
Y-64485D01*
X-93251Y-65522D01*
X-93578Y-68003D01*
X-93251Y-70483D01*
X-92294Y-72793D01*
X-90771Y-74778D01*
X-88787Y-76301D01*
X-86476Y-77258D01*
X-83996Y-77585D01*
X-81516Y-77258D01*
X-79205Y-76301D01*
X-77220Y-74778D01*
X-75698Y-72793D01*
X-74740Y-70483D01*
X-74414Y-68003D01*
X-74740Y-65522D01*
X-75170Y-64485D01*
Y-56004D01*
X-75471Y-53720D01*
X-76353Y-51591D01*
X-77755Y-49764D01*
X-84670Y-42849D01*
Y28979D01*
X-84240Y30017D01*
X-83914Y32497D01*
X-84240Y34978D01*
X-84670Y36016D01*
Y41172D01*
X-72321D01*
Y36016D01*
X-72751Y34978D01*
X-73078Y32497D01*
X-72751Y30017D01*
X-71794Y27706D01*
X-70271Y25722D01*
X-68287Y24199D01*
X-65976Y23242D01*
X-63496Y22915D01*
X-61016Y23242D01*
X-58705Y24199D01*
X-56720Y25722D01*
X-55198Y27706D01*
X-54240Y30017D01*
X-53914Y32497D01*
X-54240Y34978D01*
X-54670Y36016D01*
Y41172D01*
X-42321D01*
Y36016D01*
X-42751Y34978D01*
X-43078Y32497D01*
X-42751Y30017D01*
X-41794Y27706D01*
X-40271Y25722D01*
X-38287Y24199D01*
X-35976Y23242D01*
X-33496Y22915D01*
X-31016Y23242D01*
X-28705Y24199D01*
X-26720Y25722D01*
X-25198Y27706D01*
X-24240Y30017D01*
X-23914Y32497D01*
X-24240Y34978D01*
X-24670Y36016D01*
Y49991D01*
X-24971Y52275D01*
X-25853Y54403D01*
X-27255Y56231D01*
X-27259Y56234D01*
X-27262Y56238D01*
X-29090Y57641D01*
X-31219Y58522D01*
X-33503Y58823D01*
X-53662D01*
Y151903D01*
X-52951Y151997D01*
X-50579Y152979D01*
X-48542Y154542D01*
X-46979Y156579D01*
X-45997Y158951D01*
X-45662Y161496D01*
X-45997Y164041D01*
X-46979Y166413D01*
X-48542Y168450D01*
X-50579Y170012D01*
X-52951Y170995D01*
X-55496Y171330D01*
D02*
G37*
%LPD*%
G36*
X-615317Y336378D02*
Y215564D01*
X-616587Y214937D01*
X-617709Y215798D01*
X-620020Y216756D01*
X-622183Y217040D01*
Y225832D01*
X-621702Y226459D01*
X-620745Y228770D01*
X-620418Y231250D01*
X-620745Y233730D01*
X-621702Y236041D01*
X-623224Y238025D01*
X-625209Y239548D01*
X-627520Y240506D01*
X-629683Y240790D01*
Y252082D01*
X-629202Y252709D01*
X-628245Y255020D01*
X-627918Y257500D01*
X-628245Y259980D01*
X-629202Y262291D01*
X-630724Y264275D01*
X-632709Y265798D01*
X-635020Y266756D01*
X-636433Y266942D01*
Y317058D01*
X-616587Y336904D01*
X-615317Y336378D01*
D02*
G37*
G36*
X-544847Y211975D02*
X-542884Y209417D01*
X-539960Y207173D01*
X-536562Y205765D01*
X-536551Y205738D01*
X-536395Y204460D01*
X-538447Y203610D01*
X-540745Y201847D01*
X-542508Y199549D01*
X-543616Y196873D01*
X-543665Y196502D01*
X-532900D01*
Y191502D01*
X-543665D01*
X-543616Y191130D01*
X-542508Y188454D01*
X-540745Y186156D01*
X-538447Y184393D01*
X-536395Y183543D01*
X-536551Y182265D01*
X-536562Y182238D01*
X-539960Y180831D01*
X-542884Y178587D01*
X-544847Y176028D01*
X-545191Y175925D01*
X-546008D01*
X-546351Y176028D01*
X-548315Y178587D01*
X-551239Y180831D01*
X-554637Y182238D01*
X-554648Y182265D01*
X-554804Y183543D01*
X-552752Y184393D01*
X-550454Y186156D01*
X-548691Y188454D01*
X-547583Y191130D01*
X-547534Y191502D01*
X-558299D01*
Y196502D01*
X-547534D01*
X-547583Y196873D01*
X-548691Y199549D01*
X-550454Y201847D01*
X-552752Y203610D01*
X-554804Y204460D01*
X-554648Y205738D01*
X-554637Y205765D01*
X-551239Y207173D01*
X-548315Y209417D01*
X-546351Y211975D01*
X-546008Y212078D01*
X-545191D01*
X-544847Y211975D01*
D02*
G37*
G36*
Y84975D02*
X-542884Y82417D01*
X-539960Y80173D01*
X-536562Y78765D01*
X-536551Y78738D01*
X-536395Y77460D01*
X-538447Y76610D01*
X-540745Y74847D01*
X-542508Y72549D01*
X-543616Y69873D01*
X-543665Y69502D01*
X-532900D01*
Y64502D01*
X-543665D01*
X-543616Y64130D01*
X-542508Y61454D01*
X-540745Y59156D01*
X-538447Y57393D01*
X-536395Y56543D01*
X-536551Y55265D01*
X-536562Y55238D01*
X-539960Y53831D01*
X-542884Y51586D01*
X-544847Y49028D01*
X-545191Y48925D01*
X-546008D01*
X-546351Y49028D01*
X-548315Y51586D01*
X-551239Y53831D01*
X-554637Y55238D01*
X-554648Y55265D01*
X-554804Y56543D01*
X-552752Y57393D01*
X-550454Y59156D01*
X-548691Y61454D01*
X-547583Y64130D01*
X-547534Y64502D01*
X-558299D01*
Y69502D01*
X-547534D01*
X-547583Y69873D01*
X-548691Y72549D01*
X-550454Y74847D01*
X-552752Y76610D01*
X-554804Y77460D01*
X-554648Y78738D01*
X-554637Y78765D01*
X-551239Y80173D01*
X-548315Y82417D01*
X-546351Y84975D01*
X-546008Y85078D01*
X-545191D01*
X-544847Y84975D01*
D02*
G37*
G36*
X316579Y235220D02*
X316418Y234000D01*
X316744Y231520D01*
X317702Y229209D01*
X319224Y227225D01*
X321209Y225702D01*
X323520Y224744D01*
X326000Y224418D01*
X328480Y224744D01*
X330791Y225702D01*
X332775Y227225D01*
X334298Y229209D01*
X334905Y230673D01*
X336175Y230420D01*
Y205580D01*
X334905Y205327D01*
X334298Y206791D01*
X332775Y208776D01*
X330791Y210298D01*
X328480Y211255D01*
X327696Y211359D01*
X310527Y228527D01*
X308909Y229770D01*
X308720Y230226D01*
X309256Y231520D01*
X309582Y234000D01*
X309421Y235220D01*
X310259Y236175D01*
X315741D01*
X316579Y235220D01*
D02*
G37*
G36*
X276782Y203944D02*
X276920Y202475D01*
X268262Y193817D01*
X257418D01*
X256791Y194298D01*
X254480Y195256D01*
X253266Y195415D01*
X252811Y196756D01*
X260238Y204183D01*
X276507D01*
X276782Y203944D01*
D02*
G37*
G36*
X443000Y86000D02*
X443000Y43614D01*
X445614Y41000D01*
X462000Y41000D01*
X463916Y39084D01*
Y-18750D01*
X463916Y-18750D01*
X463338Y-19409D01*
X410000D01*
X410000Y76614D01*
X412886Y79499D01*
X427499Y79499D01*
X434000Y86000D01*
X443000Y86000D01*
D02*
G37*
D10*
X252000Y186000D02*
X271500D01*
X287000Y201500D01*
X244209Y199209D02*
X257000Y212000D01*
X244209Y178936D02*
Y199209D01*
X235567Y204567D02*
X248000Y217000D01*
X235567Y193945D02*
Y204567D01*
X228335Y205336D02*
X246000Y223000D01*
X228335Y200901D02*
Y205336D01*
X257000Y212000D02*
X289500D01*
X248000Y217000D02*
X298000D01*
X246000Y223000D02*
X305000D01*
X-166048Y-352500D02*
Y-226318D01*
X-139399Y-250399D02*
Y-208601D01*
X-149000Y-199000D02*
X-139399Y-208601D01*
X-149000Y-199000D02*
Y125000D01*
X-175000Y-217366D02*
X-166048Y-226318D01*
X-175000Y-217366D02*
Y162500D01*
X165000Y-251202D02*
Y-219000D01*
X152902Y-263300D02*
X165000Y-251202D01*
X140000Y-250802D02*
Y-219000D01*
X127502Y-263300D02*
X140000Y-250802D01*
X-139399Y-250399D02*
X-126498Y-263300D01*
X-115000Y-249398D02*
Y-224000D01*
X-143000Y-196000D02*
X-115000Y-224000D01*
X-143000Y-196000D02*
X-143000Y120000D01*
X-115000Y-249398D02*
X-101098Y-263300D01*
X300000Y244213D02*
X300787Y245000D01*
X325960D02*
X326000Y244960D01*
X-32000Y-210000D02*
Y-97000D01*
X-44000Y-218000D02*
Y-97000D01*
X90000Y435000D02*
Y459999D01*
X76699Y473300D02*
X90000Y459999D01*
X25899Y420101D02*
X26000Y420000D01*
X25899Y420101D02*
Y447900D01*
X13000Y420000D02*
Y460799D01*
X499Y473300D02*
X13000Y460799D01*
X-12000Y427000D02*
Y460399D01*
X-24901Y473300D02*
X-12000Y460399D01*
X-84000Y179000D02*
Y185000D01*
X-143000Y120000D02*
X-84000Y179000D01*
X-149000Y125000D02*
X-96000Y178000D01*
X305000Y223000D02*
X326000Y202000D01*
X298000Y217000D02*
X313000Y202000D01*
X289500Y212000D02*
X300000Y201500D01*
X-80528Y425472D02*
X-75701Y430299D01*
X-96528Y425472D02*
X-80528D01*
X-108000Y414000D02*
X-96528Y425472D01*
X-108000Y213000D02*
Y414000D01*
X-75701Y430299D02*
Y447900D01*
X-95000Y200000D02*
X-84000D01*
X-108000Y213000D02*
X-95000Y200000D01*
X-126501Y473300D02*
X-113000Y459799D01*
Y210000D02*
Y459799D01*
Y210000D02*
X-96000Y193000D01*
X-485351Y142851D02*
X-477500Y150702D01*
X-472500Y144000D02*
Y192071D01*
X-485049Y92451D02*
X-478401Y99099D01*
Y130185D02*
X-467500Y141086D01*
X-485151Y131349D02*
X-472500Y144000D01*
X-477500Y194142D02*
X-420000Y251642D01*
X-477500Y150702D02*
Y194142D01*
X-485551Y168051D02*
Y193162D01*
X-492500Y193284D02*
X-437500Y248284D01*
X-532899Y41602D02*
X-510000Y64501D01*
Y197500D01*
X-502500Y202500D02*
X-490000Y215000D01*
X-482678Y210178D02*
Y214822D01*
X-452500Y245000D01*
X-497500Y195355D02*
X-482678Y210178D01*
X-485551Y193162D02*
X-427500Y251213D01*
Y272500D01*
X-545601Y257500D02*
X-487500D01*
X-532899Y244802D02*
X-490198D01*
X-558299D02*
X-545601Y257500D01*
X-558299Y295602D02*
X-546401Y307500D01*
X-532899Y295602D02*
X-484398D01*
X-470000Y310000D01*
X-420000Y251642D02*
Y287500D01*
X-472500Y192071D02*
X-412500Y252071D01*
Y302500D01*
X-546401Y307500D02*
X-487500D01*
X-467500Y190000D02*
X-407500Y250000D01*
Y290000D01*
X-430000Y297500D02*
Y367500D01*
X-590000Y200302D02*
Y282500D01*
Y200302D02*
X-558299Y168602D01*
X-532899Y219402D02*
X-508098D01*
X-607500Y141602D02*
X-558299Y92402D01*
X-544149Y-122048D02*
X-532899Y-110798D01*
X-544201Y-147500D02*
X-532899Y-136198D01*
X-574142Y-147500D02*
X-544201D01*
X-597500Y157002D02*
X-558299Y117802D01*
X-597500Y157002D02*
Y320000D01*
X-607500Y141602D02*
Y342500D01*
X-582500Y243602D02*
X-558299Y219402D01*
X-582500Y243602D02*
Y372500D01*
X-614773Y349773D02*
Y349773D01*
X-579546Y385000D01*
X-595000Y-48698D02*
Y92417D01*
X-659250Y329656D02*
X-582500Y406406D01*
X-579546Y385000D02*
X-500000D01*
X-659250Y135454D02*
Y329656D01*
X-615000Y140702D02*
Y180000D01*
X-574142Y57444D02*
Y99844D01*
Y57444D02*
X-558299Y41602D01*
X-615000Y140702D02*
X-574142Y99844D01*
X-579793Y37695D02*
X-558299Y16202D01*
X-622500Y141131D02*
X-579793Y98424D01*
X-622500Y141131D02*
Y207500D01*
X-579793Y37695D02*
Y98424D01*
X-630000Y141559D02*
Y230652D01*
X-584793Y17295D02*
Y96352D01*
Y17295D02*
X-558299Y-9198D01*
X-630000Y141559D02*
X-584793Y96352D01*
X-637500Y141988D02*
X-590000Y94488D01*
Y-2898D02*
X-558299Y-34598D01*
X-637500Y141988D02*
Y257500D01*
X-590000Y-2898D02*
Y94488D01*
X-644250Y141667D02*
X-595000Y92417D01*
X-644250Y320296D02*
X-614773Y349773D01*
X-595000Y-48698D02*
X-558299Y-85398D01*
X-644250Y141667D02*
Y320296D01*
X-605000Y-86792D02*
X-569744Y-122048D01*
X-605000Y-86792D02*
Y88275D01*
X-654250Y137525D02*
X-605000Y88275D01*
X-569744Y-122048D02*
X-544149D01*
X-649250Y139596D02*
X-600000Y90346D01*
X-610000Y-101102D02*
Y86204D01*
X-659250Y135454D02*
X-610000Y86204D01*
Y-101102D02*
X-574903Y-136198D01*
X-558299D01*
X-615000Y-106642D02*
X-574142Y-147500D01*
X-664250Y133383D02*
X-615000Y84133D01*
Y-106642D02*
Y84133D01*
X-582500Y406406D02*
Y437500D01*
X-577500Y432500D02*
X-569600Y440400D01*
X-527900D01*
X-520000Y432500D01*
X-577500Y401617D02*
Y432500D01*
X-581617Y397500D02*
X-577500Y401617D01*
X-653514Y325603D02*
X-581617Y397500D01*
X-532899Y16202D02*
X-502500Y46601D01*
Y202500D01*
X-497500Y26201D02*
Y195355D01*
X-532899Y-9198D02*
X-511750Y11951D01*
Y11951D01*
X-497500Y26201D01*
X-532899Y-34598D02*
X-506750Y-8449D01*
X-492500Y5801D02*
Y193284D01*
X-506750Y-8449D02*
Y-8449D01*
X-492500Y5801D01*
X-654250Y324867D02*
X-653514Y325603D01*
X-654250Y137525D02*
Y324867D01*
X-664250Y334202D02*
X-590000Y408452D01*
X-664250Y133383D02*
Y334202D01*
X-407500Y290000D02*
X-390000Y307500D01*
X-437500Y297500D02*
Y352500D01*
X-445000Y300000D02*
Y345000D01*
X-470000Y310000D02*
Y322500D01*
X-487500Y307500D02*
X-480000Y315000D01*
X-516750Y200750D02*
X-437500Y280000D01*
X-487500Y257500D02*
X-445000Y300000D01*
X-490198Y244802D02*
X-437500Y297500D01*
X-508098Y219402D02*
X-430000Y297500D01*
X-437500Y248284D02*
Y260000D01*
X-510000Y397500D02*
X-510000D01*
X-520952Y408452D02*
X-510000Y397500D01*
X-569600Y408452D02*
X-520952D01*
X-649250Y322796D02*
X-572500Y399546D01*
X-649250Y139596D02*
Y322796D01*
X-600000Y-72898D02*
Y90346D01*
Y-72898D02*
X-575398Y-97500D01*
X-572500Y405552D02*
X-569600Y408452D01*
X-575398Y-97500D02*
X-545001D01*
X-532899Y-85398D01*
X-572500Y399546D02*
Y405552D01*
X-522732Y154768D02*
X-516750Y160750D01*
X-546734Y154768D02*
X-522732D01*
X-558299Y143202D02*
X-546734Y154768D01*
X-516750Y160750D02*
Y200750D01*
X-452500Y305000D02*
Y337500D01*
X-487298Y270202D02*
X-452500Y305000D01*
X-532899Y270202D02*
X-487298D01*
X-460000Y305000D02*
Y330000D01*
X-482500Y282500D02*
X-460000Y305000D01*
X-546001Y282500D02*
X-482500D01*
X-558299Y270202D02*
X-546001Y282500D01*
X-485151Y117651D02*
Y131349D01*
X-478401Y99099D02*
Y130185D01*
X-467500Y141086D02*
Y190000D01*
D11*
X287000Y234000D02*
Y242000D01*
X433004Y-14000D02*
X436502Y-17498D01*
X431003Y-12000D02*
X433004Y-14000D01*
X436502D02*
Y-12000D01*
Y-3880D01*
Y16125D01*
X447639Y-3880D02*
X448000Y-4241D01*
X436502Y-3880D02*
X447639D01*
X436502Y16125D02*
Y30498D01*
Y16125D02*
X447875D01*
X448000Y16000D01*
X437000Y30000D02*
X448000D01*
X436502Y30498D02*
X437000Y30000D01*
X436502Y30498D02*
Y82130D01*
X-83996Y-68003D02*
Y-56004D01*
X-93496Y-46504D02*
X-83996Y-56004D01*
X-93496Y-46504D02*
Y32497D01*
X-63496Y49998D02*
X-33503D01*
X-93496D02*
X-63496D01*
X-93496Y32497D02*
Y49998D01*
X-33496Y32497D02*
Y49991D01*
X-63496Y32497D02*
Y49497D01*
X290000Y245000D02*
X300787D01*
X287000Y242000D02*
X290000Y245000D01*
X300787D02*
X325960D01*
X300000Y234000D02*
Y244213D01*
X325960Y245000D02*
X337500D01*
X326000Y234000D02*
Y244960D01*
X345000Y185000D02*
Y237500D01*
X337500Y245000D02*
X345000Y237500D01*
X-453000Y-541000D02*
Y-291000D01*
X12000Y-95000D02*
Y-67000D01*
Y-95000D02*
X17000Y-100000D01*
X38000D01*
D23*
X433004Y-14000D02*
X436502D01*
X243000D02*
X433004D01*
X229000Y-28000D02*
X243000Y-14000D01*
X436502Y-12000D02*
X448000D01*
X431003D02*
X436502D01*
X448000D02*
Y-4241D01*
Y16000D01*
Y30000D01*
X229000Y-198000D02*
Y-28000D01*
X-290000Y-468000D02*
Y-352500D01*
Y-468000D02*
X-271000Y-487000D01*
X7500Y-420000D02*
Y-352500D01*
Y-420000D02*
X20000Y-432500D01*
Y-489000D02*
Y-432500D01*
D24*
X90000Y-394000D02*
Y-337000D01*
X76951Y-237651D02*
Y-186249D01*
X1000Y-237402D02*
Y-186000D01*
X502Y-237900D02*
X1000Y-237402D01*
D25*
X-500Y-352500D02*
X7500D01*
X15500D01*
X-298000D02*
X-290000D01*
X-282000D01*
X-71496Y161496D02*
X-63496D01*
X-55496D01*
X185000Y162000D02*
X193000D01*
X177000D02*
X185000D01*
Y-1000D02*
X193000D01*
X185000D02*
Y29513D01*
Y36000D01*
Y162000D01*
X-63496Y49998D02*
Y161496D01*
D26*
X-175000Y402500D02*
Y416000D01*
Y176000D02*
Y402500D01*
X254888Y162500D02*
X266500D01*
X268000Y164000D01*
X289000Y185000D01*
X337252D02*
X345000D01*
X289000D02*
X337252D01*
X-190766Y416000D02*
X-175000D01*
Y162500D02*
X-159234D01*
X-175000D02*
Y176000D01*
D27*
X-497000Y-291000D02*
Y-174000D01*
X-506000Y-195000D02*
Y-123000D01*
X217000Y-195000D02*
Y-25000D01*
X223000Y-19000D01*
X473750Y-18750D02*
X474000Y-19000D01*
X473750Y-18750D02*
Y40750D01*
X474000Y41000D01*
X185000Y-6698D02*
Y-1000D01*
X182151Y-9547D02*
X185000Y-6698D01*
X182151Y-9998D02*
Y-9547D01*
X185000Y29513D02*
X185487Y30000D01*
X220000D01*
X115000Y85000D02*
X159000Y41000D01*
Y36000D02*
Y41000D01*
X170800Y-194900D02*
X202000Y-226101D01*
Y-375000D02*
Y-226101D01*
Y-375000D02*
X232000Y-405000D01*
X158100Y-192100D02*
X195000Y-229000D01*
Y-392000D02*
Y-229000D01*
Y-392000D02*
X210000Y-407000D01*
X70000Y-299000D02*
Y-271100D01*
X76702Y-264398D01*
Y-263300D01*
X-208000Y-397000D02*
Y-288000D01*
X-198000Y-397000D02*
Y-300000D01*
X-208000Y-397000D02*
X-197500Y-407500D01*
Y-526000D02*
Y-407500D01*
X-184500Y-526000D02*
Y-410500D01*
X-198000Y-397000D02*
X-184500Y-410500D01*
X79000Y-406000D02*
Y-283000D01*
X27000Y-406000D02*
Y-302000D01*
X40000Y-406000D02*
Y-292000D01*
X170800Y-194900D02*
Y-120229D01*
X158100Y-192100D02*
Y-120229D01*
X81000Y395000D02*
X94000Y382000D01*
X81000Y395000D02*
Y412000D01*
X101000Y402000D02*
X108000Y395000D01*
X101000Y402000D02*
Y420000D01*
X90000Y395900D02*
X101000Y384899D01*
X90000Y395900D02*
Y435000D01*
X115000Y85000D02*
Y427000D01*
X108000Y82000D02*
Y395000D01*
X101000Y79100D02*
Y384899D01*
X94000Y38000D02*
Y382000D01*
X101000Y79100D02*
X120000Y60100D01*
Y38000D02*
Y60100D01*
X108000Y82000D02*
X145934Y44066D01*
Y38066D02*
Y44066D01*
X132272Y26000D02*
X140000Y18272D01*
X133000Y38000D02*
X149000Y22000D01*
Y-203000D02*
Y22000D01*
Y-203000D02*
X165000Y-219000D01*
X140000D02*
Y18272D01*
X-252700Y-533700D02*
X-244000Y-525000D01*
X-212500D01*
X107000Y32000D02*
Y38000D01*
X113000Y26000D02*
X132272D01*
X107000Y32000D02*
X113000Y26000D01*
X40000Y-411000D02*
X60350Y-431350D01*
Y-470650D02*
Y-431350D01*
X40000Y-411000D02*
Y-406000D01*
X-252700Y-545800D02*
Y-533700D01*
X-258000Y-401000D02*
X-229000D01*
X-266000Y-393000D02*
X-258000Y-401000D01*
X232000Y-405000D02*
X278000D01*
D28*
X-558299Y-34598D02*
D03*
X-532899D02*
D03*
Y-59998D02*
D03*
X-558299D02*
D03*
X-532899Y-85398D02*
D03*
X-558299D02*
D03*
X-532899Y-110798D02*
D03*
X-558299D02*
D03*
X-532899Y-136198D02*
D03*
X-558299D02*
D03*
X-532899Y-161598D02*
D03*
X-558299D02*
D03*
X-532899Y-186998D02*
D03*
X-558299D02*
D03*
X-532899Y-212398D02*
D03*
Y-9198D02*
D03*
Y16202D02*
D03*
Y41602D02*
D03*
Y67002D02*
D03*
Y92402D02*
D03*
Y117802D02*
D03*
Y143202D02*
D03*
Y168602D02*
D03*
Y194002D02*
D03*
Y219402D02*
D03*
Y244802D02*
D03*
Y270202D02*
D03*
Y295602D02*
D03*
Y321002D02*
D03*
Y346402D02*
D03*
Y371802D02*
D03*
Y397202D02*
D03*
Y422602D02*
D03*
X-558299Y-9198D02*
D03*
Y16202D02*
D03*
Y41602D02*
D03*
Y67002D02*
D03*
Y92402D02*
D03*
Y117802D02*
D03*
Y143202D02*
D03*
Y168602D02*
D03*
Y194002D02*
D03*
Y219402D02*
D03*
Y244802D02*
D03*
Y270202D02*
D03*
Y295602D02*
D03*
Y321002D02*
D03*
Y346402D02*
D03*
Y371802D02*
D03*
Y397202D02*
D03*
Y422602D02*
D03*
X178299Y473300D02*
D03*
X152899D02*
D03*
X127499D02*
D03*
X102099D02*
D03*
X76699D02*
D03*
X51299D02*
D03*
X25899D02*
D03*
X499D02*
D03*
X-24901D02*
D03*
X-50301D02*
D03*
X-75701D02*
D03*
X-101101D02*
D03*
X-126501D02*
D03*
X-151901D02*
D03*
X-177301D02*
D03*
X-202701D02*
D03*
X-228101D02*
D03*
X-253501D02*
D03*
X178299Y447900D02*
D03*
X152899D02*
D03*
X127499D02*
D03*
X102099D02*
D03*
X76699D02*
D03*
X51299D02*
D03*
X25899D02*
D03*
X499D02*
D03*
X-24901D02*
D03*
X-50301D02*
D03*
X-75701D02*
D03*
X-101101D02*
D03*
X-126501D02*
D03*
X-151901D02*
D03*
X-177301D02*
D03*
X-202701D02*
D03*
X-228101D02*
D03*
X-253501D02*
D03*
X-456701D02*
D03*
X-431301Y473300D02*
D03*
Y447900D02*
D03*
X-405901Y473300D02*
D03*
Y447900D02*
D03*
X-380501Y473300D02*
D03*
Y447900D02*
D03*
X-355101Y473300D02*
D03*
Y447900D02*
D03*
X-329701Y473300D02*
D03*
Y447900D02*
D03*
X-304301Y473300D02*
D03*
Y447900D02*
D03*
X-278901D02*
D03*
Y473300D02*
D03*
X178302Y-237900D02*
D03*
X152902D02*
D03*
X127502D02*
D03*
X102102D02*
D03*
X76702D02*
D03*
X51302D02*
D03*
X25902D02*
D03*
X502D02*
D03*
X-24898D02*
D03*
X-50298D02*
D03*
X-75698D02*
D03*
X-101098D02*
D03*
X-126498D02*
D03*
X-151898D02*
D03*
X-177298D02*
D03*
X-202698D02*
D03*
X-228098D02*
D03*
X-253498D02*
D03*
X178302Y-263300D02*
D03*
X152902D02*
D03*
X127502D02*
D03*
X102102D02*
D03*
X76702D02*
D03*
X51302D02*
D03*
X25902D02*
D03*
X502D02*
D03*
X-24898D02*
D03*
X-50298D02*
D03*
X-75698D02*
D03*
X-101098D02*
D03*
X-126498D02*
D03*
X-151898D02*
D03*
X-177298D02*
D03*
X-202698D02*
D03*
X-228098D02*
D03*
X-253498D02*
D03*
X-456698D02*
D03*
X-431298Y-237900D02*
D03*
Y-263300D02*
D03*
X-405898Y-237900D02*
D03*
Y-263300D02*
D03*
X-380498Y-237900D02*
D03*
Y-263300D02*
D03*
X-355098Y-237900D02*
D03*
Y-263300D02*
D03*
X-329698Y-237900D02*
D03*
Y-263300D02*
D03*
X-304298Y-237900D02*
D03*
Y-263300D02*
D03*
X-278898D02*
D03*
Y-237900D02*
D03*
X132000Y-682700D02*
D03*
D29*
X-558299Y-212398D02*
D03*
X132000Y-657300D02*
D03*
D30*
X-456701Y473300D02*
D03*
X-456698Y-237900D02*
D03*
D31*
X205001Y-625000D02*
D03*
X240000D02*
D03*
X40000D02*
D03*
X5001D02*
D03*
D32*
X275001D02*
D03*
X75001D02*
D03*
D33*
X1000000Y-500000D02*
D03*
Y500000D02*
D03*
X-1000000D02*
D03*
X343000Y-283000D02*
D03*
Y493000D02*
D03*
X-793000D02*
D03*
Y-283000D02*
D03*
X-1000000Y-500000D02*
D03*
D34*
X-169600Y-545800D02*
D03*
X-183450Y-574200D02*
D03*
X-197300Y-545800D02*
D03*
X-211150Y-574200D02*
D03*
X-225000Y-545800D02*
D03*
X-238850Y-574200D02*
D03*
X-252700Y-545800D02*
D03*
X-266550Y-574200D02*
D03*
D35*
X-280400Y-545800D02*
D03*
D36*
X-349950Y-560000D02*
D03*
X-100050D02*
D03*
D37*
X252000Y186000D02*
D03*
X244209Y178936D02*
D03*
X235567Y193945D02*
D03*
X228335Y200901D02*
D03*
X287000Y201500D02*
D03*
X287000Y234000D02*
D03*
X90000Y-394000D02*
D03*
Y-337000D02*
D03*
X76951Y-186249D02*
D03*
X1000Y-186000D02*
D03*
X412000Y98000D02*
D03*
X344000Y137911D02*
D03*
X673000Y168000D02*
D03*
X637566Y169000D02*
D03*
X728000Y162000D02*
D03*
X702750Y161750D02*
D03*
X474750Y173250D02*
D03*
X461750Y161750D02*
D03*
X172000Y38000D02*
D03*
X942000Y623000D02*
D03*
Y523000D02*
D03*
Y423000D02*
D03*
Y323000D02*
D03*
Y223000D02*
D03*
Y123000D02*
D03*
Y23000D02*
D03*
Y-77000D02*
D03*
Y-177000D02*
D03*
Y-277000D02*
D03*
Y-377000D02*
D03*
Y-477000D02*
D03*
Y-577000D02*
D03*
Y-677000D02*
D03*
X842000Y623000D02*
D03*
Y523000D02*
D03*
Y423000D02*
D03*
Y323000D02*
D03*
Y223000D02*
D03*
Y123000D02*
D03*
Y23000D02*
D03*
Y-77000D02*
D03*
Y-177000D02*
D03*
Y-277000D02*
D03*
Y-377000D02*
D03*
Y-477000D02*
D03*
Y-577000D02*
D03*
Y-677000D02*
D03*
X742000Y623000D02*
D03*
Y523000D02*
D03*
Y423000D02*
D03*
Y323000D02*
D03*
Y223000D02*
D03*
Y123000D02*
D03*
Y23000D02*
D03*
Y-277000D02*
D03*
Y-377000D02*
D03*
Y-477000D02*
D03*
Y-577000D02*
D03*
Y-677000D02*
D03*
X642000Y623000D02*
D03*
Y523000D02*
D03*
Y423000D02*
D03*
Y323000D02*
D03*
Y123000D02*
D03*
Y23000D02*
D03*
Y-277000D02*
D03*
Y-377000D02*
D03*
Y-477000D02*
D03*
Y-577000D02*
D03*
Y-677000D02*
D03*
X542000Y623000D02*
D03*
Y523000D02*
D03*
Y423000D02*
D03*
Y123000D02*
D03*
Y23000D02*
D03*
Y-277000D02*
D03*
Y-377000D02*
D03*
Y-477000D02*
D03*
Y-577000D02*
D03*
Y-677000D02*
D03*
X442000Y623000D02*
D03*
Y523000D02*
D03*
Y423000D02*
D03*
Y223000D02*
D03*
Y-277000D02*
D03*
Y-377000D02*
D03*
Y-477000D02*
D03*
Y-577000D02*
D03*
Y-677000D02*
D03*
X342000Y623000D02*
D03*
Y423000D02*
D03*
Y23000D02*
D03*
Y-377000D02*
D03*
Y-477000D02*
D03*
Y-677000D02*
D03*
X242000Y623000D02*
D03*
Y523000D02*
D03*
Y423000D02*
D03*
Y23000D02*
D03*
Y-277000D02*
D03*
Y-677000D02*
D03*
X142000Y623000D02*
D03*
Y523000D02*
D03*
Y423000D02*
D03*
Y123000D02*
D03*
Y-277000D02*
D03*
Y-377000D02*
D03*
Y-477000D02*
D03*
X42000Y623000D02*
D03*
Y523000D02*
D03*
Y123000D02*
D03*
Y23000D02*
D03*
Y-177000D02*
D03*
Y-477000D02*
D03*
Y-677000D02*
D03*
X-58000Y623000D02*
D03*
Y523000D02*
D03*
Y423000D02*
D03*
Y-177000D02*
D03*
Y-377000D02*
D03*
Y-477000D02*
D03*
Y-577000D02*
D03*
Y-677000D02*
D03*
X-158000Y623000D02*
D03*
Y523000D02*
D03*
Y423000D02*
D03*
Y-377000D02*
D03*
Y-577000D02*
D03*
Y-677000D02*
D03*
X-258000Y623000D02*
D03*
Y523000D02*
D03*
Y123000D02*
D03*
Y23000D02*
D03*
Y-77000D02*
D03*
Y-177000D02*
D03*
Y-377000D02*
D03*
Y-677000D02*
D03*
X-358000Y623000D02*
D03*
Y523000D02*
D03*
Y123000D02*
D03*
Y23000D02*
D03*
Y-77000D02*
D03*
Y-177000D02*
D03*
Y-377000D02*
D03*
Y-477000D02*
D03*
Y-677000D02*
D03*
X-458000Y623000D02*
D03*
Y523000D02*
D03*
Y423000D02*
D03*
Y123000D02*
D03*
Y23000D02*
D03*
Y-77000D02*
D03*
Y-177000D02*
D03*
X-558000Y623000D02*
D03*
Y523000D02*
D03*
Y-377000D02*
D03*
Y-477000D02*
D03*
Y-577000D02*
D03*
Y-677000D02*
D03*
X-658000Y623000D02*
D03*
Y523000D02*
D03*
Y423000D02*
D03*
Y23000D02*
D03*
Y-77000D02*
D03*
Y-177000D02*
D03*
Y-277000D02*
D03*
Y-377000D02*
D03*
Y-477000D02*
D03*
Y-577000D02*
D03*
Y-677000D02*
D03*
X-758000Y623000D02*
D03*
Y523000D02*
D03*
Y423000D02*
D03*
Y323000D02*
D03*
Y223000D02*
D03*
Y123000D02*
D03*
Y23000D02*
D03*
Y-77000D02*
D03*
Y-177000D02*
D03*
Y-277000D02*
D03*
Y-377000D02*
D03*
Y-477000D02*
D03*
Y-577000D02*
D03*
Y-677000D02*
D03*
X-858000Y623000D02*
D03*
Y523000D02*
D03*
Y423000D02*
D03*
Y323000D02*
D03*
Y223000D02*
D03*
Y123000D02*
D03*
Y23000D02*
D03*
Y-77000D02*
D03*
Y-177000D02*
D03*
Y-277000D02*
D03*
Y-377000D02*
D03*
Y-477000D02*
D03*
Y-577000D02*
D03*
Y-677000D02*
D03*
X-958000Y623000D02*
D03*
Y523000D02*
D03*
Y423000D02*
D03*
Y323000D02*
D03*
Y223000D02*
D03*
Y123000D02*
D03*
Y23000D02*
D03*
Y-77000D02*
D03*
Y-177000D02*
D03*
Y-277000D02*
D03*
Y-377000D02*
D03*
Y-477000D02*
D03*
Y-577000D02*
D03*
Y-677000D02*
D03*
X-622000Y289000D02*
D03*
Y323000D02*
D03*
X-500Y-352500D02*
D03*
X15500D02*
D03*
X-298000D02*
D03*
X-282000D02*
D03*
X-165949Y-352500D02*
D03*
X-71496Y161496D02*
D03*
X-55496D02*
D03*
X193000Y162000D02*
D03*
X177000D02*
D03*
X254888Y162500D02*
D03*
X337252Y185000D02*
D03*
X-175000Y402500D02*
D03*
X-190766Y416000D02*
D03*
X-159234Y162500D02*
D03*
X-175000Y176000D02*
D03*
X436502Y82130D02*
D03*
X448000Y30000D02*
D03*
X229000Y-198000D02*
D03*
X-497000Y-291000D02*
D03*
Y-174000D02*
D03*
X507000Y226000D02*
D03*
X493000Y169000D02*
D03*
X512000D02*
D03*
X-506000Y-123000D02*
D03*
Y-195000D02*
D03*
X217000D02*
D03*
X223000Y-19000D02*
D03*
X474000D02*
D03*
X448000Y16000D02*
D03*
X185000Y162000D02*
D03*
X193000Y-32997D02*
D03*
X182151Y-9998D02*
D03*
X193000Y-1000D02*
D03*
X220000Y30000D02*
D03*
X185000Y36000D02*
D03*
X159000D02*
D03*
X-63496Y161496D02*
D03*
X-175000Y416000D02*
D03*
X482000Y30000D02*
D03*
Y16000D02*
D03*
X452000Y51000D02*
D03*
X474000Y41000D02*
D03*
X345000Y185000D02*
D03*
X268000Y164000D02*
D03*
X252999Y139220D02*
D03*
X-290000Y-352500D02*
D03*
X7500D02*
D03*
X-175000Y162500D02*
D03*
X70000Y-299000D02*
D03*
X-453000Y-291000D02*
D03*
X-198000Y-300000D02*
D03*
X-208000Y-288000D02*
D03*
X79000Y-283000D02*
D03*
X27000Y-302000D02*
D03*
X40000Y-292000D02*
D03*
X210000Y-407000D02*
D03*
X170800Y-120229D02*
D03*
X158100D02*
D03*
X-32000Y-97000D02*
D03*
X-44000D02*
D03*
X-32000Y-210000D02*
D03*
X-44000Y-218000D02*
D03*
X81000Y412000D02*
D03*
X101000Y420000D02*
D03*
X26000D02*
D03*
X13000D02*
D03*
X115000Y427000D02*
D03*
X-12000D02*
D03*
X145934Y38066D02*
D03*
X94000Y38000D02*
D03*
X313000Y234000D02*
D03*
X326000D02*
D03*
X300000D02*
D03*
X326000Y202000D02*
D03*
X-485551Y168051D02*
D03*
X-485351Y142851D02*
D03*
X-485151Y117651D02*
D03*
X-485049Y92451D02*
D03*
X-510000Y197500D02*
D03*
X-490000Y215000D02*
D03*
X-452500Y245000D02*
D03*
X-427500Y272500D02*
D03*
X-430000Y367500D02*
D03*
X-420000Y287500D02*
D03*
X-412500Y302500D02*
D03*
X-590000Y282500D02*
D03*
X-437500Y280000D02*
D03*
X-607500Y342500D02*
D03*
X-615000Y180000D02*
D03*
X-622500Y207500D02*
D03*
X-630000Y231250D02*
D03*
X-637500Y257500D02*
D03*
X-597500Y320000D02*
D03*
X-582500Y372500D02*
D03*
X-500000Y385000D02*
D03*
X-510000Y397500D02*
D03*
X-520000Y432500D02*
D03*
X-582500Y440400D02*
D03*
X-590000Y408452D02*
D03*
X-390000Y307500D02*
D03*
X-437500Y352500D02*
D03*
X-445000Y345000D02*
D03*
X-452500Y337500D02*
D03*
X-460000Y330000D02*
D03*
X-470000Y322500D02*
D03*
X-480000Y315000D02*
D03*
X-437500Y260000D02*
D03*
X-33496Y32497D02*
D03*
X-63496D02*
D03*
X-93496D02*
D03*
X-78496D02*
D03*
X-84000Y200000D02*
D03*
X-96000Y193000D02*
D03*
X-84000Y185000D02*
D03*
X-96000Y178000D02*
D03*
X313000Y202000D02*
D03*
X300000Y201500D02*
D03*
X268000Y200000D02*
D03*
X120000Y38000D02*
D03*
X-212500Y-525000D02*
D03*
X-18496Y32497D02*
D03*
X-48496D02*
D03*
X-20996Y-30003D02*
D03*
X60350Y-470650D02*
D03*
X107000Y38000D02*
D03*
X133000D02*
D03*
X27000Y-406000D02*
D03*
X40000D02*
D03*
X53000Y-406003D02*
D03*
X66000D02*
D03*
X79000Y-406000D02*
D03*
X-184500Y-526000D02*
D03*
X-197500D02*
D03*
X-229000Y-401000D02*
D03*
X-266000Y-393000D02*
D03*
X444002Y98000D02*
D03*
X380002Y105000D02*
D03*
X368002Y128000D02*
D03*
X368502Y137000D02*
D03*
X367502Y119000D02*
D03*
X-271000Y-457000D02*
D03*
X-242000Y-460000D02*
D03*
X-271000Y-487000D02*
D03*
X-25000Y-507000D02*
D03*
X-14000D02*
D03*
X-3000D02*
D03*
X132000D02*
D03*
X121000D02*
D03*
X110000D02*
D03*
X175000Y-589000D02*
D03*
X186000D02*
D03*
X197000D02*
D03*
X291000D02*
D03*
X302000D02*
D03*
X313000D02*
D03*
X20000Y-489000D02*
D03*
Y-519000D02*
D03*
X73000D02*
D03*
X210000Y-486000D02*
D03*
X278000Y-405000D02*
D03*
X237000Y-389000D02*
D03*
X311000Y-607000D02*
D03*
X-241855Y-384145D02*
D03*
X-181855Y-391855D02*
D03*
X-83996Y-97002D02*
D03*
X-57350Y-62357D02*
D03*
X-83996Y-68003D02*
D03*
X69000Y-126000D02*
D03*
X12000Y-67000D02*
D03*
X38000Y-100000D02*
D03*
X4000Y-71000D02*
D03*
X16000Y-49000D02*
D03*
X482000Y94500D02*
D03*
X482000Y106998D02*
D03*
X-437000Y-541000D02*
D03*
X-453000Y-541000D02*
D03*
M02*
