G04 Layer_Color=8388736*
%FSLAX44Y44*%
%MOMM*%
G71*
G01*
G75*
%ADD50R,2.0000X2.0000*%
%ADD51C,2.0000*%
%ADD52C,1.7900*%
%ADD53R,1.7900X1.7900*%
%ADD54C,4.8600*%
%ADD55C,1.6000*%
%ADD56R,1.6000X1.6000*%
%ADD57C,6.1000*%
G36*
X53240Y93001D02*
X53254Y92973D01*
X53268Y92946D01*
X53296Y92890D01*
X53323Y92807D01*
X53365Y92710D01*
Y92696D01*
X53379Y92668D01*
X53421Y92571D01*
X53476Y92460D01*
X53490Y92419D01*
Y92391D01*
Y92377D01*
Y92336D01*
Y92280D01*
Y92225D01*
X53504Y92100D01*
X53518Y92044D01*
X53531Y92016D01*
Y92030D01*
X53545Y92058D01*
X53559Y92128D01*
X53573Y92225D01*
Y92211D01*
X53601Y92183D01*
X53629Y92114D01*
X53670Y92016D01*
X53726Y91892D01*
X53795Y91725D01*
X53864Y91531D01*
X53948Y91281D01*
X53934D01*
X53892Y91309D01*
X53823Y91351D01*
X53753Y91406D01*
X53670Y91503D01*
X53573Y91628D01*
X53490Y91781D01*
X53421Y91989D01*
X53143Y92849D01*
X53157Y92863D01*
X53185Y92904D01*
X53226Y92960D01*
X53240Y93015D01*
Y93001D01*
D02*
G37*
G36*
X32080Y124288D02*
X32177Y124274D01*
X32302D01*
X32440Y124247D01*
X32731Y124205D01*
X33064Y124122D01*
X33425Y124025D01*
X33786Y123886D01*
X33799Y123872D01*
X33855Y123844D01*
X33938Y123775D01*
X34063Y123692D01*
X34215Y123581D01*
X34410Y123456D01*
X34632Y123304D01*
X34895Y123123D01*
X34909D01*
X34964Y123110D01*
X35048Y123096D01*
X35159Y123082D01*
X35172Y123068D01*
X35214Y123040D01*
X35283Y122985D01*
X35380Y122915D01*
X35491Y122818D01*
X35630Y122707D01*
X35796Y122569D01*
X35977Y122416D01*
X36004Y122374D01*
X36018Y122347D01*
X36046Y122291D01*
X36088Y122222D01*
X36143Y122125D01*
X36226Y122000D01*
X36310Y121847D01*
X36407Y121667D01*
X36531Y121459D01*
X36684Y121209D01*
X36864Y120904D01*
X37058Y120572D01*
X37280Y120183D01*
Y120169D01*
X37294Y120155D01*
X37308Y120114D01*
X37322Y120058D01*
X37350Y119989D01*
X37377Y119906D01*
X37419Y119795D01*
X37461Y119684D01*
Y119670D01*
X37475Y119642D01*
X37530Y119545D01*
X37627Y119434D01*
X37682Y119407D01*
X37738Y119393D01*
X37821D01*
X38515Y116356D01*
Y116328D01*
Y116272D01*
X38528Y116175D01*
Y116147D01*
X38542Y116106D01*
X38556Y116051D01*
Y116009D01*
X38570Y115995D01*
X38584Y115953D01*
X38612Y115926D01*
X38626Y115898D01*
Y115884D01*
X38639Y115856D01*
X38653Y115787D01*
X38667Y115676D01*
Y115648D01*
X38653Y115607D01*
X38639Y115551D01*
X38626Y115496D01*
X38612Y115468D01*
X38598Y115413D01*
X38584Y115343D01*
Y115288D01*
Y115260D01*
X38598Y115204D01*
Y115163D01*
X38612Y115107D01*
Y115080D01*
Y115024D01*
X38626Y114955D01*
Y114941D01*
Y114927D01*
Y114913D01*
Y114886D01*
X38612Y114844D01*
X38598Y114788D01*
X38584Y114719D01*
X38556Y114622D01*
X38528Y114511D01*
X38487Y114359D01*
X38431Y114192D01*
X38376Y113998D01*
X38293Y113762D01*
X38210Y113485D01*
X38099Y113180D01*
X37988Y112833D01*
X37849Y112445D01*
X37821Y112417D01*
X37766Y112375D01*
X37669Y112292D01*
X37599Y112237D01*
X37516Y112167D01*
X37419Y112084D01*
X37308Y111987D01*
X37183Y111876D01*
X37031Y111737D01*
X36864Y111585D01*
X36670Y111418D01*
X36656D01*
X36642Y111391D01*
X36559Y111335D01*
X36434Y111238D01*
X36282Y111127D01*
X36102Y111002D01*
X35893Y110891D01*
X35672Y110780D01*
X35450Y110711D01*
X35436D01*
X35366Y110697D01*
X35283Y110669D01*
X35145Y110656D01*
X34992Y110628D01*
X34798Y110600D01*
X34562Y110586D01*
X34174D01*
X34077Y110600D01*
X33938Y110614D01*
X33799Y110642D01*
X33619Y110669D01*
X33439Y110711D01*
X33231Y110753D01*
X33009Y110822D01*
X32773Y110891D01*
X32537Y110989D01*
X32288Y111099D01*
X32024Y111224D01*
X31761Y111377D01*
X31497Y111543D01*
X31470Y111557D01*
X31442Y111585D01*
X31400Y111613D01*
X31331Y111668D01*
X31261Y111723D01*
X31164Y111807D01*
X31053Y111904D01*
X30929Y112015D01*
X30776Y112140D01*
X30610Y112292D01*
X30429Y112459D01*
X30221Y112653D01*
X29986Y112875D01*
X29722Y113124D01*
X29445Y113388D01*
X29417Y113415D01*
X29403Y113443D01*
X29362Y113485D01*
X29320Y113554D01*
X29278Y113624D01*
X29223Y113721D01*
X29153Y113818D01*
X29098Y113956D01*
X29029Y114095D01*
X28959Y114261D01*
X28876Y114442D01*
X28807Y114650D01*
X28737Y114886D01*
X28668Y115135D01*
X28599Y115413D01*
Y115426D01*
X28585Y115468D01*
X28571Y115551D01*
X28543Y115648D01*
X28516Y115759D01*
X28488Y115898D01*
X28460Y116051D01*
X28432Y116217D01*
X28377Y116591D01*
X28321Y116994D01*
X28280Y117396D01*
X28266Y117798D01*
Y117826D01*
Y117895D01*
X28280Y118020D01*
Y118186D01*
X28307Y118380D01*
X28335Y118630D01*
X28377Y118907D01*
X28432Y119226D01*
Y119240D01*
Y119268D01*
X28418Y119310D01*
Y119365D01*
X28405Y119518D01*
Y119712D01*
Y119740D01*
X28432Y119809D01*
X28460Y119934D01*
X28502Y120086D01*
X28543Y120267D01*
X28599Y120475D01*
X28654Y120696D01*
X28710Y120932D01*
X28835Y121418D01*
X28904Y121653D01*
X28959Y121875D01*
X29029Y122069D01*
X29084Y122250D01*
X29126Y122388D01*
X29167Y122499D01*
Y122513D01*
X29195Y122555D01*
X29237Y122624D01*
X29278Y122707D01*
X29348Y122818D01*
X29431Y122943D01*
X29528Y123068D01*
X29639Y123193D01*
X29764Y123331D01*
X29902Y123470D01*
X30069Y123595D01*
X30235Y123720D01*
X30429Y123831D01*
X30637Y123928D01*
X30859Y123997D01*
X31095Y124052D01*
X31123Y124066D01*
X31192Y124094D01*
X31303Y124136D01*
X31428Y124177D01*
X31553Y124219D01*
X31664Y124261D01*
X31761Y124288D01*
X31816Y124302D01*
X31983D01*
X32080Y124288D01*
D02*
G37*
G36*
X36628Y109643D02*
X36726Y109615D01*
X36823Y109574D01*
X36934Y109491D01*
X37031Y109366D01*
X37058Y109297D01*
X37086Y109199D01*
X37114Y109102D01*
Y108978D01*
Y108409D01*
Y108395D01*
X37100Y108367D01*
X37086Y108340D01*
X37058Y108284D01*
X37003Y108201D01*
X36948Y108104D01*
X36864Y107979D01*
X36850Y107965D01*
X36823Y107910D01*
X36767Y107840D01*
X36712Y107757D01*
X36601Y107577D01*
X36573Y107507D01*
X36545Y107452D01*
Y107438D01*
X36531Y107410D01*
X36504Y107369D01*
X36490Y107313D01*
X36462Y107230D01*
X36421Y107147D01*
X36337Y106925D01*
X36254Y106675D01*
X36171Y106384D01*
X36088Y106065D01*
X36018Y105746D01*
Y105718D01*
X36004Y105663D01*
X35977Y105552D01*
X35949Y105413D01*
X35921Y105247D01*
X35893Y105053D01*
X35852Y104831D01*
X35810Y104595D01*
X35783Y104346D01*
X35741Y104082D01*
X35672Y103541D01*
X35630Y103028D01*
X35616Y102778D01*
Y102543D01*
Y102515D01*
X35630Y102459D01*
X35658Y102390D01*
X35727Y102293D01*
X35616Y102154D01*
Y102127D01*
X35644Y102057D01*
X35686Y101946D01*
X35769Y101794D01*
X35824Y101711D01*
X35893Y101627D01*
X35977Y101544D01*
X36074Y101447D01*
X36199Y101350D01*
X36337Y101253D01*
X36490Y101170D01*
X36670Y101073D01*
X36684Y101059D01*
X36712Y101031D01*
X36767Y100989D01*
X36837Y100934D01*
X36920Y100851D01*
X37031Y100767D01*
X37155Y100656D01*
X37308Y100546D01*
X37336D01*
X37405Y100518D01*
X37530Y100490D01*
X37682Y100449D01*
X37696D01*
X37710Y100435D01*
X37752Y100421D01*
X37807Y100393D01*
X37877Y100351D01*
X37946Y100310D01*
X38154Y100185D01*
X38168Y100171D01*
X38196Y100129D01*
X38251Y100060D01*
X38334Y99963D01*
X38445Y99838D01*
X38556Y99700D01*
X38709Y99533D01*
X38875Y99339D01*
X38861Y99325D01*
X38847Y99297D01*
X38820Y99242D01*
X38778Y99173D01*
X38667Y99020D01*
X38556Y98840D01*
X38542Y98826D01*
X38515Y98798D01*
X38473Y98757D01*
X38418Y98701D01*
X38334Y98646D01*
X38251Y98604D01*
X38154Y98576D01*
X38043Y98562D01*
X37891D01*
X37794Y98576D01*
X37599Y98604D01*
X37516Y98618D01*
X37461Y98646D01*
X37447Y98659D01*
X37419Y98687D01*
X37364Y98743D01*
X37280Y98812D01*
X37100Y98979D01*
X36892Y99159D01*
X36878Y99173D01*
X36823Y99214D01*
X36739Y99284D01*
X36628Y99367D01*
X36490Y99450D01*
X36351Y99547D01*
X36199Y99644D01*
X36046Y99727D01*
X36032Y99741D01*
X35991D01*
X35977Y99727D01*
X35949Y99713D01*
X35880Y99700D01*
X35796Y99686D01*
X35686Y99658D01*
X35519Y99630D01*
X35477D01*
X35408Y99616D01*
X35366D01*
X35283Y99630D01*
X35186Y99686D01*
X35131Y99713D01*
X35089Y99769D01*
Y99783D01*
X35061Y99811D01*
X35048Y99866D01*
X35006Y99935D01*
X34937Y100116D01*
X34839Y100310D01*
X34826Y100338D01*
X34798Y100393D01*
X34756Y100476D01*
X34701Y100587D01*
X34632Y100698D01*
X34562Y100795D01*
X34493Y100892D01*
X34410Y100962D01*
X34396Y100976D01*
X34354Y101003D01*
X34285Y101045D01*
X34160Y101114D01*
X34091Y101170D01*
X33993Y101225D01*
X33883Y101281D01*
X33758Y101364D01*
X33619Y101447D01*
X33453Y101544D01*
X33439Y101558D01*
X33425Y101572D01*
X33383Y101614D01*
X33328Y101669D01*
X33272Y101724D01*
X33189Y101808D01*
X33078Y101905D01*
X32967Y102002D01*
X32953Y102016D01*
X32912Y102029D01*
X32843Y102071D01*
X32745Y102141D01*
X32621Y102210D01*
X32482Y102293D01*
X32302Y102404D01*
X32094Y102529D01*
X31872Y102668D01*
X31622Y102820D01*
X31345Y103000D01*
X31053Y103181D01*
X30721Y103389D01*
X30374Y103610D01*
X29999Y103846D01*
X29611Y104096D01*
X29583D01*
X29514Y104124D01*
X29389Y104151D01*
X29237Y104193D01*
X27656Y105136D01*
X27573D01*
X27462Y105150D01*
X27323Y105178D01*
X26643Y105677D01*
Y105691D01*
X26629Y105705D01*
X26602Y105774D01*
X26574Y105843D01*
Y105857D01*
X26560Y105871D01*
Y105885D01*
X26574Y105954D01*
X26616Y106079D01*
X26699Y106218D01*
X26754Y106287D01*
X26824Y106370D01*
X26921Y106454D01*
X27018Y106537D01*
X27143Y106620D01*
X27295Y106703D01*
X27462Y106772D01*
X27656Y106842D01*
X27669D01*
X27711Y106856D01*
X27794Y106883D01*
X27850Y106911D01*
X27919Y106925D01*
X28016Y106953D01*
X28127Y106994D01*
X28252Y107036D01*
X28405Y107078D01*
X28571Y107133D01*
X28765Y107202D01*
X28779D01*
X28793Y107216D01*
X28835Y107230D01*
X28890Y107244D01*
X29042Y107299D01*
X29237Y107355D01*
X29472Y107424D01*
X29736Y107507D01*
X30027Y107591D01*
X30318Y107674D01*
X30332D01*
X30388Y107688D01*
X30457Y107702D01*
X30568Y107716D01*
X30693Y107729D01*
X30845Y107757D01*
X31012Y107785D01*
X31192Y107813D01*
X31594Y107896D01*
X32038Y107979D01*
X32482Y108062D01*
X32926Y108159D01*
X32940D01*
X32967Y108173D01*
X33023Y108187D01*
X33092Y108201D01*
X33189Y108229D01*
X33300Y108256D01*
X33439Y108298D01*
X33591Y108354D01*
X33772Y108409D01*
X33952Y108464D01*
X34160Y108548D01*
X34396Y108631D01*
X34645Y108714D01*
X34895Y108825D01*
X35186Y108936D01*
X35477Y109061D01*
X35505Y109075D01*
X35533Y109102D01*
X35588Y109144D01*
X35658Y109186D01*
X35755Y109255D01*
X35880Y109324D01*
X36018Y109408D01*
X36032Y109421D01*
X36074Y109449D01*
X36143Y109491D01*
X36226Y109532D01*
X36407Y109615D01*
X36476Y109643D01*
X36545Y109657D01*
X36573D01*
X36628Y109643D01*
D02*
G37*
G36*
X28723Y88938D02*
X28737Y88882D01*
X28765Y88813D01*
X28807Y88716D01*
X28876Y88494D01*
X28890Y88383D01*
X28904Y88272D01*
Y88286D01*
Y88300D01*
Y88314D01*
X28918D01*
X28932Y88300D01*
Y88272D01*
X28945Y88244D01*
X28959Y88189D01*
X28987Y88106D01*
X29001Y88009D01*
X29029Y87884D01*
X29015Y87842D01*
Y87801D01*
Y87731D01*
X29001Y87634D01*
Y87509D01*
Y87343D01*
X29015Y87315D01*
X29029Y87260D01*
X29042Y87204D01*
X29070Y87149D01*
X29084Y87121D01*
X29098Y87065D01*
X29112Y86996D01*
X29126Y86941D01*
Y86913D01*
X29140Y86830D01*
Y86705D01*
X29167Y86525D01*
X29195Y86303D01*
X29223Y86025D01*
X29264Y85720D01*
X29320Y85360D01*
X29611Y83363D01*
Y83349D01*
X29597Y83307D01*
X29583Y83238D01*
Y83224D01*
X29569Y83182D01*
X29556Y83127D01*
Y83085D01*
Y83071D01*
X29569Y83030D01*
X29583Y82974D01*
X29597Y82877D01*
X29625Y82752D01*
X29653Y82586D01*
X29694Y82378D01*
X29722Y82239D01*
X29736Y82101D01*
X29764Y81948D01*
X29791Y81768D01*
X29833Y81574D01*
X29861Y81379D01*
X29902Y81144D01*
X29944Y80908D01*
X29986Y80644D01*
X30041Y80353D01*
X30083Y80048D01*
X30138Y79729D01*
X30208Y79382D01*
X30263Y79008D01*
X30277D01*
X30291Y78980D01*
X30332Y78952D01*
X30402Y78911D01*
X30471Y78869D01*
X30582Y78814D01*
X30693Y78758D01*
X30831Y78703D01*
X30984Y78633D01*
X31164Y78564D01*
X31372Y78495D01*
X31594Y78439D01*
X31844Y78370D01*
X32121Y78315D01*
X32413Y78259D01*
X32731Y78218D01*
Y78231D01*
X32759Y78259D01*
X32773Y78315D01*
X32801Y78398D01*
X32829Y78495D01*
X32843Y78592D01*
X32870Y78717D01*
Y78855D01*
Y78869D01*
X32856Y78897D01*
X32843Y78952D01*
X32829Y79008D01*
X32815Y79063D01*
Y79077D01*
X32801Y79091D01*
X32787Y79160D01*
X32773Y79216D01*
X32759Y79244D01*
Y79258D01*
Y79271D01*
Y79285D01*
X32773Y79299D01*
X32787Y79341D01*
X32801Y79396D01*
X32829Y79479D01*
X32856Y79577D01*
Y79590D01*
Y79632D01*
Y79688D01*
Y79785D01*
Y79896D01*
Y80048D01*
Y80215D01*
X32843Y80409D01*
Y80644D01*
Y80894D01*
X32829Y81185D01*
Y81490D01*
X32815Y81837D01*
Y82212D01*
X32801Y82628D01*
X32787Y83057D01*
X32718Y85249D01*
Y85263D01*
Y85290D01*
Y85304D01*
Y85332D01*
Y85387D01*
X32731Y85429D01*
X32773Y85540D01*
X32815Y85582D01*
X32856Y85609D01*
X32870D01*
X32898Y85623D01*
X32953Y85637D01*
X33009Y85651D01*
X33189Y85679D01*
X33383Y85720D01*
X33397Y85706D01*
X33425Y85637D01*
X33480Y85540D01*
X33550Y85387D01*
X33591Y85276D01*
X33647Y85166D01*
X33688Y85041D01*
X33730Y84902D01*
X33786Y84749D01*
X33841Y84569D01*
X33883Y84375D01*
X33938Y84167D01*
Y84153D01*
X33952Y84125D01*
X33966Y84056D01*
X33980Y83987D01*
X33993Y83876D01*
X34021Y83751D01*
X34035Y83598D01*
X34063Y83432D01*
X34091Y83238D01*
X34104Y83030D01*
X34132Y82794D01*
X34146Y82544D01*
X34160Y82281D01*
X34174Y81976D01*
X34188Y81671D01*
Y81338D01*
Y81324D01*
Y81282D01*
Y81213D01*
Y81116D01*
X34202Y80991D01*
Y80852D01*
X34215Y80672D01*
X34229Y80478D01*
X34243Y80242D01*
X34257Y79993D01*
X34285Y79715D01*
X34313Y79410D01*
X34354Y79077D01*
X34396Y78717D01*
X34437Y78342D01*
X34493Y77940D01*
Y77926D01*
X34507Y77899D01*
X34520Y77857D01*
X34548Y77801D01*
X34590Y77746D01*
X34645Y77691D01*
X34729Y77649D01*
X34826Y77621D01*
X35186Y77538D01*
X35200D01*
X35242Y77510D01*
X35297Y77496D01*
X35380Y77455D01*
X35491Y77427D01*
X35602Y77385D01*
X35866Y77288D01*
X36143Y77191D01*
X36407Y77122D01*
X36656Y77066D01*
X36753Y77039D01*
X37169D01*
Y77052D01*
X37183Y77108D01*
X37197Y77177D01*
X37225Y77261D01*
X36476Y82711D01*
Y82725D01*
Y82752D01*
Y82808D01*
Y82891D01*
X36462Y83016D01*
Y83196D01*
X36448Y83404D01*
X36434Y83543D01*
Y83682D01*
X36421Y83793D01*
X36365Y84611D01*
Y84625D01*
X36379Y84666D01*
X36407Y84736D01*
X36462Y84833D01*
Y84847D01*
Y84874D01*
Y84930D01*
Y85013D01*
X36476Y85152D01*
Y85235D01*
Y85332D01*
Y85457D01*
Y85582D01*
Y85720D01*
Y85887D01*
Y85901D01*
Y85914D01*
X36462Y85942D01*
Y85998D01*
X36448Y86067D01*
X36434Y86164D01*
X36421Y86289D01*
Y86303D01*
X36407Y86344D01*
Y86414D01*
X36393Y86483D01*
X36379Y86552D01*
Y86608D01*
X36365Y86663D01*
Y86677D01*
Y86691D01*
Y86747D01*
X36379Y86830D01*
X36393Y86955D01*
X36407Y87093D01*
X36448Y87246D01*
X36490Y87426D01*
X36559Y87606D01*
X36573D01*
X36628Y87620D01*
X36698Y87648D01*
X36781Y87676D01*
X36864Y87704D01*
X36934Y87717D01*
X36989Y87745D01*
X37017Y87759D01*
Y87773D01*
X37031D01*
X37072Y87759D01*
X37142Y87731D01*
X37211Y87704D01*
X37280Y87648D01*
X37377Y87579D01*
X37461Y87482D01*
X37475Y87468D01*
X37488Y87426D01*
X37530Y87371D01*
X37572Y87301D01*
X37641Y87135D01*
X37669Y87038D01*
X37682Y86941D01*
Y86913D01*
X37669Y86871D01*
X37655Y86774D01*
Y86747D01*
X37641Y86691D01*
X37627Y86622D01*
Y86566D01*
Y86552D01*
X37641Y86525D01*
X37655Y86483D01*
X37669Y86414D01*
X37696Y86344D01*
X37738Y86233D01*
Y86220D01*
X37752Y86178D01*
X37766Y86136D01*
X37780Y86067D01*
X37821Y85956D01*
X37835Y85914D01*
Y85887D01*
X38099Y82905D01*
Y82891D01*
Y82863D01*
X38112Y82794D01*
Y82711D01*
X38126Y82600D01*
X38140Y82461D01*
X38168Y82295D01*
X38196Y82101D01*
X38223Y81879D01*
X38251Y81615D01*
X38293Y81324D01*
X38334Y81005D01*
X38390Y80658D01*
X38445Y80270D01*
X38515Y79840D01*
X38584Y79382D01*
X38931Y77136D01*
Y77122D01*
Y77094D01*
X38917Y77039D01*
X38903Y76955D01*
X38875Y76831D01*
X38861Y76747D01*
X38847Y76650D01*
X38820Y76539D01*
X38792Y76415D01*
X38764Y76262D01*
X38723Y76109D01*
Y76096D01*
X38709Y76068D01*
Y76026D01*
X38695Y75971D01*
X38667Y75832D01*
X38626Y75666D01*
X38584Y75485D01*
X38556Y75319D01*
X38542Y75180D01*
X38528Y75125D01*
Y75083D01*
Y75069D01*
X38515D01*
X38487Y75055D01*
X38404Y75028D01*
X38307Y75000D01*
X38265Y74986D01*
X38237D01*
X38196Y75000D01*
X38126Y75028D01*
X38001Y75055D01*
X37932Y75083D01*
X37835Y75111D01*
X37724Y75153D01*
X37599Y75194D01*
X37461Y75236D01*
X37294Y75291D01*
X37280D01*
X37253Y75305D01*
X37197Y75319D01*
X37128Y75347D01*
X37045Y75374D01*
X36948Y75402D01*
X36739Y75485D01*
X36504Y75555D01*
X36268Y75638D01*
X36060Y75693D01*
X35963Y75721D01*
X35880Y75749D01*
X34562Y76123D01*
Y76109D01*
X34548Y76096D01*
X34534Y76082D01*
X34507Y76054D01*
X34451Y76012D01*
X34368Y75957D01*
X34257Y75888D01*
X34104Y75791D01*
X34035D01*
X33980Y75777D01*
X33910Y75763D01*
X33813Y75735D01*
X33716Y75693D01*
X33591Y75652D01*
X33577Y75666D01*
X33550Y75721D01*
X33494Y75791D01*
X33425Y75901D01*
X33328Y76026D01*
X33203Y76179D01*
X33064Y76359D01*
X32898Y76553D01*
X32884D01*
X32856Y76581D01*
X32815Y76595D01*
X32773Y76609D01*
X32718Y76623D01*
X32634Y76650D01*
X32537Y76692D01*
X32426Y76720D01*
X32302Y76761D01*
X32135Y76817D01*
X31955Y76858D01*
X31747Y76928D01*
X31497Y76997D01*
X31234Y77066D01*
X31192D01*
X31151Y77052D01*
X30901D01*
X30776Y77150D01*
X30762Y77164D01*
X30721Y77191D01*
X30679Y77219D01*
X30624Y77233D01*
X30596D01*
X30540Y77191D01*
X30485Y77164D01*
X30443Y77108D01*
X30388Y77039D01*
X30332Y76942D01*
Y76928D01*
X30305Y76900D01*
X30291Y76845D01*
X30263Y76789D01*
X30221Y76637D01*
X30194Y76484D01*
Y76470D01*
Y76442D01*
X30166D01*
X30110Y76415D01*
X30013Y76401D01*
X29916Y76373D01*
X29667Y76331D01*
X29569Y76304D01*
X29459D01*
X29417Y76318D01*
X29348Y76331D01*
X29278Y76359D01*
X29195Y76401D01*
X29098Y76484D01*
X29029Y76581D01*
X28959Y76720D01*
Y76734D01*
X28945Y76761D01*
X28932Y76803D01*
X28904Y76872D01*
X28890Y76955D01*
X28862Y77066D01*
X28835Y77177D01*
X28793Y77316D01*
X28765Y77455D01*
X28737Y77621D01*
X28696Y77982D01*
X28654Y78398D01*
X28640Y78855D01*
Y78883D01*
X28654Y78911D01*
X28682Y78952D01*
Y78966D01*
X28696Y78980D01*
X28710Y78994D01*
Y79008D01*
Y79022D01*
X28696Y79036D01*
X28682Y79077D01*
X28668Y79133D01*
X28640Y79202D01*
X28599Y79313D01*
X28543Y79452D01*
Y79466D01*
Y79535D01*
X28529Y79632D01*
Y79771D01*
X28516Y79937D01*
Y80145D01*
X28502Y80395D01*
X28488Y80672D01*
X28474Y80977D01*
X28460Y81324D01*
X28432Y81698D01*
X28418Y82101D01*
X28391Y82530D01*
X28363Y82988D01*
X28335Y83488D01*
X28307Y84001D01*
X28127Y86844D01*
Y86858D01*
Y86885D01*
X28141Y86955D01*
X28169Y87065D01*
X28224Y87218D01*
X28252Y87315D01*
X28294Y87426D01*
X28335Y87551D01*
X28391Y87690D01*
X28446Y87842D01*
X28516Y88022D01*
Y88036D01*
X28529Y88064D01*
Y88119D01*
Y88175D01*
X28543Y88272D01*
Y88383D01*
Y88536D01*
Y88549D01*
Y88577D01*
X28557Y88633D01*
X28571Y88688D01*
X28613Y88827D01*
X28710Y88952D01*
X28723Y88938D01*
D02*
G37*
G36*
X28335Y100601D02*
X28405Y100560D01*
X28529Y100504D01*
X28599Y100449D01*
X28696Y100393D01*
X28793Y100310D01*
X28918Y100227D01*
X29056Y100116D01*
X29223Y99991D01*
X29403Y99852D01*
X29597Y99686D01*
X29611Y99658D01*
X29625Y99602D01*
X29667Y99533D01*
X29708Y99492D01*
X29722D01*
X29764Y99478D01*
X29833Y99436D01*
X29902Y99395D01*
X29999Y99311D01*
X30096Y99214D01*
X30194Y99075D01*
X30277Y98909D01*
X30291Y98923D01*
X30360D01*
X30443Y98895D01*
X30499Y98868D01*
X30554Y98826D01*
X30624Y98770D01*
X30693Y98701D01*
X30721Y98673D01*
X30748Y98646D01*
X30776Y98604D01*
X30831Y98548D01*
X30901Y98479D01*
X30984Y98396D01*
X31081Y98285D01*
X31095Y98271D01*
X31137Y98243D01*
X31192Y98188D01*
X31275Y98119D01*
X31386Y98021D01*
X31497Y97911D01*
X31622Y97772D01*
X31761Y97619D01*
X31775D01*
X31802Y97605D01*
X31858Y97592D01*
X31927Y97564D01*
X32024Y97522D01*
X32163Y97453D01*
X32315Y97370D01*
X32496Y97259D01*
X32510Y97231D01*
X32579Y97162D01*
X32676Y97037D01*
X32759Y96967D01*
X32843Y96898D01*
X32856D01*
X32884Y96884D01*
X32926D01*
X32981Y96857D01*
X33050Y96843D01*
X33148Y96801D01*
X33245Y96760D01*
X33370Y96718D01*
X33397Y96690D01*
X33425Y96662D01*
X33466Y96621D01*
X33536Y96579D01*
X33605Y96524D01*
X33702Y96454D01*
X33813Y96385D01*
X33827D01*
X33869Y96371D01*
X33952Y96357D01*
X34049Y96343D01*
X34188Y96302D01*
X34354Y96260D01*
X34548Y96191D01*
X34784Y96122D01*
X34798Y96094D01*
X34853Y96038D01*
X34937Y95955D01*
X35061Y95844D01*
X35089D01*
X35117Y95830D01*
X35172Y95816D01*
X35242Y95789D01*
X35325Y95775D01*
X35436Y95733D01*
X35575Y95692D01*
X35727Y95650D01*
X35907Y95595D01*
X36129Y95525D01*
X36365Y95456D01*
X36642Y95373D01*
X36948Y95276D01*
X37294Y95165D01*
X37669Y95040D01*
X37932D01*
X38043Y95026D01*
X38182D01*
X38348Y95012D01*
X38362Y94984D01*
X38390Y94929D01*
X38431Y94860D01*
X38487Y94749D01*
X38570Y94610D01*
X38681Y94430D01*
X38820Y94208D01*
Y94194D01*
X38806Y94152D01*
X38792Y94111D01*
X38778Y94055D01*
X38764Y94000D01*
X38750Y93917D01*
X38723Y93903D01*
X38653Y93861D01*
X38542Y93778D01*
X38376Y93681D01*
X38154Y93542D01*
X37904Y93390D01*
X37599Y93195D01*
X37253Y92987D01*
X37239D01*
X37211Y92973D01*
X37155Y92946D01*
X37072Y92904D01*
X36989Y92863D01*
X36864Y92807D01*
X36726Y92752D01*
X36573Y92682D01*
X36407Y92599D01*
X36212Y92516D01*
X36004Y92419D01*
X35783Y92322D01*
X35547Y92211D01*
X35283Y92086D01*
X35020Y91961D01*
X34729Y91836D01*
X34715Y91822D01*
X34659Y91809D01*
X34562Y91767D01*
X34493Y91739D01*
X34410Y91711D01*
X34313Y91670D01*
X34202Y91628D01*
X34077Y91573D01*
X33938Y91517D01*
X33772Y91462D01*
X33591Y91392D01*
X33397Y91323D01*
X33175Y91240D01*
X33161D01*
X33134Y91212D01*
X33092Y91184D01*
X33037Y91157D01*
X32953Y91101D01*
X32856Y91046D01*
X32745Y90976D01*
X32607Y90893D01*
X32579Y90879D01*
X32551Y90852D01*
X32496Y90824D01*
X32413Y90768D01*
X32315Y90713D01*
X32177Y90644D01*
X32010Y90547D01*
X31969D01*
X31927Y90533D01*
X31858D01*
X31775Y90519D01*
X31677Y90505D01*
X31567Y90477D01*
X31428Y90449D01*
X31414Y90435D01*
X31372Y90394D01*
X31303Y90352D01*
X31206Y90297D01*
X31095Y90227D01*
X30956Y90186D01*
X30804Y90144D01*
X30637Y90130D01*
X28945Y89534D01*
X28918D01*
X28848Y89548D01*
X28765Y89576D01*
X28737Y89603D01*
X28723Y89631D01*
Y89645D01*
X28710Y89673D01*
X28696Y89728D01*
X28682Y89784D01*
X28654Y89909D01*
X28640Y89964D01*
Y90006D01*
Y90033D01*
Y90103D01*
Y90200D01*
X28654Y90311D01*
X28668Y90422D01*
X28682Y90533D01*
X28710Y90630D01*
X28751Y90685D01*
X28765Y90699D01*
X28793Y90713D01*
X28848Y90754D01*
X28945Y90796D01*
X29084Y90852D01*
X29181Y90879D01*
X29292Y90921D01*
X29417Y90962D01*
X29556Y90990D01*
X29708Y91032D01*
X29889Y91074D01*
X29916Y91101D01*
X29944Y91115D01*
X29999Y91157D01*
X30013D01*
X30041Y91171D01*
X30083Y91184D01*
X30138Y91198D01*
X30208Y91212D01*
X30291Y91240D01*
X30499Y91309D01*
X30735Y91406D01*
X31012Y91503D01*
X31289Y91628D01*
X31567Y91781D01*
X33619Y92613D01*
X33633Y92627D01*
X33675Y92641D01*
X33730Y92682D01*
X33827Y92738D01*
X33952Y92807D01*
X34091Y92890D01*
X34271Y93001D01*
X34465Y93112D01*
X34493Y93126D01*
X34562Y93140D01*
X34618Y93168D01*
X34701Y93181D01*
X34784Y93223D01*
X34881Y93251D01*
X34992Y93306D01*
X35131Y93348D01*
X35269Y93417D01*
X35436Y93487D01*
X35602Y93556D01*
X35796Y93639D01*
X36004Y93736D01*
X36226Y93847D01*
Y93875D01*
X36212Y93917D01*
X36185Y93986D01*
X36115Y94055D01*
X36074D01*
X36032Y94069D01*
X35949Y94083D01*
X35852Y94111D01*
X35727Y94152D01*
X35575Y94194D01*
X35380Y94263D01*
X35366Y94277D01*
X35297Y94305D01*
X35186Y94360D01*
X35117Y94402D01*
X35020Y94457D01*
X34923Y94513D01*
X34798Y94568D01*
X34659Y94638D01*
X34520Y94721D01*
X34340Y94818D01*
X34160Y94915D01*
X33952Y95026D01*
X33730Y95151D01*
X33494Y95276D01*
X33480Y95289D01*
X33453Y95303D01*
X33383Y95331D01*
X33314Y95373D01*
X33203Y95442D01*
X33092Y95498D01*
X32953Y95581D01*
X32801Y95678D01*
X32621Y95775D01*
X32440Y95886D01*
X32246Y96011D01*
X32024Y96135D01*
X31567Y96427D01*
X31053Y96746D01*
X31040Y96760D01*
X31012Y96773D01*
X30956Y96815D01*
X30887Y96857D01*
X30804Y96926D01*
X30693Y97009D01*
X30554Y97106D01*
X30415Y97231D01*
X30249Y97370D01*
X30055Y97522D01*
X29861Y97689D01*
X29639Y97883D01*
X29403Y98105D01*
X29153Y98341D01*
X28890Y98590D01*
X28613Y98868D01*
X28599Y98881D01*
X28571Y98909D01*
X28529Y98951D01*
X28488Y98992D01*
X28349Y99131D01*
X28196Y99311D01*
X28044Y99492D01*
X27905Y99672D01*
X27864Y99755D01*
X27822Y99838D01*
X27794Y99908D01*
X27780Y99963D01*
Y99991D01*
X27808Y100060D01*
X27864Y100185D01*
X27905Y100268D01*
X27975Y100351D01*
X27989Y100365D01*
X28002Y100393D01*
X28086Y100490D01*
X28196Y100573D01*
X28252Y100601D01*
X28294Y100615D01*
X28307D01*
X28335Y100601D01*
D02*
G37*
G36*
X38709Y154327D02*
X38750Y154313D01*
X38834Y154286D01*
X38917Y154244D01*
X39028Y154189D01*
X39166Y154105D01*
Y154078D01*
X39180Y154050D01*
X39194Y154008D01*
X39208Y153953D01*
X39222Y153883D01*
X39250Y153786D01*
X39277Y153675D01*
X39291Y153703D01*
X39305Y153772D01*
X39347Y153870D01*
X39402Y154008D01*
X39527Y153856D01*
Y153842D01*
X39513Y153828D01*
X39499Y153731D01*
X39444Y153606D01*
X39361Y153454D01*
X39236Y153287D01*
X39069Y153107D01*
X38958Y153038D01*
X38834Y152954D01*
X38709Y152885D01*
X38556Y152830D01*
X38459D01*
X38334Y152843D01*
X37932D01*
X37655Y152857D01*
X36961D01*
X36948Y152843D01*
X36920Y152816D01*
X36850Y152746D01*
X36753Y152635D01*
Y152621D01*
Y152594D01*
X36767Y152538D01*
X36781Y152469D01*
X36795Y152372D01*
X36809Y152261D01*
X36823Y152150D01*
X36850Y152011D01*
X36906Y151706D01*
X36961Y151373D01*
X37031Y151027D01*
X37114Y150666D01*
Y150638D01*
X37128Y150611D01*
X37142Y150555D01*
X37169Y150486D01*
X37197Y150402D01*
X37239Y150292D01*
X37294Y150153D01*
X37350Y149986D01*
X37433Y149792D01*
X37516Y149557D01*
X37613Y149307D01*
X37738Y149016D01*
X37877Y148683D01*
X38029Y148308D01*
X38196Y147892D01*
Y147878D01*
X38223Y147823D01*
X38251Y147754D01*
X38293Y147656D01*
X38334Y147546D01*
X38390Y147421D01*
X38501Y147130D01*
X38612Y146811D01*
X38709Y146519D01*
X38750Y146395D01*
X38778Y146270D01*
X38792Y146173D01*
X38806Y146103D01*
Y146089D01*
Y146048D01*
X38778Y145992D01*
X38750Y145923D01*
X38709Y145854D01*
X38639Y145770D01*
X38542Y145687D01*
X38404Y145604D01*
X38390D01*
X38348Y145576D01*
X38293Y145562D01*
X38210Y145535D01*
X38043Y145493D01*
X37863Y145465D01*
X37780D01*
X37710Y145479D01*
X37627Y145493D01*
X37516Y145507D01*
X37377Y145521D01*
X37225Y145549D01*
X37031Y145590D01*
X36823Y145632D01*
X36573Y145687D01*
X36296Y145757D01*
X35991Y145826D01*
X35658Y145923D01*
X35283Y146020D01*
X34881Y146145D01*
X34867D01*
X34853Y146159D01*
X34826Y146173D01*
X34770Y146200D01*
X34715Y146228D01*
X34632Y146270D01*
X34534Y146311D01*
X34423Y146367D01*
X34396D01*
X34313Y146381D01*
X34188Y146408D01*
X34035Y146436D01*
X33855Y146478D01*
X33675Y146519D01*
X33272Y146616D01*
X33259D01*
X33203Y146630D01*
X33106Y146658D01*
X32967Y146700D01*
X32787Y146741D01*
X32551Y146811D01*
X32274Y146880D01*
X31955Y146977D01*
X31580Y147088D01*
X31358Y147143D01*
X31137Y147213D01*
X30901Y147282D01*
X30651Y147351D01*
X30388Y147421D01*
X30110Y147504D01*
X29805Y147587D01*
X29500Y147684D01*
X29167Y147781D01*
X28835Y147878D01*
X28474Y147989D01*
X28100Y148100D01*
X27697Y148211D01*
X27295Y148336D01*
X27198D01*
X27115Y148350D01*
X26990Y148364D01*
X26824Y148405D01*
X26810Y148419D01*
X26782Y148433D01*
X26727Y148475D01*
X26671Y148544D01*
X26616Y148627D01*
X26560Y148738D01*
X26532Y148877D01*
X26518Y149043D01*
Y149057D01*
Y149071D01*
X26532Y149154D01*
X26574Y149237D01*
X26602Y149279D01*
X26643Y149307D01*
X26671Y149321D01*
X26727Y149335D01*
X26824Y149376D01*
X26934Y149418D01*
X27059Y149446D01*
X27170Y149487D01*
X27267Y149501D01*
X27323Y149515D01*
X27351D01*
X27378Y149501D01*
X27420D01*
X27475Y149487D01*
X27559Y149459D01*
X27656Y149432D01*
X27780Y149404D01*
X27947Y149362D01*
X28127Y149307D01*
X28363Y149251D01*
X28626Y149168D01*
X28918Y149085D01*
X29278Y148988D01*
X29667Y148877D01*
X29694D01*
X29764Y148849D01*
X29861Y148821D01*
X29999Y148780D01*
X30166Y148738D01*
X30360Y148683D01*
X30568Y148627D01*
X30776Y148558D01*
X31220Y148433D01*
X31428Y148364D01*
X31636Y148308D01*
X31816Y148253D01*
X31969Y148211D01*
X32107Y148156D01*
X32204Y148128D01*
X32218D01*
X32246Y148114D01*
X32302Y148100D01*
X32371Y148073D01*
X32468Y148045D01*
X32593Y148003D01*
X32731Y147962D01*
X32898Y147920D01*
X33078Y147865D01*
X33272Y147795D01*
X33494Y147740D01*
X33744Y147670D01*
X34007Y147601D01*
X34299Y147532D01*
X34604Y147449D01*
X34923Y147365D01*
X34937D01*
X34992Y147351D01*
X35061Y147338D01*
X35172Y147310D01*
X35283Y147282D01*
X35422Y147240D01*
X35713Y147185D01*
X36018Y147116D01*
X36171Y147074D01*
X36310Y147046D01*
X36421Y147032D01*
X36531Y147005D01*
X36601Y146991D01*
X36823D01*
X36837Y147005D01*
X36864Y147060D01*
X36892Y147143D01*
X36906Y147268D01*
Y147282D01*
X36892Y147310D01*
Y147351D01*
X36864Y147407D01*
X36837Y147476D01*
X36809Y147573D01*
X36753Y147698D01*
X36545Y148211D01*
Y148225D01*
X36531Y148239D01*
X36518Y148281D01*
X36504Y148336D01*
X36490Y148405D01*
X36462Y148489D01*
X36434Y148600D01*
X36393Y148724D01*
X36351Y148863D01*
X36310Y149030D01*
X36254Y149210D01*
X36199Y149418D01*
X36143Y149654D01*
X36074Y149903D01*
X36004Y150181D01*
X35935Y150472D01*
Y150500D01*
X35907Y150555D01*
X35893Y150652D01*
X35852Y150777D01*
X35824Y150916D01*
X35783Y151082D01*
X35686Y151443D01*
X35588Y151817D01*
X35547Y151997D01*
X35519Y152164D01*
X35477Y152316D01*
X35464Y152441D01*
X35436Y152538D01*
Y152608D01*
Y152774D01*
Y152788D01*
Y152830D01*
X35450Y152899D01*
X35464Y152996D01*
X35477Y153093D01*
X35519Y153218D01*
X35575Y153343D01*
X35630Y153481D01*
X35713Y153606D01*
X35824Y153731D01*
X35949Y153856D01*
X36102Y153953D01*
X36296Y154050D01*
X36504Y154119D01*
X36753Y154161D01*
X37031Y154175D01*
X37128D01*
X37211Y154161D01*
X37322D01*
X37461Y154147D01*
X37627Y154133D01*
X37821Y154105D01*
X37891D01*
X37932Y154119D01*
X37988Y154133D01*
X38071Y154147D01*
X38168Y154175D01*
X38279Y154216D01*
X38639Y154341D01*
X38667D01*
X38709Y154327D01*
D02*
G37*
G36*
X38182Y157462D02*
X38251D01*
X38348Y157434D01*
X38487Y157406D01*
X38653Y157378D01*
X38875Y157323D01*
X38917Y157142D01*
Y157129D01*
Y157115D01*
Y157101D01*
Y157087D01*
X38903Y157045D01*
X38889Y156976D01*
X38875Y156893D01*
X38847Y156782D01*
X38806Y156657D01*
X38750Y156491D01*
X38737Y156505D01*
X38667D01*
X38584Y156491D01*
X38473Y156435D01*
X38390Y156394D01*
X38307Y156338D01*
X38293Y156324D01*
X38251Y156297D01*
X38182Y156269D01*
X38112Y156213D01*
X37960Y156130D01*
X37891Y156088D01*
X37835Y156075D01*
X37821D01*
X37794Y156061D01*
X37641D01*
X37544Y156075D01*
X37433D01*
X37280Y156088D01*
X37086Y156102D01*
X36864Y156130D01*
X36809D01*
X36739Y156144D01*
X36642Y156158D01*
X36518D01*
X36379Y156172D01*
X36226Y156200D01*
X36060Y156213D01*
X35686Y156255D01*
X35283Y156310D01*
X34867Y156380D01*
X34451Y156449D01*
X34437Y156463D01*
X34410Y156491D01*
X34368Y156532D01*
X34326Y156588D01*
X34243Y156727D01*
X34215Y156824D01*
X34202Y156921D01*
Y156934D01*
Y156976D01*
X34229Y157032D01*
X34257Y157101D01*
X34313Y157170D01*
X34396Y157254D01*
X34520Y157323D01*
X34673Y157392D01*
X34798D01*
X34881Y157406D01*
X35131D01*
X35311Y157420D01*
X35824D01*
X35977Y157434D01*
X36337D01*
X36545Y157448D01*
X36989D01*
X37239Y157462D01*
X37502D01*
X37794Y157475D01*
X38140D01*
X38182Y157462D01*
D02*
G37*
G36*
X28751Y145382D02*
X28848Y145354D01*
X28945Y145299D01*
X29042Y145216D01*
X29140Y145077D01*
X29167Y144994D01*
X29195Y144883D01*
X29223Y144772D01*
Y144633D01*
Y144619D01*
Y144592D01*
X29209Y144550D01*
Y144467D01*
X29195Y144370D01*
X29181Y144231D01*
X29167Y144051D01*
X29112Y143496D01*
Y143468D01*
Y143441D01*
Y143385D01*
X29126Y143302D01*
X29140Y143191D01*
X29153Y143038D01*
X29167Y142858D01*
X29264Y142123D01*
Y142109D01*
Y142081D01*
Y142040D01*
Y141971D01*
Y141957D01*
Y141901D01*
Y141804D01*
Y141693D01*
Y141679D01*
Y141624D01*
X29251Y141554D01*
Y141485D01*
X29237Y141319D01*
Y141249D01*
Y141194D01*
Y141180D01*
Y141138D01*
X29251Y141055D01*
X29264Y141000D01*
Y140917D01*
X29278Y140819D01*
X29292Y140709D01*
X29306Y140584D01*
X29320Y140431D01*
X29334Y140265D01*
X29362Y140070D01*
X29375Y139849D01*
X29403Y139599D01*
Y139571D01*
X29417Y139516D01*
X29445Y139405D01*
X29472Y139252D01*
X29514Y139044D01*
X29556Y138822D01*
X29597Y138545D01*
X29639Y138226D01*
Y138212D01*
X29653Y138157D01*
Y138087D01*
X29681Y137990D01*
X29708Y137879D01*
X29750Y137768D01*
X29819Y137630D01*
X29889Y137505D01*
X29916Y137519D01*
X29986Y137560D01*
X30110Y137616D01*
X30263Y137713D01*
X30277Y137727D01*
X30318Y137782D01*
X30388Y137879D01*
X30485Y138004D01*
X30624Y138171D01*
X30776Y138365D01*
X30956Y138614D01*
X31164Y138892D01*
X31178Y138906D01*
X31192Y138961D01*
X31234Y139030D01*
X31303Y139155D01*
X31372Y139308D01*
X31456Y139502D01*
X31567Y139738D01*
X31691Y140015D01*
Y140029D01*
X31719Y140043D01*
X31747Y140070D01*
X31775Y140126D01*
X31830Y140182D01*
X31872Y140265D01*
X31941Y140362D01*
X32010Y140473D01*
X32066Y140625D01*
Y140639D01*
X32080Y140681D01*
X32107Y140736D01*
X32149Y140833D01*
X32191Y140944D01*
X32260Y141083D01*
X32315Y141249D01*
X32399Y141430D01*
X32496Y141638D01*
X32593Y141860D01*
X32704Y142109D01*
X32815Y142373D01*
X32953Y142664D01*
X33092Y142969D01*
X33245Y143288D01*
X33411Y143635D01*
Y143649D01*
X33425Y143663D01*
X33466Y143746D01*
X33550Y143870D01*
X33647Y144037D01*
X33786Y144217D01*
X33952Y144397D01*
X34132Y144592D01*
X34354Y144758D01*
X34382Y144772D01*
X34465Y144827D01*
X34576Y144897D01*
X34742Y144980D01*
X34923Y145049D01*
X35131Y145119D01*
X35366Y145174D01*
X35602Y145188D01*
X35672D01*
X35741Y145160D01*
X35824Y145133D01*
X35935Y145091D01*
X36046Y145008D01*
X36171Y144911D01*
X36296Y144772D01*
X36310Y144744D01*
X36365Y144675D01*
X36448Y144578D01*
X36545Y144453D01*
X36656Y144328D01*
X36753Y144203D01*
X36850Y144106D01*
X36920Y144037D01*
Y144023D01*
Y143995D01*
Y143940D01*
Y143870D01*
X36934Y143704D01*
X36948Y143524D01*
X36961Y143510D01*
X37003Y143454D01*
X37058Y143371D01*
X37114Y143274D01*
X37169Y143177D01*
X37225Y143094D01*
X37266Y143025D01*
X37280Y142983D01*
X37266Y142955D01*
X37253Y142927D01*
Y142914D01*
X37239Y142900D01*
X37225Y142830D01*
Y142816D01*
Y142775D01*
X37253Y142692D01*
X37280Y142567D01*
X37322Y142400D01*
X37364Y142289D01*
X37405Y142165D01*
X37447Y142040D01*
X37502Y141887D01*
X37572Y141707D01*
X37641Y141527D01*
Y141513D01*
X37655Y141485D01*
X37669Y141444D01*
X37696Y141388D01*
X37724Y141305D01*
X37766Y141208D01*
X37794Y141111D01*
X37835Y140986D01*
X37932Y140709D01*
X38029Y140376D01*
X38126Y140001D01*
X38223Y139599D01*
X38321Y139488D01*
X38334Y139474D01*
X38376Y139419D01*
X38418Y139349D01*
X38431Y139266D01*
Y139238D01*
X38418Y139197D01*
X38404Y139114D01*
X38390Y139100D01*
X38376Y139058D01*
X38362Y139003D01*
Y138961D01*
Y138947D01*
X38376Y138906D01*
X38390Y138850D01*
X38418Y138739D01*
X38431Y138670D01*
X38445Y138587D01*
X38473Y138490D01*
X38501Y138379D01*
X38528Y138240D01*
X38570Y138087D01*
Y138074D01*
X38584Y138046D01*
Y138004D01*
X38598Y137949D01*
X38626Y137824D01*
X38667Y137657D01*
X38709Y137505D01*
X38737Y137366D01*
X38750Y137311D01*
Y137255D01*
X38764Y137227D01*
Y137214D01*
Y137186D01*
Y137117D01*
Y137006D01*
X38778Y136867D01*
X38792Y136700D01*
X38806Y136506D01*
X38834Y136298D01*
X38875Y136076D01*
Y136063D01*
X38861Y136049D01*
X38806Y135965D01*
X38723Y135841D01*
X38653Y135771D01*
X38570Y135702D01*
X38556D01*
X38528Y135674D01*
X38445Y135619D01*
X38348Y135563D01*
X38293Y135549D01*
X38237Y135536D01*
X38196D01*
X38182Y135563D01*
X38140Y135619D01*
X38071Y135730D01*
X37974Y135882D01*
Y135896D01*
X37960Y135924D01*
X37946Y135979D01*
X37932Y136063D01*
X37904Y136160D01*
X37877Y136271D01*
X37849Y136409D01*
X37807Y136562D01*
X37766Y136728D01*
X37724Y136909D01*
X37627Y137297D01*
X37516Y137727D01*
X37391Y138198D01*
X37253Y138698D01*
X37114Y139211D01*
X36809Y140237D01*
X36642Y140750D01*
X36490Y141222D01*
X36323Y141679D01*
X36157Y142095D01*
X36143Y142109D01*
X36129Y142165D01*
X36102Y142234D01*
X36060Y142317D01*
X36004Y142428D01*
X35949Y142553D01*
X35810Y142816D01*
X35644Y143080D01*
X35561Y143205D01*
X35477Y143316D01*
X35394Y143399D01*
X35311Y143482D01*
X35228Y143524D01*
X35145Y143538D01*
X35131D01*
X35089Y143524D01*
X35020Y143510D01*
X34937Y143468D01*
X34839Y143413D01*
X34729Y143316D01*
X34618Y143177D01*
X34493Y142997D01*
Y142983D01*
X34465Y142955D01*
X34437Y142900D01*
X34396Y142816D01*
X34326Y142719D01*
X34257Y142581D01*
X34160Y142414D01*
X34035Y142220D01*
Y142206D01*
X34021Y142192D01*
X33993Y142151D01*
X33966Y142095D01*
X33883Y141957D01*
X33786Y141763D01*
X33661Y141541D01*
X33536Y141263D01*
X33397Y140972D01*
X33259Y140639D01*
X33245Y140625D01*
X33231Y140584D01*
X33203Y140500D01*
X33161Y140417D01*
X33120Y140306D01*
X33064Y140182D01*
X32953Y139904D01*
X32843Y139613D01*
X32731Y139335D01*
X32676Y139225D01*
X32634Y139128D01*
X32607Y139044D01*
X32579Y138989D01*
X32565Y138961D01*
X32524Y138906D01*
X32454Y138781D01*
X32413Y138711D01*
X32357Y138614D01*
X32288Y138503D01*
X32204Y138392D01*
X32121Y138254D01*
X32010Y138101D01*
X31899Y137935D01*
X31761Y137741D01*
X31622Y137547D01*
X31456Y137325D01*
X31442Y137311D01*
X31400Y137255D01*
X31345Y137186D01*
X31261Y137089D01*
X31178Y136964D01*
X31067Y136839D01*
X30818Y136562D01*
X30540Y136271D01*
X30415Y136146D01*
X30277Y136021D01*
X30138Y135924D01*
X30013Y135855D01*
X29902Y135799D01*
X29805Y135785D01*
X29791D01*
X29736Y135813D01*
X29694Y135841D01*
X29639Y135882D01*
X29569Y135938D01*
X29486Y136007D01*
X29112Y136326D01*
Y136340D01*
X29098Y136354D01*
X29084Y136382D01*
X29056Y136451D01*
X29029Y136534D01*
X28973Y136645D01*
X28904Y136812D01*
Y136825D01*
X28890Y136839D01*
X28876Y136881D01*
X28848Y136950D01*
X28821Y137020D01*
X28779Y137130D01*
X28723Y137255D01*
X28668Y137408D01*
Y137422D01*
X28654Y137449D01*
Y137491D01*
X28640Y137547D01*
X28613Y137630D01*
X28599Y137741D01*
X28571Y137865D01*
X28543Y138018D01*
X28516Y138198D01*
X28488Y138406D01*
X28446Y138628D01*
X28405Y138878D01*
X28377Y139169D01*
X28321Y139474D01*
X28280Y139821D01*
X28238Y140195D01*
Y140209D01*
Y140223D01*
X28224Y140306D01*
X28210Y140431D01*
X28183Y140597D01*
X28169Y140792D01*
X28141Y141027D01*
X28113Y141263D01*
X28086Y141527D01*
Y141541D01*
Y141582D01*
X28072Y141651D01*
Y141735D01*
X28058Y141846D01*
X28044Y141957D01*
X28030Y142095D01*
X28016Y142248D01*
X28002Y142581D01*
X27975Y142927D01*
X27961Y143288D01*
Y143621D01*
Y143635D01*
Y143704D01*
Y143787D01*
X27975Y143898D01*
X27989Y144037D01*
X28002Y144189D01*
X28044Y144508D01*
X28127Y144841D01*
X28196Y144980D01*
X28252Y145119D01*
X28335Y145230D01*
X28432Y145327D01*
X28543Y145382D01*
X28668Y145396D01*
X28696D01*
X28751Y145382D01*
D02*
G37*
G36*
X54031Y91074D02*
X54045Y91046D01*
X54072Y90990D01*
X54100Y90935D01*
X54142Y90838D01*
X54183Y90713D01*
X53948D01*
X54003Y91087D01*
X54017D01*
X54031Y91074D01*
D02*
G37*
G36*
X35186Y126785D02*
X35269D01*
X35380Y126798D01*
X35533Y126812D01*
X35727Y126826D01*
X35963Y126840D01*
X36226Y126854D01*
X36531Y126882D01*
X36573D01*
X36642Y126896D01*
X36712D01*
X36795Y126909D01*
X36892Y126923D01*
X37128Y126937D01*
X37350Y126965D01*
X37572Y126979D01*
X37682D01*
X37766Y126993D01*
X37960D01*
X37988Y127007D01*
X38043Y127034D01*
X38112Y127104D01*
X38709D01*
X38889Y126868D01*
Y126854D01*
X38875Y126826D01*
X38861Y126785D01*
X38834Y126743D01*
X38792Y126604D01*
X38764Y126452D01*
X38750Y126438D01*
X38737Y126424D01*
X38695Y126382D01*
X38626Y126327D01*
X38556Y126271D01*
X38473Y126202D01*
X38376Y126133D01*
X38251Y126063D01*
X37988Y125911D01*
X37669Y125772D01*
X37308Y125661D01*
X37114Y125620D01*
X36906Y125592D01*
X36837D01*
X36781Y125578D01*
X36642D01*
X36545Y125564D01*
X36421Y125550D01*
X36282D01*
X36129Y125536D01*
X35935Y125523D01*
X35727Y125509D01*
X35491Y125495D01*
X35228Y125467D01*
X34937Y125453D01*
X30637Y126119D01*
X30582D01*
X30513Y126133D01*
X30415Y126147D01*
X30277Y126160D01*
X30110Y126174D01*
X29889Y126202D01*
X29639Y126230D01*
X29611D01*
X29528Y126258D01*
X29403Y126285D01*
X29264Y126341D01*
X29126Y126424D01*
X29001Y126535D01*
X28918Y126687D01*
X28904Y126771D01*
X28890Y126868D01*
Y126882D01*
Y126909D01*
X28904Y126951D01*
Y126993D01*
X28959Y127131D01*
X28987Y127201D01*
X29042Y127270D01*
X29056Y127284D01*
X29098Y127298D01*
X29167Y127339D01*
X29264Y127381D01*
X29403Y127450D01*
X29569Y127520D01*
X29764Y127603D01*
X29999Y127686D01*
X35186Y126785D01*
D02*
G37*
G36*
X52907Y93611D02*
X52921Y93584D01*
X52949Y93542D01*
X53018Y93459D01*
X53032Y93473D01*
X53046Y93487D01*
X53060Y93514D01*
Y93223D01*
X53046Y93237D01*
X53032Y93279D01*
X53004Y93348D01*
X52977Y93417D01*
X52935Y93487D01*
X52907Y93556D01*
X52868Y93596D01*
X52907Y93625D01*
Y93611D01*
D02*
G37*
G36*
X55362Y117285D02*
X55417Y117243D01*
X55501Y117160D01*
X55584Y117063D01*
X55681Y116938D01*
X55764Y116799D01*
X55820Y116633D01*
X55848Y116439D01*
Y116425D01*
Y116397D01*
Y116355D01*
X55834Y116300D01*
X55820Y116147D01*
X55764Y115981D01*
X55695Y115801D01*
X55584Y115662D01*
X55515Y115593D01*
X55431Y115551D01*
X55348Y115523D01*
X55237Y115510D01*
X55223D01*
X55154Y115523D01*
X55071Y115537D01*
X54932Y115579D01*
X54766Y115648D01*
X54572Y115731D01*
X54336Y115870D01*
X54072Y116050D01*
Y116619D01*
X54100Y116647D01*
X54169Y116702D01*
X54280Y116799D01*
X54419Y116896D01*
X54558Y116994D01*
X54696Y117091D01*
X54807Y117146D01*
X54904Y117174D01*
X54960D01*
X55029Y117188D01*
X55099D01*
X55182Y117201D01*
X55251Y117229D01*
X55307Y117257D01*
X55334Y117299D01*
X55362Y117285D01*
D02*
G37*
G36*
X48164Y137366D02*
X48234Y137352D01*
X48303Y137338D01*
X48400Y137311D01*
X48511Y137269D01*
X48622Y137227D01*
X48761Y137172D01*
X48913Y137103D01*
X49066Y137020D01*
X49246Y136922D01*
X49440Y136811D01*
X49634Y136687D01*
X49856Y136534D01*
X49870Y136520D01*
X49898Y136493D01*
X49953Y136437D01*
X50037Y136326D01*
X50134Y136187D01*
X50189Y136090D01*
X50245Y135993D01*
X50314Y135868D01*
X50383Y135730D01*
X50466Y135577D01*
X50550Y135411D01*
X50564Y135397D01*
X50605Y135369D01*
X50661Y135300D01*
X50744Y135217D01*
X50841Y135092D01*
X50952Y134939D01*
X51091Y134745D01*
X51229Y134523D01*
Y134495D01*
X51257Y134426D01*
X51299Y134315D01*
X51340Y134163D01*
X51410Y133968D01*
X51493Y133719D01*
X51604Y133441D01*
X51715Y133122D01*
X51729Y133109D01*
X51742Y133067D01*
X51784Y132998D01*
X51839Y132900D01*
X51895Y132776D01*
X51978Y132623D01*
X52075Y132443D01*
X52172Y132235D01*
Y132193D01*
X52186Y132138D01*
X52200Y132082D01*
Y132013D01*
X52214Y131944D01*
X52242Y131847D01*
X52256Y131722D01*
X52283Y131583D01*
X52297Y131431D01*
X52339Y131236D01*
X52366Y131028D01*
X52408Y130793D01*
Y130779D01*
X52422Y130751D01*
Y130695D01*
X52436Y130626D01*
X52477Y130446D01*
X52519Y130252D01*
X52588Y130057D01*
X52658Y129877D01*
X52699Y129808D01*
X52741Y129752D01*
X52783Y129725D01*
X52838Y129711D01*
X52852D01*
X52894Y129725D01*
X52949Y129766D01*
X53046Y129822D01*
X53171Y129933D01*
X53240Y130016D01*
X53323Y130099D01*
X53421Y130210D01*
X53518Y130335D01*
X53629Y130474D01*
X53753Y130640D01*
Y130654D01*
X53781Y130668D01*
X53809Y130709D01*
X53836Y130765D01*
X53934Y130890D01*
X54031Y131056D01*
X54156Y131236D01*
X54253Y131403D01*
X54350Y131555D01*
X54405Y131680D01*
Y131694D01*
X54419Y131722D01*
X54447Y131763D01*
X54475Y131819D01*
X54502Y131902D01*
X54558Y132013D01*
X54613Y132138D01*
X54669Y132276D01*
X54752Y132443D01*
X54835Y132623D01*
X54932Y132831D01*
X55029Y133067D01*
X55140Y133317D01*
X55265Y133580D01*
X55404Y133885D01*
X55556Y134204D01*
X55958Y135425D01*
Y135438D01*
X55972Y135466D01*
X56000Y135494D01*
X56028Y135549D01*
X56097Y135674D01*
X56194Y135827D01*
X56333Y135979D01*
X56472Y136118D01*
X56638Y136215D01*
X56721Y136243D01*
X56818Y136257D01*
X56832D01*
X56860Y136229D01*
X56929Y136160D01*
X57012Y136035D01*
X57040Y135965D01*
X57054Y135868D01*
X57040Y135841D01*
Y135799D01*
X57026Y135757D01*
X57012Y135688D01*
X56999Y135591D01*
Y135577D01*
X56985Y135549D01*
Y135494D01*
X56971Y135452D01*
X56957Y135328D01*
Y135286D01*
Y135258D01*
Y135244D01*
Y135217D01*
Y135161D01*
Y135092D01*
X56943Y135008D01*
X56929Y134898D01*
X56901Y134662D01*
X56860Y134384D01*
X56790Y134079D01*
X56693Y133774D01*
X56569Y133455D01*
X56555Y133427D01*
X56541Y133400D01*
X56527Y133358D01*
X56513Y133303D01*
X56472Y133233D01*
X56444Y133150D01*
X56388Y133039D01*
X56333Y132914D01*
X56263Y132748D01*
X56180Y132568D01*
X56083Y132360D01*
X55972Y132124D01*
X55848Y131847D01*
X55834Y131833D01*
X55806Y131791D01*
X55764Y131708D01*
X55695Y131611D01*
X55612Y131472D01*
X55501Y131306D01*
X55376Y131111D01*
X55237Y130890D01*
X55223Y130862D01*
X55182Y130806D01*
X55112Y130709D01*
X55029Y130598D01*
X54932Y130474D01*
X54821Y130349D01*
X54696Y130224D01*
X54585Y130127D01*
Y130113D01*
Y130071D01*
X54572Y129988D01*
X54544Y129877D01*
X54530Y129863D01*
X54475Y129822D01*
X54391Y129752D01*
X54280Y129628D01*
X54211Y129544D01*
X54142Y129461D01*
X54058Y129350D01*
X53961Y129225D01*
X53864Y129087D01*
X53767Y128934D01*
X53656Y128768D01*
X53531Y128574D01*
Y128560D01*
X53504Y128532D01*
X53476Y128490D01*
X53434Y128435D01*
X53337Y128282D01*
X53212Y128130D01*
X53060Y127963D01*
X52921Y127811D01*
X52838Y127755D01*
X52769Y127714D01*
X52699Y127686D01*
X52644Y127672D01*
X52616Y127686D01*
X52575Y127700D01*
X52519Y127728D01*
X52422Y127755D01*
X52311Y127797D01*
X52158Y127866D01*
X51964Y127936D01*
Y127949D01*
X51950Y128005D01*
X51937Y128074D01*
X51909Y128185D01*
X51881Y128324D01*
X51839Y128504D01*
X51798Y128698D01*
X51742Y128920D01*
X51687Y129156D01*
X51631Y129433D01*
X51562Y129725D01*
X51479Y130044D01*
X51410Y130390D01*
X51312Y130751D01*
X51229Y131125D01*
X51132Y131528D01*
Y131541D01*
X51118Y131583D01*
X51104Y131638D01*
X51091Y131749D01*
X51049Y131888D01*
X51007Y132082D01*
X50952Y132318D01*
X50924Y132457D01*
X50883Y132609D01*
X50869Y132637D01*
Y132665D01*
X50841Y132720D01*
X50827Y132776D01*
X50785Y132859D01*
X50744Y132942D01*
X50702Y133053D01*
X50633Y133178D01*
X50564Y133317D01*
X50480Y133469D01*
X50369Y133649D01*
X50258Y133844D01*
X50134Y134052D01*
X49981Y134287D01*
X49815Y134537D01*
X49801Y134551D01*
X49759Y134606D01*
X49704Y134690D01*
X49621Y134801D01*
X49524Y134939D01*
X49399Y135078D01*
X49135Y135397D01*
X48830Y135716D01*
X48664Y135855D01*
X48497Y135993D01*
X48345Y136104D01*
X48178Y136187D01*
X48026Y136243D01*
X47873Y136257D01*
X47845D01*
X47762Y136243D01*
X47624Y136229D01*
X47457Y136187D01*
X47263Y136104D01*
X47055Y135993D01*
X46847Y135855D01*
X46736Y135757D01*
X46625Y135646D01*
X46611D01*
X46597Y135619D01*
X46528Y135535D01*
X46431Y135411D01*
X46320Y135244D01*
X46195Y135022D01*
X46070Y134773D01*
X45973Y134495D01*
X45904Y134176D01*
X45890Y134163D01*
X45876Y134107D01*
X45848Y134052D01*
X45821Y133968D01*
X45779Y133802D01*
X45751Y133733D01*
Y133691D01*
Y133663D01*
Y133622D01*
Y133580D01*
Y133497D01*
Y133414D01*
X45737Y133303D01*
Y133164D01*
Y133150D01*
Y133081D01*
Y132998D01*
Y132887D01*
Y132637D01*
Y132512D01*
Y132401D01*
X45724Y131541D01*
Y131528D01*
Y131500D01*
X45737Y131458D01*
X45751Y131444D01*
X45793D01*
X45821Y131431D01*
X45834Y131417D01*
Y131403D01*
Y131389D01*
Y131306D01*
Y131181D01*
Y131056D01*
Y131042D01*
Y130973D01*
Y130890D01*
Y130793D01*
X45848Y130584D01*
X45862Y130487D01*
X45876Y130418D01*
Y130404D01*
X45904Y130349D01*
X45932Y130266D01*
X45973Y130141D01*
X46029Y129988D01*
X46112Y129780D01*
X46209Y129544D01*
X46320Y129267D01*
Y129253D01*
X46334Y129198D01*
X46361Y129115D01*
X46389Y128990D01*
X46431Y128837D01*
X46472Y128671D01*
X46528Y128476D01*
X46597Y128255D01*
X46611Y128227D01*
X46639Y128171D01*
X46680Y128088D01*
X46736Y127977D01*
X46805Y127880D01*
X46888Y127783D01*
X46972Y127700D01*
X47055Y127658D01*
X47069D01*
X47110Y127644D01*
X47194Y127617D01*
X47291Y127589D01*
X47429Y127561D01*
X47582Y127520D01*
X47762Y127478D01*
X47970Y127436D01*
X48192Y127381D01*
X48442Y127339D01*
X48705Y127284D01*
X48997Y127242D01*
X49288Y127201D01*
X49607Y127159D01*
X49939Y127117D01*
X50286Y127090D01*
X50356D01*
X50453Y127104D01*
X50744D01*
X50938Y127117D01*
X51729D01*
X51742Y127104D01*
X51812Y127090D01*
X51923Y127048D01*
X52089Y126979D01*
X52117D01*
X52200Y126951D01*
X52325Y126937D01*
X52491Y126909D01*
X52672Y126882D01*
X52866Y126854D01*
X53074Y126840D01*
X53268Y126826D01*
X53531D01*
X53975Y126882D01*
X54086D01*
X54169Y126896D01*
X54918D01*
X55099Y126868D01*
X55307Y126840D01*
X55515Y126798D01*
X55681Y126715D01*
X55764Y126674D01*
X55820Y126618D01*
X55848Y126549D01*
X55861Y126480D01*
Y126466D01*
X55848Y126438D01*
X55834Y126410D01*
X55820Y126355D01*
X55792Y126271D01*
X55750Y126174D01*
Y126160D01*
X55736Y126133D01*
X55709Y126077D01*
X55695Y126022D01*
X55653Y125897D01*
X55639Y125855D01*
Y125828D01*
X55598D01*
X55556Y125814D01*
X55487Y125800D01*
X55404Y125786D01*
X55293D01*
X55168Y125772D01*
X55015Y125758D01*
X54849Y125744D01*
X54655Y125731D01*
X54433Y125717D01*
X54197Y125703D01*
X53934Y125689D01*
X53656D01*
X53351Y125675D01*
X52991D01*
X52935Y125689D01*
X52852D01*
X52783Y125703D01*
X52699D01*
X52602Y125717D01*
X52491Y125731D01*
X52366Y125744D01*
X52214Y125758D01*
X52048Y125772D01*
X51853Y125800D01*
X51839D01*
X51784Y125814D01*
X51715D01*
X51604Y125828D01*
X51479Y125842D01*
X51340Y125855D01*
X51174Y125869D01*
X50993Y125897D01*
X50619Y125939D01*
X50231Y125994D01*
X49842Y126036D01*
X49648Y126063D01*
X49482Y126091D01*
X49454Y126105D01*
X49399Y126119D01*
X49288Y126147D01*
X49149Y126188D01*
X48983Y126230D01*
X48788Y126285D01*
X48567Y126341D01*
X48331Y126396D01*
X47984D01*
X47970Y126382D01*
X47929Y126341D01*
X47901Y126285D01*
X47873Y126258D01*
X47887Y126230D01*
X47901Y126202D01*
X47915Y126160D01*
X47943Y126105D01*
X47984Y126036D01*
Y126022D01*
X47998Y126008D01*
X48026Y125925D01*
X48067Y125842D01*
X48081Y125800D01*
Y125772D01*
Y125744D01*
X48053Y125689D01*
X48026Y125661D01*
X47970Y125620D01*
X47915Y125564D01*
X47832Y125523D01*
X47818D01*
X47804Y125509D01*
X47734Y125495D01*
X47637Y125467D01*
X47554Y125453D01*
X47485D01*
X47429Y125467D01*
X47291Y125481D01*
X47110Y125509D01*
X46916Y125550D01*
X46708Y125633D01*
X46514Y125731D01*
X46320Y125869D01*
X46306Y125883D01*
X46251Y125925D01*
X46181Y126008D01*
X46070Y126133D01*
X45932Y126313D01*
X45848Y126410D01*
X45751Y126535D01*
X45654Y126660D01*
X45543Y126812D01*
X45432Y126965D01*
X45307Y127145D01*
Y127159D01*
X45294Y127187D01*
X45280Y127228D01*
X45266Y127270D01*
X45252Y127339D01*
X45224Y127423D01*
X45210Y127520D01*
X45169Y127644D01*
X45141Y127797D01*
X45100Y127977D01*
X45058Y128171D01*
X45002Y128407D01*
X44947Y128685D01*
X44891Y128990D01*
Y129003D01*
X44878Y129073D01*
X44864Y129156D01*
X44836Y129281D01*
X44808Y129420D01*
X44781Y129586D01*
X44753Y129766D01*
X44725Y129960D01*
X44669Y130363D01*
X44614Y130765D01*
X44586Y130959D01*
X44573Y131125D01*
X44559Y131278D01*
Y131417D01*
Y131431D01*
Y131486D01*
Y131555D01*
Y131652D01*
Y131791D01*
Y131930D01*
X44573Y132096D01*
Y132290D01*
X44586Y132485D01*
Y132706D01*
X44614Y133164D01*
X44656Y133649D01*
X44697Y134135D01*
X44711Y134149D01*
X44739Y134204D01*
X44781Y134301D01*
X44836Y134440D01*
Y134454D01*
Y134468D01*
Y134509D01*
X44850Y134565D01*
X44878Y134703D01*
X44933Y134898D01*
X45016Y135119D01*
X45155Y135397D01*
X45238Y135535D01*
X45335Y135688D01*
X45446Y135855D01*
X45585Y136021D01*
X45599Y136035D01*
X45613Y136062D01*
X45654Y136104D01*
X45710Y136173D01*
X45848Y136312D01*
X46029Y136493D01*
X46237Y136687D01*
X46472Y136853D01*
X46722Y137006D01*
X46833Y137047D01*
X46958Y137089D01*
X46986Y137103D01*
X47013Y137116D01*
X47055Y137130D01*
X47110Y137158D01*
X47180Y137186D01*
X47194D01*
X47207Y137200D01*
X47291Y137241D01*
X47360Y137283D01*
X47388Y137297D01*
X47457D01*
X47485Y137311D01*
X47554D01*
X47624Y137325D01*
X47721Y137338D01*
X47734D01*
X47762Y137352D01*
X47818D01*
X47873Y137366D01*
X47984Y137380D01*
X48123D01*
X48164Y137366D01*
D02*
G37*
G36*
X51715Y114303D02*
X51853Y114275D01*
X52020Y114220D01*
X52186Y114137D01*
X52325Y113998D01*
X52380Y113915D01*
X52422Y113804D01*
X52450Y113693D01*
X52464Y113554D01*
Y113540D01*
Y113499D01*
X52450Y113443D01*
X52422Y113374D01*
X52380Y113277D01*
X52311Y113180D01*
X52228Y113069D01*
X52103Y112958D01*
X52089Y112944D01*
X52034Y112916D01*
X51964Y112861D01*
X51881Y112805D01*
X51770Y112750D01*
X51645Y112694D01*
X51534Y112667D01*
X51410Y112653D01*
X51368D01*
X51299Y112667D01*
X51257Y112680D01*
X51188Y112694D01*
X51174D01*
X51160Y112708D01*
X51091Y112722D01*
X51021Y112736D01*
X50980D01*
Y112750D01*
X50966Y112791D01*
X50938Y112861D01*
X50883Y112972D01*
Y112985D01*
X50869Y113013D01*
X50841Y113097D01*
X50827Y113207D01*
X50813Y113318D01*
Y113332D01*
Y113388D01*
X50827Y113457D01*
X50841Y113554D01*
X50869Y113665D01*
X50924Y113776D01*
X50980Y113901D01*
X51063Y114012D01*
X51077Y114026D01*
X51104Y114053D01*
X51146Y114109D01*
X51215Y114164D01*
X51285Y114220D01*
X51382Y114275D01*
X51479Y114303D01*
X51576Y114317D01*
X51659D01*
X51715Y114303D01*
D02*
G37*
G36*
X51950Y110642D02*
X52020Y110628D01*
X52117Y110600D01*
X52214Y110559D01*
X52325Y110503D01*
X52450Y110434D01*
Y110420D01*
X52477Y110406D01*
X52505Y110364D01*
X52547Y110309D01*
X52602Y110240D01*
X52672Y110156D01*
X52838Y109948D01*
X52852D01*
X52866Y109935D01*
X52907Y109907D01*
X52963Y109879D01*
X53088Y109782D01*
X53254Y109657D01*
X53268Y109629D01*
X53309Y109574D01*
X53365Y109477D01*
X53434Y109352D01*
X53518Y109199D01*
X53615Y109019D01*
X53726Y108839D01*
X53823Y108645D01*
X54045Y108243D01*
X54142Y108048D01*
X54225Y107854D01*
X54294Y107688D01*
X54350Y107535D01*
X54391Y107410D01*
X54405Y107313D01*
Y107299D01*
X54391Y107258D01*
X54363Y107202D01*
X54294Y107105D01*
X54461Y106939D01*
X54488Y106911D01*
X54544Y106856D01*
X54599Y106772D01*
X54613Y106745D01*
X54627Y106717D01*
Y106689D01*
X54599Y106620D01*
Y106606D01*
X54585Y106592D01*
X54572Y106578D01*
Y106565D01*
Y106551D01*
X54599Y106495D01*
X54627Y106467D01*
X54669Y106426D01*
X54724Y106384D01*
X54794Y106343D01*
Y105760D01*
X54669Y105885D01*
X54655Y105871D01*
X54613Y105816D01*
X54585Y105718D01*
X54572Y105649D01*
Y105566D01*
Y105552D01*
Y105538D01*
X54585Y105455D01*
X54613Y105316D01*
X54669Y105164D01*
X54696Y105191D01*
X54738Y105247D01*
X54780Y105302D01*
X54835Y105358D01*
Y105344D01*
X54849Y105330D01*
X54904Y105247D01*
X54960Y105108D01*
X55043Y104970D01*
X55112Y104803D01*
X55182Y104651D01*
X55237Y104512D01*
X55251Y104401D01*
Y104387D01*
X55237Y104346D01*
X55223Y104290D01*
Y104276D01*
X55209Y104235D01*
X55196Y104193D01*
Y104165D01*
X55209Y104124D01*
X55223Y104082D01*
X55251Y104040D01*
X55279Y103971D01*
X55321Y103874D01*
Y103860D01*
X55334Y103832D01*
X55376Y103735D01*
X55417Y103638D01*
X55431Y103597D01*
Y103583D01*
Y103569D01*
Y103541D01*
X55417Y103499D01*
X55404Y103444D01*
X55348Y103319D01*
X55307Y103278D01*
X55251Y103236D01*
X55265Y103222D01*
X55279Y103194D01*
X55334Y103111D01*
X55404Y103028D01*
X55417Y102986D01*
X55431Y102972D01*
Y102959D01*
X55417Y102917D01*
X55404Y102862D01*
X55390Y102848D01*
X55376Y102820D01*
X55362Y102778D01*
Y102751D01*
Y102737D01*
Y102709D01*
X55390Y102626D01*
X55417Y102570D01*
X55459Y102529D01*
X55515Y102501D01*
X55584Y102487D01*
X55612D01*
X55653Y102501D01*
X55709Y102515D01*
X56444Y99131D01*
X56430Y99103D01*
X56416Y99034D01*
X56388Y98923D01*
X56361Y98798D01*
X56319Y98673D01*
X56291Y98562D01*
X56263Y98479D01*
X56250Y98424D01*
Y98410D01*
X56222Y98368D01*
X56194Y98299D01*
X56153Y98230D01*
X56097Y98146D01*
X56028Y98063D01*
X55931Y97994D01*
X55834Y97938D01*
X55820D01*
X55778Y97952D01*
X55487D01*
X55404Y97938D01*
X55307D01*
X55196Y97924D01*
X55071Y97911D01*
X55057D01*
X55029Y97897D01*
X54988D01*
X54918Y97883D01*
X54835Y97855D01*
X54738Y97841D01*
X54613Y97827D01*
X54488Y97800D01*
X54336Y97786D01*
X54169Y97758D01*
X53989Y97744D01*
X53795Y97730D01*
X53587Y97716D01*
X53379Y97703D01*
X52894Y97689D01*
X52838D01*
X52796Y97675D01*
X52741D01*
X52672Y97661D01*
X52575Y97647D01*
X52533D01*
X52477Y97633D01*
X52422D01*
X52311Y97619D01*
X52283Y97605D01*
X52145D01*
X52006Y97619D01*
X51812D01*
X51576Y97647D01*
X51299Y97675D01*
X50966Y97703D01*
X50591Y97758D01*
X50536D01*
X50466Y97744D01*
X50369Y97716D01*
X50356D01*
X50300Y97730D01*
X50217Y97744D01*
X50078Y97772D01*
X49995Y97786D01*
X49898Y97800D01*
X49773Y97814D01*
X49648Y97841D01*
X49510Y97855D01*
X49343Y97883D01*
X49163Y97911D01*
X48969Y97938D01*
X48927D01*
X48872Y97952D01*
X48802Y97966D01*
X48636Y97980D01*
X48428Y98008D01*
X48234Y98035D01*
X48040Y98049D01*
X47956Y98063D01*
X47887Y98077D01*
X47734D01*
X47679Y98063D01*
X47554Y98021D01*
X47415Y97952D01*
Y97938D01*
X47429Y97911D01*
X47443Y97855D01*
Y97800D01*
X47457Y97716D01*
X47471Y97619D01*
X47485Y97397D01*
Y97384D01*
Y97370D01*
Y97328D01*
X47471Y97273D01*
X47443Y97148D01*
X47388Y97009D01*
X47305Y96857D01*
X47166Y96732D01*
X47069Y96676D01*
X46972Y96635D01*
X46861Y96621D01*
X46722Y96607D01*
X46653D01*
X46569Y96621D01*
X46472Y96635D01*
X46375Y96662D01*
X46278Y96718D01*
X46195Y96773D01*
X46126Y96857D01*
X46112Y96870D01*
X46098Y96912D01*
X46070Y96967D01*
X46015Y97065D01*
X45959Y97176D01*
X45890Y97328D01*
X45807Y97494D01*
X45724Y97689D01*
X45627Y97924D01*
X45515Y98174D01*
X45391Y98465D01*
X45266Y98784D01*
X45141Y99131D01*
X45002Y99505D01*
X44864Y99908D01*
X44711Y100351D01*
Y100365D01*
Y100379D01*
Y100421D01*
X44697Y100476D01*
X44683Y100615D01*
X44669Y100795D01*
Y100809D01*
X44656Y100837D01*
X44642Y100878D01*
X44628Y100948D01*
X44600Y101031D01*
X44586Y101128D01*
X44559Y101253D01*
X44517Y101378D01*
X44448Y101683D01*
X44364Y102029D01*
X44281Y102418D01*
X44184Y102848D01*
X44101Y103305D01*
X44018Y103777D01*
X43934Y104276D01*
X43865Y104789D01*
X43796Y105302D01*
X43754Y105802D01*
X43727Y106301D01*
X43713Y106786D01*
Y106828D01*
X43727Y106856D01*
X43740Y106897D01*
X43754Y106953D01*
X43768Y107036D01*
Y107050D01*
Y107078D01*
X43782Y107161D01*
X43796Y107258D01*
X43810Y107299D01*
Y107313D01*
Y107327D01*
Y107355D01*
Y107397D01*
X43824Y107466D01*
X43837Y107535D01*
X43851Y107632D01*
X43865Y107757D01*
X43907Y107882D01*
X43934Y108021D01*
X43990Y108173D01*
X44115Y108534D01*
X44198Y108728D01*
X44295Y108936D01*
X44420Y109158D01*
X44545Y109380D01*
X44559D01*
X44573Y109408D01*
X44614Y109421D01*
X44669Y109463D01*
X44794Y109532D01*
X44947Y109629D01*
X45127Y109713D01*
X45294Y109796D01*
X45446Y109851D01*
X45571Y109865D01*
X45654D01*
X45724Y109851D01*
X45807Y109837D01*
X45904Y109810D01*
X46126Y109740D01*
X46251Y109699D01*
X46389Y109629D01*
X46542Y109560D01*
X46694Y109463D01*
X46847Y109352D01*
X46999Y109227D01*
X47166Y109075D01*
X47318Y108908D01*
X47332Y108881D01*
X47360Y108853D01*
X47388Y108811D01*
X47443Y108756D01*
X47499Y108686D01*
X47554Y108589D01*
X47637Y108478D01*
X47734Y108354D01*
X47832Y108201D01*
X47956Y108021D01*
X48095Y107826D01*
X48234Y107591D01*
X48400Y107341D01*
X48580Y107064D01*
X48775Y106745D01*
X48788D01*
X48816Y106759D01*
X48844Y106786D01*
X48872Y106828D01*
X48899Y106883D01*
X48927Y106967D01*
X48955Y107078D01*
Y107105D01*
X48969Y107161D01*
X48983Y107258D01*
X48997Y107355D01*
X49010Y107466D01*
X49024Y107563D01*
X49038Y107632D01*
X49052Y107660D01*
Y107674D01*
X49066Y107702D01*
X49107Y107785D01*
X49163Y107868D01*
X49191Y107896D01*
X49205Y107910D01*
Y107924D01*
Y107937D01*
X49191Y107965D01*
X49163Y107993D01*
Y108007D01*
X49149Y108021D01*
Y108076D01*
Y108090D01*
X49163Y108146D01*
X49177Y108229D01*
X49232Y108326D01*
Y108340D01*
Y108354D01*
X49260Y108437D01*
X49302Y108561D01*
X49357Y108714D01*
X49454Y108922D01*
X49593Y109158D01*
X49773Y109408D01*
X49995Y109685D01*
X50009Y109699D01*
X50023Y109713D01*
X50106Y109810D01*
X50231Y109935D01*
X50397Y110087D01*
X50591Y110240D01*
X50785Y110378D01*
X51007Y110503D01*
X51104Y110545D01*
X51215Y110572D01*
X51229D01*
X51271Y110586D01*
X51340Y110600D01*
X51423Y110614D01*
X51631Y110642D01*
X51853Y110656D01*
X51895D01*
X51950Y110642D01*
D02*
G37*
G36*
X55528Y113804D02*
X55653Y113776D01*
Y113762D01*
X55667Y113748D01*
X55709Y113665D01*
X55764Y113526D01*
X55820Y113374D01*
X55889Y113180D01*
X55944Y112999D01*
X55986Y112805D01*
X56000Y112625D01*
Y112611D01*
X55972Y112570D01*
X55931Y112486D01*
X55889Y112417D01*
X55834Y112348D01*
X55820Y112334D01*
X55806Y112320D01*
X55736Y112237D01*
X55681Y112153D01*
X55653Y112112D01*
X55639Y112098D01*
X55626D01*
X55584Y112070D01*
X55515Y112043D01*
X55417Y112015D01*
X55321Y111987D01*
X55209Y111959D01*
X55085Y111945D01*
X54974Y111931D01*
X54946D01*
X54863Y111959D01*
X54807Y111973D01*
X54738Y112001D01*
X54641Y112043D01*
X54544Y112098D01*
X54530Y112112D01*
X54488Y112126D01*
X54433Y112167D01*
X54363Y112223D01*
X54294Y112278D01*
X54239Y112348D01*
X54197Y112417D01*
X54183Y112500D01*
Y112514D01*
Y112528D01*
X54197Y112570D01*
Y112625D01*
X54211Y112750D01*
X54239Y112902D01*
X54253Y113069D01*
X54280Y113221D01*
X54294Y113346D01*
Y113388D01*
Y113429D01*
X54308Y113443D01*
X54363Y113485D01*
X54447Y113554D01*
X54558Y113624D01*
X54696Y113693D01*
X54877Y113762D01*
X55071Y113804D01*
X55307Y113818D01*
X55417D01*
X55528Y113804D01*
D02*
G37*
G36*
X55362Y155270D02*
X55417Y155229D01*
X55501Y155146D01*
X55584Y155048D01*
X55681Y154924D01*
X55764Y154785D01*
X55820Y154619D01*
X55848Y154424D01*
Y154410D01*
Y154383D01*
Y154341D01*
X55834Y154286D01*
X55820Y154133D01*
X55764Y153967D01*
X55695Y153786D01*
X55584Y153648D01*
X55515Y153578D01*
X55431Y153537D01*
X55348Y153509D01*
X55237Y153495D01*
X55223D01*
X55154Y153509D01*
X55071Y153523D01*
X54932Y153565D01*
X54766Y153634D01*
X54572Y153717D01*
X54336Y153856D01*
X54072Y154036D01*
Y154605D01*
X54100Y154632D01*
X54169Y154688D01*
X54280Y154785D01*
X54419Y154882D01*
X54558Y154979D01*
X54696Y155076D01*
X54807Y155132D01*
X54904Y155159D01*
X54960D01*
X55029Y155173D01*
X55099D01*
X55182Y155187D01*
X55251Y155215D01*
X55307Y155243D01*
X55334Y155284D01*
X55362Y155270D01*
D02*
G37*
G36*
X53629Y166961D02*
X53726Y166934D01*
X53823Y166892D01*
X53934Y166809D01*
X54031Y166684D01*
X54058Y166615D01*
X54086Y166518D01*
X54114Y166420D01*
Y166296D01*
Y165727D01*
Y165713D01*
X54100Y165685D01*
X54086Y165658D01*
X54058Y165602D01*
X54003Y165519D01*
X53948Y165422D01*
X53864Y165297D01*
X53850Y165283D01*
X53823Y165228D01*
X53767Y165158D01*
X53712Y165075D01*
X53601Y164895D01*
X53573Y164826D01*
X53545Y164770D01*
Y164756D01*
X53531Y164729D01*
X53504Y164687D01*
X53490Y164631D01*
X53462Y164548D01*
X53421Y164465D01*
X53337Y164243D01*
X53254Y163993D01*
X53171Y163702D01*
X53088Y163383D01*
X53018Y163064D01*
Y163037D01*
X53004Y162981D01*
X52977Y162870D01*
X52949Y162731D01*
X52921Y162565D01*
X52894Y162371D01*
X52852Y162149D01*
X52810Y161913D01*
X52783Y161664D01*
X52741Y161400D01*
X52672Y160859D01*
X52630Y160346D01*
X52616Y160096D01*
Y159861D01*
Y159833D01*
X52630Y159777D01*
X52658Y159708D01*
X52727Y159611D01*
X52616Y159472D01*
Y159445D01*
X52644Y159375D01*
X52685Y159264D01*
X52769Y159112D01*
X52824Y159029D01*
X52894Y158945D01*
X52977Y158862D01*
X53074Y158765D01*
X53199Y158668D01*
X53337Y158571D01*
X53490Y158488D01*
X53670Y158391D01*
X53684Y158377D01*
X53712Y158349D01*
X53767Y158308D01*
X53836Y158252D01*
X53920Y158169D01*
X54031Y158086D01*
X54156Y157975D01*
X54308Y157864D01*
X54336D01*
X54405Y157836D01*
X54530Y157808D01*
X54682Y157767D01*
X54696D01*
X54710Y157753D01*
X54752Y157739D01*
X54807Y157711D01*
X54877Y157669D01*
X54946Y157628D01*
X55154Y157503D01*
X55168Y157489D01*
X55196Y157448D01*
X55251Y157378D01*
X55334Y157281D01*
X55445Y157156D01*
X55556Y157018D01*
X55709Y156851D01*
X55875Y156657D01*
X55861Y156643D01*
X55848Y156615D01*
X55820Y156560D01*
X55778Y156491D01*
X55667Y156338D01*
X55556Y156158D01*
X55542Y156144D01*
X55515Y156116D01*
X55473Y156075D01*
X55417Y156019D01*
X55334Y155964D01*
X55251Y155922D01*
X55154Y155894D01*
X55043Y155880D01*
X54890D01*
X54794Y155894D01*
X54599Y155922D01*
X54516Y155936D01*
X54461Y155964D01*
X54447Y155978D01*
X54419Y156005D01*
X54363Y156061D01*
X54280Y156130D01*
X54100Y156297D01*
X53892Y156477D01*
X53878Y156491D01*
X53823Y156532D01*
X53740Y156602D01*
X53629Y156685D01*
X53490Y156768D01*
X53351Y156865D01*
X53199Y156962D01*
X53046Y157045D01*
X53032Y157059D01*
X52991D01*
X52977Y157045D01*
X52949Y157032D01*
X52880Y157018D01*
X52796Y157004D01*
X52685Y156976D01*
X52519Y156948D01*
X52477D01*
X52408Y156934D01*
X52366D01*
X52283Y156948D01*
X52186Y157004D01*
X52131Y157032D01*
X52089Y157087D01*
Y157101D01*
X52061Y157129D01*
X52048Y157184D01*
X52006Y157254D01*
X51937Y157434D01*
X51839Y157628D01*
X51826Y157656D01*
X51798Y157711D01*
X51756Y157794D01*
X51701Y157905D01*
X51631Y158016D01*
X51562Y158113D01*
X51493Y158210D01*
X51410Y158280D01*
X51396Y158294D01*
X51354Y158321D01*
X51285Y158363D01*
X51160Y158432D01*
X51091Y158488D01*
X50993Y158543D01*
X50883Y158599D01*
X50758Y158682D01*
X50619Y158765D01*
X50453Y158862D01*
X50439Y158876D01*
X50425Y158890D01*
X50383Y158932D01*
X50328Y158987D01*
X50272Y159043D01*
X50189Y159126D01*
X50078Y159223D01*
X49967Y159320D01*
X49953Y159334D01*
X49912Y159348D01*
X49842Y159389D01*
X49745Y159459D01*
X49621Y159528D01*
X49482Y159611D01*
X49302Y159722D01*
X49094Y159847D01*
X48872Y159986D01*
X48622Y160138D01*
X48345Y160318D01*
X48053Y160499D01*
X47721Y160707D01*
X47374Y160929D01*
X46999Y161164D01*
X46611Y161414D01*
X46583D01*
X46514Y161442D01*
X46389Y161469D01*
X46237Y161511D01*
X44656Y162454D01*
X44573D01*
X44461Y162468D01*
X44323Y162496D01*
X43643Y162995D01*
Y163009D01*
X43629Y163023D01*
X43602Y163092D01*
X43574Y163161D01*
Y163175D01*
X43560Y163189D01*
Y163203D01*
X43574Y163272D01*
X43615Y163397D01*
X43699Y163536D01*
X43754Y163605D01*
X43824Y163688D01*
X43921Y163772D01*
X44018Y163855D01*
X44142Y163938D01*
X44295Y164021D01*
X44461Y164091D01*
X44656Y164160D01*
X44669D01*
X44711Y164174D01*
X44794Y164202D01*
X44850Y164229D01*
X44919Y164243D01*
X45016Y164271D01*
X45127Y164312D01*
X45252Y164354D01*
X45405Y164396D01*
X45571Y164451D01*
X45765Y164520D01*
X45779D01*
X45793Y164534D01*
X45834Y164548D01*
X45890Y164562D01*
X46042Y164618D01*
X46237Y164673D01*
X46472Y164742D01*
X46736Y164826D01*
X47027Y164909D01*
X47318Y164992D01*
X47332D01*
X47388Y165006D01*
X47457Y165020D01*
X47568Y165034D01*
X47693Y165047D01*
X47845Y165075D01*
X48012Y165103D01*
X48192Y165131D01*
X48594Y165214D01*
X49038Y165297D01*
X49482Y165380D01*
X49926Y165477D01*
X49939D01*
X49967Y165491D01*
X50023Y165505D01*
X50092Y165519D01*
X50189Y165547D01*
X50300Y165574D01*
X50439Y165616D01*
X50591Y165672D01*
X50772Y165727D01*
X50952Y165783D01*
X51160Y165866D01*
X51396Y165949D01*
X51645Y166032D01*
X51895Y166143D01*
X52186Y166254D01*
X52477Y166379D01*
X52505Y166393D01*
X52533Y166420D01*
X52588Y166462D01*
X52658Y166504D01*
X52755Y166573D01*
X52880Y166642D01*
X53018Y166726D01*
X53032Y166739D01*
X53074Y166767D01*
X53143Y166809D01*
X53226Y166850D01*
X53407Y166934D01*
X53476Y166961D01*
X53545Y166975D01*
X53573D01*
X53629Y166961D01*
D02*
G37*
G36*
X51701Y152677D02*
X51826Y152621D01*
X51895Y152580D01*
X51964Y152524D01*
X51978Y152510D01*
X51992Y152483D01*
X52048Y152413D01*
X52131Y152316D01*
X52242Y152164D01*
X52311Y152067D01*
X52394Y151970D01*
X52477Y151845D01*
X52588Y151706D01*
X52713Y151540D01*
X52838Y151373D01*
X52907D01*
X52977Y151359D01*
X53060Y151346D01*
X53074Y151332D01*
X53088Y151304D01*
X53129Y151248D01*
X53185Y151193D01*
X53240Y151110D01*
X53309Y150999D01*
X53490Y150763D01*
X53698Y150486D01*
X53934Y150167D01*
X54183Y149834D01*
X54433Y149473D01*
X54696Y149127D01*
X54946Y148766D01*
X55182Y148447D01*
X55390Y148142D01*
X55570Y147878D01*
X55639Y147767D01*
X55695Y147656D01*
X55750Y147573D01*
X55792Y147504D01*
X55806Y147449D01*
X55820Y147421D01*
Y147393D01*
X55806Y147365D01*
X55778Y147310D01*
X55750Y147240D01*
X55709Y147157D01*
X55639Y147032D01*
X55542Y146894D01*
X55528Y146880D01*
X55501Y146824D01*
X55445Y146755D01*
X55390Y146672D01*
X55334Y146589D01*
X55265Y146519D01*
X55209Y146450D01*
X55168Y146408D01*
X55154Y146395D01*
X55099Y146367D01*
X55002Y146311D01*
X54890Y146242D01*
X54738Y146159D01*
X54572Y146075D01*
X54377Y145965D01*
X54169Y145854D01*
X53934Y145729D01*
X53698Y145604D01*
X53199Y145368D01*
X52685Y145119D01*
X52186Y144911D01*
X52172Y144897D01*
X52145Y144883D01*
X52089Y144841D01*
X52020Y144786D01*
X51992Y144772D01*
X51937Y144730D01*
X51853Y144689D01*
X51770Y144675D01*
X51756D01*
X51729Y144689D01*
X51687Y144703D01*
X51631Y144730D01*
X51493Y144800D01*
X51326Y144883D01*
X51174Y144980D01*
X51035Y145091D01*
X50980Y145146D01*
X50938Y145202D01*
X50910Y145257D01*
X50896Y145313D01*
X50924Y145340D01*
X50966Y145382D01*
X51021Y145424D01*
X51077Y145465D01*
X51146Y145521D01*
X51243Y145590D01*
X51354Y145673D01*
X51493Y145770D01*
X51659Y145895D01*
X51853Y146020D01*
X52075Y146173D01*
X52325Y146339D01*
X52339Y146353D01*
X52380Y146381D01*
X52450Y146422D01*
X52547Y146492D01*
X52658Y146561D01*
X52783Y146644D01*
X53032Y146824D01*
X53296Y147019D01*
X53421Y147102D01*
X53531Y147185D01*
X53615Y147254D01*
X53698Y147324D01*
X53740Y147365D01*
X53753Y147393D01*
Y147421D01*
X53740Y147462D01*
X53712Y147518D01*
X53670Y147615D01*
X53615Y147726D01*
X53531Y147878D01*
X53421Y148073D01*
X53407Y148100D01*
X53365Y148170D01*
X53309Y148267D01*
X53240Y148378D01*
X53157Y148503D01*
X53074Y148627D01*
X53004Y148724D01*
X52935Y148808D01*
X52921Y148835D01*
X52894Y148891D01*
X52838Y148988D01*
X52755Y149140D01*
X52658Y149321D01*
X52519Y149529D01*
X52380Y149778D01*
X52200Y150056D01*
X52186Y150070D01*
X52172Y150084D01*
X52131Y150125D01*
X52075Y150194D01*
X52006Y150278D01*
X51937Y150375D01*
X51839Y150499D01*
X51729Y150652D01*
Y150666D01*
X51715Y150680D01*
X51701Y150721D01*
X51673Y150777D01*
X51645Y150846D01*
X51618Y150929D01*
X51548Y151124D01*
X51451Y151373D01*
X51354Y151678D01*
X51243Y152025D01*
X51132Y152400D01*
X51146Y152413D01*
X51174Y152441D01*
X51215Y152497D01*
X51271Y152552D01*
X51423Y152649D01*
X51507Y152677D01*
X51590Y152691D01*
X51618D01*
X51701Y152677D01*
D02*
G37*
G36*
X53018Y143954D02*
X53046D01*
X53129Y143940D01*
X53240Y143926D01*
X53379Y143898D01*
X53518Y143857D01*
X53656Y143801D01*
X53767Y143732D01*
X53836Y143649D01*
Y143635D01*
Y143565D01*
X53850Y143454D01*
Y143385D01*
Y143288D01*
X53864Y143191D01*
X53878Y143066D01*
X53892Y142927D01*
X53906Y142775D01*
X53920Y142608D01*
X53948Y142414D01*
X53975Y142206D01*
X54003Y141971D01*
X54183Y140695D01*
X54197Y140681D01*
X54211Y140625D01*
X54225Y140542D01*
X54253Y140431D01*
X54294Y140265D01*
X54308Y140154D01*
X54336Y140043D01*
X54322Y140029D01*
X54308Y140001D01*
X54294Y139960D01*
Y139918D01*
X54280Y139849D01*
X54267Y139765D01*
Y139655D01*
X54280Y139641D01*
X54322Y139599D01*
X54350Y139571D01*
X54377Y139544D01*
X54391D01*
X54419Y139571D01*
X54461Y139627D01*
X54488Y139668D01*
X54530Y139738D01*
X54572Y139807D01*
X54613Y139904D01*
X54655Y140029D01*
X54710Y140182D01*
X54780Y140348D01*
X54835Y140542D01*
X54918Y140778D01*
X54988Y141041D01*
Y141055D01*
Y141111D01*
X55002Y141194D01*
Y141319D01*
X55015Y141457D01*
X55029Y141610D01*
X55057Y141790D01*
X55071Y141971D01*
Y141984D01*
Y142012D01*
X55085Y142054D01*
X55099Y142109D01*
X55126Y142248D01*
X55168Y142414D01*
X55223Y142581D01*
X55307Y142719D01*
X55348Y142775D01*
X55404Y142816D01*
X55459Y142844D01*
X55515Y142858D01*
X55528Y142844D01*
X55556Y142830D01*
X55584Y142789D01*
X55639Y142733D01*
X55695Y142636D01*
X55778Y142498D01*
X55875Y142317D01*
X55889Y142303D01*
X55917Y142276D01*
X55958Y142234D01*
X56000Y142178D01*
X56069Y142109D01*
X56153Y142026D01*
Y141998D01*
Y141943D01*
X56166Y141860D01*
X56180Y141776D01*
Y141679D01*
X56194Y141596D01*
X56208Y141541D01*
Y141513D01*
Y141485D01*
Y141430D01*
X56194Y141333D01*
Y141208D01*
X56180Y141041D01*
X56166Y140930D01*
Y140806D01*
X56111Y140057D01*
Y140043D01*
Y140015D01*
X56097Y139960D01*
X56083Y139876D01*
X56055Y139779D01*
X56014Y139641D01*
X55958Y139488D01*
X55875Y139294D01*
X55861Y139266D01*
X55848Y139238D01*
X55820Y139183D01*
X55778Y139100D01*
X55723Y138989D01*
X55639Y138850D01*
X55556Y138684D01*
X55542Y138656D01*
X55515Y138587D01*
X55459Y138462D01*
X55376Y138323D01*
X55265Y138143D01*
X55126Y137963D01*
X54960Y137768D01*
X54752Y137574D01*
X54724Y137560D01*
X54655Y137505D01*
X54544Y137422D01*
X54405Y137338D01*
X54239Y137241D01*
X54058Y137172D01*
X53864Y137116D01*
X53684Y137089D01*
X53587D01*
X53476Y137103D01*
X53351D01*
X53060Y137158D01*
X52921Y137186D01*
X52810Y137241D01*
X52783Y137255D01*
X52727Y137297D01*
X52616Y137366D01*
X52491Y137463D01*
X52325Y137588D01*
X52158Y137741D01*
X51964Y137935D01*
X51770Y138170D01*
X51576Y138448D01*
X51382Y138753D01*
X51215Y139100D01*
X51049Y139488D01*
X50924Y139932D01*
X50813Y140417D01*
X50758Y140944D01*
X50730Y141527D01*
Y141541D01*
Y141568D01*
Y141624D01*
X50744Y141707D01*
Y141790D01*
X50758Y141887D01*
X50785Y142123D01*
X50855Y142373D01*
X50938Y142636D01*
X51049Y142886D01*
X51215Y143108D01*
X51229Y143122D01*
X51285Y143177D01*
X51354Y143260D01*
X51465Y143357D01*
X51604Y143482D01*
X51756Y143621D01*
X51937Y143759D01*
X52131Y143912D01*
X52145D01*
X52158Y143926D01*
X52200D01*
X52256Y143940D01*
X52325Y143954D01*
X52394D01*
X52602Y143968D01*
X52852D01*
X53018Y143954D01*
D02*
G37*
G36*
X48733Y97189D02*
X48802D01*
X48858Y97176D01*
X48927D01*
X49010Y97162D01*
X49107Y97148D01*
X49218Y97134D01*
X49357Y97120D01*
X49510Y97106D01*
X49690Y97092D01*
X49704Y97079D01*
X49731Y97065D01*
X49787Y97009D01*
X49856Y96940D01*
X49884Y96954D01*
X49939Y96967D01*
X49967D01*
X50023Y96954D01*
X50134Y96940D01*
X50258Y96898D01*
X50411Y96815D01*
X50591Y96704D01*
X50772Y96565D01*
X50869Y96468D01*
X50966Y96357D01*
X51063Y96163D01*
X51077Y96149D01*
X51104Y96108D01*
X51160Y96052D01*
X51202Y96038D01*
X51188D01*
X51160Y96025D01*
X51104Y95983D01*
X51035Y95900D01*
Y95886D01*
X51049Y95872D01*
X51077Y95830D01*
X51118Y95775D01*
X51215Y95636D01*
X51340Y95470D01*
Y95484D01*
X51368Y95525D01*
X51396Y95581D01*
X51437Y95664D01*
X51451D01*
X51465Y95650D01*
X51493Y95622D01*
X51548Y95595D01*
X51604Y95539D01*
X51673Y95456D01*
X51770Y95359D01*
X51784D01*
X51770Y95345D01*
X51742Y95317D01*
X51659Y95248D01*
X51604Y95220D01*
X51534Y95165D01*
Y94984D01*
X51548Y94971D01*
X51562Y94943D01*
X51618Y94901D01*
X51673Y94832D01*
X51742Y94735D01*
X51839Y94638D01*
X51950Y94513D01*
X52089Y94360D01*
X52103Y94374D01*
X52131Y94416D01*
X52158Y94471D01*
X52172Y94554D01*
Y94568D01*
X52158Y94624D01*
X52145Y94679D01*
X52117Y94721D01*
X52131Y94707D01*
X52186Y94679D01*
X52256Y94624D01*
X52339Y94568D01*
X52422Y94485D01*
X52491Y94388D01*
X52547Y94291D01*
X52575Y94194D01*
X52561D01*
X52533Y94166D01*
X52491Y94138D01*
X52422Y94083D01*
Y94097D01*
X52408Y94138D01*
X52366Y94194D01*
X52311Y94277D01*
X52131D01*
X52117Y94249D01*
X52103Y94208D01*
Y94152D01*
X53421Y91670D01*
Y91656D01*
X53393Y91601D01*
X53379Y91573D01*
X53365Y91531D01*
Y91517D01*
X53379Y91489D01*
X53421Y91434D01*
X53476Y91351D01*
X54031Y89687D01*
Y89673D01*
X54045Y89645D01*
X54058Y89603D01*
X54086Y89534D01*
X54142Y89382D01*
X54225Y89187D01*
X54336Y88979D01*
X54447Y88771D01*
X54572Y88591D01*
X54641Y88522D01*
X54710Y88452D01*
X54724Y88466D01*
X54752Y88522D01*
X54794Y88605D01*
X54807Y88688D01*
Y88702D01*
X54794Y88730D01*
Y88757D01*
X54780Y88813D01*
X54752Y88896D01*
X54710Y88993D01*
X54669Y89132D01*
Y89146D01*
X54655Y89201D01*
X54627Y89257D01*
X54613Y89340D01*
X54585Y89423D01*
X54572Y89493D01*
X54558Y89548D01*
Y89590D01*
Y89603D01*
Y89659D01*
X54572Y89742D01*
X54599Y89825D01*
X54613Y89798D01*
X54641Y89728D01*
X54696Y89590D01*
X54780Y89409D01*
X54877Y89173D01*
X55002Y88896D01*
X55140Y88549D01*
X55307Y88161D01*
Y88133D01*
Y88064D01*
X55321Y87939D01*
Y87856D01*
X55334Y87759D01*
Y87745D01*
X55348Y87731D01*
X55362Y87690D01*
X55376Y87634D01*
X55431Y87495D01*
X55501Y87301D01*
X55570Y87079D01*
X55653Y86830D01*
X55736Y86566D01*
X55820Y86303D01*
Y86275D01*
X55848Y86206D01*
X55875Y86081D01*
X55917Y85928D01*
X55958Y85734D01*
X56014Y85526D01*
X56069Y85290D01*
X56125Y85027D01*
X56250Y84486D01*
X56347Y83931D01*
X56388Y83654D01*
X56416Y83404D01*
X56430Y83168D01*
X56444Y82960D01*
Y82947D01*
Y82933D01*
X56430Y82877D01*
X56416Y82822D01*
X56402Y82752D01*
X56361Y82655D01*
X56319Y82544D01*
X56250Y82406D01*
X56236Y82392D01*
X56222Y82350D01*
X56180Y82281D01*
X56139Y82198D01*
X56028Y82031D01*
X55958Y81948D01*
X55903Y81893D01*
X55889D01*
X55875Y81865D01*
X55834Y81851D01*
X55778Y81823D01*
X55709Y81796D01*
X55639Y81782D01*
X55431Y81754D01*
X55417D01*
X55376Y81768D01*
X55321Y81782D01*
X55251Y81837D01*
X55154Y81906D01*
X55057Y82017D01*
X54960Y82184D01*
X54918Y82281D01*
X54863Y82392D01*
Y82420D01*
X54890Y82475D01*
Y82489D01*
X54904Y82503D01*
X54918Y82558D01*
Y82572D01*
X54904Y82641D01*
X54877Y82725D01*
X54821Y82836D01*
Y82850D01*
Y82863D01*
X54807Y82947D01*
X54794Y83071D01*
X54766Y83224D01*
X54752Y83390D01*
X54724Y83571D01*
X54696Y83737D01*
X54669Y83890D01*
Y83917D01*
X54655Y83973D01*
X54627Y84084D01*
X54599Y84195D01*
X54572Y84333D01*
X54530Y84486D01*
X54488Y84625D01*
X54433Y84749D01*
X54405D01*
X54363Y84736D01*
X54308D01*
X54169Y84722D01*
X53975Y84694D01*
X53753Y84666D01*
X53504Y84639D01*
X53240Y84611D01*
X52949Y84583D01*
X52380Y84514D01*
X52103Y84486D01*
X51839Y84458D01*
X51604Y84431D01*
X51410Y84417D01*
X51257Y84403D01*
X51104D01*
X51049Y84417D01*
X50993D01*
X50938Y84431D01*
X50869D01*
X50785Y84444D01*
X50675Y84458D01*
X50550Y84472D01*
X50397Y84486D01*
X50231Y84514D01*
X50037Y84528D01*
X49815Y84555D01*
X49801D01*
X49745Y84569D01*
X49662D01*
X49565Y84583D01*
X49440Y84597D01*
X49288Y84611D01*
X48969Y84639D01*
X48622Y84666D01*
X48275Y84708D01*
X48123D01*
X47984Y84722D01*
X47859Y84736D01*
X47734D01*
X47679Y84749D01*
X47610Y84791D01*
X47513Y84846D01*
X47499D01*
X47457Y84833D01*
X47402Y84819D01*
X47332Y84805D01*
X47291D01*
X47235Y84819D01*
X47166Y84833D01*
X47138D01*
X47097Y84846D01*
X47013Y84860D01*
X46958Y84874D01*
X46888Y84902D01*
X46791Y84916D01*
X46694Y84944D01*
X46569Y84971D01*
X46431Y85013D01*
X46264Y85055D01*
X46084Y85096D01*
Y85110D01*
X46056Y85166D01*
X46029Y85249D01*
X45973Y85346D01*
Y85332D01*
X45945Y85318D01*
X45904Y85235D01*
X45862Y85124D01*
X45834Y84999D01*
Y84971D01*
X45848Y84916D01*
X45862Y84860D01*
X45876Y84791D01*
X45890Y84708D01*
X45918Y84611D01*
X45945Y84486D01*
X45973Y84333D01*
X46015Y84167D01*
X46056Y83959D01*
X46112Y83723D01*
X46167Y83460D01*
X46514Y81934D01*
Y81920D01*
Y81906D01*
X46500Y81865D01*
X46472Y81809D01*
X46431Y81740D01*
X46375Y81657D01*
X46306Y81560D01*
X46195Y81463D01*
X46181Y81449D01*
X46153Y81421D01*
X46112Y81379D01*
X46056Y81338D01*
X45932Y81255D01*
X45876Y81227D01*
X45834Y81213D01*
X45821D01*
X45779Y81227D01*
X45710Y81241D01*
X45613Y81282D01*
X45515Y81352D01*
X45391Y81449D01*
X45280Y81587D01*
X45155Y81782D01*
Y81796D01*
X45127Y81837D01*
X45100Y81920D01*
X45058Y82045D01*
X45030Y82114D01*
X45002Y82212D01*
X44961Y82336D01*
X44919Y82461D01*
X44878Y82614D01*
X44822Y82780D01*
X44767Y82960D01*
X44711Y83168D01*
Y83182D01*
X44697Y83238D01*
X44669Y83321D01*
X44642Y83432D01*
X44614Y83557D01*
X44573Y83709D01*
X44531Y83876D01*
X44489Y84056D01*
X44420Y84431D01*
X44351Y84805D01*
X44295Y85166D01*
X44281Y85332D01*
Y85471D01*
Y90477D01*
Y90491D01*
Y90505D01*
X44295Y90533D01*
X44309Y90588D01*
X44323Y90657D01*
X44351Y90768D01*
X44392Y90907D01*
Y90921D01*
X44406Y90976D01*
X44420Y91046D01*
X44448Y91129D01*
X44461Y91212D01*
X44475Y91295D01*
X44489Y91365D01*
X44503Y91406D01*
Y91420D01*
Y91434D01*
X44517Y91517D01*
Y91628D01*
X44531Y91795D01*
X44559Y91975D01*
X44586Y92183D01*
X44656Y92613D01*
Y92627D01*
X44669Y92668D01*
X44683Y92724D01*
X44697Y92807D01*
X44725Y92918D01*
X44767Y93043D01*
X44808Y93181D01*
X44850Y93348D01*
X44919Y93514D01*
X44988Y93708D01*
X45169Y94111D01*
X45405Y94568D01*
X45529Y94804D01*
X45682Y95040D01*
X45696Y95054D01*
X45724Y95095D01*
X45765Y95165D01*
X45834Y95262D01*
X45904Y95373D01*
X46001Y95484D01*
X46223Y95761D01*
X46486Y96052D01*
X46778Y96330D01*
X46930Y96454D01*
X47083Y96579D01*
X47249Y96676D01*
X47402Y96746D01*
X47415D01*
X47443Y96760D01*
X47485Y96787D01*
X47554Y96815D01*
X47637Y96857D01*
X47734Y96898D01*
X47859Y96954D01*
X48012Y97009D01*
X48040Y97023D01*
X48109Y97037D01*
X48192Y97065D01*
X48317Y97106D01*
X48428Y97148D01*
X48553Y97176D01*
X48650Y97189D01*
X48702Y97200D01*
X48733Y97189D01*
D02*
G37*
G36*
X17701Y105940D02*
X17826Y105885D01*
X17895Y105843D01*
X17964Y105788D01*
X17978Y105774D01*
X17992Y105746D01*
X18047Y105677D01*
X18131Y105580D01*
X18242Y105427D01*
X18311Y105330D01*
X18394Y105233D01*
X18477Y105108D01*
X18588Y104970D01*
X18713Y104803D01*
X18838Y104637D01*
X18907D01*
X18977Y104623D01*
X19060Y104609D01*
X19074Y104595D01*
X19088Y104567D01*
X19129Y104512D01*
X19185Y104457D01*
X19240Y104373D01*
X19310Y104262D01*
X19490Y104027D01*
X19698Y103749D01*
X19934Y103430D01*
X20183Y103097D01*
X20433Y102737D01*
X20696Y102390D01*
X20946Y102029D01*
X21182Y101711D01*
X21390Y101405D01*
X21570Y101142D01*
X21639Y101031D01*
X21695Y100920D01*
X21750Y100837D01*
X21792Y100767D01*
X21806Y100712D01*
X21820Y100684D01*
Y100656D01*
X21806Y100629D01*
X21778Y100573D01*
X21750Y100504D01*
X21709Y100421D01*
X21639Y100296D01*
X21542Y100157D01*
X21528Y100143D01*
X21501Y100088D01*
X21445Y100019D01*
X21390Y99935D01*
X21334Y99852D01*
X21265Y99783D01*
X21209Y99713D01*
X21168Y99672D01*
X21154Y99658D01*
X21099Y99630D01*
X21002Y99575D01*
X20891Y99506D01*
X20738Y99422D01*
X20572Y99339D01*
X20377Y99228D01*
X20169Y99117D01*
X19934Y98992D01*
X19698Y98868D01*
X19199Y98632D01*
X18685Y98382D01*
X18186Y98174D01*
X18172Y98160D01*
X18145Y98146D01*
X18089Y98105D01*
X18020Y98049D01*
X17992Y98035D01*
X17937Y97994D01*
X17853Y97952D01*
X17770Y97938D01*
X17756D01*
X17729Y97952D01*
X17687Y97966D01*
X17631Y97994D01*
X17493Y98063D01*
X17326Y98146D01*
X17174Y98243D01*
X17035Y98354D01*
X16980Y98410D01*
X16938Y98465D01*
X16910Y98521D01*
X16896Y98576D01*
X16924Y98604D01*
X16966Y98646D01*
X17021Y98687D01*
X17077Y98729D01*
X17146Y98784D01*
X17243Y98854D01*
X17354Y98937D01*
X17493Y99034D01*
X17659Y99159D01*
X17853Y99284D01*
X18075Y99436D01*
X18325Y99602D01*
X18339Y99616D01*
X18380Y99644D01*
X18450Y99686D01*
X18547Y99755D01*
X18658Y99824D01*
X18783Y99908D01*
X19032Y100088D01*
X19296Y100282D01*
X19420Y100365D01*
X19531Y100449D01*
X19615Y100518D01*
X19698Y100587D01*
X19740Y100629D01*
X19753Y100656D01*
Y100684D01*
X19740Y100726D01*
X19712Y100781D01*
X19670Y100878D01*
X19615Y100989D01*
X19531Y101142D01*
X19420Y101336D01*
X19407Y101364D01*
X19365Y101433D01*
X19310Y101530D01*
X19240Y101641D01*
X19157Y101766D01*
X19074Y101891D01*
X19004Y101988D01*
X18935Y102071D01*
X18921Y102099D01*
X18894Y102154D01*
X18838Y102251D01*
X18755Y102404D01*
X18658Y102584D01*
X18519Y102792D01*
X18380Y103042D01*
X18200Y103319D01*
X18186Y103333D01*
X18172Y103347D01*
X18131Y103389D01*
X18075Y103458D01*
X18006Y103541D01*
X17937Y103638D01*
X17839Y103763D01*
X17729Y103916D01*
Y103930D01*
X17715Y103943D01*
X17701Y103985D01*
X17673Y104040D01*
X17645Y104110D01*
X17618Y104193D01*
X17548Y104387D01*
X17451Y104637D01*
X17354Y104942D01*
X17243Y105289D01*
X17132Y105663D01*
X17146Y105677D01*
X17174Y105705D01*
X17215Y105760D01*
X17271Y105816D01*
X17423Y105913D01*
X17507Y105940D01*
X17590Y105954D01*
X17618D01*
X17701Y105940D01*
D02*
G37*
G36*
X19018Y113249D02*
X19046D01*
X19129Y113235D01*
X19240Y113221D01*
X19379Y113194D01*
X19518Y113152D01*
X19656Y113097D01*
X19767Y113027D01*
X19836Y112944D01*
Y112930D01*
Y112861D01*
X19850Y112750D01*
Y112680D01*
Y112583D01*
X19864Y112486D01*
X19878Y112361D01*
X19892Y112223D01*
X19906Y112070D01*
X19920Y111904D01*
X19948Y111710D01*
X19975Y111502D01*
X20003Y111266D01*
X20183Y109990D01*
X20197Y109976D01*
X20211Y109921D01*
X20225Y109837D01*
X20253Y109726D01*
X20294Y109560D01*
X20308Y109449D01*
X20336Y109338D01*
X20322Y109324D01*
X20308Y109297D01*
X20294Y109255D01*
Y109213D01*
X20280Y109144D01*
X20266Y109061D01*
Y108950D01*
X20280Y108936D01*
X20322Y108894D01*
X20350Y108867D01*
X20377Y108839D01*
X20391D01*
X20419Y108867D01*
X20461Y108922D01*
X20488Y108964D01*
X20530Y109033D01*
X20572Y109102D01*
X20613Y109199D01*
X20655Y109324D01*
X20710Y109477D01*
X20780Y109643D01*
X20835Y109837D01*
X20918Y110073D01*
X20988Y110337D01*
Y110351D01*
Y110406D01*
X21002Y110489D01*
Y110614D01*
X21015Y110753D01*
X21029Y110905D01*
X21057Y111086D01*
X21071Y111266D01*
Y111280D01*
Y111307D01*
X21085Y111349D01*
X21099Y111405D01*
X21126Y111543D01*
X21168Y111710D01*
X21223Y111876D01*
X21307Y112015D01*
X21348Y112070D01*
X21404Y112112D01*
X21459Y112140D01*
X21515Y112153D01*
X21528Y112140D01*
X21556Y112126D01*
X21584Y112084D01*
X21639Y112029D01*
X21695Y111932D01*
X21778Y111793D01*
X21875Y111613D01*
X21889Y111599D01*
X21917Y111571D01*
X21958Y111529D01*
X22000Y111474D01*
X22069Y111405D01*
X22153Y111321D01*
Y111294D01*
Y111238D01*
X22166Y111155D01*
X22180Y111072D01*
Y110975D01*
X22194Y110891D01*
X22208Y110836D01*
Y110808D01*
Y110780D01*
Y110725D01*
X22194Y110628D01*
Y110503D01*
X22180Y110337D01*
X22166Y110226D01*
Y110101D01*
X22111Y109352D01*
Y109338D01*
Y109310D01*
X22097Y109255D01*
X22083Y109172D01*
X22055Y109075D01*
X22014Y108936D01*
X21958Y108783D01*
X21875Y108589D01*
X21861Y108561D01*
X21848Y108534D01*
X21820Y108478D01*
X21778Y108395D01*
X21723Y108284D01*
X21639Y108146D01*
X21556Y107979D01*
X21542Y107951D01*
X21515Y107882D01*
X21459Y107757D01*
X21376Y107619D01*
X21265Y107438D01*
X21126Y107258D01*
X20960Y107064D01*
X20752Y106870D01*
X20724Y106856D01*
X20655Y106800D01*
X20544Y106717D01*
X20405Y106634D01*
X20239Y106537D01*
X20058Y106467D01*
X19864Y106412D01*
X19684Y106384D01*
X19587D01*
X19476Y106398D01*
X19351D01*
X19060Y106454D01*
X18921Y106481D01*
X18810Y106537D01*
X18783Y106551D01*
X18727Y106592D01*
X18616Y106662D01*
X18491Y106759D01*
X18325Y106883D01*
X18159Y107036D01*
X17964Y107230D01*
X17770Y107466D01*
X17576Y107743D01*
X17382Y108048D01*
X17215Y108395D01*
X17049Y108783D01*
X16924Y109227D01*
X16813Y109713D01*
X16758Y110240D01*
X16730Y110822D01*
Y110836D01*
Y110864D01*
Y110919D01*
X16744Y111002D01*
Y111086D01*
X16758Y111183D01*
X16786Y111418D01*
X16855Y111668D01*
X16938Y111932D01*
X17049Y112181D01*
X17215Y112403D01*
X17229Y112417D01*
X17285Y112472D01*
X17354Y112556D01*
X17465Y112653D01*
X17604Y112778D01*
X17756Y112916D01*
X17937Y113055D01*
X18131Y113207D01*
X18145D01*
X18159Y113221D01*
X18200D01*
X18255Y113235D01*
X18325Y113249D01*
X18394D01*
X18602Y113263D01*
X18852D01*
X19018Y113249D01*
D02*
G37*
G36*
X51715Y80353D02*
X51853Y80325D01*
X52020Y80270D01*
X52186Y80187D01*
X52325Y80048D01*
X52380Y79965D01*
X52422Y79854D01*
X52450Y79743D01*
X52464Y79604D01*
Y79590D01*
Y79549D01*
X52450Y79493D01*
X52422Y79424D01*
X52380Y79327D01*
X52311Y79230D01*
X52228Y79119D01*
X52103Y79008D01*
X52089Y78994D01*
X52034Y78966D01*
X51964Y78911D01*
X51881Y78855D01*
X51770Y78800D01*
X51645Y78744D01*
X51534Y78717D01*
X51410Y78703D01*
X51368D01*
X51299Y78717D01*
X51257Y78731D01*
X51188Y78744D01*
X51174D01*
X51160Y78758D01*
X51091Y78772D01*
X51021Y78786D01*
X50980D01*
Y78800D01*
X50966Y78842D01*
X50938Y78911D01*
X50883Y79022D01*
Y79036D01*
X50869Y79063D01*
X50841Y79147D01*
X50827Y79258D01*
X50813Y79369D01*
Y79382D01*
Y79438D01*
X50827Y79507D01*
X50841Y79604D01*
X50869Y79715D01*
X50924Y79826D01*
X50980Y79951D01*
X51063Y80062D01*
X51077Y80076D01*
X51104Y80104D01*
X51146Y80159D01*
X51215Y80215D01*
X51285Y80270D01*
X51382Y80325D01*
X51479Y80353D01*
X51576Y80367D01*
X51659D01*
X51715Y80353D01*
D02*
G37*
G36*
X14733Y90962D02*
X14802D01*
X14858Y90949D01*
X14927D01*
X15010Y90935D01*
X15107Y90921D01*
X15218Y90907D01*
X15357Y90893D01*
X15510Y90879D01*
X15690Y90865D01*
X15704Y90852D01*
X15732Y90838D01*
X15787Y90782D01*
X15856Y90713D01*
X15884Y90727D01*
X15940Y90741D01*
X15967D01*
X16023Y90727D01*
X16134Y90713D01*
X16258Y90671D01*
X16411Y90588D01*
X16591Y90477D01*
X16772Y90338D01*
X16869Y90241D01*
X16966Y90130D01*
X17063Y89936D01*
X17077Y89922D01*
X17105Y89881D01*
X17160Y89825D01*
X17201Y89811D01*
X17188D01*
X17160Y89798D01*
X17105Y89756D01*
X17035Y89673D01*
Y89659D01*
X17049Y89645D01*
X17077Y89603D01*
X17118Y89548D01*
X17215Y89409D01*
X17340Y89243D01*
Y89257D01*
X17368Y89298D01*
X17396Y89354D01*
X17437Y89437D01*
X17451D01*
X17465Y89423D01*
X17493Y89395D01*
X17548Y89368D01*
X17604Y89312D01*
X17673Y89229D01*
X17770Y89132D01*
X17784D01*
X17770Y89118D01*
X17742Y89090D01*
X17659Y89021D01*
X17604Y88993D01*
X17534Y88938D01*
Y88757D01*
X17548Y88744D01*
X17562Y88716D01*
X17618Y88674D01*
X17673Y88605D01*
X17742Y88508D01*
X17839Y88411D01*
X17950Y88286D01*
X18089Y88133D01*
X18103Y88147D01*
X18131Y88189D01*
X18159Y88244D01*
X18172Y88328D01*
Y88341D01*
X18159Y88397D01*
X18145Y88452D01*
X18117Y88494D01*
X18131Y88480D01*
X18186Y88452D01*
X18255Y88397D01*
X18339Y88341D01*
X18422Y88258D01*
X18491Y88161D01*
X18547Y88064D01*
X18575Y87967D01*
X18561D01*
X18533Y87939D01*
X18491Y87912D01*
X18422Y87856D01*
Y87870D01*
X18408Y87912D01*
X18367Y87967D01*
X18311Y88050D01*
X18131D01*
X18117Y88022D01*
X18103Y87981D01*
Y87925D01*
X19420Y85443D01*
Y85429D01*
X19393Y85374D01*
X19379Y85346D01*
X19365Y85304D01*
Y85290D01*
X19379Y85263D01*
X19420Y85207D01*
X19476Y85124D01*
X20031Y83460D01*
Y83446D01*
X20045Y83418D01*
X20058Y83377D01*
X20086Y83307D01*
X20142Y83155D01*
X20225Y82961D01*
X20336Y82752D01*
X20447Y82544D01*
X20572Y82364D01*
X20641Y82295D01*
X20710Y82225D01*
X20724Y82239D01*
X20752Y82295D01*
X20793Y82378D01*
X20807Y82461D01*
Y82475D01*
X20793Y82503D01*
Y82530D01*
X20780Y82586D01*
X20752Y82669D01*
X20710Y82766D01*
X20669Y82905D01*
Y82919D01*
X20655Y82974D01*
X20627Y83030D01*
X20613Y83113D01*
X20585Y83196D01*
X20572Y83266D01*
X20558Y83321D01*
Y83363D01*
Y83377D01*
Y83432D01*
X20572Y83515D01*
X20599Y83598D01*
X20613Y83571D01*
X20641Y83501D01*
X20696Y83363D01*
X20780Y83182D01*
X20877Y82947D01*
X21002Y82669D01*
X21140Y82323D01*
X21307Y81934D01*
Y81906D01*
Y81837D01*
X21321Y81712D01*
Y81629D01*
X21334Y81532D01*
Y81518D01*
X21348Y81504D01*
X21362Y81463D01*
X21376Y81407D01*
X21431Y81269D01*
X21501Y81074D01*
X21570Y80852D01*
X21653Y80603D01*
X21737Y80339D01*
X21820Y80076D01*
Y80048D01*
X21848Y79979D01*
X21875Y79854D01*
X21917Y79701D01*
X21958Y79507D01*
X22014Y79299D01*
X22069Y79063D01*
X22125Y78800D01*
X22250Y78259D01*
X22347Y77704D01*
X22388Y77427D01*
X22416Y77177D01*
X22430Y76942D01*
X22444Y76734D01*
Y76720D01*
Y76706D01*
X22430Y76650D01*
X22416Y76595D01*
X22402Y76526D01*
X22361Y76428D01*
X22319Y76318D01*
X22250Y76179D01*
X22236Y76165D01*
X22222Y76123D01*
X22180Y76054D01*
X22139Y75971D01*
X22028Y75804D01*
X21958Y75721D01*
X21903Y75666D01*
X21889D01*
X21875Y75638D01*
X21834Y75624D01*
X21778Y75596D01*
X21709Y75569D01*
X21639Y75555D01*
X21431Y75527D01*
X21418D01*
X21376Y75541D01*
X21321Y75555D01*
X21251Y75610D01*
X21154Y75680D01*
X21057Y75791D01*
X20960Y75957D01*
X20918Y76054D01*
X20863Y76165D01*
Y76193D01*
X20891Y76248D01*
Y76262D01*
X20904Y76276D01*
X20918Y76331D01*
Y76345D01*
X20904Y76415D01*
X20877Y76498D01*
X20821Y76609D01*
Y76623D01*
Y76637D01*
X20807Y76720D01*
X20793Y76845D01*
X20766Y76997D01*
X20752Y77164D01*
X20724Y77344D01*
X20696Y77510D01*
X20669Y77663D01*
Y77691D01*
X20655Y77746D01*
X20627Y77857D01*
X20599Y77968D01*
X20572Y78106D01*
X20530Y78259D01*
X20488Y78398D01*
X20433Y78523D01*
X20405D01*
X20364Y78509D01*
X20308D01*
X20169Y78495D01*
X19975Y78467D01*
X19753Y78439D01*
X19504Y78412D01*
X19240Y78384D01*
X18949Y78356D01*
X18380Y78287D01*
X18103Y78259D01*
X17839Y78231D01*
X17604Y78204D01*
X17410Y78190D01*
X17257Y78176D01*
X17105D01*
X17049Y78190D01*
X16993D01*
X16938Y78204D01*
X16869D01*
X16786Y78218D01*
X16674Y78231D01*
X16550Y78245D01*
X16397Y78259D01*
X16231Y78287D01*
X16037Y78301D01*
X15815Y78328D01*
X15801D01*
X15745Y78342D01*
X15662D01*
X15565Y78356D01*
X15440Y78370D01*
X15288Y78384D01*
X14969Y78412D01*
X14622Y78439D01*
X14275Y78481D01*
X14123D01*
X13984Y78495D01*
X13859Y78509D01*
X13734D01*
X13679Y78523D01*
X13610Y78564D01*
X13513Y78620D01*
X13499D01*
X13457Y78606D01*
X13402Y78592D01*
X13332Y78578D01*
X13291D01*
X13235Y78592D01*
X13166Y78606D01*
X13138D01*
X13096Y78620D01*
X13013Y78633D01*
X12958Y78647D01*
X12888Y78675D01*
X12791Y78689D01*
X12694Y78717D01*
X12570Y78745D01*
X12431Y78786D01*
X12264Y78828D01*
X12084Y78869D01*
Y78883D01*
X12056Y78939D01*
X12029Y79022D01*
X11973Y79119D01*
Y79105D01*
X11945Y79091D01*
X11904Y79008D01*
X11862Y78897D01*
X11834Y78772D01*
Y78745D01*
X11848Y78689D01*
X11862Y78633D01*
X11876Y78564D01*
X11890Y78481D01*
X11918Y78384D01*
X11945Y78259D01*
X11973Y78106D01*
X12015Y77940D01*
X12056Y77732D01*
X12112Y77496D01*
X12167Y77233D01*
X12514Y75707D01*
Y75693D01*
Y75680D01*
X12500Y75638D01*
X12472Y75582D01*
X12431Y75513D01*
X12375Y75430D01*
X12306Y75333D01*
X12195Y75236D01*
X12181Y75222D01*
X12153Y75194D01*
X12112Y75153D01*
X12056Y75111D01*
X11932Y75028D01*
X11876Y75000D01*
X11834Y74986D01*
X11821D01*
X11779Y75000D01*
X11710Y75014D01*
X11613Y75055D01*
X11516Y75125D01*
X11391Y75222D01*
X11280Y75361D01*
X11155Y75555D01*
Y75569D01*
X11127Y75610D01*
X11099Y75693D01*
X11058Y75818D01*
X11030Y75888D01*
X11002Y75985D01*
X10961Y76109D01*
X10919Y76234D01*
X10878Y76387D01*
X10822Y76553D01*
X10767Y76734D01*
X10711Y76942D01*
Y76955D01*
X10697Y77011D01*
X10669Y77094D01*
X10642Y77205D01*
X10614Y77330D01*
X10572Y77482D01*
X10531Y77649D01*
X10489Y77829D01*
X10420Y78204D01*
X10351Y78578D01*
X10295Y78939D01*
X10281Y79105D01*
Y79244D01*
Y84250D01*
Y84264D01*
Y84278D01*
X10295Y84306D01*
X10309Y84361D01*
X10323Y84431D01*
X10351Y84542D01*
X10392Y84680D01*
Y84694D01*
X10406Y84749D01*
X10420Y84819D01*
X10448Y84902D01*
X10461Y84985D01*
X10475Y85069D01*
X10489Y85138D01*
X10503Y85179D01*
Y85193D01*
Y85207D01*
X10517Y85290D01*
Y85401D01*
X10531Y85568D01*
X10559Y85748D01*
X10586Y85956D01*
X10656Y86386D01*
Y86400D01*
X10669Y86441D01*
X10683Y86497D01*
X10697Y86580D01*
X10725Y86691D01*
X10767Y86816D01*
X10808Y86955D01*
X10850Y87121D01*
X10919Y87287D01*
X10989Y87482D01*
X11169Y87884D01*
X11405Y88341D01*
X11529Y88577D01*
X11682Y88813D01*
X11696Y88827D01*
X11724Y88868D01*
X11765Y88938D01*
X11834Y89035D01*
X11904Y89146D01*
X12001Y89257D01*
X12223Y89534D01*
X12486Y89825D01*
X12778Y90103D01*
X12930Y90227D01*
X13083Y90352D01*
X13249Y90449D01*
X13402Y90519D01*
X13415D01*
X13443Y90533D01*
X13485Y90560D01*
X13554Y90588D01*
X13637Y90630D01*
X13734Y90671D01*
X13859Y90727D01*
X14012Y90782D01*
X14039Y90796D01*
X14109Y90810D01*
X14192Y90838D01*
X14317Y90879D01*
X14428Y90921D01*
X14553Y90949D01*
X14650Y90962D01*
X14702Y90973D01*
X14733Y90962D01*
D02*
G37*
G36*
X19018Y97217D02*
X19046D01*
X19129Y97203D01*
X19240Y97189D01*
X19379Y97162D01*
X19518Y97120D01*
X19656Y97065D01*
X19767Y96995D01*
X19836Y96912D01*
Y96898D01*
Y96829D01*
X19850Y96718D01*
Y96649D01*
Y96552D01*
X19864Y96454D01*
X19878Y96330D01*
X19892Y96191D01*
X19906Y96038D01*
X19920Y95872D01*
X19948Y95678D01*
X19975Y95470D01*
X20003Y95234D01*
X20183Y93958D01*
X20197Y93944D01*
X20211Y93889D01*
X20225Y93806D01*
X20253Y93695D01*
X20294Y93528D01*
X20308Y93417D01*
X20336Y93306D01*
X20322Y93292D01*
X20308Y93265D01*
X20294Y93223D01*
Y93181D01*
X20280Y93112D01*
X20266Y93029D01*
Y92918D01*
X20280Y92904D01*
X20322Y92863D01*
X20350Y92835D01*
X20377Y92807D01*
X20391D01*
X20419Y92835D01*
X20461Y92890D01*
X20488Y92932D01*
X20530Y93001D01*
X20572Y93070D01*
X20613Y93168D01*
X20655Y93292D01*
X20710Y93445D01*
X20780Y93611D01*
X20835Y93806D01*
X20918Y94041D01*
X20988Y94305D01*
Y94319D01*
Y94374D01*
X21002Y94457D01*
Y94582D01*
X21015Y94721D01*
X21029Y94873D01*
X21057Y95054D01*
X21071Y95234D01*
Y95248D01*
Y95276D01*
X21085Y95317D01*
X21099Y95373D01*
X21126Y95511D01*
X21168Y95678D01*
X21223Y95844D01*
X21307Y95983D01*
X21348Y96038D01*
X21404Y96080D01*
X21459Y96108D01*
X21515Y96122D01*
X21528Y96108D01*
X21556Y96094D01*
X21584Y96052D01*
X21639Y95997D01*
X21695Y95900D01*
X21778Y95761D01*
X21875Y95581D01*
X21889Y95567D01*
X21917Y95539D01*
X21958Y95498D01*
X22000Y95442D01*
X22069Y95373D01*
X22153Y95289D01*
Y95262D01*
Y95206D01*
X22166Y95123D01*
X22180Y95040D01*
Y94943D01*
X22194Y94860D01*
X22208Y94804D01*
Y94776D01*
Y94749D01*
Y94693D01*
X22194Y94596D01*
Y94471D01*
X22180Y94305D01*
X22166Y94194D01*
Y94069D01*
X22111Y93320D01*
Y93306D01*
Y93279D01*
X22097Y93223D01*
X22083Y93140D01*
X22055Y93043D01*
X22014Y92904D01*
X21958Y92752D01*
X21875Y92557D01*
X21861Y92530D01*
X21848Y92502D01*
X21820Y92446D01*
X21778Y92363D01*
X21723Y92252D01*
X21639Y92114D01*
X21556Y91947D01*
X21542Y91919D01*
X21515Y91850D01*
X21459Y91725D01*
X21376Y91587D01*
X21265Y91406D01*
X21126Y91226D01*
X20960Y91032D01*
X20752Y90838D01*
X20724Y90824D01*
X20655Y90768D01*
X20544Y90685D01*
X20405Y90602D01*
X20239Y90505D01*
X20058Y90435D01*
X19864Y90380D01*
X19684Y90352D01*
X19587D01*
X19476Y90366D01*
X19351D01*
X19060Y90422D01*
X18921Y90449D01*
X18810Y90505D01*
X18783Y90519D01*
X18727Y90560D01*
X18616Y90630D01*
X18491Y90727D01*
X18325Y90852D01*
X18159Y91004D01*
X17964Y91198D01*
X17770Y91434D01*
X17576Y91711D01*
X17382Y92016D01*
X17215Y92363D01*
X17049Y92752D01*
X16924Y93195D01*
X16813Y93681D01*
X16758Y94208D01*
X16730Y94790D01*
Y94804D01*
Y94832D01*
Y94887D01*
X16744Y94971D01*
Y95054D01*
X16758Y95151D01*
X16786Y95387D01*
X16855Y95636D01*
X16938Y95900D01*
X17049Y96149D01*
X17215Y96371D01*
X17229Y96385D01*
X17285Y96440D01*
X17354Y96524D01*
X17465Y96621D01*
X17604Y96746D01*
X17756Y96884D01*
X17937Y97023D01*
X18131Y97176D01*
X18145D01*
X18159Y97189D01*
X18200D01*
X18255Y97203D01*
X18325Y97217D01*
X18394D01*
X18602Y97231D01*
X18852D01*
X19018Y97217D01*
D02*
G37*
G36*
X55362Y76761D02*
X55417Y76720D01*
X55501Y76636D01*
X55584Y76539D01*
X55681Y76415D01*
X55764Y76276D01*
X55820Y76109D01*
X55848Y75915D01*
Y75901D01*
Y75874D01*
Y75832D01*
X55834Y75777D01*
X55820Y75624D01*
X55764Y75458D01*
X55695Y75277D01*
X55584Y75139D01*
X55515Y75069D01*
X55431Y75028D01*
X55348Y75000D01*
X55237Y74986D01*
X55223D01*
X55154Y75000D01*
X55071Y75014D01*
X54932Y75055D01*
X54766Y75125D01*
X54572Y75208D01*
X54336Y75347D01*
X54072Y75527D01*
Y76096D01*
X54100Y76123D01*
X54169Y76179D01*
X54280Y76276D01*
X54419Y76373D01*
X54558Y76470D01*
X54696Y76567D01*
X54807Y76623D01*
X54904Y76650D01*
X54960D01*
X55029Y76664D01*
X55099D01*
X55182Y76678D01*
X55251Y76706D01*
X55307Y76733D01*
X55334Y76775D01*
X55362Y76761D01*
D02*
G37*
G36*
X17853Y134939D02*
X17867Y134911D01*
X17895Y134870D01*
X17937Y134787D01*
X17992Y134676D01*
X18089Y134523D01*
X18145Y134426D01*
X18200Y134315D01*
X18089Y134190D01*
X18103Y134163D01*
X18145Y134107D01*
X18186Y134024D01*
X18200Y133927D01*
Y133899D01*
Y133857D01*
X18186Y133830D01*
Y133774D01*
Y133705D01*
X18172Y133608D01*
Y133497D01*
X18159Y133372D01*
X18145Y133219D01*
X18131Y133025D01*
X18103Y132817D01*
X18089Y132582D01*
X18061Y132304D01*
X17923Y130682D01*
Y130654D01*
Y130584D01*
X17937Y130487D01*
X17950Y130335D01*
X17964Y130169D01*
X17992Y129960D01*
X18034Y129752D01*
X18089Y129517D01*
X18172Y129267D01*
X18255Y129017D01*
X18367Y128768D01*
X18505Y128532D01*
X18658Y128296D01*
X18838Y128074D01*
X19060Y127880D01*
X19296Y127700D01*
X19310Y127686D01*
X19365Y127658D01*
X19448Y127631D01*
X19573Y127575D01*
X19740Y127520D01*
X19934Y127450D01*
X20183Y127381D01*
X20488Y127312D01*
X20502Y127298D01*
X20516Y127270D01*
X20572Y127214D01*
X20641Y127145D01*
X20724D01*
X20835Y127131D01*
X20988Y127117D01*
X21168Y127104D01*
X21390Y127076D01*
X21639Y127020D01*
X21917Y126965D01*
Y126951D01*
X21931Y126909D01*
X21944Y126854D01*
X21972Y126771D01*
X21986Y126674D01*
X22014Y126563D01*
X22028Y126313D01*
Y126299D01*
Y126285D01*
X22014Y126188D01*
X21972Y126077D01*
X21903Y125939D01*
X21861Y125855D01*
X21792Y125786D01*
X21723Y125731D01*
X21626Y125675D01*
X21515Y125620D01*
X21390Y125578D01*
X21237Y125564D01*
X21071Y125550D01*
X21029D01*
X20974Y125564D01*
X20891D01*
X20766Y125578D01*
X20585Y125592D01*
X20475Y125606D01*
X20364Y125620D01*
X20225Y125633D01*
X20072Y125647D01*
X20031D01*
X19975Y125661D01*
X19906D01*
X19823Y125675D01*
X19726D01*
X19504Y125703D01*
X19268Y125731D01*
X19018Y125758D01*
X18783Y125772D01*
X18575Y125800D01*
X18561D01*
X18533Y125814D01*
X18491Y125842D01*
X18436Y125869D01*
X18297Y125939D01*
X18131Y126036D01*
X17978Y126147D01*
X17839Y126258D01*
X17784Y126327D01*
X17742Y126382D01*
X17715Y126452D01*
X17701Y126507D01*
X17715Y126535D01*
X17729Y126590D01*
X17756Y126632D01*
X17784Y126687D01*
Y126701D01*
X17798Y126715D01*
X17812Y126785D01*
X17839Y126868D01*
X17853Y126896D01*
Y126923D01*
X17839Y126937D01*
X17826Y126965D01*
X17798Y127007D01*
X17756Y127076D01*
X17673Y127173D01*
X17576Y127298D01*
X17437Y127478D01*
X17423Y127506D01*
X17382Y127575D01*
X17326Y127700D01*
X17243Y127852D01*
X17146Y128033D01*
X17049Y128241D01*
X16938Y128463D01*
X16813Y128712D01*
Y128726D01*
X16799Y128740D01*
X16786Y128782D01*
X16758Y128823D01*
X16716Y128962D01*
X16647Y129156D01*
X16591Y129378D01*
X16550Y129642D01*
X16508Y129933D01*
X16494Y130252D01*
Y130266D01*
Y130293D01*
X16508Y130349D01*
Y130418D01*
X16522Y130515D01*
X16550Y130654D01*
X16564Y130820D01*
X16605Y131028D01*
X16633Y131278D01*
X16688Y131583D01*
X16716Y131763D01*
X16744Y131944D01*
X16772Y132152D01*
X16813Y132374D01*
X16855Y132596D01*
X16896Y132845D01*
X16938Y133123D01*
X16980Y133400D01*
X17035Y133705D01*
X17091Y134024D01*
X17105D01*
X17118Y134038D01*
X17160Y134079D01*
X17215Y134135D01*
X17313Y134870D01*
X17465D01*
X17548Y134884D01*
X17645D01*
X17729Y134911D01*
X17798Y134925D01*
X17839Y134953D01*
X17853Y134939D01*
D02*
G37*
G36*
X19018Y124760D02*
X19046D01*
X19129Y124746D01*
X19240Y124732D01*
X19379Y124704D01*
X19518Y124663D01*
X19656Y124607D01*
X19767Y124538D01*
X19836Y124455D01*
Y124441D01*
Y124372D01*
X19850Y124261D01*
Y124191D01*
Y124094D01*
X19864Y123997D01*
X19878Y123872D01*
X19892Y123734D01*
X19906Y123581D01*
X19920Y123415D01*
X19948Y123220D01*
X19975Y123012D01*
X20003Y122777D01*
X20183Y121501D01*
X20197Y121487D01*
X20211Y121431D01*
X20225Y121348D01*
X20253Y121237D01*
X20294Y121071D01*
X20308Y120960D01*
X20336Y120849D01*
X20322Y120835D01*
X20308Y120807D01*
X20294Y120766D01*
Y120724D01*
X20280Y120655D01*
X20266Y120572D01*
Y120461D01*
X20280Y120447D01*
X20322Y120405D01*
X20350Y120377D01*
X20377Y120350D01*
X20391D01*
X20419Y120377D01*
X20461Y120433D01*
X20488Y120475D01*
X20530Y120544D01*
X20572Y120613D01*
X20613Y120710D01*
X20655Y120835D01*
X20710Y120988D01*
X20780Y121154D01*
X20835Y121348D01*
X20918Y121584D01*
X20988Y121847D01*
Y121861D01*
Y121917D01*
X21002Y122000D01*
Y122125D01*
X21015Y122263D01*
X21029Y122416D01*
X21057Y122596D01*
X21071Y122777D01*
Y122790D01*
Y122818D01*
X21085Y122860D01*
X21099Y122915D01*
X21126Y123054D01*
X21168Y123220D01*
X21223Y123387D01*
X21307Y123525D01*
X21348Y123581D01*
X21404Y123623D01*
X21459Y123650D01*
X21515Y123664D01*
X21528Y123650D01*
X21556Y123637D01*
X21584Y123595D01*
X21639Y123539D01*
X21695Y123442D01*
X21778Y123304D01*
X21875Y123123D01*
X21889Y123110D01*
X21917Y123082D01*
X21958Y123040D01*
X22000Y122985D01*
X22069Y122915D01*
X22153Y122832D01*
Y122804D01*
Y122749D01*
X22166Y122666D01*
X22180Y122583D01*
Y122485D01*
X22194Y122402D01*
X22208Y122347D01*
Y122319D01*
Y122291D01*
Y122236D01*
X22194Y122139D01*
Y122014D01*
X22180Y121847D01*
X22166Y121736D01*
Y121612D01*
X22111Y120863D01*
Y120849D01*
Y120821D01*
X22097Y120766D01*
X22083Y120682D01*
X22055Y120585D01*
X22014Y120447D01*
X21958Y120294D01*
X21875Y120100D01*
X21861Y120072D01*
X21848Y120045D01*
X21820Y119989D01*
X21778Y119906D01*
X21723Y119795D01*
X21639Y119656D01*
X21556Y119490D01*
X21542Y119462D01*
X21515Y119393D01*
X21459Y119268D01*
X21376Y119129D01*
X21265Y118949D01*
X21126Y118769D01*
X20960Y118574D01*
X20752Y118380D01*
X20724Y118366D01*
X20655Y118311D01*
X20544Y118228D01*
X20405Y118145D01*
X20239Y118048D01*
X20058Y117978D01*
X19864Y117923D01*
X19684Y117895D01*
X19587D01*
X19476Y117909D01*
X19351D01*
X19060Y117964D01*
X18921Y117992D01*
X18810Y118048D01*
X18783Y118061D01*
X18727Y118103D01*
X18616Y118172D01*
X18491Y118269D01*
X18325Y118394D01*
X18159Y118547D01*
X17964Y118741D01*
X17770Y118977D01*
X17576Y119254D01*
X17382Y119559D01*
X17215Y119906D01*
X17049Y120294D01*
X16924Y120738D01*
X16813Y121223D01*
X16758Y121750D01*
X16730Y122333D01*
Y122347D01*
Y122374D01*
Y122430D01*
X16744Y122513D01*
Y122596D01*
X16758Y122693D01*
X16786Y122929D01*
X16855Y123179D01*
X16938Y123442D01*
X17049Y123692D01*
X17215Y123914D01*
X17229Y123928D01*
X17285Y123983D01*
X17354Y124066D01*
X17465Y124164D01*
X17604Y124288D01*
X17756Y124427D01*
X17937Y124566D01*
X18131Y124718D01*
X18145D01*
X18159Y124732D01*
X18200D01*
X18255Y124746D01*
X18325Y124760D01*
X18394D01*
X18602Y124774D01*
X18852D01*
X19018Y124760D01*
D02*
G37*
G36*
X55528Y79854D02*
X55653Y79826D01*
Y79812D01*
X55667Y79798D01*
X55709Y79715D01*
X55764Y79577D01*
X55820Y79424D01*
X55889Y79230D01*
X55944Y79050D01*
X55986Y78855D01*
X56000Y78675D01*
Y78661D01*
X55972Y78620D01*
X55931Y78536D01*
X55889Y78467D01*
X55834Y78398D01*
X55820Y78384D01*
X55806Y78370D01*
X55736Y78287D01*
X55681Y78204D01*
X55653Y78162D01*
X55639Y78148D01*
X55626D01*
X55584Y78120D01*
X55515Y78093D01*
X55417Y78065D01*
X55321Y78037D01*
X55209Y78009D01*
X55085Y77996D01*
X54974Y77982D01*
X54946D01*
X54863Y78009D01*
X54807Y78023D01*
X54738Y78051D01*
X54641Y78093D01*
X54544Y78148D01*
X54530Y78162D01*
X54488Y78176D01*
X54433Y78217D01*
X54363Y78273D01*
X54294Y78328D01*
X54239Y78398D01*
X54197Y78467D01*
X54183Y78550D01*
Y78564D01*
Y78578D01*
X54197Y78620D01*
Y78675D01*
X54211Y78800D01*
X54239Y78952D01*
X54253Y79119D01*
X54280Y79271D01*
X54294Y79396D01*
Y79438D01*
Y79479D01*
X54308Y79493D01*
X54363Y79535D01*
X54447Y79604D01*
X54558Y79674D01*
X54696Y79743D01*
X54877Y79812D01*
X55071Y79854D01*
X55307Y79868D01*
X55417D01*
X55528Y79854D01*
D02*
G37*
G36*
X12181Y117479D02*
X12223Y117465D01*
X12292Y117451D01*
X12375Y117423D01*
X12486Y117410D01*
X12611Y117368D01*
X12764Y117340D01*
X12930Y117299D01*
X13124Y117271D01*
X13332Y117215D01*
X13568Y117174D01*
X13818Y117132D01*
X14109Y117077D01*
X14400Y117035D01*
X14733Y116980D01*
X14747D01*
X14802Y116966D01*
X14844Y116952D01*
X14899D01*
X14983Y116924D01*
X15066Y116910D01*
X15177Y116883D01*
X15302Y116855D01*
X15440Y116827D01*
X15607Y116785D01*
X15787Y116730D01*
X15995Y116674D01*
X16231Y116619D01*
X16494Y116550D01*
X16550D01*
X16605Y116564D01*
X16744D01*
X16827Y116578D01*
X16966D01*
X17035Y116550D01*
X17160Y116522D01*
X17340Y116494D01*
X17562Y116453D01*
X17839Y116397D01*
X18159Y116342D01*
X18533Y116286D01*
X18769D01*
X18880Y116272D01*
X19559D01*
X19753Y116286D01*
X19961Y116300D01*
X20169Y116314D01*
X20364Y116342D01*
X20530Y116369D01*
X20544Y116356D01*
X20585Y116342D01*
X20655Y116314D01*
X20752Y116286D01*
X20766Y116300D01*
X20780Y116314D01*
X20821Y116342D01*
X20863Y116369D01*
X21002Y116411D01*
X21085Y116439D01*
X21237D01*
X21293Y116425D01*
X21376Y116411D01*
X21556Y116369D01*
X21653Y116314D01*
X21750Y116258D01*
X21764Y116245D01*
X21792Y116231D01*
X21834Y116189D01*
X21875Y116134D01*
X21958Y115995D01*
X21986Y115926D01*
X22000Y115829D01*
Y115801D01*
X21986Y115773D01*
X21972Y115718D01*
X21958Y115662D01*
X21917Y115579D01*
X21875Y115496D01*
X21806Y115385D01*
X21792Y115371D01*
X21778Y115343D01*
X21737Y115288D01*
X21695Y115232D01*
X21584Y115107D01*
X21515Y115052D01*
X21459Y115010D01*
X21431D01*
X21390Y114997D01*
X21321D01*
X21209Y114983D01*
X21126D01*
X21043Y114969D01*
X20946Y114955D01*
X20821D01*
X20696Y114941D01*
X20544Y114927D01*
X20530D01*
X20516Y114913D01*
X20461Y114872D01*
X20391Y114816D01*
X20350Y114802D01*
X18644D01*
X12084Y115829D01*
X12070D01*
X12015Y115842D01*
X11932Y115870D01*
X11834Y115884D01*
X11654Y115926D01*
X11571Y115940D01*
X11516Y115953D01*
X11432D01*
X11377Y115940D01*
X11307Y115926D01*
X11224Y115912D01*
X11113Y115898D01*
X10767Y115856D01*
X9921Y116272D01*
X9824Y116467D01*
Y116480D01*
Y116508D01*
X9837Y116564D01*
X9865Y116633D01*
X9921Y116716D01*
X9976Y116827D01*
X10073Y116952D01*
X10198Y117105D01*
X10212Y117118D01*
X10253Y117160D01*
X10323Y117229D01*
X10406Y117299D01*
X10489Y117368D01*
X10586Y117437D01*
X10683Y117479D01*
X10767Y117493D01*
X12153D01*
X12181Y117479D01*
D02*
G37*
G36*
X18907Y87385D02*
X18921Y87357D01*
X18949Y87315D01*
X19018Y87232D01*
X19032Y87246D01*
X19046Y87260D01*
X19060Y87287D01*
Y86996D01*
X19046Y87010D01*
X19032Y87052D01*
X19004Y87121D01*
X18977Y87190D01*
X18935Y87260D01*
X18907Y87329D01*
X18868Y87369D01*
X18907Y87398D01*
Y87385D01*
D02*
G37*
G36*
X29181Y169624D02*
X29223Y169610D01*
X29292Y169596D01*
X29375Y169569D01*
X29486Y169555D01*
X29611Y169513D01*
X29764Y169485D01*
X29930Y169444D01*
X30124Y169416D01*
X30332Y169361D01*
X30568Y169319D01*
X30818Y169277D01*
X31109Y169222D01*
X31400Y169180D01*
X31733Y169125D01*
X31747D01*
X31802Y169111D01*
X31844Y169097D01*
X31899D01*
X31983Y169069D01*
X32066Y169056D01*
X32177Y169028D01*
X32302Y169000D01*
X32440Y168972D01*
X32607Y168931D01*
X32787Y168875D01*
X32995Y168820D01*
X33231Y168764D01*
X33494Y168695D01*
X33550D01*
X33605Y168709D01*
X33744D01*
X33827Y168723D01*
X33966D01*
X34035Y168695D01*
X34160Y168667D01*
X34340Y168639D01*
X34562Y168598D01*
X34839Y168542D01*
X35159Y168487D01*
X35533Y168431D01*
X35769D01*
X35880Y168417D01*
X36559D01*
X36753Y168431D01*
X36961Y168445D01*
X37169Y168459D01*
X37364Y168487D01*
X37530Y168515D01*
X37544Y168501D01*
X37585Y168487D01*
X37655Y168459D01*
X37752Y168431D01*
X37766Y168445D01*
X37780Y168459D01*
X37821Y168487D01*
X37863Y168515D01*
X38001Y168556D01*
X38085Y168584D01*
X38237D01*
X38293Y168570D01*
X38376Y168556D01*
X38556Y168515D01*
X38653Y168459D01*
X38750Y168404D01*
X38764Y168390D01*
X38792Y168376D01*
X38834Y168334D01*
X38875Y168279D01*
X38958Y168140D01*
X38986Y168071D01*
X39000Y167974D01*
Y167946D01*
X38986Y167918D01*
X38972Y167863D01*
X38958Y167807D01*
X38917Y167724D01*
X38875Y167641D01*
X38806Y167530D01*
X38792Y167516D01*
X38778Y167488D01*
X38737Y167433D01*
X38695Y167377D01*
X38584Y167253D01*
X38515Y167197D01*
X38459Y167155D01*
X38431D01*
X38390Y167142D01*
X38321D01*
X38210Y167128D01*
X38126D01*
X38043Y167114D01*
X37946Y167100D01*
X37821D01*
X37696Y167086D01*
X37544Y167072D01*
X37530D01*
X37516Y167058D01*
X37461Y167017D01*
X37391Y166961D01*
X37350Y166947D01*
X35644D01*
X29084Y167974D01*
X29070D01*
X29015Y167988D01*
X28932Y168015D01*
X28835Y168029D01*
X28654Y168071D01*
X28571Y168085D01*
X28516Y168099D01*
X28432D01*
X28377Y168085D01*
X28307Y168071D01*
X28224Y168057D01*
X28113Y168043D01*
X27767Y168001D01*
X26921Y168417D01*
X26824Y168612D01*
Y168626D01*
Y168653D01*
X26837Y168709D01*
X26865Y168778D01*
X26921Y168861D01*
X26976Y168972D01*
X27073Y169097D01*
X27198Y169250D01*
X27212Y169263D01*
X27253Y169305D01*
X27323Y169375D01*
X27406Y169444D01*
X27489Y169513D01*
X27586Y169583D01*
X27683Y169624D01*
X27767Y169638D01*
X29153D01*
X29181Y169624D01*
D02*
G37*
G36*
X29195Y179998D02*
X29486D01*
X30110Y179984D01*
X30415Y179970D01*
X30707D01*
X30984Y179956D01*
X31234Y179942D01*
X31442Y179914D01*
X31622Y179901D01*
X31650D01*
X31705Y179914D01*
X31816D01*
X31969Y179928D01*
X32149Y179942D01*
X32357D01*
X32593Y179956D01*
X33342D01*
X33480Y179942D01*
X33799D01*
X34174Y179928D01*
X34604Y179914D01*
X35061Y179887D01*
X35075Y179873D01*
X35103Y179859D01*
X35159Y179817D01*
X35242Y179762D01*
X35339Y179706D01*
X35464Y179623D01*
X35616Y179526D01*
X35783Y179429D01*
X35713Y179152D01*
Y179096D01*
X35699Y179055D01*
Y178999D01*
Y178930D01*
X35686Y178847D01*
X35672Y178736D01*
Y178611D01*
X35658Y178458D01*
X35644Y178278D01*
X35616Y178070D01*
X35602Y177834D01*
X35477Y176503D01*
Y176489D01*
Y176461D01*
Y176420D01*
Y176350D01*
X35491Y176267D01*
Y176156D01*
X35505Y176045D01*
Y175907D01*
X35519Y175754D01*
X35547Y175574D01*
X35561Y175393D01*
X35588Y175199D01*
X35616Y174977D01*
X35658Y174741D01*
X35699Y174506D01*
X35741Y174242D01*
Y174228D01*
X35755Y174173D01*
X35769Y174104D01*
X35783Y173993D01*
X35810Y173882D01*
X35838Y173743D01*
X35921Y173452D01*
X36004Y173133D01*
X36046Y172994D01*
X36102Y172855D01*
X36143Y172731D01*
X36199Y172620D01*
X36254Y172537D01*
X36310Y172481D01*
Y172467D01*
X36323Y172453D01*
X36337Y172425D01*
X36351Y172384D01*
X36379Y172301D01*
X36421Y172204D01*
X36476Y172079D01*
X36490Y172065D01*
X36504Y172023D01*
X36545Y171954D01*
X36587Y171885D01*
X36656Y171815D01*
X36726Y171746D01*
X36809Y171704D01*
X36892Y171691D01*
X36906D01*
X36961Y171718D01*
X37017Y171746D01*
X37072Y171788D01*
X37142Y171843D01*
X37239Y171926D01*
X37253Y171940D01*
X37280Y171968D01*
X37322Y172010D01*
X37377Y172065D01*
X37488Y172204D01*
X37544Y172273D01*
X37585Y172342D01*
Y172356D01*
X37599Y172370D01*
X37641Y172453D01*
X37696Y172578D01*
X37752Y172758D01*
X37821Y172966D01*
X37877Y173216D01*
X37918Y173493D01*
X37932Y173785D01*
Y173812D01*
Y173840D01*
Y173896D01*
X37918Y173965D01*
Y174048D01*
X37904Y174159D01*
X37891Y174298D01*
X37863Y174464D01*
X37849Y174658D01*
X37821Y174894D01*
X37780Y175144D01*
X37738Y175449D01*
X37696Y175782D01*
X37641Y176156D01*
X37572Y176572D01*
X37211Y178902D01*
Y179096D01*
Y179110D01*
X37225Y179138D01*
X37266Y179166D01*
X37350Y179179D01*
X37377D01*
X37447Y179166D01*
X37585Y179110D01*
X37669Y179069D01*
X37766Y179013D01*
X37780D01*
X37807Y178985D01*
X37904Y178916D01*
X38015Y178819D01*
X38057Y178763D01*
X38099Y178708D01*
X38112Y178694D01*
Y178666D01*
X38126Y178625D01*
X38154Y178569D01*
X38182Y178486D01*
X38210Y178389D01*
X38237Y178278D01*
X38279Y178139D01*
X38334Y177973D01*
X38390Y177779D01*
X38459Y177557D01*
X38528Y177293D01*
X38612Y177002D01*
X38695Y176669D01*
X38792Y176309D01*
Y176295D01*
X38806Y176239D01*
X38834Y176156D01*
X38847Y176045D01*
X38875Y175920D01*
X38917Y175768D01*
X38944Y175588D01*
X38986Y175421D01*
X39056Y175033D01*
X39125Y174645D01*
X39166Y174284D01*
X39180Y174118D01*
Y173979D01*
Y173965D01*
Y173937D01*
X39194Y173868D01*
Y173771D01*
Y173757D01*
Y173743D01*
Y173701D01*
Y173632D01*
Y173563D01*
Y173466D01*
X39208Y173355D01*
Y173230D01*
X39236Y172453D01*
X39083Y172120D01*
Y172106D01*
Y172093D01*
X39069Y172051D01*
Y171982D01*
X39056Y171912D01*
X39028Y171815D01*
X39000Y171704D01*
X38958Y171579D01*
X38944Y171552D01*
X38889Y171496D01*
X38820Y171399D01*
X38723Y171288D01*
X38612Y171164D01*
X38487Y171039D01*
X38348Y170914D01*
X38196Y170803D01*
X38182Y170789D01*
X38140Y170775D01*
X38085Y170734D01*
X37988Y170692D01*
X37877Y170623D01*
X37724Y170567D01*
X37558Y170498D01*
X37364Y170415D01*
X37336D01*
X37280Y170387D01*
X37197Y170359D01*
X37100Y170331D01*
X36878Y170276D01*
X36781Y170262D01*
X36712Y170248D01*
X36698D01*
X36642Y170262D01*
X36573Y170276D01*
X36476Y170304D01*
X36351Y170345D01*
X36212Y170429D01*
X36046Y170525D01*
X35866Y170664D01*
X35852Y170678D01*
X35824Y170692D01*
X35783Y170734D01*
X35727Y170803D01*
X35658Y170872D01*
X35588Y170969D01*
X35505Y171094D01*
X35408Y171233D01*
X35311Y171399D01*
X35214Y171579D01*
X35117Y171788D01*
X35020Y172010D01*
X34923Y172259D01*
X34826Y172537D01*
X34742Y172842D01*
X34673Y173174D01*
X34659Y173188D01*
X34632Y173244D01*
X34590Y173327D01*
X34534Y173438D01*
Y173452D01*
Y173466D01*
X34520Y173507D01*
Y173563D01*
X34493Y173715D01*
X34451Y173909D01*
X34423Y174131D01*
X34368Y174395D01*
X34313Y174686D01*
X34257Y174977D01*
Y175005D01*
X34243Y175074D01*
X34215Y175213D01*
X34188Y175393D01*
X34174Y175615D01*
X34146Y175907D01*
X34132Y176239D01*
Y176628D01*
Y176655D01*
Y176711D01*
Y176808D01*
Y176919D01*
Y177071D01*
Y177224D01*
Y177585D01*
X34118Y177945D01*
Y178125D01*
Y178278D01*
Y178417D01*
Y178528D01*
X34104Y178611D01*
Y178666D01*
X33966D01*
X33869Y178680D01*
X33744D01*
X33577Y178694D01*
X33411Y178708D01*
X33203Y178722D01*
X32981Y178736D01*
X32731Y178750D01*
X32468Y178777D01*
X32191Y178791D01*
X31885Y178819D01*
X31567Y178860D01*
X31234Y178888D01*
X30887Y178930D01*
X30873D01*
X30831Y178916D01*
X30762Y178902D01*
X30651Y178874D01*
X30526Y178860D01*
X30360Y178847D01*
X30180Y178833D01*
X29958Y178819D01*
X29930D01*
X29902Y178833D01*
X29764D01*
X29667Y178847D01*
X28959D01*
X28821Y178833D01*
X28280D01*
X28127Y178847D01*
X27947D01*
X27753Y178860D01*
X27559Y178888D01*
X27378Y178916D01*
X27226Y178958D01*
X27212D01*
X27184Y178985D01*
X27143Y179013D01*
X27087Y179069D01*
X27046Y179152D01*
X27004Y179263D01*
X26976Y179401D01*
X26962Y179568D01*
Y179582D01*
X26976Y179651D01*
X27018Y179762D01*
X27059Y179831D01*
X27101Y179914D01*
X27143D01*
X27184Y179928D01*
X27240D01*
X27392Y179942D01*
X27559Y179956D01*
X27725Y179970D01*
X27878Y179998D01*
X27975D01*
X28002Y180012D01*
X28918D01*
X29195Y179998D01*
D02*
G37*
G36*
X54461Y90117D02*
X54475Y90089D01*
X54502Y90047D01*
X54530Y89992D01*
X54572Y89922D01*
X54544D01*
X54488Y89950D01*
X54461Y89978D01*
X54433Y90020D01*
X54405Y90075D01*
Y90144D01*
X54433D01*
X54461Y90117D01*
D02*
G37*
G36*
X31539Y157808D02*
X31608Y157781D01*
X31691Y157739D01*
X31802Y157656D01*
X31941Y157559D01*
X32107Y157420D01*
Y157406D01*
X32094Y157392D01*
X32066Y157309D01*
X32024Y157198D01*
X31955Y157073D01*
X31885Y156948D01*
X31775Y156837D01*
X31664Y156754D01*
X31594Y156740D01*
X31525Y156727D01*
X31456D01*
X31386Y156740D01*
X31275Y156768D01*
X31151Y156796D01*
X30998Y156837D01*
X30831Y156907D01*
X30651Y157004D01*
Y157018D01*
Y157032D01*
X30637Y157073D01*
Y157142D01*
X30624Y157226D01*
X30610Y157323D01*
X30596Y157462D01*
X30582Y157614D01*
X30596Y157628D01*
X30665Y157656D01*
X30748Y157683D01*
X30859Y157725D01*
X30998Y157767D01*
X31137Y157808D01*
X31303Y157822D01*
X31456Y157836D01*
X31497D01*
X31539Y157808D01*
D02*
G37*
G36*
X36018Y165394D02*
X36046D01*
X36129Y165380D01*
X36240Y165366D01*
X36379Y165339D01*
X36518Y165297D01*
X36656Y165242D01*
X36767Y165172D01*
X36837Y165089D01*
Y165075D01*
Y165006D01*
X36850Y164895D01*
Y164826D01*
Y164729D01*
X36864Y164632D01*
X36878Y164507D01*
X36892Y164368D01*
X36906Y164215D01*
X36920Y164049D01*
X36948Y163855D01*
X36975Y163647D01*
X37003Y163411D01*
X37183Y162135D01*
X37197Y162121D01*
X37211Y162066D01*
X37225Y161983D01*
X37253Y161872D01*
X37294Y161705D01*
X37308Y161594D01*
X37336Y161483D01*
X37322Y161469D01*
X37308Y161442D01*
X37294Y161400D01*
Y161359D01*
X37280Y161289D01*
X37266Y161206D01*
Y161095D01*
X37280Y161081D01*
X37322Y161040D01*
X37350Y161012D01*
X37377Y160984D01*
X37391D01*
X37419Y161012D01*
X37461Y161067D01*
X37488Y161109D01*
X37530Y161178D01*
X37572Y161248D01*
X37613Y161345D01*
X37655Y161469D01*
X37710Y161622D01*
X37780Y161788D01*
X37835Y161983D01*
X37918Y162218D01*
X37988Y162482D01*
Y162496D01*
Y162551D01*
X38001Y162634D01*
Y162759D01*
X38015Y162898D01*
X38029Y163050D01*
X38057Y163231D01*
X38071Y163411D01*
Y163425D01*
Y163453D01*
X38085Y163494D01*
X38099Y163550D01*
X38126Y163688D01*
X38168Y163855D01*
X38223Y164021D01*
X38307Y164160D01*
X38348Y164215D01*
X38404Y164257D01*
X38459Y164285D01*
X38515Y164299D01*
X38528Y164285D01*
X38556Y164271D01*
X38584Y164229D01*
X38639Y164174D01*
X38695Y164077D01*
X38778Y163938D01*
X38875Y163758D01*
X38889Y163744D01*
X38917Y163716D01*
X38958Y163675D01*
X39000Y163619D01*
X39069Y163550D01*
X39153Y163466D01*
Y163439D01*
Y163383D01*
X39166Y163300D01*
X39180Y163217D01*
Y163120D01*
X39194Y163037D01*
X39208Y162981D01*
Y162953D01*
Y162926D01*
Y162870D01*
X39194Y162773D01*
Y162648D01*
X39180Y162482D01*
X39166Y162371D01*
Y162246D01*
X39111Y161497D01*
Y161483D01*
Y161456D01*
X39097Y161400D01*
X39083Y161317D01*
X39056Y161220D01*
X39014Y161081D01*
X38958Y160929D01*
X38875Y160735D01*
X38861Y160707D01*
X38847Y160679D01*
X38820Y160623D01*
X38778Y160540D01*
X38723Y160429D01*
X38639Y160291D01*
X38556Y160124D01*
X38542Y160096D01*
X38515Y160027D01*
X38459Y159902D01*
X38376Y159764D01*
X38265Y159583D01*
X38126Y159403D01*
X37960Y159209D01*
X37752Y159015D01*
X37724Y159001D01*
X37655Y158945D01*
X37544Y158862D01*
X37405Y158779D01*
X37239Y158682D01*
X37058Y158613D01*
X36864Y158557D01*
X36684Y158529D01*
X36587D01*
X36476Y158543D01*
X36351D01*
X36060Y158599D01*
X35921Y158626D01*
X35810Y158682D01*
X35783Y158696D01*
X35727Y158737D01*
X35616Y158807D01*
X35491Y158904D01*
X35325Y159029D01*
X35159Y159181D01*
X34964Y159375D01*
X34770Y159611D01*
X34576Y159888D01*
X34382Y160194D01*
X34215Y160540D01*
X34049Y160929D01*
X33924Y161372D01*
X33813Y161858D01*
X33758Y162385D01*
X33730Y162967D01*
Y162981D01*
Y163009D01*
Y163064D01*
X33744Y163148D01*
Y163231D01*
X33758Y163328D01*
X33786Y163564D01*
X33855Y163813D01*
X33938Y164077D01*
X34049Y164326D01*
X34215Y164548D01*
X34229Y164562D01*
X34285Y164618D01*
X34354Y164701D01*
X34465Y164798D01*
X34604Y164923D01*
X34756Y165061D01*
X34937Y165200D01*
X35131Y165353D01*
X35145D01*
X35159Y165366D01*
X35200D01*
X35256Y165380D01*
X35325Y165394D01*
X35394D01*
X35602Y165408D01*
X35852D01*
X36018Y165394D01*
D02*
G37*
G36*
X20031Y84847D02*
X20045Y84819D01*
X20072Y84763D01*
X20100Y84708D01*
X20142Y84611D01*
X20183Y84486D01*
X19948D01*
X20003Y84860D01*
X20017D01*
X20031Y84847D01*
D02*
G37*
G36*
X19240Y86774D02*
X19254Y86747D01*
X19268Y86719D01*
X19296Y86663D01*
X19323Y86580D01*
X19365Y86483D01*
Y86469D01*
X19379Y86441D01*
X19420Y86344D01*
X19476Y86233D01*
X19490Y86192D01*
Y86164D01*
Y86150D01*
Y86109D01*
Y86053D01*
Y85998D01*
X19504Y85873D01*
X19518Y85817D01*
X19531Y85790D01*
Y85803D01*
X19545Y85831D01*
X19559Y85901D01*
X19573Y85998D01*
Y85984D01*
X19601Y85956D01*
X19628Y85887D01*
X19670Y85790D01*
X19726Y85665D01*
X19795Y85498D01*
X19864Y85304D01*
X19948Y85055D01*
X19934D01*
X19892Y85082D01*
X19823Y85124D01*
X19753Y85179D01*
X19670Y85276D01*
X19573Y85401D01*
X19490Y85554D01*
X19420Y85762D01*
X19143Y86622D01*
X19157Y86636D01*
X19185Y86677D01*
X19226Y86733D01*
X19240Y86788D01*
Y86774D01*
D02*
G37*
G36*
X20461Y83890D02*
X20475Y83862D01*
X20502Y83820D01*
X20530Y83765D01*
X20572Y83695D01*
X20544D01*
X20488Y83723D01*
X20461Y83751D01*
X20433Y83793D01*
X20405Y83848D01*
Y83917D01*
X20433D01*
X20461Y83890D01*
D02*
G37*
%LPC*%
G36*
X55126Y87468D02*
X55112Y87440D01*
X55099Y87385D01*
X55085Y87343D01*
X55071Y87287D01*
X55057Y87260D01*
X55043Y87204D01*
X55029Y87135D01*
Y87121D01*
Y87107D01*
Y87093D01*
Y87065D01*
X55043Y86996D01*
X55099Y86913D01*
X55140Y86885D01*
X55196Y86871D01*
Y86885D01*
X55182Y86941D01*
X55168Y87010D01*
X55154Y87093D01*
X55140Y87287D01*
X55126Y87371D01*
Y87440D01*
Y87454D01*
Y87468D01*
D02*
G37*
G36*
X45654Y108270D02*
X45640D01*
X45627Y108256D01*
X45585Y108243D01*
X45529Y108187D01*
X45474Y108104D01*
X45405Y107993D01*
X45335Y107826D01*
X45307Y107716D01*
X45266Y107605D01*
Y107577D01*
X45252Y107521D01*
X45224Y107424D01*
X45196Y107299D01*
X45183Y107161D01*
X45155Y107022D01*
X45141Y106883D01*
Y106745D01*
Y106731D01*
Y106703D01*
Y106662D01*
Y106592D01*
Y106509D01*
X45155Y106412D01*
Y106301D01*
X45169Y106176D01*
X45183Y106024D01*
X45196Y105857D01*
X45210Y105677D01*
X45224Y105497D01*
X45252Y105289D01*
X45280Y105067D01*
X45349Y104581D01*
X45432Y104054D01*
X45543Y103486D01*
X45682Y102862D01*
X45848Y102210D01*
X46029Y101516D01*
X46251Y100795D01*
X46514Y100032D01*
X46805Y99256D01*
X46819D01*
X46847Y99270D01*
X46916Y99284D01*
X46999Y99311D01*
X47097Y99339D01*
X47221Y99367D01*
X47360Y99408D01*
X47526Y99450D01*
X47540D01*
X47596Y99478D01*
X47679Y99492D01*
X47762Y99519D01*
X47859Y99547D01*
X47943Y99561D01*
X48012Y99589D01*
X48067D01*
X48123Y99575D01*
X48192Y99561D01*
X48275Y99547D01*
X48358Y99533D01*
X48442Y99519D01*
X48497Y99505D01*
X48622D01*
X48691Y99492D01*
X48788D01*
X48927Y99478D01*
X49094Y99464D01*
X49218D01*
X49260Y99478D01*
X49315D01*
X49426Y99519D01*
X49537Y99602D01*
Y99824D01*
Y99838D01*
X49524Y99880D01*
X49510Y99922D01*
X49496Y100005D01*
X49454Y100129D01*
X49412Y100282D01*
X49357Y100476D01*
Y100504D01*
X49329Y100559D01*
X49302Y100643D01*
X49274Y100754D01*
X49232Y100892D01*
X49205Y101045D01*
X49121Y101350D01*
Y101364D01*
X49107Y101378D01*
X49066Y101447D01*
X49010Y101558D01*
X48927Y101697D01*
Y101711D01*
Y101724D01*
Y101808D01*
X48913Y101918D01*
X48885Y102085D01*
X48872Y102113D01*
X48858Y102168D01*
X48830Y102265D01*
X48775Y102390D01*
X48733Y102543D01*
X48664Y102709D01*
X48608Y102903D01*
X48539Y103097D01*
X48386Y103499D01*
X48248Y103902D01*
X48178Y104082D01*
X48123Y104248D01*
X48067Y104387D01*
X48026Y104498D01*
X48012Y104512D01*
X47998Y104567D01*
X47970Y104637D01*
X47929Y104734D01*
X47873Y104859D01*
X47804Y105011D01*
X47734Y105178D01*
X47651Y105358D01*
X47457Y105746D01*
X47235Y106176D01*
X46986Y106620D01*
X46708Y107050D01*
X46694Y107064D01*
X46667Y107105D01*
X46639Y107161D01*
X46583Y107244D01*
X46514Y107327D01*
X46445Y107438D01*
X46278Y107660D01*
X46098Y107882D01*
X46015Y107993D01*
X45932Y108076D01*
X45848Y108159D01*
X45779Y108215D01*
X45710Y108256D01*
X45654Y108270D01*
D02*
G37*
G36*
X49080Y95803D02*
X48969D01*
X48885Y95789D01*
X48761Y95775D01*
X48636Y95761D01*
X48497Y95747D01*
X48386Y95733D01*
X48303Y95719D01*
X48261D01*
Y95705D01*
X48248Y95692D01*
X48220Y95664D01*
X48192Y95650D01*
X48178D01*
X48164Y95636D01*
X48123Y95622D01*
X48067Y95608D01*
X47929Y95539D01*
X47748Y95428D01*
X47651Y95359D01*
X47540Y95276D01*
X47415Y95165D01*
X47291Y95054D01*
X47152Y94915D01*
X47013Y94762D01*
X46875Y94596D01*
X46722Y94402D01*
Y94388D01*
X46694Y94374D01*
X46680Y94333D01*
X46639Y94277D01*
X46556Y94152D01*
X46445Y93958D01*
X46334Y93750D01*
X46223Y93500D01*
X46112Y93223D01*
X46029Y92932D01*
Y92918D01*
X46015Y92876D01*
X46001Y92807D01*
X45973Y92710D01*
X45959Y92585D01*
X45932Y92433D01*
X45890Y92252D01*
X45862Y92030D01*
X45821Y91781D01*
X45779Y91503D01*
X45751Y91198D01*
X45710Y90852D01*
X45668Y90477D01*
X45627Y90075D01*
X45585Y89631D01*
X45557Y89146D01*
Y89132D01*
X45543Y89104D01*
X45515Y89021D01*
X45488Y88938D01*
X45474Y88896D01*
Y88882D01*
Y88868D01*
X45488Y88813D01*
X45515Y88730D01*
X45585Y88605D01*
Y88591D01*
Y88549D01*
Y88466D01*
Y88369D01*
Y88244D01*
X45599Y88106D01*
Y87925D01*
X45613Y87745D01*
Y87537D01*
X45627Y87315D01*
X45654Y87079D01*
X45668Y86830D01*
X45710Y86303D01*
X45779Y85748D01*
X45807D01*
X45904Y85762D01*
X46015Y85803D01*
X46153Y85887D01*
X46167Y85914D01*
X46223Y85970D01*
X46320Y86067D01*
X46431Y86178D01*
X46459Y86192D01*
X46514Y86206D01*
X46597Y86233D01*
X46722Y86261D01*
X46847Y86289D01*
X46986Y86303D01*
X47138Y86330D01*
X47360D01*
X47429Y86317D01*
X47526Y86303D01*
X47610D01*
X47693Y86289D01*
X47804Y86275D01*
X47915Y86261D01*
X48067Y86247D01*
X48220Y86220D01*
X48400Y86206D01*
X48608Y86178D01*
X48664D01*
X48733Y86164D01*
X48830Y86150D01*
X48941Y86136D01*
X49080Y86122D01*
X49371Y86095D01*
X49690Y86053D01*
X50009Y86025D01*
X50300Y85998D01*
X50425D01*
X50536Y85984D01*
X52824Y85873D01*
X52852D01*
X52907Y85887D01*
X53004Y85900D01*
X53074Y85914D01*
X53157D01*
X53254Y85942D01*
X53379Y85956D01*
X53518Y85984D01*
X53670Y85998D01*
X53850Y86039D01*
X54058Y86067D01*
Y86081D01*
X54072Y86095D01*
X54086Y86164D01*
X54100Y86247D01*
X54114Y86303D01*
Y86330D01*
Y86358D01*
X54100Y86400D01*
X54086Y86469D01*
X54058Y86552D01*
X54031Y86677D01*
X53989Y86816D01*
X53948Y86982D01*
X53878Y87190D01*
X53795Y87440D01*
X53698Y87717D01*
X53587Y88036D01*
X53462Y88397D01*
X53309Y88813D01*
X53143Y89271D01*
X53129Y89298D01*
X53102Y89368D01*
X53060Y89479D01*
X53004Y89631D01*
X52935Y89811D01*
X52866Y90020D01*
X52783Y90241D01*
X52685Y90491D01*
X52491Y90990D01*
X52283Y91503D01*
X52186Y91739D01*
X52089Y91961D01*
X52006Y92155D01*
X51923Y92336D01*
X51909Y92349D01*
X51895Y92405D01*
X51853Y92488D01*
X51798Y92585D01*
X51715Y92724D01*
X51631Y92876D01*
X51534Y93057D01*
X51410Y93251D01*
X51285Y93459D01*
X51146Y93681D01*
X50813Y94166D01*
X50425Y94665D01*
X49995Y95178D01*
Y95192D01*
X49967Y95206D01*
X49898Y95276D01*
X49801Y95373D01*
X49662Y95498D01*
X49510Y95608D01*
X49343Y95705D01*
X49163Y95775D01*
X49080Y95803D01*
D02*
G37*
G36*
X51423Y108936D02*
X51410D01*
X51382Y108922D01*
X51326Y108908D01*
X51257Y108881D01*
X51174Y108811D01*
X51077Y108728D01*
X50980Y108603D01*
X50883Y108437D01*
X50785Y108229D01*
X50730Y108104D01*
X50688Y107951D01*
X50633Y107799D01*
X50591Y107632D01*
X50550Y107452D01*
X50508Y107244D01*
X50480Y107022D01*
X50439Y106786D01*
X50411Y106523D01*
X50383Y106245D01*
X50369Y105954D01*
X50356Y105635D01*
X50342Y105289D01*
Y104928D01*
Y104914D01*
Y104900D01*
X50356Y104859D01*
X50369Y104789D01*
X50397Y104706D01*
X50439Y104581D01*
X50480Y104415D01*
Y104401D01*
X50508Y104346D01*
X50522Y104262D01*
X50550Y104179D01*
X50578Y104082D01*
X50591Y104013D01*
X50619Y103943D01*
Y103916D01*
Y103888D01*
X50633Y103819D01*
X50647Y103777D01*
Y103708D01*
X50661Y103624D01*
X50688Y103527D01*
X50702Y103403D01*
X50730Y103250D01*
X50758Y103083D01*
X50799Y102889D01*
X50841Y102667D01*
X50883Y102404D01*
Y102390D01*
Y102362D01*
X50896Y102321D01*
X50910Y102265D01*
X50938Y102113D01*
X50966Y101918D01*
X50993Y101697D01*
X51021Y101461D01*
X51035Y101225D01*
X51049Y101003D01*
Y100976D01*
X51063Y100948D01*
Y100906D01*
X51077Y100851D01*
X51091Y100781D01*
Y100767D01*
X51104Y100754D01*
X51118Y100684D01*
X51132Y100615D01*
X51146Y100587D01*
Y100573D01*
Y100546D01*
X51132Y100504D01*
X51118Y100449D01*
X51104Y100379D01*
X51091Y100282D01*
X51063Y100171D01*
X51035Y100046D01*
Y100032D01*
X51021Y99991D01*
Y99935D01*
X51007Y99852D01*
X50993Y99672D01*
X50980Y99492D01*
Y99478D01*
Y99450D01*
Y99353D01*
X50993D01*
X51035Y99339D01*
X51104D01*
X51188Y99311D01*
X51299Y99297D01*
X51437Y99270D01*
X51604Y99228D01*
X51784Y99186D01*
X54267D01*
X54294Y99200D01*
X54350Y99214D01*
X54433Y99256D01*
X54530Y99297D01*
X54641Y99367D01*
X54724Y99450D01*
X54780Y99547D01*
X54807Y99658D01*
Y99686D01*
X54794Y99727D01*
X54780Y99783D01*
X54766Y99880D01*
X54724Y100019D01*
X54682Y100185D01*
X54627Y100407D01*
Y100421D01*
X54613Y100449D01*
X54599Y100476D01*
X54585Y100532D01*
X54558Y100670D01*
X54516Y100837D01*
X54461Y101003D01*
X54419Y101170D01*
X54391Y101322D01*
X54377Y101378D01*
X54363Y101419D01*
Y101433D01*
Y101447D01*
X54350Y101489D01*
X54336Y101544D01*
X54322Y101613D01*
X54308Y101697D01*
X54267Y101918D01*
X54197Y102182D01*
X54128Y102487D01*
X54045Y102834D01*
X53948Y103236D01*
X53836Y103652D01*
X53712Y104124D01*
X53573Y104609D01*
X53421Y105122D01*
X53254Y105649D01*
X53074Y106204D01*
X52880Y106759D01*
X52672Y107327D01*
X52658Y107355D01*
X52602Y107424D01*
X52519Y107521D01*
X52422Y107660D01*
Y107674D01*
X52394Y107716D01*
X52366Y107785D01*
X52325Y107854D01*
X52283Y107951D01*
X52228Y108062D01*
X52089Y108298D01*
X51937Y108534D01*
X51853Y108645D01*
X51770Y108742D01*
X51673Y108825D01*
X51590Y108881D01*
X51507Y108922D01*
X51423Y108936D01*
D02*
G37*
G36*
X21126Y81241D02*
X21112Y81213D01*
X21099Y81158D01*
X21085Y81116D01*
X21071Y81060D01*
X21057Y81033D01*
X21043Y80977D01*
X21029Y80908D01*
Y80894D01*
Y80880D01*
Y80866D01*
Y80839D01*
X21043Y80769D01*
X21099Y80686D01*
X21140Y80658D01*
X21196Y80644D01*
Y80658D01*
X21182Y80714D01*
X21168Y80783D01*
X21154Y80866D01*
X21140Y81060D01*
X21126Y81144D01*
Y81213D01*
Y81227D01*
Y81241D01*
D02*
G37*
G36*
X15080Y89576D02*
X14969D01*
X14885Y89562D01*
X14761Y89548D01*
X14636Y89534D01*
X14497Y89520D01*
X14386Y89506D01*
X14303Y89493D01*
X14261D01*
Y89479D01*
X14248Y89465D01*
X14220Y89437D01*
X14192Y89423D01*
X14178D01*
X14164Y89409D01*
X14123Y89395D01*
X14067Y89382D01*
X13929Y89312D01*
X13748Y89201D01*
X13651Y89132D01*
X13540Y89049D01*
X13415Y88938D01*
X13291Y88827D01*
X13152Y88688D01*
X13013Y88536D01*
X12875Y88369D01*
X12722Y88175D01*
Y88161D01*
X12694Y88147D01*
X12680Y88106D01*
X12639Y88050D01*
X12556Y87925D01*
X12445Y87731D01*
X12334Y87523D01*
X12223Y87274D01*
X12112Y86996D01*
X12029Y86705D01*
Y86691D01*
X12015Y86650D01*
X12001Y86580D01*
X11973Y86483D01*
X11959Y86358D01*
X11932Y86206D01*
X11890Y86025D01*
X11862Y85803D01*
X11821Y85554D01*
X11779Y85276D01*
X11751Y84971D01*
X11710Y84625D01*
X11668Y84250D01*
X11626Y83848D01*
X11585Y83404D01*
X11557Y82919D01*
Y82905D01*
X11543Y82877D01*
X11516Y82794D01*
X11488Y82711D01*
X11474Y82669D01*
Y82655D01*
Y82641D01*
X11488Y82586D01*
X11516Y82503D01*
X11585Y82378D01*
Y82364D01*
Y82323D01*
Y82239D01*
Y82142D01*
Y82017D01*
X11599Y81879D01*
Y81698D01*
X11613Y81518D01*
Y81310D01*
X11626Y81088D01*
X11654Y80852D01*
X11668Y80603D01*
X11710Y80076D01*
X11779Y79521D01*
X11807D01*
X11904Y79535D01*
X12015Y79577D01*
X12153Y79660D01*
X12167Y79688D01*
X12223Y79743D01*
X12320Y79840D01*
X12431Y79951D01*
X12458Y79965D01*
X12514Y79979D01*
X12597Y80007D01*
X12722Y80034D01*
X12847Y80062D01*
X12986Y80076D01*
X13138Y80104D01*
X13360D01*
X13429Y80090D01*
X13526Y80076D01*
X13610D01*
X13693Y80062D01*
X13804Y80048D01*
X13915Y80034D01*
X14067Y80020D01*
X14220Y79993D01*
X14400Y79979D01*
X14608Y79951D01*
X14664D01*
X14733Y79937D01*
X14830Y79923D01*
X14941Y79909D01*
X15080Y79896D01*
X15371Y79868D01*
X15690Y79826D01*
X16009Y79798D01*
X16300Y79771D01*
X16425D01*
X16536Y79757D01*
X18824Y79646D01*
X18852D01*
X18907Y79660D01*
X19004Y79674D01*
X19074Y79688D01*
X19157D01*
X19254Y79715D01*
X19379Y79729D01*
X19518Y79757D01*
X19670Y79771D01*
X19850Y79812D01*
X20058Y79840D01*
Y79854D01*
X20072Y79868D01*
X20086Y79937D01*
X20100Y80020D01*
X20114Y80076D01*
Y80104D01*
Y80131D01*
X20100Y80173D01*
X20086Y80242D01*
X20058Y80325D01*
X20031Y80450D01*
X19989Y80589D01*
X19948Y80755D01*
X19878Y80963D01*
X19795Y81213D01*
X19698Y81490D01*
X19587Y81809D01*
X19462Y82170D01*
X19310Y82586D01*
X19143Y83044D01*
X19129Y83071D01*
X19102Y83141D01*
X19060Y83252D01*
X19004Y83404D01*
X18935Y83584D01*
X18866Y83793D01*
X18783Y84015D01*
X18685Y84264D01*
X18491Y84763D01*
X18283Y85276D01*
X18186Y85512D01*
X18089Y85734D01*
X18006Y85928D01*
X17923Y86109D01*
X17909Y86123D01*
X17895Y86178D01*
X17853Y86261D01*
X17798Y86358D01*
X17715Y86497D01*
X17631Y86650D01*
X17534Y86830D01*
X17410Y87024D01*
X17285Y87232D01*
X17146Y87454D01*
X16813Y87939D01*
X16425Y88439D01*
X15995Y88952D01*
Y88966D01*
X15967Y88979D01*
X15898Y89049D01*
X15801Y89146D01*
X15662Y89271D01*
X15510Y89382D01*
X15343Y89479D01*
X15163Y89548D01*
X15080Y89576D01*
D02*
G37*
G36*
X35699Y163896D02*
X35686D01*
X35644Y163883D01*
X35588Y163869D01*
X35505Y163841D01*
X35325Y163785D01*
X35159Y163744D01*
X35145Y163730D01*
X35131Y163716D01*
X35103Y163688D01*
X35061Y163633D01*
X35020Y163564D01*
X34964Y163480D01*
X34909Y163356D01*
Y163342D01*
Y163314D01*
X34923Y163272D01*
Y163217D01*
Y163148D01*
X34937Y163050D01*
X34964Y162842D01*
X34992Y162579D01*
X35034Y162274D01*
X35089Y161955D01*
X35145Y161608D01*
Y161594D01*
X35159Y161567D01*
X35172Y161511D01*
X35186Y161442D01*
X35228Y161359D01*
X35269Y161262D01*
X35339Y161137D01*
X35422Y161012D01*
X35436Y160998D01*
X35464Y160956D01*
X35505Y160901D01*
X35561Y160832D01*
X35630Y160762D01*
X35686Y160707D01*
X35755Y160665D01*
X35810Y160651D01*
X35824D01*
X35866Y160665D01*
X35921Y160679D01*
X35935Y160721D01*
Y162967D01*
Y162981D01*
Y163009D01*
Y163037D01*
Y163092D01*
X35921Y163231D01*
X35907Y163383D01*
X35880Y163536D01*
X35838Y163688D01*
X35783Y163813D01*
X35741Y163869D01*
X35699Y163896D01*
D02*
G37*
G36*
X18699Y123262D02*
X18685D01*
X18644Y123248D01*
X18588Y123234D01*
X18505Y123207D01*
X18325Y123151D01*
X18159Y123110D01*
X18145Y123096D01*
X18131Y123082D01*
X18103Y123054D01*
X18061Y122999D01*
X18020Y122929D01*
X17964Y122846D01*
X17909Y122721D01*
Y122707D01*
Y122680D01*
X17923Y122638D01*
Y122583D01*
Y122513D01*
X17937Y122416D01*
X17964Y122208D01*
X17992Y121945D01*
X18034Y121639D01*
X18089Y121320D01*
X18145Y120974D01*
Y120960D01*
X18159Y120932D01*
X18172Y120877D01*
X18186Y120807D01*
X18228Y120724D01*
X18269Y120627D01*
X18339Y120502D01*
X18422Y120377D01*
X18436Y120364D01*
X18464Y120322D01*
X18505Y120267D01*
X18561Y120197D01*
X18630Y120128D01*
X18685Y120072D01*
X18755Y120031D01*
X18810Y120017D01*
X18824D01*
X18866Y120031D01*
X18921Y120045D01*
X18935Y120086D01*
Y122333D01*
Y122347D01*
Y122374D01*
Y122402D01*
Y122458D01*
X18921Y122596D01*
X18907Y122749D01*
X18880Y122901D01*
X18838Y123054D01*
X18783Y123179D01*
X18741Y123234D01*
X18699Y123262D01*
D02*
G37*
G36*
Y111751D02*
X18685D01*
X18644Y111737D01*
X18588Y111723D01*
X18505Y111696D01*
X18325Y111640D01*
X18159Y111599D01*
X18145Y111585D01*
X18131Y111571D01*
X18103Y111543D01*
X18061Y111488D01*
X18020Y111418D01*
X17964Y111335D01*
X17909Y111210D01*
Y111196D01*
Y111169D01*
X17923Y111127D01*
Y111072D01*
Y111002D01*
X17937Y110905D01*
X17964Y110697D01*
X17992Y110434D01*
X18034Y110129D01*
X18089Y109810D01*
X18145Y109463D01*
Y109449D01*
X18159Y109421D01*
X18172Y109366D01*
X18186Y109297D01*
X18228Y109213D01*
X18269Y109116D01*
X18339Y108991D01*
X18422Y108867D01*
X18436Y108853D01*
X18464Y108811D01*
X18505Y108756D01*
X18561Y108686D01*
X18630Y108617D01*
X18685Y108561D01*
X18755Y108520D01*
X18810Y108506D01*
X18824D01*
X18866Y108520D01*
X18921Y108534D01*
X18935Y108575D01*
Y110822D01*
Y110836D01*
Y110864D01*
Y110891D01*
Y110947D01*
X18921Y111086D01*
X18907Y111238D01*
X18880Y111391D01*
X18838Y111543D01*
X18783Y111668D01*
X18741Y111723D01*
X18699Y111751D01*
D02*
G37*
G36*
Y95719D02*
X18685D01*
X18644Y95705D01*
X18588Y95692D01*
X18505Y95664D01*
X18325Y95608D01*
X18159Y95567D01*
X18145Y95553D01*
X18131Y95539D01*
X18103Y95511D01*
X18061Y95456D01*
X18020Y95387D01*
X17964Y95303D01*
X17909Y95178D01*
Y95165D01*
Y95137D01*
X17923Y95095D01*
Y95040D01*
Y94971D01*
X17937Y94873D01*
X17964Y94665D01*
X17992Y94402D01*
X18034Y94097D01*
X18089Y93778D01*
X18145Y93431D01*
Y93417D01*
X18159Y93390D01*
X18172Y93334D01*
X18186Y93265D01*
X18228Y93181D01*
X18269Y93084D01*
X18339Y92960D01*
X18422Y92835D01*
X18436Y92821D01*
X18464Y92779D01*
X18505Y92724D01*
X18561Y92654D01*
X18630Y92585D01*
X18685Y92530D01*
X18755Y92488D01*
X18810Y92474D01*
X18824D01*
X18866Y92488D01*
X18921Y92502D01*
X18935Y92543D01*
Y94790D01*
Y94804D01*
Y94832D01*
Y94860D01*
Y94915D01*
X18921Y95054D01*
X18907Y95206D01*
X18880Y95359D01*
X18838Y95511D01*
X18783Y95636D01*
X18741Y95692D01*
X18699Y95719D01*
D02*
G37*
G36*
X52699Y142456D02*
X52685D01*
X52644Y142442D01*
X52588Y142428D01*
X52505Y142400D01*
X52325Y142345D01*
X52158Y142303D01*
X52145Y142289D01*
X52131Y142276D01*
X52103Y142248D01*
X52061Y142192D01*
X52020Y142123D01*
X51964Y142040D01*
X51909Y141915D01*
Y141901D01*
Y141873D01*
X51923Y141832D01*
Y141776D01*
Y141707D01*
X51937Y141610D01*
X51964Y141402D01*
X51992Y141138D01*
X52034Y140833D01*
X52089Y140514D01*
X52145Y140168D01*
Y140154D01*
X52158Y140126D01*
X52172Y140070D01*
X52186Y140001D01*
X52228Y139918D01*
X52269Y139821D01*
X52339Y139696D01*
X52422Y139571D01*
X52436Y139557D01*
X52464Y139516D01*
X52505Y139460D01*
X52561Y139391D01*
X52630Y139322D01*
X52685Y139266D01*
X52755Y139225D01*
X52810Y139211D01*
X52824D01*
X52866Y139225D01*
X52921Y139238D01*
X52935Y139280D01*
Y141527D01*
Y141541D01*
Y141568D01*
Y141596D01*
Y141651D01*
X52921Y141790D01*
X52907Y141943D01*
X52880Y142095D01*
X52838Y142248D01*
X52783Y142373D01*
X52741Y142428D01*
X52699Y142456D01*
D02*
G37*
G36*
X54072Y107092D02*
Y106828D01*
X54086Y106814D01*
X54100D01*
X54128Y106842D01*
X54197Y106897D01*
X54239Y106939D01*
X54294Y106994D01*
X54267D01*
X54211Y107008D01*
X54142Y107036D01*
X54072Y107092D01*
D02*
G37*
G36*
X55196Y104553D02*
X54918Y104484D01*
X54932Y104470D01*
X54946Y104415D01*
X54988Y104332D01*
X55043Y104235D01*
X55057Y104248D01*
X55099Y104262D01*
X55140Y104290D01*
X55196Y104304D01*
Y104553D01*
D02*
G37*
G36*
X32260Y123179D02*
X31899D01*
X31775Y123165D01*
X31636Y123151D01*
X31511Y123137D01*
X31400Y123110D01*
X31317Y123082D01*
X31303D01*
X31275Y123054D01*
X31234Y123026D01*
X31178Y122999D01*
X31040Y122888D01*
X30845Y122735D01*
X30637Y122541D01*
X30402Y122305D01*
X30180Y122014D01*
X29958Y121695D01*
Y121681D01*
X29930Y121653D01*
X29902Y121598D01*
X29875Y121542D01*
X29833Y121445D01*
X29778Y121348D01*
X29736Y121237D01*
X29681Y121112D01*
X29569Y120821D01*
X29472Y120502D01*
X29389Y120142D01*
X29348Y119767D01*
Y119753D01*
X29334Y119726D01*
X29320Y119656D01*
X29292Y119573D01*
X29264Y119476D01*
X29223Y119351D01*
X29181Y119199D01*
X29140Y119032D01*
Y119018D01*
Y119004D01*
Y118963D01*
X29126Y118907D01*
X29112Y118769D01*
X29098Y118616D01*
Y118436D01*
X29084Y118256D01*
X29070Y118089D01*
Y117950D01*
Y117937D01*
Y117881D01*
Y117826D01*
X29084Y117770D01*
Y117687D01*
X29098Y117590D01*
Y117479D01*
X29112Y117354D01*
X29140Y117201D01*
X29153Y117035D01*
X29167Y116841D01*
X29195Y116619D01*
X29237Y116369D01*
X29264Y116106D01*
Y116092D01*
X29278Y116064D01*
X29292Y116023D01*
X29320Y115953D01*
X29348Y115870D01*
X29375Y115773D01*
X29417Y115648D01*
X29459Y115496D01*
Y115482D01*
X29472Y115440D01*
X29500Y115371D01*
X29542Y115274D01*
X29597Y115149D01*
X29667Y114997D01*
X29764Y114802D01*
X29889Y114594D01*
X29902D01*
X29930Y114580D01*
X29972Y114566D01*
X30027Y114539D01*
X30096Y114511D01*
X30180Y114469D01*
X30402Y114345D01*
X31442Y113263D01*
X31456Y113249D01*
X31525Y113194D01*
X31622Y113110D01*
X31761Y112999D01*
X31927Y112888D01*
X32135Y112764D01*
X32371Y112639D01*
X32634Y112528D01*
X32662Y112514D01*
X32731Y112500D01*
X32829Y112459D01*
X32953Y112417D01*
X33092Y112375D01*
X33245Y112348D01*
X33383Y112320D01*
X33508Y112306D01*
X33522D01*
X33550Y112320D01*
X33605D01*
X33688Y112334D01*
X33827Y112361D01*
X33910Y112375D01*
X34007Y112403D01*
X34118Y112417D01*
X34243Y112445D01*
X34271D01*
X34354Y112472D01*
X34479Y112486D01*
X34604Y112514D01*
X34742Y112542D01*
X34867Y112556D01*
X34950Y112583D01*
X35020D01*
X35048Y112570D01*
X35089Y112556D01*
X35172Y112528D01*
X35269Y112486D01*
X35394Y112445D01*
X35408D01*
X35450Y112417D01*
X35519Y112403D01*
X35588Y112375D01*
X35672Y112348D01*
X35727Y112334D01*
X35783Y112306D01*
X35824D01*
X35893Y112334D01*
X35949Y112348D01*
X36018Y112389D01*
X36102Y112431D01*
X36199Y112486D01*
X36226Y112500D01*
X36282Y112542D01*
X36379Y112625D01*
X36504Y112736D01*
X36656Y112888D01*
X36795Y113083D01*
X36948Y113318D01*
X37100Y113596D01*
Y113610D01*
X37114Y113637D01*
X37142Y113679D01*
X37155Y113734D01*
X37183Y113804D01*
X37225Y113887D01*
X37294Y114095D01*
X37364Y114345D01*
X37433Y114608D01*
X37475Y114899D01*
X37488Y115204D01*
Y115218D01*
Y115232D01*
Y115274D01*
X37475Y115315D01*
Y115385D01*
Y115482D01*
X37461Y115593D01*
X37419Y115981D01*
Y116009D01*
X37405Y116078D01*
Y116134D01*
X37391Y116203D01*
X37377Y116286D01*
X37364Y116397D01*
X37336Y116508D01*
X37308Y116647D01*
X37280Y116799D01*
X37239Y116966D01*
X37183Y117160D01*
X37128Y117368D01*
X37058Y117604D01*
X36989Y117853D01*
X36975Y117881D01*
X36961Y117950D01*
X36920Y118061D01*
X36878Y118214D01*
X36809Y118394D01*
X36739Y118602D01*
X36656Y118824D01*
X36559Y119074D01*
X36351Y119601D01*
X36115Y120142D01*
X35977Y120405D01*
X35852Y120655D01*
X35713Y120891D01*
X35575Y121112D01*
Y121126D01*
X35547Y121154D01*
X35519Y121196D01*
X35477Y121251D01*
X35353Y121390D01*
X35172Y121584D01*
X34950Y121806D01*
X34673Y122056D01*
X34340Y122291D01*
X33966Y122541D01*
X33952Y122555D01*
X33924Y122569D01*
X33855Y122596D01*
X33786Y122638D01*
X33688Y122693D01*
X33591Y122749D01*
X33328Y122860D01*
X33037Y122971D01*
X32731Y123082D01*
X32413Y123151D01*
X32260Y123179D01*
D02*
G37*
G36*
X34742Y107258D02*
X34729D01*
X34715Y107244D01*
X34687D01*
X34632Y107216D01*
X34562Y107189D01*
X34479Y107147D01*
X34354Y107092D01*
X33980Y106897D01*
X33966D01*
X33938Y106883D01*
X33883Y106870D01*
X33799Y106856D01*
X33702Y106842D01*
X33577Y106814D01*
X33439Y106786D01*
X33272Y106759D01*
X33106Y106717D01*
X32898Y106675D01*
X32690Y106634D01*
X32454Y106592D01*
X32204Y106537D01*
X31941Y106481D01*
X31664Y106426D01*
X31372Y106370D01*
X31358D01*
X31345Y106356D01*
X31275Y106287D01*
X31095D01*
X30984Y106273D01*
X30873D01*
X30735Y106259D01*
X30582Y106245D01*
X30568D01*
X30540Y106232D01*
X30499D01*
X30415Y106218D01*
X30332Y106190D01*
X30208Y106176D01*
X30055Y106135D01*
X29889Y106107D01*
X29875D01*
X29819Y106093D01*
X29750Y106065D01*
X29667Y106024D01*
X29556Y105968D01*
X29445Y105885D01*
X29334Y105802D01*
X29237Y105691D01*
X29251Y105677D01*
X29306Y105635D01*
X29403Y105566D01*
X29556Y105483D01*
X29736Y105372D01*
X29986Y105247D01*
X30124Y105178D01*
X30277Y105108D01*
X30457Y105039D01*
X30637Y104956D01*
X30651D01*
X30679Y104942D01*
X30721Y104928D01*
X30776Y104900D01*
X30915Y104817D01*
X30998Y104748D01*
X31081Y104678D01*
X31483Y104318D01*
X31511Y104304D01*
X31594Y104262D01*
X31733Y104193D01*
X31913Y104082D01*
X32149Y103957D01*
X32413Y103805D01*
X32731Y103624D01*
X33078Y103416D01*
X33092Y103403D01*
X33148Y103347D01*
X33231Y103250D01*
X33342Y103139D01*
X33356D01*
X33370Y103125D01*
X33425Y103097D01*
X33508Y103070D01*
X33619Y103000D01*
X33786Y102931D01*
X33993Y102820D01*
X34118Y102765D01*
X34257Y102695D01*
X34271Y102723D01*
X34285Y102765D01*
X34299Y102862D01*
X34313Y102931D01*
X34326Y103014D01*
X34340Y103111D01*
X34368Y103222D01*
X34382Y103361D01*
X34410Y103513D01*
X34437Y103694D01*
X34465Y103902D01*
Y103916D01*
Y103943D01*
Y103985D01*
X34479Y104054D01*
Y104151D01*
X34493Y104249D01*
X34507Y104373D01*
Y104526D01*
X34534Y104678D01*
X34548Y104859D01*
X34562Y105053D01*
X34590Y105275D01*
X34618Y105497D01*
X34659Y105746D01*
X34687Y106024D01*
X34729Y106301D01*
X34742Y106315D01*
X34756Y106370D01*
X34784Y106454D01*
X34826Y106551D01*
X34895Y106759D01*
X34909Y106856D01*
X34923Y106939D01*
Y107189D01*
X34895Y107202D01*
X34853Y107230D01*
X34784Y107244D01*
X34742Y107258D01*
D02*
G37*
G36*
X51742Y164576D02*
X51729D01*
X51715Y164562D01*
X51687D01*
X51631Y164534D01*
X51562Y164507D01*
X51479Y164465D01*
X51354Y164410D01*
X50980Y164215D01*
X50966D01*
X50938Y164202D01*
X50883Y164188D01*
X50799Y164174D01*
X50702Y164160D01*
X50578Y164132D01*
X50439Y164104D01*
X50272Y164077D01*
X50106Y164035D01*
X49898Y163993D01*
X49690Y163952D01*
X49454Y163910D01*
X49205Y163855D01*
X48941Y163799D01*
X48664Y163744D01*
X48372Y163688D01*
X48358D01*
X48345Y163675D01*
X48275Y163605D01*
X48095D01*
X47984Y163591D01*
X47873D01*
X47734Y163577D01*
X47582Y163564D01*
X47568D01*
X47540Y163550D01*
X47499D01*
X47415Y163536D01*
X47332Y163508D01*
X47207Y163494D01*
X47055Y163453D01*
X46888Y163425D01*
X46875D01*
X46819Y163411D01*
X46750Y163383D01*
X46667Y163342D01*
X46556Y163286D01*
X46445Y163203D01*
X46334Y163120D01*
X46237Y163009D01*
X46251Y162995D01*
X46306Y162953D01*
X46403Y162884D01*
X46556Y162801D01*
X46736Y162690D01*
X46986Y162565D01*
X47124Y162496D01*
X47277Y162426D01*
X47457Y162357D01*
X47637Y162274D01*
X47651D01*
X47679Y162260D01*
X47721Y162246D01*
X47776Y162218D01*
X47915Y162135D01*
X47998Y162066D01*
X48081Y161996D01*
X48483Y161636D01*
X48511Y161622D01*
X48594Y161580D01*
X48733Y161511D01*
X48913Y161400D01*
X49149Y161275D01*
X49412Y161123D01*
X49731Y160942D01*
X50078Y160734D01*
X50092Y160721D01*
X50148Y160665D01*
X50231Y160568D01*
X50342Y160457D01*
X50356D01*
X50369Y160443D01*
X50425Y160415D01*
X50508Y160388D01*
X50619Y160318D01*
X50785Y160249D01*
X50993Y160138D01*
X51118Y160083D01*
X51257Y160013D01*
X51271Y160041D01*
X51285Y160083D01*
X51299Y160180D01*
X51312Y160249D01*
X51326Y160332D01*
X51340Y160429D01*
X51368Y160540D01*
X51382Y160679D01*
X51410Y160832D01*
X51437Y161012D01*
X51465Y161220D01*
Y161234D01*
Y161261D01*
Y161303D01*
X51479Y161372D01*
Y161469D01*
X51493Y161567D01*
X51507Y161691D01*
Y161844D01*
X51534Y161996D01*
X51548Y162177D01*
X51562Y162371D01*
X51590Y162593D01*
X51618Y162815D01*
X51659Y163064D01*
X51687Y163342D01*
X51729Y163619D01*
X51742Y163633D01*
X51756Y163688D01*
X51784Y163772D01*
X51826Y163869D01*
X51895Y164077D01*
X51909Y164174D01*
X51923Y164257D01*
Y164507D01*
X51895Y164520D01*
X51853Y164548D01*
X51784Y164562D01*
X51742Y164576D01*
D02*
G37*
%LPD*%
D50*
X1000001Y80000D02*
D03*
X1200001D02*
D03*
D51*
X965000D02*
D03*
X930001D02*
D03*
X1165000D02*
D03*
X1130001D02*
D03*
D52*
X755400Y159200D02*
D03*
X741550Y130800D02*
D03*
X727700Y159200D02*
D03*
X713850Y130800D02*
D03*
X700000Y159200D02*
D03*
X686150Y130800D02*
D03*
X672300Y159200D02*
D03*
X658450Y130800D02*
D03*
D53*
X644600Y159200D02*
D03*
D54*
X575050Y145000D02*
D03*
X824950D02*
D03*
D55*
X1057000Y22300D02*
D03*
D56*
Y47700D02*
D03*
D57*
X1268000Y342000D02*
D03*
Y1118000D02*
D03*
X132000D02*
D03*
Y342000D02*
D03*
X32000Y32000D02*
D03*
X1818000D02*
D03*
Y1218000D02*
D03*
X32000D02*
D03*
M02*
