M48
;Layer_Color=9474304
;FILE_FORMAT=4:4
METRIC,LZ
;TYPE=PLATED
T1F00S00C0.3000
T2F00S00C0.9000
T3F00S00C1.0900
T4F00S00C1.4000
T5F00S00C3.2000
T6F00S00C3.2600
%
T01
X00302Y002025
X00311Y00202
X0032Y002015
X00334Y00214
X00344Y00222
X00341Y00248
Y00278
X00334998Y00312502
X00330002Y00347502
X00332Y00417
X00339Y00412602
X003Y00301
X003Y00288
X00367Y00413
X00375
X00468Y00386
X0059Y00375
X00641
X00659Y00312
X00683145Y00320855
X00696Y00304
X00743145Y00313145
X00747702Y00334302
X00722302
X00683Y00245
X00654Y00248
X00654Y00218
X00621Y0019
X0061Y002
X007125Y0018
X007275Y00179
X007405
X00488Y00164
X00472Y00164
X009Y00198
X00911
X00922
X00945Y00186
Y00216
X0098535Y0023435
X00998Y00186
X01035Y00198
X01046
X01057
X01135Y00219
X01122Y00116
X01111
X011
X01004Y00299
X00991Y00298997
X00978
X00965Y00299
X00952
X00989Y00324
X00997Y00428
X00823902Y00362498
X00798502
X00773102Y00386302
X01159998Y00414999
X01162Y00316
X01146Y00311
X01203Y003
X01176Y00268
X01216Y00116
X01227
X01238
X01236Y00098
X01595Y0064
X01635
X01688002Y00693002
X0168Y00715003
X0165Y00745
X01635Y00755
X01605Y00735
X0159Y00765
X01575Y00775
X0156Y00785
X01545Y00735
X0151Y00715
X01495
X0148Y00745
X01465Y00785
X0145Y00775
X01435Y00795
X0142Y00715003
X01411998Y00693002
X015Y00665
X0148Y0064
X011725Y00735
X0116Y00745
X011725Y004425
X0106Y00495
X010625Y005575
X010325
X010025
X0095
X00997Y00457
X01023646Y00462646
X010175Y00692455
X010475
X009875Y006925
X0097Y00775
X009575Y00785
Y00795
X011125Y00755
X01124132Y00765
X008075Y007408
X00797501
X00787501
X00767501
X0076Y00709
X00776
X0079
X00793Y0072
X00808
X00744998Y00708999
X00729Y00709
X00715
X00702
X00687Y00713
X00679Y00717081
X00677501Y007408
X00687501
X00697501
X00707501
X00727501
X00747501
X0067Y00746
X00662499Y007408
X00642Y00742
X00632
X00636Y00751
X00606
Y00742
X00616Y00765
X0054Y00765
X0051Y00713
X00476Y00708
X00466Y00743
X0043Y0073
Y00717402
Y00692
Y00676
X00422Y0067
X00448Y00659
X00453Y00651
X00438999Y00615999
X00431999Y00589999
X0046725Y0060425
X00475Y00615
X00469602Y00539602
X0039Y00565
X00367
X00376Y0059
X00369Y00489
X00366Y00463
X00419598Y00463402
X00533Y00435
X0039Y00692
X00367
X00382Y00777
X0039Y00819
X00367
X00425Y00768202
X00488Y00832
X00495803Y00844
X00494Y0087
X00473Y00856
X00458Y00883
X00482Y00895
X00543Y00855
X00557998Y008555
X00583Y00855
X00597998Y008555
X00598Y00999
X00583Y00991
X00558Y00971
X00542999Y00979998
X00503Y01036
X00494
X00485
X0039Y00946
X00367
X00848Y00932
X00856Y00936
X0086Y00954
X00882Y00903
X00913Y00877
X00982Y00861
X00991998Y00860998
X01022002Y00958002
X01014802Y00969002
X0106Y009725
Y00984
X010585Y01027
X01066
X00977Y01041
X00964
X00951
X01001Y01097
X0107Y011325
X0113Y0109
X011375Y0108
X0162Y008875
X01665Y008775
T02
X01057Y000223
Y000477
T03
X0065845Y001308
X0068615
X0071385
X0074155
X007277Y001592
X007
X006723
X006446
X007554
T04
X00930001Y0008
X00965
X01000001
X01130001
X01165
X01200001
T05
X01818Y00032
X00032
X00132Y00342
X01268
X00132Y01118
X00032Y01218
X01268Y01118
X01818Y01218
T06
X0057505Y00145
X0082495
M30
