G04 Layer_Color=2752767*
%FSLAX44Y44*%
%MOMM*%
G71*
G01*
G75*
%ADD90C,0.1270*%
%ADD92C,0.1693*%
D90*
X26920Y1212920D02*
Y1223080D01*
X37080D01*
Y1212920D01*
X26920D01*
X1812920D02*
Y1223080D01*
X1823080D01*
Y1212920D01*
X1812920D01*
Y26920D02*
Y37080D01*
X1823080D01*
Y26920D01*
X1812920D01*
X26920D02*
Y37080D01*
X37080D01*
Y26920D01*
X26920D01*
X126920Y336920D02*
Y347080D01*
X137080D01*
Y336920D01*
X126920D01*
Y1112920D02*
Y1123080D01*
X137080D01*
Y1112920D01*
X126920D01*
X1262920D02*
Y1123080D01*
X1273080D01*
Y1112920D01*
X1262920D01*
Y336920D02*
Y347080D01*
X1273080D01*
Y336920D01*
X1262920D01*
X1130001Y74920D02*
X1124921Y85080D01*
X1135081D01*
X1130001Y74920D01*
X1165000D02*
X1159920Y85080D01*
X1170080D01*
X1165000Y74920D01*
X1200001D02*
X1194921Y85080D01*
X1205081D01*
X1200001Y74920D01*
X824950Y139920D02*
X827490Y142460D01*
X830030D01*
X827490Y145000D01*
X830030Y147540D01*
X827490D01*
X824950Y150080D01*
X822410Y147540D01*
X819870D01*
X822410Y145000D01*
X819870Y142460D01*
X822410D01*
X824950Y139920D01*
X575050D02*
X577590Y142460D01*
X580130D01*
X577590Y145000D01*
X580130Y147540D01*
X577590D01*
X575050Y150080D01*
X572510Y147540D01*
X569970D01*
X572510Y145000D01*
X569970Y142460D01*
X572510D01*
X575050Y139920D01*
X639520Y154120D02*
X642060Y159200D01*
X639520Y164280D01*
X644600Y161740D01*
X649680Y164280D01*
X647140Y159200D01*
X649680Y154120D01*
X644600Y156660D01*
X639520Y154120D01*
X653370Y125720D02*
X655910Y130800D01*
X653370Y135880D01*
X658450Y133340D01*
X663530Y135880D01*
X660990Y130800D01*
X663530Y125720D01*
X658450Y128260D01*
X653370Y125720D01*
X667220Y154120D02*
X669760Y159200D01*
X667220Y164280D01*
X672300Y161740D01*
X677380Y164280D01*
X674840Y159200D01*
X677380Y154120D01*
X672300Y156660D01*
X667220Y154120D01*
X681070Y125720D02*
X683610Y130800D01*
X681070Y135880D01*
X686150Y133340D01*
X691230Y135880D01*
X688690Y130800D01*
X691230Y125720D01*
X686150Y128260D01*
X681070Y125720D01*
X694920Y154120D02*
X697460Y159200D01*
X694920Y164280D01*
X700000Y161740D01*
X705080Y164280D01*
X702540Y159200D01*
X705080Y154120D01*
X700000Y156660D01*
X694920Y154120D01*
X708770Y125720D02*
X711310Y130800D01*
X708770Y135880D01*
X713850Y133340D01*
X718930Y135880D01*
X716390Y130800D01*
X718930Y125720D01*
X713850Y128260D01*
X708770Y125720D01*
X722620Y154120D02*
X725160Y159200D01*
X722620Y164280D01*
X727700Y161740D01*
X732780Y164280D01*
X730240Y159200D01*
X732780Y154120D01*
X727700Y156660D01*
X722620Y154120D01*
X736470Y125720D02*
X739010Y130800D01*
X736470Y135880D01*
X741550Y133340D01*
X746630Y135880D01*
X744090Y130800D01*
X746630Y125720D01*
X741550Y128260D01*
X736470Y125720D01*
X750320Y154120D02*
X752860Y159200D01*
X750320Y164280D01*
X755400Y161740D01*
X760480Y164280D01*
X757940Y159200D01*
X760480Y154120D01*
X755400Y156660D01*
X750320Y154120D01*
X930001Y74920D02*
X924921Y85080D01*
X935081D01*
X930001Y74920D01*
X965000D02*
X959920Y85080D01*
X970080D01*
X965000Y74920D01*
X1000001D02*
X994921Y85080D01*
X1005081D01*
X1000001Y74920D01*
X473460Y705460D02*
Y702920D01*
X478540D01*
Y705460D01*
X481080D01*
Y710540D01*
X478540D01*
Y713080D01*
X473460D01*
Y710540D01*
X470920D01*
Y705460D01*
X473460D01*
X329460Y414460D02*
Y411920D01*
X334540D01*
Y414460D01*
X337080D01*
Y419540D01*
X334540D01*
Y422080D01*
X329460D01*
Y419540D01*
X326920D01*
Y414460D01*
X329460D01*
X372460Y410460D02*
Y407920D01*
X377540D01*
Y410460D01*
X380080D01*
Y415540D01*
X377540D01*
Y418080D01*
X372460D01*
Y415540D01*
X369920D01*
Y410460D01*
X372460D01*
X364460D02*
Y407920D01*
X369540D01*
Y410460D01*
X372080D01*
Y415540D01*
X369540D01*
Y418080D01*
X364460D01*
Y415540D01*
X361920D01*
Y410460D01*
X364460D01*
X336460Y410062D02*
Y407522D01*
X341540D01*
Y410062D01*
X344080D01*
Y415142D01*
X341540D01*
Y417682D01*
X336460D01*
Y415142D01*
X333920D01*
Y410062D01*
X336460D01*
X500460Y1033460D02*
Y1030920D01*
X505540D01*
Y1033460D01*
X508080D01*
Y1038540D01*
X505540D01*
Y1041080D01*
X500460D01*
Y1038540D01*
X497920D01*
Y1033460D01*
X500460D01*
X482460D02*
Y1030920D01*
X487540D01*
Y1033460D01*
X490080D01*
Y1038540D01*
X487540D01*
Y1041080D01*
X482460D01*
Y1038540D01*
X479920D01*
Y1033460D01*
X482460D01*
X1527460Y619460D02*
Y616920D01*
X1532540D01*
Y619460D01*
X1535080D01*
Y624540D01*
X1532540D01*
Y627080D01*
X1527460D01*
Y624540D01*
X1524920D01*
Y619460D01*
X1527460D01*
X297460Y285460D02*
Y282920D01*
X302540D01*
Y285460D01*
X305080D01*
Y290540D01*
X302540D01*
Y293080D01*
X297460D01*
Y290540D01*
X294920D01*
Y285460D01*
X297460D01*
X297460Y298460D02*
Y295920D01*
X302540D01*
Y298460D01*
X305080D01*
Y303540D01*
X302540D01*
Y306080D01*
X297460D01*
Y303540D01*
X294920D01*
Y298460D01*
X297460D01*
X530460Y432460D02*
Y429920D01*
X535540D01*
Y432460D01*
X538080D01*
Y437540D01*
X535540D01*
Y440080D01*
X530460D01*
Y437540D01*
X527920D01*
Y432460D01*
X530460D01*
X363460Y460460D02*
Y457920D01*
X368540D01*
Y460460D01*
X371080D01*
Y465540D01*
X368540D01*
Y468080D01*
X363460D01*
Y465540D01*
X360920D01*
Y460460D01*
X363460D01*
X387460Y562460D02*
Y559920D01*
X392540D01*
Y562460D01*
X395080D01*
Y567540D01*
X392540D01*
Y570080D01*
X387460D01*
Y567540D01*
X384920D01*
Y562460D01*
X387460D01*
X364460D02*
Y559920D01*
X369540D01*
Y562460D01*
X372080D01*
Y567540D01*
X369540D01*
Y570080D01*
X364460D01*
Y567540D01*
X361920D01*
Y562460D01*
X364460D01*
X387460Y689460D02*
Y686920D01*
X392540D01*
Y689460D01*
X395080D01*
Y694540D01*
X392540D01*
Y697080D01*
X387460D01*
Y694540D01*
X384920D01*
Y689460D01*
X387460D01*
X364460D02*
Y686920D01*
X369540D01*
Y689460D01*
X372080D01*
Y694540D01*
X369540D01*
Y697080D01*
X364460D01*
Y694540D01*
X361920D01*
Y689460D01*
X364460D01*
X387460Y943460D02*
Y940920D01*
X392540D01*
Y943460D01*
X395080D01*
Y948540D01*
X392540D01*
Y951080D01*
X387460D01*
Y948540D01*
X384920D01*
Y943460D01*
X387460D01*
X364460D02*
Y940920D01*
X369540D01*
Y943460D01*
X372080D01*
Y948540D01*
X369540D01*
Y951080D01*
X364460D01*
Y948540D01*
X361920D01*
Y943460D01*
X364460D01*
Y816460D02*
Y813920D01*
X369540D01*
Y816460D01*
X372080D01*
Y821540D01*
X369540D01*
Y824080D01*
X364460D01*
Y821540D01*
X361920D01*
Y816460D01*
X364460D01*
X387460D02*
Y813920D01*
X392540D01*
Y816460D01*
X395080D01*
Y821540D01*
X392540D01*
Y824080D01*
X387460D01*
Y821540D01*
X384920D01*
Y816460D01*
X387460D01*
X606460Y761460D02*
Y758920D01*
X611540D01*
Y761460D01*
X614080D01*
Y766540D01*
X611540D01*
Y769080D01*
X606460D01*
Y766540D01*
X603920D01*
Y761460D01*
X606460D01*
X857460Y951460D02*
Y948920D01*
X862540D01*
Y951460D01*
X865080D01*
Y956540D01*
X862540D01*
Y959080D01*
X857460D01*
Y956540D01*
X854920D01*
Y951460D01*
X857460D01*
X845460Y929460D02*
Y926920D01*
X850540D01*
Y929460D01*
X853080D01*
Y934540D01*
X850540D01*
Y937080D01*
X845460D01*
Y934540D01*
X842920D01*
Y929460D01*
X845460D01*
X879460Y900460D02*
Y897920D01*
X884540D01*
Y900460D01*
X887080D01*
Y905540D01*
X884540D01*
Y908080D01*
X879460D01*
Y905540D01*
X876920D01*
Y900460D01*
X879460D01*
X853460Y933460D02*
Y930920D01*
X858540D01*
Y933460D01*
X861080D01*
Y938540D01*
X858540D01*
Y941080D01*
X853460D01*
Y938540D01*
X850920D01*
Y933460D01*
X853460D01*
X910460Y874460D02*
Y871920D01*
X915540D01*
Y874460D01*
X918080D01*
Y879540D01*
X915540D01*
Y882080D01*
X910460D01*
Y879540D01*
X907920D01*
Y874460D01*
X910460D01*
X1008460Y510460D02*
Y507920D01*
X1013540D01*
Y510460D01*
X1016080D01*
Y515540D01*
X1013540D01*
Y518080D01*
X1008460D01*
Y515540D01*
X1005920D01*
Y510460D01*
X1008460D01*
X1045460D02*
Y507920D01*
X1050540D01*
Y510460D01*
X1053080D01*
Y515540D01*
X1050540D01*
Y518080D01*
X1045460D01*
Y515540D01*
X1042920D01*
Y510460D01*
X1045460D01*
X1033460D02*
Y507920D01*
X1038540D01*
Y510460D01*
X1041080D01*
Y515540D01*
X1038540D01*
Y518080D01*
X1033460D01*
Y515540D01*
X1030920D01*
Y510460D01*
X1033460D01*
X1020460D02*
Y507920D01*
X1025540D01*
Y510460D01*
X1028080D01*
Y515540D01*
X1025540D01*
Y518080D01*
X1020460D01*
Y515540D01*
X1017920D01*
Y510460D01*
X1020460D01*
X994460Y454460D02*
Y451920D01*
X999540D01*
Y454460D01*
X1002080D01*
Y459540D01*
X999540D01*
Y462080D01*
X994460D01*
Y459540D01*
X991920D01*
Y454460D01*
X994460D01*
X1021106Y460106D02*
Y457566D01*
X1026186D01*
Y460106D01*
X1028726D01*
Y465186D01*
X1026186D01*
Y467726D01*
X1021106D01*
Y465186D01*
X1018566D01*
Y460106D01*
X1021106D01*
X994460Y425460D02*
Y422920D01*
X999540D01*
Y425460D01*
X1002080D01*
Y430540D01*
X999540D01*
Y433080D01*
X994460D01*
Y430540D01*
X991920D01*
Y425460D01*
X994460D01*
X465460Y383460D02*
Y380920D01*
X470540D01*
Y383460D01*
X473080D01*
Y388540D01*
X470540D01*
Y391080D01*
X465460D01*
Y388540D01*
X462920D01*
Y383460D01*
X465460D01*
X417058Y460862D02*
Y458322D01*
X422138D01*
Y460862D01*
X424678D01*
Y465942D01*
X422138D01*
Y468482D01*
X417058D01*
Y465942D01*
X414518D01*
Y460862D01*
X417058D01*
X638460Y372460D02*
Y369920D01*
X643540D01*
Y372460D01*
X646080D01*
Y377540D01*
X643540D01*
Y380080D01*
X638460D01*
Y377540D01*
X635920D01*
Y372460D01*
X638460D01*
X740605Y310605D02*
Y308065D01*
X745685D01*
Y310605D01*
X748225D01*
Y315685D01*
X745685D01*
Y318225D01*
X740605D01*
Y315685D01*
X738065D01*
Y310605D01*
X740605D01*
X680605Y318315D02*
Y315775D01*
X685685D01*
Y318315D01*
X688225D01*
Y323395D01*
X685685D01*
Y325935D01*
X680605D01*
Y323395D01*
X678065D01*
Y318315D01*
X680605D01*
X1233460Y95460D02*
Y92920D01*
X1238540D01*
Y95460D01*
X1241080D01*
Y100540D01*
X1238540D01*
Y103080D01*
X1233460D01*
Y100540D01*
X1230920D01*
Y95460D01*
X1233460D01*
X1460460Y572460D02*
Y569920D01*
X1465540D01*
Y572460D01*
X1468080D01*
Y577540D01*
X1465540D01*
Y580080D01*
X1460460D01*
Y577540D01*
X1457920D01*
Y572460D01*
X1460460D01*
X1448460Y582460D02*
Y579920D01*
X1453540D01*
Y582460D01*
X1456080D01*
Y587540D01*
X1453540D01*
Y590080D01*
X1448460D01*
Y587540D01*
X1445920D01*
Y582460D01*
X1448460D01*
X1453460Y629460D02*
Y626920D01*
X1458540D01*
Y629460D01*
X1461080D01*
Y634540D01*
X1458540D01*
Y637080D01*
X1453460D01*
Y634540D01*
X1450920D01*
Y629460D01*
X1453460D01*
X1466460D02*
Y626920D01*
X1471540D01*
Y629460D01*
X1474080D01*
Y634540D01*
X1471540D01*
Y637080D01*
X1466460D01*
Y634540D01*
X1463920D01*
Y629460D01*
X1466460D01*
X1512460Y594460D02*
Y591920D01*
X1517540D01*
Y594460D01*
X1520080D01*
Y599540D01*
X1517540D01*
Y602080D01*
X1512460D01*
Y599540D01*
X1509920D01*
Y594460D01*
X1512460D01*
X491460Y1033460D02*
Y1030920D01*
X496540D01*
Y1033460D01*
X499080D01*
Y1038540D01*
X496540D01*
Y1041080D01*
X491460D01*
Y1038540D01*
X488920D01*
Y1033460D01*
X491460D01*
X1043460Y969460D02*
Y966920D01*
X1048540D01*
Y969460D01*
X1051080D01*
Y974540D01*
X1048540D01*
Y977080D01*
X1043460D01*
Y974540D01*
X1040920D01*
Y969460D01*
X1043460D01*
X1019462Y955462D02*
Y952922D01*
X1024542D01*
Y955462D01*
X1027082D01*
Y960542D01*
X1024542D01*
Y963082D01*
X1019462D01*
Y960542D01*
X1016922D01*
Y955462D01*
X1019462D01*
X1012262Y966462D02*
Y963922D01*
X1017342D01*
Y966462D01*
X1019882D01*
Y971542D01*
X1017342D01*
Y974082D01*
X1012262D01*
Y971542D01*
X1009722D01*
Y966462D01*
X1012262D01*
X379460Y774460D02*
Y771920D01*
X384540D01*
Y774460D01*
X387080D01*
Y779540D01*
X384540D01*
Y782080D01*
X379460D01*
Y779540D01*
X376920D01*
Y774460D01*
X379460D01*
X533460Y761460D02*
Y758920D01*
X538540D01*
Y761460D01*
X541080D01*
Y766540D01*
X538540D01*
Y769080D01*
X533460D01*
Y766540D01*
X530920D01*
Y761460D01*
X533460D01*
X596460Y738460D02*
Y735920D01*
X601540D01*
Y738460D01*
X604080D01*
Y743540D01*
X601540D01*
Y746080D01*
X596460D01*
Y743540D01*
X593920D01*
Y738460D01*
X596460D01*
Y747460D02*
Y744920D01*
X601540D01*
Y747460D01*
X604080D01*
Y752540D01*
X601540D01*
Y755080D01*
X596460D01*
Y752540D01*
X593920D01*
Y747460D01*
X596460D01*
X626460D02*
Y744920D01*
X631540D01*
Y747460D01*
X634080D01*
Y752540D01*
X631540D01*
Y755080D01*
X626460D01*
Y752540D01*
X623920D01*
Y747460D01*
X626460D01*
X622460Y738460D02*
Y735920D01*
X627540D01*
Y738460D01*
X630080D01*
Y743540D01*
X627540D01*
Y746080D01*
X622460D01*
Y743540D01*
X619920D01*
Y738460D01*
X622460D01*
X632460D02*
Y735920D01*
X637540D01*
Y738460D01*
X640080D01*
Y743540D01*
X637540D01*
Y746080D01*
X632460D01*
Y743540D01*
X629920D01*
Y738460D01*
X632460D01*
X1173460Y265460D02*
Y262920D01*
X1178540D01*
Y265460D01*
X1181080D01*
Y270540D01*
X1178540D01*
Y273080D01*
X1173460D01*
Y270540D01*
X1170920D01*
Y265460D01*
X1173460D01*
X1159460Y313460D02*
Y310920D01*
X1164540D01*
Y313460D01*
X1167080D01*
Y318540D01*
X1164540D01*
Y321080D01*
X1159460D01*
Y318540D01*
X1156920D01*
Y313460D01*
X1159460D01*
X1143460Y308460D02*
Y305920D01*
X1148540D01*
Y308460D01*
X1151080D01*
Y313540D01*
X1148540D01*
Y316080D01*
X1143460D01*
Y313540D01*
X1140920D01*
Y308460D01*
X1143460D01*
X1200460Y297460D02*
Y294920D01*
X1205540D01*
Y297460D01*
X1208080D01*
Y302540D01*
X1205540D01*
Y305080D01*
X1200460D01*
Y302540D01*
X1197920D01*
Y297460D01*
X1200460D01*
X1132460Y216460D02*
Y213920D01*
X1137540D01*
Y216460D01*
X1140080D01*
Y221540D01*
X1137540D01*
Y224080D01*
X1132460D01*
Y221540D01*
X1129920D01*
Y216460D01*
X1132460D01*
X995460Y183460D02*
Y180920D01*
X1000540D01*
Y183460D01*
X1003080D01*
Y188540D01*
X1000540D01*
Y191080D01*
X995460D01*
Y188540D01*
X992920D01*
Y183460D01*
X995460D01*
X942460D02*
Y180920D01*
X947540D01*
Y183460D01*
X950080D01*
Y188540D01*
X947540D01*
Y191080D01*
X942460D01*
Y188540D01*
X939920D01*
Y183460D01*
X942460D01*
Y213460D02*
Y210920D01*
X947540D01*
Y213460D01*
X950080D01*
Y218540D01*
X947540D01*
Y221080D01*
X942460D01*
Y218540D01*
X939920D01*
Y213460D01*
X942460D01*
X1235460Y113460D02*
Y110920D01*
X1240540D01*
Y113460D01*
X1243080D01*
Y118540D01*
X1240540D01*
Y121080D01*
X1235460D01*
Y118540D01*
X1232920D01*
Y113460D01*
X1235460D01*
X1224460D02*
Y110920D01*
X1229540D01*
Y113460D01*
X1232080D01*
Y118540D01*
X1229540D01*
Y121080D01*
X1224460D01*
Y118540D01*
X1221920D01*
Y113460D01*
X1224460D01*
X1213460D02*
Y110920D01*
X1218540D01*
Y113460D01*
X1221080D01*
Y118540D01*
X1218540D01*
Y121080D01*
X1213460D01*
Y118540D01*
X1210920D01*
Y113460D01*
X1213460D01*
X1119460D02*
Y110920D01*
X1124540D01*
Y113460D01*
X1127080D01*
Y118540D01*
X1124540D01*
Y121080D01*
X1119460D01*
Y118540D01*
X1116920D01*
Y113460D01*
X1119460D01*
X1108460D02*
Y110920D01*
X1113540D01*
Y113460D01*
X1116080D01*
Y118540D01*
X1113540D01*
Y121080D01*
X1108460D01*
Y118540D01*
X1105920D01*
Y113460D01*
X1108460D01*
X1097460D02*
Y110920D01*
X1102540D01*
Y113460D01*
X1105080D01*
Y118540D01*
X1102540D01*
Y121080D01*
X1097460D01*
Y118540D01*
X1094920D01*
Y113460D01*
X1097460D01*
X1032460Y195460D02*
Y192920D01*
X1037540D01*
Y195460D01*
X1040080D01*
Y200540D01*
X1037540D01*
Y203080D01*
X1032460D01*
Y200540D01*
X1029920D01*
Y195460D01*
X1032460D01*
X1043460D02*
Y192920D01*
X1048540D01*
Y195460D01*
X1051080D01*
Y200540D01*
X1048540D01*
Y203080D01*
X1043460D01*
Y200540D01*
X1040920D01*
Y195460D01*
X1043460D01*
X1054460D02*
Y192920D01*
X1059540D01*
Y195460D01*
X1062080D01*
Y200540D01*
X1059540D01*
Y203080D01*
X1054460D01*
Y200540D01*
X1051920D01*
Y195460D01*
X1054460D01*
X919460D02*
Y192920D01*
X924540D01*
Y195460D01*
X927080D01*
Y200540D01*
X924540D01*
Y203080D01*
X919460D01*
Y200540D01*
X916920D01*
Y195460D01*
X919460D01*
X908460D02*
Y192920D01*
X913540D01*
Y195460D01*
X916080D01*
Y200540D01*
X913540D01*
Y203080D01*
X908460D01*
Y200540D01*
X905920D01*
Y195460D01*
X908460D01*
X897460D02*
Y192920D01*
X902540D01*
Y195460D01*
X905080D01*
Y200540D01*
X902540D01*
Y203080D01*
X897460D01*
Y200540D01*
X894920D01*
Y195460D01*
X897460D01*
X651460Y215460D02*
Y212920D01*
X656540D01*
Y215460D01*
X659080D01*
Y220540D01*
X656540D01*
Y223080D01*
X651460D01*
Y220540D01*
X648920D01*
Y215460D01*
X651460D01*
X680460Y242460D02*
Y239920D01*
X685540D01*
Y242460D01*
X688080D01*
Y247540D01*
X685540D01*
Y250080D01*
X680460D01*
Y247540D01*
X677920D01*
Y242460D01*
X680460D01*
X651460Y245460D02*
Y242920D01*
X656540D01*
Y245460D01*
X659080D01*
Y250540D01*
X656540D01*
Y253080D01*
X651460D01*
Y250540D01*
X648920D01*
Y245460D01*
X651460D01*
X618460Y187460D02*
Y184920D01*
X623540D01*
Y187460D01*
X626080D01*
Y192540D01*
X623540D01*
Y195080D01*
X618460D01*
Y192540D01*
X615920D01*
Y187460D01*
X618460D01*
X607460Y197460D02*
Y194920D01*
X612540D01*
Y197460D01*
X615080D01*
Y202540D01*
X612540D01*
Y205080D01*
X607460D01*
Y202540D01*
X604920D01*
Y197460D01*
X607460D01*
X317460Y198960D02*
Y196420D01*
X322540D01*
Y198960D01*
X325080D01*
Y204040D01*
X322540D01*
Y206580D01*
X317460D01*
Y204040D01*
X314920D01*
Y198960D01*
X317460D01*
X299460Y199960D02*
Y197420D01*
X304540D01*
Y199960D01*
X307080D01*
Y205040D01*
X304540D01*
Y207580D01*
X299460D01*
Y205040D01*
X296920D01*
Y199960D01*
X299460D01*
X308460Y199460D02*
Y196920D01*
X313540D01*
Y199460D01*
X316080D01*
Y204540D01*
X313540D01*
Y207080D01*
X308460D01*
Y204540D01*
X305920D01*
Y199460D01*
X308460D01*
X341460Y219460D02*
Y216920D01*
X346540D01*
Y219460D01*
X349080D01*
Y224540D01*
X346540D01*
Y227080D01*
X341460D01*
Y224540D01*
X338920D01*
Y219460D01*
X341460D01*
X331460Y211460D02*
Y208920D01*
X336540D01*
Y211460D01*
X339080D01*
Y216540D01*
X336540D01*
Y219080D01*
X331460D01*
Y216540D01*
X328920D01*
Y211460D01*
X331460D01*
X333460Y308460D02*
Y305920D01*
X338540D01*
Y308460D01*
X341080D01*
Y313540D01*
X338540D01*
Y316080D01*
X333460D01*
Y313540D01*
X330920D01*
Y308460D01*
X333460D01*
X338460Y245460D02*
Y242920D01*
X343540D01*
Y245460D01*
X346080D01*
Y250540D01*
X343540D01*
Y253080D01*
X338460D01*
Y250540D01*
X335920D01*
Y245460D01*
X338460D01*
Y275460D02*
Y272920D01*
X343540D01*
Y275460D01*
X346080D01*
Y280540D01*
X343540D01*
Y283080D01*
X338460D01*
Y280540D01*
X335920D01*
Y275460D01*
X338460D01*
X798460Y716460D02*
Y713920D01*
X803540D01*
Y716460D01*
X806080D01*
Y721540D01*
X803540D01*
Y724080D01*
X798460D01*
Y721540D01*
X795920D01*
Y716460D01*
X798460D01*
X783460D02*
Y713920D01*
X788540D01*
Y716460D01*
X791080D01*
Y721540D01*
X788540D01*
Y724080D01*
X783460D01*
Y721540D01*
X780920D01*
Y716460D01*
X783460D01*
X780460Y705460D02*
Y702920D01*
X785540D01*
Y705460D01*
X788080D01*
Y710540D01*
X785540D01*
Y713080D01*
X780460D01*
Y710540D01*
X777920D01*
Y705460D01*
X780460D01*
X750460D02*
Y702920D01*
X755540D01*
Y705460D01*
X758080D01*
Y710540D01*
X755540D01*
Y713080D01*
X750460D01*
Y710540D01*
X747920D01*
Y705460D01*
X750460D01*
X697961Y737260D02*
Y734720D01*
X703041D01*
Y737260D01*
X705581D01*
Y742340D01*
X703041D01*
Y744880D01*
X697961D01*
Y742340D01*
X695421D01*
Y737260D01*
X697961D01*
X717961D02*
Y734720D01*
X723041D01*
Y737260D01*
X725581D01*
Y742340D01*
X723041D01*
Y744880D01*
X717961D01*
Y742340D01*
X715421D01*
Y737260D01*
X717961D01*
X737961D02*
Y734720D01*
X743041D01*
Y737260D01*
X745581D01*
Y742340D01*
X743041D01*
Y744880D01*
X737961D01*
Y742340D01*
X735421D01*
Y737260D01*
X737961D01*
X757961D02*
Y734720D01*
X763040D01*
Y737260D01*
X765581D01*
Y742340D01*
X763040D01*
Y744880D01*
X757961D01*
Y742340D01*
X755421D01*
Y737260D01*
X757961D01*
X766460Y705460D02*
Y702920D01*
X771540D01*
Y705460D01*
X774080D01*
Y710540D01*
X771540D01*
Y713080D01*
X766460D01*
Y710540D01*
X763920D01*
Y705460D01*
X766460D01*
X777961Y737260D02*
Y734720D01*
X783040D01*
Y737260D01*
X785581D01*
Y742340D01*
X783040D01*
Y744880D01*
X777961D01*
Y742340D01*
X775421D01*
Y737260D01*
X777961D01*
X797960D02*
Y734720D01*
X803040D01*
Y737260D01*
X805580D01*
Y742340D01*
X803040D01*
Y744880D01*
X797960D01*
Y742340D01*
X795420D01*
Y737260D01*
X797960D01*
X787961D02*
Y734720D01*
X793040D01*
Y737260D01*
X795581D01*
Y742340D01*
X793040D01*
Y744880D01*
X787961D01*
Y742340D01*
X785421D01*
Y737260D01*
X787961D01*
X656460Y309460D02*
Y306920D01*
X661540D01*
Y309460D01*
X664080D01*
Y314540D01*
X661540D01*
Y317080D01*
X656460D01*
Y314540D01*
X653920D01*
Y309460D01*
X656460D01*
X693460Y301460D02*
Y298920D01*
X698540D01*
Y301460D01*
X701080D01*
Y306540D01*
X698540D01*
Y309080D01*
X693460D01*
Y306540D01*
X690920D01*
Y301460D01*
X693460D01*
X707460Y176460D02*
Y173920D01*
X712540D01*
Y176460D01*
X715080D01*
Y181540D01*
X712540D01*
Y184080D01*
X707460D01*
Y181540D01*
X704920D01*
Y176460D01*
X707460D01*
X735459Y705459D02*
Y702919D01*
X740538D01*
Y705459D01*
X743079D01*
Y710539D01*
X740538D01*
Y713079D01*
X735459D01*
Y710539D01*
X732918D01*
Y705459D01*
X735459D01*
X719460Y705460D02*
Y702920D01*
X724540D01*
Y705460D01*
X727080D01*
Y710540D01*
X724540D01*
Y713080D01*
X719460D01*
Y710540D01*
X716920D01*
Y705460D01*
X719460D01*
X687961Y737260D02*
Y734720D01*
X693041D01*
Y737260D01*
X695581D01*
Y742340D01*
X693041D01*
Y744880D01*
X687961D01*
Y742340D01*
X685421D01*
Y737260D01*
X687961D01*
X677961D02*
Y734720D01*
X683041D01*
Y737260D01*
X685581D01*
Y742340D01*
X683041D01*
Y744880D01*
X677961D01*
Y742340D01*
X675421D01*
Y737260D01*
X677961D01*
X667961D02*
Y734720D01*
X673041D01*
Y737260D01*
X675581D01*
Y742340D01*
X673041D01*
Y744880D01*
X667961D01*
Y742340D01*
X665421D01*
Y737260D01*
X667961D01*
X652960D02*
Y734720D01*
X658039D01*
Y737260D01*
X660580D01*
Y742340D01*
X658039D01*
Y744880D01*
X652960D01*
Y742340D01*
X650419D01*
Y737260D01*
X652960D01*
X660460Y742460D02*
Y739920D01*
X665540D01*
Y742460D01*
X668080D01*
Y747540D01*
X665540D01*
Y750080D01*
X660460D01*
Y747540D01*
X657920D01*
Y742460D01*
X660460D01*
X422460Y765662D02*
Y763122D01*
X427540D01*
Y765662D01*
X430080D01*
Y770742D01*
X427540D01*
Y773282D01*
X422460D01*
Y770742D01*
X419920D01*
Y765662D01*
X422460D01*
X429459Y587459D02*
Y584919D01*
X434539D01*
Y587459D01*
X437079D01*
Y592539D01*
X434539D01*
Y595079D01*
X429459D01*
Y592539D01*
X426919D01*
Y587459D01*
X429459D01*
X436459Y613459D02*
Y610919D01*
X441539D01*
Y613459D01*
X444079D01*
Y618539D01*
X441539D01*
Y621079D01*
X436459D01*
Y618539D01*
X433919D01*
Y613459D01*
X436459D01*
X485460Y829460D02*
Y826920D01*
X490540D01*
Y829460D01*
X493080D01*
Y834540D01*
X490540D01*
Y837080D01*
X485460D01*
Y834540D01*
X482920D01*
Y829460D01*
X485460D01*
X455460Y880460D02*
Y877920D01*
X460540D01*
Y880460D01*
X463080D01*
Y885540D01*
X460540D01*
Y888080D01*
X455460D01*
Y885540D01*
X452920D01*
Y880460D01*
X455460D01*
X450460Y648460D02*
Y645920D01*
X455540D01*
Y648460D01*
X458080D01*
Y653540D01*
X455540D01*
Y656080D01*
X450460D01*
Y653540D01*
X447920D01*
Y648460D01*
X450460D01*
X373460Y587460D02*
Y584920D01*
X378540D01*
Y587460D01*
X381080D01*
Y592540D01*
X378540D01*
Y595080D01*
X373460D01*
Y592540D01*
X370920D01*
Y587460D01*
X373460D01*
X445460Y656460D02*
Y653920D01*
X450540D01*
Y656460D01*
X453080D01*
Y661540D01*
X450540D01*
Y664080D01*
X445460D01*
Y661540D01*
X442920D01*
Y656460D01*
X445460D01*
X467062Y537062D02*
Y534522D01*
X472142D01*
Y537062D01*
X474682D01*
Y542142D01*
X472142D01*
Y544682D01*
X467062D01*
Y542142D01*
X464522D01*
Y537062D01*
X467062D01*
X366460Y486460D02*
Y483920D01*
X371540D01*
Y486460D01*
X374080D01*
Y491540D01*
X371540D01*
Y494080D01*
X366460D01*
Y491540D01*
X363920D01*
Y486460D01*
X366460D01*
X719460Y176460D02*
Y173920D01*
X724540D01*
Y176460D01*
X727080D01*
Y181540D01*
X724540D01*
Y184080D01*
X719460D01*
Y181540D01*
X716920D01*
Y176460D01*
X719460D01*
X732460D02*
Y173920D01*
X737540D01*
Y176460D01*
X740080D01*
Y181540D01*
X737540D01*
Y184080D01*
X732460D01*
Y181540D01*
X729920D01*
Y176460D01*
X732460D01*
X719762Y331762D02*
Y329222D01*
X724842D01*
Y331762D01*
X727382D01*
Y336842D01*
X724842D01*
Y339382D01*
X719762D01*
Y336842D01*
X717222D01*
Y331762D01*
X719762D01*
X745162D02*
Y329222D01*
X750242D01*
Y331762D01*
X752782D01*
Y336842D01*
X750242D01*
Y339382D01*
X745162D01*
Y336842D01*
X742622D01*
Y331762D01*
X745162D01*
X770562Y383762D02*
Y381222D01*
X775642D01*
Y383762D01*
X778182D01*
Y388842D01*
X775642D01*
Y391382D01*
X770562D01*
Y388842D01*
X768022D01*
Y383762D01*
X770562D01*
X795962Y359958D02*
Y357418D01*
X801042D01*
Y359958D01*
X803582D01*
Y365038D01*
X801042D01*
Y367578D01*
X795962D01*
Y365038D01*
X793422D01*
Y359958D01*
X795962D01*
X821362D02*
Y357418D01*
X826442D01*
Y359958D01*
X828982D01*
Y365038D01*
X826442D01*
Y367578D01*
X821362D01*
Y365038D01*
X818822D01*
Y359958D01*
X821362D01*
X1001460Y296460D02*
Y293920D01*
X1006540D01*
Y296460D01*
X1009080D01*
Y301540D01*
X1006540D01*
Y304080D01*
X1001460D01*
Y301540D01*
X998920D01*
Y296460D01*
X1001460D01*
X988460Y296457D02*
Y293917D01*
X993540D01*
Y296457D01*
X996080D01*
Y301537D01*
X993540D01*
Y304077D01*
X988460D01*
Y301537D01*
X985920D01*
Y296457D01*
X988460D01*
X975460D02*
Y293917D01*
X980540D01*
Y296457D01*
X983080D01*
Y301537D01*
X980540D01*
Y304077D01*
X975460D01*
Y301537D01*
X972920D01*
Y296457D01*
X975460D01*
X962460Y296460D02*
Y293920D01*
X967540D01*
Y296460D01*
X970080D01*
Y301540D01*
X967540D01*
Y304080D01*
X962460D01*
Y301540D01*
X959920D01*
Y296460D01*
X962460D01*
X949460D02*
Y293920D01*
X954540D01*
Y296460D01*
X957080D01*
Y301540D01*
X954540D01*
Y304080D01*
X949460D01*
Y301540D01*
X946920D01*
Y296460D01*
X949460D01*
X986460Y321460D02*
Y318920D01*
X991540D01*
Y321460D01*
X994080D01*
Y326540D01*
X991540D01*
Y329080D01*
X986460D01*
Y326540D01*
X983920D01*
Y321460D01*
X986460D01*
X989458Y858458D02*
Y855918D01*
X994538D01*
Y858458D01*
X997078D01*
Y863538D01*
X994538D01*
Y866078D01*
X989458D01*
Y863538D01*
X986918D01*
Y858458D01*
X989458D01*
X979460Y858460D02*
Y855920D01*
X984540D01*
Y858460D01*
X987080D01*
Y863540D01*
X984540D01*
Y866080D01*
X979460D01*
Y863540D01*
X976920D01*
Y858460D01*
X979460D01*
X974460Y1038460D02*
Y1035920D01*
X979540D01*
Y1038460D01*
X982080D01*
Y1043540D01*
X979540D01*
Y1046080D01*
X974460D01*
Y1043540D01*
X971920D01*
Y1038460D01*
X974460D01*
X948460D02*
Y1035920D01*
X953540D01*
Y1038460D01*
X956080D01*
Y1043540D01*
X953540D01*
Y1046080D01*
X948460D01*
Y1043540D01*
X945920D01*
Y1038460D01*
X948460D01*
X982810Y231810D02*
Y229270D01*
X987890D01*
Y231810D01*
X990430D01*
Y236890D01*
X987890D01*
Y239430D01*
X982810D01*
Y236890D01*
X980270D01*
Y231810D01*
X982810D01*
X961460Y1038460D02*
Y1035920D01*
X966540D01*
Y1038460D01*
X969080D01*
Y1043540D01*
X966540D01*
Y1046080D01*
X961460D01*
Y1043540D01*
X958920D01*
Y1038460D01*
X961460D01*
X998460Y1094460D02*
Y1091920D01*
X1003540D01*
Y1094460D01*
X1006080D01*
Y1099540D01*
X1003540D01*
Y1102080D01*
X998460D01*
Y1099540D01*
X995920D01*
Y1094460D01*
X998460D01*
X1037460Y1129460D02*
Y1126920D01*
X1042540D01*
Y1129460D01*
X1045080D01*
Y1134540D01*
X1042540D01*
Y1137080D01*
X1037460D01*
Y1134540D01*
X1034920D01*
Y1129460D01*
X1037460D01*
X1057460Y981460D02*
Y978920D01*
X1062540D01*
Y981460D01*
X1065080D01*
Y986540D01*
X1062540D01*
Y989080D01*
X1057460D01*
Y986540D01*
X1054920D01*
Y981460D01*
X1057460D01*
X1467460Y418460D02*
Y415920D01*
X1472540D01*
Y418460D01*
X1475080D01*
Y423540D01*
X1472540D01*
Y426080D01*
X1467460D01*
Y423540D01*
X1464920D01*
Y418460D01*
X1467460D01*
X1477460D02*
Y415920D01*
X1482540D01*
Y418460D01*
X1485080D01*
Y423540D01*
X1482540D01*
Y426080D01*
X1477460D01*
Y423540D01*
X1474920D01*
Y418460D01*
X1477460D01*
X812460Y782460D02*
Y779920D01*
X817540D01*
Y782460D01*
X820080D01*
Y787540D01*
X817540D01*
Y790080D01*
X812460D01*
Y787540D01*
X809920D01*
Y782460D01*
X812460D01*
X821458Y792458D02*
Y789918D01*
X826538D01*
Y792458D01*
X829078D01*
Y797538D01*
X826538D01*
Y800078D01*
X821458D01*
Y797538D01*
X818918D01*
Y792458D01*
X821458D01*
X832458Y772458D02*
Y769918D01*
X837538D01*
Y772458D01*
X840078D01*
Y777538D01*
X837538D01*
Y780078D01*
X832458D01*
Y777538D01*
X829918D01*
Y772458D01*
X832458D01*
X1479460Y782460D02*
Y779920D01*
X1484540D01*
Y782460D01*
X1487080D01*
Y787540D01*
X1484540D01*
Y790080D01*
X1479460D01*
Y787540D01*
X1476920D01*
Y782460D01*
X1479460D01*
X1490460Y772460D02*
Y769920D01*
X1495540D01*
Y772460D01*
X1498080D01*
Y777540D01*
X1495540D01*
Y780080D01*
X1490460D01*
Y777540D01*
X1487920D01*
Y772460D01*
X1490460D01*
X1500460Y792460D02*
Y789920D01*
X1505540D01*
Y792460D01*
X1508080D01*
Y797540D01*
X1505540D01*
Y800080D01*
X1500460D01*
Y797540D01*
X1497920D01*
Y792460D01*
X1500460D01*
X555458Y852960D02*
Y850420D01*
X560538D01*
Y852960D01*
X563078D01*
Y858040D01*
X560538D01*
Y860580D01*
X555458D01*
Y858040D01*
X552918D01*
Y852960D01*
X555458D01*
X555460Y968460D02*
Y965920D01*
X560540D01*
Y968460D01*
X563080D01*
Y973540D01*
X560540D01*
Y976080D01*
X555460D01*
Y973540D01*
X552920D01*
Y968460D01*
X555460D01*
X540460Y852460D02*
Y849920D01*
X545540D01*
Y852460D01*
X548080D01*
Y857540D01*
X545540D01*
Y860080D01*
X540460D01*
Y857540D01*
X537920D01*
Y852460D01*
X540460D01*
X540459Y977458D02*
Y974918D01*
X545539D01*
Y977458D01*
X548079D01*
Y982538D01*
X545539D01*
Y985078D01*
X540459D01*
Y982538D01*
X537919D01*
Y977458D01*
X540459D01*
X580460Y852460D02*
Y849920D01*
X585540D01*
Y852460D01*
X588080D01*
Y857540D01*
X585540D01*
Y860080D01*
X580460D01*
Y857540D01*
X577920D01*
Y852460D01*
X580460D01*
X595458Y852960D02*
Y850420D01*
X600538D01*
Y852960D01*
X603078D01*
Y858040D01*
X600538D01*
Y860580D01*
X595458D01*
Y858040D01*
X592918D01*
Y852960D01*
X595458D01*
X580460Y988460D02*
Y985920D01*
X585540D01*
Y988460D01*
X588080D01*
Y993540D01*
X585540D01*
Y996080D01*
X580460D01*
Y993540D01*
X577920D01*
Y988460D01*
X580460D01*
X595460Y996460D02*
Y993920D01*
X600540D01*
Y996460D01*
X603080D01*
Y1001540D01*
X600540D01*
Y1004080D01*
X595460D01*
Y1001540D01*
X592920D01*
Y996460D01*
X595460D01*
X1063460Y1024460D02*
Y1021920D01*
X1068540D01*
Y1024460D01*
X1071080D01*
Y1029540D01*
X1068540D01*
Y1032080D01*
X1063460D01*
Y1029540D01*
X1060920D01*
Y1024460D01*
X1063460D01*
X1055960D02*
Y1021920D01*
X1061040D01*
Y1024460D01*
X1063580D01*
Y1029540D01*
X1061040D01*
Y1032080D01*
X1055960D01*
Y1029540D01*
X1053420D01*
Y1024460D01*
X1055960D01*
X427460Y714862D02*
Y712322D01*
X432540D01*
Y714862D01*
X435080D01*
Y719942D01*
X432540D01*
Y722482D01*
X427460D01*
Y719942D01*
X424920D01*
Y714862D01*
X427460D01*
X419460Y667460D02*
Y664920D01*
X424540D01*
Y667460D01*
X427080D01*
Y672540D01*
X424540D01*
Y675080D01*
X419460D01*
Y672540D01*
X416920D01*
Y667460D01*
X419460D01*
X427460Y673460D02*
Y670920D01*
X432540D01*
Y673460D01*
X435080D01*
Y678540D01*
X432540D01*
Y681080D01*
X427460D01*
Y678540D01*
X424920D01*
Y673460D01*
X427460D01*
Y689460D02*
Y686920D01*
X432540D01*
Y689460D01*
X435080D01*
Y694540D01*
X432540D01*
Y697080D01*
X427460D01*
Y694540D01*
X424920D01*
Y689460D01*
X427460D01*
Y727460D02*
Y724920D01*
X432540D01*
Y727460D01*
X435080D01*
Y732540D01*
X432540D01*
Y735080D01*
X427460D01*
Y732540D01*
X424920D01*
Y727460D01*
X427460D01*
X705460Y705460D02*
Y702920D01*
X710540D01*
Y705460D01*
X713080D01*
Y710540D01*
X710540D01*
Y713080D01*
X705460D01*
Y710540D01*
X702920D01*
Y705460D01*
X705460D01*
X692460D02*
Y702920D01*
X697540D01*
Y705460D01*
X700080D01*
Y710540D01*
X697540D01*
Y713080D01*
X692460D01*
Y710540D01*
X689920D01*
Y705460D01*
X692460D01*
X669460Y713541D02*
Y711001D01*
X674540D01*
Y713541D01*
X677080D01*
Y718621D01*
X674540D01*
Y721161D01*
X669460D01*
Y718621D01*
X666920D01*
Y713541D01*
X669460D01*
X677460Y709460D02*
Y706920D01*
X682540D01*
Y709460D01*
X685080D01*
Y714540D01*
X682540D01*
Y717080D01*
X677460D01*
Y714540D01*
X674920D01*
Y709460D01*
X677460D01*
X507460Y710460D02*
Y707920D01*
X512540D01*
Y710460D01*
X515080D01*
Y715540D01*
X512540D01*
Y718080D01*
X507460D01*
Y715540D01*
X504920D01*
Y710460D01*
X507460D01*
X464710Y601710D02*
Y599170D01*
X469790D01*
Y601710D01*
X472330D01*
Y606790D01*
X469790D01*
Y609330D01*
X464710D01*
Y606790D01*
X462170D01*
Y601710D01*
X464710D01*
X472460Y612460D02*
Y609920D01*
X477540D01*
Y612460D01*
X480080D01*
Y617540D01*
X477540D01*
Y620080D01*
X472460D01*
Y617540D01*
X469920D01*
Y612460D01*
X472460D01*
X463460Y740460D02*
Y737920D01*
X468540D01*
Y740460D01*
X471080D01*
Y745540D01*
X468540D01*
Y748080D01*
X463460D01*
Y745540D01*
X460920D01*
Y740460D01*
X463460D01*
X479460Y892460D02*
Y889920D01*
X484540D01*
Y892460D01*
X487080D01*
Y897540D01*
X484540D01*
Y900080D01*
X479460D01*
Y897540D01*
X476920D01*
Y892460D01*
X479460D01*
X491460Y867460D02*
Y864920D01*
X496540D01*
Y867460D01*
X499080D01*
Y872540D01*
X496540D01*
Y875080D01*
X491460D01*
Y872540D01*
X488920D01*
Y867460D01*
X491460D01*
X470460Y853460D02*
Y850920D01*
X475540D01*
Y853460D01*
X478080D01*
Y858540D01*
X475540D01*
Y861080D01*
X470460D01*
Y858540D01*
X467920D01*
Y853460D01*
X470460D01*
X493263Y841460D02*
Y838920D01*
X498343D01*
Y841460D01*
X500883D01*
Y846540D01*
X498343D01*
Y849080D01*
X493263D01*
Y846540D01*
X490723D01*
Y841460D01*
X493263D01*
X483460Y159460D02*
Y156920D01*
X488540D01*
Y159460D01*
X491080D01*
Y164540D01*
X488540D01*
Y167080D01*
X483460D01*
Y164540D01*
X480920D01*
Y159460D01*
X483460D01*
X469460D02*
Y156920D01*
X474540D01*
Y159460D01*
X477080D01*
Y164540D01*
X474540D01*
Y167080D01*
X469460D01*
Y164540D01*
X466920D01*
Y159460D01*
X469460D01*
X587460Y372460D02*
Y369920D01*
X592540D01*
Y372460D01*
X595080D01*
Y377540D01*
X592540D01*
Y380080D01*
X587460D01*
Y377540D01*
X584920D01*
Y372460D01*
X587460D01*
D92*
X1062080Y47700D02*
G03*
X1062080Y47700I-5080J0D01*
G01*
Y22300D02*
G03*
X1062080Y22300I-5080J0D01*
G01*
M02*
