G04*
G04 #@! TF.GenerationSoftware,Altium Limited,Altium Designer,20.0.11 (256)*
G04*
G04 Layer_Color=128*
%FSLAX44Y44*%
%MOMM*%
G71*
G01*
G75*
%ADD89C,0.0508*%
D89*
X-562799Y-34598D02*
X-553800D01*
X-558299Y-39098D02*
Y-30098D01*
X-537399Y-34598D02*
X-528400D01*
X-532899Y-39098D02*
Y-30098D01*
X-537399Y-59998D02*
X-528400D01*
X-532899Y-64498D02*
Y-55498D01*
X-562799Y-59998D02*
X-553800D01*
X-558299Y-64498D02*
Y-55498D01*
X-537399Y-85398D02*
X-528400D01*
X-532899Y-89898D02*
Y-80898D01*
X-562799Y-85398D02*
X-553800D01*
X-558299Y-89898D02*
Y-80898D01*
X-537399Y-110798D02*
X-528400D01*
X-532899Y-115298D02*
Y-106298D01*
X-562799Y-110798D02*
X-553800D01*
X-558299Y-115298D02*
Y-106298D01*
X-537399Y-136198D02*
X-528400D01*
X-532899Y-140698D02*
Y-131698D01*
X-562799Y-136198D02*
X-553800D01*
X-558299Y-140698D02*
Y-131698D01*
X-537399Y-161598D02*
X-528400D01*
X-532899Y-166098D02*
Y-157098D01*
X-562799Y-161598D02*
X-553800D01*
X-558299Y-166098D02*
Y-157098D01*
X-537399Y-186998D02*
X-528400D01*
X-532899Y-191498D02*
Y-182498D01*
X-562799Y-186998D02*
X-553800D01*
X-558299Y-191498D02*
Y-182498D01*
X-537399Y-212398D02*
X-528400D01*
X-532899Y-216898D02*
Y-207898D01*
X-562799Y-212398D02*
X-553800D01*
X-558299Y-216898D02*
Y-207898D01*
X-537399Y-9198D02*
X-528400D01*
X-532899Y-13698D02*
Y-4698D01*
X-537399Y16202D02*
X-528400D01*
X-532899Y11702D02*
Y20702D01*
X-537399Y41602D02*
X-528400D01*
X-532899Y37102D02*
Y46102D01*
X-537399Y67002D02*
X-528400D01*
X-532899Y62502D02*
Y71502D01*
X-537399Y92402D02*
X-528400D01*
X-532899Y87902D02*
Y96902D01*
X-537399Y117802D02*
X-528400D01*
X-532899Y113302D02*
Y122302D01*
X-537399Y143202D02*
X-528400D01*
X-532899Y138702D02*
Y147702D01*
X-537399Y168602D02*
X-528400D01*
X-532899Y164102D02*
Y173102D01*
X-537399Y194002D02*
X-528400D01*
X-532899Y189502D02*
Y198502D01*
X-537399Y219402D02*
X-528400D01*
X-532899Y214902D02*
Y223902D01*
X-537399Y244802D02*
X-528400D01*
X-532899Y240302D02*
Y249302D01*
X-537399Y270202D02*
X-528400D01*
X-532899Y265702D02*
Y274702D01*
X-537399Y295602D02*
X-528400D01*
X-532899Y291102D02*
Y300102D01*
X-537399Y321002D02*
X-528400D01*
X-532899Y316502D02*
Y325502D01*
X-537399Y346402D02*
X-528400D01*
X-532899Y341902D02*
Y350902D01*
X-537399Y371802D02*
X-528400D01*
X-532899Y367302D02*
Y376302D01*
X-537399Y397202D02*
X-528400D01*
X-532899Y392702D02*
Y401702D01*
X-537399Y422602D02*
X-528400D01*
X-532899Y418102D02*
Y427102D01*
X-562799Y-9198D02*
X-553800D01*
X-558299Y-13698D02*
Y-4698D01*
X-562799Y16202D02*
X-553800D01*
X-558299Y11702D02*
Y20702D01*
X-562799Y41602D02*
X-553800D01*
X-558299Y37102D02*
Y46102D01*
X-562799Y67002D02*
X-553800D01*
X-558299Y62502D02*
Y71502D01*
X-562799Y92402D02*
X-553800D01*
X-558299Y87902D02*
Y96902D01*
X-562799Y117802D02*
X-553800D01*
X-558299Y113302D02*
Y122302D01*
X-562799Y143202D02*
X-553800D01*
X-558299Y138702D02*
Y147702D01*
X-562799Y168602D02*
X-553800D01*
X-558299Y164102D02*
Y173102D01*
X-562799Y194002D02*
X-553800D01*
X-558299Y189502D02*
Y198502D01*
X-562799Y219402D02*
X-553800D01*
X-558299Y214902D02*
Y223902D01*
X-562799Y244802D02*
X-553800D01*
X-558299Y240302D02*
Y249302D01*
X-562799Y270202D02*
X-553800D01*
X-558299Y265702D02*
Y274702D01*
X-562799Y295602D02*
X-553800D01*
X-558299Y291102D02*
Y300102D01*
X-562799Y321002D02*
X-553800D01*
X-558299Y316502D02*
Y325502D01*
X-562799Y346402D02*
X-553800D01*
X-558299Y341902D02*
Y350902D01*
X-562799Y371802D02*
X-553800D01*
X-558299Y367302D02*
Y376302D01*
X-562799Y397202D02*
X-553800D01*
X-558299Y392702D02*
Y401702D01*
X-562799Y422602D02*
X-553800D01*
X-558299Y418102D02*
Y427102D01*
X173799Y473300D02*
X182799D01*
X178299Y468800D02*
Y477800D01*
X148399Y473300D02*
X157399D01*
X152899Y468800D02*
Y477800D01*
X122999Y473300D02*
X131999D01*
X127499Y468800D02*
Y477800D01*
X97599Y473300D02*
X106599D01*
X102099Y468800D02*
Y477800D01*
X72199Y473300D02*
X81199D01*
X76699Y468800D02*
Y477800D01*
X46799Y473300D02*
X55799D01*
X51299Y468800D02*
Y477800D01*
X21399Y473300D02*
X30399D01*
X25899Y468800D02*
Y477800D01*
X-4001Y473300D02*
X4999D01*
X499Y468800D02*
Y477800D01*
X-29401Y473300D02*
X-20401D01*
X-24901Y468800D02*
Y477800D01*
X-54801Y473300D02*
X-45801D01*
X-50301Y468800D02*
Y477800D01*
X-80201Y473300D02*
X-71201D01*
X-75701Y468800D02*
Y477800D01*
X-105601Y473300D02*
X-96601D01*
X-101101Y468800D02*
Y477800D01*
X-131001Y473300D02*
X-122001D01*
X-126501Y468800D02*
Y477800D01*
X-156401Y473300D02*
X-147401D01*
X-151901Y468800D02*
Y477800D01*
X-181801Y473300D02*
X-172801D01*
X-177301Y468800D02*
Y477800D01*
X-207201Y473300D02*
X-198201D01*
X-202701Y468800D02*
Y477800D01*
X-232601Y473300D02*
X-223601D01*
X-228101Y468800D02*
Y477800D01*
X-258001Y473300D02*
X-249001D01*
X-253501Y468800D02*
Y477800D01*
X173799Y447900D02*
X182799D01*
X178299Y443400D02*
Y452400D01*
X148399Y447900D02*
X157399D01*
X152899Y443400D02*
Y452400D01*
X122999Y447900D02*
X131999D01*
X127499Y443400D02*
Y452400D01*
X97599Y447900D02*
X106599D01*
X102099Y443400D02*
Y452400D01*
X72199Y447900D02*
X81199D01*
X76699Y443400D02*
Y452400D01*
X46799Y447900D02*
X55799D01*
X51299Y443400D02*
Y452400D01*
X21399Y447900D02*
X30399D01*
X25899Y443400D02*
Y452400D01*
X-4001Y447900D02*
X4999D01*
X499Y443400D02*
Y452400D01*
X-29401Y447900D02*
X-20401D01*
X-24901Y443400D02*
Y452400D01*
X-54801Y447900D02*
X-45801D01*
X-50301Y443400D02*
Y452400D01*
X-80201Y447900D02*
X-71201D01*
X-75701Y443400D02*
Y452400D01*
X-105601Y447900D02*
X-96601D01*
X-101101Y443400D02*
Y452400D01*
X-131001Y447900D02*
X-122001D01*
X-126501Y443400D02*
Y452400D01*
X-156401Y447900D02*
X-147401D01*
X-151901Y443400D02*
Y452400D01*
X-181801Y447900D02*
X-172801D01*
X-177301Y443400D02*
Y452400D01*
X-207201Y447900D02*
X-198201D01*
X-202701Y443400D02*
Y452400D01*
X-232601Y447900D02*
X-223601D01*
X-228101Y443400D02*
Y452400D01*
X-258001Y447900D02*
X-249001D01*
X-253501Y443400D02*
Y452400D01*
X-461201Y473300D02*
X-452201D01*
X-456701Y468800D02*
Y477800D01*
X-461201Y447900D02*
X-452201D01*
X-456701Y443400D02*
Y452400D01*
X-435801Y473300D02*
X-426801D01*
X-431301Y468800D02*
Y477800D01*
X-435801Y447900D02*
X-426801D01*
X-431301Y443400D02*
Y452400D01*
X-410401Y473300D02*
X-401401D01*
X-405901Y468800D02*
Y477800D01*
X-410401Y447900D02*
X-401401D01*
X-405901Y443400D02*
Y452400D01*
X-385001Y473300D02*
X-376001D01*
X-380501Y468800D02*
Y477800D01*
X-385001Y447900D02*
X-376001D01*
X-380501Y443400D02*
Y452400D01*
X-359601Y473300D02*
X-350601D01*
X-355101Y468800D02*
Y477800D01*
X-359601Y447900D02*
X-350601D01*
X-355101Y443400D02*
Y452400D01*
X-334201Y473300D02*
X-325201D01*
X-329701Y468800D02*
Y477800D01*
X-334201Y447900D02*
X-325201D01*
X-329701Y443400D02*
Y452400D01*
X-308801Y473300D02*
X-299801D01*
X-304301Y468800D02*
Y477800D01*
X-308801Y447900D02*
X-299801D01*
X-304301Y443400D02*
Y452400D01*
X-283401Y447900D02*
X-274401D01*
X-278901Y443400D02*
Y452400D01*
X-283401Y473300D02*
X-274401D01*
X-278901Y468800D02*
Y477800D01*
X173802Y-237900D02*
X182802D01*
X178302Y-242400D02*
Y-233400D01*
X148402Y-237900D02*
X157402D01*
X152902Y-242400D02*
Y-233400D01*
X123002Y-237900D02*
X132002D01*
X127502Y-242400D02*
Y-233400D01*
X97602Y-237900D02*
X106602D01*
X102102Y-242400D02*
Y-233400D01*
X72202Y-237900D02*
X81202D01*
X76702Y-242400D02*
Y-233400D01*
X46802Y-237900D02*
X55802D01*
X51302Y-242400D02*
Y-233400D01*
X21402Y-237900D02*
X30402D01*
X25902Y-242400D02*
Y-233400D01*
X-3998Y-237900D02*
X5002D01*
X502Y-242400D02*
Y-233400D01*
X-29398Y-237900D02*
X-20398D01*
X-24898Y-242400D02*
Y-233400D01*
X-54798Y-237900D02*
X-45798D01*
X-50298Y-242400D02*
Y-233400D01*
X-80198Y-237900D02*
X-71198D01*
X-75698Y-242400D02*
Y-233400D01*
X-105598Y-237900D02*
X-96598D01*
X-101098Y-242400D02*
Y-233400D01*
X-130998Y-237900D02*
X-121998D01*
X-126498Y-242400D02*
Y-233400D01*
X-156398Y-237900D02*
X-147398D01*
X-151898Y-242400D02*
Y-233400D01*
X-181798Y-237900D02*
X-172798D01*
X-177298Y-242400D02*
Y-233400D01*
X-207198Y-237900D02*
X-198198D01*
X-202698Y-242400D02*
Y-233400D01*
X-232598Y-237900D02*
X-223598D01*
X-228098Y-242400D02*
Y-233400D01*
X-257998Y-237900D02*
X-248998D01*
X-253498Y-242400D02*
Y-233400D01*
X173802Y-263300D02*
X182802D01*
X178302Y-267800D02*
Y-258800D01*
X148402Y-263300D02*
X157402D01*
X152902Y-267800D02*
Y-258800D01*
X123002Y-263300D02*
X132002D01*
X127502Y-267800D02*
Y-258800D01*
X97602Y-263300D02*
X106602D01*
X102102Y-267800D02*
Y-258800D01*
X72202Y-263300D02*
X81202D01*
X76702Y-267800D02*
Y-258800D01*
X46802Y-263300D02*
X55802D01*
X51302Y-267800D02*
Y-258800D01*
X21402Y-263300D02*
X30402D01*
X25902Y-267800D02*
Y-258800D01*
X-3998Y-263300D02*
X5002D01*
X502Y-267800D02*
Y-258800D01*
X-29398Y-263300D02*
X-20398D01*
X-24898Y-267800D02*
Y-258800D01*
X-54798Y-263300D02*
X-45798D01*
X-50298Y-267800D02*
Y-258800D01*
X-80198Y-263300D02*
X-71198D01*
X-75698Y-267800D02*
Y-258800D01*
X-105598Y-263300D02*
X-96598D01*
X-101098Y-267800D02*
Y-258800D01*
X-130998Y-263300D02*
X-121998D01*
X-126498Y-267800D02*
Y-258800D01*
X-156398Y-263300D02*
X-147398D01*
X-151898Y-267800D02*
Y-258800D01*
X-181798Y-263300D02*
X-172798D01*
X-177298Y-267800D02*
Y-258800D01*
X-207198Y-263300D02*
X-198198D01*
X-202698Y-267800D02*
Y-258800D01*
X-232598Y-263300D02*
X-223598D01*
X-228098Y-267800D02*
Y-258800D01*
X-257998Y-263300D02*
X-248998D01*
X-253498Y-267800D02*
Y-258800D01*
X-461198Y-237900D02*
X-452198D01*
X-456698Y-242400D02*
Y-233400D01*
X-461198Y-263300D02*
X-452198D01*
X-456698Y-267800D02*
Y-258800D01*
X-435798Y-237900D02*
X-426798D01*
X-431298Y-242400D02*
Y-233400D01*
X-435798Y-263300D02*
X-426798D01*
X-431298Y-267800D02*
Y-258800D01*
X-410398Y-237900D02*
X-401398D01*
X-405898Y-242400D02*
Y-233400D01*
X-410398Y-263300D02*
X-401398D01*
X-405898Y-267800D02*
Y-258800D01*
X-384998Y-237900D02*
X-375998D01*
X-380498Y-242400D02*
Y-233400D01*
X-384998Y-263300D02*
X-375998D01*
X-380498Y-267800D02*
Y-258800D01*
X-359598Y-237900D02*
X-350598D01*
X-355098Y-242400D02*
Y-233400D01*
X-359598Y-263300D02*
X-350598D01*
X-355098Y-267800D02*
Y-258800D01*
X-334198Y-237900D02*
X-325198D01*
X-329698Y-242400D02*
Y-233400D01*
X-334198Y-263300D02*
X-325198D01*
X-329698Y-267800D02*
Y-258800D01*
X-308798Y-237900D02*
X-299798D01*
X-304298Y-242400D02*
Y-233400D01*
X-308798Y-263300D02*
X-299798D01*
X-304298Y-267800D02*
Y-258800D01*
X-283398Y-263300D02*
X-274398D01*
X-278898Y-267800D02*
Y-258800D01*
X-283398Y-237900D02*
X-274398D01*
X-278898Y-242400D02*
Y-233400D01*
X198001Y-625000D02*
X212001D01*
X205001Y-632000D02*
Y-618000D01*
X233000Y-625000D02*
X247000D01*
X240000Y-632000D02*
Y-618000D01*
X268001Y-625000D02*
X282001D01*
X275001Y-632000D02*
Y-618000D01*
X984000Y-500000D02*
X1016000D01*
X1000000Y-516000D02*
Y-484000D01*
X984000Y500000D02*
X1016000D01*
X1000000Y484000D02*
Y516000D01*
X-1016000Y500000D02*
X-984000D01*
X-1000000Y484000D02*
Y516000D01*
X68001Y-625000D02*
X82001D01*
X75001Y-632000D02*
Y-618000D01*
X33000Y-625000D02*
X47000D01*
X40000Y-632000D02*
Y-618000D01*
X-1999Y-625000D02*
X12001D01*
X5001Y-632000D02*
Y-618000D01*
X-175050Y-545800D02*
X-164150D01*
X-169600Y-551250D02*
Y-540350D01*
X-188900Y-574200D02*
X-178000D01*
X-183450Y-579650D02*
Y-568750D01*
X-202750Y-545800D02*
X-191850D01*
X-197300Y-551250D02*
Y-540350D01*
X-216600Y-574200D02*
X-205700D01*
X-211150Y-579650D02*
Y-568750D01*
X-230450Y-545800D02*
X-219550D01*
X-225000Y-551250D02*
Y-540350D01*
X-244300Y-574200D02*
X-233400D01*
X-238850Y-579650D02*
Y-568750D01*
X-258150Y-545800D02*
X-247250D01*
X-252700Y-551250D02*
Y-540350D01*
X-272000Y-574200D02*
X-261100D01*
X-266550Y-579650D02*
Y-568750D01*
X-285850Y-545800D02*
X-274950D01*
X-280400Y-551250D02*
Y-540350D01*
X-366250Y-560000D02*
X-333650D01*
X-349950Y-576300D02*
Y-543700D01*
X-116350Y-560000D02*
X-83750D01*
X-100050Y-576300D02*
Y-543700D01*
X127500Y-682700D02*
X136500D01*
X132000Y-687200D02*
Y-678200D01*
X127500Y-657300D02*
X136500D01*
X132000Y-661800D02*
Y-652800D01*
X327000Y-283000D02*
X359000D01*
X343000Y-299000D02*
Y-267000D01*
X327000Y493000D02*
X359000D01*
X343000Y477000D02*
Y509000D01*
X-809000Y493000D02*
X-777000D01*
X-793000Y477000D02*
Y509000D01*
X-809000Y-283000D02*
X-777000D01*
X-793000Y-299000D02*
Y-267000D01*
X-1016000Y-500000D02*
X-984000D01*
X-1000000Y-516000D02*
Y-484000D01*
X89500Y265000D02*
X92500D01*
X91000Y263500D02*
Y266500D01*
X101500Y253000D02*
X104500D01*
X103000Y251500D02*
Y254500D01*
X-177416Y277094D02*
X-174416D01*
X-175916Y275594D02*
Y278594D01*
X-177500Y253000D02*
X-174500D01*
X-176000Y251500D02*
Y254500D01*
X-177500Y265000D02*
X-174500D01*
X-176000Y263500D02*
Y266500D01*
X101500Y265000D02*
X104500D01*
X103000Y263500D02*
Y266500D01*
X479500Y-208000D02*
X482500D01*
X481000Y-209500D02*
Y-206500D01*
X436500Y-208000D02*
X439500D01*
X438000Y-209500D02*
Y-206500D01*
X453000Y-352500D02*
X456000D01*
X454500Y-354000D02*
Y-351000D01*
X644500Y-384000D02*
X647500D01*
X646000Y-385500D02*
Y-382500D01*
X655000Y-307500D02*
X658000D01*
X656500Y-309000D02*
Y-306000D01*
X207963Y-207000D02*
X210963D01*
X209463Y-208500D02*
Y-205500D01*
X284774Y-246942D02*
X287774D01*
X286274Y-248442D02*
Y-245441D01*
X271774Y-246942D02*
X274774D01*
X273274Y-248442D02*
Y-245441D01*
X259074Y-246968D02*
X262074D01*
X260574Y-248468D02*
Y-245468D01*
X245820Y-247081D02*
X248820D01*
X247320Y-248581D02*
Y-245581D01*
X596000Y-190460D02*
X599000D01*
X597500Y-191960D02*
Y-188960D01*
X463500Y-352500D02*
X466500D01*
X465000Y-354000D02*
Y-351000D01*
X233500Y-183000D02*
X236500D01*
X235000Y-184500D02*
Y-181500D01*
X233500Y-195000D02*
X236500D01*
X235000Y-196500D02*
Y-193500D01*
X-135500Y-186000D02*
X-132500D01*
X-134000Y-187500D02*
Y-184500D01*
X74500Y-158000D02*
X77500D01*
X76000Y-159500D02*
Y-156500D01*
X-2500Y-163000D02*
X500D01*
X-1000Y-164500D02*
Y-161500D01*
X-105500Y-182000D02*
X-102500D01*
X-104000Y-183500D02*
Y-180500D01*
X-507336Y-200750D02*
X-504336D01*
X-505835Y-202250D02*
Y-199250D01*
X-88500Y-182000D02*
X-85500D01*
X-87000Y-183500D02*
Y-180500D01*
X-95490Y-188972D02*
X-92490D01*
X-93990Y-190472D02*
Y-187472D01*
X230500Y-341000D02*
X233500D01*
X232000Y-342500D02*
Y-339500D01*
X213500Y-318000D02*
X216500D01*
X215000Y-319500D02*
Y-316500D01*
X213500Y-230000D02*
X216500D01*
X215000Y-231500D02*
Y-228500D01*
X213500Y-329000D02*
X216500D01*
X215000Y-330500D02*
Y-327500D01*
X213500Y-218000D02*
X216500D01*
X215000Y-219500D02*
Y-216500D01*
X88500Y427000D02*
X91500D01*
X90000Y425500D02*
Y428500D01*
X36500Y427000D02*
X39500D01*
X38000Y425500D02*
Y428500D01*
X75500Y249000D02*
X78500D01*
X77000Y247500D02*
Y250500D01*
X-13500Y249000D02*
X-10500D01*
X-12000Y247500D02*
Y250500D01*
X62500Y239000D02*
X65500D01*
X64000Y237500D02*
Y240500D01*
X24500Y239000D02*
X27500D01*
X26000Y237500D02*
Y240500D01*
X-127500Y-217000D02*
X-124500D01*
X-126000Y-218500D02*
Y-215500D01*
X-115500Y-209000D02*
X-112500D01*
X-114000Y-210500D02*
Y-207500D01*
X611000Y-166250D02*
X614000D01*
X612500Y-167750D02*
Y-164750D01*
X601000Y-166250D02*
X604000D01*
X602500Y-167750D02*
Y-164750D01*
X633500Y-170000D02*
X636500D01*
X635000Y-171500D02*
Y-168500D01*
X621500Y-159000D02*
X624500D01*
X623000Y-160500D02*
Y-157500D01*
X645500Y-159000D02*
X648500D01*
X647000Y-160500D02*
Y-157500D01*
X633750Y-147250D02*
X636750D01*
X635250Y-148750D02*
Y-145750D01*
X-489396Y275304D02*
X-486396D01*
X-487896Y273804D02*
Y276804D01*
X-489396Y249904D02*
X-486396D01*
X-487896Y248404D02*
Y251404D01*
X-489396Y224504D02*
X-486396D01*
X-487896Y223004D02*
Y226004D01*
X-489396Y199104D02*
X-486396D01*
X-487896Y197604D02*
Y200604D01*
X-489396Y148304D02*
X-486396D01*
X-487896Y146804D02*
Y149804D01*
X-489396Y122904D02*
X-486396D01*
X-487896Y121404D02*
Y124404D01*
X-489396Y97504D02*
X-486396D01*
X-487896Y96004D02*
Y99004D01*
X-489396Y72104D02*
X-486396D01*
X-487896Y70604D02*
Y73604D01*
X-421500Y-110000D02*
X-418500D01*
X-420000Y-111500D02*
Y-108500D01*
X-411500Y-102500D02*
X-408500D01*
X-410000Y-104000D02*
Y-101000D01*
X-400750Y-94250D02*
X-397750D01*
X-399250Y-95750D02*
Y-92750D01*
X-391500Y-87500D02*
X-388500D01*
X-390000Y-89000D02*
Y-86000D01*
X-383750Y-80250D02*
X-380750D01*
X-382250Y-81750D02*
Y-78750D01*
X-375500Y-73500D02*
X-372500D01*
X-374000Y-75000D02*
Y-72000D01*
X-367250Y-66750D02*
X-364250D01*
X-365750Y-68250D02*
Y-65250D01*
X-359000Y-60000D02*
X-356000D01*
X-357500Y-61500D02*
Y-58500D01*
X-489500Y-77000D02*
X-486500D01*
X-488000Y-78500D02*
Y-75500D01*
X-481500Y-69000D02*
X-478500D01*
X-480000Y-70500D02*
Y-67500D01*
X-473500Y-62000D02*
X-470500D01*
X-472000Y-63500D02*
Y-60500D01*
X-465500Y-54000D02*
X-462500D01*
X-464000Y-55500D02*
Y-52500D01*
X-456500Y-45000D02*
X-453500D01*
X-455000Y-46500D02*
Y-43500D01*
X-447500Y-37000D02*
X-444500D01*
X-446000Y-38500D02*
Y-35500D01*
X-439500Y-29000D02*
X-436500D01*
X-438000Y-30500D02*
Y-27500D01*
X-431500Y-21000D02*
X-428500D01*
X-430000Y-22500D02*
Y-19500D01*
X-497500Y-104000D02*
X-494500D01*
X-496000Y-105500D02*
Y-102500D01*
X-497698Y-136198D02*
X-494698D01*
X-496198Y-137698D02*
Y-134698D01*
X284904Y-213440D02*
X287904D01*
X286404Y-214940D02*
Y-211940D01*
X88500Y-394000D02*
X91500D01*
X90000Y-395500D02*
Y-392500D01*
X88500Y-337000D02*
X91500D01*
X90000Y-338500D02*
Y-335500D01*
X585500Y-260500D02*
X588500D01*
X587000Y-262000D02*
Y-259000D01*
X227904Y-149851D02*
X230904D01*
X229404Y-151350D02*
Y-148351D01*
X88500Y218899D02*
X91500D01*
X90000Y217400D02*
Y220399D01*
X-2000Y-352500D02*
X1000D01*
X-500Y-354000D02*
Y-351000D01*
X14000Y-352500D02*
X17000D01*
X15500Y-354000D02*
Y-351000D01*
X-299500Y-352500D02*
X-296500D01*
X-298000Y-354000D02*
Y-351000D01*
X-283500Y-352500D02*
X-280500D01*
X-282000Y-354000D02*
Y-351000D01*
X-167449Y-352500D02*
X-164449D01*
X-165949Y-354000D02*
Y-351000D01*
X-176500Y402500D02*
X-173500D01*
X-175000Y401000D02*
Y404000D01*
X-192266Y416000D02*
X-189266D01*
X-190766Y414500D02*
Y417500D01*
X-498500Y-291000D02*
X-495500D01*
X-497000Y-292500D02*
Y-289500D01*
X-498500Y-174000D02*
X-495500D01*
X-497000Y-175500D02*
Y-172500D01*
X565252Y-200750D02*
X568252D01*
X566752Y-202250D02*
Y-199250D01*
X-507500Y-123000D02*
X-504500D01*
X-506000Y-124500D02*
Y-121500D01*
X109500Y147903D02*
X112500D01*
X111000Y146403D02*
Y149403D01*
X98651Y170901D02*
X101651D01*
X100151Y169401D02*
Y172401D01*
X109500Y179900D02*
X112500D01*
X111000Y178400D02*
Y181399D01*
X136500Y210900D02*
X139500D01*
X138000Y209400D02*
Y212400D01*
X101500Y216900D02*
X104500D01*
X103000Y215399D02*
Y218400D01*
X75500Y216900D02*
X78500D01*
X77000Y215399D02*
Y218400D01*
X-176500Y416000D02*
X-173500D01*
X-175000Y414500D02*
Y417500D01*
X655500Y-328500D02*
X658500D01*
X657000Y-330000D02*
Y-327000D01*
X655500Y-342500D02*
X658500D01*
X657000Y-344000D02*
Y-341000D01*
X625500Y-307500D02*
X628500D01*
X627000Y-309000D02*
Y-306000D01*
X303904Y-175940D02*
X306904D01*
X305404Y-177440D02*
Y-174440D01*
X318905Y-151160D02*
X321905D01*
X320405Y-152660D02*
Y-149660D01*
X-291500Y-352500D02*
X-288500D01*
X-290000Y-354000D02*
Y-351000D01*
X6000Y-352500D02*
X9000D01*
X7500Y-354000D02*
Y-351000D01*
X68500Y-299000D02*
X71500D01*
X70000Y-300500D02*
Y-297500D01*
X-454500Y-291000D02*
X-451500D01*
X-453000Y-292500D02*
Y-289500D01*
X-199500Y-300000D02*
X-196500D01*
X-198000Y-301500D02*
Y-298500D01*
X-209500Y-288000D02*
X-206500D01*
X-208000Y-289500D02*
Y-286500D01*
X77500Y-283000D02*
X80500D01*
X79000Y-284500D02*
Y-281500D01*
X25500Y-302000D02*
X28500D01*
X27000Y-303500D02*
Y-300500D01*
X38500Y-292000D02*
X41500D01*
X40000Y-293500D02*
Y-290500D01*
X208500Y-407000D02*
X211500D01*
X210000Y-408500D02*
Y-405500D01*
X87300Y60671D02*
X90300D01*
X88800Y59171D02*
Y62171D01*
X74600Y60671D02*
X77600D01*
X76100Y59171D02*
Y62171D01*
X-115500Y83899D02*
X-112500D01*
X-114000Y82400D02*
Y85400D01*
X-127500Y83899D02*
X-124500D01*
X-126000Y82400D02*
Y85400D01*
X62434Y218965D02*
X65434D01*
X63934Y217465D02*
Y220465D01*
X10500Y218899D02*
X13500D01*
X12000Y217400D02*
Y220399D01*
X-116996Y213397D02*
X-113996D01*
X-115496Y211897D02*
Y214897D01*
X-146996Y213397D02*
X-143996D01*
X-145496Y211897D02*
Y214897D01*
X-176996Y213397D02*
X-173996D01*
X-175496Y211897D02*
Y214897D01*
X-161996Y213397D02*
X-158996D01*
X-160496Y211897D02*
Y214897D01*
X271904Y-213440D02*
X274904D01*
X273404Y-214940D02*
Y-211940D01*
X303904Y-211940D02*
X306904D01*
X305404Y-213440D02*
Y-210440D01*
X36500Y218899D02*
X39500D01*
X38000Y217400D02*
Y220399D01*
X-214000Y-525000D02*
X-211000D01*
X-212500Y-526500D02*
Y-523500D01*
X-101996Y213397D02*
X-98996D01*
X-100496Y211897D02*
Y214897D01*
X-131996Y213397D02*
X-128996D01*
X-130496Y211897D02*
Y214897D01*
X-104496Y150897D02*
X-101496D01*
X-102996Y149397D02*
Y152397D01*
X58850Y-470650D02*
X61850D01*
X60350Y-472150D02*
Y-469150D01*
X23500Y218899D02*
X26500D01*
X25000Y217400D02*
Y220399D01*
X49500Y218899D02*
X52500D01*
X51000Y217400D02*
Y220399D01*
X25500Y-406000D02*
X28500D01*
X27000Y-407500D02*
Y-404500D01*
X38500Y-406000D02*
X41500D01*
X40000Y-407500D02*
Y-404500D01*
X51500Y-406003D02*
X54500D01*
X53000Y-407503D02*
Y-404503D01*
X64500Y-406003D02*
X67500D01*
X66000Y-407503D02*
Y-404503D01*
X77500Y-406000D02*
X80500D01*
X79000Y-407500D02*
Y-404500D01*
X-186000Y-526000D02*
X-183000D01*
X-184500Y-527500D02*
Y-524500D01*
X-199000Y-526000D02*
X-196000D01*
X-197500Y-527500D02*
Y-524500D01*
X-230500Y-401000D02*
X-227500D01*
X-229000Y-402500D02*
Y-399500D01*
X-267500Y-393000D02*
X-264500D01*
X-266000Y-394500D02*
Y-391500D01*
X617502Y-260500D02*
X620502D01*
X619002Y-262000D02*
Y-259000D01*
X553502Y-253500D02*
X556502D01*
X555002Y-255000D02*
Y-252000D01*
X541502Y-230500D02*
X544502D01*
X543002Y-232000D02*
Y-229000D01*
X542002Y-221500D02*
X545002D01*
X543502Y-223000D02*
Y-220000D01*
X541002Y-239500D02*
X544002D01*
X542502Y-241000D02*
Y-238000D01*
X-272500Y-457000D02*
X-269500D01*
X-271000Y-458500D02*
Y-455500D01*
X-243500Y-460000D02*
X-240500D01*
X-242000Y-461500D02*
Y-458500D01*
X-272500Y-487000D02*
X-269500D01*
X-271000Y-488500D02*
Y-485500D01*
X-26500Y-507000D02*
X-23500D01*
X-25000Y-508500D02*
Y-505500D01*
X-15500Y-507000D02*
X-12500D01*
X-14000Y-508500D02*
Y-505500D01*
X-4500Y-507000D02*
X-1500D01*
X-3000Y-508500D02*
Y-505500D01*
X130500Y-507000D02*
X133500D01*
X132000Y-508500D02*
Y-505500D01*
X119500Y-507000D02*
X122500D01*
X121000Y-508500D02*
Y-505500D01*
X108500Y-507000D02*
X111500D01*
X110000Y-508500D02*
Y-505500D01*
X173500Y-589000D02*
X176500D01*
X175000Y-590500D02*
Y-587500D01*
X184500Y-589000D02*
X187500D01*
X186000Y-590500D02*
Y-587500D01*
X195500Y-589000D02*
X198500D01*
X197000Y-590500D02*
Y-587500D01*
X289500Y-589000D02*
X292500D01*
X291000Y-590500D02*
Y-587500D01*
X300500Y-589000D02*
X303500D01*
X302000Y-590500D02*
Y-587500D01*
X311500Y-589000D02*
X314500D01*
X313000Y-590500D02*
Y-587500D01*
X18500Y-489000D02*
X21500D01*
X20000Y-490500D02*
Y-487500D01*
X18500Y-519000D02*
X21500D01*
X20000Y-520500D02*
Y-517500D01*
X71500Y-519000D02*
X74500D01*
X73000Y-520500D02*
Y-517500D01*
X208500Y-486000D02*
X211500D01*
X210000Y-487500D02*
Y-484500D01*
X276500Y-405000D02*
X279500D01*
X278000Y-406500D02*
Y-403500D01*
X235500Y-389000D02*
X238500D01*
X237000Y-390500D02*
Y-387500D01*
X309500Y-607000D02*
X312500D01*
X311000Y-608500D02*
Y-605500D01*
X-243355Y-384145D02*
X-240355D01*
X-241855Y-385645D02*
Y-382645D01*
X-183355Y-391855D02*
X-180355D01*
X-181855Y-393355D02*
Y-390355D01*
X-167496Y83897D02*
X-164496D01*
X-165996Y82397D02*
Y85397D01*
X-140850Y118543D02*
X-137850D01*
X-139350Y117043D02*
Y120043D01*
X-167496Y112897D02*
X-164496D01*
X-165996Y111397D02*
Y114397D01*
X-14500Y54900D02*
X-11500D01*
X-13000Y53400D02*
Y56399D01*
X-71500Y113899D02*
X-68500D01*
X-70000Y112400D02*
Y115400D01*
X-45500Y80899D02*
X-42500D01*
X-44000Y79399D02*
Y82400D01*
X-79500Y109900D02*
X-76500D01*
X-78000Y108399D02*
Y111399D01*
X-67500Y131899D02*
X-64500D01*
X-66000Y130400D02*
Y133399D01*
X655500Y-264000D02*
X658500D01*
X657000Y-265500D02*
Y-262500D01*
X655500Y-251502D02*
X658500D01*
X657000Y-253002D02*
Y-250002D01*
X-438500Y-541000D02*
X-435500D01*
X-437000Y-542500D02*
Y-539500D01*
X-454500Y-541000D02*
X-451500D01*
X-453000Y-542500D02*
Y-539500D01*
M02*
