G04*
G04 #@! TF.GenerationSoftware,Altium Limited,Altium Designer,20.0.7 (75)*
G04*
G04 Layer_Color=128*
%FSLAX44Y44*%
%MOMM*%
G71*
G01*
G75*
%ADD38R,0.9500X7.3000*%
%ADD39R,0.8000X0.9000*%
%ADD40R,1.1000X0.6500*%
%ADD41R,0.9000X0.6500*%
%ADD42R,0.9000X0.8000*%
%ADD43R,1.6500X1.3000*%
%ADD44R,0.3000X1.0000*%
%ADD45R,1.2000X2.4000*%
%ADD46O,0.7000X2.5000*%
%ADD47O,0.6000X2.3000*%
%ADD48R,1.1498X1.3995*%
%ADD49R,2.1500X0.5600*%
G04:AMPARAMS|DCode=50|XSize=0.25mm|YSize=0.7mm|CornerRadius=0.0625mm|HoleSize=0mm|Usage=FLASHONLY|Rotation=180.000|XOffset=0mm|YOffset=0mm|HoleType=Round|Shape=RoundedRectangle|*
%AMROUNDEDRECTD50*
21,1,0.2500,0.5750,0,0,180.0*
21,1,0.1250,0.7000,0,0,180.0*
1,1,0.1250,-0.0625,0.2875*
1,1,0.1250,0.0625,0.2875*
1,1,0.1250,0.0625,-0.2875*
1,1,0.1250,-0.0625,-0.2875*
%
%ADD50ROUNDEDRECTD50*%
%ADD51R,1.1000X2.6000*%
%ADD52R,2.6162X2.7432*%
%ADD53R,1.2000X2.0000*%
%ADD54R,2.7432X2.6162*%
%ADD55O,0.6000X1.9000*%
%ADD56C,1.0000*%
G36*
X431000Y42000D02*
X430500Y47000D01*
X430000Y49000D01*
X429500Y51000D01*
X428500Y53500D01*
X427500Y55500D01*
X426000Y58000D01*
X424000Y60500D01*
X423500Y61000D01*
X421000Y63000D01*
X417500Y65500D01*
X414500Y67000D01*
Y78500D01*
X431000D01*
Y42000D01*
D02*
G37*
G36*
X393500Y67000D02*
X389500Y65000D01*
X387500Y63500D01*
X385000Y61500D01*
X382000Y58000D01*
X380500Y55500D01*
X379500Y53500D01*
X377500Y47500D01*
X377000Y42000D01*
Y78500D01*
X393500D01*
Y67000D01*
D02*
G37*
G36*
X431000Y5500D02*
X414500D01*
Y17000D01*
X417500Y18500D01*
X420500Y20500D01*
X424000Y23500D01*
X427000Y27500D01*
X429500Y32500D01*
X430500Y36500D01*
X431000Y42000D01*
Y5500D01*
D02*
G37*
G36*
X377500Y37000D02*
X378000Y34500D01*
X378500Y32500D01*
X380000Y29500D01*
X382000Y26000D01*
X385000Y22500D01*
X388000Y20000D01*
X389500Y19000D01*
X393500Y17000D01*
Y5500D01*
X377000D01*
Y42000D01*
X377500Y37000D01*
D02*
G37*
D38*
X435750Y42000D02*
D03*
X372250D02*
D03*
D39*
X433000Y136500D02*
D03*
X419000D02*
D03*
X473998Y93000D02*
D03*
X459998D02*
D03*
X473998Y79000D02*
D03*
X459998D02*
D03*
X460002Y65000D02*
D03*
X474002D02*
D03*
X459998Y51000D02*
D03*
X473998D02*
D03*
X459998Y30000D02*
D03*
X473998D02*
D03*
X459998Y16000D02*
D03*
X473998D02*
D03*
X474002Y106998D02*
D03*
X460002D02*
D03*
X419000Y122000D02*
D03*
X433000D02*
D03*
X402003Y105000D02*
D03*
X388003D02*
D03*
X325002Y-616000D02*
D03*
X311002D02*
D03*
X325002Y-642000D02*
D03*
X311002D02*
D03*
X325002Y-629000D02*
D03*
X311002D02*
D03*
X251002Y-397000D02*
D03*
X237002D02*
D03*
X23998Y-49000D02*
D03*
X37998D02*
D03*
D40*
X220375Y23000D02*
D03*
D41*
X199625Y32500D02*
D03*
Y13500D02*
D03*
D42*
X193000Y-23998D02*
D03*
Y-9998D02*
D03*
X313131Y226003D02*
D03*
Y212003D02*
D03*
X326131Y212000D02*
D03*
Y226000D02*
D03*
X326000Y192002D02*
D03*
Y178002D02*
D03*
X313000Y192002D02*
D03*
Y178002D02*
D03*
X300000Y192002D02*
D03*
Y178002D02*
D03*
X287000Y192002D02*
D03*
Y178002D02*
D03*
X287131Y212000D02*
D03*
Y226000D02*
D03*
X300131Y212000D02*
D03*
Y226000D02*
D03*
X268000Y192002D02*
D03*
Y178002D02*
D03*
X140000Y-632998D02*
D03*
Y-618998D02*
D03*
X125000Y-632998D02*
D03*
Y-618998D02*
D03*
X-18496Y7996D02*
D03*
Y21996D02*
D03*
X-48496Y7996D02*
D03*
Y21996D02*
D03*
X-78496Y7996D02*
D03*
Y21996D02*
D03*
X-33496Y7996D02*
D03*
Y21996D02*
D03*
X-63496Y7996D02*
D03*
Y21996D02*
D03*
X-93496Y7996D02*
D03*
Y21996D02*
D03*
X-437000Y-564002D02*
D03*
Y-550002D02*
D03*
X-453000Y-549998D02*
D03*
Y-563998D02*
D03*
X-350000Y-502002D02*
D03*
Y-516002D02*
D03*
X107000Y13998D02*
D03*
Y27998D02*
D03*
X94000Y13998D02*
D03*
Y27998D02*
D03*
X133000Y13998D02*
D03*
Y27998D02*
D03*
X146000Y13998D02*
D03*
Y27998D02*
D03*
X185000Y13998D02*
D03*
Y27998D02*
D03*
X159000Y28002D02*
D03*
Y14002D02*
D03*
X172000Y28002D02*
D03*
Y14002D02*
D03*
X-254710Y-392248D02*
D03*
Y-406248D02*
D03*
X-240000Y-407002D02*
D03*
Y-393002D02*
D03*
X-212500Y-517002D02*
D03*
Y-503002D02*
D03*
X-227500Y-517002D02*
D03*
Y-503002D02*
D03*
X-242500Y-517002D02*
D03*
Y-503002D02*
D03*
X-257500Y-517002D02*
D03*
Y-503002D02*
D03*
X-185000Y-502998D02*
D03*
Y-516998D02*
D03*
X-197500Y-502998D02*
D03*
Y-516998D02*
D03*
X27000Y-414998D02*
D03*
Y-428998D02*
D03*
X40000Y-414998D02*
D03*
Y-428998D02*
D03*
X79000Y-414998D02*
D03*
Y-428998D02*
D03*
X53000Y-429002D02*
D03*
Y-415002D02*
D03*
X66000Y-429002D02*
D03*
Y-415002D02*
D03*
X47000Y-542002D02*
D03*
Y-528002D02*
D03*
X61000Y-542002D02*
D03*
Y-528002D02*
D03*
X210000Y-463998D02*
D03*
Y-477998D02*
D03*
X210000Y-429002D02*
D03*
Y-415002D02*
D03*
X278000Y-429002D02*
D03*
Y-415002D02*
D03*
Y-478002D02*
D03*
Y-464002D02*
D03*
X4000Y-93002D02*
D03*
Y-79002D02*
D03*
X20000Y-496998D02*
D03*
Y-510998D02*
D03*
X-216000Y-406002D02*
D03*
Y-392002D02*
D03*
X-191000Y-406002D02*
D03*
Y-392002D02*
D03*
X-271000Y-479002D02*
D03*
Y-465002D02*
D03*
X-83996Y-75002D02*
D03*
Y-89003D02*
D03*
X120000Y13998D02*
D03*
Y27998D02*
D03*
X507000Y204002D02*
D03*
Y218002D02*
D03*
D43*
X474750Y161500D02*
D03*
X715250D02*
D03*
X343655Y126600D02*
D03*
X253155D02*
D03*
D44*
X532500Y180500D02*
D03*
X542500D02*
D03*
X547500D02*
D03*
X562500D02*
D03*
X567500D02*
D03*
X582500D02*
D03*
X587500D02*
D03*
X602500D02*
D03*
X607500D02*
D03*
X622500D02*
D03*
X627500D02*
D03*
X652500D02*
D03*
X657500D02*
D03*
X662500D02*
D03*
X667500D02*
D03*
X672500D02*
D03*
X677500D02*
D03*
X682500D02*
D03*
X687500D02*
D03*
X692500D02*
D03*
X647500D02*
D03*
X642500D02*
D03*
X637500D02*
D03*
X632500D02*
D03*
X617500D02*
D03*
X612500D02*
D03*
X597500D02*
D03*
X592500D02*
D03*
X577500D02*
D03*
X572500D02*
D03*
X557500D02*
D03*
X552500D02*
D03*
X537500D02*
D03*
X527500D02*
D03*
X522500D02*
D03*
X517500D02*
D03*
X512500D02*
D03*
X507500D02*
D03*
X502500D02*
D03*
X497500D02*
D03*
X275905Y145600D02*
D03*
X280905D02*
D03*
X285905D02*
D03*
X320905D02*
D03*
X315905D02*
D03*
X310905D02*
D03*
X305905D02*
D03*
X300905D02*
D03*
X295905D02*
D03*
X290905D02*
D03*
D45*
X-452500Y-585000D02*
D03*
Y-675000D02*
D03*
X-407500Y-585000D02*
D03*
Y-675000D02*
D03*
D46*
X-70050Y-30500D02*
D03*
X-57350D02*
D03*
X-44650D02*
D03*
X-31950D02*
D03*
X-70050Y-79500D02*
D03*
X-57350D02*
D03*
X-44650D02*
D03*
X-31950D02*
D03*
X73050Y-501500D02*
D03*
X60350D02*
D03*
X47650D02*
D03*
X34950D02*
D03*
X73050Y-452500D02*
D03*
X60350D02*
D03*
X47650D02*
D03*
X34950D02*
D03*
X263050Y-469500D02*
D03*
X250350D02*
D03*
X237650D02*
D03*
X224950D02*
D03*
X263050Y-420500D02*
D03*
X250350D02*
D03*
X237650D02*
D03*
X224950D02*
D03*
D47*
X69200Y-10500D02*
D03*
X81900D02*
D03*
X94600D02*
D03*
X107300D02*
D03*
X120000D02*
D03*
X132700D02*
D03*
X145400D02*
D03*
X158100D02*
D03*
X170800D02*
D03*
X69200Y-101500D02*
D03*
X81900D02*
D03*
X94600D02*
D03*
X107300D02*
D03*
X120000D02*
D03*
X132700D02*
D03*
X145400D02*
D03*
X158100D02*
D03*
X170800D02*
D03*
D48*
X38001Y-88998D02*
D03*
X21999D02*
D03*
X38001Y-67002D02*
D03*
X21999D02*
D03*
D49*
X429002Y98000D02*
D03*
D50*
X436502Y106750D02*
D03*
X431502D02*
D03*
X426502D02*
D03*
X421502D02*
D03*
Y89250D02*
D03*
X426502D02*
D03*
X431502D02*
D03*
X436502D02*
D03*
D51*
X405502Y128000D02*
D03*
X378502D02*
D03*
D52*
X31505Y-572000D02*
D03*
X78495D02*
D03*
D53*
X231300Y-504500D02*
D03*
X256700D02*
D03*
X231300Y-579500D02*
D03*
X256700D02*
D03*
D54*
X186000Y-524505D02*
D03*
Y-571495D02*
D03*
X302000Y-524505D02*
D03*
Y-571495D02*
D03*
X121000D02*
D03*
Y-524505D02*
D03*
X-14000Y-571495D02*
D03*
Y-524505D02*
D03*
D55*
X-254450Y-426500D02*
D03*
X-241750D02*
D03*
X-229050D02*
D03*
X-216350D02*
D03*
X-203650D02*
D03*
X-190950D02*
D03*
X-178250D02*
D03*
X-165550D02*
D03*
X-254450Y-473500D02*
D03*
X-241750D02*
D03*
X-229050D02*
D03*
X-216350D02*
D03*
X-203650D02*
D03*
X-190950D02*
D03*
X-178250D02*
D03*
X-165550D02*
D03*
D56*
X-890400Y-549600D02*
D03*
X890400D02*
D03*
Y549600D02*
D03*
M02*
