G04*
G04 #@! TF.GenerationSoftware,Altium Limited,Altium Designer,19.1.8 (144)*
G04*
G04 Layer_Physical_Order=2*
G04 Layer_Color=16711680*
%FSLAX44Y44*%
%MOMM*%
G71*
G01*
G75*
%ADD10C,0.2500*%
%ADD11C,0.4500*%
%ADD23C,0.3500*%
%ADD24C,1.9000*%
%ADD25R,1.9000X1.9000*%
%ADD26C,6.0000*%
%ADD27C,1.6900*%
%ADD28R,1.6900X1.6900*%
%ADD29C,4.7600*%
%ADD30C,1.5000*%
%ADD31R,1.5000X1.5000*%
%ADD32C,0.6000*%
%ADD33R,0.9000X0.8000*%
%ADD34R,0.8000X0.9000*%
%ADD35R,1.2000X2.4000*%
%ADD36R,1.8034X1.0160*%
%ADD37R,1.8000X1.0000*%
%ADD38O,0.7000X2.5000*%
%ADD39R,0.3000X1.0000*%
%ADD40R,1.6500X1.3000*%
%ADD41R,0.3000X1.2000*%
G04:AMPARAMS|DCode=42|XSize=3mm|YSize=5mm|CornerRadius=0.75mm|HoleSize=0mm|Usage=FLASHONLY|Rotation=90.000|XOffset=0mm|YOffset=0mm|HoleType=Round|Shape=RoundedRectangle|*
%AMROUNDEDRECTD42*
21,1,3.0000,3.5000,0,0,90.0*
21,1,1.5000,5.0000,0,0,90.0*
1,1,1.5000,1.7500,0.7500*
1,1,1.5000,1.7500,-0.7500*
1,1,1.5000,-1.7500,-0.7500*
1,1,1.5000,-1.7500,0.7500*
%
%ADD42ROUNDEDRECTD42*%
%ADD43R,2.7000X4.1000*%
%ADD44O,0.6000X2.3000*%
%ADD45R,1.0160X1.8034*%
%ADD46R,1.0000X1.8000*%
%ADD47R,0.6500X0.9000*%
%ADD48R,0.6500X1.1000*%
%ADD49R,1.1498X1.3995*%
%ADD50R,0.5600X2.1500*%
G04:AMPARAMS|DCode=51|XSize=0.25mm|YSize=0.7mm|CornerRadius=0.0625mm|HoleSize=0mm|Usage=FLASHONLY|Rotation=270.000|XOffset=0mm|YOffset=0mm|HoleType=Round|Shape=RoundedRectangle|*
%AMROUNDEDRECTD51*
21,1,0.2500,0.5750,0,0,270.0*
21,1,0.1250,0.7000,0,0,270.0*
1,1,0.1250,-0.2875,-0.0625*
1,1,0.1250,-0.2875,0.0625*
1,1,0.1250,0.2875,0.0625*
1,1,0.1250,0.2875,-0.0625*
%
%ADD51ROUNDEDRECTD51*%
%ADD52R,2.6000X1.1000*%
%ADD53R,2.6162X2.7432*%
%ADD54R,1.2000X2.0000*%
%ADD55R,2.7432X2.6162*%
%ADD56R,7.3000X0.9500*%
%ADD57O,0.6000X1.9000*%
%ADD58C,1.0000*%
%ADD59C,0.8000*%
%ADD60C,0.5000*%
%ADD61C,2.5000*%
%ADD62C,0.2000*%
G36*
X902246Y700124D02*
X914020Y698730D01*
X925648Y696418D01*
X937058Y693199D01*
X948181Y689096D01*
X958948Y684133D01*
X969292Y678340D01*
X979149Y671753D01*
X988460Y664413D01*
X997166Y656366D01*
X1005213Y647660D01*
X1012553Y638349D01*
X1019140Y628492D01*
X1024932Y618148D01*
X1029896Y607381D01*
X1033999Y596258D01*
X1037218Y584848D01*
X1039530Y573220D01*
X1040924Y561446D01*
X1041374Y549992D01*
X1041322Y549600D01*
Y-549600D01*
X1041374Y-549992D01*
X1040924Y-561446D01*
X1039530Y-573220D01*
X1037218Y-584848D01*
X1033999Y-596258D01*
X1029896Y-607381D01*
X1024932Y-618148D01*
X1019140Y-628492D01*
X1012553Y-638349D01*
X1005213Y-647660D01*
X997166Y-656366D01*
X988460Y-664413D01*
X979149Y-671753D01*
X969292Y-678340D01*
X958948Y-684133D01*
X948181Y-689096D01*
X937058Y-693199D01*
X925648Y-696418D01*
X914020Y-698730D01*
X902246Y-700124D01*
X890792Y-700574D01*
X890400Y-700522D01*
X-890400D01*
X-890792Y-700574D01*
X-902246Y-700124D01*
X-914020Y-698730D01*
X-925648Y-696418D01*
X-937058Y-693199D01*
X-948181Y-689096D01*
X-958948Y-684133D01*
X-969292Y-678340D01*
X-979149Y-671753D01*
X-988460Y-664413D01*
X-997166Y-656366D01*
X-1005213Y-647660D01*
X-1012553Y-638349D01*
X-1019140Y-628492D01*
X-1024932Y-618148D01*
X-1029896Y-607381D01*
X-1033999Y-596258D01*
X-1037218Y-584848D01*
X-1039530Y-573220D01*
X-1040924Y-561446D01*
X-1041374Y-549992D01*
X-1041322Y-549600D01*
Y549600D01*
X-1041374Y549992D01*
X-1040924Y561446D01*
X-1039530Y573220D01*
X-1037218Y584848D01*
X-1033999Y596258D01*
X-1029896Y607381D01*
X-1024932Y618148D01*
X-1019140Y628492D01*
X-1012553Y638349D01*
X-1005213Y647660D01*
X-997166Y656366D01*
X-988460Y664413D01*
X-979149Y671753D01*
X-969292Y678340D01*
X-958948Y684133D01*
X-948181Y689096D01*
X-937058Y693199D01*
X-925648Y696418D01*
X-914020Y698730D01*
X-902246Y700124D01*
X-890792Y700574D01*
X-890400Y700522D01*
X890400D01*
X890792Y700574D01*
X902246Y700124D01*
D02*
G37*
%LPC*%
G36*
X892173Y567600D02*
X888627D01*
X885150Y566908D01*
X881874Y565551D01*
X878926Y563582D01*
X876419Y561074D01*
X874449Y558126D01*
X873092Y554850D01*
X872400Y551373D01*
Y547827D01*
X873092Y544350D01*
X874449Y541074D01*
X876419Y538126D01*
X878926Y535619D01*
X881874Y533649D01*
X885150Y532292D01*
X888627Y531600D01*
X892173D01*
X895650Y532292D01*
X898926Y533649D01*
X901874Y535619D01*
X904381Y538126D01*
X906351Y541074D01*
X907708Y544350D01*
X908400Y547827D01*
Y551373D01*
X907708Y554850D01*
X906351Y558126D01*
X904381Y561074D01*
X901874Y563582D01*
X898926Y565551D01*
X895650Y566908D01*
X892173Y567600D01*
D02*
G37*
G36*
X186879Y499117D02*
X180799D01*
Y489100D01*
X186879D01*
Y499117D01*
D02*
G37*
G36*
X175799D02*
X169719D01*
Y489100D01*
X175799D01*
Y499117D01*
D02*
G37*
G36*
X-448121D02*
X-454201D01*
Y489100D01*
X-448121D01*
Y499117D01*
D02*
G37*
G36*
X-459201D02*
X-465281D01*
Y489100D01*
X-459201D01*
Y499117D01*
D02*
G37*
G36*
X186879Y484100D02*
X180799D01*
Y474083D01*
X186879D01*
Y484100D01*
D02*
G37*
G36*
X175799D02*
X169719D01*
Y474083D01*
X175799D01*
Y484100D01*
D02*
G37*
G36*
X-448121D02*
X-454201D01*
Y474083D01*
X-448121D01*
Y484100D01*
D02*
G37*
G36*
X-459201D02*
X-465281D01*
Y474083D01*
X-459201D01*
Y484100D01*
D02*
G37*
G36*
X145000Y517082D02*
X142520Y516755D01*
X141482Y516325D01*
X-21280D01*
X-23565Y516025D01*
X-25693Y515143D01*
X-27521Y513741D01*
X-31142Y510120D01*
X-32545Y508292D01*
X-33426Y506163D01*
X-33727Y503879D01*
Y502117D01*
X-36481D01*
Y471083D01*
X-13321D01*
Y498675D01*
X-11081D01*
Y471083D01*
X-8826D01*
Y466000D01*
X-8525Y463716D01*
X-7643Y461587D01*
X-6241Y459759D01*
X2228Y451290D01*
X1743Y450117D01*
X-11081D01*
Y419083D01*
X4175D01*
Y416498D01*
X2000D01*
Y395498D01*
Y386400D01*
X1045Y385563D01*
X900Y385582D01*
X-1580Y385256D01*
X-3891Y384298D01*
X-5450Y383102D01*
X-7009Y384298D01*
X-9320Y385256D01*
X-11800Y385582D01*
X-14280Y385256D01*
X-16591Y384298D01*
X-18576Y382775D01*
X-20098Y380791D01*
X-21056Y378480D01*
X-21382Y376000D01*
Y359000D01*
X-21056Y356520D01*
X-20098Y354209D01*
X-18576Y352225D01*
X-16591Y350702D01*
X-14280Y349744D01*
X-11800Y349418D01*
X-9320Y349744D01*
X-7009Y350702D01*
X-5450Y351898D01*
X-3891Y350702D01*
X-1580Y349744D01*
X900Y349418D01*
X3380Y349744D01*
X5691Y350702D01*
X7250Y351898D01*
X8809Y350702D01*
X11120Y349744D01*
X13600Y349418D01*
X16080Y349744D01*
X18391Y350702D01*
X19950Y351898D01*
X21509Y350702D01*
X23820Y349744D01*
X26300Y349418D01*
X28780Y349744D01*
X31091Y350702D01*
X32650Y351898D01*
X34209Y350702D01*
X36520Y349744D01*
X39000Y349418D01*
X41480Y349744D01*
X43791Y350702D01*
X45350Y351898D01*
X46909Y350702D01*
X49220Y349744D01*
X51700Y349418D01*
X54180Y349744D01*
X56491Y350702D01*
X58050Y351898D01*
X59609Y350702D01*
X61920Y349744D01*
X64400Y349418D01*
X66880Y349744D01*
X69191Y350702D01*
X70750Y351898D01*
X72309Y350702D01*
X74620Y349744D01*
X77100Y349418D01*
X79580Y349744D01*
X79918Y349885D01*
X80975Y349179D01*
Y347516D01*
X80546Y346482D01*
X80220Y344002D01*
X80546Y341522D01*
X80975Y340488D01*
Y339200D01*
X81263Y337006D01*
X80546Y335275D01*
X80220Y332795D01*
X80546Y330315D01*
X81503Y328004D01*
X83026Y326020D01*
X85011Y324497D01*
X87322Y323540D01*
X89802Y323213D01*
X92282Y323540D01*
X94339Y324392D01*
X96002Y324173D01*
X101000D01*
Y322498D01*
X123000D01*
Y343498D01*
X120000D01*
Y348498D01*
X136000D01*
Y349550D01*
X137480Y349744D01*
X139791Y350702D01*
X141776Y352225D01*
X143298Y354209D01*
X144256Y356520D01*
X144582Y359000D01*
X144256Y361480D01*
X143782Y362623D01*
X144488Y363679D01*
X157000D01*
X159154Y363962D01*
X161161Y364794D01*
X162884Y366116D01*
X165384Y368616D01*
X166706Y370339D01*
X167538Y372346D01*
X167574Y372625D01*
X169250D01*
Y394625D01*
X159750D01*
Y416375D01*
X157042D01*
X155939Y417813D01*
X156022Y418304D01*
X156344Y419083D01*
X164479D01*
Y450117D01*
X141319D01*
Y422321D01*
X139079D01*
Y450117D01*
X115919D01*
Y419083D01*
X115919D01*
X116297Y417813D01*
X115744Y416480D01*
X115418Y414000D01*
X115744Y411520D01*
X116144Y410556D01*
X115438Y409500D01*
X114000D01*
Y399861D01*
X112861Y399299D01*
X112413Y399643D01*
X110284Y400525D01*
X108000Y400826D01*
X83000D01*
X80716Y400525D01*
X78587Y399643D01*
X77270Y398632D01*
X76000Y399259D01*
Y402498D01*
Y416498D01*
X73694D01*
Y419083D01*
X88279D01*
Y450117D01*
X73548D01*
X73393Y451289D01*
X72512Y453418D01*
X71109Y455246D01*
X65114Y461241D01*
X63286Y462643D01*
X61158Y463525D01*
X58874Y463825D01*
X32500D01*
X30216Y463525D01*
X28087Y462643D01*
X26259Y461241D01*
X22139Y457120D01*
X20643Y457413D01*
X19241Y459241D01*
X8826Y469656D01*
Y471083D01*
X12079D01*
Y498675D01*
X14319D01*
Y471083D01*
X37479D01*
Y498675D01*
X39719D01*
Y471083D01*
X62879D01*
Y498675D01*
X65119D01*
Y471083D01*
X66539D01*
X66744Y469520D01*
X67702Y467209D01*
X69225Y465224D01*
X71209Y463702D01*
X73520Y462744D01*
X76000Y462418D01*
X78480Y462744D01*
X80791Y463702D01*
X82775Y465224D01*
X84298Y467209D01*
X85255Y469520D01*
X85461Y471083D01*
X88279D01*
Y498675D01*
X90519D01*
Y471083D01*
X113679D01*
Y498675D01*
X115919D01*
Y471083D01*
X139079D01*
Y498675D01*
X141319D01*
Y471083D01*
X164479D01*
Y502117D01*
X154366D01*
X153579Y503387D01*
X154256Y505020D01*
X154582Y507500D01*
X154256Y509980D01*
X153298Y512291D01*
X151776Y514276D01*
X149791Y515798D01*
X147480Y516755D01*
X145000Y517082D01*
D02*
G37*
G36*
X-38721Y502117D02*
X-61881D01*
Y471083D01*
X-38721D01*
Y502117D01*
D02*
G37*
G36*
X-64121D02*
X-87281D01*
Y471083D01*
X-64121D01*
Y502117D01*
D02*
G37*
G36*
X-89521D02*
X-112681D01*
Y471083D01*
X-89521D01*
Y502117D01*
D02*
G37*
G36*
X-140321D02*
X-163481D01*
Y471083D01*
X-140321D01*
Y502117D01*
D02*
G37*
G36*
X-165721D02*
X-188881D01*
Y471083D01*
X-165721D01*
Y502117D01*
D02*
G37*
G36*
X-191121D02*
X-214281D01*
Y471083D01*
X-191121D01*
Y502117D01*
D02*
G37*
G36*
X-216521D02*
X-239681D01*
Y471083D01*
X-216521D01*
Y502117D01*
D02*
G37*
G36*
X-241921D02*
X-265081D01*
Y471083D01*
X-241921D01*
Y502117D01*
D02*
G37*
G36*
X-267321D02*
X-290481D01*
Y471083D01*
X-267321D01*
Y502117D01*
D02*
G37*
G36*
X-292721D02*
X-315881D01*
Y471083D01*
X-292721D01*
Y502117D01*
D02*
G37*
G36*
X-318121D02*
X-341281D01*
Y471083D01*
X-318121D01*
Y502117D01*
D02*
G37*
G36*
X-343521D02*
X-366681D01*
Y471083D01*
X-343521D01*
Y502117D01*
D02*
G37*
G36*
X-368921D02*
X-392081D01*
Y471083D01*
X-368921D01*
Y502117D01*
D02*
G37*
G36*
X-394321D02*
X-417481D01*
Y471083D01*
X-394321D01*
Y502117D01*
D02*
G37*
G36*
X-419721D02*
X-442881D01*
Y471083D01*
X-419721D01*
Y502117D01*
D02*
G37*
G36*
X-394321Y450117D02*
X-417481D01*
Y421636D01*
X-418537Y420931D01*
X-419259Y421230D01*
X-419721Y421291D01*
Y450117D01*
X-442881D01*
Y421172D01*
X-444145Y420648D01*
X-445201Y421354D01*
Y450100D01*
X-468201D01*
Y419100D01*
X-448620D01*
X-447994Y417830D01*
X-449172Y416295D01*
X-450230Y413741D01*
X-450591Y411000D01*
X-450230Y408259D01*
X-449172Y405705D01*
X-447489Y403511D01*
X-445295Y401828D01*
X-442741Y400770D01*
X-440000Y400409D01*
X-422000D01*
X-419259Y400770D01*
X-416705Y401828D01*
X-414511Y403511D01*
X-412828Y405705D01*
X-411770Y408259D01*
X-411409Y411000D01*
X-411770Y413741D01*
X-412828Y416295D01*
X-413993Y417813D01*
X-413367Y419083D01*
X-394321D01*
Y450117D01*
D02*
G37*
G36*
X189879D02*
X166719D01*
Y419083D01*
X189879D01*
Y450117D01*
D02*
G37*
G36*
X113679D02*
X90519D01*
Y419083D01*
X113679D01*
Y450117D01*
D02*
G37*
G36*
X-13321D02*
X-36481D01*
Y419083D01*
X-13321D01*
Y450117D01*
D02*
G37*
G36*
X-38721D02*
X-61881D01*
Y419083D01*
X-38721D01*
Y450117D01*
D02*
G37*
G36*
X-140321D02*
X-163481D01*
Y419083D01*
X-140321D01*
Y450117D01*
D02*
G37*
G36*
X-165721D02*
X-188881D01*
Y419083D01*
X-165721D01*
Y450117D01*
D02*
G37*
G36*
X-191121D02*
X-214281D01*
Y419083D01*
X-191121D01*
Y450117D01*
D02*
G37*
G36*
X-216521D02*
X-239681D01*
Y419083D01*
X-216521D01*
Y450117D01*
D02*
G37*
G36*
X-241921D02*
X-265081D01*
Y419083D01*
X-241921D01*
Y450117D01*
D02*
G37*
G36*
X-267321D02*
X-290481D01*
Y419083D01*
X-267321D01*
Y450117D01*
D02*
G37*
G36*
X-292721D02*
X-315881D01*
Y419083D01*
X-292721D01*
Y450117D01*
D02*
G37*
G36*
X-318121D02*
X-341281D01*
Y419083D01*
X-318121D01*
Y450117D01*
D02*
G37*
G36*
X-343521D02*
X-366681D01*
Y419083D01*
X-343521D01*
Y450117D01*
D02*
G37*
G36*
X-368921D02*
X-392081D01*
Y419083D01*
X-368921D01*
Y450117D01*
D02*
G37*
G36*
X-504082Y434182D02*
X-535116D01*
Y411022D01*
X-504082D01*
Y434182D01*
D02*
G37*
G36*
X-556082D02*
X-587116D01*
Y411022D01*
X-556082D01*
Y434182D01*
D02*
G37*
G36*
X-504082Y408782D02*
X-535116D01*
Y385622D01*
X-504082D01*
Y408782D01*
D02*
G37*
G36*
X-556082D02*
X-587116D01*
Y385622D01*
X-556082D01*
Y408782D01*
D02*
G37*
G36*
X-504082Y383382D02*
X-535116D01*
Y360222D01*
X-504082D01*
Y383382D01*
D02*
G37*
G36*
X-556082D02*
X-587116D01*
Y360222D01*
X-556082D01*
Y383382D01*
D02*
G37*
G36*
X-504082Y357982D02*
X-535116D01*
Y334822D01*
X-504082D01*
Y357982D01*
D02*
G37*
G36*
X-556082D02*
X-587116D01*
Y334822D01*
X-556082D01*
Y357982D01*
D02*
G37*
G36*
X-59502Y337000D02*
X-64502D01*
Y331500D01*
X-59502D01*
Y337000D01*
D02*
G37*
G36*
X-507082Y329582D02*
X-517099D01*
Y323502D01*
X-507082D01*
Y329582D01*
D02*
G37*
G36*
X-522099D02*
X-532116D01*
Y323502D01*
X-522099D01*
Y329582D01*
D02*
G37*
G36*
X-559082D02*
X-569099D01*
Y323502D01*
X-559082D01*
Y329582D01*
D02*
G37*
G36*
X-574099D02*
X-584116D01*
Y323502D01*
X-574099D01*
Y329582D01*
D02*
G37*
G36*
X-507082Y318502D02*
X-517099D01*
Y312422D01*
X-507082D01*
Y318502D01*
D02*
G37*
G36*
X-522099D02*
X-532116D01*
Y312422D01*
X-522099D01*
Y318502D01*
D02*
G37*
G36*
X-559082Y318501D02*
X-569099D01*
Y312422D01*
X-559082D01*
Y318501D01*
D02*
G37*
G36*
X-574099D02*
X-584116D01*
Y312422D01*
X-574099D01*
Y318501D01*
D02*
G37*
G36*
X-79500Y306498D02*
X-85000D01*
Y301498D01*
X-79500D01*
Y306498D01*
D02*
G37*
G36*
X-556082Y307182D02*
X-587116D01*
Y284022D01*
X-556082D01*
Y307182D01*
D02*
G37*
G36*
X-504082D02*
X-535116D01*
Y284022D01*
X-507645D01*
X-506808Y283067D01*
X-506817Y283000D01*
Y281782D01*
X-535116D01*
Y265817D01*
X-556082D01*
Y281782D01*
X-587116D01*
Y278018D01*
X-591798D01*
X-591798Y278018D01*
X-593821Y277752D01*
X-595707Y276971D01*
X-597326Y275729D01*
X-599527Y273527D01*
X-600770Y271908D01*
X-601227Y270804D01*
X-601550Y270023D01*
X-601817Y268000D01*
Y260000D01*
X-601550Y257977D01*
X-601227Y257196D01*
X-600770Y256091D01*
X-599527Y254473D01*
X-597527Y252473D01*
X-597057Y252112D01*
Y250842D01*
X-597726Y250329D01*
X-599527Y248527D01*
X-600770Y246908D01*
X-601550Y245023D01*
X-601817Y243000D01*
Y234000D01*
X-601550Y231977D01*
X-601227Y231196D01*
X-600770Y230091D01*
X-599527Y228473D01*
X-597527Y226473D01*
X-595909Y225230D01*
X-594023Y224449D01*
X-592000Y224183D01*
X-587116D01*
Y207822D01*
X-578837D01*
X-578369Y206691D01*
X-577127Y205072D01*
X-575810Y203755D01*
X-576296Y202582D01*
X-584116D01*
Y196502D01*
X-571599D01*
X-559082D01*
Y198183D01*
X-532116D01*
Y196502D01*
X-519599D01*
Y194002D01*
X-517099D01*
Y185422D01*
X-507082D01*
Y189368D01*
X-505909Y189854D01*
X-503527Y187473D01*
X-501908Y186230D01*
X-500023Y185449D01*
X-498000Y185183D01*
X-485567D01*
Y182375D01*
X-485301Y180352D01*
X-484520Y178466D01*
X-483277Y176848D01*
X-481902Y175473D01*
X-480284Y174230D01*
X-478398Y173449D01*
X-476375Y173183D01*
X-473625D01*
X-471602Y173449D01*
X-470821Y173773D01*
X-469717Y174230D01*
X-469500Y174396D01*
X-469283Y174230D01*
X-467398Y173449D01*
X-465375Y173183D01*
X-462625D01*
X-460602Y173449D01*
X-459821Y173773D01*
X-458717Y174230D01*
X-457098Y175473D01*
X-455723Y176848D01*
X-454480Y178466D01*
X-453699Y180352D01*
X-453433Y182375D01*
Y185183D01*
X-438426D01*
X-436403Y185449D01*
X-435622Y185773D01*
X-434518Y186230D01*
X-432899Y187473D01*
X-431473Y188899D01*
X-430230Y190518D01*
X-429450Y192403D01*
X-429183Y194426D01*
Y201582D01*
X-428702Y202209D01*
X-427744Y204520D01*
X-427418Y207000D01*
X-427595Y208348D01*
X-426717Y209744D01*
X-424406Y210702D01*
X-422421Y212225D01*
X-420899Y214209D01*
X-419941Y216520D01*
X-419615Y219000D01*
X-419941Y221480D01*
X-420899Y223791D01*
X-422421Y225775D01*
X-424406Y227298D01*
X-426717Y228255D01*
X-429197Y228582D01*
X-431677Y228255D01*
X-433988Y227298D01*
X-434615Y226817D01*
X-442307D01*
X-443013Y227873D01*
X-442744Y228520D01*
X-442645Y229275D01*
X-441602Y229412D01*
X-440821Y229736D01*
X-439717Y230193D01*
X-438098Y231436D01*
X-436723Y232811D01*
X-435480Y234430D01*
X-435209Y235086D01*
X-433703Y235837D01*
X-433480Y235744D01*
X-431000Y235418D01*
X-428520Y235744D01*
X-426209Y236702D01*
X-424225Y238225D01*
X-422702Y240209D01*
X-421744Y242520D01*
X-421418Y245000D01*
X-421744Y247480D01*
X-422702Y249791D01*
X-424225Y251775D01*
X-426209Y253298D01*
X-428520Y254256D01*
X-431000Y254582D01*
X-433480Y254256D01*
X-435791Y253298D01*
X-436418Y252817D01*
X-439250D01*
X-439933Y253416D01*
Y255583D01*
X-440200Y257606D01*
X-440946Y259408D01*
X-440986Y259692D01*
X-440721Y260333D01*
X-440384Y260801D01*
X-438209Y261702D01*
X-436225Y263225D01*
X-434702Y265209D01*
X-433745Y267520D01*
X-433418Y270000D01*
X-433745Y272480D01*
X-434702Y274791D01*
X-435183Y275418D01*
Y283000D01*
X-435449Y285023D01*
X-436230Y286908D01*
X-437473Y288527D01*
X-440473Y291527D01*
X-442091Y292770D01*
X-443196Y293227D01*
X-443977Y293550D01*
X-446000Y293817D01*
X-451933D01*
Y296625D01*
X-452200Y298648D01*
X-452980Y300533D01*
X-454223Y302152D01*
X-455598Y303527D01*
X-457217Y304770D01*
X-458321Y305227D01*
X-459102Y305550D01*
X-461125Y305817D01*
X-463875D01*
X-465898Y305550D01*
X-467784Y304770D01*
X-468000Y304603D01*
X-468217Y304770D01*
X-469321Y305227D01*
X-470102Y305550D01*
X-472125Y305817D01*
X-474875D01*
X-476898Y305550D01*
X-478783Y304770D01*
X-479000Y304603D01*
X-479217Y304770D01*
X-480321Y305227D01*
X-481102Y305550D01*
X-483125Y305817D01*
X-485875D01*
X-487898Y305550D01*
X-489784Y304770D01*
X-491402Y303527D01*
X-492777Y302152D01*
X-494020Y300533D01*
X-494801Y298648D01*
X-495067Y296625D01*
Y293817D01*
X-496000D01*
X-498023Y293550D01*
X-499908Y292770D01*
X-501527Y291527D01*
X-502909Y290146D01*
X-504082Y290632D01*
Y307182D01*
D02*
G37*
G36*
X-32502Y340000D02*
X-53502D01*
Y337000D01*
X-54502D01*
Y329000D01*
X-57002D01*
Y326500D01*
X-64502D01*
Y321496D01*
X-68250D01*
Y313498D01*
X-59001D01*
Y308498D01*
X-68250D01*
Y307458D01*
X-69000Y306498D01*
X-74500D01*
Y298998D01*
X-77000D01*
Y296498D01*
X-85000D01*
Y295498D01*
X-88000D01*
Y274498D01*
X-67322D01*
Y274001D01*
X-67039Y271847D01*
X-66207Y269840D01*
X-64885Y268117D01*
X-60384Y263616D01*
X-58661Y262294D01*
X-56654Y261462D01*
X-54500Y261179D01*
X-28500D01*
X-26346Y261462D01*
X-24339Y262294D01*
X-22616Y263616D01*
X-19474Y266758D01*
X-18259Y266426D01*
X-18136Y266327D01*
X-18133Y266303D01*
X-17478Y264722D01*
X-16436Y263364D01*
X-15078Y262322D01*
X-14300Y262000D01*
Y276500D01*
X-9300D01*
Y262000D01*
X-8522Y262322D01*
X-8099Y262647D01*
X-6840Y262481D01*
X-5875Y261224D01*
X-3891Y259702D01*
X-1580Y258745D01*
X900Y258418D01*
X3380Y258745D01*
X5691Y259702D01*
X7250Y260898D01*
X8809Y259702D01*
X11120Y258745D01*
X13600Y258418D01*
X16080Y258745D01*
X18391Y259702D01*
X19950Y260898D01*
X21509Y259702D01*
X23820Y258745D01*
X26300Y258418D01*
X28780Y258745D01*
X31091Y259702D01*
X32650Y260898D01*
X34209Y259702D01*
X36520Y258745D01*
X39000Y258418D01*
X41480Y258745D01*
X43791Y259702D01*
X45350Y260898D01*
X46909Y259702D01*
X49220Y258745D01*
X51700Y258418D01*
X54180Y258745D01*
X56491Y259702D01*
X58050Y260898D01*
X59609Y259702D01*
X61920Y258745D01*
X64400Y258418D01*
X66880Y258745D01*
X67218Y258885D01*
X68274Y258179D01*
Y246375D01*
X67320Y245538D01*
X66998Y245580D01*
X64518Y245254D01*
X62207Y244296D01*
X62000Y244138D01*
X61791Y244298D01*
X59480Y245256D01*
X57000Y245582D01*
X54520Y245256D01*
X52209Y244298D01*
X50224Y242775D01*
X48702Y240791D01*
X47744Y238480D01*
X47418Y236000D01*
X47744Y233520D01*
X48175Y232482D01*
Y220000D01*
X48475Y217716D01*
X49357Y215587D01*
X50759Y213759D01*
X181306Y83213D01*
X181306Y-209083D01*
X166722D01*
Y-239620D01*
X165602Y-240109D01*
X164482Y-239620D01*
Y-238904D01*
Y-209083D01*
X141322D01*
X141322Y-239620D01*
X140202Y-240109D01*
X139082Y-239620D01*
Y-238904D01*
Y-209083D01*
X135823D01*
Y-206502D01*
X135540Y-204348D01*
X134708Y-202341D01*
X133386Y-200618D01*
X132367Y-199599D01*
Y-194080D01*
X132781Y-193541D01*
X133788Y-191108D01*
X134132Y-188498D01*
Y-170497D01*
X133788Y-167887D01*
X132781Y-165454D01*
X131178Y-163365D01*
X129089Y-161763D01*
X126656Y-160755D01*
X124046Y-160411D01*
X121435Y-160755D01*
X119003Y-161763D01*
X117696Y-162765D01*
X116389Y-161763D01*
X113956Y-160755D01*
X111346Y-160411D01*
X108735Y-160755D01*
X106303Y-161763D01*
X104214Y-163365D01*
X102967Y-164990D01*
X102176Y-164383D01*
X101146Y-163956D01*
Y-179498D01*
Y-195039D01*
X101575Y-194861D01*
X102295Y-195938D01*
X96218Y-202014D01*
X94895Y-203738D01*
X94064Y-205744D01*
X93781Y-207898D01*
Y-209083D01*
X90522D01*
Y-240117D01*
X113682D01*
Y-209083D01*
X113682D01*
X113390Y-208378D01*
X115364Y-206404D01*
X116610Y-206652D01*
X116839Y-207206D01*
X117305Y-207813D01*
X116679Y-209083D01*
X115922D01*
Y-240117D01*
X130262D01*
X130561Y-241258D01*
X130548Y-241387D01*
X128759Y-242759D01*
X121261Y-250258D01*
X119859Y-252085D01*
X118977Y-254214D01*
X118676Y-256498D01*
Y-261083D01*
X115922D01*
Y-292117D01*
X139082D01*
Y-261083D01*
X137150D01*
X136668Y-259813D01*
X138656Y-257826D01*
X145085D01*
X145711Y-259095D01*
X145259Y-259685D01*
X144680Y-261083D01*
X141322D01*
Y-292117D01*
X164482D01*
Y-266826D01*
X166722D01*
Y-292117D01*
X189882D01*
Y-266826D01*
X191000D01*
X193284Y-266525D01*
X195413Y-265643D01*
X197241Y-264241D01*
X200001Y-261480D01*
X201175Y-261966D01*
X201175Y-327500D01*
Y-404502D01*
X199000D01*
Y-425502D01*
Y-439502D01*
X221000D01*
Y-439502D01*
X221752Y-438999D01*
X222339Y-439243D01*
X224950Y-439586D01*
X227561Y-439243D01*
X229993Y-438235D01*
X232082Y-436632D01*
X233329Y-435008D01*
X234120Y-435615D01*
X235150Y-436041D01*
Y-420500D01*
X240150D01*
Y-436041D01*
X240270Y-435992D01*
X241433Y-436884D01*
X241418Y-437000D01*
X241744Y-439480D01*
X242702Y-441791D01*
X244224Y-443775D01*
X246209Y-445298D01*
X248520Y-446255D01*
X251000Y-446582D01*
X253480Y-446255D01*
X255791Y-445298D01*
X257775Y-443775D01*
X259298Y-441791D01*
X260256Y-439480D01*
X261549Y-439389D01*
X263050Y-439586D01*
X265661Y-439243D01*
X266248Y-438999D01*
X267000Y-439502D01*
Y-439502D01*
X289000D01*
Y-425502D01*
Y-404502D01*
X287516D01*
X287255Y-402520D01*
X286298Y-400209D01*
X284776Y-398224D01*
X282791Y-396702D01*
X280480Y-395745D01*
X278000Y-395418D01*
X275520Y-395745D01*
X273209Y-396702D01*
X271224Y-398224D01*
X269702Y-400209D01*
X269014Y-401870D01*
X268350Y-402515D01*
X267465Y-402505D01*
X265661Y-401757D01*
X263050Y-401414D01*
X262456Y-401492D01*
X261502Y-400654D01*
Y-386000D01*
X240502D01*
Y-389000D01*
X239502D01*
Y-397000D01*
X234502D01*
Y-389000D01*
X229825D01*
Y-314000D01*
X229825Y-92500D01*
Y102000D01*
X229525Y104284D01*
X228643Y106413D01*
X227241Y108241D01*
X98625Y236856D01*
Y264482D01*
X99056Y265520D01*
X99382Y268000D01*
Y285000D01*
X99056Y287480D01*
X98098Y289791D01*
X96575Y291775D01*
X94591Y293298D01*
X92280Y294256D01*
X89800Y294582D01*
X87320Y294256D01*
X85009Y293298D01*
X83450Y292102D01*
X81891Y293298D01*
X79580Y294256D01*
X77100Y294582D01*
X74620Y294256D01*
X72309Y293298D01*
X70750Y292102D01*
X69191Y293298D01*
X66880Y294256D01*
X64400Y294582D01*
X61920Y294256D01*
X59609Y293298D01*
X58050Y292102D01*
X56491Y293298D01*
X54180Y294256D01*
X51700Y294582D01*
X49220Y294256D01*
X46909Y293298D01*
X45350Y292102D01*
X43791Y293298D01*
X41480Y294256D01*
X39000Y294582D01*
X36520Y294256D01*
X34209Y293298D01*
X32650Y292102D01*
X31091Y293298D01*
X28780Y294256D01*
X26300Y294582D01*
X23820Y294256D01*
X22751Y293813D01*
X21903Y294303D01*
X21577Y294701D01*
X20806Y296560D01*
X19484Y298284D01*
X886Y316882D01*
X-838Y318204D01*
X-2844Y319036D01*
X-4998Y319319D01*
X-30750D01*
Y324496D01*
X-32502D01*
Y340000D01*
D02*
G37*
G36*
X300000Y243582D02*
X297520Y243256D01*
X295209Y242298D01*
X293500Y240987D01*
X291791Y242298D01*
X289480Y243256D01*
X287000Y243582D01*
X284520Y243256D01*
X282209Y242298D01*
X280224Y240776D01*
X278702Y238791D01*
X277745Y236480D01*
X277615Y235498D01*
X276000D01*
Y214498D01*
Y200772D01*
X276000Y200498D01*
X275340Y199502D01*
X270500D01*
Y192002D01*
X268000D01*
Y189502D01*
X260000D01*
Y188502D01*
X257000D01*
Y167502D01*
X260183D01*
Y164000D01*
X260450Y161977D01*
X260773Y161196D01*
X261230Y160092D01*
X262473Y158473D01*
X267904Y153041D01*
Y134100D01*
X328904D01*
Y157100D01*
X325814D01*
X325328Y158273D01*
X331527Y164473D01*
X332770Y166092D01*
X333354Y167502D01*
X337000D01*
Y181502D01*
Y202502D01*
X335516D01*
X335256Y204480D01*
X334298Y206791D01*
X332775Y208776D01*
X330791Y210298D01*
X328480Y211255D01*
X326000Y211582D01*
X323520Y211255D01*
X321209Y210298D01*
X319500Y208987D01*
X317791Y210298D01*
X315480Y211255D01*
X313000Y211582D01*
X311955Y211444D01*
X311000Y212282D01*
Y214498D01*
Y235498D01*
X309385D01*
X309256Y236480D01*
X308298Y238791D01*
X306775Y240776D01*
X304791Y242298D01*
X302480Y243256D01*
X300000Y243582D01*
D02*
G37*
G36*
X528000Y222002D02*
X522500D01*
Y217002D01*
X528000D01*
Y222002D01*
D02*
G37*
G36*
X517500D02*
X512000D01*
Y217002D01*
X517500D01*
Y222002D01*
D02*
G37*
G36*
X265500Y199502D02*
X260000D01*
Y194502D01*
X265500D01*
Y199502D01*
D02*
G37*
G36*
X-522099Y191502D02*
X-532116D01*
Y185422D01*
X-522099D01*
Y191502D01*
D02*
G37*
G36*
X-559082Y191502D02*
X-569099D01*
Y185422D01*
X-559082D01*
Y191502D01*
D02*
G37*
G36*
X-574099D02*
X-584116D01*
Y185422D01*
X-574099D01*
Y191502D01*
D02*
G37*
G36*
X-504082Y180182D02*
X-535116D01*
Y159848D01*
X-537623D01*
X-538209Y160298D01*
X-540520Y161255D01*
X-543000Y161582D01*
X-545480Y161255D01*
X-547791Y160298D01*
X-549776Y158776D01*
X-551298Y156791D01*
X-552256Y154480D01*
X-552582Y152000D01*
X-552256Y149520D01*
X-551298Y147209D01*
X-549776Y145225D01*
X-547791Y143702D01*
X-545480Y142745D01*
X-543000Y142418D01*
X-540520Y142745D01*
X-538209Y143702D01*
X-537541Y144215D01*
X-535116D01*
Y131622D01*
X-504082D01*
Y133467D01*
X-503026Y134172D01*
X-502480Y133946D01*
X-500000Y133620D01*
X-497520Y133946D01*
X-497321Y134029D01*
X-496521Y132985D01*
X-497020Y132335D01*
X-497801Y130450D01*
X-498067Y128427D01*
Y125618D01*
X-504082D01*
Y129382D01*
X-535116D01*
Y117231D01*
X-536290Y116745D01*
X-556082Y136538D01*
Y154782D01*
X-587116D01*
Y131622D01*
X-573276D01*
X-572209Y130555D01*
X-572695Y129382D01*
X-587116D01*
Y106222D01*
X-562170D01*
X-561690Y105067D01*
X-562328Y103982D01*
X-587116D01*
Y100218D01*
X-594598D01*
X-596622Y99952D01*
X-598507Y99171D01*
X-600126Y97929D01*
X-603527Y94527D01*
X-604770Y92908D01*
X-605227Y91804D01*
X-605550Y91023D01*
X-605817Y89000D01*
Y81000D01*
X-605550Y78977D01*
X-605227Y78196D01*
X-604770Y77091D01*
X-603527Y75473D01*
X-598777Y70723D01*
X-597158Y69480D01*
X-595273Y68699D01*
X-593250Y68433D01*
X-584116D01*
Y58422D01*
X-574099D01*
Y67002D01*
X-569099D01*
Y58422D01*
X-559082D01*
Y68433D01*
X-532116D01*
Y58422D01*
X-522099D01*
Y67002D01*
X-517099D01*
Y58422D01*
X-507082D01*
Y68433D01*
X-505356D01*
X-504519Y67478D01*
X-504582Y67000D01*
X-504255Y64520D01*
X-503298Y62209D01*
X-501776Y60224D01*
X-501007Y59635D01*
Y58365D01*
X-501776Y57775D01*
X-503298Y55791D01*
X-503845Y54471D01*
X-505480Y54255D01*
X-507791Y53298D01*
X-507943Y53182D01*
X-535116D01*
Y30022D01*
X-506067D01*
Y27782D01*
X-535116D01*
Y22647D01*
X-536071Y21810D01*
X-536125Y21817D01*
X-538875D01*
X-540898Y21551D01*
X-542784Y20770D01*
X-543000Y20603D01*
X-543217Y20770D01*
X-545102Y21551D01*
X-547125Y21817D01*
X-549875D01*
X-551898Y21551D01*
X-553783Y20770D01*
X-554812Y19980D01*
X-556082Y20606D01*
Y27782D01*
X-587116D01*
Y24018D01*
X-600798D01*
X-602822Y23752D01*
X-603602Y23429D01*
X-604707Y22971D01*
X-606326Y21729D01*
X-607527Y20527D01*
X-608770Y18908D01*
X-609551Y17023D01*
X-609817Y15000D01*
Y2000D01*
X-609551Y-23D01*
X-608770Y-1909D01*
X-607527Y-3527D01*
X-606527Y-4527D01*
X-606469Y-5415D01*
X-606527Y-5473D01*
X-607770Y-7092D01*
X-608550Y-8977D01*
X-608817Y-11000D01*
Y-21000D01*
X-608550Y-23023D01*
X-608227Y-23804D01*
X-607770Y-24908D01*
X-606527Y-26527D01*
X-604527Y-28527D01*
X-602908Y-29770D01*
X-601023Y-30551D01*
X-599000Y-30817D01*
X-587116D01*
Y-46178D01*
X-556082D01*
Y-42786D01*
X-554812Y-42515D01*
X-553791Y-43298D01*
X-551480Y-44255D01*
X-549000Y-44582D01*
X-546520Y-44255D01*
X-544209Y-43298D01*
X-542225Y-41775D01*
X-540702Y-39791D01*
X-539744Y-37480D01*
X-539418Y-35000D01*
X-539744Y-32520D01*
X-540013Y-31873D01*
X-539307Y-30817D01*
X-535116D01*
Y-46178D01*
X-504082D01*
Y-42415D01*
X-498944D01*
X-497792Y-43299D01*
X-495481Y-44257D01*
X-493001Y-44583D01*
X-490521Y-44257D01*
X-488210Y-43299D01*
X-486240Y-41788D01*
X-484398Y-42551D01*
X-482375Y-42817D01*
X-479625D01*
X-478702Y-43871D01*
X-478550Y-45023D01*
X-478227Y-45804D01*
X-477770Y-46908D01*
X-476527Y-48527D01*
X-475527Y-49527D01*
X-473908Y-50770D01*
X-472023Y-51550D01*
X-471012Y-51684D01*
X-470000Y-51817D01*
X-470000Y-51817D01*
X-463052D01*
X-462027Y-53152D01*
X-460652Y-54527D01*
X-459033Y-55770D01*
X-457148Y-56551D01*
X-455125Y-56817D01*
X-452375D01*
X-450352Y-56551D01*
X-449571Y-56227D01*
X-448466Y-55770D01*
X-446848Y-54527D01*
X-445473Y-53152D01*
X-444230Y-51533D01*
X-443449Y-49648D01*
X-443340Y-48817D01*
X-433000D01*
X-430977Y-48551D01*
X-429091Y-47770D01*
X-427473Y-46527D01*
X-426473Y-45527D01*
X-425230Y-43908D01*
X-424450Y-42023D01*
X-424183Y-40000D01*
X-424183Y-40000D01*
Y-24750D01*
X-424450Y-22727D01*
X-425230Y-20842D01*
X-426473Y-19223D01*
X-428442Y-17253D01*
X-427723Y-16177D01*
X-427398Y-16311D01*
X-425375Y-16577D01*
X-422625D01*
X-420602Y-16311D01*
X-419821Y-15987D01*
X-418717Y-15530D01*
X-418500Y-15364D01*
X-418284Y-15530D01*
X-416398Y-16311D01*
X-414375Y-16577D01*
X-411625D01*
X-409602Y-16311D01*
X-408821Y-15987D01*
X-407717Y-15530D01*
X-407500Y-15364D01*
X-407284Y-15530D01*
X-405398Y-16311D01*
X-403375Y-16577D01*
X-400625D01*
X-398602Y-16311D01*
X-397821Y-15987D01*
X-396717Y-15530D01*
X-395098Y-14288D01*
X-393723Y-12913D01*
X-392481Y-11294D01*
X-391700Y-9409D01*
X-391433Y-7385D01*
Y17933D01*
X-346750D01*
X-344727Y18199D01*
X-342842Y18980D01*
X-341223Y20222D01*
X-333304Y28141D01*
X-332520Y28245D01*
X-330209Y29202D01*
X-328224Y30724D01*
X-326702Y32709D01*
X-325745Y35020D01*
X-325418Y37500D01*
X-325745Y39980D01*
X-326702Y42291D01*
X-327317Y43092D01*
X-326990Y44753D01*
X-325724Y45725D01*
X-324202Y47709D01*
X-323245Y50020D01*
X-322918Y52500D01*
X-323245Y54980D01*
X-324202Y57291D01*
X-325724Y59275D01*
X-327709Y60798D01*
X-330020Y61755D01*
X-332500Y62082D01*
X-334980Y61755D01*
X-336771Y61014D01*
X-338131Y61618D01*
X-338245Y62480D01*
X-339202Y64791D01*
X-340724Y66775D01*
X-342709Y68298D01*
X-345020Y69255D01*
X-347500Y69582D01*
X-349222Y69355D01*
X-350258Y69914D01*
X-350474Y70426D01*
X-350745Y72480D01*
X-351702Y74791D01*
X-353224Y76775D01*
X-355209Y78298D01*
X-357520Y79255D01*
X-360000Y79582D01*
X-362480Y79255D01*
X-363663Y78765D01*
X-364933Y79614D01*
Y101512D01*
X-363304Y103141D01*
X-362520Y103244D01*
X-360209Y104202D01*
X-358224Y105724D01*
X-356702Y107709D01*
X-355745Y110020D01*
X-355418Y112500D01*
X-355745Y114980D01*
X-356702Y117291D01*
X-358224Y119276D01*
X-360209Y120798D01*
X-362520Y121756D01*
X-365000Y122082D01*
X-367480Y121756D01*
X-369791Y120798D01*
X-371776Y119276D01*
X-373298Y117291D01*
X-374255Y114980D01*
X-374359Y114196D01*
X-378277Y110277D01*
X-379520Y108659D01*
X-380300Y106773D01*
X-380567Y104750D01*
Y85817D01*
X-382375D01*
X-384398Y85550D01*
X-386283Y84770D01*
X-386500Y84603D01*
X-386716Y84770D01*
X-387821Y85227D01*
X-388602Y85550D01*
X-390625Y85817D01*
X-393375D01*
X-395398Y85550D01*
X-397283Y84770D01*
X-397500Y84603D01*
X-397716Y84770D01*
X-398821Y85227D01*
X-399602Y85550D01*
X-401625Y85817D01*
X-404375D01*
X-406398Y85550D01*
X-408283Y84770D01*
X-408500Y84603D01*
X-408717Y84770D01*
X-409821Y85227D01*
X-410602Y85550D01*
X-411483Y85667D01*
X-411973Y86973D01*
X-410730Y88591D01*
X-409949Y90477D01*
X-409683Y92500D01*
Y99582D01*
X-409202Y100209D01*
X-408245Y102520D01*
X-407918Y105000D01*
X-408245Y107480D01*
X-409202Y109791D01*
X-410724Y111776D01*
X-412709Y113298D01*
X-415020Y114256D01*
X-417500Y114582D01*
X-419980Y114256D01*
X-422291Y113298D01*
X-424276Y111776D01*
X-425798Y109791D01*
X-426755Y107480D01*
X-427082Y105000D01*
X-426755Y102520D01*
X-425798Y100209D01*
X-425317Y99582D01*
Y95738D01*
X-436988Y84067D01*
X-439558D01*
X-439744Y85480D01*
X-440702Y87791D01*
X-442225Y89775D01*
X-444209Y91298D01*
X-446520Y92255D01*
X-449000Y92582D01*
X-451480Y92255D01*
X-453791Y91298D01*
X-455396Y90067D01*
X-484762D01*
X-485600Y91022D01*
X-485418Y92402D01*
X-485745Y94882D01*
X-486702Y97193D01*
X-486954Y97521D01*
X-486153Y98564D01*
X-485398Y98251D01*
X-483375Y97985D01*
X-480625D01*
X-478602Y98251D01*
X-476717Y99032D01*
X-475098Y100274D01*
X-473723Y101649D01*
X-472480Y103268D01*
X-471699Y105154D01*
X-471433Y107177D01*
Y109985D01*
X-464160D01*
X-463791Y109702D01*
X-461480Y108744D01*
X-459000Y108418D01*
X-456520Y108744D01*
X-454209Y109702D01*
X-452225Y111224D01*
X-450702Y113209D01*
X-449744Y115520D01*
X-449418Y118000D01*
X-449744Y120480D01*
X-450702Y122791D01*
X-452225Y124775D01*
X-454209Y126298D01*
X-456520Y127255D01*
X-459000Y127582D01*
X-461480Y127255D01*
X-463791Y126298D01*
X-464677Y125618D01*
X-476933D01*
Y128427D01*
X-477200Y130450D01*
X-477980Y132335D01*
X-479223Y133954D01*
X-480598Y135329D01*
X-482217Y136571D01*
X-483321Y137029D01*
X-484102Y137352D01*
X-486125Y137619D01*
X-488875D01*
X-490898Y137352D01*
X-490920Y137343D01*
X-491721Y138386D01*
X-491702Y138411D01*
X-490745Y140722D01*
X-490418Y143202D01*
X-490426Y143260D01*
X-489588Y144215D01*
X-374532D01*
X-372509Y144481D01*
X-370623Y145262D01*
X-369004Y146504D01*
X-364583Y150926D01*
X-362709Y151702D01*
X-360724Y153224D01*
X-359202Y155209D01*
X-358245Y157520D01*
X-357918Y160000D01*
X-358245Y162480D01*
X-359202Y164791D01*
X-360724Y166775D01*
X-362709Y168298D01*
X-365020Y169256D01*
X-367500Y169582D01*
X-369980Y169256D01*
X-372291Y168298D01*
X-374276Y166775D01*
X-375798Y164791D01*
X-376755Y162480D01*
X-377001Y160617D01*
X-377770Y159848D01*
X-504082D01*
Y180182D01*
D02*
G37*
G36*
X-556082D02*
X-587116D01*
Y157022D01*
X-556082D01*
Y180182D01*
D02*
G37*
G36*
X264904Y136600D02*
X255655D01*
Y129100D01*
X264904D01*
Y136600D01*
D02*
G37*
G36*
X250655D02*
X241404D01*
Y129100D01*
X250655D01*
Y136600D01*
D02*
G37*
G36*
X355405D02*
X346155D01*
Y129100D01*
X355405D01*
Y136600D01*
D02*
G37*
G36*
X341155D02*
X331904D01*
Y129100D01*
X341155D01*
Y136600D01*
D02*
G37*
G36*
X528000Y212002D02*
X512000D01*
Y211002D01*
X509000D01*
Y199040D01*
X507209Y198298D01*
X505224Y196775D01*
X503702Y194791D01*
X502744Y192480D01*
X502418Y190000D01*
X501804Y189300D01*
X499456D01*
Y186300D01*
X492457D01*
Y178900D01*
X458158D01*
Y124900D01*
X498158D01*
Y151675D01*
X499428Y152301D01*
X500209Y151702D01*
X502520Y150744D01*
X505000Y150418D01*
X507480Y150744D01*
X509791Y151702D01*
X511776Y153224D01*
X512320Y153934D01*
X513774Y153742D01*
X514202Y152709D01*
X515724Y150724D01*
X517502Y149360D01*
X517744Y147520D01*
X518702Y145209D01*
X520224Y143224D01*
X522209Y141702D01*
X522541Y141564D01*
X522744Y140020D01*
X523702Y137709D01*
X525224Y135724D01*
X527209Y134202D01*
X527541Y134064D01*
X527744Y132520D01*
X528702Y130209D01*
X530224Y128224D01*
X532209Y126702D01*
X532541Y126564D01*
X532744Y125020D01*
X533702Y122709D01*
X535224Y120724D01*
X537209Y119202D01*
X537541Y119064D01*
X537744Y117520D01*
X538702Y115209D01*
X540224Y113224D01*
X542209Y111702D01*
X542541Y111564D01*
X542744Y110020D01*
X543702Y107709D01*
X545224Y105724D01*
X547209Y104202D01*
X547541Y104064D01*
X547744Y102520D01*
X548702Y100209D01*
X550224Y98224D01*
X552209Y96702D01*
X552541Y96564D01*
X552744Y95020D01*
X553702Y92709D01*
X555224Y90724D01*
X557209Y89202D01*
X557541Y89064D01*
X557744Y87520D01*
X558702Y85209D01*
X560224Y83224D01*
X562209Y81702D01*
X562541Y81564D01*
X562744Y80020D01*
X563702Y77709D01*
X565224Y75725D01*
X567209Y74202D01*
X567541Y74064D01*
X567744Y72520D01*
X568702Y70209D01*
X570224Y68225D01*
X572209Y66702D01*
X572541Y66564D01*
X572744Y65020D01*
X573702Y62709D01*
X575224Y60725D01*
X577209Y59202D01*
X577541Y59064D01*
X577744Y57520D01*
X578702Y55209D01*
X580224Y53225D01*
X582209Y51702D01*
X582541Y51564D01*
X582744Y50020D01*
X583702Y47709D01*
X585224Y45725D01*
X587209Y44202D01*
X587541Y44064D01*
X587744Y42520D01*
X588702Y40209D01*
X590224Y38224D01*
X592209Y36702D01*
X592541Y36564D01*
X592744Y35020D01*
X593702Y32709D01*
X595224Y30724D01*
X597209Y29202D01*
X597541Y29064D01*
X597744Y27520D01*
X598702Y25209D01*
X600224Y23224D01*
X602209Y21702D01*
X602541Y21564D01*
X602744Y20020D01*
X603702Y17709D01*
X605224Y15725D01*
X607209Y14202D01*
X609520Y13245D01*
X612000Y12918D01*
X614480Y13245D01*
X616791Y14202D01*
X618775Y15725D01*
X620298Y17709D01*
X621255Y20020D01*
X621413Y21215D01*
X687806Y87608D01*
X689009Y89175D01*
X689764Y90999D01*
X690022Y92957D01*
Y164300D01*
X690457D01*
Y167300D01*
X691756D01*
Y124900D01*
X731756D01*
Y178900D01*
X697457D01*
Y186300D01*
X690457D01*
Y189300D01*
X549456D01*
Y186300D01*
X545457D01*
Y189300D01*
X538196D01*
X537582Y190000D01*
X537256Y192480D01*
X536298Y194791D01*
X534776Y196775D01*
X532791Y198298D01*
X531000Y199040D01*
Y211002D01*
X528000D01*
Y212002D01*
D02*
G37*
G36*
X355405Y124100D02*
X346155D01*
Y116600D01*
X355405D01*
Y124100D01*
D02*
G37*
G36*
X341155D02*
X331904D01*
Y116600D01*
X341155D01*
Y124100D01*
D02*
G37*
G36*
X264904Y124100D02*
X255655D01*
Y116600D01*
X264904D01*
Y124100D01*
D02*
G37*
G36*
X250655D02*
X241404D01*
Y116600D01*
X250655D01*
Y124100D01*
D02*
G37*
G36*
X-556082Y53182D02*
X-587116D01*
Y30022D01*
X-556082D01*
Y53182D01*
D02*
G37*
G36*
X-507082Y-51418D02*
X-517099D01*
Y-57498D01*
X-507082D01*
Y-51418D01*
D02*
G37*
G36*
X-522099D02*
X-532116D01*
Y-57498D01*
X-522099D01*
Y-51418D01*
D02*
G37*
G36*
X-559082D02*
X-569099D01*
Y-57498D01*
X-559082D01*
Y-51418D01*
D02*
G37*
G36*
X-574099D02*
X-584116D01*
Y-57498D01*
X-574099D01*
Y-51418D01*
D02*
G37*
G36*
X-507082Y-62498D02*
X-517099D01*
Y-68578D01*
X-507082D01*
Y-62498D01*
D02*
G37*
G36*
X-522099D02*
X-532116D01*
Y-68578D01*
X-522099D01*
Y-62498D01*
D02*
G37*
G36*
X-559082Y-62498D02*
X-569099D01*
Y-68578D01*
X-559082D01*
Y-62498D01*
D02*
G37*
G36*
X-574099D02*
X-584116D01*
Y-68578D01*
X-574099D01*
Y-62498D01*
D02*
G37*
G36*
X145500Y-70502D02*
X140000D01*
Y-75502D01*
X145500D01*
Y-70502D01*
D02*
G37*
G36*
X122500Y-57918D02*
X120020Y-58245D01*
X117709Y-59202D01*
X115724Y-60725D01*
X114202Y-62709D01*
X113244Y-65020D01*
X112918Y-67500D01*
X112917Y-67502D01*
X111500D01*
Y-70502D01*
X110000D01*
Y-78002D01*
X105000D01*
Y-70502D01*
X103500D01*
Y-67502D01*
X102083D01*
X102082Y-67500D01*
X101756Y-65020D01*
X100798Y-62709D01*
X99276Y-60725D01*
X97291Y-59202D01*
X94980Y-58245D01*
X92500Y-57918D01*
X90020Y-58245D01*
X87709Y-59202D01*
X85724Y-60725D01*
X84202Y-62709D01*
X83244Y-65020D01*
X82918Y-67500D01*
X82917Y-67502D01*
X81500D01*
Y-70502D01*
X80000D01*
Y-78002D01*
X75000D01*
Y-70502D01*
X73500D01*
Y-67502D01*
X72083D01*
X72082Y-67500D01*
X71755Y-65020D01*
X70798Y-62709D01*
X69275Y-60725D01*
X67291Y-59202D01*
X64980Y-58245D01*
X62500Y-57918D01*
X60020Y-58245D01*
X57709Y-59202D01*
X55725Y-60725D01*
X54202Y-62709D01*
X53245Y-65020D01*
X52918Y-67500D01*
X52917Y-67502D01*
X51500D01*
Y-88502D01*
Y-102502D01*
X69179D01*
Y-107500D01*
X69462Y-109654D01*
X70294Y-111661D01*
X71616Y-113384D01*
X74116Y-115884D01*
X75839Y-117206D01*
X76744Y-117581D01*
X76203Y-118887D01*
X75859Y-121497D01*
Y-139497D01*
X76203Y-142108D01*
X77211Y-144541D01*
X78814Y-146630D01*
X80903Y-148232D01*
X83335Y-149240D01*
X85946Y-149584D01*
X88556Y-149240D01*
X90989Y-148232D01*
X92296Y-147230D01*
X93603Y-148232D01*
X96035Y-149240D01*
X98646Y-149584D01*
X101256Y-149240D01*
X103689Y-148232D01*
X104996Y-147230D01*
X106303Y-148232D01*
X108735Y-149240D01*
X111346Y-149584D01*
X113956Y-149240D01*
X116389Y-148232D01*
X118478Y-146630D01*
X119725Y-145005D01*
X120516Y-145612D01*
X121546Y-146039D01*
Y-130497D01*
X124046D01*
Y-127997D01*
X131106D01*
Y-121497D01*
X130866Y-119670D01*
X130160Y-117967D01*
X129038Y-116505D01*
X127576Y-115383D01*
X125873Y-114678D01*
X124117Y-114446D01*
X123961Y-114231D01*
X123546Y-113222D01*
X128384Y-108384D01*
X129706Y-106661D01*
X130538Y-104654D01*
X130821Y-102502D01*
X148500D01*
Y-81502D01*
X145500D01*
Y-80502D01*
X137500D01*
Y-78002D01*
X135000D01*
Y-70502D01*
X133500D01*
Y-67502D01*
X132083D01*
X132082Y-67500D01*
X131756Y-65020D01*
X130798Y-62709D01*
X129276Y-60725D01*
X127291Y-59202D01*
X124980Y-58245D01*
X122500Y-57918D01*
D02*
G37*
G36*
X-504082Y-73818D02*
X-535116D01*
Y-96978D01*
X-504082D01*
Y-93215D01*
X-460817D01*
X-460189Y-93697D01*
X-457878Y-94654D01*
X-455398Y-94980D01*
X-452918Y-94654D01*
X-450607Y-93697D01*
X-448623Y-92174D01*
X-447100Y-90189D01*
X-446143Y-87878D01*
X-445816Y-85398D01*
X-446143Y-82918D01*
X-447100Y-80607D01*
X-448623Y-78623D01*
X-450607Y-77100D01*
X-452918Y-76143D01*
X-455398Y-75816D01*
X-457878Y-76143D01*
X-460189Y-77100D01*
X-460817Y-77582D01*
X-504082D01*
Y-73818D01*
D02*
G37*
G36*
X-556082D02*
X-587116D01*
Y-96978D01*
X-556082D01*
Y-73818D01*
D02*
G37*
G36*
X-504082Y-99218D02*
X-535116D01*
Y-122378D01*
X-504082D01*
Y-99218D01*
D02*
G37*
G36*
X-556082D02*
X-587116D01*
Y-102477D01*
X-607000D01*
X-609154Y-102761D01*
X-611161Y-103592D01*
X-612884Y-104914D01*
X-622882Y-114913D01*
X-624205Y-116636D01*
X-625036Y-118643D01*
X-625320Y-120797D01*
Y-266500D01*
X-627498D01*
Y-281500D01*
X-627502D01*
Y-303500D01*
X-627498D01*
Y-318500D01*
X-624498D01*
Y-320000D01*
X-616998D01*
Y-325000D01*
X-624498D01*
Y-329000D01*
X-624502D01*
Y-334500D01*
X-617002D01*
Y-339500D01*
X-624502D01*
Y-339631D01*
X-624936Y-339942D01*
X-626062Y-340483D01*
X-627256Y-340328D01*
X-628354Y-340183D01*
X-677000D01*
X-679023Y-340449D01*
X-680908Y-341230D01*
X-682527Y-342473D01*
X-682527Y-342473D01*
X-683531Y-343476D01*
X-683531Y-343476D01*
X-683531Y-343476D01*
X-684031Y-343976D01*
X-684031Y-343976D01*
X-684031Y-343976D01*
X-686031Y-345976D01*
X-686031Y-345976D01*
X-686031Y-345976D01*
X-694527Y-354473D01*
X-695770Y-356092D01*
X-696551Y-357977D01*
X-696817Y-360000D01*
Y-531000D01*
X-696551Y-533023D01*
X-695770Y-534908D01*
X-694527Y-536527D01*
X-681527Y-549527D01*
X-679908Y-550770D01*
X-678023Y-551551D01*
X-676000Y-551817D01*
X-479000D01*
X-476977Y-551551D01*
X-476196Y-551227D01*
X-475092Y-550770D01*
X-473473Y-549527D01*
X-469473Y-545527D01*
X-468230Y-543908D01*
X-467449Y-542023D01*
X-467183Y-540000D01*
Y-490000D01*
X-467449Y-487977D01*
X-468230Y-486092D01*
X-469473Y-484473D01*
X-474473Y-479473D01*
X-476092Y-478230D01*
X-477977Y-477449D01*
X-480000Y-477183D01*
X-490000D01*
X-555504Y-477183D01*
X-565504D01*
X-578004D01*
X-585504D01*
X-595504D01*
X-605504D01*
X-617762D01*
X-622477Y-472469D01*
X-627183Y-467762D01*
Y-421500D01*
X-616500D01*
Y-412500D01*
Y-403500D01*
X-627183D01*
Y-402004D01*
Y-402004D01*
Y-402004D01*
Y-399504D01*
Y-399504D01*
Y-399504D01*
Y-397500D01*
X-602000D01*
Y-399498D01*
X-599000D01*
Y-403500D01*
X-611500D01*
Y-412500D01*
Y-421500D01*
X-597500D01*
Y-410498D01*
X-593500D01*
Y-402998D01*
X-591000D01*
Y-400498D01*
X-583000D01*
Y-399498D01*
X-580000D01*
Y-390706D01*
X-578730Y-390069D01*
X-578317Y-390378D01*
Y-403000D01*
Y-419500D01*
X-578050Y-421523D01*
X-577270Y-423408D01*
X-576027Y-425027D01*
X-576025Y-425029D01*
X-576024Y-425031D01*
X-575743Y-425246D01*
X-575527Y-425527D01*
X-573908Y-426770D01*
X-572023Y-427551D01*
X-570000Y-427817D01*
X-424000D01*
X-421977Y-427551D01*
X-420092Y-426770D01*
X-418473Y-425527D01*
X-412976Y-420031D01*
X-412976Y-420031D01*
X-412976Y-420031D01*
X-412477Y-419532D01*
X-412477Y-419532D01*
X-412477Y-419532D01*
X-411473Y-418527D01*
X-411473Y-418527D01*
X-410230Y-416908D01*
X-409450Y-415023D01*
X-409316Y-414012D01*
X-409183Y-413000D01*
X-409183Y-413000D01*
Y-369000D01*
X-409183Y-369000D01*
X-409316Y-367988D01*
X-409450Y-366977D01*
X-410230Y-365092D01*
X-411473Y-363473D01*
X-411473Y-363473D01*
X-412477Y-362468D01*
X-412477Y-362468D01*
X-412477Y-362468D01*
X-412763Y-362182D01*
X-412827Y-361943D01*
X-412601Y-360569D01*
X-412590Y-360559D01*
X-411473Y-359701D01*
X-410230Y-358082D01*
X-409450Y-356197D01*
X-409183Y-354174D01*
Y-292117D01*
X-394318D01*
Y-261083D01*
X-409436D01*
X-409450Y-260977D01*
X-410230Y-259092D01*
X-411473Y-257473D01*
X-418973Y-249973D01*
X-420592Y-248730D01*
X-421696Y-248273D01*
X-422477Y-247950D01*
X-424500Y-247683D01*
X-451864D01*
X-453062Y-247483D01*
X-453069Y-247482D01*
X-454256Y-247328D01*
X-454586Y-247284D01*
X-455354Y-247183D01*
X-467762D01*
X-469183Y-245762D01*
Y-196000D01*
Y-181000D01*
X-469450Y-178977D01*
X-470230Y-177092D01*
X-471473Y-175473D01*
X-476473Y-170473D01*
X-478092Y-169230D01*
X-479977Y-168449D01*
X-482000Y-168183D01*
X-507082D01*
Y-164098D01*
X-519599D01*
X-532116D01*
Y-168183D01*
X-540000D01*
X-542023Y-168449D01*
X-542804Y-168773D01*
X-543909Y-169230D01*
X-545527Y-170473D01*
X-550527Y-175473D01*
X-551770Y-177092D01*
X-552551Y-178977D01*
X-552817Y-181000D01*
Y-201644D01*
X-552740Y-202227D01*
X-553812Y-203174D01*
X-554482D01*
X-555520Y-202745D01*
X-556082Y-202670D01*
Y-200818D01*
X-586754D01*
X-588209Y-199702D01*
X-590520Y-198745D01*
X-593000Y-198418D01*
X-595480Y-198745D01*
X-597791Y-199702D01*
X-599776Y-201224D01*
X-601298Y-203209D01*
X-602256Y-205520D01*
X-602582Y-208000D01*
X-602256Y-210480D01*
X-601298Y-212791D01*
X-599776Y-214776D01*
X-597791Y-216298D01*
X-596753Y-216728D01*
X-594842Y-218639D01*
X-593014Y-220042D01*
X-590886Y-220923D01*
X-589945Y-221047D01*
X-588480Y-221654D01*
X-587116Y-221833D01*
Y-223978D01*
X-556082D01*
Y-221329D01*
X-555520Y-221255D01*
X-554482Y-220826D01*
X-553812D01*
X-552740Y-221773D01*
X-552817Y-222356D01*
Y-227183D01*
X-574000D01*
X-574430Y-227240D01*
X-574863Y-227231D01*
X-575437Y-227372D01*
X-576023Y-227449D01*
X-576424Y-227615D01*
X-576845Y-227719D01*
X-577362Y-228004D01*
X-577908Y-228230D01*
X-578252Y-228494D01*
X-578632Y-228703D01*
X-579058Y-229113D01*
X-579527Y-229473D01*
X-579791Y-229817D01*
X-580104Y-230117D01*
X-588104Y-240117D01*
X-588410Y-240623D01*
X-588770Y-241091D01*
X-588936Y-241492D01*
X-589160Y-241863D01*
X-589324Y-242431D01*
X-589551Y-242977D01*
X-589607Y-243407D01*
X-589728Y-243823D01*
X-589740Y-244414D01*
X-589817Y-245000D01*
Y-305699D01*
X-589551Y-307722D01*
X-588770Y-309608D01*
X-587912Y-310725D01*
X-587988Y-310790D01*
X-587614Y-311349D01*
X-587326Y-312500D01*
X-587317Y-312750D01*
X-587212Y-313545D01*
X-588050Y-314500D01*
X-592498D01*
Y-311500D01*
Y-296500D01*
X-592502D01*
Y-281500D01*
X-595498D01*
Y-280000D01*
X-602998D01*
Y-277500D01*
X-605498D01*
Y-269500D01*
X-606498D01*
Y-266500D01*
X-608677D01*
Y-124243D01*
X-603553Y-119120D01*
X-587116D01*
Y-122378D01*
X-556082D01*
Y-99218D01*
D02*
G37*
G36*
X131106Y-132997D02*
X126546D01*
Y-146039D01*
X127576Y-145612D01*
X129038Y-144490D01*
X130160Y-143028D01*
X130866Y-141325D01*
X131106Y-139497D01*
Y-132997D01*
D02*
G37*
G36*
X-504082Y-124618D02*
X-535116D01*
Y-147778D01*
X-504082D01*
Y-124618D01*
D02*
G37*
G36*
X-556082D02*
X-587116D01*
Y-147778D01*
X-556082D01*
Y-145654D01*
X-556000Y-145582D01*
X-553520Y-145255D01*
X-551209Y-144298D01*
X-549225Y-142775D01*
X-547702Y-140791D01*
X-546744Y-138480D01*
X-546418Y-136000D01*
X-546744Y-133520D01*
X-547702Y-131209D01*
X-549225Y-129225D01*
X-551209Y-127702D01*
X-553520Y-126744D01*
X-556000Y-126418D01*
X-556082Y-126346D01*
Y-124618D01*
D02*
G37*
G36*
X-507082Y-153018D02*
X-517099D01*
Y-159098D01*
X-507082D01*
Y-153018D01*
D02*
G37*
G36*
X-522099D02*
X-532116D01*
Y-159098D01*
X-522099D01*
Y-153018D01*
D02*
G37*
G36*
X-556082Y-150018D02*
X-587116D01*
Y-173178D01*
X-556082D01*
Y-171074D01*
X-554209Y-170298D01*
X-552225Y-168776D01*
X-550702Y-166791D01*
X-549744Y-164480D01*
X-549418Y-162000D01*
X-549744Y-159520D01*
X-550702Y-157209D01*
X-552225Y-155225D01*
X-554209Y-153702D01*
X-556082Y-152926D01*
Y-150018D01*
D02*
G37*
G36*
X72000Y-158418D02*
X69520Y-158744D01*
X67209Y-159702D01*
X65224Y-161224D01*
X63702Y-163209D01*
X63167Y-164500D01*
X61000D01*
Y-185500D01*
X64000D01*
Y-186500D01*
X72000D01*
Y-189000D01*
X74500D01*
Y-196500D01*
X79948D01*
X80903Y-197232D01*
X83335Y-198240D01*
X85946Y-198584D01*
X88556Y-198240D01*
X90989Y-197232D01*
X93078Y-195630D01*
X94325Y-194005D01*
X95116Y-194612D01*
X96146Y-195039D01*
Y-179498D01*
Y-163956D01*
X95116Y-164383D01*
X94325Y-164990D01*
X93078Y-163365D01*
X90989Y-161763D01*
X88556Y-160755D01*
X85946Y-160411D01*
X83335Y-160755D01*
X80903Y-161763D01*
X79824Y-162591D01*
X78776Y-161224D01*
X76791Y-159702D01*
X74480Y-158744D01*
X72000Y-158418D01*
D02*
G37*
G36*
X69500Y-191500D02*
X64000D01*
Y-196500D01*
X69500D01*
Y-191500D01*
D02*
G37*
G36*
X-556082Y-175418D02*
X-587116D01*
Y-198578D01*
X-556082D01*
Y-175418D01*
D02*
G37*
G36*
X85282Y-212083D02*
X79202D01*
Y-222100D01*
X85282D01*
Y-212083D01*
D02*
G37*
G36*
X74202D02*
X68122D01*
Y-222100D01*
X74202D01*
Y-212083D01*
D02*
G37*
G36*
X9082D02*
X3002D01*
Y-222100D01*
X9082D01*
Y-212083D01*
D02*
G37*
G36*
X-1998D02*
X-8078D01*
Y-222100D01*
X-1998D01*
Y-212083D01*
D02*
G37*
G36*
X-448118D02*
X-454198D01*
Y-222100D01*
X-448118D01*
Y-212083D01*
D02*
G37*
G36*
X-459198D02*
X-465278D01*
Y-222100D01*
X-459198D01*
Y-212083D01*
D02*
G37*
G36*
X85282Y-227100D02*
X79202D01*
Y-237117D01*
X85282D01*
Y-227100D01*
D02*
G37*
G36*
X74202D02*
X68122D01*
Y-237117D01*
X74202D01*
Y-227100D01*
D02*
G37*
G36*
X9082D02*
X3002D01*
Y-237117D01*
X9082D01*
Y-227100D01*
D02*
G37*
G36*
X-1998D02*
X-8078D01*
Y-237117D01*
X-1998D01*
Y-227100D01*
D02*
G37*
G36*
X-448118D02*
X-454198D01*
Y-237117D01*
X-448118D01*
Y-227100D01*
D02*
G37*
G36*
X-459198D02*
X-465278D01*
Y-237117D01*
X-459198D01*
Y-227100D01*
D02*
G37*
G36*
X62882Y-209083D02*
X39722D01*
Y-240117D01*
X62882D01*
Y-209083D01*
D02*
G37*
G36*
X37482D02*
X14322D01*
Y-240117D01*
X37482D01*
Y-209083D01*
D02*
G37*
G36*
X-13318D02*
X-36478D01*
Y-240117D01*
X-13318D01*
Y-209083D01*
D02*
G37*
G36*
X-38718D02*
X-61878D01*
Y-240117D01*
X-38718D01*
Y-209083D01*
D02*
G37*
G36*
X-165718D02*
X-188878D01*
Y-240117D01*
X-165718D01*
Y-209083D01*
D02*
G37*
G36*
X-191118D02*
X-214278D01*
Y-240117D01*
X-191118D01*
Y-209083D01*
D02*
G37*
G36*
X-216518D02*
X-239678D01*
Y-240117D01*
X-216518D01*
Y-209083D01*
D02*
G37*
G36*
X-241918D02*
X-265078D01*
Y-240117D01*
X-241918D01*
Y-209083D01*
D02*
G37*
G36*
X-419718D02*
X-442878D01*
Y-240117D01*
X-419718D01*
Y-209083D01*
D02*
G37*
G36*
X-140318D02*
X-163478D01*
Y-240117D01*
X-161293D01*
X-161154Y-241178D01*
X-160196Y-243489D01*
X-158674Y-245474D01*
X-156689Y-246996D01*
X-154378Y-247954D01*
X-151898Y-248280D01*
X-149418Y-247954D01*
X-147107Y-246996D01*
X-145123Y-245474D01*
X-143600Y-243489D01*
X-142643Y-241178D01*
X-142503Y-240117D01*
X-140318D01*
Y-209083D01*
D02*
G37*
G36*
X748750Y-20922D02*
X242500D01*
X240150Y-21232D01*
X237961Y-22139D01*
X236081Y-23581D01*
X234638Y-25461D01*
X233731Y-27650D01*
X233422Y-30000D01*
Y-240000D01*
X233422Y-240000D01*
X233731Y-242350D01*
X234638Y-244539D01*
X236081Y-246419D01*
X237961Y-247862D01*
X240150Y-248768D01*
X242500Y-249078D01*
X748750D01*
X751099Y-248768D01*
X753289Y-247862D01*
X755169Y-246419D01*
X756611Y-244539D01*
X757518Y-242350D01*
X757828Y-240000D01*
Y-30000D01*
X757518Y-27650D01*
X756611Y-25461D01*
X755169Y-23581D01*
X753289Y-22139D01*
X751099Y-21232D01*
X748750Y-20922D01*
D02*
G37*
G36*
X-392000Y-180418D02*
X-394480Y-180744D01*
X-396791Y-181702D01*
X-398775Y-183225D01*
X-400298Y-185209D01*
X-401255Y-187520D01*
X-401582Y-190000D01*
X-401255Y-192480D01*
X-401154Y-192726D01*
Y-209083D01*
X-417478D01*
Y-240117D01*
X-400265D01*
X-399971Y-240826D01*
X-398569Y-242654D01*
X-384982Y-256241D01*
X-383154Y-257643D01*
X-381025Y-258525D01*
X-378741Y-258825D01*
X-338518D01*
X-337480Y-259256D01*
X-335000Y-259582D01*
X-332520Y-259256D01*
X-331482Y-258825D01*
X-287518D01*
X-286480Y-259256D01*
X-284000Y-259582D01*
X-281520Y-259256D01*
X-279209Y-258298D01*
X-277225Y-256775D01*
X-275702Y-254791D01*
X-274744Y-252480D01*
X-274418Y-250000D01*
X-274744Y-247520D01*
X-275702Y-245209D01*
X-277225Y-243225D01*
X-279209Y-241702D01*
X-279969Y-241387D01*
X-279716Y-240117D01*
X-267318D01*
Y-209083D01*
X-290478D01*
Y-239904D01*
X-290478Y-240117D01*
X-290991Y-241175D01*
X-292205D01*
X-292718Y-240117D01*
X-292718Y-239904D01*
Y-209083D01*
X-315878D01*
Y-239904D01*
X-315878Y-240117D01*
X-316391Y-241175D01*
X-317605D01*
X-318118Y-240117D01*
X-318118Y-239904D01*
Y-209083D01*
X-341278D01*
Y-239904D01*
X-341278Y-240117D01*
X-341791Y-241175D01*
X-343005D01*
X-343518Y-240117D01*
X-343518Y-239904D01*
Y-209083D01*
X-366678D01*
Y-239904D01*
X-366678Y-240117D01*
X-367191Y-241175D01*
X-368405D01*
X-368918Y-240117D01*
Y-209083D01*
X-383503D01*
Y-194310D01*
X-382744Y-192480D01*
X-382418Y-190000D01*
X-382744Y-187520D01*
X-383702Y-185209D01*
X-385224Y-183225D01*
X-387209Y-181702D01*
X-389520Y-180744D01*
X-392000Y-180418D01*
D02*
G37*
G36*
X-595498Y-269500D02*
X-600498D01*
Y-275000D01*
X-595498D01*
Y-269500D01*
D02*
G37*
G36*
X88282Y-261083D02*
X65122D01*
Y-290603D01*
X64167Y-291440D01*
X64000Y-291418D01*
X63837Y-291439D01*
X62882Y-290602D01*
Y-261083D01*
X39722D01*
Y-292117D01*
X57885D01*
X58316Y-293387D01*
X57224Y-294224D01*
X55702Y-296209D01*
X54745Y-298520D01*
X54418Y-301000D01*
X54745Y-303480D01*
X55702Y-305791D01*
X57224Y-307775D01*
X59209Y-309298D01*
X61520Y-310256D01*
X64000Y-310582D01*
X66480Y-310256D01*
X68735Y-309321D01*
X71000D01*
X73154Y-309038D01*
X75161Y-308206D01*
X76884Y-306884D01*
X82586Y-301182D01*
X83908Y-299459D01*
X84740Y-297452D01*
X85023Y-295298D01*
Y-292117D01*
X88282D01*
Y-261083D01*
D02*
G37*
G36*
X113682D02*
X90522D01*
Y-292117D01*
X113682D01*
Y-261083D01*
D02*
G37*
G36*
X37482D02*
X14322D01*
Y-292117D01*
X37482D01*
Y-261083D01*
D02*
G37*
G36*
X12082D02*
X-11078D01*
Y-292117D01*
X12082D01*
Y-261083D01*
D02*
G37*
G36*
X-13318D02*
X-36478D01*
Y-292117D01*
X-13318D01*
Y-261083D01*
D02*
G37*
G36*
X-38718D02*
X-61878D01*
Y-292117D01*
X-38718D01*
Y-261083D01*
D02*
G37*
G36*
X-64118D02*
X-87278D01*
Y-292117D01*
X-64118D01*
Y-261083D01*
D02*
G37*
G36*
X-114921Y502117D02*
X-138081D01*
Y471083D01*
X-134823D01*
Y469501D01*
X-134539Y467348D01*
X-133708Y465341D01*
X-132385Y463617D01*
X-124321Y455553D01*
Y450117D01*
X-138081D01*
Y419083D01*
X-124321D01*
Y213000D01*
X-124038Y210846D01*
X-123206Y208839D01*
X-121884Y207116D01*
X-105232Y190465D01*
X-104298Y188209D01*
X-102775Y186224D01*
X-102659Y186135D01*
Y184865D01*
X-102775Y184776D01*
X-104298Y182791D01*
X-105255Y180480D01*
X-105582Y178000D01*
X-105255Y175520D01*
X-104321Y173264D01*
Y-176254D01*
X-120884Y-192816D01*
X-122206Y-194540D01*
X-123038Y-196547D01*
X-123321Y-198700D01*
Y-209083D01*
X-138078D01*
Y-240117D01*
X-123321D01*
Y-241553D01*
X-132382Y-250614D01*
X-133705Y-252338D01*
X-134536Y-254345D01*
X-134819Y-256498D01*
Y-261083D01*
X-138078D01*
Y-292117D01*
X-114918D01*
Y-261083D01*
X-117859D01*
X-118045Y-259813D01*
X-110040Y-251807D01*
X-108963Y-252527D01*
X-109136Y-252945D01*
X-109419Y-255098D01*
Y-261083D01*
X-112678D01*
Y-292117D01*
X-89518D01*
Y-261083D01*
X-92777D01*
Y-258545D01*
X-83116Y-248884D01*
X-81794Y-247161D01*
X-80962Y-245154D01*
X-80679Y-243000D01*
Y-240117D01*
X-64118D01*
Y-209083D01*
X-80679D01*
Y162553D01*
X-78116Y165116D01*
X-76794Y166839D01*
X-75962Y168846D01*
X-75679Y171000D01*
Y180264D01*
X-74745Y182520D01*
X-74418Y185000D01*
X-74745Y187480D01*
X-75702Y189791D01*
X-77224Y191775D01*
X-77341Y191865D01*
Y192905D01*
X-77151Y193320D01*
X-75702Y195209D01*
X-74745Y197520D01*
X-74418Y200000D01*
X-74745Y202480D01*
X-75702Y204791D01*
X-77224Y206775D01*
X-79209Y208298D01*
X-81465Y209233D01*
X-100679Y228447D01*
Y363553D01*
X-69817Y394415D01*
X-68495Y396138D01*
X-67664Y398145D01*
X-67380Y400299D01*
Y419083D01*
X-64121D01*
Y450117D01*
X-87281D01*
Y419083D01*
X-84023D01*
Y403745D01*
X-106505Y381263D01*
X-107679Y381749D01*
Y419083D01*
X-89521D01*
Y450117D01*
X-107679D01*
Y459000D01*
X-107962Y461154D01*
X-108794Y463161D01*
X-110116Y464884D01*
X-115330Y470098D01*
X-114921Y471083D01*
X-114921D01*
Y502117D01*
D02*
G37*
G36*
X-140318Y-261083D02*
X-163478D01*
Y-292117D01*
X-140318D01*
Y-261083D01*
D02*
G37*
G36*
X-216518D02*
X-239678D01*
Y-292117D01*
X-216518D01*
Y-261083D01*
D02*
G37*
G36*
X-241918D02*
X-265078D01*
Y-292117D01*
X-241918D01*
Y-261083D01*
D02*
G37*
G36*
X-267318D02*
X-290478D01*
Y-292117D01*
X-267318D01*
Y-261083D01*
D02*
G37*
G36*
X-343518D02*
X-366678D01*
Y-292117D01*
X-343518D01*
Y-261083D01*
D02*
G37*
G36*
X-368918D02*
X-392078D01*
Y-292117D01*
X-368918D01*
Y-261083D01*
D02*
G37*
G36*
X-165718D02*
X-188878D01*
Y-292117D01*
X-186693D01*
X-186554Y-293178D01*
X-185596Y-295489D01*
X-184074Y-297474D01*
X-182089Y-298996D01*
X-179778Y-299954D01*
X-177298Y-300280D01*
X-174818Y-299954D01*
X-172507Y-298996D01*
X-170523Y-297474D01*
X-169000Y-295489D01*
X-168043Y-293178D01*
X-167903Y-292117D01*
X-165718D01*
Y-261083D01*
D02*
G37*
G36*
X-191118D02*
X-214278D01*
Y-292117D01*
X-212093D01*
X-211954Y-293178D01*
X-210996Y-295489D01*
X-209474Y-297474D01*
X-207489Y-298996D01*
X-205178Y-299954D01*
X-202698Y-300280D01*
X-200218Y-299954D01*
X-197907Y-298996D01*
X-195923Y-297474D01*
X-194400Y-295489D01*
X-193443Y-293178D01*
X-193303Y-292117D01*
X-191118D01*
Y-261083D01*
D02*
G37*
G36*
X-292718D02*
X-315878D01*
Y-292117D01*
X-312619D01*
Y-299953D01*
X-313793Y-300439D01*
X-320845Y-293387D01*
X-320319Y-292117D01*
X-318118D01*
Y-261083D01*
X-341278D01*
Y-292117D01*
X-338019D01*
Y-296302D01*
X-337736Y-298456D01*
X-336904Y-300462D01*
X-335582Y-302186D01*
X-323321Y-314447D01*
Y-500264D01*
X-324255Y-502520D01*
X-324582Y-505000D01*
X-324255Y-507480D01*
X-323298Y-509791D01*
X-321776Y-511776D01*
X-319791Y-513298D01*
X-317480Y-514255D01*
X-315000Y-514582D01*
X-314673Y-514539D01*
X-313494Y-515665D01*
X-313256Y-517480D01*
X-312298Y-519791D01*
X-310776Y-521776D01*
X-308791Y-523298D01*
X-306480Y-524255D01*
X-304000Y-524582D01*
X-301520Y-524255D01*
X-299209Y-523298D01*
X-297225Y-521776D01*
X-295702Y-519791D01*
X-294744Y-517480D01*
X-294418Y-515000D01*
X-294744Y-512520D01*
X-295702Y-510209D01*
X-295977Y-509850D01*
Y-292117D01*
X-292718D01*
Y-261083D01*
D02*
G37*
G36*
X-183000Y-384502D02*
X-188500D01*
Y-389502D01*
X-183000D01*
Y-384502D01*
D02*
G37*
G36*
X-205000Y-381502D02*
X-227000D01*
Y-390718D01*
X-227955Y-391556D01*
X-229000Y-391418D01*
X-230730Y-391646D01*
X-232000Y-390690D01*
Y-385502D01*
X-237500D01*
Y-393002D01*
X-242500D01*
Y-385502D01*
X-243710D01*
Y-381748D01*
X-265710D01*
Y-383164D01*
X-266000Y-383418D01*
X-268480Y-383745D01*
X-270791Y-384702D01*
X-272775Y-386225D01*
X-274298Y-388209D01*
X-275256Y-390520D01*
X-275582Y-393000D01*
X-275256Y-395480D01*
X-274298Y-397791D01*
X-272775Y-399776D01*
X-270791Y-401298D01*
X-268480Y-402256D01*
X-266000Y-402582D01*
X-265710Y-403825D01*
Y-416748D01*
X-264615D01*
X-263771Y-418018D01*
X-264032Y-420000D01*
Y-433000D01*
X-263706Y-435480D01*
X-262748Y-437791D01*
X-261225Y-439775D01*
X-259241Y-441298D01*
X-256930Y-442256D01*
X-254450Y-442582D01*
X-251970Y-442256D01*
X-249659Y-441298D01*
X-248100Y-440102D01*
X-246541Y-441298D01*
X-244230Y-442256D01*
X-241750Y-442582D01*
X-239270Y-442256D01*
X-236959Y-441298D01*
X-235400Y-440102D01*
X-233841Y-441298D01*
X-231530Y-442256D01*
X-229050Y-442582D01*
X-226570Y-442256D01*
X-224259Y-441298D01*
X-222700Y-440102D01*
X-221141Y-441298D01*
X-218830Y-442256D01*
X-216350Y-442582D01*
X-213870Y-442256D01*
X-211559Y-441298D01*
X-210000Y-440102D01*
X-208441Y-441298D01*
X-206130Y-442256D01*
X-203650Y-442582D01*
X-201170Y-442256D01*
X-198859Y-441298D01*
X-197300Y-440102D01*
X-195741Y-441298D01*
X-193430Y-442256D01*
X-190950Y-442582D01*
X-188470Y-442256D01*
X-186159Y-441298D01*
X-184600Y-440102D01*
X-183041Y-441298D01*
X-180730Y-442256D01*
X-178250Y-442582D01*
X-175770Y-442256D01*
X-173459Y-441298D01*
X-171900Y-440102D01*
X-170341Y-441298D01*
X-168030Y-442256D01*
X-165550Y-442582D01*
X-163070Y-442256D01*
X-160759Y-441298D01*
X-158774Y-439775D01*
X-157252Y-437791D01*
X-156294Y-435480D01*
X-155968Y-433000D01*
Y-420000D01*
X-156294Y-417520D01*
X-157252Y-415209D01*
X-158774Y-413224D01*
X-160759Y-411702D01*
X-163070Y-410745D01*
X-165550Y-410418D01*
X-168030Y-410745D01*
X-170341Y-411702D01*
X-171900Y-412898D01*
X-173459Y-411702D01*
X-175770Y-410745D01*
X-178250Y-410418D01*
X-179045Y-410523D01*
X-180000Y-409685D01*
Y-395502D01*
X-183000D01*
Y-394502D01*
X-191000D01*
Y-392002D01*
X-193500D01*
Y-384502D01*
X-199000D01*
Y-386573D01*
X-200173Y-387059D01*
X-201114Y-386118D01*
X-202838Y-384795D01*
X-204845Y-383964D01*
X-205000Y-383943D01*
Y-381502D01*
D02*
G37*
G36*
X79000Y-396418D02*
X76520Y-396744D01*
X74209Y-397702D01*
X72224Y-399225D01*
X70702Y-401209D01*
X69745Y-403520D01*
X69616Y-404498D01*
X68000D01*
Y-407502D01*
X51000D01*
Y-404498D01*
X49384D01*
X49255Y-403520D01*
X48298Y-401209D01*
X46775Y-399225D01*
X44791Y-397702D01*
X42480Y-396744D01*
X40000Y-396418D01*
X37520Y-396744D01*
X35209Y-397702D01*
X33500Y-399013D01*
X31791Y-397702D01*
X29480Y-396744D01*
X27000Y-396418D01*
X24520Y-396744D01*
X22209Y-397702D01*
X20224Y-399225D01*
X18702Y-401209D01*
X17744Y-403520D01*
X17616Y-404498D01*
X16000D01*
Y-425498D01*
Y-439498D01*
X18679D01*
Y-451000D01*
X18962Y-453154D01*
X19794Y-455161D01*
X21116Y-456884D01*
X22616Y-458384D01*
X24339Y-459706D01*
X24864Y-459924D01*
Y-461500D01*
X25207Y-464110D01*
X26215Y-466543D01*
X27818Y-468632D01*
X29907Y-470235D01*
X32339Y-471243D01*
X34950Y-471586D01*
X37561Y-471243D01*
X39993Y-470235D01*
X41300Y-469232D01*
X42607Y-470235D01*
X45040Y-471243D01*
X47650Y-471586D01*
X49577Y-471333D01*
X50971Y-472188D01*
X51094Y-473130D01*
X52052Y-475441D01*
X53575Y-477425D01*
X55559Y-478948D01*
X57870Y-479906D01*
X60350Y-480232D01*
X62830Y-479906D01*
X65141Y-478948D01*
X67126Y-477425D01*
X68648Y-475441D01*
X69605Y-473130D01*
X69730Y-472188D01*
X71123Y-471333D01*
X73050Y-471586D01*
X75661Y-471243D01*
X78093Y-470235D01*
X80182Y-468632D01*
X81785Y-466543D01*
X82793Y-464110D01*
X83136Y-461500D01*
Y-443500D01*
X82803Y-440965D01*
X84270Y-439498D01*
X90000D01*
Y-425498D01*
Y-404498D01*
X88384D01*
X88256Y-403520D01*
X87298Y-401209D01*
X85775Y-399225D01*
X83791Y-397702D01*
X81480Y-396744D01*
X79000Y-396418D01*
D02*
G37*
G36*
X-583000Y-405498D02*
X-588500D01*
Y-410498D01*
X-583000D01*
Y-405498D01*
D02*
G37*
G36*
X263050Y-450414D02*
X260439Y-450757D01*
X258007Y-451765D01*
X256700Y-452768D01*
X255393Y-451765D01*
X252961Y-450757D01*
X250350Y-450414D01*
X247740Y-450757D01*
X245307Y-451765D01*
X244000Y-452768D01*
X242693Y-451765D01*
X240261Y-450757D01*
X237650Y-450414D01*
X235040Y-450757D01*
X232607Y-451765D01*
X231300Y-452768D01*
X229993Y-451765D01*
X227561Y-450757D01*
X224950Y-450414D01*
X222339Y-450757D01*
X219907Y-451765D01*
X217818Y-453368D01*
X217718Y-453498D01*
X199000D01*
Y-474498D01*
X202000D01*
Y-475498D01*
X210000D01*
Y-477998D01*
X212500D01*
Y-485498D01*
X217715D01*
X217818Y-485632D01*
X219249Y-486730D01*
X218818Y-488000D01*
X218800D01*
Y-495675D01*
X189500D01*
X187216Y-495975D01*
X185087Y-496857D01*
X183259Y-498259D01*
X179759Y-501759D01*
X178357Y-503587D01*
X177803Y-504924D01*
X165784D01*
Y-544086D01*
X206216D01*
Y-513326D01*
X218800D01*
Y-521000D01*
X242930D01*
X243800Y-521000D01*
Y-521000D01*
X244200D01*
Y-521000D01*
X269200D01*
Y-513326D01*
X281784D01*
Y-544086D01*
X322216D01*
Y-504924D01*
X310552D01*
X310525Y-504716D01*
X309643Y-502587D01*
X308241Y-500759D01*
X305741Y-498259D01*
X303913Y-496857D01*
X301784Y-495975D01*
X299500Y-495675D01*
X269200D01*
Y-488502D01*
X289000D01*
Y-486827D01*
X317346D01*
X328175Y-497656D01*
Y-605000D01*
X314502D01*
Y-608000D01*
X313502D01*
Y-616000D01*
X308502D01*
Y-608000D01*
X303502D01*
Y-618000D01*
X300502D01*
X300502Y-618000D01*
Y-618000D01*
X299485Y-617413D01*
X299413Y-617357D01*
X297284Y-616475D01*
X295000Y-616175D01*
X291001D01*
Y-609000D01*
X283827D01*
Y-607001D01*
X283526Y-604717D01*
X282644Y-602588D01*
X281242Y-600761D01*
X279241Y-598759D01*
X277413Y-597357D01*
X275284Y-596475D01*
X273000Y-596175D01*
X270398D01*
X269200Y-596000D01*
Y-563000D01*
X244200D01*
Y-563000D01*
X243800D01*
Y-563000D01*
X218800D01*
Y-596000D01*
X222474D01*
Y-616300D01*
X222775Y-618584D01*
X223657Y-620713D01*
X224319Y-621576D01*
X224231Y-621864D01*
X223923Y-625000D01*
X224231Y-628136D01*
X225146Y-631153D01*
X226632Y-633932D01*
X228631Y-636368D01*
X231068Y-638368D01*
X233847Y-639854D01*
X236863Y-640769D01*
X240000Y-641077D01*
X243137Y-640769D01*
X243252Y-640733D01*
X250759Y-648241D01*
X252587Y-649643D01*
X254716Y-650525D01*
X257000Y-650826D01*
X300502D01*
Y-653000D01*
X335502D01*
Y-640000D01*
Y-624021D01*
X336413Y-623643D01*
X338241Y-622241D01*
X343241Y-617241D01*
X344643Y-615413D01*
X345525Y-613284D01*
X345826Y-611000D01*
Y-494000D01*
X345525Y-491716D01*
X344643Y-489587D01*
X343241Y-487759D01*
X327242Y-471761D01*
X325414Y-470359D01*
X323286Y-469477D01*
X321002Y-469176D01*
X289000D01*
Y-453502D01*
X270285D01*
X270182Y-453368D01*
X268093Y-451765D01*
X265661Y-450757D01*
X263050Y-450414D01*
D02*
G37*
G36*
X-165550Y-457418D02*
X-168030Y-457744D01*
X-170341Y-458702D01*
X-171900Y-459898D01*
X-173459Y-458702D01*
X-175770Y-457744D01*
X-178250Y-457418D01*
X-180730Y-457744D01*
X-183041Y-458702D01*
X-184600Y-459898D01*
X-186159Y-458702D01*
X-188470Y-457744D01*
X-190950Y-457418D01*
X-193430Y-457744D01*
X-195741Y-458702D01*
X-197300Y-459898D01*
X-198859Y-458702D01*
X-201170Y-457744D01*
X-203650Y-457418D01*
X-206130Y-457744D01*
X-208441Y-458702D01*
X-210000Y-459898D01*
X-211559Y-458702D01*
X-213870Y-457744D01*
X-216350Y-457418D01*
X-218830Y-457744D01*
X-221141Y-458702D01*
X-222700Y-459898D01*
X-224259Y-458702D01*
X-226570Y-457744D01*
X-229050Y-457418D01*
X-231530Y-457744D01*
X-233841Y-458702D01*
X-235826Y-460224D01*
X-236790Y-461481D01*
X-238049Y-461647D01*
X-238472Y-461322D01*
X-239250Y-461000D01*
Y-473500D01*
X-244250D01*
Y-461000D01*
X-245028Y-461322D01*
X-245451Y-461647D01*
X-246710Y-461481D01*
X-247675Y-460224D01*
X-249659Y-458702D01*
X-251970Y-457744D01*
X-254450Y-457418D01*
X-256930Y-457744D01*
X-259241Y-458702D01*
X-261225Y-460224D01*
X-261730Y-460882D01*
X-263000Y-460451D01*
Y-457502D01*
X-268500D01*
Y-465002D01*
X-271000D01*
Y-467502D01*
X-279000D01*
Y-468502D01*
X-282000D01*
Y-489502D01*
X-280247D01*
X-279298Y-491791D01*
X-277775Y-493775D01*
X-275791Y-495298D01*
X-273480Y-496255D01*
X-271000Y-496582D01*
X-269770Y-496420D01*
X-268500Y-497534D01*
Y-513502D01*
Y-527502D01*
X-263003D01*
X-262748Y-529444D01*
X-261916Y-531451D01*
X-260924Y-532744D01*
X-261046Y-533309D01*
X-263322Y-535178D01*
X-264180Y-536222D01*
X-265450Y-535768D01*
Y-530850D01*
X-295350D01*
Y-560750D01*
X-275729D01*
X-275275Y-562020D01*
X-277172Y-563578D01*
X-279041Y-565854D01*
X-280429Y-568451D01*
X-281284Y-571269D01*
X-281572Y-574200D01*
X-281284Y-577131D01*
X-280429Y-579949D01*
X-279041Y-582546D01*
X-277172Y-584822D01*
X-274896Y-586691D01*
X-272299Y-588079D01*
X-269481Y-588934D01*
X-266550Y-589222D01*
X-263619Y-588934D01*
X-260801Y-588079D01*
X-258204Y-586691D01*
X-255928Y-584822D01*
X-254059Y-582546D01*
X-253335Y-581191D01*
X-252065D01*
X-251341Y-582546D01*
X-249472Y-584822D01*
X-247196Y-586691D01*
X-244599Y-588079D01*
X-241781Y-588934D01*
X-238850Y-589222D01*
X-235919Y-588934D01*
X-233101Y-588079D01*
X-230504Y-586691D01*
X-228228Y-584822D01*
X-226359Y-582546D01*
X-225635Y-581191D01*
X-224365D01*
X-223641Y-582546D01*
X-221772Y-584822D01*
X-219496Y-586691D01*
X-216899Y-588079D01*
X-214081Y-588934D01*
X-211150Y-589222D01*
X-208219Y-588934D01*
X-205401Y-588079D01*
X-202804Y-586691D01*
X-200528Y-584822D01*
X-198659Y-582546D01*
X-197935Y-581191D01*
X-196665D01*
X-195941Y-582546D01*
X-194072Y-584822D01*
X-191796Y-586691D01*
X-189199Y-588079D01*
X-186381Y-588934D01*
X-183450Y-589222D01*
X-180519Y-588934D01*
X-177701Y-588079D01*
X-175104Y-586691D01*
X-172828Y-584822D01*
X-170959Y-582546D01*
X-169571Y-579949D01*
X-168716Y-577131D01*
X-168428Y-574200D01*
X-168716Y-571269D01*
X-169571Y-568451D01*
X-170959Y-565854D01*
X-172828Y-563578D01*
X-175104Y-561709D01*
X-177701Y-560321D01*
X-180519Y-559466D01*
X-183450Y-559178D01*
X-186381Y-559466D01*
X-189199Y-560321D01*
X-191796Y-561709D01*
X-194072Y-563578D01*
X-195941Y-565854D01*
X-196665Y-567209D01*
X-197935D01*
X-198659Y-565854D01*
X-200528Y-563578D01*
X-202804Y-561709D01*
X-205401Y-560321D01*
X-208219Y-559466D01*
X-211150Y-559178D01*
X-214081Y-559466D01*
X-216899Y-560321D01*
X-219496Y-561709D01*
X-221772Y-563578D01*
X-223641Y-565854D01*
X-224365Y-567209D01*
X-225635D01*
X-226359Y-565854D01*
X-228228Y-563578D01*
X-230504Y-561709D01*
X-233101Y-560321D01*
X-235919Y-559466D01*
X-238850Y-559178D01*
X-241781Y-559466D01*
X-244599Y-560321D01*
X-247196Y-561709D01*
X-249472Y-563578D01*
X-251341Y-565854D01*
X-252065Y-567209D01*
X-253335D01*
X-254059Y-565854D01*
X-255928Y-563578D01*
X-258204Y-561709D01*
X-260801Y-560321D01*
X-263619Y-559466D01*
X-265450Y-559286D01*
Y-555832D01*
X-264180Y-555377D01*
X-263322Y-556422D01*
X-261046Y-558291D01*
X-258449Y-559679D01*
X-255631Y-560534D01*
X-252700Y-560822D01*
X-249769Y-560534D01*
X-246951Y-559679D01*
X-244354Y-558291D01*
X-242078Y-556422D01*
X-240209Y-554146D01*
X-239485Y-552791D01*
X-238215D01*
X-237491Y-554146D01*
X-235622Y-556422D01*
X-233346Y-558291D01*
X-230749Y-559679D01*
X-227931Y-560534D01*
X-225000Y-560822D01*
X-222069Y-560534D01*
X-219251Y-559679D01*
X-216654Y-558291D01*
X-214378Y-556422D01*
X-212509Y-554146D01*
X-211785Y-552791D01*
X-210515D01*
X-209791Y-554146D01*
X-207922Y-556422D01*
X-205646Y-558291D01*
X-203049Y-559679D01*
X-200231Y-560534D01*
X-197300Y-560822D01*
X-194369Y-560534D01*
X-191551Y-559679D01*
X-188954Y-558291D01*
X-186678Y-556422D01*
X-184809Y-554146D01*
X-183421Y-551549D01*
X-182566Y-548731D01*
X-182559Y-548652D01*
X-181280Y-548631D01*
X-181243Y-548920D01*
X-180038Y-551827D01*
X-178123Y-554323D01*
X-175627Y-556238D01*
X-172720Y-557442D01*
X-172100Y-557524D01*
Y-545800D01*
Y-534076D01*
X-172720Y-534158D01*
X-175627Y-535362D01*
X-178123Y-537277D01*
X-180038Y-539773D01*
X-181243Y-542680D01*
X-181280Y-542969D01*
X-182559Y-542948D01*
X-182566Y-542869D01*
X-183421Y-540051D01*
X-184809Y-537454D01*
X-185473Y-536645D01*
X-184856Y-535535D01*
X-184500Y-535582D01*
X-182020Y-535256D01*
X-179709Y-534298D01*
X-177724Y-532775D01*
X-176202Y-530791D01*
X-175245Y-528480D01*
X-175115Y-527498D01*
X-174000D01*
Y-513498D01*
Y-492498D01*
X-176679D01*
X-176917Y-490687D01*
X-176259Y-489320D01*
X-175770Y-489255D01*
X-173459Y-488298D01*
X-171900Y-487102D01*
X-170341Y-488298D01*
X-168030Y-489255D01*
X-165550Y-489582D01*
X-163070Y-489255D01*
X-160759Y-488298D01*
X-158774Y-486776D01*
X-157252Y-484791D01*
X-156294Y-482480D01*
X-155968Y-480000D01*
Y-467000D01*
X-156294Y-464520D01*
X-157252Y-462209D01*
X-158774Y-460224D01*
X-160759Y-458702D01*
X-163070Y-457744D01*
X-165550Y-457418D01*
D02*
G37*
G36*
X-273500Y-457502D02*
X-279000D01*
Y-462502D01*
X-273500D01*
Y-457502D01*
D02*
G37*
G36*
X207500Y-480498D02*
X202000D01*
Y-485498D01*
X207500D01*
Y-480498D01*
D02*
G37*
G36*
X75550Y-485959D02*
Y-499000D01*
X80110D01*
Y-492500D01*
X79870Y-490673D01*
X79165Y-488970D01*
X78042Y-487508D01*
X76580Y-486385D01*
X75550Y-485959D01*
D02*
G37*
G36*
X-342000Y-494502D02*
X-347500D01*
Y-499502D01*
X-342000D01*
Y-494502D01*
D02*
G37*
G36*
X-352500D02*
X-358000D01*
Y-499502D01*
X-352500D01*
Y-494502D01*
D02*
G37*
G36*
X17500Y-513498D02*
X12000D01*
Y-518498D01*
X17500D01*
Y-513498D01*
D02*
G37*
G36*
X138216Y-507924D02*
X123500D01*
Y-522005D01*
X138216D01*
Y-507924D01*
D02*
G37*
G36*
X3216D02*
X-11500D01*
Y-522005D01*
X3216D01*
Y-507924D01*
D02*
G37*
G36*
X118500D02*
X103784D01*
Y-522005D01*
X118500D01*
Y-507924D01*
D02*
G37*
G36*
X-16500D02*
X-31216D01*
Y-522005D01*
X-16500D01*
Y-507924D01*
D02*
G37*
G36*
X138216Y-527005D02*
X123500D01*
Y-541086D01*
X138216D01*
Y-527005D01*
D02*
G37*
G36*
X118500D02*
X103784D01*
Y-541086D01*
X118500D01*
Y-527005D01*
D02*
G37*
G36*
X3216D02*
X-11500D01*
Y-541086D01*
X3216D01*
Y-527005D01*
D02*
G37*
G36*
X-16500D02*
X-31216D01*
Y-541086D01*
X-16500D01*
Y-527005D01*
D02*
G37*
G36*
X-167100Y-534076D02*
Y-543300D01*
X-157876D01*
X-157958Y-542680D01*
X-159162Y-539773D01*
X-161077Y-537277D01*
X-163573Y-535362D01*
X-166481Y-534158D01*
X-167100Y-534076D01*
D02*
G37*
G36*
X-429000Y-542502D02*
X-434500D01*
Y-547502D01*
X-429000D01*
Y-542502D01*
D02*
G37*
G36*
X-157876Y-548300D02*
X-167100D01*
Y-557524D01*
X-166481Y-557442D01*
X-163573Y-556238D01*
X-161077Y-554323D01*
X-159162Y-551827D01*
X-157958Y-548920D01*
X-157876Y-548300D01*
D02*
G37*
G36*
X20000Y-479418D02*
X17520Y-479744D01*
X15209Y-480702D01*
X13225Y-482225D01*
X11702Y-484209D01*
X10754Y-486498D01*
X9000D01*
Y-507498D01*
X12000D01*
Y-508498D01*
X20000D01*
Y-510998D01*
X22500D01*
Y-518498D01*
X28000D01*
Y-518498D01*
X28576Y-518214D01*
X29907Y-519235D01*
X32339Y-520243D01*
X34950Y-520586D01*
X35045Y-520574D01*
X36000Y-521411D01*
Y-533439D01*
X35714Y-533477D01*
X33586Y-534358D01*
X31758Y-535761D01*
X25264Y-542254D01*
X23862Y-544082D01*
X22980Y-546211D01*
X22680Y-548495D01*
Y-551784D01*
X11924D01*
Y-563175D01*
X6216D01*
Y-551914D01*
X-34216D01*
Y-591076D01*
X6216D01*
Y-580826D01*
X11924D01*
Y-592216D01*
X22680D01*
Y-595505D01*
X22980Y-597789D01*
X23862Y-599918D01*
X25264Y-601746D01*
X31174Y-607656D01*
Y-611575D01*
X31068Y-611632D01*
X28632Y-613632D01*
X26632Y-616068D01*
X25146Y-618847D01*
X24232Y-621864D01*
X23923Y-625000D01*
X24232Y-628136D01*
X25146Y-631153D01*
X26632Y-633932D01*
X28632Y-636368D01*
X31068Y-638368D01*
X31174Y-638425D01*
Y-640000D01*
X31475Y-642284D01*
X32357Y-644413D01*
X33759Y-646241D01*
X39759Y-652241D01*
X41587Y-653643D01*
X43716Y-654525D01*
X46000Y-654826D01*
X96000D01*
X98284Y-654525D01*
X100413Y-653643D01*
X102241Y-652241D01*
X112827Y-641654D01*
X114000Y-642141D01*
Y-643498D01*
X116978D01*
X117357Y-644413D01*
X118000Y-645251D01*
Y-671300D01*
X121884D01*
X122292Y-672503D01*
X122015Y-672715D01*
X119771Y-675640D01*
X118360Y-679045D01*
X117879Y-682700D01*
X118360Y-686355D01*
X119771Y-689760D01*
X122015Y-692685D01*
X124940Y-694929D01*
X128345Y-696340D01*
X132000Y-696821D01*
X135655Y-696340D01*
X139060Y-694929D01*
X141985Y-692685D01*
X142874Y-691525D01*
X146300D01*
X148584Y-691225D01*
X150713Y-690343D01*
X152541Y-688941D01*
X155241Y-686241D01*
X156643Y-684413D01*
X157525Y-682284D01*
X157825Y-680000D01*
Y-649000D01*
X157525Y-646716D01*
X156643Y-644587D01*
X155241Y-642759D01*
X151000Y-638519D01*
Y-629498D01*
Y-608498D01*
X148826D01*
Y-607000D01*
X148525Y-604716D01*
X147643Y-602587D01*
X146241Y-600759D01*
X142241Y-596759D01*
X140413Y-595357D01*
X138284Y-594475D01*
X136000Y-594174D01*
X104000D01*
X101716Y-594475D01*
X99587Y-595357D01*
X97759Y-596759D01*
X90759Y-603759D01*
X89357Y-605587D01*
X88475Y-607716D01*
X88306Y-609000D01*
X83827D01*
Y-592216D01*
X98076D01*
Y-580826D01*
X100784D01*
Y-591076D01*
X141216D01*
Y-551914D01*
X100784D01*
Y-563175D01*
X98076D01*
Y-551784D01*
X85321D01*
Y-548495D01*
X85020Y-546211D01*
X84138Y-544082D01*
X82736Y-542254D01*
X76242Y-535761D01*
X74414Y-534358D01*
X72286Y-533477D01*
X72000Y-533439D01*
Y-518703D01*
X73050Y-517560D01*
X73257Y-517533D01*
X74877Y-517320D01*
X76580Y-516614D01*
X78042Y-515492D01*
X79165Y-514030D01*
X79870Y-512327D01*
X80110Y-510500D01*
Y-504000D01*
X73050D01*
Y-501500D01*
X70550D01*
Y-485959D01*
X69520Y-486385D01*
X68729Y-486992D01*
X67482Y-485368D01*
X65393Y-483765D01*
X62961Y-482757D01*
X60350Y-482414D01*
X57740Y-482757D01*
X55307Y-483765D01*
X54000Y-484768D01*
X52693Y-483765D01*
X50261Y-482757D01*
X47650Y-482414D01*
X45040Y-482757D01*
X42607Y-483765D01*
X41300Y-484768D01*
X39993Y-483765D01*
X37561Y-482757D01*
X34950Y-482414D01*
X32339Y-482757D01*
X29907Y-483765D01*
X29062Y-484413D01*
X28298Y-484209D01*
X26776Y-482225D01*
X24791Y-480702D01*
X22480Y-479744D01*
X20000Y-479418D01*
D02*
G37*
G36*
X892173Y-531600D02*
X888627D01*
X885150Y-532292D01*
X881874Y-533649D01*
X878926Y-535619D01*
X876419Y-538126D01*
X874449Y-541074D01*
X873092Y-544350D01*
X872400Y-547827D01*
Y-551373D01*
X873092Y-554850D01*
X874449Y-558126D01*
X876419Y-561074D01*
X878926Y-563582D01*
X881874Y-565551D01*
X885150Y-566908D01*
X888627Y-567600D01*
X892173D01*
X895650Y-566908D01*
X898926Y-565551D01*
X901874Y-563582D01*
X904381Y-561074D01*
X906351Y-558126D01*
X907708Y-554850D01*
X908400Y-551373D01*
Y-547827D01*
X907708Y-544350D01*
X906351Y-541074D01*
X904381Y-538126D01*
X901874Y-535619D01*
X898926Y-533649D01*
X895650Y-532292D01*
X892173Y-531600D01*
D02*
G37*
G36*
X-888627D02*
X-892173D01*
X-895650Y-532292D01*
X-898926Y-533649D01*
X-901874Y-535619D01*
X-904381Y-538126D01*
X-906351Y-541074D01*
X-907708Y-544350D01*
X-908400Y-547827D01*
Y-551373D01*
X-907708Y-554850D01*
X-906351Y-558126D01*
X-904381Y-561074D01*
X-901874Y-563582D01*
X-898926Y-565551D01*
X-895650Y-566908D01*
X-892173Y-567600D01*
X-888627D01*
X-885150Y-566908D01*
X-881874Y-565551D01*
X-878926Y-563582D01*
X-876419Y-561074D01*
X-874449Y-558126D01*
X-873092Y-554850D01*
X-872400Y-551373D01*
Y-547827D01*
X-873092Y-544350D01*
X-874449Y-541074D01*
X-876419Y-538126D01*
X-878926Y-535619D01*
X-881874Y-533649D01*
X-885150Y-532292D01*
X-888627Y-531600D01*
D02*
G37*
G36*
X203216Y-554914D02*
X188500D01*
Y-568995D01*
X203216D01*
Y-554914D01*
D02*
G37*
G36*
X183500D02*
X168784D01*
Y-568995D01*
X183500D01*
Y-554914D01*
D02*
G37*
G36*
X319216D02*
X304500D01*
Y-568995D01*
X319216D01*
Y-554914D01*
D02*
G37*
G36*
X299500D02*
X284784D01*
Y-568995D01*
X299500D01*
Y-554914D01*
D02*
G37*
G36*
X-398000Y-569500D02*
X-405000D01*
Y-582500D01*
X-398000D01*
Y-569500D01*
D02*
G37*
G36*
X-410000D02*
X-417000D01*
Y-582500D01*
X-410000D01*
Y-569500D01*
D02*
G37*
G36*
X319216Y-573995D02*
X304500D01*
Y-588076D01*
X319216D01*
Y-573995D01*
D02*
G37*
G36*
X299500D02*
X284784D01*
Y-588076D01*
X299500D01*
Y-573995D01*
D02*
G37*
G36*
X203216Y-573995D02*
X188500D01*
Y-588076D01*
X203216D01*
Y-573995D01*
D02*
G37*
G36*
X183500D02*
X168784D01*
Y-588076D01*
X183500D01*
Y-573995D01*
D02*
G37*
G36*
X-398000Y-587500D02*
X-405000D01*
Y-600500D01*
X-398000D01*
Y-587500D01*
D02*
G37*
G36*
X-410000D02*
X-417000D01*
Y-600500D01*
X-410000D01*
Y-587500D01*
D02*
G37*
G36*
X207502Y-612217D02*
Y-622500D01*
X217784D01*
X217667Y-621606D01*
X216357Y-618444D01*
X214273Y-615728D01*
X211557Y-613644D01*
X208395Y-612335D01*
X207502Y-612217D01*
D02*
G37*
G36*
X7502Y-612217D02*
Y-622500D01*
X17784D01*
X17667Y-621606D01*
X16357Y-618444D01*
X14273Y-615728D01*
X11557Y-613644D01*
X8395Y-612335D01*
X7502Y-612217D01*
D02*
G37*
G36*
X2501Y-612217D02*
X1608Y-612335D01*
X-1555Y-613644D01*
X-4270Y-615728D01*
X-6354Y-618444D01*
X-7664Y-621606D01*
X-7782Y-622500D01*
X2501D01*
Y-612217D01*
D02*
G37*
G36*
X202502D02*
X201608Y-612335D01*
X198445Y-613644D01*
X195730Y-615728D01*
X193646Y-618444D01*
X192336Y-621606D01*
X192218Y-622500D01*
X202502D01*
Y-612217D01*
D02*
G37*
G36*
X217784Y-627500D02*
X207502D01*
Y-637783D01*
X208395Y-637665D01*
X211557Y-636355D01*
X214273Y-634272D01*
X216357Y-631556D01*
X217667Y-628394D01*
X217784Y-627500D01*
D02*
G37*
G36*
X17784D02*
X7502D01*
Y-637783D01*
X8395Y-637665D01*
X11557Y-636355D01*
X14273Y-634272D01*
X16357Y-631556D01*
X17667Y-628394D01*
X17784Y-627500D01*
D02*
G37*
G36*
X2501D02*
X-7782D01*
X-7664Y-628394D01*
X-6354Y-631556D01*
X-4270Y-634272D01*
X-1555Y-636355D01*
X1608Y-637665D01*
X2501Y-637783D01*
Y-627500D01*
D02*
G37*
G36*
X202502D02*
X192218D01*
X192336Y-628394D01*
X193646Y-631556D01*
X195730Y-634272D01*
X198445Y-636355D01*
X201608Y-637665D01*
X202502Y-637783D01*
Y-627500D01*
D02*
G37*
G36*
X-342000Y-504502D02*
X-350000D01*
X-358000D01*
Y-505502D01*
X-361000D01*
Y-526502D01*
X-360591D01*
Y-531611D01*
X-363748Y-532919D01*
X-367815Y-535411D01*
X-371442Y-538508D01*
X-374539Y-542135D01*
X-377031Y-546202D01*
X-378856Y-550608D01*
X-379969Y-555245D01*
X-380344Y-560000D01*
X-379969Y-564755D01*
X-378856Y-569392D01*
X-377031Y-573798D01*
X-374539Y-577865D01*
X-371442Y-581492D01*
X-369042Y-583541D01*
Y-614050D01*
X-369042Y-614050D01*
X-368675Y-617775D01*
X-367589Y-621356D01*
X-365824Y-624657D01*
X-363450Y-627550D01*
X-335000Y-656000D01*
X-335000Y-656000D01*
X-332107Y-658374D01*
X-328806Y-660139D01*
X-325225Y-661225D01*
X-321500Y-661592D01*
X-130500D01*
X-130500Y-661592D01*
X-126775Y-661225D01*
X-123194Y-660139D01*
X-119893Y-658374D01*
X-117000Y-656000D01*
X-86550Y-625550D01*
X-86550Y-625550D01*
X-84176Y-622657D01*
X-82411Y-619356D01*
X-81325Y-615775D01*
X-80958Y-612050D01*
X-80958Y-612050D01*
Y-583541D01*
X-78558Y-581492D01*
X-75461Y-577865D01*
X-72969Y-573798D01*
X-71144Y-569392D01*
X-70030Y-564755D01*
X-69656Y-560000D01*
X-70030Y-555245D01*
X-71144Y-550608D01*
X-72969Y-546202D01*
X-75461Y-542135D01*
X-78558Y-538508D01*
X-82185Y-535411D01*
X-86252Y-532919D01*
X-90658Y-531094D01*
X-95295Y-529981D01*
X-100050Y-529606D01*
X-104805Y-529981D01*
X-109442Y-531094D01*
X-113848Y-532919D01*
X-117915Y-535411D01*
X-121542Y-538508D01*
X-124639Y-542135D01*
X-127131Y-546202D01*
X-128956Y-550608D01*
X-130070Y-555245D01*
X-130444Y-560000D01*
X-130070Y-564755D01*
X-128956Y-569392D01*
X-127131Y-573798D01*
X-124639Y-577865D01*
X-121542Y-581492D01*
X-119142Y-583541D01*
Y-604142D01*
X-138408Y-623408D01*
X-313592D01*
X-330858Y-606142D01*
Y-583541D01*
X-328458Y-581492D01*
X-325361Y-577865D01*
X-322869Y-573798D01*
X-321044Y-569392D01*
X-319930Y-564755D01*
X-319556Y-560000D01*
X-319930Y-555245D01*
X-321044Y-550608D01*
X-322869Y-546202D01*
X-325361Y-542135D01*
X-328458Y-538508D01*
X-332085Y-535411D01*
X-336152Y-532919D01*
X-339409Y-531570D01*
Y-526502D01*
X-339000D01*
Y-505502D01*
X-342000D01*
Y-504502D01*
D02*
G37*
G36*
X-398000Y-659500D02*
X-405000D01*
Y-672500D01*
X-398000D01*
Y-659500D01*
D02*
G37*
G36*
X-410000D02*
X-417000D01*
Y-672500D01*
X-410000D01*
Y-659500D01*
D02*
G37*
G36*
X-398000Y-677500D02*
X-405000D01*
Y-690500D01*
X-398000D01*
Y-677500D01*
D02*
G37*
G36*
X-410000D02*
X-417000D01*
Y-690500D01*
X-410000D01*
Y-677500D01*
D02*
G37*
G36*
X-453000Y-531418D02*
X-455480Y-531744D01*
X-457791Y-532702D01*
X-459776Y-534225D01*
X-461298Y-536209D01*
X-462256Y-538520D01*
X-462384Y-539498D01*
X-464000D01*
Y-560498D01*
Y-566500D01*
X-465000D01*
Y-603500D01*
X-461825D01*
Y-656500D01*
X-465000D01*
Y-693500D01*
X-440000D01*
Y-656500D01*
X-444174D01*
Y-603500D01*
X-440000D01*
Y-574502D01*
X-426000D01*
Y-553502D01*
X-429000D01*
Y-552502D01*
X-437000D01*
Y-550002D01*
X-439500D01*
Y-542502D01*
X-442000D01*
Y-539498D01*
X-443616D01*
X-443745Y-538520D01*
X-444702Y-536209D01*
X-446225Y-534225D01*
X-448209Y-532702D01*
X-450520Y-531744D01*
X-453000Y-531418D01*
D02*
G37*
%LPD*%
G36*
X-491500Y-351500D02*
X-503000D01*
X-504500Y-348500D01*
X-506500Y-345500D01*
X-509500Y-342000D01*
X-513500Y-339000D01*
X-518500Y-336500D01*
X-522500Y-335500D01*
X-528000Y-335000D01*
X-491500D01*
Y-351500D01*
D02*
G37*
G36*
X-533000Y-335500D02*
X-535000Y-336000D01*
X-537000Y-336500D01*
X-539500Y-337500D01*
X-541500Y-338500D01*
X-544000Y-340000D01*
X-546500Y-342000D01*
X-547000Y-342500D01*
X-549000Y-345000D01*
X-551500Y-348500D01*
X-553000Y-351500D01*
X-564500D01*
Y-335000D01*
X-528000D01*
X-533000Y-335500D01*
D02*
G37*
G36*
X-491500Y-389000D02*
X-528000D01*
X-523000Y-388500D01*
X-520500Y-388000D01*
X-518500Y-387500D01*
X-515500Y-386000D01*
X-512000Y-384000D01*
X-508500Y-381000D01*
X-506000Y-378000D01*
X-505000Y-376500D01*
X-503000Y-372500D01*
X-491500D01*
Y-389000D01*
D02*
G37*
G36*
X-551000Y-376500D02*
X-549500Y-378500D01*
X-547500Y-381000D01*
X-544000Y-384000D01*
X-541500Y-385500D01*
X-539500Y-386500D01*
X-533500Y-388500D01*
X-528000Y-389000D01*
X-564500D01*
Y-372500D01*
X-553000D01*
X-551000Y-376500D01*
D02*
G37*
D10*
X-455354Y-255000D02*
G03*
X-452000Y-255500I3354J11000D01*
G01*
X-455354Y-255000D02*
G03*
X-452000Y-255500I3354J11000D01*
G01*
X-417000Y-354174D02*
G03*
X-424000Y-351500I-7000J-7826D01*
G01*
X-417000Y-354174D02*
G03*
X-424000Y-351500I-7000J-7826D01*
G01*
X-538500Y-212000D02*
G03*
X-545000Y-201644I-11500J0D01*
G01*
Y-222356D02*
G03*
X-538500Y-212000I-5000J10356D01*
G01*
X-579500Y-312500D02*
G03*
X-582000Y-305699I-10500J0D01*
G01*
X-579500Y-312500D02*
G03*
X-582000Y-305699I-10500J0D01*
G01*
X-565026Y-351500D02*
G03*
X-566930Y-351669I-26J-10500D01*
G01*
X-566930D02*
G03*
X-572375Y-348000I-5445J-2206D01*
G01*
X-616998Y-348500D02*
G03*
X-613644Y-348000I0J11500D01*
G01*
X-612709D02*
G03*
X-612093Y-349252I9708J4002D01*
G01*
X-612709Y-348000D02*
G03*
X-612093Y-349252I9708J4002D01*
G01*
X-628354Y-348000D02*
G03*
X-625000Y-348500I3354J11000D01*
G01*
X-628354Y-348000D02*
G03*
X-625000Y-348500I3354J11000D01*
G01*
X-567152Y-366184D02*
G03*
X-565052Y-362000I-8098J6684D01*
G01*
X-566500Y-368875D02*
G03*
X-567152Y-366184I-5875J0D01*
G01*
X-572375Y-376000D02*
G03*
X-566500Y-370125I0J5875D01*
G01*
X-570500Y-384000D02*
G03*
X-573500Y-376651I-10500J0D01*
G01*
X-570500Y-384000D02*
G03*
X-573500Y-376651I-10500J0D01*
G01*
X-425504Y-262333D02*
Y-255500D01*
X-428004Y-262333D02*
Y-255500D01*
X-423004Y-262333D02*
Y-256996D01*
X-435504Y-262333D02*
Y-255500D01*
X-430504Y-262333D02*
Y-255500D01*
X-420968Y-264504D02*
X-417000D01*
X-424500Y-255500D02*
X-417000Y-263000D01*
X-420968Y-267004D02*
X-417000D01*
X-433004Y-262333D02*
Y-255500D01*
X-440504Y-262333D02*
Y-255500D01*
X-452000D02*
X-424500D01*
X-441628Y-262333D02*
X-420968D01*
X-438004D02*
Y-255500D01*
X-465448Y-263850D02*
X-447948D01*
Y-264504D02*
X-441628D01*
X-450504Y-263850D02*
Y-255500D01*
X-448004Y-263850D02*
Y-255500D01*
X-420968Y-272004D02*
X-417000D01*
X-420968Y-269504D02*
X-417000D01*
X-420968Y-274504D02*
X-417000D01*
X-420968Y-277004D02*
X-417000D01*
X-420968Y-284504D02*
X-417000D01*
X-420968Y-282004D02*
X-417000D01*
X-420968Y-287004D02*
X-417000D01*
X-420968Y-279504D02*
X-417000D01*
X-447948Y-274504D02*
X-441628D01*
X-447948Y-272004D02*
X-441628D01*
X-447948Y-277004D02*
X-441628D01*
X-447948Y-267004D02*
X-441628D01*
X-447948Y-269504D02*
X-441628D01*
X-447948Y-284504D02*
X-441628D01*
X-447948Y-287004D02*
X-441628D01*
X-447948Y-279504D02*
X-441628D01*
X-447948Y-282004D02*
X-441628D01*
X-480000Y-178000D02*
X-477000Y-181000D01*
X-505332Y-179504D02*
X-478496D01*
X-505332Y-182004D02*
X-477000D01*
X-482000Y-176000D02*
X-480000Y-178000D01*
X-505332Y-177004D02*
X-480996D01*
X-477000Y-196000D02*
Y-181000D01*
X-505332Y-184504D02*
X-477000D01*
X-505332Y-187004D02*
X-477000D01*
X-505332Y-197328D02*
Y-176668D01*
X-477000Y-249000D02*
Y-196000D01*
X-505332Y-192004D02*
X-477000D01*
X-505332Y-189504D02*
X-477000D01*
X-505332Y-197004D02*
X-477000D01*
X-505332Y-194504D02*
X-477000D01*
X-510504Y-203648D02*
Y-197328D01*
X-508004Y-203648D02*
Y-197328D01*
X-515504Y-203648D02*
Y-197328D01*
X-513004Y-203648D02*
Y-197328D01*
X-458004Y-263850D02*
Y-255000D01*
X-473000Y-253000D02*
X-471000Y-255000D01*
X-455354D01*
X-506849Y-207004D02*
X-477000D01*
Y-249000D02*
X-473000Y-253000D01*
X-455504Y-263850D02*
Y-255000D01*
X-460504Y-263850D02*
Y-255000D01*
X-453004Y-263850D02*
Y-255456D01*
X-463004Y-263850D02*
Y-255000D01*
X-465448Y-289350D02*
Y-263850D01*
X-506849Y-209504D02*
X-477000D01*
X-506849Y-204504D02*
X-477000D01*
X-506849Y-212004D02*
X-477000D01*
X-520504Y-203648D02*
Y-197328D01*
X-518004Y-203648D02*
Y-197328D01*
X-506849Y-214504D02*
X-477000D01*
X-506849Y-217004D02*
X-477000D01*
X-506849Y-221148D02*
Y-203648D01*
Y-219504D02*
X-477000D01*
X-420968Y-290867D02*
Y-262333D01*
Y-289504D02*
X-417000D01*
X-445504Y-351500D02*
Y-255500D01*
X-441628Y-290867D02*
Y-262333D01*
X-418004Y-353380D02*
Y-261996D01*
X-420504Y-352099D02*
Y-259496D01*
X-417000Y-354174D02*
Y-263000D01*
X-443004Y-351500D02*
Y-255500D01*
X-423004Y-351547D02*
Y-290867D01*
X-447948Y-289350D02*
Y-263850D01*
X-465448Y-289350D02*
X-447948D01*
X-448004Y-351500D02*
Y-289350D01*
X-453004Y-351500D02*
Y-289350D01*
X-450504Y-351500D02*
Y-289350D01*
X-458004Y-351500D02*
Y-289350D01*
X-455504Y-351500D02*
Y-289350D01*
X-463004Y-351500D02*
Y-289350D01*
X-460504Y-351500D02*
Y-289350D01*
X-428004Y-351500D02*
Y-290867D01*
X-430504Y-351500D02*
Y-290867D01*
X-425504Y-351500D02*
Y-290867D01*
X-440504Y-351500D02*
Y-290867D01*
X-433004Y-351500D02*
Y-290867D01*
X-420787Y-352004D02*
X-417000D01*
X-438004Y-351500D02*
Y-290867D01*
X-435504Y-351500D02*
Y-290867D01*
X-486250Y-327004D02*
X-417000D01*
X-486250Y-324504D02*
X-417000D01*
X-486250Y-329504D02*
X-417000D01*
X-441628Y-290867D02*
X-420968D01*
X-486250Y-322004D02*
X-417000D01*
X-486250Y-337004D02*
X-417000D01*
X-486250Y-339504D02*
X-417000D01*
X-486250Y-332004D02*
X-417000D01*
X-486250Y-334504D02*
X-417000D01*
X-490504Y-320250D02*
Y-176000D01*
X-493004Y-320250D02*
Y-176000D01*
X-488004Y-320250D02*
Y-176000D01*
X-498004Y-320250D02*
Y-176000D01*
X-495504Y-320250D02*
Y-176000D01*
X-478004Y-351500D02*
Y-179996D01*
X-480504Y-351500D02*
Y-177496D01*
X-475504Y-351500D02*
Y-250496D01*
X-485504Y-351500D02*
Y-176000D01*
X-483004Y-351500D02*
Y-176000D01*
X-513004Y-320250D02*
Y-221148D01*
X-515504Y-320250D02*
Y-221148D01*
X-510504Y-320250D02*
Y-221148D01*
X-520504Y-320250D02*
Y-221148D01*
X-518004Y-320250D02*
Y-221148D01*
X-503004Y-320250D02*
Y-176000D01*
X-500504Y-320250D02*
Y-176000D01*
X-505504Y-320250D02*
Y-197328D01*
X-508004Y-320250D02*
Y-221148D01*
X-468004Y-351500D02*
Y-255000D01*
X-470504Y-351500D02*
Y-255000D01*
X-465504Y-351500D02*
Y-255000D01*
X-473004Y-351500D02*
Y-252996D01*
X-486250Y-340250D02*
Y-320250D01*
X-490504Y-351500D02*
Y-340250D01*
X-493004Y-351500D02*
Y-340250D01*
X-488004Y-351500D02*
Y-340250D01*
X-498004Y-351500D02*
Y-340250D01*
X-495504Y-351500D02*
Y-340250D01*
X-513004Y-351500D02*
Y-340250D01*
X-515504Y-351500D02*
Y-340250D01*
X-510504Y-351500D02*
Y-340250D01*
X-520504Y-351500D02*
Y-340250D01*
X-518004Y-351500D02*
Y-340250D01*
X-503004Y-351500D02*
Y-340250D01*
X-500504Y-351500D02*
Y-340250D01*
X-508004Y-351500D02*
Y-340250D01*
X-505504Y-351500D02*
Y-340250D01*
X-536000Y-176000D02*
X-482000D01*
X-545000Y-199504D02*
X-477000D01*
X-544314Y-202004D02*
X-477000D01*
X-533866Y-176668D02*
X-505332D01*
X-533866Y-197328D02*
X-505332D01*
X-545000Y-227004D02*
X-477000D01*
X-545000Y-224504D02*
X-477000D01*
X-545000Y-229504D02*
X-477000D01*
X-532349Y-221148D02*
X-506849D01*
X-544328Y-222004D02*
X-477000D01*
X-575603Y-237004D02*
X-477000D01*
X-577603Y-239504D02*
X-477000D01*
X-579603Y-242004D02*
X-477000D01*
X-545004Y-232004D02*
X-477000D01*
X-547504Y-234504D02*
X-477000D01*
X-582000Y-252004D02*
X-473996D01*
X-582000Y-249504D02*
X-476496D01*
X-582000Y-254504D02*
X-471496D01*
X-581603Y-244504D02*
X-477000D01*
X-582000Y-247004D02*
X-477000D01*
X-582000Y-287004D02*
X-465448D01*
X-582000Y-284504D02*
X-465448D01*
X-582000Y-289504D02*
X-441628D01*
X-582000Y-279504D02*
X-465448D01*
X-582000Y-282004D02*
X-465448D01*
X-582000Y-299504D02*
X-417000D01*
X-582000Y-297004D02*
X-417000D01*
X-582000Y-302004D02*
X-417000D01*
X-582000Y-292004D02*
X-417000D01*
X-582000Y-294504D02*
X-417000D01*
X-582000Y-259504D02*
X-420496D01*
X-582000Y-257004D02*
X-422996D01*
X-582000Y-262004D02*
X-417996D01*
X-582000Y-264504D02*
X-465448D01*
X-582000Y-267004D02*
X-465448D01*
X-582000Y-274504D02*
X-465448D01*
X-582000Y-277004D02*
X-465448D01*
X-582000Y-269504D02*
X-465448D01*
X-582000Y-272004D02*
X-465448D01*
X-543504Y-179504D02*
X-533866D01*
X-540000Y-176000D02*
X-536000D01*
X-541004Y-177004D02*
X-533866D01*
Y-197328D02*
Y-176668D01*
X-523004Y-203648D02*
Y-197328D01*
X-540504Y-205513D02*
Y-176504D01*
X-543004Y-202873D02*
Y-179004D01*
X-545000Y-187004D02*
X-533866D01*
X-545000Y-184504D02*
X-533866D01*
X-545000Y-189504D02*
X-533866D01*
X-545000Y-181000D02*
X-540000Y-176000D01*
X-545000Y-182004D02*
X-533866D01*
X-545000Y-192004D02*
X-533866D01*
X-545000Y-194504D02*
X-533866D01*
X-545000Y-201644D02*
Y-181000D01*
Y-197004D02*
X-533866D01*
X-525504Y-203648D02*
Y-197328D01*
X-528004Y-203648D02*
Y-197328D01*
X-532349Y-203648D02*
X-506849D01*
X-530504D02*
Y-197328D01*
X-539642Y-207004D02*
X-532349D01*
Y-221148D02*
Y-203648D01*
X-538776Y-214504D02*
X-532349D01*
X-539646Y-217004D02*
X-532349D01*
X-538774Y-209504D02*
X-532349D01*
X-538500Y-212004D02*
X-532349D01*
X-541279Y-204504D02*
X-532349D01*
X-541286Y-219504D02*
X-532349D01*
X-545000Y-232000D02*
Y-222356D01*
X-548000Y-235000D02*
X-545000Y-232000D01*
X-560000Y-235000D02*
X-548000D01*
X-582000Y-245000D02*
X-574000Y-235000D01*
X-560000D01*
X-525504Y-320250D02*
Y-221148D01*
X-528004Y-320250D02*
Y-221148D01*
X-523004Y-320250D02*
Y-221148D01*
X-533004Y-320250D02*
Y-197328D01*
X-530504Y-320250D02*
Y-221148D01*
X-535504Y-320250D02*
Y-176000D01*
X-538004Y-320250D02*
Y-176000D01*
X-540504Y-320250D02*
Y-218487D01*
X-543004Y-320250D02*
Y-221127D01*
X-579512Y-312004D02*
X-417000D01*
X-579937Y-309504D02*
X-417000D01*
X-566248Y-314504D02*
X-417000D01*
X-582000Y-304504D02*
X-417000D01*
X-581053Y-307004D02*
X-417000D01*
X-566248Y-317004D02*
X-417000D01*
X-566248Y-319504D02*
X-417000D01*
X-545504Y-320250D02*
Y-232504D01*
X-548004Y-320250D02*
Y-235000D01*
X-523004Y-351500D02*
Y-340250D01*
X-530504Y-351500D02*
Y-340250D01*
X-528004Y-351500D02*
Y-340250D01*
X-533004Y-351500D02*
Y-340250D01*
X-535504Y-351500D02*
Y-340250D01*
X-525504Y-351500D02*
Y-340250D01*
X-540504Y-351500D02*
Y-340250D01*
X-538004Y-351500D02*
Y-340250D01*
X-565748Y-344504D02*
X-417000D01*
X-565748Y-342004D02*
X-417000D01*
X-573500Y-347004D02*
X-417000D01*
X-566248Y-320250D02*
X-486250D01*
X-565748Y-340250D02*
X-486250D01*
X-568450Y-349504D02*
X-417000D01*
X-565000Y-351500D02*
X-424000D01*
X-545504D02*
Y-340250D01*
X-543004Y-351500D02*
Y-340250D01*
X-563004Y-320250D02*
Y-235000D01*
X-565504Y-320250D02*
Y-235000D01*
X-566248Y-320250D02*
Y-312750D01*
X-570504D02*
Y-235000D01*
X-568004Y-312750D02*
Y-235000D01*
X-553004Y-320250D02*
Y-235000D01*
X-555504Y-320250D02*
Y-235000D01*
X-550504Y-320250D02*
Y-235000D01*
X-560504Y-320250D02*
Y-235000D01*
X-558004Y-320250D02*
Y-235000D01*
X-575504Y-312750D02*
Y-236880D01*
X-580504Y-308020D02*
Y-243130D01*
X-582000Y-305699D02*
Y-245000D01*
X-579500Y-312750D02*
X-566248D01*
X-573004D02*
Y-235000D01*
X-578004Y-312750D02*
Y-240005D01*
X-550504Y-351500D02*
Y-340250D01*
X-553004Y-351500D02*
Y-340250D01*
X-548004Y-351500D02*
Y-340250D01*
X-565748Y-346750D02*
Y-340250D01*
X-555504Y-351500D02*
Y-340250D01*
X-560504Y-351500D02*
Y-340250D01*
X-563004Y-351500D02*
Y-340250D01*
X-558004Y-351500D02*
Y-340250D01*
X-565504Y-351510D02*
Y-340250D01*
X-573503Y-346750D02*
X-565748D01*
X-573004Y-348000D02*
Y-346750D01*
X-573500Y-348000D02*
X-572375D01*
X-568004Y-349949D02*
Y-346750D01*
X-570504Y-348306D02*
Y-346750D01*
X-573500Y-348000D02*
Y-347000D01*
X-490000Y-485000D02*
X-480000D01*
X-475000Y-490000D01*
X-493004Y-544000D02*
Y-485000D01*
X-485504Y-544000D02*
Y-485000D01*
X-515504Y-544000D02*
Y-485000D01*
X-498004Y-544000D02*
Y-485000D01*
X-518004Y-544000D02*
Y-485000D01*
X-621000Y-485000D02*
X-490000Y-485000D01*
X-540504Y-544000D02*
Y-485000D01*
X-543004Y-544000D02*
Y-485000D01*
X-523004Y-544000D02*
Y-485000D01*
X-520504Y-544000D02*
Y-485000D01*
X-538004Y-544000D02*
Y-485000D01*
X-475504Y-540504D02*
Y-489496D01*
X-475000Y-540000D02*
Y-490000D01*
X-478004Y-543004D02*
Y-486996D01*
X-479000Y-544000D02*
X-475000Y-540000D01*
X-480000Y-544000D02*
X-479000D01*
X-525504D02*
Y-485000D01*
X-545504Y-544000D02*
Y-485000D01*
X-535504Y-544000D02*
Y-485000D01*
X-548004Y-544000D02*
Y-485000D01*
X-530504Y-544000D02*
Y-485000D01*
X-528004Y-544000D02*
Y-485000D01*
X-533004Y-544000D02*
Y-485000D01*
X-613644Y-348000D02*
X-612709D01*
X-615504Y-349252D02*
Y-348402D01*
X-625000Y-348500D02*
X-616998D01*
X-613004Y-349252D02*
Y-348000D01*
X-628004Y-349252D02*
Y-348101D01*
X-630504Y-349252D02*
Y-348000D01*
X-625504Y-349252D02*
Y-348489D01*
X-633004Y-367004D02*
Y-348000D01*
X-617250Y-349252D02*
X-613250D01*
X-612093D01*
X-553004Y-544000D02*
Y-485000D01*
X-550504Y-544000D02*
Y-485000D01*
X-631750Y-349252D02*
X-613250D01*
X-631750Y-365750D02*
X-631000Y-365000D01*
X-631750Y-365750D02*
Y-349252D01*
X-635000Y-369000D02*
X-631750Y-365750D01*
X-635000Y-471000D02*
X-621000Y-485000D01*
X-635000Y-471000D02*
X-635000Y-369000D01*
X-568004Y-544000D02*
Y-485000D01*
X-565504Y-544000D02*
Y-485000D01*
X-573004Y-544000D02*
Y-485000D01*
X-570504Y-544000D02*
Y-485000D01*
X-560504Y-544000D02*
Y-485000D01*
X-558004Y-544000D02*
Y-485000D01*
X-563004Y-544000D02*
Y-485000D01*
X-585504Y-544000D02*
Y-485000D01*
X-583004Y-544000D02*
Y-485000D01*
X-588004Y-544000D02*
Y-485000D01*
X-578004Y-544000D02*
Y-485000D01*
X-575504Y-544000D02*
Y-485000D01*
X-580504Y-544000D02*
Y-485000D01*
X-495504Y-544000D02*
Y-485000D01*
X-490504Y-544000D02*
Y-485000D01*
X-500504Y-544000D02*
Y-485000D01*
X-483004Y-544000D02*
Y-485000D01*
X-480504Y-544000D02*
Y-485000D01*
X-488004Y-544000D02*
Y-485000D01*
X-513004Y-544000D02*
Y-485000D01*
X-510504Y-544000D02*
Y-485000D01*
X-555504Y-544000D02*
Y-485000D01*
X-505504Y-544000D02*
Y-485000D01*
X-503004Y-544000D02*
Y-485000D01*
X-508004Y-544000D02*
Y-485000D01*
X-630504Y-544000D02*
Y-475496D01*
X-628004Y-544000D02*
Y-477996D01*
X-633004Y-544000D02*
Y-472996D01*
X-623004Y-544000D02*
Y-482996D01*
X-620504Y-544000D02*
Y-485000D01*
X-625504Y-544000D02*
Y-480496D01*
X-645504Y-544000D02*
Y-348000D01*
X-643004Y-544000D02*
Y-348000D01*
X-648004Y-544000D02*
Y-348000D01*
X-638004Y-544000D02*
Y-348000D01*
X-635504Y-544000D02*
Y-348000D01*
X-640504Y-544000D02*
Y-348000D01*
X-600504Y-544000D02*
Y-485000D01*
X-598004Y-544000D02*
Y-485000D01*
X-603004Y-544000D02*
Y-485000D01*
X-593004Y-544000D02*
Y-485000D01*
X-590504Y-544000D02*
Y-485000D01*
X-595504Y-544000D02*
Y-485000D01*
X-615504Y-544000D02*
Y-485000D01*
X-613004Y-544000D02*
Y-485000D01*
X-618004Y-544000D02*
Y-485000D01*
X-608004Y-544000D02*
Y-485000D01*
X-605504Y-544000D02*
Y-485000D01*
X-610504Y-544000D02*
Y-485000D01*
X-677000Y-348000D02*
X-628354D01*
X-678504Y-349504D02*
X-631750D01*
X-681004Y-352004D02*
X-631750D01*
X-683504Y-354504D02*
X-631750D01*
X-688504Y-359504D02*
X-631750D01*
X-689000Y-362004D02*
X-631750D01*
X-686004Y-357004D02*
X-631750D01*
X-689000Y-364504D02*
X-631750D01*
X-689000Y-367004D02*
X-633004D01*
X-689000Y-369504D02*
X-635000D01*
X-689000Y-374504D02*
X-635000D01*
X-689000Y-377004D02*
X-635000D01*
X-689000Y-372004D02*
X-635000D01*
X-689000Y-397004D02*
X-635000D01*
X-689000Y-399504D02*
X-635000D01*
X-689000Y-394504D02*
X-635000D01*
X-689000Y-404504D02*
X-635000D01*
X-689000Y-407004D02*
X-635000D01*
X-689000Y-402004D02*
X-635000D01*
X-689000Y-382004D02*
X-635000D01*
X-689000Y-384504D02*
X-635000D01*
X-689000Y-379504D02*
X-635000D01*
X-689000Y-389504D02*
X-635000D01*
X-689000Y-392004D02*
X-635000D01*
X-689000Y-387004D02*
X-635000D01*
X-689000Y-427004D02*
X-635000D01*
X-689000Y-429504D02*
X-635000D01*
X-689000Y-422004D02*
X-635000D01*
X-689000Y-424504D02*
X-635000D01*
X-689000Y-434504D02*
X-635000D01*
X-689000Y-437004D02*
X-635000D01*
X-689000Y-432004D02*
X-635000D01*
X-689000Y-409504D02*
X-635000D01*
X-689000Y-412004D02*
X-635000D01*
X-689000Y-360000D02*
X-677000Y-348000D01*
X-689000Y-417004D02*
X-635000D01*
X-689000Y-419504D02*
X-635000D01*
X-689000Y-414504D02*
X-635000D01*
X-689000Y-457004D02*
X-635000D01*
X-689000Y-459503D02*
X-635000D01*
X-689000Y-454504D02*
X-635000D01*
X-689000Y-464503D02*
X-635000D01*
X-689000Y-467003D02*
X-635000D01*
X-689000Y-462003D02*
X-635000D01*
X-689000Y-442004D02*
X-635000D01*
X-689000Y-444504D02*
X-635000D01*
X-689000Y-439504D02*
X-635000D01*
X-689000Y-449504D02*
X-635000D01*
X-689000Y-452004D02*
X-635000D01*
X-689000Y-447004D02*
X-635000D01*
X-689000Y-504503D02*
X-475000D01*
X-689000Y-507003D02*
X-475000D01*
X-689000Y-499503D02*
X-475000D01*
X-689000Y-502003D02*
X-475000D01*
X-689000Y-512003D02*
X-475000D01*
X-689000Y-514503D02*
X-475000D01*
X-689000Y-509503D02*
X-475000D01*
X-689000Y-487003D02*
X-477997D01*
X-689000Y-489503D02*
X-475497D01*
X-689000Y-484503D02*
X-621497D01*
X-689000Y-494503D02*
X-475000D01*
X-689000Y-497003D02*
X-475000D01*
X-689000Y-492003D02*
X-475000D01*
X-685497Y-534503D02*
X-475000D01*
X-682997Y-537003D02*
X-475000D01*
X-687997Y-532003D02*
X-475000D01*
X-680497Y-539503D02*
X-475000D01*
X-677997Y-542003D02*
X-477003D01*
X-676000Y-544000D02*
X-480000D01*
X-689000Y-519503D02*
X-475000D01*
X-689000Y-522003D02*
X-475000D01*
X-689000Y-517003D02*
X-475000D01*
X-689000Y-527003D02*
X-475000D01*
X-689000Y-529503D02*
X-475000D01*
X-689000Y-524503D02*
X-475000D01*
X-660504Y-544000D02*
Y-348000D01*
X-658004Y-544000D02*
Y-348000D01*
X-663004Y-544000D02*
Y-348000D01*
X-653004Y-544000D02*
Y-348000D01*
X-650504Y-544000D02*
Y-348000D01*
X-655504Y-544000D02*
Y-348000D01*
X-675504Y-544000D02*
Y-348000D01*
X-673004Y-544000D02*
Y-348000D01*
X-678004Y-541996D02*
Y-349004D01*
X-668004Y-544000D02*
Y-348000D01*
X-665504Y-544000D02*
Y-348000D01*
X-670504Y-544000D02*
Y-348000D01*
X-688004Y-531996D02*
Y-359004D01*
X-689000Y-469503D02*
X-635000D01*
X-689000Y-531000D02*
Y-360000D01*
X-680504Y-539496D02*
Y-351504D01*
X-683004Y-536996D02*
Y-354004D01*
X-685504Y-534496D02*
Y-356504D01*
X-689000Y-474503D02*
X-631497D01*
X-689000Y-477003D02*
X-628997D01*
X-689000Y-472003D02*
X-633997D01*
X-689000Y-479503D02*
X-626497D01*
X-689000Y-482003D02*
X-623997D01*
X-689000Y-531000D02*
X-676000Y-544000D01*
X-424000Y-362000D02*
X-417000Y-369000D01*
X-418004Y-414004D02*
Y-367996D01*
X-420504Y-416504D02*
Y-365496D01*
X-423004Y-419004D02*
Y-362996D01*
X-445504Y-420000D02*
Y-362000D01*
X-453004Y-420000D02*
Y-362000D01*
X-460504Y-420000D02*
Y-362000D01*
X-448004Y-420000D02*
Y-362000D01*
X-450504Y-420000D02*
Y-362000D01*
X-486250Y-387004D02*
X-417000D01*
X-486250Y-389504D02*
X-417000D01*
X-486250Y-384504D02*
X-417000D01*
Y-413000D02*
Y-369000D01*
X-486250Y-392004D02*
X-417000D01*
X-486250Y-397004D02*
X-417000D01*
X-486250Y-394504D02*
X-417000D01*
X-486250Y-402004D02*
X-417000D01*
X-486250Y-399504D02*
X-417000D01*
X-490504Y-383750D02*
Y-362000D01*
X-488004Y-383750D02*
Y-362000D01*
X-493004Y-383750D02*
Y-362000D01*
X-463004Y-420000D02*
Y-362000D01*
X-465504Y-420000D02*
Y-362000D01*
X-500504Y-383750D02*
Y-362000D01*
X-503004Y-383750D02*
Y-362000D01*
X-495504Y-383750D02*
Y-362000D01*
X-498004Y-383750D02*
Y-362000D01*
X-510504Y-383750D02*
Y-362000D01*
X-508004Y-383750D02*
Y-362000D01*
X-513004Y-383750D02*
Y-362000D01*
X-486250Y-403750D02*
Y-383750D01*
X-505504D02*
Y-362000D01*
X-520504Y-383750D02*
Y-362000D01*
X-523004Y-383750D02*
Y-362000D01*
X-515504Y-383750D02*
Y-362000D01*
X-518004Y-383750D02*
Y-362000D01*
X-470504Y-420000D02*
Y-362000D01*
X-468004Y-420000D02*
Y-362000D01*
X-473004Y-420000D02*
Y-362000D01*
X-455504Y-420000D02*
Y-362000D01*
X-458004Y-420000D02*
Y-362000D01*
X-480504Y-420000D02*
Y-362000D01*
X-483004Y-420000D02*
Y-362000D01*
X-475504Y-420000D02*
Y-362000D01*
X-478004Y-420000D02*
Y-362000D01*
X-430504Y-420000D02*
Y-362000D01*
X-428004Y-420000D02*
Y-362000D01*
X-433004Y-420000D02*
Y-362000D01*
X-424000Y-420000D02*
X-417000Y-413000D01*
X-425504Y-420000D02*
Y-362000D01*
X-440504Y-420000D02*
Y-362000D01*
X-443004Y-420000D02*
Y-362000D01*
X-435504Y-420000D02*
Y-362000D01*
X-438004Y-420000D02*
Y-362000D01*
X-493004Y-420000D02*
Y-403750D01*
X-490504Y-420000D02*
Y-403750D01*
X-495504Y-420000D02*
Y-403750D01*
X-485504Y-420000D02*
Y-362000D01*
X-488004Y-420000D02*
Y-403750D01*
X-503004Y-420000D02*
Y-403750D01*
X-505504Y-420000D02*
Y-403750D01*
X-498004Y-420000D02*
Y-403750D01*
X-500504Y-420000D02*
Y-403750D01*
X-513004Y-420000D02*
Y-403750D01*
X-515504Y-420000D02*
Y-403750D01*
X-508004Y-420000D02*
Y-403750D01*
X-510504Y-420000D02*
Y-403750D01*
X-523004Y-420000D02*
Y-403750D01*
X-525504Y-420000D02*
Y-403750D01*
X-518004Y-420000D02*
Y-403750D01*
X-520504Y-420000D02*
Y-403750D01*
X-533004Y-383750D02*
Y-362000D01*
X-530504Y-383750D02*
Y-362000D01*
X-535504Y-383750D02*
Y-362000D01*
X-525504Y-383750D02*
Y-362000D01*
X-528004Y-383750D02*
Y-362000D01*
X-565053Y-362004D02*
X-423996D01*
X-565000Y-362000D02*
X-424000D01*
X-538004Y-383750D02*
Y-362000D01*
X-540504Y-383750D02*
Y-362000D01*
X-566806Y-367004D02*
X-418996D01*
X-566500Y-369504D02*
X-417000D01*
X-566019Y-364504D02*
X-421496D01*
X-568458Y-374504D02*
X-417000D01*
X-566808Y-372004D02*
X-417000D01*
X-571511Y-379504D02*
X-417000D01*
X-573171Y-377004D02*
X-417000D01*
X-570691Y-382004D02*
X-417000D01*
X-569750Y-383750D02*
X-486250D01*
X-553004D02*
Y-362000D01*
X-550504Y-383750D02*
Y-362000D01*
X-555504Y-383750D02*
Y-362000D01*
X-543004Y-383750D02*
Y-362000D01*
X-545504Y-383750D02*
Y-362000D01*
X-563004Y-383750D02*
Y-362000D01*
X-558004Y-383750D02*
Y-362000D01*
X-560504Y-383750D02*
Y-362000D01*
X-566500Y-370125D02*
Y-368875D01*
X-565504Y-383750D02*
Y-363407D01*
X-568004Y-383750D02*
Y-374051D01*
X-573500Y-376000D02*
X-572375D01*
X-570504Y-383711D02*
Y-375694D01*
X-573004Y-377195D02*
Y-376000D01*
X-530504Y-420000D02*
Y-403750D01*
X-533004Y-420000D02*
Y-403750D01*
X-569750D02*
X-486250D01*
X-540504Y-420000D02*
Y-403750D01*
X-535504Y-420000D02*
Y-403750D01*
X-538004Y-420000D02*
Y-403750D01*
X-570500Y-404504D02*
X-417000D01*
X-570500Y-407004D02*
X-417000D01*
X-570496Y-419504D02*
X-423503D01*
X-570000Y-420000D02*
X-424000D01*
X-528004D02*
Y-403750D01*
X-570500Y-412004D02*
X-417000D01*
X-570500Y-409504D02*
X-417000D01*
X-570500Y-414504D02*
X-418503D01*
X-570500Y-417004D02*
X-421003D01*
X-548004Y-383750D02*
Y-362000D01*
Y-420000D02*
Y-403750D01*
X-569750D02*
Y-383750D01*
X-550504Y-420000D02*
Y-403750D01*
X-553004Y-420000D02*
Y-403750D01*
X-570500Y-419500D02*
Y-403000D01*
Y-384000D01*
X-555504Y-420000D02*
Y-403750D01*
X-558004Y-420000D02*
Y-403750D01*
X-543004Y-420000D02*
Y-403750D01*
X-545504Y-420000D02*
Y-403750D01*
X-565504Y-420000D02*
Y-403750D01*
X-568004Y-420000D02*
Y-403750D01*
X-560504Y-420000D02*
Y-403750D01*
X-563004Y-420000D02*
Y-403750D01*
X522458Y190000D02*
Y199958D01*
X517457Y190000D02*
Y200458D01*
X522458Y176800D02*
Y190000D01*
X527457Y176800D02*
Y190000D01*
X517457Y176800D02*
Y190000D01*
X512458Y188535D02*
X513922Y190000D01*
X20000Y-497002D02*
Y-489000D01*
X-635000Y-358002D02*
X-621000D01*
X-644002D02*
X-635000D01*
Y-348260D01*
Y-375316D02*
Y-358002D01*
Y-348260D02*
X-634740Y-348000D01*
X522458Y190000D02*
X527457D01*
X520000D02*
X522458D01*
X517457D02*
X520000D01*
X300000Y201500D02*
Y210998D01*
Y192002D02*
Y201500D01*
X287000Y201500D02*
Y210998D01*
Y192002D02*
Y201500D01*
X287000Y224998D02*
Y234000D01*
X287000Y224998D02*
X287000Y224998D01*
X300000D02*
Y234000D01*
X300000Y224998D02*
X300000Y224998D01*
X287000Y192002D02*
X287000Y192002D01*
X300000Y210998D02*
X300000Y210998D01*
X268000Y192002D02*
Y200000D01*
Y192002D02*
X268000Y192002D01*
X344000Y126945D02*
Y167000D01*
X343655Y126600D02*
X344000Y126945D01*
X252999Y126755D02*
Y167000D01*
Y126755D02*
X253155Y126600D01*
X305623D02*
X340400D01*
X285825D02*
X305623D01*
X305905Y126882D01*
Y145600D01*
X281179Y126600D02*
X285825D01*
X253155D02*
X281179D01*
X280905Y126875D02*
X281179Y126600D01*
X280905Y126875D02*
Y145600D01*
X285825Y126600D02*
X285905Y126679D01*
Y145600D01*
X340400Y126600D02*
X341000Y126000D01*
X310905Y154904D02*
X326000Y170000D01*
Y178000D01*
X310905Y145600D02*
Y154904D01*
X300905D02*
X314000Y168000D01*
Y177000D01*
X300905Y145600D02*
Y154904D01*
X300000Y165000D02*
Y179000D01*
X295905Y160905D02*
X300000Y165000D01*
X295905Y145600D02*
Y160905D01*
X287000Y164000D02*
Y179000D01*
Y164000D02*
X290905Y160096D01*
Y145600D02*
Y160096D01*
X268000Y164000D02*
Y177000D01*
Y164000D02*
X275905Y156096D01*
Y145600D02*
Y156096D01*
X522458Y199958D02*
X522500Y200000D01*
X513922Y190000D02*
X517457D01*
X512458Y176800D02*
Y188535D01*
X517457Y200458D02*
X517500Y200502D01*
X547577Y204900D02*
X564707D01*
X544900D02*
X547577D01*
X547456Y204779D02*
X547577Y204900D01*
X547456Y187700D02*
Y204779D01*
X542458Y202458D02*
X544900Y204900D01*
X542458Y176800D02*
Y202458D01*
X-399250Y25750D02*
X-346750D01*
X-335000Y37500D01*
X-350750Y34250D02*
X-332500Y52500D01*
X-463750Y34250D02*
X-350750D01*
X-472000Y26000D02*
X-463750Y34250D01*
X-368250Y39250D02*
X-347500Y60000D01*
X-471750Y39250D02*
X-368250D01*
X-477000Y34000D02*
X-471750Y39250D01*
X-370750Y44250D02*
X-360000Y55000D01*
X-499785Y44250D02*
X-370750D01*
X-499866Y44330D02*
X-499785Y44250D01*
X-502330Y44330D02*
X-499866D01*
X-503000Y45000D02*
X-502330Y44330D01*
X-360000Y55000D02*
Y70000D01*
X-372750Y53375D02*
Y104750D01*
X-365000Y112500D01*
X-433750Y76250D02*
X-417500Y92500D01*
Y105000D01*
X-367500Y159063D02*
Y160000D01*
X-374532Y152032D02*
X-367500Y159063D01*
X-543000Y152032D02*
X-374532D01*
X510000Y165000D02*
X535000D01*
X-519599Y-34598D02*
X-492598D01*
X-571599Y141000D02*
Y143202D01*
X-535599Y105000D02*
X-495000D01*
X-571599Y141000D02*
X-535599Y105000D01*
X-598000Y89000D02*
X-594598Y92402D01*
X-571599D01*
X-593250Y76250D02*
X-433750D01*
X-598000Y81000D02*
Y89000D01*
Y81000D02*
X-593250Y76250D01*
X-469875Y1000D02*
X-467125D01*
X-465750Y-375D01*
X-471250D02*
X-469875Y1000D01*
X-458875D02*
X-452000D01*
X-450000Y-1000D01*
X-460250Y-375D02*
X-458875Y1000D01*
X-450000Y-10000D02*
Y-1000D01*
X-460250Y-10625D02*
Y-375D01*
X-461625Y-12000D02*
X-460250Y-10625D01*
X-464375Y-12000D02*
X-461625D01*
X-471250Y-10625D02*
Y-375D01*
X-465750Y-10625D02*
Y-375D01*
X-476750Y-10625D02*
X-475375Y-12000D01*
X-472625D02*
X-471250Y-10625D01*
X-465750D02*
X-464375Y-12000D01*
X-475375D02*
X-472625D01*
X-538875Y14000D02*
X-536125D01*
X-534750Y12625D01*
X-540250D02*
X-538875Y14000D01*
X-547125D02*
X-545750Y12625D01*
X-534750Y2375D02*
Y12625D01*
X-549875Y14000D02*
X-547125D01*
X-600798Y16202D02*
X-571599D01*
X-602000Y15000D02*
X-600798Y16202D01*
X-551250Y12625D02*
X-549875Y14000D01*
X-551250Y2375D02*
Y12625D01*
X-602000Y2000D02*
Y15000D01*
X-534750Y2375D02*
X-533375Y1000D01*
X-478125D02*
X-476750Y-375D01*
X-540250Y-10625D02*
Y12625D01*
X-533375Y1000D02*
X-478125D01*
X-476750Y-10625D02*
Y-375D01*
X-541625Y-12000D02*
X-540250Y-10625D01*
X-552625Y1000D02*
X-551250Y2375D01*
X-545750Y-10625D02*
Y12625D01*
X-602000Y2000D02*
X-601000Y1000D01*
X-545750Y-10625D02*
X-544375Y-12000D01*
X-541625D01*
X-601000Y1000D02*
X-552625D01*
X-493001Y-35001D02*
X-492598Y-34598D01*
X-406125Y26760D02*
X-404750Y25385D01*
X-408875Y26760D02*
X-406125D01*
X-410250Y25385D02*
X-408875Y26760D01*
X-419875D02*
X-417125D01*
X-415750Y25385D01*
X-428125Y26760D02*
X-426750Y25385D01*
X-430875Y26760D02*
X-428125D01*
X-421250Y25385D02*
X-419875Y26760D01*
X-439125D02*
X-437750Y25385D01*
X-432250D02*
X-430875Y26760D01*
X-441875D02*
X-439125D01*
X-443250Y25385D02*
X-441875Y26760D01*
X-443250Y10536D02*
Y25385D01*
X-448750Y10536D02*
X-447375Y9161D01*
X-444625D01*
X-404750Y-7385D02*
Y25385D01*
X-410250Y-7385D02*
Y25385D01*
X-399250Y-7385D02*
Y25750D01*
X-415750Y-7385D02*
Y25385D01*
X-421250Y-7385D02*
Y25385D01*
X-415750Y-7385D02*
X-414375Y-8760D01*
X-403375Y-8760D02*
X-400625D01*
X-404750Y-7385D02*
X-403375Y-8760D01*
X-400625D02*
X-399250Y-7385D01*
X-414375Y-8760D02*
X-411625D01*
X-410250Y-7385D01*
X-426750D02*
Y25385D01*
X-432250Y-7385D02*
Y25385D01*
X-422625Y-8760D02*
X-421250Y-7385D01*
X-444625Y9161D02*
X-443250Y10536D01*
X-437750Y-7385D02*
Y25385D01*
X-426750Y-7385D02*
X-425375Y-8760D01*
X-433625D02*
X-432250Y-7385D01*
X-425375Y-8760D02*
X-422625D01*
X-437750Y-7385D02*
X-436375Y-8760D01*
X-433625D01*
X-450125Y24743D02*
X-448750Y23368D01*
X-452875Y24743D02*
X-450125D01*
X-454250Y23368D02*
X-452875Y24743D01*
X-483125Y30339D02*
X-481750Y28964D01*
X-485875Y30339D02*
X-483125D01*
X-461125Y16000D02*
X-459750Y14625D01*
X-463875Y16000D02*
X-461125D01*
X-465250Y14625D02*
X-463875Y16000D01*
X-472125D02*
X-470750Y14625D01*
X-474875Y16000D02*
X-472125D01*
X-476250Y14625D02*
X-474875Y16000D01*
X-494125Y35510D02*
X-492750Y34135D01*
X-496875Y35510D02*
X-494125D01*
X-487250Y28964D02*
X-485875Y30339D01*
X-498250Y34135D02*
X-496875Y35510D01*
X-498250Y17375D02*
Y34135D01*
X-501000Y16000D02*
X-499625D01*
X-501202Y16202D02*
X-501000Y16000D01*
X-499625D02*
X-498250Y17375D01*
X-519599Y16202D02*
X-501202D01*
X-448750Y10536D02*
Y23368D01*
X-454250Y10615D02*
Y23368D01*
X-455625Y9240D02*
X-454250Y10615D01*
X-465250D02*
Y14625D01*
X-470750Y10615D02*
Y14625D01*
X-459750Y10615D02*
Y14625D01*
Y10615D02*
X-458375Y9240D01*
X-466625D02*
X-465250Y10615D01*
X-458375Y9240D02*
X-455625D01*
X-470750Y10615D02*
X-469375Y9240D01*
X-466625D01*
X-476250Y10615D02*
Y14625D01*
X-481750Y10615D02*
Y28964D01*
Y10615D02*
X-480375Y9240D01*
X-492750Y10615D02*
Y34135D01*
X-487250Y10615D02*
Y28964D01*
X-480375Y9240D02*
X-477625D01*
X-488625D02*
X-487250Y10615D01*
X-477625Y9240D02*
X-476250Y10615D01*
X-492750D02*
X-491375Y9240D01*
X-488625D01*
X-449750Y82250D02*
X-449000Y83000D01*
X-557802Y117802D02*
X-554000Y114000D01*
Y107402D02*
Y114000D01*
X-571599Y117802D02*
X-557802D01*
X-528848Y82250D02*
X-449750D01*
X-554000Y107402D02*
X-528848Y82250D01*
X-591798Y270202D02*
X-571599D01*
X-594000Y268000D02*
X-591798Y270202D01*
X-594000Y260000D02*
Y268000D01*
Y260000D02*
X-592000Y258000D01*
X-467000D01*
X-549402Y-34598D02*
X-549000Y-35000D01*
X-571599Y-34598D02*
X-549402D01*
X-536000Y231000D02*
X-452000D01*
X-540125Y239000D02*
X-538000Y236875D01*
X-542875Y239000D02*
X-540125D01*
X-538000Y233000D02*
X-536000Y231000D01*
X-538000Y233000D02*
Y236875D01*
X-551125Y239000D02*
X-549750Y237625D01*
X-544250D02*
X-542875Y239000D01*
X-553875D02*
X-551125D01*
X-555250Y233375D02*
Y237625D01*
X-553875Y239000D01*
X-592198Y244802D02*
X-571599D01*
X-594000Y234000D02*
Y243000D01*
X-592198Y244802D01*
X-544250Y226375D02*
Y237625D01*
X-545625Y225000D02*
X-544250Y226375D01*
X-548375Y225000D02*
X-545625D01*
X-549750Y226375D02*
X-548375Y225000D01*
X-549750Y226375D02*
Y237625D01*
X-594000Y234000D02*
X-592000Y232000D01*
X-556625D02*
X-555250Y233375D01*
X-592000Y232000D02*
X-556625D01*
X-457750Y-20750D02*
X-436000D01*
X-432000Y-24750D01*
X-460625Y-33000D02*
X-457875D01*
X-432000Y-40000D02*
Y-24750D01*
X-433000Y-41000D02*
X-432000Y-40000D01*
X-449625Y-41000D02*
X-433000D01*
X-451000Y-42375D02*
X-449625Y-41000D01*
X-451000Y-47625D02*
Y-42375D01*
X-452375Y-49000D02*
X-451000Y-47625D01*
X-462000Y-34375D02*
X-460625Y-33000D01*
X-457875D02*
X-456500Y-34375D01*
X-462000Y-43000D02*
Y-34375D01*
X-456500Y-47625D02*
X-455125Y-49000D01*
X-452375D01*
X-456500Y-47625D02*
Y-34375D01*
X-487875Y-15751D02*
X-485125D01*
X-483750Y-17126D01*
X-489250D02*
X-487875Y-15751D01*
X-489250Y-21625D02*
Y-17126D01*
X-476875Y-23000D02*
X-472250D01*
X-490625D02*
X-489250Y-21625D01*
X-599198Y-9198D02*
X-571599D01*
X-601000Y-11000D02*
X-599198Y-9198D01*
X-601000Y-21000D02*
X-599000Y-23000D01*
X-490625D01*
X-601000Y-21000D02*
Y-11000D01*
X-472250Y-23000D02*
X-471000Y-24250D01*
Y-43000D02*
Y-24250D01*
X-478250Y-24375D02*
X-476875Y-23000D01*
X-470000Y-44000D02*
X-463000D01*
X-462000Y-43000D01*
X-471000Y-43000D02*
X-470000Y-44000D01*
X-478250Y-33625D02*
Y-24375D01*
X-479625Y-35000D02*
X-478250Y-33625D01*
X-483750D02*
Y-17126D01*
X-482375Y-35000D02*
X-479625D01*
X-483750Y-33625D02*
X-482375Y-35000D01*
X-439250Y245000D02*
X-431000D01*
X-449125Y256958D02*
X-447750Y255583D01*
X-451875Y256958D02*
X-449125D01*
X-453250Y255583D02*
X-451875Y256958D01*
X-462875Y252537D02*
X-460125D01*
X-464250Y251162D02*
X-462875Y252537D01*
X-453250Y241167D02*
Y255583D01*
X-442250Y242000D02*
X-439250Y245000D01*
X-454625Y239792D02*
X-453250Y241167D01*
X-457375Y239792D02*
X-454625D01*
X-460125Y252537D02*
X-458750Y251162D01*
X-471125Y252537D02*
X-469750Y251162D01*
X-458750Y241167D02*
Y251162D01*
X-482125Y252958D02*
X-480750Y251583D01*
X-484875Y252958D02*
X-482125D01*
X-486250Y251583D02*
X-484875Y252958D01*
X-493125D02*
X-491750Y251583D01*
X-495875Y252958D02*
X-493125D01*
X-497250Y251583D02*
X-495875Y252958D01*
X-473875Y252537D02*
X-471125D01*
X-475250Y251162D02*
X-473875Y252537D01*
X-497250Y246375D02*
Y251583D01*
X-498823Y244802D02*
X-497250Y246375D01*
X-519599Y244802D02*
X-498823D01*
X-442250Y238338D02*
Y242000D01*
X-447750Y238338D02*
Y255583D01*
X-458750Y241167D02*
X-457375Y239792D01*
X-464250Y239017D02*
Y251162D01*
X-465625Y237642D02*
X-464250Y239017D01*
X-443625Y236963D02*
X-442250Y238338D01*
X-447750D02*
X-446375Y236963D01*
X-468375Y237642D02*
X-465625D01*
X-446375Y236963D02*
X-443625D01*
X-469750Y239017D02*
Y251162D01*
X-475250Y239017D02*
Y251162D01*
X-469750Y239017D02*
X-468375Y237642D01*
X-486250Y239017D02*
Y251583D01*
X-491750Y239017D02*
Y251583D01*
X-480750Y239017D02*
Y251583D01*
X-479375Y237642D02*
X-476625D01*
X-480750Y239017D02*
X-479375Y237642D01*
X-476625D02*
X-475250Y239017D01*
X-490375Y237642D02*
X-487625D01*
X-491750Y239017D02*
X-490375Y237642D01*
X-487625D02*
X-486250Y239017D01*
X-519599Y-85398D02*
X-455398D01*
X-458929Y26000D02*
X-452929Y32000D01*
X-472000Y26000D02*
X-458929D01*
X-486198Y-9198D02*
X-486001Y-9001D01*
X-519599Y-9198D02*
X-486198D01*
X-393375Y78000D02*
X-390625D01*
X-394750Y76625D02*
X-393375Y78000D01*
X-401625D02*
X-400250Y76625D01*
X-404375Y78000D02*
X-401625D01*
X-405750Y76625D02*
X-404375Y78000D01*
X-379625D02*
X-378250Y76625D01*
X-382375Y78000D02*
X-379625D01*
X-390625D02*
X-389250Y76625D01*
X-383750D02*
X-382375Y78000D01*
X-374125Y52000D02*
X-372750Y53375D01*
X-383750D02*
Y76625D01*
X-378250Y53375D02*
Y76625D01*
Y53375D02*
X-376875Y52000D01*
X-385125D02*
X-383750Y53375D01*
X-376875Y52000D02*
X-374125D01*
X-389250Y53375D02*
X-387875Y52000D01*
X-385125D01*
X-389250Y53375D02*
Y76625D01*
X-394750Y53375D02*
Y76625D01*
X-396125Y52000D02*
X-394750Y53375D01*
X-405750D02*
Y76625D01*
X-400250Y53375D02*
Y76625D01*
Y53375D02*
X-398875Y52000D01*
X-396125D01*
X-409875D02*
X-407125D01*
X-405750Y53375D01*
X-412625Y78000D02*
X-411250Y76625D01*
X-415375Y78000D02*
X-412625D01*
X-416750Y76625D02*
X-415375Y78000D01*
X-426375Y76554D02*
X-423625D01*
X-422250Y75179D01*
X-427750D02*
X-426375Y76554D01*
X-446875Y71250D02*
X-445500Y69875D01*
X-438625Y59000D02*
X-435000D01*
X-449625Y71250D02*
X-446875D01*
X-451000Y69875D02*
X-449625Y71250D01*
X-451000Y60375D02*
Y69875D01*
X-519599Y92402D02*
X-495000D01*
X-487000Y59000D02*
X-452375D01*
X-451000Y60375D01*
X-495000Y67000D02*
X-487000Y59000D01*
X-411250Y53375D02*
Y76625D01*
X-416750Y53375D02*
Y76625D01*
X-418125Y52000D02*
X-416750Y53375D01*
X-427750D02*
Y75179D01*
X-422250Y53375D02*
Y75179D01*
X-420875Y52000D02*
X-418125D01*
X-422250Y53375D02*
X-420875Y52000D01*
X-411250Y53375D02*
X-409875Y52000D01*
X-431875D02*
X-429125D01*
X-427750Y53375D01*
X-435000Y59000D02*
X-433250Y57250D01*
X-440000Y57625D02*
X-438625Y59000D01*
X-433250Y53375D02*
Y57250D01*
X-445500Y53375D02*
Y69875D01*
X-440000Y53375D02*
Y57625D01*
X-441375Y52000D02*
X-440000Y53375D01*
X-433250D02*
X-431875Y52000D01*
X-445500Y53375D02*
X-444125Y52000D01*
X-441375D01*
X-452875Y286000D02*
X-446000D01*
X-443000Y283000D01*
X-454250Y284625D02*
X-452875Y286000D01*
X-454250Y275375D02*
Y284625D01*
X-443000Y270000D02*
Y283000D01*
X-455625Y274000D02*
X-454250Y275375D01*
X-463875Y298000D02*
X-461125D01*
X-459750Y296625D01*
X-465250D02*
X-463875Y298000D01*
X-459750Y275375D02*
X-458375Y274000D01*
X-455625D01*
X-459750Y275375D02*
Y296625D01*
X-474875Y298000D02*
X-472125D01*
X-470750Y296625D01*
X-483125Y298000D02*
X-481750Y296625D01*
X-476250D02*
X-474875Y298000D01*
X-470750Y275375D02*
Y296625D01*
X-465250Y275375D02*
Y296625D01*
X-476250Y275375D02*
Y296625D01*
X-485875Y298000D02*
X-483125D01*
X-487250Y296625D02*
X-485875Y298000D01*
X-487250Y287375D02*
Y296625D01*
X-496000Y286000D02*
X-488625D01*
X-487250Y287375D01*
X-499000Y283000D02*
X-496000Y286000D01*
X-470750Y275375D02*
X-469375Y274000D01*
X-466625D02*
X-465250Y275375D01*
X-477625Y274000D02*
X-476250Y275375D01*
X-480375Y274000D02*
X-477625D01*
X-469375D02*
X-466625D01*
X-481750Y275375D02*
X-480375Y274000D01*
X-481750Y275375D02*
Y296625D01*
X-499000Y273000D02*
Y283000D01*
X-502202Y270202D02*
X-502000Y270000D01*
X-499000Y273000D01*
X-519599Y270202D02*
X-502202D01*
X-519599Y143202D02*
X-500000D01*
X-459198Y117802D02*
X-459000Y118000D01*
X-477875Y117802D02*
X-459198D01*
X-479250Y116427D02*
X-477875Y117802D01*
X-479250Y107177D02*
Y116427D01*
X-480625Y105802D02*
X-479250Y107177D01*
X-483375Y105802D02*
X-480625D01*
X-488875Y129802D02*
X-486125D01*
X-484750Y128427D01*
X-490250D02*
X-488875Y129802D01*
X-490250Y119177D02*
Y128427D01*
X-491625Y117802D02*
X-490250Y119177D01*
X-519599Y117802D02*
X-491625D01*
X-484750Y107177D02*
Y128427D01*
Y107177D02*
X-483375Y105802D01*
X-475125Y226000D02*
X-473750Y224625D01*
X-477875Y226000D02*
X-475125D01*
X-473750Y214750D02*
Y224625D01*
X-486125Y226000D02*
X-484750Y224625D01*
X-488875Y226000D02*
X-486125D01*
X-479250Y224625D02*
X-477875Y226000D01*
X-454000Y219000D02*
X-429197D01*
X-457000Y216000D02*
X-454000Y219000D01*
X-457000Y214000D02*
Y216000D01*
X-497125Y226000D02*
X-495750Y224625D01*
X-499875Y226000D02*
X-497125D01*
X-490250Y224625D02*
X-488875Y226000D01*
X-501250Y224625D02*
X-499875Y226000D01*
X-501250Y220375D02*
Y224625D01*
X-504000Y219000D02*
X-502625D01*
X-504402Y219402D02*
X-504000Y219000D01*
X-502625D02*
X-501250Y220375D01*
X-519599Y219402D02*
X-504402D01*
X-471000Y212000D02*
X-459000D01*
X-473750Y214750D02*
X-471000Y212000D01*
X-459000D02*
X-457000Y214000D01*
X-479250Y208375D02*
Y224625D01*
X-484750Y208375D02*
Y224625D01*
Y208375D02*
X-483375Y207000D01*
X-495750Y200375D02*
Y224625D01*
X-490250Y200375D02*
Y224625D01*
X-480625Y207000D02*
X-479250Y208375D01*
X-483375Y207000D02*
X-480625D01*
X-491625Y199000D02*
X-490250Y200375D01*
X-495750D02*
X-494375Y199000D01*
X-491625D01*
X-437000Y194426D02*
Y207000D01*
X-461250Y203625D02*
X-459875Y205000D01*
X-457125D02*
X-455750Y203625D01*
X-459875Y205000D02*
X-457125D01*
X-470875Y202000D02*
X-468125D01*
X-466750Y200625D01*
X-567000Y206000D02*
X-511000D01*
X-571599Y210599D02*
X-567000Y206000D01*
X-481875Y202000D02*
X-479125D01*
X-571599Y210599D02*
Y219402D01*
X-479125Y202000D02*
X-477750Y200625D01*
X-472250D02*
X-470875Y202000D01*
X-483250Y200625D02*
X-481875Y202000D01*
X-483250Y194375D02*
Y200625D01*
X-438426Y193000D02*
X-437000Y194426D01*
X-455750Y194375D02*
Y203625D01*
Y194375D02*
X-454375Y193000D01*
X-461250Y182375D02*
Y203625D01*
X-454375Y193000D02*
X-438426D01*
X-462625Y181000D02*
X-461250Y182375D01*
X-466750D02*
X-465375Y181000D01*
X-462625D01*
X-472250Y182375D02*
Y200625D01*
X-477750Y182375D02*
Y200625D01*
X-466750Y182375D02*
Y200625D01*
X-511000Y206000D02*
X-498000Y193000D01*
X-484625D02*
X-483250Y194375D01*
X-476375Y181000D02*
X-473625D01*
X-472250Y182375D01*
X-498000Y193000D02*
X-484625D01*
X-477750Y182375D02*
X-476375Y181000D01*
X537457Y167456D02*
Y176800D01*
X535000Y165000D02*
X537457Y167456D01*
X505000Y160000D02*
X510000Y165000D01*
X-556198Y-136198D02*
X-556000Y-136000D01*
X-571599Y-136198D02*
X-556198D01*
X-604998Y-277500D02*
X-595000D01*
X-623000Y-422500D02*
Y-412000D01*
X-608000Y-385500D02*
Y-372002D01*
X-621000Y-385500D02*
Y-372002D01*
X-562500Y-335498D02*
Y-330000D01*
X-575250Y-354500D02*
Y-330000D01*
X-562500D02*
X-528250D01*
X-575250D02*
X-562500D01*
Y-322500D01*
X-575498D02*
X-562500D01*
X-575250Y-324252D02*
X-574998Y-324000D01*
X-575250Y-330000D02*
Y-324252D01*
X-554000Y-337000D02*
X-553000Y-336000D01*
X-528250Y-330000D02*
X-528000Y-330250D01*
X-590002Y-312498D02*
X-590000Y-312500D01*
Y-322498D02*
Y-312500D01*
X-595000Y-277500D02*
X-594998Y-277498D01*
X-654000Y-479000D02*
Y-368000D01*
X-644002Y-358002D01*
X-569000Y-388000D02*
X-552000D01*
X-575250Y-381750D02*
X-569000Y-388000D01*
X-575250Y-381750D02*
Y-369500D01*
X-592750Y-387248D02*
X-591000Y-388998D01*
X-614000Y-385500D02*
X-608000D01*
X-621000D02*
X-614000D01*
X-597500Y-369500D02*
X-592750D01*
X-600002Y-372002D02*
X-597500Y-369500D01*
X-608000Y-372002D02*
X-600002D01*
X-621000D02*
X-608000D01*
X-592750Y-387248D02*
Y-369500D01*
X-600998Y-358002D02*
X-599500Y-359500D01*
X-592750D01*
X-595000Y-347000D02*
X-592750Y-349250D01*
Y-354500D02*
Y-349250D01*
X692457Y176800D02*
Y187700D01*
X-618000Y-515000D02*
X-515000D01*
X-654000Y-479000D02*
X-618000Y-515000D01*
X-584000Y-362000D02*
Y-347000D01*
Y-377000D02*
Y-362000D01*
X-588998Y-337000D02*
Y-324000D01*
Y-342002D02*
Y-337000D01*
Y-342002D02*
X-584000Y-347000D01*
X-591000Y-411000D02*
Y-402998D01*
X-591000Y-411000D02*
X-591000Y-411000D01*
Y-402998D02*
X-581002D01*
X-581000Y-403000D01*
X-614000Y-423000D02*
Y-412500D01*
X-614000Y-423000D02*
X-614000Y-423000D01*
X-623000Y-422500D02*
X-623000Y-422500D01*
X-605000Y-423500D02*
X-605000Y-423500D01*
Y-413000D01*
X-271000Y-487000D02*
X-271000Y-487000D01*
Y-479002D01*
Y-478998D01*
X-25000Y-507000D02*
X-25000Y-507000D01*
X-25000Y-515002D02*
Y-507000D01*
X-14000D02*
X-14000Y-507000D01*
X-14000Y-515002D02*
Y-507000D01*
X-3000D02*
X-3000Y-507000D01*
X-3000Y-515002D02*
Y-507000D01*
X132000Y-515002D02*
Y-507000D01*
X132000Y-507000D01*
X121000Y-515002D02*
Y-507000D01*
X121000Y-507000D01*
X110000Y-515002D02*
Y-507000D01*
X110000Y-507000D01*
X175000Y-589000D02*
Y-580998D01*
X175000Y-589000D02*
X175000Y-589000D01*
X186000D02*
Y-580998D01*
X186000Y-589000D02*
X186000Y-589000D01*
X197000D02*
Y-580998D01*
X197000Y-589000D02*
X197000Y-589000D01*
X291000D02*
Y-580998D01*
X291000Y-589000D02*
X291000Y-589000D01*
X302000D02*
Y-580998D01*
X302000Y-589000D02*
X302000Y-589000D01*
X313000D02*
Y-580998D01*
X313000Y-589000D02*
X313000Y-589000D01*
X20000Y-489000D02*
X20000Y-489000D01*
Y-519000D02*
X20000Y-519000D01*
X32998Y-496998D02*
X34950Y-498950D01*
Y-501500D02*
Y-498950D01*
X73000Y-519000D02*
Y-510998D01*
X73000Y-519000D02*
X73000Y-519000D01*
X210000Y-486000D02*
Y-477998D01*
X210000Y-486000D02*
X210000Y-486000D01*
X20000Y-510998D02*
X20000D01*
X20000Y-519000D02*
Y-510998D01*
Y-510998D01*
X-14000Y-524505D02*
X495D01*
X14002Y-510998D02*
X20000D01*
X495Y-524505D02*
X7000Y-518000D01*
X14002Y-510998D01*
X692457Y187700D02*
X706957D01*
X-605000Y-442000D02*
Y-423500D01*
Y-442000D02*
X-602000Y-445000D01*
X-591000D02*
Y-411000D01*
X-602000Y-445000D02*
X-591000D01*
X-581000D02*
Y-403000D01*
X-591000Y-445000D02*
X-581000D01*
X-515000D01*
X-584000Y-381000D02*
Y-377000D01*
Y-381000D02*
X-581000Y-384000D01*
Y-403000D02*
Y-384000D01*
X-581500Y-359500D02*
X-575250D01*
X-584000Y-362000D02*
X-581500Y-359500D01*
X-603002Y-343998D02*
Y-337000D01*
Y-343998D02*
X-600000Y-347000D01*
X-595000D01*
X-453000Y-563998D02*
X-437003D01*
D11*
X89800Y339200D02*
Y360500D01*
Y339200D02*
X96002Y332998D01*
X-397000Y-445000D02*
X-392328Y-440328D01*
X221000Y-394000D02*
Y-314000D01*
X210000Y-93328D02*
X210000Y-327500D01*
Y-415002D02*
Y-327500D01*
X96002Y332998D02*
X112000D01*
X221000Y-92500D02*
Y102000D01*
X89800Y233200D02*
X221000Y102000D01*
X89800Y233200D02*
Y269500D01*
X210000Y-93328D02*
Y97000D01*
X77100Y229900D02*
X210000Y97000D01*
X77100Y229900D02*
Y269500D01*
X199132Y91868D02*
X199132Y-249868D01*
X66998Y224002D02*
X199132Y91868D01*
X66998Y224002D02*
Y235998D01*
X190132Y86868D02*
X190132Y-212787D01*
X57000Y220000D02*
X190132Y86868D01*
X57000Y220000D02*
Y236000D01*
X564707Y204900D02*
X572458D01*
X64869Y406130D02*
Y449005D01*
X58874Y455000D02*
X64869Y449005D01*
X32500Y455000D02*
X58874D01*
X76000Y472000D02*
Y485901D01*
X76699Y486600D01*
X39000Y405998D02*
Y416000D01*
X26000Y448500D02*
X32500Y455000D01*
X26000Y434701D02*
Y448500D01*
X25899Y434600D02*
X26000Y434701D01*
X221000Y-92500D02*
X221000Y-314000D01*
X-571599Y194002D02*
X-519599D01*
X-571599Y321002D02*
X-519599D01*
X-571599Y67002D02*
X-519599D01*
X-571599Y-59998D02*
X-519599D01*
X-457000Y-239000D02*
Y-183000D01*
X-625000Y-324000D02*
X-616998D01*
X-625000Y-337000D02*
X-616998D01*
X-453000Y-674500D02*
Y-563998D01*
X263050Y-464002D02*
X278000D01*
X-392328Y-236413D02*
Y-190000D01*
X210000Y-463998D02*
X224950D01*
X263050Y-429002D02*
X278000D01*
X78495Y-572000D02*
X121495D01*
X75001Y-571494D02*
X76495Y-570000D01*
Y-572000D02*
Y-570000D01*
X75001Y-625000D02*
Y-571494D01*
X-496000Y-330250D02*
Y-191000D01*
X-574998Y-337000D02*
X-554000D01*
X-21280Y507500D02*
X145000D01*
X-24901Y503879D02*
X-21280Y507500D01*
X-24901Y486600D02*
Y503879D01*
X112000Y346998D02*
X134498D01*
X135000Y347500D01*
X125000Y372998D02*
Y385000D01*
Y358998D02*
X134998D01*
X177545Y-249000D02*
X190132Y-236413D01*
Y-212787D01*
X135000Y-249000D02*
X177545D01*
X191000Y-258000D02*
X199132Y-249868D01*
X-335000Y-250000D02*
X-284000D01*
X-378741D02*
X-335000D01*
X112000Y372998D02*
Y388000D01*
X108000Y392000D02*
X112000Y388000D01*
X83000Y392000D02*
X108000D01*
X77100Y367500D02*
Y386100D01*
X83000Y392000D01*
X77100Y360500D02*
Y367500D01*
X13000Y405998D02*
Y453000D01*
X-325000Y-525000D02*
X-304000D01*
X-327000Y-523000D02*
X-325000Y-525000D01*
X-327000Y-523000D02*
Y-505000D01*
X-329998Y-502002D02*
X-327000Y-505000D01*
X-350000Y-502002D02*
X-329998D01*
X-515000Y-445000D02*
X-397000D01*
X-392328Y-440328D02*
Y-257672D01*
X-295000Y-598000D02*
X-150000D01*
X-298000Y-595000D02*
X-295000Y-598000D01*
X-298000Y-595000D02*
Y-531000D01*
X-150000Y-598000D02*
X-145000Y-593000D01*
Y-552000D01*
X-151200Y-545800D02*
X-145000Y-552000D01*
X-169600Y-545800D02*
X-151200D01*
X-621000Y-358002D02*
X-608000D01*
X134998Y358998D02*
X135000Y359000D01*
X0Y486101D02*
X499Y486600D01*
X0Y466000D02*
Y486101D01*
Y466000D02*
X13000Y453000D01*
X64869Y406130D02*
X65000Y405998D01*
X52000Y416000D02*
X52000Y416000D01*
X52000Y405998D02*
Y416000D01*
X125000Y385000D02*
X125000Y385000D01*
X112000Y372998D02*
X125000D01*
X64400Y391398D02*
X65000Y391998D01*
X64400Y367500D02*
Y391398D01*
X51700Y391698D02*
X52000Y391998D01*
X51700Y367500D02*
Y391698D01*
X39000Y391998D02*
X39000Y391998D01*
Y367500D02*
Y391998D01*
X26000Y391998D02*
X26300Y391698D01*
Y367500D02*
Y391698D01*
X13000Y391998D02*
X13600Y391398D01*
Y367500D02*
Y391398D01*
X210000Y-429002D02*
X224950D01*
X263050D02*
Y-420500D01*
X250350D02*
Y-397652D01*
X237650Y-420500D02*
Y-397648D01*
X325002Y-616000D02*
X332000D01*
X337000Y-611000D01*
Y-494000D01*
X321002Y-478002D02*
X337000Y-494000D01*
X278000Y-478002D02*
X321002D01*
X224950Y-469500D02*
Y-463998D01*
X189500Y-504500D02*
X231300D01*
X186000Y-508000D02*
X189500Y-504500D01*
X186000Y-524505D02*
Y-508000D01*
X302000Y-524505D02*
Y-507000D01*
X299500Y-504500D02*
X302000Y-507000D01*
X256700Y-504500D02*
X299500D01*
X256700D02*
Y-492700D01*
X250350Y-486350D02*
X256700Y-492700D01*
X250350Y-486350D02*
Y-469500D01*
X231300Y-504500D02*
Y-493700D01*
X237650Y-487350D01*
Y-469500D01*
X325002Y-629000D02*
Y-616000D01*
Y-642000D02*
Y-629000D01*
X257000Y-642000D02*
X311002D01*
X240000Y-625000D02*
X257000Y-642000D01*
X299000Y-629000D02*
X311002D01*
X295000Y-625000D02*
X299000Y-629000D01*
X275001Y-625000D02*
X295000D01*
X275001D02*
Y-607001D01*
X273000Y-605000D02*
X275001Y-607001D01*
X260000Y-605000D02*
X273000D01*
X256700Y-601700D02*
X260000Y-605000D01*
X256700Y-601700D02*
Y-579500D01*
X231300Y-616300D02*
X240000Y-625000D01*
X231300Y-616300D02*
Y-579500D01*
X149000Y-680000D02*
Y-649000D01*
X140000Y-640000D02*
X149000Y-649000D01*
X140000Y-640000D02*
Y-632998D01*
X132000Y-682700D02*
X146300D01*
X149000Y-680000D01*
X132000Y-657300D02*
Y-647000D01*
X125000Y-640000D02*
X132000Y-647000D01*
X125000Y-640000D02*
Y-632998D01*
X112002Y-618998D02*
X125000D01*
X108000Y-623000D02*
X112002Y-618998D01*
X108000Y-634000D02*
Y-623000D01*
X96000Y-646000D02*
X108000Y-634000D01*
X46000Y-646000D02*
X96000D01*
X40000Y-640000D02*
X46000Y-646000D01*
X40000Y-640000D02*
Y-625000D01*
X97000Y-610000D02*
X104000Y-603000D01*
X75001Y-625000D02*
X95000D01*
X97000Y-623000D02*
Y-610000D01*
X95000Y-625000D02*
X97000Y-623000D01*
X104000Y-603000D02*
X136000D01*
X140000Y-607000D01*
Y-618998D02*
Y-607000D01*
X76495Y-570000D02*
Y-548495D01*
Y-572000D02*
X78495D01*
X40000Y-625000D02*
Y-604000D01*
X31505Y-595505D02*
X40000Y-604000D01*
X31505Y-595505D02*
Y-572000D01*
X70002Y-542002D02*
X76495Y-548495D01*
X61000Y-542002D02*
X70002D01*
X-14000Y-571495D02*
X-13495Y-572000D01*
X31505D01*
X37998Y-542002D02*
X47000D01*
X31505Y-548495D02*
X37998Y-542002D01*
X31505Y-572000D02*
Y-548495D01*
X60350Y-527352D02*
X61000Y-528002D01*
X60350Y-527352D02*
Y-501500D01*
X47000Y-528002D02*
X47650Y-527352D01*
Y-501500D01*
X26000Y416000D02*
X26000Y416000D01*
X26000Y405998D02*
Y416000D01*
X127502Y-256498D02*
X135000Y-249000D01*
X159000Y-258000D02*
X191000D01*
X152902Y-264098D02*
X159000Y-258000D01*
X152902Y-276600D02*
Y-264098D01*
X127502Y-276600D02*
Y-256498D01*
X-431298Y-313298D02*
Y-276600D01*
X-448250Y-330250D02*
X-431298Y-313298D01*
X-271000Y-465002D02*
Y-457000D01*
X-271000Y-457000D01*
X-242000Y-460000D02*
X-242000Y-460000D01*
X-242000Y-468002D02*
Y-460000D01*
X-519599Y-186998D02*
X-500002D01*
X-496000Y-191000D01*
X-528000Y-330250D02*
X-496000D01*
X-448250D01*
X237000Y-389000D02*
X237000Y-389000D01*
X237000Y-397002D02*
Y-389000D01*
X251000Y-437000D02*
X251000Y-437000D01*
Y-428998D01*
X-271000Y-457000D02*
X-245000D01*
X-242000Y-460000D01*
X-283000Y-457000D02*
X-271000D01*
X-287000Y-461000D02*
X-283000Y-457000D01*
X-287000Y-520000D02*
Y-461000D01*
X-298000Y-531000D02*
X-287000Y-520000D01*
X278000Y-415002D02*
Y-405000D01*
X278000Y-405000D01*
X-304000Y-525000D02*
X-298000Y-531000D01*
X-519599Y-161598D02*
X-505402D01*
X-478402D01*
X-457000Y-183000D01*
X-392328Y-236413D02*
X-378741Y-250000D01*
X-457000Y-239000D02*
X-452000Y-244000D01*
X-406000D02*
X-392328Y-257672D01*
X72000Y-197000D02*
Y-189000D01*
Y-197000D02*
X72000Y-197000D01*
X98646Y-179498D02*
Y-162354D01*
X72000Y-168000D02*
X72000Y-168000D01*
X72000Y-175000D02*
X72000D01*
Y-176000D02*
Y-175000D01*
Y-168000D01*
Y-175000D02*
X85000D01*
X85946Y-175946D01*
Y-179498D02*
Y-175946D01*
X98646Y-196354D02*
Y-179498D01*
X93000Y-202000D02*
X98646Y-196354D01*
X72000Y-197000D02*
X77000Y-202000D01*
X93000D01*
X76702Y-224600D02*
Y-202298D01*
X77000Y-202000D01*
X76702Y-246702D02*
Y-224600D01*
Y-246702D02*
X88532Y-258532D01*
Y-313468D02*
Y-258532D01*
X-11800Y252200D02*
Y269500D01*
X-12000Y252000D02*
X-11800Y252200D01*
X-68998Y310998D02*
X-59001D01*
X-69000Y311000D02*
X-68998Y310998D01*
X-43000Y278000D02*
X-42998Y278002D01*
Y287999D01*
X-77000Y298998D02*
Y307000D01*
X-77000Y307000D01*
X-65000Y329000D02*
X-57002D01*
X-65000Y329000D02*
X-65000Y329000D01*
X-88002Y298998D02*
X-77000D01*
X-89000Y298000D02*
X-88002Y298998D01*
X-89000Y261000D02*
X-80000Y252000D01*
X-89000Y261000D02*
Y298000D01*
X-80000Y252000D02*
X-12000D01*
X-89000Y298000D02*
Y322000D01*
X-82000Y329000D01*
X-65000D01*
X-57002Y312997D02*
Y329000D01*
X-59001Y310998D02*
X-57002Y312997D01*
X703957Y204900D02*
X706957Y201900D01*
Y187700D02*
Y201900D01*
X672458Y204900D02*
X703957D01*
X592458D02*
X612458D01*
X632458D01*
X652458D01*
X672458D01*
X502Y-224600D02*
Y-200498D01*
X4000Y-197000D01*
X72000D01*
X112000Y346998D02*
Y358998D01*
X-601400Y486600D02*
X-456701D01*
X-614000Y474000D02*
X-601400Y486600D01*
X-613002Y67002D02*
X-571599D01*
X-614000Y68000D02*
X-613002Y67002D01*
X-612998Y194002D02*
X-571599D01*
X-614000Y193000D02*
X-612998Y194002D01*
X-614000Y68000D02*
Y193000D01*
X-612998Y321002D02*
X-571599D01*
X-614000Y320000D02*
X-612998Y321002D01*
X-614000Y193000D02*
Y320000D01*
Y474000D01*
X572458Y204900D02*
X592458D01*
X-571599Y-161598D02*
X-559402D01*
X-559000Y-162000D01*
X-519599Y-59998D02*
X-437002D01*
X-419468Y-77532D01*
Y-242532D02*
Y-77532D01*
Y-242532D02*
X-418000Y-244000D01*
X-452000D02*
X-418000D01*
X-406000D01*
X-625000Y-324000D02*
X-625000Y-324000D01*
X-625000Y-337000D02*
X-625000Y-337000D01*
X-616998Y-336997D02*
Y-324000D01*
X-617002Y-337000D02*
X-616998Y-336997D01*
X-614000Y-59000D02*
Y68000D01*
Y-59000D02*
X-613002Y-59998D01*
X-571599D01*
X-630998D02*
X-613002D01*
X-636000Y-65000D02*
X-630998Y-59998D01*
X-636000Y-320000D02*
Y-65000D01*
Y-320000D02*
X-632000Y-324000D01*
X-625000D01*
X-586000Y-212398D02*
X-571599D01*
X-558398D01*
X-558000Y-212000D01*
X-550000D01*
X-588602Y-212398D02*
X-586000D01*
X-593000Y-208000D02*
X-588602Y-212398D01*
X-453000Y-674500D02*
X-452500Y-675000D01*
X-437003Y-563998D02*
X-437000Y-564002D01*
D23*
X-271000Y-479002D02*
X-254450D01*
X-392328Y-440328D02*
X-350000Y-482656D01*
Y-502002D02*
Y-482656D01*
X-304298Y-514702D02*
Y-276600D01*
Y-514702D02*
X-304000Y-515000D01*
X148000Y414000D02*
X150000Y412000D01*
Y408625D02*
Y412000D01*
X149000Y407625D02*
X150000Y408625D01*
X125000Y414000D02*
X148000D01*
X149000Y405375D02*
Y407625D01*
Y405375D02*
X150000Y404375D01*
X125000Y399000D02*
Y414000D01*
X520000Y214502D02*
Y222000D01*
X122500Y-77957D02*
Y-67500D01*
X92500Y-77957D02*
Y-67500D01*
X-75701Y400299D02*
Y434600D01*
X-109000Y367000D02*
X-75701Y400299D01*
X-109000Y225000D02*
Y367000D01*
X-116000Y213000D02*
Y459000D01*
Y213000D02*
X-96000Y193000D01*
X-126501Y469501D02*
X-116000Y459000D01*
X-109000Y225000D02*
X-84000Y200000D01*
Y171000D02*
Y185000D01*
X-89000Y166000D02*
X-84000Y171000D01*
X-89000Y-243000D02*
Y166000D01*
X-96000Y-179700D02*
Y178000D01*
X-96000Y178000D02*
X-96000Y178000D01*
X326000Y202000D02*
X326000Y202000D01*
Y192002D02*
Y202000D01*
X313000Y192002D02*
Y202000D01*
Y192002D02*
X313000Y192002D01*
X-115000Y-245000D02*
Y-198700D01*
X-96000Y-179700D01*
X-126498Y-256498D02*
X-115000Y-245000D01*
X-126498Y-276600D02*
Y-256498D01*
X-101098Y-276600D02*
Y-255098D01*
X-89000Y-243000D01*
X-126501Y469501D02*
Y486600D01*
X-184500Y-526000D02*
Y-516538D01*
X-616998Y-307500D02*
Y-277500D01*
X-254710Y-502252D02*
X-241710D01*
X-229000Y-528000D02*
Y-516542D01*
X-212500Y-525000D02*
Y-515962D01*
X-254710Y-527290D02*
Y-516252D01*
X-603002Y-337000D02*
Y-298000D01*
X-241750Y-426500D02*
Y-406292D01*
X-185000Y-502998D02*
Y-492500D01*
X-190950Y-486550D02*
X-185000Y-492500D01*
X-190950Y-486550D02*
Y-473500D01*
X-203650Y-486350D02*
Y-473500D01*
Y-486350D02*
X-197500Y-492500D01*
Y-502998D02*
Y-492500D01*
X-227500Y-503002D02*
X-212500D01*
X-216350Y-488650D02*
Y-473500D01*
Y-488650D02*
X-212500Y-492500D01*
Y-503002D02*
Y-492500D01*
X-197500Y-516998D02*
Y-516538D01*
Y-526000D02*
Y-516998D01*
X-616998Y-277500D02*
Y-120797D01*
Y-311000D02*
Y-307500D01*
X137500Y-77957D02*
Y-67500D01*
X62500Y-77957D02*
Y-67500D01*
X77500Y-77957D02*
Y-67500D01*
X107500Y-77957D02*
Y-67500D01*
X124543Y-130000D02*
X135000D01*
X124046Y-130498D02*
X124543Y-130000D01*
X62500Y-92002D02*
X77500D01*
X92500D02*
X107500D01*
X122500D02*
X137500D01*
X111346Y-113654D02*
X122500Y-102500D01*
Y-92002D01*
X111346Y-130498D02*
Y-113654D01*
X92500Y-107500D02*
Y-92002D01*
Y-107500D02*
X98646Y-113646D01*
Y-130498D02*
Y-113646D01*
X77500Y-107500D02*
Y-92002D01*
Y-107500D02*
X80000Y-110000D01*
X82500D01*
X85946Y-113446D01*
Y-130498D02*
Y-113446D01*
X125000Y372998D02*
X125998Y372000D01*
X157000D01*
X900Y276500D02*
Y291100D01*
X-3000Y295000D02*
X900Y291100D01*
X-19000Y295000D02*
X-3000D01*
X-25000Y289000D02*
X-19000Y295000D01*
X157000Y372000D02*
X159500Y374500D01*
Y381625D01*
X900Y269500D02*
Y276500D01*
X13600D02*
Y292400D01*
Y269500D02*
Y276500D01*
X-608000Y-358002D02*
X-600998D01*
X-607000Y-110798D02*
X-571599D01*
X-616998Y-120797D02*
X-607000Y-110798D01*
X127502Y-224600D02*
Y-206502D01*
X124046Y-203046D02*
X127502Y-206502D01*
X124046Y-203046D02*
Y-179498D01*
X102102Y-224600D02*
Y-207898D01*
X111346Y-198654D01*
Y-179498D01*
X60350Y-470650D02*
Y-452500D01*
X79000Y-433000D02*
Y-428998D01*
X73050Y-438950D02*
X79000Y-433000D01*
X73050Y-452500D02*
Y-438950D01*
X60350Y-452500D02*
Y-438650D01*
X66000Y-433000D01*
Y-429002D01*
X47998D02*
X48000Y-429000D01*
X47650Y-429350D02*
X47998Y-429002D01*
X53000D01*
X40003D02*
X47998D01*
X40000Y-428998D02*
X40003Y-429002D01*
X47650Y-452500D02*
Y-429350D01*
X28500Y-452500D02*
X34950D01*
X27000Y-451000D02*
X28500Y-452500D01*
X27000Y-451000D02*
Y-428998D01*
X64000Y-301000D02*
X71000D01*
X76702Y-295298D01*
Y-276600D01*
X-152200Y-239000D02*
X-151898Y-238698D01*
X27000Y-414998D02*
Y-406000D01*
X27000Y-406000D02*
X27000Y-406000D01*
X40000Y-414998D02*
Y-406000D01*
X40000Y-406000D02*
X40000Y-406000D01*
X53000Y-415002D02*
Y-406003D01*
X53000Y-406003D02*
X53000Y-406003D01*
X66000Y-415002D02*
Y-406003D01*
X66000Y-406003D02*
X66000Y-406003D01*
X79000Y-406000D02*
X79000Y-406000D01*
Y-414998D02*
Y-406000D01*
X-151898Y-238698D02*
Y-224600D01*
X-177298Y-290698D02*
Y-276600D01*
X-177600Y-291000D02*
X-177298Y-290698D01*
X-203000Y-291000D02*
X-202698Y-290698D01*
Y-276600D01*
X-197500Y-516538D02*
X-197210Y-516248D01*
X-329698Y-296302D02*
X-315000Y-311000D01*
X-329698Y-296302D02*
Y-276600D01*
X-254710Y-527290D02*
X-252000Y-530000D01*
Y-545100D02*
Y-530000D01*
X-252700Y-545800D02*
X-252000Y-545100D01*
X-225000Y-545800D02*
Y-532000D01*
X-229000Y-528000D02*
X-225000Y-532000D01*
X-229000Y-516542D02*
X-228710Y-516252D01*
X-241710Y-493710D02*
X-238000Y-490000D01*
X-241710Y-502252D02*
Y-493710D01*
X-229050Y-487050D02*
Y-473500D01*
X-232000Y-490000D02*
X-229050Y-487050D01*
X-238000Y-490000D02*
X-232000D01*
X-213210Y-515252D02*
X-212500Y-515962D01*
X-241710Y-516252D02*
X-228710D01*
X-254450Y-426500D02*
Y-406508D01*
X-254710Y-406248D02*
X-254450Y-406508D01*
X-241750Y-406292D02*
X-241710Y-406252D01*
X-216350Y-426500D02*
Y-406352D01*
X-216000Y-406002D01*
X-203650Y-426500D02*
Y-395350D01*
X-206998Y-392002D02*
X-203650Y-395350D01*
X-216000Y-392002D02*
X-206998D01*
X-190950Y-426500D02*
Y-406052D01*
X-191000Y-406002D02*
X-190950Y-406052D01*
X-229050Y-426500D02*
Y-401050D01*
X-229000Y-401000D01*
X-266000Y-393000D02*
X-255462D01*
X-254710Y-392248D01*
X-254450Y-479002D02*
Y-473500D01*
X-315000Y-505000D02*
Y-311000D01*
X-271000Y-479002D02*
X-271000D01*
X20000Y-496998D02*
X32998D01*
X-20505Y-518000D02*
X-14000Y-524505D01*
X-169600Y-545800D02*
Y-523600D01*
X-164000Y-518000D01*
X-35000Y-625000D02*
X5001D01*
X-53000Y-607000D02*
X-35000Y-625000D01*
X-53000Y-607000D02*
Y-518000D01*
X-20505D01*
X7000D02*
Y-484000D01*
X16000Y-475000D01*
X40000D01*
X44000Y-479000D01*
X73000Y-501450D02*
X73050Y-501500D01*
X73000Y-501450D02*
Y-479000D01*
X44000D02*
X73000D01*
X121000Y-524505D02*
X151505D01*
X155000Y-528000D01*
Y-562000D02*
Y-528000D01*
Y-562000D02*
X164495Y-571495D01*
X186000D01*
X208998Y-479000D02*
X210000Y-477998D01*
X110000Y-507000D02*
Y-479000D01*
X73000D02*
X110000D01*
X237650Y-437632D02*
Y-420500D01*
X235530Y-439752D02*
X237650Y-437632D01*
X110000Y-479000D02*
X194000D01*
X208998D01*
X194000D02*
Y-446000D01*
X200248Y-439752D01*
X235530D01*
X197000Y-616999D02*
Y-589000D01*
Y-616999D02*
X205001Y-625000D01*
X186000Y-571495D02*
X203505D01*
X219000Y-556000D01*
X268000D01*
X283495Y-571495D01*
X302000D01*
X311002Y-616000D02*
Y-607002D01*
X311000Y-607000D02*
X311002Y-607002D01*
X311000Y-607000D02*
Y-600000D01*
X307000Y-596000D02*
X311000Y-600000D01*
X305000Y-596000D02*
X307000D01*
X302000Y-593000D02*
X305000Y-596000D01*
X302000Y-593000D02*
Y-589000D01*
X53000Y-415002D02*
X66000D01*
X66000Y-406003D02*
Y-398000D01*
X70000Y-394000D01*
X110000Y-479000D02*
Y-399000D01*
X105000Y-394000D02*
X110000Y-399000D01*
X-241855Y-384145D02*
X-241710Y-384290D01*
Y-392252D02*
Y-384290D01*
X-189962Y-392000D02*
X-182000D01*
X-181855Y-391855D01*
X-151145D01*
X-147000Y-396000D01*
Y-517000D02*
Y-396000D01*
X-148000Y-518000D02*
X-147000Y-517000D01*
X-164000Y-518000D02*
X-148000D01*
X-53000D01*
X-241855Y-384145D02*
X-237710Y-380000D01*
X-194000D01*
X-191000Y-383000D01*
Y-392002D02*
Y-383000D01*
X-191000Y-392002D02*
X-191000Y-392002D01*
X70000Y-394000D02*
X105000D01*
X-42999Y310998D02*
X-4998D01*
X13600Y292400D01*
X-59001Y274001D02*
Y289002D01*
Y274001D02*
X-54500Y269500D01*
X-28500D01*
X-25000Y273000D01*
Y289000D01*
X-43002Y311001D02*
Y329000D01*
Y311001D02*
X-42999Y310998D01*
X-77000Y284998D02*
X-71002D01*
X-66998Y289002D01*
X-59001D01*
X-437000Y-549002D02*
Y-541000D01*
X-437000Y-541000D01*
X-453000Y-541000D02*
X-453000Y-541000D01*
Y-548998D02*
Y-541000D01*
D24*
X205001Y-625000D02*
D03*
X240000D02*
D03*
X40000D02*
D03*
X5001D02*
D03*
D25*
X275001D02*
D03*
X75001D02*
D03*
D26*
X1000000Y-500000D02*
D03*
Y500000D02*
D03*
X-1000000D02*
D03*
X343000Y-283000D02*
D03*
Y493000D02*
D03*
X-793000D02*
D03*
Y-283000D02*
D03*
X-1000000Y-500000D02*
D03*
D27*
X-169600Y-545800D02*
D03*
X-183450Y-574200D02*
D03*
X-197300Y-545800D02*
D03*
X-211150Y-574200D02*
D03*
X-225000Y-545800D02*
D03*
X-238850Y-574200D02*
D03*
X-252700Y-545800D02*
D03*
X-266550Y-574200D02*
D03*
D28*
X-280400Y-545800D02*
D03*
D29*
X-349950Y-560000D02*
D03*
X-100050D02*
D03*
D30*
X132000Y-682700D02*
D03*
D31*
Y-657300D02*
D03*
D32*
X125000Y414000D02*
D03*
X520000Y222000D02*
D03*
X520000Y190000D02*
D03*
X512000D02*
D03*
X528000D02*
D03*
X66998Y235998D02*
D03*
X122500Y-67500D02*
D03*
X92500D02*
D03*
X62500D02*
D03*
X77500D02*
D03*
X-84000Y200000D02*
D03*
X-96000Y193000D02*
D03*
X-84000Y185000D02*
D03*
X-96000Y178000D02*
D03*
X326000Y202000D02*
D03*
X313000D02*
D03*
X300000Y201500D02*
D03*
X287000Y201500D02*
D03*
X287000Y234000D02*
D03*
X300000D02*
D03*
X268000Y200000D02*
D03*
X344000Y167000D02*
D03*
X252999Y167000D02*
D03*
X547456Y187700D02*
D03*
X76000Y472000D02*
D03*
X39000Y416000D02*
D03*
X-335000Y37500D02*
D03*
X-332500Y52500D02*
D03*
X-347500Y60000D02*
D03*
X-360000Y70000D02*
D03*
X-417500Y105000D02*
D03*
X-365000Y112500D02*
D03*
X-367500Y160000D02*
D03*
X527000Y150000D02*
D03*
X532000Y142500D02*
D03*
X537000Y135000D02*
D03*
X542000Y127500D02*
D03*
X547000Y120000D02*
D03*
X552000Y112500D02*
D03*
X557000Y105000D02*
D03*
X562000Y97500D02*
D03*
X567000Y90000D02*
D03*
X572000Y82500D02*
D03*
X577000Y75000D02*
D03*
X582000Y67500D02*
D03*
X587000Y60000D02*
D03*
X592000Y52500D02*
D03*
X597000Y45000D02*
D03*
X602000Y37500D02*
D03*
X607000Y30000D02*
D03*
X612000Y22500D02*
D03*
X522500Y157500D02*
D03*
X-495000Y105000D02*
D03*
X-450000Y-10000D02*
D03*
X-477000Y34000D02*
D03*
X-493001Y-35001D02*
D03*
X-449000Y83000D02*
D03*
X-467000Y258000D02*
D03*
X-549000Y-35000D02*
D03*
X-452000Y231000D02*
D03*
X-457750Y-20750D02*
D03*
X-431000Y245000D02*
D03*
X-455398Y-85398D02*
D03*
X-472000Y26000D02*
D03*
X-486001Y-9001D02*
D03*
X-495000Y92402D02*
D03*
Y67000D02*
D03*
X-443000Y270000D02*
D03*
X-500000Y143202D02*
D03*
X-503000Y45000D02*
D03*
X-459000Y118000D02*
D03*
X-495000Y51000D02*
D03*
X-429197Y219000D02*
D03*
X-437000Y207000D02*
D03*
X-543000Y152000D02*
D03*
X-556000Y-136000D02*
D03*
X505000Y160000D02*
D03*
X572458Y187700D02*
D03*
X-212500Y-525000D02*
D03*
X-590002Y-312498D02*
D03*
X-594998Y-277498D02*
D03*
X145000Y507500D02*
D03*
X135000Y347500D02*
D03*
X137500Y-67500D02*
D03*
X107500D02*
D03*
X135000Y-130000D02*
D03*
X-335000Y-250000D02*
D03*
X135000Y359000D02*
D03*
X60350Y-470650D02*
D03*
X26000Y416000D02*
D03*
X52000D02*
D03*
X57000Y236000D02*
D03*
X64000Y-301000D02*
D03*
X27000Y-406000D02*
D03*
X40000D02*
D03*
X53000Y-406003D02*
D03*
X66000D02*
D03*
X79000Y-406000D02*
D03*
X-151898Y-238698D02*
D03*
X-177298Y-290698D02*
D03*
X-202698D02*
D03*
X-184500Y-526000D02*
D03*
X-197500D02*
D03*
X-229000Y-401000D02*
D03*
X-266000Y-393000D02*
D03*
X692457Y187700D02*
D03*
X672458D02*
D03*
X652458D02*
D03*
X632458D02*
D03*
X612458D02*
D03*
X592458D02*
D03*
X-584000Y-347000D02*
D03*
Y-377000D02*
D03*
X-591000Y-411000D02*
D03*
X-581000Y-403000D02*
D03*
X-614000Y-423000D02*
D03*
X-623000Y-422500D02*
D03*
X-605000Y-423500D02*
D03*
X-315000Y-505000D02*
D03*
X-304000Y-515000D02*
D03*
X-271000Y-457000D02*
D03*
X-242000Y-460000D02*
D03*
X-271000Y-487000D02*
D03*
X-25000Y-507000D02*
D03*
X-14000D02*
D03*
X-3000D02*
D03*
X132000D02*
D03*
X121000D02*
D03*
X110000D02*
D03*
X175000Y-589000D02*
D03*
X186000D02*
D03*
X197000D02*
D03*
X291000D02*
D03*
X302000D02*
D03*
X313000D02*
D03*
X20000Y-489000D02*
D03*
Y-519000D02*
D03*
X73000D02*
D03*
X210000Y-486000D02*
D03*
X278000Y-405000D02*
D03*
X221000Y-394000D02*
D03*
X237000Y-389000D02*
D03*
X251000Y-437000D02*
D03*
X89802Y344002D02*
D03*
Y332795D02*
D03*
X-431000Y411000D02*
D03*
X311000Y-607000D02*
D03*
X-241855Y-384145D02*
D03*
X-181855Y-391855D02*
D03*
X-284000Y-250000D02*
D03*
X-505402Y-161598D02*
D03*
X-457000Y-239000D02*
D03*
X72000Y-197000D02*
D03*
X98646Y-162354D02*
D03*
X72000Y-168000D02*
D03*
X-12000Y252000D02*
D03*
X-69000Y311000D02*
D03*
X-43000Y278000D02*
D03*
X-77000Y307000D02*
D03*
X-65000Y329000D02*
D03*
X-535000Y194000D02*
D03*
X-558000D02*
D03*
Y321000D02*
D03*
X-535000D02*
D03*
X-558000Y67000D02*
D03*
X-535000D02*
D03*
X-558000Y-60000D02*
D03*
X-535000D02*
D03*
X-559000Y-162000D02*
D03*
X-392000Y-190000D02*
D03*
X-625000Y-324000D02*
D03*
X-625000Y-337000D02*
D03*
X-440000Y411000D02*
D03*
X-422000D02*
D03*
X-586000Y-212398D02*
D03*
X-558000Y-212000D02*
D03*
X-550000D02*
D03*
X-593000Y-208000D02*
D03*
X-437000Y-541000D02*
D03*
X-453000Y-541000D02*
D03*
D33*
X140000Y-632998D02*
D03*
Y-618998D02*
D03*
X125000Y-632998D02*
D03*
Y-618998D02*
D03*
X300000Y210998D02*
D03*
Y224998D02*
D03*
X287000Y210998D02*
D03*
Y224998D02*
D03*
X326000Y192002D02*
D03*
Y178002D02*
D03*
X313000Y192002D02*
D03*
Y178002D02*
D03*
X300000Y192002D02*
D03*
Y178002D02*
D03*
X287000Y192002D02*
D03*
Y178002D02*
D03*
X268000Y192002D02*
D03*
Y178002D02*
D03*
X137500Y-92002D02*
D03*
Y-78002D02*
D03*
X107500Y-92002D02*
D03*
Y-78002D02*
D03*
X77500Y-92002D02*
D03*
Y-78002D02*
D03*
X122500Y-92002D02*
D03*
Y-78002D02*
D03*
X92500Y-92002D02*
D03*
Y-78002D02*
D03*
X62500Y-92002D02*
D03*
Y-78002D02*
D03*
X-437000Y-564002D02*
D03*
Y-550002D02*
D03*
X-453000Y-549998D02*
D03*
Y-563998D02*
D03*
X-350000Y-502002D02*
D03*
Y-516002D02*
D03*
X26000Y391998D02*
D03*
Y405998D02*
D03*
X13000Y391998D02*
D03*
Y405998D02*
D03*
X52000Y391998D02*
D03*
Y405998D02*
D03*
X65000Y391998D02*
D03*
Y405998D02*
D03*
X125000Y385000D02*
D03*
Y399000D02*
D03*
X125000Y358998D02*
D03*
Y372998D02*
D03*
X112000Y358998D02*
D03*
Y372998D02*
D03*
Y332998D02*
D03*
Y346998D02*
D03*
X-608000Y-372002D02*
D03*
Y-358002D02*
D03*
X-622500Y-372002D02*
D03*
Y-358002D02*
D03*
X-591000Y-388998D02*
D03*
Y-402998D02*
D03*
X-254710Y-392248D02*
D03*
Y-406248D02*
D03*
X-240000Y-407002D02*
D03*
Y-393002D02*
D03*
X-212500Y-517002D02*
D03*
Y-503002D02*
D03*
X-227500Y-517002D02*
D03*
Y-503002D02*
D03*
X-242500Y-517002D02*
D03*
Y-503002D02*
D03*
X-257500Y-517002D02*
D03*
Y-503002D02*
D03*
X-185000Y-502998D02*
D03*
Y-516998D02*
D03*
X-197500Y-502998D02*
D03*
Y-516998D02*
D03*
X27000Y-414998D02*
D03*
Y-428998D02*
D03*
X40000Y-414998D02*
D03*
Y-428998D02*
D03*
X79000Y-414998D02*
D03*
Y-428998D02*
D03*
X53000Y-429002D02*
D03*
Y-415002D02*
D03*
X66000Y-429002D02*
D03*
Y-415002D02*
D03*
X47000Y-542002D02*
D03*
Y-528002D02*
D03*
X61000Y-542002D02*
D03*
Y-528002D02*
D03*
X210000Y-463998D02*
D03*
Y-477998D02*
D03*
X210000Y-429002D02*
D03*
Y-415002D02*
D03*
X278000Y-429002D02*
D03*
Y-415002D02*
D03*
Y-478002D02*
D03*
Y-464002D02*
D03*
X-77000Y284998D02*
D03*
Y298998D02*
D03*
X20000Y-496998D02*
D03*
Y-510998D02*
D03*
X-216000Y-406002D02*
D03*
Y-392002D02*
D03*
X-191000Y-406002D02*
D03*
Y-392002D02*
D03*
X-271000Y-479002D02*
D03*
Y-465002D02*
D03*
X72000Y-175000D02*
D03*
Y-189000D02*
D03*
X39000Y391998D02*
D03*
Y405998D02*
D03*
X520000Y200502D02*
D03*
Y214502D02*
D03*
D34*
X-616998Y-322500D02*
D03*
X-602998D02*
D03*
X-616998Y-307500D02*
D03*
X-602998D02*
D03*
X-603002Y-292500D02*
D03*
X-617002D02*
D03*
X-602998Y-277500D02*
D03*
X-616998D02*
D03*
X-574998Y-337000D02*
D03*
X-588998D02*
D03*
X-575498Y-322500D02*
D03*
X-589498D02*
D03*
X-617002Y-337000D02*
D03*
X-603002D02*
D03*
X325002Y-616000D02*
D03*
X311002D02*
D03*
X325002Y-642000D02*
D03*
X311002D02*
D03*
X325002Y-629000D02*
D03*
X311002D02*
D03*
X251002Y-397000D02*
D03*
X237002D02*
D03*
X-57002Y329000D02*
D03*
X-43002D02*
D03*
D35*
X-452500Y-585000D02*
D03*
Y-675000D02*
D03*
X-407500Y-585000D02*
D03*
Y-675000D02*
D03*
D36*
X-519599Y-34598D02*
D03*
Y-59998D02*
D03*
Y-85398D02*
D03*
Y-110798D02*
D03*
X-571599Y-34598D02*
D03*
Y-59998D02*
D03*
Y-85398D02*
D03*
Y-110798D02*
D03*
X-519599Y-186998D02*
D03*
Y-161598D02*
D03*
Y-136198D02*
D03*
X-571599D02*
D03*
Y-161598D02*
D03*
Y-186998D02*
D03*
Y-212398D02*
D03*
X-519599Y-9198D02*
D03*
Y16202D02*
D03*
Y41602D02*
D03*
Y67002D02*
D03*
Y92402D02*
D03*
Y117802D02*
D03*
Y143202D02*
D03*
Y168602D02*
D03*
Y194002D02*
D03*
Y219402D02*
D03*
Y244802D02*
D03*
Y270202D02*
D03*
Y295602D02*
D03*
Y321002D02*
D03*
Y346402D02*
D03*
X-571599Y-9198D02*
D03*
Y16202D02*
D03*
Y41602D02*
D03*
Y67002D02*
D03*
Y92402D02*
D03*
Y117802D02*
D03*
Y143202D02*
D03*
Y168602D02*
D03*
Y194002D02*
D03*
Y219402D02*
D03*
Y244802D02*
D03*
Y270202D02*
D03*
Y295602D02*
D03*
Y321002D02*
D03*
Y346402D02*
D03*
Y371802D02*
D03*
Y397202D02*
D03*
X-519599Y371802D02*
D03*
Y397202D02*
D03*
Y422602D02*
D03*
X-571599D02*
D03*
D37*
X-519599Y-212398D02*
D03*
D38*
X85946Y-130498D02*
D03*
X98646D02*
D03*
X111346D02*
D03*
X124046D02*
D03*
X85946Y-179498D02*
D03*
X98646D02*
D03*
X111346D02*
D03*
X124046D02*
D03*
X73050Y-501500D02*
D03*
X60350D02*
D03*
X47650D02*
D03*
X34950D02*
D03*
X73050Y-452500D02*
D03*
X60350D02*
D03*
X47650D02*
D03*
X34950D02*
D03*
X263050Y-469500D02*
D03*
X250350D02*
D03*
X237650D02*
D03*
X224950D02*
D03*
X263050Y-420500D02*
D03*
X250350D02*
D03*
X237650D02*
D03*
X224950D02*
D03*
D39*
X275905Y145600D02*
D03*
X280905D02*
D03*
X285905D02*
D03*
X320905D02*
D03*
X315905D02*
D03*
X310905D02*
D03*
X305905D02*
D03*
X300905D02*
D03*
X295905D02*
D03*
X290905D02*
D03*
D40*
X343655Y126600D02*
D03*
X253155D02*
D03*
D41*
X667456Y176800D02*
D03*
X662458D02*
D03*
X657456D02*
D03*
X647456D02*
D03*
X642458D02*
D03*
X637456D02*
D03*
X627456D02*
D03*
X622458D02*
D03*
X617456D02*
D03*
X552458D02*
D03*
X557456D02*
D03*
X562458D02*
D03*
X567456D02*
D03*
X577456D02*
D03*
X582458D02*
D03*
X587456D02*
D03*
X597456D02*
D03*
X602458D02*
D03*
X607456D02*
D03*
X682457D02*
D03*
X497457D02*
D03*
X502458D02*
D03*
X507457D02*
D03*
X512458D02*
D03*
X517457D02*
D03*
X522458D02*
D03*
X527457D02*
D03*
X532458D02*
D03*
X537457D02*
D03*
X542458D02*
D03*
X547456D02*
D03*
X572458D02*
D03*
X592458D02*
D03*
X612458D02*
D03*
X632458D02*
D03*
X652458D02*
D03*
X672458D02*
D03*
X677456D02*
D03*
X687456D02*
D03*
X692457D02*
D03*
D42*
X-515000Y-445000D02*
D03*
Y-515000D02*
D03*
D43*
X478158Y151900D02*
D03*
X711756D02*
D03*
D44*
X-11800Y367500D02*
D03*
X900D02*
D03*
X13600D02*
D03*
X26300D02*
D03*
X39000D02*
D03*
X51700D02*
D03*
X64400D02*
D03*
X77100D02*
D03*
X89800D02*
D03*
X-11800Y276500D02*
D03*
X900D02*
D03*
X13600D02*
D03*
X26300D02*
D03*
X39000D02*
D03*
X51700D02*
D03*
X64400D02*
D03*
X77100D02*
D03*
X89800D02*
D03*
D45*
X178302Y-224600D02*
D03*
Y-276600D02*
D03*
X152902D02*
D03*
X127502D02*
D03*
X152902Y-224600D02*
D03*
X127502D02*
D03*
X102102D02*
D03*
X76702D02*
D03*
X51302D02*
D03*
X25902D02*
D03*
X502D02*
D03*
X-24898D02*
D03*
X-50298D02*
D03*
X-75698D02*
D03*
X-101098D02*
D03*
X-126498D02*
D03*
X-151898D02*
D03*
X-177298D02*
D03*
X-202698D02*
D03*
X-228098D02*
D03*
X-253498D02*
D03*
X102102Y-276600D02*
D03*
X76702D02*
D03*
X51302D02*
D03*
X25902D02*
D03*
X502D02*
D03*
X-24898D02*
D03*
X-50298D02*
D03*
X-75698D02*
D03*
X-101098D02*
D03*
X-126498D02*
D03*
X-151898D02*
D03*
X-177298D02*
D03*
X-202698D02*
D03*
X-228098D02*
D03*
X-253498D02*
D03*
X-456698Y-224600D02*
D03*
X-431298D02*
D03*
X-405898D02*
D03*
X-380498D02*
D03*
Y-276600D02*
D03*
X-405898D02*
D03*
X-431298D02*
D03*
X-355098Y-224600D02*
D03*
X-329698D02*
D03*
X-304298D02*
D03*
X-278898D02*
D03*
X-355098Y-276600D02*
D03*
X-329698D02*
D03*
X-304298D02*
D03*
X-278898D02*
D03*
X178299Y486600D02*
D03*
Y434600D02*
D03*
X152899D02*
D03*
X127499D02*
D03*
X152899Y486600D02*
D03*
X127499D02*
D03*
X102099D02*
D03*
X76699D02*
D03*
X51299D02*
D03*
X25899D02*
D03*
X499D02*
D03*
X-24901D02*
D03*
X-50301D02*
D03*
X-75701D02*
D03*
X-101101D02*
D03*
X-126501D02*
D03*
X-151901D02*
D03*
X-177301D02*
D03*
X-202701D02*
D03*
X-228101D02*
D03*
X-253501D02*
D03*
X102099Y434600D02*
D03*
X76699D02*
D03*
X51299D02*
D03*
X25899D02*
D03*
X499D02*
D03*
X-24901D02*
D03*
X-50301D02*
D03*
X-75701D02*
D03*
X-101101D02*
D03*
X-126501D02*
D03*
X-151901D02*
D03*
X-177301D02*
D03*
X-202701D02*
D03*
X-228101D02*
D03*
X-253501D02*
D03*
X-456701Y486600D02*
D03*
X-431301D02*
D03*
X-405901D02*
D03*
X-380501D02*
D03*
Y434600D02*
D03*
X-405901D02*
D03*
X-431301D02*
D03*
X-355101Y486600D02*
D03*
X-329701D02*
D03*
X-304301D02*
D03*
X-278901D02*
D03*
X-355101Y434600D02*
D03*
X-329701D02*
D03*
X-304301D02*
D03*
X-278901D02*
D03*
D46*
X-456698Y-276600D02*
D03*
X-456701Y434600D02*
D03*
D47*
X159500Y383625D02*
D03*
X140500D02*
D03*
D48*
X150000Y404375D02*
D03*
D49*
X-42999Y289002D02*
D03*
X-59001D02*
D03*
X-42999Y310998D02*
D03*
X-59001D02*
D03*
D50*
X-584000Y-362000D02*
D03*
D51*
X-592750Y-354500D02*
D03*
Y-359500D02*
D03*
Y-364500D02*
D03*
Y-369500D02*
D03*
X-575250D02*
D03*
Y-364500D02*
D03*
Y-359500D02*
D03*
Y-354500D02*
D03*
D52*
X-614000Y-385500D02*
D03*
Y-412500D02*
D03*
D53*
X31505Y-572000D02*
D03*
X78495D02*
D03*
D54*
X231300Y-504500D02*
D03*
X256700D02*
D03*
X231300Y-579500D02*
D03*
X256700D02*
D03*
D55*
X186000Y-524505D02*
D03*
Y-571495D02*
D03*
X302000Y-524505D02*
D03*
Y-571495D02*
D03*
X121000D02*
D03*
Y-524505D02*
D03*
X-14000Y-571495D02*
D03*
Y-524505D02*
D03*
D56*
X-528000Y-393750D02*
D03*
Y-330250D02*
D03*
D57*
X-254450Y-426500D02*
D03*
X-241750D02*
D03*
X-229050D02*
D03*
X-216350D02*
D03*
X-203650D02*
D03*
X-190950D02*
D03*
X-178250D02*
D03*
X-165550D02*
D03*
X-254450Y-473500D02*
D03*
X-241750D02*
D03*
X-229050D02*
D03*
X-216350D02*
D03*
X-203650D02*
D03*
X-190950D02*
D03*
X-178250D02*
D03*
X-165550D02*
D03*
D58*
X-890400Y-549600D02*
D03*
X890400D02*
D03*
Y549600D02*
D03*
D59*
X-431298Y-276600D02*
Y-263583D01*
X-440378Y-276600D02*
X-431298D01*
X-422218D01*
X-519599Y-186998D02*
X-506582D01*
X-431298Y-289617D02*
Y-276600D01*
X-519599Y-186998D02*
Y-177918D01*
X-532616Y-186998D02*
X-519599D01*
Y-196078D02*
Y-186998D01*
X-528000Y-330250D02*
Y-321500D01*
Y-339000D02*
Y-330250D01*
X-487500D01*
X-575498Y-322500D02*
Y-314000D01*
X-574998Y-337000D02*
X-566998D01*
X-575498Y-322500D02*
X-567498D01*
X-528000Y-393750D02*
Y-385000D01*
Y-393750D02*
X-487500D01*
X-528000Y-402500D02*
Y-393750D01*
X-350000Y-559950D02*
X-349950Y-560000D01*
X-350000Y-559950D02*
Y-519000D01*
X-431301Y411301D02*
Y434600D01*
Y411301D02*
X-431000Y411000D01*
X-440000D02*
X-431000D01*
X-422000D01*
D60*
X-630500Y-358002D02*
X-622500D01*
Y-350502D01*
D61*
X-130500Y-642500D02*
X-100050Y-612050D01*
X-321500Y-642500D02*
X-130500D01*
X-349950Y-614050D02*
X-321500Y-642500D01*
X-100050Y-612050D02*
Y-560000D01*
X-349950Y-614050D02*
Y-560000D01*
D62*
X547456Y176800D02*
Y187700D01*
X527000Y150000D02*
X548717D01*
X532000Y142500D02*
X549816D01*
X537000Y135000D02*
X549272D01*
X542000Y127500D02*
X548136D01*
X547000Y120000D02*
X587456Y160456D01*
X552000Y112500D02*
X552806D01*
X557000Y105000D02*
X602458Y150458D01*
X562000Y97500D02*
X607456Y142956D01*
X567000Y90000D02*
X617456Y140456D01*
X572000Y82500D02*
X622458Y132957D01*
X577000Y75000D02*
X627456Y125456D01*
X582000Y67500D02*
X637456Y122956D01*
X587000Y60000D02*
X642458Y115457D01*
X592000Y52500D02*
X647456Y107956D01*
X597000Y45000D02*
X657456Y105456D01*
X602000Y37500D02*
X662458Y97957D01*
X607000Y30000D02*
X667456Y90456D01*
X612000Y22500D02*
X682457Y92957D01*
X522500Y157500D02*
X549328D01*
X682457Y92957D02*
Y176800D01*
X667456Y90456D02*
Y176800D01*
X662458Y97957D02*
Y176800D01*
X657456Y105456D02*
Y176800D01*
X647456Y107956D02*
Y176800D01*
X642458Y115457D02*
Y176800D01*
X637456Y122956D02*
Y176800D01*
X627456Y125456D02*
Y176800D01*
X622458Y132957D02*
Y176800D01*
X617456Y140456D02*
Y176800D01*
X607456Y142956D02*
Y176800D01*
X602458Y150458D02*
Y176800D01*
X597456Y157150D02*
Y176800D01*
X552806Y112500D02*
X597456Y157150D01*
X587456Y160456D02*
Y176800D01*
X582458Y161822D02*
Y176800D01*
X548136Y127500D02*
X582458Y161822D01*
X577456Y163184D02*
Y176800D01*
X549272Y135000D02*
X577456Y163184D01*
X567456Y160140D02*
Y176800D01*
X549816Y142500D02*
X567456Y160140D01*
X562458Y163740D02*
Y176800D01*
X548717Y150000D02*
X562458Y163740D01*
X549328Y157500D02*
X557456Y165628D01*
Y176800D01*
X572458D02*
Y187700D01*
Y204900D01*
X672458Y176800D02*
Y187700D01*
X652458Y176800D02*
Y187700D01*
X632458Y176800D02*
Y187700D01*
X612458Y176800D02*
Y187700D01*
X592458Y176800D02*
Y187700D01*
X672458D02*
Y204900D01*
X652458Y187700D02*
Y204900D01*
X632458Y187700D02*
Y204900D01*
X612458Y187700D02*
Y204900D01*
X592458Y187700D02*
Y204900D01*
M02*
