G04 Layer_Color=128*
%FSLAX44Y44*%
%MOMM*%
G71*
G01*
G75*
%ADD93C,0.0508*%
D93*
X16000Y32000D02*
X48000D01*
X32000Y16000D02*
Y48000D01*
X300500Y202500D02*
X303500D01*
X302000Y201000D02*
Y204000D01*
X309500Y202000D02*
X312500D01*
X311000Y200500D02*
Y203500D01*
X318500Y201500D02*
X321500D01*
X320000Y200000D02*
Y203000D01*
X332500Y214000D02*
X335500D01*
X334000Y212500D02*
Y215500D01*
X342500Y222000D02*
X345500D01*
X344000Y220500D02*
Y223500D01*
X341000Y246500D02*
Y249500D01*
X339500Y248000D02*
X342500D01*
X341000Y276500D02*
Y279500D01*
X339500Y278000D02*
X342500D01*
X334998Y311002D02*
Y314002D01*
X333498Y312502D02*
X336498D01*
X330002Y346002D02*
Y349002D01*
X328502Y347502D02*
X331502D01*
X418098Y463402D02*
X421098D01*
X419598Y461902D02*
Y464902D01*
X466500Y386000D02*
X469500D01*
X468000Y384500D02*
Y387500D01*
X588500Y375000D02*
X591500D01*
X590000Y373500D02*
Y376500D01*
X657500Y312000D02*
X660500D01*
X659000Y310500D02*
Y313500D01*
X655500Y248000D02*
X652500D01*
X654000Y246500D02*
Y249500D01*
X654000Y219500D02*
Y216500D01*
X652500Y218000D02*
X655500D01*
X622500Y190000D02*
X619500D01*
X621000Y191500D02*
Y188500D01*
X639150Y159200D02*
X650050D01*
X644600Y153750D02*
Y164650D01*
X653000Y130800D02*
X663900D01*
X658450Y125350D02*
Y136250D01*
X680700Y130800D02*
X691600D01*
X686150Y125350D02*
Y136250D01*
X708400Y130800D02*
X719300D01*
X713850Y125350D02*
Y136250D01*
X736100Y130800D02*
X747000D01*
X741550Y125350D02*
Y136250D01*
X749950Y159200D02*
X760850D01*
X755400Y153750D02*
Y164650D01*
X740500Y177500D02*
Y180500D01*
X739000Y179000D02*
X742000D01*
X808650Y145000D02*
X841250D01*
X824950Y128700D02*
Y161300D01*
X923001Y80000D02*
X937001D01*
X930001Y73000D02*
Y87000D01*
X958000Y80000D02*
X972000D01*
X965000Y73000D02*
Y87000D01*
X993001Y80000D02*
X1007001D01*
X1000001Y73000D02*
Y87000D01*
X1052500Y47700D02*
X1061500D01*
X1057000Y43200D02*
Y52200D01*
Y26800D02*
Y17800D01*
X1052500Y22300D02*
X1061500D01*
X1123001Y80000D02*
X1137001D01*
X1130001Y73000D02*
Y87000D01*
X1122000Y114500D02*
Y117500D01*
X1120500Y116000D02*
X1123500D01*
X1112500D02*
X1109500D01*
X1111000Y114500D02*
Y117500D01*
X1101500Y116000D02*
X1098500D01*
X1100000Y114500D02*
Y117500D01*
X1158000Y80000D02*
X1172000D01*
X1165000Y73000D02*
Y87000D01*
X1193001Y80000D02*
X1207001D01*
X1200001Y73000D02*
Y87000D01*
X1214500Y116000D02*
X1217500D01*
X1216000Y114500D02*
Y117500D01*
X1225500Y116000D02*
X1228500D01*
X1227000Y114500D02*
Y117500D01*
X1236500Y116000D02*
X1239500D01*
X1238000Y114500D02*
Y117500D01*
X1237500Y98000D02*
X1234500D01*
X1236000Y96500D02*
Y99500D01*
X1135000Y217500D02*
Y220500D01*
X1133500Y219000D02*
X1136500D01*
X1174500Y268000D02*
X1177500D01*
X1176000Y266500D02*
Y269500D01*
X1201500Y300000D02*
X1204500D01*
X1203000Y298500D02*
Y301500D01*
X1162000Y314500D02*
Y317500D01*
X1160500Y316000D02*
X1163500D01*
X1268000Y326000D02*
Y358000D01*
X1252000Y342000D02*
X1284000D01*
X1159998Y413499D02*
Y416499D01*
X1158498Y414999D02*
X1161498D01*
X1171000Y442500D02*
X1174000D01*
X1172500Y441000D02*
Y444000D01*
X1147500Y311000D02*
X1144500D01*
X1146000Y309500D02*
Y312500D01*
X1058500Y198000D02*
X1055500D01*
X1057000Y196500D02*
Y199500D01*
X1047500Y198000D02*
X1044500D01*
X1046000Y196500D02*
Y199500D01*
X1036500Y198000D02*
X1033500D01*
X1035000Y196500D02*
Y199500D01*
X1004000Y297500D02*
Y300500D01*
X1002500Y299000D02*
X1005500D01*
X992500Y298997D02*
X989500D01*
X991000Y297497D02*
Y300497D01*
X979500Y298997D02*
X976500D01*
X978000Y297497D02*
Y300497D01*
X966500Y299000D02*
X963500D01*
X965000Y297500D02*
Y300500D01*
X953500Y299000D02*
X950500D01*
X952000Y297500D02*
Y300500D01*
X987500Y324000D02*
X990500D01*
X989000Y322500D02*
Y325500D01*
X986850Y234350D02*
X983850D01*
X985350Y232850D02*
Y235850D01*
X946500Y216000D02*
X943500D01*
X945000Y214500D02*
Y217500D01*
X923500Y198000D02*
X920500D01*
X922000Y196500D02*
Y199500D01*
X912500Y198000D02*
X909500D01*
X911000Y196500D02*
Y199500D01*
X901500Y198000D02*
X898500D01*
X900000Y196500D02*
Y199500D01*
X943500Y186000D02*
X946500D01*
X996500D02*
X999500D01*
X998000Y184500D02*
Y187500D01*
X945000D02*
Y184500D01*
X743145Y311645D02*
Y314645D01*
X741645Y313145D02*
X744645D01*
X822402Y362498D02*
X825402D01*
X823902Y360998D02*
Y363998D01*
X800002Y362498D02*
X797002D01*
X798502Y360998D02*
Y363998D01*
X773102Y384802D02*
Y387802D01*
X771602Y386302D02*
X774602D01*
X749202Y334302D02*
X746202D01*
X747702Y332802D02*
Y335802D01*
X723802Y334302D02*
X720802D01*
X722302Y332802D02*
Y335802D01*
X684645Y320855D02*
X681645D01*
X683145Y319355D02*
Y322355D01*
X694500Y304000D02*
X697500D01*
X696000Y302500D02*
Y305500D01*
X684500Y245000D02*
X681500D01*
X683000Y243500D02*
Y246500D01*
X677750Y159200D02*
X666850D01*
X672300Y153750D02*
Y164650D01*
X694550Y159200D02*
X705450D01*
X700000Y153750D02*
Y164650D01*
X711000Y180000D02*
X714000D01*
X712500Y178500D02*
Y181500D01*
X726000Y179000D02*
X729000D01*
X727500Y177500D02*
Y180500D01*
X727700Y164650D02*
Y153750D01*
X722250Y159200D02*
X733150D01*
X610000Y198500D02*
Y201500D01*
X608500Y200000D02*
X611500D01*
X591350Y145000D02*
X558750D01*
X575050Y128700D02*
Y161300D01*
X488000Y162500D02*
Y165500D01*
X486500Y164000D02*
X489500D01*
X473500Y164000D02*
X470500D01*
X472000Y162500D02*
Y165500D01*
X639500Y375000D02*
X642500D01*
X641000Y373500D02*
Y376500D01*
X533000Y433500D02*
Y436500D01*
X531500Y435000D02*
X534500D01*
X469602Y538102D02*
Y541102D01*
X468102Y539602D02*
X471102D01*
X467250Y602750D02*
Y605750D01*
X465750Y604250D02*
X468750D01*
X473500Y615000D02*
X476500D01*
X475000Y613500D02*
Y616500D01*
X476000Y706500D02*
Y709500D01*
X474500Y708000D02*
X477500D01*
X508500Y713000D02*
X511500D01*
X510000Y711500D02*
Y714500D01*
X466000Y741500D02*
Y744500D01*
X464500Y743000D02*
X467500D01*
X538500Y765000D02*
X541500D01*
X540000Y763500D02*
Y766500D01*
X604500Y742000D02*
X607500D01*
X606000Y740500D02*
Y743500D01*
X630500Y742000D02*
X633500D01*
X632000Y740500D02*
Y743500D01*
X640500Y742000D02*
X643500D01*
X642000Y740500D02*
Y743500D01*
X661000Y740800D02*
X663999D01*
X662499Y739300D02*
Y742300D01*
X668500Y746000D02*
X671500D01*
X670000Y744500D02*
Y747500D01*
X676001Y740800D02*
X679001D01*
X677501Y739300D02*
Y742300D01*
X686001Y740800D02*
X689001D01*
X687501Y739300D02*
Y742300D01*
X696001Y740800D02*
X699001D01*
X697501Y739300D02*
Y742300D01*
X706001Y740800D02*
X709001D01*
X707501Y739300D02*
Y742300D01*
X726001Y740800D02*
X729001D01*
X727501Y739300D02*
Y742300D01*
X729000Y710500D02*
Y707500D01*
X727500Y709000D02*
X730500D01*
X716500D02*
X713500D01*
X715000Y707500D02*
Y710500D01*
X703500Y709000D02*
X700500D01*
X702000Y707500D02*
Y710500D01*
X687000Y711500D02*
Y714500D01*
X685500Y713000D02*
X688500D01*
X679000Y715581D02*
Y718581D01*
X677500Y717081D02*
X680500D01*
X743499Y708999D02*
X746498D01*
X744998Y707499D02*
Y710499D01*
X758500Y709000D02*
X761500D01*
X760000Y707500D02*
Y710500D01*
X774500Y709000D02*
X777500D01*
X776000Y707500D02*
Y710500D01*
X788500Y709000D02*
X791500D01*
X790000Y707500D02*
Y710500D01*
X791500Y720000D02*
X794500D01*
X793000Y718500D02*
Y721500D01*
X796001Y740800D02*
X799000D01*
X797501Y739300D02*
Y742300D01*
X789000Y740800D02*
X786001D01*
X787501Y739300D02*
Y742300D01*
X769000Y740800D02*
X766001D01*
X767501Y739300D02*
Y742300D01*
X749001Y740800D02*
X746001D01*
X747501Y739300D02*
Y742300D01*
X806000Y740800D02*
X809000D01*
X807500Y739300D02*
Y742300D01*
X808000Y721500D02*
Y718500D01*
X806500Y720000D02*
X809500D01*
X948500Y557500D02*
X951500D01*
X950000Y556000D02*
Y559000D01*
X1001000Y557500D02*
X1004000D01*
X1002500Y556000D02*
Y559000D01*
X1058500Y495000D02*
X1061500D01*
X1060000Y493500D02*
Y496500D01*
X1025146Y462646D02*
X1022146D01*
X1023646Y461146D02*
Y464146D01*
X998500Y457000D02*
X995500D01*
X997000Y455500D02*
Y458500D01*
Y429500D02*
Y426500D01*
X995500Y428000D02*
X998500D01*
X1031000Y557500D02*
X1034000D01*
X1032500Y556000D02*
Y559000D01*
X1061000Y557500D02*
X1064000D01*
X1062500Y556000D02*
Y559000D01*
X1158500Y745000D02*
X1161500D01*
X1160000Y743500D02*
Y746500D01*
X1171000Y735000D02*
X1174000D01*
X1172500Y733500D02*
Y736500D01*
X1124132Y763500D02*
Y766500D01*
X1122632Y765000D02*
X1125632D01*
X1114000Y755000D02*
X1111000D01*
X1112500Y753500D02*
Y756500D01*
X1049000Y692455D02*
X1046000D01*
X1047500Y690955D02*
Y693955D01*
X1019000Y692455D02*
X1016000D01*
X1017500Y690955D02*
Y693955D01*
X970000Y773500D02*
Y776500D01*
X968500Y775000D02*
X971500D01*
X957500Y783500D02*
Y786500D01*
X956000Y785000D02*
X959000D01*
X957500Y793500D02*
Y796500D01*
X956000Y795000D02*
X959000D01*
X986000Y692500D02*
X989000D01*
X987500Y691000D02*
Y694000D01*
X990498Y860998D02*
X993498D01*
X991998Y859498D02*
Y862498D01*
X983500Y861000D02*
X980500D01*
X982000Y859500D02*
Y862500D01*
X882000Y901500D02*
Y904500D01*
X880500Y903000D02*
X883500D01*
X911500Y877000D02*
X914500D01*
X913000Y875500D02*
Y878500D01*
X856000Y934500D02*
Y937500D01*
X854500Y936000D02*
X857500D01*
X849500Y932000D02*
X846500D01*
X848000Y930500D02*
Y933500D01*
X858500Y954000D02*
X861500D01*
X860000Y952500D02*
Y955500D01*
X1013302Y969002D02*
X1016302D01*
X1020502Y958002D02*
X1023502D01*
X1022002Y956502D02*
Y959502D01*
X1058500Y972500D02*
X1061500D01*
X1060000Y971000D02*
Y974000D01*
Y982500D02*
Y985500D01*
X1058500Y984000D02*
X1061500D01*
X1058500Y1025500D02*
Y1028500D01*
X1057000Y1027000D02*
X1060000D01*
X1064500D02*
X1067500D01*
X1066000Y1028500D02*
Y1025500D01*
X1136000Y1080000D02*
X1139000D01*
X1137500Y1078500D02*
Y1081500D01*
X1130000Y1088500D02*
Y1091500D01*
X1128500Y1090000D02*
X1131500D01*
X1070000Y1131000D02*
Y1134000D01*
X1068500Y1132500D02*
X1071500D01*
X1002500Y1097000D02*
X999500D01*
X1001000Y1098500D02*
Y1095500D01*
X978500Y1041000D02*
X975500D01*
X977000Y1039500D02*
Y1042500D01*
X965500Y1041000D02*
X962500D01*
X964000Y1039500D02*
Y1042500D01*
X952500Y1041000D02*
X949500D01*
X951000Y1039500D02*
Y1042500D01*
X1014802Y970502D02*
Y967502D01*
X1252000Y1118000D02*
X1284000D01*
X1268000Y1102000D02*
Y1134000D01*
X1433500Y795000D02*
X1436500D01*
X1435000Y793500D02*
Y796500D01*
X1448500Y775000D02*
X1451500D01*
X1450000Y773500D02*
Y776500D01*
X1463500Y785000D02*
X1466500D01*
X1465000Y783500D02*
Y786500D01*
X1478500Y745000D02*
X1481500D01*
X1480000Y743500D02*
Y746500D01*
X1493500Y715000D02*
X1496500D01*
X1495000Y713500D02*
Y716500D01*
X1498500Y665000D02*
X1501500D01*
X1500000Y663500D02*
Y666500D01*
X1481500Y640000D02*
X1478500D01*
X1480000Y638500D02*
Y641500D01*
X1508500Y715000D02*
X1511500D01*
X1510000Y713500D02*
Y716500D01*
X1543500Y735000D02*
X1546500D01*
X1545000Y733500D02*
Y736500D01*
X1593500Y640000D02*
X1596500D01*
X1595000Y638500D02*
Y641500D01*
X1633500Y640000D02*
X1636500D01*
X1635000Y638500D02*
Y641500D01*
X1686502Y693002D02*
X1689502D01*
X1688002Y691502D02*
Y694502D01*
X1680000Y713503D02*
Y716503D01*
X1678500Y715003D02*
X1681500D01*
X1650000Y743500D02*
Y746500D01*
X1648500Y745000D02*
X1651500D01*
X1635000Y753500D02*
Y756500D01*
X1633500Y755000D02*
X1636500D01*
X1590000Y763500D02*
Y766500D01*
X1588500Y765000D02*
X1591500D01*
X1575000Y773500D02*
Y776500D01*
X1573500Y775000D02*
X1576500D01*
X1603500Y735000D02*
X1606500D01*
X1605000Y733500D02*
Y736500D01*
X1560000Y783500D02*
Y786500D01*
X1558500Y785000D02*
X1561500D01*
X1620000Y886000D02*
Y889000D01*
X1618500Y887500D02*
X1621500D01*
X1663500Y877500D02*
X1666500D01*
X1665000Y876000D02*
Y879000D01*
X1421500Y715003D02*
X1418500D01*
X1420000Y713503D02*
Y716503D01*
X1413498Y693002D02*
X1410498D01*
X1411998Y691502D02*
Y694502D01*
X1802000Y1218000D02*
X1834000D01*
X1818000Y1202000D02*
Y1234000D01*
Y48000D02*
Y16000D01*
X1802000Y32000D02*
X1834000D01*
X598000Y997500D02*
Y1000500D01*
X599500Y999000D02*
X596500D01*
X584500Y991000D02*
X581500D01*
X583000Y989500D02*
Y992500D01*
X559500Y971000D02*
X556500D01*
X558000Y969500D02*
Y972500D01*
X542999Y978498D02*
Y981498D01*
X541499Y979998D02*
X544499D01*
X503000Y1034500D02*
Y1037500D01*
X501500Y1036000D02*
X504500D01*
X495500D02*
X492500D01*
X494000Y1034500D02*
Y1037500D01*
X486500Y1036000D02*
X483500D01*
X485000Y1034500D02*
Y1037500D01*
X391500Y946000D02*
X388500D01*
X390000Y944500D02*
Y947500D01*
Y820500D02*
Y817500D01*
X388500Y819000D02*
X391500D01*
X456500Y883000D02*
X459500D01*
X458000Y881500D02*
Y884500D01*
X471500Y856000D02*
X474500D01*
X473000Y854500D02*
Y857500D01*
X492500Y870000D02*
X495500D01*
X494000Y868500D02*
Y871500D01*
X494303Y844000D02*
X497303D01*
X495803Y842500D02*
Y845500D01*
X489500Y832000D02*
X486500D01*
X488000Y830500D02*
Y833500D01*
X541500Y855000D02*
X544500D01*
X543000Y853500D02*
Y856500D01*
X556498Y855500D02*
X559498D01*
X557998Y854000D02*
Y857000D01*
X581500Y855000D02*
X584500D01*
X583000Y853500D02*
Y856500D01*
X596498Y855500D02*
X599498D01*
X597998Y854000D02*
Y857000D01*
X614500Y765000D02*
X617500D01*
X616000Y763500D02*
Y766500D01*
X607500Y751000D02*
X604500D01*
X606000Y749500D02*
Y752500D01*
X634500Y751000D02*
X637500D01*
X636000Y749500D02*
Y752500D01*
X482000Y893500D02*
Y896500D01*
X480500Y895000D02*
X483500D01*
X426500Y768202D02*
X423500D01*
X425000Y766702D02*
Y769702D01*
X428500Y730000D02*
X431500D01*
X430000Y728500D02*
Y731500D01*
Y718902D02*
Y715902D01*
X428500Y717402D02*
X431500D01*
Y692000D02*
X428500D01*
X430000Y690500D02*
Y693500D01*
X391500Y692000D02*
X388500D01*
X390000Y690500D02*
Y693500D01*
X420500Y670000D02*
X423500D01*
X422000Y668500D02*
Y671500D01*
X428500Y676000D02*
X431500D01*
X430000Y674500D02*
Y677500D01*
X446500Y659000D02*
X449500D01*
X448000Y657500D02*
Y660500D01*
X451500Y651000D02*
X454500D01*
X453000Y649500D02*
Y652500D01*
X440499Y615999D02*
X437499D01*
X438999Y614499D02*
Y617499D01*
X433499Y589999D02*
X430499D01*
X431999Y588499D02*
Y591499D01*
X391500Y565000D02*
X388500D01*
X390000Y563500D02*
Y566500D01*
X368500Y565000D02*
X365500D01*
X367000Y563500D02*
Y566500D01*
X374500Y590000D02*
X377500D01*
X376000Y588500D02*
Y591500D01*
X370500Y489000D02*
X367500D01*
X369000Y487500D02*
Y490500D01*
X367500Y463000D02*
X364500D01*
X366000Y461500D02*
Y464500D01*
X367000Y414500D02*
Y411500D01*
X365500Y413000D02*
X368500D01*
X373500D02*
X376500D01*
X375000Y411500D02*
Y414500D01*
X340500Y412602D02*
X337500D01*
X339000Y411102D02*
Y414102D01*
X332000Y415500D02*
Y418500D01*
X330500Y417000D02*
X333500D01*
X301500Y301000D02*
X298500D01*
X300000Y299500D02*
Y302500D01*
X300000Y289500D02*
Y286500D01*
X298500Y288000D02*
X301500D01*
X148000Y342000D02*
X116000D01*
X132000Y358000D02*
Y326000D01*
X365500Y692000D02*
X368500D01*
X367000Y690500D02*
Y693500D01*
X380500Y777000D02*
X383500D01*
X382000Y775500D02*
Y778500D01*
X367000Y817500D02*
Y820500D01*
X365500Y819000D02*
X368500D01*
X367000Y944500D02*
Y947500D01*
X365500Y946000D02*
X368500D01*
X132000Y1102000D02*
Y1134000D01*
X116000Y1118000D02*
X148000D01*
X48000Y1218000D02*
X16000D01*
X32000Y1202000D02*
Y1234000D01*
M02*
