M48
;Layer_Color=9474304
;FILE_FORMAT=4:4
METRIC,LZ
;TYPE=PLATED
T1F00S00C0.3000
T2F00S00C0.9000
T3F00S00C1.0900
T4F00S00C1.4000
T5F00S00C3.2000
T6F00S00C3.2600
%
T01
X00311Y-00607
X-00581Y-00403
X-00591Y-00411
X-00605Y-004235
X-00614Y-00423
X-00623Y-004225
X-00584Y-00377
Y-00347
X-00590002Y-00312498
X-00594998Y-00277498
X-00593Y-00208
X-00586Y-00212398
X-00625Y-00324
X-00625Y-00337
X-00558Y-00212
X-0055
X-00457Y-00239
X-00335Y-0025
X-00284
X-00202698Y-00290698
X-00177298
X-00181855Y-00391855
X-00229Y-00401
X-00241855Y-00384145
X-00266Y-00393
X-00271Y-00457
X-00271Y-00487
X-00242Y-0046
X-002125Y-00525
X-001975Y-00526
X-001845
X-00304Y-00515
X-00315Y-00505
X-00437Y-00541
X-00453Y-00541
X-00025Y-00507
X-00014
X-00003
X0002Y-00519
Y-00489
X0006035Y-0047065
X00073Y-00519
X0011Y-00507
X00121
X00132
X0021Y-00486
X00197Y-00589
X00186
X00175
X00079Y-00406
X00066Y-00406003
X00053
X0004Y-00406
X00027
X00064Y-00301
X00072Y-00197
X-00151898Y-00238698
X00221Y-00394
X00237Y-00389
X00278Y-00405
X00251Y-00437
X00291Y-00589
X00302
X00313
X00632458Y001877
X00652458
X00672458
X00692457
X00612458
X00592458
X00572458
X00547456
X00528Y0019
X0052
X00512
X00505Y0016
X005225Y001575
X00527Y0015
X00532Y001425
X00537Y00135
X00542Y001275
X00547Y0012
X00552Y001125
X00557Y00105
X00562Y000975
X00567Y0009
X00572Y000825
X00577Y00075
X00582Y000675
X00587Y0006
X00592Y000525
X00597Y00045
X00602Y000375
X00607Y0003
X00612Y000225
X00344Y00167
X00326Y00202
X00313
X003Y002015
X00287Y002015
X00268Y002
X00252999Y00167
X001375Y-000675
X001225
X001075
X000925
X000775
X000625
X00072Y-00168
X00098646Y-00162354
X00135Y-0013
X-00084Y00185
Y002
X-00096Y00193
Y00178
X-003675Y0016
X-00365Y001125
X-0036Y0007
X-003475Y0006
X-003325Y000525
X-00335Y000375
X-00477Y00034
X-00472Y00026
X-00495Y00051
X-00503Y00045
X-00495Y00067
Y00092402
Y00105
X-005Y00143202
X-00543Y00152
X-00535Y00194
X-00558
Y00067
X-00535
X-00449Y00083
X-00459Y00118
X-004175Y00105
X-0045Y-0001
X-0045775Y-0002075
X-00486001Y-00009001
X-00493001Y-00035001
X-00549Y-00035
X-00558Y-0006
X-00535
X-00556Y-00136
X-00559Y-00162
X-00505402Y-00161598
X-00455398Y-00085398
X-00392Y-0019
X-00437Y00207
X-00429197Y00219
X-00431Y00245
X-00452Y00231
X-00467Y00258
X-00443Y0027
X-00535Y00321
X-00558
X-0044Y00411
X-00431
X-00422
X-00065Y00329
X-00069Y00311
X-00077Y00307
X-00043Y00278
X-00012Y00252
X00057Y00236
X00066998Y00235998
X00089802Y00332795
Y00344002
X00135Y003475
Y00359
X00125Y00414
X00052Y00416
X00039
X00026
X00076Y00472
X00145Y005075
X00287Y00234
X003
X0052Y00222
T02
X00132Y-006827
Y-006573
T03
X-0026655Y-005742
X-0023885
X-0021115
X-0018345
X-001973Y-005458
X-00225
X-002527
X-002804
X-001696
T04
X0024Y-00625
X00275001
X00205001
X00075001
X0004
X00005001
T05
X-01Y-005
X-00793Y-00283
X00343
X01Y-005
X-01Y005
X-00793Y00493
X00343
X01Y005
T06
X-0034995Y-0056
X-0010005
M30
