G04 Layer_Color=16711935*
%FSLAX44Y44*%
%MOMM*%
G71*
G01*
G75*
%ADD50R,2.0000X2.0000*%
%ADD51C,2.0000*%
%ADD52C,1.7900*%
%ADD53R,1.7900X1.7900*%
%ADD54C,4.8600*%
%ADD55C,1.6000*%
%ADD56R,1.6000X1.6000*%
%ADD57C,6.1000*%
%ADD58R,2.8000X4.2000*%
%ADD59R,0.4000X1.3000*%
%ADD60O,0.7000X2.4000*%
G04:AMPARAMS|DCode=61|XSize=3.1mm|YSize=5.1mm|CornerRadius=0.8mm|HoleSize=0mm|Usage=FLASHONLY|Rotation=90.000|XOffset=0mm|YOffset=0mm|HoleType=Round|Shape=RoundedRectangle|*
%AMROUNDEDRECTD61*
21,1,3.1000,3.5000,0,0,90.0*
21,1,1.5000,5.1000,0,0,90.0*
1,1,1.6000,1.7500,0.7500*
1,1,1.6000,1.7500,-0.7500*
1,1,1.6000,-1.7500,-0.7500*
1,1,1.6000,-1.7500,0.7500*
%
%ADD61ROUNDEDRECTD61*%
%ADD62R,1.0000X0.9000*%
%ADD63R,1.1160X1.9034*%
%ADD64R,1.1000X1.9000*%
%ADD65R,1.9034X1.1160*%
%ADD66R,1.9000X1.1000*%
%ADD67R,2.7000X1.9000*%
%ADD68R,2.3000X0.7000*%
%ADD69R,2.8000X3.1000*%
%ADD70R,0.7500X1.0000*%
%ADD71R,0.7500X1.2000*%
%ADD72R,1.2498X1.4995*%
%ADD73R,0.9000X1.0000*%
%ADD74R,0.6600X2.2500*%
G04:AMPARAMS|DCode=75|XSize=0.35mm|YSize=0.8mm|CornerRadius=0.1125mm|HoleSize=0mm|Usage=FLASHONLY|Rotation=270.000|XOffset=0mm|YOffset=0mm|HoleType=Round|Shape=RoundedRectangle|*
%AMROUNDEDRECTD75*
21,1,0.3500,0.5750,0,0,270.0*
21,1,0.1250,0.8000,0,0,270.0*
1,1,0.2250,-0.2875,-0.0625*
1,1,0.2250,-0.2875,0.0625*
1,1,0.2250,0.2875,0.0625*
1,1,0.2250,0.2875,-0.0625*
%
%ADD75ROUNDEDRECTD75*%
%ADD76R,2.7000X1.2000*%
%ADD77O,0.8000X2.6000*%
%ADD78R,2.7162X2.8432*%
%ADD79R,1.3000X2.1000*%
%ADD80R,2.8432X2.7162*%
%ADD81R,7.4000X1.0500*%
%ADD82O,0.7000X2.0000*%
G36*
X1740639Y111664D02*
X1740778Y111428D01*
X1740861Y111234D01*
X1740931Y111068D01*
X1740972Y110929D01*
X1740986Y110846D01*
X1741000Y110777D01*
Y110763D01*
X1740986Y110652D01*
X1740958Y110569D01*
X1740917Y110485D01*
X1740847Y110416D01*
X1740709Y110305D01*
X1740529Y110236D01*
X1740362Y110180D01*
X1740210Y110166D01*
X1740154Y110153D01*
X1740071D01*
X1739877Y110180D01*
X1739710Y110236D01*
X1739572Y110319D01*
X1739447Y110416D01*
X1739350Y110499D01*
X1739266Y110583D01*
X1739225Y110638D01*
X1739211Y110666D01*
X1739253Y110693D01*
X1739280Y110749D01*
X1739308Y110818D01*
X1739322Y110901D01*
Y110971D01*
X1739336Y111040D01*
Y111082D01*
Y111096D01*
X1739364Y111193D01*
X1739419Y111304D01*
X1739516Y111442D01*
X1739613Y111581D01*
X1739710Y111720D01*
X1739807Y111831D01*
X1739863Y111900D01*
X1739890Y111928D01*
X1740459D01*
X1740639Y111664D01*
D02*
G37*
G36*
X1700116D02*
X1700255Y111428D01*
X1700338Y111234D01*
X1700407Y111068D01*
X1700449Y110929D01*
X1700463Y110846D01*
X1700477Y110777D01*
Y110763D01*
X1700463Y110652D01*
X1700435Y110569D01*
X1700393Y110485D01*
X1700324Y110416D01*
X1700185Y110305D01*
X1700005Y110236D01*
X1699839Y110180D01*
X1699686Y110166D01*
X1699631Y110153D01*
X1699547D01*
X1699353Y110180D01*
X1699187Y110236D01*
X1699048Y110319D01*
X1698923Y110416D01*
X1698826Y110499D01*
X1698743Y110583D01*
X1698701Y110638D01*
X1698687Y110666D01*
X1698729Y110693D01*
X1698757Y110749D01*
X1698785Y110818D01*
X1698799Y110901D01*
Y110971D01*
X1698812Y111040D01*
Y111082D01*
Y111096D01*
X1698840Y111193D01*
X1698896Y111304D01*
X1698993Y111442D01*
X1699090Y111581D01*
X1699187Y111720D01*
X1699284Y111831D01*
X1699339Y111900D01*
X1699367Y111928D01*
X1699936D01*
X1700116Y111664D01*
D02*
G37*
G36*
X1725967Y111567D02*
X1726008Y111539D01*
X1726036Y111512D01*
X1726064Y111456D01*
Y111442D01*
Y111428D01*
X1725994Y111470D01*
X1725939Y111498D01*
X1725897Y111525D01*
X1725870Y111539D01*
X1725842Y111567D01*
Y111581D01*
Y111595D01*
X1725911D01*
X1725967Y111567D01*
D02*
G37*
G36*
X1723997Y112579D02*
X1724205Y112510D01*
X1724358Y112427D01*
X1724483Y112330D01*
X1724580Y112247D01*
X1724635Y112177D01*
X1724677Y112108D01*
X1724705Y112066D01*
Y112052D01*
X1724455Y112136D01*
X1724261Y112205D01*
X1724094Y112274D01*
X1723970Y112330D01*
X1723873Y112372D01*
X1723803Y112399D01*
X1723775Y112427D01*
X1723762D01*
X1723859Y112441D01*
X1723928Y112455D01*
X1723956Y112469D01*
X1723970D01*
X1723942Y112483D01*
X1723886Y112496D01*
X1723762Y112510D01*
X1723567D01*
X1723526Y112524D01*
X1723415Y112579D01*
X1723318Y112621D01*
X1723290Y112635D01*
X1723276D01*
X1723179Y112677D01*
X1723096Y112704D01*
X1723040Y112732D01*
X1723013Y112746D01*
X1722985Y112760D01*
X1722971D01*
X1723027Y112774D01*
X1723082Y112815D01*
X1723124Y112843D01*
X1723138Y112857D01*
X1723997Y112579D01*
D02*
G37*
G36*
X1725273Y111817D02*
X1725148Y111858D01*
X1725051Y111900D01*
X1724996Y111928D01*
X1724940Y111955D01*
X1724913Y111969D01*
X1724899Y111983D01*
Y111997D01*
X1725273Y112052D01*
Y111817D01*
D02*
G37*
G36*
X1703569Y111803D02*
X1703638Y111761D01*
X1703708Y111706D01*
X1703763Y111636D01*
X1703819Y111567D01*
X1703860Y111512D01*
X1703874Y111470D01*
X1703888Y111456D01*
X1703944Y111359D01*
X1703985Y111262D01*
X1704013Y111193D01*
X1704027Y111137D01*
X1704055Y111054D01*
Y111026D01*
X1704041Y110915D01*
X1704027Y110791D01*
X1703999Y110680D01*
X1703971Y110583D01*
X1703944Y110485D01*
X1703916Y110416D01*
X1703888Y110374D01*
Y110361D01*
X1703874Y110347D01*
X1703833Y110319D01*
X1703750Y110264D01*
X1703666Y110194D01*
X1703652Y110180D01*
X1703638Y110166D01*
X1703569Y110111D01*
X1703500Y110069D01*
X1703417Y110028D01*
X1703375Y110000D01*
X1703361D01*
X1703181Y110014D01*
X1702987Y110056D01*
X1702806Y110111D01*
X1702612Y110180D01*
X1702460Y110236D01*
X1702321Y110291D01*
X1702238Y110333D01*
X1702224Y110347D01*
X1702210D01*
X1702182Y110471D01*
X1702168Y110583D01*
Y110666D01*
Y110680D01*
Y110693D01*
X1702182Y110929D01*
X1702224Y111123D01*
X1702293Y111304D01*
X1702363Y111442D01*
X1702432Y111553D01*
X1702501Y111636D01*
X1702543Y111692D01*
X1702557Y111706D01*
X1702640D01*
X1702765Y111720D01*
X1702917Y111747D01*
X1703084Y111761D01*
X1703236Y111789D01*
X1703361Y111803D01*
X1703417D01*
X1703458Y111817D01*
X1703486D01*
X1703569Y111803D01*
D02*
G37*
G36*
X1675042Y115242D02*
X1675569Y115187D01*
X1676054Y115076D01*
X1676498Y114951D01*
X1676886Y114785D01*
X1677233Y114618D01*
X1677538Y114424D01*
X1677816Y114230D01*
X1678051Y114036D01*
X1678246Y113842D01*
X1678398Y113675D01*
X1678523Y113509D01*
X1678620Y113384D01*
X1678689Y113273D01*
X1678731Y113217D01*
X1678745Y113190D01*
X1678800Y113079D01*
X1678828Y112940D01*
X1678883Y112649D01*
Y112524D01*
X1678897Y112413D01*
Y112344D01*
Y112330D01*
Y112316D01*
X1678870Y112136D01*
X1678814Y111942D01*
X1678745Y111761D01*
X1678648Y111595D01*
X1678564Y111456D01*
X1678481Y111345D01*
X1678426Y111276D01*
X1678412Y111248D01*
X1678218Y111040D01*
X1678024Y110874D01*
X1677843Y110735D01*
X1677663Y110624D01*
X1677524Y110541D01*
X1677399Y110485D01*
X1677330Y110458D01*
X1677302Y110444D01*
X1677136Y110361D01*
X1676997Y110277D01*
X1676886Y110222D01*
X1676803Y110180D01*
X1676748Y110153D01*
X1676720Y110139D01*
X1676692Y110125D01*
X1676498Y110042D01*
X1676346Y109986D01*
X1676207Y109944D01*
X1676110Y109917D01*
X1676026Y109903D01*
X1675971Y109889D01*
X1675930D01*
X1675181Y109834D01*
X1675056D01*
X1674945Y109820D01*
X1674778Y109806D01*
X1674654D01*
X1674556Y109792D01*
X1674445D01*
X1674390Y109806D01*
X1674307Y109820D01*
X1674210D01*
X1674127Y109834D01*
X1674043Y109847D01*
X1673960D01*
X1673877Y109931D01*
X1673808Y110000D01*
X1673752Y110042D01*
X1673710Y110083D01*
X1673683Y110111D01*
X1673669Y110125D01*
X1673489Y110222D01*
X1673350Y110305D01*
X1673253Y110361D01*
X1673197Y110416D01*
X1673156Y110444D01*
X1673142Y110471D01*
X1673128Y110485D01*
X1673142Y110541D01*
X1673170Y110596D01*
X1673211Y110652D01*
X1673267Y110693D01*
X1673405Y110777D01*
X1673572Y110832D01*
X1673738Y110874D01*
X1673877Y110901D01*
X1673932Y110915D01*
X1673974Y110929D01*
X1674016D01*
X1674196Y110943D01*
X1674376Y110971D01*
X1674529Y110985D01*
X1674667Y110998D01*
X1674792D01*
X1674875Y111012D01*
X1674945D01*
X1675208Y111082D01*
X1675444Y111165D01*
X1675638Y111220D01*
X1675805Y111290D01*
X1675957Y111345D01*
X1676082Y111387D01*
X1676179Y111428D01*
X1676248Y111470D01*
X1676318Y111512D01*
X1676359Y111539D01*
X1676415Y111581D01*
X1676443Y111609D01*
Y111623D01*
X1676415Y111650D01*
X1676387Y111678D01*
X1676346Y111720D01*
X1676332Y111734D01*
X1676221D01*
X1676138Y111720D01*
X1676068Y111706D01*
X1676026D01*
X1675985Y111692D01*
X1675957Y111678D01*
X1675943Y111664D01*
X1675832Y111692D01*
X1675721Y111706D01*
X1675555Y111747D01*
X1675444Y111775D01*
X1675361Y111789D01*
X1675305Y111803D01*
X1675291Y111817D01*
X1674016Y111997D01*
X1673780Y112025D01*
X1673572Y112052D01*
X1673378Y112080D01*
X1673211Y112094D01*
X1673059Y112108D01*
X1672920Y112122D01*
X1672795Y112136D01*
X1672698Y112150D01*
X1672532D01*
X1672421Y112163D01*
X1672337D01*
X1672254Y112233D01*
X1672185Y112344D01*
X1672130Y112483D01*
X1672088Y112621D01*
X1672060Y112760D01*
X1672046Y112871D01*
X1672032Y112954D01*
Y112968D01*
Y112982D01*
X1672019Y113148D01*
Y113273D01*
Y113328D01*
Y113370D01*
Y113384D01*
Y113398D01*
X1672032Y113606D01*
Y113675D01*
X1672046Y113744D01*
X1672060Y113800D01*
Y113842D01*
X1672074Y113855D01*
Y113869D01*
X1672227Y114063D01*
X1672365Y114244D01*
X1672504Y114396D01*
X1672629Y114535D01*
X1672726Y114646D01*
X1672809Y114715D01*
X1672865Y114771D01*
X1672878Y114785D01*
X1673100Y114951D01*
X1673350Y115062D01*
X1673613Y115145D01*
X1673863Y115215D01*
X1674099Y115242D01*
X1674196Y115256D01*
X1674279D01*
X1674362Y115270D01*
X1674459D01*
X1675042Y115242D01*
D02*
G37*
G36*
X1737519Y111803D02*
X1737588Y111761D01*
X1737658Y111706D01*
X1737713Y111636D01*
X1737769Y111567D01*
X1737810Y111512D01*
X1737824Y111470D01*
X1737838Y111456D01*
X1737894Y111359D01*
X1737935Y111262D01*
X1737963Y111193D01*
X1737977Y111137D01*
X1738004Y111054D01*
Y111026D01*
X1737991Y110915D01*
X1737977Y110791D01*
X1737949Y110680D01*
X1737921Y110583D01*
X1737894Y110485D01*
X1737866Y110416D01*
X1737838Y110374D01*
Y110361D01*
X1737824Y110347D01*
X1737782Y110319D01*
X1737699Y110264D01*
X1737616Y110194D01*
X1737602Y110180D01*
X1737588Y110166D01*
X1737519Y110111D01*
X1737450Y110069D01*
X1737366Y110028D01*
X1737325Y110000D01*
X1737311D01*
X1737131Y110014D01*
X1736937Y110056D01*
X1736756Y110111D01*
X1736562Y110180D01*
X1736410Y110236D01*
X1736271Y110291D01*
X1736188Y110333D01*
X1736174Y110347D01*
X1736160D01*
X1736132Y110471D01*
X1736118Y110583D01*
Y110666D01*
Y110680D01*
Y110693D01*
X1736132Y110929D01*
X1736174Y111123D01*
X1736243Y111304D01*
X1736313Y111442D01*
X1736382Y111553D01*
X1736451Y111636D01*
X1736493Y111692D01*
X1736507Y111706D01*
X1736590D01*
X1736715Y111720D01*
X1736867Y111747D01*
X1737034Y111761D01*
X1737186Y111789D01*
X1737311Y111803D01*
X1737366D01*
X1737408Y111817D01*
X1737436D01*
X1737519Y111803D01*
D02*
G37*
G36*
X1662130Y111664D02*
X1662269Y111428D01*
X1662352Y111234D01*
X1662422Y111068D01*
X1662463Y110929D01*
X1662477Y110846D01*
X1662491Y110777D01*
Y110763D01*
X1662477Y110652D01*
X1662449Y110569D01*
X1662408Y110485D01*
X1662338Y110416D01*
X1662200Y110305D01*
X1662020Y110236D01*
X1661853Y110180D01*
X1661700Y110166D01*
X1661645Y110153D01*
X1661562D01*
X1661368Y110180D01*
X1661201Y110236D01*
X1661062Y110319D01*
X1660938Y110416D01*
X1660841Y110499D01*
X1660757Y110583D01*
X1660716Y110638D01*
X1660702Y110666D01*
X1660744Y110693D01*
X1660771Y110749D01*
X1660799Y110818D01*
X1660813Y110901D01*
Y110971D01*
X1660827Y111040D01*
Y111082D01*
Y111096D01*
X1660854Y111193D01*
X1660910Y111304D01*
X1661007Y111442D01*
X1661104Y111581D01*
X1661201Y111720D01*
X1661298Y111831D01*
X1661354Y111900D01*
X1661382Y111928D01*
X1661950D01*
X1662130Y111664D01*
D02*
G37*
G36*
X1652811Y122426D02*
X1652825D01*
X1652894Y122398D01*
X1652963Y122371D01*
X1652977Y122357D01*
X1652991D01*
X1653490Y121677D01*
X1653518Y121538D01*
X1653532Y121428D01*
Y121372D01*
Y121344D01*
X1654475Y119763D01*
X1654517Y119611D01*
X1654544Y119486D01*
X1654572Y119417D01*
Y119389D01*
X1654822Y119001D01*
X1655058Y118626D01*
X1655279Y118279D01*
X1655487Y117947D01*
X1655668Y117655D01*
X1655848Y117378D01*
X1656001Y117128D01*
X1656139Y116906D01*
X1656264Y116698D01*
X1656375Y116518D01*
X1656458Y116379D01*
X1656528Y116255D01*
X1656597Y116158D01*
X1656638Y116088D01*
X1656652Y116047D01*
X1656666Y116033D01*
X1656763Y115922D01*
X1656860Y115811D01*
X1656944Y115728D01*
X1656999Y115672D01*
X1657055Y115617D01*
X1657096Y115575D01*
X1657110Y115561D01*
X1657124Y115547D01*
X1657221Y115381D01*
X1657304Y115242D01*
X1657387Y115117D01*
X1657443Y115007D01*
X1657498Y114909D01*
X1657554Y114840D01*
X1657623Y114715D01*
X1657665Y114646D01*
X1657693Y114604D01*
X1657706Y114590D01*
X1657776Y114507D01*
X1657873Y114438D01*
X1657970Y114369D01*
X1658081Y114299D01*
X1658192Y114244D01*
X1658275Y114202D01*
X1658331Y114174D01*
X1658358Y114160D01*
X1658552Y114063D01*
X1658733Y113994D01*
X1658802Y113953D01*
X1658858Y113939D01*
X1658885Y113911D01*
X1658899D01*
X1658954Y113869D01*
X1658982Y113814D01*
X1659038Y113717D01*
X1659052Y113633D01*
Y113606D01*
Y113592D01*
X1659038Y113523D01*
Y113495D01*
Y113481D01*
X1659010Y113315D01*
X1658982Y113204D01*
X1658968Y113120D01*
X1658954Y113051D01*
X1658941Y113023D01*
X1658927Y113010D01*
Y112996D01*
Y112968D01*
X1658941Y112954D01*
X1659024Y112801D01*
X1659121Y112649D01*
X1659218Y112510D01*
X1659301Y112372D01*
X1659384Y112261D01*
X1659454Y112177D01*
X1659495Y112122D01*
X1659509Y112108D01*
X1659690Y111900D01*
X1659856Y111720D01*
X1659925Y111636D01*
X1659981Y111581D01*
X1660009Y111553D01*
X1660022Y111539D01*
X1660050Y111484D01*
X1660064Y111401D01*
X1660092Y111207D01*
X1660106Y111110D01*
Y111026D01*
Y110971D01*
Y110957D01*
X1660092Y110846D01*
X1660064Y110749D01*
X1660022Y110666D01*
X1659967Y110583D01*
X1659911Y110527D01*
X1659870Y110485D01*
X1659842Y110458D01*
X1659828Y110444D01*
X1659648Y110333D01*
X1659495Y110222D01*
X1659426Y110180D01*
X1659371Y110153D01*
X1659343Y110139D01*
X1659329Y110125D01*
X1659135Y110291D01*
X1658968Y110444D01*
X1658830Y110555D01*
X1658705Y110666D01*
X1658608Y110749D01*
X1658539Y110804D01*
X1658497Y110832D01*
X1658483Y110846D01*
X1658358Y111054D01*
X1658317Y111123D01*
X1658275Y111193D01*
X1658247Y111248D01*
X1658233Y111290D01*
X1658219Y111304D01*
Y111318D01*
X1658178Y111470D01*
X1658150Y111595D01*
X1658122Y111664D01*
Y111692D01*
X1658011Y111845D01*
X1657901Y111969D01*
X1657817Y112080D01*
X1657734Y112163D01*
X1657679Y112233D01*
X1657637Y112288D01*
X1657609Y112316D01*
X1657595Y112330D01*
X1657498Y112510D01*
X1657415Y112663D01*
X1657318Y112801D01*
X1657221Y112926D01*
X1657124Y113023D01*
X1657041Y113106D01*
X1656958Y113176D01*
X1656874Y113231D01*
X1656722Y113315D01*
X1656611Y113356D01*
X1656541Y113384D01*
X1656514D01*
X1656375Y113273D01*
X1656278Y113342D01*
X1656209Y113370D01*
X1656153Y113384D01*
X1655890D01*
X1655640Y113370D01*
X1655127Y113328D01*
X1654586Y113259D01*
X1654323Y113217D01*
X1654073Y113190D01*
X1653837Y113148D01*
X1653615Y113106D01*
X1653421Y113079D01*
X1653255Y113051D01*
X1653116Y113023D01*
X1653005Y112996D01*
X1652950Y112982D01*
X1652922D01*
X1652603Y112912D01*
X1652284Y112829D01*
X1651993Y112746D01*
X1651743Y112663D01*
X1651521Y112579D01*
X1651438Y112538D01*
X1651355Y112510D01*
X1651299Y112496D01*
X1651258Y112469D01*
X1651230Y112455D01*
X1651216D01*
X1651160Y112427D01*
X1651091Y112399D01*
X1650911Y112288D01*
X1650828Y112233D01*
X1650758Y112177D01*
X1650703Y112150D01*
X1650689Y112136D01*
X1650564Y112052D01*
X1650467Y111997D01*
X1650384Y111942D01*
X1650328Y111914D01*
X1650301Y111900D01*
X1650273Y111886D01*
X1649566D01*
X1649469Y111914D01*
X1649371Y111942D01*
X1649302Y111969D01*
X1649177Y112066D01*
X1649094Y112177D01*
X1649052Y112274D01*
X1649025Y112372D01*
X1649011Y112427D01*
Y112455D01*
X1649025Y112524D01*
X1649052Y112593D01*
X1649136Y112774D01*
X1649177Y112857D01*
X1649219Y112926D01*
X1649247Y112968D01*
X1649261Y112982D01*
X1649344Y113120D01*
X1649413Y113245D01*
X1649482Y113342D01*
X1649524Y113412D01*
X1649566Y113467D01*
X1649593Y113495D01*
X1649607Y113523D01*
X1649732Y113814D01*
X1649843Y114105D01*
X1649954Y114355D01*
X1650037Y114604D01*
X1650120Y114840D01*
X1650204Y115048D01*
X1650259Y115228D01*
X1650314Y115409D01*
X1650370Y115561D01*
X1650412Y115700D01*
X1650439Y115811D01*
X1650467Y115908D01*
X1650481Y115977D01*
X1650495Y116033D01*
X1650509Y116060D01*
Y116074D01*
X1650606Y116518D01*
X1650689Y116962D01*
X1650772Y117406D01*
X1650855Y117808D01*
X1650883Y117988D01*
X1650911Y118155D01*
X1650939Y118307D01*
X1650952Y118432D01*
X1650966Y118543D01*
X1650980Y118612D01*
X1650994Y118668D01*
Y118682D01*
X1651077Y118973D01*
X1651160Y119264D01*
X1651244Y119528D01*
X1651313Y119763D01*
X1651369Y119958D01*
X1651424Y120110D01*
X1651438Y120166D01*
X1651452Y120207D01*
X1651466Y120221D01*
Y120235D01*
X1651535Y120429D01*
X1651590Y120596D01*
X1651632Y120748D01*
X1651674Y120873D01*
X1651715Y120984D01*
X1651743Y121081D01*
X1651757Y121150D01*
X1651785Y121206D01*
X1651812Y121289D01*
X1651826Y121330D01*
Y121344D01*
X1651895Y121538D01*
X1651965Y121705D01*
X1652048Y121858D01*
X1652131Y121982D01*
X1652215Y122079D01*
X1652298Y122177D01*
X1652381Y122246D01*
X1652450Y122301D01*
X1652589Y122385D01*
X1652714Y122426D01*
X1652783Y122440D01*
X1652797D01*
X1652811Y122426D01*
D02*
G37*
G36*
X1684861Y121428D02*
X1685027Y121414D01*
X1685221Y121386D01*
X1685623Y121330D01*
X1686026Y121275D01*
X1686220Y121247D01*
X1686400Y121220D01*
X1686566Y121192D01*
X1686705Y121164D01*
X1686830Y121136D01*
X1686913Y121123D01*
X1686983Y121109D01*
X1686996D01*
X1687302Y121053D01*
X1687579Y120998D01*
X1687815Y120942D01*
X1688009Y120901D01*
X1688189Y120859D01*
X1688342Y120831D01*
X1688466Y120790D01*
X1688564Y120776D01*
X1688647Y120748D01*
X1688716Y120734D01*
X1688758Y120720D01*
X1688799Y120706D01*
X1688827Y120693D01*
X1688841D01*
X1689021Y120568D01*
X1689174Y120457D01*
X1689326Y120346D01*
X1689451Y120249D01*
X1689576Y120152D01*
X1689673Y120069D01*
X1689853Y119930D01*
X1689978Y119819D01*
X1690061Y119749D01*
X1690103Y119694D01*
X1690117Y119680D01*
X1690255Y119486D01*
X1690353Y119292D01*
X1690436Y119084D01*
X1690477Y118890D01*
X1690505Y118709D01*
X1690519Y118571D01*
X1690533Y118515D01*
Y118474D01*
Y118460D01*
Y118446D01*
X1690519Y118363D01*
X1690491Y118266D01*
X1690477Y118196D01*
X1690464Y118182D01*
Y118168D01*
X1690422Y118085D01*
X1690367Y118030D01*
X1690325Y117974D01*
X1690297Y117947D01*
X1690242Y117919D01*
X1690186D01*
X1690145Y117933D01*
X1690061Y117974D01*
X1689978Y118002D01*
X1689964Y118016D01*
X1689950D01*
X1689881Y118057D01*
X1689826Y118085D01*
X1689784Y118099D01*
X1689756Y118113D01*
X1689729Y118127D01*
X1689701Y118099D01*
X1689645Y118071D01*
X1689604Y118030D01*
X1689590Y118016D01*
Y117669D01*
X1689645Y117434D01*
X1689701Y117212D01*
X1689756Y117017D01*
X1689798Y116851D01*
X1689839Y116712D01*
X1689867Y116601D01*
X1689881Y116546D01*
X1689895Y116518D01*
X1689923Y116352D01*
X1689950Y116158D01*
X1689992Y115769D01*
X1690047Y115381D01*
X1690089Y115007D01*
X1690117Y114826D01*
X1690131Y114660D01*
X1690145Y114521D01*
X1690158Y114396D01*
X1690172Y114285D01*
Y114216D01*
X1690186Y114160D01*
Y114147D01*
X1690214Y113953D01*
X1690228Y113786D01*
X1690242Y113633D01*
X1690255Y113509D01*
X1690269Y113398D01*
X1690283Y113301D01*
Y113217D01*
X1690297Y113148D01*
Y113065D01*
X1690311Y113010D01*
Y112982D01*
Y112649D01*
X1690297Y112344D01*
Y112066D01*
X1690283Y111803D01*
X1690269Y111567D01*
X1690255Y111345D01*
X1690242Y111151D01*
X1690228Y110985D01*
X1690214Y110832D01*
X1690200Y110707D01*
Y110596D01*
X1690186Y110513D01*
X1690172Y110444D01*
X1690158Y110402D01*
Y110374D01*
Y110361D01*
X1690131D01*
X1690089Y110347D01*
X1689964Y110305D01*
X1689909Y110291D01*
X1689853Y110264D01*
X1689826Y110250D01*
X1689812D01*
X1689715Y110208D01*
X1689631Y110180D01*
X1689576Y110166D01*
X1689548Y110153D01*
X1689521Y110139D01*
X1689507D01*
X1689437Y110153D01*
X1689368Y110180D01*
X1689312Y110236D01*
X1689271Y110319D01*
X1689188Y110485D01*
X1689146Y110693D01*
X1689118Y110901D01*
X1689091Y111082D01*
Y111151D01*
Y111207D01*
Y111234D01*
Y111248D01*
Y111428D01*
Y111581D01*
Y111720D01*
Y111831D01*
X1689104Y111914D01*
Y111969D01*
Y112011D01*
Y112025D01*
X1689160Y112469D01*
Y112566D01*
Y112649D01*
Y112704D01*
Y112732D01*
X1689146Y112926D01*
X1689132Y113134D01*
X1689104Y113328D01*
X1689077Y113509D01*
X1689049Y113675D01*
X1689035Y113800D01*
X1689007Y113883D01*
Y113897D01*
Y113911D01*
X1688938Y114077D01*
X1688896Y114188D01*
X1688883Y114258D01*
X1688869Y114271D01*
Y114382D01*
Y114466D01*
Y114521D01*
Y114549D01*
Y114826D01*
Y115062D01*
X1688883Y115256D01*
Y115423D01*
Y115547D01*
X1688896Y115644D01*
Y115700D01*
Y115714D01*
X1688869Y116060D01*
X1688827Y116393D01*
X1688786Y116712D01*
X1688744Y117004D01*
X1688702Y117295D01*
X1688647Y117558D01*
X1688605Y117808D01*
X1688550Y118030D01*
X1688508Y118238D01*
X1688466Y118418D01*
X1688425Y118571D01*
X1688397Y118709D01*
X1688369Y118806D01*
X1688342Y118890D01*
X1688328Y118931D01*
Y118945D01*
X1688286Y119028D01*
X1688203Y119111D01*
X1688106Y119195D01*
X1688009Y119264D01*
X1687898Y119320D01*
X1687815Y119361D01*
X1687759Y119389D01*
X1687731Y119403D01*
X1687510Y119472D01*
X1687315Y119528D01*
X1687149Y119569D01*
X1686996Y119611D01*
X1686872Y119639D01*
X1686788Y119666D01*
X1686733Y119680D01*
X1686719D01*
X1686442Y119791D01*
X1686206Y119888D01*
X1685998Y119971D01*
X1685845Y120027D01*
X1685721Y120069D01*
X1685637Y120096D01*
X1685582Y120124D01*
X1685568D01*
X1685499Y120138D01*
X1685402Y120152D01*
X1685194Y120166D01*
X1684570D01*
X1684556Y120179D01*
X1684542Y120207D01*
Y120235D01*
Y120249D01*
X1684528Y120263D01*
X1684486Y120276D01*
X1684445D01*
X1683585Y120263D01*
X1682683D01*
X1682572Y120249D01*
X1682254D01*
X1682184Y120221D01*
X1682018Y120179D01*
X1681935Y120152D01*
X1681879Y120124D01*
X1681823Y120110D01*
X1681810Y120096D01*
X1681491Y120027D01*
X1681213Y119930D01*
X1680964Y119805D01*
X1680742Y119680D01*
X1680575Y119569D01*
X1680451Y119472D01*
X1680367Y119403D01*
X1680340Y119389D01*
Y119375D01*
X1680229Y119264D01*
X1680132Y119153D01*
X1679993Y118945D01*
X1679882Y118737D01*
X1679799Y118543D01*
X1679757Y118377D01*
X1679743Y118238D01*
X1679729Y118155D01*
Y118141D01*
Y118127D01*
X1679743Y117974D01*
X1679799Y117822D01*
X1679882Y117655D01*
X1679993Y117503D01*
X1680132Y117336D01*
X1680270Y117170D01*
X1680589Y116865D01*
X1680908Y116601D01*
X1681047Y116477D01*
X1681186Y116379D01*
X1681297Y116296D01*
X1681380Y116241D01*
X1681435Y116199D01*
X1681449Y116185D01*
X1681699Y116019D01*
X1681935Y115866D01*
X1682142Y115742D01*
X1682337Y115631D01*
X1682517Y115520D01*
X1682670Y115436D01*
X1682808Y115367D01*
X1682933Y115298D01*
X1683044Y115256D01*
X1683127Y115215D01*
X1683210Y115173D01*
X1683266Y115159D01*
X1683321Y115131D01*
X1683349D01*
X1683377Y115117D01*
X1683529Y115076D01*
X1683668Y115048D01*
X1683904Y114993D01*
X1684098Y114951D01*
X1684237Y114909D01*
X1684348Y114896D01*
X1684403Y114882D01*
X1684445Y114868D01*
X1684458D01*
X1684861Y114771D01*
X1685235Y114688D01*
X1685596Y114590D01*
X1685942Y114521D01*
X1686261Y114438D01*
X1686553Y114369D01*
X1686830Y114313D01*
X1687066Y114258D01*
X1687288Y114202D01*
X1687482Y114160D01*
X1687662Y114119D01*
X1687801Y114091D01*
X1687912Y114063D01*
X1687981Y114050D01*
X1688037Y114036D01*
X1688050D01*
X1688120Y113842D01*
X1688189Y113689D01*
X1688231Y113578D01*
X1688259Y113481D01*
X1688286Y113426D01*
X1688300Y113384D01*
X1688314Y113356D01*
X1688300Y113301D01*
X1688272Y113231D01*
X1688231Y113162D01*
X1688175Y113079D01*
X1688023Y112940D01*
X1687856Y112788D01*
X1687704Y112663D01*
X1687551Y112566D01*
X1687496Y112524D01*
X1687454Y112496D01*
X1687426Y112469D01*
X1687413D01*
X1687218Y112344D01*
X1687052Y112233D01*
X1686899Y112136D01*
X1686761Y112039D01*
X1686636Y111942D01*
X1686525Y111858D01*
X1686442Y111789D01*
X1686358Y111720D01*
X1686234Y111609D01*
X1686164Y111525D01*
X1686123Y111470D01*
X1686109Y111456D01*
X1685998Y111428D01*
X1685915Y111415D01*
X1685859D01*
X1685762Y111304D01*
X1685637Y111179D01*
X1685513Y111068D01*
X1685388Y110971D01*
X1685277Y110888D01*
X1685180Y110818D01*
X1685124Y110777D01*
X1685096Y110763D01*
X1684875Y110624D01*
X1684680Y110499D01*
X1684514Y110388D01*
X1684375Y110305D01*
X1684278Y110236D01*
X1684195Y110194D01*
X1684153Y110166D01*
X1684140Y110153D01*
X1683862Y110028D01*
X1683626Y109917D01*
X1683418Y109820D01*
X1683238Y109736D01*
X1683072Y109667D01*
X1682947Y109612D01*
X1682836Y109556D01*
X1682753Y109529D01*
X1682683Y109487D01*
X1682628Y109473D01*
X1682586Y109459D01*
X1682559Y109445D01*
X1682531Y109431D01*
X1682212Y109307D01*
X1681907Y109209D01*
X1681602Y109140D01*
X1681324Y109099D01*
X1681089Y109071D01*
X1680978Y109057D01*
X1680894Y109043D01*
X1680659D01*
X1680534Y109029D01*
X1680492Y109015D01*
X1680437D01*
X1680409Y109002D01*
X1680395D01*
X1680298Y108988D01*
X1680229Y108974D01*
X1680187Y108960D01*
X1680146D01*
X1680118Y108946D01*
X1680021Y108960D01*
X1679951Y108988D01*
X1679827Y109071D01*
X1679757Y109140D01*
X1679729Y109168D01*
Y109182D01*
X1679743Y109279D01*
X1679771Y109362D01*
X1679868Y109529D01*
X1680007Y109667D01*
X1680159Y109806D01*
X1680312Y109903D01*
X1680437Y109972D01*
X1680492Y110000D01*
X1680520Y110028D01*
X1680548Y110042D01*
X1680562D01*
X1681782Y110444D01*
X1682101Y110596D01*
X1682406Y110735D01*
X1682670Y110860D01*
X1682919Y110971D01*
X1683155Y111068D01*
X1683363Y111165D01*
X1683543Y111248D01*
X1683710Y111331D01*
X1683848Y111387D01*
X1683973Y111442D01*
X1684084Y111498D01*
X1684167Y111525D01*
X1684223Y111553D01*
X1684264Y111581D01*
X1684292Y111595D01*
X1684306D01*
X1684431Y111650D01*
X1684583Y111747D01*
X1684750Y111845D01*
X1684930Y111969D01*
X1685096Y112066D01*
X1685221Y112163D01*
X1685277Y112191D01*
X1685318Y112219D01*
X1685332Y112247D01*
X1685346D01*
X1685513Y112372D01*
X1685651Y112483D01*
X1685776Y112579D01*
X1685887Y112677D01*
X1685970Y112760D01*
X1686053Y112829D01*
X1686164Y112954D01*
X1686220Y113051D01*
X1686261Y113106D01*
X1686275Y113148D01*
Y113162D01*
X1686261Y113217D01*
X1686234Y113259D01*
X1686178Y113301D01*
X1686109Y113342D01*
X1685929Y113412D01*
X1685734Y113481D01*
X1685540Y113523D01*
X1685360Y113564D01*
X1685291Y113578D01*
X1685235D01*
X1685207Y113592D01*
X1685194D01*
X1684958Y113633D01*
X1684750Y113661D01*
X1684556Y113703D01*
X1684403Y113717D01*
X1684264Y113744D01*
X1684140Y113758D01*
X1684043Y113786D01*
X1683973Y113800D01*
X1683904D01*
X1683848Y113814D01*
X1683793Y113828D01*
X1683751D01*
X1683543Y113925D01*
X1683363Y114022D01*
X1683210Y114105D01*
X1683086Y114160D01*
X1682988Y114216D01*
X1682919Y114258D01*
X1682878Y114271D01*
X1682864Y114285D01*
X1682545Y114396D01*
X1682267Y114507D01*
X1682018Y114590D01*
X1681823Y114660D01*
X1681671Y114701D01*
X1681560Y114743D01*
X1681491Y114771D01*
X1681463D01*
X1681241Y114909D01*
X1681047Y115048D01*
X1680894Y115159D01*
X1680770Y115256D01*
X1680686Y115339D01*
X1680617Y115395D01*
X1680589Y115436D01*
X1680575Y115450D01*
X1680409Y115534D01*
X1680256Y115617D01*
X1680118Y115686D01*
X1679993Y115755D01*
X1679896Y115811D01*
X1679799Y115866D01*
X1679660Y115963D01*
X1679549Y116047D01*
X1679494Y116102D01*
X1679466Y116130D01*
X1679452Y116144D01*
X1679299Y116366D01*
X1679175Y116560D01*
X1679064Y116754D01*
X1678967Y116934D01*
X1678883Y117087D01*
X1678814Y117239D01*
X1678759Y117378D01*
X1678717Y117489D01*
X1678675Y117600D01*
X1678648Y117697D01*
X1678634Y117766D01*
X1678620Y117836D01*
X1678606Y117877D01*
Y117919D01*
Y117947D01*
Y117974D01*
Y118016D01*
X1678620Y118127D01*
X1678634Y118182D01*
Y118238D01*
X1678648Y118266D01*
Y118279D01*
X1678661Y118377D01*
X1678675Y118446D01*
Y118515D01*
X1678689Y118543D01*
Y118584D01*
Y118598D01*
Y118612D01*
X1678703Y118640D01*
X1678745Y118709D01*
X1678786Y118793D01*
X1678800Y118806D01*
Y118820D01*
X1678828Y118890D01*
X1678856Y118945D01*
X1678870Y118987D01*
X1678883Y119015D01*
X1678897Y119042D01*
X1678939Y119167D01*
X1678981Y119278D01*
X1679133Y119528D01*
X1679299Y119763D01*
X1679494Y119971D01*
X1679674Y120152D01*
X1679813Y120290D01*
X1679882Y120346D01*
X1679924Y120387D01*
X1679951Y120401D01*
X1679965Y120415D01*
X1680132Y120554D01*
X1680298Y120665D01*
X1680451Y120762D01*
X1680589Y120845D01*
X1680867Y120984D01*
X1681089Y121067D01*
X1681283Y121123D01*
X1681421Y121150D01*
X1681477Y121164D01*
X1681546D01*
X1681685Y121220D01*
X1681782Y121261D01*
X1681837Y121289D01*
X1681851Y121303D01*
X1682337Y121344D01*
X1682822Y121386D01*
X1683280Y121414D01*
X1683502D01*
X1683696Y121428D01*
X1683890D01*
X1684056Y121441D01*
X1684708D01*
X1684861Y121428D01*
D02*
G37*
G36*
X1736729Y115173D02*
X1736839Y115159D01*
X1736923Y115131D01*
X1736950Y115117D01*
X1736964D01*
X1737075Y115062D01*
X1737145Y115034D01*
X1737186Y115020D01*
X1737200D01*
Y115007D01*
Y114979D01*
X1737214Y114909D01*
X1737228Y114840D01*
X1737242Y114826D01*
Y114812D01*
X1737256Y114743D01*
X1737269Y114701D01*
X1737283Y114632D01*
Y114604D01*
Y114590D01*
X1737269Y114466D01*
X1737242Y114355D01*
X1737186Y114230D01*
X1737131Y114119D01*
X1737075Y114036D01*
X1737020Y113966D01*
X1736992Y113911D01*
X1736978Y113897D01*
X1736867Y113772D01*
X1736756Y113689D01*
X1736659Y113620D01*
X1736562Y113578D01*
X1736493Y113550D01*
X1736437Y113537D01*
X1736382D01*
X1736243Y113550D01*
X1736132Y113578D01*
X1736021Y113620D01*
X1735938Y113675D01*
X1735799Y113814D01*
X1735716Y113980D01*
X1735661Y114147D01*
X1735633Y114285D01*
X1735619Y114341D01*
Y114382D01*
Y114410D01*
Y114424D01*
X1735633Y114521D01*
X1735661Y114618D01*
X1735716Y114715D01*
X1735772Y114785D01*
X1735827Y114854D01*
X1735883Y114896D01*
X1735910Y114923D01*
X1735924Y114937D01*
X1736035Y115020D01*
X1736160Y115076D01*
X1736271Y115131D01*
X1736382Y115159D01*
X1736479Y115173D01*
X1736548Y115187D01*
X1736618D01*
X1736729Y115173D01*
D02*
G37*
G36*
X1702779D02*
X1702890Y115159D01*
X1702973Y115131D01*
X1703001Y115117D01*
X1703015D01*
X1703125Y115062D01*
X1703195Y115034D01*
X1703236Y115020D01*
X1703250D01*
Y115007D01*
Y114979D01*
X1703264Y114909D01*
X1703278Y114840D01*
X1703292Y114826D01*
Y114812D01*
X1703306Y114743D01*
X1703320Y114701D01*
X1703333Y114632D01*
Y114604D01*
Y114590D01*
X1703320Y114466D01*
X1703292Y114355D01*
X1703236Y114230D01*
X1703181Y114119D01*
X1703125Y114036D01*
X1703070Y113966D01*
X1703042Y113911D01*
X1703028Y113897D01*
X1702917Y113772D01*
X1702806Y113689D01*
X1702709Y113620D01*
X1702612Y113578D01*
X1702543Y113550D01*
X1702487Y113537D01*
X1702432D01*
X1702293Y113550D01*
X1702182Y113578D01*
X1702071Y113620D01*
X1701988Y113675D01*
X1701850Y113814D01*
X1701766Y113980D01*
X1701711Y114147D01*
X1701683Y114285D01*
X1701669Y114341D01*
Y114382D01*
Y114410D01*
Y114424D01*
X1701683Y114521D01*
X1701711Y114618D01*
X1701766Y114715D01*
X1701822Y114785D01*
X1701877Y114854D01*
X1701933Y114896D01*
X1701960Y114923D01*
X1701974Y114937D01*
X1702085Y115020D01*
X1702210Y115076D01*
X1702321Y115131D01*
X1702432Y115159D01*
X1702529Y115173D01*
X1702598Y115187D01*
X1702668D01*
X1702779Y115173D01*
D02*
G37*
G36*
X1709685Y122274D02*
X1710184Y122246D01*
X1710684Y122204D01*
X1711197Y122135D01*
X1711710Y122065D01*
X1712209Y121982D01*
X1712681Y121899D01*
X1713138Y121816D01*
X1713568Y121719D01*
X1713957Y121636D01*
X1714303Y121552D01*
X1714608Y121483D01*
X1714733Y121441D01*
X1714858Y121414D01*
X1714955Y121400D01*
X1715038Y121372D01*
X1715108Y121358D01*
X1715149Y121344D01*
X1715177Y121330D01*
X1715191D01*
X1715371Y121317D01*
X1715510Y121303D01*
X1715565Y121289D01*
X1715635D01*
X1716078Y121136D01*
X1716481Y120998D01*
X1716855Y120859D01*
X1717202Y120734D01*
X1717521Y120609D01*
X1717812Y120485D01*
X1718062Y120374D01*
X1718297Y120276D01*
X1718492Y120193D01*
X1718658Y120110D01*
X1718811Y120041D01*
X1718922Y119985D01*
X1719019Y119930D01*
X1719074Y119902D01*
X1719116Y119888D01*
X1719129Y119874D01*
X1719213Y119805D01*
X1719268Y119722D01*
X1719324Y119625D01*
X1719351Y119528D01*
X1719365Y119431D01*
X1719379Y119347D01*
Y119292D01*
Y119278D01*
X1719365Y119139D01*
X1719351Y119028D01*
X1719310Y118931D01*
X1719254Y118834D01*
X1719129Y118695D01*
X1718977Y118612D01*
X1718838Y118557D01*
X1718714Y118529D01*
X1718658Y118515D01*
X1718589D01*
X1718367Y118529D01*
X1718270Y118543D01*
X1718186Y118557D01*
X1718131D01*
X1718076Y118571D01*
X1718048Y118584D01*
X1718034D01*
X1717965Y118446D01*
X1717923Y118321D01*
X1717909Y118266D01*
Y118238D01*
Y118210D01*
Y118196D01*
Y118168D01*
Y118113D01*
X1717923Y118044D01*
X1717937Y117961D01*
X1717951Y117766D01*
X1717979Y117572D01*
X1718006Y117364D01*
X1718020Y117198D01*
X1718034Y117128D01*
X1718048Y117073D01*
Y117045D01*
Y117031D01*
X1718076Y116837D01*
X1718103Y116657D01*
X1718131Y116490D01*
X1718145Y116352D01*
X1718173Y116227D01*
X1718186Y116102D01*
X1718200Y116005D01*
X1718214Y115922D01*
X1718242Y115783D01*
X1718256Y115700D01*
X1718270Y115644D01*
Y115631D01*
X1718242Y115534D01*
X1718228Y115464D01*
Y115423D01*
Y115409D01*
X1718284Y115034D01*
X1718311Y114701D01*
X1718339Y114424D01*
X1718367Y114188D01*
Y113994D01*
X1718381Y113855D01*
Y113772D01*
Y113758D01*
Y113744D01*
Y113717D01*
X1718367Y113689D01*
X1718353Y113578D01*
Y113523D01*
X1718339Y113467D01*
Y113439D01*
Y113426D01*
X1718325Y113328D01*
X1718311Y113259D01*
Y113204D01*
X1718297Y113162D01*
Y113120D01*
Y113106D01*
X1718284Y112621D01*
X1718270Y112413D01*
X1718256Y112205D01*
X1718242Y112011D01*
X1718228Y111831D01*
X1718200Y111664D01*
X1718186Y111512D01*
X1718159Y111387D01*
X1718145Y111262D01*
X1718131Y111165D01*
X1718103Y111082D01*
X1718089Y111012D01*
Y110971D01*
X1718076Y110943D01*
Y110929D01*
X1718062Y110804D01*
X1718048Y110693D01*
Y110596D01*
X1718034Y110513D01*
Y110444D01*
Y110402D01*
Y110374D01*
Y110361D01*
Y110277D01*
Y110222D01*
X1718048Y110180D01*
Y110166D01*
X1717992Y110069D01*
X1717923Y109972D01*
X1717840Y109903D01*
X1717757Y109847D01*
X1717687Y109806D01*
X1717618Y109778D01*
X1717576Y109750D01*
X1717562D01*
X1717507Y109736D01*
X1717424Y109709D01*
X1717313Y109681D01*
X1717188Y109639D01*
X1717063Y109612D01*
X1716952Y109584D01*
X1716883Y109570D01*
X1716855Y109556D01*
X1713471Y110291D01*
X1713485Y110347D01*
X1713499Y110388D01*
Y110402D01*
Y110416D01*
X1713485Y110485D01*
X1713457Y110541D01*
X1713416Y110583D01*
X1713360Y110610D01*
X1713277Y110638D01*
X1713208D01*
X1713166Y110624D01*
X1713138Y110610D01*
X1713125Y110596D01*
X1713069Y110583D01*
X1713027Y110569D01*
X1713014D01*
X1713000Y110583D01*
X1712958Y110596D01*
X1712875Y110666D01*
X1712792Y110721D01*
X1712764Y110735D01*
X1712750Y110749D01*
X1712708Y110693D01*
X1712667Y110652D01*
X1712542Y110596D01*
X1712487Y110583D01*
X1712445Y110569D01*
X1712390D01*
X1712348Y110583D01*
X1712251Y110624D01*
X1712154Y110666D01*
X1712126Y110680D01*
X1712112D01*
X1712015Y110721D01*
X1711946Y110749D01*
X1711904Y110777D01*
X1711862Y110791D01*
X1711821Y110804D01*
X1711793D01*
X1711752Y110791D01*
X1711710Y110777D01*
X1711696D01*
X1711641Y110763D01*
X1711599Y110749D01*
X1711585D01*
X1711474Y110763D01*
X1711335Y110818D01*
X1711183Y110888D01*
X1711017Y110957D01*
X1710878Y111040D01*
X1710739Y111096D01*
X1710656Y111151D01*
X1710642Y111165D01*
X1710628D01*
X1710684Y111220D01*
X1710739Y111262D01*
X1710795Y111304D01*
X1710822Y111331D01*
X1710670Y111387D01*
X1710531Y111415D01*
X1710448Y111428D01*
X1710337D01*
X1710268Y111415D01*
X1710170Y111387D01*
X1710115Y111345D01*
X1710101Y111331D01*
X1710226Y111207D01*
X1709644D01*
X1709602Y111276D01*
X1709560Y111331D01*
X1709519Y111373D01*
X1709491Y111401D01*
X1709435Y111428D01*
X1709408D01*
X1709394Y111415D01*
X1709380Y111401D01*
X1709366D01*
X1709297Y111373D01*
X1709269D01*
X1709241Y111387D01*
X1709214Y111401D01*
X1709130Y111456D01*
X1709075Y111512D01*
X1709047Y111539D01*
X1708881Y111706D01*
X1708784Y111636D01*
X1708728Y111609D01*
X1708687Y111595D01*
X1708673D01*
X1708576Y111609D01*
X1708451Y111650D01*
X1708298Y111706D01*
X1708132Y111775D01*
X1707938Y111858D01*
X1707744Y111955D01*
X1707341Y112177D01*
X1707147Y112274D01*
X1706967Y112385D01*
X1706787Y112483D01*
X1706634Y112566D01*
X1706509Y112635D01*
X1706412Y112690D01*
X1706357Y112732D01*
X1706329Y112746D01*
X1706204Y112912D01*
X1706107Y113037D01*
X1706079Y113093D01*
X1706052Y113134D01*
X1706038Y113148D01*
Y113162D01*
X1705830Y113328D01*
X1705746Y113398D01*
X1705677Y113453D01*
X1705622Y113495D01*
X1705580Y113523D01*
X1705566Y113550D01*
X1705552D01*
X1705483Y113675D01*
X1705428Y113786D01*
X1705386Y113883D01*
X1705358Y113980D01*
X1705344Y114050D01*
X1705331Y114105D01*
Y114133D01*
Y114147D01*
X1705344Y114369D01*
X1705372Y114577D01*
X1705386Y114660D01*
X1705400Y114729D01*
X1705414Y114771D01*
Y114785D01*
X1705441Y114896D01*
X1705483Y114993D01*
X1705608Y115215D01*
X1705746Y115409D01*
X1705899Y115603D01*
X1706052Y115769D01*
X1706176Y115894D01*
X1706273Y115977D01*
X1706287Y115991D01*
X1706301Y116005D01*
X1706579Y116227D01*
X1706828Y116407D01*
X1707064Y116546D01*
X1707272Y116643D01*
X1707425Y116698D01*
X1707549Y116740D01*
X1707633Y116768D01*
X1707660D01*
X1707757Y116823D01*
X1707841Y116837D01*
X1707896Y116851D01*
X1707966D01*
X1707979Y116837D01*
X1707993D01*
X1708021Y116809D01*
X1708049Y116796D01*
X1708076D01*
X1708090Y116809D01*
X1708118Y116837D01*
X1708201Y116893D01*
X1708284Y116934D01*
X1708312Y116948D01*
X1708326D01*
X1708354Y116962D01*
X1708423Y116976D01*
X1708520Y116990D01*
X1708631Y117004D01*
X1708728Y117017D01*
X1708825Y117031D01*
X1708881Y117045D01*
X1708909D01*
X1709019Y117073D01*
X1709103Y117101D01*
X1709158Y117128D01*
X1709200Y117156D01*
X1709227Y117184D01*
X1709241Y117212D01*
Y117225D01*
X1708922Y117420D01*
X1708645Y117600D01*
X1708395Y117766D01*
X1708160Y117905D01*
X1707966Y118044D01*
X1707785Y118168D01*
X1707633Y118266D01*
X1707508Y118363D01*
X1707397Y118446D01*
X1707300Y118501D01*
X1707230Y118557D01*
X1707175Y118612D01*
X1707133Y118640D01*
X1707106Y118668D01*
X1707078Y118682D01*
X1706911Y118834D01*
X1706759Y119001D01*
X1706634Y119153D01*
X1706523Y119306D01*
X1706426Y119458D01*
X1706357Y119611D01*
X1706287Y119749D01*
X1706246Y119874D01*
X1706176Y120096D01*
X1706149Y120193D01*
X1706135Y120276D01*
X1706121Y120346D01*
Y120387D01*
Y120415D01*
Y120429D01*
X1706135Y120554D01*
X1706190Y120706D01*
X1706273Y120873D01*
X1706357Y121053D01*
X1706454Y121206D01*
X1706523Y121330D01*
X1706565Y121386D01*
X1706579Y121428D01*
X1706606Y121441D01*
Y121455D01*
X1706828Y121580D01*
X1707050Y121705D01*
X1707258Y121802D01*
X1707452Y121885D01*
X1707813Y122010D01*
X1707966Y122065D01*
X1708104Y122093D01*
X1708229Y122135D01*
X1708354Y122149D01*
X1708451Y122163D01*
X1708520Y122177D01*
X1708589Y122190D01*
X1708687D01*
X1708728Y122204D01*
X1708825Y122218D01*
X1708909Y122232D01*
X1708950D01*
X1709033Y122246D01*
X1709089Y122260D01*
X1709130Y122274D01*
X1709158Y122287D01*
X1709200D01*
X1709685Y122274D01*
D02*
G37*
G36*
X1730821Y121705D02*
X1731181Y121650D01*
X1731556Y121580D01*
X1731930Y121511D01*
X1732110Y121469D01*
X1732277Y121428D01*
X1732429Y121386D01*
X1732554Y121358D01*
X1732665Y121330D01*
X1732748Y121303D01*
X1732804Y121289D01*
X1732818D01*
X1733026Y121233D01*
X1733206Y121178D01*
X1733372Y121123D01*
X1733525Y121081D01*
X1733650Y121039D01*
X1733775Y120998D01*
X1733872Y120970D01*
X1733941Y120942D01*
X1734066Y120901D01*
X1734149Y120873D01*
X1734191Y120845D01*
X1734205D01*
X1734399Y120720D01*
X1734537Y120609D01*
X1734634Y120485D01*
X1734704Y120387D01*
X1734745Y120290D01*
X1734759Y120221D01*
X1734773Y120179D01*
Y120166D01*
X1734759Y120124D01*
X1734731Y120069D01*
X1734648Y119944D01*
X1734607Y119888D01*
X1734565Y119847D01*
X1734537Y119819D01*
X1734523Y119805D01*
X1734426Y119694D01*
X1734329Y119625D01*
X1734246Y119569D01*
X1734177Y119528D01*
X1734121Y119500D01*
X1734080Y119486D01*
X1734052D01*
X1732526Y119833D01*
X1732263Y119888D01*
X1732027Y119944D01*
X1731819Y119985D01*
X1731653Y120027D01*
X1731500Y120055D01*
X1731375Y120082D01*
X1731278Y120110D01*
X1731195Y120124D01*
X1731126Y120138D01*
X1731070Y120152D01*
X1731015Y120166D01*
X1730987D01*
X1730862Y120138D01*
X1730751Y120096D01*
X1730668Y120055D01*
X1730654Y120027D01*
X1730640D01*
X1730737Y119971D01*
X1730821Y119944D01*
X1730876Y119916D01*
X1730890D01*
X1730932Y119736D01*
X1730973Y119569D01*
X1731015Y119431D01*
X1731042Y119306D01*
X1731070Y119209D01*
X1731084Y119111D01*
X1731112Y119042D01*
X1731126Y118987D01*
X1731140Y118904D01*
X1731153Y118862D01*
Y118834D01*
X1731167Y118765D01*
X1731181Y118709D01*
Y118682D01*
Y118668D01*
X1731167Y118598D01*
X1731153Y118543D01*
X1731140Y118501D01*
Y118488D01*
X1731195Y118390D01*
X1731237Y118321D01*
X1731250Y118266D01*
Y118252D01*
Y118141D01*
X1731264Y118016D01*
X1731278Y117877D01*
Y117725D01*
X1731320Y117378D01*
X1731348Y117031D01*
X1731375Y116712D01*
X1731389Y116560D01*
X1731403Y116435D01*
X1731417Y116338D01*
Y116255D01*
X1731431Y116199D01*
Y116185D01*
X1731458Y115963D01*
X1731472Y115769D01*
X1731500Y115603D01*
X1731514Y115450D01*
X1731528Y115325D01*
X1731542Y115215D01*
X1731556Y115131D01*
Y115062D01*
X1731570Y115007D01*
Y114951D01*
X1731583Y114896D01*
Y114868D01*
Y114854D01*
Y114812D01*
Y114743D01*
X1731570Y114590D01*
X1731556Y114396D01*
X1731528Y114160D01*
X1731500Y113897D01*
X1731472Y113620D01*
X1731403Y113051D01*
X1731375Y112760D01*
X1731348Y112496D01*
X1731320Y112247D01*
X1731292Y112025D01*
X1731264Y111831D01*
X1731250Y111692D01*
Y111636D01*
X1731237Y111595D01*
Y111581D01*
Y111567D01*
X1731362Y111512D01*
X1731500Y111470D01*
X1731653Y111428D01*
X1731791Y111401D01*
X1731902Y111373D01*
X1732013Y111345D01*
X1732069Y111331D01*
X1732097D01*
X1732249Y111304D01*
X1732415Y111276D01*
X1732596Y111248D01*
X1732762Y111234D01*
X1732915Y111207D01*
X1733040Y111193D01*
X1733123Y111179D01*
X1733150D01*
X1733261Y111123D01*
X1733345Y111096D01*
X1733414Y111082D01*
X1733428D01*
X1733483Y111096D01*
X1733497Y111110D01*
X1733511D01*
X1733566Y111137D01*
X1733594D01*
X1733705Y111082D01*
X1733802Y111040D01*
X1733969Y110943D01*
X1734080Y110846D01*
X1734149Y110749D01*
X1734205Y110680D01*
X1734218Y110624D01*
X1734232Y110583D01*
Y110569D01*
X1734205Y110361D01*
X1734191Y110291D01*
X1734163Y110222D01*
X1734135Y110166D01*
X1734121Y110125D01*
X1734093Y110111D01*
Y110097D01*
X1734038Y110042D01*
X1733955Y109972D01*
X1733788Y109861D01*
X1733705Y109820D01*
X1733636Y109778D01*
X1733594Y109764D01*
X1733580Y109750D01*
X1733442Y109681D01*
X1733331Y109639D01*
X1733234Y109598D01*
X1733164Y109584D01*
X1733109Y109570D01*
X1733053Y109556D01*
X1733026D01*
X1732818Y109570D01*
X1732582Y109584D01*
X1732332Y109612D01*
X1732055Y109653D01*
X1731500Y109750D01*
X1730959Y109875D01*
X1730696Y109931D01*
X1730460Y109986D01*
X1730252Y110042D01*
X1730058Y110083D01*
X1729905Y110125D01*
X1729780Y110153D01*
X1729711Y110180D01*
X1729683D01*
X1729420Y110264D01*
X1729156Y110347D01*
X1728907Y110430D01*
X1728685Y110499D01*
X1728491Y110569D01*
X1728352Y110624D01*
X1728297Y110638D01*
X1728255Y110652D01*
X1728241Y110666D01*
X1728227D01*
X1728130Y110680D01*
X1728047D01*
X1727922Y110693D01*
X1727825D01*
X1727437Y110860D01*
X1727090Y110998D01*
X1726813Y111123D01*
X1726577Y111220D01*
X1726397Y111304D01*
X1726258Y111359D01*
X1726189Y111387D01*
X1726161Y111401D01*
X1726244Y111428D01*
X1726327Y111442D01*
X1726438D01*
X1726494Y111428D01*
X1726563Y111415D01*
X1726646Y111387D01*
X1726729Y111373D01*
X1726785Y111345D01*
X1726840Y111331D01*
X1726854D01*
X1726993Y111290D01*
X1727090Y111248D01*
X1727173Y111220D01*
X1727229Y111207D01*
X1727256D01*
X1727284Y111193D01*
X1727298D01*
X1727381Y111207D01*
X1727464Y111248D01*
X1727520Y111276D01*
X1727534Y111290D01*
X1727464Y111359D01*
X1727395Y111428D01*
X1727215Y111553D01*
X1727007Y111664D01*
X1726799Y111775D01*
X1726605Y111858D01*
X1726452Y111914D01*
X1726383Y111942D01*
X1726341Y111955D01*
X1726313Y111969D01*
X1726299D01*
X1724635Y112524D01*
X1724552Y112579D01*
X1724497Y112621D01*
X1724469Y112635D01*
X1724455D01*
X1724413Y112621D01*
X1724386Y112607D01*
X1724330Y112579D01*
X1724316D01*
X1721834Y113897D01*
X1721778D01*
X1721737Y113883D01*
X1721709Y113869D01*
Y113855D01*
Y113689D01*
X1721792Y113633D01*
X1721848Y113592D01*
X1721889Y113578D01*
X1721903D01*
X1721848Y113509D01*
X1721820Y113467D01*
X1721792Y113439D01*
Y113426D01*
X1721695Y113453D01*
X1721598Y113509D01*
X1721501Y113578D01*
X1721418Y113661D01*
X1721362Y113744D01*
X1721307Y113814D01*
X1721279Y113869D01*
X1721265Y113883D01*
X1721307Y113855D01*
X1721362Y113842D01*
X1721418Y113828D01*
X1721432D01*
X1721515Y113842D01*
X1721570Y113869D01*
X1721612Y113897D01*
X1721626Y113911D01*
X1721473Y114050D01*
X1721349Y114160D01*
X1721251Y114258D01*
X1721154Y114327D01*
X1721085Y114382D01*
X1721043Y114438D01*
X1721016Y114452D01*
X1721002Y114466D01*
X1720822D01*
X1720766Y114396D01*
X1720738Y114341D01*
X1720669Y114258D01*
X1720641Y114230D01*
X1720627Y114216D01*
Y114230D01*
X1720530Y114327D01*
X1720447Y114396D01*
X1720392Y114452D01*
X1720364Y114507D01*
X1720336Y114535D01*
X1720322Y114549D01*
Y114563D01*
X1720405Y114604D01*
X1720461Y114632D01*
X1720502Y114660D01*
X1720516D01*
X1720350Y114785D01*
X1720211Y114882D01*
X1720156Y114923D01*
X1720114Y114951D01*
X1720100Y114965D01*
X1720087D01*
X1720003Y114896D01*
X1719962Y114840D01*
X1719948Y114812D01*
Y114798D01*
X1719934Y114840D01*
X1719878Y114896D01*
X1719837Y114923D01*
X1719823Y114937D01*
X1719629Y115034D01*
X1719518Y115131D01*
X1719421Y115228D01*
X1719282Y115409D01*
X1719171Y115589D01*
X1719088Y115742D01*
X1719046Y115866D01*
X1719032Y115977D01*
X1719019Y116033D01*
Y116060D01*
X1719032Y116116D01*
X1719046Y116144D01*
X1718977Y116213D01*
X1718922Y116269D01*
X1718908Y116296D01*
X1718894Y116310D01*
X1718880Y116490D01*
X1718866Y116643D01*
X1718852Y116782D01*
X1718838Y116893D01*
X1718824Y116990D01*
X1718811Y117073D01*
Y117142D01*
X1718797Y117198D01*
Y117267D01*
X1718786Y117298D01*
X1718797Y117350D01*
X1718811Y117447D01*
X1718838Y117572D01*
X1718880Y117683D01*
X1718922Y117808D01*
X1718949Y117891D01*
X1718963Y117961D01*
X1718977Y117988D01*
X1719032Y118141D01*
X1719088Y118266D01*
X1719129Y118363D01*
X1719171Y118446D01*
X1719199Y118515D01*
X1719227Y118557D01*
X1719241Y118584D01*
Y118598D01*
X1719310Y118751D01*
X1719407Y118917D01*
X1719532Y119070D01*
X1719657Y119222D01*
X1719934Y119514D01*
X1720225Y119777D01*
X1720502Y119999D01*
X1720613Y120096D01*
X1720724Y120166D01*
X1720822Y120235D01*
X1720891Y120276D01*
X1720932Y120304D01*
X1720946Y120318D01*
X1721182Y120471D01*
X1721418Y120596D01*
X1721875Y120831D01*
X1722278Y121011D01*
X1722472Y121081D01*
X1722638Y121150D01*
X1722805Y121192D01*
X1722943Y121233D01*
X1723068Y121275D01*
X1723179Y121303D01*
X1723262Y121317D01*
X1723318Y121330D01*
X1723359Y121344D01*
X1723373D01*
X1723803Y121414D01*
X1724011Y121441D01*
X1724191Y121469D01*
X1724358Y121483D01*
X1724469D01*
X1724552Y121497D01*
X1724580D01*
X1724621Y121511D01*
X1724691Y121525D01*
X1724774Y121538D01*
X1724857Y121552D01*
X1724940Y121580D01*
X1725010Y121594D01*
X1725065Y121608D01*
X1725079D01*
X1725218Y121650D01*
X1725329Y121677D01*
X1725398Y121691D01*
X1725453Y121705D01*
X1725481Y121719D01*
X1730654D01*
X1730821Y121705D01*
D02*
G37*
G36*
X1670729Y115090D02*
X1670784Y115062D01*
X1670840Y115020D01*
X1670895Y114965D01*
X1671006Y114826D01*
X1671103Y114674D01*
X1671187Y114507D01*
X1671256Y114369D01*
X1671284Y114313D01*
X1671297Y114271D01*
X1671311Y114244D01*
Y114230D01*
X1671297Y114147D01*
X1671256Y114063D01*
X1671214Y114008D01*
X1671200Y113980D01*
X1671145Y113911D01*
X1671103Y113855D01*
X1671089Y113828D01*
X1671075Y113814D01*
X1670867Y113315D01*
X1670618Y112801D01*
X1670382Y112302D01*
X1670257Y112066D01*
X1670132Y111831D01*
X1670022Y111623D01*
X1669911Y111428D01*
X1669827Y111262D01*
X1669744Y111110D01*
X1669675Y110998D01*
X1669619Y110901D01*
X1669592Y110846D01*
X1669578Y110832D01*
X1669536Y110791D01*
X1669467Y110735D01*
X1669397Y110666D01*
X1669314Y110610D01*
X1669231Y110555D01*
X1669162Y110499D01*
X1669106Y110471D01*
X1669092Y110458D01*
X1668954Y110361D01*
X1668829Y110291D01*
X1668746Y110250D01*
X1668676Y110222D01*
X1668621Y110194D01*
X1668593Y110180D01*
X1668565D01*
X1668538Y110194D01*
X1668482Y110208D01*
X1668413Y110250D01*
X1668330Y110305D01*
X1668219Y110361D01*
X1668108Y110430D01*
X1667844Y110610D01*
X1667539Y110818D01*
X1667220Y111054D01*
X1666859Y111304D01*
X1666513Y111567D01*
X1666152Y111817D01*
X1665819Y112066D01*
X1665500Y112302D01*
X1665223Y112510D01*
X1664987Y112690D01*
X1664876Y112760D01*
X1664793Y112815D01*
X1664738Y112871D01*
X1664682Y112912D01*
X1664655Y112926D01*
X1664641Y112940D01*
X1664627Y113023D01*
X1664613Y113093D01*
Y113148D01*
Y113162D01*
X1664446Y113287D01*
X1664280Y113412D01*
X1664141Y113523D01*
X1664017Y113606D01*
X1663919Y113689D01*
X1663822Y113758D01*
X1663670Y113869D01*
X1663573Y113953D01*
X1663503Y114008D01*
X1663476Y114022D01*
X1663462Y114036D01*
X1663406Y114105D01*
X1663365Y114174D01*
X1663309Y114299D01*
X1663295Y114382D01*
Y114396D01*
Y114410D01*
X1663309Y114493D01*
X1663337Y114577D01*
X1663434Y114729D01*
X1663490Y114785D01*
X1663545Y114826D01*
X1663573Y114854D01*
X1663587Y114868D01*
X1663961Y114757D01*
X1664308Y114646D01*
X1664613Y114549D01*
X1664863Y114452D01*
X1665057Y114382D01*
X1665140Y114355D01*
X1665209Y114327D01*
X1665265Y114299D01*
X1665306Y114285D01*
X1665320Y114271D01*
X1665334D01*
X1665487Y114160D01*
X1665611Y114063D01*
X1665708Y113994D01*
X1665792Y113925D01*
X1665861Y113869D01*
X1665903Y113828D01*
X1665916Y113814D01*
X1665930Y113800D01*
X1666208Y113620D01*
X1666457Y113481D01*
X1666665Y113342D01*
X1666846Y113245D01*
X1666998Y113162D01*
X1667095Y113106D01*
X1667151Y113079D01*
X1667178Y113065D01*
X1667262Y112996D01*
X1667359Y112926D01*
X1667484Y112843D01*
X1667608Y112760D01*
X1667719Y112690D01*
X1667816Y112635D01*
X1667886Y112593D01*
X1667914Y112579D01*
X1668108Y112469D01*
X1668260Y112385D01*
X1668371Y112330D01*
X1668468Y112288D01*
X1668524Y112261D01*
X1668565Y112247D01*
X1668593D01*
X1668621Y112261D01*
X1668662Y112302D01*
X1668732Y112385D01*
X1668801Y112469D01*
X1668884Y112579D01*
X1668967Y112704D01*
X1669162Y112968D01*
X1669342Y113217D01*
X1669425Y113342D01*
X1669494Y113453D01*
X1669564Y113550D01*
X1669606Y113620D01*
X1669633Y113661D01*
X1669647Y113675D01*
X1669814Y113925D01*
X1669966Y114147D01*
X1670091Y114341D01*
X1670216Y114507D01*
X1670313Y114646D01*
X1670396Y114757D01*
X1670465Y114854D01*
X1670521Y114923D01*
X1670562Y114979D01*
X1670604Y115034D01*
X1670646Y115076D01*
X1670673Y115104D01*
X1670729Y115090D01*
D02*
G37*
G36*
X1722430Y113093D02*
X1722500Y113065D01*
X1722569Y113023D01*
X1722638Y112996D01*
X1722708Y112968D01*
X1722749Y112954D01*
X1722763Y112940D01*
X1722472D01*
X1722500Y112954D01*
X1722513Y112968D01*
X1722527Y112982D01*
X1722444Y113051D01*
X1722402Y113079D01*
X1722375Y113093D01*
X1722361D01*
X1722391Y113132D01*
X1722430Y113093D01*
D02*
G37*
%LPC*%
G36*
X1709477Y120859D02*
X1709103D01*
X1708964Y120845D01*
X1708825Y120817D01*
X1708687Y120803D01*
X1708562Y120776D01*
X1708465Y120748D01*
X1708409Y120734D01*
X1708382D01*
X1708271Y120693D01*
X1708160Y120665D01*
X1707993Y120596D01*
X1707882Y120526D01*
X1707799Y120471D01*
X1707744Y120415D01*
X1707730Y120374D01*
X1707716Y120360D01*
Y120346D01*
X1707730Y120290D01*
X1707771Y120221D01*
X1707827Y120152D01*
X1707910Y120069D01*
X1707993Y119985D01*
X1708104Y119902D01*
X1708326Y119722D01*
X1708548Y119555D01*
X1708659Y119486D01*
X1708742Y119417D01*
X1708825Y119361D01*
X1708881Y119333D01*
X1708922Y119306D01*
X1708936Y119292D01*
X1709366Y119015D01*
X1709810Y118765D01*
X1710240Y118543D01*
X1710628Y118349D01*
X1710809Y118266D01*
X1710975Y118196D01*
X1711127Y118127D01*
X1711252Y118071D01*
X1711349Y118030D01*
X1711419Y118002D01*
X1711474Y117988D01*
X1711488Y117974D01*
X1711599Y117933D01*
X1711738Y117877D01*
X1711904Y117822D01*
X1712084Y117752D01*
X1712487Y117614D01*
X1712889Y117461D01*
X1713083Y117392D01*
X1713277Y117336D01*
X1713443Y117267D01*
X1713596Y117225D01*
X1713721Y117170D01*
X1713818Y117142D01*
X1713873Y117128D01*
X1713901Y117114D01*
X1714068Y117087D01*
X1714178Y117073D01*
X1714290D01*
X1714428Y116990D01*
X1714539Y116934D01*
X1714608Y116893D01*
X1714622Y116879D01*
X1714636D01*
X1714941Y116796D01*
X1715094Y116768D01*
X1715233Y116726D01*
X1715343Y116698D01*
X1715427Y116671D01*
X1715482Y116643D01*
X1715510D01*
X1715704Y116587D01*
X1715857Y116546D01*
X1715981Y116504D01*
X1716065Y116490D01*
X1716106Y116477D01*
X1716148Y116463D01*
X1716384D01*
X1716467Y116574D01*
X1716508Y116685D01*
Y116740D01*
X1716522Y116782D01*
Y116809D01*
Y116823D01*
Y116879D01*
Y116906D01*
X1716508Y117073D01*
X1716494Y117212D01*
Y117309D01*
X1716481Y117378D01*
Y117420D01*
Y117447D01*
Y117461D01*
Y117503D01*
X1716467Y117558D01*
X1716453Y117641D01*
X1716439Y117725D01*
X1716425Y117808D01*
X1716411Y117877D01*
X1716398Y117933D01*
Y117947D01*
Y117988D01*
X1716425Y118057D01*
X1716439Y118141D01*
X1716467Y118238D01*
X1716494Y118321D01*
X1716508Y118404D01*
X1716536Y118460D01*
Y118474D01*
X1716578Y118640D01*
X1716619Y118779D01*
X1716647Y118904D01*
X1716675Y119001D01*
X1716703Y119084D01*
X1716716Y119153D01*
X1716730Y119181D01*
Y119195D01*
X1715954Y119486D01*
X1715191Y119749D01*
X1714470Y119971D01*
X1713776Y120152D01*
X1713125Y120318D01*
X1712500Y120457D01*
X1711932Y120568D01*
X1711405Y120651D01*
X1710919Y120720D01*
X1710697Y120748D01*
X1710490Y120776D01*
X1710309Y120790D01*
X1710129Y120803D01*
X1709962Y120817D01*
X1709810Y120831D01*
X1709685Y120845D01*
X1709574D01*
X1709477Y120859D01*
D02*
G37*
G36*
X1652977Y119763D02*
X1652866Y119666D01*
X1652783Y119555D01*
X1652700Y119444D01*
X1652644Y119333D01*
X1652603Y119250D01*
X1652575Y119181D01*
X1652561Y119125D01*
Y119111D01*
X1652534Y118945D01*
X1652492Y118793D01*
X1652478Y118668D01*
X1652450Y118584D01*
X1652436Y118501D01*
Y118460D01*
X1652422Y118432D01*
Y118418D01*
X1652409Y118266D01*
X1652395Y118127D01*
Y118016D01*
X1652381Y117905D01*
Y117836D01*
Y117766D01*
Y117739D01*
Y117725D01*
X1652312Y117655D01*
X1652298Y117641D01*
Y117628D01*
X1652242Y117336D01*
X1652187Y117059D01*
X1652131Y116796D01*
X1652076Y116546D01*
X1652034Y116310D01*
X1651993Y116102D01*
X1651951Y115894D01*
X1651909Y115728D01*
X1651882Y115561D01*
X1651854Y115423D01*
X1651826Y115298D01*
X1651812Y115201D01*
X1651798Y115117D01*
X1651785Y115062D01*
X1651771Y115034D01*
Y115020D01*
X1651577Y114646D01*
X1651521Y114521D01*
X1651479Y114438D01*
X1651452Y114369D01*
X1651424Y114313D01*
Y114285D01*
X1651410Y114271D01*
Y114258D01*
X1651424Y114216D01*
X1651438Y114147D01*
X1651466Y114105D01*
X1651479Y114077D01*
X1651729D01*
X1651812Y114091D01*
X1651909Y114105D01*
X1652117Y114174D01*
X1652215Y114216D01*
X1652298Y114244D01*
X1652353Y114258D01*
X1652367Y114271D01*
X1652644Y114313D01*
X1652922Y114341D01*
X1653171Y114382D01*
X1653393Y114410D01*
X1653615Y114438D01*
X1653809Y114452D01*
X1653990Y114466D01*
X1654142Y114493D01*
X1654295D01*
X1654420Y114507D01*
X1654517Y114521D01*
X1654614D01*
X1654683Y114535D01*
X1654766D01*
X1654974Y114563D01*
X1655155Y114590D01*
X1655307Y114618D01*
X1655446Y114632D01*
X1655557Y114660D01*
X1655654Y114674D01*
X1655737Y114688D01*
X1655806Y114701D01*
X1655903Y114715D01*
X1655945Y114729D01*
X1655973Y114743D01*
X1655903Y114882D01*
X1655848Y115007D01*
X1655737Y115215D01*
X1655668Y115381D01*
X1655598Y115492D01*
X1655571Y115575D01*
X1655543Y115631D01*
X1655529Y115644D01*
Y115658D01*
X1655418Y115769D01*
X1655321Y115852D01*
X1655266Y115908D01*
X1655252Y115922D01*
X1655044Y116269D01*
X1654863Y116587D01*
X1654711Y116851D01*
X1654586Y117087D01*
X1654475Y117267D01*
X1654406Y117406D01*
X1654364Y117489D01*
X1654350Y117517D01*
X1653990Y117919D01*
X1653920Y118002D01*
X1653851Y118085D01*
X1653768Y118224D01*
X1653740Y118279D01*
X1653726Y118321D01*
X1653712Y118349D01*
Y118363D01*
X1653629Y118543D01*
X1653560Y118723D01*
X1653490Y118876D01*
X1653421Y119015D01*
X1653296Y119264D01*
X1653185Y119444D01*
X1653102Y119597D01*
X1653033Y119694D01*
X1652991Y119749D01*
X1652977Y119763D01*
D02*
G37*
G36*
X1674113Y114091D02*
X1674071D01*
X1673946Y114036D01*
X1673863Y113980D01*
X1673794Y113939D01*
X1673738Y113897D01*
X1673710Y113869D01*
X1673697Y113855D01*
X1673683Y113842D01*
X1673641Y113675D01*
X1673586Y113495D01*
X1673558Y113412D01*
X1673544Y113356D01*
X1673530Y113315D01*
Y113301D01*
X1673558Y113259D01*
X1673613Y113217D01*
X1673738Y113162D01*
X1673891Y113120D01*
X1674043Y113093D01*
X1674196Y113079D01*
X1674335Y113065D01*
X1676706D01*
X1676748Y113079D01*
X1676762Y113134D01*
X1676775Y113176D01*
Y113190D01*
X1676762Y113245D01*
X1676720Y113315D01*
X1676664Y113370D01*
X1676595Y113439D01*
X1676526Y113495D01*
X1676470Y113537D01*
X1676429Y113564D01*
X1676415Y113578D01*
X1676290Y113661D01*
X1676165Y113731D01*
X1676068Y113772D01*
X1675985Y113814D01*
X1675916Y113828D01*
X1675860Y113842D01*
X1675832Y113855D01*
X1675818D01*
X1675472Y113911D01*
X1675153Y113966D01*
X1674848Y114008D01*
X1674584Y114036D01*
X1674376Y114063D01*
X1674279Y114077D01*
X1674154D01*
X1674113Y114091D01*
D02*
G37*
G36*
X1709158Y111928D02*
X1708895D01*
X1708950Y111858D01*
X1708978Y111789D01*
X1708992Y111734D01*
Y111706D01*
X1709047Y111761D01*
X1709089Y111803D01*
X1709144Y111872D01*
X1709172Y111900D01*
Y111914D01*
X1709158Y111928D01*
D02*
G37*
G36*
X1727118Y120526D02*
X1727090D01*
X1727048Y120512D01*
X1726965Y120485D01*
X1726882Y120457D01*
X1726854Y120443D01*
X1726840D01*
X1726355Y120415D01*
X1725911Y120374D01*
X1725509Y120332D01*
X1725134Y120290D01*
X1724788Y120249D01*
X1724483Y120221D01*
X1724205Y120179D01*
X1723956Y120138D01*
X1723734Y120110D01*
X1723554Y120069D01*
X1723401Y120041D01*
X1723276Y120027D01*
X1723179Y119999D01*
X1723110Y119985D01*
X1723068Y119971D01*
X1723054D01*
X1722763Y119888D01*
X1722486Y119777D01*
X1722236Y119666D01*
X1722028Y119555D01*
X1721834Y119444D01*
X1721709Y119361D01*
X1721654Y119320D01*
X1721612Y119306D01*
X1721598Y119278D01*
X1721584D01*
X1721390Y119125D01*
X1721224Y118987D01*
X1721071Y118848D01*
X1720932Y118709D01*
X1720822Y118584D01*
X1720710Y118460D01*
X1720627Y118349D01*
X1720558Y118252D01*
X1720447Y118071D01*
X1720378Y117933D01*
X1720364Y117877D01*
X1720350Y117836D01*
X1720336Y117822D01*
Y117808D01*
X1720322Y117780D01*
X1720294Y117752D01*
X1720281Y117739D01*
X1720267D01*
Y117725D01*
Y117697D01*
X1720253Y117614D01*
X1720239Y117503D01*
X1720225Y117364D01*
X1720211Y117239D01*
X1720197Y117114D01*
X1720184Y117031D01*
Y117017D01*
Y117004D01*
Y116920D01*
X1720211Y116837D01*
X1720281Y116657D01*
X1720378Y116490D01*
X1720489Y116338D01*
X1720613Y116199D01*
X1720710Y116102D01*
X1720780Y116033D01*
X1720794Y116005D01*
X1720808D01*
X1721321Y115575D01*
X1721820Y115187D01*
X1722305Y114854D01*
X1722527Y114715D01*
X1722735Y114590D01*
X1722930Y114466D01*
X1723110Y114369D01*
X1723262Y114285D01*
X1723401Y114202D01*
X1723498Y114147D01*
X1723581Y114105D01*
X1723637Y114091D01*
X1723651Y114077D01*
X1723831Y113994D01*
X1724025Y113911D01*
X1724247Y113814D01*
X1724483Y113717D01*
X1724996Y113509D01*
X1725495Y113315D01*
X1725745Y113217D01*
X1725967Y113134D01*
X1726175Y113065D01*
X1726355Y112996D01*
X1726508Y112940D01*
X1726618Y112899D01*
X1726688Y112871D01*
X1726716Y112857D01*
X1727173Y112690D01*
X1727589Y112538D01*
X1727950Y112413D01*
X1728269Y112302D01*
X1728546Y112205D01*
X1728796Y112122D01*
X1729004Y112052D01*
X1729170Y112011D01*
X1729309Y111969D01*
X1729434Y111942D01*
X1729517Y111914D01*
X1729586Y111900D01*
X1729628Y111886D01*
X1729683D01*
X1729739Y111900D01*
X1729822Y111914D01*
X1729891Y111928D01*
X1729905Y111942D01*
X1729919D01*
X1729947Y112150D01*
X1729989Y112330D01*
X1730002Y112483D01*
X1730030Y112621D01*
X1730044Y112746D01*
X1730072Y112843D01*
Y112926D01*
X1730086Y112996D01*
X1730099Y113093D01*
X1730113Y113148D01*
Y113176D01*
X1730002Y115464D01*
X1729989Y115575D01*
Y115700D01*
X1729961Y115991D01*
X1729933Y116310D01*
X1729891Y116629D01*
X1729864Y116920D01*
X1729850Y117059D01*
X1729836Y117170D01*
X1729822Y117267D01*
X1729808Y117336D01*
Y117378D01*
Y117392D01*
X1729780Y117600D01*
X1729767Y117780D01*
X1729739Y117933D01*
X1729725Y118085D01*
X1729711Y118196D01*
X1729697Y118307D01*
X1729683Y118390D01*
Y118474D01*
X1729669Y118571D01*
X1729656Y118640D01*
Y118668D01*
Y118682D01*
Y118709D01*
Y118723D01*
Y118862D01*
X1729683Y119015D01*
X1729697Y119153D01*
X1729725Y119278D01*
X1729753Y119403D01*
X1729780Y119486D01*
X1729794Y119542D01*
X1729808Y119569D01*
X1729919Y119680D01*
X1730016Y119777D01*
X1730072Y119833D01*
X1730099Y119847D01*
X1730183Y119985D01*
X1730224Y120096D01*
X1730238Y120193D01*
Y120207D01*
Y120221D01*
X1729683Y120290D01*
X1729156Y120332D01*
X1728907Y120346D01*
X1728671Y120374D01*
X1728449Y120387D01*
X1728241D01*
X1728061Y120401D01*
X1727881D01*
X1727742Y120415D01*
X1727381D01*
X1727256Y120485D01*
X1727173Y120512D01*
X1727118Y120526D01*
D02*
G37*
G36*
X1711502Y111082D02*
X1711433Y110804D01*
X1711682D01*
X1711696Y110860D01*
X1711724Y110901D01*
X1711738Y110943D01*
X1711752Y110957D01*
X1711655Y111012D01*
X1711571Y111054D01*
X1711516Y111068D01*
X1711502Y111082D01*
D02*
G37*
G36*
X1728921Y110971D02*
X1728851D01*
X1728782Y110957D01*
X1728727Y110943D01*
X1728699Y110929D01*
X1728643Y110915D01*
X1728602Y110901D01*
X1728546Y110888D01*
X1728518Y110874D01*
X1728616D01*
X1728699Y110860D01*
X1728893Y110846D01*
X1728976Y110832D01*
X1729045Y110818D01*
X1729101Y110804D01*
X1729115D01*
X1729101Y110860D01*
X1729073Y110901D01*
X1728990Y110957D01*
X1728921Y110971D01*
D02*
G37*
G36*
X1711086Y115658D02*
X1710697D01*
X1710351Y115644D01*
X1710032Y115631D01*
X1709741Y115617D01*
X1709463Y115589D01*
X1709200Y115561D01*
X1708964Y115520D01*
X1708742Y115492D01*
X1708534Y115450D01*
X1708354Y115409D01*
X1708187Y115367D01*
X1708035Y115312D01*
X1707882Y115270D01*
X1707757Y115215D01*
X1707549Y115117D01*
X1707383Y115020D01*
X1707258Y114923D01*
X1707175Y114826D01*
X1707106Y114743D01*
X1707078Y114674D01*
X1707064Y114618D01*
X1707050Y114590D01*
Y114577D01*
X1707064Y114493D01*
X1707106Y114410D01*
X1707161Y114327D01*
X1707244Y114230D01*
X1707341Y114147D01*
X1707452Y114063D01*
X1707688Y113911D01*
X1707924Y113772D01*
X1708035Y113717D01*
X1708132Y113675D01*
X1708201Y113633D01*
X1708271Y113606D01*
X1708312Y113578D01*
X1708326D01*
X1708465Y113481D01*
X1708562Y113398D01*
X1708631Y113342D01*
X1708659Y113328D01*
X1709227Y113120D01*
X1709782Y112926D01*
X1710337Y112746D01*
X1710864Y112579D01*
X1711377Y112427D01*
X1711862Y112288D01*
X1712334Y112163D01*
X1712750Y112052D01*
X1713152Y111955D01*
X1713499Y111872D01*
X1713804Y111803D01*
X1714068Y111734D01*
X1714290Y111692D01*
X1714373Y111678D01*
X1714442Y111664D01*
X1714498Y111650D01*
X1714539Y111636D01*
X1714567D01*
X1714608Y111623D01*
X1714664Y111609D01*
X1714816Y111581D01*
X1714983Y111539D01*
X1715149Y111484D01*
X1715316Y111442D01*
X1715454Y111415D01*
X1715510Y111401D01*
X1715538Y111387D01*
X1715565Y111373D01*
X1715579D01*
X1715801Y111318D01*
X1715968Y111276D01*
X1716106Y111234D01*
X1716203Y111220D01*
X1716259Y111207D01*
X1716300Y111193D01*
X1716328D01*
X1716439Y111220D01*
X1716536Y111276D01*
X1716619Y111359D01*
X1716689Y111470D01*
X1716730Y111567D01*
X1716772Y111650D01*
X1716786Y111706D01*
X1716800Y111734D01*
Y114216D01*
X1716758Y114396D01*
X1716716Y114563D01*
X1716689Y114701D01*
X1716675Y114812D01*
X1716647Y114896D01*
Y114965D01*
X1716633Y115007D01*
Y115020D01*
X1716494D01*
X1716314Y115007D01*
X1716134Y114993D01*
X1716051Y114979D01*
X1715995D01*
X1715954Y114965D01*
X1715940D01*
X1715815Y114937D01*
X1715704Y114909D01*
X1715607Y114896D01*
X1715538Y114882D01*
X1715482Y114868D01*
X1715441Y114854D01*
X1715399D01*
X1715371Y114868D01*
X1715302Y114882D01*
X1715233Y114896D01*
X1715219Y114909D01*
X1715205D01*
X1715135Y114923D01*
X1715080Y114937D01*
X1715038D01*
X1715011Y114951D01*
X1714983D01*
X1714761Y114965D01*
X1714525Y114979D01*
X1714290Y115007D01*
X1714068Y115034D01*
X1713873Y115062D01*
X1713721Y115090D01*
X1713665Y115104D01*
X1713624Y115117D01*
X1713582D01*
X1713319Y115159D01*
X1713097Y115201D01*
X1712903Y115242D01*
X1712736Y115270D01*
X1712584Y115298D01*
X1712459Y115312D01*
X1712362Y115339D01*
X1712278Y115353D01*
X1712209D01*
X1712168Y115367D01*
X1712098Y115381D01*
X1712043D01*
X1711973Y115409D01*
X1711904Y115423D01*
X1711807Y115450D01*
X1711724Y115478D01*
X1711641Y115492D01*
X1711585Y115520D01*
X1711571D01*
X1711405Y115561D01*
X1711280Y115603D01*
X1711197Y115631D01*
X1711127Y115644D01*
X1711086Y115658D01*
D02*
G37*
%LPD*%
G36*
X433598Y252993D02*
X433692Y252964D01*
X433779Y252918D01*
X433855Y252855D01*
X433918Y252779D01*
X433964Y252692D01*
X433993Y252598D01*
X434002Y252500D01*
Y236000D01*
X433993Y235902D01*
X433964Y235808D01*
X433918Y235721D01*
X433855Y235645D01*
X433779Y235582D01*
X433692Y235536D01*
X433598Y235507D01*
X433500Y235498D01*
X360500D01*
X360402Y235507D01*
X360308Y235536D01*
X360221Y235582D01*
X360145Y235645D01*
X360082Y235721D01*
X360036Y235808D01*
X360007Y235902D01*
X359998Y236000D01*
Y252500D01*
X360007Y252598D01*
X360036Y252692D01*
X360082Y252779D01*
X360145Y252855D01*
X360221Y252918D01*
X360308Y252964D01*
X360402Y252993D01*
X360500Y253002D01*
X372000D01*
X372032Y252999D01*
X372063Y252998D01*
X372080Y252994D01*
X372098Y252993D01*
X372128Y252984D01*
X372159Y252977D01*
X372175Y252969D01*
X372192Y252964D01*
X372220Y252949D01*
X372249Y252936D01*
X372263Y252926D01*
X372279Y252918D01*
X372304Y252898D01*
X372329Y252880D01*
X372341Y252867D01*
X372355Y252855D01*
X372375Y252831D01*
X372397Y252808D01*
X372407Y252793D01*
X372418Y252779D01*
X372433Y252752D01*
X372449Y252725D01*
X374429Y248765D01*
X375897Y246808D01*
X377863Y244351D01*
X381295Y241409D01*
X383742Y239941D01*
X385693Y238965D01*
X391604Y236995D01*
X396998Y236505D01*
X401926Y236998D01*
X404390Y237490D01*
X406325Y237974D01*
X409263Y239443D01*
X412709Y241413D01*
X416141Y244354D01*
X418597Y247301D01*
X419565Y248753D01*
X421551Y252725D01*
X421567Y252752D01*
X421582Y252779D01*
X421594Y252793D01*
X421603Y252808D01*
X421625Y252831D01*
X421645Y252855D01*
X421659Y252867D01*
X421671Y252880D01*
X421696Y252898D01*
X421721Y252918D01*
X421737Y252926D01*
X421751Y252936D01*
X421780Y252949D01*
X421808Y252964D01*
X421825Y252969D01*
X421841Y252977D01*
X421872Y252984D01*
X421902Y252993D01*
X421920Y252994D01*
X421937Y252998D01*
X421968Y252999D01*
X422000Y253002D01*
X433500D01*
X433598Y252993D01*
D02*
G37*
G36*
Y290493D02*
X433692Y290464D01*
X433779Y290418D01*
X433855Y290355D01*
X433918Y290279D01*
X433964Y290192D01*
X433993Y290098D01*
X434002Y290000D01*
Y273500D01*
X433993Y273402D01*
X433964Y273308D01*
X433918Y273221D01*
X433855Y273145D01*
X433779Y273082D01*
X433692Y273036D01*
X433598Y273007D01*
X433500Y272998D01*
X422000D01*
X421968Y273001D01*
X421937Y273001D01*
X421920Y273006D01*
X421902Y273007D01*
X421872Y273016D01*
X421841Y273023D01*
X421825Y273031D01*
X421808Y273036D01*
X421780Y273051D01*
X421751Y273064D01*
X421737Y273074D01*
X421721Y273082D01*
X421696Y273102D01*
X421671Y273120D01*
X421659Y273133D01*
X421645Y273145D01*
X421625Y273169D01*
X421603Y273192D01*
X421594Y273207D01*
X421582Y273221D01*
X421567Y273248D01*
X421551Y273275D01*
X420065Y276247D01*
X418099Y279196D01*
X415154Y282631D01*
X411235Y285571D01*
X406325Y288026D01*
X402416Y289003D01*
X397002Y289495D01*
X392086Y289004D01*
X390122Y288513D01*
X388155Y288021D01*
X385706Y287041D01*
X383742Y286059D01*
X381287Y284587D01*
X378836Y282625D01*
X378375Y282164D01*
X376401Y279697D01*
X373932Y276240D01*
X372449Y273275D01*
X372433Y273248D01*
X372418Y273221D01*
X372407Y273207D01*
X372397Y273192D01*
X372375Y273169D01*
X372355Y273145D01*
X372341Y273133D01*
X372329Y273120D01*
X372304Y273102D01*
X372279Y273082D01*
X372263Y273074D01*
X372249Y273064D01*
X372220Y273051D01*
X372192Y273036D01*
X372175Y273031D01*
X372159Y273023D01*
X372128Y273016D01*
X372098Y273007D01*
X372080Y273006D01*
X372063Y273001D01*
X372032Y273001D01*
X372000Y272998D01*
X360500D01*
X360402Y273007D01*
X360308Y273036D01*
X360221Y273082D01*
X360145Y273145D01*
X360082Y273221D01*
X360036Y273308D01*
X360007Y273402D01*
X359998Y273500D01*
Y290000D01*
X360007Y290098D01*
X360036Y290192D01*
X360082Y290279D01*
X360145Y290355D01*
X360221Y290418D01*
X360308Y290464D01*
X360402Y290493D01*
X360500Y290502D01*
X433500D01*
X433598Y290493D01*
D02*
G37*
D50*
X1000001Y80000D02*
D03*
X1200001D02*
D03*
D51*
X965000D02*
D03*
X930001D02*
D03*
X1165000D02*
D03*
X1130001D02*
D03*
D52*
X755400Y159200D02*
D03*
X741550Y130800D02*
D03*
X727700Y159200D02*
D03*
X713850Y130800D02*
D03*
X700000Y159200D02*
D03*
X686150Y130800D02*
D03*
X672300Y159200D02*
D03*
X658450Y130800D02*
D03*
D53*
X644600Y159200D02*
D03*
D54*
X575050Y145000D02*
D03*
X824950D02*
D03*
D55*
X1057000Y22300D02*
D03*
D56*
Y47700D02*
D03*
D57*
X1268000Y342000D02*
D03*
Y1118000D02*
D03*
X132000D02*
D03*
Y342000D02*
D03*
X32000Y32000D02*
D03*
X1818000D02*
D03*
Y1218000D02*
D03*
X32000D02*
D03*
D58*
X586201Y704000D02*
D03*
X819799D02*
D03*
D59*
X605500Y728900D02*
D03*
X610501D02*
D03*
X615499D02*
D03*
X620501D02*
D03*
X625499D02*
D03*
X630501D02*
D03*
X635499D02*
D03*
X640501D02*
D03*
X645499D02*
D03*
X650501D02*
D03*
X655499D02*
D03*
X660501D02*
D03*
X665499D02*
D03*
X670501D02*
D03*
X675499D02*
D03*
X680501D02*
D03*
X685499D02*
D03*
X690501D02*
D03*
X695499D02*
D03*
X700501D02*
D03*
X705499D02*
D03*
X710501D02*
D03*
X715499D02*
D03*
X720501D02*
D03*
X725499D02*
D03*
X730501D02*
D03*
X735499D02*
D03*
X740501D02*
D03*
X745499D02*
D03*
X750500D02*
D03*
X755499D02*
D03*
X760500D02*
D03*
X765499D02*
D03*
X770500D02*
D03*
X775499D02*
D03*
X780500D02*
D03*
X785499D02*
D03*
X790500D02*
D03*
X795499D02*
D03*
X800500D02*
D03*
X1502500Y584900D02*
D03*
X1497500D02*
D03*
X1492500D02*
D03*
X1487500D02*
D03*
X1482500D02*
D03*
X1477500D02*
D03*
X1472500D02*
D03*
X1467500D02*
D03*
X1462500D02*
D03*
X1457500D02*
D03*
D60*
X913200Y992500D02*
D03*
X925900D02*
D03*
X938600D02*
D03*
X951300D02*
D03*
X964000D02*
D03*
X976700D02*
D03*
X989400D02*
D03*
X1002100D02*
D03*
X1014800D02*
D03*
X913200Y901500D02*
D03*
X925900D02*
D03*
X938600D02*
D03*
X951300D02*
D03*
X964000D02*
D03*
X976700D02*
D03*
X989400D02*
D03*
X1002100D02*
D03*
X1014800D02*
D03*
D61*
X410000Y180000D02*
D03*
Y110000D02*
D03*
D62*
X575000Y202998D02*
D03*
Y188998D02*
D03*
X951000Y1016998D02*
D03*
Y1030998D02*
D03*
X938000Y1016998D02*
D03*
Y1030998D02*
D03*
X977000Y1016998D02*
D03*
Y1030998D02*
D03*
X990000Y1016998D02*
D03*
Y1030998D02*
D03*
X1050000Y1010000D02*
D03*
Y1024000D02*
D03*
X1050000Y983998D02*
D03*
Y997998D02*
D03*
X1037000Y983998D02*
D03*
Y997998D02*
D03*
Y957998D02*
D03*
Y971998D02*
D03*
X317000Y252998D02*
D03*
Y266998D02*
D03*
X304000Y252998D02*
D03*
Y266998D02*
D03*
X334000Y236002D02*
D03*
Y222002D02*
D03*
X670290Y312752D02*
D03*
Y298752D02*
D03*
X683290Y298748D02*
D03*
Y312748D02*
D03*
X709290Y188748D02*
D03*
Y202748D02*
D03*
X696290Y188748D02*
D03*
Y202748D02*
D03*
X683290Y188748D02*
D03*
Y202748D02*
D03*
X670290Y188748D02*
D03*
Y202748D02*
D03*
X735290Y202752D02*
D03*
Y188752D02*
D03*
X722290Y202752D02*
D03*
Y188752D02*
D03*
X952000Y290002D02*
D03*
Y276002D02*
D03*
X965000Y290002D02*
D03*
Y276002D02*
D03*
X1004000Y290002D02*
D03*
Y276002D02*
D03*
X978000Y275998D02*
D03*
Y289998D02*
D03*
X991000Y275998D02*
D03*
Y289998D02*
D03*
X972000Y162998D02*
D03*
Y176998D02*
D03*
X986000Y162998D02*
D03*
Y176998D02*
D03*
X1050000Y86002D02*
D03*
Y72002D02*
D03*
X1065000Y86002D02*
D03*
Y72002D02*
D03*
X1135000Y241002D02*
D03*
Y227002D02*
D03*
X1135000Y275998D02*
D03*
Y289998D02*
D03*
X1203000Y275998D02*
D03*
Y289998D02*
D03*
Y226998D02*
D03*
Y240998D02*
D03*
X1469000Y607998D02*
D03*
Y621998D02*
D03*
X1456000Y607998D02*
D03*
Y621998D02*
D03*
X1515000Y622002D02*
D03*
Y608002D02*
D03*
X848000Y909998D02*
D03*
Y923998D02*
D03*
X945000Y208002D02*
D03*
Y194002D02*
D03*
X709000Y298998D02*
D03*
Y312998D02*
D03*
X734000Y298998D02*
D03*
Y312998D02*
D03*
X654000Y225998D02*
D03*
Y239998D02*
D03*
X997000Y450000D02*
D03*
Y436000D02*
D03*
X964000Y1016998D02*
D03*
Y1030998D02*
D03*
D63*
X1103302Y400400D02*
D03*
Y348400D02*
D03*
X1077902D02*
D03*
X1052502D02*
D03*
X1077902Y400400D02*
D03*
X1052502D02*
D03*
X1027102D02*
D03*
X1001702D02*
D03*
X976302D02*
D03*
X950902D02*
D03*
X925502D02*
D03*
X900102D02*
D03*
X874702D02*
D03*
X849302D02*
D03*
X823902D02*
D03*
X798502D02*
D03*
X773102D02*
D03*
X747702D02*
D03*
X722302D02*
D03*
X696902D02*
D03*
X671502D02*
D03*
X1027102Y348400D02*
D03*
X1001702D02*
D03*
X976302D02*
D03*
X950902D02*
D03*
X925502D02*
D03*
X900102D02*
D03*
X874702D02*
D03*
X849302D02*
D03*
X823902D02*
D03*
X798502D02*
D03*
X773102D02*
D03*
X747702D02*
D03*
X722302D02*
D03*
X696902D02*
D03*
X671502D02*
D03*
X468302Y400400D02*
D03*
X493702D02*
D03*
X519102D02*
D03*
X544502D02*
D03*
Y348400D02*
D03*
X519102D02*
D03*
X493702D02*
D03*
X569902Y400400D02*
D03*
X595302D02*
D03*
X620702D02*
D03*
X646102D02*
D03*
X569902Y348400D02*
D03*
X595302D02*
D03*
X620702D02*
D03*
X646102D02*
D03*
X1103299Y1111600D02*
D03*
Y1059600D02*
D03*
X1077899D02*
D03*
X1052499D02*
D03*
X1077899Y1111600D02*
D03*
X1052499D02*
D03*
X1027099D02*
D03*
X1001699D02*
D03*
X976299D02*
D03*
X950899D02*
D03*
X925499D02*
D03*
X900099D02*
D03*
X874699D02*
D03*
X849299D02*
D03*
X823899D02*
D03*
X798499D02*
D03*
X773099D02*
D03*
X747699D02*
D03*
X722299D02*
D03*
X696899D02*
D03*
X671499D02*
D03*
X1027099Y1059600D02*
D03*
X1001699D02*
D03*
X976299D02*
D03*
X950899D02*
D03*
X925499D02*
D03*
X900099D02*
D03*
X874699D02*
D03*
X849299D02*
D03*
X823899D02*
D03*
X798499D02*
D03*
X773099D02*
D03*
X747699D02*
D03*
X722299D02*
D03*
X696899D02*
D03*
X671499D02*
D03*
X468299Y1111600D02*
D03*
X493699D02*
D03*
X519099D02*
D03*
X544499D02*
D03*
Y1059600D02*
D03*
X519099D02*
D03*
X493699D02*
D03*
X569899Y1111600D02*
D03*
X595299D02*
D03*
X620699D02*
D03*
X646099D02*
D03*
X569899Y1059600D02*
D03*
X595299D02*
D03*
X620699D02*
D03*
X646099D02*
D03*
D64*
X468302Y348400D02*
D03*
X468299Y1059600D02*
D03*
D65*
X353401Y1047602D02*
D03*
X405401D02*
D03*
Y1022202D02*
D03*
Y996802D02*
D03*
X353401Y1022202D02*
D03*
Y996802D02*
D03*
Y971402D02*
D03*
Y946002D02*
D03*
Y920602D02*
D03*
Y895202D02*
D03*
Y869802D02*
D03*
Y844402D02*
D03*
Y819002D02*
D03*
Y793602D02*
D03*
Y768202D02*
D03*
Y742802D02*
D03*
Y717402D02*
D03*
Y692002D02*
D03*
Y666602D02*
D03*
Y641202D02*
D03*
Y615802D02*
D03*
X405401Y971402D02*
D03*
Y946002D02*
D03*
Y920602D02*
D03*
Y895202D02*
D03*
Y869802D02*
D03*
Y844402D02*
D03*
Y819002D02*
D03*
Y793602D02*
D03*
Y768202D02*
D03*
Y742802D02*
D03*
Y717402D02*
D03*
Y692002D02*
D03*
Y666602D02*
D03*
Y641202D02*
D03*
Y615802D02*
D03*
X353401Y412602D02*
D03*
Y438002D02*
D03*
Y463402D02*
D03*
Y488802D02*
D03*
X405401D02*
D03*
Y463402D02*
D03*
Y438002D02*
D03*
X353401Y514202D02*
D03*
Y539602D02*
D03*
Y565002D02*
D03*
Y590402D02*
D03*
X405401Y514202D02*
D03*
Y539602D02*
D03*
Y565002D02*
D03*
Y590402D02*
D03*
D66*
Y412602D02*
D03*
D67*
X677000Y806000D02*
D03*
Y888000D02*
D03*
D68*
X653000Y832000D02*
D03*
Y842000D02*
D03*
Y852000D02*
D03*
Y862000D02*
D03*
D69*
X1521800Y565100D02*
D03*
X1438200D02*
D03*
D70*
X1084500Y1008625D02*
D03*
X1065500D02*
D03*
D71*
X1075000Y1029375D02*
D03*
D72*
X882001Y914002D02*
D03*
X865999D02*
D03*
X882001Y935998D02*
D03*
X865999D02*
D03*
D73*
X597998Y842000D02*
D03*
X611998D02*
D03*
X597998Y829000D02*
D03*
X611998D02*
D03*
X597998Y869000D02*
D03*
X611998D02*
D03*
X597998Y882000D02*
D03*
X611998D02*
D03*
X557998Y869000D02*
D03*
X571998D02*
D03*
X557998Y842000D02*
D03*
X571998D02*
D03*
X557998Y829000D02*
D03*
X571998D02*
D03*
X557998Y882000D02*
D03*
X571998D02*
D03*
X606998Y750000D02*
D03*
X620998D02*
D03*
X350002Y288000D02*
D03*
X336002D02*
D03*
X350002Y301000D02*
D03*
X336002D02*
D03*
X307998Y288000D02*
D03*
X321998D02*
D03*
X1250002Y89000D02*
D03*
X1236002D02*
D03*
X1250002Y63000D02*
D03*
X1236002D02*
D03*
X1250002Y76000D02*
D03*
X1236002D02*
D03*
X1176002Y308000D02*
D03*
X1162002D02*
D03*
X867998Y954000D02*
D03*
X881998D02*
D03*
X322002Y301000D02*
D03*
X308002D02*
D03*
X307998Y327000D02*
D03*
X321998D02*
D03*
X322002Y314000D02*
D03*
X308002D02*
D03*
D74*
X341000Y263000D02*
D03*
D75*
X332250Y270500D02*
D03*
Y265500D02*
D03*
Y260500D02*
D03*
Y255500D02*
D03*
X349750D02*
D03*
Y260500D02*
D03*
Y265500D02*
D03*
Y270500D02*
D03*
D76*
X311000Y239500D02*
D03*
Y212500D02*
D03*
D77*
X998050Y203500D02*
D03*
X985350D02*
D03*
X972650D02*
D03*
X959950D02*
D03*
X998050Y252500D02*
D03*
X985350D02*
D03*
X972650D02*
D03*
X959950D02*
D03*
X1188050Y235500D02*
D03*
X1175350D02*
D03*
X1162650D02*
D03*
X1149950D02*
D03*
X1188050Y284500D02*
D03*
X1175350D02*
D03*
X1162650D02*
D03*
X1149950D02*
D03*
X1049046Y445503D02*
D03*
X1036346D02*
D03*
X1023646D02*
D03*
X1010946D02*
D03*
X1049046Y494502D02*
D03*
X1036346D02*
D03*
X1023646D02*
D03*
X1010946D02*
D03*
D78*
X956505Y133000D02*
D03*
X1003495D02*
D03*
D79*
X1156300Y200500D02*
D03*
X1181700D02*
D03*
X1156300Y125500D02*
D03*
X1181700D02*
D03*
D80*
X1111000Y180495D02*
D03*
Y133505D02*
D03*
X1227000Y180495D02*
D03*
Y133505D02*
D03*
X1046000D02*
D03*
Y180495D02*
D03*
X911000Y133505D02*
D03*
Y180495D02*
D03*
D81*
X397000Y231250D02*
D03*
Y294750D02*
D03*
D82*
X670550Y278500D02*
D03*
X683250D02*
D03*
X695950D02*
D03*
X708650D02*
D03*
X721350D02*
D03*
X734050D02*
D03*
X746750D02*
D03*
X759450D02*
D03*
X670550Y231500D02*
D03*
X683250D02*
D03*
X695950D02*
D03*
X708650D02*
D03*
X721350D02*
D03*
X734050D02*
D03*
X746750D02*
D03*
X759450D02*
D03*
M02*
