G04*
G04 #@! TF.GenerationSoftware,Altium Limited,Altium Designer,20.0.7 (75)*
G04*
G04 Layer_Color=8388736*
%FSLAX44Y44*%
%MOMM*%
G71*
G01*
G75*
%ADD12C,0.3283*%
%ADD13C,0.4103*%
%ADD14C,1.6000*%
%ADD15R,1.6000X1.6000*%
%ADD16R,1.6000X1.6000*%
%ADD17C,2.0000*%
%ADD18R,2.0000X2.0000*%
%ADD19C,6.1000*%
%ADD20C,1.7900*%
%ADD21R,1.7900X1.7900*%
%ADD22C,4.8600*%
G36*
X976492Y-384056D02*
X976615D01*
X976753D01*
X976907Y-384071D01*
X977076Y-384087D01*
X977260Y-384102D01*
X977660Y-384164D01*
X978105Y-384225D01*
X978597Y-384317D01*
X979104Y-384440D01*
X979626Y-384594D01*
X980164Y-384763D01*
X980702Y-384993D01*
X981225Y-385239D01*
X981732Y-385547D01*
X982208Y-385885D01*
X982638Y-386284D01*
X982654Y-386300D01*
X982715Y-386361D01*
X982807Y-386469D01*
X982915Y-386607D01*
X983053Y-386776D01*
X983207Y-386991D01*
X983376Y-387237D01*
X983530Y-387514D01*
X983699Y-387821D01*
X983868Y-388144D01*
X984021Y-388512D01*
X984160Y-388897D01*
X984267Y-389311D01*
X984360Y-389757D01*
X984421Y-390218D01*
X984436Y-390695D01*
Y-394890D01*
X968900D01*
Y-390602D01*
X968916Y-390479D01*
X968931Y-390295D01*
X968946Y-390065D01*
X968992Y-389803D01*
X969039Y-389511D01*
X969115Y-389189D01*
X969208Y-388851D01*
X969315Y-388497D01*
X969454Y-388128D01*
X969622Y-387744D01*
X969822Y-387375D01*
X970053Y-386991D01*
X970314Y-386622D01*
X970621Y-386269D01*
X970652Y-386238D01*
X970714Y-386177D01*
X970836Y-386069D01*
X970990Y-385915D01*
X971205Y-385746D01*
X971451Y-385562D01*
X971743Y-385362D01*
X972081Y-385147D01*
X972465Y-384947D01*
X972880Y-384748D01*
X973341Y-384563D01*
X973833Y-384394D01*
X974371Y-384240D01*
X974955Y-384133D01*
X975570Y-384071D01*
X976215Y-384041D01*
X976230D01*
X976261D01*
X976322D01*
X976399D01*
X976492Y-384056D01*
D02*
G37*
G36*
X1026107Y-384594D02*
X1026199D01*
X1026322Y-384609D01*
X1026460Y-384625D01*
X1026614Y-384655D01*
X1026952Y-384732D01*
X1027321Y-384840D01*
X1027736Y-384993D01*
X1028151Y-385193D01*
X1028366Y-385331D01*
X1028566Y-385470D01*
X1028781Y-385624D01*
X1028980Y-385793D01*
X1029165Y-385992D01*
X1029349Y-386192D01*
X1029534Y-386423D01*
X1029687Y-386684D01*
X1029841Y-386945D01*
X1029979Y-387252D01*
X1030102Y-387575D01*
X1030194Y-387913D01*
X1030287Y-388282D01*
X1030348Y-388681D01*
X1030379Y-389112D01*
X1030394Y-389557D01*
Y-394890D01*
X1014827D01*
Y-389542D01*
X1014843Y-389373D01*
X1014858Y-389173D01*
X1014889Y-388958D01*
X1014935Y-388712D01*
X1014981Y-388436D01*
X1015043Y-388144D01*
X1015119Y-387852D01*
X1015227Y-387544D01*
X1015334Y-387237D01*
X1015473Y-386945D01*
X1015642Y-386638D01*
X1015826Y-386361D01*
X1016041Y-386100D01*
X1016057Y-386085D01*
X1016103Y-386038D01*
X1016164Y-385977D01*
X1016257Y-385900D01*
X1016379Y-385793D01*
X1016533Y-385685D01*
X1016702Y-385562D01*
X1016902Y-385439D01*
X1017117Y-385316D01*
X1017363Y-385193D01*
X1017624Y-385086D01*
X1017916Y-384978D01*
X1018223Y-384901D01*
X1018546Y-384840D01*
X1018900Y-384794D01*
X1019268Y-384778D01*
X1019284D01*
X1019361D01*
X1019453Y-384794D01*
X1019591Y-384809D01*
X1019776Y-384824D01*
X1019960Y-384855D01*
X1020175Y-384901D01*
X1020421Y-384978D01*
X1020667Y-385055D01*
X1020928Y-385163D01*
X1021189Y-385285D01*
X1021466Y-385439D01*
X1021727Y-385608D01*
X1021989Y-385823D01*
X1022234Y-386054D01*
X1022465Y-386330D01*
X1022480Y-386315D01*
X1022511Y-386254D01*
X1022557Y-386161D01*
X1022649Y-386054D01*
X1022741Y-385931D01*
X1022880Y-385777D01*
X1023033Y-385624D01*
X1023233Y-385454D01*
X1023448Y-385285D01*
X1023694Y-385132D01*
X1023971Y-384978D01*
X1024294Y-384855D01*
X1024647Y-384732D01*
X1025031Y-384655D01*
X1025446Y-384594D01*
X1025907Y-384579D01*
X1025922D01*
X1025953D01*
X1026015D01*
X1026107Y-384594D01*
D02*
G37*
%LPC*%
G36*
X976215Y-386300D02*
X976184D01*
X976107D01*
X975984Y-386315D01*
X975815D01*
X975600Y-386346D01*
X975370Y-386376D01*
X975108Y-386423D01*
X974817Y-386484D01*
X974525Y-386561D01*
X974217Y-386653D01*
X973895Y-386776D01*
X973572Y-386914D01*
X973264Y-387083D01*
X972957Y-387283D01*
X972665Y-387514D01*
X972404Y-387775D01*
X972389Y-387790D01*
X972358Y-387836D01*
X972296Y-387898D01*
X972219Y-387990D01*
X972127Y-388113D01*
X972035Y-388267D01*
X971928Y-388436D01*
X971820Y-388620D01*
X971712Y-388820D01*
X971605Y-389050D01*
X971513Y-389296D01*
X971421Y-389557D01*
X971344Y-389819D01*
X971282Y-390111D01*
X971251Y-390418D01*
X971236Y-390725D01*
Y-392631D01*
X982116D01*
Y-390526D01*
X982101Y-390403D01*
X982085Y-390264D01*
X982054Y-390095D01*
X982024Y-389896D01*
X981978Y-389696D01*
X981855Y-389235D01*
X981778Y-389004D01*
X981670Y-388758D01*
X981547Y-388512D01*
X981409Y-388282D01*
X981255Y-388036D01*
X981071Y-387821D01*
X981056Y-387806D01*
X980979Y-387760D01*
X980887Y-387683D01*
X980733Y-387575D01*
X980548Y-387467D01*
X980333Y-387345D01*
X980072Y-387206D01*
X979780Y-387053D01*
X979442Y-386914D01*
X979089Y-386776D01*
X978689Y-386653D01*
X978243Y-386530D01*
X977782Y-386438D01*
X977291Y-386361D01*
X976768Y-386315D01*
X976215Y-386300D01*
D02*
G37*
G36*
X1026091Y-386838D02*
X1025892D01*
X1025861D01*
X1025799D01*
X1025676Y-386853D01*
X1025538Y-386884D01*
X1025369Y-386930D01*
X1025169Y-386991D01*
X1024970Y-387068D01*
X1024754Y-387191D01*
X1024539Y-387345D01*
X1024340Y-387529D01*
X1024140Y-387760D01*
X1023971Y-388036D01*
X1023832Y-388359D01*
X1023710Y-388743D01*
X1023679Y-388958D01*
X1023648Y-389173D01*
X1023617Y-389419D01*
Y-392631D01*
X1028074D01*
Y-389435D01*
X1028058Y-389311D01*
X1028043Y-389127D01*
X1028012Y-388927D01*
X1027951Y-388697D01*
X1027889Y-388451D01*
X1027797Y-388190D01*
X1027690Y-387944D01*
X1027536Y-387698D01*
X1027367Y-387467D01*
X1027152Y-387268D01*
X1026906Y-387083D01*
X1026614Y-386960D01*
X1026276Y-386868D01*
X1026091Y-386838D01*
D02*
G37*
G36*
X1019238Y-387037D02*
X1019222D01*
X1019192D01*
X1019146D01*
X1019069Y-387053D01*
X1018900Y-387068D01*
X1018669Y-387129D01*
X1018423Y-387206D01*
X1018162Y-387345D01*
X1017916Y-387514D01*
X1017809Y-387636D01*
X1017701Y-387760D01*
Y-387775D01*
X1017670Y-387790D01*
X1017655Y-387836D01*
X1017609Y-387898D01*
X1017578Y-387959D01*
X1017532Y-388051D01*
X1017471Y-388159D01*
X1017424Y-388282D01*
X1017317Y-388559D01*
X1017240Y-388912D01*
X1017179Y-389311D01*
X1017148Y-389757D01*
Y-392631D01*
X1021297D01*
Y-389435D01*
X1021282Y-389311D01*
X1021266Y-389142D01*
X1021236Y-388958D01*
X1021189Y-388743D01*
X1021128Y-388528D01*
X1021036Y-388282D01*
X1020928Y-388051D01*
X1020790Y-387836D01*
X1020621Y-387621D01*
X1020421Y-387421D01*
X1020191Y-387268D01*
X1019914Y-387145D01*
X1019607Y-387068D01*
X1019238Y-387037D01*
D02*
G37*
%LPD*%
D12*
X980752Y-362063D02*
G03*
X980752Y-362063I-4103J0D01*
G01*
X1003731Y-366987D02*
G03*
X1003731Y-366987I-4103J0D01*
G01*
X1026710Y-362063D02*
G03*
X1026710Y-362063I-4103J0D01*
G01*
D13*
X994704Y-389966D02*
X1004552D01*
X994704Y-396531D02*
X1004552D01*
X976649Y-378476D02*
Y-366987D01*
X988138Y-399814D02*
Y-378476D01*
X965159Y-399814D02*
X988138D01*
X965159D02*
Y-378476D01*
X988138D01*
X999628Y-383400D02*
Y-371911D01*
X1011117Y-378476D02*
X1034096D01*
X1011117Y-399814D02*
Y-378476D01*
Y-399814D02*
X1034096D01*
Y-378476D01*
X1022607Y-378476D02*
Y-366987D01*
X965159Y-417869D02*
Y-414586D01*
X1034096D01*
X965159Y-417869D02*
X1034096D01*
Y-414586D01*
D14*
X-558299Y-34598D02*
D03*
X-532899D02*
D03*
Y-59998D02*
D03*
X-558299D02*
D03*
X-532899Y-85398D02*
D03*
X-558299D02*
D03*
X-532899Y-110798D02*
D03*
X-558299D02*
D03*
X-532899Y-136198D02*
D03*
X-558299D02*
D03*
X-532899Y-161598D02*
D03*
X-558299D02*
D03*
X-532899Y-186998D02*
D03*
X-558299D02*
D03*
X-532899Y-212398D02*
D03*
Y-9198D02*
D03*
Y16202D02*
D03*
Y41602D02*
D03*
Y67002D02*
D03*
Y92402D02*
D03*
Y117802D02*
D03*
Y143202D02*
D03*
Y168602D02*
D03*
Y194002D02*
D03*
Y219402D02*
D03*
Y244802D02*
D03*
Y270202D02*
D03*
Y295602D02*
D03*
Y321002D02*
D03*
Y346402D02*
D03*
Y371802D02*
D03*
Y397202D02*
D03*
Y422602D02*
D03*
X-558299Y-9198D02*
D03*
Y16202D02*
D03*
Y41602D02*
D03*
Y67002D02*
D03*
Y92402D02*
D03*
Y117802D02*
D03*
Y143202D02*
D03*
Y168602D02*
D03*
Y194002D02*
D03*
Y219402D02*
D03*
Y244802D02*
D03*
Y270202D02*
D03*
Y295602D02*
D03*
Y321002D02*
D03*
Y346402D02*
D03*
Y371802D02*
D03*
Y397202D02*
D03*
Y422602D02*
D03*
X178299Y473300D02*
D03*
X152899D02*
D03*
X127499D02*
D03*
X102099D02*
D03*
X76699D02*
D03*
X51299D02*
D03*
X25899D02*
D03*
X499D02*
D03*
X-24901D02*
D03*
X-50301D02*
D03*
X-75701D02*
D03*
X-101101D02*
D03*
X-126501D02*
D03*
X-151901D02*
D03*
X-177301D02*
D03*
X-202701D02*
D03*
X-228101D02*
D03*
X-253501D02*
D03*
X178299Y447900D02*
D03*
X152899D02*
D03*
X127499D02*
D03*
X102099D02*
D03*
X76699D02*
D03*
X51299D02*
D03*
X25899D02*
D03*
X499D02*
D03*
X-24901D02*
D03*
X-50301D02*
D03*
X-75701D02*
D03*
X-101101D02*
D03*
X-126501D02*
D03*
X-151901D02*
D03*
X-177301D02*
D03*
X-202701D02*
D03*
X-228101D02*
D03*
X-253501D02*
D03*
X-456701D02*
D03*
X-431301Y473300D02*
D03*
Y447900D02*
D03*
X-405901Y473300D02*
D03*
Y447900D02*
D03*
X-380501Y473300D02*
D03*
Y447900D02*
D03*
X-355101Y473300D02*
D03*
Y447900D02*
D03*
X-329701Y473300D02*
D03*
Y447900D02*
D03*
X-304301Y473300D02*
D03*
Y447900D02*
D03*
X-278901D02*
D03*
Y473300D02*
D03*
X178302Y-237900D02*
D03*
X152902D02*
D03*
X127502D02*
D03*
X102102D02*
D03*
X76702D02*
D03*
X51302D02*
D03*
X25902D02*
D03*
X502D02*
D03*
X-24898D02*
D03*
X-50298D02*
D03*
X-75698D02*
D03*
X-101098D02*
D03*
X-126498D02*
D03*
X-151898D02*
D03*
X-177298D02*
D03*
X-202698D02*
D03*
X-228098D02*
D03*
X-253498D02*
D03*
X178302Y-263300D02*
D03*
X152902D02*
D03*
X127502D02*
D03*
X102102D02*
D03*
X76702D02*
D03*
X51302D02*
D03*
X25902D02*
D03*
X502D02*
D03*
X-24898D02*
D03*
X-50298D02*
D03*
X-75698D02*
D03*
X-101098D02*
D03*
X-126498D02*
D03*
X-151898D02*
D03*
X-177298D02*
D03*
X-202698D02*
D03*
X-228098D02*
D03*
X-253498D02*
D03*
X-456698D02*
D03*
X-431298Y-237900D02*
D03*
Y-263300D02*
D03*
X-405898Y-237900D02*
D03*
Y-263300D02*
D03*
X-380498Y-237900D02*
D03*
Y-263300D02*
D03*
X-355098Y-237900D02*
D03*
Y-263300D02*
D03*
X-329698Y-237900D02*
D03*
Y-263300D02*
D03*
X-304298Y-237900D02*
D03*
Y-263300D02*
D03*
X-278898D02*
D03*
Y-237900D02*
D03*
X132000Y-682700D02*
D03*
D15*
X-558299Y-212398D02*
D03*
X132000Y-657300D02*
D03*
D16*
X-456701Y473300D02*
D03*
X-456698Y-237900D02*
D03*
D17*
X205001Y-625000D02*
D03*
X240000D02*
D03*
X40000D02*
D03*
X5001D02*
D03*
D18*
X275001D02*
D03*
X75001D02*
D03*
D19*
X1000000Y-500000D02*
D03*
Y500000D02*
D03*
X-1000000D02*
D03*
X343000Y-283000D02*
D03*
Y493000D02*
D03*
X-793000D02*
D03*
Y-283000D02*
D03*
X-1000000Y-500000D02*
D03*
D20*
X-169600Y-545800D02*
D03*
X-183450Y-574200D02*
D03*
X-197300Y-545800D02*
D03*
X-211150Y-574200D02*
D03*
X-225000Y-545800D02*
D03*
X-238850Y-574200D02*
D03*
X-252700Y-545800D02*
D03*
X-266550Y-574200D02*
D03*
D21*
X-280400Y-545800D02*
D03*
D22*
X-349950Y-560000D02*
D03*
X-100050D02*
D03*
M02*
