G04 Layer_Color=128*
%FSLAX44Y44*%
%MOMM*%
G71*
G01*
G75*
%ADD24R,0.9000X0.8000*%
%ADD25R,1.0160X1.8034*%
%ADD26R,1.0000X1.8000*%
%ADD27R,0.3000X1.2000*%
%ADD28R,2.7000X3.0000*%
%ADD29R,1.8034X1.0160*%
%ADD30R,1.8000X1.0000*%
%ADD31R,2.6000X1.8000*%
%ADD32R,2.2000X0.6000*%
%ADD33R,0.6500X0.9000*%
%ADD34R,0.6500X1.1000*%
%ADD35O,0.6000X2.3000*%
%ADD36R,1.1498X1.3995*%
%ADD37R,0.8000X0.9000*%
%ADD38R,0.5600X2.1500*%
G04:AMPARAMS|DCode=39|XSize=0.25mm|YSize=0.7mm|CornerRadius=0.0625mm|HoleSize=0mm|Usage=FLASHONLY|Rotation=270.000|XOffset=0mm|YOffset=0mm|HoleType=Round|Shape=RoundedRectangle|*
%AMROUNDEDRECTD39*
21,1,0.2500,0.5750,0,0,270.0*
21,1,0.1250,0.7000,0,0,270.0*
1,1,0.1250,-0.2875,-0.0625*
1,1,0.1250,-0.2875,0.0625*
1,1,0.1250,0.2875,0.0625*
1,1,0.1250,0.2875,-0.0625*
%
%ADD39ROUNDEDRECTD39*%
%ADD40R,2.6000X1.1000*%
%ADD41O,0.7000X2.5000*%
%ADD42R,2.6162X2.7432*%
%ADD43R,1.2000X2.0000*%
%ADD44R,2.7432X2.6162*%
%ADD45R,7.3000X0.9500*%
%ADD47O,0.6000X1.9000*%
G36*
X433500Y236000D02*
X397000D01*
X402000Y236500D01*
X404500Y237000D01*
X406500Y237500D01*
X409500Y239000D01*
X413000Y241000D01*
X416500Y244000D01*
X419000Y247000D01*
X420000Y248500D01*
X422000Y252500D01*
X433500D01*
Y236000D01*
D02*
G37*
G36*
X374000Y248500D02*
X375500Y246500D01*
X377500Y244000D01*
X381000Y241000D01*
X383500Y239500D01*
X385500Y238500D01*
X391500Y236500D01*
X397000Y236000D01*
X360500D01*
Y252500D01*
X372000D01*
X374000Y248500D01*
D02*
G37*
G36*
X433500Y273500D02*
X422000D01*
X420500Y276500D01*
X418500Y279500D01*
X415500Y283000D01*
X411500Y286000D01*
X406500Y288500D01*
X402500Y289500D01*
X397000Y290000D01*
X433500D01*
Y273500D01*
D02*
G37*
G36*
X392000Y289500D02*
X390000Y289000D01*
X388000Y288500D01*
X385500Y287500D01*
X383500Y286500D01*
X381000Y285000D01*
X378500Y283000D01*
X378000Y282500D01*
X376000Y280000D01*
X373500Y276500D01*
X372000Y273500D01*
X360500D01*
Y290000D01*
X397000D01*
X392000Y289500D01*
D02*
G37*
D24*
X575000Y202998D02*
D03*
Y188998D02*
D03*
X951000Y1009998D02*
D03*
Y1023998D02*
D03*
X938000Y1009998D02*
D03*
Y1023998D02*
D03*
X977000Y1009998D02*
D03*
Y1023998D02*
D03*
X990000Y1009998D02*
D03*
Y1023998D02*
D03*
X1050000Y1010000D02*
D03*
Y1024000D02*
D03*
X1050000Y983998D02*
D03*
Y997998D02*
D03*
X1037000Y983998D02*
D03*
Y997998D02*
D03*
Y957998D02*
D03*
Y971998D02*
D03*
X317000Y252998D02*
D03*
Y266998D02*
D03*
X304000Y252998D02*
D03*
Y266998D02*
D03*
X334000Y236002D02*
D03*
Y222002D02*
D03*
X670290Y312752D02*
D03*
Y298752D02*
D03*
X683290Y298748D02*
D03*
Y312748D02*
D03*
X709290Y188748D02*
D03*
Y202748D02*
D03*
X696290Y188748D02*
D03*
Y202748D02*
D03*
X683290Y188748D02*
D03*
Y202748D02*
D03*
X670290Y188748D02*
D03*
Y202748D02*
D03*
X735290Y202752D02*
D03*
Y188752D02*
D03*
X722290Y202752D02*
D03*
Y188752D02*
D03*
X952000Y290002D02*
D03*
Y276002D02*
D03*
X965000Y290002D02*
D03*
Y276002D02*
D03*
X1004000Y290002D02*
D03*
Y276002D02*
D03*
X978000Y275998D02*
D03*
Y289998D02*
D03*
X991000Y275998D02*
D03*
Y289998D02*
D03*
X972000Y162998D02*
D03*
Y176998D02*
D03*
X986000Y162998D02*
D03*
Y176998D02*
D03*
X1050000Y86002D02*
D03*
Y72002D02*
D03*
X1065000Y86002D02*
D03*
Y72002D02*
D03*
X1135000Y241002D02*
D03*
Y227002D02*
D03*
X1135000Y275998D02*
D03*
Y289998D02*
D03*
X1203000Y275998D02*
D03*
Y289998D02*
D03*
Y226998D02*
D03*
Y240998D02*
D03*
X1469000Y607998D02*
D03*
Y621998D02*
D03*
X1456000Y607998D02*
D03*
Y621998D02*
D03*
X1515000Y622002D02*
D03*
Y608002D02*
D03*
X848000Y909998D02*
D03*
Y923998D02*
D03*
X945000Y208002D02*
D03*
Y194002D02*
D03*
X709000Y298998D02*
D03*
Y312998D02*
D03*
X734000Y298998D02*
D03*
Y312998D02*
D03*
X654000Y225998D02*
D03*
Y239998D02*
D03*
X997000Y450000D02*
D03*
Y436000D02*
D03*
X964000Y1009998D02*
D03*
Y1023998D02*
D03*
D25*
X1103302Y400400D02*
D03*
Y348400D02*
D03*
X1077902D02*
D03*
X1052502D02*
D03*
X1077902Y400400D02*
D03*
X1052502D02*
D03*
X1027102D02*
D03*
X1001702D02*
D03*
X976302D02*
D03*
X950902D02*
D03*
X925502D02*
D03*
X900102D02*
D03*
X874702D02*
D03*
X849302D02*
D03*
X823902D02*
D03*
X798502D02*
D03*
X773102D02*
D03*
X747702D02*
D03*
X722302D02*
D03*
X696902D02*
D03*
X671502D02*
D03*
X1027102Y348400D02*
D03*
X1001702D02*
D03*
X976302D02*
D03*
X950902D02*
D03*
X925502D02*
D03*
X900102D02*
D03*
X874702D02*
D03*
X849302D02*
D03*
X823902D02*
D03*
X798502D02*
D03*
X773102D02*
D03*
X747702D02*
D03*
X722302D02*
D03*
X696902D02*
D03*
X671502D02*
D03*
X468302Y400400D02*
D03*
X493702D02*
D03*
X519102D02*
D03*
X544502D02*
D03*
Y348400D02*
D03*
X519102D02*
D03*
X493702D02*
D03*
X569902Y400400D02*
D03*
X595302D02*
D03*
X620702D02*
D03*
X646102D02*
D03*
X569902Y348400D02*
D03*
X595302D02*
D03*
X620702D02*
D03*
X646102D02*
D03*
X1103299Y1111600D02*
D03*
Y1059600D02*
D03*
X1077899D02*
D03*
X1052499D02*
D03*
X1077899Y1111600D02*
D03*
X1052499D02*
D03*
X1027099D02*
D03*
X1001699D02*
D03*
X976299D02*
D03*
X950899D02*
D03*
X925499D02*
D03*
X900099D02*
D03*
X874699D02*
D03*
X849299D02*
D03*
X823899D02*
D03*
X798499D02*
D03*
X773099D02*
D03*
X747699D02*
D03*
X722299D02*
D03*
X696899D02*
D03*
X671499D02*
D03*
X1027099Y1059600D02*
D03*
X1001699D02*
D03*
X976299D02*
D03*
X950899D02*
D03*
X925499D02*
D03*
X900099D02*
D03*
X874699D02*
D03*
X849299D02*
D03*
X823899D02*
D03*
X798499D02*
D03*
X773099D02*
D03*
X747699D02*
D03*
X722299D02*
D03*
X696899D02*
D03*
X671499D02*
D03*
X468299Y1111600D02*
D03*
X493699D02*
D03*
X519099D02*
D03*
X544499D02*
D03*
Y1059600D02*
D03*
X519099D02*
D03*
X493699D02*
D03*
X569899Y1111600D02*
D03*
X595299D02*
D03*
X620699D02*
D03*
X646099D02*
D03*
X569899Y1059600D02*
D03*
X595299D02*
D03*
X620699D02*
D03*
X646099D02*
D03*
D26*
X468302Y348400D02*
D03*
X468299Y1059600D02*
D03*
D27*
X800500Y728900D02*
D03*
X795499D02*
D03*
X790500D02*
D03*
X785499D02*
D03*
X780500D02*
D03*
X775499D02*
D03*
X770500D02*
D03*
X765499D02*
D03*
X760500D02*
D03*
X755499D02*
D03*
X750500D02*
D03*
X745499D02*
D03*
X740501D02*
D03*
X735499D02*
D03*
X730501D02*
D03*
X725499D02*
D03*
X720501D02*
D03*
X715499D02*
D03*
X710501D02*
D03*
X705499D02*
D03*
X700501D02*
D03*
X695499D02*
D03*
X690501D02*
D03*
X685499D02*
D03*
X680501D02*
D03*
X675499D02*
D03*
X670501D02*
D03*
X665499D02*
D03*
X660501D02*
D03*
X655499D02*
D03*
X650501D02*
D03*
X645499D02*
D03*
X640501D02*
D03*
X635499D02*
D03*
X630501D02*
D03*
X625499D02*
D03*
X620501D02*
D03*
X615499D02*
D03*
X610501D02*
D03*
X605500D02*
D03*
X1502500Y584900D02*
D03*
X1497500D02*
D03*
X1492500D02*
D03*
X1487500D02*
D03*
X1482500D02*
D03*
X1477500D02*
D03*
X1472500D02*
D03*
X1467500D02*
D03*
X1462500D02*
D03*
X1457500D02*
D03*
D28*
X819799Y709100D02*
D03*
X586201D02*
D03*
X1521800Y565100D02*
D03*
X1438200D02*
D03*
D29*
X353401Y1047602D02*
D03*
X405401D02*
D03*
Y1022202D02*
D03*
Y996802D02*
D03*
X353401Y1022202D02*
D03*
Y996802D02*
D03*
Y971402D02*
D03*
Y946002D02*
D03*
Y920602D02*
D03*
Y895202D02*
D03*
Y869802D02*
D03*
Y844402D02*
D03*
Y819002D02*
D03*
Y793602D02*
D03*
Y768202D02*
D03*
Y742802D02*
D03*
Y717402D02*
D03*
Y692002D02*
D03*
Y666602D02*
D03*
Y641202D02*
D03*
Y615802D02*
D03*
X405401Y971402D02*
D03*
Y946002D02*
D03*
Y920602D02*
D03*
Y895202D02*
D03*
Y869802D02*
D03*
Y844402D02*
D03*
Y819002D02*
D03*
Y793602D02*
D03*
Y768202D02*
D03*
Y742802D02*
D03*
Y717402D02*
D03*
Y692002D02*
D03*
Y666602D02*
D03*
Y641202D02*
D03*
Y615802D02*
D03*
X353401Y412602D02*
D03*
Y438002D02*
D03*
Y463402D02*
D03*
Y488802D02*
D03*
X405401D02*
D03*
Y463402D02*
D03*
Y438002D02*
D03*
X353401Y514202D02*
D03*
Y539602D02*
D03*
Y565002D02*
D03*
Y590402D02*
D03*
X405401Y514202D02*
D03*
Y539602D02*
D03*
Y565002D02*
D03*
Y590402D02*
D03*
D30*
Y412602D02*
D03*
D31*
X677000Y784000D02*
D03*
Y866000D02*
D03*
D32*
X653000Y810000D02*
D03*
Y820000D02*
D03*
Y830000D02*
D03*
Y840000D02*
D03*
D33*
X1035500Y1016625D02*
D03*
X1016500D02*
D03*
D34*
X1026000Y1037375D02*
D03*
D35*
X913200Y985500D02*
D03*
X925900D02*
D03*
X938600D02*
D03*
X951300D02*
D03*
X964000D02*
D03*
X976700D02*
D03*
X989400D02*
D03*
X1002100D02*
D03*
X1014800D02*
D03*
X913200Y894500D02*
D03*
X925900D02*
D03*
X938600D02*
D03*
X951300D02*
D03*
X964000D02*
D03*
X976700D02*
D03*
X989400D02*
D03*
X1002100D02*
D03*
X1014800D02*
D03*
D36*
X882001Y914002D02*
D03*
X865999D02*
D03*
X882001Y935998D02*
D03*
X865999D02*
D03*
D37*
X597998Y820000D02*
D03*
X611998D02*
D03*
X597998Y807000D02*
D03*
X611998D02*
D03*
X597998Y847000D02*
D03*
X611998D02*
D03*
X597998Y860000D02*
D03*
X611998D02*
D03*
X557998Y847000D02*
D03*
X571998D02*
D03*
X557998Y820000D02*
D03*
X571998D02*
D03*
X557998Y807000D02*
D03*
X571998D02*
D03*
X557998Y860000D02*
D03*
X571998D02*
D03*
X606998Y750000D02*
D03*
X620998D02*
D03*
X350002Y288000D02*
D03*
X336002D02*
D03*
X350002Y301000D02*
D03*
X336002D02*
D03*
X307998Y288000D02*
D03*
X321998D02*
D03*
X1250002Y89000D02*
D03*
X1236002D02*
D03*
X1250002Y63000D02*
D03*
X1236002D02*
D03*
X1250002Y76000D02*
D03*
X1236002D02*
D03*
X1176002Y308000D02*
D03*
X1162002D02*
D03*
X867998Y954000D02*
D03*
X881998D02*
D03*
X322002Y301000D02*
D03*
X308002D02*
D03*
X307998Y327000D02*
D03*
X321998D02*
D03*
X322002Y314000D02*
D03*
X308002D02*
D03*
D38*
X341000Y263000D02*
D03*
D39*
X332250Y270500D02*
D03*
Y265500D02*
D03*
Y260500D02*
D03*
Y255500D02*
D03*
X349750D02*
D03*
Y260500D02*
D03*
Y265500D02*
D03*
Y270500D02*
D03*
D40*
X311000Y239500D02*
D03*
Y212500D02*
D03*
D41*
X998050Y203500D02*
D03*
X985350D02*
D03*
X972650D02*
D03*
X959950D02*
D03*
X998050Y252500D02*
D03*
X985350D02*
D03*
X972650D02*
D03*
X959950D02*
D03*
X1188050Y235500D02*
D03*
X1175350D02*
D03*
X1162650D02*
D03*
X1149950D02*
D03*
X1188050Y284500D02*
D03*
X1175350D02*
D03*
X1162650D02*
D03*
X1149950D02*
D03*
X1049046Y445503D02*
D03*
X1036346D02*
D03*
X1023646D02*
D03*
X1010946D02*
D03*
X1049046Y494502D02*
D03*
X1036346D02*
D03*
X1023646D02*
D03*
X1010946D02*
D03*
D42*
X956505Y133000D02*
D03*
X1003495D02*
D03*
D43*
X1156300Y200500D02*
D03*
X1181700D02*
D03*
X1156300Y125500D02*
D03*
X1181700D02*
D03*
D44*
X1111000Y180495D02*
D03*
Y133505D02*
D03*
X1227000Y180495D02*
D03*
Y133505D02*
D03*
X1046000D02*
D03*
Y180495D02*
D03*
X911000Y133505D02*
D03*
Y180495D02*
D03*
D45*
X397000Y231250D02*
D03*
Y294750D02*
D03*
D47*
X670550Y278500D02*
D03*
X683250D02*
D03*
X695950D02*
D03*
X708650D02*
D03*
X721350D02*
D03*
X734050D02*
D03*
X746750D02*
D03*
X759450D02*
D03*
X670550Y231500D02*
D03*
X683250D02*
D03*
X695950D02*
D03*
X708650D02*
D03*
X721350D02*
D03*
X734050D02*
D03*
X746750D02*
D03*
X759450D02*
D03*
M02*
