G04*
G04 #@! TF.GenerationSoftware,Altium Limited,Altium Designer,19.1.8 (144)*
G04*
G04 Layer_Color=16711935*
%FSLAX44Y44*%
%MOMM*%
G71*
G01*
G75*
%ADD12C,0.3283*%
%ADD13C,0.4103*%
%ADD14C,2.0000*%
%ADD15R,2.0000X2.0000*%
%ADD16C,6.1000*%
%ADD17C,1.7900*%
%ADD18R,1.7900X1.7900*%
%ADD19C,4.8600*%
%ADD20C,1.6000*%
%ADD21R,1.6000X1.6000*%
%ADD63R,1.0000X0.9000*%
%ADD64R,0.9000X1.0000*%
%ADD65R,1.3000X2.5000*%
%ADD66R,1.9034X1.1160*%
%ADD67R,1.9000X1.1000*%
%ADD68O,0.8000X2.6000*%
%ADD69R,0.4000X1.1000*%
%ADD70R,1.7500X1.4000*%
%ADD71R,0.4000X1.3000*%
G04:AMPARAMS|DCode=72|XSize=3.1mm|YSize=5.1mm|CornerRadius=0.8mm|HoleSize=0mm|Usage=FLASHONLY|Rotation=90.000|XOffset=0mm|YOffset=0mm|HoleType=Round|Shape=RoundedRectangle|*
%AMROUNDEDRECTD72*
21,1,3.1000,3.5000,0,0,90.0*
21,1,1.5000,5.1000,0,0,90.0*
1,1,1.6000,1.7500,0.7500*
1,1,1.6000,1.7500,-0.7500*
1,1,1.6000,-1.7500,-0.7500*
1,1,1.6000,-1.7500,0.7500*
%
%ADD72ROUNDEDRECTD72*%
%ADD73R,2.8000X4.2000*%
%ADD74O,0.7000X2.4000*%
%ADD75R,1.1160X1.9034*%
%ADD76R,1.1000X1.9000*%
%ADD77R,0.7500X1.0000*%
%ADD78R,0.7500X1.2000*%
%ADD79R,1.2498X1.4995*%
%ADD80R,0.6600X2.2500*%
G04:AMPARAMS|DCode=81|XSize=0.35mm|YSize=0.8mm|CornerRadius=0.1125mm|HoleSize=0mm|Usage=FLASHONLY|Rotation=270.000|XOffset=0mm|YOffset=0mm|HoleType=Round|Shape=RoundedRectangle|*
%AMROUNDEDRECTD81*
21,1,0.3500,0.5750,0,0,270.0*
21,1,0.1250,0.8000,0,0,270.0*
1,1,0.2250,-0.2875,-0.0625*
1,1,0.2250,-0.2875,0.0625*
1,1,0.2250,0.2875,0.0625*
1,1,0.2250,0.2875,-0.0625*
%
%ADD81ROUNDEDRECTD81*%
%ADD82R,2.7000X1.2000*%
%ADD83R,2.7162X2.8432*%
%ADD84R,1.3000X2.1000*%
%ADD85R,2.8432X2.7162*%
%ADD86R,7.4000X1.0500*%
%ADD87O,0.7000X2.0000*%
%ADD88C,3.0000*%
G36*
X-491402Y-334507D02*
X-491308Y-334536D01*
X-491221Y-334582D01*
X-491145Y-334645D01*
X-491082Y-334721D01*
X-491036Y-334808D01*
X-491007Y-334902D01*
X-490998Y-335000D01*
Y-351500D01*
X-491007Y-351598D01*
X-491036Y-351692D01*
X-491082Y-351779D01*
X-491145Y-351855D01*
X-491221Y-351918D01*
X-491308Y-351964D01*
X-491402Y-351993D01*
X-491500Y-352002D01*
X-503000D01*
X-503032Y-351999D01*
X-503063Y-351998D01*
X-503080Y-351995D01*
X-503098Y-351993D01*
X-503128Y-351984D01*
X-503159Y-351977D01*
X-503175Y-351969D01*
X-503192Y-351964D01*
X-503220Y-351949D01*
X-503249Y-351936D01*
X-503263Y-351926D01*
X-503279Y-351918D01*
X-503304Y-351898D01*
X-503329Y-351880D01*
X-503341Y-351867D01*
X-503355Y-351855D01*
X-503375Y-351831D01*
X-503397Y-351808D01*
X-503406Y-351793D01*
X-503418Y-351779D01*
X-503433Y-351752D01*
X-503449Y-351725D01*
X-504935Y-348753D01*
X-506901Y-345804D01*
X-509846Y-342369D01*
X-513765Y-339429D01*
X-518675Y-336974D01*
X-522584Y-335997D01*
X-527998Y-335505D01*
X-532914Y-335996D01*
X-534878Y-336487D01*
X-536845Y-336979D01*
X-539294Y-337959D01*
X-541258Y-338941D01*
X-543713Y-340414D01*
X-546164Y-342375D01*
X-546625Y-342836D01*
X-548599Y-345303D01*
X-551068Y-348760D01*
X-552551Y-351725D01*
X-552568Y-351752D01*
X-552582Y-351779D01*
X-552593Y-351793D01*
X-552603Y-351808D01*
X-552625Y-351831D01*
X-552645Y-351855D01*
X-552659Y-351867D01*
X-552671Y-351880D01*
X-552696Y-351898D01*
X-552721Y-351918D01*
X-552737Y-351926D01*
X-552751Y-351936D01*
X-552780Y-351949D01*
X-552808Y-351964D01*
X-552825Y-351969D01*
X-552841Y-351977D01*
X-552872Y-351984D01*
X-552902Y-351993D01*
X-552920Y-351995D01*
X-552937Y-351998D01*
X-552968Y-351999D01*
X-553000Y-352002D01*
X-564500D01*
X-564598Y-351993D01*
X-564692Y-351964D01*
X-564779Y-351918D01*
X-564855Y-351855D01*
X-564918Y-351779D01*
X-564964Y-351692D01*
X-564993Y-351598D01*
X-565002Y-351500D01*
Y-335000D01*
X-564993Y-334902D01*
X-564964Y-334808D01*
X-564918Y-334721D01*
X-564855Y-334645D01*
X-564779Y-334582D01*
X-564692Y-334536D01*
X-564598Y-334507D01*
X-564500Y-334498D01*
X-491500D01*
X-491402Y-334507D01*
D02*
G37*
G36*
Y-372007D02*
X-491308Y-372036D01*
X-491221Y-372082D01*
X-491145Y-372145D01*
X-491082Y-372221D01*
X-491036Y-372308D01*
X-491007Y-372402D01*
X-490998Y-372500D01*
Y-389000D01*
X-491007Y-389098D01*
X-491036Y-389192D01*
X-491082Y-389279D01*
X-491145Y-389355D01*
X-491221Y-389418D01*
X-491308Y-389464D01*
X-491402Y-389493D01*
X-491500Y-389502D01*
X-564500D01*
X-564598Y-389493D01*
X-564692Y-389464D01*
X-564779Y-389418D01*
X-564855Y-389355D01*
X-564918Y-389279D01*
X-564964Y-389192D01*
X-564993Y-389098D01*
X-565002Y-389000D01*
Y-372500D01*
X-564993Y-372402D01*
X-564964Y-372308D01*
X-564918Y-372221D01*
X-564855Y-372145D01*
X-564779Y-372082D01*
X-564692Y-372036D01*
X-564598Y-372007D01*
X-564500Y-371998D01*
X-553000D01*
X-552968Y-372001D01*
X-552937Y-372002D01*
X-552920Y-372006D01*
X-552902Y-372007D01*
X-552872Y-372016D01*
X-552841Y-372023D01*
X-552825Y-372031D01*
X-552808Y-372036D01*
X-552780Y-372051D01*
X-552751Y-372064D01*
X-552737Y-372074D01*
X-552721Y-372082D01*
X-552696Y-372102D01*
X-552671Y-372121D01*
X-552659Y-372133D01*
X-552645Y-372145D01*
X-552625Y-372169D01*
X-552603Y-372192D01*
X-552593Y-372207D01*
X-552582Y-372221D01*
X-552568Y-372248D01*
X-552551Y-372275D01*
X-550571Y-376235D01*
X-549103Y-378192D01*
X-547137Y-380649D01*
X-543705Y-383591D01*
X-541258Y-385059D01*
X-539307Y-386035D01*
X-533396Y-388005D01*
X-528002Y-388495D01*
X-523074Y-388003D01*
X-520610Y-387510D01*
X-518675Y-387026D01*
X-515737Y-385557D01*
X-512291Y-383587D01*
X-508859Y-380646D01*
X-506403Y-377699D01*
X-505435Y-376247D01*
X-503449Y-372275D01*
X-503433Y-372248D01*
X-503418Y-372221D01*
X-503406Y-372207D01*
X-503397Y-372192D01*
X-503375Y-372169D01*
X-503355Y-372145D01*
X-503341Y-372133D01*
X-503329Y-372121D01*
X-503304Y-372102D01*
X-503279Y-372082D01*
X-503263Y-372074D01*
X-503249Y-372064D01*
X-503220Y-372051D01*
X-503192Y-372036D01*
X-503175Y-372031D01*
X-503159Y-372023D01*
X-503128Y-372016D01*
X-503098Y-372007D01*
X-503080Y-372006D01*
X-503063Y-372002D01*
X-503032Y-372001D01*
X-503000Y-371998D01*
X-491500D01*
X-491402Y-372007D01*
D02*
G37*
G36*
X1024437Y-384052D02*
X1025053Y-384137D01*
X1025634Y-384240D01*
X1026164Y-384377D01*
X1026677Y-384548D01*
X1027138Y-384736D01*
X1027549Y-384941D01*
X1027924Y-385146D01*
X1028266Y-385351D01*
X1028557Y-385556D01*
X1028813Y-385744D01*
X1029019Y-385915D01*
X1029190Y-386052D01*
X1029309Y-386155D01*
X1029378Y-386240D01*
X1029395Y-386257D01*
X1029702Y-386616D01*
X1029959Y-386992D01*
X1030198Y-387368D01*
X1030386Y-387744D01*
X1030557Y-388120D01*
X1030694Y-388497D01*
X1030814Y-388856D01*
X1030899Y-389197D01*
X1030984Y-389522D01*
X1031036Y-389813D01*
X1031070Y-390069D01*
X1031087Y-390291D01*
X1031104Y-390480D01*
X1031121Y-390616D01*
Y-394890D01*
X1015565D01*
Y-390702D01*
X1015583Y-390223D01*
X1015651Y-389762D01*
X1015736Y-389317D01*
X1015839Y-388907D01*
X1015976Y-388514D01*
X1016130Y-388155D01*
X1016301Y-387813D01*
X1016471Y-387505D01*
X1016625Y-387232D01*
X1016796Y-386992D01*
X1016950Y-386770D01*
X1017087Y-386599D01*
X1017189Y-386462D01*
X1017292Y-386360D01*
X1017343Y-386291D01*
X1017360Y-386274D01*
X1017805Y-385881D01*
X1018266Y-385539D01*
X1018779Y-385232D01*
X1019292Y-384975D01*
X1019822Y-384770D01*
X1020369Y-384582D01*
X1020899Y-384428D01*
X1021395Y-384309D01*
X1021890Y-384223D01*
X1022335Y-384155D01*
X1022745Y-384103D01*
X1023087Y-384069D01*
X1023241Y-384052D01*
X1023378D01*
X1023497Y-384035D01*
X1023600D01*
X1023685D01*
X1023736D01*
X1023771D01*
X1023788D01*
X1024437Y-384052D01*
D02*
G37*
G36*
X974548Y-384582D02*
X974958Y-384633D01*
X975351Y-384719D01*
X975693Y-384838D01*
X976018Y-384975D01*
X976291Y-385112D01*
X976548Y-385266D01*
X976770Y-385437D01*
X976958Y-385591D01*
X977112Y-385761D01*
X977249Y-385898D01*
X977351Y-386035D01*
X977437Y-386155D01*
X977488Y-386240D01*
X977522Y-386291D01*
X977539Y-386309D01*
X977779Y-386035D01*
X978018Y-385796D01*
X978274Y-385591D01*
X978548Y-385420D01*
X978804Y-385266D01*
X979078Y-385146D01*
X979334Y-385043D01*
X979591Y-384958D01*
X979830Y-384907D01*
X980035Y-384855D01*
X980240Y-384821D01*
X980411Y-384787D01*
X980548D01*
X980650Y-384770D01*
X980719D01*
X980736D01*
X981095Y-384787D01*
X981454Y-384821D01*
X981779Y-384890D01*
X982086Y-384975D01*
X982360Y-385078D01*
X982633Y-385180D01*
X982873Y-385300D01*
X983095Y-385420D01*
X983283Y-385556D01*
X983454Y-385676D01*
X983608Y-385779D01*
X983727Y-385881D01*
X983830Y-385967D01*
X983898Y-386035D01*
X983932Y-386069D01*
X983950Y-386086D01*
X984172Y-386360D01*
X984360Y-386633D01*
X984514Y-386941D01*
X984668Y-387232D01*
X984787Y-387539D01*
X984873Y-387847D01*
X984958Y-388155D01*
X985026Y-388428D01*
X985078Y-388702D01*
X985112Y-388958D01*
X985146Y-389180D01*
X985163Y-389385D01*
X985180Y-389539D01*
Y-394890D01*
X969607D01*
Y-389574D01*
X969625Y-389112D01*
X969659Y-388685D01*
X969727Y-388291D01*
X969796Y-387915D01*
X969898Y-387573D01*
X970018Y-387249D01*
X970154Y-386958D01*
X970308Y-386684D01*
X970479Y-386428D01*
X970650Y-386189D01*
X970838Y-385984D01*
X971026Y-385796D01*
X971232Y-385608D01*
X971437Y-385454D01*
X971847Y-385197D01*
X972257Y-384992D01*
X972667Y-384821D01*
X973044Y-384719D01*
X973385Y-384650D01*
X973676Y-384599D01*
X973796Y-384582D01*
X973898D01*
X973984Y-384565D01*
X974035D01*
X974069D01*
X974086D01*
X974548Y-384582D01*
D02*
G37*
%LPC*%
G36*
X1023890Y-386309D02*
X1023822D01*
X1023788D01*
X1023241Y-386326D01*
X1022711Y-386377D01*
X1022215Y-386445D01*
X1021753Y-386548D01*
X1021326Y-386668D01*
X1020933Y-386787D01*
X1020557Y-386924D01*
X1020232Y-387061D01*
X1019941Y-387215D01*
X1019685Y-387351D01*
X1019463Y-387471D01*
X1019275Y-387590D01*
X1019138Y-387693D01*
X1019036Y-387761D01*
X1018967Y-387813D01*
X1018950Y-387830D01*
X1018762Y-388052D01*
X1018608Y-388274D01*
X1018454Y-388514D01*
X1018335Y-388753D01*
X1018232Y-389009D01*
X1018147Y-389249D01*
X1018027Y-389693D01*
X1017976Y-389898D01*
X1017942Y-390086D01*
X1017924Y-390257D01*
X1017907Y-390411D01*
X1017890Y-390531D01*
Y-392616D01*
X1028779D01*
Y-390719D01*
X1028762Y-390411D01*
X1028728Y-390103D01*
X1028677Y-389813D01*
X1028591Y-389539D01*
X1028506Y-389283D01*
X1028403Y-389044D01*
X1028301Y-388821D01*
X1028198Y-388616D01*
X1028078Y-388428D01*
X1027976Y-388257D01*
X1027873Y-388120D01*
X1027788Y-388001D01*
X1027702Y-387898D01*
X1027651Y-387830D01*
X1027617Y-387796D01*
X1027600Y-387779D01*
X1027326Y-387522D01*
X1027036Y-387300D01*
X1026745Y-387095D01*
X1026420Y-386924D01*
X1026113Y-386787D01*
X1025788Y-386668D01*
X1025480Y-386565D01*
X1025190Y-386497D01*
X1024899Y-386428D01*
X1024625Y-386394D01*
X1024403Y-386360D01*
X1024198Y-386326D01*
X1024027D01*
X1023890Y-386309D01*
D02*
G37*
G36*
X980855Y-387043D02*
X980804D01*
X980770D01*
X980753D01*
X980394Y-387078D01*
X980086Y-387146D01*
X979813Y-387266D01*
X979574Y-387437D01*
X979385Y-387625D01*
X979214Y-387830D01*
X979078Y-388052D01*
X978975Y-388291D01*
X978890Y-388531D01*
X978821Y-388753D01*
X978787Y-388958D01*
X978753Y-389146D01*
X978736Y-389300D01*
X978719Y-389437D01*
Y-392616D01*
X982856D01*
Y-389762D01*
X982838Y-389300D01*
X982770Y-388907D01*
X982685Y-388565D01*
X982582Y-388274D01*
X982479Y-388052D01*
X982394Y-387898D01*
X982326Y-387796D01*
X982309Y-387761D01*
X982086Y-387522D01*
X981830Y-387351D01*
X981573Y-387215D01*
X981334Y-387129D01*
X981095Y-387078D01*
X980924Y-387061D01*
X980855Y-387043D01*
D02*
G37*
G36*
X974206Y-386838D02*
X974137D01*
X974103D01*
X973727Y-386873D01*
X973385Y-386958D01*
X973095Y-387095D01*
X972855Y-387266D01*
X972633Y-387471D01*
X972462Y-387710D01*
X972326Y-387949D01*
X972206Y-388206D01*
X972120Y-388462D01*
X972052Y-388702D01*
X972001Y-388941D01*
X971966Y-389146D01*
X971949Y-389317D01*
X971932Y-389454D01*
Y-392616D01*
X976394D01*
Y-389676D01*
X976377Y-389180D01*
X976291Y-388736D01*
X976189Y-388360D01*
X976035Y-388035D01*
X975864Y-387761D01*
X975676Y-387522D01*
X975471Y-387351D01*
X975249Y-387197D01*
X975043Y-387078D01*
X974821Y-386992D01*
X974633Y-386924D01*
X974462Y-386890D01*
X974308Y-386856D01*
X974206Y-386838D01*
D02*
G37*
%LPD*%
D12*
X981497Y-362063D02*
G03*
X981497Y-362063I-4103J0D01*
G01*
X1004476Y-366987D02*
G03*
X1004476Y-366987I-4103J0D01*
G01*
X1027455Y-362063D02*
G03*
X1027455Y-362063I-4103J0D01*
G01*
D13*
X965904Y-417869D02*
Y-414586D01*
Y-417869D02*
X1034841D01*
X965904Y-414586D02*
X1034841D01*
Y-417869D02*
Y-414586D01*
X977393Y-378476D02*
Y-366987D01*
X965904Y-399814D02*
Y-378476D01*
Y-399814D02*
X988883D01*
Y-378476D01*
X965904D02*
X988883D01*
X1000372Y-383400D02*
Y-371911D01*
X1011862Y-378476D02*
X1034841D01*
Y-399814D02*
Y-378476D01*
X1011862Y-399814D02*
X1034841D01*
X1011862D02*
Y-378476D01*
X1023351Y-378476D02*
Y-366987D01*
X995448Y-396531D02*
X1005296D01*
X995448Y-389966D02*
X1005296D01*
D14*
X205001Y-625000D02*
D03*
X240000D02*
D03*
X40000D02*
D03*
X5001D02*
D03*
D15*
X275001D02*
D03*
X75001D02*
D03*
D16*
X1000000Y-500000D02*
D03*
Y500000D02*
D03*
X-1000000D02*
D03*
X343000Y-283000D02*
D03*
Y493000D02*
D03*
X-793000D02*
D03*
Y-283000D02*
D03*
X-1000000Y-500000D02*
D03*
D17*
X-169600Y-545800D02*
D03*
X-183450Y-574200D02*
D03*
X-197300Y-545800D02*
D03*
X-211150Y-574200D02*
D03*
X-225000Y-545800D02*
D03*
X-238850Y-574200D02*
D03*
X-252700Y-545800D02*
D03*
X-266550Y-574200D02*
D03*
D18*
X-280400Y-545800D02*
D03*
D19*
X-349950Y-560000D02*
D03*
X-100050D02*
D03*
D20*
X132000Y-682700D02*
D03*
D21*
Y-657300D02*
D03*
D63*
X140000Y-632998D02*
D03*
Y-618998D02*
D03*
X125000Y-632998D02*
D03*
Y-618998D02*
D03*
X300000Y210998D02*
D03*
Y224998D02*
D03*
X287000Y210998D02*
D03*
Y224998D02*
D03*
X326000Y192002D02*
D03*
Y178002D02*
D03*
X313000Y192002D02*
D03*
Y178002D02*
D03*
X300000Y192002D02*
D03*
Y178002D02*
D03*
X287000Y192002D02*
D03*
Y178002D02*
D03*
X268000Y192002D02*
D03*
Y178002D02*
D03*
X137500Y-92002D02*
D03*
Y-78002D02*
D03*
X107500Y-92002D02*
D03*
Y-78002D02*
D03*
X77500Y-92002D02*
D03*
Y-78002D02*
D03*
X122500Y-92002D02*
D03*
Y-78002D02*
D03*
X92500Y-92002D02*
D03*
Y-78002D02*
D03*
X62500Y-92002D02*
D03*
Y-78002D02*
D03*
X-437000Y-564002D02*
D03*
Y-550002D02*
D03*
X-453000Y-549998D02*
D03*
Y-563998D02*
D03*
X-350000Y-502002D02*
D03*
Y-516002D02*
D03*
X26000Y391998D02*
D03*
Y405998D02*
D03*
X13000Y391998D02*
D03*
Y405998D02*
D03*
X52000Y391998D02*
D03*
Y405998D02*
D03*
X65000Y391998D02*
D03*
Y405998D02*
D03*
X125000Y385000D02*
D03*
Y399000D02*
D03*
X125000Y358998D02*
D03*
Y372998D02*
D03*
X112000Y358998D02*
D03*
Y372998D02*
D03*
Y332998D02*
D03*
Y346998D02*
D03*
X-608000Y-372002D02*
D03*
Y-358002D02*
D03*
X-622500Y-372002D02*
D03*
Y-358002D02*
D03*
X-591000Y-388998D02*
D03*
Y-402998D02*
D03*
X-254710Y-392248D02*
D03*
Y-406248D02*
D03*
X-240000Y-407002D02*
D03*
Y-393002D02*
D03*
X-212500Y-517002D02*
D03*
Y-503002D02*
D03*
X-227500Y-517002D02*
D03*
Y-503002D02*
D03*
X-242500Y-517002D02*
D03*
Y-503002D02*
D03*
X-257500Y-517002D02*
D03*
Y-503002D02*
D03*
X-185000Y-502998D02*
D03*
Y-516998D02*
D03*
X-197500Y-502998D02*
D03*
Y-516998D02*
D03*
X27000Y-414998D02*
D03*
Y-428998D02*
D03*
X40000Y-414998D02*
D03*
Y-428998D02*
D03*
X79000Y-414998D02*
D03*
Y-428998D02*
D03*
X53000Y-429002D02*
D03*
Y-415002D02*
D03*
X66000Y-429002D02*
D03*
Y-415002D02*
D03*
X47000Y-542002D02*
D03*
Y-528002D02*
D03*
X61000Y-542002D02*
D03*
Y-528002D02*
D03*
X210000Y-463998D02*
D03*
Y-477998D02*
D03*
X210000Y-429002D02*
D03*
Y-415002D02*
D03*
X278000Y-429002D02*
D03*
Y-415002D02*
D03*
Y-478002D02*
D03*
Y-464002D02*
D03*
X-77000Y284998D02*
D03*
Y298998D02*
D03*
X20000Y-496998D02*
D03*
Y-510998D02*
D03*
X-216000Y-406002D02*
D03*
Y-392002D02*
D03*
X-191000Y-406002D02*
D03*
Y-392002D02*
D03*
X-271000Y-479002D02*
D03*
Y-465002D02*
D03*
X72000Y-175000D02*
D03*
Y-189000D02*
D03*
X39000Y391998D02*
D03*
Y405998D02*
D03*
X520000Y200502D02*
D03*
Y214502D02*
D03*
D64*
X-616998Y-322500D02*
D03*
X-602998D02*
D03*
X-616998Y-307500D02*
D03*
X-602998D02*
D03*
X-603002Y-292500D02*
D03*
X-617002D02*
D03*
X-602998Y-277500D02*
D03*
X-616998D02*
D03*
X-574998Y-337000D02*
D03*
X-588998D02*
D03*
X-575498Y-322500D02*
D03*
X-589498D02*
D03*
X-617002Y-337000D02*
D03*
X-603002D02*
D03*
X325002Y-616000D02*
D03*
X311002D02*
D03*
X325002Y-642000D02*
D03*
X311002D02*
D03*
X325002Y-629000D02*
D03*
X311002D02*
D03*
X251002Y-397000D02*
D03*
X237002D02*
D03*
X-57002Y329000D02*
D03*
X-43002D02*
D03*
D65*
X-452500Y-585000D02*
D03*
Y-675000D02*
D03*
X-407500Y-585000D02*
D03*
Y-675000D02*
D03*
D66*
X-519599Y-34598D02*
D03*
Y-59998D02*
D03*
Y-85398D02*
D03*
Y-110798D02*
D03*
X-571599Y-34598D02*
D03*
Y-59998D02*
D03*
Y-85398D02*
D03*
Y-110798D02*
D03*
X-519599Y-186998D02*
D03*
Y-161598D02*
D03*
Y-136198D02*
D03*
X-571599D02*
D03*
Y-161598D02*
D03*
Y-186998D02*
D03*
Y-212398D02*
D03*
X-519599Y-9198D02*
D03*
Y16202D02*
D03*
Y41602D02*
D03*
Y67002D02*
D03*
Y92402D02*
D03*
Y117802D02*
D03*
Y143202D02*
D03*
Y168602D02*
D03*
Y194002D02*
D03*
Y219402D02*
D03*
Y244802D02*
D03*
Y270202D02*
D03*
Y295602D02*
D03*
Y321002D02*
D03*
Y346402D02*
D03*
X-571599Y-9198D02*
D03*
Y16202D02*
D03*
Y41602D02*
D03*
Y67002D02*
D03*
Y92402D02*
D03*
Y117802D02*
D03*
Y143202D02*
D03*
Y168602D02*
D03*
Y194002D02*
D03*
Y219402D02*
D03*
Y244802D02*
D03*
Y270202D02*
D03*
Y295602D02*
D03*
Y321002D02*
D03*
Y346402D02*
D03*
Y371802D02*
D03*
Y397202D02*
D03*
X-519599Y371802D02*
D03*
Y397202D02*
D03*
Y422602D02*
D03*
X-571599D02*
D03*
D67*
X-519599Y-212398D02*
D03*
D68*
X85946Y-130498D02*
D03*
X98646D02*
D03*
X111346D02*
D03*
X124046D02*
D03*
X85946Y-179498D02*
D03*
X98646D02*
D03*
X111346D02*
D03*
X124046D02*
D03*
X73050Y-501500D02*
D03*
X60350D02*
D03*
X47650D02*
D03*
X34950D02*
D03*
X73050Y-452500D02*
D03*
X60350D02*
D03*
X47650D02*
D03*
X34950D02*
D03*
X263050Y-469500D02*
D03*
X250350D02*
D03*
X237650D02*
D03*
X224950D02*
D03*
X263050Y-420500D02*
D03*
X250350D02*
D03*
X237650D02*
D03*
X224950D02*
D03*
D69*
X275905Y145600D02*
D03*
X280905D02*
D03*
X285905D02*
D03*
X320905D02*
D03*
X315905D02*
D03*
X310905D02*
D03*
X305905D02*
D03*
X300905D02*
D03*
X295905D02*
D03*
X290905D02*
D03*
D70*
X343655Y126600D02*
D03*
X253155D02*
D03*
D71*
X667456Y176800D02*
D03*
X662458D02*
D03*
X657456D02*
D03*
X647456D02*
D03*
X642458D02*
D03*
X637456D02*
D03*
X627456D02*
D03*
X622458D02*
D03*
X617456D02*
D03*
X552458D02*
D03*
X557456D02*
D03*
X562458D02*
D03*
X567456D02*
D03*
X577456D02*
D03*
X582458D02*
D03*
X587456D02*
D03*
X597456D02*
D03*
X602458D02*
D03*
X607456D02*
D03*
X682457D02*
D03*
X497457D02*
D03*
X502458D02*
D03*
X507457D02*
D03*
X512458D02*
D03*
X517457D02*
D03*
X522458D02*
D03*
X527457D02*
D03*
X532458D02*
D03*
X537457D02*
D03*
X542458D02*
D03*
X547456D02*
D03*
X572458D02*
D03*
X592458D02*
D03*
X612458D02*
D03*
X632458D02*
D03*
X652458D02*
D03*
X672458D02*
D03*
X677456D02*
D03*
X687456D02*
D03*
X692457D02*
D03*
D72*
X-515000Y-445000D02*
D03*
Y-515000D02*
D03*
D73*
X478158Y151900D02*
D03*
X711756D02*
D03*
D74*
X-11800Y367500D02*
D03*
X900D02*
D03*
X13600D02*
D03*
X26300D02*
D03*
X39000D02*
D03*
X51700D02*
D03*
X64400D02*
D03*
X77100D02*
D03*
X89800D02*
D03*
X-11800Y276500D02*
D03*
X900D02*
D03*
X13600D02*
D03*
X26300D02*
D03*
X39000D02*
D03*
X51700D02*
D03*
X64400D02*
D03*
X77100D02*
D03*
X89800D02*
D03*
D75*
X178302Y-224600D02*
D03*
Y-276600D02*
D03*
X152902D02*
D03*
X127502D02*
D03*
X152902Y-224600D02*
D03*
X127502D02*
D03*
X102102D02*
D03*
X76702D02*
D03*
X51302D02*
D03*
X25902D02*
D03*
X502D02*
D03*
X-24898D02*
D03*
X-50298D02*
D03*
X-75698D02*
D03*
X-101098D02*
D03*
X-126498D02*
D03*
X-151898D02*
D03*
X-177298D02*
D03*
X-202698D02*
D03*
X-228098D02*
D03*
X-253498D02*
D03*
X102102Y-276600D02*
D03*
X76702D02*
D03*
X51302D02*
D03*
X25902D02*
D03*
X502D02*
D03*
X-24898D02*
D03*
X-50298D02*
D03*
X-75698D02*
D03*
X-101098D02*
D03*
X-126498D02*
D03*
X-151898D02*
D03*
X-177298D02*
D03*
X-202698D02*
D03*
X-228098D02*
D03*
X-253498D02*
D03*
X-456698Y-224600D02*
D03*
X-431298D02*
D03*
X-405898D02*
D03*
X-380498D02*
D03*
Y-276600D02*
D03*
X-405898D02*
D03*
X-431298D02*
D03*
X-355098Y-224600D02*
D03*
X-329698D02*
D03*
X-304298D02*
D03*
X-278898D02*
D03*
X-355098Y-276600D02*
D03*
X-329698D02*
D03*
X-304298D02*
D03*
X-278898D02*
D03*
X178299Y486600D02*
D03*
Y434600D02*
D03*
X152899D02*
D03*
X127499D02*
D03*
X152899Y486600D02*
D03*
X127499D02*
D03*
X102099D02*
D03*
X76699D02*
D03*
X51299D02*
D03*
X25899D02*
D03*
X499D02*
D03*
X-24901D02*
D03*
X-50301D02*
D03*
X-75701D02*
D03*
X-101101D02*
D03*
X-126501D02*
D03*
X-151901D02*
D03*
X-177301D02*
D03*
X-202701D02*
D03*
X-228101D02*
D03*
X-253501D02*
D03*
X102099Y434600D02*
D03*
X76699D02*
D03*
X51299D02*
D03*
X25899D02*
D03*
X499D02*
D03*
X-24901D02*
D03*
X-50301D02*
D03*
X-75701D02*
D03*
X-101101D02*
D03*
X-126501D02*
D03*
X-151901D02*
D03*
X-177301D02*
D03*
X-202701D02*
D03*
X-228101D02*
D03*
X-253501D02*
D03*
X-456701Y486600D02*
D03*
X-431301D02*
D03*
X-405901D02*
D03*
X-380501D02*
D03*
Y434600D02*
D03*
X-405901D02*
D03*
X-431301D02*
D03*
X-355101Y486600D02*
D03*
X-329701D02*
D03*
X-304301D02*
D03*
X-278901D02*
D03*
X-355101Y434600D02*
D03*
X-329701D02*
D03*
X-304301D02*
D03*
X-278901D02*
D03*
D76*
X-456698Y-276600D02*
D03*
X-456701Y434600D02*
D03*
D77*
X159500Y383625D02*
D03*
X140500D02*
D03*
D78*
X150000Y404375D02*
D03*
D79*
X-42999Y289002D02*
D03*
X-59001D02*
D03*
X-42999Y310998D02*
D03*
X-59001D02*
D03*
D80*
X-584000Y-362000D02*
D03*
D81*
X-592750Y-354500D02*
D03*
Y-359500D02*
D03*
Y-364500D02*
D03*
Y-369500D02*
D03*
X-575250D02*
D03*
Y-364500D02*
D03*
Y-359500D02*
D03*
Y-354500D02*
D03*
D82*
X-614000Y-385500D02*
D03*
Y-412500D02*
D03*
D83*
X31505Y-572000D02*
D03*
X78495D02*
D03*
D84*
X231300Y-504500D02*
D03*
X256700D02*
D03*
X231300Y-579500D02*
D03*
X256700D02*
D03*
D85*
X186000Y-524505D02*
D03*
Y-571495D02*
D03*
X302000Y-524505D02*
D03*
Y-571495D02*
D03*
X121000D02*
D03*
Y-524505D02*
D03*
X-14000Y-571495D02*
D03*
Y-524505D02*
D03*
D86*
X-528000Y-393750D02*
D03*
Y-330250D02*
D03*
D87*
X-254450Y-426500D02*
D03*
X-241750D02*
D03*
X-229050D02*
D03*
X-216350D02*
D03*
X-203650D02*
D03*
X-190950D02*
D03*
X-178250D02*
D03*
X-165550D02*
D03*
X-254450Y-473500D02*
D03*
X-241750D02*
D03*
X-229050D02*
D03*
X-216350D02*
D03*
X-203650D02*
D03*
X-190950D02*
D03*
X-178250D02*
D03*
X-165550D02*
D03*
D88*
X-890400Y-549600D02*
D03*
X890400D02*
D03*
Y549600D02*
D03*
M02*
