G04*
G04 #@! TF.GenerationSoftware,Altium Limited,Altium Designer,20.0.7 (75)*
G04*
G04 Layer_Color=16711935*
%FSLAX44Y44*%
%MOMM*%
G71*
G01*
G75*
%ADD12C,0.3283*%
%ADD13C,0.4103*%
%ADD14C,1.6000*%
%ADD15R,1.6000X1.6000*%
%ADD16R,1.6000X1.6000*%
%ADD17C,2.0000*%
%ADD18R,2.0000X2.0000*%
%ADD19C,6.1000*%
%ADD20C,1.7900*%
%ADD21R,1.7900X1.7900*%
%ADD22C,4.8600*%
%ADD60R,1.0500X7.4000*%
%ADD61R,0.9000X1.0000*%
%ADD62R,1.2000X0.7500*%
%ADD63R,1.0000X0.7500*%
%ADD64R,1.0000X0.9000*%
%ADD65R,1.7500X1.4000*%
%ADD66R,0.4000X1.1000*%
%ADD67R,1.3000X2.5000*%
%ADD68O,0.8000X2.6000*%
%ADD69O,0.7000X2.4000*%
%ADD70R,1.2498X1.4995*%
%ADD71R,2.2500X0.6600*%
G04:AMPARAMS|DCode=72|XSize=0.35mm|YSize=0.8mm|CornerRadius=0.1125mm|HoleSize=0mm|Usage=FLASHONLY|Rotation=180.000|XOffset=0mm|YOffset=0mm|HoleType=Round|Shape=RoundedRectangle|*
%AMROUNDEDRECTD72*
21,1,0.3500,0.5750,0,0,180.0*
21,1,0.1250,0.8000,0,0,180.0*
1,1,0.2250,-0.0625,0.2875*
1,1,0.2250,0.0625,0.2875*
1,1,0.2250,0.0625,-0.2875*
1,1,0.2250,-0.0625,-0.2875*
%
%ADD72ROUNDEDRECTD72*%
%ADD73R,1.2000X2.7000*%
%ADD74R,2.7162X2.8432*%
%ADD75R,1.3000X2.1000*%
%ADD76R,2.8432X2.7162*%
%ADD77O,0.7000X2.0000*%
%ADD78C,3.0000*%
G36*
X431098Y78993D02*
X431192Y78964D01*
X431279Y78918D01*
X431355Y78855D01*
X431418Y78779D01*
X431464Y78692D01*
X431493Y78598D01*
X431502Y78500D01*
Y42000D01*
Y5500D01*
X431493Y5402D01*
X431464Y5308D01*
X431418Y5221D01*
X431355Y5145D01*
X431279Y5082D01*
X431192Y5036D01*
X431098Y5007D01*
X431000Y4998D01*
X414500D01*
X414402Y5007D01*
X414308Y5036D01*
X414221Y5082D01*
X414145Y5145D01*
X414082Y5221D01*
X414036Y5308D01*
X414007Y5402D01*
X413998Y5500D01*
Y17000D01*
X414001Y17032D01*
X414002Y17063D01*
X414006Y17080D01*
X414007Y17098D01*
X414016Y17128D01*
X414023Y17159D01*
X414031Y17175D01*
X414036Y17192D01*
X414051Y17220D01*
X414063Y17249D01*
X414074Y17263D01*
X414082Y17279D01*
X414102Y17304D01*
X414120Y17329D01*
X414133Y17341D01*
X414145Y17355D01*
X414169Y17375D01*
X414192Y17397D01*
X414207Y17407D01*
X414221Y17418D01*
X414248Y17433D01*
X414275Y17449D01*
X417247Y18935D01*
X420196Y20901D01*
X423631Y23846D01*
X426571Y27765D01*
X429026Y32675D01*
X430003Y36584D01*
X430495Y41998D01*
X430004Y46913D01*
X429513Y48878D01*
X429021Y50845D01*
X428041Y53294D01*
X427059Y55258D01*
X425587Y57712D01*
X423625Y60164D01*
X423164Y60625D01*
X420697Y62599D01*
X417240Y65068D01*
X414275Y66551D01*
X414248Y66568D01*
X414221Y66582D01*
X414207Y66593D01*
X414192Y66603D01*
X414169Y66625D01*
X414145Y66645D01*
X414133Y66659D01*
X414120Y66671D01*
X414102Y66696D01*
X414082Y66721D01*
X414074Y66737D01*
X414063Y66751D01*
X414051Y66780D01*
X414036Y66808D01*
X414031Y66825D01*
X414023Y66841D01*
X414016Y66872D01*
X414007Y66902D01*
X414006Y66920D01*
X414002Y66937D01*
X414001Y66968D01*
X413998Y67000D01*
Y78500D01*
X414007Y78598D01*
X414036Y78692D01*
X414082Y78779D01*
X414145Y78855D01*
X414221Y78918D01*
X414308Y78964D01*
X414402Y78993D01*
X414500Y79002D01*
X431000D01*
X431098Y78993D01*
D02*
G37*
G36*
X393598D02*
X393692Y78964D01*
X393779Y78918D01*
X393855Y78855D01*
X393918Y78779D01*
X393964Y78692D01*
X393993Y78598D01*
X394002Y78500D01*
Y67000D01*
X393999Y66968D01*
X393998Y66937D01*
X393994Y66920D01*
X393993Y66902D01*
X393984Y66872D01*
X393977Y66841D01*
X393969Y66825D01*
X393964Y66808D01*
X393949Y66780D01*
X393937Y66751D01*
X393926Y66737D01*
X393918Y66721D01*
X393898Y66696D01*
X393880Y66671D01*
X393867Y66659D01*
X393855Y66645D01*
X393831Y66625D01*
X393808Y66603D01*
X393793Y66593D01*
X393779Y66582D01*
X393752Y66568D01*
X393725Y66551D01*
X389765Y64571D01*
X387808Y63103D01*
X385351Y61137D01*
X382409Y57705D01*
X380941Y55258D01*
X379965Y53307D01*
X377995Y47396D01*
X377505Y42002D01*
X377998Y37074D01*
X378490Y34610D01*
X378974Y32675D01*
X380443Y29737D01*
X382412Y26291D01*
X385354Y22859D01*
X388301Y20403D01*
X389753Y19435D01*
X393725Y17449D01*
X393752Y17433D01*
X393779Y17418D01*
X393793Y17407D01*
X393808Y17397D01*
X393831Y17375D01*
X393855Y17355D01*
X393867Y17341D01*
X393880Y17329D01*
X393898Y17304D01*
X393918Y17279D01*
X393926Y17263D01*
X393937Y17249D01*
X393949Y17220D01*
X393964Y17192D01*
X393969Y17175D01*
X393977Y17159D01*
X393984Y17128D01*
X393993Y17098D01*
X393994Y17080D01*
X393998Y17063D01*
X393999Y17032D01*
X394002Y17000D01*
Y5500D01*
X393993Y5402D01*
X393964Y5308D01*
X393918Y5221D01*
X393855Y5145D01*
X393779Y5082D01*
X393692Y5036D01*
X393598Y5007D01*
X393500Y4998D01*
X377000D01*
X376902Y5007D01*
X376808Y5036D01*
X376721Y5082D01*
X376645Y5145D01*
X376582Y5221D01*
X376536Y5308D01*
X376507Y5402D01*
X376498Y5500D01*
Y42000D01*
Y78500D01*
X376507Y78598D01*
X376536Y78692D01*
X376582Y78779D01*
X376645Y78855D01*
X376721Y78918D01*
X376808Y78964D01*
X376902Y78993D01*
X377000Y79002D01*
X393500D01*
X393598Y78993D01*
D02*
G37*
G36*
X1024430Y-384071D02*
X1025045Y-384133D01*
X1025629Y-384240D01*
X1026167Y-384394D01*
X1026659Y-384563D01*
X1027120Y-384748D01*
X1027535Y-384947D01*
X1027919Y-385147D01*
X1028257Y-385362D01*
X1028549Y-385562D01*
X1028795Y-385746D01*
X1029010Y-385915D01*
X1029164Y-386069D01*
X1029286Y-386177D01*
X1029348Y-386238D01*
X1029379Y-386269D01*
X1029686Y-386622D01*
X1029947Y-386991D01*
X1030178Y-387375D01*
X1030378Y-387744D01*
X1030546Y-388128D01*
X1030685Y-388497D01*
X1030792Y-388851D01*
X1030885Y-389189D01*
X1030961Y-389511D01*
X1031008Y-389803D01*
X1031054Y-390065D01*
X1031069Y-390295D01*
X1031084Y-390479D01*
X1031100Y-390602D01*
Y-394890D01*
X1015564D01*
Y-390695D01*
X1015579Y-390218D01*
X1015640Y-389757D01*
X1015733Y-389311D01*
X1015840Y-388897D01*
X1015979Y-388512D01*
X1016132Y-388144D01*
X1016301Y-387821D01*
X1016470Y-387514D01*
X1016624Y-387237D01*
X1016793Y-386991D01*
X1016947Y-386776D01*
X1017085Y-386607D01*
X1017193Y-386469D01*
X1017285Y-386361D01*
X1017346Y-386300D01*
X1017362Y-386284D01*
X1017792Y-385885D01*
X1018268Y-385547D01*
X1018775Y-385239D01*
X1019298Y-384993D01*
X1019836Y-384763D01*
X1020374Y-384594D01*
X1020896Y-384440D01*
X1021403Y-384317D01*
X1021895Y-384225D01*
X1022341Y-384164D01*
X1022740Y-384102D01*
X1022924Y-384087D01*
X1023093Y-384071D01*
X1023247Y-384056D01*
X1023385D01*
X1023508D01*
X1023601Y-384041D01*
X1023678D01*
X1023739D01*
X1023770D01*
X1023785D01*
X1024430Y-384071D01*
D02*
G37*
G36*
X974554Y-384594D02*
X974969Y-384655D01*
X975353Y-384732D01*
X975706Y-384855D01*
X976029Y-384978D01*
X976306Y-385132D01*
X976552Y-385285D01*
X976767Y-385454D01*
X976967Y-385624D01*
X977120Y-385777D01*
X977259Y-385931D01*
X977351Y-386054D01*
X977443Y-386161D01*
X977489Y-386254D01*
X977520Y-386315D01*
X977535Y-386330D01*
X977766Y-386054D01*
X978012Y-385823D01*
X978273Y-385608D01*
X978534Y-385439D01*
X978811Y-385285D01*
X979072Y-385163D01*
X979333Y-385055D01*
X979579Y-384978D01*
X979825Y-384901D01*
X980040Y-384855D01*
X980224Y-384824D01*
X980409Y-384809D01*
X980547Y-384794D01*
X980639Y-384778D01*
X980716D01*
X980732D01*
X981100Y-384794D01*
X981454Y-384840D01*
X981777Y-384901D01*
X982084Y-384978D01*
X982376Y-385086D01*
X982637Y-385193D01*
X982883Y-385316D01*
X983098Y-385439D01*
X983298Y-385562D01*
X983467Y-385685D01*
X983621Y-385793D01*
X983743Y-385900D01*
X983836Y-385977D01*
X983897Y-386038D01*
X983943Y-386085D01*
X983959Y-386100D01*
X984174Y-386361D01*
X984358Y-386638D01*
X984527Y-386945D01*
X984666Y-387237D01*
X984773Y-387544D01*
X984881Y-387852D01*
X984957Y-388144D01*
X985019Y-388436D01*
X985065Y-388712D01*
X985111Y-388958D01*
X985142Y-389173D01*
X985157Y-389373D01*
X985173Y-389542D01*
Y-394890D01*
X969606D01*
Y-389557D01*
X969621Y-389112D01*
X969652Y-388681D01*
X969713Y-388282D01*
X969806Y-387913D01*
X969898Y-387575D01*
X970021Y-387252D01*
X970159Y-386945D01*
X970313Y-386684D01*
X970466Y-386423D01*
X970651Y-386192D01*
X970835Y-385992D01*
X971020Y-385793D01*
X971219Y-385624D01*
X971434Y-385470D01*
X971634Y-385331D01*
X971849Y-385193D01*
X972264Y-384993D01*
X972679Y-384840D01*
X973048Y-384732D01*
X973386Y-384655D01*
X973540Y-384625D01*
X973678Y-384609D01*
X973801Y-384594D01*
X973893D01*
X973985Y-384579D01*
X974047D01*
X974078D01*
X974093D01*
X974554Y-384594D01*
D02*
G37*
%LPC*%
G36*
X1023893Y-386300D02*
X1023816D01*
X1023785D01*
X1023232Y-386315D01*
X1022709Y-386361D01*
X1022218Y-386438D01*
X1021757Y-386530D01*
X1021311Y-386653D01*
X1020911Y-386776D01*
X1020558Y-386914D01*
X1020220Y-387053D01*
X1019928Y-387206D01*
X1019667Y-387345D01*
X1019452Y-387467D01*
X1019267Y-387575D01*
X1019113Y-387683D01*
X1019021Y-387760D01*
X1018944Y-387806D01*
X1018929Y-387821D01*
X1018745Y-388036D01*
X1018591Y-388282D01*
X1018453Y-388512D01*
X1018330Y-388758D01*
X1018222Y-389004D01*
X1018145Y-389235D01*
X1018022Y-389696D01*
X1017976Y-389896D01*
X1017946Y-390095D01*
X1017915Y-390264D01*
X1017899Y-390403D01*
X1017884Y-390526D01*
Y-392631D01*
X1028764D01*
Y-390725D01*
X1028749Y-390418D01*
X1028718Y-390111D01*
X1028656Y-389819D01*
X1028580Y-389557D01*
X1028487Y-389296D01*
X1028395Y-389050D01*
X1028288Y-388820D01*
X1028180Y-388620D01*
X1028072Y-388436D01*
X1027965Y-388267D01*
X1027873Y-388113D01*
X1027781Y-387990D01*
X1027704Y-387898D01*
X1027642Y-387836D01*
X1027611Y-387790D01*
X1027596Y-387775D01*
X1027335Y-387514D01*
X1027043Y-387283D01*
X1026736Y-387083D01*
X1026428Y-386914D01*
X1026105Y-386776D01*
X1025783Y-386653D01*
X1025475Y-386561D01*
X1025183Y-386484D01*
X1024892Y-386423D01*
X1024630Y-386376D01*
X1024400Y-386346D01*
X1024185Y-386315D01*
X1024016D01*
X1023893Y-386300D01*
D02*
G37*
G36*
X980854Y-387037D02*
X980808D01*
X980778D01*
X980762D01*
X980393Y-387068D01*
X980086Y-387145D01*
X979809Y-387268D01*
X979579Y-387421D01*
X979379Y-387621D01*
X979210Y-387836D01*
X979072Y-388051D01*
X978964Y-388282D01*
X978872Y-388528D01*
X978811Y-388743D01*
X978764Y-388958D01*
X978734Y-389142D01*
X978718Y-389311D01*
X978703Y-389435D01*
Y-392631D01*
X982852D01*
Y-389757D01*
X982821Y-389311D01*
X982760Y-388912D01*
X982683Y-388559D01*
X982576Y-388282D01*
X982530Y-388159D01*
X982468Y-388051D01*
X982422Y-387959D01*
X982391Y-387898D01*
X982345Y-387836D01*
X982330Y-387790D01*
X982299Y-387775D01*
Y-387760D01*
X982191Y-387636D01*
X982084Y-387514D01*
X981838Y-387345D01*
X981577Y-387206D01*
X981331Y-387129D01*
X981100Y-387068D01*
X980931Y-387053D01*
X980854Y-387037D01*
D02*
G37*
G36*
X974201Y-386838D02*
X974139D01*
X974108D01*
X973909D01*
X973724Y-386868D01*
X973386Y-386960D01*
X973094Y-387083D01*
X972848Y-387268D01*
X972633Y-387467D01*
X972464Y-387698D01*
X972310Y-387944D01*
X972203Y-388190D01*
X972111Y-388451D01*
X972049Y-388697D01*
X971988Y-388927D01*
X971957Y-389127D01*
X971942Y-389311D01*
X971926Y-389435D01*
Y-392631D01*
X976383D01*
Y-389419D01*
X976352Y-389173D01*
X976321Y-388958D01*
X976291Y-388743D01*
X976168Y-388359D01*
X976029Y-388036D01*
X975860Y-387760D01*
X975660Y-387529D01*
X975461Y-387345D01*
X975246Y-387191D01*
X975030Y-387068D01*
X974831Y-386991D01*
X974631Y-386930D01*
X974462Y-386884D01*
X974324Y-386853D01*
X974201Y-386838D01*
D02*
G37*
%LPD*%
D12*
X981497Y-362063D02*
G03*
X981497Y-362063I-4103J0D01*
G01*
X1004476Y-366987D02*
G03*
X1004476Y-366987I-4103J0D01*
G01*
X1027455Y-362063D02*
G03*
X1027455Y-362063I-4103J0D01*
G01*
D13*
X965904Y-417869D02*
Y-414586D01*
Y-417869D02*
X1034841D01*
X965904Y-414586D02*
X1034841D01*
Y-417869D02*
Y-414586D01*
X977393Y-378476D02*
Y-366987D01*
X965904Y-399814D02*
Y-378476D01*
Y-399814D02*
X988883D01*
Y-378476D01*
X965904D02*
X988883D01*
X1000372Y-383400D02*
Y-371911D01*
X1011862Y-378476D02*
X1034841D01*
Y-399814D02*
Y-378476D01*
X1011862Y-399814D02*
X1034841D01*
X1011862D02*
Y-378476D01*
X1023351Y-378476D02*
Y-366987D01*
X995448Y-396531D02*
X1005296D01*
X995448Y-389966D02*
X1005296D01*
D14*
X-558299Y-34598D02*
D03*
X-532899D02*
D03*
Y-59998D02*
D03*
X-558299D02*
D03*
X-532899Y-85398D02*
D03*
X-558299D02*
D03*
X-532899Y-110798D02*
D03*
X-558299D02*
D03*
X-532899Y-136198D02*
D03*
X-558299D02*
D03*
X-532899Y-161598D02*
D03*
X-558299D02*
D03*
X-532899Y-186998D02*
D03*
X-558299D02*
D03*
X-532899Y-212398D02*
D03*
Y-9198D02*
D03*
Y16202D02*
D03*
Y41602D02*
D03*
Y67002D02*
D03*
Y92402D02*
D03*
Y117802D02*
D03*
Y143202D02*
D03*
Y168602D02*
D03*
Y194002D02*
D03*
Y219402D02*
D03*
Y244802D02*
D03*
Y270202D02*
D03*
Y295602D02*
D03*
Y321002D02*
D03*
Y346402D02*
D03*
Y371802D02*
D03*
Y397202D02*
D03*
Y422602D02*
D03*
X-558299Y-9198D02*
D03*
Y16202D02*
D03*
Y41602D02*
D03*
Y67002D02*
D03*
Y92402D02*
D03*
Y117802D02*
D03*
Y143202D02*
D03*
Y168602D02*
D03*
Y194002D02*
D03*
Y219402D02*
D03*
Y244802D02*
D03*
Y270202D02*
D03*
Y295602D02*
D03*
Y321002D02*
D03*
Y346402D02*
D03*
Y371802D02*
D03*
Y397202D02*
D03*
Y422602D02*
D03*
X178299Y473300D02*
D03*
X152899D02*
D03*
X127499D02*
D03*
X102099D02*
D03*
X76699D02*
D03*
X51299D02*
D03*
X25899D02*
D03*
X499D02*
D03*
X-24901D02*
D03*
X-50301D02*
D03*
X-75701D02*
D03*
X-101101D02*
D03*
X-126501D02*
D03*
X-151901D02*
D03*
X-177301D02*
D03*
X-202701D02*
D03*
X-228101D02*
D03*
X-253501D02*
D03*
X178299Y447900D02*
D03*
X152899D02*
D03*
X127499D02*
D03*
X102099D02*
D03*
X76699D02*
D03*
X51299D02*
D03*
X25899D02*
D03*
X499D02*
D03*
X-24901D02*
D03*
X-50301D02*
D03*
X-75701D02*
D03*
X-101101D02*
D03*
X-126501D02*
D03*
X-151901D02*
D03*
X-177301D02*
D03*
X-202701D02*
D03*
X-228101D02*
D03*
X-253501D02*
D03*
X-456701D02*
D03*
X-431301Y473300D02*
D03*
Y447900D02*
D03*
X-405901Y473300D02*
D03*
Y447900D02*
D03*
X-380501Y473300D02*
D03*
Y447900D02*
D03*
X-355101Y473300D02*
D03*
Y447900D02*
D03*
X-329701Y473300D02*
D03*
Y447900D02*
D03*
X-304301Y473300D02*
D03*
Y447900D02*
D03*
X-278901D02*
D03*
Y473300D02*
D03*
X178302Y-237900D02*
D03*
X152902D02*
D03*
X127502D02*
D03*
X102102D02*
D03*
X76702D02*
D03*
X51302D02*
D03*
X25902D02*
D03*
X502D02*
D03*
X-24898D02*
D03*
X-50298D02*
D03*
X-75698D02*
D03*
X-101098D02*
D03*
X-126498D02*
D03*
X-151898D02*
D03*
X-177298D02*
D03*
X-202698D02*
D03*
X-228098D02*
D03*
X-253498D02*
D03*
X178302Y-263300D02*
D03*
X152902D02*
D03*
X127502D02*
D03*
X102102D02*
D03*
X76702D02*
D03*
X51302D02*
D03*
X25902D02*
D03*
X502D02*
D03*
X-24898D02*
D03*
X-50298D02*
D03*
X-75698D02*
D03*
X-101098D02*
D03*
X-126498D02*
D03*
X-151898D02*
D03*
X-177298D02*
D03*
X-202698D02*
D03*
X-228098D02*
D03*
X-253498D02*
D03*
X-456698D02*
D03*
X-431298Y-237900D02*
D03*
Y-263300D02*
D03*
X-405898Y-237900D02*
D03*
Y-263300D02*
D03*
X-380498Y-237900D02*
D03*
Y-263300D02*
D03*
X-355098Y-237900D02*
D03*
Y-263300D02*
D03*
X-329698Y-237900D02*
D03*
Y-263300D02*
D03*
X-304298Y-237900D02*
D03*
Y-263300D02*
D03*
X-278898D02*
D03*
Y-237900D02*
D03*
X132000Y-682700D02*
D03*
D15*
X-558299Y-212398D02*
D03*
X132000Y-657300D02*
D03*
D16*
X-456701Y473300D02*
D03*
X-456698Y-237900D02*
D03*
D17*
X205001Y-625000D02*
D03*
X240000D02*
D03*
X40000D02*
D03*
X5001D02*
D03*
D18*
X275001D02*
D03*
X75001D02*
D03*
D19*
X1000000Y-500000D02*
D03*
Y500000D02*
D03*
X-1000000D02*
D03*
X343000Y-283000D02*
D03*
Y493000D02*
D03*
X-793000D02*
D03*
Y-283000D02*
D03*
X-1000000Y-500000D02*
D03*
D20*
X-169600Y-545800D02*
D03*
X-183450Y-574200D02*
D03*
X-197300Y-545800D02*
D03*
X-211150Y-574200D02*
D03*
X-225000Y-545800D02*
D03*
X-238850Y-574200D02*
D03*
X-252700Y-545800D02*
D03*
X-266550Y-574200D02*
D03*
D21*
X-280400Y-545800D02*
D03*
D22*
X-349950Y-560000D02*
D03*
X-100050D02*
D03*
D60*
X435750Y42000D02*
D03*
X372250D02*
D03*
D61*
X433000Y136500D02*
D03*
X419000D02*
D03*
X473998Y93000D02*
D03*
X459998D02*
D03*
X473998Y79000D02*
D03*
X459998D02*
D03*
X460002Y65000D02*
D03*
X474002D02*
D03*
X459998Y51000D02*
D03*
X473998D02*
D03*
X459998Y30000D02*
D03*
X473998D02*
D03*
X459998Y16000D02*
D03*
X473998D02*
D03*
X474002Y106998D02*
D03*
X460002D02*
D03*
X419000Y122000D02*
D03*
X433000D02*
D03*
X402003Y105000D02*
D03*
X388003D02*
D03*
X325002Y-616000D02*
D03*
X311002D02*
D03*
X325002Y-642000D02*
D03*
X311002D02*
D03*
X325002Y-629000D02*
D03*
X311002D02*
D03*
X251002Y-397000D02*
D03*
X237002D02*
D03*
X23998Y-49000D02*
D03*
X37998D02*
D03*
D62*
X220375Y23000D02*
D03*
D63*
X199625Y32500D02*
D03*
Y13500D02*
D03*
D64*
X193000Y-23998D02*
D03*
Y-9998D02*
D03*
X313131Y226003D02*
D03*
Y212003D02*
D03*
X326131Y212000D02*
D03*
Y226000D02*
D03*
X326000Y192002D02*
D03*
Y178002D02*
D03*
X313000Y192002D02*
D03*
Y178002D02*
D03*
X300000Y192002D02*
D03*
Y178002D02*
D03*
X287000Y192002D02*
D03*
Y178002D02*
D03*
X287131Y212000D02*
D03*
Y226000D02*
D03*
X300131Y212000D02*
D03*
Y226000D02*
D03*
X268000Y192002D02*
D03*
Y178002D02*
D03*
X140000Y-632998D02*
D03*
Y-618998D02*
D03*
X125000Y-632998D02*
D03*
Y-618998D02*
D03*
X-18496Y7996D02*
D03*
Y21996D02*
D03*
X-48496Y7996D02*
D03*
Y21996D02*
D03*
X-78496Y7996D02*
D03*
Y21996D02*
D03*
X-33496Y7996D02*
D03*
Y21996D02*
D03*
X-63496Y7996D02*
D03*
Y21996D02*
D03*
X-93496Y7996D02*
D03*
Y21996D02*
D03*
X-437000Y-564002D02*
D03*
Y-550002D02*
D03*
X-453000Y-549998D02*
D03*
Y-563998D02*
D03*
X-350000Y-502002D02*
D03*
Y-516002D02*
D03*
X107000Y13998D02*
D03*
Y27998D02*
D03*
X94000Y13998D02*
D03*
Y27998D02*
D03*
X133000Y13998D02*
D03*
Y27998D02*
D03*
X146000Y13998D02*
D03*
Y27998D02*
D03*
X185000Y13998D02*
D03*
Y27998D02*
D03*
X159000Y28002D02*
D03*
Y14002D02*
D03*
X172000Y28002D02*
D03*
Y14002D02*
D03*
X-254710Y-392248D02*
D03*
Y-406248D02*
D03*
X-240000Y-407002D02*
D03*
Y-393002D02*
D03*
X-212500Y-517002D02*
D03*
Y-503002D02*
D03*
X-227500Y-517002D02*
D03*
Y-503002D02*
D03*
X-242500Y-517002D02*
D03*
Y-503002D02*
D03*
X-257500Y-517002D02*
D03*
Y-503002D02*
D03*
X-185000Y-502998D02*
D03*
Y-516998D02*
D03*
X-197500Y-502998D02*
D03*
Y-516998D02*
D03*
X27000Y-414998D02*
D03*
Y-428998D02*
D03*
X40000Y-414998D02*
D03*
Y-428998D02*
D03*
X79000Y-414998D02*
D03*
Y-428998D02*
D03*
X53000Y-429002D02*
D03*
Y-415002D02*
D03*
X66000Y-429002D02*
D03*
Y-415002D02*
D03*
X47000Y-542002D02*
D03*
Y-528002D02*
D03*
X61000Y-542002D02*
D03*
Y-528002D02*
D03*
X210000Y-463998D02*
D03*
Y-477998D02*
D03*
X210000Y-429002D02*
D03*
Y-415002D02*
D03*
X278000Y-429002D02*
D03*
Y-415002D02*
D03*
Y-478002D02*
D03*
Y-464002D02*
D03*
X4000Y-93002D02*
D03*
Y-79002D02*
D03*
X20000Y-496998D02*
D03*
Y-510998D02*
D03*
X-216000Y-406002D02*
D03*
Y-392002D02*
D03*
X-191000Y-406002D02*
D03*
Y-392002D02*
D03*
X-271000Y-479002D02*
D03*
Y-465002D02*
D03*
X-83996Y-75002D02*
D03*
Y-89003D02*
D03*
X120000Y13998D02*
D03*
Y27998D02*
D03*
X507000Y204002D02*
D03*
Y218002D02*
D03*
D65*
X474750Y161500D02*
D03*
X715250D02*
D03*
X343655Y126600D02*
D03*
X253155D02*
D03*
D66*
X532500Y180500D02*
D03*
X542500D02*
D03*
X547500D02*
D03*
X562500D02*
D03*
X567500D02*
D03*
X582500D02*
D03*
X587500D02*
D03*
X602500D02*
D03*
X607500D02*
D03*
X622500D02*
D03*
X627500D02*
D03*
X652500D02*
D03*
X657500D02*
D03*
X662500D02*
D03*
X667500D02*
D03*
X672500D02*
D03*
X677500D02*
D03*
X682500D02*
D03*
X687500D02*
D03*
X692500D02*
D03*
X647500D02*
D03*
X642500D02*
D03*
X637500D02*
D03*
X632500D02*
D03*
X617500D02*
D03*
X612500D02*
D03*
X597500D02*
D03*
X592500D02*
D03*
X577500D02*
D03*
X572500D02*
D03*
X557500D02*
D03*
X552500D02*
D03*
X537500D02*
D03*
X527500D02*
D03*
X522500D02*
D03*
X517500D02*
D03*
X512500D02*
D03*
X507500D02*
D03*
X502500D02*
D03*
X497500D02*
D03*
X275905Y145600D02*
D03*
X280905D02*
D03*
X285905D02*
D03*
X320905D02*
D03*
X315905D02*
D03*
X310905D02*
D03*
X305905D02*
D03*
X300905D02*
D03*
X295905D02*
D03*
X290905D02*
D03*
D67*
X-452500Y-585000D02*
D03*
Y-675000D02*
D03*
X-407500Y-585000D02*
D03*
Y-675000D02*
D03*
D68*
X-70050Y-30500D02*
D03*
X-57350D02*
D03*
X-44650D02*
D03*
X-31950D02*
D03*
X-70050Y-79500D02*
D03*
X-57350D02*
D03*
X-44650D02*
D03*
X-31950D02*
D03*
X73050Y-501500D02*
D03*
X60350D02*
D03*
X47650D02*
D03*
X34950D02*
D03*
X73050Y-452500D02*
D03*
X60350D02*
D03*
X47650D02*
D03*
X34950D02*
D03*
X263050Y-469500D02*
D03*
X250350D02*
D03*
X237650D02*
D03*
X224950D02*
D03*
X263050Y-420500D02*
D03*
X250350D02*
D03*
X237650D02*
D03*
X224950D02*
D03*
D69*
X69200Y-10500D02*
D03*
X81900D02*
D03*
X94600D02*
D03*
X107300D02*
D03*
X120000D02*
D03*
X132700D02*
D03*
X145400D02*
D03*
X158100D02*
D03*
X170800D02*
D03*
X69200Y-101500D02*
D03*
X81900D02*
D03*
X94600D02*
D03*
X107300D02*
D03*
X120000D02*
D03*
X132700D02*
D03*
X145400D02*
D03*
X158100D02*
D03*
X170800D02*
D03*
D70*
X38001Y-88998D02*
D03*
X21999D02*
D03*
X38001Y-67002D02*
D03*
X21999D02*
D03*
D71*
X429002Y98000D02*
D03*
D72*
X436502Y106750D02*
D03*
X431502D02*
D03*
X426502D02*
D03*
X421502D02*
D03*
Y89250D02*
D03*
X426502D02*
D03*
X431502D02*
D03*
X436502D02*
D03*
D73*
X405502Y128000D02*
D03*
X378502D02*
D03*
D74*
X31505Y-572000D02*
D03*
X78495D02*
D03*
D75*
X231300Y-504500D02*
D03*
X256700D02*
D03*
X231300Y-579500D02*
D03*
X256700D02*
D03*
D76*
X186000Y-524505D02*
D03*
Y-571495D02*
D03*
X302000Y-524505D02*
D03*
Y-571495D02*
D03*
X121000D02*
D03*
Y-524505D02*
D03*
X-14000Y-571495D02*
D03*
Y-524505D02*
D03*
D77*
X-254450Y-426500D02*
D03*
X-241750D02*
D03*
X-229050D02*
D03*
X-216350D02*
D03*
X-203650D02*
D03*
X-190950D02*
D03*
X-178250D02*
D03*
X-165550D02*
D03*
X-254450Y-473500D02*
D03*
X-241750D02*
D03*
X-229050D02*
D03*
X-216350D02*
D03*
X-203650D02*
D03*
X-190950D02*
D03*
X-178250D02*
D03*
X-165550D02*
D03*
D78*
X-890400Y-549600D02*
D03*
X890400D02*
D03*
Y549600D02*
D03*
M02*
