G04*
G04 #@! TF.GenerationSoftware,Altium Limited,Altium Designer,20.0.11 (256)*
G04*
G04 Layer_Color=128*
%FSLAX44Y44*%
%MOMM*%
G71*
G01*
G75*
%ADD40R,0.9500X7.3000*%
%ADD41R,0.8000X0.9000*%
%ADD42R,1.1000X0.6500*%
%ADD43R,0.9000X0.6500*%
%ADD44R,0.9000X0.8000*%
%ADD45R,1.6500X1.3000*%
%ADD46R,0.3000X1.0000*%
%ADD47R,1.2000X2.4000*%
%ADD48O,0.7000X2.5000*%
%ADD49O,0.6000X2.3000*%
%ADD50R,1.1498X1.3995*%
%ADD51R,2.1500X0.5600*%
G04:AMPARAMS|DCode=52|XSize=0.25mm|YSize=0.7mm|CornerRadius=0.0625mm|HoleSize=0mm|Usage=FLASHONLY|Rotation=180.000|XOffset=0mm|YOffset=0mm|HoleType=Round|Shape=RoundedRectangle|*
%AMROUNDEDRECTD52*
21,1,0.2500,0.5750,0,0,180.0*
21,1,0.1250,0.7000,0,0,180.0*
1,1,0.1250,-0.0625,0.2875*
1,1,0.1250,0.0625,0.2875*
1,1,0.1250,0.0625,-0.2875*
1,1,0.1250,-0.0625,-0.2875*
%
%ADD52ROUNDEDRECTD52*%
%ADD53R,1.1000X2.6000*%
%ADD54R,2.6162X2.7432*%
%ADD55R,1.2000X2.0000*%
%ADD56R,2.7432X2.6162*%
%ADD57O,0.6000X1.9000*%
%ADD58C,1.0000*%
G36*
X606000Y-316500D02*
X605500Y-311500D01*
X605000Y-309500D01*
X604500Y-307500D01*
X603500Y-305000D01*
X602500Y-303000D01*
X601000Y-300500D01*
X599000Y-298000D01*
X598500Y-297500D01*
X596000Y-295500D01*
X592500Y-293000D01*
X589500Y-291500D01*
Y-280000D01*
X606000D01*
Y-316500D01*
D02*
G37*
G36*
X568500Y-291500D02*
X564500Y-293500D01*
X562500Y-295000D01*
X560000Y-297000D01*
X557000Y-300500D01*
X555500Y-303000D01*
X554500Y-305000D01*
X552500Y-311000D01*
X552000Y-316500D01*
Y-280000D01*
X568500D01*
Y-291500D01*
D02*
G37*
G36*
X606000Y-353000D02*
X589500D01*
Y-341500D01*
X592500Y-340000D01*
X595500Y-338000D01*
X599000Y-335000D01*
X602000Y-331000D01*
X604500Y-326000D01*
X605500Y-322000D01*
X606000Y-316500D01*
Y-353000D01*
D02*
G37*
G36*
X552500Y-321500D02*
X553000Y-324000D01*
X553500Y-326000D01*
X555000Y-329000D01*
X557000Y-332500D01*
X560000Y-336000D01*
X563000Y-338500D01*
X564500Y-339500D01*
X568500Y-341500D01*
Y-353000D01*
X552000D01*
Y-316500D01*
X552500Y-321500D01*
D02*
G37*
D40*
X610750Y-316500D02*
D03*
X547250D02*
D03*
D41*
X608000Y-222000D02*
D03*
X594000D02*
D03*
X648998Y-265500D02*
D03*
X634998D02*
D03*
X648998Y-279500D02*
D03*
X634998D02*
D03*
X635002Y-293500D02*
D03*
X649002D02*
D03*
X634998Y-307500D02*
D03*
X648998D02*
D03*
X634998Y-328500D02*
D03*
X648998D02*
D03*
X634998Y-342500D02*
D03*
X648998D02*
D03*
X649002Y-251502D02*
D03*
X635002D02*
D03*
X594000Y-236500D02*
D03*
X608000D02*
D03*
X577003Y-253500D02*
D03*
X563003D02*
D03*
X325002Y-616000D02*
D03*
X311002D02*
D03*
X325002Y-642000D02*
D03*
X311002D02*
D03*
X325002Y-629000D02*
D03*
X311002D02*
D03*
X251002Y-397000D02*
D03*
X237002D02*
D03*
X-58002Y131899D02*
D03*
X-44002D02*
D03*
X588750Y-200750D02*
D03*
X574750D02*
D03*
D42*
X138375Y203899D02*
D03*
D43*
X117625Y213400D02*
D03*
Y194400D02*
D03*
D44*
X111000Y156901D02*
D03*
Y170901D02*
D03*
X247320Y-238079D02*
D03*
Y-224079D02*
D03*
X260574Y-223967D02*
D03*
Y-237967D02*
D03*
X247404Y-203941D02*
D03*
Y-189942D02*
D03*
X260404Y-203941D02*
D03*
Y-189942D02*
D03*
X273404Y-203941D02*
D03*
Y-189942D02*
D03*
X286404Y-203941D02*
D03*
Y-189942D02*
D03*
X286274Y-223940D02*
D03*
Y-237940D02*
D03*
X273274Y-223940D02*
D03*
Y-237940D02*
D03*
X305404Y-203941D02*
D03*
Y-189942D02*
D03*
X140000Y-632998D02*
D03*
Y-618998D02*
D03*
X125000Y-632998D02*
D03*
Y-618998D02*
D03*
X-100496Y188895D02*
D03*
Y202895D02*
D03*
X-130496Y188895D02*
D03*
Y202895D02*
D03*
X-160496Y188895D02*
D03*
Y202895D02*
D03*
X-115496Y188895D02*
D03*
Y202895D02*
D03*
X-145496Y188895D02*
D03*
Y202895D02*
D03*
X-175496Y188895D02*
D03*
Y202895D02*
D03*
X-437000Y-564002D02*
D03*
Y-550002D02*
D03*
X-453000Y-549998D02*
D03*
Y-563998D02*
D03*
X-350000Y-502002D02*
D03*
Y-516002D02*
D03*
X25000Y194898D02*
D03*
Y208898D02*
D03*
X12000Y194898D02*
D03*
Y208898D02*
D03*
X51000Y194898D02*
D03*
Y208898D02*
D03*
X64000Y194898D02*
D03*
Y208898D02*
D03*
X103000Y194898D02*
D03*
Y208898D02*
D03*
X77000Y208901D02*
D03*
Y194901D02*
D03*
X90000Y208901D02*
D03*
Y194901D02*
D03*
X-254710Y-392248D02*
D03*
Y-406248D02*
D03*
X-240000Y-407002D02*
D03*
Y-393002D02*
D03*
X-212500Y-517002D02*
D03*
Y-503002D02*
D03*
X-227500Y-517002D02*
D03*
Y-503002D02*
D03*
X-242500Y-517002D02*
D03*
Y-503002D02*
D03*
X-257500Y-517002D02*
D03*
Y-503002D02*
D03*
X-185000Y-502998D02*
D03*
Y-516998D02*
D03*
X-197500Y-502998D02*
D03*
Y-516998D02*
D03*
X27000Y-414998D02*
D03*
Y-428998D02*
D03*
X40000Y-414998D02*
D03*
Y-428998D02*
D03*
X79000Y-414998D02*
D03*
Y-428998D02*
D03*
X53000Y-429002D02*
D03*
Y-415002D02*
D03*
X66000Y-429002D02*
D03*
Y-415002D02*
D03*
X47000Y-542002D02*
D03*
Y-528002D02*
D03*
X61000Y-542002D02*
D03*
Y-528002D02*
D03*
X210000Y-463998D02*
D03*
Y-477998D02*
D03*
X210000Y-429002D02*
D03*
Y-415002D02*
D03*
X278000Y-429002D02*
D03*
Y-415002D02*
D03*
Y-478002D02*
D03*
Y-464002D02*
D03*
X-78000Y87898D02*
D03*
Y101898D02*
D03*
X20000Y-496998D02*
D03*
Y-510998D02*
D03*
X-216000Y-406002D02*
D03*
Y-392002D02*
D03*
X-191000Y-406002D02*
D03*
Y-392002D02*
D03*
X-271000Y-479002D02*
D03*
Y-465002D02*
D03*
X-165996Y105897D02*
D03*
Y91897D02*
D03*
X38000Y194898D02*
D03*
Y208898D02*
D03*
D45*
X635250Y-159000D02*
D03*
X394750D02*
D03*
X229750Y-138540D02*
D03*
X320250D02*
D03*
D46*
X577500Y-178000D02*
D03*
X567500D02*
D03*
X562500D02*
D03*
X547500D02*
D03*
X542500D02*
D03*
X527500D02*
D03*
X522500D02*
D03*
X507500D02*
D03*
X502500D02*
D03*
X487500D02*
D03*
X482500D02*
D03*
X457500D02*
D03*
X452500D02*
D03*
X447500D02*
D03*
X442500D02*
D03*
X437500D02*
D03*
X432500D02*
D03*
X427500D02*
D03*
X422500D02*
D03*
X417500D02*
D03*
X462500D02*
D03*
X467500D02*
D03*
X472500D02*
D03*
X477500D02*
D03*
X492500D02*
D03*
X497500D02*
D03*
X512500D02*
D03*
X517500D02*
D03*
X532500D02*
D03*
X537500D02*
D03*
X552500D02*
D03*
X557500D02*
D03*
X572500D02*
D03*
X582500D02*
D03*
X587500D02*
D03*
X592500D02*
D03*
X597500D02*
D03*
X602500D02*
D03*
X607500D02*
D03*
X612500D02*
D03*
X297500Y-157540D02*
D03*
X292500D02*
D03*
X287500D02*
D03*
X252500D02*
D03*
X257500D02*
D03*
X262500D02*
D03*
X267500D02*
D03*
X272500D02*
D03*
X277500D02*
D03*
X282500D02*
D03*
D47*
X-452500Y-585000D02*
D03*
Y-675000D02*
D03*
X-407500Y-585000D02*
D03*
Y-675000D02*
D03*
D48*
X-152050Y150400D02*
D03*
X-139350D02*
D03*
X-126650D02*
D03*
X-113950D02*
D03*
X-152050Y101399D02*
D03*
X-139350D02*
D03*
X-126650D02*
D03*
X-113950D02*
D03*
X73050Y-501500D02*
D03*
X60350D02*
D03*
X47650D02*
D03*
X34950D02*
D03*
X73050Y-452500D02*
D03*
X60350D02*
D03*
X47650D02*
D03*
X34950D02*
D03*
X263050Y-469500D02*
D03*
X250350D02*
D03*
X237650D02*
D03*
X224950D02*
D03*
X263050Y-420500D02*
D03*
X250350D02*
D03*
X237650D02*
D03*
X224950D02*
D03*
D49*
X-12800Y170399D02*
D03*
X-100D02*
D03*
X12600D02*
D03*
X25300D02*
D03*
X38000D02*
D03*
X50700D02*
D03*
X63400D02*
D03*
X76100D02*
D03*
X88800D02*
D03*
X-12800Y79399D02*
D03*
X-100D02*
D03*
X12600D02*
D03*
X25300D02*
D03*
X38000D02*
D03*
X50700D02*
D03*
X63400D02*
D03*
X76100D02*
D03*
X88800D02*
D03*
D50*
X-43999Y91901D02*
D03*
X-60001D02*
D03*
X-43999Y113898D02*
D03*
X-60001D02*
D03*
D51*
X604002Y-260500D02*
D03*
D52*
X611502Y-251750D02*
D03*
X606502D02*
D03*
X601502D02*
D03*
X596502D02*
D03*
Y-269250D02*
D03*
X601502D02*
D03*
X606502D02*
D03*
X611502D02*
D03*
D53*
X580502Y-230500D02*
D03*
X553502D02*
D03*
D54*
X31505Y-572000D02*
D03*
X78495D02*
D03*
D55*
X231300Y-504500D02*
D03*
X256700D02*
D03*
X231300Y-579500D02*
D03*
X256700D02*
D03*
D56*
X186000Y-524505D02*
D03*
Y-571495D02*
D03*
X302000Y-524505D02*
D03*
Y-571495D02*
D03*
X121000D02*
D03*
Y-524505D02*
D03*
X-14000Y-571495D02*
D03*
Y-524505D02*
D03*
D57*
X-254450Y-426500D02*
D03*
X-241750D02*
D03*
X-229050D02*
D03*
X-216350D02*
D03*
X-203650D02*
D03*
X-190950D02*
D03*
X-178250D02*
D03*
X-165550D02*
D03*
X-254450Y-473500D02*
D03*
X-241750D02*
D03*
X-229050D02*
D03*
X-216350D02*
D03*
X-203650D02*
D03*
X-190950D02*
D03*
X-178250D02*
D03*
X-165550D02*
D03*
D58*
X-890400Y-549600D02*
D03*
X890400D02*
D03*
Y549600D02*
D03*
M02*
