G04*
G04 #@! TF.GenerationSoftware,Altium Limited,Altium Designer,20.0.11 (256)*
G04*
G04 Layer_Physical_Order=1*
G04 Layer_Color=3162822*
%FSLAX44Y44*%
%MOMM*%
G71*
G01*
G75*
%ADD10C,0.2500*%
%ADD11C,0.4500*%
%ADD23C,0.6500*%
%ADD24C,1.5000*%
%ADD25C,0.8500*%
%ADD26C,0.3500*%
%ADD27C,0.5500*%
%ADD28C,1.0000*%
%ADD29C,0.1500*%
%ADD30C,1.5000*%
%ADD31R,1.5000X1.5000*%
%ADD32R,1.5000X1.5000*%
%ADD33C,1.9000*%
%ADD34R,1.9000X1.9000*%
%ADD35C,6.0000*%
%ADD36C,1.6900*%
%ADD37R,1.6900X1.6900*%
%ADD38C,4.7600*%
%ADD39C,0.6000*%
G36*
X902246Y700124D02*
X914020Y698730D01*
X925648Y696418D01*
X937058Y693199D01*
X948181Y689096D01*
X958948Y684133D01*
X969292Y678340D01*
X979149Y671753D01*
X988460Y664413D01*
X997166Y656366D01*
X1005213Y647660D01*
X1012553Y638349D01*
X1019140Y628492D01*
X1024932Y618148D01*
X1029896Y607381D01*
X1033999Y596258D01*
X1037218Y584848D01*
X1039530Y573220D01*
X1040924Y561446D01*
X1041374Y549992D01*
X1041322Y549600D01*
Y-549600D01*
X1041374Y-549992D01*
X1040924Y-561446D01*
X1039530Y-573220D01*
X1037218Y-584848D01*
X1033999Y-596258D01*
X1029896Y-607381D01*
X1024932Y-618148D01*
X1019140Y-628492D01*
X1012553Y-638349D01*
X1005213Y-647660D01*
X997166Y-656366D01*
X988460Y-664413D01*
X979149Y-671753D01*
X969292Y-678340D01*
X958948Y-684133D01*
X948181Y-689096D01*
X937058Y-693199D01*
X925648Y-696418D01*
X914020Y-698730D01*
X902246Y-700124D01*
X890792Y-700574D01*
X890400Y-700522D01*
X-890400D01*
X-890792Y-700574D01*
X-902246Y-700124D01*
X-914020Y-698730D01*
X-925648Y-696418D01*
X-937058Y-693199D01*
X-948181Y-689096D01*
X-958948Y-684133D01*
X-969292Y-678340D01*
X-979149Y-671753D01*
X-988460Y-664413D01*
X-997166Y-656366D01*
X-1005213Y-647660D01*
X-1012553Y-638349D01*
X-1019140Y-628492D01*
X-1024932Y-618148D01*
X-1029896Y-607381D01*
X-1033999Y-596258D01*
X-1037218Y-584848D01*
X-1039530Y-573220D01*
X-1040924Y-561446D01*
X-1041374Y-549992D01*
X-1041322Y-549600D01*
Y549600D01*
X-1041374Y549992D01*
X-1040924Y561446D01*
X-1039530Y573220D01*
X-1037218Y584848D01*
X-1033999Y596258D01*
X-1029896Y607381D01*
X-1024932Y618148D01*
X-1019140Y628492D01*
X-1012553Y638349D01*
X-1005213Y647660D01*
X-997166Y656366D01*
X-988460Y664413D01*
X-979149Y671753D01*
X-969292Y678340D01*
X-958948Y684133D01*
X-948181Y689096D01*
X-937058Y693199D01*
X-925648Y696418D01*
X-914020Y698730D01*
X-902246Y700124D01*
X-890792Y700574D01*
X-890400Y700522D01*
X890400D01*
X890792Y700574D01*
X902246Y700124D01*
D02*
G37*
%LPC*%
G36*
X152899Y487421D02*
X149244Y486940D01*
X145838Y485529D01*
X142914Y483285D01*
X140950Y480727D01*
X140607Y480624D01*
X139790D01*
X139447Y480727D01*
X137484Y483285D01*
X134559Y485529D01*
X131153Y486940D01*
X127499Y487421D01*
X123844Y486940D01*
X120438Y485529D01*
X117514Y483285D01*
X115550Y480727D01*
X115207Y480624D01*
X114390D01*
X114047Y480727D01*
X112084Y483285D01*
X109159Y485529D01*
X105753Y486940D01*
X102099Y487421D01*
X98444Y486940D01*
X95038Y485529D01*
X92114Y483285D01*
X90150Y480727D01*
X89807Y480624D01*
X88990D01*
X88647Y480727D01*
X86684Y483285D01*
X83759Y485529D01*
X80353Y486940D01*
X76699Y487421D01*
X73044Y486940D01*
X69638Y485529D01*
X66714Y483285D01*
X64750Y480727D01*
X64407Y480624D01*
X63590D01*
X63247Y480727D01*
X61283Y483285D01*
X58359Y485529D01*
X54953Y486940D01*
X51299Y487421D01*
X47644Y486940D01*
X44238Y485529D01*
X41314Y483285D01*
X39351Y480727D01*
X39007Y480624D01*
X38190D01*
X37847Y480727D01*
X35884Y483285D01*
X32959Y485529D01*
X29553Y486940D01*
X25899Y487421D01*
X22244Y486940D01*
X18838Y485529D01*
X15914Y483285D01*
X13951Y480727D01*
X13607Y480624D01*
X12790D01*
X12447Y480727D01*
X10483Y483285D01*
X7559Y485529D01*
X4153Y486940D01*
X499Y487421D01*
X-3156Y486940D01*
X-6562Y485529D01*
X-9486Y483285D01*
X-11450Y480727D01*
X-11793Y480624D01*
X-12610D01*
X-12953Y480727D01*
X-14916Y483285D01*
X-17841Y485529D01*
X-21247Y486940D01*
X-24901Y487421D01*
X-28556Y486940D01*
X-31962Y485529D01*
X-34886Y483285D01*
X-36850Y480727D01*
X-37193Y480624D01*
X-38010D01*
X-38353Y480727D01*
X-40317Y483285D01*
X-43241Y485529D01*
X-46647Y486940D01*
X-50301Y487421D01*
X-53956Y486940D01*
X-57362Y485529D01*
X-60286Y483285D01*
X-62249Y480727D01*
X-62593Y480624D01*
X-63410D01*
X-63753Y480727D01*
X-65717Y483285D01*
X-68641Y485529D01*
X-72047Y486940D01*
X-75701Y487421D01*
X-79356Y486940D01*
X-82762Y485529D01*
X-85686Y483285D01*
X-87649Y480727D01*
X-87993Y480624D01*
X-88810D01*
X-89153Y480727D01*
X-91117Y483285D01*
X-94041Y485529D01*
X-97447Y486940D01*
X-101101Y487421D01*
X-104756Y486940D01*
X-108162Y485529D01*
X-111086Y483285D01*
X-113049Y480727D01*
X-113393Y480624D01*
X-114210D01*
X-114553Y480727D01*
X-116517Y483285D01*
X-119441Y485529D01*
X-122847Y486940D01*
X-126501Y487421D01*
X-130156Y486940D01*
X-133562Y485529D01*
X-136486Y483285D01*
X-138449Y480727D01*
X-138793Y480624D01*
X-139610D01*
X-139953Y480727D01*
X-141917Y483285D01*
X-144841Y485529D01*
X-148247Y486940D01*
X-151901Y487421D01*
X-155556Y486940D01*
X-158962Y485529D01*
X-161886Y483285D01*
X-163850Y480727D01*
X-164193Y480624D01*
X-165010D01*
X-165353Y480727D01*
X-167316Y483285D01*
X-170241Y485529D01*
X-173647Y486940D01*
X-177301Y487421D01*
X-180956Y486940D01*
X-184362Y485529D01*
X-187286Y483285D01*
X-189249Y480727D01*
X-189593Y480624D01*
X-190410D01*
X-190753Y480727D01*
X-192717Y483285D01*
X-195641Y485529D01*
X-199047Y486940D01*
X-202701Y487421D01*
X-206356Y486940D01*
X-209762Y485529D01*
X-212686Y483285D01*
X-214650Y480727D01*
X-214993Y480624D01*
X-215810D01*
X-216153Y480727D01*
X-218116Y483285D01*
X-221041Y485529D01*
X-224447Y486940D01*
X-228101Y487421D01*
X-231756Y486940D01*
X-235162Y485529D01*
X-238086Y483285D01*
X-240049Y480727D01*
X-240393Y480624D01*
X-241210D01*
X-241553Y480727D01*
X-243517Y483285D01*
X-246441Y485529D01*
X-249847Y486940D01*
X-253501Y487421D01*
X-257156Y486940D01*
X-260562Y485529D01*
X-263486Y483285D01*
X-265450Y480727D01*
X-265793Y480624D01*
X-266610D01*
X-266953Y480727D01*
X-268916Y483285D01*
X-271841Y485529D01*
X-275247Y486940D01*
X-278901Y487421D01*
X-282556Y486940D01*
X-285962Y485529D01*
X-288886Y483285D01*
X-290849Y480727D01*
X-291193Y480624D01*
X-292010D01*
X-292353Y480727D01*
X-294317Y483285D01*
X-297241Y485529D01*
X-300647Y486940D01*
X-304301Y487421D01*
X-307956Y486940D01*
X-311362Y485529D01*
X-314286Y483285D01*
X-316250Y480727D01*
X-316593Y480624D01*
X-317410D01*
X-317753Y480727D01*
X-319716Y483285D01*
X-322641Y485529D01*
X-326047Y486940D01*
X-329701Y487421D01*
X-333356Y486940D01*
X-336762Y485529D01*
X-339686Y483285D01*
X-341650Y480727D01*
X-341993Y480624D01*
X-342810D01*
X-343153Y480727D01*
X-345117Y483285D01*
X-348041Y485529D01*
X-351447Y486940D01*
X-355101Y487421D01*
X-358756Y486940D01*
X-362162Y485529D01*
X-365086Y483285D01*
X-367049Y480727D01*
X-367393Y480624D01*
X-368210D01*
X-368553Y480727D01*
X-370517Y483285D01*
X-373441Y485529D01*
X-376847Y486940D01*
X-380501Y487421D01*
X-384156Y486940D01*
X-387562Y485529D01*
X-390486Y483285D01*
X-392449Y480727D01*
X-392793Y480624D01*
X-393610D01*
X-393953Y480727D01*
X-395916Y483285D01*
X-398841Y485529D01*
X-402247Y486940D01*
X-405901Y487421D01*
X-409556Y486940D01*
X-412962Y485529D01*
X-415886Y483285D01*
X-417850Y480727D01*
X-418193Y480624D01*
X-419010D01*
X-419353Y480727D01*
X-421316Y483285D01*
X-424241Y485529D01*
X-427647Y486940D01*
X-431301Y487421D01*
X-434956Y486940D01*
X-438362Y485529D01*
X-441286Y483285D01*
X-443530Y480360D01*
X-444431Y478185D01*
X-445701Y478438D01*
Y484300D01*
X-454201D01*
Y473300D01*
X-456701D01*
Y470800D01*
X-467701D01*
Y462300D01*
X-461839D01*
X-461586Y461030D01*
X-463762Y460129D01*
X-466686Y457885D01*
X-468930Y454960D01*
X-470341Y451555D01*
X-470822Y447900D01*
X-470341Y444245D01*
X-468930Y440840D01*
X-466686Y437915D01*
X-463762Y435671D01*
X-460356Y434260D01*
X-456701Y433779D01*
X-453047Y434260D01*
X-449641Y435671D01*
X-446716Y437915D01*
X-444753Y440474D01*
X-444410Y440576D01*
X-443593D01*
X-443250Y440474D01*
X-441286Y437915D01*
X-438362Y435671D01*
X-434956Y434260D01*
X-431301Y433779D01*
X-427647Y434260D01*
X-424241Y435671D01*
X-421316Y437915D01*
X-419353Y440474D01*
X-419010Y440576D01*
X-418193D01*
X-417850Y440474D01*
X-415886Y437915D01*
X-412962Y435671D01*
X-409556Y434260D01*
X-405901Y433779D01*
X-402247Y434260D01*
X-398841Y435671D01*
X-395916Y437915D01*
X-393953Y440474D01*
X-393610Y440576D01*
X-392793D01*
X-392449Y440474D01*
X-390486Y437915D01*
X-387562Y435671D01*
X-384156Y434260D01*
X-380501Y433779D01*
X-376847Y434260D01*
X-373441Y435671D01*
X-370517Y437915D01*
X-368553Y440474D01*
X-368210Y440576D01*
X-367393D01*
X-367049Y440474D01*
X-365086Y437915D01*
X-362162Y435671D01*
X-358756Y434260D01*
X-355101Y433779D01*
X-351447Y434260D01*
X-348041Y435671D01*
X-345117Y437915D01*
X-343153Y440474D01*
X-342810Y440576D01*
X-341993D01*
X-341650Y440474D01*
X-339686Y437915D01*
X-336762Y435671D01*
X-333356Y434260D01*
X-329701Y433779D01*
X-326047Y434260D01*
X-322641Y435671D01*
X-319716Y437915D01*
X-317753Y440474D01*
X-317410Y440576D01*
X-316593D01*
X-316250Y440474D01*
X-314286Y437915D01*
X-311362Y435671D01*
X-307956Y434260D01*
X-304301Y433779D01*
X-300647Y434260D01*
X-297241Y435671D01*
X-294317Y437915D01*
X-292353Y440474D01*
X-292010Y440576D01*
X-291193D01*
X-290849Y440474D01*
X-288886Y437915D01*
X-285962Y435671D01*
X-282556Y434260D01*
X-278901Y433779D01*
X-275247Y434260D01*
X-271841Y435671D01*
X-268916Y437915D01*
X-266953Y440474D01*
X-266610Y440576D01*
X-265793D01*
X-265450Y440474D01*
X-263486Y437915D01*
X-260562Y435671D01*
X-257156Y434260D01*
X-253501Y433779D01*
X-249847Y434260D01*
X-246441Y435671D01*
X-243517Y437915D01*
X-241553Y440474D01*
X-241210Y440576D01*
X-240393D01*
X-240049Y440474D01*
X-238086Y437915D01*
X-235162Y435671D01*
X-231756Y434260D01*
X-228101Y433779D01*
X-224447Y434260D01*
X-221041Y435671D01*
X-218116Y437915D01*
X-216153Y440474D01*
X-215810Y440576D01*
X-214993D01*
X-214650Y440474D01*
X-212686Y437915D01*
X-209762Y435671D01*
X-206356Y434260D01*
X-202701Y433779D01*
X-199047Y434260D01*
X-195641Y435671D01*
X-192717Y437915D01*
X-190753Y440474D01*
X-190410Y440576D01*
X-189593D01*
X-189249Y440474D01*
X-187286Y437915D01*
X-184362Y435671D01*
X-180956Y434260D01*
X-177301Y433779D01*
X-173647Y434260D01*
X-170241Y435671D01*
X-167316Y437915D01*
X-165353Y440474D01*
X-165010Y440576D01*
X-164193D01*
X-163850Y440474D01*
X-161886Y437915D01*
X-158962Y435671D01*
X-155556Y434260D01*
X-151901Y433779D01*
X-148247Y434260D01*
X-144841Y435671D01*
X-141917Y437915D01*
X-139953Y440474D01*
X-139610Y440576D01*
X-138793D01*
X-138449Y440474D01*
X-136486Y437915D01*
X-133562Y435671D01*
X-130156Y434260D01*
X-126501Y433779D01*
X-122847Y434260D01*
X-121873Y434664D01*
X-121513Y434423D01*
X-120794Y433736D01*
X-120550Y431883D01*
X-120227Y431102D01*
X-119770Y429998D01*
X-118527Y428379D01*
X-97326Y407178D01*
Y213799D01*
X-97767Y213358D01*
X-97797Y213320D01*
X-99517Y211600D01*
X-100760Y209981D01*
X-101540Y208095D01*
X-101807Y206072D01*
Y-171744D01*
X-102762Y-172581D01*
X-104000Y-172418D01*
X-105228Y-172580D01*
X-106183Y-171742D01*
Y78481D01*
X-105702Y79109D01*
X-104745Y81419D01*
X-104418Y83899D01*
X-104745Y86379D01*
X-105702Y88690D01*
X-107225Y90675D01*
X-109209Y92198D01*
X-111520Y93155D01*
X-114000Y93481D01*
X-116480Y93155D01*
X-118791Y92198D01*
X-120000Y91270D01*
X-121209Y92198D01*
X-123520Y93155D01*
X-126000Y93481D01*
X-128480Y93155D01*
X-130791Y92198D01*
X-132775Y90675D01*
X-134298Y88690D01*
X-135255Y86379D01*
X-135582Y83899D01*
X-135255Y81419D01*
X-134298Y79109D01*
X-133817Y78481D01*
Y-176257D01*
X-134000Y-176418D01*
X-136480Y-176744D01*
X-138791Y-177702D01*
X-140775Y-179224D01*
X-142298Y-181209D01*
X-143256Y-183520D01*
X-143582Y-186000D01*
X-143256Y-188480D01*
X-142298Y-190791D01*
X-141817Y-191418D01*
Y-207762D01*
X-144927Y-210872D01*
X-146169Y-212491D01*
X-146950Y-214376D01*
X-147216Y-216399D01*
Y-223562D01*
X-148486Y-224228D01*
X-151898Y-223779D01*
X-155553Y-224260D01*
X-157386Y-225020D01*
X-158486Y-224385D01*
X-158498Y-224295D01*
X-158821Y-223514D01*
X-159278Y-222409D01*
X-160521Y-220791D01*
X-167183Y-214128D01*
Y102508D01*
X-166228Y103346D01*
X-165996Y103315D01*
X-163516Y103642D01*
X-161205Y104599D01*
X-159220Y106122D01*
X-157698Y108106D01*
X-156740Y110417D01*
X-156414Y112897D01*
X-156740Y115377D01*
X-157170Y116415D01*
Y125391D01*
X-157471Y127675D01*
X-158353Y129804D01*
X-159755Y131632D01*
X-166670Y138547D01*
Y164745D01*
X-165015Y166015D01*
X-162771Y168940D01*
X-161360Y172345D01*
X-160879Y176000D01*
Y222071D01*
X-154321D01*
Y216915D01*
X-154751Y215877D01*
X-155078Y213397D01*
X-154751Y210917D01*
X-153794Y208606D01*
X-152271Y206621D01*
X-150287Y205099D01*
X-147976Y204142D01*
X-145496Y203815D01*
X-143016Y204142D01*
X-140705Y205099D01*
X-138720Y206621D01*
X-137198Y208606D01*
X-136240Y210917D01*
X-135914Y213397D01*
X-136240Y215877D01*
X-136670Y216915D01*
Y222071D01*
X-124321D01*
Y216915D01*
X-124751Y215877D01*
X-125078Y213397D01*
X-124751Y210917D01*
X-123794Y208606D01*
X-122271Y206621D01*
X-120287Y205099D01*
X-117976Y204142D01*
X-115496Y203815D01*
X-113016Y204142D01*
X-110705Y205099D01*
X-108720Y206621D01*
X-107198Y208606D01*
X-106240Y210917D01*
X-105914Y213397D01*
X-106240Y215877D01*
X-106670Y216915D01*
Y230890D01*
X-106971Y233174D01*
X-107853Y235303D01*
X-109255Y237131D01*
X-109259Y237134D01*
X-109262Y237138D01*
X-111090Y238540D01*
X-113219Y239422D01*
X-115503Y239722D01*
X-160879D01*
Y402500D01*
Y416000D01*
X-161360Y419655D01*
X-162771Y423060D01*
X-165015Y425985D01*
X-167940Y428229D01*
X-171345Y429640D01*
X-175000Y430121D01*
X-190766D01*
X-194421Y429640D01*
X-197826Y428229D01*
X-200751Y425985D01*
X-202995Y423060D01*
X-204405Y419655D01*
X-204887Y416000D01*
X-204405Y412345D01*
X-202995Y408940D01*
X-200751Y406015D01*
X-197826Y403771D01*
X-194421Y402360D01*
X-190766Y401879D01*
X-189121D01*
Y230897D01*
Y176000D01*
X-188640Y172345D01*
X-187229Y168940D01*
X-184985Y166015D01*
X-184321Y165506D01*
Y134395D01*
X-184021Y132111D01*
X-183139Y129983D01*
X-182817Y129563D01*
Y-217366D01*
X-182551Y-219389D01*
X-181770Y-221275D01*
X-180527Y-222894D01*
X-180384Y-223037D01*
X-180793Y-224239D01*
X-180953Y-224260D01*
X-184359Y-225671D01*
X-187283Y-227915D01*
X-189246Y-230473D01*
X-189589Y-230576D01*
X-190407D01*
X-190750Y-230473D01*
X-192713Y-227915D01*
X-195638Y-225671D01*
X-199043Y-224260D01*
X-202698Y-223779D01*
X-206353Y-224260D01*
X-209759Y-225671D01*
X-212683Y-227915D01*
X-214646Y-230473D01*
X-214989Y-230576D01*
X-215807D01*
X-216150Y-230473D01*
X-218113Y-227915D01*
X-221038Y-225671D01*
X-224443Y-224260D01*
X-228098Y-223779D01*
X-231753Y-224260D01*
X-235159Y-225671D01*
X-238083Y-227915D01*
X-240046Y-230473D01*
X-240389Y-230576D01*
X-241207D01*
X-241550Y-230473D01*
X-243513Y-227915D01*
X-246438Y-225671D01*
X-249843Y-224260D01*
X-253498Y-223779D01*
X-257153Y-224260D01*
X-260559Y-225671D01*
X-263483Y-227915D01*
X-265446Y-230473D01*
X-265789Y-230576D01*
X-266607D01*
X-266950Y-230473D01*
X-268913Y-227915D01*
X-271838Y-225671D01*
X-275243Y-224260D01*
X-278898Y-223779D01*
X-282553Y-224260D01*
X-285959Y-225671D01*
X-288883Y-227915D01*
X-290846Y-230473D01*
X-291189Y-230576D01*
X-292007D01*
X-292350Y-230473D01*
X-294313Y-227915D01*
X-297238Y-225671D01*
X-300643Y-224260D01*
X-304298Y-223779D01*
X-307953Y-224260D01*
X-311359Y-225671D01*
X-314283Y-227915D01*
X-316246Y-230473D01*
X-316589Y-230576D01*
X-317407D01*
X-317750Y-230473D01*
X-319713Y-227915D01*
X-322638Y-225671D01*
X-326043Y-224260D01*
X-329698Y-223779D01*
X-333353Y-224260D01*
X-336759Y-225671D01*
X-339683Y-227915D01*
X-341646Y-230473D01*
X-341989Y-230576D01*
X-342807D01*
X-343150Y-230473D01*
X-345113Y-227915D01*
X-348038Y-225671D01*
X-351443Y-224260D01*
X-355098Y-223779D01*
X-358753Y-224260D01*
X-362159Y-225671D01*
X-365083Y-227915D01*
X-367046Y-230473D01*
X-367389Y-230576D01*
X-368207D01*
X-368550Y-230473D01*
X-370513Y-227915D01*
X-373438Y-225671D01*
X-376843Y-224260D01*
X-380498Y-223779D01*
X-384153Y-224260D01*
X-387559Y-225671D01*
X-390483Y-227915D01*
X-392446Y-230473D01*
X-392789Y-230576D01*
X-393607D01*
X-393950Y-230473D01*
X-395913Y-227915D01*
X-398838Y-225671D01*
X-402243Y-224260D01*
X-405898Y-223779D01*
X-409553Y-224260D01*
X-412959Y-225671D01*
X-415883Y-227915D01*
X-417846Y-230473D01*
X-418189Y-230576D01*
X-419007D01*
X-419350Y-230473D01*
X-421313Y-227915D01*
X-424238Y-225671D01*
X-427643Y-224260D01*
X-431298Y-223779D01*
X-434953Y-224260D01*
X-438359Y-225671D01*
X-441283Y-227915D01*
X-443527Y-230840D01*
X-444428Y-233015D01*
X-445698Y-232762D01*
Y-226900D01*
X-454198D01*
Y-237900D01*
X-456698D01*
Y-240400D01*
X-467698D01*
Y-248900D01*
X-461836D01*
X-461583Y-250170D01*
X-463759Y-251071D01*
X-466683Y-253315D01*
X-468927Y-256240D01*
X-470338Y-259645D01*
X-470819Y-263300D01*
X-470338Y-266955D01*
X-468927Y-270360D01*
X-466683Y-273285D01*
X-463759Y-275529D01*
X-460353Y-276940D01*
X-456698Y-277421D01*
X-453043Y-276940D01*
X-449638Y-275529D01*
X-446713Y-273285D01*
X-444750Y-270727D01*
X-444407Y-270624D01*
X-443589D01*
X-443246Y-270727D01*
X-441283Y-273285D01*
X-438359Y-275529D01*
X-434953Y-276940D01*
X-431298Y-277421D01*
X-427643Y-276940D01*
X-424238Y-275529D01*
X-421313Y-273285D01*
X-419350Y-270727D01*
X-419007Y-270624D01*
X-418189D01*
X-417846Y-270727D01*
X-415883Y-273285D01*
X-412959Y-275529D01*
X-409553Y-276940D01*
X-405898Y-277421D01*
X-402243Y-276940D01*
X-398838Y-275529D01*
X-395913Y-273285D01*
X-393950Y-270727D01*
X-393607Y-270624D01*
X-392789D01*
X-392446Y-270727D01*
X-390483Y-273285D01*
X-387559Y-275529D01*
X-384153Y-276940D01*
X-380498Y-277421D01*
X-376843Y-276940D01*
X-373438Y-275529D01*
X-370513Y-273285D01*
X-368550Y-270727D01*
X-368207Y-270624D01*
X-367389D01*
X-367046Y-270727D01*
X-365083Y-273285D01*
X-362159Y-275529D01*
X-358753Y-276940D01*
X-355098Y-277421D01*
X-351443Y-276940D01*
X-348038Y-275529D01*
X-345113Y-273285D01*
X-343150Y-270727D01*
X-342807Y-270624D01*
X-341989D01*
X-341646Y-270727D01*
X-339683Y-273285D01*
X-336759Y-275529D01*
X-333353Y-276940D01*
X-329698Y-277421D01*
X-326043Y-276940D01*
X-322638Y-275529D01*
X-319713Y-273285D01*
X-317750Y-270727D01*
X-317407Y-270624D01*
X-316589D01*
X-316246Y-270727D01*
X-314283Y-273285D01*
X-311359Y-275529D01*
X-307953Y-276940D01*
X-304298Y-277421D01*
X-300643Y-276940D01*
X-297238Y-275529D01*
X-294313Y-273285D01*
X-292350Y-270727D01*
X-292007Y-270624D01*
X-291189D01*
X-290846Y-270727D01*
X-288883Y-273285D01*
X-285959Y-275529D01*
X-282553Y-276940D01*
X-278898Y-277421D01*
X-275243Y-276940D01*
X-271838Y-275529D01*
X-268913Y-273285D01*
X-266950Y-270727D01*
X-266607Y-270624D01*
X-265789D01*
X-265446Y-270727D01*
X-263483Y-273285D01*
X-260559Y-275529D01*
X-257153Y-276940D01*
X-253498Y-277421D01*
X-249843Y-276940D01*
X-246438Y-275529D01*
X-243513Y-273285D01*
X-241550Y-270727D01*
X-241207Y-270624D01*
X-240389D01*
X-240046Y-270727D01*
X-238083Y-273285D01*
X-235159Y-275529D01*
X-231753Y-276940D01*
X-228098Y-277421D01*
X-224443Y-276940D01*
X-221038Y-275529D01*
X-218113Y-273285D01*
X-216150Y-270727D01*
X-215807Y-270624D01*
X-214989D01*
X-214646Y-270727D01*
X-212683Y-273285D01*
X-209759Y-275529D01*
X-206353Y-276940D01*
X-202698Y-277421D01*
X-199043Y-276940D01*
X-195638Y-275529D01*
X-192713Y-273285D01*
X-190750Y-270727D01*
X-190407Y-270624D01*
X-189589D01*
X-189246Y-270727D01*
X-187283Y-273285D01*
X-184359Y-275529D01*
X-180953Y-276940D01*
X-177298Y-277421D01*
X-174820Y-277095D01*
X-173865Y-277932D01*
Y-347211D01*
X-174247Y-347709D01*
X-175205Y-350020D01*
X-175531Y-352500D01*
X-175205Y-354980D01*
X-174247Y-357291D01*
X-172725Y-359276D01*
X-170740Y-360798D01*
X-168429Y-361755D01*
X-165949Y-362082D01*
X-163469Y-361755D01*
X-161158Y-360798D01*
X-159174Y-359276D01*
X-157651Y-357291D01*
X-156694Y-354980D01*
X-156367Y-352500D01*
X-156694Y-350020D01*
X-157651Y-347709D01*
X-158231Y-346953D01*
Y-276973D01*
X-157175Y-276268D01*
X-155553Y-276940D01*
X-151898Y-277421D01*
X-148243Y-276940D01*
X-144838Y-275529D01*
X-141913Y-273285D01*
X-139950Y-270727D01*
X-139607Y-270624D01*
X-138789D01*
X-138446Y-270727D01*
X-136483Y-273285D01*
X-133559Y-275529D01*
X-130153Y-276940D01*
X-126498Y-277421D01*
X-122843Y-276940D01*
X-119438Y-275529D01*
X-116513Y-273285D01*
X-114550Y-270727D01*
X-114207Y-270624D01*
X-113389D01*
X-113046Y-270727D01*
X-111083Y-273285D01*
X-108159Y-275529D01*
X-104753Y-276940D01*
X-101098Y-277421D01*
X-97443Y-276940D01*
X-94038Y-275529D01*
X-91113Y-273285D01*
X-89150Y-270727D01*
X-88807Y-270624D01*
X-87989D01*
X-87646Y-270727D01*
X-85683Y-273285D01*
X-82759Y-275529D01*
X-79353Y-276940D01*
X-75698Y-277421D01*
X-72043Y-276940D01*
X-68638Y-275529D01*
X-65713Y-273285D01*
X-63750Y-270727D01*
X-63407Y-270624D01*
X-62589D01*
X-62246Y-270727D01*
X-60283Y-273285D01*
X-57359Y-275529D01*
X-53953Y-276940D01*
X-50298Y-277421D01*
X-46643Y-276940D01*
X-43238Y-275529D01*
X-40313Y-273285D01*
X-38350Y-270727D01*
X-38007Y-270624D01*
X-37189D01*
X-36846Y-270727D01*
X-34883Y-273285D01*
X-31959Y-275529D01*
X-28553Y-276940D01*
X-24898Y-277421D01*
X-21243Y-276940D01*
X-17838Y-275529D01*
X-14913Y-273285D01*
X-12950Y-270727D01*
X-12607Y-270624D01*
X-11789D01*
X-11446Y-270727D01*
X-9483Y-273285D01*
X-6559Y-275529D01*
X-3153Y-276940D01*
X502Y-277421D01*
X4157Y-276940D01*
X7562Y-275529D01*
X10487Y-273285D01*
X12450Y-270727D01*
X12793Y-270624D01*
X13611D01*
X13954Y-270727D01*
X15917Y-273285D01*
X18841Y-275529D01*
X22247Y-276940D01*
X25902Y-277421D01*
X29557Y-276940D01*
X32962Y-275529D01*
X35887Y-273285D01*
X37850Y-270727D01*
X38193Y-270624D01*
X39011D01*
X39354Y-270727D01*
X41317Y-273285D01*
X44241Y-275529D01*
X47647Y-276940D01*
X51302Y-277421D01*
X54957Y-276940D01*
X58362Y-275529D01*
X60409Y-273959D01*
X61679Y-274585D01*
Y-294264D01*
X60745Y-296520D01*
X60418Y-299000D01*
X60745Y-301480D01*
X61702Y-303791D01*
X63225Y-305776D01*
X65209Y-307298D01*
X67520Y-308256D01*
X70000Y-308582D01*
X70679Y-309177D01*
Y-401264D01*
X69745Y-403520D01*
X69418Y-406000D01*
X69745Y-408480D01*
X70702Y-410791D01*
X72224Y-412775D01*
X74209Y-414298D01*
X76520Y-415256D01*
X79000Y-415582D01*
X81480Y-415256D01*
X83791Y-414298D01*
X85775Y-412775D01*
X87298Y-410791D01*
X88256Y-408480D01*
X88582Y-406000D01*
X88256Y-403520D01*
X87321Y-401264D01*
Y-287736D01*
X88256Y-285480D01*
X88582Y-283000D01*
X88256Y-280520D01*
X87298Y-278209D01*
X85775Y-276224D01*
X85143Y-275739D01*
Y-274469D01*
X86687Y-273285D01*
X88650Y-270727D01*
X88993Y-270624D01*
X89811D01*
X90154Y-270727D01*
X92117Y-273285D01*
X95041Y-275529D01*
X98447Y-276940D01*
X102102Y-277421D01*
X105757Y-276940D01*
X109162Y-275529D01*
X112087Y-273285D01*
X114050Y-270727D01*
X114393Y-270624D01*
X115211D01*
X115554Y-270727D01*
X117517Y-273285D01*
X120441Y-275529D01*
X123847Y-276940D01*
X127502Y-277421D01*
X131157Y-276940D01*
X134562Y-275529D01*
X137487Y-273285D01*
X139450Y-270727D01*
X139793Y-270624D01*
X140611D01*
X140954Y-270727D01*
X142917Y-273285D01*
X145841Y-275529D01*
X149247Y-276940D01*
X152902Y-277421D01*
X156557Y-276940D01*
X159962Y-275529D01*
X162887Y-273285D01*
X164850Y-270727D01*
X165193Y-270624D01*
X166011D01*
X166354Y-270727D01*
X168317Y-273285D01*
X171241Y-275529D01*
X174647Y-276940D01*
X178302Y-277421D01*
X181957Y-276940D01*
X185362Y-275529D01*
X185540Y-275393D01*
X186679Y-275954D01*
Y-392000D01*
X186962Y-394154D01*
X187794Y-396161D01*
X189116Y-397884D01*
X200767Y-409535D01*
X201702Y-411791D01*
X203225Y-413775D01*
X205209Y-415298D01*
X207520Y-416255D01*
X210000Y-416582D01*
X212480Y-416255D01*
X214791Y-415298D01*
X216775Y-413775D01*
X218298Y-411791D01*
X219256Y-409480D01*
X219582Y-407000D01*
X219452Y-406017D01*
X220655Y-405423D01*
X226116Y-410884D01*
X227839Y-412206D01*
X229846Y-413038D01*
X232000Y-413321D01*
X273264D01*
X275520Y-414255D01*
X278000Y-414582D01*
X280480Y-414255D01*
X282791Y-413298D01*
X284776Y-411776D01*
X286298Y-409791D01*
X287255Y-407480D01*
X287582Y-405000D01*
X287255Y-402520D01*
X286298Y-400209D01*
X284776Y-398224D01*
X282791Y-396702D01*
X280480Y-395745D01*
X278000Y-395418D01*
X275520Y-395745D01*
X273264Y-396679D01*
X235447D01*
X210321Y-371553D01*
Y-338488D01*
X211377Y-337782D01*
X212520Y-338256D01*
X215000Y-338582D01*
X217480Y-338256D01*
X219791Y-337298D01*
X221775Y-335775D01*
X221902Y-335610D01*
X223319Y-335850D01*
X223554Y-336565D01*
X222745Y-338520D01*
X222418Y-341000D01*
X222745Y-343480D01*
X223702Y-345791D01*
X225224Y-347775D01*
X227209Y-349298D01*
X229520Y-350256D01*
X232000Y-350582D01*
X234480Y-350256D01*
X236791Y-349298D01*
X238776Y-347775D01*
X240298Y-345791D01*
X241255Y-343480D01*
X241582Y-341000D01*
X241255Y-338520D01*
X240321Y-336264D01*
Y-220000D01*
X240038Y-217846D01*
X239206Y-215839D01*
X237884Y-214116D01*
X224884Y-201116D01*
X223161Y-199794D01*
X221154Y-198962D01*
X219000Y-198679D01*
X214198D01*
X211943Y-197745D01*
X209463Y-197418D01*
X206983Y-197745D01*
X204672Y-198702D01*
X202687Y-200224D01*
X201164Y-202209D01*
X200207Y-204520D01*
X199881Y-207000D01*
X200207Y-209480D01*
X201030Y-211466D01*
X199953Y-212185D01*
X173421Y-185653D01*
Y-166603D01*
X173138Y-164450D01*
X172306Y-162443D01*
X170984Y-160719D01*
X97421Y-87156D01*
Y56660D01*
X98055Y58191D01*
X98382Y60671D01*
X98055Y63151D01*
X97098Y65462D01*
X95575Y67446D01*
X93591Y68969D01*
X91280Y69926D01*
X88800Y70253D01*
X86320Y69926D01*
X84009Y68969D01*
X82450Y67773D01*
X80891Y68969D01*
X78580Y69926D01*
X76171Y70243D01*
Y202050D01*
X75888Y204203D01*
X75056Y206210D01*
X74986Y206302D01*
X75673Y207492D01*
X77000Y207318D01*
X79480Y207644D01*
X81791Y208601D01*
X83775Y210124D01*
X85298Y212108D01*
X86256Y214419D01*
X86582Y216900D01*
X86256Y219380D01*
X85298Y221691D01*
X84817Y222318D01*
Y243582D01*
X85298Y244209D01*
X86256Y246520D01*
X86582Y249000D01*
X86256Y251480D01*
X85298Y253791D01*
X83776Y255776D01*
X81791Y257298D01*
X79480Y258256D01*
X77000Y258582D01*
X74520Y258256D01*
X72209Y257298D01*
X70224Y255776D01*
X68702Y253791D01*
X67744Y251480D01*
X67448Y249229D01*
X66929Y248707D01*
X66231Y248288D01*
X64000Y248582D01*
X61520Y248256D01*
X59209Y247298D01*
X57224Y245776D01*
X55702Y243791D01*
X54745Y241480D01*
X54418Y239000D01*
X54745Y236520D01*
X55702Y234209D01*
X56117Y233667D01*
Y228437D01*
X54847Y227589D01*
X53480Y228155D01*
X51000Y228482D01*
X48520Y228155D01*
X47087Y227561D01*
X45817Y228410D01*
Y421582D01*
X46298Y422209D01*
X47255Y424520D01*
X47582Y427000D01*
X47255Y429480D01*
X46298Y431791D01*
X44775Y433775D01*
X43930Y434424D01*
X44571Y435533D01*
X47644Y434260D01*
X51299Y433779D01*
X54953Y434260D01*
X58359Y435671D01*
X61283Y437915D01*
X63247Y440474D01*
X63590Y440576D01*
X64407D01*
X64750Y440474D01*
X66714Y437915D01*
X69638Y435671D01*
X73044Y434260D01*
X76699Y433779D01*
X80353Y434260D01*
X81127Y434581D01*
X82183Y433875D01*
Y432418D01*
X81702Y431791D01*
X80744Y429480D01*
X80418Y427000D01*
X80744Y424520D01*
X81702Y422209D01*
X83224Y420224D01*
X85209Y418702D01*
X87520Y417744D01*
X90000Y417418D01*
X92480Y417744D01*
X94791Y418702D01*
X96776Y420224D01*
X98298Y422209D01*
X99256Y424520D01*
X99582Y427000D01*
X99256Y429480D01*
X98298Y431791D01*
X98048Y432117D01*
X98185Y433341D01*
X99254Y434154D01*
X102099Y433779D01*
X105753Y434260D01*
X109159Y435671D01*
X112084Y437915D01*
X114047Y440474D01*
X114390Y440576D01*
X115207D01*
X115550Y440474D01*
X117514Y437915D01*
X120438Y435671D01*
X123844Y434260D01*
X127499Y433779D01*
X131153Y434260D01*
X134559Y435671D01*
X137484Y437915D01*
X139447Y440474D01*
X139790Y440576D01*
X140607D01*
X140950Y440474D01*
X142914Y437915D01*
X145838Y435671D01*
X149244Y434260D01*
X152899Y433779D01*
X156553Y434260D01*
X159959Y435671D01*
X162883Y437915D01*
X164847Y440474D01*
X165190Y440576D01*
X166007D01*
X166350Y440474D01*
X168314Y437915D01*
X171238Y435671D01*
X174644Y434260D01*
X178299Y433779D01*
X181953Y434260D01*
X185359Y435671D01*
X188284Y437915D01*
X190528Y440840D01*
X191938Y444245D01*
X192419Y447900D01*
X191938Y451555D01*
X190528Y454960D01*
X188284Y457885D01*
X185359Y460129D01*
X181961Y461536D01*
X181950Y461563D01*
X181794Y462842D01*
X183846Y463692D01*
X186144Y465455D01*
X187907Y467753D01*
X189015Y470428D01*
X189064Y470800D01*
X178299D01*
Y473300D01*
X175799D01*
Y484066D01*
X175427Y484017D01*
X172751Y482909D01*
X170453Y481145D01*
X168690Y478848D01*
X167840Y476796D01*
X166562Y476952D01*
X166535Y476963D01*
X165128Y480360D01*
X162883Y483285D01*
X159959Y485529D01*
X156553Y486940D01*
X152899Y487421D01*
D02*
G37*
G36*
X180799Y484066D02*
Y475800D01*
X189064D01*
X189015Y476172D01*
X187907Y478848D01*
X186144Y481145D01*
X183846Y482909D01*
X181170Y484017D01*
X180799Y484066D01*
D02*
G37*
G36*
X-459201Y484300D02*
X-467701D01*
Y475800D01*
X-459201D01*
Y484300D01*
D02*
G37*
G36*
X-532899Y436722D02*
X-536554Y436241D01*
X-539960Y434831D01*
X-542884Y432587D01*
X-544847Y430028D01*
X-545191Y429925D01*
X-546008D01*
X-546351Y430028D01*
X-548315Y432587D01*
X-551239Y434831D01*
X-554645Y436241D01*
X-558299Y436722D01*
X-561954Y436241D01*
X-565360Y434831D01*
X-568284Y432587D01*
X-570528Y429662D01*
X-571939Y426256D01*
X-572420Y422602D01*
X-571939Y418947D01*
X-570528Y415541D01*
X-568284Y412617D01*
X-565726Y410654D01*
X-565623Y410310D01*
Y409493D01*
X-565726Y409150D01*
X-568284Y407187D01*
X-570528Y404262D01*
X-571939Y400856D01*
X-572420Y397202D01*
X-571939Y393547D01*
X-570528Y390141D01*
X-568284Y387217D01*
X-565726Y385254D01*
X-565623Y384910D01*
Y384093D01*
X-565726Y383750D01*
X-568284Y381786D01*
X-570528Y378862D01*
X-571939Y375456D01*
X-572420Y371802D01*
X-571939Y368147D01*
X-570528Y364741D01*
X-568284Y361817D01*
X-565726Y359854D01*
X-565623Y359510D01*
Y358693D01*
X-565726Y358350D01*
X-568284Y356386D01*
X-570528Y353462D01*
X-571939Y350056D01*
X-572420Y346402D01*
X-571939Y342747D01*
X-570528Y339341D01*
X-568284Y336417D01*
X-565360Y334173D01*
X-561962Y332765D01*
X-561951Y332738D01*
X-561795Y331460D01*
X-563847Y330610D01*
X-566145Y328847D01*
X-567908Y326549D01*
X-569016Y323873D01*
X-569065Y323502D01*
X-558299D01*
X-547534D01*
X-547583Y323873D01*
X-548691Y326549D01*
X-550454Y328847D01*
X-552752Y330610D01*
X-554804Y331460D01*
X-554648Y332738D01*
X-554637Y332765D01*
X-551239Y334173D01*
X-548315Y336417D01*
X-546351Y338975D01*
X-546008Y339078D01*
X-545191D01*
X-544847Y338975D01*
X-542884Y336417D01*
X-539960Y334173D01*
X-536562Y332765D01*
X-536551Y332738D01*
X-536395Y331460D01*
X-538447Y330610D01*
X-540745Y328847D01*
X-542508Y326549D01*
X-543616Y323873D01*
X-543665Y323502D01*
X-532900D01*
X-522134D01*
X-522183Y323873D01*
X-523291Y326549D01*
X-525054Y328847D01*
X-527352Y330610D01*
X-529404Y331460D01*
X-529248Y332738D01*
X-529237Y332765D01*
X-525839Y334173D01*
X-522915Y336417D01*
X-520671Y339341D01*
X-519260Y342747D01*
X-518779Y346402D01*
X-519260Y350056D01*
X-520671Y353462D01*
X-522915Y356386D01*
X-525473Y358350D01*
X-525576Y358693D01*
Y359510D01*
X-525473Y359854D01*
X-522915Y361817D01*
X-520671Y364741D01*
X-519260Y368147D01*
X-518779Y371802D01*
X-519260Y375456D01*
X-520671Y378862D01*
X-522915Y381786D01*
X-525473Y383750D01*
X-525576Y384093D01*
Y384910D01*
X-525473Y385254D01*
X-522915Y387217D01*
X-520671Y390141D01*
X-519260Y393547D01*
X-518779Y397202D01*
X-519260Y400856D01*
X-520671Y404262D01*
X-522915Y407187D01*
X-525473Y409150D01*
X-525576Y409493D01*
Y410310D01*
X-525473Y410654D01*
X-522915Y412617D01*
X-520671Y415541D01*
X-519260Y418947D01*
X-518779Y422602D01*
X-519260Y426256D01*
X-520671Y429662D01*
X-522915Y432587D01*
X-525839Y434831D01*
X-529245Y436241D01*
X-532899Y436722D01*
D02*
G37*
G36*
X-522134Y318502D02*
X-532900D01*
X-543665D01*
X-543616Y318130D01*
X-542508Y315454D01*
X-540745Y313156D01*
X-538447Y311393D01*
X-536395Y310543D01*
X-536551Y309265D01*
X-536562Y309238D01*
X-539960Y307831D01*
X-542884Y305586D01*
X-544847Y303028D01*
X-545191Y302925D01*
X-546008D01*
X-546351Y303028D01*
X-548315Y305586D01*
X-551239Y307831D01*
X-554637Y309238D01*
X-554648Y309265D01*
X-554804Y310543D01*
X-552752Y311393D01*
X-550454Y313156D01*
X-548691Y315454D01*
X-547583Y318130D01*
X-547534Y318502D01*
X-558299D01*
X-569065D01*
X-569016Y318130D01*
X-567908Y315454D01*
X-566145Y313156D01*
X-563847Y311393D01*
X-561795Y310543D01*
X-561951Y309265D01*
X-561962Y309238D01*
X-565360Y307831D01*
X-568284Y305586D01*
X-570528Y302662D01*
X-571939Y299256D01*
X-572420Y295602D01*
X-571939Y291947D01*
X-570528Y288541D01*
X-568284Y285617D01*
X-565726Y283654D01*
X-565623Y283310D01*
Y282493D01*
X-565726Y282150D01*
X-568284Y280187D01*
X-570528Y277262D01*
X-571939Y273856D01*
X-572420Y270202D01*
X-571939Y266547D01*
X-570528Y263141D01*
X-568284Y260217D01*
X-565726Y258254D01*
X-565623Y257910D01*
Y257093D01*
X-565726Y256750D01*
X-568284Y254786D01*
X-570528Y251862D01*
X-571939Y248456D01*
X-572420Y244802D01*
X-571939Y241147D01*
X-570528Y237741D01*
X-568284Y234817D01*
X-565726Y232854D01*
X-565623Y232510D01*
Y231693D01*
X-565726Y231350D01*
X-568284Y229387D01*
X-570528Y226462D01*
X-571939Y223056D01*
X-572420Y219402D01*
X-571939Y215747D01*
X-570528Y212341D01*
X-568284Y209417D01*
X-565360Y207173D01*
X-561962Y205765D01*
X-561951Y205738D01*
X-561795Y204460D01*
X-563847Y203610D01*
X-566145Y201847D01*
X-567908Y199549D01*
X-569016Y196873D01*
X-569065Y196502D01*
X-558299D01*
X-547534D01*
X-547583Y196873D01*
X-548085Y198086D01*
X-547192Y199249D01*
X-546689Y199183D01*
X-546689Y199183D01*
X-543802D01*
X-543097Y198127D01*
X-543616Y196873D01*
X-543665Y196502D01*
X-532900D01*
X-522134D01*
X-522183Y196873D01*
X-522702Y198127D01*
X-521996Y199183D01*
X-497548D01*
X-497478Y199104D01*
X-497152Y196624D01*
X-496194Y194313D01*
X-494672Y192328D01*
X-492687Y190806D01*
X-490376Y189848D01*
X-489592Y189745D01*
X-427817Y127970D01*
Y110485D01*
X-428990Y109999D01*
X-480719Y161727D01*
X-482338Y162970D01*
X-484223Y163750D01*
X-486246Y164017D01*
X-518442D01*
X-519215Y165287D01*
X-518779Y168602D01*
X-519260Y172256D01*
X-520671Y175662D01*
X-522915Y178587D01*
X-525839Y180831D01*
X-529237Y182238D01*
X-529248Y182265D01*
X-529404Y183543D01*
X-527352Y184393D01*
X-525054Y186156D01*
X-523291Y188454D01*
X-522183Y191130D01*
X-522134Y191502D01*
X-532900D01*
X-543665D01*
X-543616Y191130D01*
X-542508Y188454D01*
X-540745Y186156D01*
X-538447Y184393D01*
X-536395Y183543D01*
X-536551Y182265D01*
X-536562Y182238D01*
X-539960Y180831D01*
X-542884Y178587D01*
X-544847Y176028D01*
X-545191Y175925D01*
X-546008D01*
X-546351Y176028D01*
X-548315Y178587D01*
X-551239Y180831D01*
X-554637Y182238D01*
X-554648Y182265D01*
X-554804Y183543D01*
X-552752Y184393D01*
X-550454Y186156D01*
X-548691Y188454D01*
X-547583Y191130D01*
X-547534Y191502D01*
X-558299D01*
X-569065D01*
X-569016Y191130D01*
X-567908Y188454D01*
X-566145Y186156D01*
X-563847Y184393D01*
X-561795Y183543D01*
X-561951Y182265D01*
X-561962Y182238D01*
X-565360Y180831D01*
X-568284Y178587D01*
X-570528Y175662D01*
X-571939Y172256D01*
X-572420Y168602D01*
X-571939Y164947D01*
X-570528Y161541D01*
X-568284Y158617D01*
X-565726Y156654D01*
X-565623Y156310D01*
Y155493D01*
X-565726Y155150D01*
X-568284Y153187D01*
X-570528Y150262D01*
X-571939Y146856D01*
X-572420Y143202D01*
X-571939Y139547D01*
X-570528Y136141D01*
X-568284Y133217D01*
X-565726Y131254D01*
X-565623Y130910D01*
Y130093D01*
X-565726Y129750D01*
X-568284Y127787D01*
X-570528Y124862D01*
X-571939Y121456D01*
X-572420Y117802D01*
X-571939Y114147D01*
X-570528Y110741D01*
X-568284Y107817D01*
X-565726Y105854D01*
X-565623Y105510D01*
Y104693D01*
X-565726Y104350D01*
X-568284Y102387D01*
X-570528Y99462D01*
X-571939Y96056D01*
X-572420Y92402D01*
X-571939Y88747D01*
X-570528Y85341D01*
X-568284Y82417D01*
X-565360Y80173D01*
X-561962Y78765D01*
X-561951Y78738D01*
X-561795Y77460D01*
X-563847Y76610D01*
X-566145Y74847D01*
X-567908Y72549D01*
X-569016Y69873D01*
X-569065Y69502D01*
X-558299D01*
X-547534D01*
X-547583Y69873D01*
X-548085Y71086D01*
X-547192Y72249D01*
X-546689Y72183D01*
X-546689Y72183D01*
X-543802D01*
X-543097Y71127D01*
X-543616Y69873D01*
X-543665Y69502D01*
X-532900D01*
X-522134D01*
X-522183Y69873D01*
X-522702Y71127D01*
X-521996Y72183D01*
X-497548D01*
X-497478Y72104D01*
X-497152Y69624D01*
X-496194Y67313D01*
X-495817Y66821D01*
Y-71582D01*
X-496298Y-72209D01*
X-497256Y-74520D01*
X-497582Y-77000D01*
X-497256Y-79480D01*
X-496298Y-81791D01*
X-494776Y-83776D01*
X-492791Y-85298D01*
X-490480Y-86256D01*
X-488000Y-86582D01*
X-485520Y-86256D01*
X-483209Y-85298D01*
X-481225Y-83776D01*
X-479702Y-81791D01*
X-478745Y-79480D01*
X-478602Y-78398D01*
X-477520Y-78256D01*
X-475209Y-77298D01*
X-473224Y-75775D01*
X-471702Y-73791D01*
X-470745Y-71480D01*
X-470736Y-71416D01*
X-469520Y-71255D01*
X-467209Y-70298D01*
X-465224Y-68776D01*
X-463702Y-66791D01*
X-462744Y-64480D01*
X-462602Y-63398D01*
X-461520Y-63256D01*
X-459209Y-62298D01*
X-457225Y-60775D01*
X-455702Y-58791D01*
X-454744Y-56480D01*
X-454486Y-54514D01*
X-452520Y-54255D01*
X-450209Y-53298D01*
X-448224Y-51775D01*
X-446702Y-49791D01*
X-445745Y-47480D01*
X-445620Y-46532D01*
X-443520Y-46255D01*
X-441209Y-45298D01*
X-439225Y-43776D01*
X-437702Y-41791D01*
X-436744Y-39480D01*
X-436602Y-38398D01*
X-435520Y-38256D01*
X-433209Y-37298D01*
X-431225Y-35775D01*
X-429702Y-33791D01*
X-429087Y-32306D01*
X-427817Y-32559D01*
Y-104582D01*
X-428298Y-105209D01*
X-429255Y-107520D01*
X-429582Y-110000D01*
X-429255Y-112480D01*
X-428298Y-114791D01*
X-426775Y-116775D01*
X-424791Y-118298D01*
X-422480Y-119255D01*
X-420000Y-119582D01*
X-417520Y-119255D01*
X-415209Y-118298D01*
X-413224Y-116775D01*
X-411702Y-114791D01*
X-410745Y-112480D01*
X-410680Y-111992D01*
X-410000Y-112082D01*
X-407520Y-111755D01*
X-405209Y-110798D01*
X-403224Y-109275D01*
X-401702Y-107291D01*
X-400745Y-104980D01*
X-400570Y-103658D01*
X-399250Y-103832D01*
X-396770Y-103505D01*
X-394459Y-102548D01*
X-392475Y-101025D01*
X-390952Y-99041D01*
X-390133Y-97064D01*
X-390000Y-97082D01*
X-387520Y-96755D01*
X-385209Y-95798D01*
X-383224Y-94275D01*
X-381702Y-92291D01*
X-380745Y-89980D01*
X-380698Y-89628D01*
X-379770Y-89505D01*
X-377459Y-88548D01*
X-375475Y-87025D01*
X-373952Y-85041D01*
X-373091Y-82962D01*
X-371520Y-82755D01*
X-369209Y-81798D01*
X-367225Y-80275D01*
X-365702Y-78291D01*
X-364841Y-76212D01*
X-363270Y-76005D01*
X-360959Y-75048D01*
X-358974Y-73525D01*
X-357452Y-71541D01*
X-356591Y-69462D01*
X-355020Y-69255D01*
X-352709Y-68298D01*
X-350724Y-66775D01*
X-349202Y-64791D01*
X-348245Y-62480D01*
X-347918Y-60000D01*
X-348245Y-57520D01*
X-349202Y-55209D01*
X-349683Y-54582D01*
Y154454D01*
X-349949Y156477D01*
X-350730Y158362D01*
X-351973Y159981D01*
X-480719Y288727D01*
X-482338Y289970D01*
X-484223Y290751D01*
X-486246Y291017D01*
X-518442D01*
X-519215Y292287D01*
X-518779Y295602D01*
X-519260Y299256D01*
X-520671Y302662D01*
X-522915Y305586D01*
X-525839Y307831D01*
X-529237Y309238D01*
X-529248Y309265D01*
X-529404Y310543D01*
X-527352Y311393D01*
X-525054Y313156D01*
X-523291Y315454D01*
X-522183Y318130D01*
X-522134Y318502D01*
D02*
G37*
G36*
X680000Y308960D02*
X150000D01*
X147650Y308651D01*
X145461Y307744D01*
X143581Y306302D01*
X142139Y304422D01*
X141232Y302232D01*
X140922Y299883D01*
Y221254D01*
X139652Y220264D01*
X138000Y220481D01*
X135520Y220155D01*
X133264Y219221D01*
X112834D01*
Y265000D01*
X112834Y265000D01*
X112667Y266273D01*
X112499Y267545D01*
X111517Y269917D01*
X109954Y271954D01*
X107917Y273517D01*
X106528Y274092D01*
X105545Y274499D01*
X104273Y274667D01*
X103000Y274834D01*
X91000D01*
X88455Y274499D01*
X86083Y273517D01*
X84046Y271954D01*
X82483Y269917D01*
X81501Y267545D01*
X81166Y265000D01*
X81501Y262455D01*
X82483Y260083D01*
X84046Y258046D01*
X86083Y256483D01*
X88455Y255501D01*
X91000Y255166D01*
X93166D01*
Y216900D01*
Y210412D01*
Y179900D01*
X93451Y177735D01*
X93375Y177677D01*
X91853Y175692D01*
X90895Y173381D01*
X90569Y170901D01*
X90895Y168421D01*
X91853Y166110D01*
X93375Y164126D01*
X95360Y162603D01*
X97671Y161646D01*
X100151Y161319D01*
X102631Y161646D01*
X104942Y162603D01*
X106926Y164126D01*
X108449Y166110D01*
X109406Y168421D01*
X109498Y169118D01*
X110206Y170041D01*
X110217Y170065D01*
X111000D01*
X113545Y170400D01*
X115917Y171383D01*
X117954Y172946D01*
X119517Y174982D01*
X120499Y177354D01*
X120834Y179900D01*
X120499Y182445D01*
X119517Y184816D01*
X117954Y186853D01*
X115917Y188416D01*
X113545Y189398D01*
X112834Y189492D01*
Y202578D01*
X133264D01*
X135520Y201644D01*
X138000Y201318D01*
X139652Y201535D01*
X140922Y200544D01*
Y89883D01*
Y40000D01*
X141232Y37650D01*
X142139Y35461D01*
X143581Y33581D01*
X145461Y32139D01*
X147650Y31232D01*
X150000Y30922D01*
X680000D01*
X682349Y31232D01*
X684539Y32139D01*
X686419Y33581D01*
X687861Y35461D01*
X688768Y37650D01*
X689078Y40000D01*
Y299883D01*
X688768Y302232D01*
X687861Y304422D01*
X686419Y306302D01*
X684539Y307744D01*
X682349Y308651D01*
X680000Y308960D01*
D02*
G37*
G36*
X-522134Y64502D02*
X-532900D01*
X-543665D01*
X-543616Y64130D01*
X-542508Y61454D01*
X-540745Y59156D01*
X-538447Y57393D01*
X-536395Y56543D01*
X-536551Y55265D01*
X-536562Y55238D01*
X-539960Y53831D01*
X-542884Y51586D01*
X-544847Y49028D01*
X-545191Y48925D01*
X-546008D01*
X-546351Y49028D01*
X-548315Y51586D01*
X-551239Y53831D01*
X-554637Y55238D01*
X-554648Y55265D01*
X-554804Y56543D01*
X-552752Y57393D01*
X-550454Y59156D01*
X-548691Y61454D01*
X-547583Y64130D01*
X-547534Y64502D01*
X-558299D01*
X-569065D01*
X-569016Y64130D01*
X-567908Y61454D01*
X-566145Y59156D01*
X-563847Y57393D01*
X-561795Y56543D01*
X-561951Y55265D01*
X-561962Y55238D01*
X-565360Y53831D01*
X-568284Y51586D01*
X-570528Y48662D01*
X-571939Y45256D01*
X-572420Y41602D01*
X-571939Y37947D01*
X-570528Y34541D01*
X-568284Y31617D01*
X-565726Y29654D01*
X-565623Y29310D01*
Y28493D01*
X-565726Y28150D01*
X-568284Y26186D01*
X-570528Y23262D01*
X-571939Y19856D01*
X-572420Y16202D01*
X-571939Y12547D01*
X-570528Y9141D01*
X-568284Y6217D01*
X-565726Y4254D01*
X-565623Y3910D01*
Y3093D01*
X-565726Y2750D01*
X-568284Y786D01*
X-570528Y-2138D01*
X-571939Y-5544D01*
X-572420Y-9198D01*
X-571939Y-12853D01*
X-570528Y-16259D01*
X-568284Y-19183D01*
X-565726Y-21146D01*
X-565623Y-21490D01*
Y-22307D01*
X-565726Y-22650D01*
X-568284Y-24613D01*
X-570528Y-27538D01*
X-571939Y-30944D01*
X-572420Y-34598D01*
X-571939Y-38253D01*
X-570528Y-41659D01*
X-568284Y-44583D01*
X-565360Y-46827D01*
X-561962Y-48235D01*
X-561951Y-48262D01*
X-561795Y-49540D01*
X-563847Y-50390D01*
X-566145Y-52153D01*
X-567908Y-54451D01*
X-569016Y-57127D01*
X-569065Y-57498D01*
X-558299D01*
X-547534D01*
X-547583Y-57127D01*
X-548691Y-54451D01*
X-550454Y-52153D01*
X-552752Y-50390D01*
X-554804Y-49540D01*
X-554648Y-48262D01*
X-554637Y-48235D01*
X-551239Y-46827D01*
X-548315Y-44583D01*
X-546351Y-42025D01*
X-546008Y-41922D01*
X-545191D01*
X-544847Y-42025D01*
X-542884Y-44583D01*
X-539960Y-46827D01*
X-536562Y-48235D01*
X-536551Y-48262D01*
X-536395Y-49540D01*
X-538447Y-50390D01*
X-540745Y-52153D01*
X-542508Y-54451D01*
X-543616Y-57127D01*
X-543665Y-57498D01*
X-532900D01*
X-522134D01*
X-522183Y-57127D01*
X-523291Y-54451D01*
X-525054Y-52153D01*
X-527352Y-50390D01*
X-529404Y-49540D01*
X-529248Y-48262D01*
X-529237Y-48235D01*
X-525839Y-46827D01*
X-522915Y-44583D01*
X-520671Y-41659D01*
X-519260Y-38253D01*
X-518779Y-34598D01*
X-519260Y-30944D01*
X-520671Y-27538D01*
X-522915Y-24613D01*
X-525473Y-22650D01*
X-525576Y-22307D01*
Y-21490D01*
X-525473Y-21146D01*
X-522915Y-19183D01*
X-520671Y-16259D01*
X-519260Y-12853D01*
X-518779Y-9198D01*
X-519260Y-5544D01*
X-520671Y-2138D01*
X-522915Y786D01*
X-525473Y2750D01*
X-525576Y3093D01*
Y3910D01*
X-525473Y4254D01*
X-522915Y6217D01*
X-520671Y9141D01*
X-519260Y12547D01*
X-518779Y16202D01*
X-519260Y19856D01*
X-520671Y23262D01*
X-522915Y26186D01*
X-525473Y28150D01*
X-525576Y28493D01*
Y29310D01*
X-525473Y29654D01*
X-522915Y31617D01*
X-520671Y34541D01*
X-519260Y37947D01*
X-518779Y41602D01*
X-519260Y45256D01*
X-520671Y48662D01*
X-522915Y51586D01*
X-525839Y53831D01*
X-529237Y55238D01*
X-529248Y55265D01*
X-529404Y56543D01*
X-527352Y57393D01*
X-525054Y59156D01*
X-523291Y61454D01*
X-522183Y64130D01*
X-522134Y64502D01*
D02*
G37*
G36*
Y-62498D02*
X-532900D01*
X-543665D01*
X-543616Y-62870D01*
X-542508Y-65546D01*
X-540745Y-67844D01*
X-538447Y-69607D01*
X-536395Y-70457D01*
X-536551Y-71735D01*
X-536562Y-71762D01*
X-539960Y-73169D01*
X-542884Y-75413D01*
X-544847Y-77972D01*
X-545191Y-78075D01*
X-546008D01*
X-546351Y-77972D01*
X-548315Y-75413D01*
X-551239Y-73169D01*
X-554637Y-71762D01*
X-554648Y-71735D01*
X-554804Y-70457D01*
X-552752Y-69607D01*
X-550454Y-67844D01*
X-548691Y-65546D01*
X-547583Y-62870D01*
X-547534Y-62498D01*
X-558299D01*
X-569065D01*
X-569016Y-62870D01*
X-567908Y-65546D01*
X-566145Y-67844D01*
X-563847Y-69607D01*
X-561795Y-70457D01*
X-561951Y-71735D01*
X-561962Y-71762D01*
X-565360Y-73169D01*
X-568284Y-75413D01*
X-570528Y-78338D01*
X-571939Y-81744D01*
X-572420Y-85398D01*
X-571939Y-89053D01*
X-570528Y-92459D01*
X-568284Y-95383D01*
X-565726Y-97346D01*
X-565623Y-97690D01*
Y-98507D01*
X-565726Y-98850D01*
X-568284Y-100814D01*
X-570528Y-103738D01*
X-571939Y-107144D01*
X-572420Y-110798D01*
X-571939Y-114453D01*
X-570528Y-117859D01*
X-568284Y-120783D01*
X-565726Y-122746D01*
X-565623Y-123090D01*
Y-123907D01*
X-565726Y-124250D01*
X-568284Y-126214D01*
X-570528Y-129138D01*
X-571939Y-132544D01*
X-572420Y-136198D01*
X-571939Y-139853D01*
X-570528Y-143259D01*
X-568284Y-146183D01*
X-565726Y-148146D01*
X-565623Y-148490D01*
Y-149307D01*
X-565726Y-149650D01*
X-568284Y-151614D01*
X-570528Y-154538D01*
X-571939Y-157944D01*
X-572420Y-161598D01*
X-571939Y-165253D01*
X-570528Y-168659D01*
X-568284Y-171583D01*
X-565726Y-173546D01*
X-565623Y-173890D01*
Y-174707D01*
X-565726Y-175050D01*
X-568284Y-177013D01*
X-570528Y-179938D01*
X-571939Y-183344D01*
X-572420Y-186998D01*
X-571939Y-190653D01*
X-570528Y-194059D01*
X-568284Y-196983D01*
X-568007Y-197196D01*
X-568416Y-198398D01*
X-572299D01*
Y-226398D01*
X-544299D01*
Y-222515D01*
X-543097Y-222106D01*
X-542884Y-222383D01*
X-539960Y-224627D01*
X-536554Y-226038D01*
X-532899Y-226519D01*
X-529245Y-226038D01*
X-525839Y-224627D01*
X-522915Y-222383D01*
X-520671Y-219459D01*
X-519260Y-216053D01*
X-518779Y-212398D01*
X-519260Y-208744D01*
X-520671Y-205338D01*
X-522915Y-202414D01*
X-525473Y-200450D01*
X-525576Y-200107D01*
Y-199290D01*
X-525473Y-198946D01*
X-522915Y-196983D01*
X-520671Y-194059D01*
X-519260Y-190653D01*
X-518779Y-186998D01*
X-519260Y-183344D01*
X-520671Y-179938D01*
X-522915Y-177013D01*
X-525839Y-174769D01*
X-529237Y-173362D01*
X-529248Y-173335D01*
X-529404Y-172057D01*
X-527352Y-171207D01*
X-525054Y-169444D01*
X-523291Y-167146D01*
X-522183Y-164470D01*
X-522134Y-164098D01*
X-532900D01*
Y-159098D01*
X-522134D01*
X-522183Y-158727D01*
X-523291Y-156051D01*
X-525054Y-153753D01*
X-527352Y-151990D01*
X-529404Y-151140D01*
X-529248Y-149862D01*
X-529237Y-149835D01*
X-525839Y-148427D01*
X-522915Y-146183D01*
X-520671Y-143259D01*
X-519260Y-139853D01*
X-518779Y-136198D01*
X-519260Y-132544D01*
X-520671Y-129138D01*
X-522915Y-126214D01*
X-525473Y-124250D01*
X-525576Y-123907D01*
Y-123090D01*
X-525473Y-122746D01*
X-522915Y-120783D01*
X-520671Y-117859D01*
X-519260Y-114453D01*
X-518779Y-110798D01*
X-519260Y-107144D01*
X-520671Y-103738D01*
X-522915Y-100814D01*
X-525473Y-98850D01*
X-525576Y-98507D01*
Y-97690D01*
X-525473Y-97346D01*
X-522915Y-95383D01*
X-520671Y-92459D01*
X-519260Y-89053D01*
X-518779Y-85398D01*
X-519260Y-81744D01*
X-520671Y-78338D01*
X-522915Y-75413D01*
X-525839Y-73169D01*
X-529237Y-71762D01*
X-529248Y-71735D01*
X-529404Y-70457D01*
X-527352Y-69607D01*
X-525054Y-67844D01*
X-523291Y-65546D01*
X-522183Y-62870D01*
X-522134Y-62498D01*
D02*
G37*
G36*
X-496000Y-94418D02*
X-498480Y-94745D01*
X-500791Y-95702D01*
X-502775Y-97225D01*
X-504298Y-99209D01*
X-505256Y-101520D01*
X-505582Y-104000D01*
X-505256Y-106480D01*
X-504298Y-108791D01*
X-503817Y-109418D01*
Y-112742D01*
X-504772Y-113580D01*
X-506000Y-113418D01*
X-508480Y-113744D01*
X-510791Y-114702D01*
X-512775Y-116224D01*
X-514298Y-118209D01*
X-515256Y-120520D01*
X-515582Y-123000D01*
X-515256Y-125480D01*
X-514298Y-127791D01*
X-514157Y-127976D01*
Y-196014D01*
X-515091Y-198270D01*
X-515417Y-200750D01*
X-515091Y-203230D01*
X-514134Y-205541D01*
X-512611Y-207526D01*
X-510626Y-209048D01*
X-508316Y-210005D01*
X-505835Y-210332D01*
X-505321Y-210783D01*
Y-286264D01*
X-506255Y-288520D01*
X-506582Y-291000D01*
X-506255Y-293480D01*
X-505298Y-295791D01*
X-503775Y-297775D01*
X-501791Y-299298D01*
X-499480Y-300256D01*
X-497000Y-300582D01*
X-494520Y-300256D01*
X-492209Y-299298D01*
X-490224Y-297775D01*
X-488702Y-295791D01*
X-487744Y-293480D01*
X-487418Y-291000D01*
X-487744Y-288520D01*
X-488679Y-286264D01*
Y-178736D01*
X-487744Y-176480D01*
X-487418Y-174000D01*
X-487744Y-171520D01*
X-488702Y-169209D01*
X-490224Y-167225D01*
X-492209Y-165702D01*
X-494520Y-164744D01*
X-497000Y-164418D01*
X-497514Y-163967D01*
Y-146570D01*
X-496559Y-145733D01*
X-496198Y-145780D01*
X-493718Y-145454D01*
X-491407Y-144497D01*
X-489423Y-142974D01*
X-487900Y-140989D01*
X-486943Y-138678D01*
X-486616Y-136198D01*
X-486943Y-133718D01*
X-487900Y-131407D01*
X-488183Y-131039D01*
Y-109418D01*
X-487702Y-108791D01*
X-486744Y-106480D01*
X-486418Y-104000D01*
X-486744Y-101520D01*
X-487702Y-99209D01*
X-489225Y-97225D01*
X-491209Y-95702D01*
X-493520Y-94745D01*
X-496000Y-94418D01*
D02*
G37*
G36*
X305404Y-166358D02*
X302924Y-166684D01*
X300613Y-167642D01*
X298629Y-169164D01*
X297106Y-171149D01*
X296149Y-173460D01*
X295822Y-175940D01*
X296149Y-178420D01*
X297106Y-180731D01*
X298629Y-182715D01*
X300613Y-184238D01*
X302924Y-185195D01*
X305404Y-185522D01*
X307320Y-185270D01*
X310595D01*
Y-190460D01*
X310912Y-192874D01*
X311603Y-194542D01*
Y-232629D01*
X305612Y-238620D01*
X291009D01*
X288754Y-237686D01*
X286274Y-237360D01*
X283794Y-237686D01*
X281538Y-238620D01*
X278009D01*
X275754Y-237686D01*
X273274Y-237360D01*
X270794Y-237686D01*
X268483Y-238643D01*
X268478Y-238647D01*
X265309D01*
X263054Y-237713D01*
X260574Y-237386D01*
X258094Y-237713D01*
X255783Y-238670D01*
X253798Y-240193D01*
X252276Y-242177D01*
X251318Y-244488D01*
X250992Y-246968D01*
X251318Y-249448D01*
X252276Y-251759D01*
X253798Y-253744D01*
X255783Y-255266D01*
X258094Y-256224D01*
X260574Y-256550D01*
X263054Y-256224D01*
X265309Y-255289D01*
X268603D01*
X270794Y-256197D01*
X273274Y-256523D01*
X275754Y-256197D01*
X278009Y-255263D01*
X281538D01*
X283794Y-256197D01*
X286274Y-256523D01*
X288754Y-256197D01*
X291009Y-255263D01*
X309058D01*
X311212Y-254979D01*
X313219Y-254148D01*
X314942Y-252826D01*
X325808Y-241960D01*
X327131Y-240236D01*
X327962Y-238229D01*
X328245Y-236076D01*
Y-199790D01*
X454157D01*
Y-341702D01*
X451694Y-342027D01*
X449079Y-343110D01*
X446833Y-344833D01*
X445110Y-347079D01*
X444027Y-349694D01*
X443657Y-352500D01*
X444027Y-355306D01*
X445110Y-357921D01*
X446833Y-360167D01*
X449079Y-361890D01*
X451694Y-362973D01*
X454500Y-363343D01*
X465000D01*
X467806Y-362973D01*
X470421Y-361890D01*
X472667Y-360167D01*
X474390Y-357921D01*
X475473Y-355306D01*
X475843Y-352500D01*
Y-199790D01*
X595585D01*
X597500Y-200042D01*
X599980Y-199715D01*
X602291Y-198758D01*
X604276Y-197235D01*
X605798Y-195251D01*
X606756Y-192940D01*
X607082Y-190460D01*
X606756Y-187980D01*
X605798Y-185669D01*
X604276Y-183684D01*
X602291Y-182162D01*
X599980Y-181204D01*
X597500Y-180878D01*
X595585Y-181130D01*
X329254D01*
Y-178924D01*
X328936Y-176509D01*
X328004Y-174259D01*
X326521Y-172327D01*
X323537Y-169343D01*
X321605Y-167860D01*
X319355Y-166928D01*
X316940Y-166610D01*
X307320D01*
X305404Y-166358D01*
D02*
G37*
G36*
X235000Y-173418D02*
X232520Y-173745D01*
X230209Y-174702D01*
X228225Y-176224D01*
X226702Y-178209D01*
X225744Y-180520D01*
X225418Y-183000D01*
X225744Y-185480D01*
X226702Y-187791D01*
X227630Y-189000D01*
X226702Y-190209D01*
X225744Y-192520D01*
X225418Y-195000D01*
X225744Y-197480D01*
X226702Y-199791D01*
X228225Y-201775D01*
X230209Y-203298D01*
X232520Y-204256D01*
X233304Y-204359D01*
X255473Y-226527D01*
X257092Y-227770D01*
X258977Y-228550D01*
X261000Y-228817D01*
X278844D01*
X280868Y-228550D01*
X281648Y-228227D01*
X282753Y-227770D01*
X284372Y-226527D01*
X288100Y-222799D01*
X288884Y-222695D01*
X291195Y-221738D01*
X293180Y-220215D01*
X294703Y-218231D01*
X295660Y-215920D01*
X295986Y-213440D01*
X295660Y-210960D01*
X294703Y-208649D01*
X293180Y-206664D01*
X291195Y-205142D01*
X288884Y-204184D01*
X286404Y-203858D01*
X283924Y-204184D01*
X281613Y-205142D01*
X279904Y-206453D01*
X278195Y-205142D01*
X275884Y-204184D01*
X273404Y-203858D01*
X270924Y-204184D01*
X268613Y-205142D01*
X268377Y-205323D01*
X244359Y-181304D01*
X244256Y-180520D01*
X243298Y-178209D01*
X241775Y-176224D01*
X239791Y-174702D01*
X237480Y-173745D01*
X235000Y-173418D01*
D02*
G37*
G36*
X-459198Y-226900D02*
X-467698D01*
Y-235400D01*
X-459198D01*
Y-226900D01*
D02*
G37*
G36*
X40000Y-282418D02*
X37520Y-282745D01*
X35209Y-283702D01*
X33224Y-285224D01*
X31702Y-287209D01*
X30745Y-289520D01*
X30448Y-291771D01*
X29929Y-292293D01*
X29231Y-292712D01*
X27000Y-292418D01*
X24520Y-292745D01*
X22209Y-293702D01*
X20224Y-295224D01*
X18702Y-297209D01*
X17744Y-299520D01*
X17418Y-302000D01*
X17744Y-304480D01*
X18679Y-306736D01*
Y-342012D01*
X17409Y-342917D01*
X15500Y-342666D01*
X13575D01*
X13300Y-342455D01*
X10502Y-341296D01*
X7500Y-340901D01*
X4498Y-341296D01*
X1700Y-342455D01*
X1425Y-342666D01*
X-500D01*
X-3045Y-343001D01*
X-5417Y-343983D01*
X-7454Y-345546D01*
X-9017Y-347583D01*
X-9999Y-349955D01*
X-10334Y-352500D01*
X-9999Y-355045D01*
X-9017Y-357417D01*
X-7454Y-359454D01*
X-5417Y-361017D01*
X-4099Y-361562D01*
Y-420000D01*
X-4099Y-420000D01*
X-3704Y-423002D01*
X-2545Y-425800D01*
X-702Y-428202D01*
X8401Y-437304D01*
Y-489000D01*
X8796Y-492002D01*
X9955Y-494800D01*
X11798Y-497202D01*
X14200Y-499045D01*
X16998Y-500204D01*
X20000Y-500599D01*
X23002Y-500204D01*
X25800Y-499045D01*
X28202Y-497202D01*
X30045Y-494800D01*
X31204Y-492002D01*
X31599Y-489000D01*
Y-432500D01*
X31599Y-432500D01*
X31204Y-429498D01*
X30045Y-426700D01*
X28202Y-424298D01*
X28202Y-424298D01*
X19099Y-415195D01*
Y-413173D01*
X20369Y-412887D01*
X22209Y-414298D01*
X24520Y-415256D01*
X27000Y-415582D01*
X29480Y-415256D01*
X31169Y-414556D01*
X32733Y-415015D01*
X32794Y-415161D01*
X34116Y-416884D01*
X52029Y-434797D01*
Y-465914D01*
X51094Y-468170D01*
X50768Y-470650D01*
X51094Y-473130D01*
X52052Y-475441D01*
X53575Y-477425D01*
X55559Y-478948D01*
X57870Y-479906D01*
X60350Y-480232D01*
X62830Y-479906D01*
X65141Y-478948D01*
X67126Y-477425D01*
X68648Y-475441D01*
X69605Y-473130D01*
X69932Y-470650D01*
X69605Y-468170D01*
X68671Y-465914D01*
Y-431350D01*
X68388Y-429196D01*
X67556Y-427189D01*
X66234Y-425466D01*
X49253Y-408485D01*
X49255Y-408480D01*
X49582Y-406000D01*
X49255Y-403520D01*
X48321Y-401264D01*
Y-296736D01*
X49255Y-294480D01*
X49582Y-292000D01*
X49255Y-289520D01*
X48298Y-287209D01*
X46775Y-285224D01*
X44791Y-283702D01*
X42480Y-282745D01*
X40000Y-282418D01*
D02*
G37*
G36*
X656500Y-297918D02*
X654020Y-298244D01*
X651709Y-299202D01*
X649725Y-300725D01*
X648202Y-302709D01*
X647268Y-304965D01*
X640116Y-312116D01*
X638794Y-313839D01*
X637962Y-315846D01*
X637679Y-318000D01*
Y-379264D01*
X636744Y-381520D01*
X636418Y-384000D01*
X636744Y-386480D01*
X637702Y-388791D01*
X639225Y-390775D01*
X641209Y-392298D01*
X643520Y-393256D01*
X646000Y-393582D01*
X648480Y-393256D01*
X650791Y-392298D01*
X652775Y-390775D01*
X654298Y-388791D01*
X655256Y-386480D01*
X655582Y-384000D01*
X655256Y-381520D01*
X654321Y-379264D01*
Y-321447D01*
X659035Y-316733D01*
X661291Y-315798D01*
X663276Y-314275D01*
X664798Y-312291D01*
X665755Y-309980D01*
X666082Y-307500D01*
X665755Y-305020D01*
X664798Y-302709D01*
X663276Y-300725D01*
X661291Y-299202D01*
X658980Y-298244D01*
X656500Y-297918D01*
D02*
G37*
G36*
X-266000Y-383418D02*
X-268480Y-383745D01*
X-270791Y-384702D01*
X-272775Y-386225D01*
X-274298Y-388209D01*
X-275256Y-390520D01*
X-275582Y-393000D01*
X-275256Y-395480D01*
X-274298Y-397791D01*
X-272775Y-399776D01*
X-270791Y-401298D01*
X-268535Y-402233D01*
X-263884Y-406884D01*
X-262161Y-408206D01*
X-260154Y-409038D01*
X-258000Y-409321D01*
X-233736D01*
X-231480Y-410256D01*
X-229000Y-410582D01*
X-226520Y-410256D01*
X-224209Y-409298D01*
X-222225Y-407775D01*
X-220702Y-405791D01*
X-219744Y-403480D01*
X-219418Y-401000D01*
X-219744Y-398520D01*
X-220702Y-396209D01*
X-222225Y-394225D01*
X-224209Y-392702D01*
X-226520Y-391744D01*
X-229000Y-391418D01*
X-231480Y-391744D01*
X-233736Y-392679D01*
X-254553D01*
X-256768Y-390465D01*
X-257702Y-388209D01*
X-259224Y-386225D01*
X-261209Y-384702D01*
X-263520Y-383745D01*
X-266000Y-383418D01*
D02*
G37*
G36*
X-290000Y-340901D02*
X-293002Y-341296D01*
X-295800Y-342455D01*
X-296075Y-342666D01*
X-298000D01*
X-300545Y-343001D01*
X-302917Y-343983D01*
X-304954Y-345546D01*
X-306517Y-347583D01*
X-307499Y-349955D01*
X-307834Y-352500D01*
X-307499Y-355045D01*
X-306517Y-357417D01*
X-304954Y-359454D01*
X-302917Y-361017D01*
X-301599Y-361562D01*
Y-468000D01*
X-301599Y-468000D01*
X-301204Y-471002D01*
X-300045Y-473800D01*
X-298202Y-476202D01*
X-279202Y-495202D01*
X-276800Y-497045D01*
X-274002Y-498204D01*
X-271000Y-498599D01*
X-267998Y-498204D01*
X-265200Y-497045D01*
X-262798Y-495202D01*
X-260955Y-492800D01*
X-259796Y-490002D01*
X-259401Y-487000D01*
X-259796Y-483998D01*
X-260955Y-481200D01*
X-262798Y-478798D01*
X-278401Y-463195D01*
Y-361562D01*
X-277083Y-361017D01*
X-275046Y-359454D01*
X-273483Y-357417D01*
X-272501Y-355045D01*
X-272166Y-352500D01*
X-272501Y-349955D01*
X-273483Y-347583D01*
X-275046Y-345546D01*
X-277083Y-343983D01*
X-279455Y-343001D01*
X-282000Y-342666D01*
X-283925D01*
X-284200Y-342455D01*
X-286998Y-341296D01*
X-290000Y-340901D01*
D02*
G37*
G36*
X-208000Y-278418D02*
X-210480Y-278745D01*
X-212791Y-279702D01*
X-214776Y-281224D01*
X-216298Y-283209D01*
X-217255Y-285520D01*
X-217582Y-288000D01*
X-217255Y-290480D01*
X-216321Y-292736D01*
Y-397000D01*
X-216038Y-399154D01*
X-215206Y-401161D01*
X-213884Y-402884D01*
X-205821Y-410947D01*
Y-516715D01*
X-206960Y-517276D01*
X-207709Y-516702D01*
X-210020Y-515745D01*
X-212500Y-515418D01*
X-214980Y-515745D01*
X-217236Y-516679D01*
X-244000D01*
X-246154Y-516962D01*
X-248161Y-517794D01*
X-249884Y-519116D01*
X-258584Y-527816D01*
X-259906Y-529539D01*
X-260738Y-531546D01*
X-260964Y-533265D01*
X-261046Y-533309D01*
X-263322Y-535178D01*
X-264180Y-536222D01*
X-265450Y-535768D01*
Y-530850D01*
X-295350D01*
Y-560750D01*
X-275729D01*
X-275275Y-562020D01*
X-277172Y-563578D01*
X-279041Y-565854D01*
X-280429Y-568451D01*
X-281284Y-571269D01*
X-281572Y-574200D01*
X-281284Y-577131D01*
X-280429Y-579949D01*
X-279041Y-582546D01*
X-277172Y-584822D01*
X-274896Y-586691D01*
X-272299Y-588079D01*
X-269481Y-588934D01*
X-266550Y-589222D01*
X-263619Y-588934D01*
X-260801Y-588079D01*
X-258204Y-586691D01*
X-255928Y-584822D01*
X-254059Y-582546D01*
X-253335Y-581191D01*
X-252065D01*
X-251341Y-582546D01*
X-249472Y-584822D01*
X-247196Y-586691D01*
X-244599Y-588079D01*
X-241781Y-588934D01*
X-238850Y-589222D01*
X-235919Y-588934D01*
X-233101Y-588079D01*
X-230504Y-586691D01*
X-228228Y-584822D01*
X-226359Y-582546D01*
X-225635Y-581191D01*
X-224365D01*
X-223641Y-582546D01*
X-221772Y-584822D01*
X-219496Y-586691D01*
X-216899Y-588079D01*
X-214081Y-588934D01*
X-211150Y-589222D01*
X-208219Y-588934D01*
X-205401Y-588079D01*
X-202804Y-586691D01*
X-200528Y-584822D01*
X-198659Y-582546D01*
X-197935Y-581191D01*
X-196665D01*
X-195941Y-582546D01*
X-194072Y-584822D01*
X-191796Y-586691D01*
X-189199Y-588079D01*
X-186381Y-588934D01*
X-183450Y-589222D01*
X-180519Y-588934D01*
X-177701Y-588079D01*
X-175104Y-586691D01*
X-172828Y-584822D01*
X-170959Y-582546D01*
X-169571Y-579949D01*
X-168716Y-577131D01*
X-168428Y-574200D01*
X-168716Y-571269D01*
X-169571Y-568451D01*
X-170959Y-565854D01*
X-172828Y-563578D01*
X-175104Y-561709D01*
X-177701Y-560321D01*
X-180519Y-559466D01*
X-183450Y-559178D01*
X-186381Y-559466D01*
X-189199Y-560321D01*
X-191796Y-561709D01*
X-194072Y-563578D01*
X-195941Y-565854D01*
X-196665Y-567209D01*
X-197935D01*
X-198659Y-565854D01*
X-200528Y-563578D01*
X-202804Y-561709D01*
X-205401Y-560321D01*
X-208219Y-559466D01*
X-211150Y-559178D01*
X-214081Y-559466D01*
X-216899Y-560321D01*
X-219496Y-561709D01*
X-221772Y-563578D01*
X-223641Y-565854D01*
X-224365Y-567209D01*
X-225635D01*
X-226359Y-565854D01*
X-228228Y-563578D01*
X-230504Y-561709D01*
X-233101Y-560321D01*
X-235919Y-559466D01*
X-238850Y-559178D01*
X-241781Y-559466D01*
X-244599Y-560321D01*
X-247196Y-561709D01*
X-249472Y-563578D01*
X-251341Y-565854D01*
X-252065Y-567209D01*
X-253335D01*
X-254059Y-565854D01*
X-255928Y-563578D01*
X-258204Y-561709D01*
X-260801Y-560321D01*
X-263619Y-559466D01*
X-265450Y-559286D01*
Y-555832D01*
X-264180Y-555377D01*
X-263322Y-556422D01*
X-261046Y-558291D01*
X-258449Y-559679D01*
X-255631Y-560534D01*
X-252700Y-560822D01*
X-249769Y-560534D01*
X-246951Y-559679D01*
X-244354Y-558291D01*
X-242078Y-556422D01*
X-240209Y-554146D01*
X-239485Y-552791D01*
X-238215D01*
X-237491Y-554146D01*
X-235622Y-556422D01*
X-233346Y-558291D01*
X-230749Y-559679D01*
X-227931Y-560534D01*
X-225000Y-560822D01*
X-222069Y-560534D01*
X-219251Y-559679D01*
X-216654Y-558291D01*
X-214378Y-556422D01*
X-212509Y-554146D01*
X-211785Y-552791D01*
X-210515D01*
X-209791Y-554146D01*
X-207922Y-556422D01*
X-205646Y-558291D01*
X-203049Y-559679D01*
X-200231Y-560534D01*
X-197300Y-560822D01*
X-194369Y-560534D01*
X-191551Y-559679D01*
X-188954Y-558291D01*
X-186678Y-556422D01*
X-184809Y-554146D01*
X-183421Y-551549D01*
X-182566Y-548731D01*
X-182559Y-548652D01*
X-181280Y-548631D01*
X-181243Y-548920D01*
X-180038Y-551827D01*
X-178123Y-554323D01*
X-175627Y-556238D01*
X-172720Y-557442D01*
X-172100Y-557524D01*
Y-545800D01*
Y-534076D01*
X-172720Y-534158D01*
X-175627Y-535362D01*
X-178123Y-537277D01*
X-180038Y-539773D01*
X-181243Y-542680D01*
X-181280Y-542969D01*
X-182559Y-542948D01*
X-182566Y-542869D01*
X-183421Y-540051D01*
X-184809Y-537454D01*
X-185473Y-536645D01*
X-184856Y-535535D01*
X-184500Y-535582D01*
X-182020Y-535256D01*
X-179709Y-534298D01*
X-177724Y-532775D01*
X-176202Y-530791D01*
X-175245Y-528480D01*
X-174918Y-526000D01*
X-175245Y-523520D01*
X-176179Y-521264D01*
Y-410500D01*
X-176462Y-408346D01*
X-177294Y-406339D01*
X-178616Y-404616D01*
X-189679Y-393553D01*
Y-304736D01*
X-188745Y-302480D01*
X-188418Y-300000D01*
X-188745Y-297520D01*
X-189702Y-295209D01*
X-191224Y-293225D01*
X-193209Y-291702D01*
X-195520Y-290744D01*
X-197571Y-290474D01*
X-198000Y-290418D01*
X-198578Y-289213D01*
X-198418Y-288000D01*
X-198745Y-285520D01*
X-199702Y-283209D01*
X-201224Y-281224D01*
X-203209Y-279702D01*
X-205520Y-278745D01*
X-208000Y-278418D01*
D02*
G37*
G36*
X-167100Y-534076D02*
Y-543300D01*
X-157876D01*
X-157958Y-542680D01*
X-159162Y-539773D01*
X-161077Y-537277D01*
X-163573Y-535362D01*
X-166481Y-534158D01*
X-167100Y-534076D01*
D02*
G37*
G36*
X-453000Y-281418D02*
X-455480Y-281744D01*
X-457791Y-282702D01*
X-459776Y-284224D01*
X-461298Y-286209D01*
X-462256Y-288520D01*
X-462582Y-291000D01*
X-462256Y-293480D01*
X-461825Y-294518D01*
Y-537482D01*
X-462256Y-538520D01*
X-462582Y-541000D01*
X-462256Y-543480D01*
X-461298Y-545791D01*
X-459776Y-547775D01*
X-457791Y-549298D01*
X-455480Y-550255D01*
X-453000Y-550582D01*
X-450520Y-550255D01*
X-448209Y-549298D01*
X-446225Y-547775D01*
X-444702Y-545791D01*
X-443745Y-543480D01*
X-443418Y-541000D01*
X-443745Y-538520D01*
X-444174Y-537482D01*
Y-294518D01*
X-443745Y-293480D01*
X-443418Y-291000D01*
X-443745Y-288520D01*
X-444702Y-286209D01*
X-446225Y-284224D01*
X-448209Y-282702D01*
X-450520Y-281744D01*
X-453000Y-281418D01*
D02*
G37*
G36*
X-157876Y-548300D02*
X-167100D01*
Y-557524D01*
X-166481Y-557442D01*
X-163573Y-556238D01*
X-161077Y-554323D01*
X-159162Y-551827D01*
X-157958Y-548920D01*
X-157876Y-548300D01*
D02*
G37*
G36*
X-100050Y-529606D02*
X-104805Y-529981D01*
X-109442Y-531094D01*
X-113848Y-532919D01*
X-117915Y-535411D01*
X-121542Y-538508D01*
X-124639Y-542135D01*
X-127131Y-546202D01*
X-128956Y-550608D01*
X-130070Y-555245D01*
X-130444Y-560000D01*
X-130070Y-564755D01*
X-128956Y-569392D01*
X-127131Y-573798D01*
X-124639Y-577865D01*
X-121542Y-581492D01*
X-117915Y-584589D01*
X-113848Y-587081D01*
X-109442Y-588906D01*
X-104805Y-590019D01*
X-100050Y-590394D01*
X-95295Y-590019D01*
X-90658Y-588906D01*
X-86252Y-587081D01*
X-82185Y-584589D01*
X-78558Y-581492D01*
X-75461Y-577865D01*
X-72969Y-573798D01*
X-71144Y-569392D01*
X-70030Y-564755D01*
X-69656Y-560000D01*
X-70030Y-555245D01*
X-71144Y-550608D01*
X-72969Y-546202D01*
X-75461Y-542135D01*
X-78558Y-538508D01*
X-82185Y-535411D01*
X-86252Y-532919D01*
X-90658Y-531094D01*
X-95295Y-529981D01*
X-100050Y-529606D01*
D02*
G37*
G36*
X-349950D02*
X-354705Y-529981D01*
X-359342Y-531094D01*
X-363748Y-532919D01*
X-367815Y-535411D01*
X-371442Y-538508D01*
X-374539Y-542135D01*
X-377031Y-546202D01*
X-378856Y-550608D01*
X-379969Y-555245D01*
X-380344Y-560000D01*
X-379969Y-564755D01*
X-378856Y-569392D01*
X-377031Y-573798D01*
X-374539Y-577865D01*
X-371442Y-581492D01*
X-367815Y-584589D01*
X-363748Y-587081D01*
X-359342Y-588906D01*
X-354705Y-590019D01*
X-349950Y-590394D01*
X-345195Y-590019D01*
X-340558Y-588906D01*
X-336152Y-587081D01*
X-332085Y-584589D01*
X-328458Y-581492D01*
X-325361Y-577865D01*
X-322869Y-573798D01*
X-321044Y-569392D01*
X-319930Y-564755D01*
X-319556Y-560000D01*
X-319930Y-555245D01*
X-321044Y-550608D01*
X-322869Y-546202D01*
X-325361Y-542135D01*
X-328458Y-538508D01*
X-332085Y-535411D01*
X-336152Y-532919D01*
X-340558Y-531094D01*
X-345195Y-529981D01*
X-349950Y-529606D01*
D02*
G37*
G36*
X207502Y-612217D02*
Y-622500D01*
X217784D01*
X217667Y-621606D01*
X216357Y-618444D01*
X214273Y-615728D01*
X211557Y-613644D01*
X208395Y-612335D01*
X207502Y-612217D01*
D02*
G37*
G36*
X7502Y-612217D02*
Y-622500D01*
X17784D01*
X17667Y-621606D01*
X16357Y-618444D01*
X14273Y-615728D01*
X11557Y-613644D01*
X8395Y-612335D01*
X7502Y-612217D01*
D02*
G37*
G36*
X2501Y-612217D02*
X1608Y-612335D01*
X-1555Y-613644D01*
X-4270Y-615728D01*
X-6354Y-618444D01*
X-7664Y-621606D01*
X-7782Y-622500D01*
X2501D01*
Y-612217D01*
D02*
G37*
G36*
X202502D02*
X201608Y-612335D01*
X198445Y-613644D01*
X195730Y-615728D01*
X193646Y-618444D01*
X192336Y-621606D01*
X192218Y-622500D01*
X202502D01*
Y-612217D01*
D02*
G37*
G36*
X217784Y-627500D02*
X207502D01*
Y-637783D01*
X208395Y-637665D01*
X211557Y-636355D01*
X214273Y-634272D01*
X216357Y-631556D01*
X217667Y-628394D01*
X217784Y-627500D01*
D02*
G37*
G36*
X17784D02*
X7502D01*
Y-637783D01*
X8395Y-637665D01*
X11557Y-636355D01*
X14273Y-634272D01*
X16357Y-631556D01*
X17667Y-628394D01*
X17784Y-627500D01*
D02*
G37*
G36*
X2501D02*
X-7782D01*
X-7664Y-628394D01*
X-6354Y-631556D01*
X-4270Y-634272D01*
X-1555Y-636355D01*
X1608Y-637665D01*
X2501Y-637783D01*
Y-627500D01*
D02*
G37*
G36*
X202502D02*
X192218D01*
X192336Y-628394D01*
X193646Y-631556D01*
X195730Y-634272D01*
X198445Y-636355D01*
X201608Y-637665D01*
X202502Y-637783D01*
Y-627500D01*
D02*
G37*
G36*
X291001Y-609000D02*
X259001D01*
Y-641000D01*
X291001D01*
Y-609000D01*
D02*
G37*
G36*
X91001D02*
X59001D01*
Y-641000D01*
X91001D01*
Y-609000D01*
D02*
G37*
G36*
X240000Y-608923D02*
X236863Y-609231D01*
X233847Y-610146D01*
X231068Y-611632D01*
X228631Y-613632D01*
X226632Y-616068D01*
X225146Y-618847D01*
X224231Y-621864D01*
X223923Y-625000D01*
X224231Y-628136D01*
X225146Y-631153D01*
X226632Y-633932D01*
X228631Y-636368D01*
X231068Y-638368D01*
X233847Y-639854D01*
X236863Y-640769D01*
X240000Y-641077D01*
X243137Y-640769D01*
X246153Y-639854D01*
X248932Y-638368D01*
X251369Y-636368D01*
X253368Y-633932D01*
X254854Y-631153D01*
X255769Y-628136D01*
X256077Y-625000D01*
X255769Y-621864D01*
X254854Y-618847D01*
X253368Y-616068D01*
X251369Y-613632D01*
X248932Y-611632D01*
X246153Y-610146D01*
X243137Y-609231D01*
X240000Y-608923D01*
D02*
G37*
G36*
X40000D02*
X36864Y-609231D01*
X33847Y-610146D01*
X31068Y-611632D01*
X28632Y-613632D01*
X26632Y-616068D01*
X25146Y-618847D01*
X24232Y-621864D01*
X23923Y-625000D01*
X24232Y-628136D01*
X25146Y-631153D01*
X26632Y-633932D01*
X28632Y-636368D01*
X31068Y-638368D01*
X33847Y-639854D01*
X36864Y-640769D01*
X40000Y-641077D01*
X43137Y-640769D01*
X46153Y-639854D01*
X48932Y-638368D01*
X51368Y-636368D01*
X53368Y-633932D01*
X54854Y-631153D01*
X55768Y-628136D01*
X56077Y-625000D01*
X55768Y-621864D01*
X54854Y-618847D01*
X53368Y-616068D01*
X51368Y-613632D01*
X48932Y-611632D01*
X46153Y-610146D01*
X43137Y-609231D01*
X40000Y-608923D01*
D02*
G37*
G36*
X146000Y-643300D02*
X118000D01*
Y-671300D01*
X121884D01*
X122292Y-672503D01*
X122015Y-672715D01*
X119771Y-675640D01*
X118360Y-679045D01*
X117879Y-682700D01*
X118360Y-686355D01*
X119771Y-689760D01*
X122015Y-692685D01*
X124940Y-694929D01*
X128345Y-696340D01*
X132000Y-696821D01*
X135655Y-696340D01*
X139060Y-694929D01*
X141985Y-692685D01*
X144229Y-689760D01*
X145640Y-686355D01*
X146121Y-682700D01*
X145640Y-679045D01*
X144229Y-675640D01*
X141985Y-672715D01*
X141708Y-672503D01*
X142116Y-671300D01*
X146000D01*
Y-643300D01*
D02*
G37*
%LPD*%
G36*
X-62249Y440474D02*
X-60286Y437915D01*
X-57362Y435671D01*
X-53956Y434260D01*
X-50301Y433779D01*
X-46647Y434260D01*
X-43241Y435671D01*
X-40317Y437915D01*
X-38353Y440474D01*
X-38010Y440576D01*
X-37193D01*
X-36850Y440474D01*
X-34886Y437915D01*
X-31962Y435671D01*
X-28556Y434260D01*
X-24901Y433779D01*
X-21247Y434260D01*
X-20873Y434415D01*
X-19817Y433710D01*
Y254418D01*
X-20298Y253791D01*
X-21256Y251480D01*
X-21582Y249000D01*
X-21256Y246520D01*
X-20298Y244209D01*
X-18776Y242225D01*
X-16791Y240702D01*
X-14480Y239744D01*
X-12000Y239418D01*
X-9520Y239744D01*
X-7209Y240702D01*
X-5224Y242225D01*
X-3702Y244209D01*
X-2745Y246520D01*
X-2418Y249000D01*
X-2745Y251480D01*
X-3702Y253791D01*
X-4183Y254418D01*
Y433560D01*
X-2913Y434228D01*
X499Y433779D01*
X2913Y434097D01*
X4183Y432983D01*
Y224318D01*
X3702Y223690D01*
X2745Y221380D01*
X2418Y218899D01*
X2745Y216420D01*
X3702Y214109D01*
X5224Y212124D01*
X7209Y210601D01*
X9520Y209644D01*
X12000Y209317D01*
X14480Y209644D01*
X15815Y210197D01*
X17441Y209591D01*
X17794Y208739D01*
X19116Y207015D01*
X25116Y201015D01*
X26839Y199693D01*
X28846Y198862D01*
X31000Y198578D01*
X46825D01*
X52529Y192875D01*
Y54354D01*
X52812Y52200D01*
X53644Y50193D01*
X54966Y48470D01*
X55679Y47757D01*
Y-101000D01*
X55962Y-103154D01*
X56794Y-105161D01*
X58116Y-106884D01*
X131679Y-180447D01*
Y-219000D01*
X131962Y-221154D01*
X132183Y-221687D01*
Y-223558D01*
X130913Y-224228D01*
X127502Y-223779D01*
X123847Y-224260D01*
X120441Y-225671D01*
X117517Y-227915D01*
X115554Y-230473D01*
X115211Y-230576D01*
X114393D01*
X114050Y-230473D01*
X112087Y-227915D01*
X109162Y-225671D01*
X105757Y-224260D01*
X102102Y-223779D01*
X98447Y-224260D01*
X95041Y-225671D01*
X92117Y-227915D01*
X89873Y-230840D01*
X88466Y-234237D01*
X88438Y-234248D01*
X87160Y-234405D01*
X86310Y-232353D01*
X84547Y-230055D01*
X82249Y-228292D01*
X79573Y-227183D01*
X79202Y-227134D01*
Y-237900D01*
X74202D01*
Y-227134D01*
X73830Y-227183D01*
X71154Y-228292D01*
X68857Y-230055D01*
X67093Y-232353D01*
X66243Y-234405D01*
X64965Y-234248D01*
X64938Y-234237D01*
X63531Y-230840D01*
X61287Y-227915D01*
X58362Y-225671D01*
X54957Y-224260D01*
X51302Y-223779D01*
X47647Y-224260D01*
X44241Y-225671D01*
X41317Y-227915D01*
X39354Y-230473D01*
X39011Y-230576D01*
X38193D01*
X37850Y-230473D01*
X35887Y-227915D01*
X32962Y-225671D01*
X29557Y-224260D01*
X25902Y-223779D01*
X22247Y-224260D01*
X18841Y-225671D01*
X15917Y-227915D01*
X13673Y-230840D01*
X12266Y-234237D01*
X12238Y-234248D01*
X10960Y-234405D01*
X10110Y-232353D01*
X8347Y-230055D01*
X6049Y-228292D01*
X3373Y-227183D01*
X3002Y-227134D01*
Y-237900D01*
X-1998D01*
Y-227134D01*
X-2370Y-227183D01*
X-5046Y-228292D01*
X-7343Y-230055D01*
X-9107Y-232353D01*
X-9957Y-234405D01*
X-11235Y-234248D01*
X-11262Y-234237D01*
X-12669Y-230840D01*
X-14913Y-227915D01*
X-17838Y-225671D01*
X-21243Y-224260D01*
X-24898Y-223779D01*
X-28553Y-224260D01*
X-31959Y-225671D01*
X-34883Y-227915D01*
X-36846Y-230473D01*
X-37189Y-230576D01*
X-38007D01*
X-38350Y-230473D01*
X-40313Y-227915D01*
X-43238Y-225671D01*
X-46643Y-224260D01*
X-50298Y-223779D01*
X-53953Y-224260D01*
X-57359Y-225671D01*
X-60283Y-227915D01*
X-62246Y-230473D01*
X-62589Y-230576D01*
X-63407D01*
X-63750Y-230473D01*
X-65713Y-227915D01*
X-68638Y-225671D01*
X-72043Y-224260D01*
X-75698Y-223779D01*
X-79353Y-224260D01*
X-82759Y-225671D01*
X-85683Y-227915D01*
X-87646Y-230473D01*
X-87989Y-230576D01*
X-88807D01*
X-89150Y-230473D01*
X-91113Y-227915D01*
X-94038Y-225671D01*
X-97443Y-224260D01*
X-101098Y-223779D01*
X-103206Y-224057D01*
X-103799Y-222854D01*
X-98473Y-217527D01*
X-97230Y-215909D01*
X-96449Y-214023D01*
X-96183Y-212000D01*
Y-199229D01*
X-95228Y-198391D01*
X-93990Y-198554D01*
X-91510Y-198228D01*
X-89199Y-197271D01*
X-87214Y-195748D01*
X-85692Y-193763D01*
X-84734Y-191452D01*
X-84712Y-191281D01*
X-84520Y-191255D01*
X-82209Y-190298D01*
X-80225Y-188776D01*
X-78702Y-186791D01*
X-77744Y-184480D01*
X-77418Y-182000D01*
X-77744Y-179520D01*
X-78702Y-177209D01*
X-79183Y-176582D01*
Y202762D01*
X-78982Y202963D01*
X-77740Y204582D01*
X-76959Y206467D01*
X-76693Y208491D01*
Y418253D01*
X-70174Y424771D01*
X-68932Y426390D01*
X-68151Y428275D01*
X-67884Y430299D01*
Y436251D01*
X-65717Y437915D01*
X-63753Y440474D01*
X-63410Y440576D01*
X-62593D01*
X-62249Y440474D01*
D02*
G37*
D10*
X165000Y-251202D02*
Y-213000D01*
X-166048Y-352500D02*
Y-226318D01*
X261000Y-221000D02*
X278844D01*
X235000Y-195000D02*
X261000Y-221000D01*
X278844D02*
X286404Y-213440D01*
X235000Y-183000D02*
X265440Y-213440D01*
X273404D01*
X-139399Y-216399D02*
X-134000Y-211000D01*
Y-186000D01*
X-139399Y-250399D02*
Y-216399D01*
X-115000Y-249398D02*
Y-223000D01*
X-104000Y-212000D02*
Y-182000D01*
X-115000Y-223000D02*
X-104000Y-212000D01*
X-87000Y-182000D02*
Y205520D01*
X-87240Y205760D02*
X-87000Y205520D01*
X-93990Y-188972D02*
Y206072D01*
X-92240Y207822D01*
X-89509Y210562D02*
Y410416D01*
X-92240Y207822D02*
Y207831D01*
X-89509Y210562D01*
X-113000Y433906D02*
X-89509Y410416D01*
X-84509Y421491D02*
X-75701Y430299D01*
X-87240Y205760D02*
X-84509Y208491D01*
Y421491D01*
X-113000Y433906D02*
Y459799D01*
X-175000Y134395D02*
Y162500D01*
Y-217366D02*
Y134395D01*
X26000Y239000D02*
Y447799D01*
X25899Y447900D02*
X26000Y447799D01*
X90000Y427000D02*
Y459999D01*
X38000Y218899D02*
Y427000D01*
X77000Y216900D02*
Y249000D01*
X-12000D02*
Y460399D01*
X63934Y218965D02*
Y239000D01*
X499Y473300D02*
X12000Y461799D01*
Y218899D02*
Y461799D01*
X-126000Y-217000D02*
Y83899D01*
X-126000Y83899D02*
X-126000Y83899D01*
X-114000Y-209000D02*
Y83899D01*
X-114000Y83899D02*
X-114000Y83899D01*
X-486246Y283200D02*
X-357500Y154454D01*
X-546689Y283200D02*
X-486246D01*
X-357500Y-60000D02*
Y154454D01*
X-487896Y275304D02*
X-365750Y153158D01*
Y-66750D02*
Y153158D01*
X-546689Y257800D02*
X-486246D01*
X-374000Y145554D01*
Y-73500D02*
Y145554D01*
X-487896Y249904D02*
X-382250Y144258D01*
Y-80250D02*
Y144258D01*
X-546689Y232400D02*
X-485504D01*
X-390000Y-87500D02*
Y136896D01*
X-485504Y232400D02*
X-390000Y136896D01*
X-487896Y224504D02*
X-399250Y135858D01*
Y-94250D02*
Y135858D01*
X-486246Y207000D02*
X-410000Y130754D01*
Y-102500D02*
Y130754D01*
X-487896Y199104D02*
X-420000Y131208D01*
Y-110000D02*
Y131208D01*
X-486246Y156200D02*
X-430000Y99954D01*
Y-21000D02*
Y99954D01*
X-487896Y148304D02*
X-438000Y98408D01*
Y-29000D02*
Y98408D01*
X-546689Y130800D02*
X-486246D01*
X-446000Y90554D01*
Y-37000D02*
Y90554D01*
X-487896Y122904D02*
X-455000Y90008D01*
Y-45000D02*
Y90008D01*
X-486246Y105400D02*
X-464000Y83154D01*
Y-54000D02*
Y83154D01*
X-487896Y97504D02*
X-472000Y81608D01*
Y-62000D02*
Y81608D01*
X-558299Y294810D02*
X-546689Y283200D01*
X-558299Y269410D02*
X-546689Y257800D01*
X-558299Y244010D02*
X-546689Y232400D01*
X-558299Y218610D02*
X-546689Y207000D01*
X-486246D01*
X-558299Y167810D02*
X-546689Y156200D01*
X-486246D01*
X-558299Y142410D02*
X-546689Y130800D01*
X-558299Y117010D02*
X-546689Y105400D01*
X-486246D01*
X-558299Y91610D02*
Y92402D01*
X-546689Y80000D02*
X-486246D01*
X-558299Y91610D02*
X-546689Y80000D01*
X-488000Y-77000D02*
Y72104D01*
X-480000Y-69000D02*
Y73754D01*
X-486246Y80000D02*
X-480000Y73754D01*
X-496198Y-136198D02*
X-496000Y-136000D01*
Y-104000D01*
X-175000Y-217366D02*
X-166048Y-226318D01*
X152902Y-263300D02*
X165000Y-251202D01*
X140000Y-250802D02*
Y-219000D01*
X127502Y-263300D02*
X140000Y-250802D01*
X-139399Y-250399D02*
X-126498Y-263300D01*
X-115000Y-249398D02*
X-101098Y-263300D01*
X76699Y473300D02*
X90000Y459999D01*
X-24901Y473300D02*
X-12000Y460399D01*
X-75701Y430299D02*
Y447900D01*
X-126501Y473300D02*
X-113000Y459799D01*
D11*
X-175000Y230897D02*
X-115503D01*
X-175496D02*
X-175000D01*
X-175496Y134395D02*
Y213397D01*
X-175000Y134395D02*
X-165996Y125391D01*
Y112897D02*
Y125391D01*
X-175496Y213397D02*
Y230897D01*
X-115496Y213397D02*
Y230890D01*
X-145496Y213397D02*
Y230397D01*
X-453000Y-541000D02*
Y-291000D01*
X-70000Y85899D02*
Y113899D01*
Y85899D02*
X-65000Y80899D01*
X-44000D01*
D23*
X91000Y265000D02*
X103000D01*
X103000Y216900D02*
Y265000D01*
X103000Y265000D01*
X-290000Y-352500D02*
X-282000D01*
X-298000D02*
X-290000D01*
X-500D02*
X7500D01*
X15500D01*
X103000Y179900D02*
X111000D01*
X103000D02*
Y210412D01*
Y216900D01*
D24*
X-175000Y230897D02*
Y402500D01*
Y176000D02*
Y230897D01*
Y402500D02*
Y416000D01*
X-190766D02*
X-175000D01*
D25*
X465000Y-352500D02*
Y-192460D01*
X454500Y-352500D02*
X465000D01*
D26*
X646000Y-384000D02*
Y-318000D01*
X656500Y-307500D02*
Y-307500D01*
X646000Y-318000D02*
X656500Y-307500D01*
X149000Y-197000D02*
Y-175000D01*
Y-197000D02*
X165000Y-213000D01*
X165100Y-189100D02*
X202000Y-226000D01*
X165100Y-189100D02*
Y-166603D01*
X202000Y-375000D02*
Y-226000D01*
X89100Y-90603D02*
Y60371D01*
Y-90603D02*
X165100Y-166603D01*
X209463Y-207000D02*
X219000D01*
X286274Y-246942D02*
X309058D01*
X319924Y-236076D01*
X273274Y-246942D02*
X286274D01*
X260574Y-246968D02*
X273574D01*
X319924Y-236076D02*
Y-190460D01*
X219000Y-207000D02*
X232000Y-220000D01*
X-505835Y-200750D02*
Y-124727D01*
X-506781Y-123781D02*
X-505835Y-124727D01*
X-506781Y-123781D02*
X-506000Y-123000D01*
X232000Y-341000D02*
Y-220000D01*
X50272Y206900D02*
X60850Y196322D01*
Y54354D02*
X64000Y51204D01*
X60850Y54354D02*
Y196322D01*
X51000Y218899D02*
X67850Y202050D01*
X73000Y-99000D02*
Y52104D01*
X67850Y57253D02*
X73000Y52104D01*
X67850Y57253D02*
Y202050D01*
X82100Y-95100D02*
Y54671D01*
X76100Y60671D02*
X82100Y54671D01*
X88800Y60671D02*
X89100Y60371D01*
X82100Y-95100D02*
X158100Y-171100D01*
Y-192100D02*
Y-171100D01*
X73000Y-99000D02*
X149000Y-175000D01*
X64000Y-101000D02*
Y51204D01*
Y-101000D02*
X140000Y-177000D01*
X-497000Y-291000D02*
Y-174000D01*
X103000Y174201D02*
Y179900D01*
X100151Y171352D02*
X103000Y174201D01*
X100151Y170901D02*
Y171352D01*
X103000Y210412D02*
X103487Y210900D01*
X138000D01*
X202000Y-375000D02*
X232000Y-405000D01*
X158100Y-192100D02*
X195000Y-229000D01*
Y-392000D02*
Y-229000D01*
Y-392000D02*
X210000Y-407000D01*
X70000Y-299000D02*
Y-271100D01*
X76702Y-264398D01*
Y-263300D01*
X-208000Y-397000D02*
Y-288000D01*
X-198000Y-397000D02*
Y-300000D01*
X-208000Y-397000D02*
X-197500Y-407500D01*
Y-526000D02*
Y-407500D01*
X-184500Y-526000D02*
Y-410500D01*
X-198000Y-397000D02*
X-184500Y-410500D01*
X79000Y-406000D02*
Y-283000D01*
X27000Y-406000D02*
Y-302000D01*
X40000Y-406000D02*
Y-292000D01*
X140000Y-219000D02*
Y-177000D01*
X-252700Y-533700D02*
X-244000Y-525000D01*
X-212500D01*
X25000Y212899D02*
Y218899D01*
X31000Y206900D02*
X50272D01*
X25000Y212899D02*
X31000Y206900D01*
X40000Y-411000D02*
X60350Y-431350D01*
Y-470650D02*
Y-431350D01*
X40000Y-411000D02*
Y-406000D01*
X-252700Y-545800D02*
Y-533700D01*
X-258000Y-401000D02*
X-229000D01*
X-266000Y-393000D02*
X-258000Y-401000D01*
X232000Y-405000D02*
X278000D01*
D27*
X319924Y-190460D02*
Y-178924D01*
X316940Y-175940D02*
X319924Y-178924D01*
Y-190460D02*
X597500D01*
X305404Y-175940D02*
X316940D01*
X215000Y-318000D02*
Y-230000D01*
Y-329000D02*
Y-318000D01*
Y-230000D02*
Y-218000D01*
D28*
X7500Y-420000D02*
Y-352500D01*
X-290000Y-468000D02*
Y-352500D01*
Y-468000D02*
X-271000Y-487000D01*
X7500Y-420000D02*
X20000Y-432500D01*
Y-489000D02*
Y-432500D01*
D29*
X76000Y-236700D02*
Y-158000D01*
Y-236700D02*
X76951Y-237651D01*
X-1000Y-235402D02*
Y-163000D01*
Y-235402D02*
X1000Y-237402D01*
X90000Y-394000D02*
Y-337000D01*
X502Y-237900D02*
X1000Y-237402D01*
D30*
X-558299Y-34598D02*
D03*
X-532899D02*
D03*
Y-59998D02*
D03*
X-558299D02*
D03*
X-532899Y-85398D02*
D03*
X-558299D02*
D03*
X-532899Y-110798D02*
D03*
X-558299D02*
D03*
X-532899Y-136198D02*
D03*
X-558299D02*
D03*
X-532899Y-161598D02*
D03*
X-558299D02*
D03*
X-532899Y-186998D02*
D03*
X-558299D02*
D03*
X-532899Y-212398D02*
D03*
Y-9198D02*
D03*
Y16202D02*
D03*
Y41602D02*
D03*
Y67002D02*
D03*
Y92402D02*
D03*
Y117802D02*
D03*
Y143202D02*
D03*
Y168602D02*
D03*
Y194002D02*
D03*
Y219402D02*
D03*
Y244802D02*
D03*
Y270202D02*
D03*
Y295602D02*
D03*
Y321002D02*
D03*
Y346402D02*
D03*
Y371802D02*
D03*
Y397202D02*
D03*
Y422602D02*
D03*
X-558299Y-9198D02*
D03*
Y16202D02*
D03*
Y41602D02*
D03*
Y67002D02*
D03*
Y92402D02*
D03*
Y117802D02*
D03*
Y143202D02*
D03*
Y168602D02*
D03*
Y194002D02*
D03*
Y219402D02*
D03*
Y244802D02*
D03*
Y270202D02*
D03*
Y295602D02*
D03*
Y321002D02*
D03*
Y346402D02*
D03*
Y371802D02*
D03*
Y397202D02*
D03*
Y422602D02*
D03*
X178299Y473300D02*
D03*
X152899D02*
D03*
X127499D02*
D03*
X102099D02*
D03*
X76699D02*
D03*
X51299D02*
D03*
X25899D02*
D03*
X499D02*
D03*
X-24901D02*
D03*
X-50301D02*
D03*
X-75701D02*
D03*
X-101101D02*
D03*
X-126501D02*
D03*
X-151901D02*
D03*
X-177301D02*
D03*
X-202701D02*
D03*
X-228101D02*
D03*
X-253501D02*
D03*
X178299Y447900D02*
D03*
X152899D02*
D03*
X127499D02*
D03*
X102099D02*
D03*
X76699D02*
D03*
X51299D02*
D03*
X25899D02*
D03*
X499D02*
D03*
X-24901D02*
D03*
X-50301D02*
D03*
X-75701D02*
D03*
X-101101D02*
D03*
X-126501D02*
D03*
X-151901D02*
D03*
X-177301D02*
D03*
X-202701D02*
D03*
X-228101D02*
D03*
X-253501D02*
D03*
X-456701D02*
D03*
X-431301Y473300D02*
D03*
Y447900D02*
D03*
X-405901Y473300D02*
D03*
Y447900D02*
D03*
X-380501Y473300D02*
D03*
Y447900D02*
D03*
X-355101Y473300D02*
D03*
Y447900D02*
D03*
X-329701Y473300D02*
D03*
Y447900D02*
D03*
X-304301Y473300D02*
D03*
Y447900D02*
D03*
X-278901D02*
D03*
Y473300D02*
D03*
X178302Y-237900D02*
D03*
X152902D02*
D03*
X127502D02*
D03*
X102102D02*
D03*
X76702D02*
D03*
X51302D02*
D03*
X25902D02*
D03*
X502D02*
D03*
X-24898D02*
D03*
X-50298D02*
D03*
X-75698D02*
D03*
X-101098D02*
D03*
X-126498D02*
D03*
X-151898D02*
D03*
X-177298D02*
D03*
X-202698D02*
D03*
X-228098D02*
D03*
X-253498D02*
D03*
X178302Y-263300D02*
D03*
X152902D02*
D03*
X127502D02*
D03*
X102102D02*
D03*
X76702D02*
D03*
X51302D02*
D03*
X25902D02*
D03*
X502D02*
D03*
X-24898D02*
D03*
X-50298D02*
D03*
X-75698D02*
D03*
X-101098D02*
D03*
X-126498D02*
D03*
X-151898D02*
D03*
X-177298D02*
D03*
X-202698D02*
D03*
X-228098D02*
D03*
X-253498D02*
D03*
X-456698D02*
D03*
X-431298Y-237900D02*
D03*
Y-263300D02*
D03*
X-405898Y-237900D02*
D03*
Y-263300D02*
D03*
X-380498Y-237900D02*
D03*
Y-263300D02*
D03*
X-355098Y-237900D02*
D03*
Y-263300D02*
D03*
X-329698Y-237900D02*
D03*
Y-263300D02*
D03*
X-304298Y-237900D02*
D03*
Y-263300D02*
D03*
X-278898D02*
D03*
Y-237900D02*
D03*
X132000Y-682700D02*
D03*
D31*
X-558299Y-212398D02*
D03*
X132000Y-657300D02*
D03*
D32*
X-456701Y473300D02*
D03*
X-456698Y-237900D02*
D03*
D33*
X205001Y-625000D02*
D03*
X240000D02*
D03*
X40000D02*
D03*
X5001D02*
D03*
D34*
X275001D02*
D03*
X75001D02*
D03*
D35*
X1000000Y-500000D02*
D03*
Y500000D02*
D03*
X-1000000D02*
D03*
X343000Y-283000D02*
D03*
Y493000D02*
D03*
X-793000D02*
D03*
Y-283000D02*
D03*
X-1000000Y-500000D02*
D03*
D36*
X-169600Y-545800D02*
D03*
X-183450Y-574200D02*
D03*
X-197300Y-545800D02*
D03*
X-211150Y-574200D02*
D03*
X-225000Y-545800D02*
D03*
X-238850Y-574200D02*
D03*
X-252700Y-545800D02*
D03*
X-266550Y-574200D02*
D03*
D37*
X-280400Y-545800D02*
D03*
D38*
X-349950Y-560000D02*
D03*
X-100050D02*
D03*
D39*
X91000Y265000D02*
D03*
X103000Y253000D02*
D03*
X-175916Y277094D02*
D03*
X-176000Y253000D02*
D03*
Y265000D02*
D03*
X103000D02*
D03*
X481000Y-208000D02*
D03*
X438000D02*
D03*
X454500Y-352500D02*
D03*
X646000Y-384000D02*
D03*
X656500Y-307500D02*
D03*
X209463Y-207000D02*
D03*
X286274Y-246942D02*
D03*
X273274D02*
D03*
X260574Y-246968D02*
D03*
X247320Y-247081D02*
D03*
X597500Y-190460D02*
D03*
X465000Y-352500D02*
D03*
X235000Y-183000D02*
D03*
X235000Y-195000D02*
D03*
X-134000Y-186000D02*
D03*
X76000Y-158000D02*
D03*
X-1000Y-163000D02*
D03*
X-104000Y-182000D02*
D03*
X-505835Y-200750D02*
D03*
X-87000Y-182000D02*
D03*
X-93990Y-188972D02*
D03*
X232000Y-341000D02*
D03*
X215000Y-318000D02*
D03*
Y-230000D02*
D03*
Y-329000D02*
D03*
Y-218000D02*
D03*
X90000Y427000D02*
D03*
X38000Y427000D02*
D03*
X77000Y249000D02*
D03*
X-12000D02*
D03*
X64000Y239000D02*
D03*
X26000D02*
D03*
X-126000Y-217000D02*
D03*
X-114000Y-209000D02*
D03*
X612500Y-166250D02*
D03*
X602500D02*
D03*
X635000Y-170000D02*
D03*
X623000Y-159000D02*
D03*
X647000D02*
D03*
X635250Y-147250D02*
D03*
X-487896Y275304D02*
D03*
Y249904D02*
D03*
Y224504D02*
D03*
Y199104D02*
D03*
Y148304D02*
D03*
Y122904D02*
D03*
Y97504D02*
D03*
Y72104D02*
D03*
X-420000Y-110000D02*
D03*
X-410000Y-102500D02*
D03*
X-399250Y-94250D02*
D03*
X-390000Y-87500D02*
D03*
X-382250Y-80250D02*
D03*
X-374000Y-73500D02*
D03*
X-365750Y-66750D02*
D03*
X-357500Y-60000D02*
D03*
X-488000Y-77000D02*
D03*
X-480000Y-69000D02*
D03*
X-472000Y-62000D02*
D03*
X-464000Y-54000D02*
D03*
X-455000Y-45000D02*
D03*
X-446000Y-37000D02*
D03*
X-438000Y-29000D02*
D03*
X-430000Y-21000D02*
D03*
X-496000Y-104000D02*
D03*
X-496198Y-136198D02*
D03*
X286404Y-213440D02*
D03*
X90000Y-394000D02*
D03*
Y-337000D02*
D03*
X587000Y-260500D02*
D03*
X229404Y-149851D02*
D03*
X90000Y218899D02*
D03*
X-500Y-352500D02*
D03*
X15500D02*
D03*
X-298000D02*
D03*
X-282000D02*
D03*
X-165949Y-352500D02*
D03*
X-175000Y402500D02*
D03*
X-190766Y416000D02*
D03*
X-497000Y-291000D02*
D03*
Y-174000D02*
D03*
X566752Y-200750D02*
D03*
X-506000Y-123000D02*
D03*
X111000Y147903D02*
D03*
X100151Y170901D02*
D03*
X111000Y179900D02*
D03*
X138000Y210900D02*
D03*
X103000Y216900D02*
D03*
X77000D02*
D03*
X-175000Y416000D02*
D03*
X657000Y-328500D02*
D03*
Y-342500D02*
D03*
X627000Y-307500D02*
D03*
X305404Y-175940D02*
D03*
X320405Y-151160D02*
D03*
X-290000Y-352500D02*
D03*
X7500D02*
D03*
X70000Y-299000D02*
D03*
X-453000Y-291000D02*
D03*
X-198000Y-300000D02*
D03*
X-208000Y-288000D02*
D03*
X79000Y-283000D02*
D03*
X27000Y-302000D02*
D03*
X40000Y-292000D02*
D03*
X210000Y-407000D02*
D03*
X88800Y60671D02*
D03*
X76100D02*
D03*
X-114000Y83899D02*
D03*
X-126000D02*
D03*
X63934Y218965D02*
D03*
X12000Y218899D02*
D03*
X-115496Y213397D02*
D03*
X-145496D02*
D03*
X-175496D02*
D03*
X-160496D02*
D03*
X273404Y-213440D02*
D03*
X305404Y-211940D02*
D03*
X38000Y218899D02*
D03*
X-212500Y-525000D02*
D03*
X-100496Y213397D02*
D03*
X-130496D02*
D03*
X-102996Y150897D02*
D03*
X60350Y-470650D02*
D03*
X25000Y218899D02*
D03*
X51000D02*
D03*
X27000Y-406000D02*
D03*
X40000D02*
D03*
X53000Y-406003D02*
D03*
X66000D02*
D03*
X79000Y-406000D02*
D03*
X-184500Y-526000D02*
D03*
X-197500D02*
D03*
X-229000Y-401000D02*
D03*
X-266000Y-393000D02*
D03*
X619002Y-260500D02*
D03*
X555002Y-253500D02*
D03*
X543002Y-230500D02*
D03*
X543502Y-221500D02*
D03*
X542502Y-239500D02*
D03*
X-271000Y-457000D02*
D03*
X-242000Y-460000D02*
D03*
X-271000Y-487000D02*
D03*
X-25000Y-507000D02*
D03*
X-14000D02*
D03*
X-3000D02*
D03*
X132000D02*
D03*
X121000D02*
D03*
X110000D02*
D03*
X175000Y-589000D02*
D03*
X186000D02*
D03*
X197000D02*
D03*
X291000D02*
D03*
X302000D02*
D03*
X313000D02*
D03*
X20000Y-489000D02*
D03*
Y-519000D02*
D03*
X73000D02*
D03*
X210000Y-486000D02*
D03*
X278000Y-405000D02*
D03*
X237000Y-389000D02*
D03*
X311000Y-607000D02*
D03*
X-241855Y-384145D02*
D03*
X-181855Y-391855D02*
D03*
X-165996Y83897D02*
D03*
X-139350Y118543D02*
D03*
X-165996Y112897D02*
D03*
X-13000Y54900D02*
D03*
X-70000Y113899D02*
D03*
X-44000Y80899D02*
D03*
X-78000Y109900D02*
D03*
X-66000Y131899D02*
D03*
X657000Y-264000D02*
D03*
X657000Y-251502D02*
D03*
X-437000Y-541000D02*
D03*
X-453000Y-541000D02*
D03*
M02*
